<svg width="43" height="51" viewBox="0 0 43 51" version="2.0" xmlns="http://www.w3.org/2000/svg" xmlns:xlink="http://www.w3.org/1999/xlink" xmlns:figma="http://www.figma.com/figma/ns">
<title>Group-2.svg</title>
<desc>Created using Figma 0.90</desc>
<g id="Canvas" transform="translate(-2124 -2453)" figma:type="canvas">
<g id="Group" style="mix-blend-mode:normal;" figma:type="group">
<g id="Group" style="mix-blend-mode:normal;" figma:type="group">
<g id="Group" style="mix-blend-mode:normal;" figma:type="group">
<g id="g" style="mix-blend-mode:normal;" figma:type="group">
<g id="path" style="mix-blend-mode:normal;" figma:type="group">
<g id="path9 fill" style="mix-blend-mode:normal;" figma:type="vector">
<use xlink:href="#path0_fill" transform="translate(2124.14 2474.36)" fill="#FFFFFF" style="mix-blend-mode:normal;"/>
</g>
</g>
<g id="path" style="mix-blend-mode:normal;" figma:type="group">
<g id="path10 fill" style="mix-blend-mode:normal;" figma:type="vector">
<use xlink:href="#path1_fill" transform="translate(2129.29 2474.37)" fill="#FFFFFF" style="mix-blend-mode:normal;"/>
</g>
</g>
<g id="path" style="mix-blend-mode:normal;" figma:type="group">
<g id="path11 fill" style="mix-blend-mode:normal;" figma:type="vector">
<use xlink:href="#path2_fill" transform="translate(2136.98 2474.25)" fill="#FFFFFF" style="mix-blend-mode:normal;"/>
</g>
</g>
<g id="path" style="mix-blend-mode:normal;" figma:type="group">
<g id="path12 fill" style="mix-blend-mode:normal;" figma:type="vector">
<use xlink:href="#path3_fill" transform="translate(2144.03 2474.39)" fill="#FFFFFF" style="mix-blend-mode:normal;"/>
</g>
</g>
<g id="path" style="mix-blend-mode:normal;" figma:type="group">
<g id="path13 fill" style="mix-blend-mode:normal;" figma:type="vector">
<use xlink:href="#path4_fill" transform="translate(2151.17 2472.54)" fill="#FFFFFF" style="mix-blend-mode:normal;"/>
</g>
</g>
<g id="path" style="mix-blend-mode:normal;" figma:type="group">
<g id="path14 fill" style="mix-blend-mode:normal;" figma:type="vector">
<use xlink:href="#path5_fill" transform="translate(2156.07 2474.28)" fill="#FFFFFF" style="mix-blend-mode:normal;"/>
</g>
</g>
<g id="path" style="mix-blend-mode:normal;" figma:type="group">
<g id="path15 fill" style="mix-blend-mode:normal;" figma:type="vector">
<use xlink:href="#path6_fill" transform="translate(2163.56 2474.23)" fill="#FFFFFF" style="mix-blend-mode:normal;"/>
</g>
</g>
</g>
</g>
<g id="g" style="mix-blend-mode:normal;" figma:type="group">
<g id="path" style="mix-blend-mode:normal;" figma:type="group">
<g id="path16 fill" style="mix-blend-mode:normal;" figma:type="vector">
<use xlink:href="#path7_fill" transform="translate(2157.05 2453.69)" fill="#FFFFFF" style="mix-blend-mode:normal;"/>
</g>
</g>
<g id="path" style="mix-blend-mode:normal;" figma:type="group">
<g id="path17 fill" style="mix-blend-mode:normal;" figma:type="vector">
<use xlink:href="#path8_fill" transform="translate(2126.81 2484.27)" fill="#FFFFFF" style="mix-blend-mode:normal;"/>
</g>
</g>
<g id="path" style="mix-blend-mode:normal;" figma:type="group">
<g id="path18 fill" style="mix-blend-mode:normal;" figma:type="vector">
<use xlink:href="#path9_fill" transform="translate(2126.81 2457.88)" fill="#FFFFFF" style="mix-blend-mode:normal;"/>
</g>
</g>
<g id="path" style="mix-blend-mode:normal;" figma:type="group">
<g id="path19 fill" style="mix-blend-mode:normal;" figma:type="vector">
<use xlink:href="#path10_fill" transform="translate(2126.88 2496.09)" fill="#FFFFFF" style="mix-blend-mode:normal;"/>
</g>
</g>
<g id="path" style="mix-blend-mode:normal;" figma:type="group">
<g id="path20 fill" style="mix-blend-mode:normal;" figma:type="vector">
<use xlink:href="#path11_fill" transform="translate(2125.47 2458.43)" fill="#FFFFFF" style="mix-blend-mode:normal;"/>
</g>
</g>
</g>
</g>
</g>
</g>
<defs>
<path id="path0_fill" d="M 1.74499 5.47535C 1.74499 7.03338 1.62035 7.54085 1.29984 7.91478C 0.943123 8.23599 0.480026 8.41362 0 8.41334L 0.124642 9.30365C 0.868843 9.3137 1.59095 9.05082 2.15453 8.5647C 2.45776 8.19491 2.68341 7.76784 2.81801 7.30896C 2.95262 6.85008 2.99342 6.36879 2.93799 5.89379L 2.93799 0L 1.74499 0L 1.74499 5.43974L 1.74499 5.47535Z"/>
<path id="path1_fill" d="M 5.50206 4.76311C 5.50206 5.43084 5.50206 6.02734 5.55548 6.54371L 4.49602 6.54371L 4.4248 5.48425C 4.20319 5.85911 3.88629 6.16861 3.50629 6.38128C 3.1263 6.59395 2.69677 6.70222 2.26136 6.69506C 1.22862 6.69506 0 6.13417 0 3.8461L 0 0.0445151L 1.193 0.0445151L 1.193 3.60572C 1.193 4.84324 1.57583 5.67122 2.6531 5.67122C 2.87473 5.6736 3.09461 5.63171 3.29984 5.54799C 3.50506 5.46427 3.69151 5.34041 3.84824 5.18369C 4.00496 5.02696 4.12882 4.84051 4.21254 4.63529C 4.29625 4.43006 4.33815 4.21018 4.33577 3.98855L 4.33577 0L 5.52877 0L 5.52877 4.7275L 5.50206 4.76311Z"/>
<path id="path2_fill" d="M 0.0534181 2.27265C 0.0534181 1.44467 0.0534181 0.76804 0 0.153732L 1.06836 0.153732L 1.12178 1.26661C 1.3598 0.864538 1.70247 0.534596 2.11326 0.311956C 2.52405 0.0893149 2.98756 -0.0176787 3.45437 0.00238096C 5.0391 0.00238096 6.23211 1.32893 6.23211 3.3054C 6.23211 5.63799 4.79872 6.79538 3.2496 6.79538C 2.8531 6.81308 2.45875 6.72813 2.1047 6.54877C 1.75065 6.3694 1.44889 6.10169 1.22862 5.77153L 1.22862 9.33274L 0.0534181 9.33274L 0.0534181 2.29936L 0.0534181 2.27265ZM 1.22862 4.00874C 1.23184 4.17028 1.24972 4.33119 1.28203 4.4895C 1.38305 4.88481 1.61299 5.23515 1.93549 5.48509C 2.25799 5.73502 2.65462 5.87028 3.06264 5.86946C 4.31796 5.86946 5.05691 4.84562 5.05691 3.35882C 5.05691 2.05898 4.36247 0.9461 3.10715 0.9461C 2.61037 0.986782 2.14549 1.20726 1.79966 1.56621C 1.45383 1.92515 1.25079 2.39791 1.22862 2.89586L 1.22862 4.00874L 1.22862 4.00874Z"/>
<path id="path3_fill" d="M 1.31765 0.017806L 2.75103 3.855C 2.90238 4.28235 3.06264 4.79872 3.16947 5.18155C 3.29411 4.78982 3.42766 4.29125 3.58791 3.82829L 4.88775 0.017806L 6.14308 0.017806L 4.36248 4.64737C 3.47217 6.87312 2.92909 8.02161 2.11001 8.71605C 1.69746 9.09287 1.19449 9.35662 0.64992 9.48171L 0.35612 8.48457C 0.73689 8.35946 1.09039 8.16307 1.39777 7.90587C 1.8321 7.55192 2.17679 7.10047 2.40381 6.58823C 2.4524 6.49951 2.48552 6.40317 2.50175 6.30333C 2.49163 6.19589 2.46458 6.09072 2.42162 5.99173L 0 0L 1.29984 0L 1.31765 0.017806Z"/>
<path id="path4_fill" d="M 2.17233 0L 2.17233 1.86963L 3.89952 1.86963L 3.89952 2.75993L 2.19014 2.75993L 2.19014 6.26772C 2.19014 7.06899 2.42162 7.53195 3.08044 7.53195C 3.31443 7.53578 3.54791 7.50884 3.77488 7.45182L 3.82829 8.34212C 3.48795 8.46003 3.12883 8.51435 2.76884 8.50238C 2.53043 8.5173 2.29162 8.48047 2.06879 8.39441C 1.84596 8.30835 1.64439 8.1751 1.4779 8.00381C 1.11525 7.51877 0.94983 6.91435 1.01494 6.31223L 1.01494 2.75103L 0 2.75103L 0 1.86073L 1.01494 1.86073L 1.01494 0.302702L 2.17233 0Z"/>
<path id="path5_fill" d="M 1.17717 3.57901C 1.153 3.88095 1.19469 4.18453 1.29934 4.46878C 1.40399 4.75303 1.56911 5.01116 1.78329 5.22535C 1.99748 5.43953 2.25561 5.60466 2.53986 5.70931C 2.82411 5.81396 3.12769 5.85564 3.42963 5.83147C 4.04035 5.84513 4.64708 5.72985 5.21023 5.49316L 5.415 6.38346C 4.72396 6.66812 3.98086 6.80461 3.23376 6.78409C 2.79823 6.81391 2.36139 6.74917 1.95323 6.5943C 1.54506 6.43944 1.17522 6.19812 0.869075 5.8869C 0.56293 5.57568 0.327725 5.20193 0.179592 4.79127C 0.0314585 4.38061 -0.0260963 3.94278 0.0108749 3.50779C 0.0108749 1.54912 1.17717 0 3.08241 0C 5.21914 0 5.75332 1.86963 5.75332 3.06264C 5.76474 3.24645 5.76474 3.4308 5.75332 3.61462L 1.15046 3.61462L 1.17717 3.57901ZM 4.66715 2.68871C 4.70151 2.45069 4.68445 2.20806 4.61712 1.97719C 4.54978 1.74632 4.43374 1.53256 4.27682 1.35032C 4.11989 1.16808 3.92572 1.0216 3.7074 0.920748C 3.48908 0.819893 3.25168 0.767009 3.01119 0.765659C 2.52203 0.801068 2.06372 1.01789 1.7261 1.37362C 1.38848 1.72936 1.19589 2.19836 1.18607 2.68871L 4.66715 2.68871Z"/>
<path id="path6_fill" d="M 0.0712241 2.19229C 0.0712241 1.42663 0.0712241 0.76781 0.017806 0.162405L 1.05946 0.162405L 1.05946 1.43554L 1.11288 1.43554C 1.22501 1.0426 1.4567 0.694317 1.77578 0.439051C 2.09487 0.183784 2.48551 0.0341961 2.89348 0.0110538C 3.00577 -0.0036846 3.1195 -0.0036846 3.23179 0.0110538L 3.23179 1.12393C 3.09573 1.10818 2.95831 1.10818 2.82225 1.12393C 2.4181 1.13959 2.03347 1.30183 1.7402 1.58035C 1.44693 1.85888 1.26508 2.23463 1.22862 2.63744C 1.19533 2.81961 1.17746 3.00426 1.1752 3.18943L 1.1752 6.6527L 0 6.6527L 0 2.20119L 0.0712241 2.19229Z"/>
<path id="path7_fill" d="M 6.03062 2.83566C 6.06718 3.43377 5.92487 4.02923 5.62182 4.54617C 5.31878 5.06312 4.86871 5.47816 4.32895 5.73841C 3.78919 5.99867 3.18418 6.09236 2.59098 6.00756C 1.99779 5.92275 1.44327 5.66329 0.998052 5.26222C 0.552839 4.86115 0.237091 4.33663 0.0910311 3.75547C -0.0550289 3.17432 -0.0247893 2.56284 0.177898 1.99894C 0.380585 1.43503 0.746545 0.944226 1.22916 0.58904C 1.71177 0.233854 2.28919 0.0303687 2.88786 0.00450545C 3.28036 -0.0170933 3.67327 0.0391146 4.04398 0.169897C 4.41469 0.300679 4.75589 0.503455 5.04796 0.766564C 5.34003 1.02967 5.5772 1.34792 5.74584 1.70302C 5.91448 2.05811 6.01126 2.44304 6.03062 2.83566Z"/>
<path id="path8_fill" d="M 18.6963 7.12241C 10.6836 7.12241 3.64133 4.24674 0 0C 1.41285 3.82043 3.96217 7.11633 7.30483 9.44408C 10.6475 11.7718 14.623 13.0197 18.6963 13.0197C 22.7696 13.0197 26.7452 11.7718 30.0878 9.44408C 33.4305 7.11633 35.9798 3.82043 37.3926 0C 33.7513 4.24674 26.7446 7.12241 18.6963 7.12241Z"/>
<path id="path9_fill" d="M 18.6963 5.89728C 26.709 5.89728 33.7513 8.77295 37.3926 13.0197C 35.9798 9.19926 33.4305 5.90336 30.0878 3.57561C 26.7452 1.24786 22.7696 4.04862e-13 18.6963 0C 14.623 4.04862e-13 10.6475 1.24786 7.30483 3.57561C 3.96217 5.90336 1.41285 9.19926 0 13.0197C 3.64133 8.76405 10.648 5.89728 18.6963 5.89728Z"/>
<path id="path10_fill" d="M 7.5958 3.56658C 7.64279 4.31994 7.46445 5.07024 7.0835 5.72189C 6.70254 6.37353 6.13622 6.89701 5.45669 7.22564C 4.77715 7.55427 4.01517 7.67317 3.26782 7.56719C 2.52047 7.46121 1.82159 7.13514 1.26021 6.63054C 0.698842 6.12593 0.300395 5.46564 0.115638 4.73377C -0.0691194 4.0019 -0.0318221 3.2316 0.222778 2.52101C 0.477378 1.81041 0.937754 1.1917 1.54525 0.743688C 2.15275 0.295679 2.87986 0.0386597 3.63396 0.00537591C 4.12795 -0.0210472 4.62232 0.0501175 5.0888 0.214804C 5.55529 0.379491 5.98475 0.634473 6.35267 0.965183C 6.72058 1.29589 7.01974 1.69585 7.23304 2.14221C 7.44634 2.58856 7.5696 3.07257 7.5958 3.56658L 7.5958 3.56658Z"/>
<path id="path11_fill" d="M 2.25062 4.37945C 1.81887 4.39137 1.39323 4.27537 1.02723 4.04604C 0.661226 3.8167 0.371208 3.48426 0.193642 3.09053C 0.0160763 2.6968 -0.041108 2.25936 0.0292805 1.83322C 0.0996691 1.40708 0.294487 1.01126 0.589236 0.695545C 0.883985 0.379831 1.2655 0.158317 1.68581 0.0588579C 2.10612 -0.0406007 2.54646 -0.0135623 2.95144 0.136573C 3.35642 0.286708 3.70797 0.553237 3.96188 0.90264C 4.21579 1.25204 4.36072 1.66872 4.37844 2.10028C 4.39531 2.68381 4.18133 3.25045 3.78294 3.67717C 3.38456 4.10389 2.83394 4.35625 2.25062 4.37945L 2.25062 4.37945Z"/>
</defs>
</svg>
