<?xml version="1.0" encoding="UTF-8"?>
<svg width="200px" height="200px" viewBox="0 0 200 200" version="1.1" xmlns="http://www.w3.org/2000/svg" xmlns:xlink="http://www.w3.org/1999/xlink">
    <!-- Generator: Sketch 40.3 (33839) - http://www.bohemiancoding.com/sketch -->
    <title>Artboard</title>
    <desc>Created with Sketch.</desc>
    <defs>
        <polyline id="path-1" points="0 0.425608842 198.975917 0.425608842 198.975917 192.942675 0 192.942675"></polyline>
    </defs>
    <g id="Page-1" stroke="none" stroke-width="1" fill="none" fill-rule="evenodd" opacity="0.82">
        <g id="Artboard">
            <g id="github" transform="translate(0.500000, 1.950000)">
                <g id="Page-1" transform="translate(-0.000000, 0.000000)">
                    <g id="About---Desktop-Copy">
                        <g>
                            <g id="Page-1" transform="translate(0.000000, 1.148468)">
                                <g id="Group-3">
                                    <g id="Fill-1-Clipped">
                                        <mask id="mask-2" fill="white">
                                            <use xlink:href="#path-1"></use>
                                        </mask>
                                        <g id="path-1"></g>
                                        <path d="M117.826734,142.879205 C122.222327,142.012855 126.262774,141.399032 130.207222,140.404053 C142.079817,137.411077 152.030079,131.561793 157.526581,120.121428 C163.093071,108.535882 164.346253,96.2882782 161.589726,83.7257239 C160.371539,78.1734201 157.622106,73.2968886 153.941536,68.9769589 C153.11349,68.0051521 152.77584,67.2054803 153.199085,65.853463 C155.619853,58.1149483 154.889698,50.4762155 152.269366,42.9065259 C151.790319,41.5223512 151.026588,41.0953238 149.666058,41.1251165 C144.914372,41.2286812 140.507902,42.6766971 136.317546,44.7215109 C132.78783,46.4442812 129.458624,48.5742169 125.9587,50.3636656 C124.959938,50.8743961 123.578128,51.2285973 122.536332,50.9765423 C107.077746,47.237805 91.6541546,47.251992 76.2002976,50.9954582 C75.2180871,51.2333262 73.8603947,50.9803255 72.9897882,50.4459499 C66.4533822,46.4357689 59.8257067,42.6894653 52.1207681,41.3852105 C47.4849421,40.6001987 47.0371069,40.8352295 45.7820337,45.2147443 C43.7864012,52.1772321 43.4577364,59.153434 45.6141547,66.1693593 C45.8198656,66.8370923 45.6628633,67.9294883 45.224959,68.4364357 C36.3212222,78.7323865 34.6797906,90.8305542 36.4961945,103.727921 C37.0097627,107.373024 37.7876809,111.033733 38.9316229,114.527509 C43.6388568,128.906467 54.2190197,136.783068 68.3946315,140.414457 C72.4090687,141.442539 76.5223417,142.083317 80.8332863,142.950613 C77.5839993,146.429256 75.8673768,150.495712 74.9986619,154.983048 C74.8932056,155.5283 74.251009,156.186102 73.704811,156.397961 C63.3837968,160.403413 52.9866457,159.136517 46.3187738,148.320378 C43.0964419,143.092955 38.8885893,139.110675 32.6728085,137.879247 C31.1103511,137.569971 29.3686652,137.690088 27.7972227,138.0249 C25.9898039,138.410312 25.7263993,139.539594 26.9535714,140.960182 C27.665757,141.78539 28.5051521,142.570875 29.4353439,143.125585 C34.7559274,146.297317 38.1726206,151.062245 40.4359137,156.633464 C44.2157933,165.939165 51.5064726,170.062369 61.0098452,170.666261 C65.4338127,170.947162 69.9131092,170.355093 74.610885,170.147964 C74.610885,176.21951 74.755592,182.515211 74.5522456,188.799562 C74.4448976,192.124986 71.113799,193.738516 67.3736432,192.51891 C58.9385489,189.769004 50.9687869,185.974938 43.7239785,180.87709 C13.6518765,159.715345 -1.56269379,130.682202 0.126973304,93.9223659 C2.22711649,48.2318383 35.4756791,11.0175469 80.6214276,2.26230015 C132.086049,-7.71870007 182.461584,23.9087658 195.820973,74.5874291 C208.84413,123.991158 180.385086,176.437044 131.885067,192.412508 C127.04684,194.005704 124.155064,191.961835 124.160266,186.907967 C124.168779,178.868689 124.172089,170.829411 124.246807,162.791078 C124.314431,155.528773 123.260813,148.641003 117.826734,142.879205" id="Fill-1" fill="#757575" mask="url(#mask-2)"></path>
                                    </g>
                                </g>
                                <path d="M64.264949,159.546095 C65.2012883,160.443657 65.8009238,161.018701 66.4010322,161.594219 C65.6845908,162.07563 64.99274,162.881449 64.2446142,162.937251 C63.6317375,162.983123 62.9526549,162.135215 62.3028922,161.683597 C62.8561835,161.080651 63.4099481,160.477705 64.264949,159.546095" id="Fill-4" fill="#8E8E8E"></path>
                                <path d="M49.7823785,158.820053 C48.8119903,157.477021 48.1442573,156.656542 47.6543342,155.740537 C47.5947489,155.62846 48.7817249,154.599905 48.8994767,154.684081 C49.709552,155.262909 50.4728105,155.965637 51.0469096,156.773348 C51.1741195,156.952576 50.4869975,157.710633 49.7823785,158.820053" id="Fill-6" fill="#8E8E8E"></path>
                                <path d="M56.3189265,162.307965 C55.489462,161.396216 54.8728021,160.719026 54.256615,160.041361 C54.8283497,159.651693 55.5793129,158.816554 55.9354056,158.960315 C56.8083766,159.312625 57.4988086,160.116552 58.263013,160.738887 C57.7239084,161.173954 57.1843311,161.609494 56.3189265,162.307965" id="Fill-8" fill="#8E8E8E"></path>
                                <path d="M71.9933907,158.598784 C72.8814943,159.424465 73.4404607,159.944181 73.9994269,160.463424 C73.2361684,161.014824 72.5343868,161.8022 71.6850607,162.023989 C71.2131078,162.147889 70.4943017,161.328828 69.8866269,160.934904 C70.4957205,160.259604 71.1043412,159.584305 71.9933907,158.598784" id="Fill-10" fill="#8E8E8E"></path>
                                <path d="M46.4825858,150.95064 C45.7188544,151.620738 45.0634169,152.327721 44.9678914,152.258678 C44.2263861,151.723357 43.5127821,151.094402 42.9921205,150.352896 C42.8876099,150.203933 43.643775,149.451079 44.003178,148.976288 C44.7210382,149.548023 45.4393714,150.119757 46.4825858,150.95064" id="Fill-12" fill="#8E8E8E"></path>
                                <path d="M40.907252,147.271346 C40.1146736,146.339736 39.5046343,145.800159 39.1641473,145.124859 C39.048287,144.894558 39.6100908,144.32235 39.8621459,143.906672 C40.5185293,144.477934 41.2288231,145.00427 41.784006,145.661126 C41.8889896,145.784553 41.3792047,146.428168 40.907252,147.271346" id="Fill-14" fill="#8E8E8E"></path>
                            </g>
                        </g>
                    </g>
                </g>
            </g>
        </g>
    </g>
</svg>