<svg xmlns="http://www.w3.org/2000/svg" xmlns:xlink="http://www.w3.org/1999/xlink" width="200" height="200" version="1.1" viewBox="0 0 200 200"><title>Artboard</title><desc>Created with Sketch.</desc><g id="Page-1" fill="none" fill-rule="evenodd" stroke="none" stroke-width="1"><g id="Artboard"><circle id="Oval" cx="100" cy="100" r="100" fill="#868686"/><path id="Stroke-3" fill="#FFF" d="M151.615,107.5 L125.365,54.9999998 L74.635,54.9999998 L48.385,107.5 L70,107.5 C70,124.0675 83.4325001,137.5 100,137.5 C116.5675,137.5 130,124.0675 130,107.5 L151.615,107.5 L151.615,107.5 L151.615,107.5 L151.615,107.5 Z M160,107.5 L160,152.5 L40,152.5 L40,107.5 L70,47.4999998 L130,47.4999998 L160,107.5 L160,107.5 L160,107.5 L160,107.5 Z M62.5,99.9999999 L137.5,99.9999999 L137.5,92.4999998 L62.5,92.4999998 L62.5,99.9999999 L62.5,99.9999999 L62.5,99.9999999 Z M70,85 L130,85 L130,77.4999999 L70,77.4999999 L70,85 L70,85 L70,85 Z M122.5,69.9999999 L122.5,62.4999998 L77.5000001,62.4999998 L77.5000001,69.9999999 L122.5,69.9999999 Z"/></g></g></svg>