<?xml version="1.0" encoding="UTF-8"?>
<svg width="200px" height="200px" viewBox="0 0 200 200" version="1.1" xmlns="http://www.w3.org/2000/svg" xmlns:xlink="http://www.w3.org/1999/xlink">
    <!-- Generator: Sketch 40.3 (33839) - http://www.bohemiancoding.com/sketch -->
    <title>Artboard</title>
    <desc>Created with Sketch.</desc>
    <defs></defs>
    <g id="Page-1" stroke="none" stroke-width="1" fill="none" fill-rule="evenodd">
        <g id="Artboard">
            <circle id="Oval" fill="#868686" cx="100" cy="100" r="100"></circle>
            <g id="mail-list" transform="translate(40.000000, 56.000000)" fill="#FFFFFF">
                <g id="Artboard" transform="translate(0.000000, 0.000000)">
                    <g id="Page-1">
                        <g id="Artboard">
                            <path d="M119.917127,11.4702232 C119.915975,5.38486388 114.984664,0.443048061 108.896397,0.432357455 L11.101559,0.260636606 C5.01612999,0.24995097 0.0829150303,5.17830036 0.0829150303,11.2644565 L0.0829150303,20.2137402 L60.0002697,46.8436758 L119.917625,20.2137402 C119.917625,8.89601764 119.917127,11.4702232 119.917127,11.4702232 L119.917127,11.4702232 Z M0.0829150303,67.5948236 C0.0829150303,78.9125461 0.0823752485,76.7998273 0.0823752485,76.7998273 C0.0812471394,82.8880461 5.01092197,87.81298 11.0994517,87.7999612 L108.898506,87.5908376 C114.984198,87.5778242 119.917625,82.6385261 119.917625,76.5426152 L119.917625,27.6499202 L60.0002697,54.2798558 L0.0829150303,27.6499202 L0.0829150303,67.5948236 L0.0829150303,67.5948236 Z" id="Combined-Shape"></path>
                        </g>
                    </g>
                </g>
            </g>
        </g>
    </g>
</svg>