<?xml version="1.0" encoding="UTF-8" standalone="no"?>
<svg width="747px" height="313px" viewBox="0 0 747 313" version="1.1" xmlns="http://www.w3.org/2000/svg" xmlns:xlink="http://www.w3.org/1999/xlink" xmlns:sketch="http://www.bohemiancoding.com/sketch/ns">
    <!-- Generator: Sketch 3.3.3 (12072) - http://www.bohemiancoding.com/sketch -->
    <title>Artboard</title>
    <desc>Created with Sketch.</desc>
    <defs></defs>
    <g id="Page-1" stroke="none" stroke-width="1" fill="none" fill-rule="evenodd" sketch:type="MSPage">
        <g id="Artboard" sketch:type="MSArtboardGroup">
            <g id="Group-Copy-4-+-Group-+-Group-Copy" sketch:type="MSLayerGroup">
                <g id="Group" sketch:type="MSShapeGroup">
                    <g transform="translate(62.729124, 0.000000)" id="Imported-Layers">
                        <g transform="translate(0.000000, 1.343348)">
                            <g transform="translate(0.000000, 98.064378)" fill="#767474" opacity="0.22">
                                <path d="M7.99902784,4.57636806 C9.29470165,4.64903596 10.8694252,4.42556079 12.4229335,4.75128398 C14.9857089,5.28851351 16.2870288,6.91268389 16.2545214,9.53009626 C16.2084979,13.229149 13.603463,16.8421971 9.03036572,17.0401958 C7.80637913,17.0932006 6.57879962,17.0909778 5.35344429,17.0749054 C4.87148033,17.068579 4.63965172,17.202459 4.55872557,17.7107923 C4.39328036,18.7500288 4.13270844,19.7742188 3.9657234,20.8134553 C3.87795361,21.3607728 3.66802468,21.614854 3.08237943,21.5828802 C2.34326536,21.5425281 1.59833418,21.5413312 0.85922011,21.5827092 C0.219510036,21.6186157 0.0773332317,21.3855654 0.198123634,20.7806265 C0.907467834,17.2337489 1.58977962,13.6815708 2.2820147,10.1312735 C2.59819128,8.51000989 2.9367808,6.89284982 3.22113441,5.26628568 C3.31249712,4.74324776 3.51849095,4.5514045 4.05332211,4.56593808 C5.27850634,4.59910884 6.50523039,4.57636806 7.99902784,4.57636806 L7.99902784,4.57636806 Z M6.94835665,14.3531932 C10.2327948,14.4210736 12.1402908,13.6049703 12.3231874,9.53761953 C12.378792,8.30021338 11.8665449,7.71750229 10.6432427,7.44136425 C9.51746242,7.18711208 8.37029579,7.34749442 7.23407899,7.29414763 C6.74356046,7.27106489 6.54287046,7.44786162 6.45595612,7.94884269 C6.18340781,9.51932431 5.84670028,11.078521 5.54164464,12.6433602 C5.20835894,14.3528513 5.21178076,14.3533642 6.94835665,14.3531932 L6.94835665,14.3531932 Z" id="Fill-1"></path>
                                <path d="M36.9295267,4.57602609 C38.2086047,4.64681318 39.7530451,4.42898045 41.2766124,4.74769333 C44.0424731,5.32612983 45.4365244,7.26302867 45.1234274,10.0869889 C44.6710623,14.1666504 42.0239389,16.731229 37.8869532,17.0374601 C36.7533028,17.1214129 35.6063072,17.129962 34.4719724,17.0636205 C33.7272123,17.0200198 33.4803277,17.3012873 33.3848588,17.9840236 C33.2469593,18.9685455 33.008287,19.9385337 32.8373669,20.919123 C32.7567829,21.3819748 32.5687537,21.6121183 32.0522293,21.5832221 C31.3139707,21.5418442 30.5690395,21.5343209 29.8318074,21.584419 C29.1222921,21.6324653 28.9594133,21.3932597 29.0981683,20.7057358 C29.8809106,16.8297154 30.6282371,12.9466846 31.3865133,9.06570562 C31.6320292,7.80897835 31.9038932,6.55635469 32.104241,5.29261711 C32.1952615,4.71896813 32.4426594,4.5483268 33.0014434,4.56491218 C34.2250878,4.60098965 35.4506142,4.57602609 36.9295267,4.57602609 L36.9295267,4.57602609 Z M37.3959214,7.30303876 C36.9115621,7.30303876 36.4272029,7.30423565 35.9428436,7.3026968 C35.6586611,7.3016709 35.4632749,7.37912633 35.4008267,7.70878214 C35.0141605,9.7498098 34.6144914,11.7882727 34.214309,13.8267356 C34.1414242,14.1986243 34.2822323,14.3562709 34.6576064,14.3516544 C35.3127147,14.3434472 35.9685073,14.3648201 36.6232734,14.3496026 C39.7063372,14.2781316 41.4025356,12.4378383 41.2367482,9.35466739 C41.1825123,8.34860165 40.7405836,7.78982822 39.7710097,7.49898563 C38.993229,7.26542244 38.1930354,7.300645 37.3959214,7.30303876 L37.3959214,7.30303876 Z" id="Fill-2"></path>
                                <path d="M22.9934624,7.33176396 C21.0748455,7.33142199 21.0755298,7.33159297 20.7034064,9.25994265 C20.2445398,11.6367815 19.7719858,14.0112266 19.3346767,16.3921691 C19.2407476,16.9035801 19.0544292,17.1297911 18.5031733,17.0952524 C17.7649147,17.048916 17.0175883,17.0371181 16.2812117,17.0971332 C15.5545872,17.1562935 15.4907702,16.8563888 15.6131004,16.2504239 C16.2045628,13.3197702 16.7674529,10.3833029 17.3387265,7.44854555 C17.7741536,5.21208397 18.2225837,2.97801616 18.6285832,0.736254095 C18.7243943,0.206718811 18.9413379,0.0138496474 19.472234,0.0384712428 C20.2402625,0.074377736 21.012055,0.0697611869 21.7807678,0.0406940257 C22.3244957,0.0203470128 22.4897699,0.207060778 22.3682951,0.745487193 C22.1676051,1.63425839 22.0165315,2.53397252 21.8450981,3.42907011 C21.6259303,4.57414528 21.6264436,4.56097956 22.838967,4.57927477 C24.2614195,4.60064769 25.6895179,4.47651381 27.1029024,4.75761036 C29.3359851,5.20165399 30.2585089,6.31697806 29.9170108,8.54625835 C29.5033123,11.2455717 28.9079148,13.9171858 28.4021692,16.6028205 C28.3277445,16.9979629 28.1061814,17.0957654 27.7414149,17.0882421 C26.9434454,17.0718277 26.1413698,17.0367761 25.3478487,17.0976462 C24.6296078,17.1528738 24.5423512,16.863741 24.6682744,16.2552115 C25.083855,14.2478675 25.4734297,12.2350521 25.8606091,10.2220657 C26.3425731,7.71750229 26.0358065,7.34629754 23.5067361,7.33193494 C23.3356449,7.33108002 23.1645536,7.33193494 22.9934624,7.33176396" id="Fill-3"></path>
                            </g>
                            <g transform="translate(12.100878, 185.829757)">
                                <path d="M13.1117248,26.7240936 C12.8888386,26.2406874 12.6659525,25.7573587 12.4430664,25.2739526 C12.5948896,25.2531334 12.6521434,25.106703 12.7652544,25.0317077 C13.3291028,24.6579696 13.9111824,24.3131771 14.4768926,23.9420704 C15.3470252,23.3712858 16.1336046,22.7091758 16.8535431,21.9603064 C17.2069956,21.5926051 17.5307352,21.2006019 17.8120388,20.7812784 C18.605833,19.5976841 19.2146,18.3206746 19.6931109,16.9779572 C20.0726302,15.9130861 20.3991626,14.8335874 20.677906,13.7393837 C20.8378751,13.1110177 20.9998613,12.4816455 21.1207303,11.845153 C21.3105675,10.8456802 21.5727089,9.86184118 21.7405911,8.85741518 C21.8537022,8.18106452 21.9935781,7.5084288 22.1350833,6.83641223 C22.2360919,6.35656624 22.3121199,5.87006432 22.4108011,5.38874784 C22.4861309,5.0211239 22.5842691,4.65651834 22.6458672,4.28835264 C22.7032761,3.94588191 22.766969,3.60426253 22.8377215,3.26481019 C22.8637883,3.13958586 22.8596766,2.99865045 22.9270932,2.88944679 C23.0315929,2.72026239 23.0803129,2.53041364 23.1190251,2.34691125 C23.2263952,1.83765535 23.3516863,1.33977644 23.5923381,0.872003992 C23.7402048,0.584715555 23.9184827,0.386198626 24.2710819,0.435344142 C24.3042859,0.434415408 24.3314388,0.442077465 24.358514,0.466688921 C24.9009505,0.960001554 25.3326032,1.53651329 25.6880729,2.17648853 C26.0155363,2.76600254 26.3234496,3.36596482 26.6056066,3.97660753 C26.9475774,4.71649909 27.2593697,5.47070863 27.5500604,6.23366375 C28.0388893,7.5168648 28.5088664,8.80664438 28.9542508,10.1053243 C29.4120479,11.4406119 29.8495967,12.7828649 30.3169361,14.1148245 C30.8973089,15.7684357 31.4556492,17.429322 32.0983184,19.0619593 C32.5036717,20.0916159 32.9291181,21.1142296 33.3220587,22.1496134 C33.6830365,23.100792 34.0600732,24.0503453 34.4814855,24.9793116 C34.6752017,25.406452 34.8646511,25.8354498 35.0551089,26.2640606 C35.0617808,26.2791525 35.0577466,26.2990429 35.0606947,26.3533738 C34.8671336,26.2143733 34.6900194,26.0977398 34.5246198,25.9663239 C33.9738047,25.5287353 33.4509184,25.059415 32.9312904,24.585064 C32.6231443,24.3038123 32.3336173,24.0054565 32.0338498,23.7168523 C31.4769835,23.1808953 30.8672856,22.7116524 30.2457956,22.2536316 C29.7904035,21.9179716 29.2822572,21.7212348 28.7476564,21.5674519 C28.6554142,21.5409056 28.5480441,21.5885032 28.4703869,21.5060006 C28.3834978,21.0218979 28.3070043,20.5357056 28.207237,20.0543117 C28.0876869,19.4777226 27.9495176,18.9050032 27.8172445,18.3310455 C27.645716,17.5863555 27.4636367,16.8443743 27.3248469,16.092177 C27.1802385,15.3089445 27.0262431,14.5269503 26.8528527,13.7495998 C26.7623949,13.3442074 26.7090202,12.9333973 26.6308199,12.5265343 C26.5087097,11.8915123 26.4557228,11.2432559 26.3306645,10.6090078 C26.2070803,9.98249923 26.0987016,9.35258528 25.9702298,8.72677324 C25.8610753,8.19468595 25.7634802,7.65454964 25.7093297,7.10597732 C25.6386547,6.38984588 25.4193372,5.68950292 25.2985458,4.97662205 C25.1976148,4.38122605 24.9939684,3.81353729 24.8665051,3.22464243 C24.7549457,2.70934976 24.4886926,2.22362179 24.1714697,1.78340179 C24.0214308,1.57513315 23.7685213,1.55423663 23.6295763,1.76281485 C23.3881487,2.12517597 23.307078,2.55045882 23.2111896,2.96482905 C23.1531601,3.21550988 23.1540911,3.47934778 23.1029661,3.73211826 C23.0039746,4.22194814 22.9768993,4.72083318 22.9064571,5.21406842 C22.8374112,5.69817111 22.8375664,6.19426994 22.8205765,6.68479638 C22.7885361,7.60733899 22.6912513,8.52655363 22.6936563,9.45087631 C22.6949751,9.94852304 22.6689084,10.4461698 22.6569611,10.9438939 C22.6428416,11.5380516 22.6279464,12.1322093 22.6191023,12.7265217 C22.6161543,12.9253482 22.6259293,13.1253357 22.628567,13.3233882 C22.6416004,14.3076917 22.5350836,15.2871966 22.5346957,16.2705713 C22.5346181,16.5947769 22.522826,16.9226201 22.4902426,17.2438847 C22.426317,17.8744178 22.374649,18.5060345 22.2779849,19.1348649 C22.1803122,19.7698095 22.0807776,20.403361 21.9160761,21.0221301 C21.7237564,21.7450723 21.4454784,22.4352766 21.0526154,23.0816756 C20.6229797,23.788597 20.0302717,24.3009487 19.31204,24.6887726 C18.6218144,25.0615046 17.8623879,25.2303021 17.1139001,25.4257232 C16.4666537,25.5947528 15.803038,25.7035695 15.160136,25.8863754 C14.4490416,26.0886072 13.7165352,26.2560116 13.1117248,26.7240936" id="Fill-2" fill-opacity="0.25" fill="#7E7A7A"></path>
                                <path d="M13.1117248,26.7240936 C13.7165352,26.2560116 14.4490416,26.0886072 15.160136,25.8863754 C15.803038,25.7035695 16.4666537,25.5947528 17.1139001,25.4257232 C17.8623879,25.2303021 18.6218144,25.0615046 19.31204,24.6887726 C20.0302717,24.3009487 20.6229797,23.788597 21.0526154,23.0816756 C21.4454784,22.4352766 21.7237564,21.7450723 21.9160761,21.0221301 C22.0807776,20.403361 22.1803122,19.7698095 22.2779849,19.1348649 C22.374649,18.5060345 22.426317,17.8744178 22.4902426,17.2438847 C22.522826,16.9226201 22.5346181,16.5947769 22.5346957,16.2705713 C22.5350836,15.2871966 22.6416004,14.3076917 22.628567,13.3233882 C22.6259293,13.1253357 22.6161543,12.9253482 22.6191023,12.7265217 C22.6279464,12.1322093 22.6428416,11.5380516 22.6569611,10.9438939 C22.6689084,10.4461698 22.6949751,9.94852304 22.6936563,9.45087631 C22.6912513,8.52655363 22.7885361,7.60733899 22.8205765,6.68479638 C22.8375664,6.19426994 22.8374112,5.69817111 22.9064571,5.21406842 C22.9768993,4.72083318 23.0039746,4.22194814 23.1029661,3.73211826 C23.1540911,3.47934778 23.1531601,3.21550988 23.2111896,2.96482905 C23.307078,2.55045882 23.3881487,2.12517597 23.6295763,1.76281485 C23.7685213,1.55423663 24.0214308,1.57513315 24.1714697,1.78340179 C24.4886926,2.22362179 24.7549457,2.70934976 24.8665051,3.22464243 C24.9939684,3.81353729 25.1976148,4.38122605 25.2985458,4.97662205 C25.4193372,5.68950292 25.6386547,6.38984588 25.7093297,7.10597732 C25.7634802,7.65454964 25.8610753,8.19468595 25.9702298,8.72677324 C26.0987016,9.35258528 26.2070803,9.98249923 26.3306645,10.6090078 C26.4557228,11.2432559 26.5087097,11.8915123 26.6308199,12.5265343 C26.7090202,12.9333973 26.7623949,13.3442074 26.8528527,13.7495998 C27.0262431,14.5269503 27.1802385,15.3089445 27.3248469,16.092177 C27.4636367,16.8443743 27.645716,17.5863555 27.8172445,18.3310455 C27.9495176,18.9050032 28.0876869,19.4777226 28.207237,20.0543117 C28.3070043,20.5357056 28.3834978,21.0218979 28.4703869,21.5060006 C28.0446302,21.4574743 27.6250023,21.5058458 27.2141408,21.6111798 C26.6489736,21.7559849 26.1661183,22.0678848 25.6853576,22.3855893 C24.8472654,22.939347 24.1872959,23.6865137 23.4916398,24.3923516 C23.1268606,24.7623748 22.8201886,25.1888186 22.48039,25.5839176 C22.1813207,25.9315737 21.872554,26.2709487 21.5681317,26.614116 C21.0710018,27.1746844 20.579923,27.7407479 20.073949,28.2933447 C19.8640187,28.5226647 19.6268579,28.7281471 19.3941192,28.9355644 C19.1196426,29.1800537 18.8296501,29.4075162 18.5585871,29.6554882 C18.0255378,30.143151 17.3884543,30.4603137 16.7590511,30.7968251 C16.2601369,31.0635266 15.7247602,31.2000505 15.1840305,31.3334787 C15.0710746,31.3613407 15.0467922,31.284101 15.0178551,31.2159938 C14.8452405,30.8107561 14.6768152,30.4037384 14.5061401,29.9977267 C14.2661865,29.4267874 14.0063725,28.8632779 13.7908564,28.2833609 C13.5927958,27.7499579 13.3230516,27.2502215 13.1117248,26.7240936" id="Fill-3" fill-opacity="0.25" fill="#A09D9D"></path>
                                <path d="M23.5923381,0.872003992 C23.3516863,1.33977644 23.2263952,1.83765535 23.1190251,2.34691125 C23.0803129,2.53041364 23.0315929,2.72026239 22.9270932,2.88944679 C22.8596766,2.99865045 22.8637883,3.13958586 22.8377215,3.26481019 C22.766969,3.60426253 22.7032761,3.94588191 22.6458672,4.28835264 C22.5842691,4.65651834 22.4861309,5.0211239 22.4108011,5.38874784 C22.3121199,5.87006432 22.2360919,6.35656624 22.1350833,6.83641223 C21.9935781,7.5084288 21.8537022,8.18106452 21.7405911,8.85741518 C21.5727089,9.86184118 21.3105675,10.8456802 21.1207303,11.845153 C20.9998613,12.4816455 20.8378751,13.1110177 20.677906,13.7393837 C20.3991626,14.8335874 20.0726302,15.9130861 19.6931109,16.9779572 C19.2146,18.3206746 18.605833,19.5976841 17.8120388,20.7812784 C17.5307352,21.2006019 17.2069956,21.5926051 16.8535431,21.9603064 C16.1336046,22.7091758 15.3470252,23.3712858 14.4768926,23.9420704 C13.9111824,24.3131771 13.3291028,24.6579696 12.7652544,25.0317077 C12.6521434,25.106703 12.5948896,25.2531334 12.4430664,25.2739526 C12.1329808,24.7848192 11.8466346,24.2784269 11.5063705,23.8111188 C11.1409707,23.3092928 10.722584,22.8466284 10.1676573,22.5348833 C10.3951206,22.3382238 10.5453147,22.073612 10.7678129,21.8695227 C11.0594346,21.6020472 11.3457032,21.3248201 11.6032674,21.0253033 C11.9964407,20.5681339 12.3580392,20.0841086 12.7423684,19.6191998 C13.2014068,19.0638941 13.6339129,18.4889303 14.046326,17.8989519 C14.2542393,17.6015248 14.454317,17.2984479 14.6516019,16.9938231 C15.1523005,16.2205745 15.6132008,15.4225596 16.0952803,14.6378567 C16.3799197,14.1744183 16.6222783,13.6811057 16.8752654,13.1968482 C16.976274,13.0035167 17.0588962,12.8009753 17.1440786,12.5995947 C17.258974,12.3277078 17.4584311,12.0980009 17.5675855,11.8199224 C17.6028067,11.7300674 17.6155297,11.633866 17.674335,11.5496607 C17.8637844,11.2787026 18.0442345,11.0011658 18.1831795,10.7001012 C18.2717754,10.5080854 18.3381835,10.3049248 18.4374078,10.1188684 C18.7654918,9.50373677 19.0637077,8.87374542 19.3230563,8.22835257 C19.4865164,7.82172179 19.6721644,7.42437835 19.8518387,7.02695752 C20.1277117,6.41685657 20.3632433,5.79058016 20.6415212,5.1819497 C20.8692949,4.68399339 21.0647178,4.17148692 21.2851214,3.67004786 C21.5266266,3.12046942 21.7679767,2.57011703 22.03198,2.03114163 C22.3469531,1.38807061 22.657349,0.738188877 23.2070779,0.246965895 C23.2650299,0.195188965 23.3224388,0.138845758 23.3316707,0.0537891874 C23.7012598,0.0426443773 24.0232151,0.148055706 24.2710819,0.435344142 C23.9184827,0.386198626 23.7402048,0.584715555 23.5923381,0.872003992 Z" id="Fill-4" fill-opacity="0.25" fill="#6A6565"></path>
                                <path d="M8.25912207,22.5272213 C8.06470764,22.6951673 7.80869503,22.7301497 7.58410214,22.8326974 C7.50070409,22.8707755 7.43375292,22.7691565 7.36889639,22.7232616 C6.71078881,22.2581205 6.05733601,21.7864784 5.40155582,21.3182415 C4.76656696,20.8648645 4.12971619,20.4140414 3.49472733,19.9606644 C2.89092546,19.5296543 2.28945098,19.0953937 1.68518363,18.6650028 C1.14910874,18.2832931 0.610473713,17.9051435 0.0734678621,17.524672 C0.052986853,17.5101219 0.0383243124,17.4872905 0.00636152554,17.452463 C0.336928115,17.316326 0.660745281,17.1942749 0.975097739,17.051482 C1.79945835,16.6768925 2.65399742,16.3774532 3.49069319,16.0338215 C4.40481338,15.6583807 5.33398401,15.3140525 6.23553631,14.9150064 C7.3114875,14.4387206 8.44314083,14.1005065 9.49287012,13.5647817 C9.62405719,13.4977581 9.76517445,13.4394026 9.90846393,13.4103797 C10.0049729,13.3907988 10.053305,13.3348426 10.1110242,13.2759454 C10.1585029,13.5184224 10.2993099,13.6869877 10.4948104,13.8388357 C10.8173087,14.0892069 11.1028016,14.387795 11.4298771,14.6313555 C11.77883,14.8913237 12.1100948,15.1723432 12.4389547,15.4541366 C12.5527639,15.5516537 12.7062939,15.6195287 12.8041217,15.775169 C12.7246803,15.7829085 12.6827097,15.753576 12.6408167,15.7262557 C12.5896918,15.6928987 12.5478764,15.603895 12.4785203,15.6579937 C12.4170772,15.7058236 12.4442301,15.7908801 12.4635474,15.8594517 C12.530421,16.097285 12.5564101,16.3430126 12.6070696,16.5837095 C12.7061387,17.0541134 12.7565655,17.5314828 12.78783,18.0083877 C12.8004755,18.2012549 12.9162242,18.4152507 12.7561,18.6050995 C12.622508,18.763526 12.4907002,18.9234231 12.3595908,19.0839393 C12.1668055,19.3199926 12.0014834,19.5858427 11.7780542,19.7879198 C11.3111803,20.2100295 10.8661063,20.6552801 10.3761136,21.0541715 C9.83243594,21.4968681 9.27968144,21.9199839 8.66773371,22.2636155 C8.65749321,22.2741412 8.6472527,22.2846668 8.6370122,22.2951925 L8.63809831,22.2931028 C8.52017735,22.3846606 8.35989794,22.4079563 8.25912207,22.5272213" id="Fill-5" fill-opacity="0.25" fill="#D5D5D5"></path>
                                <path d="M8.66773371,22.2636155 C9.27968144,21.9199839 9.83243594,21.4968681 10.3761136,21.0541715 C10.8661063,20.6552801 11.3111803,20.2100295 11.7780542,19.7879198 C12.0014834,19.5858427 12.1668055,19.3199926 12.3595908,19.0839393 C12.4907002,18.9234231 12.622508,18.763526 12.7561,18.6050995 C12.9162242,18.4152507 12.8004755,18.2012549 12.78783,18.0083877 C12.7565655,17.5314828 12.7061387,17.0541134 12.6070696,16.5837095 C12.5564101,16.3430126 12.530421,16.097285 12.4635474,15.8594517 C12.4442301,15.7908801 12.4170772,15.7058236 12.4785203,15.6579937 C12.5478764,15.603895 12.5896918,15.6928987 12.6408167,15.7262557 C12.6827097,15.753576 12.7246803,15.7829085 12.8041217,15.775169 C12.7062939,15.6195287 12.5527639,15.5516537 12.4389547,15.4541366 C12.1100948,15.1723432 11.77883,14.8913237 11.4298771,14.6313555 C11.1028016,14.387795 10.8173087,14.0892069 10.4948104,13.8388357 C10.2993099,13.6869877 10.1585029,13.5184224 10.1110242,13.2759454 C10.1900002,13.1669739 10.2689762,13.0581572 10.3478747,12.9494953 C10.3621493,13.0202339 10.3786738,13.0870254 10.4356948,13.1409694 C10.7067578,13.3971452 10.9251443,13.6967394 11.1434533,13.9967979 C11.2686667,14.1689233 11.3730888,14.3769597 11.5396522,14.4940576 C11.9145167,14.7575086 12.2086985,15.10679 12.5750292,15.3814631 C13.1346883,15.8011736 13.6718493,16.2525384 14.2342237,16.6866442 C14.3782114,16.4683917 14.5186305,16.2584204 14.6561015,16.046669 C15.1280181,15.3197023 15.6183986,14.6037257 15.9881429,13.8160817 C16.0197178,13.7489033 16.0606798,13.693721 16.1384145,13.6771586 C16.1531546,13.7547852 16.109167,13.8149982 16.0782128,13.8790034 C15.9711529,14.1007387 15.865955,14.3230932 15.7193296,14.5234676 C15.6891512,14.5646414 15.6317423,14.6351478 15.699702,14.6776374 C15.7753421,14.7248481 15.7928751,14.6339095 15.8208037,14.5894851 C16.2620764,13.8856594 16.6788339,13.1668965 17.0685937,12.4342027 C17.4263131,11.7616443 17.7311233,11.0610692 18.0878342,10.3878917 C18.3472603,9.89821661 18.5927997,9.40320129 18.8081606,8.89394539 C19.0113415,8.41363503 19.2118847,7.93255073 19.4779051,7.48312079 C19.6260045,7.23290433 19.7626222,6.97850856 19.8774399,6.71149748 C19.9397363,6.56669235 19.9046704,6.39069722 20.0036619,6.26624684 C20.0969901,6.14883936 20.1341508,6.01587559 20.1844999,5.88229266 C20.3329096,5.48850937 20.4592092,5.08164641 20.6546322,4.71170063 C20.8332204,4.37379618 20.9733291,4.02165114 21.1336861,3.67747774 C21.3584341,3.19515512 21.5592876,2.70137812 21.793578,2.22385397 C22.0786054,1.64285335 22.3634,1.06061442 22.7141373,0.514054363 C22.7384973,0.476053657 22.7941994,0.425282856 22.7419883,0.37683389 C22.7018021,0.339529734 22.6413676,0.354931242 22.592958,0.375905156 C22.5515305,0.393860683 22.5100254,0.416537275 22.4761231,0.445792402 C22.2682098,0.624805913 22.0879149,0.828663064 21.932523,1.05473244 C21.4876041,1.70190537 21.1961376,2.42438316 20.9087053,3.14740271 C20.6501326,3.7979036 20.4142906,4.45730486 20.1593641,5.10927625 C19.9944299,5.53099896 19.8103336,5.94529179 19.6400464,6.36500224 C19.4455544,6.84422908 19.2529243,7.32430725 19.0668885,7.80678465 C18.902187,8.23384758 18.688145,8.63753736 18.4758872,9.04060799 C18.3564147,9.26729653 18.3052898,9.51573292 18.1979972,9.74203448 C17.8482684,10.479759 17.4880665,11.212685 17.1217357,11.9422831 C17.0767395,12.0318286 17.0533881,12.1577494 16.9263127,12.1911839 C16.9131242,12.1410322 16.9443888,12.1027219 16.9639388,12.0630186 C17.1045906,11.777665 17.2450096,11.4920792 17.3903938,11.2091249 C17.4423721,11.1078929 17.4336832,11.0596761 17.3080818,11.0413336 C17.1488885,11.0180378 16.998229,11.0471382 16.8526121,11.0963611 C16.3460175,11.2676351 15.8590504,11.4832563 15.3738677,11.70979 C14.7088556,12.0203742 14.0276293,12.2992266 13.3118801,12.4832708 C12.9779,12.5691787 12.6430665,12.6431678 12.3029577,12.7020651 C11.923128,12.7678504 11.5383333,12.7565508 11.158271,12.8097208 C10.9557107,12.8380472 10.7548571,12.8163768 10.5989998,12.6553188 C10.6671922,12.4490624 10.8460132,12.3236833 10.971149,12.1598391 C11.1329024,11.9481651 11.3236706,11.7587033 11.5019485,11.5596446 C11.5986902,11.6454752 11.7100945,11.6892031 11.840273,11.6689257 C12.4021819,11.5813151 12.9367828,11.408261 13.4319733,11.1289442 C13.6841845,10.9867704 13.9495842,10.8562833 14.1301119,10.614348 C14.1675829,10.5641964 14.2406628,10.5234869 14.2010197,10.4488012 C14.1612213,10.3738059 14.0821677,10.3498136 14.0011747,10.3483431 C13.8446191,10.3454021 13.6868998,10.3587914 13.531663,10.3443186 C13.2870546,10.3215646 13.0391103,10.3258987 12.7984584,10.2662275 C13.0261545,10.075837 13.2554022,9.88769095 13.5452395,9.79543669 C13.7007865,9.78978689 13.8548596,9.80124128 14.0120358,9.76981911 C14.7171566,9.6288063 15.321967,9.27789957 15.8979954,8.87451937 C16.308081,8.58730832 16.6475693,8.21511811 17.0156844,7.87767802 C17.072783,7.82535933 17.1363206,7.77280846 17.1190204,7.68008983 L17.115219,7.68287603 C17.2297265,7.6663136 17.2852734,7.60207616 17.2761966,7.48536523 L17.2743347,7.48784186 C17.3033495,7.48892538 17.3173914,7.47514915 17.3161501,7.44612621 L17.3136676,7.44868023 C17.3426047,7.44976375 17.3566467,7.43598753 17.3554054,7.40696459 L17.3530004,7.40843508 C17.3879888,7.41927032 17.4156071,7.41261439 17.43058,7.37592939 C17.5952814,7.19776722 17.6971434,6.97494841 17.8626982,6.79438701 C18.0738699,6.56390614 18.2706117,6.31748201 18.4504411,6.06177054 C18.893886,5.43116003 19.3547087,4.81308744 19.7554073,4.15190611 C20.0392709,3.6835919 20.3437708,3.22719645 20.6087051,2.74742786 C20.6713118,2.63412229 20.7853538,2.57243886 20.8448573,2.45704364 C21.1730189,1.82016419 21.5637097,1.22198198 22.0627791,0.706921493 C22.2953627,0.466998499 22.5467205,0.231100019 22.8831832,0.119264946 C23.0315153,0.0698872463 23.1736411,0.0196582066 23.3315931,0.0537891874 C23.3224388,0.138845758 23.2650299,0.195188965 23.2070779,0.246965895 C22.657349,0.738188877 22.3469531,1.38807061 22.03198,2.03114163 C21.7679767,2.57011703 21.5266266,3.12046942 21.2851214,3.67004786 C21.0647178,4.17148692 20.8692949,4.68399339 20.6415212,5.1819497 C20.3632433,5.79058016 20.1277117,6.41685657 19.8518387,7.02695752 C19.6721644,7.42437835 19.4865164,7.82172179 19.3230563,8.22835257 C19.0637077,8.87374542 18.7654918,9.50373677 18.4374078,10.1188684 C18.3381835,10.3049248 18.2717754,10.5080854 18.1831795,10.7001012 C18.0442345,11.0011658 17.8637844,11.2787026 17.674335,11.5496607 C17.6155297,11.633866 17.6028067,11.7300674 17.5675855,11.8199224 C17.4584311,12.0980009 17.258974,12.3277078 17.1440786,12.5995947 C17.0588962,12.8009753 16.976274,13.0035167 16.8752654,13.1968482 C16.6222783,13.6811057 16.3799197,14.1744183 16.0952803,14.6378567 C15.6132008,15.4225596 15.1523005,16.2205745 14.6516019,16.9938231 C14.454317,17.2984479 14.2542393,17.6015248 14.046326,17.8989519 C13.6339129,18.4889303 13.2014068,19.0638941 12.7423684,19.6191998 C12.3580392,20.0841086 11.9964407,20.5681339 11.6032674,21.0253033 C11.3457032,21.3248201 11.0594346,21.6020472 10.7678129,21.8695227 C10.5453147,22.073612 10.3951206,22.3382238 10.1676573,22.5348833 C10.062537,22.4964182 9.95741665,22.4578758 9.8523739,22.4192559 C9.8512102,22.353161 9.89620636,22.3138446 9.93716838,22.271355 C10.2493486,21.9475363 10.5617616,21.6239499 10.8729333,21.2991251 C11.1313508,21.0294826 11.4019484,20.7699014 11.6415917,20.4845478 C11.8588146,20.2259728 12.0623834,19.9564077 12.2983029,19.7131567 C12.3607544,19.6486871 12.4058282,19.5671133 12.4567204,19.4918084 C12.4752619,19.4644107 12.4882177,19.4276484 12.44904,19.4096154 C12.4320501,19.401876 12.3917863,19.4126338 12.3810803,19.4281127 C12.278908,19.5758588 12.0945789,19.6326664 11.9891483,19.7676425 C11.7764251,20.0399937 11.5200245,20.267998 11.2852687,20.5173631 C10.8600551,20.9691149 10.3766567,21.3447105 9.88433668,21.7136501 C9.61164446,21.9179716 9.28518959,22.051632 9.0689753,22.330407 C8.91513499,22.3155473 8.77913799,22.4028483 8.62871118,22.4066406 C8.63189195,22.3687947 8.63499513,22.3309488 8.63809831,22.2931028 L8.6370122,22.2951925 C8.65477792,22.2919419 8.67215575,22.288227 8.66773371,22.2636155 L8.66773371,22.2636155 Z M14.1338583,16.8218584 C14.147881,16.8140512 14.1677132,16.8095471 14.173122,16.7982367 C14.1782303,16.7874268 14.168214,16.7694102 14.1648085,16.7545966 C14.1517874,16.7640053 14.1346596,16.7709116 14.1269471,16.7835232 C14.1220391,16.7916306 14.1309536,16.8080457 14.1338583,16.8218584 L14.1338583,16.8218584 Z" id="Fill-6" fill-opacity="0.25" fill="#9D9C9C"></path>
                                <path d="M16.1384145,13.6771586 C16.0606798,13.693721 16.0197178,13.7489033 15.9881429,13.8160817 C15.6183986,14.6037257 15.1280181,15.3197023 14.6561015,16.046669 C14.5186305,16.2584204 14.3782114,16.4683917 14.2342237,16.6866442 C13.6718493,16.2525384 13.1346883,15.8011736 12.5750292,15.3814631 C12.2086985,15.10679 11.9145167,14.7575086 11.5396522,14.4940576 C11.3730888,14.3769597 11.2686667,14.1689233 11.1434533,13.9967979 C10.9251443,13.6967394 10.7067578,13.3971452 10.4356948,13.1409694 C10.3786738,13.0870254 10.3621493,13.0202339 10.3478747,12.9494953 C10.4316606,12.8512817 10.515369,12.7532228 10.5990774,12.6552414 C10.7548571,12.8163768 10.9557107,12.8380472 11.158271,12.8097208 C11.5383333,12.7565508 11.923128,12.7678504 12.3029577,12.7020651 C12.6430665,12.6431678 12.9779,12.5691787 13.3118801,12.4832708 C14.0276293,12.2992266 14.7088556,12.0203742 15.3738677,11.70979 C15.8590504,11.4832563 16.3460175,11.2676351 16.8526121,11.0963611 C16.998229,11.0471382 17.1488885,11.0180378 17.3080818,11.0413336 C17.4336832,11.0596761 17.4423721,11.1078929 17.3903938,11.2091249 C17.2450096,11.4920792 17.1045906,11.777665 16.9639388,12.0630186 C16.9443888,12.1027219 16.9131242,12.1410322 16.9263127,12.1911839 L16.9258472,12.1910291 C16.7235197,12.2988396 16.732131,12.5115972 16.6753428,12.691849 C16.6693692,12.6995884 16.6685934,12.7077923 16.673093,12.7165378 C16.5734032,12.774042 16.5438454,12.8708625 16.5273209,12.9750355 C16.5230541,12.9932232 16.5187872,13.0113335 16.5145203,13.0295213 C16.4476467,13.0472446 16.4364753,13.0974736 16.4400439,13.1563709 L16.4377941,13.1574544 C16.3237521,13.2144941 16.3017195,13.3236978 16.2804627,13.4333658 C16.2730927,13.4481482 16.2658002,13.4630079 16.2585077,13.4777903 C16.1648691,13.5122308 16.14625,13.5915602 16.1383369,13.6773133 L16.1384145,13.6771586" id="Fill-7" fill-opacity="0.25" fill="#9D9C9C"></path>
                                <path d="M12.7984584,10.2662275 C13.0391103,10.3258987 13.2870546,10.3215646 13.531663,10.3443186 C13.6868998,10.3587914 13.8446191,10.3454021 14.0011747,10.3483431 C14.0821677,10.3498136 14.1612213,10.3738059 14.2010197,10.4488012 C14.2406628,10.5234869 14.1675829,10.5641964 14.1301119,10.614348 C13.9495842,10.8562833 13.6841845,10.9867704 13.4319733,11.1289442 C12.9367828,11.408261 12.4021819,11.5813151 11.840273,11.6689257 C11.7100945,11.6892031 11.5986902,11.6454752 11.5019485,11.5596446 C11.9140512,11.108512 12.3093192,10.6405074 12.7984584,10.2662275" id="Fill-8" fill-opacity="0.25" fill="#9D9C9C"></path>
                                <path d="M9.0689753,22.330407 C9.28518959,22.051632 9.61164446,21.9179716 9.88433668,21.7136501 C10.3766567,21.3447105 10.8600551,20.9691149 11.2852687,20.5173631 C11.5200245,20.267998 11.7764251,20.0399937 11.9891483,19.7676425 C12.0945789,19.6326664 12.278908,19.5758588 12.3810803,19.4281127 C12.3917863,19.4126338 12.4320501,19.401876 12.44904,19.4096154 C12.4882177,19.4276484 12.4752619,19.4644107 12.4567204,19.4918084 C12.4058282,19.5671133 12.3607544,19.6486871 12.2983029,19.7131567 C12.0623834,19.9564077 11.8588146,20.2259728 11.6415917,20.4845478 C11.4019484,20.7699014 11.1313508,21.0294826 10.8729333,21.2991251 C10.5617616,21.6239499 10.2493486,21.9475363 9.93716838,22.271355 C9.89620636,22.3138446 9.8512102,22.353161 9.8523739,22.4192559 C9.59271504,22.3769211 9.3349181,22.3178691 9.0689753,22.330407" id="Fill-9" fill-opacity="0.25" fill="#9D9C9C"></path>
                                <path d="M17.1190204,7.68008983 C17.1363206,7.77280846 17.072783,7.82535933 17.0156844,7.87767802 C16.6475693,8.21511811 16.308081,8.58730832 15.8979954,8.87451937 C15.321967,9.27789957 14.7171566,9.6288063 14.0120358,9.76981911 C13.8548596,9.80124128 13.7007865,9.78978689 13.5452395,9.79543669 C13.9127339,9.50002183 14.3765047,9.44375602 14.8022614,9.29438461 C15.340974,9.1053872 15.8175454,8.8105915 16.2533099,8.45039743 C16.5508276,8.20443766 16.831045,7.93758138 17.1190204,7.68008983" id="Fill-10" fill-opacity="0.25" fill="#9D9C9C"></path>
                                <path id="Fill-11" fill-opacity="0.25" fill="#767474" d="M8.63809831,22.2931028 C8.63499513,22.3309488 8.63189195,22.3687947 8.62871118,22.4066406 C8.5192464,22.4890658 8.38860238,22.5064795 8.25912207,22.5272213 C8.35989794,22.4079563 8.52017735,22.3846606 8.63809831,22.2931028"></path>
                                <path id="Fill-12" fill-opacity="0.25" fill="#767474" d="M17.2761966,7.48536523 C17.2852734,7.60207616 17.2297265,7.6663136 17.115219,7.68287603 C17.1287178,7.5845076 17.2082369,7.53961879 17.2761966,7.48536523"></path>
                                <path id="Fill-13" fill-opacity="0.25" fill="#767474" d="M17.4531628,7.37680948 C17.4338315,7.42425305 17.3981737,7.43286095 17.3530004,7.41884808 C17.369427,7.36439808 17.4113951,7.37080396 17.4531628,7.37680948"></path>
                                <path id="Fill-14" fill-opacity="0.25" fill="#767474" d="M17.3283223,7.44612621 C17.3299249,7.48366068 17.3117955,7.50147705 17.2743347,7.50007576 C17.292364,7.48205921 17.310293,7.46414276 17.3283223,7.44612621"></path>
                                <path id="Fill-15" fill-opacity="0.25" fill="#767474" d="M17.3675549,7.40696459 C17.3691575,7.44449906 17.3510281,7.46231542 17.3136676,7.46091413 C17.3315966,7.44289759 17.3495257,7.42488104 17.3675549,7.40696459"></path>
                                <path id="Fill-16" fill-opacity="0.25" fill="#767474" d="M8.67667652,22.2636155 C8.68238578,22.2954448 8.65994939,22.3002492 8.6370122,22.304453 C8.65023364,22.2908405 8.66345508,22.277228 8.67667652,22.2636155"></path>
                                <path d="M16.673093,12.7165378 C16.6685934,12.7077923 16.6693692,12.6995884 16.6754979,12.6919264 C16.8466385,12.5685595 16.9049008,12.3890817 16.9258472,12.1910291 L16.9263127,12.1911839 C17.0533881,12.1577494 17.0767395,12.0318286 17.1217357,11.9422831 C17.4880665,11.212685 17.8482684,10.479759 18.1979972,9.74203448 C18.3052898,9.51573292 18.3564147,9.26729653 18.4758872,9.04060799 C18.688145,8.63753736 18.902187,8.23384758 19.0668885,7.80678465 C19.2529243,7.32430725 19.4455544,6.84422908 19.6400464,6.36500224 C19.8103336,5.94529179 19.9944299,5.53099896 20.1593641,5.10927625 C20.4142906,4.45730486 20.6501326,3.7979036 20.9087053,3.14740271 C21.1961376,2.42438316 21.4876041,1.70190537 21.932523,1.05473244 C22.0879149,0.828663064 22.2682098,0.624805913 22.4761231,0.445792402 C22.5100254,0.416537275 22.5515305,0.393860683 22.592958,0.375905156 C22.6413676,0.354931242 22.7018021,0.339529734 22.7419883,0.37683389 C22.7941994,0.425282856 22.7384973,0.476053657 22.7141373,0.514054363 C22.3634,1.06061442 22.0786054,1.64285335 21.793578,2.22385397 C21.5592876,2.70137812 21.3584341,3.19515512 21.1336861,3.67747774 C20.9733291,4.02165114 20.8332204,4.37379618 20.6546322,4.71170063 C20.4592092,5.08164641 20.3329096,5.48850937 20.1844999,5.88229266 C20.1341508,6.01587559 20.0969901,6.14883936 20.0036619,6.26624684 C19.9046704,6.39069722 19.9397363,6.56669235 19.8774399,6.71149748 C19.7626222,6.97850856 19.6260045,7.23290433 19.4779051,7.48312079 C19.2118847,7.93255073 19.0113415,8.41363503 18.8081606,8.89394539 C18.5927997,9.40320129 18.3472603,9.89821661 18.0878342,10.3878917 C17.7311233,11.0610692 17.4263131,11.7616443 17.0685937,12.4342027 C16.6788339,13.1668965 16.2620764,13.8856594 15.8208037,14.5894851 C15.7928751,14.6339095 15.7753421,14.7248481 15.699702,14.6776374 C15.6317423,14.6351478 15.6891512,14.5646414 15.7193296,14.5234676 C15.865955,14.3230932 15.9711529,14.1007387 16.0782128,13.8790034 C16.109167,13.8149982 16.1531546,13.7547852 16.1384145,13.6771586 L16.1383369,13.6773133 C16.2559476,13.6573456 16.254396,13.5658652 16.2585077,13.4777903 C16.2658002,13.4630079 16.2730927,13.4481482 16.2806179,13.4334432 C16.4335272,13.3983835 16.4220455,13.2702182 16.4377941,13.1574544 C16.4377941,13.1574544 16.4400439,13.1563709 16.4401215,13.1564483 C16.5248384,13.1490184 16.5389579,13.100492 16.5145203,13.0295213 C16.5187872,13.0113335 16.5230541,12.9932232 16.5273985,12.9750355 C16.6393459,12.9243421 16.7073056,12.8491146 16.673093,12.7165378" id="Fill-17" fill-opacity="0.25" fill="#9D9C9C"></path>
                                <path id="Fill-18" fill-opacity="0.25" fill="#767474" d="M14.1338583,16.8218584 C14.1309536,16.8080457 14.1220391,16.7916306 14.1269471,16.7835232 C14.1346596,16.7709116 14.1517874,16.7640053 14.1648085,16.7545966 C14.168214,16.7694102 14.1782303,16.7874268 14.173122,16.7982367 C14.1677132,16.8095471 14.147881,16.8140512 14.1338583,16.8218584"></path>
                                <path id="Fill-19" fill-opacity="0.25" fill="#767474" d="M16.9258472,12.1910291 C16.9049008,12.3890817 16.8466385,12.5685595 16.6754979,12.6919264 C16.732131,12.5115972 16.7235197,12.2988396 16.9258472,12.1910291"></path>
                                <path id="Fill-20" fill-opacity="0.25" fill="#767474" d="M16.4377941,13.1574544 C16.4220455,13.2702182 16.4335272,13.3983835 16.2806179,13.4334432 C16.3017195,13.3236978 16.3237521,13.2144941 16.4377941,13.1574544"></path>
                                <path id="Fill-21" fill-opacity="0.25" fill="#767474" d="M16.673093,12.7165378 C16.7073056,12.8491146 16.6393459,12.9243421 16.5273985,12.9750355 C16.5438454,12.8708625 16.5734032,12.774042 16.673093,12.7165378"></path>
                                <path id="Fill-22" fill="#767474" d="M16.2585077,13.4777903 C16.254396,13.5658652 16.2559476,13.6573456 16.1383369,13.6773133 C16.14625,13.5915602 16.1648691,13.5122308 16.2585077,13.4777903"></path>
                                <path id="Fill-23" fill-opacity="0.25" fill="#767474" d="M16.5271097,13.0295213 C16.5556488,13.100492 16.5391595,13.1490184 16.4402241,13.1564483 C16.4359659,13.0974736 16.4490123,13.0472446 16.5271097,13.0295213"></path>
                            </g>
                            <g transform="translate(33.156823, 282.998569)" fill="#767474" opacity="0.22">
                                <path d="M14.7603008,21.3265049 C15.5027103,21.2620931 16.2444305,21.189759 16.9871847,21.1356806 C17.7974933,21.0760911 18.8607865,20.2786937 19.3581388,21.1215583 C20.0416105,22.2795928 20.2287639,23.722486 20.0833151,25.1106119 C20.0285132,25.6324508 19.4198339,25.7175294 18.9965847,25.8284417 C14.6331192,26.9737317 10.3279022,26.8920975 6.25292182,24.8092198 C1.93150556,22.600274 -0.384646718,17.1538605 0.358452138,11.8435039 C1.60234999,2.95295367 9.14397619,-0.153968306 15.9125176,0.382337405 C16.2544258,0.409548806 16.5908194,0.500483108 16.9323829,0.54560581 C20.8240013,1.06021129 20.9535955,1.30373611 19.7707034,5.05339826 C19.4618831,6.03300869 19.0403572,6.34783427 18.0332446,6.02749752 C16.1951433,5.44262463 14.2832837,5.37545725 12.4100266,5.74195004 C8.45050916,6.51661384 6.29945167,9.84260482 6.66617578,14.4471872 C6.98154473,18.4090294 9.65614915,21.0599021 13.5512142,21.2634709 C13.9520602,21.2844822 14.3549742,21.2662265 14.7568541,21.2662265 C14.7582328,21.2865489 14.7592668,21.3065269 14.7603008,21.3265049" id="Fill-1"></path>
                                <path d="M31.8998277,24.3335369 C32.0487232,23.1982359 32.2217453,22.0653461 32.3365189,20.9266006 C32.3978693,20.3200275 32.8786777,19.4361737 31.6626978,19.4175735 C30.7327902,19.4031066 29.6033213,19.0986145 29.4237506,20.5842192 C29.2724424,21.8345659 29.1304402,23.0876681 28.9274322,24.3304369 C28.6355005,26.1188115 28.0892057,26.454304 26.2176719,26.2159459 C24.498825,25.9965324 25.1519662,24.7857973 25.197462,23.8492429 C25.2277926,23.2230362 25.302585,22.5864961 25.4597525,21.9813008 C25.8726618,20.3899505 25.9932947,19.2274381 23.6605985,19.2918499 C22.3453548,19.3283614 22.7999687,17.9309354 22.7458562,17.0922042 C22.6786464,16.055071 23.285947,15.6207219 24.2585931,15.7464455 C25.7751214,15.9424364 26.6326492,15.4533201 26.7587968,13.801347 C26.8659878,12.4001321 27.1075983,11.1480632 24.9510262,11.4418774 C23.7550368,11.6051458 23.8229359,10.5325344 23.8270719,9.75132607 C23.8315526,8.93188401 23.6337146,7.91438429 24.9530942,7.84377242 C25.3535955,7.82241664 25.7575435,7.79830527 26.1566661,7.82448333 C27.2158233,7.89337295 27.7245496,7.43939034 27.8317406,6.35885661 C27.9554755,5.10816551 28.2132853,3.87021899 28.4187059,2.6281391 C28.7116716,0.859742489 30.0861977,1.38950369 31.1370829,1.43290415 C32.3592668,1.48319357 32.1493655,2.43352592 32.0380385,3.23298999 C31.903619,4.1967558 31.7226696,5.15363266 31.5896287,6.11739848 C31.490365,6.83626169 31.1932634,7.69600418 32.3799467,7.79796082 C33.3715494,7.88303951 34.3945167,7.9753516 34.5740874,6.56552548 C34.7333229,5.31655662 34.9463262,4.07378783 35.0893624,2.82309673 C35.3033997,0.956532409 36.7058436,1.37848135 37.8453078,1.4053483 C39.21363,1.43772642 38.9520288,2.38151425 38.787968,3.26295697 C38.6414852,4.05036536 38.5639355,4.85017387 38.4339966,5.64102674 C38.2282312,6.89068449 38.1613661,7.92643997 39.985336,7.8758061 C41.4301739,7.83585012 41.0351872,9.0793078 41.095159,9.92596126 C41.1596115,10.8315154 40.9259282,11.4322329 39.8057653,11.5021558 C37.6498825,11.636835 36.7578881,12.888215 37.0880777,15.0286156 C37.2045747,15.7833014 37.7501802,15.7695235 38.2430519,15.7164785 C39.9043397,15.5377099 40.0887357,16.4859756 40.0880464,17.820712 C40.0870124,19.1936822 39.3680401,19.543297 38.2389159,19.3796842 C36.7327276,19.1616485 36.1798841,19.8698338 36.0733824,21.2600264 C35.986182,22.3994608 35.6887357,23.5240839 35.6242833,24.6631738 C35.508131,26.7236624 34.010904,26.2056124 32.8386965,26.1963123 C31.4214319,26.18529 31.7805734,25.1781237 31.8998277,24.3335369 L31.8998277,24.3335369 Z M30.4343099,14.1575063 C30.20235,15.34103 30.7069403,15.7333564 31.8302052,15.7464455 C34.204606,15.7743458 33.2054206,13.8123693 33.5993733,12.7387246 C33.9430049,11.8014812 33.2333386,11.5238561 32.3303149,11.4718444 C30.1399655,11.3450875 30.7610528,13.0845505 30.4343099,14.1575063 L30.4343099,14.1575063 Z" id="Fill-2"></path>
                            </g>
                            <g transform="translate(46.600878, 0.000000)" fill-opacity="0.22">
                                <path d="M14.283572,0.0596033014 C18.8766715,0.0596033014 23.469771,0.0635713437 28.0627874,0.051832552 C28.4179296,0.050923209 28.5322692,0.11019584 28.4961488,0.497410631 C28.134696,4.37724662 27.7941681,8.25890129 27.4470804,12.14006 C27.1552112,15.4040227 26.8618474,18.6679028 26.5703934,21.9320309 C26.3707764,24.1673614 26.1696649,26.4026918 25.9800122,28.638849 C25.9588382,28.8889183 25.8508092,28.9889461 25.6198879,29.0530134 C21.9180897,30.079827 18.2181183,31.1131713 14.5189772,32.149409 C14.353903,32.1956202 14.2072626,32.2086817 14.0362928,32.1604865 C10.3391446,31.1172221 6.64141509,30.075611 2.93886956,29.0511947 C2.62059513,28.9631538 2.6219237,28.7605356 2.60158004,28.5323732 C2.42388443,26.543888 2.2499254,24.5549895 2.07173158,22.5665043 C1.69583062,18.3700516 1.31735557,14.1738469 0.941122472,9.97739426 C0.680391524,7.06997663 0.422815919,4.16231099 0.159676947,1.2550587 C0.136177947,0.995647937 0.0963209871,0.735906504 0.0390266068,0.481869132 C-0.0283150488,0.183108617 0.00207588334,0.0378617365 0.380135758,0.0501792011 C1.278412,0.0792781776 2.17826591,0.0596033014 3.07753857,0.0596033014 L14.283572,0.0596033014 L14.283572,0.0596033014 Z M9.30103683,24.1085847 C10.4961644,24.447687 11.6932848,24.7804239 12.885257,25.130273 C13.1861771,25.2185619 13.1330344,25.0304932 13.1331175,24.8721022 C13.1339478,18.7852081 13.1317059,12.6983139 13.1404246,6.61150241 C13.1408398,6.32117398 13.0341394,6.26669607 12.7787227,6.27182146 C12.1288882,6.28480026 11.4772269,6.30174711 10.82897,6.26653074 C10.4432709,6.24561585 10.3808283,6.38391865 10.3817417,6.7322797 C10.3934497,11.1527614 10.389464,15.5733259 10.389464,19.9938903 C10.389464,20.2693385 10.3798319,20.5452001 10.3926193,20.8200697 C10.4018363,21.0189678 10.3289312,21.1009741 10.130892,21.0679897 C8.48380308,20.6051341 6.83629902,20.1436839 5.19012353,19.6774389 C4.99474139,19.6221343 4.8800696,19.620481 4.88264369,19.8792304 C4.89202668,20.8146963 4.88903741,21.750245 4.88413833,22.6857936 C4.88330797,22.8517074 4.94450501,22.9248681 5.10858283,22.9688473 C6.5074791,23.3434139 7.90388431,23.7274047 9.30103683,24.1085847 L9.30103683,24.1085847 Z M20.1110748,2.6099798 C18.3128616,2.6099798 16.5146484,2.6168412 14.7165183,2.60344906 C14.4002367,2.60113437 14.2894675,2.67446048 14.2897997,3.01215741 C14.2989336,11.8532862 14.2985184,20.6944151 14.2913774,29.5355439 C14.2910452,29.8764648 14.3801421,29.9239987 14.6993299,29.8308324 C15.82504,29.5023115 16.9596348,29.2039643 18.0907421,28.893961 C19.8341519,28.4161426 21.5762332,27.9334468 23.3222172,27.4650525 C23.6120105,27.3872623 23.7713553,27.2785545 23.7646295,26.9425936 C23.7569072,26.5600082 23.8167757,26.1757694 23.8514844,25.792688 C24.0113274,24.0285626 24.1744919,22.2647678 24.3327572,20.5005597 C24.4518299,19.1736629 24.5627651,17.8461047 24.6816717,16.5192079 C24.839771,14.7549171 25.0040149,12.9911224 25.161782,11.2267489 C25.2560271,10.1733163 25.3385642,9.11880911 25.4341379,8.0655419 C25.5868399,6.38367065 25.7403722,4.70179941 25.9072732,3.02133351 C25.9400722,2.69099399 25.8380217,2.59981169 25.5057143,2.60262238 C23.7076672,2.61808121 21.909371,2.6099798 20.1110748,2.6099798 L20.1110748,2.6099798 Z" id="Fill-1" fill="#767474"></path>
                                <path d="M20.1110748,2.6099798 C21.909371,2.6099798 23.7076672,2.61808121 25.5057143,2.60262238 C25.8380217,2.59981169 25.9400722,2.69099399 25.9072732,3.02133351 C25.7403722,4.70179941 25.5868399,6.38367065 25.4341379,8.0655419 C25.3385642,9.11880911 25.2560271,10.1733163 25.161782,11.2267489 C25.0040149,12.9911224 24.839771,14.7549171 24.6816717,16.5192079 C24.5627651,17.8461047 24.4518299,19.1736629 24.3327572,20.5005597 C24.1744919,22.2647678 24.0113274,24.0285626 23.8514844,25.792688 C23.8167757,26.1757694 23.7569072,26.5600082 23.7646295,26.9425936 C23.7713553,27.2785545 23.6120105,27.3872623 23.3222172,27.4650525 C21.5762332,27.9334468 19.8341519,28.4161426 18.0907421,28.893961 C16.9596348,29.2039643 15.82504,29.5023115 14.6993299,29.8308324 C14.3801421,29.9239987 14.2910452,29.8764648 14.2913774,29.5355439 C14.2985184,20.6944151 14.2989336,11.8532862 14.2897997,3.01215741 C14.2894675,2.67446048 14.4002367,2.60113437 14.7165183,2.60344906 C16.5146484,2.6168412 18.3128616,2.6099798 20.1110748,2.6099798 L20.1110748,2.6099798 Z M15.4381783,12.4089775 C15.4381783,14.3370327 15.4410846,16.2651706 15.4346909,18.1932258 C15.4338605,18.4564392 15.4437417,18.5847393 15.7917428,18.5192666 C17.4453084,18.2076926 19.1073437,17.9407591 20.7617397,17.6329878 C21.0530276,17.5787579 21.098697,17.657292 21.0823391,17.9066174 C21.0364205,18.6061501 20.9732307,19.3062616 20.9714039,20.0062077 C20.9703244,20.3925958 20.7634834,20.473858 20.4623142,20.5515655 C18.8992571,20.9549832 17.3415973,21.379729 15.7763813,21.7744666 C15.5000397,21.8441553 15.4294596,21.9639406 15.4333623,22.22517 C15.4461497,23.0926833 15.4535399,23.9608578 15.430373,24.8278751 C15.4214052,25.1610253 15.5378207,25.1769801 15.808599,25.1055554 C18.1435526,24.4897648 20.4800838,23.880009 22.8182758,23.2763706 C23.0775951,23.2094098 23.1602153,23.0757364 23.1734179,22.8131843 C23.2176757,21.9345109 23.2851004,21.0568296 23.3555144,20.1796442 C23.5092958,18.2620052 23.6637415,16.3442007 23.8342961,14.427967 C23.8670951,14.0599311 23.7332421,13.9565966 23.3972811,14.023392 C23.3298565,14.0367842 23.2594425,14.0341388 23.1908553,14.0425709 C21.643824,14.2325409 20.0953811,14.4130042 18.5509239,14.6219877 C18.2394584,14.6641482 18.1842399,14.586606 18.1870631,14.2971043 C18.2006809,12.8787772 18.2025076,11.4600367 18.1861497,10.0417096 C18.1824961,9.72062885 18.2652823,9.61762509 18.6001639,9.62076646 C20.3430755,9.63713463 22.0861532,9.62291581 23.8290649,9.63374526 C24.1245046,9.63564662 24.238346,9.55479776 24.2578593,9.24413311 C24.3112511,8.3943934 24.3898855,7.54548036 24.4875351,6.69954335 C24.5279733,6.34886761 24.4260889,6.25570129 24.0736039,6.25743731 C21.3485504,6.27107745 18.6232477,6.27140812 15.8981941,6.25710664 C15.5438823,6.25520528 15.4245605,6.32944074 15.4287123,6.70747943 C15.4493051,8.60775834 15.4381783,10.5084506 15.4381783,12.4089775 L15.4381783,12.4089775 Z" id="Fill-2" fill="#A3A0A0"></path>
                            </g>
                        </g>
                    </g>
                </g>
                <g id="Group" transform="translate(525.000000, 0.000000)" sketch:type="MSShapeGroup">
                    <g transform="translate(90.000000, 8.000000)">
                        <path d="M34.9019937,11.3714683 C34.9019937,14.7689776 34.9022924,18.1664869 34.9019937,21.5639963 C34.9019937,22.3024172 34.888254,22.317578 34.1239084,22.3187671 C33.0707304,22.3205508 32.0178512,22.3211453 30.9649719,22.3137135 C30.8051732,22.3125244 30.5847406,22.3577096 30.5211198,22.1621054 C30.4685505,22.00039 30.6618024,21.9112087 30.7579803,21.8003267 C31.7036302,20.7096397 32.5453362,19.5470131 33.2562164,18.2895571 C33.4082492,18.0205269 33.3942108,17.8825932 33.1056771,17.7413895 C31.7048249,17.054991 30.3057649,16.3644306 28.9186524,15.6512777 C28.5676927,15.4708343 28.3860897,15.5353421 28.1787994,15.8566919 C27.2651093,17.2746742 26.1958021,18.5571009 24.8024171,19.5416622 C22.5144582,21.158816 20.0457923,21.54289 17.4247949,20.50809 C15.6093622,19.7913698 14.5051084,18.351984 13.787657,16.6010583 C13.1660849,15.0840848 12.8715773,13.4948745 12.8414097,11.857209 C12.8396176,11.7558396 12.8396176,11.6541729 12.8309556,11.5531008 C12.7386607,10.458252 12.738362,10.4579548 13.8217076,10.4579548 C19.8680722,10.4576575 25.9144369,10.4579548 31.9605028,10.4573602 C32.741575,10.4573602 32.7394842,10.4493339 32.7403802,9.66216052 C32.7418737,8.14043069 32.7239523,6.62613264 32.3526817,5.13085992 C31.9820085,3.63707356 31.3986685,2.24792656 30.5447162,0.967877983 C30.466161,0.850158699 30.2917265,0.734223041 30.4040336,0.572210391 C30.4855758,0.454788378 30.6552312,0.496406307 30.7884466,0.496406307 C31.9942547,0.49432541 33.2000629,0.502351725 34.405871,0.49105543 C34.7589216,0.48778545 34.9175255,0.573696745 34.9157334,0.975904297 C34.9002015,4.44119139 34.9067727,7.90618121 34.9067727,11.3714683 L34.9019937,11.3714683 Z M0.432368606,11.3771164 C0.432667295,7.99803792 0.432069917,4.6189594 0.432965985,1.2395836 C0.433264674,0.504432621 0.442225349,0.496109036 1.16236491,0.495217223 C2.38460095,0.494028139 3.60683699,0.493433597 4.82937172,0.498189932 C4.95571724,0.498784474 5.12358055,0.442897541 5.19287643,0.598370231 C5.25052344,0.72738581 5.11491856,0.811216209 5.04651874,0.898613859 C3.76573963,2.53419845 2.86967215,4.3624146 2.35771893,6.36631785 C1.90430878,8.14102524 1.70687525,9.9445679 1.82097451,11.7849721 C1.91147732,13.2413024 2.12026105,14.6687973 2.53185471,16.0686461 C3.16627048,18.224752 4.20570876,20.1584994 5.7063231,21.8422418 C5.80070887,21.947773 6.00142799,22.0283334 5.91421075,22.2046151 C5.83714895,22.3594932 5.64389706,22.316389 5.49604593,22.3169835 C4.01902803,22.3202535 2.54201014,22.3056872 1.06529094,22.3264962 C0.570661687,22.3336307 0.422810553,22.1409991 0.424602688,21.666852 C0.438641079,18.2369402 0.432368606,14.8070283 0.432368606,11.3771164 Z M17.6864466,5.59252166 C16.346527,5.59222438 15.0066075,5.59668345 13.6666879,5.58984622 C13.1206841,5.58717078 13.0128573,5.43942713 13.1227749,4.90285313 C13.8512778,1.3468984 17.6891348,-0.208720311 20.706194,1.84244902 C21.6682718,2.49674231 22.0640349,3.49973439 22.237872,4.59755589 C22.3949825,5.59014349 22.3788533,5.59281893 21.3498691,5.59281893 C20.1285292,5.5931162 18.9074879,5.59281893 17.6864466,5.59252166 Z M26.6100839,27.0328894 C26.6100839,26.1574265 26.6321869,25.2813691 26.6014219,24.4067981 C26.584098,23.9106529 26.8122965,23.8167153 27.2468892,23.8137426 C27.6955203,23.8107699 27.8902657,23.9380018 27.8824997,24.4183916 C27.8595007,25.8548047 27.8768247,27.2918123 27.8714482,28.7285227 C27.8705522,28.9526649 27.9416402,29.2425041 27.6094979,29.3055255 C27.3069257,29.3631961 27.0106261,29.3712224 26.7818302,29.0760324 C26.0864818,28.1800578 25.3764977,27.2953796 24.6706952,26.4071341 C24.5885557,26.3036838 24.4977542,26.2070707 24.37111,26.0611107 C24.2187785,26.4835327 24.2985285,26.8673094 24.2877757,27.2403845 C24.2716465,27.7974702 24.296139,28.3563395 24.274036,28.9131279 C24.2510369,29.4901308 23.7895622,29.2995801 23.467874,29.3281181 C23.1306539,29.3581425 22.9550247,29.1996971 22.9792185,28.8504037 C23.0801754,27.3985326 22.9968412,25.9445805 23.030593,24.4918175 C23.0362681,24.2590544 22.9194807,23.9365155 23.2722326,23.8532796 C23.632153,23.7682601 23.9642953,23.8125535 24.2217654,24.1559014 C24.902478,25.062875 25.605891,25.9529041 26.301538,26.8485814 C26.3618732,26.9264664 26.4314678,26.9972168 26.4968807,27.0712373 C26.5345156,27.0584546 26.5721504,27.045672 26.6100839,27.0328894 Z M33.5005441,26.2920902 L33.6531743,26.2920902 C34.7995433,26.2926848 34.8500218,26.3527335 34.6188364,27.479093 C34.4190133,28.452358 33.8768925,29.1527283 32.8998802,29.4184885 C31.8368455,29.7080303 30.8968707,29.4238393 30.2051066,28.5647264 C28.745114,26.7510765 29.7346712,24.1990057 31.5946086,23.7415057 C32.5193503,23.5140935 33.6549664,23.8401997 34.2266575,24.6273731 C34.3646519,24.8173292 34.5785133,25.0500923 34.2496566,25.2112132 C33.9536556,25.3556868 33.6355516,25.7861351 33.2732417,25.3533087 C33.0071097,25.0349315 32.7117061,24.8128701 32.2980216,24.7840349 C31.4377968,24.7242834 30.7914335,25.5420757 30.8123417,26.6497071 C30.8323539,27.7032353 31.4873792,28.4577089 32.3240075,28.3851748 C32.5841658,28.3625822 32.8249093,28.2772654 33.002928,28.0777966 C33.1609346,27.9006232 33.3583681,27.6925335 33.272943,27.4573922 C33.1899074,27.2290882 32.9124252,27.3271876 32.7224589,27.3316466 C32.3449158,27.3405648 32.2164794,27.1714176 32.2164794,26.8102334 C32.2164794,26.4395366 32.378369,26.285253 32.7370947,26.2935766 C32.9912791,26.299522 33.246061,26.2947657 33.5005441,26.2947657 L33.5005441,26.2920902 Z M20.6386902,29.3174164 C20.1318147,29.411354 19.8683709,29.2306132 19.7715956,28.8168121 C19.6595872,28.3376114 19.3623915,28.1550871 18.8806059,28.2255403 C18.7309626,28.2472411 18.572956,28.2475383 18.4233128,28.2255403 C17.9334625,28.1533034 17.6780833,28.3670412 17.5308295,28.8281084 C17.3811863,29.2963101 16.7025645,29.532046 16.284101,29.3055255 C16.0299165,29.1681864 16.1828454,28.9755548 16.2419858,28.8215685 C16.6729943,27.7023435 17.1153529,26.5878748 17.5547247,25.4719198 C17.7157181,25.0634695 17.8937369,24.6606674 18.0350168,24.24538 C18.1464279,23.9174901 18.3516274,23.8083917 18.6867566,23.8184989 C18.9967959,23.8280116 19.245604,23.862495 19.3713521,24.2046538 C19.9534973,25.7897024 20.5702904,27.3625628 21.1276444,28.9565295 C21.334636,29.5483959 20.767724,29.2353696 20.6386902,29.3174164 Z M7.08268274,27.6152431 C7.08268274,28.0531231 7.07700765,28.4915977 7.08417619,28.9294778 C7.09164342,29.3712224 6.78040931,29.3406035 6.48739525,29.3417926 C6.18870609,29.3432789 5.89987367,29.355467 5.90256187,28.9169924 C5.91152255,27.3640492 5.9100291,25.8111059 5.90315925,24.2581626 C5.90166581,23.9210574 6.06743829,23.8167153 6.37598419,23.8238498 C6.79982411,23.8342543 7.22456009,23.8134453 7.64780263,23.8312816 C8.44739351,23.8651704 8.98593007,24.270648 9.20696005,24.9796391 C9.42709396,25.685063 9.2081548,26.4434011 8.60002367,26.8726603 C8.33448901,27.059941 8.32343751,27.1987665 8.49100213,27.4401505 C8.81866414,27.9122167 9.12631397,28.3979574 9.44830089,28.8738881 C9.65140951,29.1741318 9.60839828,29.3144436 9.2165181,29.3468462 C8.59853023,29.3976795 8.09105735,29.3177136 7.81267905,28.655394 C7.65258166,28.2742927 7.38674831,27.9374848 7.16870522,27.5804624 C7.14003106,27.5920559 7.1113569,27.6036495 7.08268274,27.6152431 Z M7.06954042,25.5822073 C7.16840653,25.8102141 6.90078104,26.2255015 7.38824175,26.2406624 C7.81058822,26.2537423 7.97426988,25.9642004 7.97904891,25.5759646 C7.98352925,25.194566 7.85150864,24.8859988 7.41781198,24.8898633 C6.89331382,24.8946196 7.16751046,25.3330942 7.06954042,25.5822073 Z M1.98226666,29.3403062 C1.64325446,29.3403062 1.30424226,29.3358472 0.965230067,29.3417926 C0.671319934,29.3465489 0.528247826,29.2184251 0.528845205,28.9184788 C0.531832096,27.3664273 0.532429475,25.8140786 0.528247826,24.2620271 C0.527351759,23.9332455 0.689241283,23.8184989 1.00226752,23.822958 C1.68029191,23.8324706 2.358615,23.8348488 3.03663939,23.822958 C3.39745589,23.816418 3.5103604,23.9926997 3.50767219,24.3214813 C3.50498399,24.6380748 3.47421901,24.9044296 3.05635287,24.8892688 C2.81949237,24.8806479 2.5790476,24.9121586 2.34487529,24.8854042 C1.84845391,24.8286255 1.72957563,25.0711986 1.75376945,25.5114568 C1.77139211,25.8313203 1.88758219,25.9778749 2.21375075,25.9591468 C2.416262,25.9475532 2.62116277,25.9698485 2.82367402,25.9564714 C3.20420401,25.9312033 3.42732481,26.0227628 3.42523398,26.4775873 C3.42314316,26.9166564 3.2292939,27.0471584 2.83502421,27.0120804 C2.73406727,27.0031623 2.63161689,27.0108913 2.52976388,27.0111886 C1.78184623,27.0129722 1.59874977,27.2597071 1.76780784,28.0073434 C1.81529941,28.2166221 1.93716459,28.2802381 2.12802696,28.2802381 C2.416262,28.2802381 2.70509442,28.296588 2.9921347,28.2802381 C3.36191188,28.2591319 3.50946433,28.4119291 3.51065908,28.7817342 C3.51155515,29.1476747 3.41896151,29.3676551 2.99930324,29.3453598 C2.66118711,29.3278208 2.32127885,29.3417926 1.98226666,29.3417926 L1.98226666,29.3403062 Z M11.7195333,26.5786594 C11.7198319,25.8185376 11.7320782,25.0584159 11.7150529,24.2985914 C11.7051962,23.8544687 11.9671466,23.8223634 12.308847,23.8199853 C12.6592094,23.8176071 12.9011476,23.8746831 12.8960699,24.3084014 C12.8829275,25.4398145 12.9086148,26.5718222 12.885317,27.7026407 C12.8766551,28.1339808 12.9970268,28.3465295 13.4573068,28.285589 C13.5908208,28.26805 13.7294126,28.2936153 13.8641214,28.2817245 C14.2521186,28.2469438 14.4149042,28.4050919 14.4146055,28.8040295 C14.4140082,29.1913735 14.2766112,29.3596288 13.8778611,29.3465489 C13.3184163,29.3284154 12.7577768,29.3337663 12.1980333,29.3438735 C11.8524499,29.3501162 11.7099752,29.2035616 11.7156503,28.8584301 C11.7275979,28.0986056 11.7192346,27.3384839 11.7195333,26.5786594 Z" id="Fill-1" opacity="0.22" fill="#767474"></path>
                        <g id="Imported-Layers" transform="translate(31.280029, 91.185987)" fill-opacity="0.22">
                            <path d="M23.3481069,25.2349032 C23.8659927,25.3245539 24.4206914,25.3924532 24.6964947,25.9047848 C24.8352062,26.1622733 24.9481486,26.5177897 24.8815906,26.7807161 C24.7925031,27.1322643 24.5225899,27.4550068 24.1004181,27.509532 C23.975401,27.5256985 23.8209335,27.4542719 23.7071076,27.3810817 C23.5626533,27.2880507 23.4535395,27.1424051 23.3157115,27.0368819 C22.8355223,26.6693141 22.7203711,26.6771034 22.2881861,27.1038994 C21.0748286,28.3022792 19.6799092,29.231413 18.1044587,29.8814539 C17.1554187,30.2731245 16.2103545,30.6971281 15.2259741,30.9744574 C14.3988589,31.2074022 13.5209417,31.3029316 12.659075,31.3577508 C12.0314864,31.3977262 11.8278367,31.8761081 11.4873898,32.2263336 C11.4228934,32.2926163 11.4161198,32.4137182 11.3790122,32.5079249 C11.0204533,33.4186877 10.8219574,33.5218594 9.87998557,33.2890616 C9.36960969,33.1629628 9.16154243,32.772321 9.38521842,32.2999647 C9.59519995,31.8567083 9.84170001,31.430794 10.0962989,30.9516773 C9.20630708,30.5992472 8.63791387,29.9239277 8.04227901,29.2734459 C7.94892116,29.1715969 7.73201878,29.1865876 7.57534251,29.1377941 C7.36845327,29.0732751 7.08882148,29.0546101 6.98324171,28.9114629 C6.89695196,28.7946231 6.9549693,28.4733503 7.06452488,28.3322607 C7.26537678,28.0735965 7.24623401,27.8553485 7.15434868,27.5734632 C6.88973661,26.762345 6.87751468,25.9343255 6.94171661,25.0820561 C7.04008103,23.7778592 6.95143525,22.474397 6.61039932,21.2001816 C6.57285003,21.0599738 6.50010748,20.9216766 6.49686793,20.7813219 C6.46653399,19.4093725 5.80110163,18.2891799 5.08310025,17.1894159 C4.77431254,16.7164718 4.42164369,16.2685123 4.15187779,15.7748457 C3.81260889,15.1540515 3.51898815,14.5062151 3.24082888,13.8549984 C2.95707403,13.1907016 2.7264772,12.5037716 2.44846518,11.8368293 C2.38323249,11.680455 2.2454045,11.5162914 2.09726886,11.4401618 C1.82912273,11.3024525 1.53402947,11.1694461 1.23952521,11.1399055 C0.618857492,11.0774439 0.371179413,10.6615236 0.216711931,10.1613903 C-0.224749948,8.73212333 0.265305134,7.76845199 1.67642227,7.26199912 C2.00273299,7.14486537 2.18635639,6.96335948 2.33036897,6.61548544 C2.73192553,5.6457884 3.41429189,4.84848521 4.26643995,4.25341044 C5.72570854,3.23433204 7.20515066,2.23671102 8.73289149,1.3249195 C10.0387234,0.54569341 11.5227303,0.231622088 13.0341261,0.213691952 C13.9840496,0.202522359 14.8915645,0.528498115 15.7266313,0.993946816 C15.9860895,1.13856365 16.1292186,1.13665306 16.3493605,0.89856437 C16.8637122,0.341848336 17.9876877,0.285265529 18.6426652,0.678405812 C19.7361595,1.33491334 19.7985944,2.00655861 19.3955653,3.16481602 C19.202076,3.72079721 19.2595043,4.08865894 19.580514,4.60157841 C20.1434589,5.50117156 20.5766746,6.49247295 20.9732246,7.48171678 C21.3068979,8.31443934 21.5908,9.14892551 22.1510944,9.87862327 C22.4874182,10.3165889 22.710947,10.8528763 22.9198977,11.3712336 C23.0291588,11.6419493 23.1416594,11.7311591 23.421144,11.7000018 C23.751725,11.6632597 24.0890796,11.6412145 24.4199552,11.6638476 C24.912808,11.6975033 25.2721032,12.0941708 25.1995079,12.4727613 C25.0478382,13.2643327 24.6981144,13.546071 24.0762687,13.3857285 C23.926366,13.3470759 23.770426,13.3319381 23.5555852,13.29549 C23.6119827,13.5569466 23.6697056,13.7597629 23.6978307,13.9665474 C23.8347752,14.9710759 23.977168,15.9751635 24.0883434,16.9826314 C24.1275124,17.3385887 24.0905522,17.703952 24.0767105,18.0646123 C24.0178096,19.5907314 24.0030844,21.1206717 23.8739443,22.6409122 C23.8012017,23.4964148 23.5370314,24.3357509 23.3481069,25.2349032 L23.3481069,25.2349032 Z M9.944482,30.5842565 C10.4357151,30.5094496 10.8243135,30.3554268 11.1668219,30.4255307 C11.4972557,30.4929891 11.77836,30.7947151 12.0852334,30.9873906 C12.1896352,31.0527915 12.3103819,31.1539057 12.4162562,31.1455285 C13.0376602,31.0965881 13.6796795,31.1024668 14.2725165,30.9383032 C16.5469729,30.3083969 18.7707745,29.5316693 20.7100851,28.1375277 C21.8649835,27.3073036 22.7735291,26.2794071 23.1158903,24.836619 C23.6514463,22.5799203 23.8905838,20.2927991 23.7667447,17.9812812 C23.7081384,16.8857793 23.4491219,15.8021818 23.3584146,14.7068269 C23.2118987,12.9357115 22.6296638,11.3362552 21.7704476,9.78588626 C21.1789358,8.71845528 20.792399,7.53727081 20.3229592,6.40341014 C19.6791729,4.84833824 18.6428124,3.61703757 17.2704226,2.65160261 C16.9991842,2.46083772 16.7023239,2.26198957 16.5206148,1.99656476 C15.8462,1.01158302 14.8198527,0.634903186 13.7429979,0.461921461 C11.8377026,0.15578643 10.0615474,0.75424147 8.44781137,1.66779661 C6.97705712,2.50051917 5.61114638,3.5287096 4.2493587,4.53823506 C3.33698452,5.21473029 2.58791295,6.07846316 2.48660348,7.27948836 C2.40046099,8.302094 2.39074235,9.3332238 2.39280388,10.3603855 C2.39560167,11.7983236 3.09931959,13.0332985 3.64282719,14.3035458 C4.09989779,15.3720055 4.75178296,16.3315617 5.49967652,17.2320367 C6.38274753,18.2953526 6.53353371,19.6700943 6.94407264,20.929025 C7.10339944,21.4172538 7.18777491,21.9507489 7.19189797,22.4645502 C7.20205837,23.7173082 7.13005208,24.9706541 7.12062794,26.224 C7.11355984,27.1679776 7.50775379,27.9907063 7.97601555,28.7866868 C8.47991233,29.6432182 9.25210249,30.1930268 9.944482,30.5842565 L9.944482,30.5842565 Z M2.22979577,11.2007504 C2.20034534,10.6478555 2.2942922,10.16771 1.75461315,9.82571467 C1.28620414,9.52883865 1.25483943,9.09381239 1.68216511,8.86263121 C2.12568852,8.62263192 2.15837849,8.27372911 2.18311685,7.87132982 C2.2143343,7.36370121 2.07724257,7.27272781 1.59896765,7.48759551 C0.915276026,7.79490629 0.599567464,8.33957092 0.471458112,9.06412479 C0.323469724,9.90199124 0.608697096,10.557323 1.38000374,10.8954971 C1.62753457,11.0041067 1.8894961,11.0797954 2.22979577,11.2007504 L2.22979577,11.2007504 Z M16.30813,1.25349289 C16.5332785,1.58769887 16.7434072,1.7787577 17.1642538,1.53170394 C17.4687712,1.35313741 17.8243851,1.41824439 18.0663204,1.72511426 C18.2920579,2.01155553 18.3600884,2.31783753 18.1193311,2.64087392 C18.0735357,2.70230668 18.0613138,2.78872406 18.0661731,2.77564388 C18.3745191,3.14453439 18.6394256,3.46154508 18.924653,3.80295251 C19.4649211,2.71597474 19.6217446,1.64795588 18.9249475,1.18089053 C17.8483872,0.459276031 16.9249691,0.468682005 16.30813,1.25349289 L16.30813,1.25349289 Z M9.85760324,32.4669208 C9.89839208,32.4595723 9.93918092,32.452077 9.97996976,32.4447285 C10.0088312,32.4895539 10.0346003,32.5367307 10.067143,32.5787637 C10.2070325,32.7587999 10.3488363,32.9375134 10.4899039,33.1166677 C10.7028305,32.9425103 10.9572821,32.799804 11.1191122,32.5869939 C11.3697353,32.2573439 11.5736795,31.8883064 11.7624568,31.5180932 C11.8272477,31.3908186 11.8459487,31.1052592 11.7854281,31.0716034 C11.4423306,30.8803976 11.0730223,30.7315187 10.7017997,30.5985124 C10.6230198,30.5702945 10.4433722,30.6386347 10.4046449,30.7121189 C10.0957099,31.2994043 9.77970687,31.8865428 9.52820023,32.4992538 C9.39184476,32.8315492 9.63127672,33.0824241 10.0041191,33.0982967 C9.9552314,32.8878381 9.90649095,32.6773794 9.85760324,32.4669208 L9.85760324,32.4669208 Z M24.7670284,26.5470364 C24.7112199,25.9681282 24.3716565,25.722838 24.0011701,25.5292807 C23.4273286,25.2291714 23.2522458,25.3079464 23.0136973,25.9028742 C22.9652514,26.0236822 22.9011967,26.1381705 22.8508365,26.2582437 C22.7458457,26.5082368 22.8023905,26.6452113 23.0899739,26.7357438 C23.3151225,26.8067295 23.5012491,26.9961716 23.7110834,27.1219765 C23.8570103,27.2094227 24.1102839,27.3762317 24.1490113,27.3383139 C24.3080436,27.1823805 24.4345331,26.9725097 24.5093372,26.7601405 C24.547181,26.6524127 24.4498473,26.4972142 24.3865289,26.2633876 C24.5439415,26.3806683 24.6135917,26.4326951 24.7670284,26.5470364 L24.7670284,26.5470364 Z M23.0580202,11.9843855 C23.1663978,12.3190324 23.2594611,12.6339855 23.3747596,12.9405615 C23.3978781,13.0021412 23.4994821,13.0490241 23.5744334,13.0737148 C23.7665975,13.1370581 23.9642098,13.2270027 24.1593189,13.2264149 C24.373718,13.22568 24.6649827,13.1993727 24.7768943,13.0640149 C24.8620061,12.9609901 24.7190242,12.6701397 24.6777936,12.4629144 C24.6714618,12.4313162 24.666897,12.3992771 24.6582091,12.3484261 C24.7951536,12.3960438 24.9038257,12.4338147 25.0323768,12.47864 C24.9019114,11.7752496 24.1323718,11.5872771 23.0580202,11.9843855 L23.0580202,11.9843855 Z M7.47653634,28.265978 C7.38641803,28.2783234 7.29644698,28.2906687 7.20632868,28.303014 C7.176731,28.5020092 7.14728058,28.7010043 7.1176829,28.8999994 C7.31396999,28.8989706 7.51025707,28.8980888 7.70654416,28.89706 C7.6298258,28.6867483 7.55325469,28.4762897 7.47653634,28.265978 L7.47653634,28.265978 Z" id="Fill-2" fill="#FFFFFF"></path>
                            <path d="M9.944482,30.5842565 C9.25210249,30.1930268 8.47991233,29.6432182 7.97601555,28.7866868 C7.50775379,27.9907063 7.11355984,27.1679776 7.12062794,26.224 C7.13005208,24.9706541 7.20205837,23.7173082 7.19189797,22.4645502 C7.18777491,21.9507489 7.10339944,21.4172538 6.94407264,20.929025 C6.53353371,19.6700943 6.38274753,18.2953526 5.49967652,17.2320367 C4.75178296,16.3315617 4.09989779,15.3720055 3.64282719,14.3035458 C3.09931959,13.0332985 2.39560167,11.7983236 2.39280388,10.3603855 C2.39074235,9.3332238 2.40046099,8.302094 2.48660348,7.27948836 C2.58791295,6.07846316 3.33698452,5.21473029 4.2493587,4.53823506 C5.61114638,3.5287096 6.97705712,2.50051917 8.44781137,1.66779661 C10.0615474,0.75424147 11.8377026,0.15578643 13.7429979,0.461921461 C14.8198527,0.634903186 15.8462,1.01158302 16.5206148,1.99656476 C16.7023239,2.26198957 16.9991842,2.46083772 17.2704226,2.65160261 C18.6428124,3.61703757 19.6791729,4.84833824 20.3229592,6.40341014 C20.792399,7.53727081 21.1789358,8.71845528 21.7704476,9.78588626 C22.6296638,11.3362552 23.2118987,12.9357115 23.3584146,14.7068269 C23.4491219,15.8021818 23.7081384,16.8857793 23.7667447,17.9812812 C23.8905838,20.2927991 23.6514463,22.5799203 23.1158903,24.836619 C22.7735291,26.2794071 21.8649835,27.3073036 20.7100851,28.1375277 C18.7707745,29.5316693 16.5469729,30.3083969 14.2725165,30.9383032 C13.6796795,31.1024668 13.0376602,31.0965881 12.4162562,31.1455285 C12.3103819,31.1539057 12.1896352,31.0527915 12.0852334,30.9873906 C11.77836,30.7947151 11.4972557,30.4929891 11.1668219,30.4255307 C10.8243135,30.3554268 10.4357151,30.5094496 9.944482,30.5842565 L9.944482,30.5842565 Z M12.8861378,9.23460805 C12.9342892,9.18992968 12.9708077,9.14289981 13.0183702,9.11409402 C13.609882,8.75666704 13.7562506,8.51666776 13.6228401,8.11456241 C13.4093246,7.47069415 13.0411942,7.21599804 12.3978497,7.25876582 C12.1174816,7.2774308 11.8954254,7.2189374 11.6707187,6.988785 C11.5121281,6.82609106 11.1515077,6.71659965 10.9393174,6.7795021 C10.5205323,6.90369034 10.1145582,7.12620039 9.75938607,7.38486465 C9.59328567,7.50596655 9.46090601,7.81709851 9.48505536,8.02197236 C9.52437168,8.35588441 9.42291496,8.55532043 9.19997524,8.77665473 C8.94184226,9.03311447 8.97909705,9.67992209 9.22368283,10.0345567 C9.45383791,10.3683217 9.81769792,10.4666436 10.2548895,10.3184995 C10.3716604,10.278965 10.4932907,10.2533925 10.6355362,10.2153277 C10.687958,10.3959518 10.7294831,10.547917 10.7763093,10.6984126 C10.8235772,10.8502309 10.8727594,11.0016083 10.9266537,11.151222 C11.118376,11.6822186 11.3798957,11.8109629 11.8935112,11.6112329 C12.2832875,11.4597086 12.6692354,11.2974555 13.0513546,11.1277071 C13.4056433,10.970304 13.5740997,10.7147261 13.4003422,10.3268767 C13.2411626,9.97165423 13.0693194,9.62216354 12.8861378,9.23460805 L12.8861378,9.23460805 Z M12.7534636,6.64605485 C14.7340047,6.63973522 16.0469047,5.11097065 15.9525161,3.5603078 C15.8400154,1.71232801 14.4001841,0.646366716 12.9538737,0.682814861 C11.1984811,0.727199297 9.75290698,2.05476422 9.83934398,3.75562871 C9.92283593,5.3952074 11.5069743,6.83123495 12.7534636,6.64605485 L12.7534636,6.64605485 Z M6.06703897,9.85099323 C7.95289697,9.81792535 9.23384323,9.05030977 9.42203145,7.44144746 C9.65100851,5.48412324 8.34650191,4.24282872 6.80550839,4.03619125 C5.33652116,3.83895975 3.56610883,5.04116069 3.54048696,6.85548472 C3.51781013,8.45743952 4.4154591,9.59673802 6.06703897,9.85099323 L6.06703897,9.85099323 Z M15.7643278,17.439262 C16.0795946,17.2596667 16.3768967,17.026575 16.7143986,16.9141442 C17.1334781,16.7743773 17.5474039,16.8296374 17.9395363,17.1228392 C18.2656997,17.3669536 18.6049686,17.249085 18.9275981,16.9902738 C19.2328517,16.7455715 19.2567066,16.4686832 19.1698278,16.1418256 C19.0031384,15.5139769 18.4705274,15.1314184 17.730291,15.0990853 C16.845453,15.0604327 16.845453,15.0604327 16.7152821,15.9184338 C16.6979063,16.0329221 16.707036,16.1599027 16.6588845,16.2595473 C16.5664102,16.4509 16.4555293,16.7707031 16.3281562,16.7826075 C15.9028921,16.8227299 15.8703494,17.1512041 15.7643278,17.439262 L15.7643278,17.439262 Z" id="Fill-3" fill="#767474"></path>
                            <path d="M2.22979577,11.2007504 C1.8894961,11.0797954 1.62753457,11.0041067 1.38000374,10.8954971 C0.608697096,10.557323 0.323469724,9.90199124 0.471458112,9.06412479 C0.599567464,8.33957092 0.915276026,7.79490629 1.59896765,7.48759551 C2.07724257,7.27272781 2.2143343,7.36370121 2.18311685,7.87132982 C2.15837849,8.27372911 2.12568852,8.62263192 1.68216511,8.86263121 C1.25483943,9.09381239 1.28620414,9.52883865 1.75461315,9.82571467 C2.2942922,10.16771 2.20034534,10.6478555 2.22979577,11.2007504" id="Fill-4" fill="#767474"></path>
                            <path d="M16.30813,1.25349289 C16.9249691,0.468682005 17.8483872,0.459276031 18.9249475,1.18089053 C19.6217446,1.64795588 19.4649211,2.71597474 18.924653,3.80295251 C18.6394256,3.46154508 18.3745191,3.14453439 18.0661731,2.77564388 C18.0613138,2.78872406 18.0735357,2.70230668 18.1193311,2.64087392 C18.3600884,2.31783753 18.2920579,2.01155553 18.0663204,1.72511426 C17.8243851,1.41824439 17.4687712,1.35313741 17.1642538,1.53170394 C16.7434072,1.7787577 16.5332785,1.58769887 16.30813,1.25349289" id="Fill-5" fill="#767474"></path>
                            <path d="M9.85760324,32.4669208 C9.90649095,32.6773794 9.9552314,32.8878381 10.0038246,33.0980028 C9.63127672,33.0824241 9.39184476,32.8315492 9.52820023,32.4992538 C9.77970687,31.8865428 10.0957099,31.2994043 10.4046449,30.7121189 C10.4433722,30.6386347 10.6230198,30.5702945 10.7017997,30.5985124 C11.0730223,30.7315187 11.4423306,30.8803976 11.7854281,31.0716034 C11.8459487,31.1052592 11.8272477,31.3908186 11.7624568,31.5180932 C11.5736795,31.8883064 11.3697353,32.2573439 11.1191122,32.5869939 C10.9572821,32.799804 10.7028305,32.9425103 10.4899039,33.1166677 C10.3488363,32.9375134 10.2070325,32.7587999 10.067143,32.5787637 C10.0346003,32.5367307 10.0088312,32.4895539 9.97996976,32.4447285 C9.93918092,32.452077 9.89839208,32.4595723 9.85760324,32.4669208" id="Fill-6" fill="#767474"></path>
                            <path d="M24.7670284,26.5470364 C24.6135917,26.4326951 24.5439415,26.3806683 24.3865289,26.2633876 C24.4498473,26.4972142 24.547181,26.6524127 24.5093372,26.7601405 C24.4345331,26.9725097 24.3080436,27.1823805 24.1490113,27.3383139 C24.1102839,27.3762317 23.8570103,27.2094227 23.7110834,27.1219765 C23.5012491,26.9961716 23.3151225,26.8067295 23.0899739,26.7357438 C22.8023905,26.6452113 22.7458457,26.5082368 22.8508365,26.2582437 C22.9011967,26.1381705 22.9652514,26.0236822 23.0136973,25.9028742 C23.2522458,25.3079464 23.4273286,25.2291714 24.0011701,25.5292807 C24.3716565,25.722838 24.7112199,25.9681282 24.7670284,26.5470364" id="Fill-7" fill="#767474"></path>
                            <path d="M23.0580202,11.9843855 C24.1323718,11.5872771 24.9019114,11.7752496 25.0323768,12.47864 C24.9038257,12.4338147 24.7951536,12.3960438 24.6582091,12.3484261 C24.666897,12.3992771 24.6714618,12.4313162 24.6777936,12.4629144 C24.7190242,12.6701397 24.8620061,12.9609901 24.7768943,13.0640149 C24.6649827,13.1993727 24.373718,13.22568 24.1593189,13.2264149 C23.9642098,13.2270027 23.7665975,13.1370581 23.5744334,13.0737148 C23.4994821,13.0490241 23.3978781,13.0021412 23.3747596,12.9405615 C23.2594611,12.6339855 23.1663978,12.3190324 23.0580202,11.9843855" id="Fill-8" fill="#767474"></path>
                            <path d="M7.47653634,28.265978 C7.55325469,28.4762897 7.6298258,28.6867483 7.70654416,28.89706 C7.51025707,28.8980888 7.31396999,28.8989706 7.1176829,28.8999994 C7.14728058,28.7010043 7.176731,28.5020092 7.20632868,28.303014 C7.29644698,28.2906687 7.38641803,28.2783234 7.47653634,28.265978" id="Fill-9" fill="#FFFFFF"></path>
                            <path d="M12.8861378,9.23460805 C13.0693194,9.62216354 13.2411626,9.97165423 13.4003422,10.3268767 C13.5740997,10.7147261 13.4056433,10.970304 13.0513546,11.1277071 C12.6692354,11.2974555 12.2832875,11.4597086 11.8935112,11.6112329 C11.3798957,11.8109629 11.118376,11.6822186 10.9266537,11.151222 C10.8727594,11.0016083 10.8235772,10.8502309 10.7763093,10.6984126 C10.7294831,10.547917 10.687958,10.3959518 10.6355362,10.2153277 C10.4932907,10.2533925 10.3716604,10.278965 10.2548895,10.3184995 C9.81769792,10.4666436 9.45383791,10.3683217 9.22368283,10.0345567 C8.97909705,9.67992209 8.94184226,9.03311447 9.19997524,8.77665473 C9.42291496,8.55532043 9.52437168,8.35588441 9.48505536,8.02197236 C9.46090601,7.81709851 9.59328567,7.50596655 9.75938607,7.38486465 C10.1145582,7.12620039 10.5205323,6.90369034 10.9393174,6.7795021 C11.1515077,6.71659965 11.5121281,6.82609106 11.6707187,6.988785 C11.8954254,7.2189374 12.1174816,7.2774308 12.3978497,7.25876582 C13.0411942,7.21599804 13.4093246,7.47069415 13.6228401,8.11456241 C13.7562506,8.51666776 13.609882,8.75666704 13.0183702,9.11409402 C12.9708077,9.14289981 12.9342892,9.18992968 12.8861378,9.23460805 L12.8861378,9.23460805 Z M12.2177603,10.6140528 C12.2475053,10.645504 12.2877051,10.6719583 12.3052281,10.7089943 C12.4951834,11.1086012 12.8359248,11.03982 13.1176181,10.9044622 C13.423608,10.7574939 13.2575076,10.4734041 13.1635608,10.2598591 C13.0604843,10.0254446 12.9328167,9.79573314 12.779969,9.59041838 C12.4452649,9.14128316 12.3411576,9.12893782 11.7776237,9.40435647 C11.8076632,9.56102471 11.8394696,9.72709893 11.8712761,9.89317314 C11.8103137,9.83938273 11.7547997,9.77706816 11.6872109,9.7337125 C11.5626356,9.6539087 11.3657595,9.49209657 11.3139268,9.52825077 C11.1166089,9.6659601 10.8062014,9.89023377 10.8268167,10.0436687 C10.8846868,10.4764904 11.0581498,10.9028456 11.2469271,11.3033343 C11.3022939,11.420615 11.5697037,11.5104126 11.7238767,11.490278 C11.9023463,11.46691 12.1323541,11.3458081 12.2124593,11.1982519 C12.294626,11.0468745 12.2224724,10.8121661 12.2177603,10.6140528 L12.2177603,10.6140528 Z M9.25180799,9.38642634 C9.39434805,9.62333928 9.48652788,9.94519993 9.69621491,10.0689473 C9.84979888,10.1596267 10.1632987,10.0067797 10.39419,9.92918038 C10.5105192,9.8900868 10.6236088,9.79396952 10.7009162,9.69461892 C11.0696355,9.22094 11.5950311,9.08293673 12.1469321,8.99637239 C12.332617,8.96727266 12.5231613,8.96330451 12.7067847,8.92538668 C13.1950727,8.82441944 13.4932583,8.31840748 13.2812152,7.9665653 C12.9821461,7.47010628 12.0653544,7.3335727 11.6713077,7.77447769 C11.2363249,8.2612368 10.726538,8.49903156 10.0820155,8.53533274 C9.63039321,8.56090523 9.3529702,8.89437637 9.25180799,9.38642634 L9.25180799,9.38642634 Z" id="Fill-10" fill="#FFFFFF"></path>
                            <path d="M12.7534636,6.64605485 C11.5069743,6.83123495 9.92283593,5.3952074 9.83934398,3.75562871 C9.75290698,2.05476422 11.1984811,0.727199297 12.9538737,0.682814861 C14.4001841,0.646366716 15.8400154,1.71232801 15.9525161,3.5603078 C16.0469047,5.11097065 14.7340047,6.63973522 12.7534636,6.64605485 L12.7534636,6.64605485 Z M15.7130841,3.7435773 C15.498096,1.89353996 14.719574,0.955147177 12.8298874,0.960878942 C11.4128802,0.965287992 10.0443189,2.18277364 10.0935012,3.63658436 C10.1491625,5.28733264 11.1713867,6.4207524 12.9650649,6.39929503 C14.5347726,6.38063005 15.7101391,5.27557518 15.7130841,3.7435773 L15.7130841,3.7435773 Z" id="Fill-11" fill="#FFFFFF"></path>
                            <path d="M6.06703897,9.85099323 C4.4154591,9.59673802 3.51781013,8.45743952 3.54048696,6.85548472 C3.56610883,5.04116069 5.33652116,3.83895975 6.80550839,4.03619125 C8.34650191,4.24282872 9.65100851,5.48412324 9.42203145,7.44144746 C9.23384323,9.05030977 7.95289697,9.81792535 6.06703897,9.85099323 L6.06703897,9.85099323 Z M3.79052107,7.42307641 C3.65784691,8.61969256 5.21150411,9.74635178 6.58845875,9.64861784 C8.0278483,9.54632788 9.37505802,8.33075282 9.2250081,7.04757233 C9.01811886,5.27836757 8.21235522,4.16184917 6.19235053,4.28956465 C5.30029714,4.34585352 4.75399174,4.96076901 4.1869238,5.55246351 C3.73456526,6.02452579 3.84883292,6.59770227 3.79052107,7.42307641 L3.79052107,7.42307641 Z" id="Fill-12" fill="#FFFFFF"></path>
                            <path d="M15.7643278,17.439262 C15.8703494,17.1512041 15.9028921,16.8227299 16.3281562,16.7826075 C16.4555293,16.7707031 16.5664102,16.4509 16.6588845,16.2595473 C16.707036,16.1599027 16.6979063,16.0329221 16.7152821,15.9184338 C16.845453,15.0604327 16.845453,15.0604327 17.730291,15.0990853 C18.4705274,15.1314184 19.0031384,15.5139769 19.1698278,16.1418256 C19.2567066,16.4686832 19.2328517,16.7455715 18.9275981,16.9902738 C18.6049686,17.249085 18.2656997,17.3669536 17.9395363,17.1228392 C17.5474039,16.8296374 17.1334781,16.7743773 16.7143986,16.9141442 C16.3768967,17.026575 16.0795946,17.2596667 15.7643278,17.439262 L15.7643278,17.439262 Z M18.9792836,16.6080092 C19.0364174,15.7241416 18.6593047,15.3737691 17.6666781,15.3361452 C16.8146773,15.3039592 16.8838858,15.3777373 16.9095076,15.9930937 C16.9151032,16.1283045 16.7939147,16.2691002 16.8008356,16.4037232 C16.8058421,16.5026329 16.9389581,16.6853145 16.9907908,16.6772313 C17.4331362,16.6078622 17.8101017,16.701775 18.1663046,16.9805739 C18.2598097,17.0537641 18.4989471,17.0520005 18.5948082,16.9813087 C18.6899331,16.9112048 18.7012715,16.7129446 18.7248319,16.566858 C18.7369065,16.4924921 18.6953814,16.409308 18.6560651,16.2291248 C18.7915371,16.3878506 18.8582423,16.4660378 18.9792836,16.6080092 L18.9792836,16.6080092 Z" id="Fill-13" fill="#FFFFFF"></path>
                            <path d="M9.25180799,9.38642634 C9.3529702,8.89437637 9.63039321,8.56090523 10.0820155,8.53533274 C10.726538,8.49903156 11.2363249,8.2612368 11.6713077,7.77447769 C12.0653544,7.3335727 12.9821461,7.47010628 13.2812152,7.9665653 C13.4932583,8.31840748 13.1950727,8.82441944 12.7067847,8.92538668 C12.5231613,8.96330451 12.332617,8.96727266 12.1469321,8.99637239 C11.5950311,9.08293673 11.0696355,9.22094 10.7009162,9.69461892 C10.6236088,9.79396952 10.5105192,9.8900868 10.39419,9.92918038 C10.1632987,10.0067797 9.84979888,10.1596267 9.69621491,10.0689473 C9.48652788,9.94519993 9.39434805,9.62333928 9.25180799,9.38642634" id="Fill-14" fill="#767474"></path>
                            <path d="M12.2177603,10.6140528 C12.2224724,10.8121661 12.294626,11.0468745 12.2124593,11.1982519 C12.1323541,11.3458081 11.9023463,11.46691 11.7238767,11.490278 C11.5697037,11.5104126 11.3022939,11.420615 11.2469271,11.3033343 C11.0581498,10.9028456 10.8846868,10.4764904 10.8268167,10.0436687 C10.8062014,9.89023377 11.1166089,9.6659601 11.3139268,9.52825077 C11.3657595,9.49209657 11.5626356,9.6539087 11.6872109,9.7337125 C11.7547997,9.77706816 11.8103137,9.83938273 11.8712761,9.89317314 C11.9867218,10.1334664 12.1023147,10.3737596 12.2177603,10.6140528" id="Fill-15" fill="#767474"></path>
                            <path d="M12.2177603,10.6140528 C12.1023147,10.3737596 11.9867218,10.1334664 11.8712761,9.89317314 C11.8394696,9.72709893 11.8076632,9.56102471 11.7776237,9.40435647 C12.3411576,9.12893782 12.4452649,9.14128316 12.779969,9.59041838 C12.9328167,9.79573314 13.0604843,10.0254446 13.1635608,10.2598591 C13.2575076,10.4734041 13.423608,10.7574939 13.1176181,10.9044622 C12.8359248,11.03982 12.4951834,11.1086012 12.3052281,10.7089943 C12.2877051,10.6719583 12.2475053,10.645504 12.2177603,10.6140528" id="Fill-16" fill="#767474"></path>
                            <path d="M15.7130841,3.7435773 C15.7101391,5.27557518 14.5347726,6.38063005 12.9650649,6.39929503 C11.1713867,6.4207524 10.1491625,5.28733264 10.0935012,3.63658436 C10.0443189,2.18277364 11.4128802,0.965287992 12.8298874,0.960878942 C14.719574,0.955147177 15.498096,1.89353996 15.7130841,3.7435773 L15.7130841,3.7435773 Z M13.6743784,3.21801855 C13.6709916,3.78575721 14.0068737,4.11349659 14.6154667,4.10203306 C15.0516275,4.09365587 15.4521533,3.84410364 15.4680566,3.1634933 C15.4792477,2.67982053 15.1214251,2.33973581 14.6041283,2.33797219 C14.0846228,2.33635554 13.6773234,2.72185347 13.6743784,3.21801855 L13.6743784,3.21801855 Z" id="Fill-17" fill="#767474"></path>
                            <path d="M3.79052107,7.42307641 C3.84883292,6.59770227 3.73456526,6.02452579 4.1869238,5.55246351 C4.75399174,4.96076901 5.30029714,4.34585352 6.19235053,4.28956465 C8.21235522,4.16184917 9.01811886,5.27836757 9.2250081,7.04757233 C9.37505802,8.33075282 8.0278483,9.54632788 6.58845875,9.64861784 C5.21150411,9.74635178 3.65784691,8.61969256 3.79052107,7.42307641 L3.79052107,7.42307641 Z M8.85393274,6.31816851 C8.85731954,5.79466732 8.5221737,5.47662785 7.96924196,5.47868541 C7.49862415,5.48044903 7.07630505,5.8875513 7.06761718,6.34770914 C7.05701502,6.91588871 7.39436965,7.24304021 7.99456932,7.24642048 C8.50759573,7.24935985 8.85039869,6.87914663 8.85393274,6.31816851 L8.85393274,6.31816851 Z" id="Fill-18" fill="#767474"></path>
                            <path d="M18.9792836,16.6080092 C18.8582423,16.4660378 18.7915371,16.3878506 18.6560651,16.2291248 C18.6953814,16.409308 18.7369065,16.4924921 18.7248319,16.566858 C18.7012715,16.7129446 18.6899331,16.9112048 18.5948082,16.9813087 C18.4989471,17.0520005 18.2598097,17.0537641 18.1663046,16.9805739 C17.8101017,16.701775 17.4331362,16.6078622 16.9907908,16.6772313 C16.9389581,16.6853145 16.8058421,16.5026329 16.8008356,16.4037232 C16.7939147,16.2691002 16.9151032,16.1283045 16.9095076,15.9930937 C16.8838858,15.3777373 16.8146773,15.3039592 17.6666781,15.3361452 C18.6593047,15.3737691 19.0364174,15.7241416 18.9792836,16.6080092" id="Fill-19" fill="#767474"></path>
                            <path d="M13.6743784,3.21801855 C13.6773234,2.72185347 14.0846228,2.33635554 14.6041283,2.33797219 C15.1214251,2.33973581 15.4792477,2.67982053 15.4680566,3.1634933 C15.4521533,3.84410364 15.0516275,4.09365587 14.6154667,4.10203306 C14.0068737,4.11349659 13.6709916,3.78575721 13.6743784,3.21801855" id="Fill-20" fill="#FFFFFF"></path>
                            <path d="M8.85393274,6.31816851 C8.85039869,6.87914663 8.50759573,7.24935985 7.99456932,7.24642048 C7.39436965,7.24304021 7.05701502,6.91588871 7.06761718,6.34770914 C7.07630505,5.8875513 7.49862415,5.48044903 7.96924196,5.47868541 C8.5221737,5.47662785 8.85731954,5.79466732 8.85393274,6.31816851" id="Fill-21" fill="#FFFFFF"></path>
                        </g>
                        <g id="Imported-Layers" transform="translate(35.789978, 178.755596)" fill="#767474" fill-opacity="0.22">
                            <path d="M0.279319538,11.8252112 C0.255247423,9.58833376 0.249229395,7.35104208 0.196934801,5.1149931 C0.179088233,4.35196935 0.738972419,4.42446075 1.17289304,4.36025408 C4.51787939,3.86524139 7.8690913,3.41123811 11.21221,2.9035912 C12.8825242,2.65007842 14.541425,2.31868917 16.170028,1.8568154 C17.3589,1.51983396 18.5361509,1.15634137 19.6173209,0.200697616 C19.6173209,2.54569081 19.6106803,4.73389546 19.6210562,6.921893 C19.624584,7.63479412 19.0142729,7.86531677 18.6245537,8.2723042 C14.8969037,9.80083712 10.9227221,10.1887697 6.99398692,10.8024611 C4.7569404,11.1520768 2.49042628,11.3090725 0.279319538,11.8252112" id="Fill-2"></path>
                            <path d="M0.307749536,21.5425797 C0.0825922557,19.2481233 0.266038371,16.9478677 0.206895676,14.6511331 C0.193614509,14.1376868 0.592879584,14.144936 0.914532841,14.0972988 C2.82121034,13.8149966 4.73037806,13.5505065 6.63788564,13.274625 C6.9425224,13.2305088 7.24321631,13.1592601 7.54577789,13.1004385 C10.2655118,12.8448545 12.942082,12.3365863 15.5904296,11.6854064 C17.0308137,11.3312341 18.4875916,10.9754049 19.57893,9.84909568 C19.5926262,12.0778955 19.5938713,14.3069025 19.6272818,16.5352881 C19.6386953,17.2943766 19.0217436,17.5512032 18.6015191,17.9737245 C13.8447863,19.7373367 8.83280596,20.2242718 3.86087668,20.9185323 C2.67075963,21.0848483 1.4513825,21.105353 0.307749536,21.5425797" id="Fill-3"></path>
                            <path d="M19.5747796,19.5411957 C19.5895134,21.7824226 19.612548,24.0238567 19.6146231,26.2650836 C19.6154532,27.1142686 18.9352085,27.4278457 18.3130688,27.7118048 C16.2825029,28.6392805 14.1019013,29.0477177 11.9200547,29.3960907 C8.23577601,29.9847209 4.53863122,30.4936105 0.850617226,31.0604932 C0.372702742,31.1340202 0.185521298,31.1029525 0.194444582,30.5464256 C0.226194871,28.5448346 0.225572316,26.5422079 0.1946521,24.5406168 C0.186143853,23.9861612 0.430600328,23.8357933 0.912457659,23.7701368 C2.65810101,23.5317437 4.40021656,23.2670465 6.14336969,23.0106341 C6.33905938,22.9818446 6.57002718,23.0296889 6.67689906,22.7869463 C6.79933482,22.8430754 6.93297656,22.9646538 7.04233867,22.9460131 C9.8394769,22.4657059 12.6679504,22.143844 15.4192271,21.4278361 C16.9031899,21.0413534 18.4448429,20.7277763 19.5747796,19.5411957" id="Fill-4"></path>
                            <path d="M19.5747796,19.5411957 C18.4448429,20.7277763 16.9031899,21.0413534 15.4192271,21.4278361 C12.6679504,22.143844 9.8394769,22.4657059 7.04233867,22.9460131 C6.93297656,22.9646538 6.79933482,22.8430754 6.67689906,22.7869463 C5.2089151,22.176983 3.60479918,22.3271437 2.08929354,21.9709003 C1.4945463,21.8313026 0.866388612,21.8339951 0.307749536,21.5423725 C1.4513825,21.105353 2.67075963,21.0848483 3.86087668,20.9185323 C8.83280596,20.2242718 13.8447863,19.7373367 18.6015191,17.9737245 C19.1655537,18.3477802 19.812803,18.6706776 19.5747796,19.5411957" id="Fill-5" stroke="#FFFFFF" stroke-width="0.894714362"></path>
                            <path d="M19.57893,9.84909568 C18.4875916,10.9754049 17.0308137,11.3312341 15.5904296,11.6854064 C12.942082,12.3365863 10.2655118,12.8448545 7.54577789,13.1004385 C5.53907661,12.79846 3.53113021,12.5051805 1.52691914,12.1874611 C1.10150677,12.1199405 0.639986223,12.1327819 0.279319538,11.8252112 C2.49042628,11.3090725 4.7569404,11.1520768 6.99398692,10.8024611 C10.9227221,10.1887697 14.8969037,9.80083712 18.6245537,8.2723042 C19.1244651,8.68819771 19.8289895,8.98085584 19.57893,9.84909568" id="Fill-6" stroke="#FFFFFF" stroke-width="0.894714362"></path>
                        </g>
                        <g id="Imported-Layers" transform="translate(3.109985, 265.431639)" fill-opacity="0.22" fill="#767474">
                            <path d="M15.8463798,0.0333564666 C16.592169,0.782429996 16.8589256,1.67680978 16.7307359,2.66882195 C16.452839,4.81749627 15.1546134,6.35737699 13.6264094,7.7476867 C12.8948126,8.41314059 12.10843,9.02193419 11.4073546,9.71708905 C9.54097405,11.5682968 9.38470474,13.2510468 10.8227181,15.4341437 C11.3626408,16.2535857 11.9068365,17.070286 12.4588151,17.9031315 C12.3155174,17.9634473 12.2482178,18.0091411 12.2329571,17.9957376 C10.931832,16.8584192 9.65695518,15.6880489 8.73612605,14.2095502 C7.65261812,12.4698353 7.82216422,11.1034386 9.21805816,9.58762331 C10.3426173,8.36638062 11.7093634,7.42950561 12.975389,6.374436 C13.6206103,5.83677241 14.2359207,5.26651391 14.7491372,4.60182158 C15.6888896,3.38499596 16.1451838,2.02819502 15.8706442,0.476586229 C15.8450063,0.331889227 15.8535523,0.181252033 15.8463798,0.0333564666" id="Fill-1"></path>
                            <path d="M22.8757519,28.446212 C23.5295192,28.9948421 23.3898841,29.3681603 22.9697577,29.7062944 C22.4035866,30.1620138 21.7234183,30.388198 21.0394349,30.5866614 C18.6581592,31.2777038 16.2114151,31.5891831 13.7457478,31.6852924 C9.88006625,31.8360819 6.02155717,31.7194104 2.19295901,31.0883792 C1.61564767,30.9933361 1.03177424,30.9164182 0.504975738,30.6437786 C0.0244170801,30.3950521 -0.156116706,29.9987346 0.306892175,29.625721 C1.69958138,28.5039384 3.30912478,28.060861 5.06105028,28.1546856 C5.08012612,28.22018 5.09920197,28.2858268 5.11843042,28.3513212 C4.59422623,28.4870317 4.06849597,28.6164975 3.5468861,28.7610422 C3.32713238,28.8218149 3.10920994,28.899342 2.90303822,28.9959083 C2.67748544,29.1016132 2.38081792,29.1937624 2.37959706,29.4881827 C2.3782236,29.8078869 2.70205513,29.8493159 2.93188089,29.9259292 C4.12236615,30.3228559 5.36351686,30.4725792 6.6032941,30.56747 C11.0775714,30.9103257 15.5416241,30.8122364 19.9824805,30.1257634 C20.6081682,30.0290448 21.2289725,29.8759706 21.837263,29.6986787 C22.3866473,29.5385982 22.8978799,29.2913948 22.8757519,28.446212" id="Fill-2"></path>
                            <path d="M13.8180834,19.2559723 C13.7388805,19.0564428 13.8733271,18.9885113 13.9418475,18.8960576 C14.8118586,17.720661 14.7883572,16.8993913 13.8585242,15.7416629 C13.6523525,15.4848638 13.455032,15.2193829 13.2744982,14.9443063 C12.0969845,13.1506727 12.197705,11.4235998 13.6886729,9.89285782 C15.3095092,8.22853768 17.4107516,7.41214197 19.608594,6.80197756 C19.2546989,7.26363715 18.728053,7.48647054 18.2647389,7.78850649 C17.2637913,8.44131843 16.2732209,9.10418301 15.4401406,9.97053727 C14.3419824,11.1125774 14.2328686,12.0221884 15.0453469,13.3908698 C15.2907386,13.8042462 15.5945786,14.1827431 15.8508054,14.5903317 C16.5662258,15.728564 16.5294476,16.5932429 15.7210896,17.6784704 C15.2173347,18.3545861 14.5624992,18.8491453 13.8180834,19.2559723" id="Fill-3"></path>
                            <path d="M19.2777426,19.5656239 C18.2183465,20.4627453 16.9295825,20.63166 15.6525692,20.8057534 C11.9658953,21.3082327 8.27281195,21.4186594 4.5777447,20.8922669 C4.15349793,20.8317988 3.73703411,20.7023331 3.32484328,20.5785029 C3.08067247,20.5050882 2.83009219,20.379278 2.7917879,20.0926256 C2.74631108,19.7534254 3.01856153,19.5986757 3.26608968,19.4759118 C4.54981766,18.8384834 5.90237129,18.4211468 7.33016005,18.2631986 C7.6523129,18.2277097 7.9776705,18.2213126 8.47211637,18.1910024 C7.87237184,18.6496157 7.26240266,18.6196101 6.76627811,18.8657473 C6.2686275,19.1127984 5.36687421,19.1464595 5.43722592,19.741545 C5.4956743,20.236561 6.39803802,20.1604047 6.9242261,20.1884302 C9.1803643,20.3086049 11.439402,20.2988569 13.6969137,20.15614 C15.5652781,20.0379454 17.4162454,19.7672858 19.2777426,19.5656239" id="Fill-4"></path>
                            <path d="M17.659348,27.285742 C17.0914982,27.7609574 16.480003,27.8549343 15.9046755,28.0029822 C13.3538537,28.6589927 10.7926546,28.7470294 8.22626689,28.0739599 C7.75486464,27.9504343 7.30894771,27.7676592 6.91018627,27.4915164 C6.58620214,27.2671599 6.28694031,26.9858384 6.51249308,26.5455026 C6.73713022,26.1069945 7.16900732,25.9307688 7.62682758,25.8293286 C7.67642477,25.8182098 7.79133765,25.8840088 7.79728932,25.9254379 C7.91418609,26.7424428 8.59465959,26.577336 9.10284007,26.6469428 C11.0511705,26.9142515 13.011862,26.9602499 14.9328758,26.5197618 C16.0221827,26.2699691 16.7456914,26.8483001 17.659348,27.285742" id="Fill-5"></path>
                            <path d="M7.01090673,22.1614881 C6.85677391,22.9830624 6.99930862,23.1697977 7.83620404,23.265907 C10.4964449,23.5717508 13.1608062,23.5878959 15.7857949,23.0479476 C16.7455387,22.8505504 17.4453933,23.0692714 18.1217464,23.6687739 C18.1353284,23.8827732 17.9586098,23.8990706 17.8215689,23.9350164 C14.4732242,24.8134033 11.0900852,25.1392001 7.65368636,24.5473132 C7.05302619,24.4438929 6.45679162,24.2950835 5.93594478,23.9618234 C5.25669213,23.5271232 5.25226654,23.077344 5.91076466,22.6143136 C6.22162462,22.3957449 6.54820306,22.2004801 7.01090673,22.1614881" id="Fill-6"></path>
                            <path d="M4.67587084,32.3416075 C11.6068116,32.9030319 18.329139,33.1960814 24.7670074,30.4611558 C24.6223362,31.1850977 23.9581916,31.5250595 23.3152594,31.8412605 C22.2109969,32.3845597 21.0148652,32.6515638 19.8060671,32.8367759 C15.331332,33.5224874 10.8497295,33.5873726 6.36644842,32.9203956 C5.91671633,32.8535303 5.47827713,32.7054824 5.03800666,32.5833277 C4.95132602,32.5592623 4.88005867,32.480669 4.67587084,32.3416075" id="Fill-7"></path>
                            <path d="M20.3600296,18.4738469 C21.3121432,17.6678085 22.9067311,17.6956817 23.8976067,18.4532847 C24.8427003,19.1760082 25.1161716,20.2699175 24.6295087,21.3712902 C24.3429132,22.0195327 23.8557925,22.4936819 23.2974044,22.9058399 C22.2259524,23.6967994 21.0275316,24.1883123 19.5962328,24.5285787 C19.8649733,24.0949447 20.1886523,23.9922859 20.4578506,23.8279406 C21.4178996,23.2413847 22.3474273,22.6138566 22.9448828,21.6302216 C23.7782682,20.2583417 23.2526906,18.7952266 21.8424516,18.480701 C21.3899726,18.3797177 20.9368832,18.4886213 20.3600296,18.4738469" id="Fill-8"></path>
                        </g>
                    </g>
                </g>
            </g>
        </g>
    </g>
</svg>