<?xml version="1.0" encoding="UTF-8"?>
<svg width="747px" height="313px" viewBox="0 0 747 313" version="1.1" xmlns="http://www.w3.org/2000/svg" xmlns:xlink="http://www.w3.org/1999/xlink">
    <!-- Generator: Sketch 64 (93537) - https://sketch.com -->
    <title>circle3</title>
    <desc>Created with Sketch.</desc>
    <g id="circle3" stroke="none" stroke-width="1" fill="none" fill-rule="evenodd">
        <g transform="translate(1.000000, 25.000000)">
            <g id="Group" fill-rule="nonzero">
                <g id="Fill-1-_x2B_-Imported-Layers-_x2B_-Imported-Layers">
                    <path d="M44.7,10.7 C45.5,10.7 46.3,10.7 47,10.7 C47.2,10.7 47.3,10.8 47.4,10.9 C47.6,11.5 47.9,12.2 48.2,12.8 C48.2,13 48.2,13 48,13 C47.2,13 46.5,13 45.7,13 C44.9,13 44.3,13.3 43.8,13.9 L43.8,13.9 C43.3,14.6 43.3,14.6 43.6,15.4 C44.6,17.9 45.6,20.4 46.6,22.9 C46.7,23.1 46.7,23.1 46.4,23.1 C45.6,23.1 44.8,23.1 44.1,23.1 C43.9,23.1 43.9,23.1 43.8,22.9 C43.2,21.4 42.6,19.9 42,18.3 C42,18.2 41.9,18.2 41.9,18.1 C41.8,18.1 41.8,18.2 41.8,18.3 C40.8,20.8 39.8,23.4 38.8,25.9 C38.7,26 38.7,26.1 38.5,26.1 C38.2,26.1 37.8,26.1 37.5,26.1 C36.9,26.1 36.6,25.8 36.6,25.2 C36.6,24.7 36.7,24.2 36.9,23.7 C37.8,21.3 38.7,18.9 39.7,16.6 C40.3,15.2 41,13.8 41.7,12.5 C42.1,11.7 42.9,11.1 43.8,10.8 C43.9,10.8 44,10.7 44.2,10.7 C43.9,10.6 43.7,10.5 43.6,10.3 C43.5,10.2 43.5,10.2 43.4,10.3 C42.6,10.5 41.9,11 41.4,11.6 C40.6,12.5 40.1,13.5 39.7,14.6 C38.9,16.5 38.2,18.4 37.4,20.3 C36.9,21.5 36.4,22.6 36.1,23.8 C35.9,24.4 35.8,25 35.8,25.6 C35.8,26.4 36.3,26.8 37.2,26.8 C39.6,26.8 42,26.8 44.4,26.8 C44.6,26.8 44.7,26.9 44.7,27 C44.9,27.7 45.2,28.3 45.5,29 C45.6,29.2 45.5,29.2 45.3,29.2 C42.6,29.2 39.8,29.2 37.1,29.2 C36.1,29.2 35.2,29 34.4,28.4 C33.7,27.9 33.4,27.2 33.2,26.5 C33,25.5 33.2,24.5 33.4,23.5 C33.8,22 34.4,20.6 35,19.1 C35.7,17.4 36.3,15.7 37.1,14.1 C37.7,12.9 38.3,11.6 39.1,10.5 C39.2,10.4 39.3,10.3 39.4,10.2 C39.6,10 39.7,9.8 39.8,9.6 C39.8,9.3 40,9.3 40.3,9.3 L40.4,9.3 C40.5,9.2 40.7,9.1 40.8,8.9 C40.9,8.7 40.6,8.6 40.6,8.5 C40.6,8.4 40.5,8.3 40.5,8.2 C40.3,7.8 40.4,7.5 40.8,7.2 C40.8,7.1 40.9,7 41,7 C41.1,6.9 41.1,6.8 40.9,6.8 C40.4,6.6 40,6.3 39.9,5.8 C39.9,5.7 39.8,5.7 39.7,5.6 C39.3,5.3 39.1,4.9 39.3,4.5 L39.3,4.4 C39.5,4.2 39.4,4 39.3,3.8 C39.3,3.8 39.3,3.7 39.2,3.7 C39,3.3 39,3.2 39.4,2.9 C39.7,2.7 39.9,2.5 40,2.3 C40.1,2.1 40,1.9 39.9,1.8 C39.8,1.7 39.8,1.6 39.9,1.5 C40,1.3 40.2,1.2 40.4,1.1 C40.7,1 40.9,0.8 41.2,0.6 C42.3,-3.46944695e-16 43.4,-0.1 44.5,0.5 C45.1,0.8 45.6,1 46,1.3 C46.3,1.5 46.4,1.8 46.2,2.1 C46.1,2.3 46.1,2.4 46.3,2.6 C46.5,2.8 46.7,2.9 46.9,3.1 C47.2,3.4 47.2,3.6 46.9,3.9 C46.7,4 46.7,4.2 46.8,4.4 C47.1,4.9 47,5.3 46.7,5.7 C46.5,6 46.3,6.2 46,6.4 C46,6.4 45.9,6.4 45.9,6.5 C45.5,6.8 45.5,6.8 45.9,7.1 C46.1,7.3 46.3,7.5 46.3,7.8 C46.3,8.3 46.5,8.7 46.7,9.1 C46.8,9.2 46.8,9.2 47,9.2 C47.2,9.1 47.4,8.7 47.3,8.5 C47.1,8.2 47,8 46.9,7.8 C46.9,7.7 46.9,7.6 47,7.6 L47.1,7.6 C47.4,7.6 47.7,7.6 47.9,7.4 C48.1,7.2 48.4,7.1 48.7,7.2 C49,7.2 49.2,7.3 49.3,7.6 C49.3,7.7 49.4,7.7 49.5,7.7 C49.8,7.7 50,7.7 50.3,7.7 C52,7.7 53.6,7.7 55.3,7.7 C56.3,7.7 57.2,7.9 58,8.5 C58.7,9 59,9.7 59.2,10.4 C59.4,11.5 59.2,12.5 58.9,13.6 C58.5,15 58,16.3 57.4,17.7 C56.7,19.4 56.1,21.1 55.3,22.8 C54.7,24 54.1,25.3 53.3,26.4 C52.6,27.3 51.7,28.2 50.5,28.7 C49.8,29 49.1,29.2 48.4,29.2 C47.7,29.3 47.1,29.3 46.4,29.3 C46.3,29.3 46.2,29.3 46.1,29.1 C45.8,28.4 45.6,27.7 45.3,27.1 C45.2,26.9 45.3,26.9 45.4,26.9 C46.2,26.9 47,26.9 47.7,26.8 C48.7,26.7 49.6,26.4 50.3,25.8 C50.9,25.3 51.3,24.8 51.6,24.2 C52.3,23 52.9,21.7 53.4,20.3 C54.3,18.1 55.2,15.9 56,13.7 C56.3,12.9 56.5,12.1 56.5,11.2 C56.5,10.5 56.1,10.1 55.3,10.1 C55.2,10.1 55.1,10.1 55,10.1 C52.7,10.1 50.3,10.1 48,10.1 C47.9,10.1 47.8,10.1 47.7,10 L47.6,10 C47.1,10.3 46.5,10.3 45.9,10.1 C45.6,10 45.4,10 45.1,10.1 C45,10.1 45,10.1 45,10.2 C45,10.3 44.9,10.5 44.7,10.7 L44.7,10.7 Z M44.5,8.3 C44.7,8.3 44.8,8.4 44.9,8.5 C45,8.7 45,8.8 45.1,9 C45.2,9.2 45.2,9.4 45.4,9.6 C46.1,10.4 47.7,10.2 48.1,9.2 C48.2,8.9 48.3,8.5 48.4,8.2 C48.4,8 48.6,7.9 48.7,7.8 C48.8,7.8 48.9,7.7 49,7.7 C49.2,7.6 49.1,7.6 49,7.5 C48.8,7.3 48.5,7.3 48.2,7.4 C47.7,7.6 47.5,7.9 47.3,8.3 C47.2,8.4 47.2,8.6 47.1,8.7 C47.1,9 47,9.2 46.7,9.2 C46.5,9.2 46.3,8.9 46.2,8.7 C46.1,8.5 46.1,8.2 46.1,8 C46.1,7.6 46,7.2 45.5,6.9 C45.3,6.8 45.3,6.7 45.4,6.5 C45.5,6.4 45.6,6.2 45.8,6.1 C45.9,6.1 46,6 45.9,5.9 C45.8,5.8 45.9,5.7 45.9,5.6 C46,5.3 46,5.2 46.1,5 C46.4,4.1 46.2,3.3 45.7,2.6 C45.3,1.9 44.7,1.4 44.1,0.8 C43.6,0.4 42.8,0.3 42.2,0.6 C40.7,1.5 40.1,2.7 40.2,4.3 C40.2,4.9 40.5,5.5 40.6,6.2 C40.6,6.4 40.7,6.6 41,6.6 C41.3,6.7 41.3,6.9 41.1,7.1 C41,7.2 40.8,7.3 40.7,7.4 C40.5,7.6 40.4,7.8 40.5,8 C40.6,8.4 40.9,8.7 41.1,9 C41.2,9.2 41.4,9.5 41.4,9.7 C41.4,10 41.2,10.2 40.7,10.2 C40.3,10.2 40.1,10 40.1,9.7 C40.1,9.6 40.1,9.5 40.1,9.4 C40.1,9.3 40.2,9.3 40.1,9.2 C40,9.2 40,9.3 39.9,9.3 L39.9,9.4 C39.7,10 39.8,10.3 40.4,10.6 C40.5,10.6 40.6,10.7 40.7,10.7 C41.4,10.9 42,10.8 42.3,10.3 C42.8,9.7 42.8,9 42.4,8.3 C42.4,8.2 42.3,8.2 42.3,8.1 C42.3,8 42.3,7.9 42.4,7.9 C42.5,7.8 42.6,7.9 42.6,7.9 C42.7,8 42.8,8.1 42.8,8.2 C43,8.6 43.1,8.9 43.3,9.3 C43.4,9.6 43.5,9.9 43.7,10.1 C43.9,10.3 44.1,10.4 44.4,10.4 C44.7,10.4 44.9,10.2 44.9,9.9 C45,9.6 44.9,9.3 44.9,8.9 C44.8,8.9 44.6,8.6 44.5,8.3 Z M50.5,18.6 C50.6,18.5 50.6,18.5 50.6,18.4 C51.6,15.9 52.6,13.4 53.6,10.8 C53.7,10.7 53.7,10.6 53.9,10.6 C54.3,10.6 54.6,10.6 55,10.6 C55.5,10.7 55.8,11 55.9,11.4 C55.9,11.9 55.8,12.5 55.6,13 C54.7,15.3 53.9,17.6 52.9,19.8 C52.2,21.3 51.5,22.8 50.7,24.3 C50.3,25.1 49.5,25.5 48.6,25.8 C48.1,26 47.5,26 46.9,26 C46.4,26 45.8,26 45.3,26 C45.1,26 45.1,26 45,25.8 C44.7,25.1 44.5,24.4 44.2,23.8 C44.1,23.7 44.2,23.6 44.3,23.6 C45.1,23.6 45.8,23.6 46.6,23.6 C47.5,23.6 48.1,23.3 48.5,22.7 C49,22 49,22 48.7,21.2 C47.7,18.7 46.7,16.2 45.7,13.7 C45.7,13.6 45.7,13.6 45.6,13.5 L46.3,13.5 C46.9,13.5 47.6,13.5 48.2,13.5 C48.4,13.5 48.4,13.5 48.5,13.7 C49.1,15.2 49.7,16.8 50.4,18.3 C50.4,18.5 50.4,18.6 50.5,18.6 Z" id="Fill-1" fill="#767474" opacity="0.12"></path>
                    <g id="Imported-Layers" transform="translate(0.000000, 109.603720)">
                        <polygon id="Fill-1_1_" fill="#AEA6A6" opacity="0.14" points="0.4 0.2 39.1 0.2 39.1 31.2 0.4 31.2"></polygon>
                        <path d="M3.7,3.3 L35.7,3.3 L35.7,28.2 L3.7,28.2 C3.7,28.2 3.7,3.3 3.7,3.3 Z" id="Fill-2" fill="#767474" opacity="0.14"></path>
                        <polyline id="Fill-3" fill="#FFFFFF" opacity="0.4591" points="8.6 6.2 11.8 6.2 14.7 15 17.7 6.2 20.5 6.2 16.3 18.7 13 18.7 8.6 6.5"></polyline>
                        <path d="M27.1,17.2 C27.1,17.2 30.3,16.8 30.3,14.3 C30.3,11.8 27.4,11.2 26.9,11.2 L20.5,11.2 L20.5,23.8 L27.3,23.8 C27.3,23.8 30.3,24 30.3,20.5 C30.3,17 27.1,17.2 27.1,17.2 L27.1,17.2 Z M23.2,13.6 C23.2,13.6 26.5,13.2 26.5,14.9 C26.5,16.7 23.2,16.2 23.2,16.2 L23.2,13.6 L23.2,13.6 Z M23.2,21.7 L23.2,18.7 C23.2,18.7 27,18.7 27,20.5 C27,22.2 23.2,21.7 23.2,21.7 L23.2,21.7 Z" id="Fill-4" fill="#FFFFFF" opacity="0.4591"></path>
                    </g>
                    <g id="Imported-Layers_1_" opacity="0.12" transform="translate(17.474542, 221.325465)" fill="#767474">
                        <path d="M37.3,33 C37.1,33.6 36.7,34 36.3,34.4 C32.3,38.9 27.3,41.3 21.2,41.4 C17.2,41.5 13.5,40.6 10.2,38.5 C4.7,35 1.4,30.1 0.5,23.6 C0.3,22.2 0.3,20.7 0.4,19.3 C0.6,17.2 1.6,15.5 2.9,13.9 C5,11.5 7.7,10.6 10.8,10.8 C10.9,10.8 11.1,10.8 11.2,10.9 C11.4,11 11.7,10.9 11.8,11.1 C11.9,11.3 11.6,11.5 11.5,11.6 C9.5,13.7 8.1,16.1 7.8,19 C7.1,24.7 10,31.4 17,33.4 C20,34.3 22.9,34.2 25.8,33 C26.3,32.8 26.9,32.8 27.5,32.9 C30.6,33.7 33.7,33.7 36.8,33 C36.9,33 37,33 37.1,33 C37.1,32.9 37.2,32.9 37.3,33" id="Fill-1_2_"></path>
                        <path d="M30.2,30 C30.5,29.6 30.7,29.3 31,29 C35,24.2 34.8,17.5 31.1,12.7 C28.4,9.2 24.7,7.6 20.2,7.6 C18.9,7.6 17.6,7.9 16.3,8.4 C15.8,8.6 15.4,8.6 15,8.4 C11.6,6.7 8.2,6.6 4.8,8.4 C4.7,8.4 4.6,8.5 4.4,8.5 C6.2,6.3 8.1,4.5 10.4,3.1 C17.7,-1.2 26.9,-0.6 33.5,4.7 C37.9,8.2 40.4,12.8 41.2,18.4 C41.5,20.7 41.5,23 40.6,25.1 C39.7,27.4 38,28.8 35.8,29.5 C34,30.2 32.2,30.5 30.2,30" id="Fill-2_1_"></path>
                        <path d="M31.6,22.6 C31.6,24.3 30.1,27 27.6,29.2 C27,29.7 26.5,29.4 26.1,29 C25.4,28.5 24.9,27.8 24.5,27.1 C23.1,24.6 22.1,21.8 21.3,19 C20.5,16.1 19.6,13.3 17.8,10.8 C17.4,10.3 17.8,10.2 18.2,10.1 C20.5,9.5 22.7,9.7 24.8,10.6 C29.1,12.5 31.6,16.3 31.6,22.6" id="Fill-3_1_"></path>
                        <path d="M9.9,21.4 C10,17.5 11.3,14.7 13.9,12.4 C14.3,12 14.7,12.1 15.1,12.4 C16.1,13.1 16.8,14 17.4,15.1 C18,16.2 18.4,17.3 18.9,18.5 C19.1,19 19.1,19.4 18.8,19.9 C17.8,21.9 16.8,23.9 15.8,25.9 C15.3,26.9 14.8,27.9 14.5,29 C14.4,29.5 14.2,29.5 13.8,29.2 C11.3,27.1 10.2,24.2 9.9,21.4" id="Fill-4_1_"></path>
                        <path d="M19.9,21.5 C20.4,22.4 20.5,23.3 20.8,24.2 C21.5,26.5 22.2,28.9 23.8,30.8 C24,31.1 24,31.2 23.6,31.3 C21.6,31.8 19.6,31.8 17.6,31.2 C17,31 17,30.4 17,29.9 C17.1,28.4 17.5,27.1 18.1,25.7 C18.7,24.3 19.2,22.9 19.9,21.5" id="Fill-5"></path>
                    </g>
                </g>
            </g>
            <g id="Group_1_" transform="translate(682.000000, 7.000000)" opacity="0.12">
                <g id="Imported-Layers-_x2B_-Imported-Layers-_x2B_-Imported-Layers">
                    <path d="M28.9892,242.7134 L26.9042,242.0004 L24.5802,242.6854 L26.4272,243.2714 L28.9892,242.7134 Z M26.0472,248.4004 L25.6732,244.6524 L22.6852,243.7064 L22.6072,246.8894 L26.0472,248.4004 Z M11.9512,248.3984 L15.3902,246.8884 L15.3142,243.7064 L12.3262,244.6514 L11.9512,248.3984 Z M11.5702,243.2694 L13.4182,242.6854 L11.0942,242.0004 L9.0112,242.7114 L11.5702,243.2694 Z M8.6732,241.1934 L10.6072,240.5334 L11.9942,238.7314 L10.3122,239.3554 L8.6732,241.1934 Z M10.0902,237.7894 L13.0372,236.6954 L11.2722,234.1914 L7.5962,234.9914 L10.0902,237.7894 Z M17.1092,229.9454 L19.0002,232.3634 L20.8922,229.9454 L19.0002,226.7074 L17.1092,229.9454 Z M26.7282,234.1924 L24.9632,236.6964 L27.9112,237.7914 L30.4042,234.9944 L26.7282,234.1924 Z M22.2382,241.7644 L25.6222,240.7674 L23.4772,237.9794 L20.2512,239.0674 L22.2382,241.7644 Z M16.9432,247.1694 L18.2272,249.3664 L18.2272,247.1854 L16.8972,245.2444 L16.9432,247.1694 Z M12.3782,240.7674 L15.7612,241.7644 L17.7492,239.0674 L14.5222,237.9794 L12.3782,240.7674 Z M13.4042,234.5334 L13.3382,232.1414 L12.1002,230.4694 L12.3572,233.0474 L13.4042,234.5334 Z M19.7722,237.5964 L22.9962,236.5104 L23.0932,232.9824 L19.7722,234.1634 L19.7722,237.5964 Z M18.2272,237.5964 L18.2272,234.1634 L14.9072,232.9824 L15.0042,236.5104 L18.2272,237.5964 Z M20.9892,242.6754 L19.0002,239.9754 L17.0102,242.6754 L19.0002,245.5784 L20.9892,242.6754 Z M25.9022,230.4694 L24.6622,232.1414 L24.5952,234.5354 L25.6442,233.0494 L25.9022,230.4694 Z M21.2492,231.9974 L23.4162,231.2274 L24.5952,229.6364 L22.3132,230.6384 L21.2492,231.9974 Z M15.6882,230.6374 L13.4052,229.6344 L14.5852,231.2274 L16.7532,231.9984 L15.6882,230.6374 Z M21.1012,245.2454 L19.7722,247.1854 L19.7722,249.3664 L21.0542,247.1704 L21.1012,245.2454 Z M27.6872,239.3574 L26.0072,238.7324 L27.3922,240.5334 L29.3252,241.1944 L27.6872,239.3574 Z M33.3172,243.3524 L27.2282,244.6784 L27.8472,250.8794 L22.1422,248.3734 L19.0002,253.7534 L15.8552,248.3724 L10.1502,250.8764 L10.7702,244.6764 L4.6822,243.3484 L8.8282,238.6974 L4.6822,234.0444 L10.7712,232.7184 L10.1532,226.5184 L15.8572,229.0244 L19.0002,223.6444 L22.1442,229.0244 L27.8502,226.5194 L27.2292,232.7204 L33.3172,234.0474 L29.1722,238.6994 L33.3172,243.3524 Z M19.0002,256.0004 C9.6112,256.0004 2.0002,248.3884 2.0002,239.0004 C2.0002,229.6114 9.6112,222.0004 19.0002,222.0004 C28.3882,222.0004 36.0002,229.6114 36.0002,239.0004 C36.0002,248.3884 28.3882,256.0004 19.0002,256.0004 L19.0002,256.0004 Z" id="Wolfram" fill="#767474"></path>
                    <g id="Imported-Layers_2_" transform="translate(34.000000, 134.000000)" fill="#767474" fill-rule="nonzero">
                        <path d="M8.4,8.9 C6.3,8.9 4.4,7.2 4.4,4.9 C4.4,2.6 6.1,0.9 8.4,0.9 C10.6,0.9 12.4,2.6 12.4,4.9 C12.4,7.2 10.7,8.9 8.4,8.9 Z M8.1,3.1 C7.2,3.2 6.6,4 6.6,4.8 C6.6,5.8 7.3,6.7 8.3,6.7 C9.3,6.7 10,5.8 10,4.8 C10,3.8 9.1,3.1 8.1,3.1 L8.1,3.1 Z" id="Shape"></path>
                        <path d="M7.1,14.6 C5.7,14.6 4.6,13.5 4.6,12.1 C4.6,10.7 5.7,9.6 7.1,9.6 C8.5,9.6 9.6,10.7 9.6,12.1 C9.6,13.5 8.4,14.6 7.1,14.6 Z M7.1,11.8 C7,11.8 6.9,11.8 6.9,11.9 C6.7,12 6.7,12 6.7,12.1 C6.7,12.3 6.8,12.5 7.1,12.5 C7.3,12.5 7.5,12.4 7.5,12.1 C7.5,12 7.5,11.9 7.4,11.9 C7.3,11.8 7.2,11.8 7.1,11.8 L7.1,11.8 Z" id="Shape"></path>
                        <path d="M16.3,14.6 C13.7,14.6 11.6,12.5 11.6,9.9 C11.6,7.3 13.7,5.2 16.3,5.2 C18.9,5.2 21,7.3 21,9.9 C21,12.5 18.9,14.6 16.3,14.6 L16.3,14.6 Z M16,7.4 C14.8,7.5 13.8,8.6 13.8,9.9 C13.8,11.3 14.9,12.4 16.3,12.4 C17.7,12.4 18.8,11.3 18.8,9.9 C18.8,8.5 17.7,7.4 16.3,7.4 C16.3,7.4 16,7.4 16,7.4 Z" id="Shape"></path>
                        <polygon id="Path" points="2.9 41.2 0.8 39.1 0.8 11.3 2.9 11.3 2.9 38.2 3.8 39 21.5 39 22.4 38.2 22.4 15 26.6 10.6 28.1 12.1 24.5 15.9 24.5 39.1 22.4 41.2"></polygon>
                        <path d="M3.7,38.2 L3.7,16.1 L21.7,16.1 L21.7,38.2 L3.7,38.2 Z M19.5,36 L19.5,18.2 L5.8,18.2 L5.8,36 L19.5,36 Z" id="Shape"></path>
                    </g>
                    <g id="Imported-Layers_3_" fill-rule="nonzero">
                        <path d="M30.5,26.7 C30.7,26.3 30.9,25.8 30.9,25.4 L30.9,10.7 C30.9,10.3 30.7,9.8 30.5,9.4 L15.5,18 L30.5,26.7 Z" id="Path" fill="#767474"></path>
                        <path d="M16.8,35.1 L29.5,27.7 C29.9,27.5 30.2,27.1 30.4,26.7 L15.5,18 L0.5,26.7 C0.7,27.1 1.1,27.5 1.4,27.7 L14.1,35.1 C14.9,35.5 16.1,35.5 16.8,35.1 Z" id="Path" fill="#373938"></path>
                        <path d="M30.5,9.4 C30.3,9 29.9,8.6 29.6,8.4 L16.8,1 C16.1,0.6 14.9,0.6 14.1,1 L1.4,8.4 C0.6,8.8 0,9.8 0,10.7 L0,25.4 C0,25.8 0.2,26.3 0.4,26.7 L15.4,18 L30.5,9.4 Z" id="Path" fill="#999999"></path>
                        <g id="Group" transform="translate(5.000000, 7.000000)" fill="#FFFFFF">
                            <path d="M10.5,21.3 C4.8,21.3 0.2,16.7 0.2,11 C0.2,5.3 4.8,0.8 10.5,0.8 C14.2,0.8 17.6,2.8 19.4,5.9 L15,8.5 C14,6.9 12.3,5.9 10.5,5.9 C7.7,5.9 5.4,8.2 5.4,11 C5.4,13.8 7.7,16.1 10.5,16.1 C12.3,16.1 14,15.1 15,13.5 L19.4,16.1 C17.5,19.3 14.1,21.3 10.5,21.3 Z" id="Path"></path>
                        </g>
                        <g id="Group" transform="translate(22.000000, 16.000000)" fill="#FFFFFF">
                            <polygon id="Path" points="3.7 1.5 2.6 1.5 2.6 0.3 1.5 0.3 1.5 1.5 0.3 1.5 0.3 2.6 1.5 2.6 1.5 3.7 2.6 3.7 2.6 2.6 3.7 2.6"></polygon>
                        </g>
                        <g id="Group" transform="translate(26.000000, 16.000000)" fill="#FFFFFF">
                            <polygon id="Path" points="4 1.5 2.9 1.5 2.9 0.3 1.7 0.3 1.7 1.5 0.6 1.5 0.6 2.6 1.7 2.6 1.7 3.7 2.9 3.7 2.9 2.6 4 2.6"></polygon>
                        </g>
                    </g>
                    <g id="Imported-Layers_4_" transform="translate(24.760010, 72.290089)" fill-rule="nonzero">
                        <path d="M36.8,19.9 C37,23.4 37,23.4 33.9,24.8 C29.6,26.7 25.4,28.6 21.1,30.4 C19.6,31.1 18.2,31.1 16.6,30.4 C12.5,28.6 8.3,26.9 4.1,25.1 C0.8,23.7 0.8,23.7 1.1,20 C6.2,22.9 11.7,24.7 17,27 C18.4,27.6 20,27.4 21.5,26.8 C26.6,24.4 31.7,22.2 36.8,19.9" id="Fill-1_5_" stroke="#FFFFFF" stroke-width="0.5" fill="#767474"></path>
                        <path d="M2.2,18.7 C0.6,17.7 1.1,16.1 1.2,14.6 C4.7,16 8.3,17.3 11.7,18.9 C16.1,21 20.4,22.7 24.9,19.2 C25,19.1 25.2,19.1 25.3,19.1 C29.2,17.3 33.2,16 36.9,13.8 C36.7,15.2 37.8,16.8 36,17.9 C31.6,20.3 26.8,21.8 22.4,24.1 C19.8,25.4 17.7,25.2 15.1,24 C10.8,22 6.5,20.4 2.2,18.7" id="Fill-2_4_" fill="#767474"></path>
                        <path d="M1.1,8.5 C4.8,10 8.8,11.2 12.3,13.1 C16.7,15.4 20.6,15.7 25,13.1 C28.7,10.9 33,9.8 36.7,7.7 C36.7,9.3 37.4,11.1 35.5,12.1 C30.8,14.1 26,16 21.4,18.2 C19.5,19.1 17.9,19.1 16,18.3 C11.4,16.3 6.8,14.4 2.2,12.5 C0.4,11.7 1.2,10 1.1,8.5" id="Fill-3_4_" stroke="#FFFFFF" stroke-width="0.5" fill="#767474"></path>
                        <path d="M2.4,12.6 C7,14.5 11.6,16.4 16.2,18.4 C18.1,19.2 19.7,19.2 21.6,18.3 C26.2,16.1 31,14.2 35.7,12.2 C36.3,12.6 37.2,12.8 36.9,13.8 C33.2,16 29.2,17.3 25.3,19.1 C25.2,19.2 25,19.2 24.9,19.2 C20.4,22.7 16.1,21.1 11.7,18.9 C8.3,17.3 4.7,16 1.2,14.6 C0.7,13.4 1.8,13.1 2.4,12.6" id="Fill-4_2_" stroke="#FFFFFF" stroke-width="0.5" fill="#767474"></path>
                        <path d="M2.2,18.7 C6.5,20.4 10.8,22 15,24 C17.5,25.2 19.7,25.4 22.3,24.1 C26.7,21.8 31.5,20.3 35.9,17.9 C36.2,18.6 37.2,18.9 36.8,19.9 C31.7,22.2 26.6,24.5 21.5,26.8 C20,27.4 18.4,27.6 17,27 C11.7,24.8 6.3,22.9 1.2,20.2 C0.9,19.3 1.6,19 2.2,18.7" id="Fill-5_1_" stroke="#FFFFFF" stroke-width="0.5" fill="#767474"></path>
                        <path d="M15.6,4.9 C16.2,4 18.1,4.4 17.5,2.7 C17.7,2.7 17.9,2.6 18,2.6 C18.2,2.6 18.4,2.8 18.6,2.8 C20.4,2.7 22,3 23,5 C22.2,5.6 20,4.5 20,7 C19.1,4.8 17.4,4.9 15.6,4.9" id="Fill-6" fill="#FEFEFE"></path>
                        <path d="M35.5,6.1 C31,4.3 26.5,2.6 22.1,0.9 C20.6,0.3 19.1,0.2 17.6,0.8 C12.6,2.7 7.5,4.7 2.5,6.6 C1.6,6.9 0.8,7.3 1.1,8.5 C4.8,10 8.8,11.2 12.3,13.1 C16.7,15.4 20.6,15.7 25,13.1 C28.7,10.9 33,9.8 36.7,7.7 C37.1,6.6 36.2,6.4 35.5,6.1 L35.5,6.1 Z M17.4,2.7 C17.6,2.7 17.8,2.6 17.9,2.6 C18.1,2.6 18.3,2.8 18.5,2.8 C20.4,2.7 22,3 23,5 C22.2,5.6 20,4.5 20,7 C19.1,4.8 17.4,4.9 15.6,4.9 C16.2,3.9 18.1,4.4 17.4,2.7 L17.4,2.7 Z M11.8,9.3 C10.4,9.3 9.2,9.2 8.1,8.6 C6.9,7.9 6.9,7.1 8.1,6.6 C10.4,5.5 12.8,5.5 15.2,6.5 C15.7,6.7 16.1,7 16.1,7.7 C16.1,8.3 15.6,8.5 15.2,8.7 C14.1,9.2 12.9,9.4 11.8,9.3 L11.8,9.3 Z M14.1,10.6 C16.9,10.2 19.5,9.8 22.2,9.3 C19.2,13.9 20.9,13.6 14.1,10.6 L14.1,10.6 Z M31,8 C28.1,9.7 25.2,9.7 22.3,7.6 C25.1,6 27.7,4.6 30.8,6.7 C31.1,6.9 31.6,6.9 31.6,7.4 C31.7,7.7 31.3,7.8 31,8 L31,8 Z" id="Fill-7" stroke="#FFFFFF" stroke-width="0.5" fill="#767474"></path>
                    </g>
                </g>
            </g>
        </g>
    </g>
</svg>
