<?xml version="1.0" encoding="UTF-8" standalone="no"?>
<svg width="79px" height="79px" viewBox="0 0 79 79" version="1.1" xmlns="http://www.w3.org/2000/svg" xmlns:xlink="http://www.w3.org/1999/xlink" xmlns:sketch="http://www.bohemiancoding.com/sketch/ns">
    <!-- Generator: Sketch 3.3.3 (12072) - http://www.bohemiancoding.com/sketch -->
    <title>Oval 20 Copy 3 + Fill 1 Copy + Imported Layers</title>
    <desc>Created with Sketch.</desc>
    <defs></defs>
    <g id="Page-1" stroke="none" stroke-width="1" fill="none" fill-rule="evenodd" sketch:type="MSPage">
        <g id="Home---Desktop-Copy-2" sketch:type="MSArtboardGroup" transform="translate(-919.000000, -2750.000000)">
            <g id="Group" sketch:type="MSLayerGroup" transform="translate(97.000000, 2493.000000)">
                <g transform="translate(0.000000, 76.000000)" id="Oval-20-Copy-3-+-Fill-1-Copy-+-Imported-Layers" sketch:type="MSShapeGroup">
                    <g transform="translate(822.000000, 181.000000)">
                        <g id="Oval-20-Copy-3-+-Fill-1-Copy" fill="#767474">
                            <circle id="Oval-20-Copy-3" cx="39.5" cy="39.5" r="39.5"></circle>
                        </g>
                        <g id="Imported-Layers" transform="translate(16.000000, 16.000000)" fill="#FFFFFF">
                            <path d="M28.576,46.812749 C27.28726,46.3794502 26.222052,45.6409323 25.519308,44.4666813 C24.4212,42.6316215 24.638152,40.4510837 26.044016,38.8058964 C27.366032,37.2590159 29.695164,36.6613108 31.589828,37.54551 C32.501064,37.970757 32.98178,37.8127171 33.632824,37.0918008 C34.86554,35.7269283 36.230796,34.4787131 37.56992,33.2125219 C38.04932,32.7591873 38.171708,32.3668964 37.822968,31.7551474 C36.976216,30.2696853 37.093904,28.7469602 37.911892,27.2950159 C38.219648,26.7488048 38.13768,26.4323506 37.709792,26.0194622 C36.247904,24.6090876 34.80726,23.1760558 33.39256,21.7188685 C32.9423,21.2552351 32.574196,21.2314542 32.002488,21.5173865 C29.93806,22.5500757 27.762148,22.1836255 26.224496,20.6142749 C24.733092,19.0919243 24.408228,16.9235578 25.446552,14.9141673 C25.730996,14.3638367 25.669896,14.0237888 25.247084,13.6120239 C23.791588,12.1949084 22.357712,10.7560717 20.926092,9.31498805 C20.563628,8.95003586 20.248164,8.75473307 19.70804,9.06482072 C16.863224,10.6980239 13.83304,9.12605179 12.782872,6.74066135 C11.660324,4.19123904 12.959968,1.31974502 15.74688,0.201856574 C15.891076,0.143996016 16.027752,0.0675976096 16.168,0 L18.424,0 C21.948436,1.63058167 22.699684,3.2999243 21.599508,7.15972908 C21.464712,7.63253785 21.707608,7.86060956 21.970244,8.12313546 C23.450556,9.60204382 24.946284,11.0661594 26.410052,12.5611713 C26.8229,12.9826733 27.172016,13.0392231 27.724736,12.7959841 C29.700804,11.9262032 31.688152,12.3166215 33.169968,13.7906614 C34.645768,15.2587092 35.047336,17.2817689 34.171256,19.2098924 C33.923096,19.7561036 33.965584,20.1008327 34.393848,20.5157809 C35.89672,21.9718446 37.381544,23.4471952 38.84174,24.9455777 C39.290872,25.4065896 39.686048,25.4391713 40.248356,25.1669084 C41.53296,24.5446733 42.849148,24.5635857 44.148416,25.1579203 C45.604476,25.8239721 46.483188,26.9894223 47,28.4621514 L47,30.8964143 C46.939652,31.0052072 46.872348,31.1108167 46.820272,31.2233546 C45.411212,34.2639363 42.845012,35.2479402 39.812948,33.8557291 C39.302716,33.6212908 39.074672,33.8308247 38.776504,34.1291155 C37.2757,35.6318048 35.7811,37.1412351 34.255292,38.6182709 C33.847144,39.0131833 33.816312,39.3150319 34.078572,39.8221076 C34.957284,41.5200996 34.7847,43.1821394 33.767432,44.7861315 C33.110936,45.821255 32.062084,46.3073586 31.02,46.812749 L28.576,46.812749" id="Fill-1"></path>
                            <path d="M0,28.4621514 C0.64672,26.8735139 1.579012,25.5427211 3.30504,24.9839641 C5.257608,24.3516175 7.009768,24.8096335 8.375588,26.270004 C9.813036,27.8071474 10.283224,29.665239 9.275356,31.6195777 C8.879052,32.388243 9.083596,32.7754781 9.613192,33.2846135 C11.03278,34.6492988 12.423416,36.0446932 13.799952,37.4528207 C14.208288,37.8703904 14.554584,37.981243 15.105236,37.6846375 C16.524072,36.9199044 17.990848,36.9099801 19.425852,37.650745 C19.900928,37.8962311 20.208496,37.826761 20.572652,37.4563785 C22.085112,35.9186733 23.613928,34.3966972 25.157596,32.8900757 C25.522692,32.5339243 25.598832,32.2573546 25.361012,31.763012 C24.287156,29.5298566 24.982944,26.9163944 26.939272,25.623239 C29.150716,24.1613705 31.703568,24.4928048 33.45836,26.4698008 C35.020828,28.2299602 35.008044,30.9181355 33.427904,32.8292191 C32.076372,34.4641076 29.599284,35.0003944 27.617012,33.9710757 C26.852416,33.5739163 26.415128,33.6931952 25.856016,34.2841594 C24.524788,35.6915378 23.127572,37.0369363 21.74972,38.4001235 C21.414892,38.7311833 21.237232,39.007004 21.493664,39.5305578 C22.97642,42.5589681 21.998632,45.2211155 18.93724,46.629243 C18.82444,46.6811116 18.720288,46.7511434 18.612,46.812749 L15.98,46.812749 C15.842948,46.7391594 15.70928,46.6578924 15.568092,46.5931036 C12.652964,45.2563187 11.655436,42.6177649 13.022008,39.709757 C13.277876,39.1654183 13.043816,38.913753 12.72008,38.5933665 C11.275488,37.1637052 9.817924,35.7458406 8.409616,34.2811633 C7.927208,33.7797052 7.56794,33.6716614 6.895088,34.0053426 C5.29032,34.8009721 3.693448,34.6365657 2.16106,33.6843944 C1.024036,32.9777092 0.482784,31.8716175 0,30.7091633 L0,28.4621514" id="Fill-2"></path>
                            <path d="M47,18.5378486 C46.446904,19.6688446 45.831204,20.7361753 44.6829,21.4040996 C42.266536,22.8096056 39.316064,22.0413147 37.936896,19.6199721 C36.570512,17.2214741 37.408992,14.293992 39.853368,12.9278088 C42.172348,11.6320319 45.169632,12.5269044 46.49334,14.9149163 C46.674572,15.2420438 46.83174,15.5822789 47,15.9163347 L47,18.5378486" id="Fill-3"></path>
                            <path d="M30.832,0 C33.417564,1.05478486 34.625276,2.61477291 34.615312,4.88706375 C34.604784,7.26889641 32.855068,9.27266932 30.420844,9.69042629 C28.201504,10.0714821 25.86128,8.59369721 25.082772,6.31972112 C24.33378,4.13113147 25.31702,1.6732749 27.393292,0.566247012 C27.778504,0.360832669 28.181388,0.187812749 28.576,0 L30.832,0" id="Fill-4"></path>
                            <path d="M0,16.1035857 C0.649164,14.384996 1.697076,13.0512072 3.5532,12.5342072 C6.141772,11.8134781 8.706844,13.2403307 9.5457,15.847988 C10.311424,18.2288845 8.98734,20.8788606 6.587144,21.769239 C4.099904,22.6918247 1.381424,21.5379841 0.340092,19.1187012 C0.229548,18.8616056 0.113552,18.6065697 0,18.3505976 L0,16.1035857" id="Fill-5"></path>
                            <path d="M22.195656,17.2426335 C22.187196,19.9094622 19.956764,22.1160279 17.278328,22.1070398 C14.61512,22.098239 12.37792,19.8560956 12.38826,17.2061195 C12.3986,14.5533347 14.648208,12.3301036 17.313108,12.3389044 C19.98252,12.3477052 22.203928,14.5788008 22.195656,17.2426335" id="Fill-6"></path>
                            <path d="M17.257836,34.4774024 C14.587672,34.4667291 12.373972,32.2373187 12.38826,29.5734861 C12.402548,26.9381155 14.694832,24.6845498 17.332096,24.7131992 C19.996996,24.7420359 22.196408,26.9746295 22.196784,29.651008 C22.196972,32.2991116 19.956764,34.4880757 17.257836,34.4774024" id="Fill-7"></path>
                        </g>
                    </g>
                </g>
            </g>
        </g>
    </g>
</svg>