<?xml version="1.0" encoding="UTF-8" standalone="no"?>
<svg
   width="58.099998"
   height="70.633781"
   viewBox="0 0 58.099998 70.633781"
   version="1.1"
   id="svg898"
   sodipodi:docname="notebook-format.svg"
   inkscape:version="1.1.1 (3bf5ae0d25, 2021-09-20)"
   xmlns:inkscape="http://www.inkscape.org/namespaces/inkscape"
   xmlns:sodipodi="http://sodipodi.sourceforge.net/DTD/sodipodi-0.dtd"
   xmlns="http://www.w3.org/2000/svg"
   xmlns:svg="http://www.w3.org/2000/svg"
   xmlns:rdf="http://www.w3.org/1999/02/22-rdf-syntax-ns#"
   xmlns:cc="http://creativecommons.org/ns#"
   xmlns:dc="http://purl.org/dc/elements/1.1/"
   xmlns:sketch="http://www.bohemiancoding.com/sketch/ns">
  <sodipodi:namedview
     id="namedview900"
     pagecolor="#ffffff"
     bordercolor="#666666"
     borderopacity="1.0"
     inkscape:pageshadow="2"
     inkscape:pageopacity="0.0"
     inkscape:pagecheckerboard="0"
     showgrid="false"
     inkscape:zoom="3.976378"
     inkscape:cx="28.166337"
     inkscape:cy="75.068317"
     inkscape:window-width="1866"
     inkscape:window-height="1016"
     inkscape:window-x="54"
     inkscape:window-y="27"
     inkscape:window-maximized="1"
     inkscape:current-layer="Notebook-Document-Fo-+-Rectangle-123-+-Nb-+-Triangle-1"
     fit-margin-top="0"
     fit-margin-left="0"
     fit-margin-right="0"
     fit-margin-bottom="0" />
  <!-- Generator: Sketch 3.3.3 (12072) - http://www.bohemiancoding.com/sketch -->
  <title
     id="title884">Notebook Document Fo + Rectangle 123 + Nb + Triangle 1</title>
  <desc
     id="desc886">Created with Sketch.</desc>
  <defs
     id="defs888" />
  <g
     id="Page-1"
     stroke="none"
     stroke-width="1"
     fill="none"
     fill-rule="evenodd"
     sketch:type="MSPage"
     transform="translate(-98.95,-1.95)">
    <g
       id="Rectangle-128-+-Notebook-Document-Fo-+-Rectangle-123-+-Nb-+-Triangle-1-+-Rectangle-128-Copy-+-Share-Notebooks.-+-The-Notebook-has-sup-+-Fill-1-Copy-+-Rectangle-125-+-&gt;_-+-Rectangle-128-Copy-2-+-Interactive-Computin-+-Line-+-Line-Copy-3"
       sketch:type="MSLayerGroup"
       transform="translate(-20,-529)">
      <g
         id="Notebook-Document-Fo-+-Rectangle-123-+-Nb-+-Triangle-1"
         transform="translate(34,532)"
         sketch:type="MSShapeGroup">
        <g
           id="Rectangle-123-+-Nb-+-Triangle-1"
           transform="translate(86)">
          <path
             d="M 36.079174,0 H 0 V 68.533784 H 56 V 16.715558 Z"
             id="Rectangle-123"
             stroke="#969696"
             stroke-width="2.1" />
          <path
             d="M 35.933333,0.46621622 V 19.259993 l 19.6,-2.009993"
             id="Path-2429"
             stroke="#979797" />
          <path
             d="m 27.833209,51.237162 h -1.435547 l -9.89331,-14.891374 -0.07178,0.01195 V 51.237162 H 14.997028 V 33.836006 h 1.435546 l 9.893311,14.85552 0.07178,-0.01195 v -14.84357 h 1.435547 z m 14.546875,-6.107136 c 0,1.936127 -0.438635,3.479827 -1.315918,4.631145 -0.877283,1.151319 -2.085523,1.726969 -3.624756,1.726969 -0.941085,0 -1.756547,-0.189227 -2.446411,-0.567688 -0.689863,-0.378462 -1.25012,-0.918259 -1.680786,-1.619407 l -0.239258,1.936117 H 31.948443 V 32.593066 h 1.435547 v 7.696666 c 0.430667,-0.709117 0.980954,-1.256881 1.650879,-1.64331 0.669925,-0.386429 1.463456,-0.57964 2.380615,-0.57964 1.555184,0 2.771399,0.619471 3.648682,1.858434 0.877283,1.238962 1.315918,2.890222 1.315918,4.953831 z m -1.44751,-0.250979 c 0,-1.649293 -0.319007,-2.989822 -0.957031,-4.021627 -0.638024,-1.031804 -1.583083,-1.547699 -2.835205,-1.547699 -0.988937,0 -1.786455,0.241017 -2.392578,0.723057 -0.606123,0.48204 -1.060708,1.105495 -1.36377,1.870385 v 5.915915 c 0.319012,0.748954 0.791542,1.34054 1.417603,1.774774 0.626061,0.434235 1.41361,0.651349 2.362671,0.651349 1.252122,0 2.193193,-0.462114 2.823242,-1.386356 0.630049,-0.924242 0.945068,-2.167169 0.945068,-3.728819 z"
             id="Nb"
             fill="#969696" />
        </g>
      </g>
    </g>
  </g>
  <metadata
     id="metadata982">
    <rdf:RDF>
      <cc:Work
         rdf:about="">
        <dc:title>Notebook Document Fo + Rectangle 123 + Nb + Triangle 1</dc:title>
      </cc:Work>
    </rdf:RDF>
  </metadata>
</svg>
