<?xml version="1.0" encoding="UTF-8" standalone="no"?>
<svg width="81px" height="81px" viewBox="0 0 81 81" version="1.1" xmlns="http://www.w3.org/2000/svg" xmlns:xlink="http://www.w3.org/1999/xlink" xmlns:sketch="http://www.bohemiancoding.com/sketch/ns">
    <!-- Generator: Sketch 3.3.3 (12072) - http://www.bohemiancoding.com/sketch -->
    <title>&lt;/&gt; copy 3</title>
    <desc>Created with Sketch.</desc>
    <defs>
        <linearGradient x1="-29.2155733%" y1="170.581057%" x2="100%" y2="-16.4479111%" id="linearGradient-1">
            <stop stop-color="#CCCBCB" offset="0%"></stop>
            <stop stop-color="#747171" offset="100%"></stop>
        </linearGradient>
    </defs>
    <g id="Page-1" stroke="none" stroke-width="1" fill="none" fill-rule="evenodd" sketch:type="MSPage">
        <g id="Home---Desktop-Copy-2" sketch:type="MSArtboardGroup" transform="translate(-852.000000, -1019.000000)" stroke="url(#linearGradient-1)" stroke-width="2.09289909">
            <g id="Group" sketch:type="MSLayerGroup" transform="translate(130.000000, 1019.000000)">
                <g id="Big-Data-Integration-+-The-Notebook-has-sup-+-Fill-1-Copy" transform="translate(721.000000, 0.000000)" sketch:type="MSShapeGroup">
                    <path d="M73.6266326,39.5956967 C73.1393225,37.8881688 72.3673369,36.6679271 71.6437739,35.4370854 C71.0173645,34.3711664 70.9455017,33.4907467 71.8686151,32.5111863 C73.0316825,31.2772269 74.0593516,29.9126387 75.0524773,28.2998869 C73.5159083,28.6942675 71.9481885,28.9957427 70.4529484,29.511711 C69.1316595,29.9671973 68.3599823,29.6594869 67.7419004,28.3965335 C67.1312206,27.1479213 66.3287011,25.9953322 65.4623377,24.554362 C64.7878141,26.3629012 64.63792,28.0433057 64.3976576,29.6778809 C64.2206222,30.8803522 63.7089466,31.5225847 62.5625341,31.8349716 C60.9337463,32.2789226 59.3348757,32.8351084 57.4840225,33.4190412 C58.8278264,34.3215961 60.1521996,34.6554946 61.3815782,35.1836217 C62.1924252,35.5318614 62.3898166,35.8623306 61.540725,36.4013694 C60.7576362,36.898632 59.9998381,37.4370473 59.2087302,37.9205922 C58.957673,38.0742916 58.5764608,38.2622849 58.3556291,38.1746794 C56.3598166,37.3815534 54.1860434,36.8612204 52.6359038,35.2593802 C51.3405225,33.9209802 51.7686152,32.143929 53.5975702,31.3632736 C55.3888975,30.5988299 57.2619572,29.9883972 59.1476623,29.5032934 C60.6536972,29.1157716 61.3969994,28.3690984 61.5296217,26.7647641 C61.6570009,25.2212238 62.0308109,23.6942069 62.3518804,22.1721782 C62.6433412,20.79169 63.2197859,19.5324779 64.7495696,19.2487732 C66.2389496,18.9725509 66.9424651,20.1326223 67.6102033,21.1963589 C68.3806467,22.424083 69.1739136,23.6449483 69.8308569,24.935025 C70.3129238,25.880915 70.9195941,25.9972028 71.8374643,25.7340745 C73.8635023,25.1538829 75.9037279,24.6229499 77.9467293,24.1072933 C78.9811838,23.8460356 80.0560418,23.7671595 80.7173031,24.8268431 C81.3443294,25.8322799 80.8206252,26.750423 80.19144,27.5348196 C78.8010641,29.2691592 77.4332031,31.0324927 75.9111301,32.6436857 C75.023177,33.5836522 75.0133074,34.325649 75.6323147,35.3660033 C76.4517975,36.7436856 77.1417423,38.1999322 77.8822686,39.6253142 C78.4648818,40.7464153 78.7452393,41.8961985 77.8449493,42.9720939 C76.9819786,44.0030953 75.8451273,44.1465064 74.6123561,43.7751962 C73.6278663,43.4787093 72.6449186,43.1775459 71.6601204,42.8816825 C69.2315889,42.152468 69.1908769,42.072033 68.9432123,39.6402789 C68.8466756,38.6928301 69.1708293,38.3710903 70.0631003,38.6127069 C71.1490616,38.9066997 72.2325556,39.210669 73.6266326,39.5956967 Z M23.3118637,56.2005247 C22.4137326,56.2669303 21.403952,56.1029428 20.4638753,55.6377919 C19.6690664,55.2443465 19.3566327,55.495316 19.2807604,56.347677 C19.193168,57.326614 19.0371053,58.3005627 18.881968,59.2717055 C18.6006852,61.0331685 17.2325158,60.4807238 16.2026877,60.4651356 C15.0192643,60.4476769 15.2083283,59.5289103 15.3128841,58.7476313 C15.786932,55.2047526 16.1894254,51.6500268 16.7671038,48.124295 C17.4644508,43.8684135 21.1858962,40.680945 25.3607251,40.5858571 C30.1668982,40.4764282 33.3593962,45.0266144 31.8863626,49.887005 C30.7578388,53.610083 27.2985538,56.2017718 23.3118637,56.2005247 Z M28.4674813,47.9849368 C28.4832109,45.9051635 27.0481135,44.3666113 25.0766665,44.3491526 C22.6015629,44.3276409 20.2819051,46.6325074 20.3056538,49.0904497 C20.3235424,50.9666415 22.0087717,52.5924874 23.9268614,52.5843816 C26.2459023,52.5744051 28.4495927,50.3421795 28.4674813,47.9849368 Z M13.3932524,35.3996737 C14.6432953,35.3126918 16.0490925,36.2021526 17.1797753,37.7120225 C17.7173585,38.4297018 17.782436,38.9799641 16.9700469,39.508403 C16.4963074,39.8164252 16.0404566,40.161859 15.6148313,40.5353515 C14.8585754,41.1994074 14.2259975,41.294807 13.5998965,40.338317 C13.2587794,39.8176722 12.7332247,39.4501032 12.0701129,39.3896212 C11.3434657,39.3229038 10.7562261,39.5888379 10.3432462,40.1942824 C9.92440627,40.8078326 10.3034595,41.3041599 10.6717179,41.7275345 C11.8915353,43.1301579 13.1822903,44.4707403 14.378359,45.8930047 C16.1339091,47.9805721 16.3057013,50.3452972 14.9548037,52.6629459 C13.2652563,55.5623451 9.69678927,57.0669151 6.60545431,56.1868071 C5.80170105,55.9579728 5.04236087,55.6175272 4.46529934,55.0070946 C3.67820098,54.1737512 2.71252506,53.1040911 3.08078346,52.051578 C3.48697802,50.8918183 5.00905106,50.6361724 6.1181442,50.1476392 C6.78526557,49.8539581 6.90308359,50.6199607 7.16370197,51.0255648 C7.8366834,52.0724661 8.67282119,52.7265457 9.99318485,52.2857123 C11.6225895,51.7416852 12.089852,50.3958028 11.0267141,49.0274735 C10.1406116,47.8867314 9.16105657,46.8145772 8.16608036,45.7670523 C6.45679388,43.9675542 5.32055942,41.9947157 6.49226266,39.4772267 C7.71146321,36.8571674 9.7930176,35.4514265 13.3932524,35.3996737 Z M48.5977068,48.7574864 C48.4274567,50.0207515 48.1168736,52.3324768 47.8025894,54.6438903 C47.5530743,56.4811117 46.1420339,55.8042735 45.1427398,55.8164323 C43.922614,55.8310851 44.1705869,54.8293895 44.2628058,54.0939397 C44.5274337,51.9845489 44.9811255,49.8919933 44.836783,47.748932 C44.694908,45.6404764 43.4559683,44.382823 41.5517577,44.3482173 C39.2789804,44.3070645 37.2051366,46.0825568 36.908741,48.3232001 C36.6268414,50.4531673 37.5684602,51.946202 39.5118406,52.4624821 C40.760033,52.7941983 41.8302647,52.3455708 42.8681119,51.7133148 C43.1592643,51.5359214 43.4828012,51.1589995 43.8121981,51.46671 C43.9849156,51.6278916 43.9735039,52.0459663 43.9624007,52.3449473 C43.8476669,55.4641397 43.1814708,56.1506426 40.2573017,56.1992777 C34.9443878,56.2875067 31.7966112,51.835526 33.5361233,46.6939248 C35.2651489,41.5825646 41.5958624,38.9899405 45.6861831,41.7312757 C47.7905609,43.1416931 48.7565452,45.1506962 48.5977068,48.7574864 Z M62.883912,43.6080911 C64.2955692,42.0439743 65.7029085,40.4764282 67.1222763,38.9197938 C67.3498933,38.6703831 67.5164423,38.2217556 67.9534793,38.3732726 C68.3538138,38.5120073 68.2677635,38.9737288 68.393909,39.2998333 C69.1850168,41.3428186 68.1456275,42.6933774 66.8231049,44.0682538 C64.5432338,46.4385906 64.47353,45.7673641 66.448678,48.5532814 C67.883467,50.5769373 69.2991338,52.6149344 70.7437923,54.6317315 C71.3843892,55.5258688 71.1999516,55.8030264 70.1065881,55.9152612 C67.8705132,56.1444073 66.1377865,55.6798799 65.1002478,53.399331 C64.528121,52.1423011 63.6145688,51.0408412 62.829321,49.887005 C62.6100314,49.5649535 62.4931387,48.9588855 62.0252593,49.0642615 C61.4559084,49.192708 61.6511408,49.8296406 61.5876055,50.2617446 C61.3766434,51.6964795 61.2097859,53.1383851 60.9849447,54.5709377 C60.7810764,55.869432 60.0982254,56.0998252 57.9488177,55.8703673 C56.6892136,55.7359973 56.9859176,54.9475478 57.0852302,54.1799864 C57.6903583,49.5047832 58.2791399,44.8273976 58.9015398,40.1546884 C59.0872111,38.7604827 61.3149585,36.5111101 62.6476592,36.2881993 C63.4856475,36.1482176 63.2712927,36.7436856 63.2231786,37.175166 C63.0513863,38.7199535 62.855537,40.261935 62.6754173,41.8054754 C62.6106483,42.35792 62.5643847,42.9122353 62.5097936,43.465927 C62.6343969,43.513315 62.7593087,43.5607031 62.883912,43.6080911 Z M49.0800821,53.8373585 C49.415956,51.2235345 49.7339412,48.4460348 50.13736,45.6810056 C50.7039351,41.8004872 53.2734164,40.682192 56.6790356,41.0743903 C57.0627152,41.1186607 57.341839,41.2467955 57.4482453,41.6857583 C57.8128027,43.1847165 56.9526078,44.5296636 55.4650782,44.6693335 C54.5163657,44.7584979 53.966137,45.164102 53.838141,46.1729682 C53.492706,48.8934152 53.126915,51.6116799 52.7210288,54.3237093 C52.4909445,55.861638 51.9107987,56.1069957 49.8977144,55.8650673 C48.4811225,55.6948446 49.0739136,54.7427193 49.0800821,53.8373585 Z" id="Fill-1-Copy"></path>
                </g>
            </g>
        </g>
    </g>
</svg>