<svg xmlns="http://www.w3.org/2000/svg" xmlns:xlink="http://www.w3.org/1999/xlink" width="81" height="81" version="1.1" viewBox="0 0 81 81"><title>&lt;/&gt; copy 2</title><desc>Created with Sketch.</desc><defs><rect id="path-1" width="59.234" height="59.125" x="8.387" y="8.372" rx="10.464"/><linearGradient id="linearGradient-3" x1="38.384%" x2="50%" y1="3691.931%" y2="-1254.192%"><stop offset="0%" stop-color="#CCCBCB"/><stop offset="100%" stop-color="#747171"/></linearGradient></defs><g id="Page-1" fill="none" fill-rule="evenodd" stroke="none" stroke-width="1"><g id="Home---Desktop-Copy-2" transform="translate(-611.000000, -1022.000000)"><g id="Group" transform="translate(130.000000, 1019.000000)"><g id="&lt;/&gt;-+-Language-of-Choice.-+-The-Notebook-has-sup-Copy-2-+-Group" transform="translate(481.000000, 3.000000)"><g id="Group" transform="translate(2.000000, 2.000000)"><rect id="Rectangle-12-Copy-2" width="59.234" height="59.125" x="8.387" y="8.372" fill="#FFF" stroke="#979797" stroke-width="1.57" rx="10.464" transform="translate(38.004032, 37.934343) rotate(-20.000000) translate(-38.004032, -37.934343)"/><rect id="Rectangle-12-Copy" width="59.234" height="59.125" x="8.387" y="8.372" fill="#FFF" stroke="#979797" stroke-width="1.57" rx="10.464" transform="translate(38.004032, 37.934343) rotate(-10.000000) translate(-38.004032, -37.934343)"/><mask id="mask-2" fill="#fff"><use xlink:href="#path-1"/></mask><use id="Mask" fill="#FFF" stroke="#979797" stroke-width="1.57" xlink:href="#path-1"/><path id="Line" stroke="url(#linearGradient-3)" stroke-linecap="square" stroke-width="1.57" d="M9.1733871,20.6676768 L66.8556456,20.6676768" mask="url(#mask-2)"/><ellipse id="Oval-5" cx="15.726" cy="15.174" fill="#FFF" stroke="url(#linearGradient-3)" stroke-width="1.57" mask="url(#mask-2)" rx="2.097" ry="2.093"/><ellipse id="Oval-5-Copy" cx="23.065" cy="15.174" fill="#FFF" stroke="url(#linearGradient-3)" stroke-width="1.57" mask="url(#mask-2)" rx="2.097" ry="2.093"/><rect id="Rectangle-15" width="23.589" height="9.941" x="13.629" y="26.162" fill="#FFF" stroke="url(#linearGradient-3)" stroke-width="1.57" mask="url(#mask-2)"/><rect id="Rectangle-15-Copy" width="23.589" height="9.941" x="39.315" y="26.162" fill="#FFF" stroke="url(#linearGradient-3)" stroke-width="1.57" mask="url(#mask-2)"/><rect id="Rectangle-15-Copy-2" width="49.274" height="21.976" x="13.629" y="38.196" fill="#FFF" stroke="url(#linearGradient-3)" stroke-width="1.57" mask="url(#mask-2)"/></g></g></g></g></g></svg>