<?xml version="1.0" encoding="UTF-8" standalone="no"?>
<svg width="82px" height="73px" viewBox="0 0 82 73" version="1.1" xmlns="http://www.w3.org/2000/svg" xmlns:xlink="http://www.w3.org/1999/xlink">
    <!-- Generator: Sketch 42 (36781) - http://www.bohemiancoding.com/sketch -->
    <title>architecture-block</title>
    <desc>Created with Sketch.</desc>
    <defs>
        <linearGradient x1="20.2464772%" y1="-10.5261847%" x2="76.4467655%" y2="92.9307574%" id="linearGradient-1">
            <stop stop-color="#1AD8FE" offset="0%"></stop>
            <stop stop-color="#1AD6FD" offset="0%"></stop>
            <stop stop-color="#1D62F0" offset="100%"></stop>
        </linearGradient>
        <linearGradient x1="19.3648228%" y1="-10.5261847%" x2="77.2304343%" y2="92.9307574%" id="linearGradient-2">
            <stop stop-color="#FFFFFF" offset="0%"></stop>
            <stop stop-color="#1AD6FD" offset="0%"></stop>
            <stop stop-color="#1D62F0" offset="100%"></stop>
        </linearGradient>
    </defs>
    <g id="Page-1" stroke="none" stroke-width="1" fill="none" fill-rule="evenodd">
        <g id="Artboard" transform="translate(-417.000000, -495.000000)">
            <g id="architecture-block" transform="translate(417.000000, 495.000000)">
                <g id="architectureicon">
                    <g id="Page-1">
                        <g id="architectureicon">
                            <g id="Page-1">
                                <g id="Home---Desktop-Copy-2" fill-rule="nonzero" fill="url(#linearGradient-2)">
                                    <path d="M73.0606144,15.5833722 C71.6571127,14.7625576 70.024308,14.292221 68.2818324,14.292221 C63.4248373,14.292221 59.4199499,17.9464966 58.8580853,22.6598736 L58.8580853,22.6598736 C56.6388797,23.9596651 52.3224855,26.4860413 47.4322176,29.3391863 L43.0875776,24.987449 C42.2939928,24.1925701 40.9802465,24.1852273 40.1744775,24.9923147 C39.3630926,25.8050198 39.3665417,27.1057549 40.1696345,27.9101588 L43.7433872,31.4897533 C34.6845059,36.7667408 24.991937,42.3791818 23.301943,43.2255487 C23.301943,46.1188874 19.1753478,52.318884 19.1753478,52.318884 L48.2974163,36.0512171 L49.7767684,37.5329858 C49.7343115,37.7707418 49.7121541,38.0155604 49.7121541,38.2655543 C49.7121541,40.5483357 51.559693,42.3988805 53.8387493,42.3988805 C54.0883372,42.3988805 54.3327494,42.3766899 54.5701267,42.3341666 L56.0494788,43.8159354 L39.8083251,72.9855446 C39.8083251,72.9855446 47.2361962,68.8522183 48.8868348,68.8522183 C50.2715929,66.8707567 55.4496779,57.4802448 60.4659328,48.2395966 L62.9392823,50.7169767 C63.7328672,51.5118703 65.0466134,51.5192131 65.8523809,50.7121257 C66.6637673,49.8994206 66.6603183,48.5986855 65.8572255,47.7942816 L62.5187332,44.4503346 C64.8078598,40.2167749 66.9425902,36.2434566 68.5188431,33.3026552 L68.5188431,33.3026552 C73.6511532,33.1766483 77.7730024,28.9699089 77.7730024,23.7988905 C77.7730024,21.6606794 77.0682412,19.6873272 75.8786965,18.099206 C76.0996456,17.9985007 76.3067604,17.856894 76.4887708,17.6745923 L81.1498579,13.0058913 C81.9658076,12.1886154 81.9594365,10.8864501 81.153669,10.0793774 C80.3422841,9.26665758 79.0397873,9.27400037 78.2319147,10.0831963 L73.5708277,14.7518825 C73.3283174,14.994799 73.158447,15.2805338 73.0606144,15.5833722 L73.0606144,15.5833722 L73.0606144,15.5833722 Z M52.4551203,34.3702937 L52.0439114,33.9584045 L60.4959303,29.237095 C61.1366793,30.1557397 61.9353457,30.9557055 62.852496,31.5975065 L58.13887,40.0633136 L57.727661,39.6514392 C57.8815582,39.2182147 57.9653445,38.7516823 57.9653445,38.2655543 C57.9653445,35.9827729 56.1178041,34.1322281 53.8387493,34.1322281 C53.3534122,34.1322281 52.8876431,34.2161393 52.4551203,34.3702937 L52.4551203,34.3702937 L52.4551203,34.3702937 Z M68.2818324,28.3455508 C70.7887933,28.3455508 72.8210879,26.3099471 72.8210879,23.7988905 C72.8210879,21.2878339 70.7887933,19.2522302 68.2818324,19.2522302 C65.7748715,19.2522302 63.7425783,21.2878339 63.7425783,23.7988905 C63.7425783,26.3099471 65.7748715,28.3455508 68.2818324,28.3455508 L68.2818324,28.3455508 Z M14.1523583,48.1855578 L4.21419954,48.1855578 L4.21419954,25.8655314 C4.21419954,25.8655314 9.20044229,19.2522302 17.4536341,19.2522302 C15.8029954,15.9455574 14.1523568,4.37223222 19.1042727,4.37223222 L63.6791431,4.37223222 L63.6791431,9.33222662 L69.4487355,9.33222662 L69.4487355,0.201395869 L16.6283015,0.201395869 C16.6283015,0.201395869 11.6764003,5.19890041 5.89916645,13.4655528 C0.121932628,21.73222 0.1219341,24.212254 0.1219341,25.0388927 C0.121932628,25.8655314 0.1219341,53.9722204 0.1219341,53.9722204 L14.1523583,53.9722204 L14.1523583,48.1855578 L14.1523583,48.1855578 Z" id="Oval-67"></path>
                                </g>
                                <path d="M68.2818324,28.3455508 C70.7887933,28.3455508 72.8210879,26.3099471 72.8210879,23.7988905 C72.8210879,21.2878339 70.7887933,19.2522302 68.2818324,19.2522302 C65.7748715,19.2522302 63.7425783,21.2878339 63.7425783,23.7988905 C63.7425783,26.3099471 65.7748715,28.3455508 68.2818324,28.3455508 L68.2818324,28.3455508 Z" id="Oval-67-path" fill="#FFFFFF"></path>
                            </g>
                        </g>
                    </g>
                </g>
            </g>
        </g>
    </g>
</svg>