<?xml version="1.0" encoding="UTF-8" standalone="no"?>
<svg width="82px" height="78px" viewBox="0 0 82 78" version="1.1" xmlns="http://www.w3.org/2000/svg" xmlns:xlink="http://www.w3.org/1999/xlink">
    <!-- Generator: Sketch 42 (36781) - http://www.bohemiancoding.com/sketch -->
    <title>conversion-block</title>
    <desc>Created with Sketch.</desc>
    <defs></defs>
    <g id="Page-1" stroke="none" stroke-width="1" fill="none" fill-rule="evenodd">
        <g id="Artboard" transform="translate(-419.000000, -313.000000)">
            <g id="conversion-block" transform="translate(421.000000, 314.000000)">
                <g id="Group-5">
                    <g id="Page-1">
                        <g id="Artboard">
                            <g id="Group-19">
                                <g id="Group-16">
                                    <g id="Group-11">
                                        <g id="Group-5">
                                            <g id="Group" transform="translate(0.000000, 0.048745)">
                                                <path d="M27.8189757,41.2606058 L34.4527763,23.0622199 L34.5624259,23.0622199 L41.0865768,41.2606058 L27.8189757,41.2606058 Z M31.7115364,18.3623364 L16.4702426,57.382299 L21.788248,57.382299 L26.1742318,45.6325904 L42.7313208,45.6325904 L47.007655,57.382299 L52.7642588,57.382299 L37.4681402,18.3623364 L31.7115364,18.3623364 Z M79.6954178,57.2729994 C78.8913168,57.7466334 77.776557,57.9834469 76.3511051,57.9834469 C75.1449535,57.9834469 74.1855291,57.6464431 73.4728032,56.9724255 C72.7600774,56.2984077 72.4037197,55.1963143 72.4037197,53.6661121 C71.124468,55.1963143 69.6350759,56.2984077 67.9354987,56.9724255 C66.2359214,57.6464431 64.3993091,57.9834469 62.4256065,57.9834469 C61.1463548,57.9834469 59.931084,57.8377155 58.7797574,57.5462485 C57.6284309,57.2547813 56.6324571,56.7993708 55.7918059,56.1800033 C54.9511548,55.5606356 54.2841264,54.750005 53.7907008,53.7480868 C53.2972752,52.7461687 53.050566,51.5347766 53.050566,50.1138746 C53.050566,48.5108056 53.3246873,47.1992232 53.872938,46.1790885 C54.4211887,45.1589536 55.1430414,44.3301065 56.0385175,43.6925222 C56.9339936,43.054938 57.9573797,42.5722027 59.1087062,42.2443023 C60.2600327,41.9164018 61.438754,41.6431555 62.6449057,41.4245552 C63.9241573,41.1695214 65.1394282,40.9782491 66.2907547,40.8507322 C67.4420813,40.7232153 68.4563298,40.5410511 69.333531,40.3042342 C70.2107322,40.0674171 70.9051726,39.7213052 71.4168733,39.2658878 C71.928574,38.8104705 72.1844205,38.145571 72.1844205,37.2711698 C72.1844205,36.2510349 71.9925357,35.431296 71.6087601,34.8119285 C71.2249845,34.1925608 70.7315664,33.7189339 70.1284906,33.3910335 C69.5254147,33.063133 68.8492491,32.8445359 68.099973,32.7352358 C67.350697,32.6259356 66.6105697,32.5712864 65.8795687,32.5712864 C63.9058661,32.5712864 62.2611386,32.9447229 60.9453369,33.6916074 C59.6295352,34.4384918 58.91682,35.8502644 58.8071698,37.9269675 L54.147062,37.9269675 C54.220162,36.1781649 54.585657,34.7026348 55.243558,33.5003331 C55.9014589,32.2980313 56.7786468,31.3234528 57.8751482,30.5765684 C58.9716497,29.8296839 60.2234701,29.2922994 61.6306469,28.9643991 C63.0378237,28.6364986 64.5454906,28.4725508 66.1536927,28.4725508 C67.4329444,28.4725508 68.7030396,28.5636329 69.9640162,28.7457999 C71.2249928,28.9279668 72.3671646,29.3014033 73.390566,29.8661209 C74.4139674,30.4308383 75.2363312,31.2232526 75.8576819,32.2433875 C76.4790327,33.2635223 76.7897035,34.5933211 76.7897035,36.2328235 L76.7897035,50.7696723 C76.7897035,51.8626739 76.8536652,52.6641964 76.9815903,53.1742638 C77.1095154,53.6843311 77.5389721,53.9393612 78.269973,53.9393612 C78.6720235,53.9393612 79.1471671,53.848279 79.6954178,53.6661121 L79.6954178,57.2729994 Z M72.1295957,42.7908004 C71.544795,43.228001 70.7772554,43.5467883 69.8269542,43.747172 C68.876653,43.9475556 67.880679,44.1115033 66.8390027,44.2390203 C65.7973264,44.3665371 64.7465282,44.5122684 63.6865768,44.6762188 C62.6266254,44.8401689 61.6763385,45.1043071 60.8356873,45.468641 C59.9950362,45.8329748 59.309733,46.3521427 58.7797574,47.0261605 C58.2497818,47.7001781 57.9847978,48.6201073 57.9847978,49.7859758 C57.9847978,50.5510769 58.1401332,51.1977597 58.4508086,51.7260439 C58.761484,52.254328 59.1635286,52.6824139 59.6569542,53.0103144 C60.1503798,53.3382148 60.7260344,53.5750283 61.3839353,53.7207619 C62.0418362,53.8664953 62.7362767,53.9393612 63.4672776,53.9393612 C65.0023796,53.9393612 66.3181616,53.7298722 67.4146631,53.3108884 C68.5111645,52.8919044 69.4066272,52.3636282 70.1010782,51.7260439 C70.7955291,51.0884597 71.307222,50.3962356 71.6361725,49.6493513 C71.965123,48.9024668 72.1295957,48.2011345 72.1295957,47.5453337 L72.1295957,42.7908004 Z" id="Aa" fill="#403F3F" fill-rule="nonzero"></path>
                                                <path d="M0.0471698113,0.645172357 L0.0471698113,74.6744439" id="Line" stroke="#F88133" stroke-width="3" stroke-linecap="square"></path>
                                            </g>
                                        </g>
                                    </g>
                                </g>
                            </g>
                        </g>
                    </g>
                </g>
            </g>
        </g>
    </g>
</svg>