<?xml version="1.0" encoding="UTF-8"?>
<svg width="54px" height="53px" viewBox="0 0 54 53" version="1.1" xmlns="http://www.w3.org/2000/svg" xmlns:xlink="http://www.w3.org/1999/xlink">
    <!-- Generator: Sketch 41.2 (35397) - http://www.bohemiancoding.com/sketch -->
    <title>Group 5</title>
    <desc>Created with Sketch.</desc>
    <defs></defs>
    <g id="Page-1" stroke="none" stroke-width="1" fill="none" fill-rule="evenodd">
        <g id="Artboard" transform="translate(-893.000000, -547.000000)">
            <g id="Group-19" transform="translate(58.000000, 336.000000)">
                <g id="Group-16" transform="translate(393.000000, 66.000000)">
                    <g id="Group-11" transform="translate(271.000000, 121.000000)">
                        <g id="Group-5">
                            <g transform="translate(171.000000, 24.500000)">
                                <path d="M19.736,28.1800007 L24.092,16.1920007 L24.164,16.1920007 L28.448,28.1800007 L19.736,28.1800007 Z M22.292,13.0960007 L12.284,38.8000007 L15.776,38.8000007 L18.656,31.0600007 L29.528,31.0600007 L32.336,38.8000007 L36.116,38.8000007 L26.072,13.0960007 L22.292,13.0960007 Z M53.8,38.7280007 C53.2719974,39.0400022 52.5400047,39.1960007 51.604,39.1960007 C50.811996,39.1960007 50.1820023,38.9740029 49.714,38.5300007 C49.2459977,38.0859984 49.012,37.3600057 49.012,36.3520007 C48.1719958,37.3600057 47.1940056,38.0859984 46.078,38.5300007 C44.9619944,38.9740029 43.7560065,39.1960007 42.46,39.1960007 C41.6199958,39.1960007 40.8220038,39.1000016 40.066,38.9080007 C39.3099962,38.7159997 38.6560028,38.4160027 38.104,38.0080007 C37.5519972,37.5999986 37.1140016,37.066004 36.79,36.4060007 C36.4659984,35.7459974 36.304,34.9480053 36.304,34.0120007 C36.304,32.9559954 36.4839982,32.092004 36.844,31.4200007 C37.2040018,30.7479973 37.6779971,30.2020028 38.266,29.7820007 C38.8540029,29.3619986 39.5259962,29.0440017 40.282,28.8280007 C41.0380038,28.6119996 41.811996,28.4320014 42.604,28.2880007 C43.4440042,28.1199998 44.2419962,27.9940011 44.998,27.9100007 C45.7540038,27.8260002 46.4199971,27.7060014 46.996,27.5500007 C47.5720029,27.3939999 48.0279983,27.1660022 48.364,26.8660007 C48.7000017,26.5659992 48.868,26.1280035 48.868,25.5520007 C48.868,24.8799973 48.7420013,24.3400027 48.49,23.9320007 C48.2379987,23.5239986 47.914002,23.2120017 47.518,22.9960007 C47.121998,22.7799996 46.6780025,22.636001 46.186,22.5640007 C45.6939975,22.4920003 45.2080024,22.4560007 44.728,22.4560007 C43.4319935,22.4560007 42.3520043,22.7019982 41.488,23.1940007 C40.6239957,23.6860031 40.1560004,24.6159938 40.084,25.9840007 L37.024,25.9840007 C37.0720002,24.8319949 37.3119978,23.8600046 37.744,23.0680007 C38.1760022,22.2759967 38.7519964,21.6340031 39.472,21.1420007 C40.1920036,20.6499982 41.0139954,20.2960017 41.938,20.0800007 C42.8620046,19.8639996 43.8519947,19.7560007 44.908,19.7560007 C45.7480042,19.7560007 46.5819959,19.8160001 47.41,19.9360007 C48.2380041,20.0560013 48.9879966,20.3019988 49.66,20.6740007 C50.3320034,21.0460025 50.871998,21.5679973 51.28,22.2400007 C51.688002,22.912004 51.892,23.7879953 51.892,24.8680007 L51.892,34.4440007 C51.892,35.1640043 51.9339996,35.691999 52.018,36.0280007 C52.1020004,36.3640023 52.3839976,36.5320007 52.864,36.5320007 C53.1280013,36.5320007 53.4399982,36.4720013 53.8,36.3520007 L53.8,38.7280007 Z M48.832,29.1880007 C48.4479981,29.4760021 47.9440031,29.686 47.32,29.8180007 C46.6959969,29.9500013 46.0420034,30.0580002 45.358,30.1420007 C44.6739966,30.2260011 43.9840035,30.3220001 43.288,30.4300007 C42.5919965,30.5380012 41.9680028,30.7119995 41.416,30.9520007 C40.8639972,31.1920019 40.4140017,31.5339984 40.066,31.9780007 C39.7179983,32.4220029 39.544,33.0279968 39.544,33.7960007 C39.544,34.3000032 39.645999,34.7259989 39.85,35.0740007 C40.054001,35.4220024 40.3179984,35.7039996 40.642,35.9200007 C40.9660016,36.1360017 41.3439978,36.2920002 41.776,36.3880007 C42.2080022,36.4840011 42.6639976,36.5320007 43.144,36.5320007 C44.152005,36.5320007 45.0159964,36.394002 45.736,36.1180007 C46.4560036,35.8419993 47.0439977,35.4940028 47.5,35.0740007 C47.9560023,34.6539986 48.2919989,34.1980031 48.508,33.7060007 C48.7240011,33.2139982 48.832,32.7520028 48.832,32.3200007 L48.832,29.1880007 Z" id="Aa" fill="#403F3F"></path>
                                <path d="M1.5,1.42500067 L1.5,50.1910237" id="Line" stroke="#F88133" stroke-width="3" stroke-linecap="square"></path>
                            </g>
                        </g>
                    </g>
                </g>
            </g>
        </g>
    </g>
</svg>