<svg xmlns="http://www.w3.org/2000/svg" xmlns:xlink="http://www.w3.org/1999/xlink" width="130" height="130" version="1.1" viewBox="0 0 130 130"><title>deployment-block</title><desc>Created with Sketch.</desc><defs><rect id="path-1" width="130" height="130" x="0" y="0"/></defs><g id="Page-1" fill="none" fill-rule="evenodd" stroke="none" stroke-width="1"><g id="Artboard" transform="translate(-126.000000, -464.000000)"><g id="deployment-block" transform="translate(126.000000, 464.000000)"><mask id="mask-2" fill="#fff"><use xlink:href="#path-1"/></mask><use id="Mask" fill="#FFF" xlink:href="#path-1"/><g id="Group-6" mask="url(#mask-2)"><g><g transform="translate(8.000000, -5.000000)"><g id="Page-1"><g id="Artboard"><g id="Group-19"><g id="Group-16"><g id="Group-14"><g id="Line-+-Line-+-Line-+-Oval-2-+-Oval-2-+-Oval-Mask"><g id="Group-6" transform="translate(0.250526, 0.876445)"><path id="Line" stroke="#D8D8D8" stroke-linecap="square" d="M60.1263158,72.1188621 L108.978947,38.3131455"/><path id="Line" stroke="#D8D8D8" stroke-linecap="square" d="M60.1263158,72.1188621 L10.5221053,60.0990518"/><path id="Line" stroke="#D8D8D8" stroke-linecap="square" d="M60.1263158,72.1188621 L22.5473684,118.695627"/><path id="Line" stroke="#D8D8D8" stroke-linecap="square" d="M60.1263158,72.1188621 L78.1642105,115.690675"/><path id="Line" stroke="#D8D8D8" stroke-linecap="square" d="M60.1263158,72.1188621 L55.6168421,34.5569548"/><path id="Line" stroke="#D8D8D8" stroke-linecap="square" d="M60.1263158,72.1188621 L97.7052632,0"/><path id="Line" stroke="#D8D8D8" stroke-linecap="square" d="M60.1263158,72.1188621 L16.5347368,90.1485777"/><path id="Line" stroke="#D8D8D8" stroke-linecap="square" d="M60.1263158,72.1188621 L54.1136842,106.675817"/><path id="Line" stroke="#D8D8D8" stroke-linecap="square" d="M60.1263158,72.1188621 L34.5726316,49.5817177"/><path id="Line" stroke="#D8D8D8" stroke-linecap="square" d="M60.1263158,72.1188621 L111.233684,106.675817"/><path id="Line" stroke="#D8D8D8" stroke-linecap="square" d="M60.1263158,72.8701003 L91.6926316,72.8701003"/><ellipse id="Oval-2" cx="105.221" cy="40.567" fill="#BDBDBD" fill-rule="nonzero" stroke="#FFF" rx="12.025" ry="12.02"/><ellipse id="Oval-2" cx="25.554" cy="113.828" fill="#BDBDBD" fill-rule="nonzero" stroke="#FFF" rx="12.025" ry="12.02"/><ellipse id="Oval-2" cx="11.04" cy="60.099" fill="#BDBDBD" fill-rule="nonzero" stroke="#FFF" rx="10.522" ry="10.517"/><ellipse id="Oval-2" cx="79.667" cy="121.34" fill="#BDBDBD" fill-rule="nonzero" stroke="#FFF" rx="10.522" ry="10.517"/><ellipse id="Oval-2" cx="54.114" cy="105.925" fill="#BDBDBD" fill-rule="nonzero" stroke="#FFF" rx="8.267" ry="8.264"/><ellipse id="Oval-2" cx="54.114" cy="28.547" fill="#BDBDBD" fill-rule="nonzero" stroke="#FFF" rx="9.019" ry="9.015"/><ellipse id="Oval-2" cx="106.724" cy="99.163" fill="#BDBDBD" fill-rule="nonzero" stroke="#FFF" rx="9.019" ry="9.015"/><ellipse id="Oval-2" cx="93.196" cy="72.119" fill="#BDBDBD" fill-rule="nonzero" stroke="#FFF" rx="6.013" ry="6.01"/><ellipse id="Oval-2" cx="34.573" cy="49.582" fill="#BDBDBD" fill-rule="nonzero" stroke="#FFF" rx="6.013" ry="6.01"/><ellipse id="Oval-2" cx="19.541" cy="88.646" fill="#BDBDBD" fill-rule="nonzero" stroke="#FFF" rx="6.013" ry="6.01"/><ellipse id="Oval" cx="60.126" cy="71.939" fill="#BDBDBD" fill-rule="nonzero" stroke="#FFF" rx="18.038" ry="18.03"/></g></g></g></g></g></g></g></g></g></g></g></g></g></svg>