<svg xmlns="http://www.w3.org/2000/svg" xmlns:xlink="http://www.w3.org/1999/xlink" width="121" height="128" version="1.1" viewBox="0 0 121 128"><title>education-block</title><desc>Created with Sketch.</desc><defs><rect id="path-1" width="130" height="130" x="0" y="0"/><rect id="path-3" width="4.95" height="4.859" x=".077" y=".166"/><polygon id="path-5" points="2.568 2.087 3.079 3.104 2.024 3.097"/></defs><g id="Page-1" fill="none" fill-rule="evenodd" stroke="none" stroke-width="1"><g id="Artboard" transform="translate(-679.000000, -450.000000)"><g id="education-block" transform="translate(671.000000, 450.000000)"><mask id="mask-2" fill="#fff"><use xlink:href="#path-1"/></mask><g id="Group-4" mask="url(#mask-2)"><g><g transform="translate(10.000000, -11.000000)"><g id="Page-1"><g id="Artboard"><g id="Group-19"><g id="Group-16"><g id="Group-8"><g id="Rectangle-7" transform="translate(0.000000, 0.036656)"><g id="Group-4" transform="translate(0.000000, 0.559079)"><rect id="Rectangle-7" width="80.043" height="94.535" x="18.478" y="28.865" fill="#FFF" fill-rule="nonzero" stroke="#616161" stroke-width="2" transform="translate(58.500000, 76.132727) rotate(-30.000000) translate(-58.500000, -76.132727)"/><g id="Group-2" transform="translate(85.791516, 43.011967) rotate(1.000000) translate(-85.791516, -43.011967) translate(56.291516, 1.011967)"><g id="Rectangle-6" transform="translate(34.847738, 32.830305) rotate(30.000000) translate(-34.847738, -32.830305) translate(25.847738, 0.330305)"><g id="path-1-link" fill="#000" fill-rule="nonzero" transform="translate(0.000000, -0.000000)"><rect id="path-1" width="17.242" height="64.457" x=".057" y=".303"/></g><g id="path-1-link" fill="#FBCE27" transform="translate(0.000000, -0.000000)"><rect id="path-1" width="17.242" height="64.457" x=".057" y=".303"/></g></g><g id="Group-17" transform="translate(0.007153, 56.227355)"><polygon id="Triangle" fill="#FFEBB0" fill-rule="nonzero" stroke="#616161" stroke-width="1.8" points="11.691 4.054 22.157 23.125 3.608 23.188" transform="translate(12.882434, 13.621306) rotate(-150.000000) translate(-12.882434, -13.621306)"/><g id="Triangle" transform="translate(11.019478, 16.965252) rotate(-150.000000) translate(-11.019478, -16.965252) translate(8.019478, 13.965252)"><g id="path-3-link" fill="#616161" transform="translate(1.988641, 2.052562)"><polygon id="path-3" points=".579 .035 1.091 1.051 .035 1.044"/></g><g id="path-3-link" transform="translate(-0.000000, -0.000000)"><g id="path-3-Clipped"><mask id="mask-4" fill="#fff"><use xlink:href="#path-3"/></mask><polygon id="path-3" stroke="#616161" stroke-width="3.6" points="2.568 2.087 3.079 3.104 2.024 3.097" mask="url(#mask-4)"/><mask id="mask-6" fill="#fff"><use xlink:href="#path-5"/></mask></g></g></g></g></g><path id="Line" stroke="#E1E1E1" stroke-linecap="square" stroke-width="2" d="M13.2864407,49.8983397 L59.040832,127.279911"/></g></g></g></g></g></g></g></g></g></g></g></g></g></svg>