<?xml version="1.0" encoding="UTF-8"?>
<svg width="115px" height="48px" viewBox="0 0 115 48" version="1.1" xmlns="http://www.w3.org/2000/svg" xmlns:xlink="http://www.w3.org/1999/xlink">
    <!-- Generator: Sketch 41.2 (35397) - http://www.bohemiancoding.com/sketch -->
    <title>Group 3</title>
    <desc>Created with Sketch.</desc>
    <defs>
        <rect id="path-1" x="0" y="1.96952493" width="115" height="45.0499992" rx="2.2"></rect>
        <filter x="-50%" y="-50%" width="200%" height="200%" filterUnits="objectBoundingBox" id="filter-2">
            <feOffset dx="0" dy="-1" in="SourceAlpha" result="shadowOffsetOuter1"></feOffset>
            <feColorMatrix values="0 0 0 0 0.670588235   0 0 0 0 0.670588235   0 0 0 0 0.670588235  0 0 0 1 0" type="matrix" in="shadowOffsetOuter1" result="shadowMatrixOuter1"></feColorMatrix>
            <feOffset dx="0" dy="1" in="SourceAlpha" result="shadowOffsetOuter2"></feOffset>
            <feColorMatrix values="0 0 0 0 0.670588235   0 0 0 0 0.670588235   0 0 0 0 0.670588235  0 0 0 1 0" type="matrix" in="shadowOffsetOuter2" result="shadowMatrixOuter2"></feColorMatrix>
            <feMerge>
                <feMergeNode in="shadowMatrixOuter1"></feMergeNode>
                <feMergeNode in="shadowMatrixOuter2"></feMergeNode>
            </feMerge>
        </filter>
        <rect id="path-3" x="98.9844228" y="10.2037993" width="18.5527559" height="30.3809524" rx="3.3"></rect>
        <mask id="mask-4" maskContentUnits="userSpaceOnUse" maskUnits="objectBoundingBox" x="0" y="0" width="18.5527559" height="30.3809524" fill="white">
            <use xlink:href="#path-3"></use>
        </mask>
    </defs>
    <g id="Page-1" stroke="none" stroke-width="1" fill="none" fill-rule="evenodd">
        <g id="Artboard" transform="translate(-586.000000, -428.000000)">
            <g id="Group-19" transform="translate(58.000000, 336.000000)">
                <g id="Group-16" transform="translate(393.000000, 66.000000)">
                    <g id="Group-7">
                        <g id="Group-3">
                            <g transform="translate(135.036220, 25.904762)">
                                <g id="Rectangle-3">
                                    <use fill="black" fill-opacity="1" filter="url(#filter-2)" xlink:href="#path-1"></use>
                                    <use fill="#FFFFFF" fill-rule="evenodd" xlink:href="#path-1"></use>
                                </g>
                                <rect id="Rectangle-3" fill="#42A5F5" x="0" y="0.921905881" width="4.59129552" height="47.1428571" rx="2.2"></rect>
                                <path d="M31.8985113,29.3292347 C32.3396594,29.3292347 32.621818,29.3707708 32.7449957,29.4538441 C32.8681734,29.5369175 32.9297613,29.6930357 32.9297613,29.9222035 C32.9297613,30.1571005 32.8681734,30.3189478 32.7449957,30.4077504 C32.621818,30.4965529 32.3396594,30.5409535 31.8985113,30.5409535 L26.2781988,30.5409535 C26.0719478,30.5409535 25.9143973,30.4893915 25.8055426,30.386266 C25.6966879,30.2831405 25.6422613,30.1284545 25.6422613,29.9222035 C25.6422613,29.6930357 25.7052815,29.5369175 25.8313238,29.4538441 C25.9573661,29.3707708 26.240957,29.3292347 26.6821051,29.3292347 L28.6242926,29.3292347 L28.6242926,21.586266 L26.6821051,21.586266 C26.2524154,21.586266 25.9716891,21.5418654 25.8399176,21.4530629 C25.7081461,21.3642603 25.6422613,21.202413 25.6422613,20.967516 C25.6422613,20.7555358 25.6966879,20.5994175 25.8055426,20.4991566 C25.9143973,20.3988957 26.0776769,20.348766 26.2953863,20.348766 L32.3024176,20.348766 C32.5086686,20.348766 32.6647868,20.400328 32.7707769,20.5034535 C32.8767671,20.606579 32.9297613,20.761265 32.9297613,20.967516 C32.9297613,21.202413 32.8653088,21.3642603 32.7364019,21.4530629 C32.607495,21.5418654 32.328201,21.586266 31.8985113,21.586266 L29.9563238,21.586266 L29.9563238,29.3292347 L31.8985113,29.3292347 Z M35.7488551,29.3292347 L35.7488551,23.820641 L35.5855738,23.820641 C35.1959885,23.820641 34.9281527,23.7748081 34.7820582,23.683141 C34.6359637,23.5914739 34.5629176,23.4310588 34.5629176,23.201891 C34.5629176,22.9899108 34.6230732,22.8366571 34.7433863,22.7421254 C34.8636994,22.6475937 35.0584891,22.6003285 35.3277613,22.6003285 L36.5566676,22.6003285 C36.7113559,22.6003285 36.8316671,22.6318386 36.9176051,22.6948597 C37.003543,22.7578809 37.0465113,22.8438175 37.0465113,22.9526722 L37.0465113,23.5370472 C37.4647426,23.147462 37.8786707,22.8595742 38.2883082,22.6733754 C38.6979457,22.4871765 39.123332,22.3940785 39.5644801,22.3940785 C40.4295886,22.3940785 41.1099203,22.6633466 41.6054957,23.201891 C42.1010711,23.7404354 42.3488551,24.4852196 42.3488551,25.436266 L42.3488551,29.3292347 L42.7527613,29.3292347 C43.0392211,29.3292347 43.245469,29.3764999 43.3715113,29.4710316 C43.4975536,29.5655633 43.5605738,29.7159525 43.5605738,29.9222035 C43.5605738,30.1456421 43.4932568,30.3046249 43.3586207,30.3991566 C43.2239846,30.4936883 42.9847943,30.5409535 42.6410426,30.5409535 L40.7418238,30.5409535 C40.3751553,30.5409535 40.1402618,30.4979852 40.0371363,30.4120472 C39.9340108,30.3261093 39.8824488,30.1628297 39.8824488,29.9222035 C39.8824488,29.6987649 39.9426045,29.5440789 40.0629176,29.458141 C40.1832307,29.3722031 40.4095305,29.3292347 40.7418238,29.3292347 L41.0426051,29.3292347 L41.0426051,25.7542347 C41.0426051,25.0839189 40.8907837,24.5725959 40.5871363,24.2202504 C40.283489,23.8679049 39.8423476,23.6917347 39.2636988,23.6917347 C38.6793209,23.6917347 38.1637011,23.889389 37.7168238,24.2847035 C37.2699466,24.680018 37.0465113,25.1698568 37.0465113,25.7542347 L37.0465113,29.3292347 L37.3472926,29.3292347 C37.6910443,29.3292347 37.9230732,29.3722031 38.0433863,29.458141 C38.1636994,29.5440789 38.2238551,29.6987649 38.2238551,29.9222035 C38.2238551,30.1628297 38.1722931,30.3261093 38.0691676,30.4120472 C37.9660421,30.4979852 37.7139612,30.5409535 37.3129176,30.5409535 L35.2847926,30.5409535 C35.0498956,30.5409535 34.8737255,30.4908238 34.756277,30.3905629 C34.6388284,30.290302 34.5801051,30.1341837 34.5801051,29.9222035 C34.5801051,29.6930357 34.6474221,29.5369175 34.7820582,29.4538441 C34.9166943,29.3707708 35.178801,29.3292347 35.5683863,29.3292347 L35.7488551,29.3292347 Z M58.0073551,32.6722035 L59.4511051,32.6722035 C59.6172518,32.6722035 59.7518858,32.7180364 59.8550113,32.8097035 C59.9581369,32.9013706 60.0096988,33.0245465 60.0096988,33.1792347 C60.0096988,33.3453814 59.9610014,33.4785832 59.8636051,33.5788441 C59.7662088,33.679105 59.6344393,33.7292347 59.4682926,33.7292347 L57.1565738,33.7292347 C56.9789688,33.7292347 56.8300119,33.6748082 56.7096988,33.5659535 C56.5893857,33.4570988 56.5292301,33.3224647 56.5292301,33.1620472 L56.5292301,20.9159535 C56.5292301,20.755536 56.5893857,20.620902 56.7096988,20.5120472 C56.8300119,20.4031925 56.9789688,20.348766 57.1565738,20.348766 L59.4682926,20.348766 C59.6344393,20.348766 59.7662088,20.3960312 59.8636051,20.4905629 C59.9610014,20.5850946 60.0096988,20.7154318 60.0096988,20.8815785 C60.0096988,21.0362668 59.9581369,21.1623072 59.8550113,21.2597035 C59.7518858,21.3570998 59.6172518,21.4057972 59.4511051,21.4057972 L58.0073551,21.4057972 L58.0073551,32.6722035 Z M65.8709801,21.3198597 L65.703402,21.345641 C65.6661622,21.3513702 65.6332198,21.3542347 65.6045739,21.3542347 C65.4269688,21.3542347 65.2823088,21.304105 65.1705895,21.2038441 C65.0588702,21.1035832 65.0030114,20.9703814 65.0030114,20.8042347 C65.0030114,20.6667341 65.0517088,20.5464228 65.1491051,20.4432972 C65.2465014,20.3401717 65.3868646,20.2628288 65.5701989,20.211266 L68.1225426,19.523766 C68.1855637,19.5065784 68.2471517,19.4936879 68.3073082,19.4850941 C68.3674648,19.4765003 68.4290527,19.4722035 68.4920739,19.4722035 C68.6009286,19.4722035 68.6868652,19.5223332 68.7498864,19.6225941 C68.8129075,19.722855 68.8444176,19.8589214 68.8444176,20.0307972 L68.8444176,29.3292347 L70.2194176,29.3292347 C70.729316,29.3292347 71.0530107,29.3707708 71.1905114,29.4538441 C71.328012,29.5369175 71.3967614,29.6930357 71.3967614,29.9222035 C71.3967614,30.1284545 71.3394703,30.2831405 71.2248864,30.386266 C71.1103024,30.4893915 70.9384292,30.5409535 70.7092614,30.5409535 L65.5701989,30.5409535 C65.341031,30.5409535 65.1691578,30.4893915 65.0545739,30.386266 C64.9399899,30.2831405 64.8826989,30.1284545 64.8826989,29.9222035 C64.8826989,29.6930357 64.9514482,29.5369175 65.0889489,29.4538441 C65.2264495,29.3707708 65.5501442,29.3292347 66.0600426,29.3292347 L67.4866051,29.3292347 L67.4866051,20.933141 L65.8709801,21.3198597 Z M77.8510114,21.4057972 L76.4072614,21.4057972 C76.2353855,21.4057972 76.0993192,21.3585321 75.9990582,21.2640004 C75.8987973,21.1694687 75.8486676,21.041996 75.8486676,20.8815785 C75.8486676,20.7154318 75.8959328,20.5850946 75.9904645,20.4905629 C76.0849962,20.3960312 76.218198,20.348766 76.3900739,20.348766 L78.6931989,20.348766 C78.8765331,20.348766 79.0283545,20.4031925 79.1486676,20.5120472 C79.2689807,20.620902 79.3291364,20.755536 79.3291364,20.9159535 L79.3291364,33.1620472 C79.3291364,33.3224647 79.2689807,33.4570988 79.1486676,33.5659535 C79.0283545,33.6748082 78.8765331,33.7292347 78.6931989,33.7292347 L76.3900739,33.7292347 C76.2239272,33.7292347 76.0921577,33.679105 75.9947614,33.5788441 C75.897365,33.4785832 75.8486676,33.3453814 75.8486676,33.1792347 C75.8486676,33.0188173 75.8987973,32.8942092 75.9990582,32.8054066 C76.0993192,32.7166041 76.2353855,32.6722035 76.4072614,32.6722035 L77.8510114,32.6722035 L77.8510114,21.4057972 Z M85.5599489,24.3792347 C85.5599489,23.9323575 85.7160671,23.5656945 86.0283082,23.2792347 C86.3405494,22.992775 86.7458839,22.8495472 87.2443239,22.8495472 C87.7542222,22.8495472 88.1638536,22.9899104 88.4732301,23.270641 C88.7826067,23.5513716 88.9372926,23.9208991 88.9372926,24.3792347 C88.9372926,24.8375704 88.7811744,25.2070979 88.4689332,25.4878285 C88.1566921,25.7685591 87.7484931,25.9089222 87.2443239,25.9089222 C86.7401547,25.9089222 86.3333879,25.7685591 86.0240114,25.4878285 C85.7146348,25.2070979 85.5599489,24.8375704 85.5599489,24.3792347 Z M85.5599489,29.1315785 C85.5599489,28.6847013 85.7160671,28.3180383 86.0283082,28.0315785 C86.3405494,27.7451187 86.7458839,27.601891 87.2443239,27.601891 C87.7542222,27.601891 88.1638536,27.7422542 88.4732301,28.0229847 C88.7826067,28.3037153 88.9372926,28.6732429 88.9372926,29.1315785 C88.9372926,29.5899141 88.7811744,29.9594417 88.4689332,30.2401722 C88.1566921,30.5209028 87.7484931,30.661266 87.2443239,30.661266 C86.7401547,30.661266 86.3333879,30.5209028 86.0240114,30.2401722 C85.7146348,29.9594417 85.5599489,29.5899141 85.5599489,29.1315785 Z" id="In-[1]:" fill="#303F9F"></path>
                                <use id="Rectangle-5" stroke="#CFCFCF" mask="url(#mask-4)" stroke-width="2.2" fill="#F7F7F7" xlink:href="#path-3"></use>
                            </g>
                        </g>
                    </g>
                </g>
            </g>
        </g>
    </g>
</svg>