<?xml version="1.0" encoding="UTF-8" standalone="no"?>
<svg width="126px" height="52px" viewBox="0 0 126 52" version="1.1" xmlns="http://www.w3.org/2000/svg" xmlns:xlink="http://www.w3.org/1999/xlink">
    <!-- Generator: Sketch 42 (36781) - http://www.bohemiancoding.com/sketch -->
    <title>interfaces-blockdoc</title>
    <desc>Created with Sketch.</desc>
    <defs>
        <rect id="path-1" x="0.0425248766" y="0.217021672" width="19.73452" height="32.3520498" rx="3.3"></rect>
    </defs>
    <g id="Page-1" stroke="none" stroke-width="1" fill="none" fill-rule="evenodd">
        <g id="Artboard" transform="translate(-674.000000, -326.000000)">
            <g id="interfaces-block" transform="translate(674.000000, 325.000000)">
                <g id="Page-1">
                    <g id="Artboard">
                        <g id="Group-19">
                            <g id="Group-16">
                                <g id="Group-7">
                                    <g id="Group-3">
                                        <g id="Group" transform="translate(0.038527, 0.963462)">
                                            <g id="Rectangle-3" transform="translate(0.000000, 2.069483)">
                                                <g id="path-1-link" fill-rule="nonzero" fill="#000000">
                                                    <rect id="path-1" x="0" y="0.0278239177" width="122.325212" height="47.9728152" rx="2.2"></rect>
                                                </g>
                                                <g id="path-1-link" fill="#FFFFFF">
                                                    <rect id="path-1" x="0" y="0.0278239177" width="122.325212" height="47.9728152" rx="2.2"></rect>
                                                </g>
                                            </g>
                                            <rect id="Rectangle-3" fill="#42A5F5" fill-rule="nonzero" x="0" y="0.981718563" width="4.88374954" height="50.2014565" rx="2.2"></rect>
                                            <path d="M33.9303665,31.2320973 C34.3996147,31.2320973 34.6997461,31.2763282 34.8307699,31.3647913 C34.9617937,31.4532544 35.0273046,31.6195015 35.0273046,31.8635375 C35.0273046,32.1136745 34.9617937,32.2860224 34.8307699,32.3805864 C34.6997461,32.4751504 34.3996147,32.5224316 33.9303665,32.5224316 L27.9520542,32.5224316 C27.7326655,32.5224316 27.5650795,32.4675243 27.449291,32.3577081 C27.3335025,32.2478919 27.2756091,32.08317 27.2756091,31.8635375 C27.2756091,31.6195015 27.3426435,31.4532544 27.4767144,31.3647913 C27.6107853,31.2763282 27.9124402,31.2320973 28.3816883,31.2320973 L30.4475883,31.2320973 L30.4475883,22.9867696 L28.3816883,22.9867696 C27.9246285,22.9867696 27.6260206,22.9394883 27.4858556,22.8449243 C27.3456906,22.7503603 27.2756091,22.5780124 27.2756091,22.3278754 C27.2756091,22.1021421 27.3335025,21.9358949 27.449291,21.8291292 C27.5650795,21.7223634 27.7387596,21.6689813 27.9703365,21.6689813 L34.3600007,21.6689813 C34.5793893,21.6689813 34.7454519,21.7238886 34.8581933,21.8337049 C34.9709348,21.9435211 35.0273046,22.108243 35.0273046,22.3278754 C35.0273046,22.5780124 34.9587466,22.7503603 34.8216287,22.8449243 C34.6845107,22.9394883 34.3874264,22.9867696 33.9303665,22.9867696 L31.8644666,22.9867696 L31.8644666,31.2320973 L33.9303665,31.2320973 Z M38.0259676,31.2320973 L38.0259676,25.3661094 L37.8522857,25.3661094 C37.4378848,25.3661094 37.1529885,25.3173029 36.9975882,25.2196885 C36.8421878,25.1220741 36.7644888,24.9512514 36.7644888,24.7072153 C36.7644888,24.481482 36.8284762,24.3182853 36.956453,24.2176204 C37.0844297,24.1169555 37.291627,24.0666238 37.5780512,24.0666238 L38.8852357,24.0666238 C39.0497773,24.0666238 39.177752,24.1001783 39.269164,24.1672881 C39.360576,24.2343981 39.4062812,24.3259102 39.4062812,24.4418274 L39.4062812,25.0641162 C39.8511528,24.649255 40.2914471,24.3426892 40.7271775,24.1444099 C41.1629079,23.9461306 41.6153902,23.8469924 42.0846383,23.8469924 C43.0048521,23.8469924 43.7285192,24.1337305 44.2556615,24.7072153 C44.7828038,25.2807001 45.0463711,26.0738055 45.0463711,27.0865552 L45.0463711,31.2320973 L45.4760051,31.2320973 C45.7807116,31.2320973 46.000097,31.282429 46.1341679,31.3830939 C46.2682388,31.4837587 46.3352732,31.6439051 46.3352732,31.8635375 C46.3352732,32.1014727 46.2636683,32.2707702 46.1204562,32.371435 C45.9772441,32.4720999 45.722818,32.5224316 45.3571702,32.5224316 L43.3369759,32.5224316 C42.9469515,32.5224316 42.6970959,32.4766756 42.5874016,32.385162 C42.4777072,32.2936485 42.4228609,32.1197754 42.4228609,31.8635375 C42.4228609,31.6256024 42.4868483,31.4608804 42.6148251,31.3693669 C42.7428018,31.2778534 42.9835163,31.2320973 43.3369759,31.2320973 L43.6569162,31.2320973 L43.6569162,27.4251535 C43.6569162,26.711348 43.4954242,26.1668507 43.1724352,25.7916452 C42.8494463,25.4164398 42.3802053,25.2288398 41.764698,25.2288398 C41.1430967,25.2288398 40.5946332,25.4393178 40.119291,25.86028 C39.6439488,26.2812423 39.4062812,26.8028615 39.4062812,27.4251535 L39.4062812,31.2320973 L39.7262216,31.2320973 C40.0918694,31.2320973 40.3386779,31.2778534 40.4666547,31.3693669 C40.5946314,31.4608804 40.6586189,31.6256024 40.6586189,31.8635375 C40.6586189,32.1197754 40.6037725,32.2936485 40.4940782,32.385162 C40.3843839,32.4766756 40.116246,32.5224316 39.689657,32.5224316 L37.5323455,32.5224316 C37.2824861,32.5224316 37.0950944,32.4690496 36.9701648,32.3622838 C36.845235,32.255518 36.7827712,32.0892709 36.7827712,31.8635375 C36.7827712,31.6195015 36.8543761,31.4532544 36.9975882,31.3647913 C37.1408002,31.2763282 37.4196025,31.2320973 37.8340034,31.2320973 L38.0259676,31.2320973 Z M61.7022783,34.7919558 L63.2379915,34.7919558 C63.4147214,34.7919558 63.5579312,34.8407623 63.6676255,34.9383767 C63.77732,35.0359911 63.8321663,35.1671586 63.8321663,35.3318829 C63.8321663,35.5088091 63.7803669,35.6506529 63.6767667,35.7574187 C63.5731665,35.8641845 63.4330037,35.9175666 63.2562738,35.9175666 L60.7973043,35.9175666 C60.6083863,35.9175666 60.4499413,35.8596089 60.3219645,35.7436918 C60.1939878,35.6277746 60.1300004,35.4844056 60.1300004,35.3135803 L60.1300004,22.2729676 C60.1300004,22.1021423 60.1939878,21.9587733 60.3219645,21.8428561 C60.4499413,21.726939 60.6083863,21.6689813 60.7973043,21.6689813 L63.2562738,21.6689813 C63.4330037,21.6689813 63.5731665,21.7193131 63.6767667,21.8199779 C63.7803669,21.9206428 63.8321663,22.0594362 63.8321663,22.2363624 C63.8321663,22.4010868 63.77732,22.5353046 63.6676255,22.6390199 C63.5579312,22.7427352 63.4147214,22.7945921 63.2379915,22.7945921 L61.7022783,22.7945921 L61.7022783,34.7919558 Z M70.0667965,22.703079 L69.8885441,22.730533 C69.8489322,22.7366339 69.8138914,22.7396842 69.7834209,22.7396842 C69.5945028,22.7396842 69.4406283,22.6863021 69.3217928,22.5795364 C69.2029572,22.4727706 69.1435404,22.3309268 69.1435404,22.1540006 C69.1435404,22.007579 69.1953397,21.879462 69.2989399,21.7696457 C69.4025401,21.6598294 69.551844,21.5774686 69.7468563,21.5225604 L72.4617779,20.7904558 C72.5288133,20.7721531 72.5943243,20.7584263 72.6583126,20.7492749 C72.722301,20.7401236 72.7878119,20.735548 72.8548474,20.735548 C72.9706359,20.735548 73.0620464,20.7889301 73.1290819,20.8956958 C73.1961173,21.0024616 73.2296345,21.1473559 73.2296345,21.3303829 L73.2296345,31.2320973 L74.6922186,31.2320973 C75.2345962,31.2320973 75.5789094,31.2763282 75.7251686,31.3647913 C75.8714276,31.4532544 75.9445562,31.6195015 75.9445562,31.8635375 C75.9445562,32.08317 75.8836158,32.2478919 75.7617332,32.3577081 C75.6398505,32.4675243 75.4570294,32.5224316 75.2132642,32.5224316 L69.7468563,32.5224316 C69.503091,32.5224316 69.3202699,32.4675243 69.1983873,32.3577081 C69.0765045,32.2478919 69.0155642,32.08317 69.0155642,31.8635375 C69.0155642,31.6195015 69.0886927,31.4532544 69.2349519,31.3647913 C69.3812109,31.2763282 69.7255241,31.2320973 70.2679018,31.2320973 L71.7853327,31.2320973 L71.7853327,22.2912702 L70.0667965,22.703079 Z M82.8099258,22.7945921 L81.2742125,22.7945921 C81.0913885,22.7945921 80.9466552,22.7442604 80.8400078,22.6435956 C80.7333605,22.5429307 80.6800377,22.4071877 80.6800377,22.2363624 C80.6800377,22.0594362 80.7303136,21.9206428 80.8308667,21.8199779 C80.9314198,21.7193131 81.0731062,21.6689813 81.2559302,21.6689813 L83.7057585,21.6689813 C83.9007706,21.6689813 84.0622627,21.726939 84.1902394,21.8428561 C84.3182162,21.9587733 84.3822036,22.1021423 84.3822036,22.2729676 L84.3822036,35.3135803 C84.3822036,35.4844056 84.3182162,35.6277746 84.1902394,35.7436918 C84.0622627,35.8596089 83.9007706,35.9175666 83.7057585,35.9175666 L81.2559302,35.9175666 C81.0792004,35.9175666 80.9390375,35.8641845 80.8354373,35.7574187 C80.731837,35.6506529 80.6800377,35.5088091 80.6800377,35.3318829 C80.6800377,35.1610577 80.7333605,35.0283651 80.8400078,34.9338011 C80.9466552,34.8392371 81.0913885,34.7919558 81.2742125,34.7919558 L82.8099258,34.7919558 L82.8099258,22.7945921 Z M91.0099033,25.9609443 C91.0099033,25.485074 91.1759658,25.0946222 91.5080959,24.789577 C91.8402261,24.484532 92.2713794,24.3320117 92.8015687,24.3320117 C93.3439463,24.3320117 93.7796702,24.4814815 94.1087532,24.7804258 C94.4378363,25.07937 94.6023753,25.4728722 94.6023753,25.9609443 C94.6023753,26.4490166 94.4363128,26.8425188 94.1041826,27.141463 C93.7720525,27.4404073 93.3378522,27.589877 92.8015687,27.589877 C92.2652852,27.589877 91.8326084,27.4404073 91.5035254,27.141463 C91.1744423,26.8425188 91.0099033,26.4490166 91.0099033,25.9609443 Z M91.0099033,31.0216173 C91.0099033,30.5457469 91.1759658,30.1552951 91.5080959,29.8502499 C91.8402261,29.5452048 92.2713794,29.3926846 92.8015687,29.3926846 C93.3439463,29.3926846 93.7796702,29.5421545 94.1087532,29.8410986 C94.4378363,30.1400428 94.6023753,30.5335451 94.6023753,31.0216173 C94.6023753,31.5096894 94.4363128,31.9031917 94.1041826,32.2021358 C93.7720525,32.5010801 93.3378522,32.6505499 92.8015687,32.6505499 C92.2652852,32.6505499 91.8326084,32.5010801 91.5035254,32.2021358 C91.1744423,31.9031917 91.0099033,31.5096894 91.0099033,31.0216173 Z" id="In-[1]:" fill="#303F9F" fill-rule="nonzero"></path>
                                            <g id="Rectangle-5" transform="translate(105.246958, 10.648794)">
                                                <g id="path-3-Clipped">
                                                    <mask id="mask-2" fill="white">
                                                        <use xlink:href="#path-1"></use>
                                                    </mask>
                                                    <g id="path-3"></g>
                                                    <rect id="path-3" stroke="#CFCFCF" stroke-width="2.2" fill="#F7F7F7" fill-rule="nonzero" mask="url(#mask-2)" x="0.0425248766" y="0.217021672" width="19.73452" height="32.3520498" rx="3.3"></rect>
                                                </g>
                                            </g>
                                        </g>
                                    </g>
                                </g>
                            </g>
                        </g>
                    </g>
                </g>
            </g>
        </g>
    </g>
</svg>