<?xml version="1.0" encoding="utf-8"?>
<!-- Generator: Adobe Illustrator 19.2.1, SVG Export Plug-In . SVG Version: 6.00 Build 0)  -->
<svg version="1.1" id="Layer_1" xmlns="http://www.w3.org/2000/svg" xmlns:xlink="http://www.w3.org/1999/xlink" x="0px" y="0px"
	 viewBox="0 0 114 38" style="enable-background:new 0 0 114 38;" xml:space="preserve">
<style type="text/css">
	.st0{enable-background:new    ;}
	.st1{fill:#161616;}
	.st2{fill:#4079B2;}
</style>
<title>Group 2</title>
<desc>Created with Sketch.</desc>
<g class="st0">
	<path class="st1" d="M6.7,30.8V4.5H0.3V0.3h17.4v4.2h-6.4v26.3h6.4V35H0.3v-4.2H6.7z"/>
	<path class="st1" d="M29.4,35V0.3h12c3.5,0,6.1,0.8,7.8,2.5c1.8,1.7,2.7,4.2,2.7,7.4c0,1.7-0.3,3.3-0.9,4.6
		c-0.6,1.4-1.5,2.5-2.6,3.4c-0.9,0.7-2,1.2-3.2,1.6c-1.2,0.3-3.2,0.5-6,0.5H34V35H29.4z M40.2,4.6H34v11.5h5.8
		c2.7,0,4.6-0.4,5.7-1.3c1.1-0.9,1.6-2.4,1.6-4.5c0-2.1-0.5-3.5-1.6-4.4C44.5,5,42.7,4.6,40.2,4.6z"/>
</g>
<g class="st0">
	<path class="st2" d="M65.9,33.7h3.6V36h-6.6V6.4h6.6v2.3h-3.6V33.7z"/>
</g>
<g class="st0">
	<path class="st1" d="M86.5,11.7h3.2l-7.4,20.6c-0.7,1.9-1.4,3.2-2.2,3.8s-1.9,0.9-3.3,0.9c-0.7,0-1.2,0-1.7-0.1s-0.9-0.1-1.2-0.2
		v-2.9c0.6,0.1,1.1,0.2,1.5,0.2s0.8,0.1,1.2,0.1c0.7,0,1.2-0.1,1.6-0.4s0.7-0.6,0.9-1.2l0.6-1.7l-6.9-19.3h3.3l5.1,15L86.5,11.7z"/>
</g>
<g class="st0">
	<path class="st2" d="M95.9,33.7v-25h-3.6V6.4h6.6V36h-6.6v-2.3H95.9z"/>
</g>
<g class="st0">
	<path class="st2" d="M109.1,16.8v-5.1h4.7v5.1H109.1z M109.1,30v-5.1h4.7V30H109.1z"/>
</g>
</svg>
