<?xml version="1.0" encoding="UTF-8"?>
<svg width="90px" height="88px" viewBox="0 0 90 88" version="1.1" xmlns="http://www.w3.org/2000/svg" xmlns:xlink="http://www.w3.org/1999/xlink">
    <!-- Generator: Sketch 41.2 (35397) - http://www.bohemiancoding.com/sketch -->
    <title>Combined Shape</title>
    <desc>Created with Sketch.</desc>
    <defs></defs>
    <g id="Page-1" stroke="none" stroke-width="1" fill="none" fill-rule="evenodd">
        <g id="Artboard" transform="translate(-1139.000000, -414.000000)" fill="#FAA166">
            <g id="Group-19" transform="translate(58.000000, 336.000000)">
                <g id="Group-16" transform="translate(393.000000, 66.000000)">
                    <g id="Group-9" transform="translate(541.000000, 0.000000)">
                        <g id="planetlogo-orangebody-greyplanets">
                            <g id="Oval-3">
                                <g id="Rectangle-2">
                                    <path d="M167.378103,49.8806103 C169.314052,49.54653 176.89733,48.627533 183.890827,53.1420397 C184.900064,53.7935315 185.895802,54.481231 186.861085,55.21451 L186.861085,32.2603421 L181.929359,32.2603421 C180.820108,32.2603421 180.367546,31.494633 180.92512,30.5387906 L191.061999,13.1612842 C191.616624,12.2104976 192.512901,12.2054418 193.070476,13.1612842 L203.207354,30.5387906 C203.76198,31.4895772 203.318265,32.2603421 202.203116,32.2603421 L197.27139,32.2603421 L197.27139,55.2251338 C198.241037,54.4878721 199.241517,53.7966768 200.255626,53.1420397 C207.084041,48.7340986 214.474721,49.5061715 216.621897,49.8560537 L216.621897,45.0765472 C216.621897,43.9672962 217.387606,43.5147342 218.343449,44.0723089 L235.720955,54.2091876 C236.671742,54.7638131 236.676798,55.6600896 235.720955,56.2176643 L218.343449,66.3545431 C217.392662,66.9091686 216.621897,66.4654541 216.621897,65.3503047 L216.621897,60.4115579 C214.921625,60.1789197 209.955069,59.8590356 204.882358,62.9605802 C198.942339,66.5924119 197.421878,72.0029789 197.282386,74.7481878 C197.28437,74.8868629 197.285368,75.0263015 197.285368,75.1665099 L197.285368,109 L192.073227,109 L186.861085,109 L186.861085,87.3118653 L186.861085,74.6927906 C186.704055,71.9307372 185.164415,66.5681392 179.264096,62.9605802 C174.036573,59.7643809 168.921782,60.2016312 167.378103,60.4325137 L167.378103,65.3503047 C167.378103,66.4654541 166.607338,66.9091686 165.656551,66.3545431 L148.279045,56.2176643 C147.323202,55.6600896 147.328258,54.7638131 148.279045,54.2091876 L165.656551,44.0723089 C166.612394,43.5147342 167.378103,43.9672962 167.378103,45.0765472 L167.378103,49.8806103 Z" id="Combined-Shape"></path>
                                </g>
                            </g>
                        </g>
                    </g>
                </g>
            </g>
        </g>
    </g>
</svg>