<?xml version="1.0" encoding="UTF-8"?>
<svg width="92px" height="59px" viewBox="0 0 92 59" version="1.1" xmlns="http://www.w3.org/2000/svg" xmlns:xlink="http://www.w3.org/1999/xlink">
    <!-- Generator: Sketch 41.2 (35397) - http://www.bohemiancoding.com/sketch -->
    <title>lab</title>
    <desc>Created with Sketch.</desc>
    <defs></defs>
    <g id="Page-1" stroke="none" stroke-width="1" fill="none" fill-rule="evenodd" opacity="0.75">
        <g id="Artboard" transform="translate(-1138.000000, -674.000000)" fill="#F88133">
            <g id="Group-19" transform="translate(58.000000, 336.000000)">
                <g id="Group-16" transform="translate(393.000000, 66.000000)">
                    <g id="Group-15" transform="translate(541.000000, 240.000000)">
                        <g id="lab">
                            <path d="M146.27516,89.5166858 L153.287791,89.5166858 L153.287791,32.9375 L146.27516,32.9375 L146.27516,89.5166858 Z M191.556898,89.5166858 C191.078764,86.886949 190.919386,83.6197002 190.919386,80.2727625 L190.919386,65.8490545 C190.919386,58.1192221 188.050582,50.0706337 176.256611,50.0706337 C171.395582,50.0706337 166.773621,51.4253466 163.586061,53.4972605 L165.179841,58.1192221 C167.889267,56.3660642 171.634649,55.2504183 175.220654,55.2504183 C183.109865,55.2504183 183.986444,60.9880259 183.986444,64.1755857 L183.986444,64.9724756 C169.084602,64.8927866 160.796946,69.9928822 160.796946,79.3164945 C160.796946,84.8947241 164.781396,90.3932647 172.590917,90.3932647 C178.089458,90.3932647 182.233286,87.6838389 184.384889,84.6556571 L184.623955,84.6556571 L185.181778,89.5166858 L191.556898,89.5166858 Z M184.145822,76.5273797 C184.145822,77.2445807 183.986444,78.0414706 183.747377,78.7586716 C182.631731,82.0259203 179.444171,85.2134801 174.423764,85.2134801 C170.83776,85.2134801 167.809578,83.0618772 167.809578,78.5196046 C167.809578,71.0288391 176.495678,69.6741262 184.145822,69.8335042 L184.145822,76.5273797 Z M206.716197,89.5166858 L207.034953,83.1415662 L207.27402,83.1415662 C210.142823,88.2416619 214.605407,90.3932647 220.183637,90.3932647 C228.790048,90.3932647 237.476148,83.5400112 237.476148,69.7538152 C237.555837,58.0395331 230.782273,50.0706337 221.219594,50.0706337 C215.003852,50.0706337 210.541268,52.8597485 208.07091,57.1629542 L207.911532,57.1629542 L207.911532,32.9375 L200.978589,32.9375 L200.978589,79.5555615 C200.978589,82.9821882 200.819211,86.886949 200.659833,89.5166858 L206.716197,89.5166858 Z M207.911532,67.1240784 C207.911532,66.0084325 208.150599,65.0521646 208.309976,64.2552747 C209.744378,58.9161121 214.206962,55.6488633 218.988302,55.6488633 C226.479067,55.6488633 230.463517,62.2630498 230.463517,69.9928822 C230.463517,78.8383606 226.080622,84.8150351 218.749235,84.8150351 C213.649139,84.8150351 209.585,81.4680974 208.230288,76.6070687 C208.07091,75.8101788 207.911532,74.9335999 207.911532,74.0570209 L207.911532,67.1240784 Z"></path>
                        </g>
                    </g>
                </g>
            </g>
        </g>
    </g>
</svg>