<?xml version="1.0" encoding="UTF-8" standalone="no"?>
<svg width="82px" height="52px" viewBox="0 0 82 52" version="1.1" xmlns="http://www.w3.org/2000/svg" xmlns:xlink="http://www.w3.org/1999/xlink">
    <!-- Generator: Sketch 42 (36781) - http://www.bohemiancoding.com/sketch -->
    <title>jupyterlab-block</title>
    <desc>Created with Sketch.</desc>
    <defs></defs>
    <g id="Page-1" stroke="none" stroke-width="1" fill="none" fill-rule="evenodd" opacity="0.75">
        <g id="Artboard" transform="translate(-417.000000, -137.000000)" fill-rule="nonzero" fill="#F88133">
            <g id="jupyterlab-block" transform="translate(417.000000, 137.000000)">
                <g id="lab">
                    <g id="Page-1">
                        <g id="Artboard">
                            <g id="Group-19">
                                <g id="Group-16">
                                    <g id="Group-15">
                                        <g id="lab">
                                            <path d="M0.245251304,50.6745149 L6.4956398,50.6745149 L6.4956398,0.115524953 L0.245251304,0.115524953 L0.245251304,50.6745149 Z M40.6050613,50.6745149 C40.1788983,48.32459 40.036844,45.4049863 40.036844,42.4141729 L40.036844,29.5251909 C40.036844,22.6178359 37.4798666,15.4256416 26.9678489,15.4256416 C22.6351927,15.4256416 18.5156187,16.636209 15.6745326,18.487665 L17.0950757,22.6178359 C19.5099988,21.0512193 22.8482741,20.0542815 26.044496,20.0542815 C33.076184,20.0542815 33.8574827,25.1813904 33.8574827,28.0297842 L33.8574827,28.7418826 C20.5754061,28.6706728 13.1885823,33.2281028 13.1885823,41.5596547 C13.1885823,46.5443439 16.7399399,51.4578232 23.7005999,51.4578232 C28.6014734,51.4578232 32.2948853,49.0366884 34.2126185,46.3307143 L34.425699,46.3307143 L34.9228891,50.6745149 L40.6050613,50.6745149 Z M33.999537,39.0673101 C33.999537,39.7081988 33.8574827,40.4202972 33.6444012,41.0611858 C32.6500211,43.9807894 29.808935,46.8291833 25.3342244,46.8291833 C22.1380035,46.8291833 19.4389717,44.9065174 19.4389717,40.8475563 C19.4389717,34.1538308 27.1809304,32.9432634 33.999537,33.0856831 L33.999537,39.0673101 Z M54.1166104,50.6745149 L54.400719,44.9777272 L54.6138004,44.9777272 C57.170777,49.5351574 61.1482975,51.4578232 66.1201982,51.4578232 C73.7911297,51.4578232 81.5330884,45.3337765 81.5330884,33.0144733 C81.6041156,22.5466261 75.5668085,15.4256416 67.0435512,15.4256416 C61.5034333,15.4256416 57.5259128,17.9179862 55.324072,21.7633178 L55.1820177,21.7633178 L55.1820177,0.115524953 L49.0026554,0.115524953 L49.0026554,41.7732842 C49.0026554,44.8353075 48.8606011,48.32459 48.7185468,50.6745149 L54.1166104,50.6745149 Z M55.1820177,30.6645484 C55.1820177,29.6676106 55.3950991,28.8130925 55.5371525,28.1009941 C56.8156413,23.3299344 60.7931618,20.4103308 65.0547909,20.4103308 C71.7313423,20.4103308 75.2826999,26.3207479 75.2826999,33.2281028 C75.2826999,41.1323957 71.3762066,46.473134 64.8417095,46.473134 C60.2959717,46.473134 56.673587,43.4823206 55.4661263,39.13852 C55.324072,38.4264215 55.1820177,37.6431133 55.1820177,36.8598049 L55.1820177,30.6645484 Z" id="Shape"></path>
                                        </g>
                                    </g>
                                </g>
                            </g>
                        </g>
                    </g>
                </g>
            </g>
        </g>
    </g>
</svg>