<?xml version="1.0" encoding="UTF-8" standalone="no"?>
<svg width="114px" height="123px" viewBox="0 0 114 123" version="1.1" xmlns="http://www.w3.org/2000/svg" xmlns:xlink="http://www.w3.org/1999/xlink">
    <!-- Generator: Sketch 42 (36781) - http://www.bohemiancoding.com/sketch -->
    <title>jupyterhub_blockdoc</title>
    <desc>Created with Sketch.</desc>
    <defs></defs>
    <g id="Page-1" stroke="none" stroke-width="1" fill="none" fill-rule="evenodd">
        <g id="Artboard" transform="translate(-674.000000, -106.000000)" fill-rule="nonzero" fill="#FAA166">
            <g id="jupyterhub_block" transform="translate(674.000000, 106.000000)">
                <g id="Combined-Shape">
                    <g id="Page-1">
                        <g id="Artboard">
                            <g id="Group-19">
                                <g id="Group-16">
                                    <g id="Group-9">
                                        <g id="planetlogo-orangebody-greyplanets">
                                            <g id="Oval-3">
                                                <g id="Rectangle-2">
                                                    <path d="M25.8122638,48.0341759 C28.2644659,47.6105484 37.8699513,46.4452223 46.7283809,52.1698029 C48.0067477,52.9959214 49.2680159,53.8679527 50.4907077,54.7977807 L50.4907077,25.6909493 L44.2438547,25.6909493 C42.8388035,25.6909493 42.2655583,24.7199985 42.9718187,23.507951 L55.8118654,1.47255625 C56.5143904,0.266919637 57.6496746,0.260508674 58.3559363,1.47255625 L71.1959817,23.507951 C71.898508,24.7135876 71.336469,25.6909493 69.9239469,25.6909493 L63.677094,25.6909493 L63.677094,54.8112521 C64.9053135,53.8763739 66.1725882,52.9999098 67.4571263,52.1698029 C76.1064519,46.5803518 85.4679799,47.5593721 88.1877362,48.0030372 L88.1877362,41.9424258 C88.1877362,40.5358498 89.1576343,39.9619825 90.3683687,40.6690103 L112.379876,53.5229905 C113.584207,54.2262785 113.590611,55.362794 112.379876,56.0698217 L90.3683687,68.9238021 C89.1640385,69.6270901 88.1877362,69.0644418 88.1877362,67.6503864 L88.1877362,61.3878518 C86.0340583,61.0928569 79.7430874,60.6872307 73.3176535,64.6201172 C65.7936294,69.2254295 63.8677121,76.0862516 63.6910223,79.5672897 C63.6935353,79.7431354 63.6947995,79.9199493 63.6947995,80.0977394 L63.6947995,123 L57.0927542,123 L50.4907077,123 L50.4907077,95.4985508 L50.4907077,79.4970438 C50.291803,75.9946461 48.3415923,69.1946507 40.8678549,64.6201172 C34.2463258,60.5672046 27.7675905,61.1216561 25.8122638,61.4144246 L25.8122638,67.6503864 C25.8122638,69.0644418 24.8359615,69.6270901 23.6316313,68.9238021 L1.62012367,56.0698217 C0.4093892,55.362794 0.415793467,54.2262785 1.62012367,53.5229905 L23.6316313,40.6690103 C24.8423657,39.9619825 25.8122638,40.5358498 25.8122638,41.9424258 L25.8122638,48.0341759 Z" id="Combined-Shape"></path>
                                                </g>
                                            </g>
                                        </g>
                                    </g>
                                </g>
                            </g>
                        </g>
                    </g>
                </g>
            </g>
        </g>
    </g>
</svg>