<svg width="315" height="315" viewBox="0 0 315 315" fill="none" xmlns="http://www.w3.org/2000/svg">
<path d="M28.28 213.256V226H24.488V213.256H28.28ZM26.36 206.536C27.016 206.536 27.552 206.744 27.968 207.16C28.4 207.56 28.616 208.072 28.616 208.696C28.616 209.32 28.4 209.84 27.968 210.256C27.552 210.656 27.016 210.856 26.36 210.856C25.704 210.856 25.168 210.656 24.752 210.256C24.336 209.84 24.128 209.32 24.128 208.696C24.128 208.072 24.336 207.56 24.752 207.16C25.168 206.744 25.704 206.536 26.36 206.536ZM38.7254 212.848C39.8294 212.848 40.6934 213.184 41.3174 213.856C41.9414 214.528 42.2534 215.472 42.2534 216.688V226H38.4614V217.336C38.4614 216.696 38.3574 216.256 38.1494 216.016C37.9574 215.76 37.6614 215.632 37.2614 215.632C36.4934 215.632 35.7574 216.184 35.0534 217.288V226H31.2614V213.256H34.5734L34.8374 214.768C35.3814 214.128 35.9654 213.648 36.5894 213.328C37.2294 213.008 37.9414 212.848 38.7254 212.848ZM53.105 225.4C52.641 225.72 52.097 225.968 51.473 226.144C50.865 226.32 50.257 226.408 49.649 226.408C46.865 226.392 45.473 224.856 45.473 221.8V215.896H43.673V213.256H45.473V210.496L49.265 210.064V213.256H52.193L51.785 215.896H49.265V221.752C49.265 222.344 49.361 222.768 49.553 223.024C49.745 223.28 50.049 223.408 50.465 223.408C50.897 223.408 51.353 223.272 51.833 223L53.105 225.4ZM65.0609 219.376C65.0609 219.904 65.0369 220.36 64.9889 220.744H57.0929C57.2209 221.816 57.5249 222.568 58.0049 223C58.4849 223.432 59.1489 223.648 59.9969 223.648C60.5089 223.648 61.0049 223.56 61.4849 223.384C61.9649 223.192 62.4849 222.904 63.0449 222.52L64.6049 224.632C63.1169 225.816 61.4609 226.408 59.6369 226.408C57.5729 226.408 55.9889 225.8 54.8849 224.584C53.7809 223.368 53.2289 221.736 53.2289 219.688C53.2289 218.392 53.4609 217.232 53.9249 216.208C54.3889 215.168 55.0689 214.352 55.9649 213.76C56.8609 213.152 57.9329 212.848 59.1809 212.848C61.0209 212.848 62.4609 213.424 63.5009 214.576C64.5409 215.728 65.0609 217.328 65.0609 219.376ZM61.3409 218.296C61.3089 216.344 60.6209 215.368 59.2769 215.368C58.6209 215.368 58.1089 215.608 57.7409 216.088C57.3889 216.568 57.1729 217.36 57.0929 218.464H61.3409V218.296ZM74.1031 212.896C74.5671 212.896 74.9911 212.952 75.3751 213.064L74.7751 216.736C74.2951 216.624 73.9111 216.568 73.6231 216.568C72.8711 216.568 72.2951 216.832 71.8951 217.36C71.5111 217.872 71.2071 218.648 70.9831 219.688V226H67.1911V213.256H70.5031L70.8151 215.728C71.1031 214.848 71.5351 214.16 72.1111 213.664C72.7031 213.152 73.3671 212.896 74.1031 212.896ZM84.2879 212.848C85.3919 212.848 86.2559 213.184 86.8799 213.856C87.5039 214.528 87.8159 215.472 87.8159 216.688V226H84.0239V217.336C84.0239 216.696 83.9199 216.256 83.7119 216.016C83.5199 215.76 83.2239 215.632 82.8239 215.632C82.0559 215.632 81.3199 216.184 80.6159 217.288V226H76.8239V213.256H80.1359L80.3999 214.768C80.9439 214.128 81.5279 213.648 82.1519 213.328C82.7919 213.008 83.5039 212.848 84.2879 212.848ZM100.804 222.304C100.804 222.784 100.868 223.136 100.996 223.36C101.14 223.584 101.364 223.752 101.668 223.864L100.876 226.336C100.092 226.272 99.4515 226.104 98.9555 225.832C98.4595 225.544 98.0755 225.096 97.8035 224.488C96.9715 225.768 95.6915 226.408 93.9635 226.408C92.6995 226.408 91.6915 226.04 90.9395 225.304C90.1875 224.568 89.8115 223.608 89.8115 222.424C89.8115 221.032 90.3235 219.968 91.3475 219.232C92.3715 218.496 93.8515 218.128 95.7875 218.128H97.0835V217.576C97.0835 216.824 96.9235 216.312 96.6035 216.04C96.2835 215.752 95.7235 215.608 94.9235 215.608C94.5075 215.608 94.0035 215.672 93.4115 215.8C92.8195 215.912 92.2115 216.072 91.5875 216.28L90.7235 213.784C91.5235 213.48 92.3395 213.248 93.1715 213.088C94.0195 212.928 94.8035 212.848 95.5235 212.848C97.3475 212.848 98.6835 213.224 99.5315 213.976C100.38 214.728 100.804 215.856 100.804 217.36V222.304ZM95.0675 223.696C95.9315 223.696 96.6035 223.288 97.0835 222.472V220.216H96.1475C95.2835 220.216 94.6355 220.368 94.2035 220.672C93.7875 220.976 93.5795 221.448 93.5795 222.088C93.5795 222.6 93.7075 223 93.9635 223.288C94.2355 223.56 94.6035 223.696 95.0675 223.696ZM111.816 225.4C111.352 225.72 110.808 225.968 110.184 226.144C109.576 226.32 108.968 226.408 108.36 226.408C105.576 226.392 104.184 224.856 104.184 221.8V215.896H102.384V213.256H104.184V210.496L107.976 210.064V213.256H110.904L110.496 215.896H107.976V221.752C107.976 222.344 108.072 222.768 108.264 223.024C108.456 223.28 108.76 223.408 109.176 223.408C109.608 223.408 110.064 223.272 110.544 223L111.816 225.4ZM116.874 213.256V226H113.082V213.256H116.874ZM114.954 206.536C115.61 206.536 116.146 206.744 116.562 207.16C116.994 207.56 117.21 208.072 117.21 208.696C117.21 209.32 116.994 209.84 116.562 210.256C116.146 210.656 115.61 210.856 114.954 210.856C114.298 210.856 113.762 210.656 113.346 210.256C112.93 209.84 112.722 209.32 112.722 208.696C112.722 208.072 112.93 207.56 113.346 207.16C113.762 206.744 114.298 206.536 114.954 206.536ZM125.375 212.848C127.327 212.848 128.855 213.448 129.959 214.648C131.063 215.832 131.615 217.496 131.615 219.64C131.615 221 131.359 222.192 130.847 223.216C130.351 224.224 129.631 225.008 128.687 225.568C127.759 226.128 126.655 226.408 125.375 226.408C123.439 226.408 121.911 225.816 120.791 224.632C119.687 223.432 119.135 221.76 119.135 219.616C119.135 218.256 119.383 217.072 119.879 216.064C120.391 215.04 121.111 214.248 122.039 213.688C122.983 213.128 124.095 212.848 125.375 212.848ZM125.375 215.632C124.607 215.632 124.031 215.96 123.647 216.616C123.263 217.256 123.071 218.256 123.071 219.616C123.071 221.008 123.255 222.024 123.623 222.664C124.007 223.304 124.591 223.624 125.375 223.624C126.143 223.624 126.719 223.304 127.103 222.664C127.487 222.008 127.679 221 127.679 219.64C127.679 218.248 127.487 217.232 127.103 216.592C126.735 215.952 126.159 215.632 125.375 215.632ZM141.335 212.848C142.439 212.848 143.303 213.184 143.927 213.856C144.551 214.528 144.863 215.472 144.863 216.688V226H141.071V217.336C141.071 216.696 140.967 216.256 140.759 216.016C140.567 215.76 140.271 215.632 139.871 215.632C139.103 215.632 138.367 216.184 137.663 217.288V226H133.871V213.256H137.183L137.447 214.768C137.991 214.128 138.575 213.648 139.199 213.328C139.839 213.008 140.551 212.848 141.335 212.848ZM157.85 222.304C157.85 222.784 157.914 223.136 158.042 223.36C158.186 223.584 158.41 223.752 158.714 223.864L157.922 226.336C157.138 226.272 156.498 226.104 156.002 225.832C155.506 225.544 155.122 225.096 154.85 224.488C154.018 225.768 152.738 226.408 151.01 226.408C149.746 226.408 148.738 226.04 147.986 225.304C147.234 224.568 146.858 223.608 146.858 222.424C146.858 221.032 147.37 219.968 148.394 219.232C149.418 218.496 150.898 218.128 152.834 218.128H154.13V217.576C154.13 216.824 153.97 216.312 153.65 216.04C153.33 215.752 152.77 215.608 151.97 215.608C151.554 215.608 151.05 215.672 150.458 215.8C149.866 215.912 149.258 216.072 148.634 216.28L147.77 213.784C148.57 213.48 149.386 213.248 150.218 213.088C151.066 212.928 151.85 212.848 152.57 212.848C154.394 212.848 155.73 213.224 156.578 213.976C157.426 214.728 157.85 215.856 157.85 217.36V222.304ZM152.114 223.696C152.978 223.696 153.65 223.288 154.13 222.472V220.216H153.194C152.33 220.216 151.682 220.368 151.25 220.672C150.834 220.976 150.626 221.448 150.626 222.088C150.626 222.6 150.754 223 151.01 223.288C151.282 223.56 151.65 223.696 152.114 223.696ZM164.02 226.408C162.916 226.408 162.052 226.096 161.428 225.472C160.82 224.832 160.516 223.928 160.516 222.76V208.192L164.308 207.784V222.616C164.308 223.144 164.524 223.408 164.956 223.408C165.18 223.408 165.388 223.368 165.58 223.288L166.324 225.976C165.636 226.264 164.868 226.408 164.02 226.408ZM177.249 213.256V226H173.457V213.256H177.249ZM175.329 206.536C175.985 206.536 176.521 206.744 176.937 207.16C177.369 207.56 177.585 208.072 177.585 208.696C177.585 209.32 177.369 209.84 176.937 210.256C176.521 210.656 175.985 210.856 175.329 210.856C174.673 210.856 174.137 210.656 173.721 210.256C173.305 209.84 173.097 209.32 173.097 208.696C173.097 208.072 173.305 207.56 173.721 207.16C174.137 206.744 174.673 206.536 175.329 206.536ZM187.694 212.848C188.798 212.848 189.662 213.184 190.286 213.856C190.91 214.528 191.222 215.472 191.222 216.688V226H187.43V217.336C187.43 216.696 187.326 216.256 187.118 216.016C186.926 215.76 186.63 215.632 186.23 215.632C185.462 215.632 184.726 216.184 184.022 217.288V226H180.23V213.256H183.542L183.806 214.768C184.35 214.128 184.934 213.648 185.558 213.328C186.198 213.008 186.91 212.848 187.694 212.848ZM202.074 225.4C201.61 225.72 201.066 225.968 200.442 226.144C199.834 226.32 199.226 226.408 198.618 226.408C195.834 226.392 194.442 224.856 194.442 221.8V215.896H192.642V213.256H194.442V210.496L198.234 210.064V213.256H201.162L200.754 215.896H198.234V221.752C198.234 222.344 198.33 222.768 198.522 223.024C198.714 223.28 199.018 223.408 199.434 223.408C199.866 223.408 200.322 223.272 200.802 223L202.074 225.4ZM214.03 219.376C214.03 219.904 214.006 220.36 213.958 220.744H206.062C206.19 221.816 206.494 222.568 206.974 223C207.454 223.432 208.118 223.648 208.966 223.648C209.478 223.648 209.974 223.56 210.454 223.384C210.934 223.192 211.454 222.904 212.014 222.52L213.574 224.632C212.086 225.816 210.43 226.408 208.606 226.408C206.542 226.408 204.958 225.8 203.854 224.584C202.75 223.368 202.198 221.736 202.198 219.688C202.198 218.392 202.43 217.232 202.894 216.208C203.358 215.168 204.038 214.352 204.934 213.76C205.83 213.152 206.902 212.848 208.15 212.848C209.99 212.848 211.43 213.424 212.47 214.576C213.51 215.728 214.03 217.328 214.03 219.376ZM210.31 218.296C210.278 216.344 209.59 215.368 208.246 215.368C207.59 215.368 207.078 215.608 206.71 216.088C206.358 216.568 206.142 217.36 206.062 218.464H210.31V218.296ZM223.072 212.896C223.536 212.896 223.96 212.952 224.344 213.064L223.744 216.736C223.264 216.624 222.88 216.568 222.592 216.568C221.84 216.568 221.264 216.832 220.864 217.36C220.48 217.872 220.176 218.648 219.952 219.688V226H216.16V213.256H219.472L219.784 215.728C220.072 214.848 220.504 214.16 221.08 213.664C221.672 213.152 222.336 212.896 223.072 212.896ZM235.077 222.304C235.077 222.784 235.141 223.136 235.269 223.36C235.413 223.584 235.637 223.752 235.941 223.864L235.149 226.336C234.365 226.272 233.725 226.104 233.229 225.832C232.733 225.544 232.349 225.096 232.077 224.488C231.245 225.768 229.965 226.408 228.237 226.408C226.973 226.408 225.965 226.04 225.213 225.304C224.461 224.568 224.085 223.608 224.085 222.424C224.085 221.032 224.597 219.968 225.621 219.232C226.645 218.496 228.125 218.128 230.061 218.128H231.357V217.576C231.357 216.824 231.197 216.312 230.877 216.04C230.557 215.752 229.997 215.608 229.197 215.608C228.781 215.608 228.277 215.672 227.685 215.8C227.093 215.912 226.485 216.072 225.861 216.28L224.997 213.784C225.797 213.48 226.613 213.248 227.445 213.088C228.293 212.928 229.077 212.848 229.797 212.848C231.621 212.848 232.957 213.224 233.805 213.976C234.653 214.728 235.077 215.856 235.077 217.36V222.304ZM229.341 223.696C230.205 223.696 230.877 223.288 231.357 222.472V220.216H230.421C229.557 220.216 228.909 220.368 228.477 220.672C228.061 220.976 227.853 221.448 227.853 222.088C227.853 222.6 227.981 223 228.237 223.288C228.509 223.56 228.877 223.696 229.341 223.696ZM243.617 212.848C244.497 212.848 245.289 212.976 245.993 213.232C246.697 213.488 247.361 213.88 247.985 214.408L246.353 216.664C245.553 216.056 244.745 215.752 243.929 215.752C243.081 215.752 242.441 216.064 242.009 216.688C241.577 217.312 241.361 218.32 241.361 219.712C241.361 221.056 241.577 222.008 242.009 222.568C242.441 223.128 243.065 223.408 243.881 223.408C244.313 223.408 244.705 223.344 245.057 223.216C245.409 223.072 245.833 222.848 246.329 222.544L247.985 224.896C246.721 225.904 245.289 226.408 243.689 226.408C242.393 226.408 241.273 226.136 240.329 225.592C239.385 225.032 238.657 224.256 238.145 223.264C237.633 222.256 237.377 221.08 237.377 219.736C237.377 218.392 237.633 217.2 238.145 216.16C238.657 215.12 239.385 214.312 240.329 213.736C241.273 213.144 242.369 212.848 243.617 212.848ZM257.574 225.4C257.11 225.72 256.566 225.968 255.942 226.144C255.334 226.32 254.726 226.408 254.118 226.408C251.334 226.392 249.942 224.856 249.942 221.8V215.896H248.142V213.256H249.942V210.496L253.734 210.064V213.256H256.662L256.254 215.896H253.734V221.752C253.734 222.344 253.83 222.768 254.022 223.024C254.214 223.28 254.518 223.408 254.934 223.408C255.366 223.408 255.822 223.272 256.302 223L257.574 225.4ZM262.632 213.256V226H258.84V213.256H262.632ZM260.712 206.536C261.368 206.536 261.904 206.744 262.32 207.16C262.752 207.56 262.968 208.072 262.968 208.696C262.968 209.32 262.752 209.84 262.32 210.256C261.904 210.656 261.368 210.856 260.712 210.856C260.056 210.856 259.52 210.656 259.104 210.256C258.688 209.84 258.48 209.32 258.48 208.696C258.48 208.072 258.688 207.56 259.104 207.16C259.52 206.744 260.056 206.536 260.712 206.536ZM276.581 213.256L272.573 226H268.085L263.981 213.256H268.109L270.365 223.12L272.717 213.256H276.581ZM288.842 219.376C288.842 219.904 288.818 220.36 288.77 220.744H280.874C281.002 221.816 281.306 222.568 281.786 223C282.266 223.432 282.93 223.648 283.778 223.648C284.29 223.648 284.786 223.56 285.266 223.384C285.746 223.192 286.266 222.904 286.826 222.52L288.386 224.632C286.898 225.816 285.242 226.408 283.418 226.408C281.354 226.408 279.77 225.8 278.666 224.584C277.562 223.368 277.01 221.736 277.01 219.688C277.01 218.392 277.242 217.232 277.706 216.208C278.17 215.168 278.85 214.352 279.746 213.76C280.642 213.152 281.714 212.848 282.962 212.848C284.802 212.848 286.242 213.424 287.282 214.576C288.322 215.728 288.842 217.328 288.842 219.376ZM285.122 218.296C285.09 216.344 284.402 215.368 283.058 215.368C282.402 215.368 281.89 215.608 281.522 216.088C281.17 216.568 280.954 217.36 280.874 218.464H285.122V218.296ZM30.008 241.848C30.888 241.848 31.68 241.976 32.384 242.232C33.088 242.488 33.752 242.88 34.376 243.408L32.744 245.664C31.944 245.056 31.136 244.752 30.32 244.752C29.472 244.752 28.832 245.064 28.4 245.688C27.968 246.312 27.752 247.32 27.752 248.712C27.752 250.056 27.968 251.008 28.4 251.568C28.832 252.128 29.456 252.408 30.272 252.408C30.704 252.408 31.096 252.344 31.448 252.216C31.8 252.072 32.224 251.848 32.72 251.544L34.376 253.896C33.112 254.904 31.68 255.408 30.08 255.408C28.784 255.408 27.664 255.136 26.72 254.592C25.776 254.032 25.048 253.256 24.536 252.264C24.024 251.256 23.768 250.08 23.768 248.736C23.768 247.392 24.024 246.2 24.536 245.16C25.048 244.12 25.776 243.312 26.72 242.736C27.664 242.144 28.76 241.848 30.008 241.848ZM41.0236 241.848C42.9756 241.848 44.5036 242.448 45.6076 243.648C46.7116 244.832 47.2636 246.496 47.2636 248.64C47.2636 250 47.0076 251.192 46.4956 252.216C45.9996 253.224 45.2796 254.008 44.3356 254.568C43.4076 255.128 42.3036 255.408 41.0236 255.408C39.0876 255.408 37.5596 254.816 36.4396 253.632C35.3356 252.432 34.7836 250.76 34.7836 248.616C34.7836 247.256 35.0316 246.072 35.5276 245.064C36.0396 244.04 36.7596 243.248 37.6876 242.688C38.6316 242.128 39.7436 241.848 41.0236 241.848ZM41.0236 244.632C40.2556 244.632 39.6796 244.96 39.2956 245.616C38.9116 246.256 38.7196 247.256 38.7196 248.616C38.7196 250.008 38.9036 251.024 39.2716 251.664C39.6556 252.304 40.2396 252.624 41.0236 252.624C41.7916 252.624 42.3676 252.304 42.7516 251.664C43.1356 251.008 43.3276 250 43.3276 248.64C43.3276 247.248 43.1356 246.232 42.7516 245.592C42.3836 244.952 41.8076 244.632 41.0236 244.632ZM63.6073 241.848C64.6153 241.848 65.4233 242.192 66.0313 242.88C66.6393 243.552 66.9433 244.488 66.9433 245.688V255H63.1513V246.336C63.1513 245.2 62.7913 244.632 62.0713 244.632C61.6713 244.632 61.3193 244.768 61.0153 245.04C60.7113 245.312 60.4153 245.728 60.1273 246.288V255H56.3353V246.336C56.3353 245.2 55.9753 244.632 55.2553 244.632C54.8713 244.632 54.5193 244.776 54.1992 245.064C53.8953 245.336 53.5993 245.744 53.3113 246.288V255H49.5193V242.256H52.8313L53.0953 243.744C53.5913 243.104 54.1353 242.632 54.7273 242.328C55.3353 242.008 56.0233 241.848 56.7913 241.848C57.5113 241.848 58.1273 242.024 58.6393 242.376C59.1673 242.728 59.5513 243.224 59.7913 243.864C60.3033 243.176 60.8633 242.672 61.4713 242.352C62.0953 242.016 62.8073 241.848 63.6073 241.848ZM76.9927 241.848C78.5927 241.848 79.7847 242.44 80.5687 243.624C81.3527 244.808 81.7447 246.464 81.7447 248.592C81.7447 249.904 81.5367 251.08 81.1207 252.12C80.7207 253.144 80.1367 253.952 79.3687 254.544C78.6007 255.12 77.7047 255.408 76.6807 255.408C75.4007 255.408 74.3687 254.968 73.5847 254.088V259.92L69.7927 260.328V242.256H73.1287L73.3207 243.672C73.8167 243.048 74.3847 242.592 75.0247 242.304C75.6647 242 76.3207 241.848 76.9927 241.848ZM75.5287 252.624C77.0487 252.624 77.8087 251.296 77.8087 248.64C77.8087 247.136 77.6407 246.096 77.3047 245.52C76.9687 244.928 76.4647 244.632 75.7927 244.632C75.3607 244.632 74.9527 244.76 74.5687 245.016C74.2007 245.272 73.8727 245.64 73.5847 246.12V251.496C74.0967 252.248 74.7447 252.624 75.5287 252.624ZM94.865 255H91.577L91.409 253.392C90.481 254.736 89.193 255.408 87.545 255.408C86.377 255.408 85.489 255.056 84.881 254.352C84.289 253.648 83.993 252.664 83.993 251.4V242.256H87.785V250.92C87.785 251.544 87.881 251.984 88.073 252.24C88.281 252.48 88.593 252.6 89.009 252.6C89.809 252.6 90.497 252.104 91.073 251.112V242.256H94.865V255ZM105.839 254.4C105.375 254.72 104.831 254.968 104.207 255.144C103.599 255.32 102.991 255.408 102.383 255.408C99.5994 255.392 98.2074 253.856 98.2074 250.8V244.896H96.4074V242.256H98.2074V239.496L101.999 239.064V242.256H104.927L104.519 244.896H101.999V250.752C101.999 251.344 102.095 251.768 102.287 252.024C102.479 252.28 102.783 252.408 103.199 252.408C103.631 252.408 104.087 252.272 104.567 252L105.839 254.4ZM110.897 242.256V255H107.105V242.256H110.897ZM108.977 235.536C109.633 235.536 110.169 235.744 110.585 236.16C111.017 236.56 111.233 237.072 111.233 237.696C111.233 238.32 111.017 238.84 110.585 239.256C110.169 239.656 109.633 239.856 108.977 239.856C108.321 239.856 107.785 239.656 107.369 239.256C106.953 238.84 106.745 238.32 106.745 237.696C106.745 237.072 106.953 236.56 107.369 236.16C107.785 235.744 108.321 235.536 108.977 235.536ZM121.343 241.848C122.447 241.848 123.311 242.184 123.935 242.856C124.559 243.528 124.871 244.472 124.871 245.688V255H121.079V246.336C121.079 245.696 120.975 245.256 120.767 245.016C120.575 244.76 120.279 244.632 119.879 244.632C119.111 244.632 118.375 245.184 117.671 246.288V255H113.879V242.256H117.191L117.455 243.768C117.999 243.128 118.583 242.648 119.207 242.328C119.847 242.008 120.559 241.848 121.343 241.848ZM139.466 243C138.634 243.336 137.41 243.504 135.794 243.504C136.626 243.856 137.234 244.288 137.618 244.8C138.002 245.312 138.194 245.976 138.194 246.792C138.194 247.608 137.978 248.344 137.546 249C137.114 249.64 136.49 250.144 135.674 250.512C134.874 250.88 133.93 251.064 132.842 251.064C132.33 251.064 131.842 251.016 131.378 250.92C131.25 250.984 131.146 251.088 131.066 251.232C131.002 251.36 130.97 251.496 130.97 251.64C130.97 251.88 131.058 252.072 131.234 252.216C131.426 252.344 131.802 252.408 132.362 252.408H134.282C135.258 252.408 136.114 252.568 136.85 252.888C137.586 253.208 138.154 253.648 138.554 254.208C138.954 254.768 139.154 255.4 139.154 256.104C139.154 257.432 138.578 258.464 137.426 259.2C136.29 259.952 134.642 260.328 132.482 260.328C130.93 260.328 129.706 260.16 128.81 259.824C127.914 259.504 127.282 259.048 126.914 258.456C126.562 257.864 126.386 257.12 126.386 256.224H129.794C129.794 256.608 129.866 256.912 130.01 257.136C130.17 257.36 130.45 257.528 130.85 257.64C131.25 257.752 131.826 257.808 132.578 257.808C133.618 257.808 134.338 257.68 134.738 257.424C135.138 257.184 135.338 256.832 135.338 256.368C135.338 255.984 135.186 255.68 134.882 255.456C134.578 255.232 134.122 255.12 133.514 255.12H131.666C130.354 255.12 129.37 254.888 128.714 254.424C128.074 253.944 127.754 253.336 127.754 252.6C127.754 252.136 127.89 251.688 128.162 251.256C128.434 250.808 128.802 250.44 129.266 250.152C128.466 249.72 127.882 249.216 127.514 248.64C127.162 248.048 126.986 247.336 126.986 246.504C126.986 245.08 127.498 243.952 128.522 243.12C129.546 242.272 130.898 241.848 132.578 241.848C133.858 241.88 134.938 241.752 135.818 241.464C136.714 241.176 137.634 240.752 138.578 240.192L139.466 243ZM132.674 244.344C132.082 244.344 131.61 244.536 131.258 244.92C130.922 245.288 130.754 245.8 130.754 246.456C130.754 247.144 130.922 247.68 131.258 248.064C131.61 248.432 132.082 248.616 132.674 248.616C133.298 248.616 133.77 248.432 134.09 248.064C134.426 247.696 134.594 247.144 134.594 246.408C134.594 245.032 133.954 244.344 132.674 244.344ZM152.164 241.848C153.044 241.848 153.836 241.976 154.54 242.232C155.244 242.488 155.908 242.88 156.532 243.408L154.9 245.664C154.1 245.056 153.292 244.752 152.476 244.752C151.628 244.752 150.988 245.064 150.556 245.688C150.124 246.312 149.908 247.32 149.908 248.712C149.908 250.056 150.124 251.008 150.556 251.568C150.988 252.128 151.612 252.408 152.428 252.408C152.86 252.408 153.252 252.344 153.604 252.216C153.956 252.072 154.38 251.848 154.876 251.544L156.532 253.896C155.268 254.904 153.836 255.408 152.236 255.408C150.94 255.408 149.82 255.136 148.876 254.592C147.932 254.032 147.204 253.256 146.692 252.264C146.18 251.256 145.924 250.08 145.924 248.736C145.924 247.392 146.18 246.2 146.692 245.16C147.204 244.12 147.932 243.312 148.876 242.736C149.82 242.144 150.916 241.848 152.164 241.848ZM163.18 241.848C165.132 241.848 166.66 242.448 167.764 243.648C168.868 244.832 169.42 246.496 169.42 248.64C169.42 250 169.164 251.192 168.652 252.216C168.156 253.224 167.436 254.008 166.492 254.568C165.564 255.128 164.46 255.408 163.18 255.408C161.244 255.408 159.716 254.816 158.596 253.632C157.492 252.432 156.94 250.76 156.94 248.616C156.94 247.256 157.188 246.072 157.684 245.064C158.196 244.04 158.916 243.248 159.844 242.688C160.788 242.128 161.9 241.848 163.18 241.848ZM163.18 244.632C162.412 244.632 161.836 244.96 161.452 245.616C161.068 246.256 160.876 247.256 160.876 248.616C160.876 250.008 161.06 251.024 161.428 251.664C161.812 252.304 162.396 252.624 163.18 252.624C163.948 252.624 164.524 252.304 164.908 251.664C165.292 251.008 165.484 250 165.484 248.64C165.484 247.248 165.292 246.232 164.908 245.592C164.54 244.952 163.964 244.632 163.18 244.632ZM175.06 255.408C173.956 255.408 173.092 255.096 172.468 254.472C171.86 253.832 171.556 252.928 171.556 251.76V237.192L175.348 236.784V251.616C175.348 252.144 175.564 252.408 175.996 252.408C176.22 252.408 176.428 252.368 176.62 252.288L177.364 254.976C176.676 255.264 175.908 255.408 175.06 255.408ZM182.185 255.408C181.081 255.408 180.217 255.096 179.593 254.472C178.985 253.832 178.681 252.928 178.681 251.76V237.192L182.473 236.784V251.616C182.473 252.144 182.689 252.408 183.121 252.408C183.345 252.408 183.553 252.368 183.745 252.288L184.489 254.976C183.801 255.264 183.033 255.408 182.185 255.408ZM195.936 251.304C195.936 251.784 196 252.136 196.128 252.36C196.272 252.584 196.496 252.752 196.8 252.864L196.008 255.336C195.224 255.272 194.584 255.104 194.088 254.832C193.592 254.544 193.208 254.096 192.936 253.488C192.104 254.768 190.824 255.408 189.096 255.408C187.832 255.408 186.824 255.04 186.072 254.304C185.32 253.568 184.944 252.608 184.944 251.424C184.944 250.032 185.456 248.968 186.48 248.232C187.504 247.496 188.984 247.128 190.92 247.128H192.216V246.576C192.216 245.824 192.056 245.312 191.736 245.04C191.416 244.752 190.856 244.608 190.056 244.608C189.64 244.608 189.136 244.672 188.544 244.8C187.952 244.912 187.344 245.072 186.72 245.28L185.856 242.784C186.656 242.48 187.472 242.248 188.304 242.088C189.152 241.928 189.936 241.848 190.656 241.848C192.48 241.848 193.816 242.224 194.664 242.976C195.512 243.728 195.936 244.856 195.936 246.36V251.304ZM190.2 252.696C191.064 252.696 191.736 252.288 192.216 251.472V249.216H191.28C190.416 249.216 189.768 249.368 189.336 249.672C188.92 249.976 188.712 250.448 188.712 251.088C188.712 251.6 188.84 252 189.096 252.288C189.368 252.56 189.736 252.696 190.2 252.696ZM206.181 241.848C207.701 241.848 208.869 242.448 209.685 243.648C210.501 244.832 210.909 246.496 210.909 248.64C210.909 249.952 210.701 251.12 210.285 252.144C209.885 253.168 209.301 253.968 208.533 254.544C207.781 255.12 206.885 255.408 205.845 255.408C205.157 255.408 204.525 255.264 203.949 254.976C203.389 254.688 202.909 254.288 202.509 253.776L202.317 255H198.957V237.192L202.749 236.784V243.552C203.133 243.024 203.621 242.608 204.213 242.304C204.821 242 205.477 241.848 206.181 241.848ZM204.741 252.648C206.229 252.648 206.973 251.312 206.973 248.64C206.973 247.12 206.797 246.072 206.445 245.496C206.093 244.92 205.581 244.632 204.909 244.632C204.061 244.632 203.341 245.128 202.749 246.12V251.424C202.989 251.808 203.277 252.112 203.613 252.336C203.965 252.544 204.341 252.648 204.741 252.648ZM218.797 241.848C220.749 241.848 222.277 242.448 223.381 243.648C224.485 244.832 225.037 246.496 225.037 248.64C225.037 250 224.781 251.192 224.269 252.216C223.773 253.224 223.053 254.008 222.109 254.568C221.181 255.128 220.077 255.408 218.797 255.408C216.861 255.408 215.333 254.816 214.213 253.632C213.109 252.432 212.557 250.76 212.557 248.616C212.557 247.256 212.805 246.072 213.301 245.064C213.813 244.04 214.533 243.248 215.461 242.688C216.405 242.128 217.517 241.848 218.797 241.848ZM218.797 244.632C218.029 244.632 217.453 244.96 217.069 245.616C216.685 246.256 216.493 247.256 216.493 248.616C216.493 250.008 216.677 251.024 217.045 251.664C217.429 252.304 218.013 252.624 218.797 252.624C219.565 252.624 220.141 252.304 220.525 251.664C220.909 251.008 221.101 250 221.101 248.64C221.101 247.248 220.909 246.232 220.525 245.592C220.157 244.952 219.581 244.632 218.797 244.632ZM234.205 241.896C234.669 241.896 235.093 241.952 235.477 242.064L234.877 245.736C234.397 245.624 234.013 245.568 233.725 245.568C232.973 245.568 232.397 245.832 231.997 246.36C231.613 246.872 231.309 247.648 231.085 248.688V255H227.293V242.256H230.605L230.917 244.728C231.205 243.848 231.637 243.16 232.213 242.664C232.805 242.152 233.469 241.896 234.205 241.896ZM246.21 251.304C246.21 251.784 246.274 252.136 246.402 252.36C246.546 252.584 246.77 252.752 247.074 252.864L246.282 255.336C245.498 255.272 244.858 255.104 244.362 254.832C243.866 254.544 243.482 254.096 243.21 253.488C242.378 254.768 241.098 255.408 239.37 255.408C238.106 255.408 237.098 255.04 236.346 254.304C235.594 253.568 235.218 252.608 235.218 251.424C235.218 250.032 235.73 248.968 236.754 248.232C237.778 247.496 239.258 247.128 241.194 247.128H242.49V246.576C242.49 245.824 242.33 245.312 242.01 245.04C241.69 244.752 241.13 244.608 240.33 244.608C239.914 244.608 239.41 244.672 238.818 244.8C238.226 244.912 237.618 245.072 236.994 245.28L236.13 242.784C236.93 242.48 237.746 242.248 238.578 242.088C239.426 241.928 240.21 241.848 240.93 241.848C242.754 241.848 244.09 242.224 244.938 242.976C245.786 243.728 246.21 244.856 246.21 246.36V251.304ZM240.474 252.696C241.338 252.696 242.01 252.288 242.49 251.472V249.216H241.554C240.69 249.216 240.042 249.368 239.61 249.672C239.194 249.976 238.986 250.448 238.986 251.088C238.986 251.6 239.114 252 239.37 252.288C239.642 252.56 240.01 252.696 240.474 252.696ZM257.222 254.4C256.758 254.72 256.214 254.968 255.59 255.144C254.982 255.32 254.374 255.408 253.766 255.408C250.982 255.392 249.59 253.856 249.59 250.8V244.896H247.79V242.256H249.59V239.496L253.382 239.064V242.256H256.31L255.902 244.896H253.382V250.752C253.382 251.344 253.478 251.768 253.67 252.024C253.862 252.28 254.166 252.408 254.582 252.408C255.014 252.408 255.47 252.272 255.95 252L257.222 254.4ZM262.28 242.256V255H258.488V242.256H262.28ZM260.36 235.536C261.016 235.536 261.552 235.744 261.968 236.16C262.4 236.56 262.616 237.072 262.616 237.696C262.616 238.32 262.4 238.84 261.968 239.256C261.552 239.656 261.016 239.856 260.36 239.856C259.704 239.856 259.168 239.656 258.752 239.256C258.336 238.84 258.128 238.32 258.128 237.696C258.128 237.072 258.336 236.56 258.752 236.16C259.168 235.744 259.704 235.536 260.36 235.536ZM270.781 241.848C272.733 241.848 274.261 242.448 275.365 243.648C276.469 244.832 277.021 246.496 277.021 248.64C277.021 250 276.765 251.192 276.253 252.216C275.757 253.224 275.037 254.008 274.093 254.568C273.165 255.128 272.061 255.408 270.781 255.408C268.845 255.408 267.317 254.816 266.197 253.632C265.093 252.432 264.541 250.76 264.541 248.616C264.541 247.256 264.789 246.072 265.285 245.064C265.797 244.04 266.517 243.248 267.445 242.688C268.389 242.128 269.501 241.848 270.781 241.848ZM270.781 244.632C270.013 244.632 269.437 244.96 269.053 245.616C268.669 246.256 268.477 247.256 268.477 248.616C268.477 250.008 268.661 251.024 269.029 251.664C269.413 252.304 269.997 252.624 270.781 252.624C271.549 252.624 272.125 252.304 272.509 251.664C272.893 251.008 273.085 250 273.085 248.64C273.085 247.248 272.893 246.232 272.509 245.592C272.141 244.952 271.565 244.632 270.781 244.632ZM286.741 241.848C287.845 241.848 288.709 242.184 289.333 242.856C289.957 243.528 290.269 244.472 290.269 245.688V255H286.477V246.336C286.477 245.696 286.373 245.256 286.165 245.016C285.973 244.76 285.677 244.632 285.277 244.632C284.509 244.632 283.773 245.184 283.069 246.288V255H279.277V242.256H282.589L282.853 243.768C283.397 243.128 283.981 242.648 284.605 242.328C285.245 242.008 285.957 241.848 286.741 241.848Z" fill="#4E4E4E"/>
<path d="M63.272 88.64C70.28 88.64 76.28 89.888 81.272 92.384C86.36 94.88 90.2 98.24 92.792 102.464C95.48 106.688 96.824 111.344 96.824 116.432C96.824 121.616 95.768 126.56 93.656 131.264C91.544 135.968 87.8 141.392 82.424 147.536C77.048 153.584 69.224 161.264 58.952 170.576H98.84L96.536 188H33.176V171.872C44.984 160.256 53.576 151.52 58.952 145.664C64.328 139.712 68.072 134.768 70.184 130.832C72.392 126.896 73.496 122.864 73.496 118.736C73.496 114.8 72.344 111.728 70.04 109.52C67.832 107.216 64.808 106.064 60.968 106.064C57.512 106.064 54.44 106.88 51.752 108.512C49.064 110.048 46.232 112.592 43.256 116.144L29.864 105.488C33.896 100.208 38.696 96.08 44.264 93.104C49.928 90.128 56.264 88.64 63.272 88.64ZM135.071 111.536V188H112.319V111.536H135.071ZM123.551 71.216C127.487 71.216 130.703 72.464 133.199 74.96C135.791 77.36 137.087 80.432 137.087 84.176C137.087 87.92 135.791 91.04 133.199 93.536C130.703 95.936 127.487 97.136 123.551 97.136C119.615 97.136 116.399 95.936 113.903 93.536C111.407 91.04 110.159 87.92 110.159 84.176C110.159 80.432 111.407 77.36 113.903 74.96C116.399 72.464 119.615 71.216 123.551 71.216ZM178.303 88.64C185.311 88.64 191.311 89.888 196.303 92.384C201.391 94.88 205.231 98.24 207.823 102.464C210.511 106.688 211.855 111.344 211.855 116.432C211.855 121.616 210.799 126.56 208.687 131.264C206.575 135.968 202.831 141.392 197.455 147.536C192.079 153.584 184.255 161.264 173.983 170.576H213.871L211.567 188H148.207V171.872C160.015 160.256 168.607 151.52 173.983 145.664C179.359 139.712 183.103 134.768 185.215 130.832C187.423 126.896 188.527 122.864 188.527 118.736C188.527 114.8 187.375 111.728 185.071 109.52C182.863 107.216 179.839 106.064 175.999 106.064C172.543 106.064 169.471 106.88 166.783 108.512C164.095 110.048 161.263 112.592 158.287 116.144L144.895 105.488C148.927 100.208 153.727 96.08 159.295 93.104C164.959 90.128 171.295 88.64 178.303 88.64ZM257.657 109.088C262.937 109.088 267.689 109.856 271.913 111.392C276.137 112.928 280.121 115.28 283.865 118.448L274.073 131.984C269.273 128.336 264.425 126.512 259.529 126.512C254.441 126.512 250.601 128.384 248.009 132.128C245.417 135.872 244.121 141.92 244.121 150.272C244.121 158.336 245.417 164.048 248.009 167.408C250.601 170.768 254.345 172.448 259.241 172.448C261.833 172.448 264.185 172.064 266.297 171.296C268.409 170.432 270.953 169.088 273.929 167.264L283.865 181.376C276.281 187.424 267.689 190.448 258.089 190.448C250.313 190.448 243.593 188.816 237.929 185.552C232.265 182.192 227.897 177.536 224.825 171.584C221.753 165.536 220.217 158.48 220.217 150.416C220.217 142.352 221.753 135.2 224.825 128.96C227.897 122.72 232.265 117.872 237.929 114.416C243.593 110.864 250.169 109.088 257.657 109.088Z" fill="#4E4E4E"/>
</svg>
