<?xml version="1.0" encoding="UTF-8" standalone="no"?>
<svg width="76px" height="45px" viewBox="0 0 76 45" version="1.1" xmlns="http://www.w3.org/2000/svg" xmlns:xlink="http://www.w3.org/1999/xlink" xmlns:sketch="http://www.bohemiancoding.com/sketch/ns">
    <!-- Generator: Sketch 3.3.3 (12072) - http://www.bohemiancoding.com/sketch -->
    <title>Imported Layers</title>
    <desc>Created with Sketch.</desc>
    <defs></defs>
    <g id="Page-1" stroke="none" stroke-width="1" fill="none" fill-rule="evenodd" sketch:type="MSPage">
        <g id="Home---Desktop-Copy-2" sketch:type="MSArtboardGroup" transform="translate(-766.000000, -2025.000000)" fill="#B1B1B1">
            <g id="Group-+-Currently-in-use-at" sketch:type="MSLayerGroup" transform="translate(110.000000, 1814.000000)">
                <g id="Group" sketch:type="MSShapeGroup">
                    <g id="Row-3-+-Row-1-+-Row-2">
                        <g transform="translate(0.000000, 93.000000)">
                            <g id="Row-2" transform="translate(0.837882, 105.088235)">
                                <g id="Imported-Layers" transform="translate(655.000000, 13.000000)">
                                    <path d="M26.7929781,8.97963158 C26.7927398,6.45157895 26.794884,3.92352632 26.7908339,1.39571053 C26.7901191,0.934342105 26.7486646,0.465631579 27.292815,0.245605263 C27.8376803,0.0253421053 28.1445392,0.403342105 28.4680752,0.719526316 C31.4823448,3.66726316 34.5070972,6.60457895 37.4951599,9.57860526 C37.9880878,10.0691053 38.2432476,9.99710526 38.693768,9.55065789 C41.6682508,6.60315789 44.6696552,3.68265789 47.664627,0.755526316 C48.0057931,0.422052632 48.3190846,-0.00331578947 48.9046897,0.259342105 C49.4414545,0.500210526 49.3706959,0.980763158 49.3706959,1.43313158 C49.3702194,6.11976316 49.3432978,10.8066316 49.3792727,15.4930263 C49.4007147,18.2863421 48.4613166,20.6613947 46.4800752,22.6231579 C43.949442,25.1284737 41.3942696,27.6091579 38.8607774,30.1113947 C38.3268715,30.6386053 37.8501442,30.6483158 37.316,30.1220526 C34.7389091,27.5831053 32.1537179,25.0519737 29.5704326,22.5191842 C27.6361254,20.6225526 26.7162633,18.3377368 26.7822571,15.6258947 C26.8363386,13.4116579 26.7932163,11.1950526 26.7929781,8.97963158 L26.7929781,8.97963158 Z M28.3935047,15.4821316 C28.2229216,17.8072105 29.0069843,19.7687368 30.6685016,21.3979737 C32.2747461,22.9729737 33.8907586,24.5385 35.4755611,26.1345789 C35.8257806,26.4872368 35.9544326,26.5926316 36.3177555,26.1071053 C36.8430846,25.4051053 37.4853918,24.7222895 38.5410533,25.0346842 C39.1473856,25.2139737 39.5750345,25.6812632 39.8947586,26.1641842 C40.2006646,26.6267368 40.3243135,26.4919737 40.6185455,26.199 C42.1316364,24.6917368 43.6597367,23.1998684 45.1904577,21.7101316 C46.9539436,19.9939737 47.8776176,17.9367632 47.7925643,15.4622368 C47.8430721,15.336 47.9369404,15.2102368 47.9374169,15.0837632 C47.9467085,12.9412895 47.9445643,10.7988158 47.9445643,8.65610526 C47.9445643,8.45786842 47.9514734,8.25513158 47.7301442,8.14807895 C46.7297555,7.67107895 45.7145956,7.22155263 44.7356489,6.70452632 C44.286558,6.46721053 44.0106708,6.48544737 43.6418683,6.85894737 C42.1230596,8.39605263 40.5697053,9.89928947 39.0256426,11.4115263 C38.204652,12.2156053 37.9716489,12.2172632 37.1282633,11.3951842 C35.5801505,9.88697368 34.0310846,8.37947368 32.5060815,6.84852632 C32.1746834,6.51576316 31.9216677,6.42931579 31.4859185,6.67042105 C30.6399122,7.13818421 29.7612665,7.54957895 28.8854796,7.96168421 C28.5433605,8.12273684 28.3575298,8.31173684 28.3627712,8.72597368 C28.390884,10.9087105 28.3901693,13.0916842 28.3994608,15.2746579 C28.3975549,15.3438158 28.3956489,15.4129737 28.3935047,15.4821316 L28.3935047,15.4821316 Z" id="Fill-1"></path>
                                    <path d="M47.7925643,15.4622368 C46.1951348,16.8939474 44.6687022,18.4080789 42.9040251,19.6460526 C42.5125893,19.9207895 42.1028088,20.1699474 41.7020815,20.4307105 C41.6129781,19.5818684 41.6687273,18.7377632 41.7204263,17.8875 C41.7752226,16.9837105 42.2243135,16.4567368 43.0603135,16.2487895 C44.385906,15.9188684 45.72079,15.6258947 47.0540063,15.3262895 C47.4204263,15.2441053 47.8001881,15.2239737 47.7935172,14.6955789 C47.7656426,12.5130789 47.750395,10.3305789 47.7303824,8.14807895 C47.9514734,8.25513158 47.9445643,8.45786842 47.9445643,8.65610526 C47.9445643,10.7988158 47.9467085,12.9412895 47.9374169,15.0837632 C47.9369404,15.2102368 47.8430721,15.336 47.7925643,15.4622368" id="Fill-2"></path>
                                    <path d="M34.5421191,20.4018158 C32.5330031,19.1875263 30.7885768,17.6499474 29.1134796,16.0249737 C28.900489,15.8186842 28.77279,15.4781053 28.3935047,15.4821316 C28.3956489,15.4129737 28.3975549,15.3438158 28.3994608,15.2746579 C30.1079122,15.4347632 31.7658558,15.8343158 33.4021191,16.3293158 C34.1480627,16.5550263 34.5173417,17.0879211 34.5321129,17.8515 C34.5485517,18.7012895 34.5399749,19.5515526 34.5421191,20.4018158" id="Fill-3"></path>
                                    <path d="M61.787047,41.4106579 C60.614884,40.6906579 60.2389342,39.7115526 60.6184577,38.4001579 C60.9000627,37.4262632 61.9581066,36.8727632 63.3230094,37.0854474 C63.8121254,37.1617105 64.1149342,37.1048684 64.3157743,36.6522632 C64.5706959,36.0781579 64.8837492,36.4116316 65.2230094,36.5762368 C65.6818683,36.7986316 65.5367774,37.0449474 65.3137806,37.3220526 C65.0810157,37.6112368 65.0047774,37.8746053 65.1312853,38.2833947 C65.6883009,40.0817368 65.1705956,40.9642105 63.3330157,41.4613421 C63.0992978,41.5245789 62.9739812,41.6325789 62.9006019,41.9937632 C63.3141944,41.9937632 63.7080125,41.9662895 64.0963511,41.9992105 C64.9845266,42.0745263 65.4417179,42.5820789 65.4395737,43.4451316 C65.4371912,44.3067632 64.9749969,44.8001053 64.0577555,44.8349211 C63.1662445,44.8685526 62.2723511,44.8443947 61.3796489,44.8429737 C61.0701693,44.8425 60.7857053,44.7612632 60.5893918,44.5087895 C60.4397743,44.3162368 60.3468589,44.0803421 60.4350094,43.8444474 C60.5284013,43.5945789 60.7895172,43.6732105 60.9796364,43.6698947 C61.6636364,43.6582895 62.3485893,43.6902632 63.0318746,43.6658684 C63.320627,43.6556842 63.8354734,43.8385263 63.8149843,43.3721842 C63.7968777,42.9607895 63.2920376,43.1171053 62.9875611,43.1031316 C62.5420439,43.0827632 62.093906,43.0789737 61.648627,43.1026579 C60.9150721,43.1415 60.9057806,42.8096842 61.2124013,42.3047368 C61.3960878,42.0020526 61.5950219,41.7083684 61.787047,41.4106579 L61.787047,41.4106579 Z M63.7968777,39.2895 C63.8338056,38.6703947 63.6401129,38.2661053 62.9241881,38.2608947 C62.1482257,38.2552105 62.015047,38.7094737 62.0174295,39.3503684 C62.0200502,39.969 62.1923009,40.3732895 62.8996489,40.3787368 C63.667511,40.3846579 63.8414295,39.9294474 63.7968777,39.2895 L63.7968777,39.2895 Z" id="Fill-4"></path>
                                    <path d="M51.301906,38.9813684 C51.301906,37.9466053 51.3190596,36.9118421 51.2938056,35.8777895 C51.2828464,35.4301579 51.4022069,35.2475526 51.8908464,35.2617632 C53.0194107,35.2946842 54.1508339,35.2972895 55.2793981,35.2612895 C55.9648276,35.2397368 55.7404013,35.7027632 55.7720878,36.0393158 C55.807348,36.4125789 55.8266458,36.7519737 55.2560502,36.6920526 C54.8150596,36.6456316 54.3650157,36.6842368 53.9190219,36.6847105 C52.9341191,36.6854211 52.6861066,37.0354737 52.9160125,38.0164737 C52.9834357,38.304 53.1437743,38.3137105 53.3577179,38.3137105 C53.8334922,38.3139474 54.3116489,38.3445 54.784326,38.3063684 C55.3475361,38.2608947 55.5500439,38.4252632 55.5660063,39.0348947 C55.5836364,39.7008947 55.2798746,39.7679211 54.7681254,39.726 C54.5320251,39.7065789 54.2925893,39.7224474 54.0548213,39.7224474 C52.9126771,39.7222105 52.6746708,40.0443158 52.9133918,41.1678947 C52.9765266,41.4644211 53.1313856,41.4651316 53.3448527,41.4651316 C53.8799498,41.4648947 54.416953,41.4942632 54.949906,41.4599211 C55.4928652,41.4251053 55.8032978,41.4660789 55.806395,42.1756579 C55.8092539,42.8755263 55.5181191,42.9169737 54.9682508,42.8989737 C53.92879,42.8648684 52.8869467,42.8719737 51.8470094,42.8980263 C51.4224577,42.9086842 51.2823699,42.7803158 51.2928527,42.3506842 C51.3202508,41.2280526 51.3021442,40.1044737 51.301906,38.9813684" id="Fill-5"></path>
                                    <path d="M27.8860439,37.5695526 C28.262232,37.3914474 28.5350219,37.2209211 28.8325893,37.1290263 C29.780326,36.837 30.6141818,37.2775263 30.7952476,38.2291579 C31.0680376,39.6622895 30.9127022,41.1202895 30.8824451,42.5636053 C30.8695799,43.1767895 30.2289404,42.8037632 29.8784828,42.8805 C29.5194483,42.9593684 29.3450533,42.8163158 29.3541066,42.4089474 C29.3774545,41.3445789 29.3600627,40.2795 29.3610157,39.2146579 C29.3614922,38.7016579 29.2943072,38.2516579 28.6117367,38.2665789 C27.9360752,38.2810263 27.8824702,38.727 27.8865204,39.2428421 C27.8946207,40.2780789 27.8414922,41.3159211 27.902721,42.3476053 C27.9420313,43.0055526 27.5463072,42.8999211 27.1765517,42.8847632 C26.8048903,42.8696053 26.3264953,43.0782632 26.3374545,42.3483158 C26.3696176,40.1897368 26.3655674,38.0299737 26.3319749,35.8716316 C26.3219687,35.2167632 26.6952978,35.2653158 27.1315235,35.2653158 C27.5706082,35.2653158 27.9675235,35.2250526 27.8974796,35.8834737 C27.8412539,36.4097368 27.8860439,36.9464211 27.8860439,37.5695526" id="Fill-6"></path>
                                    <path d="M68.073605,37.5747632 C68.4040502,37.4080263 68.6465831,37.2517105 68.9117492,37.1574474 C69.9154734,36.8012368 70.8029342,37.2671053 70.9866207,38.3018684 C71.2358245,39.7065789 71.0993103,41.1328421 71.0666708,42.5460789 C71.0516614,43.1881579 70.4191223,42.7999737 70.0734295,42.8805 C69.733931,42.9593684 69.5235611,42.8397632 69.5330909,42.4193684 C69.5566771,41.3557105 69.5395235,40.2913421 69.5452414,39.2272105 C69.5481003,38.7108947 69.4771034,38.2653947 68.803348,38.2675263 C68.12721,38.2694211 68.0686019,38.7139737 68.073605,39.2326579 C68.0831348,40.2375789 68.0345329,41.2448684 68.0888527,42.2469474 C68.1217304,42.8518421 67.8565643,42.9456316 67.3595862,42.8961316 C66.9505204,42.8553947 66.4852288,43.0555263 66.5042884,42.2872105 C66.5567022,40.1603684 66.5452665,38.0309211 66.5076238,35.9031316 C66.4966646,35.28 66.7956614,35.2560789 67.2676238,35.2610526 C67.7531661,35.2660263 68.1610408,35.2437632 68.0848025,35.9372368 C68.0281003,36.4540263 68.073605,36.9819474 68.073605,37.5747632" id="Fill-7"></path>
                                    <path d="M0.212037618,39.0675789 C0.212037618,38.0041579 0.229667712,36.9405 0.20369906,35.8777895 C0.192501567,35.4206842 0.336639498,35.2496842 0.811222571,35.2617632 C1.87998746,35.2892368 2.95161129,35.3027368 4.01918495,35.2551316 C4.64290909,35.2274211 4.66721003,35.5391053 4.6686395,36.0104211 C4.67006897,36.4561579 4.63480878,36.7517368 4.06397492,36.6925263 C3.62322257,36.6468158 3.16746082,36.7320789 2.7295674,36.6740526 C1.97052038,36.5738684 1.82376176,36.8796316 1.80160502,37.5951316 C1.7763511,38.4041842 2.03436991,38.6557105 2.79746708,38.5408421 C3.05882132,38.5012895 3.33184953,38.5465263 3.59868339,38.5330263 C4.0997116,38.5076842 4.49352978,38.4655263 4.48662069,39.2257895 C4.48018809,39.9488684 4.14473981,39.9436579 3.61845768,39.9382105 C1.83424451,39.9202105 1.85592476,39.933 1.81852038,41.7465 C1.8089906,42.2095263 2.22186834,42.9560526 1.11188715,42.9195789 C0.370946708,42.8951842 0.14199373,42.7315263 0.194884013,41.9904474 C0.264213166,41.0208158 0.212037618,40.0421842 0.212037618,39.0675789" id="Fill-8"></path>
                                    <path d="M47.6327022,41.4232105 C48.2559498,40.3218947 48.4622696,39.1457368 48.3305204,37.9167632 C48.2597618,37.2581053 48.5535172,37.1527105 49.1405517,37.1510526 C49.7087649,37.1491579 49.8240752,37.2962368 49.8976928,37.8710526 C50.1423699,39.7837895 49.2875486,41.3635263 48.5294545,42.9873158 C48.3674483,43.3345263 48.2166395,43.6867105 48.0589216,44.0358158 C47.7156113,44.7951316 47.1026082,45.0639474 46.3071097,44.8538684 C45.9440251,44.7579474 46.064815,44.5627895 46.1877492,44.4119211 C46.9856301,43.4323421 46.6315987,42.4740789 46.0655298,41.5946842 C45.2707461,40.3602632 45.3927273,39.0126316 45.3691411,37.6605 C45.3569906,36.9689211 45.817279,37.1972368 46.1489154,37.1754474 C46.5172414,37.1512895 46.9229718,37.0515789 46.8746082,37.6998158 C46.7793103,38.9752105 46.8634107,40.2330789 47.6327022,41.4232105" id="Fill-9"></path>
                                    <path d="M18.1666207,42.8887895 C17.8995486,42.8883158 17.6324765,42.8942368 17.3656426,42.8873684 C15.8868589,42.8492368 15.243837,42.2313158 15.2302571,40.7735526 C15.2228715,39.9815526 15.1285266,39.1800789 15.3565266,38.3985 C15.6288401,37.4648684 16.4624577,36.9779211 17.674884,37.0451842 C18.8935047,37.1126842 19.5324765,37.6181053 19.6882884,38.6377105 C19.9839498,40.5698684 19.9768025,40.5783947 18.0386834,40.5802895 C17.8309342,40.5805263 17.6200878,40.5582632 17.4163887,40.5864474 C17.1700439,40.6205526 16.7743197,40.3993421 16.7747962,40.9227632 C16.7752727,41.3649474 17.012326,41.5752632 17.4306834,41.5863947 C18.023674,41.6025 18.62,41.6311579 19.2098934,41.5878158 C19.7514232,41.5480263 19.7742947,41.8324737 19.7523762,42.2325 C19.7330784,42.5865789 19.8157492,42.9643421 19.2337179,42.8968421 C18.8825455,42.8563421 18.522558,42.8895 18.1666207,42.8887895 L18.1666207,42.8887895 Z M17.500489,39.4988684 C17.709906,39.3321316 18.2592978,39.8020263 18.2307085,39.1125789 C18.2114107,38.6521579 18.0467837,38.3030526 17.5250282,38.2755789 C16.9925517,38.2476316 16.8222069,38.5735263 16.7714608,39.0462632 C16.7014169,39.7020789 17.1860063,39.4261579 17.500489,39.4988684 L17.500489,39.4988684 Z" id="Fill-10"></path>
                                    <path d="M22.0602508,39.7437632 C22.0602508,39.0052895 22.0080752,38.2620789 22.0750219,37.5297632 C22.1414922,36.8038421 21.8582194,36.5594211 21.182558,36.6856579 C20.4356614,36.8249211 20.2970031,36.4653947 20.3410784,35.8128947 C20.3694295,35.3953421 20.4723511,35.2532368 20.9050031,35.2617632 C22.2120125,35.2873421 23.5206897,35.3015526 24.8265078,35.2575 C25.4218809,35.2373684 25.4311724,35.5395789 25.4111599,35.9628158 C25.393768,36.3358421 25.5109843,36.6991579 24.8701066,36.7022368 C23.6812665,36.7076842 23.6815047,36.7531579 23.6812665,37.9335789 C23.6812665,39.3217105 23.636953,40.7122105 23.6998495,42.0975 C23.7317743,42.7964211 23.4899561,42.9226579 22.8505078,42.9122368 C22.2546583,42.9022895 21.9975925,42.7869474 22.0461944,42.1353947 C22.1055172,41.3422105 22.0602508,40.5414474 22.0602508,39.7437632" id="Fill-11"></path>
                                    <path d="M11.8145455,41.4262895 C12.5152226,40.302 12.6338683,39.1211053 12.5190345,37.9117895 C12.4558997,37.2483947 12.7432226,37.1399211 13.3269216,37.1536579 C13.8598746,37.1662105 14.0638119,37.2443684 14.1024075,37.8677368 C14.1986583,39.4188158 13.8227085,40.8258947 13.1830219,42.2145 C12.953116,42.7135263 12.692,42.8497105 12.1533292,42.9183947 C11.0447774,43.0602632 10.5937806,42.6007895 10.1730408,41.616 C9.62769906,40.3396579 9.55241379,39.0694737 9.54455172,37.7367632 C9.54002508,36.9374211 10.0686897,37.2315789 10.4474984,37.1702368 C10.9361379,37.0913684 11.1462696,37.2543158 11.1055298,37.7829474 C11.0097555,39.0251842 11.0845643,40.2475263 11.8145455,41.4262895" id="Fill-12"></path>
                                    <path d="M41.1398245,39.9727895 C41.1405392,39.6182368 41.1443511,39.2634474 41.1388715,38.9088947 C41.1357743,38.709 41.170558,38.4363947 40.8622696,38.4674211 C40.2992978,38.5235526 40.2614169,38.2310526 40.2552226,37.7796316 C40.24879,37.3196842 40.3791097,37.1794737 40.8501191,37.1531842 C41.3649655,37.1242895 41.1498307,36.6375789 41.1205266,36.3848684 C41.0426207,35.7117632 41.4021317,35.6883158 41.9136426,35.6868947 C42.4227712,35.6852368 42.8261191,35.7041842 42.6948464,36.3735 C42.5607147,37.0575 42.865906,37.2907895 43.5151223,37.1692895 C44.078094,37.0638947 44.1838746,37.3111579 44.2127022,37.8416842 C44.2479624,38.4913421 43.9129906,38.5152632 43.4679498,38.4520263 C42.854232,38.3648684 42.5907335,38.5685526 42.6817429,39.2115789 C42.7310596,39.5595 42.7201003,39.9225789 42.6857931,40.2738158 C42.6012163,41.1373421 42.7541693,41.7296842 43.8491411,41.6129211 C44.4349843,41.5503947 44.1286019,42.0695526 44.1772038,42.3253421 C44.2308088,42.6071842 44.2467712,42.8627368 43.7707586,42.9051316 C41.9067335,43.0702105 41.1503072,42.4314474 41.1395862,40.5933158 C41.138395,40.3865526 41.139348,40.1795526 41.1398245,39.9727895" id="Fill-13"></path>
                                    <path d="M74.9760251,42.8885526 C73.4574545,42.8677105 72.9156865,42.3184737 72.9018683,40.7801842 C72.8973417,40.2785526 72.9018683,39.7769211 72.8992476,39.2752895 C72.8973417,38.8520526 73.0495799,38.3750526 72.2812414,38.4311842 C71.7937931,38.4667105 72.0570533,37.9885263 72.0325141,37.7486053 C72.0110721,37.5375789 71.8576426,37.1278421 72.3195987,37.1808947 C73.0264702,37.2618947 72.9416552,36.7957895 72.8913856,36.4009737 C72.8137179,35.7906316 73.0776928,35.6688947 73.6373292,35.6826316 C74.1619436,35.6956579 74.5190721,35.7366316 74.3908966,36.3884211 C74.2515235,37.0972895 74.633906,37.2663947 75.2464326,37.1707105 C75.7624702,37.0899474 75.9649781,37.2372632 75.9709342,37.8203684 C75.9773668,38.4314211 75.7181567,38.5353947 75.2340439,38.4498947 C74.4876238,38.3179737 74.3127524,38.6777368 74.3827962,39.3342632 C74.4266332,39.7428158 74.4187712,40.1615526 74.3880376,40.5722368 C74.3356238,41.2683158 74.5848276,41.6768684 75.336489,41.5935 C75.8744451,41.5338158 75.9664075,41.7666316 75.9628339,42.2450526 C75.9594984,42.7199211 75.8601505,42.9752368 75.3317241,42.8921053 C75.2159373,42.8738684 75.0946708,42.8895 74.9760251,42.8885526" id="Fill-14"></path>
                                    <path d="M34.45921,39.3856579 C34.4589718,39.8882368 34.4584953,40.3908158 34.45921,40.8933947 C34.4599248,41.2382368 34.3679624,41.5605789 34.9435611,41.6242895 C35.5325016,41.6896579 35.1444013,42.2431579 35.2170658,42.5681053 C35.3006897,42.9430263 34.9797743,42.8866579 34.7536803,42.8880789 C34.1292414,42.8921053 33.5028966,42.9167368 32.8810784,42.8767105 C32.6163887,42.8596579 32.1387085,43.1256316 32.1277492,42.5906053 C32.1198871,42.2149737 31.7601379,41.5762105 32.6383072,41.5792895 C32.9980564,41.5807105 32.9015674,41.2472368 32.9051411,41.0312368 C32.9156238,40.4107105 32.9025204,39.7897105 32.9087147,39.1689474 C32.9125266,38.7812368 32.9837618,38.4527368 32.3612288,38.4176842 C31.8518621,38.3887895 32.1594357,37.845 32.1008276,37.5387632 C32.0400752,37.2211579 32.279511,37.1463158 32.5534922,37.17 C32.5830345,37.1723684 32.6130533,37.1716579 32.6425956,37.17 C34.4594483,37.0648421 34.4594483,37.0648421 34.45921,39.3856579" id="Fill-15"></path>
                                    <path d="M59.2356865,39.3963158 C59.2354483,39.8979474 59.2378307,40.3998158 59.2344953,40.9014474 C59.2321129,41.2628684 59.1877994,41.5835526 59.7464828,41.6181316 C60.3375674,41.6548421 59.9644765,42.1728158 60.039047,42.4648421 C60.1314859,42.8279211 59.888953,42.8987368 59.5735172,42.8932895 C58.8316238,42.8805 58.0890157,42.8795526 57.3471223,42.8935263 C57.0190596,42.8999211 56.8058307,42.8018684 56.8842132,42.4489737 C56.9487774,42.1576579 56.6016552,41.6368421 57.2029843,41.6231053 C57.7526144,41.6103158 57.7364138,41.3182895 57.7271223,40.9414737 C57.7140188,40.4107105 57.7340313,39.879 57.7199749,39.348 C57.7090157,38.9287895 57.9286771,38.4155526 57.1124514,38.4127105 C56.6583574,38.4110526 56.9390094,37.8876316 56.8844514,37.6043684 C56.8308464,37.3237105 56.9556865,37.1479737 57.2756489,37.1730789 C57.3347335,37.1778158 57.3945329,37.1759211 57.4536176,37.1728421 C59.2359248,37.0764474 59.2359248,37.0764474 59.2356865,39.3963158" id="Fill-16"></path>
                                    <path d="M7.91877116,39.4074474 C7.91877116,39.9105 7.91972414,40.4137895 7.91829467,40.9170789 C7.91734169,41.2699737 7.84443887,41.6006053 8.42289655,41.6205 C9.00183072,41.6406316 8.6682884,42.1664211 8.73523511,42.4624737 C8.81933542,42.8340789 8.57489655,42.8975526 8.26112853,42.8923421 C7.54687147,42.8809737 6.83189969,42.8845263 6.11716614,42.8916316 C5.7979185,42.8947105 5.47771787,42.8916316 5.57706583,42.4437632 C5.64472727,42.1396579 5.26901567,41.58 5.98303448,41.6079474 C6.44642006,41.6261842 6.43021944,41.3474211 6.42831348,41.0381053 C6.42450157,40.4756053 6.44094044,39.9128684 6.4230721,39.3508421 C6.40996865,38.9302105 6.63892163,38.3982632 5.80030094,38.4131842 C5.37169906,38.421 5.63186207,37.8878684 5.57325392,37.6043684 C5.51607524,37.3282105 5.62995611,37.1434737 5.95492163,37.1683421 C6.01400627,37.1728421 6.07404389,37.1726053 6.13360502,37.1697632 C7.91877116,37.0863947 7.91877116,37.0863947 7.91877116,39.4074474" id="Fill-17"></path>
                                    <path d="M36.4437868,40.0478684 C36.4437868,39.3108158 36.4259185,38.5732895 36.4545078,37.8374211 C36.4630846,37.6157368 36.2579561,37.2285 36.6729781,37.1934474 C37.064652,37.1602895 37.6998119,36.9762632 37.8217931,37.2952895 C38.0516991,37.8966316 38.2251411,37.4433158 38.3847649,37.3545 C38.7447524,37.1536579 39.1430972,37.0830789 39.4961755,37.2171316 C39.8399624,37.3478684 39.619348,37.7346316 39.6591348,38.0058158 C39.7377555,38.5422632 39.3453668,38.4847105 39.0356489,38.4482368 C38.1427085,38.3428421 37.8882633,38.7798158 37.924953,39.5900526 C37.9661693,40.5021316 37.8920752,41.4198947 37.9478245,42.3303158 C37.991185,43.0413158 37.5349467,42.8793158 37.1466082,42.8895 C36.7642257,42.8992105 36.3796991,42.9842368 36.4297304,42.3459474 C36.4895298,41.5842632 36.4437868,40.8142895 36.4437868,40.0478684" id="Fill-18"></path>
                                    <path d="M33.7037367,36.7012895 C33.2091411,36.7621579 32.8491536,36.7562368 32.8827461,36.0596842 C32.9106207,35.4789474 33.0083009,35.2316842 33.6646646,35.2470789 C34.2664702,35.2612895 34.4682633,35.4038684 34.4858934,36.0333947 C34.5047147,36.6963158 34.2154859,36.7822895 33.7037367,36.7012895" id="Fill-19"></path>
                                    <path d="M58.4525768,36.693 C57.8645893,36.8346316 57.706395,36.6063158 57.6987712,36.0172895 C57.6906708,35.3799474 57.899373,35.2480263 58.5035611,35.2494474 C59.0905956,35.2508684 59.2437868,35.4107368 59.2559373,35.9881579 C59.2695172,36.6309474 59.0601003,36.8441053 58.4525768,36.693" id="Fill-20"></path>
                                    <path d="M7.16639498,36.6967895 C6.62081505,36.8111842 6.39400627,36.6541579 6.40329781,36.0348158 C6.4123511,35.4372632 6.55696552,35.2522895 7.18283386,35.2456579 C7.83705329,35.2387895 7.92448903,35.4758684 7.94235737,36.0490263 C7.96260815,36.6903947 7.69482132,36.8007632 7.16639498,36.6967895" id="Fill-21"></path>
                                    <path d="M63.7968777,39.2895 C63.8414295,39.9294474 63.667511,40.3846579 62.8996489,40.3787368 C62.1923009,40.3732895 62.0200502,39.969 62.0174295,39.3503684 C62.015047,38.7094737 62.1482257,38.2552105 62.9241881,38.2608947 C63.6401129,38.2661053 63.8338056,38.6703947 63.7968777,39.2895" id="Fill-22"></path>
                                    <path d="M17.500489,39.4988684 C17.1860063,39.4261579 16.7014169,39.7020789 16.7714608,39.0462632 C16.8222069,38.5735263 16.9925517,38.2476316 17.5250282,38.2755789 C18.0467837,38.3030526 18.2114107,38.6521579 18.2307085,39.1125789 C18.2592978,39.8020263 17.709906,39.3321316 17.500489,39.4988684" id="Fill-23"></path>
                                </g>
                            </g>
                        </g>
                    </g>
                </g>
            </g>
        </g>
    </g>
</svg>