<?xml version="1.0" encoding="UTF-8" standalone="no"?>
<svg
   width="300"
   viewBox="0 0 300 90"
   version="1.1"
   height="90"
   id="svg2"
   inkscape:version="1.1.1 (3bf5ae0d25, 2021-09-20)"
   sodipodi:docname="apple.svg"
   xmlns:inkscape="http://www.inkscape.org/namespaces/inkscape"
   xmlns:sodipodi="http://sodipodi.sourceforge.net/DTD/sodipodi-0.dtd"
   xmlns="http://www.w3.org/2000/svg"
   xmlns:svg="http://www.w3.org/2000/svg"
   xmlns:rdf="http://www.w3.org/1999/02/22-rdf-syntax-ns#"
   xmlns:cc="http://creativecommons.org/ns#"
   xmlns:dc="http://purl.org/dc/elements/1.1/">
  <metadata
     id="metadata10">
    <rdf:RDF>
      <cc:Work
         rdf:about="">
        <dc:format>image/svg+xml</dc:format>
        <dc:type
           rdf:resource="http://purl.org/dc/dcmitype/StillImage" />
      </cc:Work>
    </rdf:RDF>
  </metadata>
  <defs
     id="defs8" />
  <sodipodi:namedview
     pagecolor="#ffffff"
     bordercolor="#666666"
     borderopacity="1"
     objecttolerance="10"
     gridtolerance="10"
     guidetolerance="10"
     inkscape:pageopacity="0"
     inkscape:pageshadow="2"
     inkscape:window-width="1866"
     inkscape:window-height="1016"
     id="namedview6"
     showgrid="false"
     inkscape:zoom="3.1266571"
     inkscape:cx="112.5803"
     inkscape:cy="98.34785"
     inkscape:window-x="54"
     inkscape:window-y="27"
     inkscape:window-maximized="1"
     inkscape:current-layer="svg2"
     inkscape:pagecheckerboard="0" />
  <path
     d="m 184.84361,69.118445 c -1.30591,3.016901 -2.85168,5.79394 -4.64262,8.347115 -2.44124,3.480628 -4.44008,5.889886 -5.98051,7.227766 -2.38793,2.196048 -4.94644,3.320728 -7.68616,3.384689 -1.96685,0 -4.3388,-0.559679 -7.09985,-1.695005 -2.77011,-1.130016 -5.31581,-1.689684 -7.64353,-1.689684 -2.44122,0 -5.05943,0.559668 -7.85993,1.689684 -2.80477,1.135326 -5.06424,1.72699 -6.79176,1.785626 -2.62726,0.11192 -5.246,-1.04473 -7.85994,-3.47531 -1.66836,-1.455145 -3.75512,-3.949693 -6.255,-7.483622 -2.68215,-3.773786 -4.88727,-8.149891 -6.61479,-13.138971 -1.85012,-5.388847 -2.77757,-10.607126 -2.77757,-15.6591 0,-5.787012 1.25047,-10.778224 3.75514,-14.960843 1.96844,-3.359633 4.58717,-6.009815 7.86472,-7.955344 3.27754,-1.945527 6.81893,-2.936946 10.63272,-3.000377 2.08677,0 4.8233,0.645489 8.22398,1.91408 3.39107,1.272856 5.56847,1.918345 6.52311,1.918345 0.71371,0 3.13257,-0.75476 7.23309,-2.259478 3.87775,-1.39545 7.15049,-1.973247 9.83158,-1.745647 7.26507,0.586324 12.72322,3.450249 16.3531,8.609896 -6.49753,3.936895 -9.71163,9.451 -9.64769,16.524727 0.0587,5.509841 2.05748,10.094888 5.98583,13.735427 1.78028,1.689675 3.76846,2.995578 5.98051,3.923036 -0.47973,1.391185 -0.98609,2.723739 -1.52443,4.00299 z M 168.18135,3.5514919 c 0,4.3185895 -1.57774,8.3508441 -4.72257,12.0830571 -3.79511,4.436872 -8.38549,7.000704 -13.36337,6.596142 -0.0634,-0.518098 -0.10026,-1.063377 -0.10026,-1.636374 0,-4.145842 1.80481,-8.582712 5.00987,-12.210456 1.60013,-1.8367901 3.63521,-3.3640557 6.10309,-4.5823847 2.46257,-1.2001508 4.79186,-1.8638607 6.98258,-1.9775178 0.064,0.5773282 0.0906,1.1546924 0.0906,1.7274774 z"
     id="path4"
     inkscape:connector-curvature="0"
     style="stroke-width:0.0727361" />
</svg>
