<?xml version="1.0" encoding="UTF-8" standalone="no"?>
<svg
   width="50.539204"
   viewBox="0 0 50.539203 60.000003"
   version="1.1"
   height="60.000004"
   id="svg2"
   inkscape:version="1.1.1 (3bf5ae0d25, 2021-09-20)"
   sodipodi:docname="apple.svg"
   xmlns:inkscape="http://www.inkscape.org/namespaces/inkscape"
   xmlns:sodipodi="http://sodipodi.sourceforge.net/DTD/sodipodi-0.dtd"
   xmlns="http://www.w3.org/2000/svg"
   xmlns:svg="http://www.w3.org/2000/svg"
   xmlns:rdf="http://www.w3.org/1999/02/22-rdf-syntax-ns#"
   xmlns:cc="http://creativecommons.org/ns#"
   xmlns:dc="http://purl.org/dc/elements/1.1/">
  <metadata
     id="metadata10">
    <rdf:RDF>
      <cc:Work
         rdf:about="">
        <dc:format>image/svg+xml</dc:format>
        <dc:type
           rdf:resource="http://purl.org/dc/dcmitype/StillImage" />
      </cc:Work>
    </rdf:RDF>
  </metadata>
  <defs
     id="defs8" />
  <sodipodi:namedview
     pagecolor="#ffffff"
     bordercolor="#666666"
     borderopacity="1"
     objecttolerance="10"
     gridtolerance="10"
     guidetolerance="10"
     inkscape:pageopacity="0"
     inkscape:pageshadow="2"
     inkscape:window-width="1866"
     inkscape:window-height="1016"
     id="namedview6"
     showgrid="false"
     inkscape:zoom="5.2875619"
     inkscape:cx="25.342493"
     inkscape:cy="53.805517"
     inkscape:window-x="54"
     inkscape:window-y="27"
     inkscape:window-maximized="1"
     inkscape:current-layer="svg2"
     inkscape:pagecheckerboard="0"
     fit-margin-top="0"
     fit-margin-left="0"
     fit-margin-right="0"
     fit-margin-bottom="0" />
  <path
     d="m 49.479983,46.758214 c -0.90738,2.09624 -1.98142,4.02581 -3.22583,5.79983 -1.69624,2.41844 -3.08509,4.09247 -4.15543,5.02207 -1.65921,1.52588 -3.43693,2.30733 -5.34058,2.35178 -1.36662,0 -3.01472,-0.38888 -4.93318,-1.17774 -1.92476,-0.78517 -3.693592,-1.17404 -5.31095,-1.17404 -1.696246,0 -3.515451,0.38887 -5.461318,1.17404 -1.948831,0.78886 -3.518782,1.19996 -4.719117,1.2407 -1.8255,0.0778 -3.645074,-0.72591 -5.461316,-2.41474 C 9.713039,56.569024 8.263083,54.835744 6.526098,52.380264 4.662451,49.758124 3.130276,46.717474 1.929941,43.250914 0.644425,39.506584 0,35.880764 0,32.370504 c 0,-4.02099 0.868863,-7.48903 2.60918,-10.39524 1.367736,-2.33437 3.187311,-4.1758 5.464648,-5.527608 2.27734,-1.35181 4.738006,-2.040678 7.387926,-2.084751 1.449955,0 3.35138,0.448505 5.714271,1.32996 2.356225,0.884417 3.869142,1.332919 4.532455,1.332919 0.49591,0 2.176601,-0.524426 5.025773,-1.569949 2.69436,-0.9696 4.96837,-1.371071 6.83128,-1.212928 5.04799,0.407396 8.84047,2.397337 11.36261,5.982417 -4.51467,2.73547 -6.74794,6.56683 -6.7035,11.48187 0.0407,3.8284 1.42959,7.01423 4.15914,9.54378 1.23699,1.17404 2.61843,2.08142 4.15542,2.72585 -0.33332,0.96663 -0.68516,1.89253 -1.05922,2.78139 z M 37.902553,1.200341 c 0,3.000685 -1.09626,5.802416 -3.28138,8.39567 -2.63696,3.082871 -5.826489,4.864297 -9.285274,4.583195 -0.04407,-0.359989 -0.06963,-0.738866 -0.06963,-1.137002 0,-2.880654 1.254036,-5.963524 3.481007,-8.484188 1.111817,-1.276257 2.525847,-2.337447 4.240617,-3.183978 1.71106,-0.833901 3.32952,-1.295066 4.8517,-1.374038 0.0444,0.401144 0.063,0.802314 0.063,1.200302 z"
     id="path4"
     inkscape:connector-curvature="0"
     style="stroke-width:0.0505391" />
</svg>
