<?xml version="1.0" encoding="UTF-8" standalone="no"?>
<svg width="57px" height="50px" viewBox="0 0 57 50" version="1.1" xmlns="http://www.w3.org/2000/svg" xmlns:xlink="http://www.w3.org/1999/xlink" xmlns:sketch="http://www.bohemiancoding.com/sketch/ns">
    <!-- Generator: Sketch 3.3.3 (12072) - http://www.bohemiancoding.com/sketch -->
    <title>Oval 67</title>
    <desc>Created with Sketch.</desc>
    <defs></defs>
    <g id="Page-1" stroke="none" stroke-width="1" fill="none" fill-rule="evenodd" sketch:type="MSPage">
        <g id="Home---Desktop-Copy-2" sketch:type="MSArtboardGroup" transform="translate(-145.000000, -3400.000000)" fill="#000000">
            <path d="M195.279536,3410.5689 C194.326104,3410.01221 193.216901,3409.69322 192.033196,3409.69322 C188.733724,3409.69322 186.013109,3412.17161 185.631421,3415.3683 L185.631421,3415.3683 C184.123862,3416.24984 181.191633,3417.96327 177.869558,3419.89832 L174.918141,3416.9469 C174.37904,3416.4078 173.486581,3416.40282 172.939203,3416.9502 C172.38801,3417.50139 172.390353,3418.38357 172.935913,3418.92913 L175.363648,3421.35687 C169.209735,3424.93581 162.625343,3428.74226 161.47729,3429.31628 C161.47729,3431.27859 158.673996,3435.48353 158.673996,3435.48353 L178.457308,3424.45053 L179.462267,3425.45549 L179.462267,3425.45549 C179.433425,3425.61674 179.418373,3425.78278 179.418373,3425.95233 C179.418373,3427.50055 180.67345,3428.75562 182.221667,3428.75562 C182.391218,3428.75562 182.557253,3428.74057 182.718509,3428.71173 L183.723468,3429.71669 L172.690467,3449.5 C172.690467,3449.5 177.736396,3446.69671 178.857714,3446.69671 C179.798413,3445.35285 183.316009,3438.98405 186.72367,3432.71689 L188.403875,3434.39709 C188.942976,3434.9362 189.835435,3434.94118 190.382812,3434.3938 C190.934006,3433.84261 190.931663,3432.96043 190.386103,3432.41487 L188.118186,3430.14695 L188.118186,3430.14695 C189.673244,3427.27568 191.123417,3424.58091 192.194203,3422.58641 L192.194203,3422.58641 C195.680703,3422.50095 198.480773,3419.64787 198.480773,3416.1408 C198.480773,3414.69063 198.002012,3413.35227 197.193926,3412.27518 C197.344022,3412.20688 197.48472,3412.11084 197.608364,3411.9872 L200.774751,3408.82081 C201.329045,3408.26652 201.324717,3407.38337 200.77734,3406.836 C200.226147,3406.2848 199.34133,3406.28978 198.792523,3406.83859 L195.626136,3410.00497 C195.461393,3410.16972 195.345996,3410.36351 195.279536,3410.5689 L195.279536,3410.5689 Z M181.281735,3423.3105 L181.002391,3423.03115 L186.744048,3419.82908 C187.179324,3420.45212 187.721877,3420.99467 188.344919,3421.42995 L185.142841,3427.1716 L185.142841,3427.1716 L184.863497,3426.89226 C184.968043,3426.59844 185.024961,3426.28203 185.024961,3425.95233 C185.024961,3424.40411 183.769883,3423.14904 182.221667,3423.14904 C181.891966,3423.14904 181.575558,3423.20595 181.281735,3423.3105 L181.281735,3423.3105 Z M192.033196,3419.22442 C193.736234,3419.22442 195.11682,3417.84384 195.11682,3416.1408 C195.11682,3414.43776 193.736234,3413.05718 192.033196,3413.05718 C190.330158,3413.05718 188.949573,3414.43776 188.949573,3416.1408 C188.949573,3417.84384 190.330158,3419.22442 192.033196,3419.22442 Z M155.26176,3432.68024 L148.510533,3432.68024 L148.510533,3417.54243 C148.510533,3417.54243 151.897806,3413.05718 157.504395,3413.05718 C156.383077,3410.81454 155.261759,3402.96532 158.625713,3402.96532 L188.90648,3402.96532 L188.90648,3406.32927 L192.825901,3406.32927 L192.825901,3400.13659 L156.943727,3400.13659 C156.943727,3400.13659 153.579783,3403.52598 149.655171,3409.13256 C145.730559,3414.73915 145.73056,3416.42115 145.73056,3416.98179 C145.730559,3417.54243 145.73056,3436.60485 145.73056,3436.60485 L155.26176,3436.60485 L155.26176,3432.68024 Z" id="Oval-67" sketch:type="MSShapeGroup"></path>
        </g>
    </g>
</svg>