<?xml version="1.0" encoding="UTF-8" standalone="no"?>
<svg width="57px" height="50px" viewBox="0 0 57 50" version="1.1" xmlns="http://www.w3.org/2000/svg" xmlns:xlink="http://www.w3.org/1999/xlink" xmlns:sketch="http://www.bohemiancoding.com/sketch/ns">
    <!-- Generator: Sketch 3.3.3 (12072) - http://www.bohemiancoding.com/sketch -->
    <title>architectureicon</title>
    <desc>Created with Sketch.</desc>
    <defs></defs>
    <g id="Page-1" stroke="none" stroke-width="1" fill="none" fill-rule="evenodd" sketch:type="MSPage">
        <g id="architectureicon" sketch:type="MSLayerGroup" fill="#0793F5">
            <g id="Page-1" sketch:type="MSShapeGroup">
                <g id="Home---Desktop-Copy-2">
                    <path d="M50.279536,10.5689 C49.326104,10.01221 48.216901,9.69322 47.033196,9.69322 C43.733724,9.69322 41.013109,12.17161 40.631421,15.3683 L40.631421,15.3683 C39.123862,16.24984 36.191633,17.96327 32.869558,19.89832 L29.918141,16.9469 C29.37904,16.4078 28.486581,16.40282 27.939203,16.9502 C27.38801,17.50139 27.390353,18.38357 27.935913,18.92913 L30.363648,21.35687 C24.209735,24.93581 17.625343,28.74226 16.47729,29.31628 C16.47729,31.27859 13.673996,35.48353 13.673996,35.48353 L33.457308,24.45053 L34.462267,25.45549 C34.433425,25.61674 34.418373,25.78278 34.418373,25.95233 C34.418373,27.50055 35.67345,28.75562 37.221667,28.75562 C37.391218,28.75562 37.557253,28.74057 37.718509,28.71173 L38.723468,29.71669 L27.690467,49.5 C27.690467,49.5 32.736396,46.69671 33.857714,46.69671 C34.798413,45.35285 38.316009,38.98405 41.72367,32.71689 L43.403875,34.39709 C43.942976,34.9362 44.835435,34.94118 45.382812,34.3938 C45.934006,33.84261 45.931663,32.96043 45.386103,32.41487 L43.118186,30.14695 C44.673244,27.27568 46.123417,24.58091 47.194203,22.58641 L47.194203,22.58641 C50.680703,22.50095 53.480773,19.64787 53.480773,16.1408 C53.480773,14.69063 53.002012,13.35227 52.193926,12.27518 C52.344022,12.20688 52.48472,12.11084 52.608364,11.9872 L55.774751,8.82081 C56.329045,8.26652 56.324717,7.38337 55.77734,6.836 C55.226147,6.2848 54.34133,6.28978 53.792523,6.83859 L50.626136,10.00497 C50.461393,10.16972 50.345996,10.36351 50.279536,10.5689 L50.279536,10.5689 L50.279536,10.5689 Z M36.281735,23.3105 L36.002391,23.03115 L41.744048,19.82908 C42.179324,20.45212 42.721877,20.99467 43.344919,21.42995 L40.142841,27.1716 L39.863497,26.89226 C39.968043,26.59844 40.024961,26.28203 40.024961,25.95233 C40.024961,24.40411 38.769883,23.14904 37.221667,23.14904 C36.891966,23.14904 36.575558,23.20595 36.281735,23.3105 L36.281735,23.3105 L36.281735,23.3105 Z M47.033196,19.22442 C48.736234,19.22442 50.11682,17.84384 50.11682,16.1408 C50.11682,14.43776 48.736234,13.05718 47.033196,13.05718 C45.330158,13.05718 43.949573,14.43776 43.949573,16.1408 C43.949573,17.84384 45.330158,19.22442 47.033196,19.22442 L47.033196,19.22442 Z M10.26176,32.68024 L3.510533,32.68024 L3.510533,17.54243 C3.510533,17.54243 6.897806,13.05718 12.504395,13.05718 C11.383077,10.81454 10.261759,2.96532 13.625713,2.96532 L43.90648,2.96532 L43.90648,6.32927 L47.825901,6.32927 L47.825901,0.13659 L11.943727,0.13659 C11.943727,0.13659 8.579783,3.52598 4.655171,9.13256 C0.730559,14.73915 0.73056,16.42115 0.73056,16.98179 C0.730559,17.54243 0.73056,36.60485 0.73056,36.60485 L10.26176,36.60485 L10.26176,32.68024 L10.26176,32.68024 Z" id="Oval-67"></path>
                </g>
            </g>
        </g>
    </g>
</svg>