<?xml version="1.0" encoding="utf-8"?>
<!-- Generator: Adobe Illustrator 19.2.1, SVG Export Plug-In . SVG Version: 6.00 Build 0)  -->
<svg version="1.1" id="Layer_1" xmlns="http://www.w3.org/2000/svg" xmlns:xlink="http://www.w3.org/1999/xlink" x="0px" y="0px"
	 viewBox="0 0 384.1 81.8" style="enable-background:new 0 0 384.1 81.8;" xml:space="preserve">
<style type="text/css">
	.st0{fill:#B1B1B1;}
</style>
<g>
	<path class="st0" d="M37.7,9.7L10.4,72.1h11.2l6.4-15h29.3l6.3,15H75L47.8,9.7H37.7z M31.9,47.5l10.6-24.8l10.7,24.8H31.9z"/>
	<polygon class="st0" points="106.4,37.3 88.9,9.7 76,9.7 100.7,47.5 100.7,72.1 111.8,72.1 111.8,47.2 136.6,9.7 124,9.7 	"/>
	<path class="st0" d="M164.8,9.7l-27.3,62.4h11.2l6.4-15h29.3l6.3,15h11.5L174.9,9.7H164.8z M159,47.5l10.6-24.8l10.7,24.8H159z"/>
	<path class="st0" d="M241.7,35.9c-11.9-2.9-14.8-5-14.8-9.8v-0.2c0-4.1,3.7-7.4,10.2-7.4c5.7,0,11.3,2.2,16.9,6.4l5.9-8.3
		c-6.3-5.1-13.5-7.8-22.6-7.8c-12.4,0-21.3,7.4-21.3,18.1v0.2c0,11.5,7.5,15.4,20.8,18.6c11.6,2.7,14.1,5.1,14.1,9.5v0.2
		c0,4.7-4.3,7.8-11.1,7.8c-7.8,0-13.7-2.9-19.7-8.1l-6.6,7.8c7.5,6.7,16.5,10,26,10c13.1,0,22.3-7,22.3-18.6v-0.2
		C261.7,43.8,254.9,39.1,241.7,35.9z"/>
	<path class="st0" d="M304.6,9.7h-23.3v62.4h23.3c19.6,0,33.2-13.6,33.2-31.2v-0.2C337.7,23.2,324.2,9.7,304.6,9.7z M326.2,41.1
		c0,12.2-8.6,21-21.7,21h-12.3V19.7h12.3c13.1,0,21.7,9,21.7,21.2V41.1z"/>
	<rect x="358.3" y="9.7" class="st0" width="11" height="62.4"/>
</g>
</svg>
