<?xml version="1.0" encoding="UTF-8" standalone="no"?>
<svg width="147px" height="46px" viewBox="0 0 147 46" version="1.1" xmlns="http://www.w3.org/2000/svg" xmlns:xlink="http://www.w3.org/1999/xlink" xmlns:sketch="http://www.bohemiancoding.com/sketch/ns">
    <!-- Generator: Sketch 3.3.3 (12072) - http://www.bohemiancoding.com/sketch -->
    <title>Imported Layers</title>
    <desc>Created with Sketch.</desc>
    <defs></defs>
    <g id="Page-1" stroke="none" stroke-width="1" fill="none" fill-rule="evenodd" sketch:type="MSPage">
        <g id="Home---Desktop-Copy-2" sketch:type="MSArtboardGroup" transform="translate(-348.000000, -2148.000000)" fill="#B1B1B1">
            <g id="Group-+-Currently-in-use-at" sketch:type="MSLayerGroup" transform="translate(110.000000, 1814.000000)">
                <g id="Group" sketch:type="MSShapeGroup">
                    <g id="Row-3-+-Row-1-+-Row-2">
                        <g transform="translate(0.000000, 93.000000)">
                            <g id="Row-3" transform="translate(46.079694, 221.405882)">
                                <g id="Imported-Layers" transform="translate(192.000000, 20.000000)">
                                    <path d="M15.9985,0.137270642 C16.7297627,0.255963303 17.4666314,0.348440367 18.19125,0.498302752 C20.1020424,0.893394495 21.8371822,1.64704128 23.1429492,3.14649083 C25.4999322,5.85247706 25.3033093,10.1016743 22.6326017,12.7170413 C21.7582839,13.5732798 20.6775847,14.2226835 19.6809746,14.9525917 C19.3323686,15.2079358 18.952411,15.4209633 18.469678,15.7279128 C18.8405,15.8918119 19.0983729,15.9892431 19.3408814,16.1155734 C20.5548771,16.7484633 21.8106059,17.3165367 22.9681271,18.0394266 C27.7987797,21.0554587 27.4460212,29.0055963 21.8440339,31.6001147 C19.8730297,32.5129128 17.79925,33.0233945 15.6492712,33.0491972 C13.6898941,33.0725229 11.7288559,32.8180046 9.76657203,32.7777523 C7.44073305,32.7302752 5.11261017,32.7820872 2.78573305,32.7884862 C2.3665339,32.7897248 1.93902966,32.8264679 1.53228814,32.7533945 C1.35663559,32.7218119 1.09440254,32.4441743 1.10436864,32.2938991 C1.11765678,32.0963532 1.34023305,31.7747477 1.50882627,31.7501835 C2.14686441,31.6564679 2.79902119,31.6451147 3.44661017,31.6327294 C5.0025678,31.6025917 5.07212288,31.5414908 5.07212288,30.0288303 C5.07233051,22.2394954 5.08271186,14.4501606 5.06049576,6.66103211 C5.05738136,5.52736239 4.98533475,4.37883028 4.78850424,3.26456422 C4.54558051,1.88896789 3.95944915,1.49594037 2.56398729,1.48995413 C2.10533898,1.48788991 1.64191525,1.52215596 1.18970339,1.46704128 C0.804762712,1.42018349 0.432694915,1.26866972 0.0548135593,1.16360092 L0.0548135593,0.593463303 C0.543152542,0.540206422 1.03066102,0.447729358 1.51962288,0.440504587 C3.79064831,0.407477064 6.06250424,0.422133028 8.33290678,0.370733945 C9.62746186,0.341422018 10.9199407,0.218188073 12.21325,0.137270642 L15.9985,0.137270642 L15.9985,0.137270642 Z M9.49541102,23.0162615 C9.49541102,24.2698624 9.44454237,25.5259404 9.50973729,26.7762385 C9.57555508,28.0416055 9.74850847,29.3020183 9.88990254,30.562844 C9.94824576,31.0842661 10.2690297,31.4486009 10.7532161,31.6040367 C11.4207373,31.8185092 12.0994703,32.0476376 12.7904534,32.131445 C15.0899237,32.4107339 17.2552669,32.0924312 19.0464661,30.4629358 C21.2435763,28.463945 21.9372585,24.6663991 20.6599364,21.6427294 C18.9987119,17.7093578 14.8459619,16.0747018 10.9485932,16.2722477 C9.73272881,16.3339679 9.51202119,16.6054128 9.50101695,17.8311468 C9.48523729,19.5595183 9.49686441,21.2878899 9.49541102,23.0162615 L9.49541102,23.0162615 Z M9.49873305,8.59355505 L9.49561864,8.59355505 C9.49561864,10.4544495 9.49250424,12.315344 9.49707203,14.1762385 C9.49914831,15.0818119 9.69411017,15.2694495 10.6020636,15.3068119 C12.6422076,15.3904128 14.6817288,15.481445 16.7218729,15.5611239 C16.8836144,15.5673165 17.0804449,15.5549312 17.2060593,15.4702982 C18.5664322,14.5539908 19.6759915,13.4393119 20.0754661,11.7796789 C20.4554237,10.2007569 20.5370212,8.62038991 20.0100636,7.06293578 C19.1710424,4.58401376 17.7801483,2.57470183 15.1542881,1.68791284 C13.6990297,1.19642202 12.2070212,1.34174312 10.7332839,1.55373853 C9.74788559,1.69555046 9.51264407,2.01756881 9.5037161,3.01066514 C9.48669068,4.87155963 9.49873305,6.73245413 9.49873305,8.59355505 L9.49873305,8.59355505 Z" id="Fill-1"></path>
                                    <path id="Fill-2" d="M12.21325,0.137270642 C10.9199407,0.218188073 9.62746186,0.341422018 8.33290678,0.370733945 C6.06250424,0.422133028 3.79064831,0.407477064 1.51962288,0.440504587 C1.03066102,0.447729358 0.543152542,0.540206422 0.0548135593,0.593463303 L0.0548135593,0.137270642 L12.21325,0.137270642"></path>
                                    <path d="M81.9711864,14.0707569 C81.1844873,15.0481651 80.5568305,16.0152523 79.7470847,16.7951147 C78.0607373,18.4188303 76.2803347,19.9463532 74.5337754,21.5079358 C73.3687797,22.5495413 73.2240636,22.3416743 74.3078771,23.6704128 C76.1013602,25.8692202 77.9272331,28.0420183 79.7591271,30.2092431 C80.1127161,30.6274541 80.5084534,31.0516514 80.9731229,31.323922 C81.4452669,31.6007339 82.0228856,31.7072477 82.5620932,31.8606193 C82.8349153,31.9382339 83.1428263,31.9111927 83.4009068,32.0148165 C83.558911,32.0779817 83.6525508,32.2994725 83.7748432,32.4499541 C83.6386398,32.5568807 83.5142712,32.7300688 83.3633263,32.7575229 C83.0095297,32.8215138 82.6428602,32.832867 82.2813814,32.8351376 C81.1541737,32.842156 80.0238517,32.7833257 78.9010042,32.8508257 C78.1167966,32.8978899 77.6029195,32.5991972 77.1438559,32.0175 C75.3509958,29.7458257 73.5415254,27.4869495 71.7314322,25.2286927 C70.7564153,24.0122477 71.0443941,24.1701606 69.826661,24.8959404 C69.3354153,25.1888532 68.8601568,25.5083945 68.3788771,25.8174083 C67.9995424,26.0609862 67.8058263,26.3772248 67.8186992,26.8579817 C67.8496356,28.0166284 67.8199449,29.1767202 67.837178,30.3357798 C67.8508814,31.2677752 68.1336695,31.5590367 69.0702754,31.6122936 C69.6231864,31.6436697 70.1790042,31.617867 70.7327458,31.6362385 C70.9787839,31.644289 71.254928,31.6387156 71.4584025,31.7479128 C71.6336398,31.8420413 71.7943432,32.0800459 71.8236186,32.2749083 C71.837322,32.3663532 71.529411,32.603945 71.3635169,32.607867 C70.3511271,32.6311927 69.3376992,32.5975459 68.3246864,32.5996101 C66.2035678,32.6041514 64.0826568,32.6272706 61.9615381,32.6214908 C61.6214449,32.6206651 61.0942797,32.7897248 61.0836907,32.1906881 C61.0739322,31.6432569 61.5923771,31.6921789 61.9409831,31.6548165 C62.4517458,31.6001147 62.9724746,31.6440826 63.4875975,31.6182798 C64.2230127,31.5815367 64.4019873,31.3972018 64.4057246,30.6800917 C64.4482881,22.2225688 64.4933432,13.7652523 64.5176356,5.30772936 C64.5197119,4.63025229 64.4129915,3.94513761 64.2853008,3.27694954 C64.1783729,2.71899083 63.7953008,2.39511468 63.1911059,2.37385321 C62.6182627,2.35362385 62.0454195,2.32658257 61.4736144,2.28633028 C61.1451483,2.26300459 60.8048475,2.23988532 60.8339153,1.75747706 C60.8598686,1.3293578 61.1382966,1.29385321 61.4709153,1.29220183 C63.4527161,1.28270642 65.3776271,0.909495413 67.2830212,0.40087156 C68.1675127,0.164724771 68.1936737,0.195068807 68.1797627,1.09548165 C68.0632839,8.67736239 67.9441059,16.2592431 67.8309492,23.8411239 C67.814339,24.9622018 68.0221737,25.1170183 68.9637627,24.4393349 C70.6939195,23.1941972 72.3719619,21.8728899 74.0217669,20.5228899 C74.9486144,19.7644954 75.8331059,18.9361239 76.625411,18.0416972 C77.1122966,17.4922018 77.5045042,16.7957339 77.7312331,16.0984404 C78.0250254,15.1949312 77.7108856,14.8760092 76.7641059,14.8355505 C76.2298814,14.812844 75.6898432,14.8355505 75.1637161,14.76 C74.9949153,14.7358486 74.8620339,14.4629587 74.71275,14.3038073 C74.870339,14.1780963 75.0264746,13.9448394 75.1855169,13.9429817 C77.3035212,13.9180046 79.4219407,13.9246101 81.5403602,13.9275 C81.6097076,13.9277064 81.6788475,13.9716743 81.9711864,14.0707569" id="Fill-3"></path>
                                    <path d="M126.344839,44.5927294 C126.577589,44.4849771 126.806602,44.368555 127.043504,44.2711239 C128.397025,43.7144037 129.554339,42.902133 130.395644,41.6937385 C131.937898,39.4784174 133.46811,37.2548394 135.00372,35.0349771 C135.753254,33.9514679 135.824055,32.895 135.269483,31.633555 C133.138398,26.7853211 131.110919,21.8920872 129.039839,17.0176376 C128.891593,16.6687844 128.699331,16.3385092 128.535305,15.996055 C128.196665,15.2896789 127.658496,14.9290596 126.850411,14.9697248 C126.565547,14.9839679 126.197216,15.0469266 126.194932,14.5624541 C126.193064,14.1134862 126.471076,13.9535092 126.858301,13.9590826 C127.736356,13.9720872 128.614411,14.0424771 129.491843,14.0319495 C130.981775,14.0139908 132.470877,13.9466972 133.960602,13.9113991 C134.302979,13.9033486 134.668195,13.8773394 134.981504,13.9822018 C135.167123,14.0443349 135.352534,14.3351835 135.381394,14.5444954 C135.397589,14.6613303 135.111479,14.904289 134.928767,14.9451606 C134.561059,15.0275229 134.17072,15.011422 133.789517,15.0345413 C133.239097,15.0679817 132.912292,15.3933028 132.913953,15.9033716 C132.915822,16.4617431 132.942191,17.0640826 133.149195,17.5700229 C134.442712,20.731789 135.788551,23.8722936 137.121725,27.0179587 C137.210174,27.2266514 137.311081,27.4411239 137.454551,27.6130734 C137.639547,27.8345642 137.873127,28.0155963 138.08553,28.2141743 C138.258275,27.9988761 138.447424,27.7938991 138.598161,27.5643578 C138.700314,27.4080963 138.759695,27.2206651 138.819492,27.041078 C139.88628,23.8378211 140.962619,20.6374541 142.001585,17.4253211 C142.155229,16.9505505 142.172669,16.4183945 142.174746,15.9126606 C142.177237,15.2432339 141.909191,14.9891284 141.240216,14.9418578 C140.649725,14.900367 140.057157,14.8855046 139.465419,14.8619725 C139.150034,14.8495872 138.965661,14.7280046 138.97978,14.3770872 C138.993691,14.0319495 139.188237,13.9161468 139.497602,13.9111927 C139.650415,13.9087156 139.803229,13.9062385 139.956042,13.9041743 C141.845449,13.8781651 143.734856,13.8513303 145.624263,13.8271789 C145.891479,13.8236697 146.164716,13.8011697 146.42425,13.8478211 C146.566682,13.873211 146.767665,14.0051147 146.795903,14.1238073 C146.832445,14.2763532 146.768496,14.5038303 146.662398,14.6247936 C146.547996,14.7548394 146.335386,14.8677523 146.164716,14.8694037 C145.282093,14.8780734 144.882826,15.4901147 144.579691,16.1498394 C143.557958,18.3744495 142.506742,20.5893578 141.58903,22.8566972 C138.824267,29.6882339 135.937004,36.4617661 132.536072,43.0111239 C132.066419,43.9154587 131.452881,44.396422 130.431564,44.501078 C129.282347,44.6187385 128.175072,45.088555 126.989521,44.9291972 C126.771513,44.9000917 126.559733,44.8263991 126.345254,44.7733486 C126.345047,44.7130734 126.345047,44.6527982 126.344839,44.5927294" id="Fill-4"></path>
                                    <path d="M103.418237,17.4090138 C103.418237,13.1730275 103.423428,8.93683486 103.415953,4.70084862 C103.412424,2.61990826 103.208326,2.42071101 101.155517,2.34577982 C100.831619,2.33401376 100.488826,2.35135321 100.192542,2.2481422 C100.009623,2.18415138 99.7882924,1.91724771 99.7885,1.74158257 C99.7885,1.59192661 100.071703,1.32295872 100.244242,1.31077982 C102.305979,1.16442661 104.341555,0.893394495 106.325432,0.28733945 C106.774114,0.150275229 106.996691,0.377545872 106.978004,0.943348624 C106.952881,1.70174312 106.839932,2.45807339 106.83225,3.21626147 C106.780758,8.3633945 106.750445,13.5107339 106.705805,18.6580734 C106.675076,22.2091514 106.624831,25.7600229 106.603653,29.3111009 C106.600746,29.7802982 106.680267,30.2587844 106.788441,30.7172477 C106.953297,31.4168119 107.194975,31.5755505 107.910873,31.6098165 C108.424542,31.6343807 108.945894,31.6341743 109.446483,31.7326376 C109.631271,31.7689679 109.766229,32.0556881 109.924025,32.2282569 C109.742767,32.3576835 109.57189,32.5777294 109.378589,32.5989908 C108.868657,32.6551376 108.348966,32.6287156 107.83322,32.628922 C105.522538,32.630367 103.211856,32.6295413 100.901174,32.6291284 C100.652852,32.6291284 100.389581,32.6763991 100.16036,32.6097248 C99.9440127,32.5469725 99.643161,32.3975229 99.5927076,32.2247477 C99.4934619,31.8847706 99.7837246,31.7258257 100.099733,31.6905275 C100.402246,31.6568807 100.707458,31.6426376 101.011839,31.631078 C101.545856,31.611055 102.082364,31.6232339 102.61389,31.5776147 C103.173237,31.5295183 103.43547,31.2277294 103.43111,30.6299312 C103.411178,27.9136239 103.42239,25.1973165 103.42239,22.4808028 L103.42239,17.4090138 L103.418237,17.4090138" id="Fill-5"></path>
                                    <path d="M45.2452712,30.3085321 C43.3699831,31.8059174 41.2935042,32.9071789 38.9290466,33.2395183 C35.5995381,33.7074771 32.5793941,32.9521789 30.2170127,30.4016284 C29.0565847,29.1488532 28.4820805,27.6011009 28.2366653,25.9358945 C27.805839,23.0131651 28.1511229,20.2087156 29.7160085,17.6466055 C31.0223983,15.5080734 32.8750551,14.0548624 35.3877585,13.5627523 C37.3797331,13.1724083 39.2043602,13.7194266 40.9403305,14.660711 C42.6603136,15.5935321 43.9953559,16.9206193 44.9932119,18.5883028 C45.4142797,19.2922018 45.3754534,19.4497018 44.5526271,19.6113303 C41.8979068,20.1329587 39.2409025,20.6508716 36.5710254,21.0884862 C35.124072,21.3256651 33.65075,21.412156 32.1865636,21.5355963 C31.6166271,21.5834862 31.3842924,21.8598853 31.3427669,22.400711 C30.9846102,27.068945 33.9526398,30.523211 38.650411,30.9670183 C40.6776822,31.158578 42.6042542,30.8712385 44.4687458,30.086422 C44.7434364,29.9708257 45.0393051,29.771422 45.2452712,30.3085321 L45.2452712,30.3085321 Z M32.8262627,20.7008257 C35.3109364,20.3030505 37.7966483,19.9116743 40.279661,19.5041972 C41.2401441,19.3464908 41.3653432,19.1022936 40.9235127,18.2002294 C40.2910805,16.9086468 39.3422246,15.8701376 38.1579195,15.0640596 C36.4877669,13.9272936 34.7831483,14.1801606 33.4736441,15.7138761 C32.5887373,16.7501147 32.0802585,17.9717202 31.7374661,19.267844 C31.3818008,20.6120642 31.3971653,20.6219725 32.8262627,20.7008257 L32.8262627,20.7008257 Z" id="Fill-6"></path>
                                    <path d="M109.256712,23.8246101 C109.272907,20.551789 110.215742,17.643922 112.758551,15.4255046 C115.546153,12.9934404 119.019962,12.8088991 122.412174,14.8336927 C124.005297,15.7846789 125.250436,17.0665596 126.188081,18.6504358 C126.569699,19.2946789 126.536479,19.4404128 125.829093,19.584289 C123.420411,20.0747477 121.012144,20.5771789 118.586644,20.9702064 C116.875381,21.2474312 115.138165,21.3787156 113.408424,21.5252752 C112.778483,21.5787385 112.509814,21.877844 112.486975,22.4502523 C112.353263,25.7911927 113.600064,29.1719725 117.680559,30.496789 C120.273614,31.3387844 122.829712,31.1895413 125.351343,30.1976835 C125.528864,30.1279128 125.699949,30.0275917 125.883492,29.9937385 C126.008898,29.9708257 126.151331,30.0391514 126.286081,30.0666055 C126.243725,30.2092431 126.223169,30.3642661 126.152161,30.4910092 C126.100047,30.5834862 125.985229,30.6441743 125.892004,30.7100229 C123.949445,32.0802523 121.852826,33.1340367 119.450788,33.3235321 C114.776894,33.6924083 109.49403,31.4031881 109.25775,24.5082798 C109.24986,24.2805963 109.256712,24.0525 109.256712,23.8246101 L109.256712,23.8246101 Z M114.017394,20.703922 C116.534458,20.2943807 119.052767,19.8928899 121.567754,19.4707569 C122.376669,19.3349312 122.493771,19.1155046 122.147449,18.3480275 C121.530797,16.9813073 120.545398,15.9039908 119.313962,15.0655046 C117.625538,13.9157339 115.914483,14.1826376 114.601034,15.7522706 C113.741665,16.7792202 113.232771,17.9764679 112.905343,19.256078 C112.556114,20.6203211 112.564004,20.6221789 114.017394,20.703922 L114.017394,20.703922 Z" id="Fill-7"></path>
                                    <path d="M99.7590169,19.3687844 C98.8699576,19.5964679 98.1617415,19.7966972 97.4448051,19.9583257 C93.8464195,20.7693578 90.1998644,21.2558945 86.5238263,21.5430275 C85.8571356,21.5950459 85.6513771,21.793211 85.6268771,22.4756422 C85.4819534,26.5320413 87.3346102,29.8841284 92.060411,30.8278899 C94.3146186,31.2778899 96.503839,31.0192431 98.6235042,30.1454587 C98.7821314,30.0800229 98.9374364,29.9854817 99.1020847,29.9633945 C99.2085975,29.9493578 99.3788517,30.0131422 99.4295127,30.0967431 C99.4747754,30.1708486 99.4239068,30.339289 99.3626568,30.4315596 C99.2922712,30.5376606 99.1687331,30.6123853 99.0601441,30.6893807 C97.0555042,32.111422 94.8864237,33.1988532 92.3975975,33.3425229 C87.7814237,33.6092202 82.7942203,31.337133 82.4153008,24.8245183 C82.2458771,21.9114908 82.7568475,19.1712385 84.5893644,16.8169954 C86.4706737,14.4002064 88.933339,13.0545413 92.0608263,13.5419037 C94.8332712,13.973945 97.0575805,15.4488303 98.7090466,17.7252523 C99.0505932,18.1961009 99.3381568,18.7059633 99.7590169,19.3687844 L99.7590169,19.3687844 Z M87.1303051,20.7109404 C89.759072,20.2801376 92.3880466,19.850367 95.0163983,19.4170872 C95.3633432,19.3599083 95.5217627,19.146055 95.4208559,18.806078 C95.3301229,18.4999541 95.2312924,18.1868119 95.0749492,17.9110321 C94.4383644,16.7883028 93.5864703,15.8457798 92.5254958,15.106789 C90.8094576,13.9113991 89.0624831,14.1619954 87.7214195,15.7762156 C86.8792839,16.7897477 86.3793178,17.9698624 86.0547966,19.2311009 C85.6970551,20.6219725 85.6991314,20.6223853 87.1303051,20.7109404 L87.1303051,20.7109404 Z" id="Fill-8"></path>
                                    <path d="M53.1575254,24.8366972 C53.1575254,26.5275 53.1475593,28.2180963 53.1606398,29.9086927 C53.1710212,31.2436239 53.5173432,31.5881422 54.8581992,31.6426376 C55.7169449,31.6773165 56.5763136,31.7004358 57.4354746,31.7225229 C57.8004831,31.7320183 58.0066568,31.863922 57.9863093,32.2701606 C57.9655466,32.6889908 57.6705085,32.6353211 57.4122203,32.6268578 C55.9806314,32.5810321 54.5496653,32.4908257 53.1180763,32.4840138 C51.6505678,32.4769954 50.1828517,32.5488303 48.7151356,32.585367 C48.1425,32.5996101 47.5679958,32.6402752 46.9984746,32.6055963 C46.842339,32.5958945 46.5634958,32.3322936 46.5823898,32.2286697 C46.6160254,32.0445413 46.8188771,31.7697936 46.9775042,31.7505963 C47.6390042,31.6702982 48.3104703,31.6577064 48.9786144,31.6465596 C49.5155381,31.6374771 49.7698814,31.4345642 49.7673898,30.8594725 C49.7480805,26.0915367 49.7536864,21.3233945 49.7379068,16.5554587 C49.7339619,15.4087844 49.4387161,15.1140138 48.2932373,15.0269037 C47.8175636,14.9905734 47.3389831,14.9804587 46.8618559,14.9833486 C46.5105508,14.9856193 46.3992627,14.8326606 46.4079831,14.4970183 C46.4162881,14.1754128 46.4600975,13.9219266 46.8556271,13.9192431 C47.2947585,13.9165596 47.7343051,13.9310092 48.1732288,13.9169725 C49.6394915,13.8705275 51.1057542,13.8226376 52.5713941,13.7578211 C53.1018814,13.734289 53.2679831,13.8591743 53.2488814,14.398555 C53.2322712,14.8722936 53.1585636,15.3460321 53.166661,15.8187385 C53.1766271,16.389289 53.3965042,16.5098394 53.8827669,16.2115596 C54.515822,15.8230734 55.1169025,15.3831881 55.746428,14.9885092 C56.1162119,14.7562844 56.5071737,14.5539908 56.9010424,14.3636697 C58.3897288,13.6451147 59.6778475,14.0711697 60.8507331,15.078922 C61.3789364,15.532844 61.5724449,16.0926606 61.3185169,16.7658028 C61.1312373,17.2620413 60.9441653,17.7584862 60.7456737,18.2503899 C60.5594322,18.712156 60.2886864,18.6981193 59.9755847,18.3645413 C59.8975169,18.2813532 59.8111441,18.2051835 59.7368136,18.1186927 C58.4001102,16.565367 56.7145932,16.4955963 54.9244322,17.0597477 C53.7540381,17.4286239 53.1764195,18.3364679 53.1600169,19.7079358 C53.1398771,21.4173165 53.1552415,23.1271101 53.1552415,24.8366972 L53.1575254,24.8366972" id="Fill-9"></path>
                                    <path d="M13.8462373,42.0626147 L13.8462373,38.1725917 L14.8112881,38.1725917 L14.8112881,44.2025917 C14.2309703,44.3918807 13.8690763,44.2213761 13.5565975,43.6873624 C12.8768263,42.5252064 12.1277076,41.4030963 11.2988602,40.2756193 L11.2988602,44.227156 L10.2902076,44.227156 L10.2902076,38.3247248 C11.1807203,38.0456422 11.1796822,38.0462615 11.6385381,38.784633 C12.3266144,39.8922936 13.0163517,40.998922 13.7052585,42.1059633 C13.7523898,42.0915138 13.7993136,42.0770642 13.8462373,42.0626147" id="Fill-10"></path>
                                    <path d="M111.762979,44.1999083 C111.133869,44.3935321 110.797097,44.1817431 110.501229,43.6768349 C109.820835,42.5155046 109.072754,41.3931881 108.240377,40.271078 L108.240377,44.2236468 L107.236292,44.2236468 L107.236292,38.3284404 C108.119331,38.0326376 108.120161,38.0322248 108.607877,38.8151835 C109.190686,39.7502752 109.771004,40.6870183 110.355059,41.6212844 C110.449945,41.773211 110.558742,41.9166743 110.769483,42.0349541 L110.769483,38.1734174 L111.762979,38.1734174 L111.762979,44.1999083" id="Fill-11"></path>
                                    <path d="M100.909894,41.2823394 C100.861309,41.6183945 100.836809,41.9600229 100.760195,42.2896789 C100.44211,43.6590826 99.5692458,44.3683486 98.2256907,44.3708257 C96.8850424,44.3735092 95.9247669,43.6644495 95.6787288,42.3142431 C95.5460551,41.5861927 95.5460551,40.7943578 95.6797669,40.0665138 C95.9345254,38.678945 97.0150169,37.9467661 98.4277119,38.0501835 C99.8401992,38.1536009 100.724898,39.0769266 100.855703,40.595367 C100.875013,40.8211927 100.858403,41.0501147 100.858403,41.2775917 C100.875636,41.2790367 100.892661,41.2806881 100.909894,41.2823394 L100.909894,41.2823394 Z M96.5262627,41.1630275 C96.6363051,41.6485321 96.6948559,42.1623165 96.8734153,42.6308945 C97.0928771,43.2070183 97.5560932,43.5139679 98.2074195,43.5137615 C98.8570847,43.5137615 99.3007839,43.2105275 99.5478602,42.636055 C99.9483729,41.7042661 99.9427669,40.7534862 99.5671695,39.8179817 C99.3348347,39.2393807 98.8782627,38.9179817 98.2414703,38.9066284 C97.5808008,38.8948624 97.0920466,39.2073853 96.8584661,39.8119954 C96.6975551,40.2283486 96.6398347,40.6841284 96.5262627,41.1630275 L96.5262627,41.1630275 Z" id="Fill-12"></path>
                                    <path d="M57.2627288,41.1964679 C57.3090297,40.8410092 57.33,40.4797706 57.4061992,40.130711 C57.7105805,38.7346789 58.6473941,38.0047706 60.0507458,38.0475 C61.4329195,38.0896101 62.3599746,38.9041514 62.5449703,40.3076147 C62.6159788,40.8451376 62.6303051,41.4063991 62.5611653,41.9428899 C62.3477246,43.6002523 61.3675169,44.4234633 59.7555,44.368555 C58.3861992,44.3216972 57.4078602,43.2613073 57.3094449,41.7125229 C57.2986483,41.5424312 57.3077839,41.3713073 57.3077839,41.2008028 C57.2928347,41.1993578 57.277678,41.1979128 57.2627288,41.1964679 L57.2627288,41.1964679 Z M61.6440763,41.2123624 C61.5265593,40.7194266 61.4619873,40.2269037 61.2879958,39.7758716 C61.0728941,39.2181193 60.6090551,38.9186009 59.9973856,38.906422 C59.3647458,38.8940367 58.8855424,39.1770413 58.6305763,39.7529587 C58.2024492,40.7200459 58.2082627,41.7059174 58.6343136,42.6713532 C58.8872034,43.2445872 59.35125,43.5251147 59.9978008,43.5139679 C60.6262881,43.5030275 61.0672881,43.1958716 61.2848814,42.646789 C61.4626102,42.1978211 61.5259364,41.7040596 61.6440763,41.2123624 L61.6440763,41.2123624 Z" id="Fill-13"></path>
                                    <path d="M101.953013,38.1981881 C102.777708,38.1981881 103.580394,38.1329587 104.367508,38.2155275 C105.245979,38.3077982 105.683449,38.782156 105.836263,39.573578 C105.993021,40.3864679 105.725597,41.0059404 105.014475,41.4763761 C104.939729,41.5259174 104.864153,41.5740138 104.813076,41.6070413 C105.289165,42.4818578 105.747606,43.3242661 106.214559,44.1823624 C105.201131,44.3875459 105.19428,44.383211 104.771136,43.5346101 C104.576381,43.1438532 104.381835,42.7526835 104.178568,42.366055 C103.923394,41.8809633 103.525165,41.7106651 102.939449,41.853922 L102.939449,44.2166284 L101.953013,44.2166284 L101.953013,38.1981881 L101.953013,38.1981881 Z M102.945886,40.9640367 C103.592021,40.9297706 104.291309,41.184289 104.647182,40.5348853 C104.814737,40.2291743 104.820343,39.6592431 104.637424,39.3768578 C104.246047,38.7730734 103.556932,39.06 102.945886,39.0193349 L102.945886,40.9640367 L102.945886,40.9640367 Z" id="Fill-14"></path>
                                    <path d="M34.7873008,44.2003211 C33.7414831,44.3594725 33.7423136,44.3590596 33.3301737,43.529656 C33.1445551,43.1560321 32.9662034,42.7782798 32.7645975,42.4131193 C32.4527415,41.8477294 32.2258051,41.7515367 31.4775169,41.868578 L31.4775169,44.2331422 L30.4912881,44.2331422 L30.4912881,38.2047936 C31.3367458,38.2047936 32.1537585,38.1536009 32.9612203,38.2194495 C33.7427288,38.2832339 34.2375042,38.7646101 34.4054746,39.5426147 C34.5732373,40.3193807 34.2840127,41.0063532 33.6044492,41.4563532 C33.526589,41.5077523 33.4472754,41.5566743 33.3762669,41.6018807 C33.8473729,42.4692661 34.3118347,43.3246789 34.7873008,44.2003211 L34.7873008,44.2003211 Z M31.5177966,39.0015826 L31.5177966,40.968578 C32.1537585,40.9241972 32.8522161,41.1863532 33.2155636,40.5322018 C33.3797966,40.2366055 33.3955763,39.7011468 33.2311356,39.4154587 C32.8586525,38.7677064 32.1500212,39.0754817 31.5177966,39.0015826 L31.5177966,39.0015826 Z" id="Fill-15"></path>
                                    <path d="M4.16188559,38.1682569 L5.09475424,38.1682569 C5.1128178,38.3808716 5.14541525,38.5978211 5.14749153,38.8151835 C5.15974153,40.0109862 5.14105508,41.2074083 5.18008898,42.4019725 C5.20479661,43.1552064 5.60447881,43.4945642 6.34882203,43.5077752 C7.18742797,43.522844 7.6172161,43.1258945 7.63195763,42.2632569 C7.65126695,41.124633 7.63797881,39.9855963 7.63860169,38.8465596 C7.63880932,38.6397248 7.63860169,38.4326835 7.63860169,38.1820872 L8.59368644,38.1820872 C8.61008898,38.2886009 8.64580085,38.4138991 8.64600847,38.5394037 C8.64933051,39.7921789 8.66012712,41.0451606 8.64185593,42.2977294 C8.62379237,43.5313073 7.8667839,44.310344 6.67022881,44.3683486 C5.16161017,44.4416284 4.27047458,43.865711 4.18389407,42.5631881 C4.08755508,41.1138991 4.16188559,39.6534633 4.16188559,38.1682569" id="Fill-16"></path>
                                    <path d="M120.691568,44.2182798 C119.758907,44.3305734 119.724025,44.3404817 119.480271,43.4821789 C119.324966,42.9357798 119.071038,42.6666055 118.484076,42.7751835 C118.336453,42.8026376 118.179487,42.7793119 118.026674,42.7793119 C116.751428,42.7793119 116.735441,42.7731193 116.280322,43.9352752 C116.05214,44.5175917 115.62422,44.1726606 115.215818,44.2597706 C115.923619,42.2919495 116.582627,40.3751147 117.331953,38.4939908 C117.418326,38.2772477 118.004458,38.2343119 118.369466,38.1663991 C118.463729,38.1488532 118.659729,38.3195642 118.704161,38.4413532 C119.376873,40.2946101 120.032559,42.1536468 120.689284,44.0126835 C120.706932,44.0626376 120.691568,44.123945 120.691568,44.2182798 L120.691568,44.2182798 Z M118.959127,42.0607569 C118.613636,41.0672477 118.302403,40.1726147 117.991169,39.2781881 C117.95172,39.2854128 117.912064,39.2926376 117.872407,39.2998624 C117.568648,40.2029587 117.26489,41.106055 116.943691,42.0607569 L118.959127,42.0607569 L118.959127,42.0607569 Z" id="Fill-17"></path>
                                    <path d="M77.3703771,44.265344 C78.0794237,42.2925688 78.7380169,40.3736697 79.4877585,38.4904817 C79.5737161,38.2741514 80.1631695,38.2275 80.529839,38.1690826 C80.6299153,38.1529817 80.8296525,38.3587844 80.8811441,38.4997706 C81.5445127,40.3181422 82.1896102,42.1429128 82.8367839,43.9670642 C82.8614915,44.036422 82.8610763,44.114656 82.8722881,44.1881422 C81.9632966,44.3863073 81.8819068,44.3772248 81.6535169,43.5408028 C81.4913602,42.9473394 81.2160466,42.6602064 80.5852754,42.7758028 C80.4559237,42.7995413 80.3182669,42.7793119 80.1845551,42.7793119 C78.8999661,42.7793119 78.8827331,42.7727064 78.4373729,43.9354817 C78.2104364,44.5279128 77.7775339,44.1646101 77.3703771,44.265344 L77.3703771,44.265344 Z M80.1679449,39.3178211 C80.1216441,39.3124541 80.0753432,39.3070872 80.0290424,39.3019266 C79.7250763,40.2023394 79.4211102,41.1027523 79.1051017,42.0390826 L81.1028898,42.0390826 C80.774839,41.0841743 80.4714958,40.2008945 80.1679449,39.3178211 L80.1679449,39.3178211 Z" id="Fill-18"></path>
                                    <path d="M28.4679619,40.7493578 L28.4679619,41.6037385 L26.2330636,41.6037385 L26.2330636,43.4088991 L28.8564322,43.4088991 C28.9830847,44.235 28.9581695,44.2655505 28.2179788,44.2663761 C27.2290508,44.2674083 26.2399153,44.266789 25.208839,44.266789 L25.208839,38.1688761 L28.7750424,38.1688761 L28.7750424,38.9906422 L26.2268347,38.9906422 L26.2268347,40.7493578 L28.4679619,40.7493578" id="Fill-19"></path>
                                    <path d="M18.7034661,38.1577294 C19.6982076,38.1133486 19.7009068,38.1123165 19.9893008,38.9631881 C20.4369449,40.2844954 20.8806441,41.6070413 21.3633771,43.0402294 C21.9370508,41.3481881 22.4762585,39.7579128 23.0183729,38.1589679 L24.0214195,38.1589679 C23.6310805,39.2819037 23.2519534,40.3705734 22.8744873,41.459656 C22.5883771,42.2845183 22.2883559,43.1050459 22.0267458,43.9373394 C21.9162881,44.2884633 21.6744025,44.2944495 21.4061483,44.2618349 C21.1351949,44.2290138 20.7880424,44.4249083 20.6400042,43.9887385 C19.9934534,42.084289 19.333822,40.1839679 18.6816653,38.2813761 C18.6710763,38.2508257 18.6935,38.2087156 18.7034661,38.1577294" id="Fill-20"></path>
                                    <path d="M35.675322,43.6968578 C35.8181695,43.4448165 35.9363093,43.2365367 36.0181144,43.0922477 C36.6299915,43.2421101 37.1691992,43.4239679 37.7227331,43.4943578 C38.1907246,43.5540138 38.6001653,43.3502752 38.7270254,42.8410321 C38.8530551,42.3359174 38.5326864,42.0636468 38.1298898,41.8652752 C37.8392119,41.7222248 37.5369068,41.6029128 37.2458136,41.4604817 C36.244428,40.9702294 35.8744364,40.3032798 36.0768729,39.3694266 C36.2458814,38.5905963 36.9808814,38.0326376 37.9920254,38.0706193 C38.5756653,38.0927064 39.1514153,38.3195642 39.7877924,38.4673624 C39.6827331,38.7286927 39.6424534,38.8506881 39.5851483,38.9644266 C39.5359407,39.0620642 39.4672161,39.1502064 39.4088729,39.2402064 C38.9994322,39.1266743 38.622589,38.9854817 38.2330805,38.9239679 C37.7480636,38.8473853 37.278411,38.9464679 37.1166695,39.4819266 C36.961572,39.9952982 37.2306568,40.3647936 37.6886822,40.5928899 C37.9781144,40.7369725 38.282911,40.8505046 38.5794025,40.9805505 C39.5182924,41.3923624 39.9372839,42.0118349 39.8149915,42.8051147 C39.6924915,43.6006651 38.96725,44.2564679 38.0551441,44.3551376 C37.2092712,44.4465826 36.4267246,44.261422 35.675322,43.6968578" id="Fill-21"></path>
                                    <path d="M76.2408856,42.8693119 C76.4038729,43.0759404 76.5425678,43.2520183 76.7136525,43.4689679 C75.8667415,44.2647248 74.8969153,44.5206881 73.8085339,44.3097248 C72.7290805,44.1002064 72.0927034,43.3762844 71.9280551,42.3402523 C71.8142754,41.6243807 71.7860381,40.8513303 71.9309619,40.1468119 C72.3661483,38.0332569 74.7976695,37.3431881 76.5523263,38.8378899 C76.4024195,39.0379128 76.2493983,39.2420642 76.0994915,39.4418807 C75.7438263,39.2792202 75.4332161,39.0928211 75.0966525,38.9918807 C74.0857161,38.6888532 73.2140975,39.1450459 72.9985805,40.163945 C72.8717203,40.7633945 72.8403686,41.4158945 72.9304788,42.0205046 C73.1264788,43.336445 74.2148602,43.8708716 75.4454661,43.3224083 C75.7029237,43.207844 75.9379576,43.0437385 76.2408856,42.8693119" id="Fill-22"></path>
                                    <path d="M64.1206525,38.1577294 L67.6189619,38.1577294 L67.6189619,39.0024083 L65.1461229,39.0024083 L65.1461229,40.7386239 L67.3583898,40.7386239 L67.3583898,41.6033257 L65.1239068,41.6033257 L65.1239068,44.2263303 L64.1206525,44.2263303 L64.1206525,38.1577294" id="Fill-23"></path>
                                    <path d="M92.2694915,38.975367 L92.2694915,40.7493578 L94.4869492,40.7493578 L94.4869492,41.6216972 L92.2425,41.6216972 L92.2425,44.1848394 C91.2377924,44.3877523 91.2047797,44.3640138 91.2043644,43.4861009 C91.2035339,41.9501147 91.2041568,40.4141284 91.2041568,38.8781422 L91.2041568,38.1699083 L94.7525042,38.1699083 L94.7525042,38.975367 L92.2694915,38.975367" id="Fill-24"></path>
                                    <path d="M51.558589,44.2451147 L50.5435,44.2451147 C50.5435,43.5713532 50.5763051,42.9118349 50.5308347,42.2578899 C50.5042585,41.8772477 50.4129025,41.4755505 50.2441017,41.1355734 C49.8311314,40.3036927 49.35525,39.5027752 48.9073983,38.6880275 C48.8189492,38.5272248 48.7417119,38.3602294 48.6509788,38.1794037 C49.7275254,38.0761927 49.726072,38.0768119 50.1488008,38.9770183 C50.4276441,39.5711009 50.7118856,40.1629128 51.0442966,40.8618578 C51.4014153,40.141445 51.7014364,39.5343578 52.0031186,38.9278899 C52.4297924,38.0706193 52.4302076,38.0708257 53.4855763,38.1872477 C53.0105254,39.0519495 52.5801144,39.9133486 52.0755805,40.7293349 C51.6800508,41.3692431 51.490072,42.0225688 51.551322,42.7704358 C51.5897331,43.2381881 51.558589,43.7115138 51.558589,44.2451147" id="Fill-25"></path>
                                    <path d="M47.7808136,38.1827064 C47.7646186,38.4688073 47.7513305,38.7086697 47.7345127,39.0059174 L46.1787627,39.0059174 L46.1787627,44.2172477 L45.1642966,44.2172477 L45.1642966,39.0178899 L43.5462585,39.0178899 L43.5462585,38.1827064 L47.7808136,38.1827064" id="Fill-26"></path>
                                    <path d="M83.9542331,38.1595872 L84.8968602,38.1595872 L84.8968602,43.4142661 L87.5266653,43.4142661 L87.5266653,44.2147706 L83.9542331,44.2147706 L83.9542331,38.1595872" id="Fill-27"></path>
                                    <path d="M114.234157,44.2337615 L113.289038,44.2337615 L113.289038,38.173211 L114.234157,38.173211 L114.234157,44.2337615" id="Fill-28"></path>
                                    <path d="M16.4984661,44.2343807 L16.4984661,38.1717661 L17.4448305,38.1717661 L17.4448305,44.2343807 L16.4984661,44.2343807" id="Fill-29"></path>
                                    <path d="M89.7009364,44.2422248 L88.7608008,44.2422248 L88.7608008,38.1721789 L89.7009364,38.1721789 L89.7009364,44.2422248" id="Fill-30"></path>
                                    <path d="M41.2114915,38.1649541 L42.1410381,38.1649541 C42.1582712,38.3858257 42.1892076,38.6038073 42.1898305,38.821789 C42.1939831,40.3590138 42.1925297,41.8962385 42.1919068,43.4334633 C42.1916992,44.3334633 42.1910763,44.3334633 41.2114915,44.2250917 L41.2114915,38.1649541" id="Fill-31"></path>
                                </g>
                            </g>
                        </g>
                    </g>
                </g>
            </g>
        </g>
    </g>
</svg>