<?xml version="1.0" encoding="UTF-8" standalone="no"?>
<svg
   width="300"
   height="90"
   viewBox="0 0 300 90"
   version="1.1"
   id="svg2725"
   sodipodi:docname="berkeley-color.svg"
   inkscape:version="1.1.1 (3bf5ae0d25, 2021-09-20)"
   xmlns:inkscape="http://www.inkscape.org/namespaces/inkscape"
   xmlns:sodipodi="http://sodipodi.sourceforge.net/DTD/sodipodi-0.dtd"
   xmlns="http://www.w3.org/2000/svg"
   xmlns:svg="http://www.w3.org/2000/svg"
   xmlns:rdf="http://www.w3.org/1999/02/22-rdf-syntax-ns#"
   xmlns:cc="http://creativecommons.org/ns#"
   xmlns:dc="http://purl.org/dc/elements/1.1/"
   xmlns:sketch="http://www.bohemiancoding.com/sketch/ns">
  <sodipodi:namedview
     id="namedview2727"
     pagecolor="#ffffff"
     bordercolor="#666666"
     borderopacity="1.0"
     inkscape:pageshadow="2"
     inkscape:pageopacity="0.0"
     inkscape:pagecheckerboard="0"
     showgrid="false"
     inkscape:zoom="1.0731524"
     inkscape:cx="-14.909345"
     inkscape:cy="-82.467317"
     inkscape:window-width="1866"
     inkscape:window-height="1016"
     inkscape:window-x="54"
     inkscape:window-y="27"
     inkscape:window-maximized="1"
     inkscape:current-layer="svg2725" />
  <!-- Generator: Sketch 3.3.3 (12072) - http://www.bohemiancoding.com/sketch -->
  <title
     id="title2684">Imported Layers Copy 5</title>
  <desc
     id="desc2686">Created with Sketch.</desc>
  <defs
     id="defs2688" />
  <g
     id="Page-1"
     stroke="none"
     stroke-width="1"
     fill="none"
     fill-rule="evenodd"
     sketch:type="MSPage"
     transform="matrix(1.3754842,0,0,1.3754842,7.0848485,0.88758093)">
    <g
       id="About---Desktop"
       sketch:type="MSArtboardGroup"
       transform="translate(-663,-1705)"
       fill="#21396f">
      <g
         id="Imported-Layers-Copy-4-+-Imported-Layers-Copy-5"
         sketch:type="MSLayerGroup"
         transform="translate(362,1705)">
        <g
           id="Imported-Layers-Copy-5"
           transform="translate(301)"
           sketch:type="MSShapeGroup">
          <path
             d="m 22.637333,0.19522936 c 1.034712,0.16880734 2.077356,0.30033027 3.102667,0.51346789 2.703706,0.56190825 5.15887,1.63376145 7.006486,3.76631195 3.335051,3.8485137 3.056836,9.8918168 -0.722124,13.6114498 -1.23713,1.217761 -2.766283,2.141357 -4.176452,3.179449 -0.493266,0.363156 -1.030893,0.666129 -1.713944,1.102679 0.524701,0.233101 0.889582,0.37167 1.232723,0.55134 1.717763,0.90011 3.494576,1.708036 5.13243,2.736146 6.835209,4.289468 6.336067,15.596331 -1.590554,19.286312 -2.788904,1.298202 -5.723232,2.02422 -8.765379,2.060918 -2.772452,0.03317 -5.547254,-0.328808 -8.323819,-0.386055 -3.290983,-0.06752 -6.5851975,0.0062 -9.8776495,0.01527 -0.5931525,0.0018 -1.1980565,0.05402 -1.7735819,-0.04991 C 1.9195932,46.537688 1.5485424,46.142826 1.5626441,45.929101 1.5814463,45.648147 1.8963842,45.190752 2.1349379,45.155816 3.0377401,45.022532 3.9605198,45.006385 4.8768362,44.988771 7.0784633,44.945908 7.1768814,44.859009 7.1768814,42.70767 7.1771751,31.629505 7.1918644,20.551339 7.1604294,9.4734679 7.1560226,7.8611376 7.0540791,6.2276697 6.7755706,4.6429358 6.4318418,2.6865321 5.6024859,2.1275596 3.6279548,2.1190459 2.9789831,2.1161101 2.3232542,2.164844 1.6833898,2.0864587 1.1387119,2.0198165 0.61224859,1.8043303 0.07755932,1.6548991 V 0.8440367 C 0.76854237,0.76829358 1.4583503,0.63677064 2.1502147,0.62649541 5.3636384,0.57952294 8.5782373,0.60036697 11.79078,0.52726606 13.622531,0.48557796 15.451345,0.31031193 17.281333,0.19522936 Z M 13.435684,32.734238 c 0,1.7829 -0.07198,3.569322 0.02027,5.347523 0.09313,1.799633 0.337853,3.592221 0.537921,5.385395 0.08255,0.741578 0.536452,1.259743 1.221559,1.480807 0.94452,0.305028 1.904904,0.630899 2.882621,0.750092 3.253673,0.397211 6.31756,-0.05549 8.852046,-2.372991 3.108836,-2.843009 4.090373,-8.243963 2.283005,-12.544293 -2.350576,-5.594129 -8.226576,-7.918973 -13.74122,-7.638019 -1.720407,0.08778 -2.032701,0.473835 -2.048271,2.217101 -0.02233,2.458129 -0.0059,4.916257 -0.0079,7.374385 z m 0.0047,-20.512293 h -0.0044 c 0,2.646606 -0.0044,5.293211 0.0021,7.939816 0.0029,1.287927 0.278802,1.554789 1.563525,1.607927 2.886735,0.118899 5.772588,0.248367 8.659322,0.361688 0.228859,0.0088 0.507368,-0.0088 0.685108,-0.129174 1.924881,-1.303193 3.49487,-2.888514 4.060113,-5.248881 0.537627,-2.245578 0.653084,-4.493211 -0.09254,-6.708257 C 27.126373,6.5194862 25.158305,3.6617982 21.442802,2.4005872 19.383661,1.701578 17.27252,1.9082569 15.187232,2.2097615 c -1.394305,0.201688 -1.727164,0.6596697 -1.739797,2.0720734 -0.02409,2.6466055 -0.0071,5.293211 -0.0071,7.9401101 z"
             id="Fill-1" />
          <path
             d="M 17.281333,0.19522936 C 15.451345,0.31031193 13.622531,0.48557798 11.79078,0.52726606 8.5782373,0.60036697 5.3636384,0.57952294 2.1502147,0.62649541 1.4583503,0.63677064 0.76854237,0.76829358 0.07755932,0.8440367 V 0.19522936 H 17.281333"
             id="Fill-2" />
          <path
             d="m 115.98644,20.011743 c -1.11315,1.390092 -2.00127,2.765505 -3.14703,3.874642 -2.38612,2.309285 -4.90533,4.481762 -7.37665,6.702679 -1.64843,1.481395 -1.8532,1.185762 -0.31964,3.075523 2.53772,3.127193 5.12126,6.217395 7.71333,9.29967 0.50032,0.594789 1.06027,1.198092 1.71776,1.585321 0.66807,0.393688 1.48538,0.545174 2.24834,0.763303 0.38604,0.110385 0.82172,0.07193 1.1869,0.219303 0.22357,0.08983 0.35606,0.404843 0.5291,0.618862 -0.19272,0.152073 -0.3687,0.398385 -0.58228,0.437431 -0.50061,0.09101 -1.01943,0.107156 -1.53091,0.110385 -1.59497,0.01 -3.19433,-0.07369 -4.78312,0.02231 -1.10963,0.06694 -1.83675,-0.357871 -2.48631,-1.185174 -2.53683,-3.230826 -5.09717,-6.443449 -7.65839,-9.655193 -1.37962,-1.730055 -0.97214,-1.505468 -2.69519,-0.473247 -0.695096,0.416587 -1.36757,0.871045 -2.048565,1.310532 -0.536746,0.346422 -0.810847,0.796183 -0.792633,1.479926 0.04377,1.647854 0.0018,3.297762 0.02615,4.946202 0.01939,1.325505 0.419526,1.739743 1.744791,1.815486 0.782351,0.04462 1.568814,0.0079 2.352337,0.03406 0.34813,0.01145 0.73887,0.0035 1.02678,0.158826 0.24795,0.133872 0.47534,0.472367 0.51677,0.749505 0.0194,0.130055 -0.4163,0.467963 -0.65103,0.473541 -1.432495,0.03317 -2.866461,-0.01468 -4.29984,-0.01174 -3.00131,0.0065 -6.002327,0.03934 -9.003638,0.03112 -0.48122,-0.0012 -1.227141,0.239266 -1.242124,-0.612697 -0.01381,-0.778569 0.719774,-0.708991 1.213039,-0.762128 0.722712,-0.0778 1.459526,-0.01527 2.188407,-0.05196 1.040587,-0.05226 1.29383,-0.314422 1.299119,-1.334312 0.06023,-12.028477 0.123977,-24.05666 0.15835,-36.0851374 C 91.293198,6.5852477 91.142192,5.6108624 90.961514,4.6605505 90.810215,3.8670092 90.268181,3.4063853 89.413265,3.3761468 88.602712,3.3473762 87.792158,3.3089174 86.983073,3.2516697 86.518305,3.2184954 86.036791,3.1856147 86.077921,2.4995229 86.114644,1.8906422 86.50861,1.8401468 86.979254,1.8377982 89.783435,1.8242936 92.507119,1.2935046 95.203186,0.57012844 96.454712,0.23427523 96.491729,0.27743119 96.472045,1.5580183 96.307232,12.341138 96.138599,23.124257 95.978486,33.907376 c -0.0235,1.594422 0.270576,1.814606 1.602892,0.850789 2.448112,-1.770862 4.822482,-3.650055 7.156902,-5.570055 1.31146,-1.078605 2.56299,-2.256734 3.68407,-3.528807 0.68893,-0.781505 1.24389,-1.772037 1.5647,-2.763743 0.41571,-1.284991 -0.0288,-1.738569 -1.36845,-1.796111 -0.75591,-0.03229 -1.52005,0 -2.2645,-0.107449 -0.23885,-0.03435 -0.42687,-0.422459 -0.6381,-0.648807 0.22298,-0.178789 0.44391,-0.510532 0.66895,-0.513175 2.9969,-0.03552 5.9944,-0.02613 8.99189,-0.02202 0.0981,2.94e-4 0.19595,0.06283 0.6096,0.203743"
             id="Fill-3" />
          <path
             d="m 178.77365,63.420771 c 0.32933,-0.153248 0.65338,-0.318826 0.98859,-0.457395 1.91518,-0.79178 3.55274,-1.947009 4.74316,-3.665615 2.18224,-3.150678 4.34744,-6.3131 6.52027,-9.470238 1.06057,-1.540991 1.16075,-3.043523 0.37605,-4.837578 -3.01542,-6.895266 -5.88423,-13.854532 -8.81474,-20.787083 -0.20976,-0.496146 -0.48181,-0.965871 -0.7139,-1.452917 -0.47916,-1.004624 -1.24065,-1.517505 -2.38406,-1.45967 -0.40308,0.02026 -0.92425,0.109798 -0.92748,-0.579229 -0.003,-0.638532 0.39073,-0.866055 0.93864,-0.858129 1.24242,0.0185 2.48484,0.118606 3.72637,0.103633 2.10821,-0.02554 4.21523,-0.121247 6.32315,-0.171449 0.48445,-0.01145 1.00121,-0.04844 1.44454,0.100697 0.26264,0.08837 0.52499,0.502018 0.56583,0.799707 0.0229,0.166165 -0.38192,0.511706 -0.64045,0.569834 -0.5203,0.117138 -1.07261,0.09424 -1.612,0.12712 -0.77883,0.04756 -1.24125,0.510238 -1.2389,1.235669 0.003,0.794129 0.04,1.650789 0.33286,2.370349 1.83028,4.496734 3.7346,8.963229 5.621,13.437064 0.12515,0.296808 0.26793,0.601835 0.47093,0.846386 0.26177,0.315009 0.59227,0.572477 0.89282,0.854899 0.24443,-0.306202 0.51206,-0.597725 0.72535,-0.924184 0.14455,-0.222238 0.22857,-0.488807 0.31318,-0.74422 1.50947,-4.555743 3.03245,-9.107376 4.50255,-13.675743 0.2174,-0.675229 0.24208,-1.432074 0.24502,-2.15134 0.004,-0.952073 -0.37575,-1.313467 -1.32233,-1.380697 -0.83552,-0.05901 -1.67399,-0.08015 -2.51127,-0.113615 -0.44627,-0.01761 -0.70715,-0.190532 -0.68717,-0.689614 0.0197,-0.490863 0.29496,-0.65556 0.7327,-0.662606 0.21623,-0.0035 0.43245,-0.007 0.64868,-0.01 2.67345,-0.03699 5.34689,-0.07516 8.02034,-0.109505 0.3781,-0.005 0.76472,-0.03699 1.13195,0.02936 0.20154,0.03611 0.48592,0.223706 0.52588,0.392514 0.0517,0.216954 -0.0388,0.540477 -0.18891,0.712513 -0.16187,0.184955 -0.46271,0.345542 -0.7042,0.34789 -1.24888,0.01233 -1.81383,0.882789 -2.24276,1.821065 -1.44571,3.163889 -2.93315,6.313981 -4.23168,9.538642 -3.91204,9.715963 -7.99742,19.349431 -12.80963,28.664073 -0.66454,1.286165 -1.53267,1.970202 -2.9778,2.119046 -1.62611,0.167339 -3.19286,0.835523 -4.87038,0.608881 -0.30847,-0.0414 -0.60813,-0.146202 -0.91161,-0.221652 -3e-4,-0.08572 -3e-4,-0.171449 -5.9e-4,-0.25688"
             id="Fill-4" />
          <path
             d="m 146.33329,24.759486 c 0,-6.024513 0.007,-12.049321 -0.003,-18.0738346 -0.005,-2.9595597 -0.29379,-3.2428624 -3.19844,-3.3494312 -0.45831,-0.016734 -0.94335,0.00793 -1.36258,-0.1388624 -0.25883,-0.091009 -0.572,-0.4706055 -0.57171,-0.7204404 0,-0.212844 0.40073,-0.5953761 0.64486,-0.6126972 2.91729,-0.2081468 5.79756,-0.5936147 8.60468,-1.45555965 0.63487,-0.19493578 0.94981,0.12829358 0.92337,0.93299085 -0.0356,1.0786055 -0.19537,2.1542752 -0.20624,3.2325871 -0.0729,7.3203675 -0.11575,14.6410275 -0.17892,21.9616885 -0.0435,5.050422 -0.11457,10.10055 -0.14454,15.150972 -0.004,0.667303 0.10841,1.347817 0.26147,1.999853 0.23327,0.994936 0.57523,1.220697 1.5882,1.269432 0.72683,0.03493 1.46452,0.03464 2.17284,0.174678 0.26147,0.05167 0.45243,0.45945 0.67571,0.704881 -0.25648,0.184073 -0.49826,0.497028 -0.77178,0.527266 -0.72153,0.07985 -1.45688,0.04228 -2.18664,0.04257 -3.26954,0.0021 -6.53907,8.81e-4 -9.80861,2.94e-4 -0.35137,0 -0.72389,0.06723 -1.04823,-0.0276 -0.30612,-0.08925 -0.73182,-0.301798 -0.80321,-0.547523 -0.14043,-0.483523 0.27029,-0.709578 0.71743,-0.759779 0.42804,-0.04785 0.85991,-0.06811 1.2906,-0.08455 0.75561,-0.02848 1.51475,-0.01116 2.26684,-0.07604 0.79146,-0.0684 1.16251,-0.497614 1.15634,-1.347816 -0.0282,-3.863193 -0.0123,-7.726386 -0.0123,-11.589872 v -7.213211 h -0.006"
             id="Fill-5" />
          <path
             d="m 64.02052,43.105468 c -2.653469,2.129615 -5.591616,3.695853 -8.937243,4.168514 -4.711141,0.665541 -8.984543,-0.408661 -12.327232,-4.03611 -1.641966,-1.781725 -2.45487,-3.982973 -2.802124,-6.351266 -0.609605,-4.156771 -0.12104,-8.145322 2.09322,-11.789212 1.848497,-3.041467 4.469944,-5.108256 8.025334,-5.808146 2.818576,-0.555156 5.400361,0.222825 7.8567,1.561541 2.433718,1.326679 4.322757,3.214092 5.734689,5.585908 0.595797,1.001101 0.540859,1.225101 -0.623412,1.454973 -3.756339,0.741871 -7.51591,1.478458 -11.293695,2.100844 -2.04739,0.337321 -4.13209,0.46033 -6.203864,0.63589 -0.806441,0.06811 -1.135187,0.461211 -1.193944,1.230385 -0.50678,6.639266 3.692882,11.552 10.340068,12.183193 2.86852,0.27244 5.594554,-0.136221 8.232746,-1.252404 0.388678,-0.164404 0.807322,-0.448 1.098757,0.31589 z M 46.448045,29.441174 c 3.515729,-0.565725 7.032927,-1.122348 10.546305,-1.701871 1.359051,-0.224294 1.536204,-0.571597 0.911028,-1.854532 -0.89487,-1.836918 -2.237468,-3.313909 -3.91322,-4.460331 -2.363209,-1.616734 -4.775186,-1.257101 -6.62809,0.924184 -1.252113,1.473761 -1.971593,3.211156 -2.456633,5.054532 -0.503254,1.91178 -0.481514,1.925871 1.54061,2.038018 z"
             id="Fill-6" />
          <path
             d="m 154.59453,33.88389 c 0.0229,-4.654679 1.35699,-8.790312 4.95498,-11.945395 3.94437,-3.458935 8.85969,-3.721394 13.65955,-0.841688 2.25422,1.352514 4.01605,3.175633 5.34278,5.428257 0.53998,0.916257 0.49297,1.123523 -0.50795,1.328147 -3.40821,0.697541 -6.81582,1.41211 -10.24782,1.971083 -2.42138,0.394275 -4.87948,0.58099 -7.32701,0.789431 -0.89134,0.07604 -1.2715,0.501431 -1.30382,1.315523 -0.1892,4.751559 1.57499,9.559779 7.34875,11.443963 3.66908,1.197505 7.28587,0.985248 10.8539,-0.425394 0.25118,-0.09923 0.49326,-0.241909 0.75297,-0.290056 0.17744,-0.03259 0.37898,0.06459 0.56965,0.103634 -0.0599,0.202862 -0.089,0.423339 -0.18949,0.603596 -0.0737,0.131523 -0.23621,0.217835 -0.36812,0.311486 -2.74865,1.948771 -5.7153,3.447486 -9.1141,3.716991 -6.6134,0.524624 -14.08847,-2.731156 -14.4228,-12.537248 -0.0112,-0.323816 -0.001,-0.64822 -0.001,-0.97233 z m 6.7362,-4.438312 c 3.56156,-0.582459 7.12489,-1.153468 10.68351,-1.753835 1.14458,-0.193174 1.31028,-0.505248 0.82025,-1.596771 -0.87255,-1.943779 -2.26685,-3.475963 -4.00929,-4.668477 -2.38906,-1.635229 -4.81015,-1.255633 -6.66864,0.976734 -1.21597,1.460551 -1.93604,3.163303 -2.39934,4.983193 -0.49415,1.940257 -0.48298,1.942899 1.57351,2.059156 z"
             id="Fill-7" />
          <path
             d="m 141.15562,27.546716 c -1.25799,0.323816 -2.2601,0.608587 -3.27453,0.838458 -5.0916,1.153468 -10.25135,1.845431 -15.45282,2.253799 -0.94334,0.07398 -1.23448,0.355816 -1.26915,1.326385 -0.20506,5.769101 2.41638,10.536514 9.10323,11.878752 3.18963,0.64 6.2873,0.272147 9.28655,-0.970569 0.22446,-0.09306 0.44421,-0.227523 0.67718,-0.258935 0.15071,-0.01996 0.39161,0.07075 0.4633,0.189651 0.064,0.105394 -0.008,0.344954 -0.0946,0.476183 -0.0996,0.150899 -0.2744,0.257175 -0.42805,0.366679 -2.83649,2.022459 -5.90567,3.569028 -9.42727,3.773358 -6.53173,0.379303 -13.58845,-2.85211 -14.12461,-12.114495 -0.23973,-4.142973 0.48327,-8.040221 3.07622,-11.388477 2.66199,-3.437211 6.14658,-5.351046 10.57187,-4.657909 3.92291,0.614459 7.07023,2.712074 9.407,5.949652 0.48328,0.669651 0.89017,1.394789 1.48568,2.337468 z m -17.8692,1.908844 c 3.71961,-0.612698 7.43952,-1.223927 11.15855,-1.840147 0.49092,-0.08132 0.71507,-0.385468 0.5723,-0.868991 -0.12839,-0.435376 -0.26823,-0.880734 -0.48945,-1.272954 -0.90075,-1.596771 -2.10615,-2.937248 -3.60739,-3.988257 -2.42814,-1.70011 -4.90005,-1.343706 -6.7976,0.952073 -1.1916,1.441468 -1.89903,3.119854 -2.35822,4.913615 -0.50619,1.978128 -0.50325,1.978716 1.52181,2.104661 z"
             id="Fill-8" />
          <path
             d="m 75.21609,35.323303 c 0,2.404697 -0.0141,4.809101 0.0044,7.213504 0.01469,1.898569 0.504723,2.388551 2.401989,2.466055 1.215096,0.04932 2.431073,0.0822 3.646757,0.113615 0.516475,0.0135 0.808203,0.201101 0.779412,0.778862 -0.02938,0.59567 -0.446847,0.51934 -0.812316,0.507303 -2.02565,-0.06517 -4.050418,-0.193468 -6.076068,-0.203156 -2.076474,-0.01 -4.153243,0.09218 -6.230011,0.144147 -0.81026,0.02026 -1.623164,0.07809 -2.429017,0.02877 -0.220927,-0.0138 -0.61548,-0.388698 -0.588746,-0.536074 0.04759,-0.261871 0.334622,-0.652624 0.559074,-0.679926 0.936,-0.114202 1.886101,-0.13211 2.831502,-0.147964 0.759729,-0.01292 1.119616,-0.301504 1.116091,-1.119413 -0.02732,-6.781064 -0.01939,-13.562422 -0.04172,-20.343486 -0.0056,-1.630825 -0.423344,-2.050055 -2.044158,-2.173945 -0.673062,-0.05167 -1.350237,-0.06605 -2.025356,-0.06195 -0.497085,0.0032 -0.654553,-0.214312 -0.642215,-0.691669 0.01175,-0.457395 0.07374,-0.817909 0.633402,-0.821725 0.621356,-0.0038 1.243299,0.01673 1.864361,-0.0032 2.074712,-0.06605 4.149424,-0.134165 6.223255,-0.226348 0.750621,-0.03347 0.985649,0.144147 0.958621,0.911266 -0.0235,0.673761 -0.127797,1.347523 -0.116339,2.019816 0.0141,0.81145 0.32522,0.9829 1.013266,0.558679 0.895751,-0.552513 1.746259,-1.178128 2.637016,-1.739449 0.523232,-0.330275 1.07643,-0.617982 1.633741,-0.888661 2.10644,-1.021945 3.929084,-0.416 5.588678,1.017248 0.747389,0.645578 1.021197,1.441761 0.661898,2.399119 -0.264995,0.705762 -0.529695,1.411817 -0.810554,2.111413 -0.263525,0.656734 -0.646621,0.636771 -1.08965,0.162349 -0.110463,-0.118312 -0.232677,-0.226643 -0.337853,-0.349652 -1.89139,-2.209174 -4.276339,-2.308403 -6.809356,-1.506055 -1.656067,0.524624 -2.473378,1.81578 -2.496587,3.766312 -0.0285,2.431119 -0.0068,4.862826 -0.0068,7.294239 h 0.0032"
             id="Fill-9" />
          <path
             d="m 19.591955,59.822385 v -5.532477 h 1.365514 v 8.576 c -0.82113,0.269211 -1.333198,0.02672 -1.775345,-0.73277 -0.961853,-1.652844 -2.02183,-3.248734 -3.194621,-4.852257 v 5.619963 h -1.427209 v -8.394569 c 1.260045,-0.396917 1.258576,-0.396037 1.907842,0.654092 0.973604,1.575339 1.949559,3.149211 2.924339,4.72367 0.06669,-0.02055 0.133084,-0.0411 0.19948,-0.06165"
             id="Fill-10" />
          <path
             d="m 158.14081,62.862092 c -0.89017,0.275376 -1.36669,-0.02583 -1.78533,-0.743927 -0.96273,-1.65167 -2.02124,-3.247853 -3.19903,-4.843743 v 5.621431 h -1.42074 V 54.51156 c 1.24946,-0.420698 1.25064,-0.421285 1.94074,0.692257 0.82466,1.329908 1.64579,2.662165 2.4722,3.990899 0.13426,0.216073 0.28821,0.42011 0.5864,0.58833 v -5.491963 h 1.40576 v 8.571009"
             id="Fill-11" />
          <path
             d="m 142.78407,58.712661 c -0.0688,0.477944 -0.10342,0.963816 -0.21182,1.43266 -0.45008,1.947596 -1.68515,2.95633 -3.58624,2.959853 -1.89697,0.0038 -3.25573,-1.004624 -3.60386,-2.924917 -0.18773,-1.03545 -0.18773,-2.161615 0.001,-3.196771 0.36047,-1.973431 1.88933,-3.014752 3.88824,-2.86767 1.99863,0.147083 3.25044,1.460257 3.43553,3.619817 0.0273,0.321174 0.004,0.646752 0.004,0.970275 0.0244,0.0021 0.0485,0.0044 0.0729,0.0068 z m -6.20269,-0.169689 c 0.1557,0.690496 0.23855,1.421211 0.49121,2.087634 0.31053,0.819376 0.96596,1.255926 1.88757,1.255632 0.91925,0 1.54707,-0.431266 1.89668,-1.248293 0.56671,-1.325211 0.55878,-2.677431 0.0273,-4.007927 -0.32875,-0.822899 -0.97478,-1.28 -1.87582,-1.296146 -0.93483,-0.01673 -1.6264,0.427743 -1.95691,1.287633 -0.22768,0.592146 -0.30935,1.240367 -0.47005,1.921467 z"
             id="Fill-12" />
          <path
             d="m 81.024814,58.590532 c 0.06551,-0.505541 0.09519,-1.019303 0.203005,-1.515743 0.430689,-1.985468 1.756249,-3.02356 3.741944,-2.962789 1.955729,0.05989 3.26748,1.218349 3.529243,3.214385 0.100474,0.764477 0.120745,1.562716 0.02292,2.325725 -0.302011,2.357138 -1.688972,3.527927 -3.969921,3.449835 -1.937514,-0.06664 -3.32183,-1.574752 -3.461085,-3.777468 -0.01528,-0.241908 -0.0023,-0.485284 -0.0023,-0.72778 -0.02115,-0.0021 -0.0426,-0.0041 -0.06375,-0.0062 z m 6.199457,0.02261 c -0.166282,-0.701065 -0.257649,-1.401542 -0.503842,-2.04301 -0.304361,-0.793247 -0.960678,-1.219229 -1.826169,-1.23655 -0.895164,-0.01761 -1.573221,0.384881 -1.933989,1.203963 -0.605785,1.375413 -0.597559,2.777542 0.0053,4.150606 0.357831,0.815266 1.014441,1.214238 1.929288,1.198385 0.889289,-0.01556 1.513289,-0.452404 1.821176,-1.233321 0.25148,-0.638532 0.341084,-1.340771 0.508248,-2.040073 z"
             id="Fill-13" />
          <path
             d="m 144.26004,54.326312 c 1.16692,0 2.30269,-0.09277 3.41643,0.02466 1.24301,0.13123 1.86202,0.805872 2.07824,1.93145 0.22181,1.15611 -0.15659,2.037138 -1.1628,2.706202 -0.10576,0.07046 -0.2127,0.138862 -0.28497,0.185835 0.67365,1.244183 1.32233,2.442275 1.98305,3.662679 -1.43397,0.291816 -1.44366,0.285651 -2.0424,-0.921248 -0.27557,-0.555743 -0.55084,-1.112073 -0.83846,-1.661945 -0.36106,-0.689908 -0.92454,-0.93211 -1.75331,-0.728367 v 3.360294 h -1.39578 z m 1.40489,3.933651 c 0.91426,-0.04873 1.90372,0.313248 2.40727,-0.610348 0.23709,-0.434789 0.24502,-1.245358 -0.0138,-1.646973 -0.55378,-0.858715 -1.52885,-0.450642 -2.39346,-0.508477 v 2.765798 z"
             id="Fill-14" />
          <path
             d="m 49.222847,62.862679 c -1.479796,0.226348 -1.478621,0.225761 -2.061785,-0.953835 -0.262644,-0.531376 -0.515006,-1.068624 -0.800271,-1.587963 -0.441266,-0.80411 -0.762373,-0.940918 -1.821175,-0.774459 v 3.362936 h -1.39548 v -8.573652 c 1.196293,0 2.352339,-0.07281 3.49487,0.02084 1.105808,0.09072 1.805898,0.77534 2.04357,1.881835 0.237379,1.104734 -0.171864,2.081762 -1.133424,2.721762 -0.110169,0.0731 -0.222395,0.142679 -0.322869,0.206972 0.666598,1.233615 1.323796,2.450202 1.996564,3.69556 z M 44.59661,55.468917 v 2.797505 c 0.899865,-0.06312 1.888158,0.309725 2.402283,-0.620624 0.232384,-0.420404 0.254712,-1.181945 0.02203,-1.588257 -0.527051,-0.921247 -1.529741,-0.483523 -2.424317,-0.588624 z"
             id="Fill-15" />
          <path
             d="m 5.8889265,54.283743 h 1.3199774 c 0.025559,0.302385 0.071684,0.610936 0.074622,0.920074 0.017333,1.700697 -0.00911,3.402275 0.046124,5.101211 0.034961,1.071266 0.6004972,1.553908 1.6537175,1.572697 1.1865986,0.02143 1.7947346,-0.543119 1.8155936,-1.769982 0.02732,-1.619376 0.0085,-3.239339 0.0094,-4.859303 2.93e-4,-0.294165 0,-0.588624 0,-0.945027 h 1.351412 c 0.02321,0.151486 0.07374,0.329688 0.07403,0.508183 0.0047,1.781725 0.01998,3.563743 -0.0059,5.345175 -0.02556,1.754422 -1.0967,2.862385 -2.7897849,2.94488 C 7.3035028,63.205872 6.0425763,62.386789 5.9200678,60.534312 5.7837514,58.473101 5.8889265,56.396037 5.8889265,54.283743"
             id="Fill-16" />
          <path
             d="m 170.77446,62.88822 c -1.31968,0.159707 -1.36904,0.173798 -1.71394,-1.046899 -0.21975,-0.777101 -0.57905,-1.159926 -1.40958,-1.005505 -0.20888,0.03905 -0.43099,0.0059 -0.64721,0.0059 -1.80443,0 -1.82705,-0.0088 -2.47103,1.644037 -0.32287,0.828183 -0.92836,0.337614 -1.50624,0.461504 1.00152,-2.798679 1.93399,-5.524844 2.99426,-8.20022 0.12222,-0.308257 0.95157,-0.369321 1.46805,-0.465908 0.13338,-0.02495 0.41071,0.217835 0.47358,0.391046 0.95187,2.635743 1.87964,5.279706 2.80888,7.923669 0.025,0.07105 0.003,0.158239 0.003,0.292404 z m -2.45134,-3.068477 c -0.48886,-1.412991 -0.92924,-2.685358 -1.36963,-3.957431 -0.0558,0.01028 -0.11193,0.02055 -0.16804,0.03083 -0.42981,1.284403 -0.85962,2.568807 -1.3141,3.926605 h 2.85177 z"
             id="Fill-17" />
          <path
             d="m 109.47645,62.955156 c 1.00328,-2.805725 1.93517,-5.534826 2.99603,-8.213138 0.12162,-0.307669 0.95568,-0.374018 1.4745,-0.457101 0.14161,-0.0229 0.42423,0.269799 0.49709,0.470312 0.93864,2.586129 1.85143,5.181358 2.76716,7.775707 0.035,0.09864 0.0344,0.209908 0.0502,0.314422 -1.28619,0.281835 -1.40136,0.268917 -1.72452,-0.920661 -0.22945,-0.844036 -0.61901,-1.252403 -1.51153,-1.088 -0.18303,0.03376 -0.3778,0.005 -0.567,0.005 -1.81765,0 -1.84204,-0.0094 -2.4722,1.64433 -0.32111,0.842569 -0.93365,0.325872 -1.50977,0.469138 z m 3.95847,-7.036477 c -0.0655,-0.0076 -0.13103,-0.01527 -0.19655,-0.02261 -0.4301,1.280588 -0.8602,2.561175 -1.30734,3.892844 h 2.8268 c -0.46418,-1.358091 -0.8934,-2.614312 -1.32291,-3.870238 z"
             id="Fill-18" />
          <path
             d="m 40.281198,57.954642 v 1.215119 h -3.162305 v 2.56734 h 3.711977 c 0.179209,1.174899 0.143955,1.218348 -0.90339,1.219523 -1.399299,0.0015 -2.798892,5.87e-4 -4.25783,5.87e-4 v -8.672587 h 5.046056 v 1.168734 h -3.605627 v 2.501284 h 3.171119"
             id="Fill-19" />
          <path
             d="m 26.464768,54.268771 c 1.407526,-0.06312 1.411345,-0.06459 1.819413,1.145541 0.633401,1.879193 1.26122,3.760147 1.944271,5.798459 0.811729,-2.406459 1.574689,-4.668184 2.341763,-6.942239 h 1.419276 c -0.552316,1.597064 -1.088768,3.145395 -1.62287,4.694312 -0.404836,1.173138 -0.829356,2.34011 -1.199525,3.523817 -0.156294,0.499376 -0.498554,0.507889 -0.878124,0.461504 -0.38339,-0.04668 -0.874599,0.231927 -1.084068,-0.388403 -0.914848,-2.708551 -1.848203,-5.41123 -2.770983,-8.117138 -0.01498,-0.04345 0.01675,-0.10334 0.03085,-0.175853"
             id="Fill-20" />
          <path
             d="m 50.479367,62.146642 c 0.202124,-0.358458 0.369288,-0.654679 0.48504,-0.85989 0.865785,0.213138 1.628746,0.47178 2.411977,0.57189 0.662192,0.08484 1.241537,-0.204917 1.42104,-0.929174 0.178327,-0.718385 -0.274983,-1.105615 -0.844927,-1.387743 -0.411299,-0.20345 -0.839051,-0.373138 -1.250938,-0.575707 -1.416926,-0.697247 -1.940452,-1.645798 -1.654011,-2.973945 0.239141,-1.107669 1.279141,-1.901211 2.709876,-1.847192 0.82583,0.03141 1.640497,0.354055 2.540949,0.564257 -0.148655,0.371669 -0.20565,0.545174 -0.286735,0.706935 -0.06963,0.138863 -0.16687,0.264221 -0.249423,0.392221 -0.579345,-0.161468 -1.112565,-0.362276 -1.663707,-0.449762 -0.686282,-0.108917 -1.350824,0.032 -1.579683,0.793541 -0.219458,0.730129 0.161288,1.255633 0.809378,1.580037 0.409537,0.204917 0.840814,0.366385 1.260339,0.55134 1.328498,0.585688 1.921356,1.466715 1.748317,2.594935 -0.173334,1.13145 -1.199526,2.064147 -2.490125,2.204477 -1.196881,0.130055 -2.304158,-0.133284 -3.367367,-0.93622"
             id="Fill-21" />
          <path
             d="m 107.87826,60.969688 c 0.23062,0.293872 0.42687,0.544294 0.66895,0.852844 -1.19835,1.131743 -2.57062,1.49578 -4.11064,1.195743 -1.52739,-0.297981 -2.42785,-1.327559 -2.66082,-2.801027 -0.16099,-1.018129 -0.20095,-2.117578 0.004,-3.11956 0.61578,-3.005945 4.0563,-3.987376 6.53908,-1.861578 -0.21211,0.284477 -0.42864,0.574826 -0.64075,0.859009 -0.50325,-0.231339 -0.94276,-0.49644 -1.41898,-0.64 -1.43044,-0.430972 -2.66375,0.217835 -2.9687,1.666936 -0.1795,0.852551 -0.22387,1.78055 -0.0964,2.64044 0.27733,1.87156 1.81735,2.631633 3.55862,1.851597 0.36429,-0.162936 0.69686,-0.39633 1.12549,-0.644404"
             id="Fill-22" />
          <path
             d="m 90.728542,54.268771 h 4.949989 v 1.201321 h -3.498983 v 2.469284 h 3.130283 v 1.229798 h -3.161718 v 3.730496 h -1.419571 v -8.630899"
             id="Fill-23" />
          <path
             d="m 130.55819,55.431633 v 2.523009 h 3.13763 v 1.240661 H 130.52 v 3.645358 c -1.42163,0.288587 -1.46834,0.254825 -1.46893,-0.993762 -0.001,-2.184514 -2.9e-4,-4.369027 -2.9e-4,-6.553541 v -1.007266 h 5.02079 v 1.145541 h -3.51338"
             id="Fill-24" />
          <path
             d="m 72.95365,62.926385 h -1.436317 c 0,-0.958238 0.04642,-1.89622 -0.01792,-2.826275 -0.0376,-0.541358 -0.16687,-1.112661 -0.405717,-1.596183 -0.584339,-1.18312 -1.257695,-2.322202 -1.89139,-3.480954 -0.125153,-0.228698 -0.234441,-0.466202 -0.362825,-0.723377 1.523277,-0.146789 1.521221,-0.145908 2.119368,1.134386 0.394553,0.844917 0.796745,1.686605 1.267095,2.68066 0.505311,-1.024587 0.929831,-1.888 1.356701,-2.750532 0.603729,-1.219229 0.604316,-1.218936 2.097627,-1.053358 -0.672181,1.229799 -1.281198,2.454899 -1.995096,3.615413 -0.559661,0.910092 -0.828474,1.839266 -0.741808,2.902899 0.05435,0.665248 0.01028,1.338422 0.01028,2.097321"
             id="Fill-25" />
          <path
             d="m 67.608226,54.304294 c -0.02291,0.406899 -0.04172,0.748036 -0.06551,1.170789 h -2.201333 v 7.411669 h -1.43544 V 55.49211 h -2.289468 v -1.187816 h 5.991751"
             id="Fill-26" />
          <path
             d="m 118.79238,54.271413 h 1.33379 v 7.473321 h 3.72108 v 1.138495 h -5.05487 v -8.611816"
             id="Fill-27" />
          <path
             d="m 161.63745,62.910238 h -1.33731 v -8.619449 h 1.33731 v 8.619449"
             id="Fill-28" />
          <path
             d="m 23.344768,62.911119 v -8.622385 h 1.339074 v 8.622385 h -1.339074"
             id="Fill-29" />
          <path
             d="m 126.92377,62.922275 h -1.33026 v -8.632954 h 1.33026 v 8.632954"
             id="Fill-30" />
          <path
             d="m 58.312859,54.279046 h 1.315277 c 0.02438,0.314128 0.06816,0.624147 0.06904,0.934165 0.0059,2.186275 0.0038,4.37255 0.0029,6.558826 -2.94e-4,1.28 -0.0012,1.28 -1.387254,1.125871 v -8.618862"
             id="Fill-31" />
        </g>
      </g>
    </g>
  </g>
  <metadata
     id="metadata2729">
    <rdf:RDF>
      <cc:Work
         rdf:about="">
        <dc:title>Imported Layers Copy 5</dc:title>
      </cc:Work>
    </rdf:RDF>
  </metadata>
</svg>
