<?xml version="1.0" encoding="UTF-8" standalone="no"?>
<svg
   width="300"
   height="90"
   viewBox="0 0 300 90"
   version="1.1"
   id="svg1775"
   sodipodi:docname="bloomberg.svg"
   inkscape:version="1.1.1 (3bf5ae0d25, 2021-09-20)"
   xmlns:inkscape="http://www.inkscape.org/namespaces/inkscape"
   xmlns:sodipodi="http://sodipodi.sourceforge.net/DTD/sodipodi-0.dtd"
   xmlns="http://www.w3.org/2000/svg"
   xmlns:svg="http://www.w3.org/2000/svg"
   xmlns:rdf="http://www.w3.org/1999/02/22-rdf-syntax-ns#"
   xmlns:cc="http://creativecommons.org/ns#"
   xmlns:dc="http://purl.org/dc/elements/1.1/"
   xmlns:sketch="http://www.bohemiancoding.com/sketch/ns">
  <sodipodi:namedview
     id="namedview1777"
     pagecolor="#ffffff"
     bordercolor="#666666"
     borderopacity="1.0"
     inkscape:pageshadow="2"
     inkscape:pageopacity="0.0"
     inkscape:pagecheckerboard="0"
     showgrid="false"
     inkscape:zoom="2.8844998"
     inkscape:cx="152.88612"
     inkscape:cy="-3.2934653"
     inkscape:window-width="1866"
     inkscape:window-height="1016"
     inkscape:window-x="54"
     inkscape:window-y="27"
     inkscape:window-maximized="1"
     inkscape:current-layer="svg1775" />
  <!-- Generator: Sketch 3.3.3 (12072) - http://www.bohemiancoding.com/sketch -->
  <title
     id="title1751">Imported Layers</title>
  <desc
     id="desc1753">Created with Sketch.</desc>
  <defs
     id="defs1755" />
  <g
     id="Page-1"
     stroke="none"
     stroke-width="1"
     fill="none"
     fill-rule="evenodd"
     sketch:type="MSPage"
     transform="matrix(1.3434171,0,0,1.3434171,0.89456902,14.729195)">
    <g
       id="Home---Desktop-Copy-2"
       sketch:type="MSArtboardGroup"
       transform="translate(-692,-1907)"
       fill="#b1b1b1">
      <g
         id="Group-+-Currently-in-use-at"
         sketch:type="MSLayerGroup"
         transform="translate(131,1814)">
        <g
           id="Group"
           sketch:type="MSShapeGroup">
          <g
             transform="translate(25)"
             id="Row-3-+-Row-1-+-Row-2">
            <g
               transform="translate(0,93)"
               id="g1768">
              <g
                 id="Row-1"
                 transform="translate(15)">
                <g
                   id="Imported-Layers"
                   transform="translate(521)">
                  <path
                     d="m 0.23520759,0.86934375 c 2.61594681,0 5.15658231,-0.0174375 7.69693671,0.005063 2.2461337,0.0199687 4.5015417,-0.0300938 6.7358737,0.15665625 2.98042,0.2489063 5.671397,1.2628125 7.309982,3.983625 1.962873,3.2588438 1.644767,8.867532 -3.552,10.984219 -0.236332,0.09647 -0.464233,0.21375 -0.850625,0.393187 0.474911,0.116156 0.777281,0.18225 1.075154,0.264094 4.096322,1.126406 6.288782,4.915406 5.721137,9.091687 -0.581977,4.282875 -3.485119,6.538219 -7.534793,7.45875 -1.446653,0.328781 -2.960187,0.469969 -4.446744,0.496688 -3.7737189,0.06806 -7.5494049,0.02278 -11.324248,0.02278 H 0.23520759 Z M 6.1345063,28.609031 c 0.2175038,0.01912 0.3476127,0.04078 0.4774405,0.04022 1.9510709,-0.0059 3.9043902,0.03459 5.8526512,-0.04387 0.975675,-0.03909 1.972708,-0.194906 2.907356,-0.47475 2.347018,-0.702563 3.254408,-2.191781 3.133011,-4.906125 -0.08402,-1.872844 -1.32357,-3.3435 -3.576167,-3.574406 -2.857899,-0.292782 -5.7517676,-0.233157 -8.6304613,-0.321188 -0.042152,-0.0014 -0.085709,0.05034 -0.1638304,0.09956 v 9.180562 z m 0.00422,-14.410406 c 1.8369798,0 3.595838,0.0042 5.3549777,-0.0025 0.480531,-0.002 0.96865,0.01041 1.439909,-0.06609 1.311767,-0.213469 2.569017,-0.59175 3.444653,-1.684125 C 17.726278,10.764563 17.612468,7.1682188 14.060749,6.3272813 11.454638,5.7102187 8.8103089,6.066 6.1387215,5.97375 v 8.224875 z"
                     id="Fill-1" />
                  <path
                     d="m 216.39576,14.74875 v -3.258 h 5.33306 v 0.819281 c 0,6.565219 0.0517,13.131 -0.0348,19.695094 -0.0228,1.712531 -0.30012,3.468938 -0.76464,5.119312 -1.24011,4.406625 -4.36665,6.809626 -8.7794,7.480688 -3.22096,0.489656 -6.44952,0.343969 -9.57241,-0.761625 -1.71418,-0.606656 -3.51968,-1.68975 -4.48412,-2.72025 1.09005,-1.488375 2.19021,-2.99025 3.3255,-4.5405 0.46115,0.36675 0.88435,0.721125 1.32554,1.051875 2.72048,2.039625 5.75654,2.61225 9.02725,1.80675 2.37315,-0.584156 3.9235,-2.543625 4.17051,-5.117625 0.1065,-1.109813 0.14697,-2.225813 0.2279,-3.500438 -0.67696,0.585844 -1.17491,1.098844 -1.75015,1.501313 -3.63714,2.545312 -9.4586,2.179125 -12.78551,-0.764156 -3.18247,-2.815875 -4.30006,-6.382407 -3.87545,-10.526344 0.30828,-3.011344 1.41547,-5.626406 3.74394,-7.642969 2.15789,-1.868625 4.7137,-2.540812 7.50697,-2.472187 2.44425,0.06019 4.62378,0.792562 6.35735,2.595656 0.32204,0.33525 0.59827,0.714656 1.0285,1.234125 z m -0.0624,7.759406 c 0.0211,-3.891375 -2.57239,-6.521344 -6.45093,-6.541875 -3.8406,-0.01997 -6.60098,2.702813 -6.62318,6.533719 -0.0205,3.507187 2.84019,6.400406 6.34807,6.420094 4.06906,0.02278 6.70468,-2.489907 6.72604,-6.411938 z"
                     id="Fill-2" />
                  <path
                     d="m 120.52015,33.663094 c 0,-4.276969 0.009,-8.481094 -0.01,-12.6855 -0.003,-0.663188 -0.0635,-1.341282 -0.21301,-1.985907 -0.34395,-1.485281 -1.15749,-2.597062 -2.74746,-2.896875 -1.79679,-0.338906 -3.42807,-0.02391 -4.62378,1.491188 -0.97202,1.231594 -1.22774,2.710687 -1.23589,4.229438 -0.0194,3.644156 -0.006,7.288312 -0.006,10.932749 v 0.923344 h -5.61857 v -0.901125 c 0,-4.180219 0.0104,-8.360437 -0.0118,-12.540656 -0.003,-0.605531 -0.0863,-1.233562 -0.26218,-1.811531 -0.62357,-2.046938 -2.54597,-2.907 -4.95453,-2.269125 -1.911171,0.50625 -3.354452,2.100094 -3.428077,4.1715 -0.1332,3.744844 -0.109314,7.495312 -0.148094,11.24325 -0.0073,0.689625 -0.0011,1.379531 -0.0011,2.114718 H 91.693306 V 11.485687 h 5.323785 v 3.037782 c 1.699846,-2.584688 4.083679,-3.667781 7.048919,-3.618 2.97002,0.04978 5.37606,1.08225 6.73054,4.010343 0.89952,-1.414406 1.95697,-2.558249 3.44296,-3.245906 2.71712,-1.25775 7.45471,-1.090125 9.64914,1.422844 1.24488,1.425375 2.00334,3.101344 2.05926,4.937062 0.15174,4.976719 0.14135,9.958219 0.19474,14.938032 0.002,0.210656 2.8e-4,0.421593 2.8e-4,0.69525 h -5.62278"
                     id="Fill-3" />
                  <path
                     d="m 136.22229,14.044781 c 1.3868,-1.314843 2.85425,-2.293593 4.63559,-2.768062 6.09066,-1.6222502 11.98828,1.864406 13.36327,8.016468 0.88013,3.9375 0.46311,7.728469 -2.0542,11.047782 -1.79174,2.361937 -4.25032,3.586781 -7.19336,3.87225 -2.7899,0.270562 -5.38392,-0.173532 -7.57189,-2.065781 -0.49992,-0.432563 -0.90879,-0.970594 -1.43541,-1.542376 v 3.071251 h -5.31142 V 0.19603125 h 5.56742 z m 12.73802,8.595281 c 5.7e-4,-3.859312 -2.74914,-6.707812 -6.48043,-6.668999 -3.7119,0.03853 -6.46666,2.686218 -6.45739,6.627937 0.01,4.037906 2.82586,6.59475 6.45374,6.629062 3.69953,0.03487 6.48352,-2.813906 6.48408,-6.588 z"
                     id="Fill-4" />
                  <path
                     d="m 49.235385,10.895344 c 5.826235,-0.02587 10.409271,3.1185 11.886835,8.042625 2.059823,6.864187 -1.621162,14.029593 -9.583093,15.231094 -5.409494,0.816468 -10.571978,-1.61325 -12.815583,-6.090751 -3.297402,-6.579843 -0.306304,-15.491249 8.500914,-16.966125 0.761825,-0.127687 1.538263,-0.167343 2.010927,-0.216843 z m 0.307709,18.337781 c 3.669182,0.01209 6.483243,-2.835281 6.519212,-6.596438 0.03569,-3.759468 -2.824177,-6.681374 -6.528767,-6.670406 -3.659628,0.01069 -6.44362,2.838656 -6.454018,6.554813 -0.0104,3.843562 2.739874,6.699375 6.463573,6.712031 z"
                     id="Fill-5" />
                  <path
                     d="m 75.825927,34.320656 c -3.340117,-0.157219 -6.310702,-1.205156 -8.62175,-3.69 -3.121488,-3.355875 -3.791423,-7.361156 -2.556934,-11.636719 1.1988,-4.151249 4.137911,-6.704437 8.289311,-7.680374 4.348671,-1.022625 8.406213,-0.301782 11.82417,2.781562 2.136258,1.927125 3.230803,4.395094 3.502261,7.252031 0.312767,3.289781 -0.450182,6.264563 -2.597119,8.809313 -2.251474,2.668781 -5.218405,3.889687 -8.645355,4.110468 -0.397633,0.02587 -0.79639,0.03628 -1.194584,0.05372 z m -6.07718,-11.687625 c 0.0059,3.7665 2.794671,6.604031 6.486896,6.599813 3.665529,-0.0039 6.49083,-2.885344 6.495608,-6.624563 0.0048,-3.735844 -2.815185,-6.624843 -6.482962,-6.642 -3.728195,-0.01716 -6.505443,2.831625 -6.499542,6.66675 z"
                     id="Fill-6" />
                  <path
                     d="m 179.75031,24.557344 h -16.86329 c -0.2945,1.400062 0.93352,3.457687 2.56902,4.402687 2.76179,1.596094 5.71439,0.913219 9.18602,-2.157469 1.29968,0.986344 2.6092,1.98 3.95272,2.999532 -1.77571,2.219062 -3.93221,3.700125 -6.6288,4.204969 -4.20732,0.787218 -8.08277,0.04303 -11.35348,-2.906719 -1.94236,-1.751344 -3.05208,-3.984469 -3.42414,-6.541313 -0.47603,-3.268969 0.0939,-6.353718 2.13317,-9.028406 2.2096,-2.898 5.22627,-4.32 8.82408,-4.578187 2.52125,-0.181125 4.9121,0.213187 7.01913,1.704093 2.41053,1.705219 3.65373,4.15125 4.13173,6.984281 0.26809,1.589625 0.3049,3.218344 0.45384,4.916532 z m -16.95012,-4.251657 h 11.1666 c -0.0992,-3.264468 -2.33466,-5.271468 -5.70906,-5.183156 -3.22715,0.08466 -5.32968,2.33325 -5.45754,5.183156 z"
                     id="Fill-7" />
                  <path
                     d="m 28.192595,0.1935 h 5.558711 V 33.671813 H 28.192595 V 0.1935"
                     id="Fill-8" />
                  <path
                     d="m 188.7947,33.690656 h -5.56967 V 11.484562 h 5.53707 v 3.020907 c 0.94168,-0.859782 1.819,-1.872 2.89219,-2.591719 1.59868,-1.072125 3.441,-1.233844 5.31113,-0.784969 0.19447,0.04669 0.47745,0.309094 0.4811,0.476719 0.0362,1.654313 0.0219,3.309469 0.0219,5.033812 -0.66404,-0.118125 -1.23674,-0.226406 -1.81141,-0.321187 -3.8451,-0.633375 -6.85699,1.907719 -6.86121,5.792625 -0.004,3.82725 -0.001,7.654219 -0.001,11.579906"
                     id="Fill-9" />
                </g>
              </g>
            </g>
          </g>
        </g>
      </g>
    </g>
  </g>
  <metadata
     id="metadata1859">
    <rdf:RDF>
      <cc:Work
         rdf:about="">
        <dc:title>Imported Layers</dc:title>
      </cc:Work>
    </rdf:RDF>
  </metadata>
</svg>
