<?xml version="1.0" encoding="UTF-8" standalone="no"?>
<svg
   width="300"
   height="90"
   viewBox="0 0 300 90"
   version="1.1"
   id="svg2067"
   sodipodi:docname="brynmawr.svg"
   inkscape:version="1.1.1 (3bf5ae0d25, 2021-09-20)"
   xmlns:inkscape="http://www.inkscape.org/namespaces/inkscape"
   xmlns:sodipodi="http://sodipodi.sourceforge.net/DTD/sodipodi-0.dtd"
   xmlns="http://www.w3.org/2000/svg"
   xmlns:svg="http://www.w3.org/2000/svg"
   xmlns:rdf="http://www.w3.org/1999/02/22-rdf-syntax-ns#"
   xmlns:cc="http://creativecommons.org/ns#"
   xmlns:dc="http://purl.org/dc/elements/1.1/"
   xmlns:sketch="http://www.bohemiancoding.com/sketch/ns">
  <sodipodi:namedview
     id="namedview2069"
     pagecolor="#ffffff"
     bordercolor="#666666"
     borderopacity="1.0"
     inkscape:pageshadow="2"
     inkscape:pageopacity="0.0"
     inkscape:pagecheckerboard="0"
     showgrid="false"
     inkscape:zoom="3.3525908"
     inkscape:cx="150.03322"
     inkscape:cy="1.3422455"
     inkscape:window-width="1866"
     inkscape:window-height="1016"
     inkscape:window-x="54"
     inkscape:window-y="27"
     inkscape:window-maximized="1"
     inkscape:current-layer="Imported-Layers" />
  <!-- Generator: Sketch 3.3.3 (12072) - http://www.bohemiancoding.com/sketch -->
  <title
     id="title2037">Imported Layers</title>
  <desc
     id="desc2039">Created with Sketch.</desc>
  <defs
     id="defs2041" />
  <g
     id="Page-1"
     stroke="none"
     stroke-width="1"
     fill="none"
     fill-rule="evenodd"
     sketch:type="MSPage"
     transform="matrix(1.9898841,0,0,1.9898841,76.696917,0.07375557)">
    <g
       id="Home---Desktop-Copy-2"
       sketch:type="MSArtboardGroup"
       transform="translate(-953,-2024)"
       fill="#b1b1b1">
      <g
         id="Group-+-Currently-in-use-at"
         sketch:type="MSLayerGroup"
         transform="translate(110,1814)">
        <g
           id="Group"
           sketch:type="MSShapeGroup">
          <g
             id="Row-3-+-Row-1-+-Row-2">
            <g
               transform="translate(0,93)"
               id="g2060">
              <g
                 id="Row-2"
                 transform="translate(0.837882,105.08823)">
                <g
                   id="Imported-Layers"
                   transform="translate(843,12)">
                  <g
                     id="g2491"
                     transform="matrix(1.1052203,0,0,1.1052203,-3.7879291,-7.4335672)">
                    <g
                       id="g2461"
                       transform="translate(2.8740843)">
                      <g
                         id="g2449"
                         transform="translate(27.741083,-3.8713252)">
                        <path
                           d="M 9.6346881,33.597092 H 7.8143151 C 7.6791125,32.510319 7.1940965,31.554413 6.7837428,30.578648 5.6237556,27.820217 4.437955,25.072347 3.2619936,22.320459 3.2469453,22.285332 3.2269196,22.25227 3.1791125,22.160548 3.1245916,22.76426 3.074701,23.30736 3.0265466,23.850574 c -0.1731704,1.952679 -0.3512025,3.905127 -0.5161543,5.858495 -0.091447,1.083214 -0.2238714,2.167462 -0.070148,3.255842 0.025351,0.180229 0.090058,0.354834 0.1311511,0.533342 0.022572,0.09792 0.033801,0.198367 0.053711,0.320051 H 0.01585852 C 0.02697106,33.718661 0.01099678,33.613278 0.05151125,33.537513 0.45538264,32.781467 0.61952412,31.951951 0.73666881,31.124388 0.96736977,29.493367 1.152926,27.855574 1.3280643,26.217551 1.4846817,24.753674 1.6034469,23.285893 1.7358714,21.819605 1.7653891,21.492895 1.7546238,21.160332 1.8111125,20.839018 1.9018649,20.322666 1.6762572,19.930064 1.3886045,19.541594 1.2560643,19.362628 1.1580193,19.158406 1.0148296,18.915383 h 2.8753698 c 0.1987524,0.502691 0.3735434,0.989885 0.581209,1.462844 1.4900064,3.392334 2.9866109,6.781913 4.4815948,10.172066 0.012733,0.02904 0.031023,0.05556 0.064129,0.113878 0.1567332,-0.318214 0.3044373,-0.615421 0.4500579,-0.913776 1.5270479,-3.130025 3.0473819,-6.263265 4.5876269,-9.386977 0.228617,-0.463546 0.310919,-0.930421 0.259177,-1.447806 h 2.771421 c -0.0063,0.07324 0.01158,0.157385 -0.02176,0.209158 -0.33083,0.514171 -0.347383,1.098597 -0.341248,1.670051 0.01771,1.63148 0.05429,3.263304 0.112978,4.893865 0.06436,1.790587 0.139485,3.581518 0.255357,5.36935 0.04792,0.738252 0.207665,1.470076 0.330482,2.202474 0.03033,0.181033 0.115177,0.353112 0.185672,0.561008 h -2.956283 c 0.0054,-0.100217 -1.16e-4,-0.194005 0.01713,-0.283661 0.08844,-0.460332 0.259987,-0.9194 0.261492,-1.379388 0.0063,-1.887245 -0.03021,-3.774834 -0.06795,-5.661849 -0.02361,-1.183776 -0.07663,-2.367092 -0.118186,-3.550523 -0.0093,-0.262309 -0.02593,-0.524388 -0.04179,-0.836977 -0.04931,0.0737 -0.0779,0.106645 -0.09585,0.144528 -1.435948,3.030842 -2.879305,6.058355 -4.298585,9.096888 -0.255704,0.547347 -0.4201925,1.137857 -0.6089899,1.714132 -0.053132,0.162207 -0.04283,0.344847 -0.063203,0.532424"
                           id="Fill-1" />
                        <path
                           d="m 35.498547,18.898852 c 1.133363,0 2.206649,-1.15e-4 3.279935,4.59e-4 0.04723,1.15e-4 0.09457,0.0069 0.149904,0.01113 0,0.07898 0.02396,0.160485 -0.0037,0.21685 -0.274341,0.558367 -0.189145,1.14199 -0.05371,1.69565 0.410354,1.676824 0.848142,3.347794 1.310122,5.011531 0.449364,1.618048 0.941557,3.224388 1.415344,4.835778 0.01563,0.05315 0.03542,0.104924 0.06737,0.199056 0.04329,-0.10963 0.07455,-0.183214 0.101518,-0.258291 0.952669,-2.658099 1.911588,-5.313903 2.853376,-7.97579 0.299344,-0.845817 0.551575,-1.709197 0.563614,-2.616773 0.0037,-0.276888 -0.04781,-0.554579 -0.07408,-0.831926 -0.0082,-0.0861 -0.01655,-0.172194 -0.02628,-0.273674 h 2.46409 c 0,0.06727 0.01574,0.127768 -0.0023,0.175638 -0.317402,0.838699 -0.126752,1.671543 0.09793,2.475344 0.563962,2.017539 1.178045,4.021301 1.777659,6.028852 0.306637,1.026735 0.625081,2.049911 0.938547,3.074579 0.0087,0.02847 0.02026,0.05614 0.05024,0.138559 0.120849,-0.345076 0.227691,-0.642972 0.329672,-0.94236 0.853929,-2.50588 1.717466,-5.00866 2.553453,-7.52051 0.21901,-0.65824 0.355486,-1.343686 0.521942,-2.018686 0.09214,-0.373776 0.05915,-0.746174 -0.04433,-1.115357 -0.02512,-0.08954 -0.02512,-0.185855 -0.03866,-0.295829 h 2.903614 c -0.01829,0.08541 -0.0094,0.185969 -0.05568,0.238775 -0.609453,0.695204 -0.988206,1.521046 -1.30827,2.365829 -0.671614,1.772908 -1.30989,3.558329 -1.946894,5.34375 -0.800913,2.244949 -1.589324,4.49449 -2.375305,6.74472 -0.06424,0.183788 -0.15164,0.245089 -0.344836,0.235331 -0.338354,-0.01699 -0.678791,-0.01642 -1.017145,-4.59e-4 -0.185903,0.0088 -0.267511,-0.0504 -0.321801,-0.228444 -0.611305,-2.003992 -1.230829,-4.005574 -1.848154,-6.007844 -0.447743,-1.452169 -0.89537,-2.904337 -1.343344,-4.35639 -0.02107,-0.06807 -0.04607,-0.135 -0.08728,-0.254847 -0.129299,0.347372 -0.243549,0.647449 -0.352938,0.949362 -1.165891,3.219222 -2.332824,6.438099 -3.491769,9.659847 -0.06586,0.183214 -0.147704,0.248763 -0.343447,0.238661 -0.338354,-0.01756 -0.679138,-0.02032 -1.017029,5.73e-4 -0.204656,0.01274 -0.27573,-0.06532 -0.330714,-0.246926 -0.920836,-3.038647 -1.842135,-6.077181 -2.777209,-9.111581 -0.400283,-1.298572 -0.820476,-2.591518 -1.255717,-3.878954 -0.177106,-0.523814 -0.441144,-1.0125 -0.817929,-1.432539 -0.05105,-0.05694 -0.05776,-0.152793 -0.09978,-0.273099"
                           id="Fill-2" />
                        <path
                           d="m 58.822611,33.742653 c 0.0063,-0.09758 -0.0065,-0.174949 0.01806,-0.238087 0.384656,-0.986326 0.371344,-2.027525 0.387087,-3.054489 0.03565,-2.329554 0.04318,-4.660141 0.02419,-6.990039 -0.0095,-1.15852 -0.08948,-2.31727 -0.166689,-3.474069 -0.02026,-0.303864 -0.140758,-0.603137 -0.230932,-0.89977 -0.06355,-0.208814 -0.0367,-0.270918 0.168887,-0.275166 1.33119,-0.02744 2.66238,-0.07347 3.993685,-0.07542 1.232451,-0.0018 2.448,0.138214 3.593865,0.637806 1.635164,0.712998 2.515949,2.109835 2.407139,3.877118 -0.05348,0.866709 -0.459666,1.606339 -0.97582,2.288112 -0.05556,0.07324 -0.151525,0.117781 -0.231743,0.171161 -0.642907,0.42727 -1.286624,0.853507 -1.939602,1.286403 0.01632,0.04225 0.02431,0.08082 0.04422,0.111696 0.949659,1.469388 1.909505,2.932117 3.103756,4.224031 0.812489,0.879107 1.747447,1.612653 2.771189,2.235306 0.144927,0.08816 0.24575,0.178163 0.166226,0.372857 -1.325287,0.144069 -2.575563,-0.03754 -3.699898,-0.825727 -0.990983,-0.694745 -1.754392,-1.601288 -2.469646,-2.553176 -0.689556,-0.917564 -1.363601,-1.846607 -2.036836,-2.775995 -0.08751,-0.120765 -0.171434,-0.165306 -0.318444,-0.142347 -0.676707,0.105727 -1.354688,0.203189 -2.068437,0.309031 0.04445,1.935 -0.117145,3.878035 0.443691,5.790765 h -2.983948 z m 2.566302,-13.504477 v 6.223546 c 0.754148,0 1.491396,0.04362 2.221582,-0.009 1.568605,-0.112959 2.628926,-0.962105 3.006405,-2.354809 0.160322,-0.591314 0.205004,-1.194911 0.14018,-1.807462 -0.116681,-1.102959 -0.679022,-1.770612 -1.763884,-2.048648 -1.199807,-0.307538 -2.401235,-0.173456 -3.604283,-0.0037 z"
                           id="Fill-6" />
                        <path
                           d="m 20.213248,33.822092 c 0.03588,-0.103891 0.04098,-0.207436 0.09561,-0.263457 0.644411,-0.661913 1.084861,-1.458138 1.450649,-2.284553 1.282225,-2.897679 2.535396,-5.8081 3.795511,-8.715536 0.505968,-1.167475 1.003486,-2.338508 1.497878,-3.510918 0.05603,-0.132934 0.126637,-0.178508 0.268553,-0.176442 0.500528,0.0075 1.001634,0.01412 1.501698,-0.0026 0.208244,-0.0069 0.292167,0.07531 0.363936,0.254617 1.42009,3.550638 2.835318,7.103227 4.277749,10.644911 0.388592,0.954184 0.844553,1.883227 1.308502,2.804579 0.173517,0.344503 0.461517,0.631492 0.688977,0.950625 0.05626,0.07898 0.07999,0.180574 0.130109,0.298699 h -3.569093 c -0.0039,-0.06153 -0.02269,-0.114337 -0.0074,-0.154515 0.266354,-0.700944 0.08612,-1.388227 -0.131383,-2.043827 -0.412553,-1.244158 -0.886919,-2.468227 -1.344964,-3.697117 -0.02396,-0.06452 -0.134393,-0.138674 -0.204888,-0.139018 -1.768399,-0.0076 -3.536913,-0.0073 -5.305428,-4.59e-4 -0.06587,3.44e-4 -0.166803,0.06658 -0.191922,0.12662 -0.626123,1.497857 -1.304914,2.979183 -1.657505,4.571862 -0.07895,0.356556 -0.02871,0.741237 -0.03588,1.113061 -0.0014,0.06911 0.0069,0.138444 0.01181,0.223508 h -2.942508 z m 7.553054,-12.730638 c -0.778572,1.800574 -1.539202,3.559362 -2.302263,5.324005 h 4.471987 c -0.725325,-1.779566 -1.439422,-3.532041 -2.169724,-5.324005 z"
                           id="Fill-7" />
                      </g>
                      <g
                         id="g2443"
                         transform="translate(-41.213162,14.844536)">
                        <path
                           d="m 15.106572,6.7397832 c 0.504348,0.1640433 1.010547,0.2836607 1.478084,0.4897194 1.138688,0.5017729 1.958354,1.3148724 2.177595,2.5711989 0.246443,1.4127935 -0.200257,2.6389285 -1.247499,3.6101025 -1.122482,1.040969 -2.481916,1.63079 -4.018109,1.679005 -1.716656,0.05372 -3.436321,0.01 -5.1547137,0.0087 -0.1845145,-1.15e-4 -0.3691447,0 -0.57982,0 0,-0.103775 -0.025929,-0.198482 0.00405,-0.270459 0.324926,-0.780957 0.3478456,-1.611276 0.3615048,-2.430918 0.039241,-2.345051 0.056373,-4.6907912 0.05047,-7.0361866 C 8.1751254,4.1458546 8.1254662,2.9297066 8.0541608,1.7164286 8.0288103,1.2852551 7.8762444,0.86154337 7.7832926,0.43404337 7.7669711,0.35839286 7.7586367,0.2811352 7.7397685,0.16128826 c 0.3370804,0 0.648,3.4439e-4 0.9589196,0 1.3228549,-0.001378 2.6460579,-0.0226148 3.9684499,0.00264 0.831704,0.0159566 1.650907,0.1575 2.445685,0.4219898 2.155138,0.71701534 2.402045,2.52355864 1.897929,4.01418364 -0.13798,0.4078699 -0.367061,0.7539796 -0.70634,1.0392475 -0.417299,0.3509311 -0.804733,0.7365306 -1.19784,1.100434 z m -4.800385,6.9848728 c 0.275961,0 0.539768,9.18e-4 0.803575,-1.15e-4 0.998045,-0.004 1.999794,0.04156 2.993093,-0.02939 0.759473,-0.0543 1.43919,-0.376645 1.953608,-0.98449 0.797788,-0.942359 0.679138,-2.49463 0.181273,-3.3807395 -0.508977,-0.9060842 -1.368,-1.2585077 -2.345324,-1.276301 -0.858213,-0.015612 -1.71955,0.091148 -2.578225,0.1603699 -0.340438,0.027436 -0.677287,0.099184 -1.008,0.1496938 v 5.3609698 z m 0.0036,-12.1149876 v 5.1306887 c 0.967254,0 1.918418,-0.015957 2.86854,0.00872 0.330251,0.00861 0.574611,-0.097232 0.79582,-0.3117857 0.06332,-0.061531 0.130225,-0.1198469 0.189839,-0.1847066 0.745698,-0.811148 0.943987,-1.7873725 0.804965,-2.8346556 C 14.807125,2.197993 14.2596,1.6709649 13.024488,1.4888986 c -0.903588,-0.1330485 -1.8,-0.00849 -2.714701,0.1207653 z"
                           id="Fill-3" />
                        <path
                           d="m 53.023601,3.8601276 c -0.0068,0.1352295 -0.01401,0.212602 -0.01401,0.2898596 -3.47e-4,2.1465689 -0.01262,4.2931378 0.0051,6.4394768 0.01,1.208457 0.07617,2.416454 0.359769,3.599426 0.04804,0.199975 0.145273,0.388011 0.211485,0.584197 0.03195,0.09436 0.0448,0.195153 0.07165,0.317984 h -2.812746 c 0.0093,-0.09723 -0.0068,-0.206747 0.03206,-0.291466 0.351203,-0.765574 0.441724,-1.587972 0.501338,-2.407615 0.06841,-0.940982 0.09515,-1.886327 0.100476,-2.830064 0.01331,-2.3786862 0.0019,-4.7574872 0.0089,-7.1361734 5.79e-4,-0.2070919 -0.04943,-0.3680358 -0.19528,-0.513597 C 50.837904,1.4588265 50.384141,1.0043495 49.942534,0.53873724 49.868219,0.46033163 49.85537,0.32464286 49.8071,0.1967602 c 0.09804,-0.0165306 0.144115,-0.0311097 0.190302,-0.0312245 0.880322,-0.001378 1.760643,-0.003329 2.640849,0.003099 0.07594,5.7398e-4 0.178842,0.0384566 0.223061,0.0947066 1.195987,1.5211607 2.359447,3.0680358 3.582984,4.5669261 1.813312,2.221301 3.668411,4.4089668 5.506032,6.6107516 0.0294,0.03524 0.06251,0.06739 0.1249,0.133967 0.0054,-0.107104 0.01181,-0.174145 0.01192,-0.241186 5.79e-4,-2.1544893 0.01412,-4.3090939 -0.0047,-6.4634689 -0.01076,-1.2326785 -0.0911,-2.46375 -0.378752,-3.6699107 -0.05522,-0.23142859 -0.160322,-0.45080359 -0.235447,-0.67798472 -0.03369,-0.10182397 -0.05012,-0.20927295 -0.08022,-0.33945153 h 2.859164 c -0.0061,0.0953954 0.0154,0.20031888 -0.02211,0.27642858 C 63.909996,1.098252 63.809289,1.7911602 63.75442,2.4817725 c -0.08427,1.0599107 -0.141569,2.1244132 -0.149672,3.1874234 -0.01875,2.4826914 -0.0056,4.9656121 0.0044,7.4484181 0.0022,0.551594 0.04596,1.103074 0.06725,1.654668 0.0061,0.159107 9.26e-4,0.318788 9.26e-4,0.496378 H 62.212283 C 62.082868,15.054911 61.98355,14.845293 61.843601,14.666901 60.713711,13.226327 59.59609,11.775536 58.43645,10.358724 56.716785,8.2577296 54.965749,6.181875 53.227794,4.095574 53.173389,4.0302551 53.116437,3.9670026 53.023601,3.8601276"
                           id="Fill-4" />
                        <path
                           d="m 28.653222,8.2942347 c 1.291717,1.8990693 2.462238,3.8487623 4.245453,5.3127553 0.55146,0.452755 1.153737,0.845586 1.741428,1.253686 0.13937,0.09677 0.209633,0.187232 0.142842,0.348291 -1.547305,0.191365 -2.943897,-0.13523 -4.154932,-1.15037 -0.852425,-0.714719 -1.542675,-1.568457 -2.19982,-2.451926 -0.637119,-0.856492 -1.259769,-1.7234312 -1.897582,-2.5792348 -0.04815,-0.06463 -0.172244,-0.1185842 -0.251884,-0.1082525 -0.639897,0.082768 -1.277248,0.1842474 -1.915988,0.2748214 -0.120964,0.017105 -0.188797,0.052462 -0.187176,0.1917092 0.01829,1.5758037 -0.03091,3.1548217 0.220861,4.7193747 0.03264,0.203189 0.113094,0.398572 0.166804,0.598661 0.02558,0.09563 0.04028,0.19412 0.06413,0.31236 h -2.974572 c 0,-0.08839 -0.02396,-0.175408 0.0036,-0.241186 0.330366,-0.788419 0.353865,-1.627003 0.362662,-2.454796 0.03149,-2.9942224 0.04746,-5.9887887 0.03102,-8.9830106 C 22.045543,2.5012883 21.914392,1.6654592 21.828154,0.83100765 21.81218,0.67614796 21.729299,0.52875 21.683923,0.37607143 c -0.0235,-0.0792092 -0.03253,-0.16266582 -0.06239,-0.31936225 0.548103,0 1.054187,0.0037883 1.560155,-8.0357e-4 1.073402,-0.0097576 2.147498,-0.05246173 3.219974,-0.0280102 1.061363,0.02422194 2.10027,0.20720663 3.080836,0.6441199 1.656926,0.73836729 2.547203,2.26905609 2.326341,4.05596939 -0.09561,0.7736097 -0.465801,1.440574 -0.929981,2.0566837 -0.06019,0.079898 -0.158932,0.1336224 -0.245402,0.1913648 -0.648,0.4328954 -1.297273,0.863954 -1.980231,1.3182015 z M 24.193505,7.7490689 C 25.256026,7.6821429 26.317042,7.88625 27.350161,7.5495536 28.186379,7.2770281 28.832527,6.7798469 29.210122,5.978801 29.597788,5.1560587 29.663421,4.2832653 29.547318,3.3973852 29.410264,2.3511352 28.771987,1.7428316 27.760514,1.5015306 26.576103,1.2190179 25.392039,1.343801 24.193505,1.5143878 Z"
                           id="Fill-5" />
                        <path
                           d="m 41.523048,8.0615434 c 0.372618,-0.6584694 0.73991,-1.2880102 1.088682,-1.9276531 0.72845,-1.3358801 1.457479,-2.6717602 2.164746,-4.0186607 0.292862,-0.557449 0.504231,-1.1476148 0.320411,-1.79816327 -0.01007,-0.0358163 0.0051,-0.0786352 0.01007,-0.13534439 h 3.065672 c -0.03774,0.10033163 -0.0448,0.20778061 -0.102559,0.25989796 -0.923499,0.8316964 -1.551473,1.8809311 -2.165788,2.9323469 -1.200965,2.0550766 -2.37299,4.1269133 -3.552887,6.1940434 -0.05313,0.093214 -0.09793,0.2096174 -0.09423,0.3133929 0.04827,1.3346169 0.09504,2.6693499 0.169814,4.0025889 0.01713,0.305013 0.140759,0.603827 0.211254,0.906314 0.0213,0.09138 0.02871,0.18597 0.04572,0.30088 H 39.71946 c 0,-0.07645 -0.02593,-0.170357 0.0041,-0.240842 0.318907,-0.748813 0.31937,-1.547678 0.361274,-2.335178 0.04561,-0.854656 0.04364,-1.711837 0.05614,-2.5680997 0.0014,-0.099069 -0.01239,-0.2136352 -0.06158,-0.2959438 C 38.687498,7.3263903 37.301209,4.9982143 35.887949,2.6864541 35.382097,1.8590051 34.822765,1.0614031 34.059704,0.43140306 34.005415,0.38651786 33.998469,0.28503827 33.958302,0.18068878 h 3.712862 c -0.0076,0.0999872 0.0019,0.196875 -0.02442,0.28297193 -0.110894,0.36424745 -0.07929,0.71586739 0.09781,1.04739799 0.652746,1.2214285 1.290907,2.4511224 1.976064,3.654528 0.515229,0.9049363 1.093775,1.7745153 1.644656,2.6593623 0.04584,0.073584 0.09619,0.144528 0.157775,0.2365944"
                           id="Fill-8" />
                      </g>
                    </g>
                    <g
                       id="g2470"
                       transform="translate(0.01371489,-5.6741484)">
                      <path
                         d="m 19.645929,42.269809 c -1.16e-4,-1.338176 0.760515,-2.390625 1.956502,-2.707003 1.656116,-0.438061 3.066714,0.532079 3.239074,2.227959 0.143189,1.408087 -0.594058,2.61574 -1.84665,3.025102 -1.688527,0.551939 -3.294752,-0.565599 -3.348463,-2.330012 -0.0022,-0.07186 -2.31e-4,-0.143954 -4.63e-4,-0.216046 z m 4.385634,-0.02434 c 0.02084,-0.0049 0.04156,-0.01 0.06239,-0.01492 -0.102791,-0.415331 -0.164141,-0.846505 -0.318097,-1.242206 -0.246443,-0.633674 -0.738173,-1.00722 -1.437106,-1.032589 -0.68863,-0.02491 -1.234186,0.279642 -1.548926,0.880484 -0.507241,0.967959 -0.462675,1.9575 0.114946,2.876212 0.623691,0.992181 1.99389,1.011008 2.698495,0.07358 0.3431,-0.456428 0.443112,-0.983916 0.428296,-1.540561 z"
                         id="Fill-9" />
                      <path
                         d="m 44.639769,41.70926 v 0.832385 C 43.782135,42.307347 42.91883,42.419732 42.047421,42.388048 v 1.934312 c 0.91447,-0.02112 1.825119,0.0652 2.736232,-0.186773 v 0.740663 h -3.610071 c 0.160553,-1.80861 0.163447,-3.550179 0.0054,-5.300357 1.170173,-0.07324 2.391395,0.09539 3.61088,-0.122947 v 0.799095 C 43.889209,40.004311 42.978328,40.10912 42.053556,40.08088 v 1.790587 c 0.854508,-0.02009 1.721518,0.06222 2.586213,-0.162207"
                         id="Fill-10" />
                      <path
                         d="m 55.817132,44.876824 c 0.172823,-1.80838 0.171318,-3.550064 0.0097,-5.30139 1.166238,-0.06876 2.378547,0.0877 3.601621,-0.115141 V 40.24963 C 58.53137,40.00477 57.61609,40.105676 56.690624,40.084668 v 1.812972 c 0.854624,-0.03696 1.707974,-0.07393 2.580424,-0.111811 v 0.749388 c -0.843395,-0.22523 -1.70427,-0.116059 -2.577415,-0.148431 v 1.935 c 0.910187,-0.02147 1.820142,0.06681 2.735769,-0.186658 v 0.741696 h -3.61227"
                         id="Fill-11" />
                      <path
                         d="m 52.203125,39.76898 v 0.843979 c -0.09561,-0.05372 -0.167961,-0.09011 -0.236025,-0.133278 -0.711782,-0.451607 -1.489891,-0.501314 -2.28166,-0.315918 -0.4489,0.105153 -0.704141,0.471122 -0.852887,0.884502 -0.245981,0.682921 -0.266817,1.381225 -0.02685,2.069656 0.346688,0.994362 1.229787,1.465829 2.260591,1.228431 0.564541,-0.130064 0.578084,-0.130523 0.557942,-0.703469 -0.0162,-0.459299 -0.07038,-0.917334 -0.109041,-1.392245 h 0.9338 c -0.02315,0.702895 -0.0507,1.394081 -0.06517,2.085497 -0.003,0.14889 -0.0492,0.206288 -0.197595,0.236021 -0.418225,0.08369 -0.837376,0.169668 -1.247498,0.285268 -1.224,0.345076 -2.592232,-0.409592 -2.993441,-1.745587 -0.557132,-1.855332 0.792463,-3.634095 2.750933,-3.637883 0.521942,-10e-4 1.024669,0.08059 1.506906,0.295026"
                         id="Fill-12" />
                      <path
                         d="m 16.835035,40.614337 c -0.08832,-0.04753 -0.138328,-0.06865 -0.181852,-0.09873 -0.682495,-0.472041 -1.441389,-0.532423 -2.222161,-0.36241 -0.202803,0.0442 -0.411742,0.197219 -0.553774,0.356441 -0.765029,0.856951 -0.780656,2.856352 0.583176,3.561658 0.683422,0.353342 1.388026,0.390536 2.073647,-0.02939 0.0926,-0.05671 0.190534,-0.104579 0.341247,-0.186658 0,0.218342 0.006,0.382385 -0.0042,0.545395 -0.0027,0.04316 -0.04596,0.103317 -0.08635,0.121914 -0.811099,0.371939 -1.639215,0.573405 -2.525556,0.260357 -1.457826,-0.515089 -2.128399,-2.174464 -1.451228,-3.647411 0.734817,-1.598418 2.44962,-1.986773 3.909878,-1.414745 0.05394,0.02112 0.108115,0.113534 0.111935,0.175638 0.01343,0.222704 0.0052,0.446671 0.0052,0.717934"
                         id="Fill-13" />
                      <path
                         d="m 31.618418,44.882449 h -3.661582 c 0,-0.104809 -0.01702,-0.159107 0.0027,-0.191824 0.213338,-0.355064 0.208708,-0.752258 0.208245,-1.140612 -0.0014,-1.152092 -0.01771,-2.304184 -0.03774,-3.456046 -0.003,-0.17185 -0.05741,-0.342781 -0.09017,-0.526684 h 1.006726 c -0.211485,1.572934 -0.07686,3.147934 -0.129299,4.752322 0.913775,-0.01091 1.805325,0.05717 2.701158,-0.189873 v 0.752717"
                         id="Fill-14" />
                      <path
                         d="m 34.526199,44.878202 c 0.336618,-1.661557 0.189029,-3.256301 0.144232,-4.846799 -0.0042,-0.148202 -0.05498,-0.295255 -0.0874,-0.459413 h 1.013441 c -0.226302,1.571212 -0.05406,3.150574 -0.124437,4.749336 0.919794,-0.01481 1.80544,0.05453 2.691434,-0.190561 v 0.747437 h -3.637274"
                         id="Fill-15" />
                    </g>
                  </g>
                </g>
              </g>
            </g>
          </g>
        </g>
      </g>
    </g>
  </g>
  <metadata
     id="metadata2151">
    <rdf:RDF>
      <cc:Work
         rdf:about="">
        <dc:title>Imported Layers</dc:title>
      </cc:Work>
    </rdf:RDF>
  </metadata>
</svg>
