<?xml version="1.0" encoding="UTF-8" standalone="no"?>
<svg width="73px" height="45px" viewBox="0 0 73 45" version="1.1" xmlns="http://www.w3.org/2000/svg" xmlns:xlink="http://www.w3.org/1999/xlink" xmlns:sketch="http://www.bohemiancoding.com/sketch/ns">
    <!-- Generator: Sketch 3.3.3 (12072) - http://www.bohemiancoding.com/sketch -->
    <title>Imported Layers</title>
    <desc>Created with Sketch.</desc>
    <defs></defs>
    <g id="Page-1" stroke="none" stroke-width="1" fill="none" fill-rule="evenodd" sketch:type="MSPage">
        <g id="Home---Desktop-Copy-2" sketch:type="MSArtboardGroup" transform="translate(-953.000000, -2024.000000)" fill="#B1B1B1">
            <g id="Group-+-Currently-in-use-at" sketch:type="MSLayerGroup" transform="translate(110.000000, 1814.000000)">
                <g id="Group" sketch:type="MSShapeGroup">
                    <g id="Row-3-+-Row-1-+-Row-2">
                        <g transform="translate(0.000000, 93.000000)">
                            <g id="Row-2" transform="translate(0.837882, 105.088235)">
                                <g id="Imported-Layers" transform="translate(843.000000, 12.000000)">
                                    <path d="M9.6346881,33.5970918 L7.81431511,33.5970918 C7.67911254,32.5103189 7.19409646,31.5544133 6.78374277,30.578648 C5.62375563,27.8202168 4.43795498,25.0723469 3.26199357,22.3204592 C3.24694534,22.2853316 3.22691961,22.2522704 3.17911254,22.1605485 C3.12459164,22.7642602 3.07470096,23.3073597 3.02654662,23.850574 C2.85337621,25.8032526 2.67534405,27.7557015 2.51039228,29.7090689 C2.41894534,30.7922832 2.2865209,31.8765306 2.44024437,32.9649107 C2.46559486,33.1451403 2.53030225,33.3197449 2.5713955,33.4982526 C2.59396785,33.5961735 2.60519614,33.6966199 2.62510611,33.8183036 L0.0158585209,33.8183036 C0.0269710611,33.7186607 0.0109967846,33.6132781 0.051511254,33.5375128 C0.455382637,32.7814668 0.619524116,31.9519515 0.73666881,31.1243878 C0.967369775,29.4933673 1.15292605,27.855574 1.32806431,26.217551 C1.48468167,24.7536735 1.60344695,23.2858929 1.73587138,21.8196046 C1.76538907,21.4928954 1.75462379,21.1603316 1.81111254,20.8390179 C1.90186495,20.3226658 1.67625723,19.9300638 1.3886045,19.5415944 C1.25606431,19.3626276 1.15801929,19.1584056 1.01482958,18.9153827 L3.89019936,18.9153827 C4.08895177,19.418074 4.26374277,19.9052679 4.47140836,20.378227 C5.96141479,23.7705612 7.45801929,27.1601403 8.95300322,30.5502934 C8.96573633,30.5793367 8.98402572,30.6058546 9.01713183,30.6641709 C9.17386495,30.3459566 9.32156913,30.04875 9.46718971,29.7503954 C10.9942379,26.6203699 12.5145723,23.4871301 14.0548167,20.3634184 C14.2834341,19.8998724 14.3657363,19.4329974 14.3139936,18.9156122 L17.0854148,18.9156122 C17.079164,18.988852 17.0969904,19.0729974 17.0636527,19.1247704 C16.7328232,19.6389413 16.7162701,20.2233673 16.7224051,20.7948214 C16.7401158,22.426301 16.7766945,24.058125 16.8353826,25.6886862 C16.8997428,27.479273 16.9748682,29.2702041 17.0907395,31.0580357 C17.1386624,31.7962883 17.2984051,32.5281122 17.4212219,33.2605102 C17.4515498,33.4415434 17.5363987,33.6136224 17.6068939,33.8215179 L14.6506109,33.8215179 C14.6560514,33.721301 14.6504952,33.6275128 14.6677428,33.5378571 C14.7561801,33.0775255 14.9277299,32.6184566 14.9292347,32.1584694 C14.9354855,30.2712245 14.8990225,28.3836352 14.8612862,26.4966199 C14.837672,25.3128444 14.7846559,24.1295281 14.7430997,22.9460969 C14.7338392,22.6837883 14.7171704,22.4217092 14.7013119,22.1091199 C14.652,22.1828189 14.6234084,22.2157653 14.6054662,22.253648 C13.1695177,25.2844898 11.7261608,28.3120026 10.306881,31.3505357 C10.0511768,31.8978827 9.8866881,32.4883929 9.69789068,33.0646684 C9.64475884,33.226875 9.65506109,33.4095153 9.6346881,33.5970918" id="Fill-1"></path>
                                    <path d="M35.4985466,18.898852 C36.63191,18.898852 37.7051961,18.8987372 38.7784823,18.8993112 C38.8257106,18.899426 38.8730547,18.906199 38.9283859,18.9104464 C38.9283859,18.989426 38.9523473,19.0709311 38.9246817,19.1272959 C38.6503408,19.6856633 38.735537,20.2692857 38.8709711,20.8229464 C39.2813248,22.4997704 39.7191125,24.1707398 40.1810932,25.834477 C40.6304566,27.4525255 41.1226495,29.0588648 41.5964373,30.6702551 C41.6120643,30.7234056 41.6318585,30.7751786 41.6638071,30.8693112 C41.7070997,30.7596811 41.7383537,30.6860969 41.7653248,30.6110204 C42.7179936,27.9529209 43.6769132,25.2971173 44.618701,22.6352296 C44.918045,21.7894133 45.1702765,20.9260332 45.1823151,20.0184566 C45.1860193,19.7415689 45.134508,19.4638776 45.1082315,19.1865306 C45.1000129,19.1004337 45.0916785,19.0143367 45.081955,18.9128571 L47.546045,18.9128571 C47.546045,18.9801276 47.5617878,19.040625 47.5437299,19.0884949 C47.226328,19.9271939 47.4169775,20.7600383 47.6416592,21.5638393 C48.2056206,23.5813776 48.8197042,25.5851403 49.4193183,27.5926913 C49.725955,28.619426 50.0443987,29.642602 50.357865,30.6672704 C50.3665466,30.6957398 50.3781222,30.7234056 50.4081029,30.8058291 C50.5289518,30.4607526 50.6357942,30.1628571 50.7377749,29.8634694 C51.5917042,27.3575893 52.4552412,24.8548087 53.2912283,22.3429592 C53.5102379,21.6847194 53.6467138,20.999273 53.8131704,20.324273 C53.9053119,19.9504974 53.8723215,19.5780995 53.768836,19.2089158 C53.743717,19.119375 53.743717,19.0230612 53.7301736,18.9130867 L56.6337878,18.9130867 C56.6154984,18.9984949 56.6244116,19.0990561 56.5781093,19.1518622 C55.9686559,19.8470663 55.5899035,20.6729082 55.2698392,21.5176913 C54.5982251,23.2905995 53.9599486,25.0760204 53.3229453,26.8614413 C52.5220322,29.1063903 51.7336206,31.3559311 50.9476399,33.6061607 C50.8833955,33.789949 50.796,33.85125 50.6028039,33.8414923 C50.2644502,33.8245026 49.9240129,33.8250765 49.5856592,33.8410332 C49.3997556,33.8498724 49.3181479,33.7906378 49.2638585,33.6125893 C48.6525531,31.6085969 48.0330289,29.6070153 47.4157042,27.6047449 C46.9679614,26.1525765 46.5203344,24.7004082 46.0723601,23.2483546 C46.0512926,23.1802806 46.0262894,23.1133546 45.9850804,22.9935077 C45.8557814,23.3408801 45.7415305,23.6409566 45.6321415,23.9428699 C44.4662508,27.1620918 43.2993183,30.3809694 42.140373,33.6027168 C42.074508,33.7859311 41.9926688,33.8514796 41.796926,33.8413776 C41.4585723,33.8238138 41.1177878,33.8210587 40.7798971,33.8419515 C40.5752412,33.8546939 40.5041672,33.7766327 40.4491833,33.5950255 C39.5283473,30.5563776 38.6070482,27.5178444 37.6719743,24.4834439 C37.2716913,23.1848724 36.8514984,21.891926 36.4162572,20.6044898 C36.2391511,20.080676 35.9751125,19.5919898 35.598328,19.1719515 C35.5472797,19.1150128 35.5405659,19.0191582 35.4985466,18.898852" id="Fill-2"></path>
                                    <path d="M15.1065723,6.73978316 C15.6109196,6.90382653 16.117119,7.02344388 16.5846559,7.22950255 C17.7233441,7.73127551 18.5430096,8.544375 18.7622508,9.80070153 C19.0086945,11.2134949 18.5619936,12.4396301 17.5147524,13.4108036 C16.3922701,14.451773 15.032836,15.0415944 13.4966431,15.0898087 C11.7799871,15.1435332 10.0603215,15.0997959 8.34192926,15.0985332 C8.15741479,15.0984184 7.97278457,15.0985332 7.76210932,15.0985332 C7.76210932,14.9947577 7.73618006,14.900051 7.76616077,14.828074 C8.09108682,14.0471173 8.11400643,13.2167985 8.12766559,12.3971556 C8.16690675,10.0521046 8.18403859,7.7063648 8.17813505,5.36096939 C8.1751254,4.14585459 8.12546624,2.92970663 8.05416077,1.71642857 C8.02881029,1.2852551 7.87624437,0.861543367 7.7832926,0.434043367 C7.76697106,0.358392857 7.75863666,0.281135204 7.73976849,0.161288265 C8.07684887,0.161288265 8.38776849,0.161632653 8.6986881,0.161288265 C10.0215434,0.159910714 11.344746,0.138673469 12.6671383,0.163928571 C13.4988424,0.179885204 14.318045,0.321428571 15.1128232,0.585918367 C17.2679614,1.30293367 17.5148682,3.10947704 17.0107524,4.60010204 C16.8727717,5.00797194 16.6436913,5.35408163 16.3044116,5.63934949 C15.8871125,5.99028061 15.4996785,6.3758801 15.1065723,6.73978316 L15.1065723,6.73978316 Z M10.3061865,13.7246556 C10.5821479,13.7246556 10.845955,13.725574 11.1097621,13.7245408 C12.1078071,13.720523 13.1095563,13.7660969 14.1028553,13.6951531 C14.862328,13.6408546 15.542045,13.3185077 16.056463,12.7106633 C16.8542508,11.7683036 16.7356013,10.2160332 16.2377363,9.32992347 C15.7287588,8.42383929 14.8697363,8.07141582 13.8924116,8.05362245 C13.0341994,8.0380102 12.1728617,8.14477041 11.3141865,8.21399235 C10.9737492,8.24142857 10.6369003,8.31317602 10.3061865,8.36368622 L10.3061865,13.7246556 L10.3061865,13.7246556 Z M10.3097749,1.60966837 L10.3097749,6.74035714 C11.2770289,6.74035714 12.2281929,6.72440051 13.1783151,6.74908163 C13.5085659,6.75769133 13.752926,6.65184949 13.974135,6.43729592 C14.0374534,6.37576531 14.1043601,6.31744898 14.1639743,6.25258929 C14.909672,5.44144133 15.1079614,4.46521684 14.9689389,3.41793367 C14.8071125,2.19799745 14.2595884,1.67096939 13.0244759,1.48890306 C12.1208875,1.35585459 11.2244759,1.48040816 10.3097749,1.60966837 L10.3097749,1.60966837 Z" id="Fill-3"></path>
                                    <path d="M53.0236013,3.86012755 C53.0167717,3.99535714 53.0095949,4.07272959 53.0095949,4.14998724 C53.0092476,6.29655612 52.9969775,8.443125 53.0146881,10.5894643 C53.0246431,11.7979209 53.0908553,13.0059184 53.3744566,14.1888903 C53.4224952,14.3888648 53.5197299,14.5769005 53.5859421,14.7730867 C53.6178907,14.867449 53.6307395,14.9682398 53.6575949,15.0910714 L50.8448489,15.0910714 C50.8541093,14.9938393 50.8380193,14.884324 50.8769132,14.7996046 C51.2281158,14.0340306 51.3186367,13.2116327 51.3782508,12.3919898 C51.4466624,11.4510077 51.4734019,10.5056633 51.4787267,9.56192602 C51.4920386,7.1832398 51.4805788,4.80443878 51.4876399,2.42575255 C51.4882186,2.21866071 51.4382122,2.05771684 51.2923601,1.91215561 C50.8379035,1.45882653 50.3841415,1.00434949 49.9425338,0.538737245 C49.8682186,0.460331633 49.8553698,0.324642857 49.8070997,0.196760204 C49.9051447,0.180229592 49.9512154,0.16565051 49.9974019,0.165535714 C50.8777235,0.164158163 51.758045,0.162206633 52.6382508,0.168635204 C52.7141865,0.169209184 52.8170932,0.207091837 52.8613119,0.263341837 C54.057299,1.78450255 55.2207588,3.33137755 56.4442958,4.83026786 C58.2576077,7.05156888 60.1127074,9.23923469 61.950328,11.4410204 C61.9797299,11.4762628 62.012836,11.5084056 62.0752283,11.5749872 C62.0806688,11.4678827 62.0870354,11.4008418 62.0871511,11.333801 C62.0877299,9.17931122 62.1012733,7.02470663 62.0824051,4.87033163 C62.0716399,3.63765306 61.9913055,2.40658163 61.7036527,1.20042092 C61.6484373,0.968992347 61.5433312,0.749617347 61.4682058,0.522436224 C61.4345209,0.420612245 61.4180836,0.313163265 61.3879871,0.182984694 L64.2471511,0.182984694 C64.2410161,0.278380102 64.2625466,0.383303571 64.2250418,0.459413265 C63.909955,1.09825255 63.8092476,1.79116071 63.7543794,2.48177296 C63.6701093,3.54168367 63.6128103,4.60618622 63.6047074,5.66919643 C63.585955,8.15188776 63.5991511,10.6348087 63.6091061,13.1176148 C63.6113055,13.6692092 63.6550611,14.2206888 63.6763601,14.7722832 C63.6824952,14.9313903 63.6772862,15.0910714 63.6772862,15.2686607 L62.212283,15.2686607 C62.0828682,15.0549107 61.9835498,14.8452934 61.8436013,14.6669005 C60.7137106,13.2263265 59.59609,11.7755357 58.4364502,10.3587245 C56.7167846,8.25772959 54.9657492,6.181875 53.2277942,4.09557398 C53.1733891,4.0302551 53.1164373,3.96700255 53.0236013,3.86012755" id="Fill-4"></path>
                                    <path d="M28.6532219,8.29423469 C29.9449389,10.1933036 31.1154598,12.1429974 32.8986752,13.6069898 C33.450135,14.0597449 34.0524116,14.4525765 34.6401029,14.860676 C34.7794727,14.957449 34.8497363,15.0479082 34.7829453,15.2089668 C33.2356399,15.4003316 31.8390482,15.0737372 30.6280129,14.0585969 C29.7755884,13.3438776 29.0853376,12.4901403 28.4281929,11.6066709 C27.791074,10.7501786 27.1684244,9.8832398 26.5306109,9.02743622 C26.4824566,8.96280612 26.3583666,8.90885204 26.2787267,8.91918367 C25.6388296,9.00195153 25.0014791,9.10343112 24.3627395,9.1940051 C24.2417749,9.21110969 24.1739421,9.24646684 24.1755627,9.38571429 C24.1938521,10.9615179 24.1446559,12.5405357 24.3964244,14.1050893 C24.4290675,14.3082781 24.5095177,14.5036607 24.5632283,14.70375 C24.5888103,14.799375 24.6035113,14.8978699 24.6273569,15.0161097 L21.6527846,15.0161097 C21.6527846,14.9277168 21.6288232,14.8407015 21.656373,14.7749235 C21.9867395,13.9865051 22.0102379,13.1479209 22.0190354,12.3201276 C22.0505209,9.32590561 22.0664952,6.33133929 22.0500579,3.33711735 C22.0455434,2.50128827 21.9143923,1.66545918 21.8281543,0.831007653 C21.8121801,0.676147959 21.729299,0.52875 21.6839228,0.376071429 C21.6604244,0.296862245 21.6513955,0.213405612 21.6215305,0.0567091837 C22.1696334,0.0567091837 22.675717,0.060497449 23.1816849,0.0559056122 C24.2550868,0.0461479592 25.3291833,0.00344387755 26.4016592,0.0278954082 C27.4630225,0.0521173469 28.5019293,0.235102041 29.4824952,0.672015306 C31.1394212,1.41038265 32.0296977,2.94107143 31.808836,4.72798469 C31.7132219,5.50159439 31.3430354,6.16855867 30.8788553,6.78466837 C30.8186624,6.86456633 30.7199228,6.91829082 30.6334534,6.97603316 C29.9854534,7.40892857 29.3361801,7.83998724 28.6532219,8.29423469 L28.6532219,8.29423469 Z M24.1935048,7.74906888 C25.2560257,7.68214286 26.3170418,7.88625 27.3501608,7.54955357 C28.1863794,7.27702806 28.8325273,6.77984694 29.2101222,5.97880102 C29.5977878,5.15605867 29.6634212,4.28326531 29.5473183,3.3973852 C29.4102637,2.3511352 28.7719871,1.74283163 27.7605145,1.50153061 C26.5761029,1.21901786 25.3920386,1.34380102 24.1935048,1.51438776 L24.1935048,7.74906888 L24.1935048,7.74906888 Z" id="Fill-5"></path>
                                    <path d="M58.8226109,33.7426531 C58.8288617,33.6450765 58.8161286,33.5677041 58.8406688,33.5045663 C59.2253248,32.5182398 59.2120129,31.4770408 59.2277556,30.4500765 C59.2634084,28.120523 59.2709325,25.7899362 59.2519486,23.4600383 C59.2424566,22.3015179 59.1624695,21.1427679 59.0852605,19.9859694 C59.0650032,19.6821046 58.9445016,19.3828316 58.854328,19.086199 C58.7907781,18.8773852 58.8176334,18.8152806 59.0232154,18.8110332 C60.3544051,18.7835969 61.6855949,18.7375638 63.0169003,18.7356122 C64.2493505,18.7337755 65.4649003,18.8738265 66.6107653,19.3734184 C68.2459293,20.0864158 69.1267138,21.4832526 69.0179035,23.2505357 C68.9644244,24.1172449 68.5582379,24.856875 68.0420836,25.538648 C67.9865209,25.6118878 67.8905595,25.6564286 67.8103408,25.7098087 C67.1674341,26.1370791 66.523717,26.5633163 65.8707395,26.9962117 C65.8870611,27.0384566 65.8950482,27.0770281 65.9149582,27.1079082 C66.8646174,28.5772959 67.824463,30.0400255 69.0187138,31.3319388 C69.8312026,32.2110459 70.7661608,32.9445918 71.7899035,33.5672449 C71.9348296,33.6554082 72.0356527,33.7454082 71.9561286,33.940102 C70.6308424,34.0841709 69.3805659,33.9025638 68.2562315,33.114375 C67.2652476,32.4196301 66.5018392,31.5130867 65.7865852,30.561199 C65.0970289,29.6436352 64.4229839,28.7145918 63.7497492,27.7852041 C63.6622379,27.6644388 63.5783151,27.619898 63.4313055,27.6428571 C62.7545981,27.7485842 62.0766174,27.8460459 61.3628682,27.9518878 C61.4073183,29.8868878 61.2457235,31.8299235 61.8065595,33.7426531 L58.8226109,33.7426531 L58.8226109,33.7426531 Z M61.3889132,20.238176 L61.3889132,26.4617219 C62.1430611,26.4617219 62.8803087,26.5053444 63.6104952,26.4527679 C65.1790997,26.3398087 66.2394212,25.4906633 66.6169003,24.0979592 C66.7772219,23.5066454 66.8219035,22.9030485 66.7570804,22.2904974 C66.6403987,21.1875383 66.0780579,20.5198852 64.9931961,20.2418495 C63.7933891,19.9343112 62.5919614,20.0683929 61.3889132,20.238176 L61.3889132,20.238176 Z" id="Fill-6"></path>
                                    <path d="M20.2132476,33.8220918 C20.2491318,33.7182015 20.2542251,33.6146556 20.3088617,33.5586352 C20.9532733,32.8967219 21.3937235,32.1004974 21.7595113,31.2740816 C23.0417363,28.3764031 24.2949068,25.4659821 25.5550225,22.5585459 C26.0609904,21.3910714 26.558508,20.2200383 27.0529003,19.0476276 C27.108926,18.9146939 27.179537,18.8691199 27.3214534,18.8711862 C27.8219807,18.878648 28.3230868,18.8853061 28.8231511,18.8685459 C29.0313955,18.8616582 29.1153183,18.943852 29.1870868,19.1231633 C30.6071768,22.673801 32.0224051,26.2263903 33.464836,29.768074 C33.8534277,30.7222577 34.3093891,31.651301 34.7733376,32.5726531 C34.9468553,32.9171556 35.2348553,33.2041454 35.4623151,33.5232781 C35.5185723,33.6022577 35.5423023,33.703852 35.5924244,33.821977 L32.0233312,33.821977 C32.0193955,33.7604464 32.0006431,33.7076403 32.0159228,33.6674617 C32.2822765,32.9665179 32.102045,32.2792347 31.8845402,31.6236352 C31.4719871,30.379477 30.9976206,29.1554082 30.5395756,27.9265179 C30.5156141,27.8620026 30.4051833,27.7878444 30.3346881,27.7875 C28.5662894,27.7799235 26.7977749,27.7801531 25.0292605,27.7870408 C24.9633955,27.7873852 24.8624566,27.8536224 24.8373376,27.9136607 C24.2112154,29.4115179 23.5324244,30.8928444 23.1798328,32.485523 C23.1008875,32.8420791 23.1511254,33.2267602 23.1439486,33.5985842 C23.1425595,33.6676913 23.1508939,33.7370281 23.1557556,33.8220918 L20.2132476,33.8220918 L20.2132476,33.8220918 Z M27.7663023,21.0914541 C26.9877299,22.8920281 26.2270997,24.6508163 25.4640386,26.4154592 L29.9360257,26.4154592 C29.210701,24.6358929 28.4966045,22.8834184 27.7663023,21.0914541 L27.7663023,21.0914541 Z" id="Fill-7"></path>
                                    <path d="M41.5230482,8.06154337 C41.8956656,7.40307398 42.2629582,6.77353316 42.6117299,6.13389031 C43.3401801,4.7980102 44.069209,3.4621301 44.7764759,2.11522959 C45.0693376,1.55778061 45.2807074,0.967614796 45.0968875,0.317066327 C45.0868167,0.28125 45.1019807,0.238431122 45.1069582,0.181721939 L48.1726302,0.181721939 C48.1348939,0.282053571 48.1278328,0.389502551 48.0700707,0.441619898 C47.1465723,1.27331633 46.5185981,2.32255102 45.904283,3.37396684 C44.7033183,5.42904337 43.5312926,7.5008801 42.3513955,9.5680102 C42.2982637,9.66122449 42.2534662,9.77762755 42.2571704,9.88140306 C42.3054405,11.2160204 42.3522058,12.5507526 42.4269839,13.8839923 C42.4441158,14.1890051 42.5677428,14.4878189 42.6382379,14.7903061 C42.659537,14.8816837 42.6669453,14.9762755 42.6839614,15.0911862 L39.7194598,15.0911862 C39.7194598,15.0147321 39.6935305,14.9208291 39.7235113,14.8503444 C40.042418,14.1015306 40.042881,13.3026658 40.0847846,12.5151658 C40.1303923,11.6605102 40.1284244,10.8033291 40.140926,9.94706633 C40.1423151,9.84799745 40.1285402,9.73343112 40.0793441,9.65112245 C38.6874984,7.32639031 37.301209,4.99821429 35.8879486,2.68645408 C35.3820965,1.8590051 34.8227653,1.06140306 34.0597042,0.431403061 C34.0054148,0.386517857 33.9984695,0.285038265 33.9583023,0.180688776 L37.671164,0.180688776 C37.6635241,0.28067602 37.6730161,0.377563776 37.6467395,0.463660714 C37.5358457,0.827908163 37.5674469,1.17952806 37.7445531,1.51105867 C38.397299,2.73248724 39.0354598,3.96218112 39.7206174,5.16558673 C40.2358457,6.07052296 40.8143923,6.94010204 41.3652733,7.82494898 C41.4111125,7.89853316 41.4614662,7.96947704 41.5230482,8.06154337" id="Fill-8"></path>
                                    <path d="M19.6459293,42.2698087 C19.6458135,40.9316327 20.4064437,39.8791837 21.6024309,39.5628061 C23.2585466,39.1247449 24.6691447,40.0948852 24.8415048,41.7907653 C24.9846945,43.198852 24.2474469,44.4065051 22.9948553,44.8158673 C21.306328,45.3678061 19.7001029,44.2502679 19.6463923,42.4858546 C19.6441929,42.4139923 19.6461608,42.3419005 19.6459293,42.2698087 L19.6459293,42.2698087 Z M24.0315627,42.2454719 C24.0523987,42.2405357 24.073119,42.2354847 24.093955,42.2305485 C23.991164,41.8152168 23.9298135,41.3840434 23.7758585,40.9883418 C23.5294148,40.3546684 23.0376849,39.9811224 22.3387524,39.9557526 C21.6501222,39.9308418 21.1045659,40.2353954 20.7898264,40.8362372 C20.2825852,41.8041964 20.3271511,42.7937372 20.9047717,43.712449 C21.528463,44.7046301 22.8986624,44.7234566 23.6032669,43.7860332 C23.9463666,43.3296046 24.0463794,42.8021173 24.0315627,42.2454719 L24.0315627,42.2454719 Z" id="Fill-9"></path>
                                    <path d="M44.6397685,41.7092602 L44.6397685,42.5416454 C43.782135,42.3073469 42.9188296,42.4197321 42.0474212,42.3880485 L42.0474212,44.3223597 C42.9618907,44.3012372 43.8725402,44.3875638 44.7836527,44.1355867 L44.7836527,44.87625 L41.173582,44.87625 C41.334135,43.0676403 41.3370289,41.3260714 41.1790225,39.5758929 C42.3491961,39.5026531 43.570418,39.6712883 44.7899035,39.4529464 L44.7899035,40.2520408 C43.889209,40.0043112 42.978328,40.1091199 42.0535563,40.0808801 L42.0535563,41.8714668 C42.9080643,41.8513776 43.775074,41.9336862 44.6397685,41.7092602" id="Fill-10"></path>
                                    <path d="M55.8171318,44.876824 C55.989955,43.0684439 55.9884502,41.3267602 55.8268553,39.5754337 C56.9930932,39.5066709 58.2054019,39.6631378 59.4284759,39.4602934 L59.4284759,40.2496301 C58.5313698,40.0047704 57.61609,40.105676 56.6906238,40.0846684 L56.6906238,41.8976403 C57.5452476,41.860676 58.3985981,41.8237117 59.2710482,41.7858291 L59.2710482,42.5352168 C58.4276527,42.3099872 57.5667781,42.4191582 56.6936334,42.3867857 L56.6936334,44.3217857 C57.6038199,44.3003189 58.5137749,44.3885969 59.4294019,44.1351276 L59.4294019,44.876824 L55.8171318,44.876824" id="Fill-11"></path>
                                    <path d="M52.2031254,39.7689796 L52.2031254,40.6129592 C52.1075113,40.5592347 52.035164,40.5228444 51.9670997,40.4796811 C51.2553183,40.028074 50.477209,39.9783673 49.6854405,40.1637628 C49.2365402,40.2689158 48.981299,40.6348852 48.8325531,41.0482653 C48.5865723,41.7311862 48.5657363,42.4294898 48.8056977,43.1179209 C49.1523859,44.1122832 50.0354855,44.58375 51.0662894,44.346352 C51.6308296,44.2162883 51.644373,44.2158291 51.6242315,43.6428827 C51.6080257,43.1835842 51.5538521,42.7255485 51.5151897,42.2506378 L52.4489904,42.2506378 C52.4258392,42.9535332 52.3982894,43.6447194 52.3838199,44.3361352 C52.3808103,44.4850255 52.3346238,44.5424235 52.1862251,44.5721556 C51.768,44.6558418 51.3488489,44.741824 50.9387267,44.8574235 C49.7147267,45.2025 48.3464952,44.4478316 47.9452862,43.1118367 C47.3881543,41.2565051 48.7377492,39.4777423 50.6962186,39.4739541 C51.2181608,39.4729209 51.7208875,39.5545408 52.2031254,39.7689796" id="Fill-12"></path>
                                    <path d="M16.8350354,40.6143367 C16.7467138,40.5668112 16.6967074,40.5456888 16.6531833,40.5156122 C15.9706881,40.0435714 15.2117942,39.9831888 14.4310225,40.1532015 C14.2282186,40.197398 14.0192797,40.3504209 13.8772476,40.5096429 C13.1122186,41.3665944 13.0965916,43.3659949 14.4604244,44.071301 C15.1438457,44.4246429 15.8484502,44.4618367 16.5340707,44.0419133 C16.6266752,43.9852041 16.7246045,43.9373342 16.8753183,43.8552551 C16.8753183,44.0735969 16.8813376,44.2376403 16.8711511,44.4006505 C16.8684887,44.4438138 16.8251961,44.5039668 16.7847974,44.5225638 C15.9736977,44.8945026 15.145582,45.0959694 14.2592412,44.7829209 C12.8014148,44.2678316 12.1308424,42.6084566 12.8080129,41.1355102 C13.5428296,39.5370918 15.2576334,39.1487372 16.7178907,39.7207653 C16.7718328,39.7418878 16.8260064,39.8342985 16.8298264,39.8964031 C16.843254,40.1191071 16.8350354,40.343074 16.8350354,40.6143367" id="Fill-13"></path>
                                    <path d="M31.618418,44.882449 L27.956836,44.882449 C27.956836,44.7776403 27.9398199,44.7233418 27.9594984,44.690625 C28.172836,44.3355612 28.1682058,43.9383673 28.1677428,43.5500128 C28.1663537,42.3979209 28.1500322,41.2458291 28.1300064,40.0939668 C28.1269968,39.9221173 28.0725916,39.7511862 28.0398328,39.5672832 L29.0465595,39.5672832 C28.835074,41.1402168 28.9696977,42.7152168 28.9172605,44.3196046 C29.8310354,44.308699 30.7225852,44.376773 31.618418,44.1297321 L31.618418,44.882449" id="Fill-14"></path>
                                    <path d="M34.5261994,44.8782015 C34.8628167,43.2166454 34.7152283,41.6219005 34.6704309,40.0314031 C34.6662637,39.8832015 34.6154469,39.736148 34.5830354,39.5719898 L35.5964759,39.5719898 C35.3701736,41.1432015 35.542418,42.7225638 35.4720386,44.3213265 C36.3918328,44.3065179 37.2774791,44.3758546 38.1634727,44.1307653 L38.1634727,44.8782015 L34.5261994,44.8782015" id="Fill-15"></path>
                                </g>
                            </g>
                        </g>
                    </g>
                </g>
            </g>
        </g>
    </g>
</svg>