<?xml version="1.0" encoding="UTF-8"?>
<svg width="200px" height="200px" viewBox="0 0 200 200" version="1.1" xmlns="http://www.w3.org/2000/svg" xmlns:xlink="http://www.w3.org/1999/xlink">
    <!-- Generator: Sketch 40.3 (33839) - http://www.bohemiancoding.com/sketch -->
    <title>Artboard</title>
    <desc>Created with Sketch.</desc>
    <defs></defs>
    <g id="Page-1" stroke="none" stroke-width="1" fill="none" fill-rule="evenodd">
        <g id="Artboard">
            <circle id="Oval" fill="#868686" cx="100" cy="100" r="100"></circle>
            <g id="calendar-icon" transform="translate(40.000000, 40.000000)" fill="#FFFFFF">
                <g id="Artboard">
                    <g id="Page-1">
                        <g id="Artboard">
                            <path d="M110.0025,11.25 L93.75,11.25 L93.75,3.75 C93.75,1.67625 92.07375,0 90,0 C87.92625,0 86.25,1.67625 86.25,3.75 L86.25,11.25 L63.75,11.25 L63.75,3.75 C63.75,1.67625 62.07,0 60,0 C57.93,0 56.25,1.67625 56.25,3.75 L56.25,11.25 L33.75,11.25 L33.75,3.75 C33.75,1.67625 32.07,0 30,0 C27.93,0 26.25,1.67625 26.25,3.75 L26.25,11.25 L10.00125,11.25 C4.4775,11.25 0,15.72375 0,21.2475 L0,109.99875 C0,115.5225 4.4775,120 10.00125,120 L110.0025,120 C115.52625,120 120,115.5225 120,109.99875 L120,21.2475 C120,15.72375 115.52625,11.25 110.0025,11.25 L110.0025,11.25 L110.0025,11.25 Z M112.5,109.99875 C112.5,111.37875 111.37875,112.5 110.0025,112.5 L10.00125,112.5 C8.62125,112.5 7.5,111.37875 7.5,109.99875 L7.5,21.2475 C7.5,19.87125 8.62125,18.75 10.00125,18.75 L26.25,18.75 L26.25,26.25 C26.25,28.32375 27.93,30 30,30 C32.07,30 33.75,28.32375 33.75,26.25 L33.75,18.75 L56.25,18.75 L56.25,26.25 C56.25,28.32375 57.93,30 60,30 C62.07,30 63.75,28.32375 63.75,26.25 L63.75,18.75 L86.25,18.75 L86.25,26.25 C86.25,28.32375 87.92625,30 90,30 C92.07375,30 93.75,28.32375 93.75,26.25 L93.75,18.75 L110.0025,18.75 C111.37875,18.75 112.5,19.87125 112.5,21.2475 L112.5,109.99875 L112.5,109.99875 L112.5,109.99875 Z" id="path4"></path>
                            <rect id="rect6" x="26.25" y="45" width="15" height="11.25"></rect>
                            <rect id="rect8" x="26.25" y="63.75" width="15" height="11.25"></rect>
                            <rect id="rect10" x="26.25" y="82.5" width="15" height="11.25"></rect>
                            <rect id="rect12" x="52.5" y="82.5" width="15" height="11.25"></rect>
                            <rect id="rect14" x="52.5" y="63.75" width="15" height="11.25"></rect>
                            <rect id="rect16" x="52.5" y="45" width="15" height="11.25"></rect>
                            <rect id="rect18" x="78.75" y="82.5" width="15" height="11.25"></rect>
                            <rect id="rect20" x="78.75" y="63.75" width="15" height="11.25"></rect>
                            <rect id="rect22" x="78.75" y="45" width="15" height="11.25"></rect>
                        </g>
                    </g>
                </g>
            </g>
        </g>
    </g>
</svg>