<svg width="90" height="90" xmlns="http://www.w3.org/2000/svg" preserveAspectRatio="xMinYMin meet">
 <!-- Created with Method Draw - http://github.com/duopixel/Method-Draw/ -->

 <g>
  <title>background</title>
  <rect x="-1" y="-1" width="92" height="92" id="canvas_background" fill="none"/>
 </g>
 <g>
  <title>Layer 1</title>
  <metadata id="svg_30">image/svg+xml</metadata>
  <g class="currentLayer" id="svg_18" transform="matrix(2.73109, 0, 0, 2.76922, -73.1222, -75.3993)">
   <title>Layer 1</title>
   <g id="svg_19" opacity="0.82">
    <path d="m56.584663,30.296751l-4.334,0l0,-2c0,-0.553001 -0.447006,-1 -1,-1c-0.553001,0 -1,0.446999 -1,1l0,2l-6,0l0,-2c0,-0.553001 -0.448006,-1 -1,-1c-0.552002,0 -1,0.446999 -1,1l0,2l-6,0l0,-2c0,-0.553001 -0.447998,-1 -1,-1c-0.551994,0 -1,0.446999 -1,1l0,2l-4.332994,0c-1.473,0 -2.667,1.193001 -2.667,2.666002l0,23.667c0,1.473003 1.194,2.667004 2.667,2.667004l26.666994,0c1.472992,0 2.666,-1.194 2.666,-2.667004l0,-23.667c0,-1.473001 -1.193008,-2.666002 -2.666,-2.666002zm0.666,26.333002c0,0.368 -0.299004,0.667 -0.666,0.667l-26.666994,0c-0.368,0 -0.667,-0.299 -0.667,-0.667l0,-23.667c0,-0.367001 0.299,-0.666 0.667,-0.666l4.332994,0l0,2c0,0.553001 0.448006,1 1,1c0.552002,0 1,-0.446999 1,-1l0,-2l6,0l0,2c0,0.553001 0.447998,1 1,1c0.551994,0 1,-0.446999 1,-1l0,-2l6,0l0,2c0,0.553001 0.446999,1 1,1c0.552994,0 1,-0.446999 1,-1l0,-2l4.334,0c0.366997,0 0.666,0.299 0.666,0.666l0,23.667z" id="svg_29" fill="#757575"/>
    <rect height="3" width="4" x="34.250667" y="39.296752" id="svg_28" fill="#757575"/>
    <rect height="3" width="4" x="34.250667" y="44.296752" id="svg_27" fill="#757575"/>
    <rect height="3" width="4" x="34.250667" y="49.296752" id="svg_26" fill="#757575"/>
    <rect height="3" width="4" x="41.250667" y="49.296752" id="svg_25" fill="#757575"/>
    <rect height="3" width="4" x="41.250667" y="44.296752" id="svg_24" fill="#757575"/>
    <rect height="3" width="4" x="41.250667" y="39.296752" id="svg_23" fill="#757575"/>
    <rect height="3" width="4" x="48.250667" y="49.296752" id="svg_22" fill="#757575"/>
    <rect height="3" width="4" x="48.250667" y="44.296752" id="svg_21" fill="#757575"/>
    <rect height="3" width="4" x="48.250667" y="39.296752" id="svg_20" fill="#757575"/>
   </g>
  </g>
 </g>
</svg>