<?xml version="1.0" encoding="UTF-8" standalone="no"?>
<svg
   width="300"
   height="90"
   viewBox="0 0 300 90"
   version="1.1"
   id="svg2756"
   sodipodi:docname="calpoly.svg"
   inkscape:version="1.1.1 (3bf5ae0d25, 2021-09-20)"
   xmlns:inkscape="http://www.inkscape.org/namespaces/inkscape"
   xmlns:sodipodi="http://sodipodi.sourceforge.net/DTD/sodipodi-0.dtd"
   xmlns="http://www.w3.org/2000/svg"
   xmlns:svg="http://www.w3.org/2000/svg"
   xmlns:rdf="http://www.w3.org/1999/02/22-rdf-syntax-ns#"
   xmlns:cc="http://creativecommons.org/ns#"
   xmlns:dc="http://purl.org/dc/elements/1.1/"
   xmlns:sketch="http://www.bohemiancoding.com/sketch/ns">
  <sodipodi:namedview
     id="namedview2758"
     pagecolor="#ffffff"
     bordercolor="#666666"
     borderopacity="1.0"
     inkscape:pageshadow="2"
     inkscape:pageopacity="0.0"
     inkscape:pagecheckerboard="0"
     showgrid="false"
     inkscape:zoom="2.5414232"
     inkscape:cx="145.9812"
     inkscape:cy="-30.888205"
     inkscape:window-width="1866"
     inkscape:window-height="1016"
     inkscape:window-x="54"
     inkscape:window-y="27"
     inkscape:window-maximized="1"
     inkscape:current-layer="svg2756" />
  <!-- Generator: Sketch 3.3.3 (12072) - http://www.bohemiancoding.com/sketch -->
  <title
     id="title2720">Imported Layers</title>
  <desc
     id="desc2722">Created with Sketch.</desc>
  <defs
     id="defs2724" />
  <g
     id="Page-1"
     stroke="none"
     stroke-width="1"
     fill="none"
     fill-rule="evenodd"
     sketch:type="MSPage"
     transform="matrix(1.9968218,0,0,1.9968218,2.1767692,-0.65316612)">
    <g
       id="Home---Desktop-Copy-2"
       sketch:type="MSArtboardGroup"
       transform="translate(-155,-2148)"
       fill="#b1b1b1">
      <g
         id="Group-+-Currently-in-use-at"
         sketch:type="MSLayerGroup"
         transform="translate(110,1814)">
        <g
           id="Group"
           sketch:type="MSShapeGroup">
          <g
             id="Row-3-+-Row-1-+-Row-2">
            <g
               transform="translate(0,93)"
               id="g2749">
              <g
                 id="Row-3"
                 transform="translate(46.079694,221.40588)">
                <g
                   id="Imported-Layers"
                   transform="translate(-1,20)">
                  <path
                     d="m 75.32731,11.976161 c 5.63e-4,2.657399 -0.0047,5.314797 0.0049,7.972196 0.0019,0.52659 0.03827,1.055437 0.09641,1.579206 0.133932,1.208712 0.728933,1.807896 1.929815,1.951204 0.598941,0.07146 1.20107,0.133716 1.803199,0.153275 0.392791,0.01279 0.510591,0.183178 0.494272,0.544832 -0.01857,0.408484 -0.220594,0.493867 -0.604381,0.486908 -2.479047,-0.04532 -4.958469,-0.07353 -7.437891,-0.08802 -0.820471,-0.0047 -1.642256,0.03423 -2.461789,0.07993 -0.352087,0.01956 -0.598191,-0.0064 -0.636644,-0.443464 -0.03827,-0.434813 0.169571,-0.565896 0.553546,-0.603886 0.491833,-0.04871 0.980852,-0.129955 1.469496,-0.208003 0.816157,-0.130331 1.258656,-0.653912 1.364263,-1.436462 0.09735,-0.721052 0.157192,-1.452824 0.159255,-2.180082 0.01275,-4.599952 0.01238,-9.199716 -0.0026,-13.799479 -0.003,-0.9454171 -0.03977,-1.8957239 -0.146312,-2.8339944 C 71.821267,2.3435135 71.395088,2.0081885 70.581369,1.9139665 70.18145,1.8677018 69.782281,1.8139144 69.3818,1.7757366 69.094803,1.7482787 68.920918,1.6433369 68.931985,1.3155346 c 0.01069,-0.31727045 0.187204,-0.44365204 0.467072,-0.46640825 0.818408,-0.0671402 1.637004,-0.17941673 2.4556,-0.18073321 2.416207,-0.004137 4.837855,-0.0577368 7.246747,0.0874515 2.257329,0.13597306 4.43231,0.68795216 6.290469,2.12065316 2.773922,2.1387076 3.532492,5.9203759 1.676583,8.6718082 -1.291858,1.915283 -3.153769,2.971284 -5.421227,3.208438 -1.363888,0.142555 -2.74841,0.09366 -4.123929,0.104754 -0.148937,0.0011 -0.418864,-0.162115 -0.425804,-0.263295 -0.01857,-0.272134 0.159254,-0.412433 0.469323,-0.44384 0.997546,-0.100993 2.01929,-0.135033 2.980821,-0.388549 2.291093,-0.603885 3.505105,-2.206788 3.820238,-4.5251001 0.14106,-1.0386988 0.132244,-2.078714 -0.112922,-3.1027435 C 83.693343,3.7914479 82.142626,2.4460105 79.838966,2.0395958 78.742002,1.846074 77.59233,1.8934671 76.46948,1.9276955 c -0.815031,0.024637 -1.138043,0.4583213 -1.140669,1.2839392 -0.0051,1.460723 -0.0021,2.921446 -0.0021,4.382357 -1.88e-4,1.460723 0,2.9214463 5.62e-4,4.3821693"
                     id="Fill-1" />
                  <path
                     d="m 21.109977,1.5750682 c 0.09041,1.0986924 0.185141,2.2254069 0.274804,3.3524976 0.04183,0.5264019 0.05909,1.0550606 0.115924,1.5795818 0.03358,0.3112523 -0.06396,0.4842747 -0.379473,0.4921736 -0.292624,0.00715 -0.592938,0.034416 -0.6796,-0.376888 C 20.342778,6.1530159 20.236796,5.6807775 20.078667,5.2290385 19.320284,3.0604281 17.716857,1.9177279 15.517115,1.5485507 9.6745856,0.56815298 5.293673,4.165891 4.2876857,9.6241842 3.5994575,13.357519 4.2578606,16.84016 6.6031635,19.884414 c 1.8667883,2.423442 4.3103825,3.862725 7.4367655,3.855767 3.25131,-0.0071 5.68984,-1.382487 7.057668,-4.437837 0.179513,-0.401337 0.649962,-0.532608 0.984978,-0.25991 0.0891,0.07278 0.137496,0.274955 0.11161,0.39814 -0.31926,1.524666 -0.804152,2.991595 -1.539838,4.371073 -0.152502,0.285863 -0.360152,0.414313 -0.672096,0.494994 -2.6051,0.673471 -5.256345,0.841604 -7.928598,0.722369 C 8.7747681,24.882881 5.8175818,23.878035 3.4379518,21.523613 1.4886286,19.595354 0.47795184,17.184512 0.13299366,14.496082 -0.27836755,11.290653 0.32469962,8.2836366 2.2837769,5.6768281 4.5651153,2.6412249 7.6432902,0.86887347 11.389435,0.25107058 c 2.843138,-0.46885315 5.577292,-0.0157977 8.267554,0.89764782 0.465571,0.1581651 0.944273,0.2781524 1.452988,0.4263498"
                     id="Fill-2" />
                  <path
                     d="m 99.828532,25.181345 c -2.227315,-0.0077 -4.349211,-0.455124 -6.230256,-1.693739 -2.955685,-1.946314 -4.297439,-4.77918 -4.22766,-8.269156 0.107108,-5.3514702 3.861318,-9.3212064 9.209014,-9.8451634 2.10239,-0.2061224 4.14888,0.00188 6.09351,0.8519473 2.68238,1.172415 4.42518,3.2029836 5.16181,6.0345331 0.82291,3.163301 0.45094,6.178217 -1.48976,8.872477 -1.788,2.482496 -4.3207,3.681992 -7.30977,3.997194 -0.32301,0.03404 -0.64959,0.03611 -0.97448,0.05134 -0.07728,0.0036 -0.154938,5.64e-4 -0.232408,5.64e-4 z m 6.943998,-9.283029 c -0.039,-0.0075 -0.078,-0.01486 -0.11705,-0.02238 -0.0311,-2.406516 -0.50609,-4.690036 -1.93469,-6.684684 -2.89022,-4.0351838 -8.852055,-3.4595081 -10.928932,1.046974 -0.526722,1.142888 -0.765511,2.355926 -0.834727,3.603944 -0.133557,2.403883 0.227346,4.714673 1.465556,6.813134 1.464056,2.480991 3.67674,3.61015 6.521943,3.262225 2.73565,-0.334385 4.43493,-2.01101 5.19782,-4.604841 0.32489,-1.104147 0.42693,-2.274305 0.63008,-3.414372 z"
                     id="Fill-3" />
                  <path
                     d="m 39.943305,24.674126 c -1.362575,0 -2.72515,-0.01 -4.087538,0.007 -0.352837,0.0043 -0.572492,-0.07842 -0.600066,-0.462647 -0.02551,-0.355636 0.109921,-0.548593 0.487706,-0.58395 0.337267,-0.03141 0.672096,-0.105694 1.003549,-0.181486 0.402732,-0.09215 0.563112,-0.354696 0.471574,-0.761298 -0.03058,-0.135973 -0.06509,-0.272135 -0.112548,-0.402654 -0.439873,-1.2089 -0.894377,-2.412722 -1.319807,-3.6267 -0.184015,-0.52565 -0.51997,-0.783867 -1.068451,-0.784055 -1.564786,-5.64e-4 -3.129572,-0.0053 -4.694358,-0.0032 -0.454317,7.52e-4 -0.821222,0.162114 -0.983478,0.626454 -0.449627,1.286948 -0.918575,2.567878 -1.333313,3.866299 -0.225282,0.705442 -0.0664,0.91401 0.656903,1.078945 0.301252,0.06883 0.605881,0.127134 0.911822,0.17039 0.375534,0.05322 0.492771,0.294326 0.456756,0.625701 -0.03601,0.332504 -0.230723,0.452492 -0.578119,0.438763 -1.284355,-0.05116 -2.569648,-0.08858 -3.854753,-0.09874 -0.664781,-0.0053 -1.330687,0.05059 -1.995093,0.0929 -0.301627,0.01937 -0.480578,-0.08745 -0.506839,-0.397575 -0.02457,-0.292634 -0.01576,-0.57135 0.356963,-0.649022 0.242165,-0.05021 0.481704,-0.114533 0.724806,-0.158729 1.03994,-0.189009 1.788006,-0.761675 2.20143,-1.733422 0.460695,-1.082894 0.909947,-2.171995 1.32581,-3.272944 1.2429,-3.290812 2.476796,-6.585008 3.692309,-9.8861633 C 31.435463,7.6630126 31.370935,7.5721759 30.475245,7.1958521 30.2207,7.0888415 29.948897,7.0145547 29.67822,6.9566298 29.279052,6.871247 29.214525,6.5872645 29.234783,6.2551367 c 0.02176,-0.3554482 0.211402,-0.5068428 0.580558,-0.5000724 1.422976,0.025953 2.84689,0.013353 4.268553,0.066764 0.180263,0.00677 0.434808,0.288308 0.508152,0.4948065 0.321135,0.9046064 0.554109,1.8408081 0.880872,2.7431577 1.351133,3.7299495 2.7244,7.4520005 4.090352,11.1766845 0.138809,0.378204 0.307442,0.747381 0.41999,1.133109 0.392415,1.345437 1.275351,2.077961 2.663625,2.221833 0.308943,0.03197 0.637019,0.0914 0.630453,0.525462 -0.0054,0.359962 -0.122114,0.593166 -0.548481,0.567589 -0.927579,-0.05529 -1.856472,-0.08858 -2.784614,-0.130896 -3.75e-4,0.04025 -7.5e-4,0.0803 -9.38e-4,0.120552 z M 32.348973,9.5540349 c -0.146687,0.1954025 -0.232035,0.2696893 -0.268238,0.363159 -0.738874,1.9077601 -1.487503,3.8121351 -2.196365,5.7309921 -0.188892,0.511356 0.03358,0.821292 0.589749,0.855332 0.880122,0.05379 1.76437,0.04815 2.64693,0.05172 0.416989,0.0017 0.834915,-0.02257 1.250966,-0.05567 0.335392,-0.02652 0.452629,-0.234333 0.377597,-0.553484 -0.04239,-0.180733 -0.08516,-0.363347 -0.14875,-0.53731 -0.595377,-1.6313 -1.190941,-3.262413 -1.797197,-4.889576 C 32.692619,10.2213 32.533176,9.9414547 32.348973,9.5540349 Z"
                     id="Fill-4" />
                  <path
                     d="m 138.7167,15.442815 c 0.47983,-0.822232 0.9454,-1.585223 1.37702,-2.36721 0.85443,-1.548174 1.70435,-3.0991697 2.52895,-4.66333 0.58506,-1.1099765 0.47795,-1.3003012 -0.73513,-1.5126298 -0.13712,-0.024073 -0.27668,-0.034228 -0.41511,-0.049462 -0.32864,-0.036109 -0.46238,-0.2546439 -0.43931,-0.5480297 0.0236,-0.3005324 0.15832,-0.5203838 0.52653,-0.518127 1.95008,0.011284 3.90015,0.015798 5.85023,0.0094 0.29937,-9.403e-4 0.4348,0.1410509 0.46313,0.4022772 0.0306,0.2804091 0.0551,0.5779325 -0.33127,0.6586136 -0.25754,0.053787 -0.51134,0.1365372 -0.77132,0.1645594 -0.99098,0.1068225 -1.68071,0.6433801 -2.18811,1.4725712 -1.44136,2.3557371 -2.89229,4.7054571 -4.33327,7.0611951 -0.53179,0.869626 -0.7732,1.815231 -0.737,2.841329 0.043,1.210405 0.0304,2.422878 0.0835,3.632719 0.04,0.911377 0.429,1.306131 1.33069,1.448874 0.45844,0.07241 0.91876,0.14895 1.38096,0.176784 0.44512,0.02689 0.48827,0.296207 0.46688,0.637926 -0.0231,0.367297 -0.23616,0.4303 -0.57061,0.428983 -2.86546,-0.01204 -5.73111,-0.01373 -8.59676,0.0043 -0.37066,0.0023 -0.52372,-0.14989 -0.54585,-0.46923 -0.0218,-0.315389 0.0414,-0.575863 0.45863,-0.602569 0.47776,-0.03047 0.95346,-0.107387 1.42729,-0.182238 0.84992,-0.134656 1.27516,-0.521324 1.30649,-1.374776 0.0514,-1.395463 0.0703,-2.796757 -0.007,-4.189587 -0.0302,-0.547466 -0.29412,-1.110541 -0.5558,-1.61193 -1.30667,-2.502619 -2.67638,-4.972514 -3.96523,-7.4841595 -0.62652,-1.2205603 -1.59349,-1.8133502 -2.90354,-1.9275074 -0.429,-0.037426 -0.57212,-0.2599097 -0.51903,-0.646013 0.0535,-0.3900528 0.29768,-0.4468493 0.66853,-0.4428998 2.24495,0.023885 4.49046,0.02633 6.73559,0.00188 0.38717,-0.00414 0.65128,0.048145 0.70755,0.457193 0.0565,0.4113044 -0.18383,0.5538598 -0.56217,0.6330364 -1.22865,0.2570887 -1.36764,0.5230167 -0.79553,1.6414562 1.12304,2.1951281 2.27872,4.3737061 3.42295,6.5581141 0.0551,0.105318 0.13112,0.199728 0.23672,0.358457"
                     id="Fill-5" />
                  <path
                     d="M 1.7945703,32.46935 V 31.910036 H 146.3418 V 32.46935 H 1.7945703"
                     id="Fill-6" />
                  <path
                     d="m 52.18435,24.526681 c -2.307787,0.04777 -4.615574,0.09159 -6.923361,0.147257 -0.332203,0.0079 -0.577182,-0.02558 -0.613572,-0.435753 -0.03658,-0.411117 0.13712,-0.596364 0.5331,-0.647894 0.413612,-0.0536 0.824411,-0.134281 1.233146,-0.219287 0.672096,-0.139923 1.049693,-0.564204 1.131478,-1.243505 0.04446,-0.369553 0.0906,-0.74174 0.09135,-1.112797 0.0071,-3.868556 0.0075,-7.7373 0.0021,-11.6058555 C 47.637992,9.0533983 47.599539,8.6956932 47.550768,8.343066 47.444223,7.5719878 47.122712,7.2240623 46.35964,7.0529205 45.982793,6.96829 45.600507,6.8987049 45.217095,6.8543209 44.83162,6.8095607 44.623032,6.6560974 44.650793,6.2312521 c 0.02776,-0.4272902 0.272178,-0.4786327 0.629516,-0.4709219 1.904867,0.040999 3.810109,0.075791 5.715539,0.089332 0.696106,0.00508 1.393151,-0.046641 2.08907,-0.088016 0.304628,-0.018243 0.474763,0.092529 0.501211,0.401901 0.02664,0.3125687 0.01107,0.593166 -0.380035,0.6826863 -0.436685,0.1000521 -0.872244,0.2087553 -1.301237,0.3373937 -0.544543,0.163431 -0.849359,0.5566808 -0.931331,1.1092242 -0.05702,0.38253 -0.100167,0.7714543 -0.101105,1.1575576 -0.0077,3.666571 -0.0075,7.333329 -0.0015,10.999901 7.5e-4,0.371058 0.04089,0.74362 0.08685,1.112609 0.135432,1.084399 0.51453,1.583908 1.587483,1.671547 1.242712,0.101557 2.505871,0.09215 3.750084,-0.0028 1.247589,-0.09535 2.133526,-0.851947 2.725713,-1.938039 0.229222,-0.420707 0.429932,-0.859658 0.608695,-1.30425 0.162631,-0.40397 0.463508,-0.408672 0.800963,-0.340027 0.351711,0.07165 0.372908,0.333256 0.302565,0.613289 -0.335766,1.33453 -0.680349,2.666802 -1.017617,4.000956 -0.08891,0.351122 -0.308567,0.420519 -0.65165,0.418075 -2.292781,-0.01655 -4.585937,-0.0087 -6.878905,-0.0087 -1.87e-4,-0.04871 -3.75e-4,-0.09742 -7.5e-4,-0.146316"
                     id="Fill-7" />
                  <path
                     d="m 121.09101,24.524236 c -2.55558,0.04833 -5.11135,0.09309 -7.66674,0.149138 -0.32957,0.0073 -0.5828,-0.01787 -0.6207,-0.427479 -0.0371,-0.402089 0.12306,-0.601441 0.52429,-0.654288 0.41324,-0.05454 0.8246,-0.134468 1.23108,-0.228502 0.4652,-0.107575 0.76851,-0.389489 0.82441,-0.887304 0.0261,-0.23076 0.0576,-0.462647 0.0578,-0.694159 0.003,-4.256916 0.001,-8.513831 5.6e-4,-12.7707471 0,-0.1241247 -7.5e-4,-0.2486257 -0.006,-0.3727504 -0.043,-1.1253981 -0.31888,-1.4528242 -1.41322,-1.6632721 -0.30369,-0.058489 -0.61038,-0.102497 -0.9167,-0.1455645 -0.35002,-0.049274 -0.46726,-0.2753314 -0.441,-0.592978 0.0263,-0.318775 0.16488,-0.4891645 0.53535,-0.479573 1.82721,0.046829 3.65498,0.080493 5.48276,0.093658 0.72705,0.00527 1.45523,-0.045324 2.18192,-0.088956 0.32713,-0.019747 0.50102,0.098924 0.52297,0.4306754 0.0214,0.3206557 -0.0227,0.5833865 -0.41249,0.6604943 -0.39373,0.078048 -0.78258,0.1841184 -1.16956,0.2918813 -0.61732,0.171894 -0.97259,0.5811296 -1.04669,1.2215007 -0.039,0.3385221 -0.0868,0.679113 -0.0876,1.0187635 -0.006,3.7130229 -0.008,7.4262349 3.8e-4,11.1392589 9.3e-4,0.417322 0.0551,0.835961 0.10579,1.251215 0.0891,0.729515 0.48846,1.199121 1.2187,1.331144 0.54661,0.09892 1.09978,0.204806 1.65201,0.218159 0.92702,0.02257 1.86042,0.02539 2.78274,-0.05717 1.27835,-0.114345 2.22357,-0.806623 2.84558,-1.923182 0.24048,-0.431615 0.44719,-0.885799 0.63083,-1.345061 0.16038,-0.401149 0.45394,-0.422964 0.7944,-0.351687 0.36746,0.07692 0.39166,0.329307 0.311,0.64244 -0.33933,1.317792 -0.67172,2.637276 -1.00524,3.956572 -0.0857,0.338898 -0.28699,0.439514 -0.64189,0.436317 -2.09132,-0.019 -4.18283,-0.0094 -6.27434,-0.0094 -1.9e-4,-0.04965 -5.6e-4,-0.0993 -7.5e-4,-0.149138"
                     id="Fill-8" />
                  <path
                     d="m 37.395417,38.331613 h 0.77639 v 6.225798 c -0.720116,0.216466 -0.954778,0.145189 -1.380208,-0.411304 -1.102215,-1.44154 -2.204806,-2.88308 -3.307959,-4.323868 -0.101105,-0.132212 -0.207275,-0.260098 -0.394479,-0.494054 -0.01501,0.290376 -0.0302,0.453055 -0.03057,0.615734 -0.0019,1.351267 -5.63e-4,2.702347 -0.0013,4.053426 -3.76e-4,0.698672 -0.0011,0.698672 -0.735311,0.600689 v -6.217147 c 0.730433,-0.198036 0.919326,-0.137854 1.362013,0.440643 1.093399,1.428939 2.186235,2.858255 3.279822,4.286819 0.111047,0.145188 0.226221,0.286991 0.43162,0.546713 v -5.323449"
                     id="Fill-9" />
                  <path
                     d="m 88.299914,44.842334 c -1.757805,-0.03103 -3.156771,-1.00353 -3.537932,-2.487385 -0.507964,-1.978098 0.77489,-3.86818 2.805998,-4.139938 1.148172,-0.153839 2.231067,-0.0021 3.158646,0.74268 1.046504,0.840287 1.38396,1.973772 1.11741,3.250565 -0.285308,1.366125 -1.219453,2.150744 -2.537572,2.490206 -0.3262,0.08407 -0.670596,0.0978 -1.00655,0.143872 z m 0.01201,-6.015726 c -1.618809,-0.0056 -2.81275,1.108848 -2.826069,2.638592 -0.01332,1.512253 1.201445,2.693319 2.781425,2.704415 1.592172,0.01129 2.804872,-1.135553 2.811625,-2.659091 0.0071,-1.554005 -1.151736,-2.678086 -2.766981,-2.683916 z"
                     id="Fill-10" />
                  <path
                     d="m 130.39494,44.840454 c -1.59067,-0.0284 -2.88778,-0.809821 -3.40963,-2.081724 -0.83191,-2.027183 0.47026,-4.244503 2.66438,-4.544095 0.97804,-0.133528 1.91724,-0.03479 2.78123,0.472614 1.1523,0.677045 1.77432,2.006308 1.55729,3.285734 -0.23785,1.402234 -1.22715,2.437359 -2.63155,2.734318 -0.31588,0.06676 -0.64096,0.0899 -0.96172,0.133153 z m -0.0137,-6.013846 c -1.62313,-5.64e-4 -2.78968,1.111857 -2.78799,2.658903 0.001,1.536138 1.19112,2.68354 2.78311,2.684292 1.5796,7.53e-4 2.80112,-1.165644 2.80618,-2.679778 0.005,-1.526359 -1.19,-2.662853 -2.8013,-2.663417 z"
                     id="Fill-11" />
                  <path
                     d="m 96.09852,44.604052 v -6.342964 c 1.035812,0.0536 2.043488,0.04232 3.031843,0.175467 0.911257,0.122996 1.354887,0.721616 1.327687,1.516391 -0.0163,0.476752 -0.23954,0.825054 -0.629143,1.075936 -0.140309,0.09027 -0.29131,0.163996 -0.497272,0.278341 0.187767,0.06883 0.322636,0.114157 0.454317,0.16738 0.609818,0.246933 0.997358,0.667077 1.034128,1.353901 0.0375,0.70375 -0.2915,1.199496 -0.908825,1.485547 -0.304441,0.141051 -0.645836,0.264048 -0.975037,0.277213 -0.926079,0.03705 -1.854408,0.01279 -2.837698,0.01279 z m 0.733247,-0.569093 c 0.763072,-0.04401 1.460492,-0.03329 2.140279,-0.13823 0.683351,-0.105318 1.037684,-0.542388 1.020618,-1.074056 -0.01763,-0.556868 -0.422616,-0.997511 -1.089647,-1.077064 -0.581684,-0.06921 -1.173496,-0.0694 -1.760431,-0.06282 -0.10467,0.0013 -0.292436,0.181862 -0.296751,0.285675 -0.02757,0.648458 -0.01407,1.298609 -0.01407,2.06649 z m 0.0028,-2.98238 c 0.713738,-0.04232 1.348882,-0.03272 1.967143,-0.130519 0.582433,-0.09215 0.851047,-0.481266 0.827412,-0.999017 -0.02176,-0.477316 -0.33708,-0.82054 -0.904882,-0.886552 -0.518845,-0.06018 -1.045942,-0.0647 -1.569288,-0.06074 -0.107296,7.52e-4 -0.30219,0.143683 -0.306129,0.228126 -0.02701,0.582446 -0.01426,1.166585 -0.01426,1.848707 z"
                     id="Fill-12" />
                  <path
                     d="m 21.775883,44.604616 c 0.06865,-0.160233 0.117425,-0.287179 0.176137,-0.409047 0.889876,-1.843065 1.788568,-3.682181 2.664188,-5.532204 0.13562,-0.286239 0.297688,-0.362783 0.59744,-0.367297 0.292811,-0.0043 0.395979,0.131272 0.502524,0.362031 0.857988,1.85811 1.726667,3.711331 2.59122,5.566432 0.05121,0.109832 0.09548,0.222673 0.144623,0.337582 -0.752192,0.195967 -0.895128,0.180921 -1.117972,-0.513613 -0.257359,-0.801734 -0.707549,-1.074244 -1.530646,-0.977577 -0.687853,0.08087 -1.392776,0.02614 -2.08982,0.01223 -0.2658,-0.0053 -0.440812,0.06526 -0.532538,0.332127 -0.07015,0.204242 -0.177075,0.396071 -0.267675,0.593354 -0.31232,0.678737 -0.31232,0.678737 -1.137481,0.595987 z m 4.78871,-2.209045 c -0.473825,-1.071986 -0.919138,-2.079654 -1.417161,-3.206557 -0.522783,1.129536 -0.991731,2.142469 -1.484502,3.206557 z"
                     id="Fill-13" />
                  <path
                     d="m 56.297212,38.330109 h 0.723118 c 0.01032,0.199352 0.02589,0.380085 0.02795,0.561006 0.01351,1.195735 -0.01125,2.393163 0.04614,3.586454 0.05177,1.073679 0.689542,1.655749 1.721415,1.690918 1.063386,0.03611 1.767934,-0.49932 1.855346,-1.588045 0.09548,-1.188589 0.05233,-2.388462 0.06865,-3.583445 0.003,-0.213081 3.75e-4,-0.42635 3.75e-4,-0.663503 h 0.724243 c 0.01313,0.136349 0.03695,0.270065 0.03714,0.403593 0.0028,1.149471 -9.38e-4,2.29913 0.0017,3.448601 0.0021,0.954444 -0.228659,1.820497 -1.135229,2.287281 -1.013116,0.521512 -2.068436,0.50421 -3.068046,-0.06338 -0.640958,-0.364099 -0.966408,-0.995255 -0.989105,-1.702954 -0.04614,-1.441352 -0.01369,-2.884961 -0.01369,-4.376527"
                     id="Fill-14" />
                  <path
                     d="m 119.7819,41.796575 v 2.804092 h -0.80115 v -3.10406 -3.185869 c 1.15773,0.0378 2.30122,-0.148198 3.41244,0.215525 0.69685,0.228127 1.05869,0.75246 1.08495,1.466177 0.0257,0.693783 -0.31325,1.29165 -0.9876,1.531061 -0.45694,0.162302 -0.95947,0.213645 -1.4468,0.264611 -0.3956,0.04138 -0.7989,0.0085 -1.26184,0.0085 z m 0.0272,-2.777574 v 2.077586 c 0.62782,0 1.22995,0.03893 1.82458,-0.01072 0.62314,-0.05191 0.98329,-0.472991 0.98498,-1.029107 0.002,-0.564768 -0.33858,-0.968362 -0.97936,-1.026287 -0.59331,-0.05379 -1.19506,-0.01147 -1.8302,-0.01147 z"
                     id="Fill-15" />
                  <path
                     d="m 110.00808,43.959732 c 0.23804,-0.176032 0.42374,-0.313321 0.63327,-0.468289 0.58806,0.583574 1.2776,0.820728 2.0765,0.589404 0.23147,-0.06695 0.46745,-0.181861 0.65221,-0.334572 0.53648,-0.443276 0.46239,-1.233725 -0.15831,-1.546858 -0.39692,-0.200105 -0.83905,-0.309184 -1.2581,-0.466597 -0.33239,-0.124877 -0.67753,-0.229631 -0.98741,-0.397951 -0.93584,-0.507972 -1.10616,-1.728532 -0.36672,-2.493216 0.88725,-0.917583 2.85908,-0.915702 3.80748,0.04307 -0.19846,0.163431 -0.3941,0.324229 -0.58993,0.485591 -0.6691,-0.653348 -1.4181,-0.678549 -2.21025,-0.360902 -0.37703,0.151018 -0.59369,0.44873 -0.61132,0.859282 -0.018,0.417699 0.18701,0.729703 0.56499,0.879969 0.58787,0.233769 1.19506,0.418451 1.78669,0.643192 0.57212,0.217407 1.04313,0.546337 1.17668,1.204575 0.13581,0.669709 -0.0463,1.232973 -0.57042,1.666657 -0.90414,0.747946 -2.76042,0.741552 -3.66043,-0.0041 -0.0919,-0.07617 -0.16638,-0.173587 -0.28493,-0.299216"
                     id="Fill-16" />
                  <path
                     d="m 18.618925,38.897509 c -0.205211,0.163995 -0.385288,0.307867 -0.589561,0.471298 -0.577557,-0.593918 -1.2716,-0.658237 -2.009724,-0.440266 -0.445501,0.131835 -0.766449,0.403405 -0.802651,0.911376 -0.03714,0.518692 0.260922,0.81471 0.696669,0.982279 0.518656,0.19954 1.054758,0.353003 1.576415,0.545208 0.919514,0.339087 1.314556,0.857214 1.290358,1.660451 -0.02345,0.781987 -0.523721,1.404491 -1.409095,1.638071 -1.128477,0.2979 -2.204806,0.233205 -3.167838,-0.679489 0.232223,-0.178288 0.431807,-0.331563 0.650525,-0.499508 0.599128,0.600689 1.293734,0.825242 2.090758,0.590533 0.244416,-0.07184 0.494083,-0.202549 0.683351,-0.371622 0.484517,-0.433308 0.403108,-1.191974 -0.171635,-1.489309 -0.394667,-0.203866 -0.836416,-0.314826 -1.254342,-0.474872 -0.360152,-0.137853 -0.737374,-0.249001 -1.07014,-0.437257 -0.854986,-0.483899 -1.034499,-1.604595 -0.407047,-2.36627 0.829663,-1.006915 2.954748,-1.052804 3.893957,-0.04062"
                     id="Fill-17" />
                  <path
                     d="m 75.49782,38.901271 c -0.189643,0.151959 -0.37816,0.302789 -0.582246,0.466408 -0.592375,-0.596551 -1.288294,-0.657297 -2.029419,-0.434061 -0.44944,0.135221 -0.761384,0.426914 -0.794961,0.921533 -0.03301,0.488036 0.257171,0.788944 0.675097,0.952187 0.5316,0.207627 1.081957,0.366733 1.617684,0.564204 0.902256,0.332692 1.285105,0.830131 1.272537,1.621897 -0.01294,0.806435 -0.483016,1.393771 -1.369703,1.663084 -0.824974,0.250506 -1.65126,0.245241 -2.443032,-0.126758 -0.255858,-0.120175 -0.477389,-0.314073 -0.78033,-0.518691 0.263549,-0.204994 0.452629,-0.352251 0.66797,-0.520007 0.591062,0.571914 1.275163,0.824489 2.073313,0.591849 0.231473,-0.06733 0.468573,-0.178288 0.654276,-0.329683 0.555047,-0.452679 0.468761,-1.247454 -0.180638,-1.569426 -0.384538,-0.190701 -0.81053,-0.296019 -1.214576,-0.448542 -0.346084,-0.130519 -0.706236,-0.239598 -1.027559,-0.417699 -0.854236,-0.473742 -1.053069,-1.599329 -0.441749,-2.36138 0.828538,-1.033056 2.998641,-1.078381 3.903336,-0.05492"
                     id="Fill-18" />
                  <path
                     d="m 49.319265,44.00468 h 3.20329 v 0.611408 h -3.929784 v -6.273003 h 0.726494 v 5.661595"
                     id="Fill-19" />
                  <path
                     d="m 66.044203,38.323338 h 0.70586 v 6.259651 c -0.694793,0.145752 -0.731371,0.121115 -0.731746,-0.509664 -0.0011,-1.738311 -0.0011,-3.476623 7.5e-4,-5.215122 0,-0.166252 0.01519,-0.332692 0.02514,-0.534865"
                     id="Fill-20" />
                  <path
                     d="m 104.94494,38.311114 c 0.17651,0 0.29994,-0.0019 0.42318,5.64e-4 0.0758,0.0017 0.15157,0.0098 0.26317,0.01749 v 6.288049 h -0.68635 v -6.306103"
                     id="Fill-21" />
                </g>
              </g>
            </g>
          </g>
        </g>
      </g>
    </g>
  </g>
  <metadata
     id="metadata2840">
    <rdf:RDF>
      <cc:Work
         rdf:about="">
        <dc:title>Imported Layers</dc:title>
      </cc:Work>
    </rdf:RDF>
  </metadata>
</svg>
