<?xml version="1.0" encoding="UTF-8" standalone="no"?>
<svg width="148px" height="46px" viewBox="0 0 148 46" version="1.1" xmlns="http://www.w3.org/2000/svg" xmlns:xlink="http://www.w3.org/1999/xlink" xmlns:sketch="http://www.bohemiancoding.com/sketch/ns">
    <!-- Generator: Sketch 3.3.3 (12072) - http://www.bohemiancoding.com/sketch -->
    <title>Imported Layers</title>
    <desc>Created with Sketch.</desc>
    <defs></defs>
    <g id="Page-1" stroke="none" stroke-width="1" fill="none" fill-rule="evenodd" sketch:type="MSPage">
        <g id="Home---Desktop-Copy-2" sketch:type="MSArtboardGroup" transform="translate(-155.000000, -2148.000000)" fill="#B1B1B1">
            <g id="Group-+-Currently-in-use-at" sketch:type="MSLayerGroup" transform="translate(110.000000, 1814.000000)">
                <g id="Group" sketch:type="MSShapeGroup">
                    <g id="Row-3-+-Row-1-+-Row-2">
                        <g transform="translate(0.000000, 93.000000)">
                            <g id="Row-3" transform="translate(46.079694, 221.405882)">
                                <g id="Imported-Layers" transform="translate(-1.000000, 20.000000)">
                                    <path d="M75.3273105,11.9761607 C75.3278733,14.6335595 75.322621,17.2909582 75.3321876,19.9483569 C75.3340634,20.4749469 75.3704537,21.0037937 75.4286033,21.5275627 C75.5625349,22.7362748 76.1575361,23.3354589 77.3584183,23.4787666 C77.9573587,23.5502324 78.559488,23.6124829 79.1616172,23.6320419 C79.5544081,23.6448305 79.6722079,23.81522 79.6558885,24.1768745 C79.6373181,24.5853579 79.4352953,24.6707407 79.0515082,24.6637822 C76.5724613,24.6184578 74.0930393,24.5902476 71.6136172,24.5757664 C70.7931458,24.5710647 69.9713612,24.6099948 69.1518276,24.6556952 C68.7997414,24.6752543 68.5536375,24.6493009 68.5151838,24.2122312 C68.4769176,23.7774184 68.6847554,23.6463351 69.06873,23.6083454 C69.5605627,23.5596358 70.0495817,23.4783905 70.5382256,23.4003423 C71.3543828,23.2700113 71.7968821,22.7464304 71.9024892,21.9638801 C71.9998428,21.242828 72.0596806,20.5110559 72.061744,19.7837976 C72.0744994,15.183846 72.0741242,10.5840825 72.0591179,5.98431901 C72.0561166,5.03890193 72.0193511,4.08859508 71.9128061,3.15032457 C71.8212674,2.34351349 71.3950875,2.00818851 70.5813688,1.91396652 C70.1814499,1.86770183 69.7822814,1.81391442 69.3817997,1.77573665 C69.0948035,1.74827874 68.9209176,1.64333688 68.9319848,1.31553462 C68.9426768,0.998264152 69.1191888,0.871882556 69.399057,0.849126346 C70.2174651,0.781986124 71.0360608,0.669709617 71.8546565,0.668393142 C74.2708644,0.664255649 76.692512,0.610656312 79.1014043,0.755844692 C81.3587326,0.891817748 83.5337136,1.44379689 85.3918733,2.87649778 C88.1657947,5.01520538 88.924365,8.79687372 87.0684563,11.5483064 C85.7765982,13.4635894 83.9146869,14.5195904 81.6472294,14.7567439 C80.2833409,14.8992993 78.8988188,14.8504017 77.5233004,14.8614977 C77.3743625,14.8626261 77.104436,14.6993832 77.0974956,14.5982027 C77.0789252,14.3260685 77.2567503,14.1857699 77.5668188,14.1543626 C78.564365,14.0533702 79.586109,14.0193299 80.5476401,13.7658144 C82.8387326,13.1619285 84.0527452,11.5590262 84.3678783,9.24071385 C84.5089379,8.20201511 84.5001217,7.16199989 84.2549556,6.13797045 C83.6933435,3.79144787 82.1426261,2.44601047 79.8389658,2.03959584 C78.7420025,1.84607402 77.5923295,1.89346712 76.4694804,1.92769547 C75.6544487,1.95233236 75.3314373,2.38601682 75.3288112,3.21163469 C75.3237465,4.67235769 75.3267478,6.13308068 75.3267478,7.59399175 C75.3265602,9.05471474 75.3267478,10.5154377 75.3273105,11.9761607" id="Fill-1"></path>
                                    <path d="M21.1099772,1.57506825 C21.2003904,2.67376063 21.2951179,3.80047513 21.3847807,4.92756576 C21.4266109,5.45396767 21.4438682,5.9826264 21.5007047,6.50714764 C21.5342814,6.81839993 21.4367402,6.99142235 21.1212319,6.9993212 C20.8286084,7.00646778 20.528294,7.03373762 20.4416324,6.62243323 C20.3427782,6.15301587 20.2367959,5.6807775 20.0786667,5.22903852 C19.3202839,3.06042814 17.7168568,1.91772787 15.5171153,1.54855068 C9.67458555,0.568152977 5.293673,4.16589096 4.28768568,9.6241842 C3.59945754,13.3575191 4.25786058,16.8401596 6.6031635,19.8844139 C8.46995184,22.3078562 10.9135463,23.7471395 14.039929,23.7401809 C17.2912395,23.7330344 19.7297693,22.3576942 21.097597,19.3023439 C21.2771103,18.9010071 21.7475589,18.7697357 22.0825754,19.0424341 C22.1716755,19.1152164 22.220071,19.3173893 22.194185,19.4405737 C21.8749252,20.9652398 21.390033,22.432169 20.6543473,23.8116467 C20.5018454,24.0975099 20.2941952,24.2259602 19.982251,24.3066413 C17.3771508,24.9801123 14.7259062,25.1482449 12.0536527,25.0290099 C8.77476806,24.8828812 5.81758175,23.8780347 3.43795184,21.5236133 C1.48862864,19.5953536 0.477951838,17.1845118 0.132993663,14.4960819 C-0.278367554,11.2906534 0.32469962,8.28363656 2.28377693,5.67682808 C4.56511534,2.6412249 7.64329024,0.868873471 11.3894347,0.251070581 C14.2325729,-0.217782571 16.9667275,0.235272881 19.6569886,1.14871843 C20.1225602,1.3068835 20.6012624,1.42687078 21.1099772,1.57506825" id="Fill-2"></path>
                                    <path d="M99.8285323,25.1813449 C97.6012167,25.1736341 95.4793207,24.7262207 93.5982763,23.4876058 C90.6425906,21.5412916 89.3008365,18.7084256 89.370616,15.2184505 C89.4777237,9.86697979 93.2319341,5.8972436 98.5796299,5.37328657 C100.682018,5.1671642 102.728507,5.37516724 104.673141,6.22523393 C107.355523,7.39764891 109.098322,9.4282175 109.834946,12.2597671 C110.657856,15.4230683 110.285886,18.437984 108.345191,21.1322441 C106.557186,23.6147397 104.024492,24.8142364 101.035417,25.1294382 C100.712406,25.1634784 100.38583,25.1655472 100.060943,25.1807807 C99.9836603,25.184354 99.9060025,25.1813449 99.8285323,25.1813449 L99.8285323,25.1813449 Z M106.772527,15.8983158 C106.733511,15.8907931 106.694494,15.8834584 106.655478,15.8759357 C106.62434,13.4694195 106.149389,11.1858996 104.720786,9.191252 C101.830565,5.1560682 95.8687351,5.73174389 93.791858,10.2382257 C93.2651356,11.3811141 93.0263473,12.5941517 92.9571305,13.84217 C92.8235741,16.2460532 93.1844766,18.5568429 94.4226869,20.655304 C95.8867427,23.1362951 98.0994271,24.2654544 100.944629,23.9175289 C103.680284,23.5831443 105.379564,21.9065194 106.142449,19.3126876 C106.467336,18.2085412 106.569379,17.0383831 106.772527,15.8983158 L106.772527,15.8983158 Z" id="Fill-3"></path>
                                    <path d="M39.9433054,24.6741259 C38.58073,24.6741259 37.2181546,24.6641583 35.8557668,24.6810844 C35.5029303,24.68541 35.283275,24.6026601 35.2557009,24.2184375 C35.2301901,23.8628012 35.3656223,23.6698436 35.7434068,23.6344868 C36.0806743,23.6030795 36.4155032,23.5287927 36.7469556,23.4530013 C37.1496882,23.3608481 37.3100684,23.0983054 37.2185298,22.6917027 C37.1879544,22.5557296 37.1534398,22.4195685 37.1059823,22.2890494 C36.666109,21.0801493 36.2116046,19.8763269 35.7861749,18.662349 C35.6021597,18.1366993 35.2662053,17.8784822 34.7177237,17.8782941 C33.1529379,17.8777299 31.5881521,17.8730282 30.0233663,17.8750969 C29.5690494,17.8758492 29.2021445,18.0372114 29.0398885,18.501551 C28.5902611,19.7884993 28.1213131,21.0694294 27.7065754,22.3678498 C27.4812928,23.0732923 27.6401724,23.2818596 28.3634778,23.4467951 C28.66473,23.5156279 28.9693587,23.573929 29.2753004,23.6171846 C29.650834,23.6704078 29.768071,23.9115108 29.7320558,24.2428863 C29.6960406,24.5753903 29.5013333,24.6953776 29.1539366,24.6816486 C27.8695817,24.6304941 26.584289,24.5930686 25.2991838,24.582913 C24.634403,24.5776471 23.9684968,24.6335032 23.3040913,24.6758185 C23.0024639,24.6951895 22.8235133,24.5883669 22.7972522,24.2782431 C22.7726793,23.9856095 22.7814956,23.7068929 23.1542155,23.6292209 C23.3963802,23.5790068 23.6359189,23.5146876 23.8790215,23.4704916 C24.9189607,23.2814835 25.6670266,22.7088168 26.0804512,21.7370703 C26.5411458,20.6541756 26.990398,19.5650747 27.4062611,18.4641255 C28.649161,15.1733142 29.883057,11.8791177 31.0985703,8.57796274 C31.4354626,7.66301265 31.3709354,7.57217588 30.4752446,7.19585211 C30.2206996,7.0888415 29.9488973,7.0145547 29.6782205,6.9566298 C29.279052,6.871247 29.2145247,6.58726454 29.2347833,6.25513672 C29.2565425,5.89968848 29.446185,5.74829386 29.8153409,5.7550643 C31.2383169,5.78101767 32.6622307,5.76841712 34.0838935,5.82182839 C34.2641572,5.82859883 34.5187022,6.1101364 34.5920456,6.3166349 C34.9131812,7.22124127 35.1461546,8.15744303 35.4729176,9.05979258 C36.8240507,12.7897423 38.1973181,16.5117931 39.56327,20.2364769 C39.7020786,20.6146813 39.8707123,20.9838585 39.9832598,21.3695857 C40.3756755,22.7150231 41.2586109,23.4475474 42.6468847,23.5914193 C42.9558276,23.6233908 43.2839037,23.6828202 43.2773384,24.1168808 C43.2718986,24.4768427 43.1552243,24.7100468 42.7288568,24.6844696 C41.8012776,24.6291777 40.8723853,24.5958897 39.9442433,24.5535744 C39.9438682,24.5938209 39.943493,24.6338794 39.9433054,24.6741259 L39.9433054,24.6741259 Z M32.3489734,9.55403489 C32.2022864,9.74943739 32.1169379,9.82372419 32.0807351,9.91719391 C31.3418606,11.8249542 30.5932319,13.7293292 29.8843701,15.6481855 C29.6954778,16.159542 29.9179468,16.4694778 30.4741191,16.5035181 C31.3542408,16.5573055 32.2384892,16.5516635 33.1210494,16.5552368 C33.538038,16.5569294 33.9559645,16.5326686 34.3720152,16.4995687 C34.7074068,16.4730511 34.8246439,16.2652361 34.7496122,15.946085 C34.7072193,15.7653518 34.6644512,15.5827379 34.6008619,15.4087752 C34.0054854,13.7774746 33.4099214,12.1463621 32.8036654,10.5191991 C32.6926185,10.2212996 32.5331762,9.94145466 32.3489734,9.55403489 L32.3489734,9.55403489 Z" id="Fill-4"></path>
                                    <path d="M138.716705,15.4428154 C139.196532,14.6205828 139.662104,13.8575915 140.093724,13.0756054 C140.948147,11.5274308 141.798068,9.97643528 142.622667,8.41227497 C143.207726,7.30229851 143.100619,7.11197385 141.887544,6.89964524 C141.750423,6.87557256 141.610864,6.86541689 141.472431,6.8501834 C141.143792,6.81407437 141.010048,6.59553953 141.03312,6.30215368 C141.056755,6.00162125 141.191437,5.78176994 141.559655,5.78402675 C143.509729,5.79531082 145.459802,5.79982445 147.409876,5.79343014 C147.709252,5.7924898 147.844684,5.93448103 147.873009,6.19570728 C147.903584,6.47611644 147.928157,6.77363978 147.541744,6.85432089 C147.284198,6.9081083 147.030403,6.99085815 146.770418,7.01888026 C145.779437,7.1257028 145.089708,7.66226038 144.582307,8.49145153 C143.140948,10.8471894 141.690023,13.1969092 140.249039,15.5526471 C139.717252,16.4222728 139.475838,17.367878 139.512041,18.3939761 C139.554996,19.6043808 139.542428,20.8168543 139.595513,22.0266948 C139.635468,22.9380716 140.024507,23.332826 140.9262,23.4755695 C141.384644,23.5479756 141.844963,23.6245192 142.307158,23.6523533 C142.752284,23.679247 142.795427,23.9485601 142.774043,24.2902794 C142.750971,24.6575759 142.537881,24.7205786 142.203427,24.7192622 C139.337967,24.7072258 136.472319,24.7055332 133.606672,24.7235877 C133.236015,24.7258445 133.082951,24.5736977 133.060816,24.2543584 C133.039057,23.9389687 133.102271,23.6784947 133.519447,23.6517891 C133.997212,23.6213221 134.472913,23.5444023 134.946738,23.4695513 C135.796659,23.3348947 136.221901,22.9482272 136.253227,22.0947753 C136.304624,20.6993119 136.323569,19.2980183 136.246662,17.9051878 C136.216461,17.3577223 135.952537,16.7946471 135.690864,16.2932583 C134.384188,13.7906394 133.014484,11.3207443 131.725627,8.80909813 C131.099113,7.58853778 130.132142,6.99574791 128.822089,6.88159073 C128.393095,6.84416523 128.249972,6.62168096 128.303057,6.23557766 C128.356517,5.84552494 128.600745,5.78872845 128.971589,5.79267787 C131.216537,5.81656249 133.462048,5.81900737 135.707184,5.79455855 C136.094347,5.79042106 136.358459,5.84270392 136.414733,6.2517515 C136.471194,6.66305589 136.230905,6.80561132 135.852558,6.88478788 C134.623914,7.14187663 134.484918,7.40780458 135.057034,8.52624408 C136.180071,10.721372 137.335747,12.89995 138.47998,15.0843581 C138.535128,15.1896761 138.611098,15.2840862 138.716705,15.4428154" id="Fill-5"></path>
                                    <path d="M1.79457034,32.4693502 L1.79457034,31.9100364 L146.3418,31.9100364 L146.3418,32.4693502 L1.79457034,32.4693502" id="Fill-6"></path>
                                    <path d="M52.1843498,24.5266807 C49.8765627,24.5744499 47.5687757,24.6182697 45.2609886,24.6739378 C44.9287858,24.6818367 44.6838074,24.6483606 44.647417,24.2381846 C44.610839,23.8270683 44.7845374,23.6418215 45.1805171,23.5902909 C45.5941293,23.5366915 46.0049278,23.4560104 46.4136629,23.3710038 C47.0857592,23.2310813 47.4633561,22.8068002 47.5451407,22.1274991 C47.589597,21.7579458 47.6357414,21.3857595 47.6364918,21.0147016 C47.6436198,17.146146 47.6439949,13.2774022 47.6385551,9.40884651 C47.6379924,9.05339827 47.5995387,8.69569322 47.5507681,8.343066 C47.4442231,7.57198781 47.1227123,7.22406228 46.3596401,7.05292054 C45.9827934,6.96829001 45.600507,6.8987049 45.2170951,6.85432089 C44.8316198,6.80956074 44.6230317,6.65609738 44.6507934,6.2312521 C44.6785551,5.80396194 44.9229708,5.75261942 45.2803093,5.7603302 C47.1851762,5.80132899 49.0904183,5.83612155 50.9958479,5.84966243 C51.6919544,5.85474026 52.3889987,5.8030216 53.0849176,5.76164668 C53.3895463,5.7434041 53.5596806,5.85417606 53.5861293,6.16354767 C53.6127655,6.47611644 53.5971965,6.75671368 53.2060938,6.84623397 C52.7694094,6.94628607 52.3338504,7.05498929 51.9048568,7.1836277 C51.3603143,7.34705866 51.0554981,7.74030854 50.973526,8.29285188 C50.9165019,8.67538189 50.8733587,9.0643062 50.8724208,9.4504095 C50.86473,13.1169803 50.8649176,16.7837392 50.8709202,20.45031 C50.8716705,20.8213679 50.9118124,21.1939303 50.9577693,21.5629194 C51.0932015,22.6473187 51.4722991,23.1468269 52.5452522,23.2344665 C53.7879645,23.3360231 55.0511229,23.3266197 56.2953359,23.2316455 C57.5429252,23.1362951 58.4288619,22.3796981 59.0210494,21.2936063 C59.2502712,20.8728985 59.450981,20.4339481 59.629744,19.9893557 C59.7923752,19.585386 60.0932522,19.5806843 60.4307072,19.6493291 C60.7824183,19.7209829 60.8036147,19.9825853 60.7332725,20.2626183 C60.3975057,21.5971478 60.0529227,22.9294204 59.7156553,24.2635738 C59.6267427,24.6146964 59.4070875,24.6840935 59.0640051,24.6816486 C56.7712243,24.6650986 54.4780684,24.6729975 52.1851001,24.6729975 C52.1849125,24.6242879 52.184725,24.5755783 52.1843498,24.5266807" id="Fill-7"></path>
                                    <path d="M121.091011,24.5242358 C118.535432,24.5725692 115.979665,24.6173294 113.424274,24.6733736 C113.094697,24.6807083 112.841465,24.6555072 112.803574,24.2458954 C112.766433,23.8438063 112.926626,23.6444544 113.327858,23.5916073 C113.741095,23.5370677 114.152456,23.4571388 114.55894,23.3631049 C115.024137,23.2555301 115.327452,22.9736164 115.383351,22.4758008 C115.409425,22.2450415 115.440938,22.0131539 115.441125,21.7816423 C115.444127,17.5247265 115.442626,13.2678107 115.441688,9.01089494 C115.441688,8.88677015 115.440938,8.76226924 115.436061,8.63814445 C115.393105,7.51274644 115.117176,7.18532031 114.022839,6.97487238 C113.719148,6.91638328 113.412456,6.8723754 113.106139,6.82930787 C112.756117,6.78003409 112.63888,6.55397653 112.665141,6.23632993 C112.691402,5.91755493 112.830023,5.74716545 113.200492,5.75675691 C115.027701,5.80358581 116.855473,5.83724995 118.683245,5.8504147 C119.410302,5.8556806 120.138484,5.80509035 120.865166,5.76145861 C121.192304,5.74171148 121.36619,5.8603823 121.388137,6.19213399 C121.409521,6.51278967 121.36544,6.77552046 120.97565,6.85262828 C120.581921,6.93067644 120.19307,7.03674671 119.806094,7.14450958 C119.188771,7.3164036 118.833496,7.72563924 118.759402,8.36601027 C118.720385,8.70453241 118.672553,9.04512328 118.671802,9.38477382 C118.665425,13.0977974 118.664299,16.811009 118.672177,20.5240326 C118.673115,20.9413552 118.727326,21.3599942 118.777972,21.775248 C118.867072,22.5047632 119.266428,22.9743687 119.996674,23.1063923 C120.54328,23.205316 121.096451,23.3111982 121.648684,23.324551 C122.575701,23.3471191 123.509095,23.3499402 124.431422,23.2673784 C125.709774,23.1530331 126.654986,22.4607554 127.276999,21.3441965 C127.517475,20.9125808 127.724188,20.4583969 127.907828,19.9991353 C128.068208,19.5979865 128.361769,19.5761707 128.702226,19.6474484 C129.069693,19.7243681 129.093891,19.9767552 129.013232,20.2898882 C128.673901,21.6076796 128.341511,22.9271636 128.007995,24.2464596 C127.922271,24.5853579 127.720999,24.6859742 127.366099,24.682777 C125.274778,24.6637822 123.18327,24.6733736 121.091762,24.6733736 C121.091574,24.6237237 121.091199,24.5740738 121.091011,24.5242358" id="Fill-8"></path>
                                    <path d="M37.395417,38.3316132 L38.1718074,38.3316132 L38.1718074,44.5574113 C37.4516907,44.7738774 37.2170292,44.7025997 36.7915995,44.146107 C35.689384,42.7045669 34.5867934,41.2630268 33.4836401,39.822239 C33.3825349,39.6900273 33.276365,39.5621412 33.089161,39.3281848 C33.0741546,39.6185615 33.0589607,39.7812402 33.0585856,39.9439189 C33.0567098,41.2951864 33.0580228,42.6462658 33.0572725,43.9973453 C33.0568973,44.6960174 33.056147,44.6960174 32.321962,44.598034 L32.321962,38.380887 C33.0523954,38.1828515 33.2412877,38.2430333 33.6839747,38.82153 C34.7773739,40.2504695 35.8702104,41.6797852 36.9637972,43.1083486 C37.0748441,43.2535369 37.1900177,43.3953401 37.395417,43.6550618 L37.395417,38.3316132" id="Fill-9"></path>
                                    <path d="M88.2999138,44.8423341 C86.542109,44.8113029 85.1431432,43.8388041 84.7619823,42.3549487 C84.2540177,40.3768511 85.536872,38.4867692 87.5679797,38.2150111 C88.7161521,38.0611716 89.7990469,38.2129424 90.7266261,38.9576911 C91.7731305,39.7979782 92.1105856,40.9314632 91.8440355,42.2082558 C91.5587275,43.5743807 90.624583,44.3589998 89.3064639,44.6984622 C88.9802636,44.7825286 88.6358682,44.7962575 88.2999138,44.8423341 L88.2999138,44.8423341 Z M88.3119189,38.8266078 C86.6931103,38.8209658 85.4991686,39.9354558 85.4858504,41.4651997 C85.4725323,42.9774533 86.6872953,44.1585194 88.267275,44.1696154 C89.8594474,44.1808995 91.072147,43.0340618 91.0788999,41.5105241 C91.0860279,39.9565194 89.9271635,38.8324379 88.3119189,38.8266078 L88.3119189,38.8266078 Z" id="Fill-10"></path>
                                    <path d="M130.39494,44.8404535 C128.804269,44.8120552 127.507158,44.0306333 126.985313,42.7587304 C126.153399,40.7315471 127.455574,38.5142271 129.649688,38.214635 C130.627726,38.0811068 131.566935,38.1798425 132.430925,38.6872495 C133.583224,39.3642938 134.205237,40.6935574 133.988208,41.9729829 C133.750357,43.3752168 132.761065,44.4103423 131.356659,44.7073014 C131.040776,44.7740655 130.715701,44.7971979 130.39494,44.8404535 L130.39494,44.8404535 Z M130.381247,38.8266078 C128.758124,38.8260436 127.591569,39.9384649 127.593257,41.4855111 C127.594758,43.0216493 128.784385,44.1690512 130.37637,44.1698035 C131.955975,44.1705558 133.17749,43.004159 133.182555,41.4900247 C133.187807,39.963666 131.992553,38.827172 130.381247,38.8266078 L130.381247,38.8266078 Z" id="Fill-11"></path>
                                    <path d="M96.0985196,44.6040522 L96.0985196,38.2610878 C97.1343321,38.3146871 98.1420076,38.303403 99.1303625,38.4365551 C100.041622,38.5595514 100.485247,39.1581714 100.458048,39.9529462 C100.441729,40.4296982 100.21851,40.7779998 99.8289075,41.0288823 C99.6885982,41.1191549 99.537597,41.1928775 99.331635,41.3072227 C99.5194018,41.3760556 99.6542712,41.4213799 99.7859518,41.4746031 C100.395772,41.7215362 100.783311,42.1416798 100.820076,42.8285036 C100.857592,43.5322535 100.528578,44.0280003 99.9112548,44.3140515 C99.6068137,44.4551024 99.2654195,44.5780988 98.936218,44.5912636 C98.0101394,44.6283129 97.0818099,44.6040522 96.0985196,44.6040522 L96.0985196,44.6040522 Z M96.8317668,44.0349589 C97.594839,43.990951 98.2922586,44.0016708 98.9720456,43.896729 C99.6553967,43.791411 100.009734,43.3543413 99.9926641,42.8226735 C99.9750317,42.2658046 99.5700482,41.8251616 98.9030165,41.7456089 C98.3213333,41.6763999 97.7295209,41.6762119 97.1425856,41.6827942 C97.0379163,41.6841107 96.8501496,41.8646559 96.8458352,41.9684693 C96.8182611,42.6169273 96.8317668,43.2670778 96.8317668,44.0349589 L96.8317668,44.0349589 Z M96.8345805,41.0525789 C97.5483194,41.0102636 98.1834626,41.0198551 98.8017237,40.9220598 C99.3841572,40.8299065 99.6527706,40.4407942 99.6291356,39.9230434 C99.6073764,39.4457272 99.2920558,39.1025033 98.7242535,39.0364915 C98.2054094,38.9763098 97.6783118,38.9717962 97.1549658,38.9757456 C97.0476705,38.9764979 96.8527757,39.1194294 96.8488365,39.2038719 C96.8218251,39.786318 96.8345805,40.3704568 96.8345805,41.0525789 L96.8345805,41.0525789 Z" id="Fill-12"></path>
                                    <path d="M21.7758834,44.6046164 C21.8445374,44.4443826 21.893308,44.3174368 21.9520203,44.1955688 C22.8418961,42.3525039 23.7405881,40.5133884 24.6162079,38.6633649 C24.7518276,38.3771256 24.9138961,38.300582 25.2136477,38.2960684 C25.5064588,38.2917428 25.6096274,38.4273397 25.7161724,38.658099 C26.5741597,40.5162094 27.442839,42.36943 28.3073916,44.2245313 C28.3586008,44.3343629 28.4028695,44.4472036 28.4520152,44.562113 C27.6998226,44.7580797 27.5568872,44.7430343 27.3340431,44.0484997 C27.0766844,43.2467665 26.6264943,42.9742562 25.8033967,43.0709231 C25.1155437,43.1517922 24.410621,43.0970645 23.7135767,43.0831475 C23.4477769,43.0778816 23.2727655,43.148407 23.1810393,43.4152753 C23.1108847,43.619517 23.0039645,43.8113462 22.9133638,44.0086294 C22.6010444,44.6873662 22.6010444,44.6873662 21.7758834,44.6046164 L21.7758834,44.6046164 Z M26.5645932,42.3955714 C26.0907681,41.3235847 25.645455,40.3159171 25.1474322,39.1890145 C24.6246489,40.3185501 24.1557009,41.3314835 23.6629303,42.3955714 L26.5645932,42.3955714 L26.5645932,42.3955714 Z" id="Fill-13"></path>
                                    <path d="M56.2972117,38.3301087 L57.0203295,38.3301087 C57.0306464,38.5294606 57.0462155,38.7101938 57.0482788,38.8911151 C57.0617845,40.0868505 57.0370241,41.2842785 57.0944233,42.477569 C57.1461952,43.5512483 57.7839645,44.1333183 58.8158378,44.168487 C59.8792243,44.2045961 60.5837719,43.6691669 60.6711838,42.5804421 C60.7666616,41.3918533 60.7235184,40.1919804 60.7398378,38.9969973 C60.742839,38.7839164 60.7402129,38.5706475 60.7402129,38.3334939 L61.4644563,38.3334939 C61.4775868,38.4698431 61.5014094,38.6035593 61.501597,38.7370875 C61.5044106,39.8865582 61.5006591,41.036217 61.5032852,42.1856877 C61.5053485,43.140132 61.2746261,44.0061845 60.3680558,44.4729689 C59.3549404,44.994481 58.2996198,44.9771788 57.3000101,44.40959 C56.659052,44.0454907 56.333602,43.4143349 56.3109049,42.7066356 C56.2647605,41.2652836 56.2972117,39.8216748 56.2972117,38.3301087" id="Fill-14"></path>
                                    <path d="M119.781896,41.7965753 L119.781896,44.600667 L118.980745,44.600667 L118.980745,41.4966071 L118.980745,38.3107377 C120.138484,38.3485393 121.281967,38.1625402 122.393186,38.5262634 C123.090043,38.7543897 123.451883,39.2787229 123.478144,39.9924404 C123.503843,40.6862227 123.164887,41.2840904 122.49054,41.5235008 C122.033597,41.6858033 121.531072,41.7371459 121.043741,41.7881122 C120.648137,41.8294872 120.244842,41.7965753 119.781896,41.7965753 L119.781896,41.7965753 Z M119.809095,39.0190012 L119.809095,41.0965868 C120.436923,41.0965868 121.039052,41.1355168 121.633678,41.0858669 C122.256816,41.0339602 122.616968,40.6128762 122.618657,40.0567596 C122.620345,39.4919919 122.280076,39.0883982 121.639305,39.0304733 C121.045992,38.9766859 120.444238,39.0190012 119.809095,39.0190012 L119.809095,39.0190012 Z" id="Fill-15"></path>
                                    <path d="M110.008081,43.9597317 C110.246119,43.7837002 110.431823,43.6464107 110.641349,43.4914428 C111.229409,44.0750173 111.918951,44.3121709 112.71785,44.0808474 C112.949323,44.0138953 113.185298,43.8989858 113.370063,43.7462747 C113.90654,43.3029988 113.832446,42.5125496 113.211747,42.1994166 C112.814829,41.9993124 112.372705,41.8902331 111.953653,41.7328203 C111.621262,41.6079432 111.276117,41.5031894 110.966236,41.3348687 C110.030403,40.8268975 109.860081,39.6063371 110.599518,38.8416532 C111.486768,37.9240702 113.458601,37.9259509 114.407001,38.8847208 C114.208542,39.0481517 114.012897,39.2089497 113.817065,39.370312 C113.14797,38.7169642 112.398966,38.6917631 111.606819,39.0094097 C111.229785,39.1604282 111.013131,39.4581396 110.995498,39.8686918 C110.97749,40.2863905 111.182515,40.598395 111.560487,40.7486612 C112.14836,40.9824296 112.755554,41.1671122 113.347179,41.3918533 C113.919295,41.6092597 114.390307,41.9381904 114.523863,42.5964279 C114.65967,43.2661375 114.477531,43.8294007 113.953435,44.2630852 C113.049303,45.011031 111.193019,45.0046367 110.293014,44.2589477 C110.2011,44.1827802 110.126631,44.085361 110.008081,43.9597317" id="Fill-16"></path>
                                    <path d="M18.6189252,38.8975094 C18.4137136,39.0615045 18.2336375,39.2053764 18.0293638,39.3688074 C17.4518074,38.7748891 16.7577643,38.7105699 16.0196401,38.9285406 C15.5741394,39.0603761 15.2531914,39.3319461 15.2169886,39.8399174 C15.1798479,40.3586085 15.4779113,40.6546273 15.9136578,40.8221958 C16.4323143,41.0217358 16.9684157,41.1751991 17.4900735,41.3674045 C18.4095868,41.7064908 18.8046286,42.2246177 18.7804309,43.0278555 C18.7569835,43.8098416 18.2567098,44.4323462 17.3713359,44.6659265 C16.2428593,44.963826 15.1665298,44.8991306 14.2034981,43.9864374 C14.4357212,43.808149 14.6353054,43.6548737 14.8540228,43.4869291 C15.4531508,44.0876179 16.1477567,44.3121709 16.9447807,44.0774622 C17.1891965,44.0056203 17.4388644,43.8749131 17.6281318,43.7058401 C18.1126489,43.2725318 18.0312395,42.5138661 17.4564968,42.2165308 C17.0618302,42.0126653 16.6200811,41.9017052 16.2021546,41.7416595 C15.8420025,41.6038057 15.4647807,41.4926577 15.1320152,41.3044017 C14.2770292,40.8205032 14.0975158,39.6998068 14.7249683,38.938132 C15.5546312,37.9312168 17.6797161,37.8853282 18.6189252,38.8975094" id="Fill-17"></path>
                                    <path d="M75.49782,38.9012707 C75.3081774,39.0532296 75.1196603,39.20406 74.9155741,39.367679 C74.323199,38.7711278 73.6272801,38.7103819 72.8861546,38.9336184 C72.4367148,39.0688392 72.1247706,39.3605324 72.0911939,39.8551509 C72.05818,40.3431869 72.348365,40.6440955 72.7662915,40.8073384 C73.297891,41.0149653 73.8482484,41.1740707 74.3839747,41.371542 C75.2862307,41.704234 75.6690798,42.2016734 75.656512,42.9934391 C75.6435691,43.799874 75.1734956,44.3872099 74.2868086,44.6565231 C73.4618352,44.9070295 72.6355488,44.9017636 71.8437769,44.5297654 C71.5879189,44.40959 71.3663878,44.2156921 71.0634474,44.0110742 C71.3269962,43.8060803 71.516076,43.6588232 71.731417,43.4910666 C72.3224791,44.062981 73.0065805,44.3155561 73.80473,44.0829162 C74.0362028,44.0155879 74.2733029,43.9046278 74.4590063,43.7532332 C75.0140532,43.3005539 74.9277668,42.5057792 74.2783676,42.183807 C73.8938302,41.9931062 73.4678378,41.8877882 73.0637921,41.7352652 C72.7177085,41.6047461 72.3575564,41.4956667 72.0362332,41.3175665 C71.1819975,40.8438236 70.9831635,39.7182375 71.5944842,38.9561865 C72.4230215,37.9231298 74.5931255,37.8778055 75.49782,38.9012707" id="Fill-18"></path>
                                    <path d="M49.3192649,44.0046799 L52.5225551,44.0046799 L52.5225551,44.6160885 L48.5927706,44.6160885 L48.5927706,38.3430854 L49.3192649,38.3430854 L49.3192649,44.0046799" id="Fill-19"></path>
                                    <path d="M66.0442028,38.3233382 L66.7500634,38.3233382 L66.7500634,44.5829886 C66.05527,44.7287412 66.018692,44.7041043 66.0183169,44.0733247 C66.0171914,42.3350136 66.0171914,40.5967024 66.0190672,38.8582032 C66.0190672,38.6919512 66.0342611,38.5255112 66.0442028,38.3233382" id="Fill-20"></path>
                                    <path d="M104.944943,38.3111138 C105.121455,38.3111138 105.244882,38.3092331 105.368122,38.311678 C105.443904,38.3133706 105.519686,38.3214575 105.631295,38.3291683 L105.631295,44.6172169 L104.944943,44.6172169 L104.944943,38.3111138" id="Fill-21"></path>
                                </g>
                            </g>
                        </g>
                    </g>
                </g>
            </g>
        </g>
    </g>
</svg>