<?xml version="1.0" encoding="UTF-8" standalone="no"?>
<svg
   width="300"
   height="90"
   viewBox="0 0 300 90"
   version="1.1"
   id="svg9302"
   sodipodi:docname="carpentry.svg"
   inkscape:version="1.1.1 (3bf5ae0d25, 2021-09-20)"
   xmlns:inkscape="http://www.inkscape.org/namespaces/inkscape"
   xmlns:sodipodi="http://sodipodi.sourceforge.net/DTD/sodipodi-0.dtd"
   xmlns="http://www.w3.org/2000/svg"
   xmlns:svg="http://www.w3.org/2000/svg"
   xmlns:rdf="http://www.w3.org/1999/02/22-rdf-syntax-ns#"
   xmlns:cc="http://creativecommons.org/ns#"
   xmlns:dc="http://purl.org/dc/elements/1.1/"
   xmlns:sketch="http://www.bohemiancoding.com/sketch/ns">
  <sodipodi:namedview
     id="namedview9304"
     pagecolor="#ffffff"
     bordercolor="#666666"
     borderopacity="1.0"
     inkscape:pageshadow="2"
     inkscape:pageopacity="0.0"
     inkscape:pagecheckerboard="0"
     showgrid="false"
     inkscape:zoom="2.3184751"
     inkscape:cx="108.26081"
     inkscape:cy="-65.775992"
     inkscape:window-width="1866"
     inkscape:window-height="1016"
     inkscape:window-x="54"
     inkscape:window-y="27"
     inkscape:window-maximized="1"
     inkscape:current-layer="svg9302" />
  <!-- Generator: Sketch 3.3.3 (12072) - http://www.bohemiancoding.com/sketch -->
  <title
     id="title9275">Imported Layers</title>
  <desc
     id="desc9277">Created with Sketch.</desc>
  <defs
     id="defs9279" />
  <g
     id="Page-1"
     stroke="none"
     stroke-width="1"
     fill="none"
     fill-rule="evenodd"
     sketch:type="MSPage"
     transform="matrix(1.4715629,0,0,1.4715629,53.611479,0.78975916)">
    <g
       id="Imported-Layers"
       sketch:type="MSLayerGroup"
       fill="#b1b1b1">
      <path
         d="M 24.08131,0.50541176 C 23.375434,1.1142353 22.597589,1.6595294 21.983715,2.3497059 c -0.617775,0.6944118 -1.187509,1.4800588 -1.574482,2.319 -0.795395,1.724647 -0.131887,3.6287647 1.619862,4.3688823 1.140178,0.4815883 2.428729,0.7967647 3.663213,0.8405295 3.686968,0.1305883 7.38014,0.1000588 11.07083,0.1023529 C 37.106503,9.9806471 37.448628,9.7628824 37.793766,9.654 38.093169,9.5594118 38.3947,9.4034118 38.697648,9.3977647 43.30197,9.3141177 47.90647,9.2320588 52.511323,9.189 c 2.980029,-0.027706 5.960589,0.00106 8.940617,0.024529 0.436963,0.00335 0.876229,0.1016471 1.308937,0.1835294 0.769337,0.1454118 1.150992,0.6220596 1.216935,1.4001186 0.219988,2.588647 -0.164504,3.021529 -2.725474,3.030176 -6.201139,0.021 -12.402279,0.05276 -18.603418,0.05982 -1.386047,0.0014 -2.772981,-0.06424 -4.157433,-0.139765 -0.256682,-0.01412 -0.662622,-0.169589 -0.72502,-0.352765 -0.238778,-0.699353 -0.742215,-0.702176 -1.332159,-0.701647 -3.839062,0.0044 -7.678301,-0.02806 -11.517364,-0.0055 -0.694885,0.0041 -1.413346,0.127765 -2.077032,0.335471 -0.995175,0.311647 -1.323295,0.918882 -1.274015,1.946294 0.02996,0.626647 0.160781,1.069235 0.953162,1.053353 0.666346,-0.01323 1.01432,0.435176 1.02921,1.083353 0.02375,1.028471 0.02393,2.057823 0.0117,3.086471 -0.0083,0.709058 -0.408245,1.098176 -1.107739,1.104882 -1.890016,0.01782 -3.780387,0.01676 -5.670226,7.06e-4 -0.678222,-0.0058 -1.131315,-0.335471 -1.161982,-1.059 -0.03971,-0.939 -0.09041,-1.879941 -0.06594,-2.818412 0.02606,-1.001118 0.371906,-1.302529 1.350772,-1.327941 1.090898,-0.02841 1.629966,-0.738 1.315495,-1.798765 -0.287526,-0.969529 -0.895728,-1.613294 -1.946387,-1.831764 -0.241614,-0.0503 -0.586398,-0.402706 -0.599161,-0.631765 C 15.449137,7.7846471 16.690889,4.2755294 19.852084,1.644 20.715372,0.92541177 21.942057,0.62982353 23.019838,0.18282353 23.256134,0.08470588 23.568478,0.16852941 23.845723,0.16852941 23.924252,0.28076471 24.002781,0.393 24.08131,0.50541176 Z M 39.020805,9.9889412 c 0.01968,0.1187648 0.03918,0.2375298 0.05867,0.3562938 0.194994,0.02294 0.390519,0.07006 0.584625,0.06512 1.888244,-0.048 3.776133,-0.148059 5.664377,-0.150882 5.977251,-0.0094 11.981093,-0.6845298 17.897188,0.473823 C 63.184544,10.005706 62.827529,9.6915882 61.645693,9.6847059 57.77685,9.6619412 53.907652,9.651 50.038809,9.6658235 c -3.159067,0.012 -6.318135,0.058412 -9.476671,0.1125883 -0.514782,0.00882 -1.027614,0.1372941 -1.541333,0.2105294 z M 22.68569,18.477353 c 0,-0.570353 0.05424,-1.072765 -0.02836,-1.551882 -0.03031,-0.176118 -0.373323,-0.395118 -0.59207,-0.41753 -0.246932,-0.02523 -0.514428,0.148765 -0.773059,0.236118 0.130822,0.224294 0.234701,0.470823 0.398672,0.667941 0.284158,0.341823 0.605543,0.652941 0.99482,1.065353 z"
         id="Fill-1"
         sketch:type="MSShapeGroup" />
      <path
         d="m 54.330433,29.380059 c -0.563708,1.982117 -1.046936,3.718765 -1.553919,5.448353 -0.247109,0.843353 -0.52595,1.678235 -0.814008,2.508706 -0.244096,0.70447 -0.718461,1.101353 -1.511197,1.126764 -0.808159,0.02594 -1.387821,-0.297 -1.695555,-1.016117 -0.357015,-0.83453 -0.666877,-1.690941 -0.96309,-2.549294 -0.784936,-2.27453 -1.557996,-4.553118 -2.319178,-6.835412 -0.128518,-0.385588 -0.212011,-0.794647 -0.250301,-1.199118 -0.06133,-0.649235 0.274232,-1.090941 0.898919,-1.222765 0.638337,-0.13447 1.277738,-0.09088 1.526088,0.671118 0.426858,1.309765 0.831735,2.626765 1.230053,3.945353 0.445825,1.476 0.873924,2.957294 1.525911,4.452706 0.228851,-0.771882 0.460006,-1.542882 0.685667,-2.315471 0.525772,-1.801588 1.049595,-3.603706 1.572709,-5.405823 0.244273,-0.841588 0.709421,-1.40153 1.677828,-1.395177 0.949794,0.006 1.455181,0.330883 1.777452,1.391118 0.690985,2.273471 1.326663,4.563529 1.987513,6.846 0.08066,0.278294 0.177266,0.552176 0.350279,1.087235 0.195879,-0.529941 0.326702,-0.831353 0.419944,-1.143706 0.695771,-2.332235 1.384452,-4.666588 2.074728,-7.000588 0.163263,-0.551647 0.359142,-1.060588 1.043391,-1.161 1.147092,-0.168353 1.869099,0.628588 1.531583,1.791706 -0.334856,1.153412 -0.757283,2.281765 -1.149042,3.418588 -0.716688,2.080236 -1.434973,4.160118 -2.161056,6.237177 -0.294086,0.841235 -0.786355,1.426941 -1.791811,1.403647 -0.996415,-0.02329 -1.477871,-0.60353 -1.736503,-1.466647 -0.664573,-2.218941 -1.326132,-4.438765 -1.993895,-6.656824 -0.07286,-0.241764 -0.177621,-0.473823 -0.36251,-0.960529"
         id="Fill-2"
         sketch:type="MSShapeGroup" />
      <path
         d="m 61.612721,44.127529 c 1.062004,-0.608647 1.976877,-1.394294 3.029841,-1.684941 2.592878,-0.715764 5.068405,0.669883 6.017313,3.217412 0.767387,2.060824 0.714385,4.143353 -0.08225,6.198353 -1.425224,3.676412 -6.163914,4.333235 -8.381164,1.640823 -0.122846,-0.14947 -0.293553,-0.259941 -0.622383,-0.544764 0,1.091823 0.01117,1.992353 -0.003,2.892353 -0.01436,0.910235 -0.0211,1.822764 -0.09165,2.729647 -0.06931,0.889059 -0.543677,1.347353 -1.317977,1.372764 -0.882079,0.02894 -1.278801,-0.474882 -1.378425,-1.280117 -0.03598,-0.290294 -0.05743,-0.584294 -0.05761,-0.876706 -0.0035,-4.528588 -0.0051,-9.057176 0.0028,-13.585765 7.1e-4,-0.347117 0.0468,-0.70147 0.126037,-1.039765 0.159894,-0.680999 0.666345,-0.959117 1.317445,-0.930529 0.688504,0.03018 1.159855,0.391588 1.303796,1.095353 0.06311,0.308647 0.107423,0.621176 0.137204,0.795882 z m 6.687914,4.534412 c -0.04698,-0.01271 -0.09395,-0.02524 -0.140927,-0.03794 -0.02074,-0.352059 -0.02322,-0.706412 -0.06523,-1.055824 -0.185067,-1.539529 -1.227394,-2.826352 -2.500345,-3.104647 -1.187687,-0.259764 -2.564162,0.28553 -3.187608,1.417412 -1.007229,1.828412 -1.0519,3.747 0.02623,5.541 1.245121,2.071941 4.093795,1.919118 5.149949,-0.255 0.374033,-0.770117 0.486242,-1.666412 0.71793,-2.505 z"
         id="Fill-3"
         sketch:type="MSShapeGroup" />
      <path
         d="m 73.685993,36.649235 c -1.551437,1.200883 -3.199484,1.926353 -5.17512,1.800353 -1.840559,-0.117529 -3.380828,-1.372588 -3.580253,-3.056823 -0.213075,-1.799471 0.828189,-3.275824 2.7315,-3.759883 1.538497,-0.391235 3.105002,-0.674117 4.642789,-1.068176 0.457348,-0.117177 1.193536,-0.411353 1.223672,-0.687 0.08456,-0.775059 -0.125328,-1.603941 -0.939159,-2.028353 -0.993579,-0.518471 -3.354592,-0.561706 -4.352781,0.874412 -0.201197,0.289588 -0.406826,0.576176 -0.607847,0.865941 -0.403458,0.581294 -1.03435,0.573176 -1.486734,0.281117 -0.336452,-0.217235 -0.700381,-0.884117 -0.592957,-1.192235 0.247464,-0.710647 0.63816,-1.513235 1.221721,-1.93147 0.757815,-0.543 1.733844,-0.920647 2.66219,-1.057059 1.181836,-0.173471 2.424652,-0.151412 3.615351,-0.0048 2.295425,0.282706 3.363988,1.545529 3.475489,3.925765 0.04928,1.055294 -0.04024,2.118529 0.03581,3.170823 0.09236,1.276236 0.259341,2.550177 0.460006,3.814765 0.109906,0.691412 0.139332,1.294765 -0.574698,1.667647 -0.713498,0.372706 -1.310177,0.171353 -1.802624,-0.414529 -0.30153,-0.358412 -0.584625,-0.732353 -0.956353,-1.20053 z m -0.179925,-4.638529 c -1.425933,0.343588 -2.862146,0.637059 -4.264502,1.045941 -0.94164,0.274765 -1.425224,1.072588 -1.308228,1.852059 0.138268,0.920294 0.906542,1.594059 1.898171,1.664294 2.600323,0.184588 4.143606,-1.694294 3.674559,-4.562294 z"
         id="Fill-4"
         sketch:type="MSShapeGroup" />
      <path
         d="m 43.113536,53.371588 c -0.333084,0.208059 -0.680349,0.416118 -1.018751,0.637412 -1.445432,0.946059 -3.0208,1.285235 -4.729295,1.019471 -1.710091,-0.266118 -2.880937,-1.509883 -3.010518,-3.200118 -0.123023,-1.604647 0.780327,-2.970353 2.445924,-3.435706 1.642552,-0.459 3.332611,-0.747 4.986863,-1.168235 0.426681,-0.108706 1.09338,-0.391588 1.136102,-0.672177 0.114159,-0.749294 -0.08473,-1.533882 -0.829962,-1.996588 -1.176164,-0.730235 -3.518033,-0.318706 -4.388944,0.767471 -0.220342,0.274941 -0.416753,0.571058 -0.603592,0.870176 -0.338048,0.541765 -0.818617,0.631765 -1.381616,0.447353 -0.587639,-0.192353 -0.827303,-0.608823 -0.779264,-1.221 0.08757,-1.114941 0.757637,-1.817471 1.66666,-2.337353 1.669852,-0.955059 3.494634,-0.952765 5.336079,-0.809294 0.26395,0.02047 0.525418,0.07641 0.787418,0.12 1.920683,0.319588 2.990665,1.437706 3.139214,3.369 0.08314,1.082823 0.02889,2.176235 0.115046,3.258706 0.117882,1.479706 0.252605,2.963117 0.497233,4.425529 0.109905,0.657353 -0.01294,1.102236 -0.542791,1.42853 -0.55449,0.341294 -1.137165,0.352235 -1.62128,-0.128824 -0.414095,-0.411529 -0.773591,-0.877588 -1.204526,-1.374353 z m -0.256328,-4.66747 c -1.249374,0.286058 -2.500699,0.571235 -3.75096,0.860823 -0.142345,0.033 -0.282032,0.08294 -0.417818,0.137824 -0.789722,0.319059 -1.375766,0.791294 -1.331804,1.745647 0.03847,0.836294 0.586576,1.468764 1.50588,1.720588 2.558134,0.700765 4.719723,-1.688118 3.994702,-4.464882 z"
         id="Fill-5"
         sketch:type="MSShapeGroup" />
      <path
         d="m 125.22625,52.033059 c 0.21751,-0.521294 0.36499,-0.832059 0.4788,-1.154647 0.7805,-2.212236 1.54895,-4.428706 2.33353,-6.639353 0.16628,-0.468706 0.35791,-0.932471 0.58357,-1.375235 0.29568,-0.580236 0.81418,-0.762 1.42043,-0.589059 0.63674,0.181764 1.01875,0.617117 0.92728,1.306588 -0.061,0.460412 -0.17709,0.924 -0.34194,1.358647 -1.48762,3.921353 -2.97879,7.841471 -4.49495,11.751882 -1.0854,2.799883 -2.50088,3.69653 -6.1258,3.067942 -0.69205,-0.120177 -1.13025,-0.558706 -0.99819,-1.309589 0.13632,-0.77347 0.72874,-0.928941 1.40856,-0.850941 1.83861,0.211235 3.03002,-0.714882 3.21774,-2.559882 0.0273,-0.268235 -0.10547,-0.566118 -0.21077,-0.831883 -1.21941,-3.082235 -2.44858,-6.160764 -3.67278,-9.241235 -0.0973,-0.244941 -0.1856,-0.494117 -0.26378,-0.745765 -0.27245,-0.876529 0.0156,-1.538823 0.80462,-1.865647 0.78759,-0.326294 1.45695,-0.06529 1.81964,0.859059 0.57807,1.473353 1.06963,2.980235 1.59451,4.474059 0.48429,1.377882 0.96451,2.757177 1.51953,4.345059"
         id="Fill-6"
         sketch:type="MSShapeGroup" />
      <path
         d="m 75.823651,49.364294 c 0.01276,1.525765 0.443344,2.708471 1.688996,3.423706 1.201335,0.690176 2.447165,0.599824 3.604538,-0.136059 0.567253,-0.360706 1.082922,-0.813353 1.578027,-1.27147 0.500424,-0.462883 1.144079,-0.660177 1.566505,-0.203118 0.269977,0.292059 0.282031,1.080353 0.08544,1.492765 -0.660496,1.38547 -1.974927,2.042647 -3.39696,2.261294 -1.173859,0.180529 -2.435111,0.197647 -3.597093,-0.02506 -2.82492,-0.541588 -4.514802,-2.693294 -4.612122,-5.664529 -0.0257,-0.786001 0.03049,-1.591765 0.18028,-2.363295 0.526837,-2.711647 2.606883,-4.485176 5.37295,-4.654764 3.139214,-0.19253 5.391208,1.132411 6.253788,3.679235 0.03776,0.111353 0.08597,0.220059 0.114514,0.333706 0.577357,2.292882 -0.07498,3.123706 -2.459397,3.127059 -2.091036,0.0028 -4.18225,5.29e-4 -6.379469,5.29e-4 z m 6.106479,-1.64647 c -0.103878,-1.357059 -0.417286,-2.496706 -1.611176,-3.13253 -1.065904,-0.567706 -2.180911,-0.543353 -3.16864,0.192353 -0.956353,0.712235 -1.256643,1.746706 -1.323295,2.940177 z"
         id="Fill-7"
         sketch:type="MSShapeGroup" />
      <path
         d="m 91.149942,32.709529 c 0.09377,1.673824 0.581789,2.918648 2.010735,3.565059 1.417069,0.640941 2.70881,0.263471 3.875933,-0.659823 0.392291,-0.310236 0.706585,-0.760942 1.142838,-0.961765 0.422249,-0.194471 1.115716,-0.360706 1.394556,-0.150529 0.271927,0.204706 0.357192,0.976941 0.198007,1.368705 -0.557326,1.373648 -1.809892,2.099648 -3.152509,2.302412 -1.423628,0.215118 -2.95787,0.231 -4.360581,-0.06124 -2.352327,-0.490059 -3.925036,-2.511177 -4.089894,-4.954765 -0.07233,-1.071706 -0.03208,-2.187353 0.188257,-3.234706 0.541372,-2.572941 2.683816,-4.235117 5.336433,-4.329353 1.531052,-0.05435 3.009632,0.05594 4.296056,1.021236 1.414764,1.061823 2.161407,2.454 2.158047,4.227353 -0.002,1.254882 -0.394599,1.723235 -1.674287,1.76947 -2.035729,0.07359 -4.074118,0.07006 -6.111442,0.09724 -0.375274,0.0049 -0.750902,7.06e-4 -1.212149,7.06e-4 z m 6.033268,-1.693235 c 0.08846,-2.053588 -1.211795,-3.534176 -3.019914,-3.487765 -1.751748,0.04518 -3.076638,1.658294 -2.851687,3.562236 1.78472,0 3.579544,0.0021 5.374368,-0.0032 0.168758,-5.29e-4 0.337516,-0.04729 0.497233,-0.07129 z"
         id="Fill-8"
         sketch:type="MSShapeGroup" />
      <path
         d="m 89.764249,44.559882 c 1.03311,-1.283647 2.084832,-2.049882 3.510942,-2.286706 2.670343,-0.44347 4.801442,1.143177 4.907448,3.834706 0.09342,2.377236 0.06258,4.759412 0.07711,7.139295 0.0016,0.262235 -0.03723,0.529764 -0.09626,0.786 -0.159363,0.690529 -0.61671,1.048588 -1.320813,1.075764 -0.695063,0.02682 -1.224381,-0.256059 -1.41831,-0.944823 -0.117883,-0.418059 -0.172126,-0.866295 -0.176558,-1.301824 -0.01897,-1.851706 0.0044,-3.703941 -0.01259,-5.555823 -0.01684,-1.841824 -0.760651,-2.781353 -2.200764,-2.835353 -1.496307,-0.05594 -2.917454,1.199294 -2.999705,2.786117 -0.09431,1.818177 -0.06541,3.642353 -0.101751,5.463706 -0.0089,0.439235 -0.02039,0.886059 -0.106892,1.314177 -0.140395,0.694235 -0.625219,1.041706 -1.323118,1.072059 -0.694176,0.03035 -1.221366,-0.25253 -1.418132,-0.942883 -0.110969,-0.389294 -0.167163,-0.807 -0.169113,-1.212176 -0.01383,-2.910353 -0.0097,-5.820706 -0.0039,-8.730883 7.1e-4,-0.291176 0.02712,-0.586941 0.08243,-0.87247 0.143055,-0.737471 0.607848,-1.148471 1.361762,-1.112294 0.782809,0.03723 1.232358,0.492705 1.320459,1.277117 0.02872,0.254824 0.04343,0.511235 0.08775,1.046294"
         id="Fill-9"
         sketch:type="MSShapeGroup" />
      <path
         d="M 5.4403112,38.458412 C 4.090249,38.484529 2.7455047,38.342824 1.6514154,37.515353 1.0501272,37.060588 0.57133018,36.382412 0.1919797,35.717471 -0.17248038,35.078471 0.04857104,34.444235 0.74168336,34.085294 1.470249,33.708 2.0277524,34.026882 2.3721813,34.659 c 0.8166671,1.499294 2.058774,2.101588 3.7357159,1.922823 1.0281461,-0.109588 1.8175142,-0.674117 1.9109337,-1.406294 0.10246,-0.805058 -0.3839594,-1.441411 -1.486203,-1.804411 C 5.4718647,33.021706 4.3802571,32.765647 3.3168349,32.423294 2.7887578,32.253177 2.2635169,32.031353 1.788797,31.747059 -0.18914344,30.562588 -0.33982003,28.107882 1.4544723,26.664 c 1.8861163,-1.517824 6.1557591,-1.448118 7.9706143,0.165353 0.3375156,0.3 0.7117254,0.724235 0.7654374,1.130823 0.05885,0.445765 -0.09643,1.081236 -0.406118,1.375059 -0.4472436,0.424059 -1.1148296,0.346941 -1.6161394,-0.09018 -0.3300704,-0.288 -0.5961475,-0.647824 -0.8987416,-0.967941 -0.9148728,-0.967236 -2.451774,-1.197883 -3.5676671,-0.540353 -0.9524533,0.561353 -1.0327551,1.573588 -0.061157,2.083058 0.8187944,0.429353 1.7659297,0.614295 2.6526171,0.917648 0.9712436,0.332294 1.9974398,0.565058 2.8956495,1.037117 2.2819525,1.199471 2.3773225,4.272177 0.2242422,5.71853 -1.1988538,0.805411 -2.5677063,0.974294 -3.9728985,0.965294"
         id="Fill-10"
         sketch:type="MSShapeGroup" />
      <path
         d="m 19.379491,38.613529 c -2.865337,0 -5.377381,-1.665529 -6.43779,-4.26847 -1.085403,-2.664353 -0.45983,-5.663647 1.590081,-7.622294 0.735656,-0.702883 1.538497,-0.796412 2.1038,-0.245294 0.575053,0.560647 0.482342,1.329882 -0.248351,2.062058 -1.440113,1.442824 -1.770184,3.44753 -0.851411,5.172177 0.886156,1.663765 2.816057,2.620588 4.594572,2.277882 1.953301,-0.376235 3.434363,-1.950353 3.606134,-3.941647 0.123732,-1.433294 -0.441748,-2.633823 -1.489925,-3.614823 -0.547399,-0.512118 -0.640287,-1.117942 -0.262709,-1.748824 0.333084,-0.556765 0.897678,-0.667235 1.473794,-0.491823 0.291426,0.08894 0.55644,0.324352 0.786886,0.54247 2.032716,1.923882 2.666267,4.916294 1.61029,7.536353 -1.076895,2.671765 -3.567667,4.342059 -6.475371,4.342235"
         id="Fill-11"
         sketch:type="MSShapeGroup" />
      <path
         d="m 23.075322,48.969177 c 0.386973,0.959294 0.604479,2.041764 1.197258,2.851941 1.170669,1.600235 3.543914,1.533176 4.848064,-0.0035 0.397786,-0.468529 0.671309,-1.059706 1.123693,-1.45747 0.27884,-0.244942 0.862756,-0.41153 1.174037,-0.284295 0.35471,0.145059 0.709243,0.622589 0.797344,1.014706 0.194994,0.868589 -0.253136,1.596706 -0.839889,2.214883 -1.360698,1.433117 -3.127159,1.822059 -5.002817,1.798764 -2.56877,-0.03159 -4.656261,-1.002705 -5.583897,-3.526058 -1.007761,-2.742 -0.781391,-5.434589 1.275788,-7.656177 2.231431,-2.409882 6.984657,-2.293941 9.19464,0.135706 0.393531,0.432529 0.723424,1.046824 0.787418,1.610471 0.04627,0.408882 -0.290186,1.011 -0.645073,1.277294 -0.463375,0.347647 -1.073881,0.24 -1.498966,-0.266647 -0.169822,-0.202412 -0.337516,-0.408177 -0.487838,-0.625236 -0.845562,-1.219941 -1.962873,-1.862823 -3.477439,-1.538647 -1.351125,0.289236 -2.318292,1.469471 -2.554765,3.04853 -0.06506,0.434294 -0.06949,0.877588 -0.101751,1.316647 -0.0686,0.02965 -0.137205,0.05947 -0.205807,0.08912"
         id="Fill-12"
         sketch:type="MSShapeGroup" />
      <path
         d="m 32.325269,28.016823 v 1.183059 c -5.32e-4,2.440236 0.0117,4.880647 -0.0069,7.320706 -0.0099,1.292647 -0.496169,1.909412 -1.444723,1.934647 -0.706939,0.01888 -1.208249,-0.293823 -1.396506,-0.973588 -0.115755,-0.418588 -0.169821,-0.866294 -0.172835,-1.30147 -0.01595,-2.381471 -0.0076,-4.762942 -0.0076,-7.144412 v -0.919588 c -0.83333,-0.440648 -2.333537,0.274764 -2.29897,-1.262295 0.03191,-1.419882 1.40661,-0.741 2.222568,-1.101176 0.07303,-0.757235 0.130468,-1.565294 0.232751,-2.36753 0.180635,-1.416176 0.855311,-2.235529 2.259262,-2.439882 1.037364,-0.150882 2.112663,-0.07677 3.168995,-0.04023 0.299049,0.01041 0.697012,0.164647 0.859211,0.389117 0.21272,0.294353 0.383605,0.763942 0.295681,1.082647 -0.07038,0.255353 -0.533218,0.50153 -0.858502,0.56453 -0.421186,0.08153 -0.878888,-0.04359 -1.320813,-0.04306 -0.974967,0.0014 -1.35414,0.318177 -1.451459,1.269177 -0.05283,0.517058 -0.0094,1.044 -0.0094,1.630764 0.569203,0.05382 1.119438,0.096 1.667369,0.159883 0.581434,0.06794 0.911328,0.377294 0.892005,0.991058 -0.01932,0.617295 -0.366587,0.883765 -0.957771,0.919589 -0.499537,0.03053 -0.997479,0.087 -1.672333,0.148058"
         id="Fill-13"
         sketch:type="MSShapeGroup" />
      <path
         d="m 101.7847,44.694882 c -0.41889,-0.05312 -0.81206,0.0088 -1.03134,-0.157058 -0.33486,-0.253589 -0.763134,-0.669883 -0.754625,-1.006942 0.0083,-0.325941 0.511055,-0.900529 0.810815,-0.909706 0.94022,-0.02841 1.03861,-0.497294 0.98614,-1.243764 -0.0473,-0.672706 -0.0337,-1.353883 0.01,-2.027647 0.0601,-0.939177 0.694,-1.559471 1.49826,-1.531941 0.80727,0.02753 1.38941,0.665647 1.4238,1.599352 0.0282,0.763589 0.0507,1.529471 0.023,2.29253 -0.0216,0.595941 0.17549,0.886941 0.80815,0.830823 0.29214,-0.02594 0.65093,-0.08929 0.87091,0.04306 0.36198,0.217765 0.78689,0.530118 0.91009,0.894883 0.17,0.503117 -0.18879,0.880058 -0.7415,0.990706 -0.17266,0.03459 -0.34089,0.09935 -0.51479,0.120352 -1.32382,0.159353 -1.32453,0.156883 -1.32471,1.456059 -1.8e-4,1.617353 -0.008,3.234883 0.002,4.852235 0.0108,1.752177 0.39655,2.090295 2.10469,1.880118 0.14642,-0.018 0.31961,-0.103588 0.43271,-0.05259 0.37261,0.167647 0.9544,0.324176 1.02477,0.595941 0.0917,0.353118 -0.1255,0.912882 -0.40257,1.197882 -0.27636,0.284295 -0.78263,0.438353 -1.20275,0.473118 -0.87676,0.07271 -1.76912,0.09618 -2.64393,0.01712 -1.18769,-0.107294 -2.01818,-0.836118 -2.09388,-2.024294 -0.14553,-2.283706 -0.14075,-4.576941 -0.19375,-6.866295 -0.0108,-0.462529 -0.002,-0.925764 -0.002,-1.423941"
         id="Fill-14"
         sketch:type="MSShapeGroup" />
      <path
         d="m 38.049739,28.062882 c -0.847866,-0.228529 -1.85155,-0.01147 -1.854918,-1.150235 -0.0034,-1.145824 1.007761,-0.916765 1.86059,-1.157294 0,-0.935824 -0.0101,-1.921765 0.003,-2.907177 0.01081,-0.802235 0.276536,-1.453941 1.168896,-1.62247 0.873924,-0.165177 1.631384,0.339353 1.691123,1.227176 0.07268,1.078236 0.0172,2.164941 0.0172,3.34553 0.597033,0.03494 1.05509,0.05312 1.511552,0.09053 0.600756,0.04941 1.115538,0.211059 1.145851,0.95153 0.02996,0.730235 -0.417995,0.968823 -1.049241,1.029705 -0.465325,0.045 -0.92994,0.09582 -1.532647,0.158295 0,0.889764 -0.0076,1.760117 0.0018,2.630294 0.0156,1.438412 0.01223,2.878058 0.07481,4.314706 0.04343,0.998294 0.504678,1.340294 1.509248,1.230882 0.320853,-0.03494 0.665281,-0.209824 0.949794,-0.135 0.379351,0.09953 0.936322,0.32347 1.006165,0.597706 0.09058,0.356117 -0.117527,0.914117 -0.391759,1.200176 -0.274054,0.285353 -0.779441,0.440824 -1.199208,0.478941 -0.876052,0.07941 -1.773907,0.137647 -2.642158,0.03371 -1.319927,-0.158117 -2.110359,-1.027588 -2.162121,-2.382705 -0.08526,-2.229 -0.07782,-4.461354 -0.107246,-6.692295 -0.0053,-0.404823 -7.09e-4,-0.809647 -7.09e-4,-1.242"
         id="Fill-15"
         sketch:type="MSShapeGroup" />
      <path
         d="m 51.659735,44.193176 c 0.179571,-0.248823 0.31323,-0.436588 0.449548,-0.622588 1.127947,-1.539353 3.042426,-1.801412 4.570641,-0.642706 0.547045,0.414706 0.711371,0.951 0.468161,1.551 -0.241614,0.595941 -0.767741,0.771177 -1.390656,0.656294 -0.08668,-0.01588 -0.173367,-0.03371 -0.258986,-0.05524 -2.483682,-0.623294 -3.593726,0.14453 -3.763902,2.726294 -0.121605,1.842 -0.107246,3.692647 -0.164326,5.539236 -0.03474,1.119529 -0.466565,1.679823 -1.324358,1.759235 -0.906896,0.08418 -1.612417,-0.478941 -1.621635,-1.441765 -0.03138,-3.28747 -0.02996,-6.575647 0,-9.863294 0.0089,-0.971471 0.543854,-1.523823 1.333931,-1.573235 0.84308,-0.05277 1.238207,0.330706 1.448268,1.402059 0.02251,0.114882 0.04946,0.229941 0.08704,0.340588 0.01702,0.05047 0.06506,0.09071 0.166276,0.224117"
         id="Fill-16"
         sketch:type="MSShapeGroup" />
      <path
         d="m 82.124946,27.641294 c 0.284336,-0.373412 0.439798,-0.578471 0.596147,-0.782823 1.081681,-1.41353 2.991019,-1.704 4.45081,-0.655236 0.535876,0.385059 0.893955,0.877412 0.562644,1.579941 -0.330603,0.701295 -0.866302,0.904942 -1.600363,0.634765 -0.274231,-0.100941 -0.563708,-0.170823 -0.85212,-0.221118 -1.450218,-0.252176 -2.31457,0.204353 -2.677258,1.610471 -0.252959,0.981177 -0.334324,2.018471 -0.385732,3.036 -0.06364,1.259294 0.01418,2.525294 -0.02694,3.786353 -0.03882,1.186941 -0.577712,1.802647 -1.487444,1.825412 -0.757106,0.01906 -1.23023,-0.363706 -1.419019,-1.066765 -0.08987,-0.334765 -0.104233,-0.697059 -0.105296,-1.047 -0.0078,-2.847882 -0.0069,-5.695941 -7.09e-4,-8.544 7.09e-4,-0.321353 0.03209,-0.645176 0.07995,-0.963353 0.11345,-0.755118 0.485888,-1.216059 1.328436,-1.244117 0.850879,-0.02841 1.231471,0.428294 1.397747,1.167882 0.05052,0.225353 0.07321,0.456882 0.139154,0.883588"
         id="Fill-17"
         sketch:type="MSShapeGroup" />
      <path
         d="m 112.97057,44.283706 c 0.23523,-0.300353 0.36358,-0.454588 0.48146,-0.616235 1.16925,-1.601824 2.79797,-1.906412 4.47686,-0.853059 0.64206,0.402882 0.88173,0.958411 0.61796,1.653176 -0.27264,0.71753 -0.88563,0.787059 -1.54772,0.637765 -2.67672,-0.603177 -3.43454,-0.183706 -3.81743,2.530941 -0.24073,1.705941 -0.14182,3.459 -0.20262,5.190706 -0.0145,0.409765 -0.0106,0.829235 -0.0993,1.225765 -0.1645,0.735882 -0.694,1.062529 -1.42753,1.054941 -0.70499,-0.0074 -1.17598,-0.349235 -1.33552,-1.048588 -0.0585,-0.255883 -0.0909,-0.523412 -0.0913,-0.785647 -0.006,-3.029294 -0.005,-6.058412 0,-9.08753 3.6e-4,-0.233823 0.0372,-0.468529 0.0702,-0.700941 0.10991,-0.774706 0.54332,-1.224882 1.34404,-1.255941 0.77412,-0.02982 1.20027,0.390706 1.35485,1.118118 0.0541,0.255176 0.0968,0.512646 0.17602,0.936529"
         id="Fill-18"
         sketch:type="MSShapeGroup" />
      <path
         d="m 19.410867,33.474 c -1.11412,-0.436941 -1.564554,-1.163647 -1.494357,-2.427353 0.124796,-2.252824 0.03262,-4.517294 0.03669,-6.776824 0.0011,-0.555352 0.110437,-1.151117 -0.718461,-1.24447 -0.0741,-0.0083 -0.119123,-0.273706 -0.211479,-0.504353 h 4.66867 c 0.196234,0.808412 -0.47082,0.675706 -0.985248,0.804882 -0.02641,0.358765 -0.07605,0.726706 -0.07729,1.094824 -0.0073,2.259706 -0.0037,4.519235 -0.0037,6.778941 -1.77e-4,1.42253 -1.77e-4,1.42253 -1.214808,2.274353 z M 20.23303,23.184706 c -0.654291,0.60247 -0.767742,8.443941 -0.14075,9.24 0.151563,-3.01553 0.154577,-6.034588 0.14075,-9.24 z"
         id="Fill-19"
         sketch:type="MSShapeGroup" />
    </g>
  </g>
  <metadata
     id="metadata9386">
    <rdf:RDF>
      <cc:Work
         rdf:about="">
        <dc:title>Imported Layers</dc:title>
      </cc:Work>
    </rdf:RDF>
  </metadata>
</svg>
