<?xml version="1.0" encoding="UTF-8" standalone="no"?>
<svg width="131px" height="60px" viewBox="0 0 131 60" version="1.1" xmlns="http://www.w3.org/2000/svg" xmlns:xlink="http://www.w3.org/1999/xlink" xmlns:sketch="http://www.bohemiancoding.com/sketch/ns">
    <!-- Generator: Sketch 3.3.3 (12072) - http://www.bohemiancoding.com/sketch -->
    <title>Imported Layers</title>
    <desc>Created with Sketch.</desc>
    <defs></defs>
    <g id="Page-1" stroke="none" stroke-width="1" fill="none" fill-rule="evenodd" sketch:type="MSPage">
        <g id="Imported-Layers" sketch:type="MSLayerGroup" fill="#B1B1B1">
            <path d="M24.0813099,0.505411765 C23.3754344,1.11423529 22.5975886,1.65952941 21.9837145,2.34970588 C21.3659405,3.04411765 20.7962057,3.82976471 20.4092327,4.66870588 C19.6138376,6.39335294 20.2773464,8.29747059 22.0290947,9.03758824 C23.1692733,9.51917647 24.4578241,9.83435294 25.6923085,9.87811765 C29.379276,10.0087059 33.0724479,9.97817647 36.763138,9.98047059 C37.1065034,9.98064706 37.4486279,9.76288235 37.7937659,9.654 C38.0931691,9.55941176 38.3946996,9.40341176 38.6976482,9.39776471 C43.3019702,9.31411765 47.9064696,9.23205882 52.5113234,9.189 C55.4913518,9.16129412 58.471912,9.19005882 61.4519405,9.21352941 C61.8889026,9.21688235 62.3281691,9.31517647 62.7608769,9.39705882 C63.5302138,9.54247059 63.9118687,10.0191176 63.9778119,10.7971765 C64.1977997,13.3858235 63.8133085,13.8187059 61.2523383,13.8273529 C55.0511989,13.8483529 48.8500595,13.8801176 42.6489202,13.8871765 C41.2628728,13.8885882 39.8759391,13.8229412 38.4914871,13.7474118 C38.2348051,13.7332941 37.8288647,13.5778235 37.7664668,13.3946471 C37.5276888,12.6952941 37.0242517,12.6924706 36.4343085,12.693 C32.5952463,12.6974118 28.7560068,12.6649412 24.9169445,12.6875294 C24.2220595,12.6915882 23.5035981,12.8152941 22.839912,13.023 C21.8447375,13.3346471 21.5166171,13.9418824 21.5658972,14.9692941 C21.5958552,15.5959412 21.7266779,16.0385294 22.5190595,16.0226471 C23.1854046,16.0094118 23.5333789,16.4578235 23.5482693,17.106 C23.572023,18.1344706 23.5722003,19.1638235 23.5599689,20.1924706 C23.5516373,20.9015294 23.151724,21.2906471 22.45223,21.2973529 C20.5622138,21.3151765 18.671843,21.3141176 16.7820041,21.2980588 C16.1037821,21.2922353 15.6506888,20.9625882 15.6200217,20.2390588 C15.5803139,19.3000588 15.5296157,18.3591176 15.5540785,17.4206471 C15.5801367,16.4195294 15.9259838,16.1181176 16.9048498,16.0927059 C17.9957483,16.0642941 18.534816,15.3547059 18.2203451,14.2939412 C17.9328187,13.3244118 17.3246171,12.6806471 16.2739581,12.4621765 C16.0323437,12.4118824 15.6875602,12.0594706 15.674797,11.8304118 C15.4491367,7.78464706 16.690889,4.27552941 19.8520839,1.644 C20.7153721,0.925411765 21.9420568,0.629823529 23.0198376,0.182823529 C23.256134,0.0847058824 23.5684777,0.168529412 23.8457226,0.168529412 C23.9242517,0.280764706 24.0027808,0.393 24.0813099,0.505411765 L24.0813099,0.505411765 Z M39.0208051,9.98894118 C39.0404817,10.1077059 39.0599811,10.2264706 39.0794804,10.3452353 C39.2744736,10.3681765 39.4699986,10.4152941 39.6641055,10.4103529 C41.5523491,10.3623529 43.4402382,10.2622941 45.3284817,10.2594706 C51.3057334,10.2501176 57.3095751,9.57494118 63.2256698,10.7332941 C63.184544,10.0057059 62.8275291,9.69158824 61.6456928,9.68470588 C57.7768498,9.66194118 53.9076522,9.651 50.0388092,9.66582353 C46.8797415,9.67782353 43.7206739,9.72423529 40.562138,9.77841176 C40.0473559,9.78723529 39.5345237,9.91570588 39.0208051,9.98894118 L39.0208051,9.98894118 Z M22.6856901,18.4773529 C22.6856901,17.907 22.7399337,17.4045882 22.6573275,16.9254706 C22.6270149,16.7493529 22.2840041,16.5303529 22.0652571,16.5079412 C21.8183248,16.4827059 21.5508295,16.6567059 21.2921976,16.7440588 C21.4230203,16.9683529 21.5268985,17.2148824 21.6908701,17.412 C21.9750284,17.7538235 22.2964127,18.0649412 22.6856901,18.4773529 L22.6856901,18.4773529 Z" id="Fill-1" sketch:type="MSShapeGroup"></path>
            <path d="M54.330433,29.3800588 C53.7667253,31.3621765 53.2834966,33.0988235 52.7765142,34.8284118 C52.5294046,35.6717647 52.2505643,36.5066471 51.9625061,37.3371176 C51.71841,38.0415882 51.2440447,38.4384706 50.4513085,38.4638824 C49.6431502,38.4898235 49.0634885,38.1668824 48.7557537,37.4477647 C48.3987388,36.6132353 48.0888769,35.7568235 47.7926644,34.8984706 C47.007728,32.6239412 46.2346685,30.3453529 45.4734858,28.0630588 C45.3449675,27.6774706 45.261475,27.2684118 45.2231854,26.8639412 C45.1618512,26.2147059 45.4974168,25.773 46.1221042,25.6411765 C46.7604411,25.5067059 47.3998417,25.5502941 47.6481922,26.3122941 C48.0750501,27.6220588 48.4799269,28.9390588 48.8782449,30.2576471 C49.3240704,31.7336471 49.7521691,33.2149412 50.4041556,34.7103529 C50.6330068,33.9384706 50.8641624,33.1674706 51.0898227,32.3948824 C51.6155954,30.5932941 52.1394181,28.7911765 52.6625318,26.9890588 C52.9068051,26.1474706 53.3719526,25.5875294 54.3403599,25.5938824 C55.2901543,25.5998824 55.7955413,25.9247647 56.1178119,26.985 C56.808797,29.2584706 57.444475,31.5485294 58.1053248,33.831 C58.1859811,34.1092941 58.2825913,34.3831765 58.4556035,34.9182353 C58.6514831,34.3882941 58.7823058,34.0868824 58.875548,33.7745294 C59.5713194,31.4422941 60.26,29.1079412 60.950276,26.7739412 C61.1135386,26.2222941 61.3094181,25.7133529 61.9936671,25.6129412 C63.1407591,25.4445882 63.8627659,26.2415294 63.5252503,27.4046471 C63.1903938,28.5580588 62.7679675,29.6864118 62.3762084,30.8232353 C61.6595196,32.9034706 60.9412355,34.9833529 60.2151516,37.0604118 C59.9210663,37.9016471 59.428797,38.4873529 58.423341,38.4640588 C57.4269256,38.4407647 56.9454696,37.8605294 56.6868376,36.9974118 C56.0222652,34.7784706 55.3607064,32.5586471 54.6929432,30.3405882 C54.6200866,30.0988235 54.5153221,29.8667647 54.330433,29.3800588" id="Fill-2" sketch:type="MSShapeGroup"></path>
            <path d="M61.6127212,44.1275294 C62.6747253,43.5188824 63.5895981,42.7332353 64.6425616,42.4425882 C67.2354398,41.7268235 69.7109675,43.1124706 70.6598755,45.66 C71.4272625,47.7208235 71.3742598,49.8033529 70.5776238,51.8583529 C69.1524005,55.5347647 64.4137104,56.1915882 62.1964601,53.4991765 C62.0736143,53.3497059 61.9029066,53.2392353 61.5740771,52.9544118 C61.5740771,54.0462353 61.5852449,54.9467647 61.5710636,55.8467647 C61.556705,56.757 61.5499689,57.6695294 61.4794168,58.5764118 C61.4101055,59.4654706 60.9357402,59.9237647 60.1614398,59.9491765 C59.2793613,59.9781176 58.8826387,59.4742941 58.7830149,58.6690588 C58.7470298,58.3787647 58.7255805,58.0847647 58.7254032,57.7923529 C58.7218579,53.2637647 58.7202625,48.7351765 58.7282395,44.2065882 C58.7289486,43.8594706 58.7750379,43.5051176 58.854276,43.1668235 C59.0141705,42.4858235 59.5206211,42.2077059 60.1717212,42.2362941 C60.8602246,42.2664706 61.3315765,42.6278824 61.4755169,43.3316471 C61.5386238,43.6402941 61.5829405,43.9528235 61.6127212,44.1275294 L61.6127212,44.1275294 Z M68.3006346,48.6619412 C68.253659,48.6492353 68.2066834,48.6367059 68.1597077,48.624 C68.1389675,48.2719412 68.1364858,47.9175882 68.0944736,47.5681765 C67.9094073,46.0286471 66.8670798,44.7418235 65.5941286,44.4635294 C64.4064425,44.2037647 63.0299675,44.7490588 62.406521,45.8809412 C61.3992923,47.7093529 61.3546211,49.6279412 62.4327564,51.4219412 C63.6778769,53.4938824 66.5265507,53.3410588 67.582705,51.1669412 C67.9567375,50.3968235 68.0689472,49.5005294 68.3006346,48.6619412 L68.3006346,48.6619412 Z" id="Fill-3" sketch:type="MSShapeGroup"></path>
            <path d="M73.6859932,36.6492353 C72.1345562,37.8501176 70.4865088,38.5755882 68.5108728,38.4495882 C66.6703139,38.3320588 65.1300447,37.077 64.9306198,35.3927647 C64.7175453,33.5932941 65.7588092,32.1169412 67.6621204,31.6328824 C69.2006171,31.2416471 70.7671218,30.9587647 72.3049093,30.5647059 C72.7622571,30.4475294 73.4984452,30.1533529 73.5285805,29.8777059 C73.6131367,29.1026471 73.403253,28.2737647 72.5894222,27.8493529 C71.595843,27.3308824 69.2348295,27.2876471 68.2366414,28.7237647 C68.0354438,29.0133529 67.8298146,29.2999412 67.6287943,29.5897059 C67.2253356,30.171 66.5944438,30.1628824 66.1420595,29.8708235 C65.8056076,29.6535882 65.4416793,28.9867059 65.5491028,28.6785882 C65.796567,27.9679412 66.1872625,27.1653529 66.7708241,26.7471176 C67.5286387,26.2041176 68.5046685,25.8264706 69.4330135,25.6900588 C70.6148498,25.5165882 71.8576658,25.5386471 73.0483654,25.6852941 C75.3437903,25.968 76.4123532,27.2308235 76.5238539,29.6110588 C76.573134,30.6663529 76.4836143,31.7295882 76.5596617,32.7818824 C76.6520176,34.0581176 76.8190027,35.3320588 77.0196685,36.5966471 C77.1295737,37.2880588 77.159,37.8914118 76.4449702,38.2642941 C75.7314723,38.637 75.134793,38.4356471 74.6423464,37.8497647 C74.340816,37.4913529 74.0577212,37.1174118 73.6859932,36.6492353 L73.6859932,36.6492353 Z M73.5060677,32.0107059 C72.0801353,32.3542941 70.6439215,32.6477647 69.2415656,33.0566471 C68.2999256,33.3314118 67.8163424,34.1292353 67.9333383,34.9087059 C68.0716062,35.829 68.8398796,36.5027647 69.8315088,36.573 C72.4318322,36.7575882 73.975115,34.8787059 73.5060677,32.0107059 L73.5060677,32.0107059 Z" id="Fill-4" sketch:type="MSShapeGroup"></path>
            <path d="M43.1135359,53.3715882 C42.780452,53.5796471 42.4331867,53.7877059 42.0947848,54.009 C40.6493532,54.9550588 39.0739851,55.2942353 37.3654899,55.0284706 C35.6553992,54.7623529 34.4845535,53.5185882 34.3549716,51.8283529 C34.2319486,50.2237059 35.1352991,48.858 36.8008958,48.3926471 C38.4434479,47.9336471 40.1335074,47.6456471 41.7877591,47.2244118 C42.2144398,47.1157059 42.8811394,46.8328235 42.9238606,46.5522353 C43.0380203,45.8029412 42.8391272,45.0183529 42.0938985,44.5556471 C40.9177348,43.8254118 38.575866,44.2369412 37.7049553,45.3231176 C37.484613,45.5980588 37.2882016,45.8941765 37.1013627,46.1932941 C36.7633153,46.7350588 36.2827456,46.8250588 35.719747,46.6406471 C35.1321083,46.4482941 34.8924438,46.0318235 34.9404831,45.4196471 C35.0280528,44.3047059 35.6981204,43.6021765 36.6071434,43.0822941 C38.2769946,42.1272353 40.1017767,42.1295294 41.9432219,42.273 C42.2071719,42.2934706 42.4686401,42.3494118 42.7306401,42.393 C44.6513234,42.7125882 45.7213045,43.8307059 45.8698539,45.762 C45.9529919,46.8448235 45.8987483,47.9382353 45.9848999,49.0207059 C46.1027821,50.5004118 46.2375047,51.9838235 46.4821326,53.4462353 C46.5920379,54.1035882 46.4691922,54.5484706 45.9393424,54.8747647 C45.3848525,55.2160588 44.8021773,55.227 44.3180622,54.7459412 C43.9039675,54.3344118 43.5444709,53.8683529 43.1135359,53.3715882 L43.1135359,53.3715882 Z M42.8572084,48.7041176 C41.6078336,48.9901765 40.3565088,49.2753529 39.1062476,49.5649412 C38.9639026,49.5979412 38.8242165,49.6478824 38.6884303,49.7027647 C37.8987077,50.0218235 37.3126644,50.4940588 37.3566265,51.4484118 C37.3950934,52.2847059 37.9432016,52.9171765 38.8625061,53.169 C41.4206401,53.8697647 43.5822287,51.4808824 42.8572084,48.7041176 L42.8572084,48.7041176 Z" id="Fill-5" sketch:type="MSShapeGroup"></path>
            <path d="M125.22625,52.0330588 C125.443756,51.5117647 125.591242,51.201 125.705047,50.8784118 C126.485552,48.6661765 127.254003,46.4497059 128.038585,44.2390588 C128.204861,43.7703529 128.396486,43.3065882 128.622146,42.8638235 C128.917827,42.2835882 129.436332,42.1018235 130.042583,42.2747647 C130.679325,42.4565294 131.061334,42.8918824 130.969865,43.5813529 C130.908885,44.0417647 130.792775,44.5053529 130.627917,44.94 C129.140296,48.8613529 127.64913,52.7814706 126.132969,56.6918824 C125.047566,59.4917647 123.632092,60.3884118 120.007168,59.7598235 C119.315119,59.6396471 118.876916,59.2011176 119.00898,58.4502353 C119.145298,57.6767647 119.737723,57.5212941 120.41754,57.5992941 C122.256149,57.8105294 123.447558,56.8844118 123.635283,55.0394118 C123.662582,54.7711765 123.529809,54.4732941 123.424513,54.2075294 C122.205096,51.1252941 120.97593,48.0467647 119.751727,44.9662941 C119.654407,44.7213529 119.566129,44.4721765 119.487954,44.2205294 C119.215495,43.344 119.503553,42.6817059 120.292567,42.3548824 C121.080162,42.0285882 121.749521,42.2895882 122.112208,43.2139412 C122.690275,44.6872941 123.181835,46.1941765 123.706721,47.688 C124.191014,49.0658824 124.671229,50.4451765 125.22625,52.0330588" id="Fill-6" sketch:type="MSShapeGroup"></path>
            <path d="M75.8236509,49.3642941 C75.8364141,50.8900588 76.2669946,52.0727647 77.5126468,52.788 C78.7139824,53.4781765 79.9598119,53.3878235 81.1171854,52.6519412 C81.6844384,52.2912353 82.2001069,51.8385882 82.6952124,51.3804706 C83.195636,50.9175882 83.8392909,50.7202941 84.2617172,51.1773529 C84.5316942,51.4694118 84.5437483,52.2577059 84.3471597,52.6701176 C83.6866644,54.0555882 82.3722327,54.7127647 80.9502003,54.9314118 C79.776341,55.1119412 78.5150893,55.1290588 77.3531069,54.9063529 C74.5281867,54.3647647 72.8383045,52.2130588 72.7409851,49.2418235 C72.7152815,48.4558235 72.771475,47.6500588 72.9212652,46.8785294 C73.4481015,44.1668824 75.5281475,42.3933529 78.2942152,42.2237647 C81.433429,42.0312353 83.6854235,43.3561765 84.5480027,45.903 C84.5857605,46.0143529 84.633977,46.1230588 84.6625169,46.2367059 C85.2398742,48.5295882 84.5875332,49.3604118 82.2031204,49.3637647 C80.1120839,49.3665882 78.0208701,49.3642941 75.8236509,49.3642941 L75.8236509,49.3642941 Z M81.9301299,47.7178235 C81.8262517,46.3607647 81.5128444,45.2211176 80.318954,44.5852941 C79.2530501,44.0175882 78.1380433,44.0419412 77.1503139,44.7776471 C76.1939608,45.4898824 75.8936712,46.5243529 75.8270189,47.7178235 L81.9301299,47.7178235 L81.9301299,47.7178235 Z" id="Fill-7" sketch:type="MSShapeGroup"></path>
            <path d="M91.1499418,32.7095294 C91.2437158,34.3833529 91.7317307,35.6281765 93.1606766,36.2745882 C94.5777456,36.9155294 95.8694871,36.5380588 97.0366103,35.6147647 C97.4289012,35.3045294 97.7431949,34.8538235 98.1794479,34.653 C98.6016969,34.4585294 99.2951637,34.2922941 99.5740041,34.5024706 C99.845931,34.7071765 99.9311962,35.4794118 99.7720108,35.8711765 C99.2146847,37.2448235 97.9621191,37.9708235 96.619502,38.1735882 C95.1958742,38.3887059 93.6616319,38.4045882 92.2589215,38.1123529 C89.906594,37.6222941 88.333885,35.6011765 88.1690271,33.1575882 C88.0967023,32.0858824 88.1369418,30.9702353 88.3572842,29.9228824 C88.8986563,27.3499412 91.0411001,25.6877647 93.6937172,25.5935294 C95.2247686,25.5391765 96.7033491,25.6494706 97.9897727,26.6147647 C99.4045372,27.6765882 100.151184,29.0687647 100.147816,30.8421176 C100.145689,32.097 99.7532206,32.5653529 98.4735332,32.6115882 C96.4378038,32.6851765 94.3994154,32.6816471 92.3620907,32.7088235 C91.9868173,32.7137647 91.6111894,32.7095294 91.1499418,32.7095294 L91.1499418,32.7095294 Z M97.1832097,31.0162941 C97.2716658,28.9627059 95.9714154,27.4821176 94.1632963,27.5285294 C92.411548,27.5737059 91.0866576,29.1868235 91.3116089,31.0907647 C93.0963288,31.0907647 94.8911529,31.0928824 96.685977,31.0875882 C96.8547348,31.0870588 97.0234926,31.0402941 97.1832097,31.0162941 L97.1832097,31.0162941 Z" id="Fill-8" sketch:type="MSShapeGroup"></path>
            <path d="M89.764249,44.5598824 C90.7973586,43.2762353 91.8490812,42.51 93.2751908,42.2731765 C95.9455345,41.8297059 98.0766333,43.4163529 98.1826387,46.1078824 C98.2760582,48.4851176 98.2452138,50.8672941 98.2597497,53.2471765 C98.2613451,53.5094118 98.2225237,53.7769412 98.1634939,54.0331765 C98.0041313,54.7237059 97.5467835,55.0817647 96.8426806,55.1089412 C96.1476184,55.1357647 95.6183004,54.8528824 95.4243708,54.1641176 C95.3064885,53.7460588 95.2522449,53.2978235 95.2478133,52.8622941 C95.2288457,51.0105882 95.2522449,49.1583529 95.2352273,47.3064706 C95.218387,45.4646471 94.4745765,44.5251176 93.0344628,44.4711176 C91.5381556,44.4151765 90.1170095,45.6704118 90.0347578,47.2572353 C89.940452,49.0754118 89.9693464,50.8995882 89.9330068,52.7209412 C89.9241434,53.1601765 89.9126211,53.607 89.826115,54.0351176 C89.6857199,54.7293529 89.2008958,55.0768235 88.5029973,55.1071765 C87.8088214,55.1375294 87.2816306,54.8546471 87.0848647,54.1642941 C86.9738958,53.775 86.9177023,53.3572941 86.9157524,52.9521176 C86.9019256,50.0417647 86.9060027,47.1314118 86.9118525,44.2212353 C86.9125616,43.9300588 86.9389743,43.6342941 86.9942815,43.3487647 C87.1373356,42.6112941 87.6021286,42.2002941 88.3560433,42.2364706 C89.1388525,42.2737059 89.5884005,42.7291765 89.676502,43.5135882 C89.7052192,43.7684118 89.7199323,44.0248235 89.764249,44.5598824" id="Fill-9" sketch:type="MSShapeGroup"></path>
            <path d="M5.44031123,38.4584118 C4.09024899,38.4845294 2.74550474,38.3428235 1.65141543,37.5153529 C1.0501272,37.0605882 0.571330176,36.3824118 0.191979702,35.7174706 C-0.172480379,35.0784706 0.0485710419,34.4442353 0.741683356,34.0852941 C1.47024899,33.708 2.02775237,34.0268824 2.37218133,34.659 C3.18884844,36.1582941 4.43095535,36.7605882 6.10789716,36.5818235 C7.1360433,36.4722353 7.92541137,35.9077059 8.01883085,35.1755294 C8.12129093,34.3704706 7.63487145,33.7341176 6.53262788,33.3711176 C5.47186468,33.0217059 4.3802571,32.7656471 3.31683491,32.4232941 C2.78875778,32.2531765 2.26351691,32.0313529 1.78879702,31.7470588 C-0.189143437,30.5625882 -0.339820027,28.1078824 1.45447226,26.664 C3.34058863,25.1461765 7.61023139,25.2158824 9.4250866,26.8293529 C9.76260217,27.1293529 10.1368119,27.5535882 10.1905237,27.9601765 C10.2493762,28.4059412 10.0940907,29.0414118 9.78440595,29.3352353 C9.33716238,29.7592941 8.66957645,29.6821765 8.16826658,29.2450588 C7.83819621,28.9570588 7.57211908,28.5972353 7.26952503,28.2771176 C6.35465223,27.3098824 4.81775101,27.0792353 3.70185792,27.7367647 C2.7494046,28.2981176 2.66910284,29.3103529 3.64070095,29.8198235 C4.45949526,30.2491765 5.40663058,30.4341176 6.293318,30.7374706 C7.26456157,31.0697647 8.29075778,31.3025294 9.18896752,31.7745882 C11.4709202,32.9740588 11.5662896,36.0467647 9.41320974,37.4931176 C8.21435589,38.2985294 6.84550338,38.4674118 5.44031123,38.4584118" id="Fill-10" sketch:type="MSShapeGroup"></path>
            <path d="M19.3794912,38.6135294 C16.5141543,38.6135294 14.0021096,36.948 12.9417009,34.3450588 C11.8562977,31.6807059 12.4818714,28.6814118 14.5317821,26.7227647 C15.2674384,26.0198824 16.0702788,25.9263529 16.6355819,26.4774706 C17.2106346,27.0381176 17.1179242,27.8073529 16.3872314,28.5395294 C14.9471177,29.9823529 14.6170474,31.9870588 15.53582,33.7117059 C16.4219756,35.3754706 18.3518769,36.3322941 20.1303924,35.9895882 C22.0836928,35.6133529 23.5647551,34.0392353 23.7365264,32.0479412 C23.8602585,30.6146471 23.2947781,29.4141176 22.2466008,28.4331176 C21.6992016,27.921 21.6063139,27.3151765 21.9838917,26.6842941 C22.3169756,26.1275294 22.8815697,26.0170588 23.4576861,26.1924706 C23.7491123,26.2814118 24.0141258,26.5168235 24.2445724,26.7349412 C26.2772882,28.6588235 26.910839,31.6512353 25.854862,34.2712941 C24.7779675,36.9430588 22.2871949,38.6133529 19.3794912,38.6135294" id="Fill-11" sketch:type="MSShapeGroup"></path>
            <path d="M23.0753221,48.9691765 C23.462295,49.9284706 23.6798011,51.0109412 24.2725805,51.8211176 C25.443249,53.4213529 27.8164939,53.3542941 29.1206441,51.8175882 C29.5184303,51.3490588 29.7919526,50.7578824 30.2443369,50.3601176 C30.5231773,50.1151765 31.1070934,49.9485882 31.4183735,50.0758235 C31.7730839,50.2208824 32.1276171,50.6984118 32.2157185,51.0905294 C32.4107118,51.9591176 31.9625819,52.6872353 31.3758295,53.3054118 C30.0151313,54.7385294 28.2486698,55.1274706 26.3730122,55.1041765 C23.8042422,55.0725882 21.716751,54.1014706 20.789115,51.5781176 C19.7813545,48.8361176 20.007724,46.1435294 22.0649026,43.9219412 C24.2963342,41.5120588 29.0495602,41.628 31.2595426,44.0576471 C31.6530744,44.4901765 31.9829675,45.1044706 32.0469608,45.6681176 C32.0932273,46.077 31.7567754,46.6791176 31.4018877,46.9454118 C30.9385129,47.2930588 30.3280068,47.1854118 29.9029215,46.6787647 C29.7331001,46.4763529 29.565406,46.2705882 29.4150839,46.0535294 C28.5695223,44.8335882 27.4522111,44.1907059 25.9376455,44.5148824 C24.5865196,44.8041176 23.6193532,45.9843529 23.3828796,47.5634118 C23.3178227,47.9977059 23.3133911,48.441 23.2811286,48.8800588 C23.2125264,48.9097059 23.1439242,48.9395294 23.0753221,48.9691765" id="Fill-12" sketch:type="MSShapeGroup"></path>
            <path d="M32.3252693,28.0168235 L32.3252693,29.1998824 C32.3247375,31.6401176 32.3369689,34.0805294 32.3183559,36.5205882 C32.308429,37.8132353 31.8221867,38.43 30.8736333,38.4552353 C30.1666942,38.4741176 29.6653843,38.1614118 29.4771272,37.4816471 C29.3613721,37.0630588 29.3073058,36.6153529 29.3042923,36.1801765 C29.2883383,33.7987059 29.2966698,31.4172353 29.2966698,29.0357647 L29.2966698,28.1161765 C28.4633396,27.6755294 26.9631326,28.3909412 26.9976996,26.8538824 C27.0296076,25.434 28.4043099,26.1128824 29.2202679,25.7527059 C29.2933018,24.9954706 29.3507361,24.1874118 29.4530189,23.3851765 C29.6336536,21.969 30.3083302,21.1496471 31.7122815,20.9452941 C32.7496455,20.7944118 33.8249445,20.8685294 34.881276,20.9050588 C35.1803248,20.9154706 35.5782882,21.0697059 35.7404871,21.2941765 C35.953207,21.5885294 36.124092,22.0581176 36.0361678,22.3768235 C35.965793,22.6321765 35.5029499,22.8783529 35.1776658,22.9413529 C34.7564804,23.0228824 34.2987781,22.8977647 33.8568525,22.8982941 C32.8818863,22.8997059 32.5027131,23.2164706 32.4053938,24.1674706 C32.3525683,24.6845294 32.3959986,25.2114706 32.3959986,25.7982353 C32.9652016,25.8520588 33.5154371,25.8942353 34.0633681,25.9581176 C34.6448024,26.0260588 34.9746955,26.3354118 34.9553735,26.9491765 C34.9360514,27.5664706 34.5887862,27.8329412 33.9976022,27.8687647 C33.498065,27.8992941 33.0001231,27.9557647 32.3252693,28.0168235" id="Fill-13" sketch:type="MSShapeGroup"></path>
            <path d="M101.784696,44.6948824 C101.365815,44.6417647 100.972637,44.7037059 100.753359,44.5378235 C100.418502,44.2842353 99.990226,43.8679412 99.9987348,43.5308824 C100.007066,43.2049412 100.509794,42.6303529 100.809552,42.6211765 C101.749774,42.5927647 101.848157,42.1238824 101.795686,41.3774118 C101.748356,40.7047059 101.762005,40.0235294 101.805258,39.3497647 C101.865352,38.4105882 102.499257,37.7902941 103.303516,37.8178235 C104.110788,37.8453529 104.692931,38.4834706 104.727321,39.4171765 C104.755506,40.1807647 104.778019,40.9466471 104.750365,41.7097059 C104.728739,42.3056471 104.925859,42.5966471 105.558524,42.5405294 C105.850659,42.5145882 106.209447,42.4512353 106.429434,42.5835882 C106.791413,42.8013529 107.216321,43.1137059 107.339521,43.4784706 C107.50952,43.9815882 107.150732,44.3585294 106.598015,44.4691765 C106.425357,44.5037647 106.257131,44.5685294 106.083233,44.5895294 C104.759406,44.7488824 104.758697,44.7464118 104.75852,46.0455882 C104.758342,47.6629412 104.750897,49.2804706 104.761001,50.8978235 C104.771815,52.65 105.157547,52.9881176 106.865687,52.7779412 C107.01211,52.7599412 107.185299,52.6743529 107.298395,52.7253529 C107.671009,52.893 108.252798,53.0495294 108.323173,53.3212941 C108.41482,53.6744118 108.197668,54.2341765 107.920601,54.5191765 C107.644242,54.8034706 107.137969,54.9575294 106.717847,54.9922941 C105.841087,55.065 104.948727,55.0884706 104.073916,55.0094118 C102.88623,54.9021176 102.055736,54.1732941 101.980043,52.9851176 C101.834507,50.7014118 101.839294,48.4081765 101.786291,46.1188235 C101.775478,45.6562941 101.784696,45.1930588 101.784696,44.6948824" id="Fill-14" sketch:type="MSShapeGroup"></path>
            <path d="M38.0497388,28.0628824 C37.2018728,27.8343529 36.1981894,28.0514118 36.1948214,26.9126471 C36.1914533,25.7668235 37.2025819,25.9958824 38.0554114,25.7553529 C38.0554114,24.8195294 38.0453072,23.8335882 38.0584249,22.8481765 C38.0692382,22.0459412 38.3349608,21.3942353 39.2273207,21.2257059 C40.1012449,21.0605294 40.858705,21.5650588 40.9184438,22.4528824 C40.9911231,23.5311176 40.9356387,24.6178235 40.9356387,25.7984118 C41.5326725,25.8333529 41.9907294,25.8515294 42.4471908,25.8889412 C43.0479472,25.9383529 43.5627294,26.1 43.5930419,26.8404706 C43.623,27.5707059 43.1750474,27.8092941 42.5438011,27.8701765 C42.0784763,27.9151765 41.6138606,27.966 41.0111543,28.0284706 C41.0111543,28.9182353 41.0035318,29.7885882 41.0129269,30.6587647 C41.0285264,32.0971765 41.0251583,33.5368235 41.0877334,34.9734706 C41.1311637,35.9717647 41.5924114,36.3137647 42.5969811,36.2043529 C42.9178336,36.1694118 43.2622625,35.9945294 43.5467754,36.0693529 C43.9261258,36.1688824 44.4830974,36.3928235 44.5529405,36.6670588 C44.6435237,37.0231765 44.4354127,37.5811765 44.1611813,37.8672353 C43.8871272,38.1525882 43.3817402,38.3080588 42.9619729,38.3461765 C42.0859215,38.4255882 41.1880663,38.4838235 40.3198146,38.3798824 C38.9998877,38.2217647 38.209456,37.3522941 38.1576942,35.9971765 C38.072429,33.7681765 38.0798742,31.5358235 38.0504479,29.3048824 C38.0451299,28.9000588 38.0497388,28.4952353 38.0497388,28.0628824" id="Fill-15" sketch:type="MSShapeGroup"></path>
            <path d="M51.6597348,44.1931765 C51.8393058,43.9443529 51.9729648,43.7565882 52.1092828,43.5705882 C53.23723,42.0312353 55.1517091,41.7691765 56.6799242,42.9278824 C57.2269689,43.3425882 57.391295,43.8788824 57.1480853,44.4788824 C56.9064709,45.0748235 56.3803437,45.2500588 55.757429,45.1351765 C55.6707456,45.1192941 55.5840622,45.1014706 55.4984425,45.0799412 C53.0147605,44.4566471 51.9047172,45.2244706 51.7345413,47.8062353 C51.6129364,49.6482353 51.627295,51.4988824 51.5702152,53.3454706 C51.5354709,54.465 51.1036495,55.0252941 50.2458566,55.1047059 C49.3389608,55.1888824 48.6334398,54.6257647 48.6242219,53.6629412 C48.5928457,50.3754706 48.5942639,47.0872941 48.6242219,43.7996471 C48.6330853,42.8281765 49.1680758,42.2758235 49.9581529,42.2264118 C50.8012327,42.1736471 51.1963599,42.5571176 51.4064208,43.6284706 C51.4289337,43.7433529 51.4558782,43.8584118 51.4934587,43.9690588 C51.5104763,44.0195294 51.5585156,44.0597647 51.6597348,44.1931765" id="Fill-16" sketch:type="MSShapeGroup"></path>
            <path d="M82.1249459,27.6412941 C82.4092815,27.2678824 82.5647442,27.0628235 82.7210934,26.8584706 C83.802774,25.4449412 85.7121123,25.1544706 87.1719026,26.2032353 C87.7077794,26.5882941 88.0658579,27.0806471 87.7345467,27.7831765 C87.4039445,28.4844706 86.8682449,28.6881176 86.134184,28.4179412 C85.8599526,28.317 85.5704763,28.2471176 85.2820636,28.1968235 C83.8318457,27.9446471 82.9674939,28.4011765 82.6048065,29.8072941 C82.3518471,30.7884706 82.2704817,31.8257647 82.2190744,32.8432941 C82.1554357,34.1025882 82.2332558,35.3685882 82.1921299,36.6296471 C82.1533085,37.8165882 81.6144181,38.4322941 80.7046861,38.4550588 C79.9475805,38.4741176 79.474456,38.0913529 79.2856671,37.3882941 C79.195793,37.0535294 79.1814344,36.6912353 79.1803708,36.3412941 C79.172571,33.4934118 79.1734574,30.6453529 79.1796617,27.7972941 C79.1803708,27.4759412 79.211747,27.1521176 79.2596089,26.8339412 C79.3730595,26.0788235 79.7454966,25.6178824 80.5880447,25.5898235 C81.4389242,25.5614118 81.8195156,26.0181176 81.9857916,26.7577059 C82.0363126,26.9830588 82.0590027,27.2145882 82.1249459,27.6412941" id="Fill-17" sketch:type="MSShapeGroup"></path>
            <path d="M112.970571,44.2837059 C113.205804,43.9833529 113.334145,43.8291176 113.452027,43.6674706 C114.621277,42.0656471 116.250003,41.7610588 117.928894,42.8144118 C118.570954,43.2172941 118.810618,43.7728235 118.546846,44.4675882 C118.27421,45.1851176 117.661222,45.2546471 116.999131,45.1053529 C114.322406,44.5021765 113.564591,44.9216471 113.181696,47.6362941 C112.940968,49.3422353 113.039882,51.0952941 112.97908,52.827 C112.964544,53.2367647 112.968444,53.6562353 112.879811,54.0527647 C112.715307,54.7886471 112.185812,55.1152941 111.452283,55.1077059 C110.747294,55.1002941 110.276296,54.7584706 110.116756,54.0591176 C110.058258,53.8032353 110.025819,53.5357059 110.025464,53.2734706 C110.019437,50.2441765 110.020501,47.2150588 110.025464,44.1859412 C110.025819,43.9521176 110.06269,43.7174118 110.095662,43.485 C110.205567,42.7102941 110.638984,42.2601176 111.439697,42.2290588 C112.21382,42.1992353 112.639969,42.6197647 112.794545,43.3471765 C112.848612,43.6023529 112.891333,43.8598235 112.970571,44.2837059" id="Fill-18" sketch:type="MSShapeGroup"></path>
            <path d="M19.4108674,33.474 C18.296747,33.0370588 17.8463126,32.3103529 17.9165101,31.0466471 C18.0413058,28.7938235 17.9491272,26.5293529 17.9532043,24.2698235 C17.9542679,23.7144706 18.0636414,23.1187059 17.2347429,23.0253529 C17.1606455,23.0170588 17.1156198,22.7516471 17.0232639,22.521 L21.6919337,22.521 C21.8881678,23.3294118 21.2211137,23.1967059 20.7066861,23.3258824 C20.6802733,23.6846471 20.6306387,24.0525882 20.6293978,24.4207059 C20.6221299,26.6804118 20.6256752,28.9399412 20.6256752,31.1996471 C20.625498,32.6221765 20.625498,32.6221765 19.4108674,33.474 L19.4108674,33.474 Z M20.2330298,23.1847059 C19.5787388,23.7871765 19.4652882,31.6286471 20.0922801,32.4247059 C20.243843,29.4091765 20.2468566,26.3901176 20.2330298,23.1847059 L20.2330298,23.1847059 Z" id="Fill-19" sketch:type="MSShapeGroup"></path>
        </g>
    </g>
</svg>