<?xml version="1.0" encoding="UTF-8" standalone="no"?>
<svg width="79px" height="79px" viewBox="0 0 79 79" version="1.1" xmlns="http://www.w3.org/2000/svg" xmlns:xlink="http://www.w3.org/1999/xlink" xmlns:sketch="http://www.bohemiancoding.com/sketch/ns">
    <!-- Generator: Sketch 3.3.3 (12072) - http://www.bohemiancoding.com/sketch -->
    <title>Oval 20 Copy + Fill 1</title>
    <desc>Created with Sketch.</desc>
    <defs></defs>
    <g id="Page-1" stroke="none" stroke-width="1" fill="none" fill-rule="evenodd" sketch:type="MSPage">
        <g id="Home---Desktop-Copy-2" sketch:type="MSArtboardGroup" transform="translate(-441.000000, -2789.000000)">
            <g id="Group" sketch:type="MSLayerGroup" transform="translate(97.000000, 2493.000000)">
                <g transform="translate(0.000000, 76.000000)" id="Oval-20-Copy-+-Fill-1" sketch:type="MSShapeGroup">
                    <g transform="translate(344.000000, 220.000000)">
                        <circle id="Oval-20-Copy" fill="#767474" cx="39.5" cy="39.5" r="39.5"></circle>
                        <g id="Fill-1-+-Fill-1-Copy-2-+-Oval-24-+-Oval-25" transform="translate(17.000000, 17.000000)">
                            <g id="Fill-1-+-Fill-1-Copy-2" fill="#FFFFFF">
                                <path d="M22.0827171,23.10091 C22.2367264,21.5675648 22.4350337,20.0386363 22.8384406,18.5524029 C24.1772733,13.6183142 26.9193182,9.72598759 31.5883253,7.42913503 C33.5448195,6.46687438 35.6863315,5.95939083 37.8761283,5.70616435 C39.1511718,5.55879242 40.4242958,5.58588176 41.6997823,5.56600643 C41.880961,5.56320916 42.1229757,5.67657218 42.23313,5.45544068 C42.3223166,5.27641544 42.1333119,5.14347154 42.0377759,5.0133249 C41.1987722,3.87041954 40.3520901,2.73325595 39.5076229,1.59432566 C39.2988318,0.972448521 39.3652788,0.426981002 40.0179357,0.121195297 C40.7193203,-0.207557461 41.1524069,0.178318482 41.531007,0.729674988 C41.8450797,1.18710214 42.2099474,1.60978425 42.5519278,2.04792497 C43.519248,3.39797548 44.483615,4.75052881 45.4561034,6.09719315 C46.2353048,7.17620299 46.1982422,7.53955355 45.2089206,8.44822441 C45.0140095,8.62739687 44.7433489,8.734282 44.6448597,9.00988665 C43.4099797,10.1575032 42.175395,11.3062975 40.9397766,12.4536196 C40.7250791,12.6531091 40.521899,12.8708544 40.2837235,13.0381017 C39.9110299,13.2995728 39.5074753,13.2741029 39.0960947,13.0962555 C38.5354299,12.8537764 38.6309659,12.3571875 38.606602,11.9032937 C39.636973,10.714307 40.8043725,9.66533102 41.9598115,8.60207422 C42.2090614,8.37269814 42.7218844,8.17482814 42.5788019,7.80735528 C42.4618552,7.50672244 41.9544957,7.64673314 41.618274,7.63466071 C40.0926516,7.58018757 38.5742645,7.67470583 37.0693144,7.92852121 C33.1857105,8.58337669 29.8958472,10.2774913 27.5251669,13.4942038 C25.2963879,16.5184936 24.4798285,20.0219999 24.1791928,23.6850977 C23.9010015,24.8462589 23.1790921,25.1155329 22.2526737,24.4037014 C21.8801277,24.0091392 22.0367948,23.55819 22.0827171,23.10091 Z" id="Fill-1"></path>
                                <path d="M0.25267367,24.4037014 C-0.119872343,24.0091392 0.0367948466,23.55819 0.0827170861,23.10091 C0.236726397,21.5675648 0.435033689,20.0386363 0.838440629,18.5524029 C2.17727325,13.6183142 4.91931823,9.72598759 9.58832534,7.42913503 C11.5448195,6.46687438 13.6863315,5.95939083 15.8761283,5.70616435 C17.1511718,5.55879242 18.4242958,5.58588176 19.6997823,5.56600643 C19.880961,5.56320916 20.1229757,5.67657218 20.23313,5.45544068 C20.3223166,5.27641544 20.1333119,5.14347154 20.0377759,5.0133249 C19.1987722,3.87041954 18.3520901,2.73325595 17.5076229,1.59432566 C17.2988318,0.972448521 17.3652788,0.426981002 18.0179357,0.121195297 C18.7193203,-0.207557461 19.1524069,0.178318482 19.531007,0.729674988 C19.8450797,1.18710214 20.2099474,1.60978425 20.5519278,2.04792497 C21.519248,3.39797548 22.483615,4.75052881 23.4561034,6.09719315 C24.2353048,7.17620299 24.1982422,7.53955355 23.2089206,8.44822441 C23.0140095,8.62739687 22.7433489,8.734282 22.6448597,9.00988665 C21.4099797,10.1575032 20.175395,11.3062975 18.9397766,12.4536196 C18.7250791,12.6531091 18.521899,12.8708544 18.2837235,13.0381017 C17.9110299,13.2995728 17.5074753,13.2741029 17.0960947,13.0962555 C16.5354299,12.8537764 16.6309659,12.3571875 16.606602,11.9032937 C17.636973,10.714307 18.8043725,9.66533102 19.9598115,8.60207422 C20.2090614,8.37269814 20.7218844,8.17482814 20.5788019,7.80735528 C20.4618552,7.50672244 19.9544957,7.64673314 19.618274,7.63466071 C18.0926516,7.58018757 16.5742645,7.67470583 15.0693144,7.92852121 C11.1857105,8.58337669 7.89584718,10.2774913 5.52516694,13.4942038 C3.29638789,16.5184936 2.47982846,20.0219999 2.17919283,23.6850977 C1.90100151,24.8462589 1.1790921,25.1155329 0.25267367,24.4037014" id="Fill-1-Copy-2" transform="translate(12.005365, 12.397708) scale(-1, 1) translate(-12.005365, -12.397708) "></path>
                            </g>
                            <g id="Oval-24-+-Oval-25" transform="translate(12.000000, 25.000000)">
                                <circle id="Oval-24" stroke="#767474" fill="#FFFFFF" cx="10.5" cy="10.5" r="10.5"></circle>
                                <circle id="Oval-25" fill="#767474" cx="10.5" cy="10.5" r="6.5"></circle>
                            </g>
                        </g>
                    </g>
                </g>
            </g>
        </g>
    </g>
</svg>