<?xml version="1.0" encoding="utf-8"?>
<!-- Generator: Adobe Illustrator 22.1.0, SVG Export Plug-In . SVG Version: 6.00 Build 0)  -->
<svg version="1.1" id="Layer_1" xmlns:sketch="http://www.bohemiancoding.com/sketch/ns"
	 xmlns="http://www.w3.org/2000/svg" xmlns:xlink="http://www.w3.org/1999/xlink" x="0px" y="0px" viewBox="0 0 747 313"
	 style="enable-background:new 0 0 747 313;" xml:space="preserve">
<style type="text/css">
	.st0{opacity:0.4;}
	.st1{fill:#767474;}
	.st2{opacity:0.4;fill:#767474;enable-background:new    ;}
	.st3{opacity:0.4043;fill:#767474;enable-background:new    ;}
</style>
<title>Artboard</title>
<desc>Created with Sketch.</desc>
<g id="Group" sketch:type="MSShapeGroup" class="st0">
	<g transform="translate(62.729124, 0.000000)">
		<path id="Fill-1" class="st1" d="M142.5,14.2c-1,0-2.1,0-3.1,0c-2.3,0-4.2,1.9-4.2,4.2c0,0.9,0,1.7,0,2.6c0,0.5-0.1,0.7-0.7,0.7
			c-0.8,0-1.6,0-2.4-0.1c-1.2-0.2-2-0.9-2.5-2c-0.9-2-1.2-4.1-1-6.2c0.1-0.9,0.2-1.7,0.5-2.6c0.6-2.1,2.2-3.4,4.4-3.4
			c2.8,0,5.6,0,8.4,0c0.2,0,0.4,0,0.6,0c0.2,0,0.3-0.1,0.3-0.3c0-0.2-0.1-0.3-0.3-0.3c-0.2,0-0.3,0-0.5,0c-1.8,0-3.6,0-5.4,0
			c-0.5,0-0.8-0.2-0.7-0.7c0-1,0-2,0.1-3c0.1-0.9,0.6-1.6,1.4-2.1c1.3-0.7,2.7-0.8,4.1-0.9c1.5-0.1,3,0,4.5,0.2
			c2,0.3,3.4,1.5,3.7,3.3c0,0.2,0,0.4,0,0.6c0,2,0,4.1,0,6.1c0,2.4-1.5,3.8-3.8,3.9C144.9,14.2,143.7,14.2,142.5,14.2L142.5,14.2z
			 M140.2,3.5c0-0.7-0.6-1.3-1.2-1.2c-0.7,0-1.2,0.6-1.2,1.3c0,0.7,0.6,1.2,1.2,1.2C139.7,4.7,140.2,4.2,140.2,3.5z M148.5,21.5
			c-1.7,0-3.3,0-5,0c-0.2,0-0.5,0-0.6,0.2c-0.2,0.3,0,0.6,0.5,0.6c1.7,0,3.4,0,5.1,0c1.3,0,1.2-0.1,1.2,1.2c0,0.6,0,1.1,0,1.7
			c0,1-0.4,1.8-1.2,2.4c-1.4,1-3,1.4-4.7,1.5c-2.1,0.2-4.2-0.1-6.1-1.3c-1.1-0.7-1.7-1.6-1.7-3c0.1-2.1,0-4.2,0-6.3
			c0-2.2,1.5-3.7,3.6-3.7c2.1,0,4.3-0.1,6.4,0c2.4,0.1,4.7-2.1,4.5-4.6c-0.1-0.7,0-1.5,0-2.2c0-0.5,0.1-0.7,0.7-0.7
			c0.8,0,1.6,0,2.4,0.1c1.1,0.2,1.9,0.7,2.4,1.7c0.7,1.4,1,2.9,1.1,4.4c0.2,2.1-0.1,4.1-1.1,6c-0.6,1.3-1.6,2-3.1,1.9
			C151.5,21.5,150,21.5,148.5,21.5L148.5,21.5z M145.5,25.4c0,0.7,0.6,1.3,1.2,1.3c0.6,0,1.2-0.6,1.2-1.3c0-0.7-0.6-1.3-1.2-1.3
			C146.1,24.2,145.5,24.7,145.5,25.4L145.5,25.4z"/>
		<g id="Imported-Layers" transform="translate(87.820774, 212.696710)">
			<path id="Fill-1_1_" class="st1" d="M0,21.7c0-4.2,3.3-7.5,7.4-7.5c4.1,0,7.5,3.3,7.5,7.5c0,4.2-3.3,7.5-7.5,7.5
				C3.3,29.2,0,25.9,0,21.7L0,21.7z M7.4,26.7c2.7,0.2,5.1-2.3,5.1-4.9c0-2.8-2.3-5.1-5-5.1c-2.9,0-5,2.5-5.1,5
				C2.4,24.5,4.9,26.8,7.4,26.7L7.4,26.7z"/>
			<path id="Fill-2" class="st1" d="M23.2,7.4c0,4.2-3.3,7.5-7.4,7.5c-4.1,0-7.5-3.3-7.5-7.5c0-4.2,3.3-7.5,7.4-7.5
				C19.8,0,23.1,3.3,23.2,7.4L23.2,7.4z M15.7,2.5c-2.9-0.1-5.1,2.3-5.1,5c0,2.9,2.2,5,5,5.1c2.8,0,5.1-2.3,5.1-5.1
				C20.7,4.7,18.4,2.3,15.7,2.5L15.7,2.5z"/>
			<path id="Fill-3" class="st1" d="M23.9,14.2c4.2,0,7.5,3.3,7.5,7.5c0,4.2-3.3,7.5-7.4,7.5c-4.2,0-7.5-3.4-7.5-7.5
				C16.4,17.6,19.8,14.2,23.9,14.2L23.9,14.2z M28.9,21.8c0.2-2.8-2.3-5.1-4.9-5.1c-2.8,0-5.1,2.2-5.1,5.1c0,2.7,2.1,5.1,5,5.1
				C26.7,26.8,29,24.5,28.9,21.8L28.9,21.8z"/>
			<path id="Fill-4" class="st1" d="M7.4,26.2C5.2,26.3,3,24.3,3,21.7c0-2.2,2-4.5,4.5-4.4c2.4,0,4.5,2.1,4.4,4.6
				C11.9,24.2,9.8,26.4,7.4,26.2"/>
			<path id="Fill-5" class="st1" d="M15.7,3c2.4-0.1,4.4,2,4.5,4.4c0,2.5-2,4.6-4.5,4.5c-2.6,0-4.4-1.9-4.5-4.5
				C11.2,5.1,13.1,2.9,15.7,3"/>
			<path id="Fill-6" class="st1" d="M28.4,21.8c0.1,2.4-2,4.5-4.5,4.5c-2.6,0-4.5-2.2-4.5-4.5c0-2.5,2-4.5,4.5-4.5
				C26.3,17.2,28.5,19.3,28.4,21.8"/>
		</g>
		<path id="Fill-1_2_" class="st1" d="M87.4,85.3c0-8,6.5-14.5,14.6-14.6c8-0.1,14.6,6.5,14.7,14.5c0,8.1-6.5,14.6-14.6,14.6
			C94,99.9,87.4,93.3,87.4,85.3L87.4,85.3z M108,83.5c2.4,0,4.3-1.9,4.3-4.3c0-2.3-1.9-4.2-4.3-4.2c-2.4,0-4.3,1.9-4.3,4.3
			C103.7,81.6,105.7,83.5,108,83.5L108,83.5z M110.6,92c0.3,0.7,0.8,1,1.5,0.9c0.2,0,0.4-0.1,0.4-0.4c0-0.2,0.1-0.5-0.3-0.5
			c-0.5-0.1-0.5-0.4-0.5-0.8c0-1.2,0-2.4,0-3.6c0-1.2-0.7-1.8-2.3-1.9c-1.8-0.1-3,0.5-3.1,1.7c0,0.2-0.1,0.5,0.2,0.5
			c0.3,0,0.8,0.2,0.9-0.2c0.4-1.1,1.3-1,2.1-0.9c0.6,0,1,0.3,1,1c0,0.7-0.5,0.8-1,0.9c-0.8,0.1-1.7,0.1-2.5,0.5
			c-0.8,0.4-1.2,1.1-1.1,2c0.1,0.9,0.6,1.4,1.4,1.7C108.7,93.2,109.7,92.8,110.6,92L110.6,92z M103.9,91.8c0,0.6,0.1,0.9,0.6,0.9
			c0.6-0.1,0.3-0.5,0.3-0.8c0-1.8,0-3.7,0-5.5c0-0.5-0.2-0.6-0.6-0.5c-0.4,0-0.6,0-0.6,0.5c0,1.1,0,2.2,0,3.3c0,0.5-0.1,1-0.3,1.4
			c-0.4,0.7-1.2,1-2,0.8c-0.9-0.2-1-0.8-0.9-1.6c0-1.3,0-2.7,0-4c0-0.5-0.2-0.5-0.6-0.5c-0.3,0-0.7-0.1-0.7,0.5c0,1.6,0,3.2,0,4.8
			c0,0.9,0.5,1.4,1.3,1.7C101.8,93.2,102.9,92.9,103.9,91.8L103.9,91.8z M92.1,87.9c0,1.4,0,2.8,0,4.1c0,0.5,0.1,0.6,0.6,0.6
			c1.6,0,3.2,0,4.8,0c0.4,0,0.6-0.1,0.6-0.6c0-0.5-0.2-0.5-0.6-0.5c-1.2,0-2.4,0-3.6,0c-0.6,0-0.7-0.2-0.7-0.7c0-2.4,0-4.8,0-7.2
			c0-0.5-0.1-0.6-0.6-0.6c-0.5,0-0.6,0.1-0.6,0.6C92.1,85.1,92.1,86.5,92.1,87.9z M110.6,89.3c0.1,1.9-0.6,2.7-2.2,2.6
			c-0.6-0.1-1.1-0.3-1.2-0.9c-0.1-0.7,0.3-1.1,0.9-1.2C109,89.6,109.8,89.5,110.6,89.3z"/>
		<g>
			<path class="st1" d="M86.5,145.2c-1.7,0-3.2-1.4-3.2-3.2c0-1.8,1.4-3.2,3.2-3.2c1.8,0,3.2,1.4,3.2,3.2
				C89.7,143.8,88.3,145.2,86.5,145.2z M86.2,140.6c-0.7,0.1-1.2,0.7-1.2,1.4c0,0.8,0.6,1.5,1.4,1.5c0.8,0,1.4-0.7,1.4-1.5
				c0-0.8-0.7-1.4-1.5-1.4L86.2,140.6z"/>
			<path class="st1" d="M85.4,149.8c-1.1,0-2-0.9-2-2c0-1.1,0.9-2,2-2c1.1,0,2,0.9,2,2C87.4,148.9,86.5,149.8,85.4,149.8z
				 M85.4,147.5c-0.1,0-0.2,0-0.2,0.1c-0.1,0.1-0.1,0.1-0.1,0.2c0,0.2,0.1,0.3,0.3,0.3c0.2,0,0.3-0.1,0.3-0.3c0-0.1,0-0.2-0.1-0.2
				C85.6,147.5,85.5,147.5,85.4,147.5L85.4,147.5z"/>
			<path class="st1" d="M92.8,149.8c-2.1,0-3.8-1.7-3.8-3.8c0-2.1,1.7-3.8,3.8-3.8c2.1,0,3.8,1.7,3.8,3.8
				C96.6,148.1,94.9,149.8,92.8,149.8L92.8,149.8z M92.6,144c-1,0.1-1.8,1-1.8,2c0,1.1,0.9,2,2,2c1.1,0,2-0.9,2-2c0-1.1-0.9-2-2-2
				L92.6,144z"/>
			<polygon class="st1" points="82.1,171.1 80.4,169.4 80.4,147.1 82.1,147.1 82.1,168.7 82.8,169.3 97,169.3 97.7,168.7 
				97.7,150.1 101.1,146.6 102.3,147.8 99.4,150.8 99.4,169.4 97.7,171.1 			"/>
			<path class="st1" d="M82.7,168.7V151h14.4v17.7H82.7z M95.4,166.9v-14.2h-11v14.2H95.4z"/>
		</g>
		<path id="Fill-1_4_" class="st1" d="M130.4,283.9c0.9,0.2,1.9,0.5,2.6,1c0.9,0.7,1.8,1.4,2.5,2.3c0.9,1.2,1.7,2.4,2,3.9
			c0.2,1,0.3,2,0.5,3c0.1,0.4,0.1,0.7,0.2,1.1c0,0.2,0,0.2-0.1,0.3c-0.5,0.3-0.8,0.3-1.1-0.3c-0.1-0.3-0.2-0.6-0.3-0.9
			c-0.1-1.4-0.5-2.7-1-4c-0.4-0.9-1.1-1.8-1.9-2.4c-0.2-0.2-0.3-0.5-0.7-0.6c0.2,0.3,0.4,0.5,0.5,0.9c-0.3-0.1-0.4-0.3-0.5-0.5
			c-0.4-0.7-1.1-1-1.6-1.6c-0.5-0.7-1.2-0.9-2-1c-0.1,0-0.4-0.1-0.4,0.1c0,0.1,0.2,0.2,0.4,0.2c0,0,0.1,0,0.1,0.1
			c-0.8,0.9-0.8,1.9-0.6,2.9c0.1,0.4,0.3,0.8,0.5,1.2c0.5,0.9,1.1,1.8,1.9,2.4c0.8,0.7,1.6,1.3,2.2,2c0.3,0.4,0.6,0.9,1,1.4
			c0.4,0.6,0.9,1.2,1.3,1.8c0.1,0.1,0.3,0.3,0.1,0.5c-0.2,0-0.2-0.1-0.3-0.2c-1.1-1.6-2.8-2.5-4.2-3.8c-1.6-1.4-3.2-3-3.8-5.2
			c-0.3-1-0.3-1.9,0-2.9c0.2-0.9,0.8-1.4,1.7-1.6c0.1,0,0.2-0.1,0.3-0.1H130.4z M155,296.2c-0.4,0.7-0.8,1.3-1.4,1.8
			c-0.2,0.1-0.4,0.3-0.4,0.5c0,0.1-0.1,0.2-0.3,0.3c-1,0.6-2,1.2-3.2,1.5c-0.8,0.2-1.5,0.3-2.3,0.5c-0.5,0.1-1.2,0-1.7-0.1
			c-1-0.3-2-0.6-3-1c-0.2-0.1-0.6-0.1-0.7-0.4c0.2-0.1,0.5,0,0.7,0.1c1.7,0.7,3.4,0.5,5.2,0.2c1.2-0.2,2.4-0.5,3.5-1.2
			c0.8-0.5,1.5-1.1,2-1.9c0.3-0.4,0.2-1.2-0.2-1.5c-1-1.1-2.2-1.3-3.6-1c-1.8,0.4-3.3,1.4-4.8,2.3c-0.9,0.5-1.6,1.2-2.3,1.9
			c-0.4,0.4-0.6-0.1-0.9-0.1c-0.4-0.1,0-0.3,0-0.4c0.1-0.7,0.6-1.1,1.1-1.4c0.3-0.2,0.6-0.4,0.9-0.7c0.8-0.9,2-1.2,2.9-1.9
			c0.7-0.5,1.4-0.8,2.1-1.1c0.4-0.2,0.9-0.2,1.3-0.4c-0.4-0.2-0.8,0.1-1.2-0.1c0-0.1,0.1-0.1,0.1-0.1c1.1,0,2.2-0.2,3.3,0.3
			c0.9,0.5,1.6,1.2,2,2.1c0.1,0.1,0.1,0.3,0.2,0.4c0.1,0.1,0.1,0.4,0.3,0.3c0.2-0.1,0-0.2,0-0.4c0-0.1,0-0.1,0-0.2
			c0.1,0.2,0.3,0.5,0.4,0.7V296.2z M149.4,312.2c-0.5,0.7-1.9,0.9-2.6,0.4c-0.5-0.4-1.1-0.8-1.6-1.1c-0.6-0.3-1-0.9-1.5-1.4
			c-0.6-0.7-1.2-1.4-1.6-2.2c-0.1-0.1-0.1-0.4-0.4-0.3c-0.1,0-0.1-0.1-0.1-0.2c-0.3-1.3-0.6-2.7-0.6-4c0-0.6,0-1.2,0.1-1.8
			c0.3,0.3,0.3,0.8,0.3,1.1c0.3,2.6,1.6,4.8,3.2,6.7c0.7,0.8,1.6,1.5,2.7,2c0.6,0.3,0.9-0.1,1.2-0.3c0.3-0.3,0.1-0.6,0-0.9
			c-0.4-1-1.1-2-1.6-3c-0.2-0.4-0.5-0.7-0.8-1.1c-1.2-1.6-2.4-3.2-4.1-4.4c-0.5-0.3-0.1-0.6,0-0.9c0.1-0.3,0.4-0.1,0.6-0.1
			c0.7,0.1,1.1,0.7,1.6,1.1c0.9,0.8,1.6,1.7,2.4,2.5c0.6,0.7,1.2,1.3,1.7,2c0.2,0.3,0.4,0.7,0.7,0.9c0.5,0.4,0.7,0.9,1,1.5
			c0.4,0.9,0.2,1.7,0,2.6c-0.1,0.3-0.4,0.5-0.7,0.6c-0.2,0.1-0.4,0-0.3,0.3C149,312.5,149.2,312.2,149.4,312.2z M130.3,304.2
			c0.2-0.1,0.4-0.3,0.7-0.4c0.1,0.1,0,0.1,0,0.2c-0.7,0.5-1,1.3-1.5,1.8c-0.5,0.5-0.5,1.1-0.4,1.6c0,0.1-0.1,0.3,0.2,0.4
			c0,0,0.1,0,0.1,0c0.1-0.2-0.2-0.2-0.1-0.4c0.4,0.2,0.8,0.6,1.2,0.7c0.4,0.1,1.1-0.1,1.3-0.5c0.3-0.5,0.6-1,0.9-1.6
			c0.4-0.8,1-1.5,1.3-2.4c0.1-0.2,0.4-0.4,0.6-0.6c0.5-0.6,1.2-1,1.7-1.7c0.4-0.4,0.7-0.9,1-1.4c0.1-0.1,0.1-0.3,0.3-0.3
			c0,0.2,0,0.5-0.1,0.7c-0.5,0.8-0.9,1.6-1.4,2.4c-0.6,1-1.3,1.9-1.9,2.9c-0.4,0.8-0.8,1.6-1.3,2.3c-0.5,0.7-1.1,1.3-1.9,1.4
			c-0.8,0.1-2.4-0.6-2.7-1.2c-0.7-1.4-0.4-2.7,0.2-4c0.5-1,1.1-1.8,1.8-2.6c0.4-0.5,0.8-0.9,1.4-1.2c1.1-0.7,2.3-1.4,3.3-2.4
			c0.4-0.4,0.6-0.1,0.9,0.1c0.3,0.2,0.2,0.4,0.1,0.6c-0.2,0.5-0.5,0.9-1.1,1.1c-0.5,0.1-0.6,0.6-1,0.9c-0.4,0.3-0.8,0.5-1.2,0.8
			C131.4,302.1,130.9,303.2,130.3,304.2z M141.5,295.9c0.4,0,0.6-0.3,1-0.2c-0.5,0.3-1,0.6-1.4,0.9c-0.8,0.6-1.6,1.1-1.9,2.2
			c0,0.2-0.2,0.3-0.3,0.5c0,0.1-0.2,0.2-0.1,0.3c0,0,0.1,0,0.2,0.1c0.2,0.1,0.1-0.1,0.2-0.2c0.1-0.1,0-0.3,0.3-0.4
			c-0.1,0.7-0.2,1.5-0.5,2c-0.3,0.5-0.3,1.1-0.3,1.6c0,0.9,0,1.8,0,2.7c0,0.6,0,1.1,0.2,1.7c0.5,1.4,0.3,2.8,0.7,4.2
			c0.1,0.4,0.3,0.9,0.5,1.3c0,0.1,0.1,0.2,0.1,0.4c-0.2-0.1-0.4-0.2-0.5-0.4c-0.3-0.7-0.7-1.4-1-2.1c-0.3-0.7-0.6-1.5-0.7-2.3
			c-0.5-1.9-0.5-3.8-0.4-5.8c0.1-1.3,0.3-2.7,0.5-4c0.3-1.3,0.7-2.5,1.8-3.3c0.5-0.3,0.8-0.9,1.3-1.3c0.5-0.4,0.6-1.8,0.3-2.3
			c-0.1-0.1-0.2-0.2-0.3-0.1c-0.2,0.2-0.4,0.3-0.6,0.5c-0.2,0.4-0.7,0.4-0.9,0c-0.1-0.3-0.2-0.6-0.1-0.9c0.2-0.5,1.4-1.1,2-0.9
			c0.6,0.2,1,0.6,1.2,1.1c0.2,0.6,0.2,1.2,0.2,1.8c0,0.8-0.4,1.5-0.9,2.2C142.1,295.4,141.9,295.7,141.5,295.9z"/>
	</g>
</g>
<g id="Group_1_" transform="translate(525.000000, 0.000000)" sketch:type="MSShapeGroup">
	<path id="Imported-Layers_1_" class="st2" d="M74.3,99.6c-0.7-1.4-1.5-2.8-2.2-4.1c-0.2-0.5-2.2-4-2.7-4c-0.9,0-0.7-0.2-1.6,0
		c-0.6,0.1-0.3,4.5-0.3,5.2c0,1,0,2,0,3h-6.6c0-1-0.1-1.9,0-2.9c0-0.8-0.3-1.1-1.1-1.2c-1-0.1-1.9-0.3-2.8-0.6
		c-5.4-1.7-10-4.3-11.5-10.3v-2.8c1.4-5,5.1-7.9,9.7-9.5C61.5,70,68,70,74.3,72.6c4.4,1.8,7.9,4.7,8.8,9.7v1.9
		c-0.3,0.9-0.4,1.8-0.8,2.7c-0.9,2-2.4,3.5-4.1,4.8c-0.6,0.4-0.7,0.8-0.3,1.4c0.6,0.9,1.1,1.8,1.6,2.7c0.7,1.3,1.6,2.4,2.1,3.8H74.3
		z M77.7,90.1c4.1-3,4-9.2-0.3-12.1c-1-0.7-2.2-1.2-3.3-1.5c-4-1.1-8-1.3-12.1-0.4c-2.8,0.6-5.4,1.7-7.4,3.8
		c-2.3,2.4-2.4,5.3-0.4,7.9c1.4,1.7,3.2,2.7,5.2,3.5c1.3,0.5,1.4,0.4,1.4-1c0-3.6,0-7.3,0-10.9c0-0.7,0.1-1.2,1-1.2
		c4.1,0,8.2-0.1,12.3,0c3.1,0.1,5.3,2.1,5.7,4.9c0.4,3.1-1.2,5.6-4.1,6.6c-0.2,0.1-0.5,0.1-0.8,0.3C74.8,90.2,76.7,90.8,77.7,90.1z
		 M67.5,85.6c0.1,0.6,0.3,0.8,0.9,0.8c1,0,1.9,0,2.9,0c1.1-0.1,1.6-0.6,1.6-1.7c0-1-0.5-1.6-1.6-1.6c-0.5,0-0.9,0-1.4,0
		C67.3,83.1,67.2,83.2,67.5,85.6z"/>
	<path id="Fill-1_5_" class="st2" d="M26.2,289.9c-1.1,0-2.2,0-3.2,0c-0.7,0-1,0.2-1.2,0.9c-0.3,1.2-0.5,2.3-0.8,3.5
		c-0.2,0.6,0,0.8,0.6,0.8c1.7,0,3.3,0,5,0c1,0,1.2,0.2,0.9,1.2c-0.3,1.3-0.7,2.6-1,3.8c-0.2,0.8-0.6,1.2-1.5,1.2c-1.6,0-3.2,0-4.8,0
		c-0.8,0-1.1,0.2-1.3,1c-0.7,3.1-1.5,6.1-2.2,9.1c-0.2,0.9-0.7,1.3-1.5,1.3c-1.7,0-3.4,0-5.1,0c-1.1,0-1.3-0.3-1-1.4
		c2.2-8.9,4.4-17.7,6.6-26.6c0.2-0.7,0.6-1,1.2-1c4.6,0,9.3,0,13.9,0c0.9,0,1.1,0.3,0.9,1.1c-0.3,1.4-0.7,2.7-1,4.1
		c-0.2,0.7-0.6,1-1.3,1C28.4,289.9,27.3,289.9,26.2,289.9z M40.2,301.3c-2.4,0-2-0.2-2.6,2c-0.5,1.7-0.4,1.7-2.2,1.7
		c-0.4,0-0.9,0-1.3,0c-0.9,0-1.1-0.3-0.9-1.2c0.1-0.6,0.3-1.1,0.4-1.7c0.1-0.5,0.1-0.8-0.6-0.8c-2-0.1-2-0.1-1.5-2.1
		c0.1-0.3,0.1-0.5,0.2-0.8c0.4-1.5,0.5-1.6,2-1.5c0.9,0,1.4-0.2,1.5-1.2c0-0.1,0.1-0.2,0.1-0.3c0.4-1.7,0.5-1.7-1.2-1.7
		c-0.9,0-1.1-0.3-0.9-1.2c0.2-0.7,0.4-1.4,0.5-2c0.2-0.8,0.7-1.1,1.4-1.1c1.8,0,1.6,0.1,2.1-1.7c0.5-2,0.5-2,2.6-2
		c2.3,0,2.3,0,1.7,2.2c-0.1,0.2-0.1,0.5-0.2,0.7c-0.2,0.6,0,0.9,0.7,0.9c0.1,0,0.2,0,0.3,0c0.9,0,2,0.3,2.8-0.1
		c0.8-0.5,0.6-1.7,0.9-2.6c0.2-0.7,0.6-1.1,1.4-1c0.7,0,1.5,0,2.2,0c0.7,0,0.9,0.4,0.8,1c-0.2,0.7-0.3,1.3-0.5,2
		c-0.1,0.5,0,0.7,0.5,0.7c2.1,0.2,2.1,0.2,1.6,2.2c0,0.1-0.1,0.3-0.1,0.4c-0.5,1.7-0.5,1.8-2.3,1.8c-0.7,0-1.1,0.3-1.2,1
		c0,0.1-0.1,0.2-0.1,0.3c-0.4,1.7-0.4,1.7,1.3,1.9c0.7,0.1,1,0.4,0.8,1.1c-0.2,0.7-0.4,1.5-0.5,2.2c-0.2,0.7-0.6,1.1-1.4,1.1
		c-0.2,0-0.5,0-0.7,0c-0.7-0.1-1.2,0.2-1.3,1c-0.1,0.6-0.3,1.2-0.4,1.8c-0.2,0.7-0.5,1-1.2,1c-0.7,0-1.5,0-2.2,0
		c-0.8,0-1-0.3-0.8-1.1c0.1-0.6,0.2-1.2,0.4-1.8c0.2-0.7-0.1-0.9-0.7-0.8C41,301.3,40.6,301.3,40.2,301.3z M41.3,296.9
		c2.2,0,2,0.3,2.6-2c0-0.1,0-0.2,0.1-0.3c0.3-0.7,0-0.9-0.7-0.9c-0.7,0-1.4,0.1-2.1,0c-0.9-0.1-1.3,0.3-1.4,1.1
		C39.3,297,38.7,296.9,41.3,296.9L41.3,296.9z"/>
	<path id="Imported-Layers_2_" class="st3" d="M34.1,11.8c-1.5,2.1-3.4,3.9-5.2,5.7c-2.4,2.5-5,4.9-7.5,7.3
		c-1.3,1.3-2.7,2.6-4.1,3.9c-0.2,0.2-0.3,0.2-0.6,0c-2.8-2.7-5.6-5.4-8.4-8.1c-2.2-2.2-4.4-4.4-6.6-6.7c-0.6-0.7-1.3-1.4-1.8-2.2
		v-1.2c0-0.1,0-0.2,0.1-0.3c0.5-2.9,1.8-5.3,4.4-6.9c0.6-0.4,1.2-0.7,1.7-1c1.8-1.1,3.7-1.9,5.8-2.2c3.2-0.4,6.5-0.4,9.7-0.1
		c1.7,0.2,3.4,0.6,4.9,1.4C27.4,2.1,28.1,2.6,29,3c2,1.1,3.5,2.7,4.4,4.8c0.4,0.9,0.6,1.9,0.8,2.9V11.8L34.1,11.8z M17,1.9
		c-1.4,0-2.8,0.1-4.2,0.2C11,2.2,9.3,2.7,7.7,3.7C7.2,4,7,4.5,7.1,5c0.1,0.6,0.6,1,1.1,1.4c1,0.8,2.2,1.2,3.4,1.5
		c3,0.7,6.1,0.8,9.1,0.3c1.5-0.2,2.9-0.6,4.2-1.3c0.6-0.4,1.3-0.8,1.6-1.4c0.4-0.7,0.2-1.6-0.5-2c-0.9-0.6-1.9-1-3-1.2
		C21.1,1.9,19.1,1.9,17,1.9L17,1.9z M18.4,17.1c0.9-0.1,1.8-0.1,2.7-0.3c2.5-0.4,4.9-1.1,7.1-2.4c0.4-0.2,0.4-0.2,0.1-0.5
		c-1.7-1.7-3.3-3.3-5-5c-0.3-0.3-0.3-0.3-0.5,0.1c-1.5,2.6-3,5.1-4.5,7.7c0,0.1-0.1,0.2-0.1,0.2C18.1,17.2,18.3,17.1,18.4,17.1
		L18.4,17.1z M17,26.2c0.1-0.1,0.2-0.2,0.2-0.3c0.3-0.4,0.5-0.9,0.7-1.3c1.3-2.2,2.6-4.5,3.9-6.7c0-0.1,0.1-0.1,0.1-0.2
		c0,0-0.1,0-0.2,0c-1,0.2-2,0.3-2.9,0.3c-1.5,0.1-2.9,0.1-4.4-0.1c-0.7-0.1-1.4-0.2-2.1-0.3c-0.2,0-0.2,0-0.1,0.2
		c0,0.1,0.1,0.2,0.1,0.2c0.9,1.5,1.8,3.1,2.7,4.6C15.7,23.9,16.3,25.1,17,26.2L17,26.2z M15.7,17.1c0.1,0,0.2,0.1,0.3,0
		c0.1-0.1-0.1-0.2-0.1-0.3c-1.4-2.5-2.9-4.9-4.3-7.4C11.4,9,11.4,9,11.1,9.3c-1.6,1.6-3.2,3.2-4.9,4.8c-0.3,0.3-0.3,0.3,0.1,0.5
		c0,0,0.1,0.1,0.1,0.1C9.3,16.3,12.4,17,15.7,17.1L15.7,17.1z M12.6,9.1c0,0.2,0.1,0.3,0.2,0.4c0.6,1,1.2,2.1,1.8,3.1
		c0.8,1.3,1.5,2.6,2.3,3.9c0.1,0.3,0.2,0.2,0.3,0c0.1-0.2,0.2-0.3,0.3-0.5c1.3-2.2,2.6-4.5,3.9-6.7c0-0.1,0.1-0.2,0.1-0.2
		c-0.1-0.1-0.2,0-0.3,0c-0.7,0.1-1.3,0.2-2,0.3c-1.6,0.1-3.1,0.1-4.7,0C13.9,9.3,13.3,9.2,12.6,9.1L12.6,9.1z M5.3,13.7
		c0,0,0.1,0,0.1,0.1c0.1-0.1,0.1-0.2,0.2-0.3c1.5-1.5,3-3,4.5-4.5c0.4-0.4,0.4-0.4-0.1-0.6c-1.5-0.6-3-1.3-3.8-3
		C5.9,8.2,5.6,10.9,5.3,13.7L5.3,13.7z M27.7,5.3c-0.2,0.4-0.4,0.8-0.7,1.1c-0.8,0.9-1.8,1.4-2.9,1.8c-0.3,0.1-0.3,0.1-0.1,0.4
		c1.5,1.5,3.1,3.1,4.6,4.6c0.1,0.1,0.1,0.1,0.2,0.2C28.6,10.7,28.1,8,27.7,5.3L27.7,5.3z M1.9,10.8c0,0.2,0.1,0.3,0.2,0.5
		C2.7,12,3.3,12.6,4,13.2c0.1,0.1,0.1,0.2,0.3,0.1c0.1,0,0.1-0.2,0.1-0.3c0.3-2.5,0.6-5,0.9-7.5c0-0.1,0.1-0.2,0-0.2
		C5.1,5.2,5,5.3,5,5.3c-0.5,0.4-1,0.9-1.4,1.4C2.6,8,2.1,9.3,1.9,10.8L1.9,10.8z M28.7,5c0,0.3,0.1,0.4,0.1,0.6
		c0.1,1,0.3,1.9,0.4,2.9c0.2,1.5,0.4,3,0.7,4.5c0,0.2,0.1,0.3,0.3,0.1c0.7-0.6,1.3-1.2,1.9-1.8c0.1-0.2,0.2-0.3,0.1-0.6
		c-0.2-1.1-0.5-2.2-1.1-3.2C30.5,6.5,29.7,5.7,28.7,5L28.7,5z M28.3,15.6c-1.5,0.8-3.1,1.4-4.8,1.8c-0.2,0-0.2,0.2-0.3,0.3
		c-0.9,1.5-1.8,3.1-2.7,4.6c-0.4,0.6-0.7,1.2-1.1,1.8c0,0,0,0,0.1,0.1C22.4,21.4,25.4,18.5,28.3,15.6L28.3,15.6z M14.8,24.3
		c-1.3-2.2-2.5-4.4-3.8-6.5c-0.1-0.3-0.3-0.4-0.6-0.5c-1.1-0.3-2.2-0.7-3.3-1.1C6.8,16,6.4,15.8,6,15.7
		C8.9,18.7,11.8,21.5,14.8,24.3L14.8,24.3z"/>
	<path id="Fill-1_6_" class="st2" d="M93.8,226.5c-0.3-1.2-0.9-2.1-1.4-2.9c-0.4-0.7-0.5-1.4,0.2-2.1c0.8-0.9,1.5-1.8,2.2-3
		c-1.1,0.3-2.2,0.5-3.2,0.9c-0.9,0.3-1.5,0.1-1.9-0.8c-0.4-0.9-1-1.7-1.6-2.7c-0.5,1.3-0.6,2.5-0.7,3.6c-0.1,0.8-0.5,1.3-1.3,1.5
		c-1.1,0.3-2.3,0.7-3.6,1.1c0.9,0.6,1.9,0.9,2.7,1.2c0.6,0.2,0.7,0.5,0.1,0.9c-0.5,0.3-1.1,0.7-1.6,1.1c-0.2,0.1-0.4,0.2-0.6,0.2
		c-1.4-0.6-2.9-0.9-4-2c-0.9-0.9-0.6-2.2,0.7-2.7c1.3-0.5,2.6-1,3.9-1.3c1.1-0.3,1.6-0.8,1.7-1.9c0.1-1.1,0.4-2.2,0.6-3.2
		c0.2-1,0.6-1.9,1.7-2.1c1-0.2,1.5,0.6,2,1.4c0.5,0.9,1.1,1.7,1.6,2.6c0.3,0.7,0.8,0.7,1.4,0.6c1.4-0.4,2.8-0.8,4.3-1.1
		c0.7-0.2,1.5-0.2,1.9,0.5c0.4,0.7,0.1,1.4-0.4,1.9c-1,1.2-1.9,2.5-3,3.6c-0.6,0.7-0.6,1.2-0.2,1.9c0.6,1,1.1,2,1.6,3
		c0.4,0.8,0.6,1.6,0,2.4c-0.6,0.7-1.4,0.8-2.3,0.6c-0.7-0.2-1.4-0.4-2.1-0.6c-1.7-0.5-1.7-0.6-1.9-2.3c-0.1-0.7,0.2-0.9,0.8-0.7
		C92,226.1,92.8,226.3,93.8,226.5z M58.5,238.2c-0.6,0-1.3-0.1-2-0.4c-0.6-0.3-0.8-0.1-0.8,0.5c-0.1,0.7-0.2,1.4-0.3,2.1
		c-0.2,1.2-1.2,0.8-1.9,0.8c-0.8,0-0.7-0.7-0.6-1.2c0.3-2.5,0.6-5,1-7.5c0.5-3,3.1-5.2,6-5.3c3.4-0.1,5.6,3.1,4.6,6.5
		C63.7,236.4,61.3,238.2,58.5,238.2z M62.1,232.4c0-1.5-1-2.5-2.4-2.6c-1.7,0-3.4,1.6-3.3,3.3c0,1.3,1.2,2.5,2.5,2.5
		C60.6,235.7,62.1,234.1,62.1,232.4z M51.6,223.6c0.9-0.1,1.9,0.6,2.7,1.6c0.4,0.5,0.4,0.9-0.1,1.3c-0.3,0.2-0.7,0.5-0.9,0.7
		c-0.5,0.5-1,0.5-1.4-0.1c-0.2-0.4-0.6-0.6-1.1-0.7c-0.5,0-0.9,0.1-1.2,0.6c-0.3,0.4,0,0.8,0.2,1.1c0.9,1,1.8,1.9,2.6,2.9
		c1.2,1.5,1.4,3.1,0.4,4.8c-1.2,2-3.7,3.1-5.9,2.5c-0.6-0.2-1.1-0.4-1.5-0.8c-0.6-0.6-1.2-1.3-1-2.1c0.3-0.8,1.4-1,2.1-1.3
		c0.5-0.2,0.5,0.3,0.7,0.6c0.5,0.7,1.1,1.2,2,0.9c1.1-0.4,1.5-1.3,0.7-2.3c-0.6-0.8-1.3-1.6-2-2.3c-1.2-1.3-2-2.6-1.2-4.4
		C47.6,224.6,49,223.6,51.6,223.6z M76.2,233c-0.1,0.9-0.3,2.5-0.6,4.1c-0.2,1.3-1.2,0.8-1.9,0.8c-0.9,0-0.7-0.7-0.6-1.2
		c0.2-1.5,0.5-3,0.4-4.5c-0.1-1.5-1-2.4-2.3-2.4c-1.6,0-3,1.2-3.3,2.8c-0.2,1.5,0.5,2.5,1.8,2.9c0.9,0.2,1.6-0.1,2.4-0.5
		c0.2-0.1,0.4-0.4,0.7-0.2c0.1,0.1,0.1,0.4,0.1,0.6c-0.1,2.2-0.5,2.7-2.6,2.7c-3.7,0.1-5.9-3.1-4.7-6.7c1.2-3.6,5.6-5.4,8.5-3.5
		C75.7,229,76.3,230.4,76.2,233z M86.2,229.4c1-1.1,2-2.2,3-3.3c0.2-0.2,0.3-0.5,0.6-0.4c0.3,0.1,0.2,0.4,0.3,0.7
		c0.6,1.4-0.2,2.4-1.1,3.3c-1.6,1.7-1.6,1.2-0.3,3.1c1,1.4,2,2.9,3,4.3c0.4,0.6,0.3,0.8-0.4,0.9c-1.6,0.2-2.8-0.2-3.5-1.8
		c-0.4-0.9-1-1.7-1.6-2.5c-0.2-0.2-0.2-0.7-0.6-0.6c-0.4,0.1-0.3,0.5-0.3,0.8c-0.1,1-0.3,2-0.4,3c-0.1,0.9-0.6,1.1-2.1,0.9
		c-0.9-0.1-0.7-0.6-0.6-1.2c0.4-3.3,0.8-6.6,1.3-9.8c0.1-1,1.7-2.6,2.6-2.7c0.6-0.1,0.4,0.3,0.4,0.6c-0.1,1.1-0.3,2.2-0.4,3.3
		c0,0.4-0.1,0.8-0.1,1.2C86.1,229.3,86.1,229.3,86.2,229.4z M76.6,236.5c0.2-1.8,0.5-3.8,0.7-5.7c0.4-2.7,2.2-3.5,4.6-3.2
		c0.3,0,0.5,0.1,0.5,0.4c0.3,1.1-0.3,2-1.4,2.1c-0.7,0.1-1.1,0.3-1.1,1.1c-0.2,1.9-0.5,3.8-0.8,5.7c-0.2,1.1-0.6,1.3-2,1.1
		C76.1,237.8,76.6,237.2,76.6,236.5z"/>
	<path id="Fill-1_7_" class="st2" d="M74.8,141.7c1.6,2.5,3.3,5,4.9,7.4c4.5,6.8,9.1,13.6,13.6,20.3c0.2,0.4,0.6,0.7,0.6,1.2h-7.2
		c-1.8-2.7-3.6-5.4-5.4-8.1c-0.3-0.5-0.6-0.9-1.1-0.1c-1.8,2.7-3.6,5.5-5.4,8.2h-7.4c3-4.5,6-9,9-13.5c0.5-0.7,0.5-1.2,0-1.8
		c-0.7-0.9-1.3-1.9-1.9-2.8c-2.4-3.6-4.8-7.2-7.2-10.7H74.8z M57.8,141.9c0-0.5,0.4-0.2,0.5-0.2c2.3,0,4.6,0,6.9,0c3,4.5,6,9,9,13.5
		c0.5,0.7,0.5,1.2,0,2c-3,4.5-6,9-9,13.5c-2.3,0-4.6,0-6.9,0c-0.2,0-0.5,0.3-0.5-0.2c3.1-4.6,6.1-9.1,9.2-13.7
		c0.3-0.4,0.3-0.7,0-1.1C63.9,151,60.9,146.5,57.8,141.9z M98.9,155c-4,0-8.1,0-12.1,0c-0.5,0-0.9-0.1-1.1-0.5
		c-0.8-1.2-1.6-2.4-2.4-3.7c-0.5-0.7-0.1-0.8,0.5-0.8c5.1,0,10.1,0,15.2,0V155z M98.9,162.2c-2.5,0-4.9,0-7.4,0
		c-0.4,0-0.8-0.1-1-0.5c-0.8-1.2-1.6-2.4-2.5-3.7c-0.5-0.7-0.1-0.8,0.5-0.8c3.5,0,6.9,0,10.4,0V162.2z"/>
</g>
</svg>
