<?xml version="1.0" encoding="UTF-8" standalone="no"?>
<svg width="747px" height="313px" viewBox="0 0 747 313" version="1.1" xmlns="http://www.w3.org/2000/svg" xmlns:xlink="http://www.w3.org/1999/xlink" xmlns:sketch="http://www.bohemiancoding.com/sketch/ns">
    <!-- Generator: Sketch 3.3.3 (12072) - http://www.bohemiancoding.com/sketch -->
    <title>Artboard</title>
    <desc>Created with Sketch.</desc>
    <defs></defs>
    <g id="Page-1" stroke="none" stroke-width="1" fill="none" fill-rule="evenodd" sketch:type="MSPage">
        <g id="Artboard" sketch:type="MSArtboardGroup" fill="#767474">
            <g id="Group-Copy-4-+-Group-+-Group-Copy" sketch:type="MSLayerGroup">
                <g id="Group" opacity="0.4" sketch:type="MSShapeGroup">
                    <g transform="translate(62.729124, 0.000000)">
                        <path d="M142.549956,14.1518676 C141.50438,14.1523269 140.458919,14.1469296 139.413458,14.1533604 C137.100186,14.1677151 135.248725,16.0258921 135.235263,18.3445655 C135.230243,19.2056131 135.218037,20.0671201 135.240625,20.9275935 C135.253288,21.4077269 135.093685,21.6292474 134.589322,21.6225869 C133.772256,21.6117922 132.952338,21.6418795 132.143714,21.5114247 C130.959755,21.3205657 130.120899,20.6150073 129.641064,19.5472531 C128.754065,17.5736649 128.456535,15.4837468 128.652188,13.3298645 C128.731818,12.4537732 128.894502,11.5874431 129.144002,10.7410946 C129.772716,8.60880167 131.366007,7.39049621 133.570442,7.38257246 C136.383742,7.37235197 139.197041,7.37855317 142.010341,7.37625643 C142.200062,7.37614159 142.390695,7.37361518 142.579275,7.35478192 C142.761695,7.33652284 142.833567,7.21135054 142.832997,7.0345016 C142.832426,6.85765266 142.757702,6.73420291 142.57802,6.71238388 C142.408948,6.69182807 142.237025,6.68815328 142.066356,6.68792361 C140.260528,6.68574171 138.454586,6.67242062 136.648986,6.69355062 C136.112337,6.69986665 135.88919,6.51773521 135.914516,5.96399133 C135.959922,4.97168503 135.873789,3.97673749 136.007723,2.98431637 C136.13561,2.03656682 136.596279,1.34708563 137.441524,0.914035401 C138.730097,0.253837638 140.142451,0.141527078 141.540887,0.0466717377 C143.057513,-0.0562221909 144.577448,0.0108426018 146.087343,0.24958867 C148.128183,0.572395404 149.499239,1.77519787 149.78034,3.54024216 C149.813311,3.74671903 149.822209,3.95893776 149.822551,4.16863008 C149.82586,6.19676587 149.831336,8.2250165 149.823464,10.2532671 C149.814337,12.6063916 148.37004,14.0944491 146.028362,14.1470444 C144.869388,14.1729976 143.709386,14.151523 142.549956,14.1518676 L142.549956,14.1518676 Z M140.228242,3.49396286 C140.21421,2.80517069 139.646873,2.23018196 138.997395,2.24637397 C138.344609,2.26279566 137.773621,2.85053129 137.768488,3.51130324 C137.763354,4.17471644 138.337992,4.73936984 139.012454,4.73362799 C139.704028,4.72788614 140.242274,4.17908024 140.228242,3.49396286 Z M148.519718,21.521071 C146.866533,21.521071 145.213235,21.5190039 143.560051,21.5234826 C143.339528,21.5241716 143.08843,21.4743324 142.946168,21.7220357 C142.755306,22.0542591 142.976628,22.3131016 143.477226,22.3148242 C145.1684,22.320566 146.859688,22.3163171 148.550977,22.3164319 C149.850388,22.3164319 149.729231,22.2374241 149.734137,23.480764 C149.736418,24.0355414 149.730942,24.5903188 149.734707,25.1449814 C149.741666,26.1642744 149.293318,26.947118 148.494163,27.5365762 C147.092305,28.5704535 145.452811,28.9332235 143.778065,29.0634486 C141.64128,29.2295029 139.556632,28.92863 137.680871,27.7936962 C136.59183,27.1348765 135.958667,26.2012519 135.999737,24.8228637 C136.061798,22.739721 136.017648,20.6533628 136.020044,18.5683827 C136.022439,16.3998013 137.493546,14.8854461 139.663415,14.8624788 C141.791528,14.8400855 143.924776,14.7663602 146.047072,14.8800488 C148.466098,15.0096998 150.749252,12.8004661 150.534318,10.3197577 C150.470203,9.57940377 150.540023,8.82825513 150.519716,8.08284833 C150.50671,7.6066194 150.665286,7.36454306 151.172844,7.38934784 C151.987286,7.42919627 152.802641,7.3531742 153.61868,7.47536074 C154.7035,7.63796989 155.469685,8.20147492 155.972451,9.16955061 C156.691291,10.5539103 156.962354,12.0621791 157.114199,13.5850323 C157.323314,15.6828741 156.976044,17.7013636 156.031889,19.6016858 C155.398725,20.8762614 154.465636,21.6032943 152.965894,21.5395598 C151.486231,21.4767439 150.002005,21.5258942 148.519718,21.5258942 L148.519718,21.521071 Z M145.504833,25.4466581 C145.495478,26.1503791 146.069204,26.75201 146.748229,26.7505171 C147.362683,26.7491391 147.974855,26.1192583 147.982498,25.4806499 C147.99037,24.8286055 147.415731,24.2077968 146.781199,24.1829921 C146.105596,24.1564647 145.514302,24.7420185 145.504833,25.4466581 L145.504833,25.4466581 Z" id="Fill-1"></path>
                        <g id="Imported-Layers" transform="translate(87.820774, 212.696710)">
                            <path d="M4.29670899e-07,21.7445581 C-0.00137538336,17.5859496 3.30145141,14.2514602 7.44102268,14.2325164 C11.5520771,14.213698 14.9199423,17.570644 14.9354515,21.7026558 C14.9510857,25.8577515 11.5878482,29.2192139 7.42001026,29.2139448 C3.33134408,29.2089265 0.0013762427,25.8567479 4.29670899e-07,21.7445581 L4.29670899e-07,21.7445581 Z M7.38974237,26.7285402 C10.1012197,26.9331586 12.4847533,24.4394738 12.501263,21.7833239 C12.5185232,18.9914308 10.2014039,16.7073827 7.50893781,16.6742624 C4.64474523,16.6390093 2.46895945,19.1909055 2.44319423,21.6354115 C2.41255112,24.5486204 4.88401162,26.8477232 7.38974237,26.7285402 L7.38974237,26.7285402 Z" id="Fill-1"></path>
                            <path d="M23.1500293,7.44950199 C23.1545412,11.622395 19.8621118,14.9631186 15.7269608,14.9814383 C11.5874233,14.9997581 8.21841705,11.6587836 8.21453181,7.53131358 C8.21052123,3.36695308 11.5287687,0.00452182605 15.6468747,4.62170283e-06 C19.8143609,-0.00451258265 23.1456427,3.30283387 23.1500293,7.44950199 L23.1500293,7.44950199 Z M15.6991375,2.48371415 C12.7709182,2.3960051 10.5928013,4.81045082 10.6306511,7.47422113 C10.6715088,10.3487943 12.7922244,12.490702 15.6710635,12.5243301 C18.491624,12.5573308 20.7716345,10.2713745 20.7410538,7.44423192 C20.7119772,4.74319467 18.4378572,2.33640309 15.6991375,2.48371415 L15.6991375,2.48371415 Z" id="Fill-2"></path>
                            <path d="M23.8874683,14.2324394 C28.0462409,14.229673 31.3641873,17.5426211 31.3645621,21.6981723 C31.364812,25.8717048 28.0587365,29.2135737 23.9294534,29.213951 C19.7678068,29.2142025 16.4124987,25.842281 16.4291178,21.6765446 C16.445487,17.575943 19.792548,14.2352057 23.8874683,14.2324394 L23.8874683,14.2324394 Z M28.8846931,21.7645646 C29.0852468,18.991808 26.5946316,16.6483376 23.9609422,16.6406673 C21.1384449,16.632494 18.9061129,18.889076 18.8787476,21.7128843 C18.8530068,24.3649277 21.0103654,26.7928972 23.8777218,26.8009448 C26.6672308,26.8087409 29.0128975,24.5263815 28.8846931,21.7645646 L28.8846931,21.7645646 Z" id="Fill-3"></path>
                            <path d="M7.39434693,26.2071296 C5.16193327,26.3135553 2.96005177,24.2605487 2.98735242,21.65917 C3.01030726,19.4763242 4.94876529,17.1975832 7.50054091,17.2290628 C9.89932143,17.2586379 11.9636968,19.2982012 11.9483193,21.7912498 C11.9336103,24.1630852 9.810065,26.3898456 7.39434693,26.2071296" id="Fill-4"></path>
                            <path d="M15.6941358,3.00205305 C18.1213963,2.87026115 20.1368934,5.02349839 20.1626633,7.43998266 C20.1897662,9.96928709 18.1690484,12.014419 15.6692545,11.984895 C13.1178096,11.9548096 11.2382711,10.0385508 11.2020599,7.46681253 C11.1685145,5.08366914 13.0989264,2.92358411 15.6941358,3.00205305" id="Fill-5"></path>
                            <path d="M28.3673123,21.7619088 C28.4819993,24.2053082 26.3836521,26.2245279 23.8882599,26.2176307 C21.3232283,26.210511 19.3933346,24.0624688 19.4163614,21.7161868 C19.4408414,19.2179433 21.4378035,17.2215289 23.9627058,17.2287599 C26.3187075,17.2355459 28.5467203,19.308831 28.3673123,21.7619088" id="Fill-6"></path>
                        </g>
                        <path d="M87.3727266,85.329052 C87.3602998,77.2989419 93.829932,70.8206905 101.93208,70.75019 C109.944347,70.6807063 116.578422,77.2325087 116.591019,85.2271991 C116.603957,93.3037446 110.077637,99.8421587 101.989108,99.8562249 C93.9642443,99.8702912 87.3853237,93.3315381 87.3727266,85.329052 L87.3727266,85.329052 Z M108.021416,83.5214595 C110.430016,83.5233237 112.360436,81.6084552 112.335412,79.2424512 C112.310559,76.8978008 110.404141,75.0180131 108.049675,75.0161489 C105.643118,75.0144542 103.743169,76.905427 103.745892,79.2995634 C103.748616,81.6384518 105.653842,83.5197648 108.021416,83.5214595 L108.021416,83.5214595 Z M110.631229,92.0465984 C110.923856,92.7499088 111.419739,93.0785158 112.172161,92.9276854 C112.416783,92.8787079 112.605569,92.7846507 112.56948,92.4875656 C112.544456,92.2826735 112.656468,92.0069419 112.307835,91.9645738 C111.821655,91.9052585 111.857063,91.545977 111.857403,91.2019481 C111.858765,89.9880174 111.86949,88.7739172 111.85468,87.560156 C111.839359,86.3147034 111.163201,85.7762896 109.543963,85.685283 C107.73696,85.5839385 106.566621,86.2001401 106.421585,87.3371303 C106.398944,87.5147374 106.290166,87.7894521 106.593688,87.8053825 C106.911169,87.8219908 107.389348,88.0121388 107.521277,87.6326901 C107.908553,86.5177313 108.795287,86.6694091 109.630781,86.7321139 C110.207013,86.7751599 110.64672,87.0368252 110.668169,87.7321704 C110.690299,88.4476828 110.206843,88.5403842 109.679467,88.6327467 C108.845845,88.7784929 107.977326,88.7645962 107.192391,89.1381133 C106.378686,89.5253578 105.97609,90.2339218 106.073122,91.1353454 C106.16743,92.0110092 106.653269,92.5743355 107.506297,92.8271883 C108.679359,93.1751151 109.675552,92.7965138 110.631229,92.0465984 L110.631229,92.0465984 Z M103.885652,91.797474 C103.892121,92.3777475 103.937062,92.727708 104.53202,92.6550043 C105.156938,92.5787417 104.855969,92.1377746 104.860055,91.8879723 C104.890186,90.054959 104.858523,88.2209288 104.888143,86.3879155 C104.896144,85.9022076 104.699527,85.832046 104.292845,85.8545859 C103.939275,85.8742447 103.645286,85.8166241 103.669459,86.3621557 C103.717975,87.4601673 103.679843,88.5617378 103.68546,89.661783 C103.688014,90.1513887 103.600515,90.6157431 103.348743,91.0406104 C102.935082,91.7388366 102.158317,92.0638846 101.389894,91.8772955 C100.538739,91.6705392 100.4366,91.039763 100.445622,90.3103538 C100.461965,88.9847408 100.429621,87.6584499 100.461284,86.3333454 C100.472519,85.86611 100.249857,85.8388249 99.8967975,85.8583143 C99.567911,85.8764478 99.2330665,85.7652739 99.2456636,86.3318201 C99.2812419,87.9387573 99.2420887,89.5473892 99.2664318,91.1548347 C99.2795396,92.0174492 99.7597614,92.5733186 100.585552,92.8126136 C101.811216,93.1676583 102.871756,92.8693869 103.885652,91.797474 L103.885652,91.797474 Z M92.1087255,87.8902882 C92.1087255,89.2711492 92.1265998,90.6523491 92.0986819,92.0325322 C92.0894894,92.4919719 92.1933304,92.6634779 92.6943204,92.6534791 C94.3070897,92.6212793 95.9212208,92.6270414 97.5343305,92.6511064 C97.9709732,92.6575464 98.1134567,92.5458641 98.1137971,92.0932033 C98.1143078,91.6261375 97.8848363,91.6173249 97.5387565,91.6207143 C96.3500329,91.6324079 95.159607,91.5913956 93.9727559,91.6396952 C93.3944809,91.6632519 93.2819581,91.4654776 93.2879162,90.9336733 C93.3154937,88.53852 93.2874055,86.1428584 93.3107272,83.7478746 C93.3153234,83.2735214 93.1876501,83.1333678 92.7043641,83.1333678 C92.221078,83.1333678 92.0872764,83.2728435 92.0978307,83.7478746 C92.1286426,85.1280577 92.1087255,86.5094272 92.1087255,87.8902882 Z M110.621356,89.339153 C110.741028,91.217978 110.001374,92.0786754 108.43695,91.9241261 C107.868379,91.8680342 107.367899,91.6714583 107.275293,91.026147 C107.178091,90.348638 107.585454,89.9505718 108.181093,89.8014453 C108.969433,89.604022 109.779903,89.4942107 110.621356,89.339153 Z" id="Fill-1"></path>
                        <path d="M74.8268839,156.995133 L74.8268839,156.028189 C74.840388,155.929002 74.8618889,155.830192 74.8661891,155.730627 C74.934841,154.157681 75.2445293,152.631345 75.8479123,151.180325 C77.7747695,146.546095 81.1704771,143.591854 86.0299052,142.334147 C86.8496551,142.121948 87.6898496,142.04497 88.5271019,141.947067 L90.27735,141.947067 C91.0338042,142.044895 91.7928235,142.120966 92.5394703,142.289879 C99.6850091,143.906564 104.523464,150.513435 103.852108,157.816431 C103.496099,161.689041 101.835325,164.94515 98.8930218,167.486777 C95.5247749,170.396372 91.5849061,171.512815 87.1932921,170.882715 C83.7848348,170.393728 80.9166157,168.810735 78.5988195,166.258229 C76.7763736,164.251141 75.6184185,161.904564 75.0987005,159.239878 C74.9538523,158.496993 74.9013449,157.74527 74.8268839,156.995133 L74.8268839,156.995133 Z M89.8241716,146.045701 C89.8272647,147.378951 89.7008998,148.700189 89.5321366,150.017877 C89.3184102,151.686006 88.9648903,153.329358 88.6312869,154.975731 C88.3329149,156.447601 88.0882574,157.927101 88.0804114,159.431001 C88.0706794,161.292746 88.4675029,163.082196 89.0913306,164.832894 C89.2742768,165.346205 89.5347771,165.626392 90.0826349,165.712964 C90.6280032,165.799158 91.1840842,165.962556 91.5628016,166.39821 C91.9485352,166.841946 92.3857955,166.923683 92.9126805,166.764591 C93.0567742,166.721078 93.2077331,166.697962 93.3488846,166.646896 C96.1117116,165.647619 98.1358886,163.831276 99.2618564,161.105702 C100.091263,159.09816 99.8518862,157.169712 98.5709611,155.385096 C97.780709,154.284064 96.7872923,153.39659 95.7198672,152.583375 C94.5910326,151.7234 93.3972427,150.955888 92.2170323,150.17085 C91.3550351,149.597483 90.7536137,148.843871 90.3704451,147.888711 C90.1303141,147.290113 89.9788271,146.669304 89.8241716,146.045701 L89.8241716,146.045701 Z M86.5613168,166.804553 C84.6609396,165.673153 83.1270584,164.180433 82.0416028,162.248585 C80.9605228,160.324366 80.8525657,158.385266 81.973328,156.417535 C82.6947773,155.150914 83.6013605,154.020874 84.4666772,152.859257 C85.3579458,151.66289 86.2150392,150.445598 86.8522955,149.088855 C87.1977432,148.353449 87.4746898,147.59402 87.6640485,146.764261 C87.6186326,146.806716 87.5975089,146.817141 87.5919262,146.833005 C87.0535741,148.359794 86.0371476,149.541883 84.8803996,150.6269 C83.7797048,151.659415 82.609679,152.613895 81.5459506,153.689544 C78.8123196,156.454097 78.9485673,160.335169 80.5496672,162.93791 C81.9261015,165.175403 84.0893931,166.251355 86.5613168,166.804553 L86.5613168,166.804553 Z M88.7374334,146.04759 C88.7197046,146.152216 88.7010705,146.256616 88.6846242,146.361469 C88.675194,146.421072 88.670064,146.481355 88.6618408,146.541184 C88.3624881,148.729122 87.7327005,150.807296 86.5841002,152.706359 C86.0112711,153.653359 85.3942332,154.573694 84.8271377,155.523943 C83.9189702,157.045897 83.7428138,158.687285 84.1524624,160.390995 C84.6091866,162.290662 85.6324782,163.8556 87.0720573,165.156895 C87.3710329,165.427111 87.6923392,165.671113 88.0609475,165.842066 C88.146951,165.881952 88.2435164,165.959006 88.3383467,165.866995 C88.4172587,165.790395 88.3680707,165.696647 88.3443066,165.611057 C88.2460815,165.258273 88.0676618,164.942657 87.8858472,164.628929 C87.462091,163.897602 87.017362,163.178588 86.6348725,162.423163 C86.0576678,161.283001 85.7169729,160.079609 85.6973581,158.800901 C85.6798556,157.665044 85.9313783,156.58471 86.4814994,155.580675 C86.8055971,154.989253 87.1109852,154.388086 87.3686942,153.763651 C87.9921446,152.252877 88.3086981,150.66724 88.5089959,149.054332 C88.6328712,148.056642 88.7355474,147.056686 88.7374334,146.04759 L88.7374334,146.04759 Z M90.3638062,167.228951 C90.3825158,167.325343 90.3969252,167.422793 90.4206139,167.517976 C90.6459583,168.425544 91.1387437,169.142366 91.9382751,169.63717 C92.0015707,169.676376 92.0755791,169.761739 92.1504927,169.698586 C92.2251046,169.635583 92.1526805,169.548483 92.1278602,169.477095 C92.0573222,169.274113 91.9318626,169.103084 91.7812809,168.954643 C91.2514536,168.432116 90.7641755,167.876727 90.3638062,167.228951 L90.3638062,167.228951 Z M89.5384737,168.965521 C89.6891309,168.596345 89.8204749,168.229133 89.8846004,167.843035 C89.9328831,167.552046 89.857894,167.284625 89.702484,167.037601 C89.6003359,166.875261 89.4971317,166.860454 89.3845726,167.030274 C89.2587358,167.220263 89.1974017,167.425814 89.1946858,167.65501 C89.1891785,168.120276 89.3870622,168.531454 89.5384737,168.965521 L89.5384737,168.965521 Z M88.5953012,167.157261 C88.2102466,167.826945 87.6884162,168.381427 87.1587398,168.930847 C87.0635324,169.029582 86.996012,169.159892 86.9350551,169.285066 C86.8992957,169.358494 86.8150273,169.462213 86.9061609,169.529975 C86.9875625,169.590485 87.073717,169.496661 87.1463674,169.450051 C87.9820354,168.913775 88.4482653,168.13818 88.5953012,167.157261 Z M93.5236831,165.468508 C93.8315608,164.985943 94.1825157,164.54757 94.4948444,164.080641 C95.1768377,163.061044 95.7316361,161.982222 95.9892697,160.773013 C96.3868476,158.907718 95.9722953,157.203026 94.9500598,155.620486 C94.4120849,154.787781 93.7612491,154.049202 93.0826507,153.333286 C92.3908501,152.603394 91.644505,151.926156 90.9866532,151.163479 C90.68979,150.819231 90.4174453,150.457761 90.2852714,150.01274 C90.2601493,149.928283 90.2102069,149.814441 90.2871574,149.757179 C90.3807052,149.687529 90.4458868,149.806584 90.5081263,149.859842 C92.2115251,151.317736 93.9569449,152.728795 95.5190414,154.344875 C96.1848901,155.033747 96.7943838,155.767643 97.2852831,156.594682 C98.4414276,158.542545 98.3496905,160.440173 97.0112788,162.264675 C96.0767821,163.5387 94.8821623,164.532839 93.6056128,165.438669 C93.5827539,165.454911 93.5512193,165.458839 93.5236831,165.468508 Z" id="Fill-1"></path>
                        <path d="M130.403288,283.894134 C131.323674,284.097211 132.271549,284.400852 132.995611,284.914022 C133.914971,285.565443 134.8251,286.297051 135.530698,287.249963 C136.412003,288.439951 137.206122,289.654211 137.525431,291.110257 C137.739808,292.087235 137.855511,293.085617 138.023627,294.072938 C138.086402,294.441507 138.16487,294.807925 138.251647,295.171681 C138.289086,295.328263 138.260468,295.381209 138.10784,295.475117 C137.571794,295.80518 137.25946,295.747729 136.982308,295.141777 C136.859221,294.87275 136.756648,294.588771 136.728851,294.269461 C136.608225,292.884998 136.256811,291.527265 135.749383,290.257807 C135.380121,289.333979 134.679549,288.507439 133.855479,287.873427 C133.623562,287.695133 133.521297,287.34848 133.148034,287.317758 C133.324357,287.613104 133.588277,287.841783 133.679566,288.228785 C133.338307,288.155972 133.270916,287.886228 133.145572,287.690423 C132.724716,287.033062 132.02517,286.642885 131.554668,286.05383 C131.0177,285.381517 130.370875,285.114129 129.55337,285.094569 C129.406281,285.091087 129.198263,284.974443 129.180928,285.166869 C129.168414,285.305838 129.38751,285.396981 129.577885,285.335536 C129.60199,285.327753 129.638198,285.356939 129.711435,285.385716 C128.890032,286.244208 128.87362,287.269626 129.090151,288.334675 C129.176723,288.760286 129.427411,289.144318 129.636044,289.492712 C130.166243,290.37824 130.741676,291.252809 131.549437,291.939357 C132.317912,292.592519 133.140444,293.199086 133.776293,293.983638 C134.122784,294.411194 134.409577,294.896816 134.745606,295.341577 C135.192618,295.933191 135.620654,296.539143 136.063974,297.133728 C136.175368,297.283142 136.326663,297.409105 136.206755,297.615765 C136.036279,297.642494 135.978018,297.50373 135.918218,297.420984 C134.791148,295.86171 133.140751,294.885756 131.734991,293.63678 C130.105007,292.188517 128.564671,290.663755 127.944516,288.436982 C127.667774,287.443311 127.658132,286.50832 127.897742,285.539841 C128.118274,284.647964 128.712889,284.154457 129.599015,283.980363 C129.697998,283.960905 129.79339,283.923321 129.890424,283.894134 L130.403288,283.894134 Z M155.020762,296.183171 C154.656731,296.84258 154.216386,297.441466 153.65121,297.946647 C153.490376,298.090532 153.294256,298.213627 153.254971,298.460227 C153.23179,298.60534 153.113523,298.700477 152.998847,298.765712 C151.982863,299.343194 150.976521,299.921803 149.825142,300.233432 C149.069795,300.437942 148.299474,300.580086 147.541666,300.758072 C147.009518,300.883113 146.381567,300.765752 145.832803,300.620127 C144.821025,300.351612 143.834172,299.988164 142.841164,299.651854 C142.595605,299.568698 142.286245,299.599932 142.104897,299.261267 C142.354354,299.186714 142.569757,299.232183 142.784236,299.314212 C144.489817,299.965736 146.222477,299.816117 147.967445,299.511861 C149.183446,299.299875 150.352468,298.967764 151.428457,298.350035 C152.239603,297.884383 152.895556,297.255901 153.395598,296.466433 C153.652748,296.060383 153.573562,295.313312 153.231892,294.931635 C152.244013,293.828079 151.045143,293.617527 149.634869,293.962644 C147.866411,294.395526 146.379721,295.388889 144.844411,296.268067 C143.985364,296.760039 143.238942,297.469628 142.504418,298.148597 C142.076381,298.544304 141.893597,298.071176 141.606393,298.009936 C141.240105,297.931901 141.572441,297.715409 141.59511,297.57982 C141.708145,296.903308 142.160491,296.49224 142.740438,296.178665 C143.065081,296.003239 143.365927,295.785211 143.628821,295.518129 C144.467148,294.666908 145.62817,294.313087 146.572353,293.623877 C147.223998,293.148393 147.968881,292.84895 148.689353,292.500761 C149.095951,292.304239 149.546554,292.295432 149.993874,292.114271 C149.600507,291.915393 149.20355,292.190975 148.813774,292.040741 C148.854187,291.978784 148.876343,291.911809 148.901473,291.910682 C150.003926,291.862346 151.139612,291.661829 152.158673,292.237776 C153.037106,292.73415 153.746603,293.434113 154.173305,294.37658 C154.229515,294.500904 154.269826,294.633626 154.336806,294.751498 C154.405017,294.871419 154.416403,295.112796 154.625959,295.025236 C154.802487,294.9514 154.642781,294.792052 154.618471,294.671619 C154.606368,294.611915 154.585546,294.554054 154.643191,294.462398 C154.769048,294.694661 154.894905,294.926822 155.020762,295.159084 L155.020762,296.183171 Z M149.416902,312.195068 C148.931322,312.902302 147.498585,313.094114 146.857505,312.601016 C146.337461,312.200905 145.791671,311.840632 145.229264,311.494798 C144.666345,311.148657 144.211434,310.599439 143.774474,310.084017 C143.194835,309.400234 142.623095,308.703138 142.204803,307.898002 C142.132489,307.758931 142.096793,307.521138 141.817898,307.592517 C141.739635,307.612589 141.705889,307.496867 141.682707,307.407567 C141.338986,306.08117 141.068604,304.740744 141.114146,303.364986 C141.13425,302.756064 141.161124,302.144787 141.168715,301.527877 C141.507615,301.861934 141.437455,302.30096 141.473664,302.671987 C141.729583,305.293238 143.02518,307.425693 144.661524,309.362752 C145.375636,310.208136 146.289662,310.892328 147.325135,311.382763 C147.877694,311.644417 148.201619,311.309541 148.548315,311.037339 C148.880651,310.776299 148.684019,310.467742 148.553239,310.161335 C148.105714,309.112978 147.485558,308.159349 146.924485,307.17428 C146.69944,306.779187 146.379926,306.436631 146.095184,306.076562 C144.846155,304.497318 143.677235,302.840142 142.023762,301.63684 C141.571313,301.307494 141.891853,301.015732 141.980373,300.724891 C142.076381,300.409575 142.33425,300.590838 142.541754,300.616748 C143.270739,300.707789 143.606255,301.3035 144.102502,301.725833 C144.998373,302.48847 145.719152,303.376661 146.455317,304.275706 C147.014852,304.958874 147.648547,305.583464 148.199875,306.28056 C148.442152,306.586966 148.635707,306.955945 148.925886,307.193738 C149.423466,307.601222 149.67436,308.122379 149.927202,308.682759 C150.32262,309.559275 150.148656,310.406604 149.903917,311.259668 C149.80832,311.592803 149.54122,311.800078 149.220885,311.897673 C149.049589,311.949902 148.791105,311.920818 148.871625,312.172641 C148.960453,312.450782 149.187446,312.19005 149.416902,312.195068 Z M130.288509,304.21467 C130.520016,304.109087 130.671927,303.879589 130.943334,303.84774 C131.01093,303.909288 130.983953,303.996642 130.94036,304.028594 C130.279791,304.511963 129.966533,305.278696 129.443002,305.85495 C128.965115,306.381125 128.98327,306.906174 129.035377,307.486421 C129.044404,307.58586 128.939677,307.825087 129.191186,307.849153 C129.236625,307.853556 129.311606,307.83328 129.328736,307.800918 C129.410178,307.647817 129.149951,307.601119 129.222881,307.405519 C129.665277,307.587294 129.986125,307.976549 130.468422,308.094422 C130.899433,308.1998 131.529333,307.979621 131.74453,307.589752 C132.034093,307.06542 132.393406,306.576828 132.652505,306.039183 C133.043512,305.227594 133.677925,304.551697 133.926562,303.655724 C133.989849,303.427865 134.321877,303.284698 134.499123,303.076091 C135.018244,302.465019 135.708354,302.033776 136.217936,301.411234 C136.583608,300.964732 136.938612,300.51393 137.2212,300.010284 C137.286539,299.893948 137.306643,299.741359 137.524918,299.748015 C137.558562,299.9812 137.514866,300.215613 137.383881,300.398822 C136.839117,301.160435 136.465957,302.018927 136.003251,302.825702 C135.426997,303.830433 134.653803,304.703672 134.133656,305.740559 C133.738751,306.527877 133.340563,307.314068 132.809852,308.023043 C132.304886,308.697608 131.759198,309.304072 130.860866,309.464854 C130.025,309.614371 128.457995,308.900685 128.117659,308.220179 C127.417599,306.820561 127.671672,305.521814 128.31388,304.201664 C128.78469,303.2338 129.429154,302.383092 130.114341,301.577853 C130.498784,301.126026 130.954617,300.697036 131.481226,300.364925 C132.630349,299.640281 133.789627,298.920451 134.789814,297.994267 C135.17036,297.641879 135.386788,297.932105 135.66117,298.07814 C135.973505,298.244452 135.832262,298.464528 135.726407,298.684194 C135.496233,299.161931 135.229749,299.598908 134.676266,299.764503 C134.22033,299.900809 134.056419,300.381925 133.682028,300.616441 C133.264249,300.877992 132.839187,301.128996 132.432281,301.406318 C131.413425,302.100854 130.897997,303.188536 130.288509,304.21467 Z M141.549465,295.881885 C141.978424,295.897041 142.15208,295.618182 142.552935,295.683519 C142.046328,296.031913 141.576134,296.272881 141.173433,296.610727 C140.415523,297.246377 139.527242,297.75586 139.303121,298.838012 C139.261373,299.03986 139.098488,299.17934 138.959912,299.329983 C138.91078,299.383338 138.805848,299.504283 138.898676,299.590306 C138.930576,299.619697 139.038688,299.599523 139.120951,299.644378 C139.282503,299.732449 139.24291,299.543813 139.277785,299.482163 C139.338611,299.374531 139.298607,299.210165 139.540782,299.11175 C139.46775,299.853087 139.373485,300.57517 139.057151,301.14405 C138.756818,301.684153 138.730251,302.206232 138.711275,302.748896 C138.679375,303.656339 138.724712,304.566137 138.725943,305.475013 C138.726661,306.039592 138.750971,306.612671 138.938064,307.13731 C139.425798,308.504875 139.243013,309.973006 139.628584,311.355829 C139.753825,311.804994 139.948714,312.211146 140.13396,312.62754 C140.181657,312.734762 140.277254,312.818942 140.206582,313 C139.963074,312.944392 139.797521,312.772346 139.724284,312.562715 C139.465391,311.821481 139.061356,311.151114 138.73856,310.443573 C138.409609,309.722616 138.181077,308.94554 137.994599,308.172355 C137.536919,306.27503 137.538971,304.349338 137.611592,302.404393 C137.661853,301.05475 137.874486,299.740642 138.161383,298.443739 C138.440894,297.180426 138.820208,295.914963 139.986871,295.094567 C140.473066,294.752727 140.781502,294.219792 141.247798,293.836682 C141.709889,293.457053 141.822411,292.033675 141.515821,291.559421 C141.441456,291.444518 141.331293,291.370989 141.21836,291.461416 C141.022446,291.618511 140.77863,291.719076 140.65185,291.962911 C140.443628,292.363636 139.998256,292.382581 139.798547,291.972128 C139.660997,291.689377 139.614532,291.33873 139.741619,291.033757 C139.934354,290.571382 141.160714,289.935322 141.698196,290.085044 C142.318864,290.258012 142.703717,290.658225 142.869782,291.191159 C143.048772,291.765365 143.096263,292.394461 143.111751,293.001846 C143.133394,293.846206 142.699614,294.544018 142.222035,295.202506 C142.057508,295.429341 141.904469,295.67123 141.549465,295.881885 Z" id="Fill-1"></path>
                    </g>
                </g>
                <g id="Group" transform="translate(525.000000, 0.000000)" sketch:type="MSShapeGroup">
                    <path d="M74.2664284,99.6327703 C73.5421491,98.2546019 72.8065323,96.8822556 72.0998262,95.49526 C71.8585257,95.0217846 69.9209234,91.4802823 69.4024934,91.4802823 C68.4786282,91.4802823 68.6661618,91.3240223 67.7731423,91.4802823 C67.1474995,91.5899648 67.4406677,96.0008514 67.453328,96.6469265 C67.4729797,97.6419574 67.4620201,98.6373638 67.4639097,99.6327703 L60.8503498,99.6327703 C60.8342883,98.6660992 60.7798682,97.6983011 60.8140697,96.7333203 C60.8418467,95.9460101 60.5009649,95.6250385 59.742673,95.5085947 C58.7835179,95.3615375 57.8188829,95.1759787 56.8946852,94.8869352 C51.4912178,93.1975614 46.9006515,90.5852767 45.3557239,84.6077669 L45.3557239,81.7905788 C46.7542083,76.7545733 50.4082946,73.9210454 55.0829477,72.2519554 C61.5190752,69.9538811 67.9973405,70.0066564 74.3372879,72.6292708 C78.7753645,74.4651384 82.1902289,77.3422387 83.1474945,82.3540164 L83.1474945,84.2321418 C82.8793619,85.1289467 82.7026853,86.050355 82.3058717,86.9118512 C81.3886655,88.9022885 79.9319817,90.4370926 78.1988511,91.7254866 C77.6259278,92.1514455 77.5216225,92.532705 77.90502,93.1295732 C78.4803998,94.0252512 79.0306479,94.9391471 79.5466946,95.8697582 C80.2424411,97.124346 81.1460423,98.265495 81.6358236,99.6327703 L74.2664284,99.6327703 Z M77.7408148,90.1279532 C81.882037,87.1518756 81.7510885,80.8962154 77.4488734,78.0523579 C76.417158,77.3704106 75.2985216,76.874022 74.1069471,76.5492941 C70.1199153,75.4631742 66.0954697,75.2909501 62.052506,76.1785522 C59.2417431,76.7955164 56.6492276,77.879946 54.6137629,80.0016643 C52.3198024,82.392518 52.1665568,85.3171349 54.222996,87.8980548 C55.5742407,89.5940021 57.4067637,90.6138242 59.4000906,91.3802872 C60.6681935,91.8678486 60.8017874,91.7775107 60.8038659,90.4190626 C60.8091568,86.7892096 60.8144476,83.1591688 60.8042439,79.5293158 C60.8023543,78.8533784 60.9106277,78.3740808 61.7624542,78.3782127 C65.854925,78.397933 69.9496634,78.3145442 74.0398667,78.4180289 C77.1321783,78.4963468 79.360948,80.5367422 79.7245048,83.3340222 C80.1216964,86.3887932 78.5420003,88.8972176 75.5874397,89.9001365 C75.3514301,89.9801447 75.1114524,90.0490719 74.7701927,90.1549982 C74.7701927,90.1549982 76.7474581,90.8420164 77.7408148,90.1279532 Z M67.4756251,85.648624 C67.5323128,86.2345992 67.8032798,86.4915267 68.3703453,86.4898364 C69.3436723,86.4866436 70.318889,86.5195108 71.2899485,86.471243 C72.3743834,86.4175286 72.9093259,85.8345584 72.9183959,84.8094776 C72.927277,83.7725645 72.4106635,83.234106 71.2959952,83.1604835 C70.8269993,83.1294944 70.3544132,83.1552247 69.8835278,83.1552247 C67.2964921,83.1401997 67.2396155,83.2113807 67.4756251,85.648624 Z" id="Imported-Layers" opacity="0.4"></path>
                    <path d="M26.2409437,289.931854 C25.1593461,289.932903 24.0770516,289.957365 22.9961509,289.924166 C22.330606,289.903898 21.9563677,290.161797 21.8082752,290.815632 C21.5431026,291.987364 21.2660826,293.156649 20.9632771,294.318945 C20.8089125,294.911975 21.0092729,295.129337 21.5988551,295.124794 C23.2648081,295.111864 24.9311095,295.112913 26.597411,295.125144 C27.6173324,295.132832 27.7800599,295.355786 27.5330068,296.358729 C27.2173085,297.638443 26.8681588,298.910469 26.5785945,300.196123 C26.3925207,301.020144 25.9398805,301.369951 25.0969731,301.353527 C23.4899086,301.322075 21.8807534,301.379387 20.2743859,301.330812 C19.4924577,301.307398 19.1293699,301.578228 18.9457352,302.354024 C18.2240894,305.40409 17.4195118,308.434936 16.701699,311.48605 C16.4971572,312.355501 16.0445169,312.742001 15.1908075,312.740603 C13.495236,312.737458 11.7993161,312.767511 10.10479,312.728022 C8.97440898,312.701464 8.78972898,312.402677 9.06709743,311.293149 C11.2846513,302.424614 13.5074319,293.557127 15.7138352,284.685447 C15.8856224,283.994919 16.2751927,283.707315 16.9536304,283.707665 C21.6016427,283.71081 26.249655,283.703821 30.8976674,283.713955 C31.7959788,283.716052 32.0242154,283.995618 31.8280364,284.848644 C31.5130351,286.219217 31.1544771,287.579655 30.8203108,288.945685 C30.6474782,289.65124 30.2122606,289.955617 29.485388,289.937795 C28.4044873,289.910887 27.3225413,289.930806 26.2409437,289.931854 Z M40.1543168,301.327667 C37.7468562,301.340247 38.1803315,301.123584 37.5823865,303.347532 C37.124171,305.053584 37.1482143,305.060224 35.3481069,305.060224 C34.9097533,305.060224 34.4707027,305.06896 34.0326975,305.057078 C33.0852542,305.031568 32.9078917,304.799179 33.1288108,303.848654 C33.2612229,303.27799 33.4225566,302.713965 33.5748305,302.148193 C33.715257,301.627152 33.6403396,301.34514 32.983506,301.31893 C30.9952341,301.238905 30.9955826,301.212695 31.4349816,299.255733 C31.4928248,298.998532 31.5548494,298.741681 31.62454,298.487275 C32.0346689,296.991247 32.1148131,296.884313 33.674488,296.944071 C34.5623458,296.977618 35.0787529,296.726708 35.1487919,295.793307 C35.1571548,295.678685 35.2139526,295.568605 35.240435,295.454333 C35.6362774,293.749329 35.7334958,293.72277 34.0260769,293.756318 C33.123584,293.774141 32.9023165,293.439011 33.1120851,292.522733 C33.2688889,291.837447 33.4971255,291.167886 33.6330221,290.479105 C33.7947042,289.660326 34.3058845,289.365733 35.0714354,289.375518 C36.8792087,289.398931 36.7077699,289.501672 37.1569256,287.661428 C37.6538193,285.624789 37.6656667,285.627585 39.7745032,285.63073 C42.0415374,285.633875 42.0411889,285.633875 41.457182,287.789679 C41.3962027,288.016128 41.3477678,288.245721 41.2867885,288.47217 C41.1271971,289.063801 41.3184977,289.383905 41.9613932,289.363287 C42.0492033,289.360491 42.1370134,289.370975 42.2244751,289.367131 C43.156238,289.326244 44.2144892,289.675702 44.9877061,289.223853 C45.8184176,288.738456 45.623284,287.545758 45.8915927,286.669667 C46.1139056,285.944543 46.506612,285.5853 47.2794803,285.620945 C48.0087921,285.654842 48.7408915,285.625837 49.4715971,285.637719 C50.1650182,285.648552 50.4113744,286.00465 50.2451624,286.67456 C50.0827834,287.328744 49.9427053,287.988171 49.775448,288.640958 C49.6524441,289.122161 49.7911284,289.327991 50.3134592,289.37377 C52.3989493,289.556187 52.397904,289.570515 51.8682557,291.574654 C51.8309712,291.716534 51.7874146,291.856667 51.747691,291.997498 C51.256721,293.731157 51.256721,293.76156 49.4357065,293.754571 C48.7116215,293.751775 48.3398223,294.024003 48.238771,294.720472 C48.2220453,294.836142 48.1847608,294.948668 48.1561877,295.062241 C47.728636,296.760605 47.7279391,296.766197 49.4081787,296.933237 C50.1036905,297.00243 50.4186919,297.313098 50.2273913,298.042416 C50.0343484,298.779072 49.8650004,299.522718 49.6956523,300.265316 C49.5263042,301.008263 49.0705279,301.358419 48.3122945,301.32592 C48.0788311,301.316135 47.8422317,301.348634 47.6112074,301.322774 C46.8728359,301.240652 46.4578286,301.528954 46.3334309,302.291471 C46.2348188,302.896731 46.0438666,303.486965 45.9023948,304.085936 C45.7459394,304.749556 45.3563692,305.084686 44.6545852,305.063718 C43.9245765,305.041702 43.1924771,305.074551 42.4621199,305.054632 C41.6171218,305.030869 41.44185,304.79813 41.6181672,303.947551 C41.7432617,303.345086 41.8645233,302.737728 42.0516425,302.153435 C42.2669864,301.482826 41.9854365,301.302156 41.3822646,301.325221 C40.9735294,301.340946 40.5637489,301.328366 40.1543168,301.327667 Z M41.3069988,296.926598 C43.544066,296.885362 43.2604254,297.275356 43.8594158,294.915819 C43.8806714,294.8309 43.8967002,294.743885 43.9273641,294.662462 C44.2015965,293.930348 43.8796261,293.725915 43.1879472,293.761211 C42.4917384,293.796506 41.7861214,293.826559 41.0958364,293.753872 C40.1989188,293.659169 39.8313011,294.084459 39.6866931,294.894851 C39.3030466,297.044015 38.7319324,296.932888 41.3069988,296.926598 L41.3069988,296.926598 Z" id="Fill-1" opacity="0.4"></path>
                    <path d="M34.0977811,11.8470808 C32.5760344,13.955853 30.693464,15.741795 28.8828185,17.5892 C26.4349042,20.0869065 23.9064072,22.5044525 21.3878998,24.9314135 C20.041104,26.2292316 18.6748619,27.5069599 17.326934,28.8035846 C17.1164867,29.0060081 16.9890196,29.021722 16.764587,28.8081595 C13.9426626,26.1226824 11.1328589,23.4250056 8.3509595,20.698288 C6.12188365,18.5133998 3.91365274,16.3090185 1.79166524,14.020167 C1.15199886,13.33015 0.541102483,12.6173247 0,11.8470808 L0,10.6536239 C0.0179812518,10.5676287 0.0392257677,10.4821639 0.0533443802,10.3955057 C0.530979705,7.47259699 1.88516775,5.09397098 4.42265536,3.46138818 C4.98107313,3.10215764 5.58364485,2.81108675 6.14306157,2.45331488 C7.91394848,1.32072423 9.81390082,0.542855515 11.9168415,0.294682773 C15.1573295,-0.0878201796 18.4016135,-0.08636151 21.6450983,0.231893676 C23.368901,0.400966744 25.0351636,0.805018225 26.5629041,1.65529 C27.3664662,2.10257114 28.1436559,2.59765687 28.9550765,3.02975458 C30.995882,4.11646344 32.4277224,5.73624973 33.3232553,7.84900005 C33.7233049,8.79289189 33.9406116,9.78080903 34.0977811,10.7862302 L34.0977811,11.8470808 L34.0977811,11.8470808 Z M17.0430966,1.85307234 C15.6341656,1.85320494 14.2295635,1.91241367 12.8256273,2.04369393 C10.9842805,2.21594955 9.25901271,2.71587541 7.68238992,3.6943112 C7.22440078,3.97848656 6.99910235,4.50214894 7.12650285,5.02859607 C7.27647981,5.64839804 7.70170311,6.06524603 8.18866205,6.42474179 C9.21392639,7.1815924 10.3923643,7.6069272 11.6145567,7.90847399 C14.6386702,8.65458349 17.6941511,8.698874 20.7606205,8.22599984 C22.213439,8.00196145 23.6260995,7.61846395 24.9276757,6.91319719 C25.573802,6.56305019 26.1794372,6.15296512 26.5703629,5.5008735 C26.9962522,4.7905014 26.7742837,3.9144377 26.0564321,3.49400934 C25.1122166,2.94104095 24.108996,2.53877966 23.0340501,2.31679666 C21.056512,1.90843548 19.051003,1.86732752 17.0430966,1.85307234 L17.0430966,1.85307234 Z M18.3695802,17.1284593 C19.2623826,17.0651398 20.1462611,16.997378 21.0240791,16.8656336 C23.5150153,16.4916175 25.8845447,15.7582382 28.0792564,14.5069649 C28.4378824,14.3025522 28.4364173,14.298574 28.1445882,14.0094259 C26.4778594,12.3581456 24.8109974,10.7069979 23.1439355,9.05618175 C22.8541044,8.76915536 22.8516403,8.76889014 22.6475864,9.11989909 C21.1528116,11.6912684 19.6586362,14.2629692 18.1651267,16.8350015 C18.1219051,16.90946 18.0297345,16.9907477 18.0740883,17.0707093 C18.1386876,17.1869387 18.2748789,17.1072423 18.3695802,17.1284593 L18.3695802,17.1284593 Z M17.0085326,26.2208774 C17.1557125,26.1657132 17.1839497,26.036422 17.2425553,25.9370999 C17.495425,25.5087814 17.7397702,25.0754903 17.9899094,24.6456469 C19.2852921,22.4195844 20.5818735,20.1943176 21.8756579,17.967327 C21.9164154,17.8971782 22.0099845,17.8202003 21.9367276,17.7345366 C21.9076246,17.700523 21.8111918,17.7084794 21.7494562,17.7195521 C20.7774696,17.8941946 19.7979576,17.995108 18.811919,18.0520624 C17.3478455,18.1366653 15.8866357,18.1238687 14.4258921,17.9937156 C13.7190957,17.9307276 13.0163618,17.8396271 12.3173572,17.7186238 C12.1386769,17.6877265 12.0806707,17.7389126 12.1782356,17.9073226 C12.2225894,17.9837702 12.2657444,18.060947 12.3101647,18.1374609 C13.2035666,19.6764236 14.0966354,21.2155853 14.9908364,22.7541502 C15.6621365,23.9092839 16.3348351,25.0635557 17.0085326,26.2208774 L17.0085326,26.2208774 Z M15.7132831,17.1207019 C15.7870729,17.1043913 15.9421112,17.1952266 16.0118385,17.0794613 C16.0718426,16.979874 15.9445753,16.8824746 15.8914973,16.7909099 C14.4618546,14.3248301 13.0298144,11.8601426 11.5970416,9.39591916 C11.3855954,9.03231261 11.3819992,9.03317456 11.0919682,9.32033356 C9.47232363,10.9240082 7.85294542,12.527948 6.2338336,14.1321531 C5.90830634,14.4546517 5.90897231,14.455381 6.30003124,14.6676174 C6.34871381,14.6940061 6.39806236,14.719135 6.44701132,14.7451258 C9.33053813,16.2738779 12.4352343,16.953419 15.7132831,17.1207019 L15.7132831,17.1207019 Z M12.6020604,9.12467292 C12.6044579,9.28817652 12.7082164,9.3965822 12.7778105,9.51692244 C13.3811814,10.5600038 13.9884815,11.6008309 14.5939835,12.6427188 C15.3550566,13.9522063 16.1203254,15.2593732 16.8722081,16.5740986 C17.0191216,16.8310234 17.100903,16.7813623 17.2137853,16.5646835 C17.3055563,16.3883171 17.4089818,16.217918 17.5089442,16.0458613 C18.8025954,13.8182739 20.0968459,11.591018 21.3893649,9.36283389 C21.4319872,9.28930368 21.5332815,9.21133116 21.4814023,9.12991087 C21.4174024,9.02952788 21.3001247,9.09801905 21.2073547,9.11505896 C20.5529703,9.23566442 19.894124,9.32311829 19.2314149,9.38232702 C17.6697765,9.52176257 16.1079383,9.52839289 14.5478316,9.36760771 C13.9003734,9.30090673 13.2557788,9.20708775 12.6020604,9.12467292 L12.6020604,9.12467292 Z M5.26610926,13.6529138 C5.30660038,13.6747938 5.34709149,13.6966739 5.38751601,13.7185539 C5.45284789,13.6289121 5.50739102,13.5285954 5.5849768,13.4512196 C7.09014076,11.9496518 8.59796862,10.4507362 10.1051971,8.95129015 C10.4776754,8.58078807 10.4738128,8.59086615 9.97826278,8.39845437 C8.4326743,7.79821183 6.95901082,7.1019623 6.19514061,5.41156314 C5.8804687,8.20259482 5.57332228,10.9277875 5.26610926,13.6529138 L5.26610926,13.6529138 Z M27.7398769,5.32709291 C27.5571341,5.74228332 27.3504163,6.12385803 27.0593864,6.45882161 C26.2879907,7.34642207 25.270385,7.85231521 24.208026,8.28938566 C23.8716434,8.42776037 23.8700451,8.42590388 24.1228482,8.67626462 C25.6632421,10.2016352 27.2039024,11.7267406 28.7446293,13.2517134 C28.7973743,13.3038276 28.8525834,13.3534887 28.9691951,13.4630215 C28.5512975,10.6970525 28.1455872,8.01203953 27.7398769,5.32709291 L27.7398769,5.32709291 Z M1.87797525,10.8409966 C1.84427706,11.0397735 1.94736957,11.1813308 2.06850992,11.3165892 C2.66728561,11.9851903 3.3043547,12.6138769 4.01774421,13.1622041 C4.09306568,13.2200204 4.16352555,13.3368466 4.26808319,13.2922909 C4.38429536,13.2428287 4.36018716,13.1048518 4.37224126,12.9982364 C4.65634504,10.4894572 4.93984944,7.98061183 5.22235489,5.47163381 C5.23174509,5.38795921 5.28089385,5.27895681 5.19018842,5.22830119 C5.10008237,5.1781097 5.02888994,5.27623838 4.96202632,5.32636357 C4.41865953,5.73379652 3.93776094,6.20547722 3.52765521,6.74578171 C2.60475081,7.96191434 2.05898652,9.32974861 1.87797525,10.8409966 L1.87797525,10.8409966 Z M28.6772995,5.01712562 C28.71193,5.27464711 28.7331745,5.44829509 28.7588811,5.62121374 C28.9033971,6.59295291 29.047913,7.56469208 29.1944269,8.53609974 C29.4182602,10.0206939 29.6442912,11.5049565 29.8679913,12.9895506 C29.8964283,13.1784484 29.9347217,13.288379 30.1457684,13.1164549 C30.8349165,12.5551986 31.4732509,11.9439498 32.0577082,11.2750834 C32.2045551,11.1070049 32.226066,10.9310363 32.1946321,10.7226455 C32.0232108,9.58514839 31.6711779,8.51143496 31.0816592,7.51821356 C30.491741,6.52413023 29.7297355,5.69520807 28.6772995,5.01712562 L28.6772995,5.01712562 Z M28.2601344,15.5617156 C26.7370558,16.3685588 25.1276672,16.9501038 23.4572755,17.3706648 C23.2670738,17.4185357 23.2078689,17.5778622 23.1265536,17.7178945 C22.2276909,19.2661397 21.3318915,20.8161087 20.4335615,22.3646191 C20.0757346,22.9815037 19.7136455,23.5958689 19.3534877,24.2113611 C19.3750652,24.2281358 19.3965761,24.2448442 19.418087,24.2616189 C22.3970476,21.3990461 25.3653527,18.5256659 28.2601344,15.5617156 L28.2601344,15.5617156 Z M14.7930426,24.3203635 C13.5269627,22.1415753 12.256887,19.9650413 11.0002639,17.7809488 C10.8504201,17.52051 10.6706742,17.373118 10.376714,17.2994552 C9.2567484,17.0186613 8.16555281,16.649419 7.11438215,16.1690526 C6.7504949,16.0026979 6.38793958,15.8334259 6.0247183,15.66548 C8.85450114,18.6560842 11.8166793,21.493926 14.7930426,24.3203635 L14.7930426,24.3203635 Z" id="Imported-Layers" opacity="0.404267724"></path>
                    <path d="M93.7635591,226.540727 C93.4221146,225.341548 92.8812061,224.484584 92.3742259,223.620176 C91.9353186,222.871592 91.8849663,222.253282 92.5317658,221.565347 C93.3466943,220.69875 94.0667531,219.740413 94.7626082,218.607794 C93.6859777,218.884764 92.5875207,219.096486 91.5398481,219.458846 C90.6140582,219.778729 90.0733658,219.562627 89.6402933,218.675668 C89.2124072,217.79878 88.6501044,216.989328 88.043068,215.97735 C87.5704484,217.247468 87.4654218,218.4276 87.2970767,219.575545 C87.173033,220.420029 86.8145163,220.871062 86.0112575,221.090448 C84.8700118,221.402231 83.7497283,221.792834 82.4528877,222.202924 C83.3944532,222.83678 84.3224041,223.071273 85.183795,223.442172 C85.7519326,223.686737 85.8902392,223.918822 85.2953047,224.297383 C84.7466164,224.646606 84.2156487,225.02473 83.6613417,225.364318 C83.485433,225.47226 83.2183284,225.604286 83.0635978,225.542761 C81.6651883,224.985757 80.1420868,224.620332 79.0559477,223.495376 C78.1483106,222.555431 78.448263,221.307426 79.7297602,220.75918 C80.9848927,220.222318 82.2972928,219.793618 83.6185531,219.452934 C84.6737893,219.180782 85.1946002,218.6564 85.2875249,217.529693 C85.3767759,216.44568 85.638694,215.373271 85.8636584,214.304366 C86.0678767,213.334863 86.4717753,212.450531 87.5436515,212.251288 C88.5872181,212.0573 89.0801515,212.872006 89.5480168,213.619058 C90.0878448,214.481276 90.6436645,215.338678 91.1039662,216.244685 C91.4417368,216.908974 91.8668136,216.990642 92.5099393,216.80585 C93.929527,216.398387 95.3590555,216.025518 96.7905289,215.663378 C97.515342,215.479899 98.2684647,215.424505 98.7317918,216.16871 C99.1711314,216.874819 98.8041867,217.519621 98.3633344,218.070495 C97.3891372,219.288504 96.4307156,220.526875 95.364242,221.6584 C94.7420783,222.318529 94.735163,222.839626 95.1688839,223.570256 C95.7430724,224.537789 96.2264972,225.560496 96.7453631,226.561527 C97.1535837,227.348865 97.3500223,228.156346 96.7192145,228.911937 C96.1145553,229.635999 95.3179957,229.736715 94.4542277,229.475948 C93.7644235,229.267728 93.0756998,229.056224 92.3856795,228.848442 C90.6840759,228.336322 90.6555502,228.279833 90.4820186,226.572037 C90.4143781,225.906653 90.6415034,225.680699 91.2666925,225.850383 C92.027595,226.056852 92.7867686,226.270326 93.7635591,226.540727 Z M58.5094203,238.202131 C57.8801252,238.248766 57.1726004,238.1336 56.5139152,237.806929 C55.957015,237.530616 55.7381016,237.70687 55.68494,238.305474 C55.6235664,238.992972 55.5142177,239.676966 55.4055174,240.35899 C55.2084305,241.596047 54.2497928,241.208071 53.5282213,241.197124 C52.6990299,241.184863 52.8315017,240.539622 52.904761,239.990938 C53.236913,237.50281 53.5189288,235.006362 53.9236917,232.530276 C54.4123031,229.541413 57.0198149,227.302886 59.9449997,227.236107 C63.3125495,227.159256 65.5494428,230.354806 64.5173297,233.768209 C63.7266049,236.382889 61.3027816,238.203006 58.5094203,238.202131 Z M62.121816,232.432406 C62.1328373,230.971802 61.1273051,229.891292 59.7459678,229.879031 C58.0117326,229.863924 56.3864138,231.482608 56.4030538,233.208797 C56.4155879,234.526427 57.5963805,235.668242 58.9403318,235.66255 C60.5652184,235.655543 62.109282,234.087874 62.121816,232.432406 Z M51.5597292,223.593903 C52.435599,223.532816 53.4206014,224.157475 54.212839,225.217842 C54.5895084,225.721861 54.6351064,226.108304 54.0658882,226.479422 C53.7339524,226.695743 53.4145505,226.938337 53.1163269,227.200637 C52.5864397,227.666997 52.1432102,227.733995 51.704519,227.062262 C51.4655078,226.696618 51.0972665,226.438478 50.6326427,226.396002 C50.1235015,226.349148 49.7120394,226.53591 49.422676,226.961108 C49.1292067,227.391998 49.3947986,227.740564 49.6528268,228.037895 C50.5075185,229.022944 51.411914,229.964421 52.2499656,230.963263 C53.4800301,232.429341 53.6004,234.090063 52.6538642,235.717725 C51.470046,237.753943 48.9697218,238.810588 46.8037107,238.192497 C46.2405434,238.031789 45.7084952,237.792697 45.3041645,237.363997 C44.7526669,236.778748 44.076045,236.027536 44.3340733,235.288367 C44.6186823,234.47388 45.685156,234.294342 46.4622662,233.95125 C46.9296993,233.745001 47.0122511,234.282957 47.194859,234.567808 C47.6663981,235.303037 48.2522563,235.76239 49.1773979,235.452797 C50.3190757,235.070733 50.6464734,234.125533 49.9015626,233.164569 C49.2806956,232.363437 48.5943491,231.610474 47.8971973,230.874808 C46.6995485,229.611039 45.9034211,228.225534 46.7244005,226.457527 C47.5786599,224.617486 49.0371463,223.630248 51.5597292,223.593903 Z M76.226497,232.97496 C76.1072076,233.862138 75.8895908,235.485639 75.6693807,237.108922 C75.4945525,238.399184 74.5058763,237.923847 73.8056991,237.932386 C72.9507914,237.942677 73.1245391,237.239196 73.1891542,236.722697 C73.3745715,235.241293 73.6924606,233.771712 73.5913239,232.266662 C73.491916,230.785915 72.6238259,229.902678 71.2895993,229.878375 C69.6971284,229.849473 68.2440446,231.096384 68.0363686,232.669965 C67.8388494,234.165819 68.4986152,235.214363 69.860287,235.576941 C70.7348602,235.809902 71.4847413,235.494835 72.2119316,235.050808 C72.4159338,234.926227 72.642627,234.661518 72.8734261,234.87762 C72.9944444,234.990816 72.9864486,235.284426 72.9786688,235.494397 C72.8982781,237.684975 72.4314933,238.167099 70.3826105,238.201255 C66.6600017,238.263217 64.4544435,235.136636 65.6732705,231.525741 C66.8847499,227.936085 71.3205022,226.115311 74.1864745,228.040523 C75.6609526,229.031045 76.3377906,230.441947 76.226497,232.97496 Z M86.2364379,229.358591 C87.2255463,228.260128 88.2116292,227.159256 89.2061402,226.066047 C89.365625,225.890889 89.4823212,225.575822 89.7885406,225.682231 C90.0690437,225.779663 90.0087507,226.103926 90.0971373,226.332945 C90.6514442,227.767713 89.9231735,228.716197 88.9965192,229.681759 C87.3990779,231.346423 87.3502383,230.875027 88.7341689,232.831549 C89.739485,234.252742 90.7314027,235.684007 91.7436342,237.100383 C92.1924824,237.728326 92.0632522,237.922971 91.2971632,238.001793 C89.7304087,238.16272 88.5163359,237.836487 87.7893618,236.23488 C87.3884888,235.352081 86.7483885,234.578537 86.1981875,233.768209 C86.0445375,233.542036 85.962634,233.1164 85.6348042,233.190405 C85.235876,233.280612 85.3726699,233.727923 85.3281525,234.031385 C85.1803373,235.038985 85.063425,236.051621 84.9058851,237.057688 C84.7630403,237.969607 84.2845859,238.13141 82.7785566,237.970264 C81.8959875,237.875898 82.1038796,237.322177 82.1734651,236.783127 C82.5974613,233.499779 83.010004,230.214898 83.4461021,226.933302 C83.5761967,225.954165 85.1371165,224.374453 86.0709022,224.217905 C86.658057,224.119597 86.5078646,224.537789 86.4741524,224.840813 C86.3537824,225.925702 86.2165563,227.00862 86.0903516,228.092633 C86.0449697,228.480609 86.0125541,228.869899 85.9743037,229.258751 C86.0616097,229.292031 86.1491319,229.325311 86.2364379,229.358591 Z M76.5644838,236.542503 C76.7998211,234.706841 77.0226244,232.75623 77.3052886,230.814378 C77.7022718,228.089129 79.5026348,227.303762 81.8888561,227.579199 C82.1576895,227.61029 82.3532637,227.700277 82.4278196,228.008556 C82.6832547,229.06126 82.0805404,230.005802 81.0382704,230.103891 C80.3735343,230.16651 79.9880046,230.451362 79.8983214,231.159879 C79.6562848,233.070421 79.3999854,234.979431 79.1155924,236.884062 C78.9543788,237.964134 78.547887,238.136446 77.1373757,237.966542 C76.1448097,237.846996 76.5601617,237.178328 76.5644838,236.542503 Z" id="Fill-1" opacity="0.4"></path>
                    <path d="M74.8459327,141.691688 C76.4813091,144.166574 78.1076468,146.647202 79.7537052,149.11491 C84.2765142,155.895568 88.8085672,162.669868 93.3324032,169.449705 C93.5756247,169.813954 93.8932094,170.144773 93.9503171,170.610135 L86.760495,170.610135 C84.9552334,167.917233 83.1473013,165.226176 81.3473807,162.529993 C81.0213736,162.04166 80.7551447,161.660798 80.264388,162.412268 C78.4733006,165.154598 76.6542756,167.87888 74.8459327,170.610135 L67.4506871,170.610135 C70.4615792,166.090448 73.4580916,161.560917 76.4989755,157.061125 C76.9560428,156.384925 76.9868563,155.89085 76.4932236,155.239673 C75.8134773,154.342791 75.226377,153.375971 74.6016842,152.43766 C72.2175391,148.856079 69.8342158,145.273679 67.4506871,141.691688 L74.8459327,141.691688 Z M57.7957831,141.896783 C57.812217,141.442087 58.1552743,141.707685 58.3095473,141.70625 C60.6031005,141.685125 62.8970646,141.691688 65.1910287,141.691688 C68.1791188,146.184712 71.1489262,150.689837 74.1729653,155.158455 C74.673377,155.897824 74.678718,156.403589 74.176663,157.145214 C71.1511858,161.613216 68.1801459,166.117726 65.1910287,170.610135 C62.8970646,170.610135 60.6031005,170.616698 58.3095473,170.595573 C58.1552743,170.594137 57.812217,170.859736 57.7957831,170.405039 C60.8625504,165.838386 63.9262363,161.269476 67.0022476,156.708771 C67.2713524,156.30986 67.2664222,155.992783 66.9987554,155.595718 C63.9237712,151.034192 60.8615233,146.464462 57.7957831,141.896783 Z M98.8804808,155.022887 C94.8490449,155.031706 90.8178143,155.038884 86.7863784,155.051805 C86.3178074,155.053241 85.9225726,154.961768 85.6405261,154.531068 C84.836704,153.303572 84.0158318,152.087152 83.1949595,150.870731 C82.7354272,150.19002 83.0975888,150.057528 83.7124213,150.059579 C88.7685096,150.075166 93.8243925,150.087472 98.8804808,150.100598 L98.8804808,155.022887 Z M98.8804808,162.201225 C96.4174532,162.215171 93.954631,162.225426 91.4916034,162.246756 C91.0437802,162.250653 90.7015446,162.10524 90.44949,161.724788 C89.6376564,160.499548 88.8215089,159.27718 87.9965281,158.060964 C87.5275463,157.369383 87.8999791,157.252273 88.5129628,157.254324 C91.9688021,157.2654 95.4246415,157.271347 98.8804808,157.278936 L98.8804808,162.201225 Z" id="Fill-1" opacity="0.4"></path>
                </g>
            </g>
        </g>
    </g>
</svg>