<?xml version="1.0" encoding="utf-8"?>
<!-- Generator: Adobe Illustrator 22.1.0, SVG Export Plug-In . SVG Version: 6.00 Build 0)  -->
<svg version="1.1" id="Layer_1" xmlns:sketch="http://www.bohemiancoding.com/sketch/ns"
	 xmlns="http://www.w3.org/2000/svg" xmlns:xlink="http://www.w3.org/1999/xlink" x="0px" y="0px" width="747px" height="313px" viewBox="0 0 747 313"
	 style="enable-background:new 0 0 747 313;" xml:space="preserve">
<style type="text/css">
	.st0{opacity:0.12;fill:#767474;}
	.st1{opacity:0.14;fill:#AEA6A6;enable-background:new    ;}
	.st2{opacity:0.14;fill:#767474;enable-background:new    ;}
	.st3{opacity:0.4591;fill:#FFFFFF;enable-background:new    ;}
	.st4{opacity:0.12;}
	.st5{fill:#767474;}
	.st6{fill:#373938;}
	.st7{fill:#999999;}
	.st8{fill:#FFFFFF;}
	.st9{fill:#767474;fill-opacity:0.12;stroke:#FFFFFF;stroke-width:0.5;}
	.st10{fill:#767474;fill-opacity:0.12;}
	.st11{fill:#FEFEFE;fill-opacity:0.12;}
</style>
<title>Artboard</title>
<desc>Created with Sketch.</desc>
<g id="Page-1" sketch:type="MSPage">
	<g id="Artboard" sketch:type="MSArtboardGroup">
		<g id="Group-Copy-4-_x2B_-Group-_x2B_-Group-Copy" sketch:type="MSLayerGroup">
			<g id="Group">
				
					<g id="Fill-1-_x2B_-Imported-Layers-_x2B_-Imported-Layers" transform="translate(0.000000, 31.000000)" sketch:type="MSShapeGroup">
					<path id="Fill-1" class="st0" d="M44.7,10.7c0.8,0,1.6,0,2.3,0c0.2,0,0.3,0.1,0.4,0.2c0.2,0.6,0.5,1.3,0.8,1.9
						c0,0.2,0,0.2-0.2,0.2c-0.8,0-1.5,0-2.3,0s-1.4,0.3-1.9,0.9l0,0c-0.5,0.7-0.5,0.7-0.2,1.5c1,2.5,2,5,3,7.5
						c0.1,0.2,0.1,0.2-0.2,0.2c-0.8,0-1.6,0-2.3,0c-0.2,0-0.2,0-0.3-0.2c-0.6-1.5-1.2-3-1.8-4.6c0-0.1-0.1-0.1-0.1-0.2
						c-0.1,0-0.1,0.1-0.1,0.2c-1,2.5-2,5.1-3,7.6c-0.1,0.1-0.1,0.2-0.3,0.2c-0.3,0-0.7,0-1,0c-0.6,0-0.9-0.3-0.9-0.9
						c0-0.5,0.1-1,0.3-1.5c0.9-2.4,1.8-4.8,2.8-7.1c0.6-1.4,1.3-2.8,2-4.1c0.4-0.8,1.2-1.4,2.1-1.7c0.1,0,0.2-0.1,0.4-0.1
						c-0.3-0.1-0.5-0.2-0.6-0.4c-0.1-0.1-0.1-0.1-0.2,0c-0.8,0.2-1.5,0.7-2,1.3c-0.8,0.9-1.3,1.9-1.7,3c-0.8,1.9-1.5,3.8-2.3,5.7
						c-0.5,1.2-1,2.3-1.3,3.5c-0.2,0.6-0.3,1.2-0.3,1.8c0,0.8,0.5,1.2,1.4,1.2c2.4,0,4.8,0,7.2,0c0.2,0,0.3,0.1,0.3,0.2
						c0.2,0.7,0.5,1.3,0.8,2c0.1,0.2,0,0.2-0.2,0.2c-2.7,0-5.5,0-8.2,0c-1,0-1.9-0.2-2.7-0.8c-0.7-0.5-1-1.2-1.2-1.9
						c-0.2-1,0-2,0.2-3c0.4-1.5,1-2.9,1.6-4.4c0.7-1.7,1.3-3.4,2.1-5c0.6-1.2,1.2-2.5,2-3.6c0.1-0.1,0.2-0.2,0.3-0.3
						c0.2-0.2,0.3-0.4,0.4-0.6c0-0.3,0.2-0.3,0.5-0.3h0.1c0.1-0.1,0.3-0.2,0.4-0.4c0.1-0.2-0.2-0.3-0.2-0.4c0-0.1-0.1-0.2-0.1-0.3
						c-0.2-0.4-0.1-0.7,0.3-1C40.8,7.1,40.9,7,41,7c0.1-0.1,0.1-0.2-0.1-0.2c-0.5-0.2-0.9-0.5-1-1c0-0.1-0.1-0.1-0.2-0.2
						c-0.4-0.3-0.6-0.7-0.4-1.1V4.4c0.2-0.2,0.1-0.4,0-0.6c0,0,0-0.1-0.1-0.1C39,3.3,39,3.2,39.4,2.9c0.3-0.2,0.5-0.4,0.6-0.6
						s0-0.4-0.1-0.5s-0.1-0.2,0-0.3c0.1-0.2,0.3-0.3,0.5-0.4c0.3-0.1,0.5-0.3,0.8-0.5c1.1-0.6,2.2-0.7,3.3-0.1
						C45.1,0.8,45.6,1,46,1.3c0.3,0.2,0.4,0.5,0.2,0.8c-0.1,0.2-0.1,0.3,0.1,0.5c0.2,0.2,0.4,0.3,0.6,0.5c0.3,0.3,0.3,0.5,0,0.8
						c-0.2,0.1-0.2,0.3-0.1,0.5c0.3,0.5,0.2,0.9-0.1,1.3C46.5,6,46.3,6.2,46,6.4c0,0-0.1,0-0.1,0.1c-0.4,0.3-0.4,0.3,0,0.6
						c0.2,0.2,0.4,0.4,0.4,0.7c0,0.5,0.2,0.9,0.4,1.3c0.1,0.1,0.1,0.1,0.3,0.1c0.2-0.1,0.4-0.5,0.3-0.7C47.1,8.2,47,8,46.9,7.8
						c0-0.1,0-0.2,0.1-0.2h0.1c0.3,0,0.6,0,0.8-0.2s0.5-0.3,0.8-0.2c0.3,0,0.5,0.1,0.6,0.4c0,0.1,0.1,0.1,0.2,0.1c0.3,0,0.5,0,0.8,0
						c1.7,0,3.3,0,5,0c1,0,1.9,0.2,2.7,0.8c0.7,0.5,1,1.2,1.2,1.9c0.2,1.1,0,2.1-0.3,3.2c-0.4,1.4-0.9,2.7-1.5,4.1
						c-0.7,1.7-1.3,3.4-2.1,5.1c-0.6,1.2-1.2,2.5-2,3.6c-0.7,0.9-1.6,1.8-2.8,2.3c-0.7,0.3-1.4,0.5-2.1,0.5c-0.7,0.1-1.3,0.1-2,0.1
						c-0.1,0-0.2,0-0.3-0.2c-0.3-0.7-0.5-1.4-0.8-2c-0.1-0.2,0-0.2,0.1-0.2c0.8,0,1.6,0,2.3-0.1c1-0.1,1.9-0.4,2.6-1
						c0.6-0.5,1-1,1.3-1.6c0.7-1.2,1.3-2.5,1.8-3.9c0.9-2.2,1.8-4.4,2.6-6.6c0.3-0.8,0.5-1.6,0.5-2.5c0-0.7-0.4-1.1-1.2-1.1
						c-0.1,0-0.2,0-0.3,0c-2.3,0-4.7,0-7,0c-0.1,0-0.2,0-0.3-0.1h-0.1c-0.5,0.3-1.1,0.3-1.7,0.1c-0.3-0.1-0.5-0.1-0.8,0
						c-0.1,0-0.1,0-0.1,0.1C45,10.3,44.9,10.5,44.7,10.7L44.7,10.7z M44.5,8.3c0.2,0,0.3,0.1,0.4,0.2C45,8.7,45,8.8,45.1,9
						s0.1,0.4,0.3,0.6c0.7,0.8,2.3,0.6,2.7-0.4c0.1-0.3,0.2-0.7,0.3-1c0-0.2,0.2-0.3,0.3-0.4c0.1,0,0.2-0.1,0.3-0.1
						c0.2-0.1,0.1-0.1,0-0.2c-0.2-0.2-0.5-0.2-0.8-0.1c-0.5,0.2-0.7,0.5-0.9,0.9c-0.1,0.1-0.1,0.3-0.2,0.4c0,0.3-0.1,0.5-0.4,0.5
						c-0.2,0-0.4-0.3-0.5-0.5S46.1,8.2,46.1,8c0-0.4-0.1-0.8-0.6-1.1c-0.2-0.1-0.2-0.2-0.1-0.4c0.1-0.1,0.2-0.3,0.4-0.4
						c0.1,0,0.2-0.1,0.1-0.2s0-0.2,0-0.3C46,5.3,46,5.2,46.1,5c0.3-0.9,0.1-1.7-0.4-2.4c-0.4-0.7-1-1.2-1.6-1.8
						c-0.5-0.4-1.3-0.5-1.9-0.2c-1.5,0.9-2.1,2.1-2,3.7c0,0.6,0.3,1.2,0.4,1.9c0,0.2,0.1,0.4,0.4,0.4c0.3,0.1,0.3,0.3,0.1,0.5
						c-0.1,0.1-0.3,0.2-0.4,0.3c-0.2,0.2-0.3,0.4-0.2,0.6c0.1,0.4,0.4,0.7,0.6,1c0.1,0.2,0.3,0.5,0.3,0.7c0,0.3-0.2,0.5-0.7,0.5
						c-0.4,0-0.6-0.2-0.6-0.5c0-0.1,0-0.2,0-0.3s0.1-0.1,0-0.2c-0.1,0-0.1,0.1-0.2,0.1v0.1c-0.2,0.6-0.1,0.9,0.5,1.2
						c0.1,0,0.2,0.1,0.3,0.1c0.7,0.2,1.3,0.1,1.6-0.4c0.5-0.6,0.5-1.3,0.1-2c0-0.1-0.1-0.1-0.1-0.2c0-0.1,0-0.2,0.1-0.2
						c0.1-0.1,0.2,0,0.2,0c0.1,0.1,0.2,0.2,0.2,0.3c0.2,0.4,0.3,0.7,0.5,1.1c0.1,0.3,0.2,0.6,0.4,0.8s0.4,0.3,0.7,0.3
						s0.5-0.2,0.5-0.5c0.1-0.3,0-0.6,0-1C44.8,8.9,44.6,8.6,44.5,8.3z M50.5,18.6c0.1-0.1,0.1-0.1,0.1-0.2c1-2.5,2-5,3-7.6
						c0.1-0.1,0.1-0.2,0.3-0.2c0.4,0,0.7,0,1.1,0c0.5,0.1,0.8,0.4,0.9,0.8c0,0.5-0.1,1.1-0.3,1.6c-0.9,2.3-1.7,4.6-2.7,6.8
						c-0.7,1.5-1.4,3-2.2,4.5c-0.4,0.8-1.2,1.2-2.1,1.5C48.1,26,47.5,26,46.9,26c-0.5,0-1.1,0-1.6,0c-0.2,0-0.2,0-0.3-0.2
						c-0.3-0.7-0.5-1.4-0.8-2c-0.1-0.1,0-0.2,0.1-0.2c0.8,0,1.5,0,2.3,0c0.9,0,1.5-0.3,1.9-0.9C49,22,49,22,48.7,21.2
						c-1-2.5-2-5-3-7.5c0-0.1,0-0.1-0.1-0.2h0.7c0.6,0,1.3,0,1.9,0c0.2,0,0.2,0,0.3,0.2c0.6,1.5,1.2,3.1,1.9,4.6
						C50.4,18.5,50.4,18.6,50.5,18.6z"/>
					<g id="Imported-Layers" transform="translate(0.000000, 109.603720)">
						<path id="Fill-1_1_" class="st1" d="M0.4,0.2h38.7v31H0.4V0.2z"/>
						<path id="Fill-2" class="st2" d="M3.7,3.3h32v24.9h-32C3.7,28.2,3.7,3.3,3.7,3.3z"/>
						<path id="Fill-3" class="st3" d="M8.6,6.2h3.2l2.9,8.8l3-8.8h2.8l-4.2,12.5H13L8.6,6.5"/>
						<path id="Fill-4" class="st3" d="M27.1,17.2c0,0,3.2-0.4,3.2-2.9s-2.9-3.1-3.4-3.1h-6.4v12.6h6.8c0,0,3,0.2,3-3.3
							S27.1,17.2,27.1,17.2L27.1,17.2z M23.2,13.6c0,0,3.3-0.4,3.3,1.3c0,1.8-3.3,1.3-3.3,1.3V13.6L23.2,13.6z M23.2,21.7v-3
							c0,0,3.8,0,3.8,1.8C27,22.2,23.2,21.7,23.2,21.7L23.2,21.7z"/>
					</g>
					<g id="Imported-Layers_1_" transform="translate(17.474542, 221.325465)" class="st4">
						<path id="Fill-1_2_" class="st5" d="M37.3,33c-0.2,0.6-0.6,1-1,1.4c-4,4.5-9,6.9-15.1,7c-4,0.1-7.7-0.8-11-2.9
							C4.7,35,1.4,30.1,0.5,23.6c-0.2-1.4-0.2-2.9-0.1-4.3c0.2-2.1,1.2-3.8,2.5-5.4c2.1-2.4,4.8-3.3,7.9-3.1c0.1,0,0.3,0,0.4,0.1
							c0.2,0.1,0.5,0,0.6,0.2s-0.2,0.4-0.3,0.5c-2,2.1-3.4,4.5-3.7,7.4C7.1,24.7,10,31.4,17,33.4c3,0.9,5.9,0.8,8.8-0.4
							c0.5-0.2,1.1-0.2,1.7-0.1c3.1,0.8,6.2,0.8,9.3,0.1c0.1,0,0.2,0,0.3,0C37.1,32.9,37.2,32.9,37.3,33"/>
						<path id="Fill-2_1_" class="st5" d="M30.2,30c0.3-0.4,0.5-0.7,0.8-1c4-4.8,3.8-11.5,0.1-16.3c-2.7-3.5-6.4-5.1-10.9-5.1
							c-1.3,0-2.6,0.3-3.9,0.8c-0.5,0.2-0.9,0.2-1.3,0c-3.4-1.7-6.8-1.8-10.2,0c-0.1,0-0.2,0.1-0.4,0.1c1.8-2.2,3.7-4,6-5.4
							c7.3-4.3,16.5-3.7,23.1,1.6c4.4,3.5,6.9,8.1,7.7,13.7c0.3,2.3,0.3,4.6-0.6,6.7c-0.9,2.3-2.6,3.7-4.8,4.4
							C34,30.2,32.2,30.5,30.2,30"/>
						<path id="Fill-3_1_" class="st5" d="M31.6,22.6c0,1.7-1.5,4.4-4,6.6c-0.6,0.5-1.1,0.2-1.5-0.2c-0.7-0.5-1.2-1.2-1.6-1.9
							c-1.4-2.5-2.4-5.3-3.2-8.1c-0.8-2.9-1.7-5.7-3.5-8.2c-0.4-0.5,0-0.6,0.4-0.7c2.3-0.6,4.5-0.4,6.6,0.5
							C29.1,12.5,31.6,16.3,31.6,22.6"/>
						<path id="Fill-4_1_" class="st5" d="M9.9,21.4c0.1-3.9,1.4-6.7,4-9c0.4-0.4,0.8-0.3,1.2,0c1,0.7,1.7,1.6,2.3,2.7
							s1,2.2,1.5,3.4c0.2,0.5,0.2,0.9-0.1,1.4c-1,2-2,4-3,6c-0.5,1-1,2-1.3,3.1c-0.1,0.5-0.3,0.5-0.7,0.2
							C11.3,27.1,10.2,24.2,9.9,21.4"/>
						<path id="Fill-5" class="st5" d="M19.9,21.5c0.5,0.9,0.6,1.8,0.9,2.7c0.7,2.3,1.4,4.7,3,6.6c0.2,0.3,0.2,0.4-0.2,0.5
							c-2,0.5-4,0.5-6-0.1C17,31,17,30.4,17,29.9c0.1-1.5,0.5-2.8,1.1-4.2C18.7,24.3,19.2,22.9,19.9,21.5"/>
					</g>
				</g>
			</g>
			<g id="Group_1_" transform="translate(525.000000, 0.000000)" sketch:type="MSShapeGroup">
				<g id="Imported-Layers-_x2B_-Imported-Layers-_x2B_-Imported-Layers" transform="translate(162.000000, 41.000000)">
					<g id="Imported-Layers_2_" transform="translate(0.618062, 210.762628)" class="st4">
						<path class="st5" d="M12.4,5.9c-2.1,0-4-1.7-4-4s1.7-4,4-4c2.2,0,4,1.7,4,4S14.7,5.9,12.4,5.9z M12.1,0.1
							c-0.9,0.1-1.5,0.9-1.5,1.7c0,1,0.7,1.9,1.7,1.9S14,2.8,14,1.8S13.1,0.1,12.1,0.1L12.1,0.1z"/>
						<path class="st5" d="M11.1,11.6c-1.4,0-2.5-1.1-2.5-2.5s1.1-2.5,2.5-2.5s2.5,1.1,2.5,2.5S12.4,11.6,11.1,11.6z M11.1,8.8
							c-0.1,0-0.2,0-0.2,0.1C10.7,9,10.7,9,10.7,9.1c0,0.2,0.1,0.4,0.4,0.4c0.2,0,0.4-0.1,0.4-0.4c0-0.1,0-0.2-0.1-0.2
							C11.3,8.8,11.2,8.8,11.1,8.8L11.1,8.8z"/>
						<path class="st5" d="M20.3,11.6c-2.6,0-4.7-2.1-4.7-4.7s2.1-4.7,4.7-4.7S25,4.3,25,6.9S22.9,11.6,20.3,11.6L20.3,11.6z
							 M20,4.4c-1.2,0.1-2.2,1.2-2.2,2.5c0,1.4,1.1,2.5,2.5,2.5s2.5-1.1,2.5-2.5s-1.1-2.5-2.5-2.5C20.3,4.4,20,4.4,20,4.4z"/>
						<polygon class="st5" points="6.9,38.2 4.8,36.1 4.8,8.3 6.9,8.3 6.9,35.2 7.8,36 25.5,36 26.4,35.2 26.4,12 30.6,7.6 
							32.1,9.1 28.5,12.9 28.5,36.1 26.4,38.2 						"/>
						<path class="st5" d="M7.7,35.2V13.1h18v22.1H7.7z M23.5,33V15.2H9.8V33H23.5z"/>
					</g>
					<g id="Imported-Layers_3_" transform="translate(1.961001, 0.774278)" class="st4">
						<path class="st5" d="M23.5,22.7c0.2-0.4,0.4-0.9,0.4-1.3V6.7c0-0.4-0.2-0.9-0.4-1.3L8.5,14L23.5,22.7z"/>
						<path class="st6" d="M9.8,31.1l12.7-7.4c0.4-0.2,0.7-0.6,0.9-1L8.5,14l-15,8.7c0.2,0.4,0.6,0.8,0.9,1l12.7,7.4
							C7.9,31.5,9.1,31.5,9.8,31.1z"/>
						<path class="st7" d="M23.5,5.4c-0.2-0.4-0.6-0.8-0.9-1L9.8-3C9.1-3.4,7.9-3.4,7.1-3L-5.6,4.4C-6.4,4.8-7,5.8-7,6.7v14.7
							c0,0.4,0.2,0.9,0.4,1.3l15-8.7L23.5,5.4z"/>
						<g>
							<path class="st8" d="M8.5,24.3C2.8,24.3-1.8,19.7-1.8,14S2.8,3.8,8.5,3.8c3.7,0,7.1,2,8.9,5.1L13,11.5
								c-1-1.6-2.7-2.6-4.5-2.6c-2.8,0-5.1,2.3-5.1,5.1s2.3,5.1,5.1,5.1c1.8,0,3.5-1,4.5-2.6l4.4,2.6C15.5,22.3,12.1,24.3,8.5,24.3z
								"/>
						</g>
						<g>
							<polygon class="st8" points="18.7,13.5 17.6,13.5 17.6,12.3 16.5,12.3 16.5,13.5 15.3,13.5 15.3,14.6 16.5,14.6 16.5,15.7 
								17.6,15.7 17.6,14.6 18.7,14.6 							"/>
						</g>
						<g>
							<polygon class="st8" points="23,13.5 21.9,13.5 21.9,12.3 20.7,12.3 20.7,13.5 19.6,13.5 19.6,14.6 20.7,14.6 20.7,15.7 
								21.9,15.7 21.9,14.6 23,14.6 							"/>
						</g>
					</g>
					<g id="Imported-Layers_4_" transform="translate(20.760010, 99.290089)">
						<path id="Fill-1_5_" class="st9" d="M35.8,19.9c0.2,3.5,0.2,3.5-2.9,4.9c-4.3,1.9-8.5,3.8-12.8,5.6c-1.5,0.7-2.9,0.7-4.5,0
							c-4.1-1.8-8.3-3.5-12.5-5.3c-3.3-1.4-3.3-1.4-3-5.1c5.1,2.9,10.6,4.7,15.9,7c1.4,0.6,3,0.4,4.5-0.2
							C25.6,24.4,30.7,22.2,35.8,19.9"/>
						<path id="Fill-2_4_" class="st10" d="M1.2,18.7c-1.6-1-1.1-2.6-1-4.1c3.5,1.4,7.1,2.7,10.5,4.3c4.4,2.1,8.7,3.8,13.2,0.3
							c0.1-0.1,0.3-0.1,0.4-0.1c3.9-1.8,7.9-3.1,11.6-5.3c-0.2,1.4,0.9,3-0.9,4.1c-4.4,2.4-9.2,3.9-13.6,6.2
							c-2.6,1.3-4.7,1.1-7.3-0.1C9.8,22,5.5,20.4,1.2,18.7"/>
						<path id="Fill-3_4_" class="st9" d="M0.1,8.5c3.7,1.5,7.7,2.7,11.2,4.6c4.4,2.3,8.3,2.6,12.7,0c3.7-2.2,8-3.3,11.7-5.4
							c0,1.6,0.7,3.4-1.2,4.4c-4.7,2-9.5,3.9-14.1,6.1c-1.9,0.9-3.5,0.9-5.4,0.1c-4.6-2-9.2-3.9-13.8-5.8C-0.6,11.7,0.2,10,0.1,8.5"
							/>
						<path id="Fill-4_2_" class="st9" d="M1.4,12.6c4.6,1.9,9.2,3.8,13.8,5.8c1.9,0.8,3.5,0.8,5.4-0.1c4.6-2.2,9.4-4.1,14.1-6.1
							c0.6,0.4,1.5,0.6,1.2,1.6c-3.7,2.2-7.7,3.5-11.6,5.3c-0.1,0.1-0.3,0.1-0.4,0.1c-4.5,3.5-8.8,1.9-13.2-0.3
							c-3.4-1.6-7-2.9-10.5-4.3C-0.3,13.4,0.8,13.1,1.4,12.6"/>
						<path id="Fill-5_1_" class="st9" d="M1.2,18.7C5.5,20.4,9.8,22,14,24c2.5,1.2,4.7,1.4,7.3,0.1c4.4-2.3,9.2-3.8,13.6-6.2
							c0.3,0.7,1.3,1,0.9,2c-5.1,2.3-10.2,4.6-15.3,6.9C19,27.4,17.4,27.6,16,27c-5.3-2.2-10.7-4.1-15.8-6.8
							C-0.1,19.3,0.6,19,1.2,18.7"/>
						<path id="Fill-6" class="st11" d="M14.6,4.9c0.6-0.9,2.5-0.5,1.9-2.2c0.2,0,0.4-0.1,0.5-0.1c0.2,0,0.4,0.2,0.6,0.2
							C19.4,2.7,21,3,22,5c-0.8,0.6-3-0.5-3,2C18.1,4.8,16.4,4.9,14.6,4.9"/>
						<path id="Fill-7" class="st9" d="M34.5,6.1c-4.5-1.8-9-3.5-13.4-5.2c-1.5-0.6-3-0.7-4.5-0.1c-5,1.9-10.1,3.9-15.1,5.8
							C0.6,6.9-0.2,7.3,0.1,8.5c3.7,1.5,7.7,2.7,11.2,4.6c4.4,2.3,8.3,2.6,12.7,0c3.7-2.2,8-3.3,11.7-5.4
							C36.1,6.6,35.2,6.4,34.5,6.1L34.5,6.1z M16.4,2.7c0.2,0,0.4-0.1,0.5-0.1c0.2,0,0.4,0.2,0.6,0.2C19.4,2.7,21,3,22,5
							c-0.8,0.6-3-0.5-3,2c-0.9-2.2-2.6-2.1-4.4-2.1C15.2,3.9,17.1,4.4,16.4,2.7L16.4,2.7z M10.8,9.3c-1.4,0-2.6-0.1-3.7-0.7
							c-1.2-0.7-1.2-1.5,0-2c2.3-1.1,4.7-1.1,7.1-0.1c0.5,0.2,0.9,0.5,0.9,1.2c0,0.6-0.5,0.8-0.9,1C13.1,9.2,11.9,9.4,10.8,9.3
							L10.8,9.3z M13.1,10.6c2.8-0.4,5.4-0.8,8.1-1.3C18.2,13.9,19.9,13.6,13.1,10.6L13.1,10.6z M30,8c-2.9,1.7-5.8,1.7-8.7-0.4
							c2.8-1.6,5.4-3,8.5-0.9c0.3,0.2,0.8,0.2,0.8,0.7C30.7,7.7,30.3,7.8,30,8L30,8z"/>
					</g>
				</g>
			</g>
		</g>
	</g>
</g>
</svg>
