<?xml version="1.0" encoding="UTF-8" standalone="no"?>
<svg width="747px" height="313px" viewBox="0 0 747 313" version="1.1" xmlns="http://www.w3.org/2000/svg" xmlns:xlink="http://www.w3.org/1999/xlink" xmlns:sketch="http://www.bohemiancoding.com/sketch/ns">
    <!-- Generator: Sketch 3.3.3 (12072) - http://www.bohemiancoding.com/sketch -->
    <title>Artboard</title>
    <desc>Created with Sketch.</desc>
    <defs></defs>
    <g id="Page-1" stroke="none" stroke-width="1" fill="none" fill-rule="evenodd" sketch:type="MSPage">
        <g id="Artboard" sketch:type="MSArtboardGroup">
            <g id="Group-Copy-4-+-Group-+-Group-Copy" sketch:type="MSLayerGroup">
                <g id="Group">
                    <g transform="translate(62.729124, 0.000000)"></g>
                    <g id="Fill-1-+-Imported-Layers-+-Imported-Layers" transform="translate(0.000000, 31.000000)" sketch:type="MSShapeGroup">
                        <path d="M44.6707465,10.6938559 C45.4903833,10.6471558 46.2479446,10.6823331 47.0045122,10.6616295 C47.2193446,10.6557276 47.3001944,10.7222881 47.366715,10.8972845 C47.6132388,11.54612 47.8818316,12.1881637 48.1414817,12.8330179 C48.2221223,13.033355 48.2209718,13.0354628 47.9749186,13.0357439 C47.207944,13.036587 46.4395052,13.0626772 45.674361,13.028952 C44.8278963,12.9916669 44.2388331,13.3387555 43.7702077,13.9200938 C43.7620495,13.9302114 43.7549373,13.9410316 43.7469883,13.9512897 C43.2023244,14.6580202 43.2022198,14.658067 43.5249913,15.4606802 C44.5341491,17.9699295 45.5434638,20.4791321 46.5526216,22.9883814 C46.6490033,23.2280646 46.6486896,23.2284862 46.3670228,23.228533 C45.5861374,23.2286736 44.8051475,23.225301 44.0243145,23.2312966 C43.874277,23.2324676 43.8085408,23.1873602 43.7578658,23.0599538 C43.1528,21.5396963 42.5403604,20.0218276 41.9294374,18.5034905 C41.899001,18.4279366 41.8650086,18.3535538 41.8310684,18.2749553 C41.7377199,18.322358 41.7362033,18.4042822 41.7092185,18.4711705 C40.6915364,20.9976103 39.6739066,23.5240502 38.6627093,26.052551 C38.6088966,26.1870303 38.5382446,26.2406159 38.3812517,26.2381334 C38.0537212,26.2328872 37.7254586,26.2524666 37.3984511,26.2406159 C36.8050473,26.2191161 36.4686265,25.8960098 36.4525716,25.3661025 C36.4368305,24.8472963 36.5438806,24.341746 36.7312052,23.8603655 C37.6539698,21.4891553 38.5369895,19.1051108 39.5465656,16.7616302 C40.1532527,15.3534621 40.8459668,13.9786445 41.5634693,12.6131014 C42.0096596,11.7639287 42.7535716,11.2356139 43.7126297,10.9173791 C43.8228699,10.8807966 43.9351496,10.848945 44.0882726,10.8021513 C43.8156007,10.7098285 43.6292174,10.5724919 43.5017196,10.3758552 C43.4429387,10.2852656 43.3630303,10.3198807 43.2828604,10.3440036 C42.4626484,10.5905256 41.8140199,11.0455349 41.2963931,11.6583032 C40.5315627,12.5636846 40.0378352,13.5958634 39.57559,14.6406423 C38.7449188,16.5182934 38.0370388,18.4359932 37.2757122,20.3362683 C36.8105384,21.4973055 36.3131502,22.6488341 35.9621911,23.8439244 C35.7865285,24.4420785 35.6522321,25.0447761 35.6794784,25.6710346 C35.7135231,26.4525695 36.153281,26.8529158 37.030182,26.8538527 C39.4358025,26.8565226 41.8413707,26.8574594 44.246939,26.8501054 C44.4502662,26.8494965 44.5317958,26.9079535 44.593296,27.0751744 C44.8347994,27.7320665 45.089063,28.3853519 45.3499683,29.0362954 C45.414031,29.1962559 45.3648727,29.2263744 45.1942828,29.226187 C42.4610795,29.2231424 39.7278762,29.2284354 36.9946729,29.221503 C35.9984846,29.2189736 35.0831982,28.9773699 34.3042479,28.3954695 C33.6344917,27.8952122 33.2917431,27.2329802 33.147249,26.4798307 C32.9533873,25.4691049 33.1380972,24.4780521 33.3749462,23.4936038 C33.7352663,21.9957361 34.3581651,20.5723448 34.9405868,19.1379929 C35.6229986,17.4573063 36.2619,15.7620993 36.996974,14.0988843 C37.548907,12.8501147 38.1863441,11.6379744 39.0414899,10.5272908 C39.1284583,10.4143582 39.2209178,10.3047044 39.3136911,10.1954722 C39.4810909,9.99836707 39.6519946,9.81461151 39.6946159,9.54602768 C39.7357206,9.28685881 39.8846599,9.22221882 40.1908013,9.24156398 C40.2395935,9.24465545 40.2700822,9.22217198 40.3008846,9.19847065 C40.4488302,9.08450754 40.6416982,8.9920911 40.7309154,8.84838423 C40.8413647,8.67034322 40.5754914,8.56260991 40.5219925,8.40367985 C40.4921314,8.31505749 40.4286962,8.23580325 40.3941285,8.14802402 C40.2219175,7.71072045 40.2913144,7.49455122 40.6897584,7.19313215 C40.7907421,7.11668834 40.8945499,7.04174343 40.984656,6.9556973 C41.0837572,6.86098566 41.091497,6.78622811 40.9302681,6.71376575 C40.4612244,6.5028895 40.080195,6.21304005 39.9662418,5.72257244 C39.9443298,5.62837605 39.8595578,5.59699287 39.7906838,5.54804448 C39.3759235,5.25332361 39.2266704,4.80707349 39.4208458,4.43698615 C39.4355933,4.40878812 39.4447974,4.37318929 39.4693766,4.35506199 C39.7162142,4.17308637 39.6065493,3.98085267 39.4937989,3.78791636 C39.471207,3.74927289 39.4465232,3.71156623 39.4235652,3.67306328 C39.1848335,3.27262325 39.209988,3.17514802 39.6194664,2.91808697 C39.8772339,2.75629964 40.080195,2.55586884 40.1703535,2.27922843 C40.229605,2.09720597 40.2166355,1.91513667 40.1000152,1.75648766 C40.0088109,1.63240699 40.0484513,1.53460388 40.1269477,1.43146094 C40.2485885,1.2717346 40.4246694,1.16980952 40.608804,1.08010983 C40.8904185,0.942866954 41.1467217,0.772133075 41.4135886,0.615451367 C42.4762454,-0.00846503148 43.5749864,-0.0519330808 44.6780157,0.541349584 C45.1198131,0.778971798 45.5519881,1.03111459 45.9845291,1.28222689 C46.3026986,1.4669661 46.3848558,1.77517705 46.1658397,2.08113966 C46.0315956,2.26864246 46.0781914,2.39942133 46.2174559,2.5463602 C46.3904514,2.72894474 46.6168412,2.85728791 46.8051072,3.02427454 C47.1091567,3.29407623 47.1224922,3.50190784 46.8347591,3.78056239 C46.6813223,3.92923436 46.6490556,4.11055421 46.7554259,4.26428496 C47.0921605,4.75081797 46.9819726,5.17022843 46.6123961,5.59952226 C46.3964655,5.8504472 46.2425058,6.14348181 45.9234473,6.3136536 C45.8943184,6.32920467 45.8724586,6.35595063 45.8476702,6.37787202 C45.4911154,6.69310906 45.4906971,6.69353063 45.8698961,6.9787897 C46.1175181,7.16507465 46.2259279,7.41731112 46.2243067,7.69142214 C46.2215873,8.15589323 46.4261174,8.56527982 46.5934649,8.98675127 C46.6464408,9.12010638 46.7406784,9.118748 46.8564097,9.06071253 C47.0980176,8.93962966 47.2448651,8.60083181 47.1562755,8.36887731 C47.0864602,8.18605856 47.0209855,8.00164724 46.9423845,7.82187313 C46.8935922,7.71034573 46.907503,7.65568278 47.0552917,7.66865762 C47.0898072,7.67170226 47.1252116,7.66650295 47.1597793,7.66936023 C47.4593314,7.69395153 47.7202366,7.6555891 47.9538956,7.44518126 C48.1595761,7.25997364 48.4465771,7.18971279 48.7467567,7.22292275 C49.0113227,7.25215127 49.2227558,7.36335078 49.3223799,7.5927759 C49.359667,7.6786815 49.4199644,7.66753345 49.4852299,7.66800185 C49.7431543,7.66992232 50.0011832,7.66893866 50.2591599,7.66893866 C51.9325305,7.6689855 53.6059533,7.66612823 55.2793239,7.67006284 C56.2765582,7.67240487 57.1918968,7.9049683 57.9762337,8.47984262 C58.6575995,8.97925678 59.008454,9.64523601 59.1532096,10.4052243 C59.3579489,11.4799812 59.146568,12.530662 58.8822636,13.5737078 C58.5270685,14.9754119 57.9470001,16.3130381 57.3995123,17.6593297 C56.70183,19.3749125 56.0503775,21.1058589 55.3000331,22.8038296 C54.7481524,24.052646 54.1149512,25.2682993 53.2514904,26.3737368 C52.5203386,27.3097051 51.6630487,28.1281504 50.4914069,28.63712 C49.8263574,28.9259858 49.1226088,29.0899746 48.3919277,29.1658095 C47.7396908,29.2334942 47.0837408,29.2188331 46.4287322,29.2267023 C46.2866437,29.2284354 46.2190771,29.1855294 46.1720629,29.0653833 C45.9053528,28.3831973 45.6345636,27.7021354 45.3536813,27.0245865 C45.2904553,26.8721205 45.3334427,26.851698 45.4953514,26.8520259 C46.2754523,26.8535248 47.0564945,26.8792871 47.8336669,26.7848097 C48.8047008,26.6667246 49.7090049,26.4088672 50.4411503,25.7924922 C50.9961165,25.3253512 51.4092557,24.7627959 51.7624635,24.1641734 C52.4901115,22.9310486 53.0182498,21.6228383 53.5355105,20.3124265 C54.4074433,18.1036125 55.3291097,15.9102091 56.1355679,13.6811132 C56.4296288,12.8681483 56.6654842,12.0406159 56.6208234,11.1695687 C56.5856804,10.4829328 56.1884915,10.097997 55.4231381,10.0484865 C55.3120612,10.0413199 55.2003568,10.0387436 55.0889138,10.0386968 C52.7601162,10.0381816 50.4313187,10.0390715 48.1025211,10.03598 C47.9865807,10.0358395 47.8532779,10.0839448 47.7574192,9.96450134 C47.7217532,9.92009648 47.6704507,9.97541519 47.6305488,9.99461983 C47.0833747,10.2583791 46.5139225,10.2857808 45.9351093,10.1028684 C45.6737334,10.0202885 45.41492,10.0388373 45.1509293,10.0541542 C45.0847747,10.0579951 45.0475922,10.0825864 45.0350412,10.139404 C44.9897527,10.3439568 44.8943647,10.5260729 44.6707465,10.6938559 L44.6707465,10.6938559 Z M44.4940903,8.31383964 C44.6955349,8.3368852 44.799761,8.43047266 44.8839577,8.54715252 C44.9842094,8.68603481 45.0163192,8.84791582 45.0678308,9.00305179 C45.1414114,9.22470137 45.2105469,9.44962979 45.3777375,9.63244854 C46.1042349,10.4268646 47.6751574,10.2014209 48.0809228,9.24470229 C48.2196644,8.91752091 48.3145818,8.57816098 48.4023346,8.23777055 C48.4491919,8.05588862 48.553052,7.91625688 48.7344672,7.82763452 C48.8318425,7.78009134 48.9350227,7.74041737 49.0392488,7.7062706 C49.192581,7.65605751 49.1795592,7.59914621 49.0717247,7.51024281 C48.8405236,7.31960169 48.5738658,7.3200701 48.3096659,7.4107066 C47.8305814,7.57507016 47.5646557,7.91756841 47.4178083,8.34222502 C47.3663489,8.49089699 47.34428,8.64870288 47.2629072,8.78795989 C47.1358277,9.00530014 47.0078592,9.23669256 46.680904,9.23458473 C46.4552986,9.23313267 46.2373808,8.98375348 46.1571062,8.68547272 C46.0958675,8.45792123 46.1070066,8.2268567 46.0992145,7.99635425 C46.0849376,7.57249393 46.020718,7.1772532 45.5440391,6.93775736 C45.3525831,6.84159367 45.351328,6.69774628 45.4928935,6.53937831 C45.6101936,6.40808419 45.7419275,6.28728236 45.8644573,6.15968864 C45.9480264,6.0727057 45.9853136,5.96253668 45.927997,5.86323467 C45.8593323,5.74421278 45.8841729,5.63601107 45.9136679,5.5208301 C45.960316,5.33838608 46.0003225,5.15444316 46.0532462,4.97354488 C46.3051565,4.11261519 46.1454965,3.30808156 45.6675625,2.53760101 C45.2565674,1.87508799 44.7091319,1.30976914 44.1158849,0.781313826 C43.6463183,0.363027533 42.7752222,0.285319026 42.2288325,0.607394788 C40.7576387,1.47469479 40.1405447,2.73358196 40.1965016,4.28105389 C40.2197733,4.92581434 40.5419696,5.52593573 40.5676993,6.17449026 C40.575596,6.37267272 40.7171615,6.53188382 40.9414595,6.61338641 C41.2263686,6.71690407 41.2644925,6.87461627 41.0481958,7.07734226 C40.9282809,7.18966595 40.7893301,7.28564228 40.6592174,7.38925362 C40.4372728,7.56607677 40.3794856,7.77236264 40.4760765,8.03045419 C40.6115234,8.39234443 40.8762462,8.68589429 41.0826589,9.01012472 C41.2255842,9.23463157 41.3436165,9.46578979 41.3480093,9.73053269 C41.3535004,10.0622108 41.1089639,10.2633442 40.6826461,10.2793168 C40.2974853,10.2936969 40.0813455,10.1138759 40.069945,9.76439842 C40.0670687,9.67736864 40.0856338,9.58972994 40.0813978,9.50284068 C40.0787307,9.44803721 40.1562859,9.36592569 40.0568187,9.34213068 C39.9787406,9.32344129 39.9216856,9.39384267 39.879901,9.4535644 C39.861545,9.47979512 39.8431891,9.50780578 39.8340896,9.5372685 C39.6348415,10.182591 39.7383877,10.4782487 40.3376487,10.7560601 C40.4421363,10.8044933 40.5555143,10.8405137 40.6687353,10.8702574 C41.378498,11.0566361 41.9581479,10.9286208 42.2976019,10.4696301 C42.7654951,9.83700131 42.8270999,9.17003842 42.4118166,8.48878917 C42.3718101,8.42325921 42.3280382,8.35904079 42.2949871,8.29074724 C42.2511107,8.20006389 42.3008443,8.13650124 42.3827399,8.084274 C42.4748857,8.02553593 42.5346078,8.06647459 42.5938593,8.13013092 C42.6794157,8.2218916 42.7454657,8.32353564 42.8052401,8.42991057 C43.0067893,8.7888967 43.1207948,9.1758935 43.2602162,9.55488055 C43.3669525,9.8449642 43.4582615,10.1419334 43.6588693,10.3957625 C43.8238112,10.6044372 44.0382775,10.7198055 44.3378819,10.6732929 C44.6405194,10.6262649 44.7933286,10.4486923 44.8598492,10.1995473 C44.9459809,9.87672211 44.902366,9.55478687 44.8336489,9.23416317 C44.7669714,8.92276705 44.646638,8.62607888 44.4940903,8.31383964 Z M50.4859681,18.6145495 C50.5612745,18.5630249 50.5672885,18.4835364 50.5946917,18.4154771 C51.6098635,15.8947518 52.6252446,13.3740733 53.6338794,10.851287 C53.6898885,10.7110932 53.7566707,10.6525893 53.9271036,10.6605522 C54.2815143,10.6770869 54.6360296,10.6195667 54.9922183,10.6599433 C55.5265275,10.720555 55.8282237,11.011107 55.8479916,11.494127 C55.8702698,12.0383676 55.7518714,12.5666355 55.5550289,13.0727011 C54.6669888,15.3559447 53.8116862,17.6497274 52.8500655,19.9095039 C52.1952138,21.448404 51.4571589,22.9556867 50.6464648,24.4335067 C50.2171138,25.2161658 49.472522,25.6815737 48.5813442,25.9777935 C48.0328627,26.160097 47.4616847,26.2258143 46.87942,26.226189 C46.3355405,26.2265637 45.7916088,26.2216923 45.247834,26.2292337 C45.0931421,26.2313883 45.0134952,26.1934475 44.9597871,26.054893 C44.6974175,25.3779063 44.4257916,24.7036831 44.1479424,24.0316614 C44.0871744,23.8847694 44.1214283,23.8529647 44.2897695,23.854323 C45.0636994,23.8605997 45.8393029,23.8292165 46.6112979,23.8644406 C47.4850088,23.9043019 48.0871983,23.5427396 48.5561898,22.9358263 C49.1015858,22.2300794 49.097559,22.2289553 48.7747352,21.4263421 C47.7630671,18.911144 46.7524973,16.3955243 45.7419798,13.8799046 C45.7164593,13.816342 45.6965345,13.7509994 45.6663074,13.6645317 L46.36901,13.6645317 C47.0035186,13.6645317 47.6381317,13.6700589 48.2724834,13.6607376 C48.4342353,13.6583956 48.496363,13.7086555 48.5489206,13.8406054 C49.1613079,15.3784281 49.7814873,16.9137215 50.3997841,18.4496238 C50.4224283,18.5058794 50.4307957,18.568552 50.4859681,18.6145495 Z" id="Fill-1" opacity="0.09" fill="#767474"></path>
                        <g id="Imported-Layers" transform="translate(0.000000, 109.603720)">
                            <path d="M0.37913207,0.246355031 L39.0506032,0.246355031 L39.0506032,31.2191219 L0.37913207,31.2191219 L0.37913207,0.246355031 Z" id="Fill-1" opacity="0.14" fill="#AEA6A6"></path>
                            <path d="M3.69653768,3.33704612 L35.7331976,3.33704612 L35.7331976,28.2540872 L3.69653768,28.2540872 L3.69653768,3.33704612 Z" id="Fill-2" opacity="0.14" fill="#767474"></path>
                            <path d="M8.62525458,6.17566762 L11.7849413,6.17566762 L14.6913677,15.0071868 L17.6614883,6.17566762 L20.5049789,6.17566762 L16.2708319,18.6656022 L13.0482093,18.6656022 L8.62525458,6.49132233" id="Fill-3" opacity="0.459088153" fill="#FFFFFF"></path>
                            <path d="M27.0760959,17.1516708 C27.0760959,17.1516708 30.2987185,16.7103597 30.2987185,14.2502211 C30.2987185,11.7900825 27.392292,11.158773 26.8865298,11.158773 L20.5049789,11.158773 L20.5049789,23.7122928 L27.2656619,23.7122928 C27.2656619,23.7122928 30.2987185,23.9015342 30.2987185,20.3687751 C30.2987185,16.836016 27.0760959,17.1516708 27.0760959,17.1516708 L27.0760959,17.1516708 Z M23.2218393,13.6189117 C23.2218393,13.6189117 26.5073978,13.1776007 26.5073978,14.9436017 C26.5073978,16.7103597 23.2218393,16.2682917 23.2218393,16.2682917 L23.2218393,13.6189117 L23.2218393,13.6189117 Z M23.2218393,21.6934652 L23.2218393,18.6656022 C23.2218393,18.6656022 27.01316,18.6656022 27.01316,20.4316033 C27.01316,22.1983613 23.2218393,21.6934652 23.2218393,21.6934652 L23.2218393,21.6934652 Z" id="Fill-4" opacity="0.459088153" fill="#FFFFFF"></path>
                        </g>
                        <g id="Imported-Layers" transform="translate(17.474542, 221.325465)" fill="#767474" opacity="0.12">
                            <path d="M37.2775638,32.9555855 C37.1135434,33.5205822 36.6838393,33.9125063 36.3218122,34.3129954 C32.2789297,38.7854189 27.29389,41.2270437 21.2041505,41.3602447 C17.2253984,41.4470764 13.52622,40.5155554 10.1666083,38.4245061 C4.67147983,35.0046956 1.42091953,30.0662162 0.450982363,23.6459862 C0.232288426,22.1996772 0.215443082,20.7424404 0.332769424,19.3041057 C0.502404992,17.2245749 1.52376479,15.4660852 2.86548165,13.92054 C4.95282662,11.5167194 7.66078953,10.5940587 10.794319,10.797552 C10.9411986,10.8070031 11.0925112,10.8191123 11.2311158,10.8631188 C11.4323734,10.9269136 11.7326342,10.8539631 11.8071084,11.1058932 C11.8795138,11.3510303 11.6153079,11.4795058 11.469906,11.6336764 C9.49752307,13.7262023 8.06537332,16.1179137 7.74767604,19.0134853 C7.12351172,24.7059828 10.0017013,31.3678057 16.9892681,33.3867905 C19.9841929,34.2521541 22.9102587,34.211101 25.790517,32.9662179 C26.3363652,32.7302365 26.9026052,32.7166506 27.4555462,32.8637329 C30.5666152,33.6909968 33.6800485,33.6192278 36.8008701,32.93816 C36.8966226,32.9171905 36.9941483,32.8985837 37.091674,32.8926768 C37.1354127,32.8900187 37.1812203,32.9213253 37.2775638,32.9555855" id="Fill-1"></path>
                            <path d="M30.2438939,30.0334328 C30.5367665,29.6580481 30.7666906,29.350593 31.0099138,29.0537703 C34.9650232,24.2275224 34.8595181,17.5677669 31.130491,12.7468352 C28.3932704,9.20829556 24.6843394,7.6216972 20.2543095,7.68785469 C18.9226407,7.70764286 17.6157967,7.98969823 16.3704234,8.48853752 C15.9138259,8.67135665 15.4950565,8.7147725 15.0292976,8.47317953 C11.6306756,6.71085033 8.2095931,6.62195121 4.77491615,8.38162229 C4.69512242,8.42238003 4.60114313,8.43537525 4.35230489,8.50891639 C6.1485505,6.29618464 8.05473415,4.46120035 10.3903263,3.08488829 C17.6545114,-1.195265 26.9244746,-0.574152497 33.5272583,4.68389118 C37.9566971,8.21120768 40.4654712,12.8330762 41.2152368,18.4233841 C41.5222949,20.7149732 41.5030853,22.9758463 40.6114642,25.1720387 C39.6973827,27.4243468 38.055996,28.889558 35.7842389,29.6096114 C34.0278901,30.1666338 32.2156857,30.4708401 30.2438939,30.0334328" id="Fill-2"></path>
                            <path d="M31.6172327,22.6199545 C31.6021606,24.3255772 30.1555297,27.0401017 27.6662608,29.2587404 C27.1047493,29.7590564 26.5875677,29.4427409 26.1371764,29.0968908 C25.4686822,28.5832842 24.9568202,27.9196419 24.5398241,27.1836399 C23.0996949,24.6410067 22.127689,21.9128963 21.3380266,19.1133122 C20.528268,16.242845 19.6860008,13.3880312 17.8427655,10.959697 C17.4665528,10.4641065 17.8776383,10.3890886 18.2204559,10.2954639 C20.4892577,9.67671421 22.7246644,9.8701658 24.8675694,10.7564989 C29.1196889,12.5158747 31.6154595,16.3352883 31.6172327,22.6199545" id="Fill-3"></path>
                            <path d="M9.94407245,21.3780248 C10.0064298,17.5249417 11.3177068,14.6429561 13.9819309,12.3936015 C14.4021779,12.038891 14.7816415,12.0876231 15.1806101,12.3865132 C16.1422724,13.1077479 16.8796256,14.0171181 17.4375907,15.0780007 C18.0109234,16.1684179 18.486435,17.3019556 18.966675,18.4349026 C19.1773896,18.9316744 19.1431079,19.3569726 18.8972249,19.8357283 C17.8743875,21.828132 16.8837631,23.8364844 15.8792486,25.8380438 C15.3712285,26.8498989 14.8493184,27.8555519 14.5803839,28.9660526 C14.4651263,29.4430363 14.2851471,29.4947218 13.8823365,29.1677738 C11.2795831,27.054869 10.1698592,24.2313619 9.94407245,21.3780248" id="Fill-4"></path>
                            <path d="M19.8775057,21.5000027 C20.3426737,22.4270936 20.5137869,23.3214011 20.7717866,24.1787903 C21.4754491,26.5179301 22.2119158,28.835805 23.7755774,30.7803626 C23.9910205,31.0482414 23.967969,31.2121584 23.6221961,31.3046017 C21.6013459,31.8450847 19.5881796,31.8439034 17.5992469,31.1711053 C16.9756736,30.9602283 16.9993162,30.3902107 17.0436461,29.8665623 C17.1671786,28.4093255 17.5525528,27.0167694 18.1034251,25.664085 C18.6566616,24.3054937 19.1673415,22.9288863 19.8775057,21.5000027" id="Fill-5"></path>
                        </g>
                    </g>
                </g>
                <g id="Group" transform="translate(525.000000, 0.000000)" sketch:type="MSShapeGroup">
                    <g id="Imported-Layers-+-Imported-Layers-+-Imported-Layers" transform="translate(162.000000, 41.000000)">
                        <g id="Imported-Layers" transform="translate(0.618062, 210.762628)" fill="#767474" opacity="0.22">
                            <path d="M18.0520859,0.0747953709 C22.4352585,0.0747953709 26.8185194,0.0991104738 31.2014271,0.0645759799 C33.4206869,0.0470444383 35.3903119,1.56250966 35.802986,3.60568309 C35.8733392,3.95367097 35.9328349,4.29179186 35.9328349,4.64418466 C35.9329231,13.1729713 35.9338059,21.701846 35.9344238,30.2307208 C35.9345121,31.1456206 35.8983203,31.159452 35.0023541,31.2026201 C33.6713809,31.2669318 32.3874569,31.066156 31.1052101,30.7115608 C29.538814,30.2783819 27.9139815,30.1642947 26.3115702,30.3606656 C25.2963478,30.4849722 24.2924243,30.4582784 23.2848816,30.474929 C22.2632154,30.4918438 21.2834785,30.6886552 20.3128338,30.9667812 C19.8589364,31.0967261 19.7019878,31.0377884 19.5112309,30.5845231 C19.0372957,29.458452 18.6572824,28.3093872 18.6918852,27.0660573 C18.6993001,26.799384 18.5937262,26.5733241 18.4448987,26.375015 C17.8487943,25.5801931 17.6221987,24.6730459 17.4375326,23.707842 C17.2751111,22.8585754 17.3739763,22.0138018 17.2473935,21.1773094 C17.1976961,20.8485269 17.3324882,20.7046625 17.6477095,20.7036934 C18.2949237,20.7018434 18.9423144,20.6930336 19.5891755,20.7070412 C21.22566,20.7423686 22.7669867,20.4168457 24.1808478,19.561236 C24.421567,19.4156097 24.6484274,19.2622307 24.8532197,19.0691195 C25.4826911,18.4756019 25.9894638,17.7627994 26.6812556,17.2275147 C26.924623,17.0392489 27.0986964,16.7619157 27.1676372,16.4550697 C27.3501848,15.6429805 27.8615476,15.1624929 28.6342854,14.9070082 C29.1213732,14.7459646 29.5986628,14.5548796 30.0773647,14.3696091 C30.3486262,14.2646842 30.6200642,14.2495313 30.8985641,14.3249434 C31.1042391,14.3806214 31.3679974,14.5698563 31.5066736,14.3541039 C31.670066,14.0998525 31.8185404,13.7969708 31.7093473,13.4453709 C31.3637603,12.3323383 30.8592828,12.1114761 29.7428118,11.9179244 C28.7812591,11.7511545 27.8047001,11.682526 26.8556821,11.4243101 C26.4314443,11.3088134 25.9782531,11.3648439 25.5381263,11.3941806 C25.4565625,11.3996427 25.3464866,11.4371725 25.3039393,11.4978721 C24.9160698,12.0515693 24.4535217,12.5614817 24.2841267,13.2447713 C24.0261944,14.2848587 23.4586903,15.1551808 22.8573778,16.0333436 C22.0412099,17.2251361 20.7418383,17.0451514 19.7955567,16.6250111 C19.1689983,16.3468851 18.6360087,15.9558172 18.1392992,15.4816727 C17.4730181,14.8456037 16.7700157,14.2466241 16.0415907,13.6776859 C15.6733177,13.3900453 15.351123,13.041705 15.0211603,12.7079009 C14.6388519,12.3214141 14.2721678,11.9183648 13.7901998,11.649401 C13.3607539,11.4097739 13.092582,11.0219657 12.8561881,10.6160973 C12.310046,9.67829194 11.4268793,9.26229225 10.4293114,9.01931741 C10.1151495,8.94276008 9.54746881,9.28343582 9.35812423,9.66120089 C9.22077217,9.93536249 9.12596747,10.2306677 8.99055741,10.5059745 C8.82928349,10.8337879 8.55969918,11.0068128 8.18409955,11.026723 C7.15687209,11.0810796 6.212356,10.9025045 5.36802923,10.2478468 C4.66793978,9.7049857 4.153664,9.80506525 3.59489887,10.493817 C3.26202316,10.9041784 2.9109633,11.309342 2.70378766,11.7989918 C2.39721716,12.5237757 1.75503449,12.7490428 1.08742932,12.9459422 C0.0842119957,13.2418641 0.0828879078,13.2378997 0.0830644528,12.1890906 C0.0832409979,9.66419623 0.0412232725,7.13842087 0.0970997854,4.61475986 C0.143089775,2.53581856 1.39691282,0.769625866 3.55491142,0.222447952 C4.00695506,0.107832196 4.44849426,0.0753239601 4.90256817,0.0752358619 C9.28574075,0.0743548799 13.6689133,0.0747072727 18.0520859,0.0747953709" id="Fill-1"></path>
                            <path d="M8.03068189,29.5987924 C7.95494406,29.760805 7.80832338,29.7697029 7.65737735,29.773403 C7.33421161,29.7812438 7.00981006,29.7753412 6.68823322,29.803004 C5.53053896,29.9027312 4.4480529,29.596678 3.38251516,29.2042887 C2.44444296,28.8589437 1.49957378,28.5337733 0.526545655,28.3045418 C0.186696406,28.2243724 0.0744137447,28.0559286 0.0780329185,27.723446 C0.090391073,26.593939 0.0805045494,25.4641677 0.0848299035,24.3344845 C0.0868601717,23.7818445 0.416646352,23.3698092 0.737693552,22.9756579 C1.29734141,22.2884919 1.78628296,21.5829135 2.03724177,20.7086269 C2.31238725,19.74959 3.03728129,19.587225 3.76402905,20.2806459 C4.31979291,20.810909 5.03162261,20.9991748 5.72588608,21.2248824 C7.00010008,21.6389439 8.3333684,21.7347067 9.64951186,21.9213868 C9.76117661,21.9372444 9.91035719,21.8937239 9.96826397,22.0187353 C10.040824,22.175462 9.87760808,22.2461167 9.79745662,22.3402937 C9.27761968,22.9509023 9.09268873,23.7134803 8.84005274,24.4439025 C8.64805998,24.9990092 8.46277594,25.5511206 8.05001358,25.9967213 C7.83330451,26.2307983 7.72596511,26.5244296 7.76957174,26.8484547 C7.87788214,27.652527 7.59788167,28.3766942 7.31196693,29.0979541 C7.11291237,29.6000258 7.10805738,29.6039021 7.63786912,29.6052236 C7.77010138,29.605576 7.9024219,29.603814 8.03474243,29.602933 L8.03068189,29.5987924" id="Fill-2"></path>
                            <path d="M8.03474243,29.602933 C8.20696214,28.9177052 8.44935851,28.2526519 8.86512214,27.6832733 C9.23180624,27.1811135 9.53987737,26.6784252 9.70874273,26.0671118 C9.97744432,25.0945077 10.6702954,24.3358941 11.1438776,23.4649553 C11.4451517,22.9109938 11.7332733,22.3559752 12.1949386,21.9110793 C12.9137418,21.2184512 13.453087,21.2286706 14.2312094,21.865973 C15.3748683,22.8024568 16.1007333,23.9879062 16.4857781,25.3972131 C16.6515539,26.0038573 16.7919955,26.6179017 16.9737487,27.2196124 C17.1326392,27.7456468 17.5923626,28.1023564 17.8079241,28.6011684 C18.1025778,29.2831366 18.4137385,29.9585854 18.6842055,30.6499801 C18.8039031,30.955769 18.5418219,31.1335511 18.1557179,30.9785864 C17.7365116,30.8102307 17.3278098,30.6038167 16.9409113,30.3704445 C16.5156142,30.1139907 16.1218305,29.8058232 15.7117163,29.5239089 C14.6533286,28.796394 13.4913973,28.386385 12.1957331,28.4572159 C11.3750633,28.5020579 10.6606737,28.9267793 9.89632186,29.1744234 C9.28838893,29.371499 8.70720258,29.6978148 8.03077016,29.5987924 C8.03068189,29.5987924 8.03474243,29.602933 8.03474243,29.602933" id="Fill-3"></path>
                        </g>
                        <g id="Imported-Layers" transform="translate(1.961001, 0.774278)" fill="#767474" opacity="0.12">
                            <path d="M11.8032,26.6952694 C9.6148911,26.820601 7.39922248,26.3359857 5.38950825,25.1116823 C3.05997678,23.6926507 1.64356018,21.5647997 0.893904872,18.9856391 C-0.183484511,15.2783787 -0.242278723,11.5381606 0.78528111,7.8217324 C1.8015478,4.146269 4.16821858,1.68698571 7.88133502,0.672032349 C11.1259606,-0.214920378 14.3783865,-0.166180336 17.5256814,1.12693941 C20.9684609,2.54156112 22.7532436,5.22609304 23.2463001,8.83680181 C23.3109155,9.31004441 23.0647948,9.60967963 22.6042207,9.61907949 C21.4993552,9.64182485 20.3876207,9.6825576 19.2898571,9.58693427 C18.4733743,9.51591307 17.8087086,9.05601595 17.3761928,8.31365869 C17.1138891,7.86350958 16.8520511,7.41382466 16.52292,7.00162316 C15.7073686,5.98028717 14.5798004,5.6301712 13.3535044,5.51029391 C11.1912745,5.29873891 9.21695324,5.68111615 7.67316858,7.37309191 C7.08324725,8.01959376 6.70836139,8.77831376 6.47411593,9.60248467 C5.67661028,12.4101432 5.59115493,15.2326559 6.67168777,17.9724265 C7.74907715,20.7039577 9.50941079,21.5911426 12.6397078,21.3966466 C12.9291383,21.3786592 13.2193838,21.339203 13.5041573,21.2837322 C15.589198,20.8777972 16.8496062,19.5716801 17.4186876,17.5920221 C17.5943717,16.9810308 17.888692,16.806263 18.4868795,16.8262232 C19.6498406,16.8650992 20.8150139,16.8320256 21.9791393,16.8391045 C22.9206616,16.8447908 23.3216265,17.3140878 23.1838967,18.2270352 C22.4791811,22.8967955 19.3077864,25.96208 14.5766569,26.5757403 C13.7061533,26.6886547 12.837396,26.7016521 11.8032,26.6952694" id="Fill-1"></path>
                            <path d="M34.1171752,21.4870478 C34.1171752,22.3185297 34.1122854,23.1501276 34.119038,23.9816096 C34.1231129,24.4882739 33.8854911,24.7294211 33.3759025,24.7247792 C32.6969166,24.7185126 32.0178144,24.7284927 31.3388286,24.7247792 C30.4737969,24.7201372 30.1514183,24.408201 30.1459464,23.5318086 C30.1363996,22.0428003 30.125805,20.5533278 30.1553767,19.0647837 C30.166437,18.5122805 29.9836511,18.3149994 29.4224865,18.3255597 C27.9096707,18.3539914 26.3960399,18.3382089 24.8826419,18.3333349 C24.0918889,18.3307819 23.7498346,18.0034112 23.7280633,17.2150991 C23.7132775,16.6740846 23.7163045,16.1317936 23.7365623,15.5908952 C23.7672983,14.7682329 24.2704836,14.2685314 25.1097855,14.2585513 C26.5452957,14.2413762 27.981388,14.2346455 29.4166653,14.2597118 C29.9706116,14.2693437 30.1671356,14.075428 30.1589859,13.5190952 C30.1344204,11.8370996 30.1658549,10.1541755 30.1475763,8.47194778 C30.141988,7.95599961 30.3053311,7.72053879 30.850662,7.76428878 C31.6510782,7.82834712 32.4786213,7.62213032 33.2290916,8.10837027 C33.8177322,8.48970308 34.1289341,8.98197751 34.1217158,9.69021675 C34.1094912,10.9083697 34.1183395,12.1268707 34.1207844,13.3451397 C34.1224143,14.206678 34.1646763,14.2600599 35.0532257,14.2477589 C36.5460165,14.2271024 38.0397388,14.313674 39.5319475,14.1936806 C40.028031,14.1537602 40.5864014,14.6203881 40.6089876,15.1282129 C40.6448463,15.9386902 40.6419357,16.7524168 40.6171373,17.5635904 C40.5990916,18.1549696 40.1945176,18.3350756 39.6612948,18.3342633 C38.1091276,18.3319423 36.5570768,18.3329868 35.0049096,18.3356559 C34.160485,18.3371645 34.1233457,18.3754602 34.1207844,19.2243493 C34.1185723,19.9785434 34.1203187,20.7327376 34.1203187,21.4870478 L34.1171752,21.4870478" id="Fill-2"></path>
                            <path d="M51.1159208,21.4538581 C51.1159208,22.2854561 51.1078876,23.1171701 51.1188314,23.948536 C51.1258169,24.4806148 50.8890101,24.7345272 50.3486855,24.7262878 C49.6698161,24.7159595 48.9905974,24.7290729 48.3114951,24.7245471 C47.4774323,24.7189768 47.151561,24.4087812 47.1448084,23.564534 C47.1327003,22.0755257 47.1448084,20.5862854 47.1427128,19.097161 C47.1417814,18.3691937 47.1118603,18.3379768 46.3948038,18.3362361 C44.8815223,18.3326386 43.3680079,18.3385571 41.8547264,18.3328707 C41.0989006,18.3300856 40.750443,18.0030631 40.7214534,17.2491011 C40.7006135,16.7084347 40.7086467,16.1659116 40.7261104,15.6248972 C40.7537029,14.7719464 41.2613123,14.2671388 42.1294875,14.2575069 C43.5457876,14.2418404 44.9622042,14.2544896 46.3786208,14.2499638 C47.1008001,14.2476428 47.1439934,14.2049373 47.1464383,13.4971622 C47.1509789,12.1433495 47.1493489,10.7895368 47.1506296,9.43584014 C47.1522595,7.7606913 47.152376,7.76777021 48.8603187,7.76475297 C49.380502,7.76382459 49.8512049,7.86791939 50.2932676,8.15478936 C50.8458167,8.51326077 51.1208106,8.99729581 51.1176672,9.65493824 C51.1114967,10.9313471 51.1336173,12.2079881 51.1107982,13.4840488 C51.1013678,14.0182165 51.273792,14.2720128 51.8417092,14.255302 C53.3922464,14.2095792 54.9447629,14.3154147 56.4950673,14.1950732 C57.0242152,14.1541084 57.5878247,14.6138894 57.6093632,15.1515385 C57.6418455,15.9622479 57.639517,16.7760906 57.6094796,17.587032 C57.5872426,18.1869987 57.1584523,18.3356559 56.6347763,18.3347275 C55.102052,18.3320584 53.5692112,18.333451 52.0363704,18.3355398 C51.1508481,18.3367003 51.1208106,18.3673369 51.1185986,19.2490675 C51.1168522,19.9839977 51.1182493,20.7189279 51.1182493,21.4538581 L51.1159208,21.4538581" id="Fill-3"></path>
                        </g>
                        <g id="Imported-Layers" transform="translate(20.760010, 99.290089)" fill-opacity="0.12">
                            <path d="M35.7999128,19.8829123 C36.019262,23.4275719 36.020076,23.4287904 32.8682023,24.8248022 C28.6167338,26.7074076 24.3599748,28.578234 20.1142036,30.4742431 C18.614571,31.14402 17.1841209,31.1923544 15.6344328,30.5152664 C11.4981327,28.7082089 7.31259103,27.0128487 3.15675712,25.2492515 C-0.100518114,23.8666434 -0.0940068189,23.8508027 0.15382934,20.1595152 C5.23589494,22.8536514 10.67364,24.7350383 15.9530793,26.9742623 C17.3688789,27.5749901 18.9857148,27.4210511 20.488603,26.7407137 C25.5828773,24.4340651 30.6946507,22.1655967 35.7999128,19.8829123" id="Fill-1" stroke="#FFFFFF" stroke-width="0.5" fill="#767474"></path>
                            <path d="M1.15738265,18.6615543 C-0.412653309,17.6148501 0.0952276867,16.0502771 0.141620662,14.6010568 C3.63289555,16.0340302 7.20474771,17.2996609 10.5950975,18.9397819 C15.0215571,21.0811186 19.3234882,22.6948383 23.8118051,19.2200403 C23.9123232,19.1424615 24.07185,19.1465232 24.1939368,19.0908777 C28.060018,17.3309361 32.1080086,15.9698551 35.7934015,13.8147086 C35.6342817,15.1997537 36.6805654,16.8447487 34.9139697,17.8829234 C30.5078579,20.2366878 25.7196145,21.7606436 21.2935619,24.0437342 C18.7281117,25.3670413 16.5610714,25.1168396 14.0403864,23.9511271 C9.83164821,22.0043466 5.46012766,20.4064675 1.15738265,18.6615543" id="Fill-2" fill="#767474"></path>
                            <path d="M0.140399794,8.50726423 C3.88968474,10.0210658 7.80215901,11.2306448 11.3471521,13.1254354 C15.7227422,15.4645776 19.6132408,15.7748927 24.052723,13.1453378 C27.7364881,10.9633839 32.0388261,9.88987237 35.7934015,7.72254069 C35.7913667,9.30457909 36.5312126,11.0787367 34.6372397,12.1713383 C29.9340501,14.1831062 25.1828396,16.0933313 20.5504603,18.2566012 C18.6503831,19.14368 17.0278499,19.1583022 15.1599222,18.3471775 C10.591028,16.362623 5.97045039,14.4962645 1.37062756,12.5819778 C-0.558750486,11.680683 0.157491943,9.98369801 0.140399794,8.50726423" id="Fill-3" stroke="#FFFFFF" stroke-width="0.5" fill="#767474"></path>
                            <path d="M1.37062756,12.5819778 C5.97045039,14.4962645 10.591028,16.362623 15.1599222,18.3471775 C17.0278499,19.1583022 18.6503831,19.14368 20.5504603,18.2566012 C25.1828396,16.0933313 29.9340501,14.1831062 34.6372397,12.1713383 C35.2200006,12.5807592 36.1564062,12.7424155 35.7934015,13.8147086 C32.1080086,15.9698551 28.060018,17.3309361 24.1939368,19.0908777 C24.07185,19.1465232 23.9123232,19.1424615 23.8118051,19.2200403 C19.3234882,22.6948383 15.0215571,21.0811186 10.5950975,18.9397819 C7.20474771,17.2996609 3.63289555,16.0340302 0.141620662,14.6010568 C-0.285276104,13.4207221 0.758972802,13.1323403 1.37062756,12.5819778" id="Fill-4" stroke="#FFFFFF" stroke-width="0.5" fill="#767474"></path>
                            <path d="M1.15738265,18.6615543 C5.46012766,20.4064675 9.83164821,22.0043466 14.0403864,23.9511271 C16.5610714,25.1168396 18.7281117,25.3670413 21.2935619,24.0437342 C25.7196145,21.7606436 30.5078579,20.2366878 34.9139697,17.8829234 C35.1931415,18.556762 36.2630286,18.8816993 35.7999128,19.8829123 C30.6946507,22.1655967 25.5828773,24.4340651 20.488603,26.7407137 C18.9857148,27.4210511 17.3688789,27.5749901 15.9530793,26.9742623 C10.67364,24.7350383 5.23589494,22.8536514 0.15382934,20.1595152 C-0.0529042704,19.2988376 0.606771286,19.0169545 1.15738265,18.6615543" id="Fill-5" stroke="#FFFFFF" stroke-width="0.5" fill="#767474"></path>
                            <path d="M14.5844865,4.85618769 C15.1827117,3.92930409 17.0880793,4.39802612 16.4397985,2.67748321 C16.6217078,2.64458331 16.8089076,2.56822305 16.9834917,2.59056249 C17.1763888,2.61533895 17.3603328,2.80339641 17.5430561,2.79608532 C19.3784273,2.72297443 21.0375866,3.02922782 21.9874217,4.99631689 C21.1389186,5.60638664 19.0150156,4.50119371 18.9869357,6.97884049 C18.0993648,4.80216687 16.4060212,4.89802336 14.5844865,4.85618769" id="Fill-6" fill="#FEFEFE"></path>
                            <path d="M34.4537026,6.09582342 C30.0007909,4.34603616 25.540147,2.61696364 21.0843865,0.874893634 C19.5778357,0.285944809 18.0684362,0.2002426 16.5419445,0.786754396 C11.5087136,2.71972506 6.47182009,4.64335377 1.44550745,6.59378981 C0.610433889,6.91791475 -0.213244905,7.33545916 0.140399794,8.50726423 C3.88968474,10.0210658 7.80215901,11.2306448 11.3471521,13.1254354 C15.7227422,15.4645776 19.6132408,15.7748927 24.052723,13.1453378 C27.7364881,10.9637901 32.0388261,9.88987237 35.7934015,7.72254069 C36.1148967,6.5523603 35.1817467,6.38176823 34.4537026,6.09582342 L34.4537026,6.09582342 Z M16.4397985,2.67748321 C16.6217078,2.64458331 16.8089076,2.56822305 16.9834917,2.59056249 C17.1763888,2.61533895 17.3603328,2.80339641 17.5430561,2.79608532 C19.3784273,2.72297443 21.0375866,3.02922782 21.9874217,4.99631689 C21.1389186,5.60638664 19.0150156,4.50119371 18.9869357,6.97884049 C18.0993648,4.80216687 16.4060212,4.89802336 14.5844865,4.85618769 C15.1827117,3.92930409 17.0880793,4.39802612 16.4397985,2.67748321 L16.4397985,2.67748321 Z M10.8189233,9.34194688 C9.43405227,9.34194688 8.23475316,9.19897447 7.13271651,8.60758862 C5.89516354,7.94309187 5.95213737,7.117345 7.11033394,6.56210842 C9.41777404,5.45610315 11.8143375,5.51134249 14.1832279,6.45690998 C14.7033176,6.6640575 15.1326561,6.98452689 15.087484,7.64780512 C15.0492301,8.20994662 14.6365768,8.46786559 14.2096801,8.6636403 C13.0877026,9.17866589 11.8965426,9.38459489 10.8189233,9.34194688 L10.8189233,9.34194688 Z M13.0502626,10.57549 C15.8545959,10.1368247 18.4106861,9.73715185 21.1067691,9.31554572 C18.2474968,13.9385909 19.9294456,13.6116228 13.0502626,10.57549 L13.0502626,10.57549 Z M30.0300917,7.9613696 C27.0943116,9.67663228 24.228935,9.68678657 21.3521635,7.52229809 C24.1105108,5.93051158 26.8008964,4.55196516 29.8962032,6.60313176 C30.212001,6.81231013 30.7410437,6.82287059 30.7365672,7.3391147 C30.7329046,7.74325545 30.3060078,7.80052564 30.0300917,7.9613696 L30.0300917,7.9613696 Z" id="Fill-7" stroke="#FFFFFF" stroke-width="0.5" fill="#767474"></path>
                        </g>
                    </g>
                </g>
            </g>
        </g>
    </g>
</svg>