<?xml version="1.0" encoding="utf-8"?>
<!-- Generator: Adobe Illustrator 19.2.1, SVG Export Plug-In . SVG Version: 6.00 Build 0)  -->
<svg version="1.1"
	 id="svg4226" inkscape:export-filename="/home/hsy/d/cocalc/artwork/cocalc-wide-logo-jupyter.org.svg.png" inkscape:export-xdpi="300" inkscape:export-ydpi="300" inkscape:version="0.91 r13725" sodipodi:docname="cocalc-wide-logo-jupyter.org.svg" xmlns:cc="http://creativecommons.org/ns#" xmlns:dc="http://purl.org/dc/elements/1.1/" xmlns:inkscape="http://www.inkscape.org/namespaces/inkscape" xmlns:rdf="http://www.w3.org/1999/02/22-rdf-syntax-ns#" xmlns:sodipodi="http://sodipodi.sourceforge.net/DTD/sodipodi-0.dtd" xmlns:svg="http://www.w3.org/2000/svg"
	 xmlns="http://www.w3.org/2000/svg" xmlns:xlink="http://www.w3.org/1999/xlink" x="0px" y="0px" viewBox="0 0 149.1 30.1"
	 style="enable-background:new 0 0 149.1 30.1;" xml:space="preserve">
<style type="text/css">
	.st0{fill:#B2B2B2;}
</style>
<sodipodi:namedview  bordercolor="#00cc07" borderlayer="true" borderopacity="1" fit-margin-bottom="2" fit-margin-left="2" fit-margin-right="2" fit-margin-top="2" id="base" inkscape:bbox-nodes="true" inkscape:bbox-paths="true" inkscape:current-layer="layer1" inkscape:cx="67.556236" inkscape:cy="-10.838089" inkscape:document-units="px" inkscape:guide-bbox="true" inkscape:pageopacity="0" inkscape:pageshadow="2" inkscape:showpageshadow="false" inkscape:snap-bbox="true" inkscape:snap-others="true" inkscape:snap-page="true" inkscape:window-height="1056" inkscape:window-maximized="1" inkscape:window-width="1920" inkscape:window-x="0" inkscape:window-y="24" inkscape:zoom="4" pagecolor="#ffffff" showgrid="false" showguides="true" units="px">
	</sodipodi:namedview>
<g id="layer1" transform="translate(7.0714263,-1000.4032)" inkscape:groupmode="layer" inkscape:label="Layer 1">
	<g id="g4181" transform="matrix(0.52273549,0,0,0.52273549,-145.51729,749.90495)">
		<path id="path4183" inkscape:connector-curvature="0" class="st0" d="M293.7,492.8c-1,0-2.1,0.1-3.1,0.3c-1,0.2-1.9,0.5-2.8,0.9
			s-1.8,0.8-2.6,1.4s-1.6,1.2-2.2,1.8s-1.3,1.4-1.8,2.2s-1,1.7-1.4,2.6s-0.7,1.9-0.9,2.8s-0.3,2-0.3,3.1s0.1,2.1,0.3,3.1
			c0.2,1,0.5,1.9,0.9,2.8c0.4,0.9,0.8,1.8,1.4,2.6c0.5,0.8,1.2,1.6,1.8,2.2s1.4,1.3,2.2,1.8c0.8,0.5,1.7,1,2.6,1.4
			c0.9,0.4,1.9,0.7,2.8,0.9c1,0.2,2,0.3,3.1,0.3s2.1-0.1,3.1-0.3c1-0.2,1.9-0.5,2.8-0.9c0.9-0.4,1.8-0.8,2.6-1.4
			c0.8-0.5,1.6-1.2,2.2-1.8s1.3-1.4,1.8-2.2c0.5-0.8,1-1.7,1.4-2.6c0.4-0.9,0.7-1.9,0.9-2.8c0.2-1,0.3-2,0.3-3.1s-0.1-2.1-0.3-3.1
			c-0.2-1-0.5-1.9-0.9-2.8s-0.8-1.8-1.4-2.6c-0.5-0.8-1.2-1.6-1.8-2.2s-1.4-1.3-2.2-1.8c-0.8-0.5-1.7-1-2.6-1.4s-1.9-0.7-2.8-0.9
			C295.7,492.9,294.7,492.8,293.7,492.8z"/>
		<path id="path4185" inkscape:connector-curvature="0" class="st0" d="M291.2,483c-12.8,1.3-22.5,12-22.5,24.9
			c0,3.5,0.8,7,2.2,10.3l4.3-2.5c-0.5-1.2-0.9-2.4-1.2-3.7c-0.3-1.3-0.4-2.6-0.4-4s0.1-2.7,0.4-4s0.7-2.6,1.2-3.8
			c0.5-1.2,1.1-2.3,1.8-3.4c0.7-1.1,1.5-2.1,2.4-3s1.9-1.7,3-2.4c1.1-0.7,2.2-1.3,3.4-1.8c1.2-0.5,2.5-0.9,3.8-1.2
			c0.5-0.1,1-0.2,1.5-0.2V483z M296.2,483.1v5c0.5,0.1,1,0.1,1.5,0.2c1.3,0.3,2.6,0.7,3.8,1.2c1.2,0.5,2.3,1.1,3.4,1.8
			c1.1,0.7,2.1,1.5,3,2.4c0.9,0.9,1.7,1.9,2.4,3c0.7,1.1,1.3,2.2,1.8,3.4c0.5,1.2,0.9,2.5,1.2,3.8s0.4,2.6,0.4,4s-0.1,2.7-0.4,4
			c-0.3,1.3-0.7,2.5-1.2,3.7l4.3,2.5c1.5-3.2,2.2-6.7,2.2-10.3C318.7,495.1,308.9,484.3,296.2,483.1z M277.8,520l-4.4,2.5
			c4.7,6.5,12.2,10.4,20.3,10.4c8,0,15.6-3.9,20.3-10.4l-4.4-2.5c-0.6,0.7-1.1,1.4-1.8,2.1c-0.9,0.9-1.9,1.7-3,2.4
			c-1.1,0.7-2.2,1.3-3.4,1.8c-1.2,0.5-2.5,0.9-3.8,1.2c-1.3,0.3-2.6,0.4-4,0.4s-2.7-0.1-4-0.4s-2.6-0.7-3.8-1.2s-2.3-1.1-3.4-1.8
			s-2.1-1.5-3-2.4C278.9,521.4,278.3,520.7,277.8,520z"/>
	</g>
	<g id="text4155" transform="matrix(1.0014175,0,0,0.99858451,9.0000452,0)">
		<path id="path4171" inkscape:connector-curvature="0" class="st0" d="M30.1,1026.4c1.2,0.3,2.6,0.4,3.9,0.1
			c1.3-0.2,2.5-0.7,3.6-1.4l-2.9-2.1c-0.9,0.5-2.6,0.5-3.8,0.2c-0.8-0.2-1.6-0.5-2.3-1.1c-0.7-0.5-1.2-1.1-1.7-1.8
			c-0.5-0.7-0.8-1.5-1-2.4c-0.2-0.9-0.1-1.7,0.1-2.6c0.2-0.8,0.5-1.6,1-2.3c0.5-0.7,1.1-1.2,1.8-1.7c0.7-0.5,1.5-0.8,2.4-0.9
			c1.7-0.3,3.3,0,4.9,1.1l1.9-2.7c-1.1-0.7-2.2-1.2-3.4-1.5s-2.5-0.3-3.9-0.1c-1.3,0.2-2.5,0.7-3.6,1.4c-1.1,0.7-2,1.6-2.7,2.6
			c-0.7,1-1.2,2.2-1.5,3.4c-0.3,1.3-0.4,2.6-0.1,3.9c0.2,1.3,0.7,2.5,1.4,3.6s1.6,2,2.6,2.7C27.8,1025.6,28.9,1026.1,30.1,1026.4
			L30.1,1026.4z"/>
		<path id="path4173" inkscape:connector-curvature="0" class="st0" d="M48.9,1007.1c-2.7,0-5,1-6.9,2.9c-1.9,1.9-2.9,4.2-2.9,6.9
			c0,2.7,1,5,2.9,6.9c1.9,1.9,4.2,2.9,6.9,2.9s5-1,6.9-2.9c1.9-1.9,2.9-4.2,2.9-6.9c0-2.7-1-5-2.9-6.9
			C53.9,1008.1,51.7,1007.1,48.9,1007.1z M48.9,1010.4c1.8,0,3.3,0.6,4.6,1.9s1.9,2.8,1.9,4.6c0,1.8-0.6,3.3-1.9,4.6
			c-1.3,1.3-2.8,1.9-4.6,1.9c-1.8,0-3.3-0.6-4.6-1.9c-1.3-1.3-1.9-2.8-1.9-4.6c0-1.8,0.6-3.3,1.9-4.6
			C45.6,1011,47.2,1010.4,48.9,1010.4z"/>
		<path id="path4175" inkscape:connector-curvature="0" class="st0" d="M68.5,1026.4c1.2,0.3,2.6,0.4,3.9,0.1
			c1.3-0.2,2.5-0.7,3.6-1.4L73,1023c-0.9,0.5-2.6,0.5-3.8,0.2c-0.8-0.2-1.6-0.5-2.3-1.1c-0.7-0.5-1.2-1.1-1.7-1.8
			c-0.5-0.7-0.8-1.5-1-2.4c-0.2-0.9-0.1-1.7,0.1-2.6c0.2-0.8,0.5-1.6,1-2.3c0.5-0.7,1.1-1.2,1.8-1.7c0.7-0.5,1.5-0.8,2.4-0.9
			c1.7-0.3,3.3,0,4.9,1.1l1.9-2.7c-1.1-0.7-2.2-1.2-3.4-1.5c-1.2-0.3-2.5-0.3-3.9-0.1c-1.3,0.2-2.5,0.7-3.6,1.4
			c-1.1,0.7-2,1.6-2.7,2.6c-0.7,1-1.2,2.2-1.5,3.4c-0.3,1.3-0.4,2.6-0.1,3.9c0.2,1.3,0.7,2.5,1.4,3.6c0.7,1.1,1.6,2,2.6,2.7
			C66.1,1025.6,67.2,1026.1,68.5,1026.4L68.5,1026.4z"/>
		<path id="path4177" inkscape:connector-curvature="0" class="st0" d="M84.4,1020.2l2.9-5.7l2.9,5.7h3.7l-6.5-13.1l-9.8,19.6h3.6
			l1.7-3.3L84.4,1020.2z M95.5,1023.4h-3.6l1.6,3.3h3.6L95.5,1023.4L95.5,1023.4z"/>
		<path id="path4179" inkscape:connector-curvature="0" class="st0" d="M103.9,1023.4l-3.3,3.3h13v-3.3L103.9,1023.4L103.9,1023.4z
			 M100.6,1007.1v0.5v14.6l3.3-3.3v-11.3v-0.5H100.6z"/>
		<path id="path4181" inkscape:connector-curvature="0" class="st0" d="M123,1026.4c1.2,0.3,2.6,0.4,3.9,0.1
			c1.3-0.2,2.5-0.7,3.6-1.4l-2.9-2.1c-0.9,0.5-2.6,0.5-3.8,0.2c-0.8-0.2-1.6-0.5-2.3-1.1c-0.7-0.5-1.2-1.1-1.7-1.8
			c-0.5-0.7-0.8-1.5-1-2.4c-0.2-0.9-0.1-1.7,0.1-2.6c0.2-0.8,0.5-1.6,1-2.3c0.5-0.7,1.1-1.2,1.8-1.7c0.7-0.5,1.5-0.8,2.4-0.9
			c1.7-0.3,3.3,0,4.9,1.1l1.9-2.7c-1.1-0.7-2.2-1.2-3.4-1.5s-2.5-0.3-3.9-0.1c-1.3,0.2-2.5,0.7-3.6,1.4c-1.1,0.7-2,1.6-2.7,2.6
			c-0.7,1-1.2,2.2-1.5,3.4c-0.3,1.3-0.4,2.6-0.1,3.9c0.2,1.3,0.7,2.5,1.4,3.6c0.7,1.1,1.6,2,2.6,2.7
			C120.6,1025.6,121.7,1026.1,123,1026.4L123,1026.4z"/>
	</g>
</g>
</svg>
