<?xml version="1.0" encoding="UTF-8" standalone="no"?>
<svg
   width="300"
   height="90"
   viewBox="0 0 300 90"
   version="1.1"
   id="svg3636"
   sodipodi:docname="codeneuro.svg"
   inkscape:version="1.1.1 (3bf5ae0d25, 2021-09-20)"
   xmlns:inkscape="http://www.inkscape.org/namespaces/inkscape"
   xmlns:sodipodi="http://sodipodi.sourceforge.net/DTD/sodipodi-0.dtd"
   xmlns="http://www.w3.org/2000/svg"
   xmlns:svg="http://www.w3.org/2000/svg"
   xmlns:rdf="http://www.w3.org/1999/02/22-rdf-syntax-ns#"
   xmlns:cc="http://creativecommons.org/ns#"
   xmlns:dc="http://purl.org/dc/elements/1.1/"
   xmlns:sketch="http://www.bohemiancoding.com/sketch/ns">
  <sodipodi:namedview
     id="namedview3638"
     pagecolor="#ffffff"
     bordercolor="#666666"
     borderopacity="1.0"
     inkscape:pageshadow="2"
     inkscape:pageopacity="0.0"
     inkscape:pagecheckerboard="0"
     showgrid="false"
     inkscape:zoom="2.3257163"
     inkscape:cx="186.60918"
     inkscape:cy="1.0749377"
     inkscape:window-width="1866"
     inkscape:window-height="1016"
     inkscape:window-x="54"
     inkscape:window-y="27"
     inkscape:window-maximized="1"
     inkscape:current-layer="svg3636" />
  <!-- Generator: Sketch 3.3.3 (12072) - http://www.bohemiancoding.com/sketch -->
  <title
     id="title3593">codeneuro-logo</title>
  <desc
     id="desc3595">Created with Sketch.</desc>
  <defs
     id="defs3597" />
  <g
     id="Page-1"
     stroke="none"
     stroke-width="1"
     fill="none"
     fill-rule="evenodd"
     sketch:type="MSPage"
     transform="translate(2.0949383,14.919361)">
    <g
       id="codeneuro-logo"
       sketch:type="MSLayerGroup"
       fill="#b1b1b1">
      <path
         d="m 231.65177,59.454217 c -0.82014,-0.0014 -0.84685,-0.838554 -0.88512,-1.998795 -0.007,-0.195904 -0.013,-0.376627 -0.0231,-0.50747 -0.0144,-0.200241 0,-0.484338 0.0188,-0.796627 0.0195,-0.326024 0.0585,-0.969397 -0.0188,-1.233253 -0.031,0.02241 -0.10468,0.04554 -0.20864,0.09687 -1.30962,0.615903 -1.45979,0.728674 -2.33118,1.711084 -0.25124,0.284096 -0.90172,0.937591 -1.56303,0.937591 h -0.46493 L 225.848,57.155422 c -0.21225,-0.495181 0.0404,-1.075663 0.82014,-1.883856 1.24825,-1.29759 2.39254,-1.878072 3.0784,-2.224337 0.17254,-0.08747 0.38768,-0.195181 0.44327,-0.243614 0.64832,-0.64988 0.75083,-0.783615 1.05911,-1.184097 l 0.27362,-0.348434 c 0.32415,-0.414939 0.22236,-1.355421 0.031,-1.770361 -0.0346,-0.0029 -0.0765,-0.0072 -0.13573,-0.0072 -0.41512,0 -1.07137,0.122891 -1.83014,0.265301 -0.63604,0.119277 -1.34067,0.251566 -2.06117,0.344819 -1.4699,0.185061 -1.75001,0.426507 -2.21495,0.82482 -0.19132,0.164096 -0.40068,0.343373 -0.68513,0.537831 -0.47721,0.328193 -1.05116,1.088675 -1.51321,1.698795 -0.57828,0.764097 -0.92266,1.204338 -1.30818,1.40747 l -0.15449,0.07879 -0.29961,0.03904 c -0.33355,0 -0.63027,-0.195903 -0.7696,-0.508915 -0.3321,-0.734458 0.23535,-2.119518 0.7566,-2.715181 0.28517,-0.326024 0.81725,-0.933253 1.16667,-1.400964 -0.41584,0.01663 -0.89088,0.0694 -1.27785,0.112771 l -0.49598,0.0506 -0.15811,0.008 c -0.43461,0 -2.13986,-0.313734 -2.13986,-1.197831 v -0.701928 l 0.81364,-0.01518 0.1646,0.02892 c 0.0686,0.01084 0.20431,0.01373 0.38336,0.01373 1.09375,0 3.5982,-0.180723 4.88255,-0.328915 1.70742,-0.19735 3.78447,-0.513253 6.2521,-1.362651 1.97093,-0.680241 4.45372,-4.334458 5.24353,-5.684819 l 0.26713,-0.462651 0.51547,0.138072 c 4.06458,1.087229 4.17937,2.018314 4.21619,2.323374 0.0253,0.199518 0.0152,0.701928 -0.61004,1.048916 -0.30828,0.169156 -0.64615,0.333976 -1.00785,0.504578 -1.29951,0.62241 -2.77157,1.33012 -4.01477,3.039759 -1.21432,1.669157 -1.50021,2.96747 -1.77311,4.220241 -0.0931,0.410602 -0.17905,0.800241 -0.29095,1.182651 -0.17615,0.600723 -0.18626,0.98024 -0.2007,1.508674 -0.0173,0.696145 -0.0419,1.560723 -0.45916,3.179277 -0.25629,0.996145 -0.46205,1.783374 -1.16306,1.783374 v 0 z"
         id="Shape"
         sketch:type="MSShapeGroup" />
      <g
         id="XMLID_2_"
         transform="translate(251.96098,3.614458)"
         sketch:type="MSShapeGroup">
        <path
           d="m 22.137912,13.691566 -0.297444,0.542892 c -0.402849,0.631084 -1.820039,0.210361 -2.765073,-0.15759 0.105405,0.193012 0.244742,0.367951 0.3848,0.542891 0.3848,0.508193 0.7696,1.034458 0.507532,1.594699 -0.210088,0.438072 -0.560234,0.526265 -0.752995,0.543614 -0.612215,0.07012 -1.049717,-0.403373 -2.152137,-2.015421 -1.2432,-1.787711 -1.960819,-2.278555 -2.92318,-2.611085 -0.157386,-0.05277 -0.315493,-0.122891 -0.490205,-0.175662 -1.137795,-0.438073 -2.555708,-0.980964 -4.6385368,0.333253 l -0.5255805,0.350602 c -2.1875122,1.366988 -2.3802732,1.48988 -3.3953366,3.312289 -0.6129366,1.103856 -0.9796878,1.524578 -1.2078244,1.80506 -0.192761,0.227711 -0.2266927,0.280482 -0.3320975,0.665784 -0.1581074,0.631084 -0.6475903,0.701204 -0.7883708,0.701204 h -0.087356 c -0.4194536,0 -0.962361,-0.210361 -2.13480974,-3.662891 L 1.1861658,15.233494 0.81869268,14.480241 C 0.85334634,14.462892 4.2140293,12.762651 4.2660098,10.186988 4.336761,7.0496385 3.6537951,3.8074699 2.6733854,2.2481928 2.4286439,1.8621687 2.1658537,1.406747 2.4286439,0.9860241 L 2.6553366,0.6 3.1108878,0.63542169 C 3.8985366,0.70554217 5.875961,3.3693976 6.0340683,3.7720482 6.2087805,4.2101205 6.3668878,4.7537349 6.4888976,5.1918072 7.0491317,4.9814458 7.8548293,3.7019277 8.4670439,3.9824096 L 8.8345171,4.14 8.9745756,4.6655422 C 9.0265561,5.2966265 8.4489951,5.6472289 7.6086439,6.2081928 7.3465756,6.3831325 6.8209951,7.68 6.6462829,7.8375904 v 0.2450602 c 0,0.1228916 0.192761,1.0518072 0.192761,1.2448193 C 7.4519805,8.9595181 8.4489951,8.2583133 9.3066732,7.4342169 10.549873,6.2248193 13.140234,3.2284337 13.962537,2.2113253 c 0.612936,-0.7706024 1.977424,-1.75228915 2.905131,-1.5773494 0.367473,0.0527711 0.664917,0.29783133 0.787649,0.6484337 0.262068,0.7706025 -0.472156,1.4371085 -1.259805,2.0681928 1.049717,0.034699 1.907395,0.7359036 2.13481,1.2968675 l 0.158107,0.4033735 -0.26279,0.3679518 c -0.297444,0.3506024 -0.71762,0.2631325 -0.979688,0.193012 -0.577561,-0.1228915 -1.785385,-0.3860241 -3.133268,0.7185542 -0.402849,0.3332531 -0.7696,0.6310844 -1.10242,0.8942169 -0.717619,0.5783133 -1.522595,1.226747 -1.557248,1.4371085 0.139336,0.1575903 1.015063,0.2978313 1.575297,0.4033734 0.71762,0.140241 1.469893,0.2631326 2.100156,0.5428916 0.927708,0.3853012 2.3976,1.2795182 3.570771,1.9980722 0.682244,0.420723 1.259805,0.771325 1.521873,0.893494 0.735668,0.350602 0.945756,0.455422 1.295181,0.788675 z"
           id="path3600" />
      </g>
      <path
         d="m 269.88125,48.36506 c -0.81292,0 -1.64027,-1.140723 -2.19473,-2.099277 -0.50465,-0.879759 -1.00063,-1.660482 -1.46845,-2.395663 -0.28734,-0.451807 -0.56457,-0.889156 -0.83025,-1.324337 -0.97535,-1.609879 -1.4605,-2.064578 -1.62439,-2.183855 -0.42884,-0.318073 -0.81291,-0.633976 -1.18255,-0.941928 -1.13274,-0.934699 -2.10882,-1.742169 -4.10646,-2.266265 -2.58386,-0.674458 -4.21908,-0.81759 -5.13091,-0.81759 -0.16677,0 -0.46638,0.01446 -0.46854,0.01446 -0.41296,0 -0.72484,-0.161927 -0.92121,-0.443132 -0.61005,-0.871084 0.057,-3.100482 0.50825,-4.350362 l 0.38769,-1.070602 0.78115,0.828434 c 0.0152,0.01735 1.92255,1.955421 6.37699,2.695662 0.34582,0.05711 0.67214,0.08386 0.98691,0.08386 1.31179,0 2.3615,-0.441687 3.37801,-0.866024 l 0.37397,-0.157591 c 0.91399,-0.373012 2.61852,-1.071325 2.87698,-1.398072 0.5328,-0.667952 1.07137,-0.99253 1.65687,-0.99253 0.36892,0 0.73784,0.134458 1.10098,0.402651 0.43101,0.318072 0.41585,0.717108 0.38913,0.873976 -0.057,0.346987 -0.30105,0.569638 -0.61654,0.734457 1.15656,0.03831 1.83303,0.383133 2.01135,1.026506 0.14078,0.510362 -0.12995,0.999759 -0.46782,1.219518 l -0.17399,0.110603 -0.30539,0.01879 c -0.23824,0 -0.53496,-0.06867 -1.08292,-0.198072 -0.63027,-0.151085 -1.49083,-0.356386 -2.14131,-0.356386 -0.1906,0 -0.3487,0.01735 -0.4671,0.05132 -1.12119,0.323856 -2.20123,0.715663 -3.08707,1.938796 -0.13356,0.183614 -0.17399,0.365783 -0.13572,0.586988 0.11551,0.699036 0.96669,1.573012 1.76011,2.131084 0.27795,0.175663 1.62295,0.196626 2.42431,0.210361 1.94855,0.02892 3.16937,0.09253 3.74332,0.719277 0.39202,0.429398 0.88223,0.962892 0.62521,1.550603 -0.0859,0.191566 -0.31621,0.513253 -0.91327,0.513253 -0.24979,0 -0.58478,-0.05133 -1.08292,-0.169157 -0.7299,-0.172771 -1.77095,-0.355662 -2.51384,-0.355662 -0.12923,0 -0.23391,0.0051 -0.31332,0.01373 0.38263,0.974457 1.53559,3.151084 2.12398,4.262168 l 0.33859,0.641205 c 0.28662,0.553012 0.3256,1.009157 0.11479,1.355422 l -0.20287,0.336867 -0.52702,0.06651 z"
         id="path3603"
         sketch:type="MSShapeGroup" />
      <path
         d="m 257.92646,56.860482 c -0.54363,0 -0.75733,-0.523374 -0.83602,-0.719277 -0.3025,-0.746024 -1.00207,-1.400241 -1.88574,-2.227229 -0.26929,-0.251566 -0.55229,-0.515422 -0.84612,-0.801687 -0.75661,-0.742409 -1.31323,-1.006988 -1.5818,-1.006988 -0.0383,0.01735 0.1119,0.373012 0.21081,0.607952 0.31549,0.737349 0.74217,1.745783 0.39996,2.801205 -0.1054,0.333976 -0.35809,1.114699 -1.04827,1.114699 -0.74794,0 -1.08149,-0.758314 -1.184,-2.699278 -0.0751,-1.431325 -1.53054,-4.066265 -3.14482,-6.867469 -1.64244,-2.849639 -3.05313,-3.481446 -3.06613,-3.486506 l -1.10025,-0.474217 0.93998,-0.730844 c 2.12903,-1.632289 3.50435,-2.460723 4.09202,-2.460723 h 0.33498 l 0.31189,0.296386 c 0.0902,0.10988 0.23174,0.354217 0.15377,0.714217 -0.16172,0.758313 -0.24979,2.833012 0.51475,4.427711 0.79992,1.672771 2.11388,2.746265 3.62492,3.87253 1.21721,0.909397 2.28137,1.35253 3.25817,1.35253 0.18698,0 0.37252,-0.01518 0.55373,-0.04771 0.34149,-0.06 0.72123,-0.08602 1.10387,-0.08602 1.24103,0 2.7528,0.166265 2.90874,0.957108 0.0274,0.134458 0.10324,0.503133 -0.16677,0.837109 -0.30106,0.367229 -0.80065,0.41494 -1.24898,0.41494 -0.24185,0 -0.55229,-0.01663 -0.94792,-0.06072 -0.10396,-0.01157 -0.20576,-0.01518 -0.30827,-0.01518 -0.90678,0 -1.5522,0.406988 -1.62728,0.579759 1.17172,0.675181 1.4865,2.581446 1.31178,3.148916 l -0.15161,0.497349 -0.57539,0.06145 z"
         id="path3605"
         sketch:type="MSShapeGroup" />
      <path
         d="m 240.2632,19.029398 c -0.40646,0 -0.71401,-0.120723 -0.91977,-0.36 -0.17687,-0.208193 -0.25124,-0.481446 -0.20431,-0.76988 0.15017,-0.975181 -0.0628,-2.022651 -0.91254,-4.480482 -0.5819,-1.672771 -1.76084,-2.541687 -2.90008,-3.380964 -0.38192,-0.2826503 -0.75083,-0.5559033 -1.08654,-0.8443371 -0.95658,-0.832771 -3.108,-1.3481927 -4.55046,-1.3481927 -0.27362,0 -0.52269,0.017349 -0.72772,0.057108 -0.27435,0.054217 -0.57323,0.078072 -0.87573,0.078072 -0.11335,0 -2.76002,-0.013735 -2.84377,-1.1631325 -0.0101,-0.1236145 -0.0101,-0.7496386 0.87573,-0.880482 l 0.8454,-0.1207229 c 0.93782,-0.1315662 2.10738,-0.2949397 2.7232,-0.4525301 0.43678,-0.1127711 0.605,-0.2674699 0.63171,-0.3115662 -0.006,-7.229e-4 -0.0368,-0.1019278 -0.20287,-0.2833735 C 229.35163,3.9346988 228.71126,1.7060241 228.96178,1.14 l 0.18409,-0.42 0.47144,-0.013012 c 0.53568,0 0.71545,0.493012 0.80858,0.7583132 0.296,0.8212048 0.91471,1.406747 2.14492,2.5742169 l 1.04611,1.0026506 c 1.03961,1.0077108 1.54425,1.1587952 1.75434,1.1587952 0.0751,0 0.14222,-0.018072 0.22886,-0.051325 -0.065,-0.1922891 -0.161,-0.4416867 -0.23897,-0.6440963 -0.22669,-0.5696386 -0.47937,-1.2151808 -0.58189,-1.8527711 -0.15594,-0.9614458 0.20575,-1.9084338 0.6086,-2.3812048 0.29095,-0.34265059 0.58478,-0.41421685 0.78332,-0.41421685 h 0.30322 l 0.29095,0.26096375 c 0.27001,0.2898796 0.27506,0.6881929 0.25629,0.9628917 -0.0859,1.1746987 0.84974,3.7178312 3.02786,8.2409637 2.29436,4.769638 4.85368,5.869879 4.87895,5.88 l 0.031,1.288192 c -0.34148,0.156868 -3.38811,1.539037 -4.69629,1.539037 v 0 z"
         id="path3607"
         sketch:type="MSShapeGroup" />
      <g
         id="Group"
         transform="translate(26.712195,13.73494)"
         sketch:type="MSShapeGroup">
        <path
           d="m 20.222576,28.693735 c -2.326127,0.964337 -4.762713,1.446506 -7.310478,1.446506 -4.1035712,0 -7.2548882,-1.226747 -9.4546736,-3.68241 C 1.257639,24.002892 0.15738537,20.37253 0.15738537,15.566747 c 0,-2.328434 0.30321951,-4.43494 0.91110243,-6.3187952 C 1.6756488,7.3648193 2.5427122,5.7657831 3.6682342,4.453012 4.7937561,3.140241 6.1568,2.1281928 7.7573658,1.4161446 9.3572098,0.70409639 11.149093,0.34843374 13.134458,0.34843374 c 1.347884,0 2.599747,0.11493975 3.754869,0.34481927 1.155844,0.22987952 2.266927,0.58192769 3.333249,1.05686749 v 3.893494 c -1.051883,-0.5783133 -2.140586,-1.02 -3.266108,-1.3243374 -1.126244,-0.3036144 -2.355005,-0.4561446 -3.688449,-0.4561446 -1.363043,0 -2.596136,0.2559036 -3.6999995,0.7677109 -1.1038634,0.5118072 -2.0409561,1.2534939 -2.811278,2.2250602 -0.770322,0.9715663 -1.3630439,2.1578313 -1.7774439,3.5595184 -0.415122,1.401686 -0.622322,3 -0.622322,4.794939 0,3.767711 0.7631024,6.607952 2.2885854,8.521446 1.5254829,1.913494 3.762088,2.86988 6.710537,2.86988 1.244644,0 2.436585,-0.143856 3.577268,-0.433735 1.140683,-0.28988 2.236605,-0.693253 3.288488,-1.213012 v 3.738795 z"
           id="path3609" />
        <path
           d="m 46.931161,15.055663 c 0,2.610361 -0.307551,4.86506 -0.921932,6.763373 -0.615102,1.898313 -1.443902,3.466988 -2.488566,4.705301 -1.043941,1.239036 -2.266205,2.158555 -3.666068,2.758555 -1.399863,0.601445 -2.877697,0.901445 -4.43278,0.901445 -1.866244,0 -3.4928,-0.338313 -4.877503,-1.012048 -1.385424,-0.675181 -2.533327,-1.649638 -3.444429,-2.926265 -0.911103,-1.275181 -1.588293,-2.828675 -2.033015,-4.661205 -0.444722,-1.831807 -0.666361,-3.897108 -0.666361,-6.196626 0,-2.580723 0.30322,-4.820241 0.911103,-6.7192773 0.607161,-1.8983133 1.433073,-3.466988 2.477736,-4.7053012 1.043942,-1.2383133 2.262596,-2.1585543 3.655239,-2.7592771 1.391922,-0.60072294 2.866147,-0.90072294 4.421952,-0.90072294 1.866243,0 3.492078,0.34120482 4.877502,1.02361444 1.384702,0.6824097 2.536937,1.6575904 3.455259,2.9255422 0.918322,1.2679518 1.603453,2.8149397 2.055395,4.6387952 0.450497,1.8253007 0.676468,3.8797587 0.676468,6.1640967 z m -4.11079,0.289156 c 0,-1.705301 -0.129952,-3.266747 -0.389132,-4.683614 C 42.172058,9.2450602 41.753327,8.0248193 41.175766,7.0012048 40.598205,5.9775904 39.853873,5.1845783 38.942771,4.6207229 38.031668,4.0575904 36.932137,3.7756627 35.643454,3.7756627 c -1.244644,0 -2.314576,0.3007228 -3.210517,0.9014457 -0.896664,0.6007229 -1.633054,1.4161446 -2.210615,2.446988 -0.577561,1.0315663 -1.007844,2.240241 -1.288683,3.6267466 -0.281561,1.387229 -0.422341,2.859037 -0.422341,4.416145 0,1.720482 0.133561,3.289157 0.39996,4.706024 0.2664,1.416145 0.685132,2.632771 1.255474,3.649157 0.570341,1.015662 1.307453,1.805783 2.210614,2.368915 0.903161,0.563856 1.991864,0.845783 3.266108,0.845783 1.244644,0 2.318185,-0.300722 3.222068,-0.900722 0.903161,-0.601446 1.647493,-1.416868 2.232995,-2.448434 0.584781,-1.030121 1.017951,-2.235904 1.299512,-3.615181 0.281561,-1.38 0.422342,-2.855422 0.422342,-4.427711 z"
           id="path3611" />
        <path
           d="m 71.551141,14.921928 c 0,1.394457 -0.10757,2.728915 -0.32199,4.004819 -0.214419,1.275904 -0.55879,2.462169 -1.033112,3.559518 -0.474322,1.098072 -1.088702,2.09494 -1.844585,2.992771 -0.755161,0.897109 -1.681425,1.665542 -2.777347,2.303133 -1.095922,0.63759 -2.370166,1.131325 -3.821288,1.479759 -1.451843,0.348433 -3.103668,0.523373 -4.955473,0.523373 H 50.575571 V 0.70481928 h 7.488078 c 4.533132,0 7.914029,1.16819282 10.143414,3.50457832 2.229386,2.3356626 3.344078,5.9067474 3.344078,10.7125304 z m -4.154829,0.289156 c 0,-2.061686 -0.192761,-3.804578 -0.577561,-5.2286744 C 66.433229,8.5583133 65.848449,7.4089157 65.062966,6.533494 64.278205,5.6587952 63.292741,5.0248193 62.108019,4.6315663 60.922576,4.2390361 59.530654,4.0416867 57.93081,4.0416867 H 54.531141 V 26.358072 h 2.954947 c 6.606575,0 9.910224,-3.715662 9.910224,-11.146988 z"
           id="path3613" />
        <path
           d="M 94.149658,29.784578 H 77.640078 V 0.70481928 h 16.50958 V 4.0424096 H 81.594927 v 9.0108434 h 12.065249 v 3.33759 H 81.594927 v 10.012049 h 12.554731 z"
           id="path3615" />
      </g>
      <path
         d="M 17.510205,43.849879 15.088059,47.330602 0.15666342,29.577108 15.088781,11.823615 17.510927,15.336145 5.4001951,29.514217 Z"
         id="path3618"
         sketch:type="MSShapeGroup" />
      <path
         d="m 278.32158,15.336145 2.39977,-3.51253 14.93211,17.753493 -14.93211,17.754217 -2.39977,-3.480723 12.11001,-14.209156 z"
         id="path3620"
         sketch:type="MSShapeGroup" />
      <g
         id="g3632"
         transform="translate(129.95122,13.73494)"
         sketch:type="MSShapeGroup">
        <path
           d="M 15.052683,29.784578 10.741912,12.43012 9.8755707,8.6920482 7.4534244,20.751325 5.6759805,29.785301 H 0.72122927 L 6.5430439,0.70481928 H 12.9648 L 17.386751,18.170602 18.097873,21.574699 20.65358,8.7368675 22.297463,0.70481928 h 4.999513 L 21.475161,29.785301 h -6.422478 z"
           id="path3622" />
        <path
           d="M 27.607415,29.784578 33.428507,0.70409639 H 50.893229 L 49.938088,5.3320482 h -11.91003 l -1.466282,7.2310848 h 11.376507 l -0.86562,4.516626 H 35.695434 l -1.622224,8.076868 h 11.910029 l -0.911102,4.627951 z"
           id="path3624" />
        <path
           d="m 73.669346,19.52747 c -0.369639,1.854217 -0.911102,3.459759 -1.621502,4.817349 -0.7104,1.356868 -1.592625,2.47735 -2.643785,3.358555 -1.051883,0.883373 -2.274147,1.536144 -3.666069,1.958313 -1.393366,0.422891 -2.941229,0.633976 -4.645034,0.633976 -1.570244,0 -2.929678,-0.177832 -4.076858,-0.533494 -1.148625,-0.355663 -2.089327,-0.86747 -2.822108,-1.534699 -0.733502,-0.667952 -1.259083,-1.468916 -1.578185,-2.402892 -0.318381,-0.934699 -0.47721,-1.980723 -0.47721,-3.137349 0,-0.978795 0.126342,-2.032048 0.377581,-3.159759 L 56.271044,0.70409639 h 5.465893 L 57.959688,19.660482 c -0.1776,0.919518 -0.2664,1.728434 -0.2664,2.424578 0,0.607952 0.07436,1.142892 0.223083,1.601928 0.147278,0.460482 0.376858,0.845783 0.688019,1.157349 0.311883,0.311567 0.733503,0.545061 1.267025,0.701205 0.5328,0.155422 1.169561,0.232771 1.911005,0.232771 0.888,0 1.684312,-0.114217 2.388936,-0.344819 0.703181,-0.22988 1.317561,-0.600723 1.843863,-1.11253 0.526303,-0.511085 0.966693,-1.163856 1.321893,-1.95759 0.3552,-0.793013 0.644703,-1.760964 0.867064,-2.903856 L 71.981424,0.70337349 h 5.488274 z"
           id="path3626" />
        <path
           d="M 91.201932,29.784578 89.423766,22.531084 C 89.201405,21.56747 88.953776,20.773012 88.679434,20.150602 88.405093,19.528193 88.093932,19.038072 87.746673,18.68241 87.398693,18.326747 87.009561,18.081687 86.58,17.947952 86.149717,17.814217 85.661678,17.747711 85.113717,17.747711 H 84.269034 L 81.891649,29.784578 H 76.425756 L 82.246849,0.70409639 h 8.332761 c 1.377483,0 2.629346,0.11493975 3.754868,0.34481931 1.126244,0.2298795 2.089327,0.5971084 2.889249,1.1009638 0.7992,0.5045783 1.414302,1.1573494 1.844585,1.9575904 0.429561,0.8009638 0.644703,1.779759 0.644703,2.9371084 0,1.1718072 -0.178322,2.2691566 -0.533522,3.2927707 -0.3552,1.023615 -0.874283,1.939519 -1.555083,2.747711 -0.681522,0.808916 -1.507434,1.483374 -2.477737,2.02482 -0.971024,0.542168 -2.070556,0.923132 -3.299317,1.145783 0.370361,0.208192 0.7104,0.470602 1.021561,0.789397 0.311883,0.318795 0.603551,0.727229 0.877893,1.223856 0.274341,0.497349 0.540741,1.098072 0.799922,1.802168 0.258458,0.70482 0.52919,1.539036 0.810751,2.502651 l 2.000527,7.209397 H 91.201932 Z M 87.068039,13.475422 c 1.051883,0 2.003415,-0.11494 2.855317,-0.34482 0.851903,-0.229879 1.574576,-0.567469 2.166576,-1.012048 0.592,-0.444578 1.047551,-0.993253 1.367375,-1.646024 0.317659,-0.652771 0.47721,-1.4016866 0.47721,-2.2467469 0,-1.0236144 -0.359532,-1.7725301 -1.077151,-2.2474699 C 92.138302,5.5040964 90.99401,5.2662651 89.423766,5.2662651 H 86.77998 l -1.643882,8.2098799 h 1.931941 z"
           id="path3628" />
        <path
           d="m 111.1776,30.295663 c -3.03653,0 -5.36626,-0.837109 -6.98849,-2.514217 -1.6215,-1.675663 -2.43297,-4.108916 -2.43297,-7.297591 0,-1.483373 0.12562,-3.010843 0.37758,-4.583132 0.25196,-1.572289 0.63676,-3.111325 1.15584,-4.616386 0.51836,-1.5057828 1.1775,-2.9291563 1.97743,-4.2722888 0.7992,-1.3416868 1.75578,-2.5142169 2.86614,-3.5154217 1.11108,-1.0012048 2.38172,-1.7985542 3.81118,-2.3920482 1.42874,-0.59277107 3.02498,-0.88987951 4.78798,-0.88987951 3.03653,0 5.36699,0.83421691 6.98849,2.50337351 1.62223,1.6684337 2.4337,4.0973494 2.4337,7.2867467 0,1.483374 -0.12634,3.014458 -0.37758,4.594699 -0.25269,1.579518 -0.63748,3.122169 -1.15585,4.627952 -0.51908,1.505783 -1.1775,2.925542 -1.97742,4.260723 -0.79992,1.335903 -1.75579,2.507711 -2.86687,3.515421 -1.11108,1.009157 -2.38099,1.810121 -3.81046,2.402892 -1.42946,0.592771 -3.02642,0.889157 -4.7887,0.889157 z m 0.77754,-4.917109 c 0.93348,0 1.789,-0.20747 2.56726,-0.623132 0.77754,-0.41494 1.48072,-0.978796 2.11099,-1.690121 0.62881,-0.712048 1.18111,-1.546988 1.65543,-2.503373 0.4736,-0.957109 0.86995,-1.987952 1.18833,-3.09253 0.31766,-1.104579 0.5559,-2.254699 0.7104,-3.448916 0.15594,-1.193494 0.23319,-2.376867 0.23319,-3.548675 0,-1.8390359 -0.35159,-3.1893974 -1.05549,-4.0496383 -0.7039,-0.860241 -1.84098,-1.2903615 -3.41122,-1.2903615 -0.93276,0 -1.789,0.2038554 -2.56654,0.6115663 -0.77754,0.4084337 -1.48144,0.9679518 -2.11098,1.68 -0.62954,0.7120482 -1.18184,1.5506024 -1.65544,2.5142169 -0.47432,0.9643376 -0.86995,1.9951806 -1.18833,3.0925306 -0.31838,1.097349 -0.5559,2.246747 -0.71112,3.448915 -0.15522,1.201446 -0.23247,2.388434 -0.23247,3.559518 0,1.839036 0.34726,3.189398 1.04394,4.049639 0.69596,0.860964 1.83665,1.290361 3.42205,1.290361 z"
           id="path3630" />
      </g>
    </g>
  </g>
  <metadata
     id="metadata3720">
    <rdf:RDF>
      <cc:Work
         rdf:about="">
        <dc:title>codeneuro-logo</dc:title>
      </cc:Work>
    </rdf:RDF>
  </metadata>
</svg>
