<?xml version="1.0" encoding="UTF-8" standalone="no"?>
<svg width="296px" height="60px" viewBox="0 0 296 60" version="1.1" xmlns="http://www.w3.org/2000/svg" xmlns:xlink="http://www.w3.org/1999/xlink" xmlns:sketch="http://www.bohemiancoding.com/sketch/ns">
    <!-- Generator: Sketch 3.3.3 (12072) - http://www.bohemiancoding.com/sketch -->
    <title>codeneuro-logo</title>
    <desc>Created with Sketch.</desc>
    <defs></defs>
    <g id="Page-1" stroke="none" stroke-width="1" fill="none" fill-rule="evenodd" sketch:type="MSPage">
        <g id="codeneuro-logo" sketch:type="MSLayerGroup" fill="#B1B1B1">
            <path d="M231.651766,59.4542169 C230.831629,59.4527711 230.804917,58.6156627 230.766654,57.4554217 C230.759434,57.2595181 230.753659,57.0787952 230.743551,56.9479518 C230.729112,56.7477108 230.743551,56.4636145 230.762322,56.1513253 C230.781815,55.8253012 230.8208,55.1819277 230.743551,54.9180723 C230.712507,54.9404819 230.638868,54.9636145 230.534907,55.0149398 C229.225288,55.6308434 229.075122,55.7436145 228.203727,56.7260241 C227.952488,57.0101205 227.30201,57.6636145 226.640702,57.6636145 L226.175766,57.6636145 L225.848,57.1554217 C225.635746,56.660241 225.888429,56.079759 226.668137,55.2715663 C227.91639,53.9739759 229.060683,53.393494 229.746537,53.0472289 C229.919083,52.959759 230.134224,52.8520482 230.189815,52.8036145 C230.838127,52.1537349 230.940644,52.02 231.248917,51.6195181 L231.522537,51.2710843 C231.846693,50.8561446 231.744898,49.9156627 231.55358,49.5007229 C231.518927,49.4978313 231.477054,49.493494 231.417854,49.493494 C231.002732,49.493494 230.346478,49.6163855 229.587707,49.7587952 C228.951668,49.8780723 228.247044,50.0103614 227.526537,50.1036145 C226.056644,50.2886747 225.776527,50.5301205 225.31159,50.9284337 C225.120273,51.0925301 224.910907,51.2718072 224.626459,51.4662651 C224.149249,51.7944578 223.575298,52.5549398 223.113249,53.1650602 C222.534966,53.9291566 222.190595,54.3693976 221.805073,54.5725301 L221.650576,54.6513253 L221.350966,54.6903614 C221.017424,54.6903614 220.720702,54.4944578 220.581366,54.1814458 C220.249268,53.446988 220.816722,52.0619277 221.337971,51.4662651 C221.623141,51.140241 222.15522,50.533012 222.504644,50.0653012 C222.0888,50.0819277 221.613756,50.1346988 221.22679,50.1780723 L220.73081,50.2286747 L220.572702,50.2366265 C220.138088,50.2366265 218.432839,49.9228916 218.432839,49.0387952 L218.432839,48.3368675 L219.246478,48.3216867 L219.411083,48.3506024 C219.479668,48.3614458 219.615395,48.3643373 219.794439,48.3643373 C220.888195,48.3643373 223.392644,48.1836145 224.676995,48.0354217 C226.38441,47.8380723 228.461463,47.5221687 230.929093,46.6727711 C232.90002,45.9925301 235.38281,42.3383133 236.172624,40.9879518 L236.439746,40.5253012 L236.95522,40.6633735 C241.019805,41.7506024 241.134595,42.6816867 241.171415,42.986747 C241.196683,43.1862651 241.186576,43.6886747 240.561366,44.0356627 C240.253093,44.2048193 239.91522,44.3696386 239.553522,44.540241 C238.25401,45.1626506 236.781951,45.8703614 235.538751,47.58 C234.324429,49.2491566 234.038537,50.5474699 233.765639,51.800241 C233.672507,52.2108434 233.586595,52.6004819 233.474693,52.9828916 C233.298537,53.5836145 233.288429,53.9631325 233.27399,54.4915663 C233.256663,55.1877108 233.232117,56.0522892 232.814829,57.6708434 C232.558537,58.666988 232.35278,59.4542169 231.651766,59.4542169 L231.651766,59.4542169 L231.651766,59.4542169 Z" id="Shape" sketch:type="MSShapeGroup"></path>
            <g id="XMLID_2_" transform="translate(251.960976, 3.614458)" sketch:type="MSShapeGroup">
                <path d="M22.1379122,13.6915663 L21.8404683,14.2344578 C21.4376195,14.8655422 20.0204293,14.4448193 19.0753951,14.0768675 C19.1808,14.2698795 19.3201366,14.4448193 19.4601951,14.619759 C19.8449951,15.1279518 20.2297951,15.6542169 19.9677268,16.2144578 C19.757639,16.6525301 19.4074927,16.7407229 19.2147317,16.7580723 C18.6025171,16.8281928 18.1650146,16.3546988 17.0625951,14.7426506 C15.8193951,12.9549398 15.1017756,12.4640964 14.1394146,12.1315663 C13.9820293,12.0787952 13.823922,12.0086747 13.6492098,11.9559036 C12.5114146,11.5178313 11.0935024,10.9749398 9.01067317,12.2891566 L8.48509268,12.639759 C6.29758049,14.006747 6.10481951,14.1296386 5.0897561,15.9520482 C4.47681951,17.0559036 4.11006829,17.4766265 3.88193171,17.7571084 C3.68917073,17.9848193 3.65523902,18.0375904 3.54983415,18.4228916 C3.39172683,19.0539759 2.9022439,19.1240964 2.76146341,19.1240964 L2.67410732,19.1240964 C2.25465366,19.1240964 1.71174634,18.9137349 0.539297561,15.4612048 L1.18616585,15.233494 L0.818692683,14.480241 C0.853346341,14.4628916 4.21402927,12.7626506 4.26600976,10.186988 C4.33676098,7.04963855 3.65379512,3.80746988 2.67338537,2.24819277 C2.4286439,1.86216867 2.16585366,1.40674699 2.4286439,0.986024096 L2.65533659,0.6 L3.1108878,0.635421687 C3.89853659,0.705542169 5.87596098,3.36939759 6.03406829,3.77204819 C6.20878049,4.21012048 6.3668878,4.75373494 6.48889756,5.19180723 C7.04913171,4.98144578 7.85482927,3.70192771 8.4670439,3.98240964 L8.83451707,4.14 L8.97457561,4.66554217 C9.0265561,5.29662651 8.44899512,5.64722892 7.6086439,6.20819277 C7.34657561,6.38313253 6.82099512,7.68 6.64628293,7.83759036 L6.64628293,8.0826506 C6.64628293,8.20554217 6.8390439,9.13445783 6.8390439,9.32746988 C7.45198049,8.95951807 8.44899512,8.25831325 9.30667317,7.43421687 C10.5498732,6.22481928 13.1402341,3.22843373 13.9625366,2.2113253 C14.5754732,1.44072289 15.939961,0.459036145 16.8676683,0.633975904 C17.2351415,0.686746988 17.5325854,0.931807229 17.6553171,1.28240964 C17.9173854,2.05301205 17.183161,2.71951807 16.3955122,3.35060241 C17.4452293,3.3853012 18.3029073,4.08650602 18.530322,4.64746988 L18.6884293,5.05084337 L18.425639,5.41879518 C18.1281951,5.76939759 17.7080195,5.68192771 17.4459512,5.61180723 C16.8683902,5.48891566 15.6605659,5.22578313 14.3126829,6.33036145 C13.9098341,6.66361446 13.5430829,6.96144578 13.2102634,7.22457831 C12.4926439,7.80289157 11.6876683,8.4513253 11.6530146,8.66168675 C11.7923512,8.81927711 12.668078,8.95951807 13.2283122,9.06506024 C13.9459317,9.2053012 14.6982049,9.32819277 15.3284683,9.60795181 C16.2561756,9.99325301 17.7260683,10.8874699 18.899239,11.6060241 C19.5814829,12.026747 20.1590439,12.3773494 20.4211122,12.4995181 C21.1567805,12.8501205 21.3668683,12.9549398 21.7162927,13.2881928 L22.1379122,13.6915663 L22.1379122,13.6915663 Z" id="Shape"></path>
            </g>
            <path d="M269.881249,48.3650602 C269.068332,48.3650602 268.240976,47.2243373 267.686517,46.2657831 C267.181873,45.3860241 266.685893,44.6053012 266.218068,43.8701205 C265.930732,43.4183133 265.653502,42.9809639 265.387824,42.5457831 C264.412468,40.9359036 263.927317,40.4812048 263.763434,40.3619277 C263.334595,40.0438554 262.950517,39.7279518 262.580878,39.42 C261.448137,38.4853012 260.472059,37.6778313 258.47442,37.1537349 C255.890556,36.4792771 254.255337,36.3361446 253.343512,36.3361446 C253.176741,36.3361446 252.877132,36.3506024 252.874966,36.3506024 C252.46201,36.3506024 252.150127,36.1886747 251.953756,35.9074699 C251.343707,35.0363855 252.01079,32.806988 252.46201,31.5571084 L252.849698,30.486506 L253.630849,31.3149398 C253.64601,31.3322892 255.553405,33.2703614 260.007844,34.0106024 C260.353659,34.0677108 260.67998,34.0944578 260.994751,34.0944578 C262.306537,34.0944578 263.356254,33.6527711 264.372761,33.2284337 L264.746732,33.0708434 C265.660722,32.6978313 267.365249,31.9995181 267.623707,31.6727711 C268.156507,31.0048193 268.695083,30.680241 269.280585,30.680241 C269.649502,30.680241 270.01842,30.8146988 270.381561,31.0828916 C270.812566,31.4009639 270.797405,31.8 270.770693,31.9568675 C270.713659,32.3038554 270.469639,32.526506 270.154146,32.6913253 C271.310712,32.7296386 271.98718,33.0744578 272.165502,33.7178313 C272.306283,34.2281928 272.035551,34.7175904 271.697678,34.9373494 L271.523688,35.0479518 L271.218302,35.066747 C270.980059,35.066747 270.683337,34.9980723 270.135376,34.8686747 C269.505112,34.7175904 268.644546,34.5122892 267.994068,34.5122892 C267.803473,34.5122892 267.645366,34.5296386 267.526966,34.5636145 C266.405776,34.8874699 265.325737,35.2792771 264.439902,36.5024096 C264.306341,36.6860241 264.265912,36.8681928 264.304176,37.0893976 C264.419688,37.7884337 265.270868,38.6624096 266.064293,39.2204819 C266.342244,39.3961446 267.687239,39.4171084 268.488605,39.4308434 C270.437151,39.459759 271.657971,39.5233735 272.231922,40.1501205 C272.623941,40.5795181 273.114146,41.113012 272.857132,41.7007229 C272.77122,41.8922892 272.540917,42.2139759 271.943863,42.2139759 C271.694068,42.2139759 271.359083,42.1626506 270.860937,42.0448193 C270.131044,41.8720482 269.08999,41.6891566 268.347102,41.6891566 C268.217873,41.6891566 268.11319,41.6942169 268.033776,41.7028916 C268.41641,42.6773494 269.569366,44.8539759 270.157756,45.9650602 L270.496351,46.6062651 C270.782966,47.1592771 270.821951,47.6154217 270.611141,47.9616867 L270.408273,48.2985542 L269.881249,48.3650602 L269.881249,48.3650602 Z" id="Shape" sketch:type="MSShapeGroup"></path>
            <path d="M257.926459,56.8604819 C257.382829,56.8604819 257.169132,56.3371084 257.090439,56.1412048 C256.787941,55.3951807 256.088371,54.7409639 255.204702,53.9139759 C254.935415,53.6624096 254.65241,53.3985542 254.358576,53.1122892 C253.601971,52.3698795 253.045346,52.1053012 252.77678,52.1053012 C252.738517,52.1226506 252.888683,52.4783133 252.98759,52.713253 C253.303083,53.4506024 253.729756,54.4590361 253.387551,55.5144578 C253.282146,55.8484337 253.029463,56.6291566 252.339278,56.6291566 C251.591337,56.6291566 251.257795,55.8708434 251.155278,53.9298795 C251.080195,52.4985542 249.624741,49.8636145 248.010459,47.0624096 C246.36802,44.2127711 244.957327,43.5809639 244.944332,43.5759036 L243.844078,43.1016867 L244.784059,42.3708434 C246.913093,40.7385542 248.28841,39.9101205 248.876078,39.9101205 L249.211063,39.9101205 L249.522946,40.206506 C249.61319,40.3163855 249.754693,40.5607229 249.676722,40.9207229 C249.515005,41.6790361 249.426927,43.7537349 250.191473,45.3484337 C250.991395,47.0212048 252.305346,48.0946988 253.81639,49.2209639 C255.0336,50.1303614 256.097756,50.573494 257.074556,50.573494 C257.261541,50.573494 257.447083,50.5583133 257.628293,50.5257831 C257.969776,50.4657831 258.349522,50.439759 258.732156,50.439759 C259.97319,50.439759 261.484956,50.6060241 261.640898,51.3968675 C261.668332,51.5313253 261.744137,51.9 261.474127,52.2339759 C261.173073,52.6012048 260.673483,52.6489157 260.225151,52.6489157 C259.983298,52.6489157 259.672859,52.6322892 259.277229,52.5881928 C259.173268,52.5766265 259.071473,52.573012 258.968956,52.573012 C258.062185,52.573012 257.416761,52.98 257.341678,53.1527711 C258.513405,53.8279518 258.828176,55.7342169 258.653463,56.3016867 L258.501854,56.7990361 L257.926459,56.8604819 L257.926459,56.8604819 Z" id="Shape" sketch:type="MSShapeGroup"></path>
            <path d="M240.2632,19.0293976 C239.856741,19.0293976 239.54919,18.9086747 239.343434,18.6693976 C239.166556,18.4612048 239.092195,18.1879518 239.139122,17.8995181 C239.289288,16.9243373 239.076312,15.8768675 238.226576,13.4190361 C237.644683,11.7462651 236.465737,10.8773494 235.326498,10.0380723 C234.944585,9.75542169 234.575668,9.48216867 234.239961,9.19373494 C233.283376,8.36096386 231.131961,7.84554217 229.689502,7.84554217 C229.415883,7.84554217 229.16681,7.86289157 228.961776,7.9026506 C228.687434,7.95686747 228.388546,7.98072289 228.086049,7.98072289 C227.972702,7.98072289 225.326029,7.96698795 225.242283,6.81759036 C225.232176,6.6939759 225.232176,6.06795181 226.11801,5.93710843 L226.963415,5.81638554 C227.901229,5.68481928 229.07079,5.52144578 229.686615,5.36385542 C230.123395,5.25108434 230.29161,5.09638554 230.318322,5.05228916 C230.311824,5.05156627 230.281502,4.95036145 230.115454,4.76891566 C229.351629,3.9346988 228.711259,1.7060241 228.961776,1.14 L229.145873,0.72 L229.617307,0.706987952 C230.152995,0.706987952 230.332761,1.2 230.425893,1.4653012 C230.721893,2.28650602 231.340605,2.87204819 232.57081,4.03951807 L233.616917,5.04216867 C234.656527,6.04987952 235.161171,6.20096386 235.371259,6.20096386 C235.446341,6.20096386 235.513483,6.18289157 235.600117,6.14963855 C235.535141,5.9573494 235.439122,5.70795181 235.361151,5.50554217 C235.134459,4.93590361 234.881776,4.29036145 234.779259,3.65277108 C234.623317,2.6913253 234.985015,1.74433735 235.387863,1.27156627 C235.67881,0.928915663 235.972644,0.857349398 236.17118,0.857349398 L236.4744,0.857349398 L236.765346,1.11831325 C237.035356,1.40819277 237.04041,1.80650602 237.021639,2.08120482 C236.935727,3.25590361 237.871376,5.79903614 240.049502,10.3221687 C242.343863,15.0918072 244.90318,16.1920482 244.928449,16.2021687 L244.959493,17.4903614 C244.61801,17.6472289 241.571376,19.0293976 240.2632,19.0293976 L240.2632,19.0293976 L240.2632,19.0293976 Z" id="Shape" sketch:type="MSShapeGroup"></path>
            <g id="Group" transform="translate(26.712195, 13.734940)" sketch:type="MSShapeGroup">
                <path d="M20.2225756,28.6937349 C17.8964488,29.6580723 15.4598634,30.140241 12.9120976,30.140241 C8.80852683,30.140241 5.65720976,28.913494 3.45742439,26.4578313 C1.25763902,24.0028916 0.157385366,20.3725301 0.157385366,15.566747 C0.157385366,13.2383133 0.460604878,11.1318072 1.0684878,9.24795181 C1.67564878,7.36481928 2.5427122,5.76578313 3.66823415,4.45301205 C4.7937561,3.14024096 6.1568,2.12819277 7.75736585,1.41614458 C9.35720976,0.704096386 11.1490927,0.348433735 13.1344585,0.348433735 C14.4823415,0.348433735 15.7342049,0.463373494 16.8893268,0.693253012 C18.0451707,0.92313253 19.1562537,1.27518072 20.2225756,1.75012048 L20.2225756,5.64361446 C19.1706927,5.0653012 18.0819902,4.62361446 16.9564683,4.31927711 C15.8302244,4.01566265 14.6014634,3.86313253 13.2680195,3.86313253 C11.9049756,3.86313253 10.6718829,4.11903614 9.56801951,4.63084337 C8.4641561,5.1426506 7.52706341,5.88433735 6.75674146,6.85590361 C5.98641951,7.82746988 5.39369756,9.01373494 4.97929756,10.4154217 C4.56417561,11.8171084 4.35697561,13.4154217 4.35697561,15.2103614 C4.35697561,18.9780723 5.12007805,21.8183133 6.64556098,23.7318072 C8.1710439,25.6453012 10.4076488,26.6016867 13.3560976,26.6016867 C14.6007415,26.6016867 15.7926829,26.4578313 16.9333659,26.1679518 C18.0740488,25.8780723 19.1699707,25.4746988 20.2218537,24.9549398 L20.2218537,28.6937349 L20.2225756,28.6937349 Z" id="Shape"></path>
                <path d="M46.931161,15.0556627 C46.931161,17.6660241 46.6236098,19.9207229 46.0092293,21.8190361 C45.3941268,23.7173494 44.5653268,25.2860241 43.5206634,26.5243373 C42.476722,27.7633735 41.2544585,28.6828916 39.8545951,29.2828916 C38.4547317,29.8843373 36.9768976,30.1843373 35.4218146,30.1843373 C33.5555707,30.1843373 31.9290146,29.8460241 30.5443122,29.1722892 C29.1588878,28.4971084 28.0109854,27.5226506 27.0998829,26.2460241 C26.1887805,24.9708434 25.5115902,23.4173494 25.0668683,21.5848193 C24.6221463,19.753012 24.4005073,17.6877108 24.4005073,15.3881928 C24.4005073,12.8074699 24.7037268,10.5679518 25.3116098,8.66891566 C25.9187707,6.77060241 26.7446829,5.20192771 27.7893463,3.96361446 C28.8332878,2.7253012 30.0519415,1.80506024 31.4445854,1.20433735 C32.8365073,0.603614458 34.3107317,0.303614458 35.8665366,0.303614458 C37.7327805,0.303614458 39.3586146,0.644819277 40.744039,1.32722892 C42.1287415,2.00963855 43.2809756,2.98481928 44.1992976,4.25277108 C45.1176195,5.52072289 45.8027512,7.06771084 46.2546927,8.89156627 C46.7051902,10.7168675 46.931161,12.7713253 46.931161,15.0556627 L46.931161,15.0556627 Z M42.8203707,15.3448193 C42.8203707,13.6395181 42.6904195,12.0780723 42.431239,10.6612048 C42.1720585,9.24506024 41.7533268,8.02481928 41.1757659,7.00120482 C40.5982049,5.97759036 39.8538732,5.18457831 38.9427707,4.62072289 C38.0316683,4.05759036 36.9321366,3.77566265 35.6434537,3.77566265 C34.3988098,3.77566265 33.328878,4.07638554 32.4329366,4.67710843 C31.5362732,5.27783133 30.7998829,6.09325301 30.222322,7.12409639 C29.644761,8.15566265 29.214478,9.36433735 28.933639,10.7508434 C28.652078,12.1380723 28.5112976,13.6098795 28.5112976,15.166988 C28.5112976,16.8874699 28.6448585,18.4561446 28.9112585,19.873012 C29.1776585,21.2891566 29.5963902,22.5057831 30.1667317,23.5221687 C30.7370732,24.5378313 31.4741854,25.3279518 32.3773463,25.8910843 C33.2805073,26.4549398 34.3692098,26.7368675 35.6434537,26.7368675 C36.8880976,26.7368675 37.961639,26.4361446 38.865522,25.8361446 C39.7686829,25.2346988 40.5130146,24.4192771 41.0985171,23.3877108 C41.6832976,22.3575904 42.1164683,21.1518072 42.3980293,19.7725301 C42.6795902,18.3925301 42.8203707,16.9171084 42.8203707,15.3448193 L42.8203707,15.3448193 Z" id="Shape"></path>
                <path d="M71.5511415,14.9219277 C71.5511415,16.3163855 71.4435707,17.6508434 71.2291512,18.926747 C71.0147317,20.2026506 70.670361,21.3889157 70.196039,22.4862651 C69.7217171,23.5843373 69.1073366,24.5812048 68.3514537,25.4790361 C67.5962927,26.3761446 66.6700293,27.1445783 65.5741073,27.7821687 C64.4781854,28.419759 63.2039415,28.913494 61.7528195,29.2619277 C60.3009756,29.6103614 58.6491512,29.7853012 56.7973463,29.7853012 L50.5755707,29.7853012 L50.5755707,0.704819277 L58.0636488,0.704819277 C62.5967805,0.704819277 65.977678,1.87301205 68.2070634,4.20939759 C70.4364488,6.54506024 71.5511415,10.1161446 71.5511415,14.9219277 L71.5511415,14.9219277 Z M67.3963122,15.2110843 C67.3963122,13.1493976 67.2035512,11.406506 66.8187512,9.98240964 C66.4332293,8.55831325 65.8484488,7.40891566 65.0629659,6.53349398 C64.2782049,5.65879518 63.2927415,5.02481928 62.1080195,4.63156627 C60.9225756,4.23903614 59.5306537,4.04168675 57.9308098,4.04168675 L54.5311415,4.04168675 L54.5311415,26.3580723 L57.4860878,26.3580723 C64.0926634,26.3580723 67.3963122,22.6424096 67.3963122,15.2110843 L67.3963122,15.2110843 Z" id="Shape"></path>
                <path d="M94.1496585,29.7845783 L77.640078,29.7845783 L77.640078,0.704819277 L94.1496585,0.704819277 L94.1496585,4.04240964 L81.5949268,4.04240964 L81.5949268,13.053253 L93.6601756,13.053253 L93.6601756,16.3908434 L81.5949268,16.3908434 L81.5949268,26.4028916 L94.1496585,26.4028916 L94.1496585,29.7845783 L94.1496585,29.7845783 Z" id="Shape"></path>
            </g>
            <path d="M17.5102049,43.8498795 L15.0880585,47.3306024 L0.156663415,29.5771084 L15.0887805,11.8236145 L17.5109268,15.3361446 L5.40019512,29.5142169 L17.5102049,43.8498795 L17.5102049,43.8498795 Z" id="Shape" sketch:type="MSShapeGroup"></path>
            <path d="M278.32158,15.3361446 L280.721346,11.8236145 L295.653463,29.5771084 L280.721346,47.3313253 L278.32158,43.8506024 L290.43159,29.6414458 L278.32158,15.3361446 L278.32158,15.3361446 Z" id="Shape" sketch:type="MSShapeGroup"></path>
            <g id="Group" transform="translate(129.951220, 13.734940)" sketch:type="MSShapeGroup">
                <path d="M15.0526829,29.7845783 L10.7419122,12.4301205 L9.87557073,8.69204819 L7.45342439,20.7513253 L5.67598049,29.7853012 L0.721229268,29.7853012 L6.5430439,0.704819277 L12.9648,0.704819277 L17.3867512,18.1706024 L18.0978732,21.5746988 L20.6535805,8.73686747 L22.2974634,0.704819277 L27.2969756,0.704819277 L21.475161,29.7853012 L15.0526829,29.7853012 L15.0526829,29.7845783 Z" id="Shape"></path>
                <path d="M27.6074146,29.7845783 L33.4285073,0.704096386 L50.8932293,0.704096386 L49.9380878,5.33204819 L38.0280585,5.33204819 L36.5617756,12.5631325 L47.9382829,12.5631325 L47.0726634,17.079759 L35.6954341,17.079759 L34.0732098,25.1566265 L45.983239,25.1566265 L45.0721366,29.7845783 L27.6074146,29.7845783 L27.6074146,29.7845783 Z" id="Shape"></path>
                <path d="M73.6693463,19.5274699 C73.2997073,21.3816867 72.7582439,22.9872289 72.0478439,24.3448193 C71.3374439,25.7016867 70.4552195,26.8221687 69.4040585,27.7033735 C68.3521756,28.586747 67.1299122,29.2395181 65.7379902,29.6616867 C64.3446244,30.0845783 62.796761,30.2956627 61.0929561,30.2956627 C59.5227122,30.2956627 58.163278,30.1178313 57.0160976,29.7621687 C55.8674732,29.406506 54.9267707,28.8946988 54.1939902,28.2274699 C53.4604878,27.5595181 52.9349073,26.7585542 52.6158049,25.8245783 C52.2974244,24.8898795 52.1385951,23.8438554 52.1385951,22.6872289 C52.1385951,21.7084337 52.2649366,20.6551807 52.5161756,19.5274699 L56.2710439,0.704096386 L61.7369366,0.704096386 L57.9596878,19.6604819 C57.7820878,20.58 57.6932878,21.3889157 57.6932878,22.0850602 C57.6932878,22.693012 57.7676488,23.2279518 57.9163707,23.686988 C58.0636488,24.1474699 58.2932293,24.5327711 58.6043902,24.8443373 C58.9162732,25.1559036 59.3378927,25.3893976 59.8714146,25.5455422 C60.4042146,25.7009639 61.0409756,25.7783133 61.7824195,25.7783133 C62.6704195,25.7783133 63.4667317,25.6640964 64.1713561,25.433494 C64.8745366,25.2036145 65.4889171,24.8327711 66.0152195,24.3209639 C66.541522,23.8098795 66.9819122,23.1571084 67.3371122,22.3633735 C67.6923122,21.5703614 67.9818146,20.6024096 68.2041756,19.4595181 L71.9814244,0.703373494 L77.4696976,0.703373494 L73.6693463,19.5274699 L73.6693463,19.5274699 Z" id="Shape"></path>
                <path d="M91.2019317,29.7845783 L89.4237659,22.5310843 C89.2014049,21.5674699 88.9537756,20.773012 88.6794341,20.1506024 C88.4050927,19.5281928 88.0939317,19.0380723 87.7466732,18.6824096 C87.3986927,18.326747 87.009561,18.0816867 86.58,17.9479518 C86.1497171,17.8142169 85.661678,17.7477108 85.1137171,17.7477108 L84.2690341,17.7477108 L81.8916488,29.7845783 L76.4257561,29.7845783 L82.2468488,0.704096386 L90.5796098,0.704096386 C91.9570927,0.704096386 93.2089561,0.819036145 94.334478,1.04891566 C95.460722,1.27879518 96.4238049,1.6460241 97.2237268,2.14987952 C98.0229268,2.65445783 98.6380293,3.30722892 99.0683122,4.10746988 C99.4978732,4.90843373 99.7130146,5.88722892 99.7130146,7.04457831 C99.7130146,8.21638554 99.5346927,9.31373494 99.1794927,10.3373494 C98.8242927,11.3609639 98.3052098,12.2768675 97.6244098,13.0850602 C96.9428878,13.8939759 96.1169756,14.5684337 95.1466732,15.1098795 C94.1756488,15.6520482 93.0761171,16.033012 91.8473561,16.2556627 C92.2177171,16.4638554 92.5577561,16.7262651 92.8689171,17.0450602 C93.1808,17.3638554 93.4724683,17.7722892 93.7468098,18.2689157 C94.0211512,18.7662651 94.2875512,19.366988 94.5467317,20.0710843 C94.8051902,20.7759036 95.075922,21.6101205 95.3574829,22.5737349 L97.3580098,29.7831325 L91.2019317,29.7831325 L91.2019317,29.7845783 Z M87.068039,13.4754217 C88.119922,13.4754217 89.0714537,13.3604819 89.9233561,13.1306024 C90.7752585,12.9007229 91.4979317,12.5631325 92.0899317,12.1185542 C92.6819317,11.6739759 93.1374829,11.1253012 93.4573073,10.4725301 C93.7749659,9.81975904 93.9345171,9.07084337 93.9345171,8.22578313 C93.9345171,7.20216867 93.5749854,6.45325301 92.8573659,5.97831325 C92.1383024,5.50409639 90.9940098,5.26626506 89.4237659,5.26626506 L86.7799805,5.26626506 L85.1360976,13.4761446 L87.068039,13.4761446 L87.068039,13.4754217 Z" id="Shape"></path>
                <path d="M111.1776,30.2956627 C108.141073,30.2956627 105.811337,29.4585542 104.189112,27.7814458 C102.56761,26.1057831 101.756137,23.6725301 101.756137,20.4838554 C101.756137,19.0004819 101.881756,17.473012 102.133717,15.9007229 C102.385678,14.3284337 102.770478,12.7893976 103.289561,11.2843373 C103.807922,9.77855422 104.467063,8.35518072 105.266985,7.01204819 C106.066185,5.67036145 107.022771,4.49783133 108.133132,3.49662651 C109.244215,2.49542169 110.514849,1.69807229 111.944312,1.10457831 C113.373054,0.511807229 114.969288,0.214698795 116.732293,0.214698795 C119.76882,0.214698795 122.099278,1.04891566 123.72078,2.71807229 C125.343005,4.38650602 126.154478,6.81542169 126.154478,10.0048193 C126.154478,11.4881928 126.028137,13.0192771 125.776898,14.5995181 C125.524215,16.1790361 125.139415,17.7216867 124.621054,19.2274699 C124.101971,20.733253 123.443551,22.153012 122.643629,23.4881928 C121.843707,24.8240964 120.887844,25.9959036 119.776761,27.0036145 C118.665678,28.0127711 117.395766,28.8137349 115.966302,29.406506 C114.536839,29.9992771 112.939883,30.2956627 111.1776,30.2956627 L111.1776,30.2956627 Z M111.955141,25.3785542 C112.888624,25.3785542 113.744137,25.1710843 114.5224,24.7554217 C115.299941,24.3404819 116.003122,23.7766265 116.633385,23.0653012 C117.262205,22.353253 117.814498,21.5183133 118.28882,20.5619277 C118.76242,19.6048193 119.158771,18.5739759 119.477151,17.4693976 C119.79481,16.3648193 120.033054,15.2146988 120.187551,14.0204819 C120.343493,12.826988 120.420741,11.6436145 120.420741,10.4718072 C120.420741,8.63277108 120.069151,7.28240964 119.365249,6.42216867 C118.661346,5.56192771 117.524273,5.13180723 115.954029,5.13180723 C115.021268,5.13180723 114.165034,5.33566265 113.387493,5.74337349 C112.609951,6.15180723 111.906049,6.7113253 111.276507,7.42337349 C110.646966,8.13542169 110.094673,8.9739759 109.621073,9.93759036 C109.146751,10.9019277 108.751122,11.9327711 108.432741,13.0301205 C108.114361,14.1274699 107.876839,15.2768675 107.72162,16.4790361 C107.5664,17.6804819 107.489151,18.8674699 107.489151,20.0385542 C107.489151,21.8775904 107.83641,23.2279518 108.533093,24.0881928 C109.229054,24.9491566 110.369737,25.3785542 111.955141,25.3785542 L111.955141,25.3785542 Z" id="Shape"></path>
            </g>
        </g>
    </g>
</svg>