<?xml version="1.0" encoding="UTF-8" standalone="no"?>
<svg width="207px" height="46px" viewBox="0 0 207 46" version="1.1" xmlns="http://www.w3.org/2000/svg" xmlns:xlink="http://www.w3.org/1999/xlink" xmlns:sketch="http://www.bohemiancoding.com/sketch/ns">
    <!-- Generator: Sketch 3.3.3 (12072) - http://www.bohemiancoding.com/sketch -->
    <title>Imported Layers</title>
    <desc>Created with Sketch.</desc>
    <defs></defs>
    <g id="Page-1" stroke="none" stroke-width="1" fill="none" fill-rule="evenodd" sketch:type="MSPage">
        <g id="Home---Desktop-Copy-2" sketch:type="MSArtboardGroup" transform="translate(-949.000000, -2131.000000)" fill="#B1B1B1">
            <g id="Group-+-Currently-in-use-at" sketch:type="MSLayerGroup" transform="translate(110.000000, 1814.000000)">
                <g id="Group" sketch:type="MSShapeGroup">
                    <g id="Row-3-+-Row-1-+-Row-2">
                        <g transform="translate(0.000000, 93.000000)">
                            <g id="Row-3" transform="translate(45.079694, 224.405882)">
                                <g id="Imported-Layers" transform="translate(794.000000, 0.000000)">
                                    <g id="Fill-1-+-Fill-2">
                                        <path d="M6.61743396,38.3064692 C6.58749057,34.5681088 4.85533019,31.4931331 3.15029245,28.4071997 C2.04043396,26.3984172 0.996971698,24.3593912 0.56409434,22.0692127 C-0.106811321,18.5193263 0.840311321,15.2315503 3.8984434,13.5740747 C5.62691509,12.6374026 7.48861321,12.6623864 9.3609434,12.8563393 C12.7026698,13.2023864 15.7794623,14.5484416 18.9645283,15.4859903 C19.5610094,15.6617532 20.1594434,15.8324756 20.762,15.9850081 C22.4329717,16.4081981 22.5156415,16.3713799 23.4651509,14.9950812 C22.9986415,14.1403734 22.4121415,13.3886688 22.1602264,12.5363718 C21.6648585,10.8607062 22.3904434,9.13375812 23.8270755,8.08422078 C24.5018868,7.59133929 24.8371226,6.02349838 24.361934,5.3737013 C24.2523585,5.22357955 23.9433774,5.16594156 23.7244434,5.16243506 C21.8974623,5.13241071 21.9287075,5.13920455 21.9302264,3.35374188 C21.9308774,2.68794643 22.1786698,2.51766234 22.7833962,2.50933442 C24.3667075,2.48785714 24.3647547,2.46703734 24.4059811,0.879472403 C24.4114057,0.665357143 24.4443868,0.451899351 24.4725943,0.152970779 L26.5397736,0.152970779 C26.5397736,0.640154221 26.5679811,1.09249188 26.5336981,1.54000812 C26.4690377,2.37871753 26.6432736,2.60335227 27.4643302,2.55338474 C29.455783,2.43175325 29.0315849,2.67194805 29.0580566,4.0912013 C29.0786698,5.18588474 29.0229057,5.22467532 27.9811792,5.17448864 C26.4488585,5.10085227 26.4701226,5.10107143 26.4518962,6.65094156 C26.4440849,7.30446429 26.6068208,7.73992695 27.1889811,8.14361201 C29.0925566,9.46314935 29.9027642,12.5438231 27.4597736,14.8011282 C28.1463019,16.190138 28.5550943,16.4472078 29.9928113,16.0325649 C32.5905094,15.2834903 35.1593491,14.432289 37.7488019,13.6527516 C39.9943396,12.9766558 42.2960755,12.524099 44.6351321,12.8269724 C48.4615943,13.3229221 50.7142925,16.2355032 50.6036321,20.2309334 C50.5365849,22.6552354 49.6946981,24.8167695 48.6225943,26.9200081 C48.201434,27.7462256 47.7503302,28.5573214 47.3033491,29.3699513 C45.7731981,32.1534497 44.3884245,34.9864773 44.3532736,38.3064692 L6.61743396,38.3064692 L6.61743396,38.3064692 Z M19.0443774,31.5273214 C18.8597264,31.6204627 18.7883396,31.6879627 18.7180377,31.6868669 C18.2337358,31.6787581 17.749434,31.6579383 17.2653491,31.6386526 C16.2811226,31.5994237 16.0059906,31.8832305 16.4136981,32.7848377 C16.7402547,33.5071753 17.2180472,34.2363068 17.8121415,34.7432143 C19.3307925,36.0390828 20.9097642,35.7554951 22.0348113,34.0896916 C23.0611321,32.5700649 23.5467358,30.8698539 23.3894245,29.041875 C23.1989151,26.8316883 22.7408679,24.6769481 21.8440849,22.626526 C21.4858491,21.8071023 21.0564434,20.929164 21.0408208,20.0707305 C21.0228113,19.0746672 20.5296132,18.6832549 19.7975189,18.4198295 C17.1789906,17.4776786 14.5569906,16.5425406 11.9163302,15.6656981 C10.3364906,15.1412581 8.70587736,14.9580438 7.03208491,15.173474 C4.92216038,15.4452273 3.20779245,16.8706169 3.0669717,18.7816558 C2.9784434,19.9848214 2.99883962,21.2710471 3.32561321,22.4165747 C4.37992453,26.1124188 6.38287736,29.3423377 8.63210377,32.4013149 C9.34662264,33.3732711 10.2655377,34.2301705 11.2178679,34.9742045 C12.1289717,35.6862419 13.3772642,35.6719968 13.9455377,35.1254221 C14.7453302,34.3564042 14.4547925,33.4199513 14.253217,32.5124269 C14.23,32.4076705 14.1978868,32.2713555 14.1223774,32.2174432 C13.8203396,32.0009172 13.5204717,31.7008929 13.1811132,31.6351461 C12.5230094,31.5075974 11.8347453,31.5474838 11.1679623,31.4530276 C10.9494623,31.4221266 10.6378774,31.2290503 10.5788585,31.0425487 C10.4037547,30.488961 10.3334528,29.9016234 10.1945849,29.1860795 C11.0985283,29.2566477 11.8432075,29.3370779 12.5898396,29.3668831 C13.4464811,29.4012906 13.5304528,29.2687013 13.2692075,28.4212256 C13.148783,28.0309091 12.9838774,27.6513312 12.9009906,27.2537825 C12.8649717,27.0810877 12.9810566,26.7107143 13.0346509,26.7093994 C13.6478396,26.6942776 14.2718774,26.6804708 14.8705283,26.7911445 C15.0425943,26.8229221 15.1916604,27.2408523 15.2669528,27.50625 C15.8113585,29.4223295 15.805066,29.4113718 17.7863208,29.4920211 C18.0677453,29.5036364 18.4993208,29.6417045 18.588283,29.8439854 C18.8224057,30.3752192 18.9057264,30.9743912 19.0443774,31.5273214 L19.0443774,31.5273214 Z M40.6290094,29.203612 C40.6290094,29.5525081 40.6431132,29.7931412 40.6266226,30.0318019 C40.5391792,31.2921672 40.3898962,31.4600406 39.1450755,31.5860552 C38.6885472,31.6325162 38.2168302,31.55625 37.7665943,31.6285714 C37.4810472,31.674375 37.0310283,31.8450974 36.9852453,32.0392695 C36.7960377,32.8420373 36.6194151,33.6809659 36.6608585,34.495349 C36.6912358,35.0940828 37.2250094,35.424789 37.8887547,35.4662094 C39.1405189,35.5440097 40.0767925,34.9422078 40.8995849,34.104375 C43.2019717,31.7598458 44.727783,28.8904383 46.2401415,26.0098539 C47.3322075,23.9298458 48.1743113,21.7948295 47.9998585,19.3762256 C47.8705377,17.5828734 47.1048113,16.1680032 45.3672264,15.6124432 C44.2851415,15.2663961 43.0739528,15.0535958 41.9571509,15.1622971 C40.3597358,15.3174594 38.7571132,15.7020779 37.2260943,16.2043831 C34.9944434,16.9368019 32.8183396,17.8452029 30.6368113,18.724237 C30.3812075,18.8270211 30.1529434,19.1914773 30.0620283,19.4825162 C29.8200943,20.2574513 29.766066,21.1053653 29.4468868,21.8399756 C28.5375189,23.9340097 27.9139151,26.0962013 27.6526698,28.3631494 C27.4059623,30.5047403 27.788934,32.5027841 29.0825755,34.2654545 C29.9257642,35.4142695 30.9253962,35.7717127 32.1164057,35.3776705 C33.3406132,34.9728896 34.6205849,33.4135958 34.6711415,32.3289935 C34.6950094,31.8177029 34.4797642,31.6189286 34.0167264,31.6366802 C33.5571604,31.6544318 33.0969434,31.6835795 32.6397642,31.7326705 C32.1758585,31.782638 32.0079151,31.6053409 32.0374245,31.1288961 C32.1233491,29.7427354 32.4640094,29.4188231 33.8375,29.4889529 C34.0269245,29.4985958 34.2163491,29.5110877 34.4057736,29.5194156 C34.9707925,29.5443994 35.3164434,29.3074919 35.4238491,28.7162094 C35.516283,28.2073295 35.6354057,27.7002029 35.7881604,27.2068831 C35.9391792,26.7196997 37.7893774,26.3631331 38.0681981,26.7681331 C38.1515189,26.888888 38.1165849,27.1284253 38.0723208,27.2965179 C37.9679528,27.6912175 37.8206226,28.0738636 37.6993302,28.4641802 C37.4478491,29.2737419 37.5194528,29.3923052 38.3507075,29.3660065 C39.0956038,29.3425568 39.8385472,29.2623458 40.6290094,29.203612 L40.6290094,29.203612 Z" id="Fill-1"></path>
                                        <path d="M6.06413208,44.3821266 L6.06413208,40.9470779 L44.9536604,40.9470779 L44.9536604,44.3821266 L6.06413208,44.3821266" id="Fill-2"></path>
                                    </g>
                                    <g id="Group-+-Group" transform="translate(59.000000, 0.000000)">
                                        <g id="Group" transform="translate(0.000000, 22.500000)">
                                            <path d="M0.149861635,2.41014031 L4.01880503,2.41014031 C3.75026415,2.82481447 3.32534591,3.17468112 3.3351195,3.51186804 C3.46962264,8.31936456 3.39283019,13.157856 3.96388679,17.9165121 C4.22405031,20.0838068 6.89410063,21.2681876 9.11968553,21.0084879 C11.4779119,20.7337604 13.508956,19.6047948 13.7397987,17.1228548 C14.1428428,12.7868564 14.136327,8.40906192 14.1986918,4.04723446 C14.2061384,3.51656424 13.5773711,2.97650162 13.2362264,2.42892509 L16.4768679,2.42892509 C16.2855849,3.35548469 15.9616604,4.25527597 15.9374591,5.16352041 C15.8597358,8.05543831 16.0058742,10.956279 15.8611321,13.8435007 C15.5567547,19.9231969 11.5928679,23.0466373 6.12431447,21.6481099 C3.0023522,20.8497565 1.3268805,18.8487071 1.1048805,15.1720547 C0.907081761,11.8973968 1.0411195,8.60395408 0.909874214,5.32319109 C0.871710692,4.36516698 0.426314465,3.42310993 0.149861635,2.41014031" id="Fill-3"></path>
                                            <path d="M22.3470692,21.5039367 L20.3383648,21.5039367 L20.3383648,5.12125464 C25.009673,9.6216199 29.3542642,13.80734 34.1866038,18.4626797 C33.5452704,13.7566211 34.5030818,9.47087199 33.0631069,5.32178224 L35.328717,5.32178224 L35.328717,21.9481969 C30.5913208,17.2181876 26.3989182,13.0319979 22.2060503,8.84533859 C21.8690943,13.187442 21.6322013,17.3773887 22.3470692,21.5039367" id="Fill-4"></path>
                                            <path d="M88.4109182,14.2741419 C90.7891572,16.874426 93.015673,19.3089344 95.0783648,21.5635784 C93.3079497,21.8909033 91.6124654,21.0789309 90.3181635,19.242718 C89.690327,18.3523191 88.8884277,17.5774467 88.3262138,16.6504174 C87.268805,14.9071892 85.8897987,14.1140016 83.4403522,14.9203386 C83.5836981,16.9885436 83.7377484,19.2103142 83.8941258,21.4663671 L81.1119119,21.4663671 C82.2461132,18.3941153 81.9515094,6.86166512 80.5115346,5.20202922 C82.5072075,5.20202922 84.3171824,5.17573052 86.125761,5.20907352 C88.0632579,5.24523423 89.9472327,5.63173122 90.8096352,7.61258697 C91.683673,9.6192718 90.9641509,11.4235506 89.5553585,12.9794005 C89.2495849,13.3170571 88.9512579,13.6622275 88.4109182,14.2741419 L88.4109182,14.2741419 Z M83.5185409,6.35306702 C83.5185409,8.44710111 83.4757233,10.4542556 83.5534465,12.4562442 C83.5697358,12.8756146 83.9355472,13.4790758 84.3018239,13.6547136 C86.651673,14.7818008 88.8800503,13.4804847 89.182566,10.8816095 C89.5642013,7.59943762 87.3670063,5.03531424 83.5185409,6.35306702 L83.5185409,6.35306702 Z" id="Fill-5"></path>
                                            <path d="M56.6058113,18.387071 C58.2231069,14.1201067 59.8404025,9.85361201 61.4581635,5.58711735 C61.2589686,5.48614912 61.060239,5.38518089 60.861044,5.28421266 L63.3076981,5.28421266 C60.9154969,10.6853084 58.4688428,16.2080357 55.7778491,22.2835053 C53.1985535,16.1695269 50.8677862,10.6453908 48.607761,5.28843924 L51.1963648,5.28843924 C52.8699748,9.77142857 54.464,14.0416802 56.0584906,18.3119318 C56.2409308,18.3368217 56.4233711,18.3621811 56.6058113,18.387071" id="Fill-6"></path>
                                            <path d="M76.3558994,20.2561572 C76.0631572,21.593634 76.0631572,21.593634 68.557044,21.4804557 C68.557044,18.712987 68.5970692,15.9591373 68.5454088,13.207166 C68.4960755,10.5688428 68.3508679,7.93192834 68.2470818,5.27341141 L75.9747296,5.27341141 L75.9747296,6.64517045 C74.2480629,6.40096823 72.5563019,6.1614622 70.6346289,5.88955241 L70.6346289,12.3139494 L75.5093208,12.3139494 L75.5093208,13.8064007 C73.9650943,13.6044643 72.392478,13.3992405 70.4596352,13.1465851 C70.4596352,15.3350128 70.4289182,17.1801484 70.4689434,19.0234056 C70.501522,20.5121 71.5286792,20.8042034 72.7271069,20.704644 C73.9557862,20.6027365 75.1770189,20.4059659 76.3558994,20.2561572" id="Fill-7"></path>
                                            <path d="M143.086214,21.501119 L139.476503,21.501119 C142.021824,14.5141176 137.272792,10.1936167 133.937673,5.30440631 L136.468101,5.30440631 C138.055145,7.98969156 139.592855,10.5913845 141.382352,13.6190225 C142.989874,10.7069109 144.39122,8.16767741 145.982918,5.28421266 L147.779862,5.28421266 C146.17327,7.73374884 144.442881,10.2560761 142.837686,12.8572994 C141.524767,14.9851461 141.711862,19.7663439 143.086214,21.501119" id="Fill-8"></path>
                                            <path d="M106.074579,5.35089865 C106.01966,6.08632305 105.979635,6.62168947 105.940075,7.14672426 C105.754843,7.16550904 105.618478,7.22233302 105.521673,7.18241535 C104.378629,6.71044759 103.249547,5.88062964 102.100918,5.85527018 C101.260855,5.83648539 100.017748,6.696359 99.6631069,7.48813776 C99.3652453,8.15217996 99.8432201,9.51125928 100.422189,10.1569863 C101.389774,11.2366419 102.721774,11.9795802 103.882503,12.8878247 C106.529748,14.9597866 107.298138,17.6046846 105.896327,19.7555427 C104.650428,21.6668947 100.410088,22.6836213 98.2915472,21.3499014 C97.6744151,20.9610564 97.5659748,19.7508465 97.4463648,18.7726287 C98.6643396,20.5271278 100.245333,21.4170571 102.214943,20.9295918 C103.147623,20.6990086 104.380956,19.9166222 104.625761,19.1177992 C104.904075,18.210494 104.515925,16.7814413 103.901119,15.9840271 C103.023824,14.8451994 101.674138,14.0787801 100.532956,13.1447066 C98.0742013,11.1319167 97.3425786,9.29382537 98.2161509,7.34959995 C99.0534214,5.48755798 101.18034,4.62486665 104.029572,5.00478896 C104.637862,5.08603316 105.240566,5.20813428 106.074579,5.35089865" id="Fill-9"></path>
                                            <path d="M131.319283,5.24382537 L131.319283,6.85931702 C129.502327,6.55171614 127.671409,6.24129754 125.347623,5.84775626 C125.696679,11.3470026 124.732352,16.454586 126.019208,21.5105114 L123.15834,21.5105114 L123.15834,6.05861549 C121.339057,6.25209879 119.411333,6.45685297 117.509673,6.65878942 C117.550629,6.48174281 117.685597,5.89753595 117.836855,5.24382537 L131.319283,5.24382537" id="Fill-10"></path>
                                            <path d="M40.8824403,21.4799861 L40.8824403,5.33070501 L43.5403899,5.33070501 C43.3039623,10.7224084 43.142,16.105189 43.6707044,21.4799861 L40.8824403,21.4799861" id="Fill-11"></path>
                                            <path d="M114.264843,21.5015886 L110.952528,21.5015886 L110.952528,5.29501391 L114.024226,5.29501391 C112.762503,7.37589865 112.931447,19.6564529 114.264843,21.5015886" id="Fill-12"></path>
                                        </g>
                                        <g id="Group">
                                            <path d="M88.9270161,4.15999536 C89.468752,8.64721127 89.9611545,13.1414715 90.5908526,17.6164773 C90.726752,18.5829545 91.3569155,19.4789889 91.7557709,20.3985042 C91.0297331,20.3656308 89.9718589,20.31726 88.8148526,20.2641929 C88.4299595,16.4198864 88.0599595,12.7221011 87.6894941,9.02384624 C87.5279973,8.98251971 87.3669658,8.94072356 87.205469,8.89939703 C85.3615193,12.6633987 83.518035,16.4269307 81.3841356,20.7826531 C79.2190539,16.5480925 77.3141356,12.8225997 75.4092174,9.09710691 C75.2514438,9.13373724 75.0932048,9.17036758 74.9349658,9.20699791 C74.6878337,12.8658047 74.4407017,16.5246115 74.1856576,20.2961271 L72.4841231,20.2961271 C73.1566388,14.9678224 73.8389281,9.56390886 74.520752,4.15999536 C74.6827142,4.10082328 74.8442111,4.04165121 75.0061734,3.98294875 C77.2196576,8.36074327 79.4331419,12.7390074 81.8583872,17.5361723 C84.1319092,12.8564123 86.2523117,8.49317602 88.3722488,4.1299397 C88.5570161,4.13980172 88.7422488,4.15013335 88.9270161,4.15999536" id="Fill-13"></path>
                                            <path d="M21.8471797,12.2022321 C21.8746388,7.40647611 25.6048903,3.7979186 30.5666136,3.7669237 C35.808513,3.73498956 39.4145004,7.08009045 39.383318,11.9462894 C39.3512048,16.9900046 35.512513,20.7305253 30.4060476,20.6929557 C25.3400727,20.6563254 21.8187897,17.1628247 21.8471797,12.2022321 L21.8471797,12.2022321 Z M37.1568023,12.4722635 C37.1460979,7.757282 34.4532425,4.56621637 30.4646891,4.54179615 C26.461708,4.51690631 24.0066765,7.26793831 24.0429784,11.7377783 C24.0816073,16.5297774 27.0928023,19.973968 31.1609407,19.8795744 C34.8655947,19.793634 37.1670413,16.9505566 37.1568023,12.4722635 L37.1568023,12.4722635 Z" id="Fill-14"></path>
                                            <path d="M96.9697457,20.2209879 C97.4225885,14.925087 97.4635444,9.58222403 97.0032551,4.04118159 C97.7758337,4.04118159 99.1292425,4.0463474 100.482651,4.03977273 C102.417356,4.03038033 104.56801,4.22245478 105.133016,6.29019017 C105.510928,7.67462894 104.696463,9.39108882 104.415821,10.9586793 C104.156123,10.9807514 103.896425,11.0023539 103.636727,11.024426 C104.107255,11.3545686 104.577318,11.6847113 105.047381,12.0153235 C106.648853,13.1428803 107.471695,14.6226519 107.067721,16.6373203 C106.669331,18.6233418 105.41645,19.9514263 103.498966,20.164164 C101.291997,20.4088358 99.037557,20.2209879 96.9697457,20.2209879 L96.9697457,20.2209879 Z M99.1301734,12.0852968 C99.1301734,13.5768089 99.1283117,15.1096475 99.1311042,16.6424861 C99.132035,17.1078792 99.0263872,17.6197646 99.18323,18.0264552 C99.3861482,18.5524293 99.7924501,19.3935181 100.129406,19.4024409 C101.454425,19.4371927 103.15596,19.6471127 104.009054,18.931882 C104.818865,18.2532815 105.172576,16.4236433 104.968727,15.2326878 C104.511695,12.5647785 102.43923,11.5565051 99.1301734,12.0852968 L99.1301734,12.0852968 Z M99.2246514,11.6457328 C100.892211,10.9319109 102.617947,10.7262175 103.186211,9.79871869 C103.745632,8.88483882 103.550161,6.95423237 102.909758,5.99996521 C102.329393,5.13539541 100.703255,4.98511712 99.2246514,4.39480519 L99.2246514,11.6457328 L99.2246514,11.6457328 Z" id="Fill-15"></path>
                                            <path d="M19.0724124,1.1520814 C18.8774061,3.0361955 18.7754815,4.02427528 18.6516828,5.22086619 C16.9543369,2.15659787 13.3632425,0.994289193 9.44356959,2.05516002 C5.91716708,3.0098968 4.11184632,5.74026554 4.12580859,10.0955183 C4.14070167,14.4972635 6.93594695,18.3199675 10.9231042,19.3907004 C14.687796,20.4022611 17.1460853,19.5048179 18.8117834,16.5109926 C18.7582614,20.1186109 18.5772174,20.3219562 15.0508149,20.7211329 C8.09481488,21.5091547 3.10702871,18.3063486 2.044035,12.3680079 C1.12019852,7.20876623 4.20958217,2.06455241 9.24018594,1.24600533 C12.3509784,0.739285714 15.6083746,1.1520814 19.0724124,1.1520814" id="Fill-16"></path>
                                            <path d="M54.2708149,4.11209416 L57.3238966,4.11209416 C57.3238966,8.38657236 57.0837457,12.6267683 57.4286136,16.8176542 C57.5929029,18.8163555 59.5429658,19.8297948 61.5996073,19.8621985 C63.6208778,19.893663 65.6872929,19.0976577 65.9432677,17.0726577 C66.4389281,13.1550904 66.3402614,9.15862709 66.4123998,5.19315863 C66.4184501,4.86113752 65.8557709,4.51831517 65.5160224,4.13369666 L68.5300098,4.13369666 C68.3713054,5.29083952 68.1297583,6.4080647 68.0818212,7.53374304 C67.9715193,10.1091373 68.1213809,12.7056644 67.8612174,15.2618043 C67.4968023,18.8468808 64.9784753,20.7873493 61.2277457,20.6948342 C57.5268149,20.6032583 55.2537583,18.7092822 54.966601,15.1317196 C54.7483243,12.4116825 54.9181985,9.66205937 54.8227897,6.92887291 C54.7906765,6.00794875 54.4728023,5.09782583 54.2708149,4.11209416" id="Fill-17"></path>
                                            <path d="M121.634551,20.3402713 L119.298664,20.3402713 C121.408362,15.0091489 123.599041,9.4742115 126.001947,3.40296846 C128.5724,9.4742115 130.908752,14.9913033 133.179016,20.3534207 L130.848714,20.3534207 C130.353519,19.0924919 129.740576,17.8451821 129.377557,16.5278989 C128.904702,14.8109694 127.958526,14.2615144 126.192765,14.3310181 C122.667758,14.4695559 121.136098,16.2841663 121.634551,20.3402713 L121.634551,20.3402713 Z M128.092098,13.4021104 C127.293922,11.2902308 126.565557,9.36338126 125.615192,6.84856795 C124.731846,9.44509508 124.09284,11.3249826 123.386349,13.4021104 L128.092098,13.4021104 L128.092098,13.4021104 Z" id="Fill-18"></path>
                                            <path d="M52.3807897,18.1264842 C52.6148903,19.9260668 51.9516828,20.5483128 50.3222866,20.4788091 C47.9347394,20.3769017 45.5392803,20.4525104 43.6110916,20.4525104 C43.6110916,17.562471 43.6464627,14.8180137 43.6008526,12.0749652 C43.5571042,9.43711155 43.4295822,6.80066674 43.3378966,4.13275742 L45.9413935,4.13275742 C45.8092174,5.3979128 45.5858212,6.68514031 45.558362,7.97612477 C45.5001859,10.7027365 45.4573683,13.4363926 45.5904753,16.1578386 C45.642601,17.2299803 46.0540224,19.1122159 46.5231545,19.1859462 C48.1720979,19.4437674 49.9201734,19.1032931 51.6231042,18.9163845 C51.8693054,18.8896162 52.0726891,18.4613231 52.3807897,18.1264842" id="Fill-19"></path>
                                            <path d="M114.56918,20.3496637 L111.300614,20.3496637 L111.300614,4.11162454 L114.246186,4.11162454 C113.189708,6.35687616 113.395419,18.5162686 114.56918,20.3496637" id="Fill-20"></path>
                                        </g>
                                    </g>
                                </g>
                            </g>
                        </g>
                    </g>
                </g>
            </g>
        </g>
    </g>
</svg>