<?xml version="1.0" encoding="UTF-8" standalone="no"?>
<svg width="103px" height="45px" viewBox="0 0 103 45" version="1.1" xmlns="http://www.w3.org/2000/svg" xmlns:xlink="http://www.w3.org/1999/xlink" xmlns:sketch="http://www.bohemiancoding.com/sketch/ns">
    <!-- Generator: Sketch 3.3.3 (12072) - http://www.bohemiancoding.com/sketch -->
    <title>Imported Layers</title>
    <desc>Created with Sketch.</desc>
    <defs></defs>
    <g id="Page-1" stroke="none" stroke-width="1" fill="none" fill-rule="evenodd" sketch:type="MSPage">
        <g id="Home---Desktop-Copy-2" sketch:type="MSArtboardGroup" transform="translate(-545.000000, -2024.000000)" fill="#B1B1B1">
            <g id="Group-+-Currently-in-use-at" sketch:type="MSLayerGroup" transform="translate(110.000000, 1814.000000)">
                <g id="Group" sketch:type="MSShapeGroup">
                    <g id="Row-3-+-Row-1-+-Row-2">
                        <g transform="translate(0.000000, 93.000000)">
                            <g id="Row-2" transform="translate(0.837882, 105.088235)">
                                <g id="Imported-Layers" transform="translate(435.000000, 12.000000)">
                                    <path d="M57.0780435,0.221010936 C57.4310448,0.512446041 57.8787018,0.396436522 58.2771094,0.472223762 C61.5371055,1.09319929 64.2685959,3.79740657 64.8624353,7.02041067 C64.9183746,7.32412415 64.8829321,7.44817813 64.5403215,7.44577891 C62.9274754,7.4347707 61.3143445,7.43335939 59.7014984,7.44733134 C59.4099876,7.4498717 59.2935541,7.27049445 59.1369809,7.09577452 C57.5269815,5.29974394 55.4521021,5.52795245 54.2561676,7.64350316 C53.2239233,9.46931233 52.528169,11.4468371 51.671429,13.3519618 C50.8966764,15.0750277 50.0534586,16.7712788 48.6195329,18.0606498 C45.3094334,21.0372396 40.0838745,20.4142882 37.2721047,16.7437583 C36.516995,15.7579597 36.0042889,14.6592564 35.6498642,13.4761569 C35.5281641,13.0697002 35.6040309,12.9332267 36.0501222,12.9387308 C37.5916564,12.9582069 39.1337599,12.9541141 40.6754364,12.9397187 C40.9895792,12.936755 41.1945477,13.0411918 41.4049252,13.2686946 C43.0187677,15.0136359 45.1730724,14.8677066 46.4899952,12.9105047 C47.6450783,11.1937896 48.1791352,9.20215172 48.9363801,7.31043447 C49.6188969,5.60529213 50.3566413,3.93444457 51.6102231,2.54501184 C52.7692917,1.26043929 54.2214369,0.557890159 55.9406104,0.364682092 C56.1307757,0.343371341 56.3764533,0.483090834 56.5086864,0.221010936 L57.0780435,0.221010936" id="Fill-1"></path>
                                    <path d="M101.914911,37.05615 C101.345838,37.0506459 100.773777,37.0070365 100.208547,37.0500814 C99.6263799,37.0943965 99.4290977,36.9155837 99.4417659,36.3133786 C99.4801975,34.479525 99.4555728,32.6445423 99.4555728,30.809983 L99.4555728,30.1209825 C99.4076045,30.0993894 99.3596361,30.0779376 99.3116678,30.0563445 C98.3179974,31.5369478 97.3244694,33.0174099 96.2863892,34.5640623 C95.2649626,33.04239 94.290081,31.5902952 93.2966953,30.1105388 C93.0500214,30.3925181 93.1347133,30.6379446 93.1337169,30.8609312 C93.1260306,32.7189182 93.1176325,34.5771875 93.1377024,36.4350334 C93.1425419,36.8843938 93.0182797,37.0445773 92.5395928,37.0510693 C90.7727356,37.0749204 90.7730202,37.0924206 90.7730202,35.34381 C90.7730202,32.427342 90.7883929,29.510874 90.7596404,26.5946883 C90.7540891,26.0249432 90.9574919,25.9615755 91.4787383,25.8797196 C92.9707384,25.6451602 93.8370152,26.2377685 94.4580414,27.5587528 C94.9431336,28.59056 95.6591,29.5158136 96.3177038,30.5600404 C97.1922362,29.1663737 98.0448484,27.8424257 98.8561822,26.494062 C99.1150973,26.0637542 99.3957903,25.8537516 99.9232996,25.8943972 C100.583469,25.9452043 101.250756,25.9066756 101.914911,25.9068167 L101.914911,37.05615" id="Fill-2"></path>
                                    <path d="M2.66453526e-14,30.5641332 C0.368231667,29.2384916 0.916949516,28.0264602 1.99274965,27.0866702 C4.08542146,25.2581796 7.99306118,25.2851356 9.98638018,27.1554009 C10.2418792,27.395041 10.2477151,27.5636923 9.99976007,27.7784934 C9.94652519,27.8246432 9.90254236,27.8812366 9.85471636,27.933455 C9.49004318,28.3329963 9.19468921,28.9090923 8.74190802,29.0838122 C8.2657832,29.2677056 7.8992596,28.6134232 7.44391631,28.3864849 C5.21730326,27.2767734 2.73476421,28.7256222 2.66644137,31.1996452 C2.60452379,33.4467298 4.03973055,35.0264068 6.04941857,34.9205587 C6.93604983,34.8738444 7.70411248,34.5340015 8.35218313,33.9452038 C8.69436671,33.6345749 8.94858463,33.6585671 9.21077355,34.030729 C9.34528415,34.2213967 9.51765699,34.3875077 9.68362457,34.5543243 C10.3785248,35.2524984 10.3798059,35.2508048 9.60846944,35.9158131 C6.91911145,38.2345922 1.34055116,37.6079714 0.156857865,32.8460771 C0.118426265,32.6919623 0.164544185,32.509339 2.66453526e-14,32.3988336 L2.66453526e-14,30.5641332" id="Fill-3"></path>
                                    <path d="M79.4253074,44.5360825 C79.0126659,44.2727324 78.4777549,44.3128135 78.0834752,44.0038782 C77.9330226,43.886034 77.6185951,43.8000853 77.8824921,43.5524008 C78.0836175,43.3637089 78.1318705,42.8552146 78.6040098,43.1098146 C78.919149,43.2797361 79.2314413,43.4430244 79.6016657,43.4262299 C79.8026488,43.4170564 80.0806373,43.4849403 80.1166492,43.1968923 C80.1462557,42.9610627 79.8870559,42.9271913 79.7182416,42.8711624 C79.383175,42.7600925 79.0344438,42.6886803 78.7005159,42.5747877 C78.2007627,42.4043017 77.9246246,42.0489344 77.9270443,41.5174358 C77.9297488,40.9433157 78.2040365,40.5265564 78.7464914,40.3213522 C79.3706491,40.0852404 80.0098947,40.1226401 80.6122745,40.3794981 C80.834039,40.4740558 81.3427596,40.4782897 81.0868336,40.951219 C80.9194426,41.2602955 80.7470698,41.7462088 80.2182794,41.3229575 C80.1492449,41.2676343 80.0436291,41.2540857 79.9528167,41.2292467 C79.6795253,41.1545885 79.2989101,41.0193852 79.1974222,41.3346714 C79.0698862,41.7309667 79.5209594,41.6729619 79.7571002,41.7570759 C79.9784377,41.8361091 80.2067499,41.8965131 80.4322153,41.9641148 C80.9853457,42.1300846 81.345464,42.4696453 81.3474568,43.0673342 C81.3495918,43.7039753 81.0035651,44.1037988 80.4107221,44.3355356 C80.2259657,44.4077946 79.9650579,44.2779542 79.8523252,44.5360825 L79.4253074,44.5360825" id="Fill-4"></path>
                                    <path d="M72.1660051,44.5360825 C72.0885725,44.309003 71.8534281,44.3567052 71.6942928,44.2883979 C70.8396879,43.9214578 70.410535,43.2718328 70.3847716,42.3693013 C70.3597199,41.4979597 70.7243931,40.817427 71.5259054,40.418168 C72.3331114,40.0160863 73.1312076,40.0619538 73.8733645,40.5793393 C74.0525697,40.7042401 74.4316191,40.8895448 74.1579007,41.1377939 C73.9258877,41.3483611 73.7106707,41.9097794 73.1993881,41.498242 C72.796995,41.1742057 72.3590171,41.1449916 71.9671571,41.4662053 C71.5606362,41.7995562 71.4900359,42.2635943 71.6848984,42.7456971 C71.9347038,43.3635678 72.5812087,43.5924819 73.1270798,43.1545531 C73.6645528,42.7233985 73.8833283,43.1983036 74.196617,43.3943343 C74.4186662,43.533207 74.2043033,43.6703861 74.1120675,43.7902062 C73.7650443,44.240978 73.2029466,44.3030755 72.7353621,44.5360825 L72.1660051,44.5360825" id="Fill-5"></path>
                                    <path d="M64.5374748,13.423374 C61.6674883,13.423374 58.7975017,13.4106722 55.9276576,13.4295837 C54.8053125,13.4370637 53.9185389,12.9878443 53.1490529,12.2237622 C52.9469311,12.0232153 52.839038,11.8444026 52.9695631,11.5507094 C53.6086663,10.1118809 54.2060642,8.65442309 55.0669321,7.32228945 C55.3153141,6.93784915 55.5000704,6.82381546 55.9322124,7.14799291 C56.699421,7.72338319 57.6361557,7.81638839 58.5696166,7.8173763 C63.5032377,7.82259814 68.4368588,7.83205391 73.3701952,7.8045334 C73.9967727,7.80100513 74.1741274,7.95229735 74.1513531,8.57877698 C74.0998263,9.98796802 74.1127792,11.4008285 74.1470829,12.8110074 C74.1594664,13.3185138 73.989798,13.4367814 73.5031401,13.4335354 C70.5147273,13.4132126 67.5261722,13.423374 64.5374748,13.423374" id="Fill-6"></path>
                                    <path d="M36.2909602,6.73532645 C39.1847174,6.73532645 42.0784745,6.74449995 44.9722317,6.73066914 C46.0964272,6.72530617 46.9716713,7.21559457 47.740588,7.96725722 C47.9210742,8.14367072 48.0194306,8.31105185 47.8977305,8.58541012 C47.2680216,10.0032102 46.6721895,11.4361112 45.8395048,12.7559664 C45.5904111,13.1507093 45.4102096,13.4030511 44.8805652,12.9949009 C44.1687266,12.4464666 43.2711352,12.3568485 42.3780987,12.3572719 C37.3970786,12.3602357 32.4160585,12.3507799 27.4350384,12.3701148 C26.8998428,12.3722318 26.7025606,12.2685006 26.7209224,11.6891587 C26.7671826,10.2325477 26.7553685,8.77311409 26.7253349,7.31551518 C26.7156558,6.84526735 26.8626923,6.72276581 27.3251525,6.72572956 C30.3137076,6.74449995 33.3024051,6.73532645 36.2909602,6.73532645" id="Fill-7"></path>
                                    <path d="M28.2866542,30.3160252 C28.2866542,32.3298206 28.2607485,34.2796838 28.3013152,36.2281356 C28.3148374,36.8804422 28.1184092,37.0704042 27.4622252,37.0547387 C25.7809139,37.0149398 25.7800599,37.0452829 25.7800599,35.342681 C25.7800599,32.4283299 25.7948631,29.5138377 25.767107,26.5996278 C25.7618404,26.0418789 25.9352096,25.9457688 26.4758142,25.8794374 C27.6775845,25.7322379 28.4158983,26.1830097 29.0954259,27.1582235 C30.3712127,28.9889723 31.7917585,30.7206472 33.1602082,32.5038349 C33.4067398,32.3069574 33.30027,32.0808659 33.3012664,31.8916095 C33.3110878,30.0818892 33.3187741,28.2720278 33.2987043,26.4624487 C33.2940071,26.0399031 33.4068821,25.9024417 33.853258,25.8949617 C35.7446621,25.8632073 35.7443774,25.8474007 35.7443774,27.7432107 C35.7443774,30.6105652 35.7297165,33.4782019 35.7570456,36.3452742 C35.7624545,36.9048578 35.5895123,37.0159277 35.0426449,37.0649001 C34.0402918,37.1543771 33.4073091,36.8242721 32.8214407,35.9927294 C31.5745488,34.2232314 30.2008326,32.5415168 28.8748001,30.827201 C28.737158,30.6490939 28.6429294,30.4190507 28.2866542,30.3160252" id="Fill-8"></path>
                                    <path d="M61.5294192,32.6058725 L61.5294192,27.3750005 C61.5294192,25.9063933 61.5294192,25.8999013 63.01416,25.9086514 C64.1803456,25.9155668 64.031174,25.7552423 64.0335938,26.9143495 C64.0404261,30.0402556 64.0226337,33.166444 64.0482547,36.292209 C64.0528096,36.8553209 63.9167332,37.0056252 63.319193,37.0704042 C62.2261698,37.188813 61.5906251,36.7374767 60.9869642,35.8971839 C59.6821402,34.0805482 58.2835147,32.3301029 56.9211856,30.5541129 C56.8278111,30.4324581 56.7177828,30.323364 56.5089711,30.0886635 C56.5089711,32.1868551 56.5149494,34.126698 56.5065513,36.0663997 C56.5018541,37.1696192 56.6542995,37.0321578 55.5234141,37.037803 C54.071696,37.0452829 54.071696,37.03992 54.071696,35.6057488 C54.071696,32.5972635 54.0826561,29.5887782 54.0608782,26.580434 C54.0571773,26.0765971 54.1736109,25.9371599 54.7149271,25.8802841 C55.9031752,25.7552423 56.6661137,26.1439165 57.3420828,27.1546953 C58.4261386,28.7760059 59.6923887,30.2777788 60.8843376,31.8279595 C61.0507322,32.0444541 61.2327842,32.2492349 61.5294192,32.6058725" id="Fill-9"></path>
                                    <path d="M23.645398,31.4439426 C23.6446863,34.7403347 21.0881308,37.2044785 17.6759741,37.1974219 C14.2991174,37.1905065 11.7925231,34.7408992 11.7969356,31.451987 C11.8013481,28.1711193 14.3174792,25.7487502 17.7210956,25.7486091 C21.148198,25.748468 23.6461097,28.1498086 23.645398,31.4439426 L23.645398,31.4439426 Z M14.37655,31.4700518 C14.3806778,33.4014268 15.8614332,34.9233814 17.7347602,34.92197 C19.6234598,34.9204176 21.0736122,33.4132818 21.0653565,31.4601726 C21.0571008,29.5155313 19.595846,28.0225086 17.7020221,28.024061 C15.7822925,28.0256134 14.3724222,29.4865995 14.37655,31.4700518 L14.37655,31.4700518 Z" id="Fill-10"></path>
                                    <path d="M48.1678904,7.49446903 C47.1447558,6.57076794 46.0387798,5.98281702 44.7295433,5.7944074 C44.1043892,5.70436595 43.5020095,5.74910441 42.9165681,5.97251447 C42.6706059,6.06636646 42.4299102,6.12987532 42.1618853,6.1288874 C40.2669228,6.12183086 38.3715332,6.10348386 36.4772823,6.13763751 C35.8630884,6.14864571 35.9443641,5.91860251 36.1117551,5.52216609 C38.4039865,0.0938520846 44.5450716,-1.00795608 48.6992429,1.91980239 C49.2364313,2.2983152 49.8940387,2.68360228 50.1548042,3.22667361 C50.4512969,3.84412086 49.661314,4.32509463 49.4160634,4.90048491 C49.0488281,5.76180619 48.6068647,6.59179643 48.1678904,7.49446903" id="Fill-11"></path>
                                    <path d="M52.4607002,12.9253234 C53.3316741,13.6594858 54.2301195,14.2511061 55.3198689,14.5000609 C56.1683533,14.6938335 57.0044541,14.722483 57.834292,14.4179227 C57.9651017,14.3697971 58.1053059,14.3174376 58.2413823,14.3168731 C60.2547711,14.3100988 62.2680176,14.3156029 64.2814064,14.3089698 C64.8937499,14.3069939 64.6208856,14.6533289 64.5269417,14.9079289 C63.3567706,18.0799848 59.8949374,20.2778147 56.4963029,20.0587797 C54.1908339,19.9100279 52.2500381,19.0237264 50.6480097,17.3875971 C50.4968454,17.2333411 50.2332331,17.1164848 50.4389133,16.8144649 C51.2579335,15.6116071 51.8354038,14.2813081 52.4607002,12.9253234" id="Fill-12"></path>
                                    <path d="M76.1291571,29.7927122 C76.1291571,31.0134936 76.2519959,32.2493761 76.102255,33.4519516 C75.8316681,35.6260716 74.2256542,37.0160689 71.9401127,37.1660909 C70.1225827,37.2853464 68.4276068,36.977399 67.2767938,35.3676611 C66.6954803,34.5546066 66.4933585,33.6069132 66.4808327,32.6348043 C66.4542152,30.5910892 66.4902271,28.5466684 66.4599088,26.5030944 C66.4522225,25.9775233 66.6542019,25.8960908 67.1193666,25.8965142 C68.9316301,25.8983489 68.9138377,25.8839535 68.9368966,27.6850648 C68.9586745,29.3976871 68.8026707,31.1166603 69.0191687,32.8213792 C69.1996549,34.2424252 70.1967414,35.0240076 71.5523805,34.9168893 C72.8647485,34.8131582 73.7048348,33.9096388 73.7234813,32.5008712 C73.7491023,30.574718 73.7528032,28.6475769 73.7186417,26.7215648 C73.7079663,26.1145613 73.8204143,25.8661711 74.5144606,25.8880463 C76.1897936,25.9408293 76.1910747,25.9021594 76.1910747,27.5371597 L76.1910747,29.7925711 C76.1704355,29.7927122 76.149654,29.7927122 76.1291571,29.7927122" id="Fill-13"></path>
                                    <path d="M78.5319862,29.7862202 C78.5319862,28.6821539 78.5463624,27.5776643 78.5245845,26.4740214 C78.5164712,26.0609316 78.6293462,25.9069579 79.0774302,25.8955263 C80.9916086,25.8468361 80.9910392,25.8317351 80.9913239,27.7139966 C80.9914663,29.2646008 80.9676956,30.8154871 80.9985832,32.3655267 C81.0365878,34.2630303 82.3186375,35.2510871 84.1037142,34.8092065 C85.0448614,34.5763407 85.5507351,33.9556474 85.6909393,33.0367448 C85.908149,31.6124528 85.7520028,30.1763057 85.7875876,28.7459451 C85.8069458,27.971137 85.8086539,27.1949176 85.7843138,26.4205328 C85.7715033,26.0159108 85.925372,25.8569976 86.3200788,25.9065345 C86.3434225,25.9094982 86.3674778,25.9072401 86.3911061,25.9066756 C88.2504839,25.860667 88.2504839,25.860667 88.2504839,27.6972021 C88.2504839,29.2476651 88.2655718,30.7982692 88.2474947,32.348591 C88.2053623,35.9612573 85.8549141,37.4473646 82.6835954,37.1453447 C79.9829926,36.8880632 78.6482774,35.3682256 78.5487822,32.6753088 C78.5133397,31.7135024 78.5430886,30.7492968 78.5430886,29.7863613 C78.5393878,29.7863613 78.535687,29.7862202 78.5319862,29.7862202" id="Fill-14"></path>
                                    <path d="M42.2411683,25.9066756 C43.5913985,25.9066756 44.9420558,25.9222 46.2920013,25.8977844 C46.7298369,25.889881 46.8494019,26.0314352 46.8572305,26.458497 C46.8886875,28.1822686 46.9034908,28.1819864 45.1934269,28.1819864 C43.4530448,28.1819864 43.4530448,28.1819864 43.4530448,29.9156371 C43.4529024,32.076632 43.441373,34.2377679 43.4620122,36.3984805 C43.466567,36.8742324 43.3404544,37.0482467 42.8303105,37.0514927 C40.99328,37.0633477 40.9934224,37.081977 40.9934224,35.290886 C40.9934224,33.1298911 40.9797578,30.9688963 41.0039555,28.8081837 C41.0093644,28.3201534 40.8747114,28.1457158 40.3692647,28.171825 C39.6133009,28.2110593 38.8530669,28.1639216 38.095822,28.1890429 C37.6910092,28.2025915 37.5799845,28.0582147 37.5678857,27.6644597 C37.5132274,25.9061111 37.5005592,25.9065345 39.2561717,25.9065345 C40.2511231,25.9065345 41.2462169,25.9065345 42.2411683,25.9066756" id="Fill-15"></path>
                                    <path d="M48.8220817,31.4093655 C48.822224,29.7872081 48.8378813,28.1649095 48.8122603,26.5433166 C48.8048586,26.0730688 48.9076276,25.8936916 49.4294433,25.8932682 C51.3456144,25.8918569 51.3456144,25.871534 51.3456144,27.7941589 C51.3456144,30.6622191 51.3365047,33.5301381 51.3547241,36.3980571 C51.3577133,36.869434 51.2506741,37.0510693 50.7301395,37.0524806 C48.8220817,37.0578436 48.8220817,37.0776019 48.8220817,35.2176391 L48.8220817,31.4093655" id="Fill-16"></path>
                                    <path d="M29.3223147,42.2024847 C29.3223147,42.8721503 29.2918541,43.3583459 29.3311397,43.8390374 C29.3680056,44.2902326 29.1912202,44.3893064 28.7661952,44.3869072 C28.3304947,44.3842257 28.1276613,44.3060393 28.1483005,43.8113758 C28.1875861,42.8725737 28.1421799,41.9306668 28.1719288,40.9913001 C28.1793304,40.757023 27.9511606,40.3495784 28.392697,40.3008883 C28.7617827,40.2602426 29.1885158,40.1313902 29.4936912,40.5568995 C29.8911024,41.1111202 30.3326388,41.6344332 30.8874772,42.3389582 C30.8874772,41.6753611 30.914237,41.1814033 30.8796485,40.6918206 C30.8479069,40.2427424 31.1196325,40.2538917 31.4161252,40.2816945 C31.6842924,40.3068158 32.0639112,40.1275796 32.0548015,40.6644412 C32.036155,41.7689309 32.051243,42.8741262 32.0471152,43.9788981 C32.0465458,44.1334363 32.0879665,44.3520479 31.8461321,44.356423 C31.4845904,44.3631972 31.0994204,44.4912029 30.811895,44.0980125 C30.3747712,43.4999001 29.8979347,42.9302962 29.3223147,42.2024847" id="Fill-17"></path>
                                    <path d="M19.612215,44.4051131 C20.1881197,43.045459 20.7213225,41.8228428 21.220791,40.5866781 C21.373521,40.2087299 21.6429692,40.2179034 21.9585354,40.2197381 C22.2755249,40.2214316 22.5377138,40.2166332 22.6903015,40.6003678 C23.1057898,41.6455825 23.5826263,42.666805 24.0043776,43.7097616 C24.0808138,43.8988769 24.4062013,44.236744 24.0425245,44.3318662 C23.709593,44.4189439 23.1242939,44.6060834 22.9607461,44.1530535 C22.742113,43.547179 22.3303255,43.6499222 21.8926323,43.6209904 C21.4246208,43.5899416 21.1409387,43.7001647 20.9047978,44.1771868 C20.6821792,44.6271118 20.1363082,44.2790833 19.612215,44.4051131 L19.612215,44.4051131 Z M21.974335,41.7106438 C21.772925,42.0708096 21.6100889,42.3326073 21.6203373,42.7123903 C21.8755516,42.6615832 22.1017287,42.7679958 22.325059,42.6206552 C22.2165965,42.3392404 22.1175283,42.0823824 21.974335,41.7106438 L21.974335,41.7106438 Z" id="Fill-18"></path>
                                    <path d="M40.3100516,44.3698304 C39.6700943,44.319729 39.024728,44.6378378 38.7668093,43.7865368 C38.6835408,43.511614 37.2387973,43.533207 37.1512587,43.8089766 C36.895475,44.6137044 36.292953,44.3358179 35.6576928,44.353177 C36.2310354,43.0017084 36.7619608,41.7064099 37.3350187,40.4297407 C37.4840479,40.0976599 38.4735904,40.1165714 38.6239007,40.4517571 C39.1972432,41.7294142 39.7341469,43.0230192 40.3100516,44.3698304 L40.3100516,44.3698304 Z M37.9272923,41.7407047 C37.7940628,42.0878865 37.6878777,42.364644 37.5772801,42.6529742 C37.8464436,42.7119669 38.071482,42.7392051 38.3044914,42.6384377 C38.2686219,42.3313371 38.1738239,42.0544385 37.9272923,41.7407047 L37.9272923,41.7407047 Z" id="Fill-19"></path>
                                    <path d="M59.8441223,40.2732266 C60.2465154,40.2732266 60.6493355,40.2856461 61.0510169,40.2694161 C61.4142667,40.2548796 61.6649261,40.2591135 61.6533967,40.765632 C61.6431482,41.2145691 61.5037981,41.3624742 61.0843243,41.2896507 C60.5515484,41.19721 60.3791756,41.4084828 60.4197423,41.9389935 C60.467853,42.5690014 60.3958293,43.2077594 60.4419472,43.8380495 C60.4812329,44.3751934 60.188441,44.369407 59.7954423,44.3833789 C59.3704173,44.3984799 59.2025993,44.2789422 59.2265123,43.8335333 C59.2616701,43.1784042 59.2067271,42.5183354 59.2453011,41.8634885 C59.2726302,41.4004383 59.122747,41.2331983 58.6560165,41.283582 C58.3109861,41.3208406 57.9689449,41.3849139 57.972361,40.792588 C57.9754925,40.2344157 58.2613097,40.2596781 58.6373701,40.2705451 C59.0393361,40.282259 59.4418716,40.2732266 59.8441223,40.2732266" id="Fill-20"></path>
                                    <path d="M54.6041871,40.3789336 C54.330184,40.8353506 54.0695609,41.3280382 53.7531407,41.7824794 C53.3133124,42.4140397 52.9709865,43.058443 53.1151761,43.8604893 C53.200722,44.335959 52.9278577,44.3864838 52.53614,44.3828144 C52.1576599,44.379145 51.8557583,44.3565641 51.9556805,43.870933 C52.1474115,42.9405988 51.5944235,42.2705097 51.1563032,41.5573758 C50.9254289,41.1816856 50.702668,40.8013381 50.4283802,40.3433686 C50.9509077,40.294114 51.439416,40.0932849 51.7939831,40.4472409 C52.0958847,40.7488374 52.2553046,41.190718 52.5391291,41.6753611 C53.0235096,40.8631534 53.3328129,39.8423543 54.6041871,40.3789336" id="Fill-21"></path>
                                    <path d="M43.9035485,42.2991593 C43.9035485,41.7823383 43.93771,41.2628358 43.8941541,40.7498253 C43.8487479,40.2159275 44.179829,40.2804243 44.5181695,40.2680048 C44.8940875,40.2543151 45.1456009,40.2816945 45.1108701,40.7800273 C45.0636135,41.4578786 45.1202645,42.142363 45.091512,42.8223312 C45.0741466,43.228929 45.2231758,43.3690719 45.6198753,43.3332247 C45.9018494,43.30768 46.1896594,43.3474789 46.4717758,43.3237689 C46.8747383,43.2898975 47.068889,43.3850197 47.067608,43.8520215 C47.0663269,44.3174709 46.8738842,44.3955162 46.4710641,44.3797095 C45.8087595,44.3537415 45.1424695,44.3389227 44.4823,44.3836612 C43.9852513,44.4173915 43.8700988,44.2189616 43.8967163,43.7783512 C43.9263228,43.2869338 43.9035485,42.7924114 43.9035485,42.2991593" id="Fill-22"></path>
                                    <path d="M65.3563525,42.2501869 C65.3562102,41.8269356 65.3553562,41.4036843 65.3563525,40.9802919 C65.3579183,40.2948196 65.6235233,40.1113496 66.3063248,40.269275 C66.5840286,40.3336306 66.5498672,40.5103264 66.5502942,40.6913972 C66.552714,41.7731648 66.5334982,42.8552146 66.5595463,43.9364177 C66.5713605,44.4279763 66.2708823,44.3782982 65.9570242,44.3737821 C65.6521335,44.369407 65.3227605,44.4450531 65.3496626,43.9430508 C65.3796962,43.3802212 65.3564949,42.814569 65.3563525,42.2501869" id="Fill-23"></path>
                                </g>
                            </g>
                        </g>
                    </g>
                </g>
            </g>
        </g>
    </g>
</svg>