<?xml version="1.0" encoding="UTF-8" standalone="no"?>
<svg width="295px" height="60px" viewBox="0 0 295 60" version="1.1" xmlns="http://www.w3.org/2000/svg" xmlns:xlink="http://www.w3.org/1999/xlink" xmlns:sketch="http://www.bohemiancoding.com/sketch/ns">
    <!-- Generator: Sketch 3.3.3 (12072) - http://www.bohemiancoding.com/sketch -->
    <title>Imported Layers</title>
    <desc>Created with Sketch.</desc>
    <defs></defs>
    <g id="Page-1" stroke="none" stroke-width="1" fill="none" fill-rule="evenodd" sketch:type="MSPage">
        <g id="Imported-Layers" sketch:type="MSLayerGroup" fill="#B1B1B1">
            <path d="M199.720086,59.3491525 C196.803655,55.7735593 193.887224,52.1979661 190.593397,48.160678 L190.593397,58.8711864 C189.770448,58.9077966 189.192655,58.9342373 188.487707,58.9667797 L188.487707,43.6067797 C189.245552,44.1884746 189.8325,44.5057627 190.246517,44.9755932 C192.938138,48.0264407 195.592121,51.1108475 198.615362,54.5938983 L198.615362,44.1244068 L200.819724,44.1244068 L200.819724,59.3491525 L199.720086,59.3491525" id="Fill-1" sketch:type="MSShapeGroup"></path>
            <path d="M274.478172,59.3491525 C271.087707,58.32 268.647345,56.380678 268.037,52.6667797 C267.513121,49.479661 269.272948,46.1338983 272.269741,44.6522034 C275.245172,43.1816949 278.816707,43.7766102 281.049552,46.2010169 C280.663,46.6220339 280.26831,47.0532203 279.834966,47.5271186 C279.3945,47.2667797 279.038466,47.0522034 278.679379,46.8437288 C276.186121,45.3955932 273.497552,45.7627119 271.721448,47.7925424 C269.91381,49.86 269.891431,53.0745763 271.670586,55.1888136 C273.392776,57.2338983 276.114914,57.6569492 278.607155,56.2677966 C279.957034,55.5142373 279.957034,55.5142373 281.197052,57.2318644 C279.779017,57.9549153 278.410828,58.6525424 277.043655,59.3491525 L274.478172,59.3491525" id="Fill-2" sketch:type="MSShapeGroup"></path>
            <path d="M288.036983,59.3491525 C287.336103,59.0105085 286.631155,58.6779661 285.933328,58.3301695 C284.640414,57.6854237 284.3505,56.8871186 285.668845,55.7816949 C286.473483,56.2067797 287.272017,56.7894915 288.165155,57.06 C289.480448,57.459661 290.96969,57.6305085 291.672603,56.0766102 C292.355172,54.5684746 291.286052,53.6918644 290.083672,53.0450847 C289.0115,52.4684746 287.866086,52.0189831 286.832569,51.3844068 C285.122586,50.3359322 284.425776,48.5918644 284.885569,46.8488136 C285.31281,45.2298305 286.764414,43.9738983 288.689034,43.9830508 C290.045017,43.9901695 291.422362,44.3755932 292.737655,44.7681356 C293.046897,44.859661 293.142517,45.6650847 293.335793,46.1420339 C292.841414,46.2955932 292.317534,46.6352542 291.856724,46.5640678 C290.915776,46.4176271 289.976862,45.7677966 289.095931,45.8644068 C288.352328,45.9457627 287.360517,46.659661 287.099086,47.3338983 C286.891569,47.8708475 287.450034,48.9488136 287.981034,49.4623729 C288.604603,50.0664407 289.561828,50.3338983 290.384776,50.7244068 C292.30431,51.6355932 294.175017,52.6067797 294.238086,55.1125424 C294.301155,57.5867797 292.500638,58.5244068 290.602466,59.3491525 L288.036983,59.3491525" id="Fill-3" sketch:type="MSShapeGroup"></path>
            <path d="M274.307276,23.3715254 C276.425172,18.8461017 278.408793,14.6155932 280.385293,10.3820339 C281.674138,7.6220339 282.89381,4.82644068 284.28031,2.11627119 C284.590569,1.51118644 285.472517,1.1979661 286.091,0.751525424 C286.481621,1.33932203 287.109259,1.88440678 287.225224,2.5220339 C288.957586,12.0518644 290.617724,21.5959322 292.307362,31.1338983 C292.797672,33.9020339 292.783431,33.939661 290.051121,33.9416949 C289.50181,33.9416949 288.948431,33.8989831 288.404207,33.9498305 C287.209966,34.0627119 286.660655,33.6030508 286.478569,32.3623729 C285.717672,27.1779661 284.867259,22.0067797 284.047362,16.8315254 C284.004638,16.5640678 283.932414,16.3016949 283.768638,15.559322 C283.304776,16.4867797 283.029103,16.9922034 282.794121,17.5159322 C280.529741,22.5772881 278.304017,27.6569492 275.9725,32.6877966 C275.654103,33.3762712 274.865741,34.1674576 274.199448,34.2661017 C273.731517,34.3352542 272.882121,33.4118644 272.576948,32.7569492 C270.239328,27.7311864 267.994276,22.660678 265.713621,17.6074576 C265.446086,17.0166102 265.135828,16.4461017 264.621103,15.4179661 C263.813414,20.6430508 263.036241,25.3749153 262.36181,30.1220339 C261.791138,34.1379661 261.195034,34.599661 257.061983,33.9427119 C255.957259,33.7677966 255.911483,33.1759322 256.081362,32.2413559 C257.048759,26.9064407 257.954103,21.560339 258.896069,16.220339 C259.680362,11.780339 260.448379,7.33830508 261.316086,2.91457627 C261.465621,2.14779661 261.914224,1.06271186 262.501172,0.834915254 C263.857155,0.309152542 264.133845,1.66677966 264.557017,2.57288136 C267.391052,8.6440678 270.215931,14.719322 273.048948,20.7915254 C273.404983,21.5552542 273.786448,22.3057627 274.307276,23.3715254" id="Fill-4" sketch:type="MSShapeGroup"></path>
            <path d="M33.7215517,17.5281356 C33.7246034,8.03898305 41.0395862,0.724067797 50.5111207,0.740338983 C59.9145,0.75559322 67.3017069,8.17728814 67.2996724,17.6064407 C67.2966207,27.0183051 59.8921207,34.3881356 50.4399138,34.3861017 C40.9734655,34.3840678 33.7185,27.0691525 33.7215517,17.5281356 L33.7215517,17.5281356 Z M50.3971897,28.3342373 C56.2788793,28.3637288 61.1982586,23.5576271 61.2491207,17.7325424 C61.301,11.800678 56.4660517,6.8359322 50.5446897,6.74237288 C44.7464138,6.65084746 39.711069,11.6684746 39.6663103,17.5830508 C39.622569,23.3583051 44.5602586,28.3057627 50.3971897,28.3342373 L50.3971897,28.3342373 Z" id="Fill-5" sketch:type="MSShapeGroup"></path>
            <path d="M96.0631897,20.8840678 C96.0631897,15.2237288 96.0631897,9.56338983 96.0642069,3.9020339 C96.0642069,3.35288136 95.9940172,2.78949153 96.0967586,2.25966102 C96.1679655,1.89355932 96.465,1.29355932 96.6877759,1.28135593 C98.2645,1.19186441 99.8605517,1.12779661 101.419983,1.30983051 C101.719052,1.34440678 102.080172,2.50576271 102.083224,3.14847458 C102.126966,11.8749153 102.112724,20.6023729 102.112724,29.3298305 C102.112724,30.3671186 102.194103,31.4135593 102.083224,32.439661 C102.014052,33.0874576 101.658017,33.7037288 101.430155,34.3342373 C100.693672,34.0413559 99.7506897,33.9447458 99.2552931,33.4230508 C96.1048966,30.1047458 93.0531724,26.6938983 89.9719483,23.3115254 C87.1775862,20.2454237 84.3842414,17.1783051 81.601069,14.1020339 C81.3681207,13.8457627 81.2135,13.5183051 81.0222586,13.2244068 C80.8452586,13.3108475 80.6682586,13.3972881 80.4922759,13.4837288 L80.4922759,15.3813559 C80.4922759,20.8738983 80.4475172,26.3674576 80.5197414,31.8589831 C80.5400862,33.4484746 80.029431,34.0128814 78.4140517,33.9701695 C73.7235517,33.8471186 74.4691897,34.4277966 74.4529138,29.9491525 C74.4183276,20.9166102 74.4274828,11.8840678 74.4712241,2.85254237 C74.4752931,2.1640678 74.8913448,1.47762712 75.1161552,0.790169492 C75.899431,1.11355932 76.8953103,1.23152542 77.4324138,1.79084746 C83.1747414,7.77762712 88.8478966,13.8315254 94.5302069,19.8772881 C94.9004828,20.2708475 95.1842931,20.7467797 95.5087931,21.1840678 C95.693931,21.0844068 95.8780517,20.9847458 96.0631897,20.8840678" id="Fill-6" sketch:type="MSShapeGroup"></path>
            <path d="M157.658172,12.9233898 L157.658172,15.4342373 C157.657155,20.8677966 157.615448,26.3013559 157.683603,31.7338983 C157.703948,33.320339 157.346897,34.0433898 155.552483,33.980339 C151.02169,33.820678 151.748,34.4023729 151.731724,30.2023729 C151.698155,21.0447458 151.709345,11.8871186 151.746983,2.73050847 C151.750034,2.08372881 152.114207,1.43898305 152.310534,0.793220339 C153.058207,1.06271186 154.027638,1.12169492 154.521,1.63525424 C160.217552,7.58338983 165.847983,13.5945763 171.47231,19.6118644 C171.916845,20.0877966 172.181328,20.7315254 172.530241,21.2979661 C172.737759,21.1484746 172.945276,21 173.152793,20.8515254 C173.187379,20.2738983 173.249431,19.6962712 173.250448,19.119661 C173.258586,13.8691525 173.293172,8.61864407 173.233155,3.36915254 C173.214845,1.8040678 173.546466,1.03322034 175.362241,1.11254237 C179.7435,1.30372881 179.262345,0.474915254 179.272517,5.01254237 C179.292862,14.0471186 179.295914,23.0827119 179.247086,32.1172881 C179.244034,32.8647458 178.7995,33.6091525 178.559431,34.3545763 C177.794466,33.9915254 176.828086,33.8145763 176.294034,33.2379661 C170.614776,27.1037288 165.00469,20.9044068 159.373241,14.7254237 C158.946,14.2566102 158.498414,13.8050847 157.658172,12.9233898" id="Fill-7" sketch:type="MSShapeGroup"></path>
            <path d="M214.371414,12.7728814 C214.371414,15.8257627 214.391759,18.8776271 214.367345,21.9294915 C214.313431,28.6657627 208.767431,34.239661 202.000741,34.3850847 C194.690845,34.5427119 188.673862,29.4722034 188.447017,22.6016949 C188.226276,15.9549153 188.392086,9.2959322 188.358517,2.6420339 C188.353431,1.53661017 188.807121,1.12067797 189.894552,1.14101695 C195.557534,1.24576271 194.459931,0.399661017 194.525034,5.54847458 C194.590138,10.7969492 194.487397,16.0484746 194.559621,21.2969492 C194.617603,25.4735593 197.496397,28.3525424 201.409724,28.3322034 C205.269138,28.3118644 208.164207,25.4125424 208.189638,21.4291525 C208.228293,15.3864407 208.254741,9.34169492 208.165224,3.3 C208.139793,1.59050847 208.693172,1.08 210.374672,1.11559322 C214.370397,1.19898305 214.371414,1.12474576 214.371414,5.08169492 L214.371414,12.7728814" id="Fill-8" sketch:type="MSShapeGroup"></path>
            <path d="M248.84369,12.7027119 C248.84369,16.4186441 249.211931,20.179322 248.76231,23.839322 C247.968862,30.3010169 242.220431,34.5732203 235.264534,34.3850847 C229.134638,34.219322 223.563207,29.3644068 223.21531,23.2281356 C222.826724,16.3555932 222.97931,9.45050847 223.006776,2.55966102 C223.00881,2.08881356 223.926362,1.21423729 224.418707,1.21423729 C230.08881,1.21118644 229.022741,0.330508475 229.10819,5.48644068 C229.199741,10.9738983 229.050207,16.4715254 229.327914,21.9488136 C229.535431,26.0267797 232.510862,28.4857627 236.349931,28.32 C240.102534,28.1572881 242.815517,25.3342373 242.86231,21.3264407 C242.931483,15.3467797 242.937586,9.36610169 242.849086,3.38745763 C242.822638,1.6220339 243.380086,1.05050847 245.148052,1.11661017 C249.552707,1.28033898 249.030862,0.521694915 249.060362,5.01355932 C249.077655,7.57627119 249.063414,10.1389831 249.063414,12.7027119 L248.84369,12.7027119" id="Fill-9" sketch:type="MSShapeGroup"></path>
            <path d="M17.9003966,0.737288136 C21.8493276,0.668135593 25.2896379,1.98813559 28.3474655,4.45932203 C29.4145517,5.32067797 29.5467931,6.06711864 28.4512241,6.94372881 C28.4034138,6.98135593 28.3637414,7.02813559 28.3210172,7.07186441 C25.9254138,9.53389831 25.9254138,9.53389831 23.0120345,7.91694915 C18.3591724,5.33491525 12.9769483,6.38033898 9.69736207,10.5030508 C6.31605172,14.7549153 6.53475862,20.8586441 10.2161552,24.9508475 C13.5893276,28.7013559 19.2238276,29.3461017 23.7403793,26.540339 C24.4209138,26.1172881 25.5683621,25.3932203 25.8908276,25.6322034 C27.1389828,26.5566102 28.197931,27.7688136 29.1704138,28.9972881 C29.3087586,29.1722034 28.6933276,30.1484746 28.2437069,30.5501695 C23.2032759,35.059322 14.9697241,35.680678 8.94663793,32.0532203 C2.3772931,28.0972881 -0.708,20.4294915 1.32953448,13.119661 C3.43115517,5.58 9.93946552,0.717966102 17.9003966,0.737288136" id="Fill-10" sketch:type="MSShapeGroup"></path>
            <path d="M116.087586,20.199661 C116.087586,16.4155932 115.990948,12.6264407 116.129293,8.84644068 C116.196431,7.01694915 115.555569,6.49118644 113.834397,6.64677966 C112.380759,6.77898305 110.904741,6.63966102 109.439914,6.68135593 C108.439966,6.70983051 108.067655,6.32644068 108.007638,5.30033898 C107.7635,1.14813559 107.730948,1.15016949 111.81619,1.15016949 C117.25131,1.15016949 122.686431,1.18983051 128.120534,1.12474576 C129.571121,1.10644068 130.236397,1.46440678 130.197741,3.05186441 C130.095,7.32813559 130.531397,6.63254237 126.583483,6.66610169 C122.11169,6.70372881 122.11169,6.67423729 122.110672,11.2037288 C122.110672,18.040678 122.058793,24.8786441 122.146276,31.7145763 C122.168655,33.5013559 121.575603,34.0362712 119.829,33.9752542 C115.603379,33.8257627 116.118103,34.4552542 116.091655,30.2725424 C116.07131,26.9155932 116.087586,23.5576271 116.087586,20.199661" id="Fill-11" sketch:type="MSShapeGroup"></path>
            <path d="M142.135069,17.5881356 C142.135069,22.4084746 142.091328,27.2298305 142.161517,32.0491525 C142.182879,33.4820339 141.720034,33.9945763 140.275552,33.9640678 C135.294121,33.8583051 136.033655,34.4908475 136.017379,29.859661 C135.985845,21.0132203 136.045862,12.1647458 135.974655,3.31830508 C135.961431,1.63322034 136.465983,1.06779661 138.16681,1.11864407 C142.82069,1.2559322 142.09031,0.634576271 142.127948,5.14067797 C142.162534,9.28983051 142.135069,13.4389831 142.135069,17.5881356" id="Fill-12" sketch:type="MSShapeGroup"></path>
            <path d="M212.072448,43.8264407 C214.3175,48.7545763 216.561534,53.6827119 218.850328,58.7074576 C217.320397,59.3064407 216.3825,58.9616949 215.995948,57.4861017 C215.617534,56.0440678 214.707103,55.5711864 213.278897,55.7481356 C212.498672,55.8457627 211.686914,55.8457627 210.90669,55.7501695 C209.076672,55.5254237 207.77969,55.9118644 207.166293,57.9386441 C206.988276,58.5274576 205.831672,58.8213559 205.123672,59.2505085 C204.953793,59.0664407 204.784931,58.8823729 204.615052,58.6983051 C206.878414,53.7386441 209.141776,48.7789831 211.404121,43.820339 C211.626897,43.8223729 211.849672,43.8244068 212.072448,43.8264407 L212.072448,43.8264407 Z M214.377517,53.8922034 C213.453862,51.8430508 212.672621,50.1091525 211.708276,47.9684746 C210.735793,50.1620339 209.949466,51.9355932 209.081759,53.8922034 L214.377517,53.8922034 L214.377517,53.8922034 Z" id="Fill-13" sketch:type="MSShapeGroup"></path>
            <path d="M177.840241,43.8874576 C180.077155,48.8277966 182.314069,53.7671186 184.560138,58.7277966 C182.966121,59.3115254 182.091293,58.8955932 181.723052,57.4861017 C181.353793,56.0694915 180.446414,55.5620339 179.007017,55.7461017 C178.166776,55.8538983 177.288897,55.8610169 176.451707,55.7461017 C174.624741,55.4979661 173.511879,56.0888136 172.875086,57.9284746 C172.664517,58.5345763 171.552672,58.8284746 170.85281,59.2647458 C170.677845,59.080678 170.502879,58.8976271 170.327914,58.7145763 C172.594328,53.7528814 174.859724,48.7922034 177.125121,43.8305085 C177.363155,43.8498305 177.60119,43.8691525 177.840241,43.8874576 L177.840241,43.8874576 Z M177.415034,47.960339 C176.454759,50.1467797 175.673517,51.9274576 174.839379,53.8261017 L180.061897,53.8261017 C179.181983,51.8776271 178.400741,50.1447458 177.415034,47.960339 L177.415034,47.960339 Z" id="Fill-14" sketch:type="MSShapeGroup"></path>
            <path d="M239.168707,58.8650847 L237.153552,58.8650847 C236.882966,56.2454237 237.097603,53.4589831 236.209552,51.0844068 C235.307259,48.6732203 233.316517,46.6698305 231.758103,44.4244068 C233.832259,43.7847458 233.82819,43.7867797 235.36931,45.9569492 C236.212603,47.1447458 237.070138,48.3233898 238.050759,49.6871186 C239.179897,48.099661 240.25919,46.7033898 241.201155,45.220678 C241.938655,44.060339 242.82569,43.7094915 244.393259,44.3237288 C243.203086,46.0291525 242.169569,47.7264407 240.917345,49.2447458 C239.559328,50.8922034 238.929655,52.6433898 239.144293,54.7769492 C239.277552,56.0938983 239.168707,57.4342373 239.168707,58.8650847" id="Fill-15" sketch:type="MSShapeGroup"></path>
            <path d="M252.937069,58.899661 L250.853759,58.899661 L250.853759,46.1094915 L247.08081,46.1094915 C247.030966,45.36 246.993328,44.8047458 246.948569,44.1254237 L256.761897,44.1254237 C256.790379,44.7101695 256.817845,45.2674576 256.841241,45.760678 C256.557431,45.8857627 256.450621,45.9661017 256.337707,45.9772881 C252.937069,46.3138983 252.937069,46.3118644 252.937069,49.7552542 L252.937069,58.899661" id="Fill-16" sketch:type="MSShapeGroup"></path>
            <path d="M224.876466,57.160678 C226.712586,57.160678 228.290328,57.0966102 229.855862,57.2023729 C230.286155,57.2308475 230.681862,57.7647458 231.092828,58.0667797 C230.681862,58.3688136 230.280052,58.9169492 229.857897,58.9332203 C227.559948,59.0186441 225.255897,58.9738983 222.841983,58.9738983 L222.841983,44.2057627 C224.3475,43.720678 224.928345,44.140678 224.898845,45.6905085 C224.829672,49.4064407 224.876466,53.1254237 224.876466,57.160678" id="Fill-17" sketch:type="MSShapeGroup"></path>
            <path d="M262.998603,58.9128814 L261.099414,58.9128814 L261.099414,44.1233898 L262.998603,44.1233898 L262.998603,58.9128814" id="Fill-18" sketch:type="MSShapeGroup"></path>
        </g>
    </g>
</svg>