<?xml version="1.0" encoding="UTF-8" standalone="no"?>
<svg width="297px" height="60px" viewBox="0 0 297 60" version="1.1" xmlns="http://www.w3.org/2000/svg" xmlns:xlink="http://www.w3.org/1999/xlink" xmlns:sketch="http://www.bohemiancoding.com/sketch/ns">
    <!-- Generator: Sketch 3.3.3 (12072) - http://www.bohemiancoding.com/sketch -->
    <title>Imported Layers</title>
    <desc>Created with Sketch.</desc>
    <defs></defs>
    <g id="Page-1" stroke="none" stroke-width="1" fill="none" fill-rule="evenodd" sketch:type="MSPage">
        <g id="Imported-Layers" sketch:type="MSLayerGroup">
            <path d="M288.123288,0 C289.205877,0.388888889 289.480685,1.21814815 289.665247,2.30296296 C291.357,12.2566667 293.092397,22.202963 294.888082,32.1381481 C295.146986,33.5711111 294.791548,34.0159259 293.366466,34.0377778 C289.083082,34.1037037 289.052384,34.1485185 288.362959,30.0040741 C287.596603,25.4011111 286.894973,20.7874074 286.156726,16.1255556 C285.341178,16.1748148 285.350795,16.8592593 285.157356,17.29 C282.914137,22.2851852 280.723808,27.3044444 278.45211,32.2866667 C278.041192,33.1877778 278.050808,34.5325926 276.408247,34.4781481 C274.813767,34.4251852 274.828932,33.1148148 274.409137,32.2022222 C271.897397,26.7392593 269.445205,21.2485185 266.772575,15.322963 C265.955548,20.5803704 265.214342,25.3888889 264.459452,30.1951852 C263.742288,34.7633333 264.450205,33.9411111 260.226,34.0077778 C257.748288,34.0466667 257.710562,34.0048148 258.143301,31.5237037 C259.868342,21.6381481 261.616315,11.7562963 263.363918,1.87481481 C263.487822,1.17481481 263.455274,0.384074074 264.527137,0.291111111 C265.579027,0.2 266.035808,0.693333333 266.446726,1.58703704 C269.581685,8.4 272.764356,15.1907407 275.933342,21.9881481 C276.062425,22.2648148 276.203342,22.5359259 276.470753,23.0766667 C277.692411,20.4948148 278.834178,18.1133333 279.949315,15.7192593 C282.078247,11.1492593 284.199781,6.57592593 286.304671,1.99481481 C286.659,1.2237037 287.024425,0.486296296 287.753425,0 L288.123288,0" id="Fill-1" fill="#273A48" sketch:type="MSShapeGroup"></path>
            <path d="M51.4109589,0 C52.8619315,0.35962963 54.3373151,0.641111111 55.7594384,1.09222222 C63.657863,3.59592593 68.7364521,11.607037 67.5173836,19.5711111 C66.2136164,28.0881481 59.5120685,34.3074074 51.489,34.4462963 C42.3877808,34.6037037 35.3093425,29.0218519 33.7596164,20.4648148 C31.9883425,10.6837037 38.7646027,1.53259259 48.637726,0.367777778 C48.9728219,0.328518519 49.4007534,0.49 49.5616438,0 L51.4109589,0 L51.4109589,0 Z M50.7267123,6.54481481 C44.8880548,6.40703704 39.9463151,11.2266667 39.7750685,17.2262963 C39.6097397,23.0092593 44.4046438,28.0459259 50.2251781,28.2037037 C56.151863,28.3640741 61.2411781,23.5944444 61.3939315,17.7355556 C61.5500137,11.757037 56.716274,6.68592593 50.7267123,6.54481481 L50.7267123,6.54481481 Z" id="Fill-2" fill="#273A48" sketch:type="MSShapeGroup"></path>
            <path d="M154.232877,0 C157.707,2.93222222 160.534973,6.49592593 163.696192,9.73407407 C166.879603,12.9951852 169.928014,16.3881481 173.052986,19.707037 C173.36663,20.04 173.607041,20.5203704 174.178849,20.58 C174.537616,19.9985185 174.360452,19.3755556 174.361932,18.7888889 C174.378575,13.4192593 174.39337,8.04962963 174.357123,2.68037037 C174.347877,1.31518519 174.731795,0.66037037 176.257479,0.709259259 C181.351603,0.872592593 180.669575,-0.0707407407 180.687699,5.08925926 C180.719877,14.1 180.706562,23.1114815 180.679562,32.1222222 C180.677342,32.9144444 181.104904,33.9759259 179.989767,34.3833333 C178.915685,34.7755556 178.194082,34.1485185 177.480986,33.3574074 C171.82763,27.0866667 166.135438,20.8507407 160.463219,14.597037 C160.065247,14.1581481 159.730521,13.6618519 159.311466,13.1214815 C158.681219,13.9537037 158.887973,14.5825926 158.886123,15.1581481 C158.86726,20.7744444 158.843959,26.3911111 158.89537,32.007037 C158.909055,33.4922222 158.465589,34.0777778 156.877027,34.0555556 C152.686479,33.997037 152.68537,34.0677778 152.68537,29.8311111 C152.68537,20.6348148 152.693507,11.4385185 152.672425,2.24259259 C152.670575,1.36185185 152.71274,0.562962963 153.493151,0 L154.232877,0" id="Fill-3" fill="#2B3D4B" sketch:type="MSShapeGroup"></path>
            <path d="M76.1917808,0 C78.9221096,1.99185185 80.9511781,4.68851852 83.2609726,7.09888889 C87.606863,11.6337037 91.8795205,16.2392593 96.1924932,20.8259259 C96.8105342,20.4781481 96.514274,19.9274074 96.5161233,19.5059259 C96.5401644,13.9544444 96.5797397,8.40185185 96.5013288,2.85111111 C96.4795068,1.30333333 96.8134932,0.644444444 98.5278082,0.702962963 C103.454014,0.870740741 102.737219,0.0737037037 102.754233,4.91111111 C102.786041,14.0403704 102.770877,23.1703704 102.749425,32.2996296 C102.747575,33.0381481 103.134452,34.0359259 102.082932,34.3803704 C101.122397,34.6951852 100.381562,34.2692593 99.681411,33.4918519 C93.5805205,26.7196296 87.4363562,19.9862963 81.2955205,13.2307407 C80.6589863,13.5507407 80.9589452,14.1118519 80.9574658,14.532963 C80.9337945,20.3314815 80.8960685,26.1307407 80.9707808,31.9281481 C80.991863,33.547037 80.4659178,34.0762963 78.8429589,34.0488889 C74.7112192,33.9803704 74.7101096,34.0474074 74.7101096,29.947037 C74.7101096,20.6937037 74.7297123,11.4407407 74.6827397,2.18814815 C74.6775616,1.16259259 74.9593973,0.478518519 75.8219178,0 L76.1917808,0" id="Fill-4" fill="#273A48" sketch:type="MSShapeGroup"></path>
            <path d="M18.4931507,0 C19.4019041,0.76037037 20.5625342,0.41037037 21.5922329,0.678888889 C24.1490959,1.34444444 26.3745616,2.54703704 28.4110274,4.19555556 C29.4200137,5.01222222 29.5021233,5.75592593 28.4979452,6.5937037 C28.4509726,6.63296296 28.4113973,6.68148148 28.368863,6.72592593 C25.8515753,9.34703704 25.8515753,9.34703704 22.7347397,7.64777778 C18.0826027,5.11111111 12.7765479,6.16703704 9.4740411,10.2866667 C6.10421918,14.49 6.29691781,20.6014815 9.92971233,24.7137037 C13.3446575,28.5796296 18.9987534,29.3851852 23.4755753,26.3433333 C25.1725068,25.1903704 26.0716438,25.2996296 27.4038904,26.772963 C29.8205753,29.4455556 29.8975068,29.5174074 26.8335616,31.652963 C16.5465616,38.8222222 1.90516438,32.0577778 0.383547945,19.4418519 C0.330657534,19.0037037 0.631726027,18.4255556 0,18.1481481 L0,16.6666667 C0.391684932,16.5555556 0.335835616,16.2262963 0.369863014,15.93 C1.35036986,7.40074074 7.10026027,1.50777778 15.5501507,0.372592593 C15.8423425,0.333333333 16.1766986,0.406296296 16.2739726,0 L18.4931507,0" id="Fill-5" fill="#273A48" sketch:type="MSShapeGroup"></path>
            <path d="M189.739726,59.6296296 C189.718644,54.8177778 189.691274,50.0059259 189.685726,45.1940741 C189.684986,44.7466667 189.456411,44.1425926 190.148795,43.9540741 C190.738726,43.7933333 191.02574,44.2407407 191.350849,44.6177778 C194.15589,47.8688889 196.967589,51.1140741 200.094041,54.727037 C200.094041,51.3633333 200.094411,48.44 200.093671,45.517037 C200.093301,44.7825926 199.93426,44.067037 201.135205,44.0366667 C202.402356,44.0048148 202.326164,44.7151852 202.323575,45.562963 C202.309521,50.2518519 202.315808,54.9407407 202.315068,59.6296296 L201.205479,59.6296296 C198.23437,56.0411111 195.26326,52.4525926 191.960753,48.4644444 C191.960753,51.9666667 191.949658,54.8914815 191.96889,57.8162963 C191.973699,58.5462963 191.972589,59.232963 191.219178,59.6296296 L189.739726,59.6296296" id="Fill-6" fill="#273A48" sketch:type="MSShapeGroup"></path>
            <path d="M171.616438,59.6296296 C171.434096,58.9151852 171.74774,58.3011111 172.026986,57.6885185 C173.940288,53.4925926 175.859507,49.2992593 177.780575,45.107037 C178.003603,44.62 178.081644,43.9396296 178.786603,43.9388889 C179.408712,43.9388889 179.471959,44.5844444 179.662438,45.0007407 C181.632699,49.3051852 183.540452,53.6392593 185.561384,57.9196296 C186.016315,58.8833333 185.636466,59.2433333 184.931507,59.6296296 L183.821918,59.6296296 C183.152096,56.56 181.199959,55.5492593 178.239945,56.1207407 C177.885616,56.1888889 177.499479,56.1777778 177.141082,56.1214815 C175.728945,55.8985185 174.811685,56.3485185 174.439603,57.8307407 C174.253562,58.5722222 173.885548,59.287037 173.09589,59.6296296 L171.616438,59.6296296 L171.616438,59.6296296 Z M178.724096,48.317037 C177.910027,50.1188889 177.208397,51.6681481 176.510096,53.2185185 C176.247863,53.8007407 176.33626,54.1433333 177.078205,54.1318519 C178.41563,54.1111111 179.753425,54.1259259 181.307959,54.1259259 C180.431014,52.1544444 179.645425,50.3885185 178.724096,48.317037 L178.724096,48.317037 Z" id="Fill-7" fill="#2B3D4B" sketch:type="MSShapeGroup"></path>
            <path d="M275.917808,59.6296296 C273.150863,58.3559259 270.866219,56.6596296 270.178644,53.4288889 C269.51363,50.3025926 270.81074,47.0148148 273.512589,45.2040741 C276.118274,43.4577778 279.715192,43.4125926 282.209918,45.1777778 C282.697767,45.5225926 283.813274,45.7577778 283.020288,46.8103704 C282.433315,47.5892593 281.915877,47.8414815 280.922055,47.1403704 C278.988781,45.777037 276.875014,45.7677778 274.884781,47.1381481 C273.039904,48.4088889 272.168877,50.8425926 272.685205,53.0196296 C273.215589,55.2559259 274.953945,56.8507407 277.298877,57.2492593 C278.581932,57.4674074 279.783986,57.147037 280.791493,56.4085185 C281.733164,55.7185185 282.494712,55.6659259 283.080205,56.6877778 C283.714521,57.7940741 282.55611,58.0411111 281.998356,58.4340741 C281.280452,58.9403704 280.417192,59.2407407 279.616438,59.6296296 L275.917808,59.6296296" id="Fill-8" fill="#2B3D4B" sketch:type="MSShapeGroup"></path>
            <path d="M206.383562,59.6296296 C205.966726,59.0214815 206.263356,58.482963 206.521151,57.9196296 C208.482904,53.6348148 210.426164,49.3414815 212.396795,45.0611111 C212.608356,44.6014815 212.661986,43.8737037 213.418726,43.9611111 C213.997932,44.0281481 214.073753,44.6122222 214.27237,45.0514815 C216.212301,49.3466667 218.128562,53.652963 220.126562,57.9211111 C220.506781,58.7337037 220.471274,59.2159259 219.69863,59.6296296 L218.219178,59.6296296 C217.246068,56.1140741 217.246068,56.1140741 213.716466,56.1140741 C212.860973,56.1140741 211.998082,56.1859259 211.152205,56.0959259 C210.127315,55.9866667 209.578808,56.3766667 209.259247,57.3407407 C208.945233,58.2877778 208.54837,59.2292593 207.493151,59.6296296 L206.383562,59.6296296 L206.383562,59.6296296 Z M215.873507,54.0251852 C215.015425,52.1151852 214.218,50.34 213.297041,48.2896296 C212.362027,50.4233333 211.589014,52.187037 210.738699,54.1277778 C212.24663,54.1277778 213.472356,54.132963 214.698452,54.1244444 C214.996932,54.1222222 215.295411,54.0755556 215.873507,54.0251852 L215.873507,54.0251852 Z" id="Fill-9" fill="#2B3D4B" sketch:type="MSShapeGroup"></path>
            <path d="M289.972603,59.6296296 C289.188493,59.1874074 288.402534,58.7488889 287.621384,58.3014815 C286.891274,57.882963 286.786233,57.3803704 287.248192,56.6292593 C287.747877,55.8174074 288.195041,55.8985185 288.868932,56.3951852 C289.711849,57.0166667 290.634288,57.4881481 291.746466,57.4703704 C292.739178,57.4544444 293.62611,57.2374074 293.997822,56.2266667 C294.394315,55.1481481 293.956397,54.2651852 293.00474,53.7185185 C291.677301,52.9566667 290.235575,52.3814815 288.957329,51.5496296 C286.423397,49.9007407 286.266945,46.617037 288.55011,44.8403704 C290.234096,43.5303704 293.885753,43.6166667 295.518699,44.9611111 C296.071644,45.4166667 296.078301,45.8396296 295.716945,46.3851852 C295.387397,46.8825926 295.025301,47.307037 294.375822,46.9418519 C293.620562,46.517037 292.854945,46.0944444 291.993534,45.9944444 C290.869521,45.8637037 289.860534,46.1903704 289.424836,47.3296296 C288.998384,48.4437037 289.624192,49.2422222 290.536644,49.7796296 C291.272301,50.2133333 292.077123,50.5296296 292.853466,50.8937037 C294.803014,51.807037 296.612753,52.8462963 296.686356,55.3633333 C296.75589,57.7296296 295.060808,58.7092593 293.30137,59.6296296 L289.972603,59.6296296" id="Fill-10" fill="#2B3D4B" sketch:type="MSShapeGroup"></path>
            <path d="M238.931507,59.6296296 C238.284616,57.7048148 238.671123,55.7207407 238.649301,53.7677778 C238.635616,52.5377778 238.384479,51.5225926 237.618493,50.537037 C236.447507,49.0314815 235.380452,47.4414815 234.334479,45.8440741 C234.016767,45.3588889 233.081753,44.6974074 233.937247,44.1944444 C234.559726,43.8281481 235.633438,43.7581481 236.264425,44.6477778 C237.43911,46.3044444 238.612315,47.9618519 239.866521,49.7325926 C241.046014,48.0937037 242.166699,46.5581481 243.260753,45.0037037 C243.622849,44.4892593 243.930575,43.9544444 244.691014,44.0674074 C245.161849,44.1374074 245.758068,43.8551852 246.07874,44.317037 C246.446384,44.847037 245.850904,45.1955556 245.621589,45.5918519 C245.376,46.0174074 245.108959,46.4448148 244.779041,46.8051852 C241.902986,49.9455556 240.309247,53.5137037 241.108521,57.8625926 C241.287534,58.8351852 240.685767,59.217037 240.041096,59.6296296 L238.931507,59.6296296" id="Fill-11" fill="#2B3D4B" sketch:type="MSShapeGroup"></path>
            <path d="M252.986301,59.6296296 C252.325726,57.8366667 252.755137,55.9792593 252.689301,54.1540741 C252.61126,52.0003704 252.616808,49.84 252.69337,47.6866667 C252.731836,46.6037037 252.491425,46.2107407 251.299726,46.177037 C250.433507,46.1525926 248.766164,47.1207407 248.766164,45.1907407 C248.766164,43.1292593 250.509329,44.2122222 251.433986,44.1218519 C253.262219,43.942963 255.123,44.0118519 256.964548,44.0966667 C257.718329,44.1314815 258.932589,43.4585185 258.990658,45.1148148 C259.049466,46.7848148 257.840753,46.1037037 257.068849,46.2355556 C256.829918,46.2762963 256.573233,46.2725926 256.332452,46.237037 C255.240247,46.0748148 255.003904,46.5996296 255.019438,47.6037037 C255.071959,50.9911111 254.994288,54.3811111 255.06937,57.7677778 C255.089342,58.6640741 254.806767,59.2107407 254.09589,59.6296296 L252.986301,59.6296296" id="Fill-12" fill="#2B3D4B" sketch:type="MSShapeGroup"></path>
            <path d="M262.972603,59.6296296 C262.971863,54.9466667 262.975932,50.2640741 262.966315,45.5811111 C262.964836,44.7559259 262.847959,44.0151852 264.131384,44.0374074 C265.432932,44.06 265.254288,44.86 265.254658,45.6492593 C265.256507,49.7159259 265.240603,53.7825926 265.269082,57.8492593 C265.27426,58.6092593 265.180315,59.2444444 264.452055,59.6296296 L262.972603,59.6296296" id="Fill-13" fill="#273A48" sketch:type="MSShapeGroup"></path>
            <path d="M251.014932,12.3018519 C251.014932,15.877037 251.340411,19.4881481 250.947247,23.0192593 C250.141315,30.2574074 244.211301,34.8277778 236.649822,34.447037 C230.042589,34.1144444 224.777959,28.5348148 224.596726,21.3585185 C224.438055,15.0725926 224.576753,8.77925926 224.548644,2.48962963 C224.543466,1.26111111 224.949575,0.684814815 226.264808,0.72 C231.915945,0.871481481 230.922863,-0.162222222 230.98611,5.31037037 C231.043808,10.3048148 230.993877,15.3003704 231.000534,20.2955556 C231.004233,23.3003704 231.793521,25.9392593 234.665507,27.4422222 C239.346123,29.8911111 244.574507,26.6407407 244.631096,21.2085185 C244.693973,15.1659259 244.642192,9.12222222 244.64737,3.07888889 C244.649219,0.741851852 244.660685,0.739259259 247.047781,0.735555556 C251.082616,0.72962963 251.082616,0.72962963 251.082616,4.71666667 L251.082616,12.3018519 L251.014932,12.3018519" id="Fill-14" fill="#2B3D4B" sketch:type="MSShapeGroup"></path>
            <path d="M216.063986,12.5359259 C216.063986,15.6188889 216.085808,18.7022222 216.059548,21.7851852 C216.00111,28.6033333 210.415068,34.2966667 203.663219,34.4459259 C196.051438,34.6148148 189.996041,29.5237037 189.762288,22.4055556 C189.542219,15.6918519 189.70126,8.96592593 189.665384,2.24518519 C189.659836,1.13925926 190.092575,0.7 191.205493,0.727037037 C197.157329,0.871111111 195.930493,-0.17 196.012973,5.38074074 C196.089904,10.5588889 195.985603,15.74 196.044041,20.9188889 C196.092123,25.2307407 198.847233,28.1540741 202.761863,28.2044444 C206.737151,28.2551852 209.679781,25.3103704 209.701973,21.1662963 C209.734521,15.1237037 209.765589,9.08 209.675342,3.03851852 C209.649452,1.3137037 210.066288,0.642222222 211.921151,0.696296296 C216.061397,0.817407407 216.063986,0.724444444 216.063986,4.95148148 L216.063986,12.5359259" id="Fill-15" fill="#273A48" sketch:type="MSShapeGroup"></path>
            <path d="M116.672918,20.0585185 C116.672918,16.0485185 116.630014,12.0377778 116.698808,8.02888889 C116.719521,6.81185185 116.341521,6.41407407 115.136507,6.47740741 C113.416274,6.56777778 111.687164,6.47148148 109.962863,6.50962963 C108.946479,6.53222222 108.578096,6.11925926 108.516329,5.09481481 C108.252616,0.733703704 108.224137,0.735555556 112.565959,0.735555556 C118.110575,0.735555556 123.655932,0.775925926 129.199808,0.708518519 C130.651521,0.690740741 131.175247,1.18074074 131.154164,2.62333333 C131.086479,7.24111111 131.467808,6.45666667 127.332,6.49185185 C122.998315,6.52888889 122.998315,6.50037037 122.998315,10.7785185 C122.998315,17.6881481 123.000164,24.5977778 122.996836,31.5074074 C122.995726,34.0162963 122.989438,34.0366667 120.570164,34.0151852 C116.179521,33.9762963 116.700658,34.6392593 116.676616,30.052963 C116.658863,26.7214815 116.672918,23.39 116.672918,20.0585185" id="Fill-16" fill="#2B3D4B" sketch:type="MSShapeGroup"></path>
            <path d="M143.138836,17.2211111 C143.138836,22.2192593 143.09889,27.2181481 143.165096,32.2155556 C143.183219,33.5948148 142.726438,34.0681481 141.358315,34.0351852 C135.993452,33.9062963 136.887041,34.7488889 136.860041,29.5603704 C136.813808,20.6748148 136.88926,11.7881481 136.811219,2.90333333 C136.795685,1.17777778 137.320521,0.662592593 139.025219,0.701851852 C143.137356,0.797037037 143.138836,0.72037037 143.138836,4.81777778 L143.138836,17.2211111" id="Fill-17" fill="#273A48" sketch:type="MSShapeGroup"></path>
            <path d="M224.303795,51.4844444 C224.303795,49.4537037 224.325616,47.4222222 224.293438,45.3918519 C224.279753,44.5274074 224.429178,44.0214815 225.489205,44.0396296 C226.543315,44.0574074 226.686822,44.5774074 226.680904,45.4359259 C226.657603,48.7588889 226.781507,52.0874074 226.626164,55.4037037 C226.545904,57.11 227.132137,57.5296296 228.680753,57.3581481 C229.773329,57.2374074 230.891055,57.3577778 231.996575,57.3285185 C232.703384,57.31 232.973014,57.5914815 232.973014,58.3048148 C232.972644,58.9818519 232.790671,59.3374074 232.049466,59.3311111 C229.775548,59.3118519 227.50126,59.3 225.227712,59.3374074 C224.291219,59.352963 224.297877,58.7874074 224.300466,58.1311111 C224.309342,55.9155556 224.303795,53.7 224.303795,51.4844444" id="Fill-18" fill="#2B3D4B" sketch:type="MSShapeGroup"></path>
        </g>
    </g>
</svg>