<?xml version="1.0" encoding="UTF-8" standalone="no"?>
<svg width="208px" height="91px" viewBox="0 0 208 91" version="1.1" xmlns="http://www.w3.org/2000/svg" xmlns:xlink="http://www.w3.org/1999/xlink" xmlns:sketch="http://www.bohemiancoding.com/sketch/ns">
    <!-- Generator: Sketch 3.3.3 (12072) - http://www.bohemiancoding.com/sketch -->
    <title>Imported Layers</title>
    <desc>Created with Sketch.</desc>
    <defs></defs>
    <g id="Page-1" stroke="none" stroke-width="1" fill="none" fill-rule="evenodd" sketch:type="MSPage">
        <g id="About---Desktop" sketch:type="MSArtboardGroup" transform="translate(-225.000000, -1555.000000)">
            <g id="Imported-Layers-+-Imported-Layers-Copy-2-+-Imported-Layers-Copy-3" sketch:type="MSLayerGroup" transform="translate(225.000000, 1555.000000)">
                <g id="Imported-Layers" sketch:type="MSShapeGroup">
                    <path d="M208,75.6401274 C206.83886,75.628535 205.67162,75.5386943 204.518324,75.6267962 C203.331911,75.7175064 202.926659,75.3537962 202.952514,74.1157325 C203.03124,70.3511146 202.981274,66.5835987 202.980983,62.817242 L202.980983,61.3974682 C202.883955,61.353707 202.786927,61.3099459 202.689899,61.2658949 C200.660447,64.305121 198.630994,67.3443471 196.511777,70.5180446 C194.406212,67.3617357 192.389542,64.3393185 190.373162,61.3169013 C190.271777,61.3519682 190.170391,61.387035 190.069296,61.4218121 L190.069296,72.352535 C190.069296,75.6236083 190.068425,75.576949 186.817117,75.6302739 C185.665564,75.6491115 185.219642,75.4024841 185.231263,74.1365987 C185.293721,67.4738917 185.290816,60.8097357 185.232425,54.1467389 C185.221966,52.9576529 185.662078,52.8536115 186.711665,52.6924777 C189.668112,52.2380573 191.464581,53.3254204 192.708514,56.0238312 C193.650324,58.0669841 195.067397,59.8922006 196.276469,61.8124745 C196.348223,61.9266592 196.45019,62.0222962 196.62362,62.2274809 C198.363151,59.4369108 200.102101,56.7182134 201.758257,53.9502484 C202.286101,53.0680701 202.859553,52.6362548 203.936156,52.7200096 C205.283218,52.8252102 206.644804,52.7452229 208,52.7452229 L208,75.6401274" id="Fill-1" fill="#989898"></path>
                    <path d="M0,61.7292994 C0.382301676,61.5809172 0.393340782,61.1963408 0.489787709,60.8949395 C2.46985475,54.7176624 7.98795531,51.3958726 14.3604246,52.5359809 C16.5461676,52.9272229 18.5035754,53.7737548 20.2294525,55.1822261 C20.8403799,55.6806975 20.9708156,56.057449 20.3575642,56.6683662 C19.5389274,57.4838885 18.9622793,58.7028248 17.9995531,59.1711561 C16.8349274,59.7377325 16.1121564,58.2211624 15.1041117,57.7679013 C12.0953743,56.4153631 8.72002235,57.0717803 6.87968715,59.5481975 C4.74332961,62.4233917 4.8464581,66.5160732 7.11935196,69.0391497 C9.33850279,71.5022357 12.794905,71.9682484 15.6897654,70.2638822 C16.5040447,69.7842484 17.158838,68.5844395 18.0623017,68.8623662 C18.8687374,69.1101529 19.3782793,70.2131656 20.1126704,70.8269809 C20.9833073,71.5544013 20.9684916,72.0531624 20.1315531,72.8588312 C14.6468603,78.1394395 3.29168715,76.8225478 0.561541899,67.7697866 C0.441273743,67.3707197 0.443307263,66.8980414 0,66.656051 L0,65.7866242 C0.237631285,64.7238949 0.237631285,63.6614554 0,62.5987261 L0,61.7292994" id="Fill-2" fill="#989898"></path>
                    <path id="Fill-3" fill="#B2B2B2" d="M0,62.5987261 C0.470905028,63.6614554 0.470905028,64.7238949 0,65.7866242 L0,62.5987261"></path>
                    <path d="M131.786302,27.1055382 C125.934413,27.1052484 120.082525,27.0733694 114.230927,27.1211879 C111.888603,27.1403153 110.028804,26.2361115 108.438011,24.607965 C108.086212,24.2480223 107.809944,23.9561847 108.063263,23.3774363 C109.375464,20.3782038 110.619397,17.3499904 112.392045,14.5733312 C112.900715,13.7766465 113.277788,13.5656656 114.153073,14.2261401 C115.716849,15.4056624 117.625743,15.5957771 119.529989,15.5975159 C129.541006,15.6067898 139.552313,15.6421465 149.562749,15.559551 C151.098637,15.5467994 151.395821,16.003828 151.336559,17.4041847 C151.223844,20.0530382 151.191307,22.7163822 151.346726,25.3608885 C151.438235,26.9215096 150.873497,27.1539363 149.486637,27.1365478 C143.587397,27.0635159 137.686704,27.1055382 131.786302,27.1055382" id="Fill-4" fill="#233C6B"></path>
                    <path d="M54.5680447,19.1239108 C54.5683352,17.5299618 54.601162,15.9351433 54.5541006,14.3423535 C54.5311508,13.5714618 54.8152626,13.3639586 55.5612737,13.3651178 C67.8106145,13.3839554 80.0599553,13.3599013 92.3092961,13.3961274 C94.4677318,13.4025032 96.1421899,14.5669554 97.5917989,16.0820764 C97.9081564,16.4124586 97.9459218,16.7228439 97.7698771,17.1248089 C96.4547709,20.1286783 95.1983464,23.1583408 93.4291844,25.9428248 C92.9138324,26.7542898 92.5239777,26.9032516 91.6637989,26.2627739 C90.1816536,25.1591815 88.3846034,24.9215382 86.5619888,24.9221178 C76.3946816,24.9250159 66.2270838,24.9024108 56.0597765,24.9516783 C54.8780112,24.9574745 54.4378994,24.7122962 54.5401564,23.4687261 C54.6586816,22.0292452 54.5677542,20.5729554 54.5680447,19.1239108" id="Fill-5" fill="#669F13"></path>
                    <path d="M67.9779441,66.7009713 C67.9779441,62.2468981 68.0267486,58.1913121 67.9477318,54.1380446 C67.9242011,52.9454809 68.3242235,52.707258 69.422905,52.720879 C72.9504804,52.7643503 72.9507709,52.7229076 72.9507709,56.271328 C72.9507709,62.2593599 72.9252067,68.2476815 72.9745922,74.2354236 C72.9833073,75.3056879 72.6846704,75.5578217 71.6066145,75.6546178 C69.5213855,75.8415446 68.1873966,75.1891847 66.9411397,73.4141051 C64.0907263,69.3538822 60.9524246,65.4944968 57.9213184,61.5412134 C57.3943464,61.9249204 57.6133855,62.3961497 57.611352,62.7862325 C57.5921788,66.6493854 57.5724246,70.5131178 57.618905,74.3759809 C57.6305251,75.3251051 57.3368268,75.6125955 56.3848492,75.6265064 C52.6155754,75.6824395 52.6161564,75.713449 52.6161564,72.0169363 C52.6161564,66.0286146 52.6359106,60.0405828 52.5964022,54.052551 C52.5900112,53.0770541 52.8473966,52.8307166 53.8624134,52.6945064 C56.4179665,52.3516624 58.0139888,53.3074522 59.4627263,55.4187102 C62.0496536,59.189414 64.9599106,62.7395732 67.9779441,66.7009713" id="Fill-6" fill="#989898"></path>
                    <path d="M125.707531,66.292051 C125.707531,62.2153089 125.759821,58.2695605 125.677028,54.3264204 C125.650592,53.0614045 125.977989,52.6808854 127.276536,52.7124745 C130.689654,52.7950701 130.691106,52.7304427 130.691106,56.0916465 C130.691106,62.1234395 130.659732,68.1555223 130.718704,74.1867357 C130.730034,75.3506083 130.354413,75.5433312 129.256603,75.6572261 C127.136514,75.8771911 125.815017,75.1300637 124.585899,73.3886019 C121.861274,69.5277675 118.894078,65.837051 116.022168,62.0796783 C115.886793,61.9026051 115.715978,61.7521943 115.329609,61.3444331 L115.329609,66.3323344 C115.329609,68.9864045 115.292134,71.6410541 115.349073,74.293965 C115.369698,75.2619268 115.141073,75.6302739 114.081609,75.6317229 C110.356492,75.6366497 110.356492,75.678672 110.356492,71.9757834 C110.356492,65.9920987 110.37857,60.008414 110.334994,54.0253089 C110.327732,53.0173535 110.637117,52.8095605 111.627441,52.7000127 C114.026413,52.4348376 115.604715,53.1976146 117.004358,55.2738057 C119.427441,58.8683057 122.220916,62.2141497 124.859263,65.6643248 C125.03095,65.8889268 125.141922,66.1775764 125.707531,66.292051" id="Fill-7" fill="#989898"></path>
                    <path d="M103.992156,29.8271338 C101.362525,35.2891624 97.7210726,39.5594968 91.2329832,40.3138694 C83.8283575,41.1748917 77.2548603,37.4583822 74.0683352,30.6461338 C73.5201564,29.4741465 73.1387263,28.2230414 72.7018101,27.0006274 C72.4964246,26.4259363 72.6390615,26.1158408 73.3499218,26.1210573 C76.6843128,26.1445318 80.0187039,26.1413439 83.353095,26.1210573 C83.8649609,26.1178694 84.1252514,26.4010127 84.4282458,26.7227006 C87.5929832,30.0853535 91.0217877,30.1520096 94.3489162,26.9270159 C94.8372514,26.656914 95.3470838,26.6519873 95.887419,26.7458854 C98.3575642,27.1759618 100.705989,28.0601688 103.125877,28.6780414 C103.623799,28.8049777 104.319263,28.9869777 103.992156,29.8271338" id="Fill-8" fill="#243E6A"></path>
                    <path d="M102.506816,8.97190446 C108.075754,-2.77173248 121.444983,-1.44411783 127.906637,5.42232484 C130.177207,7.83527389 131.56581,10.7084395 132.359754,13.9015541 C132.536089,14.6110064 132.390257,14.8443025 131.641922,14.8382166 C128.401944,14.8115541 125.161676,14.8185096 121.921698,14.834449 C121.438302,14.8367675 121.127464,14.6683885 120.829117,14.2925064 C119.117765,12.136328 116.948291,11.194449 114.191709,11.8911497 C113.638302,12.1673376 113.067754,12.083293 112.504469,11.9491115 C109.559352,11.2486433 106.644447,10.4308025 103.712112,9.68048726 C103.248179,9.56166561 102.773497,9.43617834 102.506816,8.97190446" id="Fill-9" fill="#67A014"></path>
                    <path d="M98.3482682,14.9599363 C96.2976089,13.0938567 94.0116425,11.8244936 91.2884693,11.4436847 C90.4669274,11.3289204 89.6195307,11.1979268 88.8462123,11.4903439 C86.5102793,12.3728121 84.0889385,12.0963344 81.689676,12.1189395 C79.2706592,12.1418344 76.8504804,12.083293 74.4326257,12.1427038 C73.3772291,12.1684968 73.3551508,11.811742 73.6598883,10.9637611 C76.1875531,3.93270701 83.9677989,-0.646853503 91.4560894,0.386315287 C95.7177654,0.974047771 99.2229721,2.88736624 102.217475,5.87210828 C102.51524,6.16887261 102.858615,6.39782166 102.491128,6.93483758 C100.797207,9.41009554 99.6139888,12.1571943 98.3482682,14.9599363" id="Fill-10" fill="#233C6B"></path>
                    <path d="M107.068291,26.0706306 C109.782749,28.4580764 112.775218,30.1972197 116.262704,29.5034172 C121.130659,28.534586 125.99019,29.2156369 130.840715,28.9211911 C131.980939,28.8516369 132.106436,29.1570955 131.708156,30.1920032 C127.58505,40.905949 113.723419,44.213828 104.807888,36.5840287 C102.627374,34.7176592 102.622436,34.7147611 104.028179,32.3113758 C105.174793,30.3516879 106.057631,28.2644841 107.068291,26.0706306" id="Fill-11" fill="#669F13"></path>
                    <path d="M155.499173,61.1540287 C155.432358,63.2939777 155.775151,65.8787834 155.314994,68.3975127 C154.216603,74.4093089 149.427665,76.4799936 143.91857,75.7777866 C138.390883,75.0729713 135.698793,71.7998694 135.669453,66.2517675 C135.647665,62.1512611 135.69124,58.0501752 135.645341,53.9499586 C135.634883,53.0106879 135.903307,52.7292834 136.859933,52.7217484 C140.683821,52.6916083 140.647218,52.6582803 140.694279,56.4168121 C140.738145,59.9330637 140.422369,63.4626465 140.863352,66.963828 C141.222994,69.8161274 143.199866,71.4106561 145.904447,71.2547389 C148.603508,71.0991115 150.405497,69.2689682 150.455754,66.4149299 C150.526927,62.3636911 150.521698,58.3098439 150.45314,54.2586051 C150.433095,53.0880669 150.698905,52.6884204 151.947486,52.7133439 C155.498011,52.7840573 155.499173,52.7249363 155.499173,56.2533599 L155.499173,61.1540287" id="Fill-12" fill="#989898"></path>
                    <path d="M160.277654,60.6749745 C160.277654,58.4075096 160.312514,56.139465 160.260514,53.873449 C160.239598,52.9776497 160.557117,52.7431943 161.427464,52.7252261 C165.29667,52.6437898 165.295799,52.6171274 165.296089,56.4933217 C165.29667,59.6771624 165.243218,62.8621624 165.312648,66.0445541 C165.398056,69.971465 168.152313,72.0233121 171.824849,70.9884045 C173.97486,70.3827038 175.063665,68.6426911 175.085743,65.6324459 C175.113922,61.8214586 175.128737,58.0098917 175.070346,54.1997739 C175.053497,53.1048758 175.307687,52.7005924 176.497296,52.7153726 C180.111151,52.7600032 180.111732,52.7069682 180.111732,56.3116115 C180.111732,59.5438503 180.146883,62.776379 180.10476,66.0077484 C180.008022,73.4201911 175.174346,76.4634745 168.715598,75.8143025 C163.194011,75.2593185 160.507151,72.155465 160.308447,66.6073631 C160.237564,64.6323153 160.297117,62.6526306 160.297117,60.6749745 L160.277654,60.6749745" id="Fill-13" fill="#989898"></path>
                    <path d="M86.2174525,52.7455127 C88.9734525,52.7455127 91.7300335,52.7782611 94.4848715,52.726965 C95.3874637,52.7098662 95.6155084,53.0176433 95.6306145,53.8853312 C95.6927821,57.4172325 95.7218324,57.4166529 92.2288268,57.4166529 C88.6835307,57.4166529 88.6835307,57.4166529 88.6835307,60.9833312 C88.6835307,65.4208854 88.6591285,69.8587293 88.7024134,74.2957038 C88.712,75.2813439 88.4392179,75.6233185 87.4064804,75.6294045 C83.664514,75.6517197 83.6648045,75.6891051 83.6648045,72.0079522 C83.6648045,67.5703981 83.6360447,63.1325541 83.6865922,58.6955796 C83.6982123,57.6835669 83.406838,57.343621 82.3842682,57.3960764 C80.8414078,57.4754841 79.2898324,57.3783981 77.7443575,57.4314331 C76.9106145,57.4601242 76.6979665,57.1491592 76.6738547,56.3481274 C76.5660782,52.7446433 76.5408045,52.7452229 80.1256089,52.7452229 C82.1562235,52.7452229 84.186838,52.7452229 86.2174525,52.7455127" id="Fill-14" fill="#989898"></path>
                    <path d="M99.6424581,64.121672 C99.6424581,60.7456879 99.6662793,57.369414 99.6261899,53.9937197 C99.6157318,53.1164682 99.7717318,52.7292834 100.792559,52.7179809 C104.791039,52.6742197 104.791039,52.6350955 104.79133,56.6706847 C104.79162,62.4097707 104.761698,68.1491465 104.81457,73.8879427 C104.82619,75.134121 104.596983,75.6815701 103.163061,75.6424459 C99.6444916,75.5462293 99.6424581,75.6221592 99.6424581,72.0792452 L99.6424581,64.121672" id="Fill-15" fill="#999999"></path>
                    <path d="M59.8429944,86.190621 C59.8429944,87.6645892 59.795933,88.7531115 59.8572291,89.8358376 C59.9101006,90.773949 59.3192179,90.6841083 58.7309497,90.661793 C58.1423911,90.6397675 57.4347263,90.8823376 57.4597095,89.8216369 C57.507352,87.7950032 57.4396648,85.7657611 57.4966034,83.739707 C57.510257,83.2536975 57.0591061,82.4216561 57.9311955,82.3097898 C58.6801117,82.2135732 59.5562682,81.9498471 60.1820112,82.817535 C61.0143017,83.9712643 61.9267709,85.0679013 63.0396872,86.4888344 C63.0396872,85.116879 63.0986592,84.1193567 63.023419,83.1319777 C62.9435307,82.0811306 63.6291173,82.2735637 64.2385922,82.2558854 C64.8939665,82.2364682 65.4624804,82.1756083 65.4296536,83.1719713 C65.3625475,85.1974459 65.4311061,87.2269777 65.3942123,89.2539013 C65.3854972,89.7219427 65.7218994,90.4670414 65.0084246,90.6020924 C64.3042458,90.7354045 63.488514,90.9208822 62.8993743,90.1126051 C62.0020112,88.8820764 61.0302793,87.7054522 59.8429944,86.190621" id="Fill-16" fill="#669F13"></path>
                    <path d="M162.614168,90.7626465 C161.578235,90.7867006 160.583553,90.584414 159.690838,90.0714522 C159.317251,89.8567038 158.451553,89.7465764 158.923911,89.0475573 C159.293721,88.4998185 159.605721,87.3544936 160.743911,88.2395701 C161.158458,88.5624172 161.694726,88.7281879 162.240581,88.7122484 C162.694637,88.6986274 163.359888,88.9278662 163.489453,88.3233248 C163.62686,87.6825573 162.929073,87.6756019 162.500581,87.534465 C161.906503,87.3391338 161.295866,87.1927803 160.700916,86.9997675 C159.608626,86.6450414 159.018615,85.8909586 159.048246,84.7357803 C159.078749,83.5579968 159.659754,82.7143631 160.785743,82.3271783 C162.280961,81.8133471 163.733184,82.0066497 165.122659,82.7276943 C165.523553,82.9354873 165.981676,83.2151529 165.469229,83.6771083 C165.079374,84.0283567 165.147642,85.0719586 164.188983,84.6311592 C163.529251,84.3277293 162.885497,83.9825669 162.128156,84.0758854 C161.835911,84.1118217 161.557028,84.2375987 161.539307,84.5914554 C161.525073,84.8824236 161.767642,85.0206624 161.988425,85.0890573 C162.585989,85.2736656 163.203017,85.395965 163.800291,85.5805732 C165.488983,86.1025191 166.166145,86.9594841 166.00143,88.3262229 C165.833229,89.7239713 164.824603,90.5881815 163.192559,90.7301879 C163.000246,90.7469968 162.806771,90.7522134 162.614168,90.7626465" id="Fill-17" fill="#66A013"></path>
                    <path d="M147.98038,90.7574299 C146.024134,90.7475764 144.430145,89.6512293 143.865117,87.9274459 C143.230078,85.9892038 143.904916,83.8849013 145.51314,82.7888439 C147.071978,81.7261146 149.384961,81.7521975 150.810458,82.9065064 C151.145698,83.1780573 151.976827,83.5226401 151.312447,84.0558885 C150.814525,84.4552452 150.449654,85.6167994 149.336737,84.7456338 C148.317073,83.9469204 147.174816,84.1483376 146.533385,85.0331242 C145.876268,85.9396465 145.989274,87.3385541 146.807039,88.0778567 C147.667508,88.8562834 148.591017,88.7925255 149.419821,88.0764076 C150.452268,87.1846656 150.954838,88.2555096 151.415285,88.6968885 C151.964916,89.2237611 151.133207,89.5663153 150.80552,89.8703248 C150.069095,90.5545637 149.246101,90.7635159 147.98038,90.7574299" id="Fill-18" fill="#66A013"></path>
                    <path d="M122.172112,82.2570446 C122.99162,82.2570446 123.814034,82.2987771 124.629765,82.2454522 C125.435039,82.192707 125.823441,82.3338439 125.829832,83.3064427 C125.836804,84.3068631 125.392045,84.4610414 124.621922,84.3285987 C123.452067,84.1274713 123.254816,84.7079586 123.318436,85.7101178 C123.394257,86.9076083 123.298101,88.115242 123.348648,89.3153408 C123.386123,90.2088217 123.280961,90.7272898 122.138994,90.7067134 C121.097542,90.6878758 120.81314,90.3624204 120.875307,89.3770701 C120.953743,88.1317611 120.837542,86.8742803 120.912782,85.6283917 C120.969721,84.6798471 120.77276,84.1770287 119.687151,84.3219331 C118.961184,84.4187293 118.31162,84.4732134 118.316559,83.2925318 C118.321788,82.0993885 118.989944,82.2515382 119.713587,82.2558854 C120.533095,82.2608121 121.352603,82.2570446 122.172112,82.2570446" id="Fill-19" fill="#67A014"></path>
                    <path d="M111.462436,82.4680255 C110.836402,83.4956879 110.285609,84.5079904 109.630816,85.4481306 C108.751464,86.7105382 108.146637,88.0239522 108.406056,89.6045701 C108.565832,90.5791975 108.031888,90.6948312 107.223419,90.6852675 C106.447486,90.6762834 105.835106,90.6281752 106.037587,89.6297834 C106.413497,87.7764554 105.372916,86.4137739 104.477587,84.9896529 C103.948,84.1471783 103.457631,83.2800701 102.967553,82.4544045 C105.494346,81.4667357 106.287128,83.2018217 107.163866,85.195707 C108.228849,83.5229299 108.819732,81.3374809 111.462436,82.4680255" id="Fill-20" fill="#66A013"></path>
                    <path d="M89.600648,86.4308726 C89.6009385,85.324672 89.6416089,84.2164427 89.5893184,83.1125605 C89.539933,82.0750446 90.2412067,82.2668981 90.8442905,82.2561752 C91.4732291,82.2451624 92.1105922,82.1277898 92.0626592,83.1484968 C91.9949721,84.5882675 92.0876425,86.0352834 92.0304134,87.4759236 C91.9978771,88.3024586 92.2892514,88.6009618 93.1017877,88.5261911 C93.6752402,88.4737357 94.2606034,88.5525637 94.8357989,88.5076433 C95.6463017,88.4447548 96.0684022,88.626465 96.0617207,89.5886306 C96.0553296,90.5244236 95.6814525,90.714828 94.849162,90.6817898 C93.4532961,90.6267261 92.0516201,90.622379 90.6560447,90.6832389 C89.8144581,90.7200446 89.5524246,90.4035732 89.5884469,89.6045701 C89.6363799,88.5485064 89.6003575,87.488965 89.600648,86.4308726" id="Fill-21" fill="#69A117"></path>
                    <path d="M135.832715,86.5430287 C135.833006,87.5553312 135.764737,88.5731401 135.851017,89.5779076 C135.946883,90.6901943 135.302838,90.6525191 134.513542,90.6899045 C133.62838,90.7316369 133.337877,90.4458854 133.363151,89.5495064 C133.423285,87.4307134 133.42619,85.3075732 133.363441,83.1890701 C133.334391,82.2161815 133.869788,82.2353089 134.546369,82.2463217 C135.233408,82.2576242 135.923642,82.1234427 135.849274,83.2189204 C135.774034,84.3222229 135.832715,85.4345096 135.832715,86.5430287" id="Fill-22" fill="#6AA21A"></path>
                    <path d="M102.506816,8.97190446 C106.401877,9.94479299 110.296648,10.9179713 114.191709,11.8911497 C113.598503,12.2563089 113.005296,12.6214682 112.412089,12.9869172 C109.597408,11.9896847 106.666525,11.4436847 103.771084,10.7588662 C103.123844,10.6058471 102.464983,10.4061688 102.006279,9.85437261 C102.075128,9.50486306 102.232,9.20491083 102.506816,8.97190446" id="Fill-23" fill="#649C1A"></path>
                    <path d="M97.0755754,22.0260573 C97.2481341,21.6377134 97.4204022,21.2490796 97.5926704,20.8604459 C98.3192179,20.430949 98.9943464,20.8537803 99.686905,20.9862229 C101.780559,21.3861592 103.780089,22.1451688 105.859508,22.601328 C106.279866,22.6934873 106.710972,22.8146274 106.979978,23.2078981 C106.874816,23.7443344 106.702257,24.2523694 106.35133,24.6850541 C103.229587,23.9017006 100.111039,23.1084936 97.0755754,22.0260573" id="Fill-24" fill="#395E4F"></path>
                    <path d="M99.9776983,14.4843599 C100.171173,14.0035669 100.364358,13.5227739 100.557542,13.0419809 C101.011598,12.7084108 101.502547,12.8585318 101.949631,13.0037261 C104.298637,13.7665032 106.731598,14.2000573 109.106458,14.8585032 C109.607285,14.9973217 110.176089,15.0532548 110.400067,15.6528694 C110.344,16.107 110.097073,16.4605669 109.800469,16.7883408 C108.012134,16.6283662 106.334771,16.0064363 104.61819,15.547379 C103.084335,15.1372994 101.535084,14.7930064 99.9776983,14.4843599" id="Fill-25" fill="#55862D"></path>
                    <path d="M110.400067,15.6528694 C107.119128,14.7825732 103.83848,13.9122771 100.557542,13.0419809 C100.669676,12.7527516 100.78181,12.4638121 100.894235,12.1745828 C101.138257,11.974035 101.42295,11.9667898 101.710547,12.0238822 C104.481073,12.5748089 107.227486,13.2242707 109.904179,14.1354299 C110.345453,14.285551 110.845698,14.4600159 110.703933,15.1167229 C110.602838,15.295535 110.501453,15.4743471 110.400067,15.6528694" id="Fill-26" fill="#588A28"></path>
                    <path d="M99.9776983,14.4843599 C100.316715,14.293086 100.665318,14.1351401 101.068827,14.2409204 C103.787061,14.9538503 106.506168,15.6633025 109.220045,16.3927516 C109.433564,16.4504236 109.608156,16.653 109.800469,16.7883408 C109.705765,16.9880191 109.611061,17.1876975 109.516067,17.3873758 C109.2,17.6708089 108.817698,17.7487675 108.431039,17.6299459 C105.793274,16.8205096 103.064872,16.3626115 100.424201,15.5659268 C100.14038,15.4801433 99.9117542,15.2995924 99.7237989,15.0697739 C99.8083352,14.8747325 99.893162,14.6794013 99.9776983,14.4843599" id="Fill-27" fill="#528131"></path>
                    <path d="M103.992156,29.8271338 C103.981117,29.4225605 103.707754,29.1970892 103.374257,29.1257962 C100.344603,28.4786529 97.4692067,27.201465 94.3489162,26.9270159 C94.5586592,26.6435828 94.7681117,26.3601497 94.9778547,26.0767166 C95.4473073,25.7657516 95.9530726,25.6889522 96.4838212,25.8764586 C98.700648,26.6595223 101.046749,26.936 103.289721,27.6129936 C103.846615,27.7810828 104.597855,27.7738376 104.572,28.6705064 C104.497922,29.1153631 104.304737,29.5010987 103.992156,29.8271338" id="Fill-28" fill="#284366"></path>
                    <path d="M106.136358,25.2452548 C106.05095,25.5449172 106.05124,25.8837038 105.752022,26.0859904 C105.098391,26.512879 104.440983,26.1891624 103.808849,26.0529522 C101.234994,25.4973885 98.7186592,24.7172229 96.1715307,24.0564586 C96.3138771,23.5463949 96.4149721,23.0177834 96.8115084,22.6204554 C99.9991955,23.2148535 103.230168,23.6556529 106.136358,25.2452548" id="Fill-29" fill="#335457"></path>
                    <path d="M106.136358,25.2452548 C103.464313,24.5569586 100.789944,23.8782261 98.1231285,23.1708025 C97.6690726,23.0505318 97.2478436,22.8070924 96.8115084,22.6204554 C96.8995307,22.4222261 96.9875531,22.2242866 97.0755754,22.0260573 C100.178436,22.2497898 103.009095,23.5684204 105.999531,24.2468631 C106.142749,24.2793217 106.235128,24.5340637 106.35133,24.6850541 C106.279575,24.8716911 106.207821,25.0586178 106.136358,25.2452548" id="Fill-30" fill="#365953"></path>
                    <path d="M102.006279,9.85437261 C105.278212,10.939707 108.768022,11.1993758 111.99086,12.4759841 C112.255799,12.5808949 112.372872,12.7333344 112.412089,12.9869172 C112.295888,13.0947261 112.179687,13.2028248 112.063777,13.3109236 C111.728827,13.6146433 111.337229,13.5204554 110.967128,13.4358312 C108.106547,12.7823121 105.292737,11.9473726 102.450749,11.2219809 C102.124223,11.1385159 101.808737,11.0086815 101.610905,10.7038025 C101.625721,10.366465 101.780559,10.0940446 102.006279,9.85437261" id="Fill-31" fill="#61981D"></path>
                    <path d="M108.954816,18.5802293 C108.960335,18.809758 108.917341,19.0172611 108.698883,19.1456465 C108.315128,19.4415414 107.893318,19.3977803 107.461341,19.2891019 C104.900559,18.6445669 102.387419,17.8186115 99.7964246,17.2862325 C99.5137654,17.2279809 99.267419,17.0607611 99.0980559,16.809207 C99.2023464,16.5196879 99.3066369,16.229879 99.4112179,15.9403599 C99.9195978,15.5218758 100.488693,15.5836051 101.048201,15.7740096 C103.274034,16.5315701 105.565229,17.0309108 107.855263,17.5421338 C108.391531,17.6618248 109.037318,17.7635478 108.954816,18.5802293" id="Fill-32" fill="#4B7838"></path>
                    <path d="M99.0980559,16.809207 C102.388872,17.2175478 105.452223,18.5567548 108.698883,19.1456465 C108.609117,19.6762866 108.416223,20.1620064 108.069073,20.5804904 C106.019285,19.5870255 103.748715,19.349672 101.598413,18.7016592 C100.644112,18.413879 99.6096313,18.3396879 98.7912849,17.6786338 C98.7421899,17.3357898 98.9249162,17.0743822 99.0980559,16.809207" id="Fill-33" fill="#48743C"></path>
                    <path d="M98.7912849,17.6786338 C101.714034,18.3802611 104.638235,19.0763822 107.557497,19.7913408 C107.930503,19.8826306 108.043218,20.2231561 108.069073,20.5804904 C108.074592,20.8294363 108.046413,21.0644713 107.80762,21.2125637 C104.949944,20.6028057 102.160246,19.7252643 99.3156425,19.0636306 C98.9911508,18.9879904 98.6759553,18.8500414 98.4781229,18.5469013 C98.4429721,18.207535 98.5876425,17.9325064 98.7912849,17.6786338" id="Fill-34" fill="#456F40"></path>
                    <path d="M108.954816,18.5802293 C108.540849,17.7052962 107.625475,17.8310732 106.935821,17.7238439 C104.884872,17.4047643 102.934145,16.7593599 100.974413,16.1351115 C100.450927,15.9681815 99.9396425,15.9441274 99.4112179,15.9403599 C99.5152179,15.6499713 99.6195084,15.3598726 99.7237989,15.0697739 C102.471084,15.7499554 105.221274,16.419414 107.96362,17.1195924 C108.478391,17.2508758 108.972827,17.4421497 109.516067,17.3873758 C109.468425,17.8504904 109.244156,18.2307197 108.954816,18.5802293" id="Fill-35" fill="#4F7D34"></path>
                    <path d="M110.703933,15.1167229 C109.666547,14.047328 108.196313,14.039793 106.903866,13.6505796 C104.931352,13.0564713 102.900156,12.6568248 100.894235,12.1745828 C101.045006,11.8778185 101.196067,11.5813439 101.346838,11.2845796 C101.820939,11.0451975 102.284291,11.2054618 102.741251,11.335586 C105.130346,12.0146083 107.547911,12.5826338 109.950369,13.2083312 C110.507553,13.3532357 111.23352,13.3622197 111.271575,14.2188949 C111.082458,14.5182675 110.893341,14.8173503 110.703933,15.1167229" id="Fill-36" fill="#5B8F24"></path>
                    <path d="M106.979978,23.2078981 C103.850972,22.425414 100.721966,21.6429299 97.5926704,20.8604459 C97.5798883,20.5289045 97.6902793,20.2431529 97.9145475,19.9997134 C98.331419,19.7777197 98.7564246,19.8959618 99.1762011,19.9791369 C101.430212,20.4260223 103.654592,20.9986847 105.862994,21.6255414 C106.398972,21.7774013 107.157184,21.7660987 107.206279,22.6253822 C107.209765,22.8502739 107.20076,23.069949 106.979978,23.2078981" id="Fill-37" fill="#3D624B"></path>
                    <path d="M104.572,28.6705064 C103.824536,27.7506529 102.663106,27.8764299 101.686436,27.6118344 C99.474257,27.0122197 97.2170503,26.578086 94.9778547,26.0767166 C95.0899888,25.7411178 95.1989274,25.4034904 95.5138324,25.1896115 C96.1694972,24.8030064 96.8330056,25.0933949 97.4636872,25.226707 C99.6142793,25.681707 101.72914,26.2856688 103.821631,26.954258 C104.324492,27.1148121 105.191642,27.1017707 104.863955,28.0888599 C104.877028,28.3380955 104.766927,28.5253121 104.572,28.6705064" id="Fill-38" fill="#2A4762"></path>
                    <path d="M107.206279,22.6253822 C104.981899,21.4626688 102.484447,21.2406752 100.114525,20.5802006 C99.3839106,20.3767548 98.648067,20.1927261 97.9145475,19.9997134 C98.0208715,19.7093248 98.1271955,19.4186465 98.2338101,19.128258 C99.3112849,18.6926752 100.313229,19.2354873 101.264626,19.5177611 C102.960291,20.0208694 104.667575,20.461379 106.378637,20.9010191 C106.872782,21.0276656 107.591777,20.9908599 107.534838,21.8397102 C107.519441,22.1408217 107.480223,22.4320796 107.206279,22.6253822" id="Fill-39" fill="#406747"></path>
                    <path d="M111.271575,14.2188949 C109.542503,13.1155924 107.474704,13.1155924 105.596603,12.4930828 C104.199866,12.030258 102.764782,11.6833567 101.346838,11.2845796 C101.43486,11.0909873 101.522883,10.8973949 101.610905,10.7038025 C105.095196,11.5729395 108.579486,12.4417866 112.063777,13.3109236 C111.799709,13.6134841 111.535642,13.9163344 111.271575,14.2188949" id="Fill-40" fill="#5F9321"></path>
                    <path d="M96.1715307,24.0564586 C97.0154413,23.4713344 97.7306592,24.1239841 98.489162,24.3062739 C100.912536,24.8893694 103.331263,25.4913025 105.752022,26.0859904 C105.677654,26.5453376 105.531821,26.9736752 105.20762,27.3237643 C102.378704,26.5195446 99.5625698,25.668086 96.6682905,25.1142611 C96.3411844,25.0516624 96.0175642,24.9177707 95.8124693,24.6155 C95.9321564,24.4291529 96.0518436,24.2428057 96.1715307,24.0564586" id="Fill-41" fill="#304F5C"></path>
                    <path d="M107.534838,21.8397102 C106.914905,21.0717166 105.968447,21.2032898 105.154458,21.0247675 C102.813006,20.5118057 100.61419,19.4893599 98.2338101,19.128258 C98.2082458,18.8897452 98.282324,18.692965 98.4781229,18.5469013 C101.362235,19.2644682 104.24867,19.9739204 107.127263,20.7135127 C107.380291,20.7787197 107.581899,21.0415764 107.80762,21.2125637 C107.798615,21.4571624 107.767531,21.6921975 107.534838,21.8397102" id="Fill-42" fill="#436B44"></path>
                    <path d="M95.8124693,24.6155 C98.5641117,25.1965669 101.327955,25.7251783 104.002324,26.6209777 C104.457832,26.7734172 104.932804,26.8716624 105.20762,27.3237643 C105.174212,27.6150223 105.119888,27.8970064 104.863955,28.0888599 C104.723642,27.3202866 104.01743,27.4217197 103.518637,27.2637739 C100.888425,26.4299936 98.2140559,25.7585064 95.5138324,25.1896115 C95.5745475,24.9783408 95.526905,24.7105573 95.8124693,24.6155" id="Fill-43" fill="#2D4B5F"></path>
                    <path d="M36.2652067,52.4209268 C29.3198659,52.4006401 24.1006927,57.3746306 24.077162,64.0361783 C24.0533408,70.8200255 29.1269721,75.8916815 35.9749944,75.9296465 C42.9581006,75.9681911 48.2304358,70.9379777 48.257743,64.2115127 C48.2853408,57.4441847 43.1963128,52.4412134 36.2652067,52.4209268 L36.2652067,52.4209268 Z M36.1516201,71.2582166 C32.3390615,71.2445955 29.3370056,68.1004586 29.3410726,64.1254395 C29.3451397,60.0640573 32.238257,57.0851115 36.1719553,57.0923567 C40.0185028,57.0996019 42.9932514,60.1956306 42.9935419,64.1923854 C42.9935419,68.1963854 40.0158883,71.2715478 36.1516201,71.2582166 L36.1516201,71.2582166 Z" id="Fill-44" fill="#989898"></path>
                    <path d="M46.1876201,82.7239268 C45.7963128,81.8452261 43.8156648,81.8463854 43.4278436,82.7224777 C42.2841341,85.3061242 41.2150838,87.9225191 40.0690503,90.6394777 C41.3562682,90.5780382 42.6713743,91.1935924 43.1475084,89.4286561 C43.2718436,88.9684395 46.2538547,88.9339522 46.385743,89.3932994 C46.8793073,91.1124459 48.1534525,90.634551 49.5467039,90.6145541 C48.3710391,87.8364459 47.3185475,85.2626529 46.1876201,82.7239268 L46.1876201,82.7239268 Z M44.0413855,87.1785796 C44.1567151,86.4830382 44.3769162,85.8866115 44.8643799,85.2365701 C45.1307709,85.9071879 45.3492291,86.4578248 45.6031285,87.0980127 C45.0758659,87.3223248 44.5860782,87.2440764 44.0413855,87.1785796 L44.0413855,87.1785796 Z" id="Fill-45" fill="#66A013"></path>
                    <path d="M78.8654078,82.6848025 C78.4767151,81.8174045 76.5059441,81.8869586 76.1152179,82.7673981 C75.0609832,85.1415127 74.0700782,87.5437389 73.059419,89.9369809 C72.953676,90.1876656 72.7828603,90.6287548 73.1863687,90.6052803 C74.043352,90.5560127 75.1257654,91.2118503 75.6489609,89.8309108 C75.9740335,88.9727866 78.8625028,88.7087707 79.142257,89.5237134 C79.7104804,91.180551 80.9509274,90.5189172 82.2889832,90.7125096 C81.0918212,87.8868726 80.0224804,85.2664204 78.8654078,82.6848025 L78.8654078,82.6848025 Z M78.1365363,87.0371529 C77.9857654,87.5286688 77.2368492,87.1417739 76.6288268,87.2547994 C76.908,86.5308567 77.1270391,85.9619618 77.3786145,85.3090223 C77.9546816,85.8037261 78.2992179,86.5073822 78.1365363,87.0371529 L78.1365363,87.0371529 Z" id="Fill-46" fill="#66A013"></path>
                </g>
            </g>
        </g>
    </g>
</svg>