<?xml version="1.0" encoding="UTF-8" standalone="no"?>
<svg
   width="129.34779"
   height="30.4002"
   viewBox="0 0 129.34779 30.4002"
   fill="none"
   version="1.1"
   id="svg930"
   sodipodi:docname="databricks.svg"
   inkscape:version="1.1.1 (3bf5ae0d25, 2021-09-20)"
   xmlns:inkscape="http://www.inkscape.org/namespaces/inkscape"
   xmlns:sodipodi="http://sodipodi.sourceforge.net/DTD/sodipodi-0.dtd"
   xmlns="http://www.w3.org/2000/svg"
   xmlns:svg="http://www.w3.org/2000/svg">
  <defs
     id="defs934" />
  <sodipodi:namedview
     id="namedview932"
     pagecolor="#ffffff"
     bordercolor="#666666"
     borderopacity="1.0"
     inkscape:pageshadow="2"
     inkscape:pageopacity="0.0"
     inkscape:pagecheckerboard="0"
     showgrid="false"
     fit-margin-top="0"
     fit-margin-left="0"
     fit-margin-right="0"
     fit-margin-bottom="0"
     inkscape:zoom="5.6009172"
     inkscape:cx="50.705981"
     inkscape:cy="40.796889"
     inkscape:window-width="1866"
     inkscape:window-height="1016"
     inkscape:window-x="54"
     inkscape:window-y="27"
     inkscape:window-maximized="1"
     inkscape:current-layer="svg930" />
  <path
     d="m 59.877406,19.191211 v -4.8623 c 0,-0.1269 -0.0841,-0.2114 -0.2101,-0.2114 h -1.5971 v -1.9027 h 1.5971 c 0.126,0 0.2101,-0.0846 0.2101,-0.2114 v -3.0442 h 2.2694 v 3.0442 c 0,0.1268 0.0841,0.2114 0.2102,0.2114 h 2.2274 v 1.9027 h -2.2274 c -0.1261,0 -0.2102,0.0845 -0.2102,0.2114 v 4.3127 c 0,2.0295 0.7145,2.1986 1.6391,2.1986 0.3362,0 0.8405,-0.0423 1.1347,-0.0846 v 1.9872 c -0.3782,0.0423 -1.0086,0.1269 -1.7231,0.1269 -0.8826,-0.0423 -3.3201,-0.0423 -3.3201,-3.6785 z m 61.695494,1.1839 1.8492,-0.9725 c 0.4202,0.9725 1.2187,1.6067 2.1433,1.6067 0.7145,0 1.513,-0.296 1.513,-1.1839 0,-0.5919 -0.3782,-0.9302 -1.2608,-1.2261 l -1.2608,-0.4228 c -1.7651,-0.5497 -2.6477,-1.5644 -2.6477,-3.002 0,-1.8181 1.513,-3.1711 3.5723,-3.1711 1.639,0 3.0259,0.8879 3.6983,2.2832 l -1.8491,1.0147 c -0.4203,-0.8879 -1.0927,-1.3952 -1.8912,-1.3952 -0.7986,0 -1.3449,0.4228 -1.3449,1.057 0,0.5496 0.4203,0.9725 1.2608,1.2261 l 1.2608,0.4229 c 1.8492,0.5919 2.7317,1.6066 2.7317,3.0019 0,2.1987 -1.8912,3.3403 -3.7824,3.3403 -1.8912,-0.0423 -3.4042,-1.0148 -3.9925,-2.5792 z m -6.9765,-1.9027 c -0.042,0.0423 -0.084,0.0846 -0.084,0.1269 v 4.059 h -2.3115 v -15.0099 h 2.3115 v 8.2026 c 0,0.0846 0.042,0.1691 0.126,0.1691 0.0841,0.0423 0.1681,0 0.2102,-0.0423 l 3.7404,-3.8053 h 2.8158 l -4.3708,4.4396 c -0.0841,0.0845 -0.0841,0.1691 0,0.2536 l 4.749,5.7926 h -2.8158 l -3.6563,-4.5664 c -0.0421,-0.0423 -0.0841,-0.0846 -0.1261,-0.0846 -0.042,0 -0.0841,0 -0.1261,0.0423 z m -3.5303,-4.8623 -1.4709,1.3953 c -0.8405,-0.6342 -1.6811,-0.9302 -2.6057,-0.9302 -1.9332,0 -3.3621,1.4375 -3.3621,3.3825 0,1.9449 1.4289,3.3825 3.3621,3.3825 0.8406,0 1.7231,-0.296 2.6477,-0.9302 l 1.3029,1.3953 c -1.8912,1.3953 -2.8999,1.649 -4.2027,1.649 -1.555,0 -2.9419,-0.5497 -3.9506,-1.5645 -0.9666,-0.9724 -1.5129,-2.41 -1.5129,-3.9321 0,-3.1711 2.3115,-5.4966 5.5055,-5.4966 1.0507,0 2.6057,0.1691 4.2867,1.649 z m -10.8429,-4.5241 c 0,0.7611 -0.6304,1.3953 -1.3869,1.3953 -0.7565,0 -1.386896,-0.6342 -1.386896,-1.3953 0,-0.7611 0.630396,-1.3953 1.386896,-1.3953 0.7565,0 1.3869,0.6342 1.3869,1.3953 z m -0.2101,13.5723 h -2.311496 v -10.4435 h 2.311496 z m -7.354694,-4.5664 v 4.6087 h -2.3115 v -10.4435 h 2.2694 v 1.2684 c 0,0.0846 0.0421,0.1692 0.1261,0.2114 0.0841,0.0423 0.1681,0 0.2102,-0.0845 0.5883,-0.9725 1.680998,-1.6067 2.857798,-1.6067 0.1681,0 0.2942,0 0.3782,0.0423 v 2.3677 c -0.1261,-0.0423 -0.3362,-0.0423 -0.5463,-0.0423 -1.849198,-0.0422 -2.983898,1.3953 -2.983898,3.6785 z m -12.398,-0.6342 c 0,-1.9027 1.429,-3.3825 3.2781,-3.3825 1.8492,0 3.2781,1.4798 3.2781,3.3825 0,1.9026 -1.4289,3.3825 -3.2781,3.3825 -1.8491,0 -3.2781,-1.4799 -3.2781,-3.3825 z m 0.2102,3.9744 c 0.042,0 0.042,0 0.084,0 0.042,0 0.1261,0.0423 0.1681,0.0846 0.7985,0.9302 1.9753,1.4376 3.3202,1.4376 2.8578,0 5.0432,-2.4101 5.0432,-5.4966 0,-1.5221 -0.5043,-2.8751 -1.471,-3.9322 -0.9245,-1.0147 -2.2274,-1.5644 -3.6143,-1.5644 -1.3028,0 -2.5216,0.5497 -3.3201,1.5221 -0.042,0.0423 -0.1261,0.0846 -0.2101,0.0423 -0.0841,-0.0423 -0.1261,-0.0845 -0.1261,-0.1691 v -5.6657 h -2.3115 v 15.0099 h 2.3115 v -1.0571 c 0,-0.1268 0.042,-0.1691 0.1261,-0.2114 z m -9.5822,-0.5919 c -1.8071,0 -3.2781,-1.4799 -3.2781,-3.3825 0,-1.9027 1.429,-3.3825 3.2781,-3.3825 1.8492,0 3.2781,1.4798 3.2781,3.3825 0,1.9026 -1.4709,3.3825 -3.2781,3.3825 z m 5.4215,1.8181 v -10.4435 h -2.2694 v 1.057 c 0,0.0846 -0.0421,0.1692 -0.1261,0.1692 -0.0841,0.0422 -0.1681,0 -0.2102,-0.0423 -0.7564,-0.9302 -1.9332,-1.4376 -3.3201,-1.4376 -2.8578,0 -5.0432,2.4101 -5.0432,5.4966 0,3.0865 2.2274,5.4966 5.0432,5.4966 1.3028,0 2.5216,-0.5497 3.3201,-1.5222 0.0421,-0.0845 0.1261,-0.0845 0.2102,-0.0423 0.084,0.0423 0.1261,0.0846 0.1261,0.1692 v 1.1416 h 2.2694 z m -24.8799,-1.8181 c -1.8072,0 -3.2781,-1.4799 -3.2781,-3.3825 0,-1.9027 1.4289,-3.3825 3.2781,-3.3825 1.8071,0 3.2781,1.4798 3.2781,3.3825 0,1.9026 -1.471,3.3825 -3.2781,3.3825 z m 5.4215,1.8181 v -10.4435 h -2.2695 v 1.057 c 0,0.0846 -0.042,0.1692 -0.1261,0.1692 -0.084,0.0422 -0.1681,0 -0.2101,-0.0423 -0.7565,-0.9302 -1.9333,-1.4376 -3.3201,-1.4376 -2.8579,0 -5.0433,2.4101 -5.0433,5.4966 0,3.0865 2.2275,5.4966 5.0433,5.4966 1.3028,0 2.5216,-0.5497 3.3201,-1.5222 0.042,-0.0845 0.1261,-0.0845 0.2101,-0.0423 0.0841,0.0423 0.1261,0.0846 0.1261,0.1692 v 1.1416 h 2.2695 z m -17.69337,-1.8181 c -1.84919,0 -3.2781,-1.4799 -3.2781,-3.3825 0,-1.9027 1.42891,-3.3825 3.2781,-3.3825 1.80715,0 3.2781,1.4798 3.2781,3.3825 0,1.9026 -1.47095,3.3825 -3.2781,3.3825 z m 5.42147,1.8181 v -14.9676 h -2.31148 v 5.6234 c 0,0.0846 -0.04203,0.1691 -0.12608,0.1691 -0.08406,0.0423 -0.16811,0 -0.21014,-0.0422 -0.79851,-0.9302 -1.97526,-1.4376 -3.32012,-1.4376 -2.85783,0 -5.04323,2.41 -5.04323,5.4966 0,1.5221 0.504323,2.8751 1.47094,3.9321 0.92459,1.0148 2.22743,1.5644 3.61431,1.5644 1.30284,0 2.52162,-0.5496 3.32013,-1.5221 0.04203,-0.0423 0.12608,-0.0846 0.21013,-0.0423 0.08406,0.0423 0.12608,0.0846 0.12608,0.1692 v 1.0993 h 2.26946 z"
     fill="white"
     id="path926"
     style="fill:#000000;fill-opacity:1" />
  <path
     d="M 26.4769,12.5153 13.9529,19.6185 0.6304,12.0502 0,12.3884 v 5.4966 l 13.9529,7.9489 12.524,-7.1033 V 21.648 L 13.9529,28.7513 0.6304,21.1829 0,21.5212 v 0.9302 l 13.9529,7.9488 13.995,-7.9488 V 16.9548 L 27.3175,16.6165 13.9529,24.1849 1.4709,17.0816 v -2.8751 l 12.482,7.061 13.995,-7.9489 V 7.9066 L 27.2334,7.52607 13.9529,15.0521 2.1433,8.32941 13.9529,1.64897 23.7031,7.14554 24.5857,6.68044 V 6.00394 L 13.9529,0 0,7.9066 v 0.84563 l 13.9529,7.94887 12.524,-7.10325 z"
     fill="#ff3621"
     id="path928" />
</svg>
