<?xml version="1.0" encoding="UTF-8" standalone="no"?>
<svg
   width="300"
   height="90"
   viewBox="0 0 299.99999 90"
   fill="none"
   version="1.1"
   id="svg930"
   sodipodi:docname="databricks.svg"
   inkscape:version="1.1.1 (3bf5ae0d25, 2021-09-20)"
   xmlns:inkscape="http://www.inkscape.org/namespaces/inkscape"
   xmlns:sodipodi="http://sodipodi.sourceforge.net/DTD/sodipodi-0.dtd"
   xmlns="http://www.w3.org/2000/svg"
   xmlns:svg="http://www.w3.org/2000/svg">
  <defs
     id="defs934" />
  <sodipodi:namedview
     id="namedview932"
     pagecolor="#ffffff"
     bordercolor="#666666"
     borderopacity="1.0"
     inkscape:pageshadow="2"
     inkscape:pageopacity="0.0"
     inkscape:pagecheckerboard="0"
     showgrid="false"
     fit-margin-top="0"
     fit-margin-left="0"
     fit-margin-right="0"
     fit-margin-bottom="0"
     inkscape:zoom="2.1916735"
     inkscape:cx="155.13259"
     inkscape:cy="-3.4220425"
     inkscape:window-width="1866"
     inkscape:window-height="1016"
     inkscape:window-x="54"
     inkscape:window-y="27"
     inkscape:window-maximized="1"
     inkscape:current-layer="svg930" />
  <g
     id="g4211"
     transform="translate(0.939865,9.9668725)">
    <path
       d="M 138.0052,44.231824 V 33.025215 c 0,-0.292479 -0.19384,-0.487234 -0.48424,-0.487234 h -3.68099 v -4.385335 h 3.68099 c 0.2904,0 0.48424,-0.194986 0.48424,-0.487234 v -7.01626 h 5.2305 v 7.01626 c 0,0.292248 0.19383,0.487234 0.48447,0.487234 h 5.1337 v 4.385335 h -5.1337 c -0.29064,0 -0.48447,0.194755 -0.48447,0.487234 v 9.939893 c 0,4.677583 1.64678,5.067324 3.77779,5.067324 0.77487,0 1.93718,-0.09749 2.61525,-0.194986 v 4.580091 c -0.87167,0.09749 -2.32461,0.292478 -3.97139,0.292478 -2.03421,-0.09749 -7.65215,-0.09749 -7.65215,-8.478191 z m 142.19552,2.728648 4.26203,-2.241414 c 0.96847,2.241414 2.80885,3.703115 4.93986,3.703115 1.64678,0 3.48716,-0.682219 3.48716,-2.728648 0,-1.364208 -0.87167,-2.143921 -2.90589,-2.82591 L 287.078,41.893147 c -4.0682,-1.266946 -6.10241,-3.605622 -6.10241,-6.918997 0,-4.190349 3.48716,-7.308738 8.23342,-7.308738 3.77756,0 6.97408,2.046428 8.52383,5.26231 l -4.2618,2.338676 c -0.96871,-2.046428 -2.51845,-3.215651 -4.35883,-3.215651 -1.84061,0 -3.09972,0.974468 -3.09972,2.436169 0,1.266716 0.96871,2.241414 2.90589,2.825911 l 2.90588,0.974698 c 4.26203,1.364208 6.29601,3.702885 6.29601,6.918766 0,5.067555 -4.35883,7.69871 -8.71766,7.69871 -4.35883,-0.09749 -7.84598,-2.338907 -9.20189,-5.944529 z m -16.07941,-4.385336 c -0.0968,0.09749 -0.1936,0.194986 -0.1936,0.292479 v 9.355166 h -5.32754 V 17.628026 h 5.32754 v 18.905319 c 0,0.194985 0.0968,0.389741 0.2904,0.389741 0.19383,0.09749 0.38744,0 0.48447,-0.09749 l 8.62086,-8.77044 h 6.48984 l -10.0738,10.232372 c -0.19383,0.194755 -0.19383,0.389741 0,0.584496 l 10.94547,13.35076 h -6.48984 l -8.42702,-10.524619 c -0.097,-0.09749 -0.19384,-0.194986 -0.29064,-0.194986 -0.0968,0 -0.19383,0 -0.29063,0.09749 z m -8.13662,-11.206608 -3.39013,3.215881 c -1.93718,-1.461701 -3.87459,-2.143921 -6.0056,-2.143921 -4.45563,0 -7.74896,3.313144 -7.74896,7.795972 0,4.482598 3.29333,7.795972 7.74896,7.795972 1.93741,0 3.97139,-0.682219 6.10241,-2.143921 l 3.00291,3.215882 c -4.35883,3.215881 -6.68367,3.800608 -9.68636,3.800608 -3.58396,0 -6.78048,-1.266946 -9.10533,-3.605853 -2.22781,-2.241184 -3.48692,-5.554558 -3.48692,-9.062688 0,-7.308738 5.32753,-12.668541 12.68905,-12.668541 2.42165,0 6.00561,0.389741 9.87997,3.800609 z M 230.99402,20.941401 c 0,1.75418 -1.45295,3.215881 -3.19652,3.215881 -1.74358,0 -3.19652,-1.461701 -3.19652,-3.215881 0,-1.754181 1.45294,-3.215882 3.19652,-3.215882 1.74357,0 3.19652,1.461701 3.19652,3.215882 z m -0.48424,31.28138 h -5.32753 V 28.152646 h 5.32753 z M 213.55871,41.698162 v 10.622112 h -5.32753 V 28.250139 h 5.2305 v 2.923403 c 0,0.194986 0.097,0.389971 0.29063,0.487234 0.19384,0.09749 0.38744,0 0.48447,-0.194756 1.35591,-2.241414 3.87436,-3.703115 6.58664,-3.703115 0.38744,0 0.67807,0 0.87168,0.09749 v 5.457065 c -0.29064,-0.09749 -0.77488,-0.09749 -1.25911,-0.09749 -4.26203,-0.09726 -6.87728,3.215882 -6.87728,8.478192 z M 184.98385,40.23646 c 0,-4.385335 3.29356,-7.795972 7.55535,-7.795972 4.26203,0 7.55535,3.410637 7.55535,7.795972 0,4.385105 -3.29332,7.795972 -7.55535,7.795972 -4.26179,0 -7.55535,-3.410867 -7.55535,-7.795972 z m 0.48447,9.160181 c 0.0968,0 0.0968,0 0.1936,0 0.0968,0 0.29064,0.09749 0.38744,0.194986 1.84038,2.143921 4.55266,3.313374 7.65238,3.313374 6.58665,0 11.62355,-5.554788 11.62355,-12.668541 0,-3.50813 -1.16231,-6.626518 -3.39036,-9.062918 -2.13078,-2.338677 -5.1337,-3.605623 -8.33022,-3.605623 -3.00269,0 -5.81177,1.266946 -7.65215,3.50813 -0.0968,0.09749 -0.29064,0.194986 -0.48424,0.09749 -0.19383,-0.09749 -0.29063,-0.194755 -0.29063,-0.389741 V 17.725519 h -5.32754 v 34.594755 h 5.32754 v -2.436399 c 0,-0.292248 0.0968,-0.389741 0.29063,-0.487234 z M 163.3833,48.032432 c -4.16499,0 -7.55535,-3.410867 -7.55535,-7.795972 0,-4.385335 3.29356,-7.795972 7.55535,-7.795972 4.26203,0 7.55536,3.410637 7.55536,7.795972 0,4.385105 -3.39013,7.795972 -7.55536,7.795972 z m 12.49546,4.190349 V 28.152646 h -5.23051 v 2.436169 c 0,0.194986 -0.097,0.389972 -0.29063,0.389972 -0.19384,0.09726 -0.38744,0 -0.48447,-0.09749 -1.74335,-2.143921 -4.45563,-3.313375 -7.65215,-3.313375 -6.58665,0 -11.62355,5.554789 -11.62355,12.668541 0,7.113753 5.1337,12.668541 11.62355,12.668541 3.00268,0 5.81177,-1.266946 7.65215,-3.50836 0.097,-0.194755 0.29063,-0.194755 0.48447,-0.09749 0.1936,0.09749 0.29063,0.194986 0.29063,0.389971 v 2.631155 h 5.23051 z m -57.34309,-4.190349 c -4.16523,0 -7.55536,-3.410867 -7.55536,-7.795972 0,-4.385335 3.29333,-7.795972 7.55536,-7.795972 4.16499,0 7.55535,3.410637 7.55535,7.795972 0,4.385105 -3.39036,7.795972 -7.55535,7.795972 z m 12.49545,4.190349 V 28.152646 h -5.23074 v 2.436169 c 0,0.194986 -0.0968,0.389972 -0.29063,0.389972 -0.19361,0.09726 -0.38744,0 -0.48424,-0.09749 -1.74358,-2.143921 -4.45586,-3.313375 -7.65215,-3.313375 -6.58688,0 -11.62378,5.554789 -11.62378,12.668541 0,7.113753 5.13393,12.668541 11.62378,12.668541 3.00268,0 5.81177,-1.266946 7.65215,-3.50836 0.0968,-0.194755 0.29063,-0.194755 0.48424,-0.09749 0.19383,0.09749 0.29063,0.194986 0.29063,0.389971 v 2.631155 h 5.23074 z M 90.25151,48.032432 c -4.262006,0 -7.555351,-3.410867 -7.555351,-7.795972 0,-4.385335 3.293345,-7.795972 7.555351,-7.795972 4.165112,0 7.555351,3.410637 7.555351,7.795972 0,4.385105 -3.390239,7.795972 -7.555351,7.795972 z m 12.49538,4.190349 V 17.725519 h -5.327488 v 12.960789 c 0,0.194986 -0.09687,0.389741 -0.290589,0.389741 -0.193741,0.09749 -0.387459,0 -0.48433,-0.09726 -1.840402,-2.143922 -4.552571,-3.313375 -7.652198,-3.313375 -6.586715,0 -11.623616,5.554558 -11.623616,12.668541 0,3.50813 1.162362,6.626519 3.390216,9.062688 2.130992,2.338907 5.133772,3.605622 8.330247,3.605622 3.00278,0 5.81182,-1.266715 7.652222,-3.508129 0.09687,-0.09749 0.290589,-0.194986 0.484307,-0.09749 0.193741,0.09749 0.290588,0.194986 0.290588,0.389971 v 2.533662 h 5.230641 z"
       fill="white"
       id="path926"
       style="fill:#000000;fill-opacity:1;stroke-width:2.3048" />
    <path
       d="M 61.02385,28.845212 32.158586,45.216638 1.4529433,27.773251 0,28.552733 V 41.221274 L 32.158586,59.541866 61.02385,43.170209 v 6.724012 L 32.158586,66.265877 1.4529433,48.82226 0,49.601973 v 2.143921 L 32.158586,70.066255 64.414204,51.745894 V 39.077353 L 62.961261,38.29764 32.158586,55.741257 3.3901242,39.369601 V 32.743082 L 32.158586,49.017246 64.414204,30.696654 V 18.223099 L 62.767428,17.346055 32.158586,34.692018 4.939869,19.19759 32.158586,3.8005392 54.630807,16.469011 56.66502,15.39705 V 13.837856 L 32.158586,0 0,18.223099 v 1.949004 L 32.158586,38.492626 61.02385,22.121085 Z"
       fill="#ff3621"
       id="path928"
       style="stroke-width:2.3048" />
  </g>
</svg>
