<?xml version="1.0" encoding="UTF-8" standalone="no"?>
<svg width="38px" height="37px" viewBox="0 0 38 37" version="1.1" xmlns="http://www.w3.org/2000/svg" xmlns:xlink="http://www.w3.org/1999/xlink" xmlns:sketch="http://www.bohemiancoding.com/sketch/ns">
    <!-- Generator: Sketch 3.3.3 (12072) - http://www.bohemiancoding.com/sketch -->
    <title>donations-icon copy</title>
    <desc>Created with Sketch.</desc>
    <defs>
        <linearGradient x1="10.0388812%" y1="10.8051788%" x2="74.6092105%" y2="100%" id="linearGradient-1">
            <stop stop-color="#FF5E3A" offset="0%"></stop>
            <stop stop-color="#FF2A68" offset="100%"></stop>
        </linearGradient>
    </defs>
    <g id="Page-1" stroke="none" stroke-width="1" fill="none" fill-rule="evenodd" sketch:type="MSPage">
        <g id="donations-icon-copy" sketch:type="MSLayerGroup" transform="translate(-1.000000, 0.000000)" fill="url(#linearGradient-1)">
            <g id="Page-1" sketch:type="MSShapeGroup">
                <g id="About---Desktop-Copy">
                    <g id="Imported-Layers-+-Imported-Layers-Copy-2-+-Imported-Layers-Copy-3">
                        <path d="M26.3886674,1.0606403 C30.5905246,0.3716228 34.1463491,1.6308647 36.8011144,5.0583238 C38.0803047,6.709822 38.650764,8.6638395 38.7919458,10.7340811 C39.1318051,15.7187835 37.5792459,20.1413227 34.7749214,24.1821473 C31.833736,28.4201631 28.0669764,31.7905731 23.8192638,34.6437327 C22.6494211,35.4294855 21.4212009,36.1286018 20.20612,36.8439292 C20.0673191,36.9256049 19.8005639,36.9247191 19.6585884,36.844815 C13.6063762,33.4401224 8.31192512,29.1742909 4.47294323,23.2710461 C2.15689093,19.7094687 0.907859379,15.8151645 1.00530218,11.5418917 C1.08140457,8.2059414 2.18105322,5.3065402 4.844725,3.1478017 C8.80107918,-0.0583709 14.8383884,0.1174712 18.3342481,3.5726575 C18.9348662,4.166357 19.41238,4.8858479 19.9785183,5.5865587 C20.0021515,5.5560853 23.6448368,1.5105657 26.3886674,1.0606403 L26.3886674,1.0606403 Z" id="Imported-Layers"></path>
                    </g>
                </g>
            </g>
        </g>
    </g>
</svg>