<?xml version="1.0" encoding="UTF-8" standalone="no"?>
<svg width="63px" height="49px" viewBox="0 0 63 49" version="1.1" xmlns="http://www.w3.org/2000/svg" xmlns:xlink="http://www.w3.org/1999/xlink" xmlns:sketch="http://www.bohemiancoding.com/sketch/ns">
    <!-- Generator: Sketch 3.3.3 (12072) - http://www.bohemiancoding.com/sketch -->
    <title>donations-icon</title>
    <desc>Created with Sketch.</desc>
    <defs>
        <linearGradient x1="10.0388812%" y1="10.8051788%" x2="74.6092105%" y2="100%" id="linearGradient-1">
            <stop stop-color="#FF5E3A" offset="0%"></stop>
            <stop stop-color="#FF2A68" offset="100%"></stop>
        </linearGradient>
    </defs>
    <g id="Page-1" stroke="none" stroke-width="1" fill="none" fill-rule="evenodd" sketch:type="MSPage">
        <g id="donations-icon" sketch:type="MSLayerGroup" transform="translate(-1.000000, -1.000000)" fill="url(#linearGradient-1)">
            <g id="Page-1" sketch:type="MSShapeGroup">
                <g id="About---Desktop-Copy">
                    <g id="Imported-Layers-+-Imported-Layers-Copy-2-+-Imported-Layers-Copy-3">
                        <path d="M26.3886674,14.0606403 C30.5905246,13.3716228 34.1463491,14.6308647 36.8011144,18.0583238 C38.0803047,19.709822 38.650764,21.6638395 38.7919458,23.7340811 C39.1318051,28.7187835 37.5792459,33.1413227 34.7749214,37.1821473 C31.833736,41.4201631 28.0669764,44.7905731 23.8192638,47.6437327 C22.6494211,48.4294855 21.4212009,49.1286018 20.20612,49.8439292 C20.0673191,49.9256049 19.8005639,49.9247191 19.6585884,49.844815 C13.6063762,46.4401224 8.31192512,42.1742909 4.47294323,36.2710461 C2.15689093,32.7094687 0.907859379,28.8151645 1.00530218,24.5418917 C1.08140457,21.2059414 2.18105322,18.3065402 4.844725,16.1478017 C8.80107918,12.9416291 14.8383884,13.1174712 18.3342481,16.5726575 C18.9348662,17.166357 19.41238,17.8858479 19.9785183,18.5865587 C20.0021515,18.5560853 23.6448368,14.5105657 26.3886674,14.0606403 L26.3886674,14.0606403 Z" id="Imported-Layers"></path>
                        <path d="M51.7174407,3.92039053 C52.6430802,2.36067485 54.0386421,1.41581455 55.8280969,1.12949838 C58.5684385,0.691032691 60.8874545,1.49236848 62.6188231,3.67347877 C63.4530777,4.7244322 63.8251163,5.96789789 63.9171914,7.28532436 C64.1388388,10.4574077 63.1263002,13.2717508 61.2973929,15.8431847 C59.3792285,18.5401038 56.9226462,20.6849101 54.1523989,22.5005572 C53.3894579,23.0005817 52.5884447,23.4454739 51.7960007,23.9006822 C51.7054784,23.9526577 51.5315076,23.952094 51.4389149,23.9012459 C47.49182,21.7346234 44.0389171,19.0200033 41.5352332,15.263393 C40.0247644,12.9969347 39.2101786,10.518741 39.2737282,7.79938563 C39.3233602,5.67650818 40.0405224,3.83143465 41.7776996,2.457692 C44.3579306,0.417400338 48.2953062,0.529299848 50.5752147,2.72805475 C50.9669221,3.10586357 51.2783442,3.56372142 51.6475648,4.00962828 C51.6629777,3.99023612 51.6950689,3.95810377 51.7174407,3.92039053 L51.7174407,3.92039053 Z" id="Imported-Layers-Copy-2"></path>
                        <path d="M54.6304644,33.597366 C55.1858481,32.7060999 56.0231853,32.1661797 57.0968581,32.0025705 C58.7410631,31.7520187 60.1324727,32.2099248 61.1712939,33.4562736 C61.6718466,34.0568184 61.8950698,34.7673702 61.9503149,35.5201853 C62.0833033,37.3328044 61.4757801,38.9410005 60.3784357,40.4103912 C59.2275371,41.9514879 57.7535877,43.1770915 56.0914393,44.2146041 C55.6336748,44.5003324 55.1530668,44.7545565 54.6776004,45.0146755 C54.623287,45.0443758 54.5189046,45.0440537 54.4633489,45.0149977 C52.095092,43.7769276 50.0233503,42.2257162 48.5211399,40.0790817 C47.6148586,38.7839627 47.1261071,37.367852 47.1642369,35.8139346 C47.1940161,34.6008618 47.6243134,33.5465341 48.6666198,32.7615383 C50.2147584,31.5956573 52.5771837,31.6595999 53.9451288,32.9160313 C54.1801533,33.131922 54.3670065,33.3935551 54.5885389,33.648359 C54.5977866,33.6372778 54.6170413,33.6189164 54.6304644,33.597366 L54.6304644,33.597366 Z" id="Imported-Layers-Copy-3"></path>
                    </g>
                </g>
            </g>
        </g>
    </g>
</svg>