<?xml version="1.0" encoding="UTF-8" standalone="no"?>
<svg width="67px" height="53px" viewBox="0 0 67 53" version="1.1" xmlns="http://www.w3.org/2000/svg" xmlns:xlink="http://www.w3.org/1999/xlink" xmlns:sketch="http://www.bohemiancoding.com/sketch/ns">
    <!-- Generator: Sketch 3.3.3 (12072) - http://www.bohemiancoding.com/sketch -->
    <title>Imported Layers + Imported Layers Copy 2 + Imported Layers Copy 3</title>
    <desc>Created with Sketch.</desc>
    <defs></defs>
    <g id="Page-1" stroke="none" stroke-width="1" fill="none" fill-rule="evenodd" sketch:type="MSPage">
        <g id="About---Desktop-Copy" sketch:type="MSArtboardGroup" transform="translate(-567.000000, -469.000000)" stroke="#766A6A" stroke-width="2.5">
            <g id="Imported-Layers-+-Imported-Layers-Copy-2-+-Imported-Layers-Copy-3" sketch:type="MSLayerGroup" transform="translate(569.000000, 471.000000)">
                <path d="M25.3886674,13.0606403 C29.5905246,12.3716228 33.1463491,13.6308647 35.8011144,17.0583238 C37.0803047,18.709822 37.650764,20.6638395 37.7919458,22.7340811 C38.1318051,27.7187835 36.5792459,32.1413227 33.7749214,36.1821473 C30.833736,40.4201631 27.0669764,43.7905731 22.8192638,46.6437327 C21.6494211,47.4294855 20.4212009,48.1286018 19.20612,48.8439292 C19.0673191,48.9256049 18.8005639,48.9247191 18.6585884,48.844815 C12.6063762,45.4401224 7.31192512,41.1742909 3.47294323,35.2710461 C1.15689093,31.7094687 -0.0921406207,27.8151645 0.00530218258,23.5418917 C0.081404571,20.2059414 1.18105322,17.3065402 3.844725,15.1478017 C7.80107918,11.9416291 13.8383884,12.1174712 17.3342481,15.5726575 C17.9348662,16.166357 18.41238,16.8858479 18.9785183,17.5865587 C19.0021515,17.5560853 22.6448368,13.5105657 25.3886674,13.0606403 Z" id="Imported-Layers" sketch:type="MSShapeGroup"></path>
                <path d="M50.7174407,2.92039053 C51.6430802,1.36067485 53.0386421,0.415814553 54.8280969,0.129498377 C57.5684385,-0.308967309 59.8874545,0.492368475 61.6188231,2.67347877 C62.4530777,3.7244322 62.8251163,4.96789789 62.9171914,6.28532436 C63.1388388,9.45740769 62.1263002,12.2717508 60.2973929,14.8431847 C58.3792285,17.5401038 55.9226462,19.6849101 53.1523989,21.5005572 C52.3894579,22.0005817 51.5884447,22.4454739 50.7960007,22.9006822 C50.7054784,22.9526577 50.5315076,22.952094 50.4389149,22.9012459 C46.49182,20.7346234 43.0389171,18.0200033 40.5352332,14.263393 C39.0247644,11.9969347 38.2101786,9.51874102 38.2737282,6.79938563 C38.3233602,4.67650818 39.0405224,2.83143465 40.7776996,1.457692 C43.3579306,-0.582599662 47.2953062,-0.470700152 49.5752147,1.72805475 C49.9669221,2.10586357 50.2783442,2.56372142 50.6475648,3.00962828 C50.6629777,2.99023612 50.6950689,2.95810377 50.7174407,2.92039053 Z" id="Imported-Layers-Copy-2" sketch:type="MSShapeGroup"></path>
                <path d="M53.6304644,32.597366 C54.1858481,31.7060999 55.0231853,31.1661797 56.0968581,31.0025705 C57.7410631,30.7520187 59.1324727,31.2099248 60.1712939,32.4562736 C60.6718466,33.0568184 60.8950698,33.7673702 60.9503149,34.5201853 C61.0833033,36.3328044 60.4757801,37.9410005 59.3784357,39.4103912 C58.2275371,40.9514879 56.7535877,42.1770915 55.0914393,43.2146041 C54.6336748,43.5003324 54.1530668,43.7545565 53.6776004,44.0146755 C53.623287,44.0443758 53.5189046,44.0440537 53.4633489,44.0149977 C51.095092,42.7769276 49.0233503,41.2257162 47.5211399,39.0790817 C46.6148586,37.7839627 46.1261071,36.367852 46.1642369,34.8139346 C46.1940161,33.6008618 46.6243134,32.5465341 47.6666198,31.7615383 C49.2147584,30.5956573 51.5771837,30.6595999 52.9451288,31.9160313 C53.1801533,32.131922 53.3670065,32.3935551 53.5885389,32.648359 C53.5977866,32.6372778 53.6170413,32.6189164 53.6304644,32.597366 Z" id="Imported-Layers-Copy-3" sketch:type="MSShapeGroup"></path>
            </g>
        </g>
    </g>
</svg>