<svg width="500" height="500" viewBox="0 0 500 500" fill="none" xmlns="http://www.w3.org/2000/svg">
<path d="M250 494C384.757 494 494 384.757 494 250C494 115.243 384.757 6 250 6C115.243 6 6 115.243 6 250C6 384.757 115.243 494 250 494Z" fill="#333333"/>
<path d="M356 295.9C356.624 301.629 356.197 307.424 354.74 313C353.386 318.607 350.984 323.906 347.66 328.62C347.327 342.953 342.767 354.023 333.98 361.83C324.54 370.61 310.707 375 292.48 375H281.74C269.072 375.121 256.439 373.646 244.14 370.61C235.832 368.372 227.678 365.596 219.73 362.3C213.87 360.02 209.637 358.393 207.03 357.42C203.08 356.164 198.965 355.507 194.82 355.47C193.832 358.74 191.876 361.634 189.21 363.77C186.546 366.008 183.17 367.221 179.69 367.19H148.44C144.312 367.133 140.37 365.468 137.451 362.549C134.532 359.63 132.867 355.688 132.81 351.56V234.38C132.867 230.252 134.532 226.31 137.451 223.391C140.37 220.472 144.312 218.807 148.44 218.75H196.78C200.033 215.817 205.567 209.223 213.38 198.97C221.193 188.717 226.89 181.8 230.47 178.22C231.803 176.933 233.267 172.213 234.86 164.06C237.787 152.34 240.717 143.877 243.65 138.67C248.863 129.557 256.027 125 265.14 125C279.807 125 291.2 129.07 299.32 137.21C307.773 145.997 312 159.017 312 176.27C311.962 183.966 310.473 191.586 307.61 198.73H325.2C330.781 198.635 336.319 199.717 341.453 201.905C346.588 204.093 351.204 207.339 355 211.43C363.127 219.89 367.197 229.653 367.21 240.72C367.171 249.327 364.808 257.765 360.37 265.14C362.689 275.584 361.136 286.515 356 295.9ZM338.17 274.66C338.33 268.307 336.623 263.18 333.05 259.28C335.32 259.28 337.69 257.28 340.13 253.42C342.539 249.624 343.81 245.216 343.79 240.72C343.79 236.167 342 231.937 338.42 228.03C336.778 226.157 334.75 224.663 332.474 223.652C330.198 222.64 327.73 222.134 325.24 222.17H274.41C274.467 217.997 275.298 213.87 276.86 210C278.032 206.466 279.501 203.037 281.25 199.75C283.52 195.19 285.16 191.61 286.13 189C287.724 184.958 288.551 180.655 288.57 176.31C288.57 167.85 287.593 161.663 285.64 157.75C282.06 151.577 275.227 148.487 265.14 148.48C263.209 150.975 261.721 153.782 260.74 156.78C259.747 160.141 258.932 163.553 258.3 167C257 173.52 255.86 178.403 254.88 181.65C253.1 186.592 250.268 191.089 246.58 194.83C243.967 197.443 239.247 203.303 232.42 212.41C225.26 222.177 219.89 228.843 216.31 232.41C210.123 238.93 204.913 242.187 200.68 242.18H195.31V333C201.41 333.074 207.479 333.893 213.38 335.44C219.35 337.094 225.231 339.053 231 341.31C240.76 344.563 248.247 346.84 253.46 348.14C261.906 350.375 270.603 351.525 279.34 351.56H297.4C306.84 351.56 313.84 349.12 318.4 344.24C323.6 339.04 325.39 330.74 323.77 319.34C327.677 317.06 330.443 313.06 332.07 307.34C332.896 304.731 333.192 301.983 332.941 299.258C332.69 296.532 331.898 293.885 330.61 291.47C332.909 289.301 334.756 286.7 336.047 283.815C337.337 280.93 338.045 277.819 338.13 274.66H338.17Z" fill="white"/>
</svg>
