<svg width="120" height="120" viewBox="0 0 120 120" fill="none" xmlns="http://www.w3.org/2000/svg">
<path d="M59.9999 118.56C92.3417 118.56 118.56 92.3418 118.56 60C118.56 27.6582 92.3417 1.44 59.9999 1.44C27.6581 1.44 1.43994 27.6582 1.43994 60C1.43994 92.3418 27.6581 118.56 59.9999 118.56Z" fill="#4F4F4F"/>
<path d="M85.4401 71.016C85.5898 72.391 85.4873 73.7818 85.1377 75.12C84.8128 76.4656 84.2363 77.7375 83.4385 78.8688C83.3585 82.3088 82.2641 84.9656 80.1553 86.8392C77.8897 88.9464 74.5697 90 70.1953 90H67.6177C64.5774 90.0291 61.5455 89.6752 58.5937 88.9464C56.5997 88.4093 54.6428 87.7431 52.7353 86.952C51.3289 86.4048 50.3129 86.0144 49.6873 85.7808C48.7394 85.4794 47.7516 85.3216 46.7569 85.3128C46.5199 86.0977 46.0504 86.7922 45.4105 87.3048C44.7711 87.8419 43.9608 88.133 43.1257 88.1256H35.6257C34.6351 88.1119 33.6889 87.7123 32.9883 87.0118C32.2878 86.3112 31.8882 85.365 31.8745 84.3744V56.2512C31.8882 55.2606 32.2878 54.3144 32.9883 53.6138C33.6889 52.9133 34.6351 52.5137 35.6257 52.5H47.2273C48.0081 51.796 49.3361 50.2136 51.2113 47.7528C53.0865 45.292 54.4537 43.632 55.3129 42.7728C55.6329 42.464 55.9841 41.3312 56.3665 39.3744C57.0689 36.5616 57.7721 34.5304 58.4761 33.2808C59.7273 31.0936 61.4465 30 63.6337 30C67.1537 30 69.8881 30.9768 71.8369 32.9304C73.8657 35.0392 74.8801 38.164 74.8801 42.3048C74.871 44.1519 74.5136 45.9806 73.8265 47.6952H78.0481C79.3875 47.6724 80.7166 47.932 81.9489 48.4572C83.1812 48.9824 84.289 49.7613 85.2001 50.7432C87.1505 52.7736 88.1273 55.1168 88.1305 57.7728C88.1211 59.8386 87.5539 61.8635 86.4889 63.6336C87.0455 66.1402 86.6728 68.7636 85.4401 71.016V71.016ZM81.1609 65.9184C81.1993 64.3936 80.7897 63.1632 79.9321 62.2272C80.4769 62.2272 81.0457 61.7472 81.6313 60.8208C82.2096 59.9097 82.5144 58.8519 82.5097 57.7728C82.5097 56.68 82.0801 55.6648 81.2209 54.7272C80.8269 54.2778 80.34 53.9192 79.7939 53.6764C79.2477 53.4336 78.6553 53.3122 78.0577 53.3208H65.8585C65.8722 52.3192 66.0715 51.3289 66.4465 50.4C66.7279 49.5518 67.0803 48.7289 67.5001 47.94C68.0449 46.8456 68.4385 45.9864 68.6713 45.36C69.0539 44.3899 69.2524 43.3571 69.2569 42.3144C69.2569 40.284 69.0225 38.7992 68.5537 37.86C67.6945 36.3784 66.0545 35.6368 63.6337 35.6352C63.1704 36.2339 62.8132 36.9077 62.5777 37.6272C62.3393 38.4339 62.1438 39.2526 61.9921 40.08C61.6801 41.6448 61.4065 42.8168 61.1713 43.596C60.7441 44.7821 60.0644 45.8614 59.1793 46.7592C58.5521 47.3864 57.4193 48.7928 55.7809 50.9784C54.0625 53.3224 52.7737 54.9224 51.9145 55.7784C50.4297 57.3432 49.1793 58.1248 48.1633 58.1232H46.8745V79.92C48.3386 79.9377 49.795 80.1344 51.2113 80.5056C52.6441 80.9025 54.0556 81.3727 55.4401 81.9144C57.7825 82.6952 59.5793 83.2416 60.8305 83.5536C62.8576 84.0901 64.9448 84.3659 67.0417 84.3744H71.3761C73.6417 84.3744 75.3217 83.7888 76.4161 82.6176C77.6641 81.3696 78.0937 79.3776 77.7049 76.6416C78.6425 76.0944 79.3065 75.1344 79.6969 73.7616C79.8951 73.1354 79.9661 72.4759 79.906 71.8218C79.8458 71.1678 79.6556 70.5324 79.3465 69.9528C79.8981 69.4323 80.3415 68.8079 80.6513 68.1156C80.961 67.4233 81.1309 66.6766 81.1513 65.9184H81.1609Z" fill="white"/>
</svg>
