<?xml version="1.0" encoding="utf-8"?>
<!-- Generator: Adobe Illustrator 16.0.0, SVG Export Plug-In . SVG Version: 6.00 Build 0)  -->
<!DOCTYPE svg PUBLIC "-//W3C//DTD SVG 1.1//EN" "http://www.w3.org/Graphics/SVG/1.1/DTD/svg11.dtd">
<svg version="1.1" id="Layer_1" xmlns="http://www.w3.org/2000/svg" xmlns:xlink="http://www.w3.org/1999/xlink" x="0px" y="0px"
	 width="420px" height="113.39px" viewBox="0 0 420 113.39" enable-background="new 0 0 420 113.39" xml:space="preserve">
<g>
	<defs>
		<rect id="SVGID_1_" y="0.002" width="609.449" height="113.386"/>
	</defs>
	<clipPath id="SVGID_2_">
		<use xlink:href="#SVGID_1_"  overflow="visible"/>
	</clipPath>
	<path clip-path="url(#SVGID_2_)" fill="#BCBEC0" d="M16.866,41.015c0,0,52.027-6.783,53.497-7.026
		c2.253-0.369,4.252-0.803,6.118-1.325c4.206-1.158,8.082-2.932,11.511-5.267c3.286-2.223,6.346-5.456,9.376-9.001
		c1.929-2.257,3.954-5.199,5.842-8.039V8.987c-2.24,3.341-4.447,6.22-6.717,8.764c-3.008,3.374-6.164,6.133-9.382,8.205
		c-3.318,2.155-7.056,3.763-11.104,4.781c-1.816,0.459-3.761,0.833-5.945,1.141c-1.44,0.203-2.925,0.359-4.36,0.512
		c-0.572,0.06-48.836,5.22-48.836,5.22V41.015z"/>
	<path clip-path="url(#SVGID_2_)" fill="#BCBEC0" d="M86.637,32.223c-3.256,1.889-7.018,3.268-11.177,4.106
		c-1.779,0.361-3.715,0.655-5.925,0.898c-1.297,0.141-2.604,0.256-3.913,0.369c-0.705,0.062-1.412,0.123-2.115,0.188
		c-15.946,1.442-31.806,2.973-46.641,4.425v3.401c14.953-1.818,30.924-3.742,46.862-5.558c0.71-0.085,1.417-0.164,2.127-0.241
		c1.307-0.146,2.614-0.291,3.926-0.465c2.267-0.305,4.252-0.654,6.065-1.068c4.322-0.973,8.227-2.511,11.601-4.57
		c3.354-2.029,6.319-4.869,9.505-8.34c1.984-2.163,4.191-5.213,6.258-8.08v-1.247c-2.433,3.327-4.743,6.121-7.028,8.504
		C93.071,27.792,89.861,30.374,86.637,32.223"/>
	<path clip-path="url(#SVGID_2_)" fill="#BCBEC0" d="M95.743,31.39c-3.176,2.935-6.489,5.243-9.853,6.861
		c-3.289,1.597-6.969,2.719-11.251,3.428c-1.768,0.296-3.689,0.538-5.872,0.738L16.866,46.71v3.394l46.135-4.934l5.97-0.632
		c2.247-0.261,4.209-0.557,5.995-0.898c4.435-0.843,8.24-2.105,11.631-3.853c3.467-1.766,6.928-4.706,10.149-7.816
		c2.16-2.087,4.239-4.781,6.464-7.605v-1.132C100.642,26.451,98.191,29.132,95.743,31.39"/>
	<path clip-path="url(#SVGID_2_)" fill="#BCBEC0" d="M83.193,49.014c-3.023,1.704-5.283,2.684-9.597,3.138
		c-2.606,0.281-5.288,0.417-7.882,0.547c-1.254,0.063-2.51,0.126-3.765,0.206c-7.841,0.451-15.539,0.953-23.396,1.467l-21.687,1.473
		v3.394l21.903-2.026c7.079-0.64,15.304-1.378,23.333-2.037l5.837-0.454c2.278-0.178,4.147-0.367,5.88-0.592
		c4.44-0.577,8.233-1.483,11.591-2.762c3.62-1.365,7.031-3.481,10.45-5.97c3.08-2.242,7.345-6.667,7.35-6.725v-1.199
		c-2.787,2.739-4.392,4.279-7.445,6.304C92.118,46.2,85.902,47.486,83.193,49.014"/>
	<path clip-path="url(#SVGID_2_)" fill="#BCBEC0" d="M84.294,55.46c-3.273,0.968-6.958,1.623-11.265,2.002
		c-1.746,0.153-3.627,0.27-5.755,0.355l-5.806,0.257c-14.423,0.677-28.779,1.432-44.602,2.274v3.383
		c15.115-1.178,29.928-2.324,44.735-3.386l5.787-0.398c2.235-0.148,4.086-0.309,5.829-0.507c4.417-0.497,8.193-1.264,11.544-2.345
		c3.715-1.187,7.337-2.906,10.763-5.11c2.529-1.623,5.06-3.56,7.686-5.867v-0.06c-2.894,2.488-5.651,3.04-8.398,4.712
		C91.445,52.826,87.909,54.404,84.294,55.46"/>
	<path clip-path="url(#SVGID_2_)" fill="#BCBEC0" d="M83.76,61.084c-3.298,0.776-6.871,1.275-11.247,1.569
		c-1.688,0.116-3.502,0.201-5.712,0.271l-5.752,0.206c-14.486,0.552-29.175,1.186-44.183,1.841v3.384
		c14.913-1.025,29.542-2.021,44.296-2.953l5.737-0.346c2.25-0.13,4.083-0.261,5.766-0.416c4.458-0.414,8.105-1.019,11.479-1.898
		c3.783-0.981,7.462-2.422,10.932-4.28c2.684-1.432,5.36-3.155,8.134-5.232v-1.445c-2.997,2.18-5.872,3.958-8.752,5.408
		C91.052,58.915,87.452,60.221,83.76,61.084"/>
	<path clip-path="url(#SVGID_2_)" fill="#BCBEC0" d="M83.269,66.595c-3.308,0.611-6.873,1.001-11.215,1.227
		c-1.635,0.085-3.384,0.146-5.671,0.198l-49.516,1.352v3.38l43.909-2.309l5.689-0.291c2.221-0.104,4.034-0.213,5.715-0.344
		c4.401-0.341,8.026-0.827,11.398-1.537c3.83-0.803,7.548-1.972,11.046-3.475c2.82-1.206,5.645-2.675,8.587-4.463v-1.356
		c-3.143,1.841-6.13,3.319-9.098,4.503C90.662,64.862,87.013,65.91,83.269,66.595"/>
	<path clip-path="url(#SVGID_2_)" fill="#BCBEC0" d="M82.88,72.131c-6.075,0.816-12.329,0.913-18.379,1.003
		c-1.387,0.018-2.774,0.04-4.159,0.07l-43.476,0.787v3.377l43.551-1.892c1.382-0.062,2.764-0.118,4.149-0.176
		c6.09-0.245,12.392-0.496,18.55-1.482c3.898-0.62,7.648-1.534,11.15-2.722c2.897-0.978,5.902-2.244,8.945-3.739v-1.297
		c-3.199,1.502-6.342,2.749-9.362,3.683C90.39,70.821,86.7,71.625,82.88,72.131"/>
	<path clip-path="url(#SVGID_2_)" fill="#BCBEC0" d="M82.536,77.703c-5.694,0.474-11.521,0.474-17.155,0.474
		c-1.753,0-3.507,0-5.258,0.016C45.72,78.254,31.43,78.375,16.866,78.5v3.379c13.872-0.476,28.588-0.97,43.305-1.412
		c1.746-0.058,3.494-0.103,5.245-0.147c5.664-0.144,11.524-0.294,17.273-0.921c4.018-0.434,7.676-1.07,11.178-1.944
		c3.055-0.754,6.193-1.767,9.343-2.978v-1.241c-3.253,1.177-6.494,2.137-9.65,2.837C90.091,76.842,86.484,77.376,82.536,77.703"/>
	<path clip-path="url(#SVGID_2_)" fill="#BCBEC0" d="M82.315,83.193c-2.373,0.095-4.939,0.141-7.854,0.141
		c-1.101,0-2.202-0.006-3.298-0.015L59.955,83.18c-7.645-0.057-15.261-0.07-22.408-0.077l-20.681,0.021V86.5l20.729-0.548
		c7.122-0.178,14.76-0.358,22.383-0.499l11.195-0.147c3.073-0.05,7.126-0.14,11.23-0.411c4.023-0.264,7.685-0.667,11.195-1.232
		c3.158-0.509,6.384-1.193,9.612-2.021v-1.198c-3.316,0.77-6.612,1.386-9.81,1.815C89.911,82.729,86.286,83.035,82.315,83.193"/>
	<path clip-path="url(#SVGID_2_)" fill="#BCBEC0" d="M71.033,88.5l-11.168-0.12c-14.247-0.2-28.48-0.465-42.999-0.737v3.377
		c13.859-0.093,28.536-0.199,43.01-0.364l11.172-0.166c3.765-0.065,7.452-0.132,11.18-0.261c7.678-0.248,14.556-0.79,20.983-1.647
		v-1.174c-6.452,0.7-13.34,1.068-21.021,1.118C78.473,88.559,74.752,88.531,71.033,88.5"/>
</g>
<polygon fill="#BCBEC0" points="103.21,94.471 16.866,92.266 16.866,95.64 103.21,95.64 "/>
<g>
	<defs>
		<rect id="SVGID_3_" y="0.002" width="609.449" height="113.386"/>
	</defs>
	<clipPath id="SVGID_4_">
		<use xlink:href="#SVGID_3_"  overflow="visible"/>
	</clipPath>
	<path clip-path="url(#SVGID_4_)" fill="#BCBEC0" d="M95.435,37.766c-3.279,2.656-5.812,4.543-9.828,6.15
		c-3.494,1.4-7.249,1.972-11.539,2.562c-2.762,0.391-5.646,0.966-8.403,1.151c-1.134,0.078-2.268,0.153-3.399,0.241l-45.399,3.336
		v3.386l45.582-4.452l5.913-0.56c2.192-0.207,4.136-0.451,5.947-0.747c4.418-0.713,8.225-1.806,11.637-3.336
		c3.539-1.573,7.121-4.149,10.449-6.971c2.265-1.916,4.445-4.329,6.816-6.961v-1.214C100.343,33.336,97.965,35.724,95.435,37.766"/>
	<path clip-path="url(#SVGID_4_)" fill="#BCBEC0" d="M139.956,8.987c0,0,15.54,24.75,18.381,29.288
		c2.84,4.538,6.088,8.125,17.584,10.566c11.499,2.438,16.503,3.589,16.503,3.589v0.88c0,0-7.304-1.557-16.706-3.657
		c-9.399-2.099-13.241-2.807-17.529-8.769c-3.564-4.962-18.233-26.05-18.233-26.05V8.987z"/>
	<path clip-path="url(#SVGID_4_)" fill="#BCBEC0" d="M139.956,37.252c0,0,14.145,14.822,18.233,19.079
		c4.34,4.513,9.899,6.184,17.602,7.561c7.355,1.312,16.631,2.827,16.631,2.827v0.835c0,0-8.712-1.428-16.631-2.781
		c-7.764-1.33-13.199-2.072-17.646-6.171c-3.984-3.667-18.189-16.989-18.189-16.989V37.252z"/>
	<path clip-path="url(#SVGID_4_)" fill="#BCBEC0" d="M139.956,43.929c0,0,13.453,12.492,18.233,16.761
		c4.403,3.926,7.97,5.147,17.65,6.863s16.583,2.785,16.583,2.785v0.88c0,0-8.757-1.438-16.631-2.691
		c-7.874-1.252-12.891-1.746-17.602-5.563c-5.435-4.41-18.233-14.95-18.233-14.95V43.929z"/>
	<path clip-path="url(#SVGID_4_)" fill="#BCBEC0" d="M139.956,51.051c0,0,15.367,12.191,18.239,14.323
		c2.872,2.134,6.669,4.623,17.694,6.216c10.931,1.58,16.535,2.365,16.535,2.365v0.928c0,0-9.91-1.439-16.535-2.271
		c-6.625-0.836-11.702-1.192-17.649-5.15c-5.787-3.853-18.284-12.653-18.284-12.653V51.051z"/>
	<path clip-path="url(#SVGID_4_)" fill="#BCBEC0" d="M139.956,57.893c0,0,15.412,10.265,18.332,11.888
		c2.917,1.623,6.346,4.267,17.601,5.704c11.255,1.438,16.535,2.087,16.535,2.087v0.881c0,0-9.308-1.02-16.583-1.807
		c-7.272-0.791-12.226-1.856-17.646-4.825c-5.421-2.968-18.239-10.458-18.239-10.458V57.893z"/>
	<path clip-path="url(#SVGID_4_)" fill="#BCBEC0" d="M139.956,64.739c0,0,13.623,7.413,18.233,9.726
		c5.143,2.583,9.59,3.817,17.65,4.778c7.911,0.939,16.583,1.855,16.583,1.855v0.833c0,0-8.017-0.857-16.583-1.668
		c-8.494-0.805-11.516-1.177-17.65-3.896c-5.483-2.433-18.233-8.38-18.233-8.38V64.739z"/>
	<path clip-path="url(#SVGID_4_)" fill="#BCBEC0" d="M139.956,71.677c0,0,10.766,4.609,18.332,7.609
		c7.442,2.953,13.124,3.201,17.646,3.714c1.994,0.223,16.49,1.716,16.49,1.716v0.833c0,0-8.661-0.695-16.535-1.391
		c-7.874-0.694-11.27-0.99-17.649-3.107c-6.452-2.144-18.284-6.27-18.284-6.27V71.677z"/>
	<path clip-path="url(#SVGID_4_)" fill="#BCBEC0" d="M139.956,78.749c0,0,10.869,3.369,18.281,5.317
		c7.41,1.946,14.22,2.736,17.647,2.968c3.429,0.232,16.54,1.297,16.54,1.297v0.79c0,0-7.457-0.509-16.585-1.159
		c-7.382-0.526-13.31-1.081-17.65-2.042c-4.808-1.062-18.233-4.251-18.233-4.251V78.749z"/>
	<path clip-path="url(#SVGID_4_)" fill="#BCBEC0" d="M139.956,85.707c0,0,8.89,1.533,18.281,3.091
		c7.041,1.166,16.583,1.901,17.602,1.948c1.018,0.046,16.583,1.114,16.583,1.114v0.833c0,0-9.963-0.515-16.583-0.882
		c-6.899-0.38-13.754-0.799-17.65-1.206c-8.721-0.91-18.233-2.113-18.233-2.113V85.707z"/>
	<path clip-path="url(#SVGID_4_)" fill="#BCBEC0" d="M139.956,92.908c0,0,14.02,0.527,18.281,0.62
		c4.262,0.092,34.185,1.299,34.185,1.299v0.813h-52.466V92.908z"/>
	<path clip-path="url(#SVGID_4_)" fill="#BCBEC0" d="M175.839,52.666c-12.693-2.737-15.565-7.375-17.694-10.252
		c-2.133-2.874-18.189-26.343-18.189-26.343v5.295c0.633,0.828,14.376,18.821,18.233,23.785c4.35,5.594,11.166,6.865,17.65,8.258
		c6.484,1.389,16.585,3.331,16.585,3.331v-0.743C192.424,55.997,179.115,53.371,175.839,52.666"/>
	<path clip-path="url(#SVGID_4_)" fill="#BCBEC0" d="M175.839,56.376c-10.422-2.042-14.637-5.333-17.694-9.324
		c-3.058-3.988-18.189-23.932-18.189-23.932v5.014c0.633,0.752,14.476,17.17,18.189,21.424c4.332,4.962,10.374,6.261,17.694,7.606
		c7.319,1.348,16.583,3.108,16.583,3.108v-0.743C192.422,59.529,181.846,57.552,175.839,56.376"/>
	<path clip-path="url(#SVGID_4_)" fill="#BCBEC0" d="M175.839,60.226c-10.839-2.103-13.062-3.835-17.65-8.859
		c-2.881-3.159-17.611-20.552-18.233-21.284v4.633c0,0,13.764,14.681,18.189,19.016c5.807,5.688,11.255,6.123,17.694,7.282
		s16.583,3.015,16.583,3.015v-0.787C192.422,63.242,180.173,61.067,175.839,60.226"/>
</g>
<rect x="52.754" y="45.035" fill="#034EA2" width="75.648" height="50.604"/>
<polygon fill="#FFF200" points="91.398,52.229 94.029,52.229 91.91,53.882 92.733,56.503 90.62,54.888 88.506,56.503 89.338,53.882 
	87.201,52.229 89.825,52.229 90.62,49.673 "/>
<polygon fill="#FFF200" points="91.491,85.977 94.127,85.977 92.005,87.571 92.83,90.091 90.716,88.537 88.604,90.091 
	89.437,87.571 87.294,85.977 89.921,85.977 90.716,83.516 "/>
<polygon fill="#FFF200" points="99.839,83.743 102.475,83.743 100.353,85.331 101.178,87.857 99.064,86.298 96.952,87.857 
	97.784,85.331 95.642,83.743 98.269,83.743 99.064,81.282 "/>
<polygon fill="#FFF200" points="99.839,54.482 102.475,54.482 100.353,56.073 101.178,58.593 99.064,57.041 96.952,58.593 
	97.784,56.073 95.642,54.482 98.269,54.482 99.064,52.022 "/>
<polygon fill="#FFF200" points="106.038,60.677 108.668,60.677 106.546,62.265 107.373,64.792 105.257,63.237 103.147,64.792 
	103.98,62.265 101.838,60.677 104.462,60.677 105.257,58.217 "/>
<polygon fill="#FFF200" points="106.038,77.629 108.668,77.629 106.546,79.222 107.373,81.747 105.257,80.188 103.147,81.747 
	103.98,79.222 101.838,77.629 104.462,77.629 105.257,75.169 "/>
<polygon fill="#FFF200" points="108.358,69.023 110.994,69.023 108.872,70.617 109.697,73.139 107.585,71.583 105.471,73.139 
	106.303,70.617 104.161,69.023 106.785,69.023 107.585,66.565 "/>
<polygon fill="#FFF200" points="82.887,54.502 85.518,54.502 83.396,56.095 84.222,58.619 82.11,57.062 79.995,58.619 
	80.828,56.095 78.691,54.502 81.314,54.502 82.11,52.042 "/>
<polygon fill="#FFF200" points="76.862,60.698 79.498,60.698 77.376,62.289 78.197,64.812 76.087,63.258 73.975,64.812 
	74.805,62.289 72.665,60.698 75.292,60.698 76.087,58.24 "/>
<polygon fill="#FFF200" points="74.625,69.045 77.258,69.045 75.139,70.635 75.961,73.16 73.85,71.607 71.734,73.16 72.567,70.635 
	70.43,69.045 73.054,69.045 73.85,66.587 "/>
<polygon fill="#FFF200" points="76.862,77.65 79.498,77.65 77.376,79.245 78.197,81.766 76.087,80.21 73.975,81.766 74.805,79.245 
	72.665,77.65 75.292,77.65 76.087,75.194 "/>
<polygon fill="#FFF200" points="82.975,83.762 85.606,83.762 83.484,85.352 84.305,87.876 82.198,86.322 80.083,87.876 
	80.915,85.352 78.779,83.762 81.402,83.762 82.198,81.302 "/>
<g>
	<path fill="#636466" d="M405.19,96.302v-5.22c0-1.818-0.216-3.42-2.646-3.42c-1.098,0-2.357,0.612-3.023,1.08
		c-0.019,0-0.036-0.019-0.054-0.019v-0.54c0-0.233-0.091-0.359-0.343-0.359h-1.277c-0.252,0-0.343,0.126-0.343,0.359v8.118
		c0,0.234,0.091,0.342,0.343,0.342h1.277c0.252,0,0.343-0.126,0.343-0.342v-6.012c0.485-0.234,1.746-0.81,2.466-0.81
		c1.044,0,1.296,0.701,1.296,1.764l-0.019,5.058c0,0.234,0.108,0.342,0.343,0.342h1.296C405.118,96.644,405.19,96.518,405.19,96.302
		 M393.797,92.216c0,1.926-0.324,2.844-1.963,2.844c-1.512,0-1.854-0.936-1.854-2.844c0-1.872,0.342-2.844,1.872-2.844
		C393.49,89.373,393.797,90.308,393.797,92.216 M395.812,92.09c0-2.124-0.486-4.446-3.979-4.446c-3.474,0-3.852,2.755-3.852,4.446
		c0,2.052,0.234,4.698,3.852,4.698C395.561,96.789,395.812,94.142,395.812,92.09 M385.931,88.167c0-0.198-0.072-0.342-0.324-0.342
		h-1.278c-0.252,0-0.359,0.09-0.359,0.342v8.136c0,0.234,0.107,0.342,0.359,0.342h1.278c0.252,0,0.324-0.144,0.324-0.342V88.167z
		 M386.038,85.485c0-0.612-0.18-1.026-1.062-1.026c-0.864,0-1.062,0.45-1.062,1.026c0,0.521,0.126,1.044,1.062,1.044
		C385.876,86.529,386.038,86.042,386.038,85.485 M382.582,95.06c-0.035-0.216-0.126-0.27-0.323-0.252
		c-0.36,0.036-0.954,0.072-1.206,0.072c-0.954,0-1.206-0.036-1.206-0.99v-4.481h1.926c0.288,0,0.342-0.108,0.342-0.342v-0.9
		c0-0.216-0.054-0.342-0.342-0.342h-1.926v-2.358c0-0.233-0.145-0.27-0.36-0.216l-1.206,0.324c-0.198,0.054-0.342,0.144-0.342,0.396
		v1.854h-0.918c-0.271,0-0.342,0.126-0.342,0.359v0.883c0,0.233,0.071,0.342,0.342,0.342h0.899v4.518
		c0,1.548,0.108,2.862,2.215,2.862c0.558,0,1.71-0.108,2.34-0.378c0.18-0.09,0.27-0.216,0.233-0.45L382.582,95.06z M373.098,95.636
		c0.18,0.847,0.702,1.099,1.548,1.099c0.27,0,0.558-0.036,0.846-0.091c0.306-0.054,0.433-0.18,0.433-0.378V95.51
		c0-0.198-0.072-0.252-0.343-0.27c-0.558-0.072-0.647-0.09-0.647-0.828v-3.474c0-2.017-0.378-3.295-3.492-3.295
		c-0.846,0-2.268,0.126-3.042,0.396c-0.396,0.162-0.45,0.306-0.414,0.54l0.162,0.666c0.054,0.252,0.144,0.27,0.504,0.216
		c0.72-0.072,1.854-0.162,2.448-0.162c1.476,0,1.872,0.378,1.872,1.458v0.468h-2.305c-2.268,0-3.401,0.9-3.384,3.007
		c0,1.512,0.559,2.556,2.466,2.556c1.206,0,2.412-0.486,3.312-1.17L373.098,95.636z M372.953,94.34
		c-0.684,0.396-1.781,0.846-2.556,0.846c-0.846,0-1.116-0.252-1.116-1.044c0-1.188,0.576-1.512,1.477-1.512h2.195V94.34z
		 M362.045,94.43c-0.054-0.162-0.666-2.069-0.666-2.069l-1.439-4.212c-0.09-0.271-0.18-0.324-0.432-0.324h-1.423
		c-0.233,0-0.27,0.162-0.197,0.359l3.06,8.101c0.09,0.252,0.18,0.359,0.504,0.359h1.206c0.288,0,0.414-0.107,0.504-0.378l3.061-8.1
		c0.09-0.216,0.054-0.342-0.216-0.342h-1.368c-0.271,0-0.343,0.09-0.414,0.288l-1.44,4.176c0,0-0.666,1.998-0.684,2.142H362.045z
		 M355.098,92.216c0,1.926-0.324,2.844-1.962,2.844c-1.513,0-1.854-0.936-1.854-2.844c0-1.872,0.342-2.844,1.872-2.844
		C354.791,89.373,355.098,90.308,355.098,92.216 M357.113,92.09c0-2.124-0.486-4.446-3.978-4.446c-3.475,0-3.853,2.755-3.853,4.446
		c0,2.052,0.234,4.698,3.853,4.698C356.861,96.789,357.113,94.142,357.113,92.09 M347.573,96.302v-5.22
		c0-1.818-0.216-3.42-2.646-3.42c-1.099,0-2.358,0.612-3.024,1.08c-0.018,0-0.036-0.019-0.054-0.019v-0.54
		c0-0.233-0.09-0.359-0.342-0.359h-1.278c-0.252,0-0.342,0.126-0.342,0.359v8.118c0,0.234,0.09,0.342,0.342,0.342h1.278
		c0.252,0,0.342-0.126,0.342-0.342v-6.012c0.485-0.234,1.746-0.81,2.466-0.81c1.044,0,1.296,0.701,1.296,1.764l-0.018,5.058
		c0,0.234,0.107,0.342,0.342,0.342h1.296C347.501,96.644,347.573,96.518,347.573,96.302 M338.069,96.302v-5.22
		c0-1.818-0.216-3.42-2.646-3.42c-1.099,0-2.358,0.612-3.024,1.08c-0.018,0-0.036-0.019-0.054-0.019v-0.54
		c0-0.233-0.09-0.359-0.342-0.359h-1.278c-0.252,0-0.342,0.126-0.342,0.359v8.118c0,0.234,0.09,0.342,0.342,0.342h1.278
		c0.252,0,0.342-0.126,0.342-0.342v-6.012c0.485-0.234,1.746-0.81,2.466-0.81c1.044,0,1.296,0.701,1.296,1.764l-0.018,5.058
		c0,0.234,0.107,0.342,0.342,0.342h1.296C337.997,96.644,338.069,96.518,338.069,96.302 M325.955,96.302
		c0,0.234,0.09,0.342,0.343,0.342h1.367c0.252,0,0.343-0.144,0.343-0.342v-11.25c0-0.216-0.091-0.359-0.343-0.359h-1.367
		c-0.253,0-0.343,0.126-0.343,0.359V96.302z M313.05,87.05c0,0.72-0.612,1.188-1.44,1.639c-0.414-0.576-0.63-1.08-0.63-1.513
		c0-0.485,0.306-1.134,1.026-1.134C312.6,86.042,313.05,86.474,313.05,87.05 M311.268,95.312c-1.206,0-2.196-0.558-2.196-1.943
		c0-1.026,0.738-1.872,1.872-2.538c0.648,1.008,1.908,2.592,3.006,3.654C313.05,95.06,312.113,95.331,311.268,95.312 M318.917,96.68
		c0.145-0.216,0.145-0.306-0.071-0.432c-0.774-0.45-1.584-1.044-2.286-1.656c0.954-0.99,2.105-3.042,2.214-4.95
		c0.018-0.342-0.054-0.468-0.378-0.485h-0.811c-0.323,0-0.342,0.036-0.396,0.359c-0.216,1.566-0.918,2.916-1.872,3.925
		c-1.098-1.062-1.998-2.179-2.826-3.421c1.44-0.756,2.34-1.728,2.34-3.023c0-1.404-1.098-2.484-2.771-2.484
		c-1.818,0-2.826,1.225-2.826,2.754c0,0.522,0.288,1.404,0.828,2.215c-1.746,1.008-2.79,2.376-2.79,3.978
		c0,2.376,1.8,3.384,3.978,3.384c1.351,0,2.772-0.396,3.942-1.17c0.81,0.702,2.016,1.548,2.754,1.89
		c0.288,0.127,0.414,0.036,0.54-0.126L318.917,96.68z M300.575,96.302v-5.22c0-1.818-0.252-3.42-2.735-3.42
		c-1.116,0-2.341,0.594-2.988,0.99v-4.356c0-0.216-0.09-0.342-0.36-0.342h-1.278c-0.233,0-0.323,0.107-0.323,0.342v12.006
		c0,0.234,0.09,0.342,0.323,0.342h1.278c0.271,0,0.342-0.126,0.342-0.342v-6.065c0.486-0.217,1.746-0.811,2.467-0.811
		c1.079,0,1.296,0.685,1.296,1.674c0,1.746-0.019,3.456-0.019,5.202c0,0.234,0.108,0.342,0.36,0.342h1.278
		C300.485,96.644,300.575,96.518,300.575,96.302 M291.449,95.168c-0.054-0.306-0.18-0.306-0.468-0.27
		c-0.738,0.09-1.782,0.161-2.322,0.161c-1.439,0-1.943-0.666-1.943-2.916c0-1.998,0.504-2.754,1.962-2.754
		c0.611,0,1.458,0.091,2.195,0.162c0.343,0.019,0.486,0.019,0.559-0.252l0.126-0.72c0.036-0.234-0.036-0.396-0.271-0.504
		c-0.773-0.324-1.943-0.433-2.771-0.433c-3.33,0-3.853,2.305-3.853,4.536c0,2.448,0.486,4.608,3.853,4.608
		c0.882,0,2.052-0.126,2.735-0.414c0.324-0.144,0.378-0.288,0.307-0.558L291.449,95.168z M280.613,90.506
		c0.63-0.27,1.908-0.63,2.916-0.828c0.378-0.071,0.36-0.18,0.342-0.432l-0.126-1.206c-0.036-0.306-0.197-0.36-0.432-0.306
		c-0.846,0.161-2.124,0.773-2.664,1.277l-0.036-0.036v-0.792c0-0.216-0.09-0.359-0.36-0.359h-1.277
		c-0.252,0-0.342,0.126-0.342,0.359v8.118c0,0.234,0.09,0.342,0.342,0.342h1.296c0.252,0,0.342-0.126,0.342-0.342V90.506z
		 M274.188,95.636c0.18,0.847,0.702,1.099,1.548,1.099c0.271,0,0.558-0.036,0.846-0.091c0.307-0.054,0.433-0.18,0.433-0.378V95.51
		c0-0.198-0.072-0.252-0.342-0.27c-0.559-0.072-0.648-0.09-0.648-0.828v-3.474c0-2.017-0.378-3.295-3.492-3.295
		c-0.846,0-2.268,0.126-3.042,0.396c-0.396,0.162-0.45,0.306-0.414,0.54l0.162,0.666c0.054,0.252,0.145,0.27,0.504,0.216
		c0.72-0.072,1.854-0.162,2.448-0.162c1.476,0,1.872,0.378,1.872,1.458v0.468h-2.304c-2.269,0-3.402,0.9-3.385,3.007
		c0,1.512,0.559,2.556,2.467,2.556c1.205,0,2.411-0.486,3.312-1.17L274.188,95.636z M274.043,94.34
		c-0.684,0.396-1.781,0.846-2.556,0.846c-0.846,0-1.116-0.252-1.116-1.044c0-1.188,0.576-1.512,1.477-1.512h2.195V94.34z
		 M263.101,89.264c1.494,0,1.782,1.062,1.782,2.16h-3.564C261.408,90.075,261.769,89.264,263.101,89.264 M266.07,92.775
		c0.72,0,0.9-0.45,0.882-1.099c-0.054-1.943-0.63-4.032-3.852-4.032c-3.51,0-3.834,2.881-3.834,4.626
		c0,2.341,0.504,4.536,3.941,4.536c0.883,0,2.196-0.18,2.898-0.449c0.324-0.145,0.36-0.288,0.306-0.559l-0.107-0.594
		c-0.055-0.342-0.162-0.342-0.486-0.306c-0.684,0.071-1.692,0.197-2.34,0.197c-1.477,0-2.124-0.504-2.178-2.321H266.07z
		 M257.772,93.999c0-2.142-1.548-2.484-3.258-2.736c-1.099-0.18-1.53-0.27-1.53-0.972c0-0.684,0.27-1.008,1.422-1.008
		c0.666,0,1.674,0.107,2.448,0.198c0.324,0.035,0.432,0,0.486-0.253l0.144-0.647c0.054-0.271-0.072-0.414-0.378-0.54
		c-0.756-0.288-1.998-0.396-2.736-0.396c-2.016,0-3.384,0.937-3.384,2.719c0,1.962,1.548,2.34,3.312,2.592
		c1.134,0.162,1.439,0.342,1.439,1.17c0,0.72-0.468,1.026-1.62,1.026c-0.611,0-1.764-0.091-2.556-0.217
		c-0.288-0.035-0.414-0.018-0.468,0.271l-0.126,0.594c-0.055,0.288,0.018,0.45,0.378,0.594c0.684,0.271,1.89,0.396,2.79,0.396
		C255.99,96.789,257.772,96.104,257.772,93.999 M245.694,89.264c1.494,0,1.782,1.062,1.782,2.16h-3.564
		C244.002,90.075,244.362,89.264,245.694,89.264 M248.664,92.775c0.721,0,0.9-0.45,0.883-1.099
		c-0.055-1.943-0.631-4.032-3.853-4.032c-3.51,0-3.834,2.881-3.834,4.626c0,2.341,0.504,4.536,3.942,4.536
		c0.882,0,2.195-0.18,2.897-0.449c0.324-0.145,0.36-0.288,0.307-0.559l-0.108-0.594c-0.054-0.342-0.162-0.342-0.486-0.306
		c-0.684,0.071-1.691,0.197-2.34,0.197c-1.476,0-2.124-0.504-2.178-2.321H248.664z M238.135,88.203c0,1.638-1.135,1.908-2.017,1.908
		h-1.872v-3.637h1.908C237.198,86.474,238.135,86.852,238.135,88.203 M238.099,91.497c1.565-0.594,2.142-2.016,2.142-3.294
		c0-2.484-1.817-3.51-3.672-3.51h-3.996c-0.27,0-0.359,0.126-0.359,0.342v11.268c0,0.234,0.09,0.342,0.359,0.342h1.332
		c0.252,0,0.342-0.144,0.342-0.359v-4.464h1.836l2.106,4.518c0.108,0.252,0.252,0.306,0.521,0.306h1.549
		c0.197,0,0.288-0.161,0.197-0.378L238.099,91.497z M222.69,90.506c0.63-0.27,1.908-0.63,2.916-0.828
		c0.378-0.071,0.36-0.18,0.342-0.432l-0.126-1.206c-0.036-0.306-0.198-0.36-0.432-0.306c-0.847,0.161-2.124,0.773-2.664,1.277
		l-0.036-0.036v-0.792c0-0.216-0.09-0.359-0.36-0.359h-1.277c-0.252,0-0.343,0.126-0.343,0.359v8.118
		c0,0.234,0.091,0.342,0.343,0.342h1.296c0.252,0,0.342-0.126,0.342-0.342V90.506z M216.606,92.216c0,1.926-0.324,2.844-1.962,2.844
		c-1.512,0-1.854-0.936-1.854-2.844c0-1.872,0.343-2.844,1.872-2.844C216.301,89.373,216.606,90.308,216.606,92.216 M218.622,92.09
		c0-2.124-0.485-4.446-3.978-4.446c-3.475,0-3.853,2.755-3.853,4.446c0,2.052,0.234,4.698,3.853,4.698
		C218.37,96.789,218.622,94.142,218.622,92.09 M207.391,89.409h2.142c0.271,0,0.324-0.108,0.324-0.36v-0.882
		c0-0.216-0.054-0.342-0.324-0.342h-2.142v-0.756c0-1.044,0.45-1.494,1.529-1.494c0.234,0,0.811,0.036,1.549,0.126
		c0.306,0.036,0.449,0.018,0.521-0.216l0.126-0.721c0.036-0.197,0.036-0.396-0.233-0.504c-0.757-0.306-1.765-0.414-2.269-0.414
		c-2.286,0-3.168,1.188-3.168,3.024v0.954h-0.846c-0.252,0-0.342,0.126-0.342,0.359v0.864c0,0.252,0.09,0.36,0.342,0.36h0.828v6.894
		c0,0.234,0.107,0.342,0.359,0.342h1.278c0.252,0,0.324-0.144,0.324-0.342V89.409z"/>
	<path fill="#636466" d="M383.194,72.109c0-2.376,0.864-2.7,1.98-2.7c0.575,0,1.241,0.072,1.8,0.162v5.13
		c-0.756,0.216-1.512,0.306-2.034,0.306C383.681,75.006,383.194,74.304,383.194,72.109 M385.084,67.644
		c-3.077,0-3.941,1.801-3.941,4.626c0,2.664,0.702,4.465,3.618,4.465c0.575,0,1.296-0.108,2.214-0.433v0.594
		c0,1.116-0.378,1.585-1.908,1.585c-0.702,0-1.674-0.055-2.484-0.181c-0.342-0.054-0.468-0.036-0.521,0.252l-0.145,0.666
		c-0.035,0.198-0.018,0.378,0.36,0.522c0.738,0.306,1.962,0.414,2.898,0.414c3.438,0,3.798-1.548,3.798-3.618v-7.614
		c0-0.324-0.055-0.666-0.486-0.81C387.604,67.825,386.219,67.644,385.084,67.644 M379.396,76.302v-5.22
		c0-1.818-0.216-3.42-2.646-3.42c-1.098,0-2.357,0.612-3.023,1.08c-0.019,0-0.036-0.019-0.055-0.019v-0.54
		c0-0.233-0.09-0.359-0.342-0.359h-1.277c-0.252,0-0.343,0.126-0.343,0.359v8.118c0,0.234,0.091,0.342,0.343,0.342h1.277
		c0.252,0,0.342-0.126,0.342-0.342v-6.012c0.486-0.234,1.746-0.81,2.467-0.81c1.044,0,1.296,0.701,1.296,1.764l-0.019,5.058
		c0,0.234,0.108,0.342,0.343,0.342h1.296C379.324,76.644,379.396,76.518,379.396,76.302 M369.551,68.167
		c0-0.198-0.072-0.342-0.324-0.342h-1.278c-0.252,0-0.36,0.09-0.36,0.342v8.136c0,0.234,0.108,0.342,0.36,0.342h1.278
		c0.252,0,0.324-0.144,0.324-0.342V68.167z M369.658,65.485c0-0.612-0.18-1.026-1.062-1.026c-0.864,0-1.062,0.45-1.062,1.026
		c0,0.521,0.126,1.044,1.062,1.044C369.496,66.529,369.658,66.042,369.658,65.485 M363.431,74.197
		c-0.522,0.27-1.692,0.81-2.431,0.81c-0.936,0-1.386-0.378-1.386-2.682c0-2.269,0.433-2.952,1.746-2.952
		c0.594,0,1.242,0.072,2.07,0.306V74.197z M365.393,76.302V64.315c0-0.217-0.036-0.36-0.324-0.36h-1.278
		c-0.288,0-0.342,0.126-0.342,0.36v3.726c-0.018,0-0.018,0.018-0.036,0.018c-0.773-0.288-1.512-0.414-2.231-0.414
		c-2.916,0-3.582,1.746-3.582,4.698c0,2.718,0.611,4.446,2.952,4.446c1.062,0,2.214-0.612,2.844-1.062
		c0.018,0,0.036,0.019,0.054,0.019v0.576c0,0.233,0.09,0.323,0.324,0.323h1.296C365.32,76.644,365.393,76.518,365.393,76.302
		 M355.925,76.302v-5.22c0-1.818-0.217-3.42-2.646-3.42c-1.098,0-2.358,0.612-3.024,1.08c-0.018,0-0.035-0.019-0.054-0.019v-0.54
		c0-0.233-0.09-0.359-0.342-0.359h-1.278c-0.252,0-0.342,0.126-0.342,0.359v8.118c0,0.234,0.09,0.342,0.342,0.342h1.278
		c0.252,0,0.342-0.126,0.342-0.342v-6.012c0.486-0.234,1.746-0.81,2.466-0.81c1.044,0,1.297,0.701,1.297,1.764l-0.019,5.058
		c0,0.234,0.108,0.342,0.342,0.342h1.296C355.853,76.644,355.925,76.518,355.925,76.302 M346.386,76.302v-8.118
		c0-0.233-0.091-0.359-0.343-0.359h-1.277c-0.271,0-0.342,0.144-0.342,0.359v6.013c-0.469,0.233-1.656,0.81-2.431,0.81
		c-1.098,0-1.313-0.684-1.313-1.764v-5.059c0-0.233-0.09-0.359-0.324-0.359h-1.314c-0.252,0-0.342,0.144-0.342,0.359v5.292
		c0,1.891,0.234,3.33,2.664,3.33c1.098,0,2.322-0.594,3.024-1.08l0.036,0.019v0.558c0,0.216,0.071,0.342,0.342,0.342h1.277
		C346.295,76.644,346.386,76.537,346.386,76.302 M334.451,69.409h2.143c0.27,0,0.323-0.108,0.323-0.36v-0.882
		c0-0.216-0.054-0.342-0.323-0.342h-2.143v-0.756c0-1.044,0.45-1.494,1.53-1.494c0.234,0,0.81,0.036,1.548,0.126
		c0.306,0.036,0.45,0.018,0.522-0.216l0.126-0.721c0.035-0.197,0.035-0.396-0.234-0.504c-0.756-0.306-1.764-0.414-2.268-0.414
		c-2.286,0-3.168,1.188-3.168,3.024v0.954h-0.847c-0.252,0-0.342,0.126-0.342,0.359v0.864c0,0.252,0.09,0.36,0.342,0.36h0.828v6.894
		c0,0.234,0.108,0.342,0.36,0.342h1.277c0.252,0,0.324-0.144,0.324-0.342V69.409z M324.768,76.302v-5.22
		c0-1.818-0.216-3.42-2.646-3.42c-1.098,0-2.357,0.612-3.023,1.08c-0.019,0-0.036-0.019-0.055-0.019v-0.54
		c0-0.233-0.09-0.359-0.342-0.359h-1.277c-0.252,0-0.343,0.126-0.343,0.359v8.118c0,0.234,0.091,0.342,0.343,0.342h1.277
		c0.252,0,0.342-0.126,0.342-0.342v-6.012c0.486-0.234,1.746-0.81,2.467-0.81c1.044,0,1.296,0.701,1.296,1.764l-0.019,5.058
		c0,0.234,0.108,0.342,0.342,0.342h1.297C324.695,76.644,324.768,76.518,324.768,76.302 M313.373,72.216
		c0,1.926-0.323,2.844-1.962,2.844c-1.512,0-1.854-0.936-1.854-2.844c0-1.872,0.342-2.844,1.872-2.844
		C313.067,69.373,313.373,70.308,313.373,72.216 M315.39,72.09c0-2.124-0.486-4.446-3.979-4.446c-3.474,0-3.852,2.755-3.852,4.446
		c0,2.052,0.233,4.698,3.852,4.698C315.138,76.789,315.39,74.142,315.39,72.09 M305.508,68.167c0-0.198-0.072-0.342-0.324-0.342
		h-1.278c-0.252,0-0.36,0.09-0.36,0.342v8.136c0,0.234,0.108,0.342,0.36,0.342h1.278c0.252,0,0.324-0.144,0.324-0.342V68.167z
		 M305.615,65.485c0-0.612-0.18-1.026-1.062-1.026c-0.864,0-1.062,0.45-1.062,1.026c0,0.521,0.126,1.044,1.062,1.044
		C305.453,66.529,305.615,66.042,305.615,65.485 M301.403,76.302v-5.22c0-1.818-0.216-3.42-2.646-3.42
		c-1.099,0-2.358,0.612-3.024,1.08c-0.018,0-0.036-0.019-0.054-0.019v-0.54c0-0.233-0.09-0.359-0.342-0.359h-1.278
		c-0.252,0-0.342,0.126-0.342,0.359v8.118c0,0.234,0.09,0.342,0.342,0.342h1.278c0.252,0,0.342-0.126,0.342-0.342v-6.012
		c0.485-0.234,1.746-0.81,2.466-0.81c1.044,0,1.296,0.701,1.296,1.764l-0.018,5.058c0,0.234,0.107,0.342,0.342,0.342h1.296
		C301.331,76.644,301.403,76.518,301.403,76.302 M287.165,74.989c-1.584,0-2.394-0.954-2.394-2.719v-7.218
		c0-0.216-0.09-0.359-0.342-0.359h-1.351c-0.252,0-0.342,0.126-0.342,0.359v7.218c0,0.937,0.162,1.801,0.54,2.521
		c0.684,1.313,1.98,1.998,3.888,1.998c1.801,0,3.42-0.685,4.122-2.395c0.271-0.701,0.324-1.403,0.324-2.124l0.018-7.218
		c0-0.216-0.071-0.359-0.323-0.359h-1.351c-0.252,0-0.359,0.126-0.359,0.359v7.218C289.596,74.125,288.731,74.989,287.165,74.989
		 M275.537,76.302v-5.22c0-1.818-0.216-3.42-2.646-3.42c-1.099,0-2.358,0.612-3.024,1.08c-0.018,0-0.036-0.019-0.054-0.019v-0.54
		c0-0.233-0.09-0.359-0.342-0.359h-1.278c-0.252,0-0.342,0.126-0.342,0.359v8.118c0,0.234,0.09,0.342,0.342,0.342h1.278
		c0.252,0,0.342-0.126,0.342-0.342v-6.012c0.486-0.234,1.746-0.81,2.466-0.81c1.044,0,1.296,0.701,1.296,1.764l-0.018,5.058
		c0,0.234,0.107,0.342,0.342,0.342h1.296C275.466,76.644,275.537,76.518,275.537,76.302 M263.803,75.636
		c0.18,0.847,0.701,1.099,1.548,1.099c0.27,0,0.558-0.036,0.846-0.091c0.306-0.054,0.432-0.18,0.432-0.378V75.51
		c0-0.198-0.071-0.252-0.342-0.27c-0.558-0.072-0.647-0.09-0.647-0.828v-3.474c0-2.017-0.378-3.295-3.492-3.295
		c-0.846,0-2.269,0.126-3.042,0.396c-0.396,0.162-0.45,0.306-0.414,0.54l0.162,0.666c0.054,0.252,0.144,0.27,0.504,0.216
		c0.72-0.072,1.854-0.162,2.448-0.162c1.476,0,1.872,0.378,1.872,1.458v0.468h-2.305c-2.268,0-3.401,0.9-3.384,3.007
		c0,1.512,0.559,2.556,2.466,2.556c1.206,0,2.412-0.486,3.312-1.17L263.803,75.636z M263.658,74.34
		c-0.684,0.396-1.782,0.846-2.556,0.846c-0.846,0-1.116-0.252-1.116-1.044c0-1.188,0.576-1.512,1.477-1.512h2.195V74.34z
		 M252.715,69.264c1.493,0,1.781,1.062,1.781,2.16h-3.563C251.022,70.075,251.383,69.264,252.715,69.264 M255.685,72.775
		c0.72,0,0.899-0.45,0.882-1.099c-0.054-1.943-0.63-4.032-3.852-4.032c-3.511,0-3.834,2.881-3.834,4.626
		c0,2.341,0.504,4.536,3.941,4.536c0.882,0,2.196-0.18,2.898-0.449c0.323-0.145,0.359-0.288,0.306-0.559l-0.108-0.594
		c-0.054-0.342-0.161-0.342-0.485-0.306c-0.685,0.071-1.692,0.197-2.34,0.197c-1.477,0-2.124-0.504-2.179-2.321H255.685z
		 M245.425,72.163c0,2.268-0.45,2.934-1.746,2.934c-0.612,0-1.261-0.071-2.07-0.306v-4.5c0.54-0.288,1.674-0.81,2.412-0.81
		C244.975,69.481,245.425,69.876,245.425,72.163 M247.458,72.18c0-2.718-0.611-4.5-2.97-4.5c-1.044,0-2.196,0.63-2.844,1.08
		l-0.054-0.036v-0.54c0-0.216-0.072-0.359-0.324-0.359h-1.278c-0.252,0-0.342,0.126-0.342,0.359v11.412
		c0,0.234,0.054,0.36,0.342,0.36h1.278c0.288,0,0.342-0.162,0.342-0.36v-3.168l0.018-0.018c0.828,0.288,1.656,0.396,2.25,0.396
		C246.721,76.806,247.458,75.115,247.458,72.18 M235.902,72.216c0,1.926-0.324,2.844-1.962,2.844c-1.512,0-1.854-0.936-1.854-2.844
		c0-1.872,0.343-2.844,1.872-2.844C235.597,69.373,235.902,70.308,235.902,72.216 M237.918,72.09c0-2.124-0.485-4.446-3.978-4.446
		c-3.474,0-3.853,2.755-3.853,4.446c0,2.052,0.234,4.698,3.853,4.698C237.666,76.789,237.918,74.142,237.918,72.09 M226.021,70.506
		c0.63-0.27,1.908-0.63,2.916-0.828c0.378-0.071,0.36-0.18,0.342-0.432l-0.126-1.206c-0.036-0.306-0.198-0.36-0.432-0.306
		c-0.847,0.161-2.124,0.773-2.664,1.277l-0.036-0.036v-0.792c0-0.216-0.09-0.359-0.36-0.359h-1.277
		c-0.252,0-0.343,0.126-0.343,0.359v8.118c0,0.234,0.091,0.342,0.343,0.342h1.296c0.252,0,0.342-0.126,0.342-0.342V70.506z
		 M221.79,76.302v-8.118c0-0.233-0.09-0.359-0.342-0.359h-1.278c-0.27,0-0.342,0.144-0.342,0.359v6.013
		c-0.468,0.233-1.655,0.81-2.43,0.81c-1.098,0-1.314-0.684-1.314-1.764v-5.059c0-0.233-0.09-0.359-0.323-0.359h-1.314
		c-0.252,0-0.342,0.144-0.342,0.359v5.292c0,1.891,0.233,3.33,2.664,3.33c1.098,0,2.322-0.594,3.023-1.08l0.036,0.019v0.558
		c0,0.216,0.072,0.342,0.342,0.342h1.278C221.7,76.644,221.79,76.537,221.79,76.302 M204.96,76.321c0,0.216,0.108,0.323,0.36,0.323
		h6.714c0.252,0,0.342-0.09,0.342-0.323v-1.099c0-0.233-0.107-0.342-0.323-0.342h-5.04v-3.546h4.355c0.271,0,0.36-0.108,0.36-0.324
		v-1.116c0-0.216-0.126-0.323-0.36-0.323h-4.355v-3.097h4.914c0.27,0,0.359-0.107,0.359-0.323v-1.116
		c0-0.216-0.126-0.342-0.342-0.342h-6.624c-0.252,0-0.36,0.126-0.36,0.359V76.321z"/>
	<path fill="#636466" d="M303.455,46.312c2.214,0,2.538,1.638,2.538,4.374c0,2.52-0.414,4.338-2.538,4.338
		c-2.088,0-2.394-1.854-2.394-4.338C301.062,48.274,301.386,46.312,303.455,46.312 M303.455,56.807c4.32,0,4.59-4.032,4.59-6.3
		c0-2.682-0.432-5.958-4.59-5.958c-4.212,0-4.464,4.23-4.464,5.958C298.991,53.044,299.189,56.807,303.455,56.807 M291.629,54.844
		c1.692-1.584,2.431-2.268,3.564-3.42c1.188-1.206,1.692-1.98,1.692-3.582c0-2.052-1.062-3.276-4.23-3.276
		c-0.684,0-2.376,0.108-3.33,0.486c-0.396,0.162-0.396,0.342-0.359,0.558l0.126,0.72c0.054,0.252,0.144,0.324,0.468,0.288
		c0.792-0.108,1.979-0.234,3.06-0.234c1.872,0,2.196,0.504,2.196,1.674c0,0.864-0.486,1.53-1.188,2.214
		c-0.684,0.72-1.565,1.548-1.817,1.782c-0.414,0.432-2.772,2.664-2.772,2.664c-0.18,0.18-0.233,0.378-0.233,0.594v1.026
		c0,0.216,0.071,0.306,0.306,0.306h7.704c0.216,0,0.288-0.108,0.288-0.306v-1.134c0-0.216-0.09-0.306-0.307-0.306h-5.13
		L291.629,54.844z M282.791,46.312c2.215,0,2.538,1.638,2.538,4.374c0,2.52-0.414,4.338-2.538,4.338
		c-2.088,0-2.394-1.854-2.394-4.338C280.397,48.274,280.722,46.312,282.791,46.312 M282.791,56.807c4.32,0,4.591-4.032,4.591-6.3
		c0-2.682-0.433-5.958-4.591-5.958c-4.212,0-4.464,4.23-4.464,5.958C278.327,53.044,278.525,56.807,282.791,56.807 M270.966,54.844
		c1.691-1.584,2.43-2.268,3.563-3.42c1.188-1.206,1.692-1.98,1.692-3.582c0-2.052-1.062-3.276-4.23-3.276
		c-0.684,0-2.376,0.108-3.33,0.486c-0.396,0.162-0.396,0.342-0.359,0.558l0.126,0.72c0.054,0.252,0.144,0.324,0.468,0.288
		c0.792-0.108,1.979-0.234,3.06-0.234c1.872,0,2.196,0.504,2.196,1.674c0,0.864-0.486,1.53-1.188,2.214
		c-0.684,0.72-1.565,1.548-1.817,1.782c-0.414,0.432-2.772,2.664-2.772,2.664c-0.18,0.18-0.233,0.378-0.233,0.594v1.026
		c0,0.216,0.071,0.306,0.306,0.306h7.704c0.216,0,0.288-0.108,0.288-0.306v-1.134c0-0.216-0.09-0.306-0.306-0.306h-5.131
		L270.966,54.844z M261.318,56.302v-5.22c0-1.818-0.216-3.42-2.646-3.42c-1.099,0-2.358,0.612-3.024,1.08
		c-0.018,0-0.036-0.018-0.054-0.018v-0.54c0-0.234-0.091-0.36-0.343-0.36h-1.277c-0.252,0-0.342,0.126-0.342,0.36v8.118
		c0,0.234,0.09,0.342,0.342,0.342h1.277c0.252,0,0.343-0.126,0.343-0.342v-6.012c0.485-0.234,1.746-0.81,2.466-0.81
		c1.044,0,1.296,0.702,1.296,1.764l-0.019,5.058c0,0.234,0.108,0.342,0.343,0.342h1.296
		C261.246,56.645,261.318,56.519,261.318,56.302 M249.925,52.216c0,1.926-0.324,2.844-1.962,2.844c-1.513,0-1.854-0.936-1.854-2.844
		c0-1.872,0.342-2.844,1.872-2.844C249.618,49.373,249.925,50.309,249.925,52.216 M251.94,52.09c0-2.124-0.486-4.446-3.978-4.446
		c-3.475,0-3.853,2.754-3.853,4.446c0,2.052,0.234,4.698,3.853,4.698C251.688,56.789,251.94,54.143,251.94,52.09 M238.188,54.971
		l4.212-5.364c0.162-0.198,0.216-0.378,0.216-0.594V48.13c0-0.252-0.107-0.306-0.342-0.306h-5.904c-0.252,0-0.342,0.09-0.342,0.324
		v0.972c0,0.252,0.09,0.342,0.342,0.342h3.924l-4.319,5.49c-0.181,0.216-0.198,0.396-0.198,0.594v0.792
		c0,0.216,0.072,0.306,0.306,0.306h6.282c0.234,0,0.342-0.108,0.342-0.342v-1.008c0-0.234-0.107-0.324-0.359-0.324H238.188z
		 M233.958,48.167c0-0.198-0.071-0.342-0.323-0.342h-1.278c-0.252,0-0.36,0.09-0.36,0.342v8.136c0,0.234,0.108,0.342,0.36,0.342
		h1.278c0.252,0,0.323-0.144,0.323-0.342V48.167z M234.066,45.484c0-0.612-0.18-1.026-1.062-1.026c-0.863,0-1.062,0.45-1.062,1.026
		c0,0.522,0.126,1.044,1.062,1.044C233.904,46.528,234.066,46.042,234.066,45.484 M227.496,50.506c0.63-0.27,1.908-0.63,2.916-0.828
		c0.378-0.072,0.36-0.18,0.342-0.432l-0.126-1.206c-0.035-0.306-0.197-0.36-0.432-0.306c-0.846,0.162-2.124,0.774-2.664,1.278
		l-0.036-0.036v-0.792c0-0.216-0.09-0.36-0.359-0.36h-1.278c-0.252,0-0.342,0.126-0.342,0.36v8.118c0,0.234,0.09,0.342,0.342,0.342
		h1.296c0.252,0,0.342-0.126,0.342-0.342V50.506z M221.412,52.216c0,1.926-0.324,2.844-1.962,2.844
		c-1.512,0-1.854-0.936-1.854-2.844c0-1.872,0.342-2.844,1.872-2.844C221.106,49.373,221.412,50.309,221.412,52.216 M223.429,52.09
		c0-2.124-0.486-4.446-3.979-4.446c-3.474,0-3.852,2.754-3.852,4.446c0,2.052,0.233,4.698,3.852,4.698
		C223.177,56.789,223.429,54.143,223.429,52.09 M211.513,49.48h-4.536v-4.428c0-0.216-0.072-0.36-0.324-0.36h-1.35
		c-0.252,0-0.36,0.126-0.36,0.36v11.25c0,0.234,0.108,0.342,0.36,0.342h1.35c0.252,0,0.324-0.144,0.324-0.342v-5.04h4.536v5.04
		c0,0.234,0.107,0.342,0.359,0.342h1.351c0.252,0,0.324-0.144,0.324-0.342v-11.25c0-0.216-0.072-0.36-0.324-0.36h-1.351
		c-0.252,0-0.359,0.126-0.359,0.36V49.48z"/>
</g>
</svg>
