<?xml version="1.0" encoding="UTF-8" standalone="no"?>
<!-- Generator: Adobe Illustrator 16.0.0, SVG Export Plug-In . SVG Version: 6.00 Build 0)  -->

<svg
   version="1.1"
   id="Layer_1"
   x="0px"
   y="0px"
   width="300"
   height="90"
   viewBox="0 0 300 90"
   enable-background="new 0 0 420 113.39"
   xml:space="preserve"
   sodipodi:docname="EC-H2020.svg"
   inkscape:version="1.1.1 (3bf5ae0d25, 2021-09-20)"
   xmlns:inkscape="http://www.inkscape.org/namespaces/inkscape"
   xmlns:sodipodi="http://sodipodi.sourceforge.net/DTD/sodipodi-0.dtd"
   xmlns:xlink="http://www.w3.org/1999/xlink"
   xmlns="http://www.w3.org/2000/svg"
   xmlns:svg="http://www.w3.org/2000/svg"><defs
   id="defs6792" /><sodipodi:namedview
   id="namedview6790"
   pagecolor="#ffffff"
   bordercolor="#666666"
   borderopacity="1.0"
   inkscape:pageshadow="2"
   inkscape:pageopacity="0.0"
   inkscape:pagecheckerboard="0"
   showgrid="false"
   inkscape:zoom="1.709459"
   inkscape:cx="148.58502"
   inkscape:cy="-4.3873529"
   inkscape:window-width="1866"
   inkscape:window-height="1016"
   inkscape:window-x="54"
   inkscape:window-y="27"
   inkscape:window-maximized="1"
   inkscape:current-layer="Layer_1" />
















<g
   id="g6904"
   transform="matrix(1.1268405,0,0,1.1268405,-9.7498007,2.7474825)"><g
     id="g6715"
     transform="matrix(0.643287,0,0,0.643287,6.0163215,3.2057797)">
	<defs
   id="defs6688">
		<rect
   id="SVGID_1_"
   y="0.0020000001"
   width="609.44897"
   height="113.386"
   x="0" />
	</defs>
	<clipPath
   id="SVGID_2_">
		<use
   xlink:href="#SVGID_1_"
   overflow="visible"
   id="use6690"
   x="0"
   y="0"
   width="100%"
   height="100%" />
	</clipPath>
	<path
   clip-path="url(#SVGID_2_)"
   fill="#bcbec0"
   d="m 16.866,41.015 c 0,0 52.027,-6.783 53.497,-7.026 2.253,-0.369 4.252,-0.803 6.118,-1.325 4.206,-1.158 8.082,-2.932 11.511,-5.267 3.286,-2.223 6.346,-5.456 9.376,-9.001 1.929,-2.257 3.954,-5.199 5.842,-8.039 v -1.37 c -2.24,3.341 -4.447,6.22 -6.717,8.764 -3.008,3.374 -6.164,6.133 -9.382,8.205 -3.318,2.155 -7.056,3.763 -11.104,4.781 -1.816,0.459 -3.761,0.833 -5.945,1.141 -1.44,0.203 -2.925,0.359 -4.36,0.512 -0.572,0.06 -48.836,5.22 -48.836,5.22 z"
   id="path6693" />
	<path
   clip-path="url(#SVGID_2_)"
   fill="#bcbec0"
   d="m 86.637,32.223 c -3.256,1.889 -7.018,3.268 -11.177,4.106 -1.779,0.361 -3.715,0.655 -5.925,0.898 -1.297,0.141 -2.604,0.256 -3.913,0.369 -0.705,0.062 -1.412,0.123 -2.115,0.188 -15.946,1.442 -31.806,2.973 -46.641,4.425 v 3.401 c 14.953,-1.818 30.924,-3.742 46.862,-5.558 0.71,-0.085 1.417,-0.164 2.127,-0.241 1.307,-0.146 2.614,-0.291 3.926,-0.465 2.267,-0.305 4.252,-0.654 6.065,-1.068 4.322,-0.973 8.227,-2.511 11.601,-4.57 3.354,-2.029 6.319,-4.869 9.505,-8.34 1.984,-2.163 4.191,-5.213 6.258,-8.08 v -1.247 c -2.433,3.327 -4.743,6.121 -7.028,8.504 -3.111,3.247 -6.321,5.829 -9.545,7.678"
   id="path6695" />
	<path
   clip-path="url(#SVGID_2_)"
   fill="#bcbec0"
   d="m 95.743,31.39 c -3.176,2.935 -6.489,5.243 -9.853,6.861 -3.289,1.597 -6.969,2.719 -11.251,3.428 -1.768,0.296 -3.689,0.538 -5.872,0.738 L 16.866,46.71 v 3.394 l 46.135,-4.934 5.97,-0.632 c 2.247,-0.261 4.209,-0.557 5.995,-0.898 4.435,-0.843 8.24,-2.105 11.631,-3.853 3.467,-1.766 6.928,-4.706 10.149,-7.816 2.16,-2.087 4.239,-4.781 6.464,-7.605 v -1.132 c -2.568,3.217 -5.019,5.898 -7.467,8.156"
   id="path6697" />
	<path
   clip-path="url(#SVGID_2_)"
   fill="#bcbec0"
   d="m 83.193,49.014 c -3.023,1.704 -5.283,2.684 -9.597,3.138 -2.606,0.281 -5.288,0.417 -7.882,0.547 -1.254,0.063 -2.51,0.126 -3.765,0.206 -7.841,0.451 -15.539,0.953 -23.396,1.467 l -21.687,1.473 v 3.394 l 21.903,-2.026 c 7.079,-0.64 15.304,-1.378 23.333,-2.037 l 5.837,-0.454 c 2.278,-0.178 4.147,-0.367 5.88,-0.592 4.44,-0.577 8.233,-1.483 11.591,-2.762 3.62,-1.365 7.031,-3.481 10.45,-5.97 3.08,-2.242 7.345,-6.667 7.35,-6.725 v -1.199 c -2.787,2.739 -4.392,4.279 -7.445,6.304 -3.647,2.422 -9.863,3.708 -12.572,5.236"
   id="path6699" />
	<path
   clip-path="url(#SVGID_2_)"
   fill="#bcbec0"
   d="m 84.294,55.46 c -3.273,0.968 -6.958,1.623 -11.265,2.002 -1.746,0.153 -3.627,0.27 -5.755,0.355 l -5.806,0.257 c -14.423,0.677 -28.779,1.432 -44.602,2.274 v 3.383 c 15.115,-1.178 29.928,-2.324 44.735,-3.386 l 5.787,-0.398 c 2.235,-0.148 4.086,-0.309 5.829,-0.507 4.417,-0.497 8.193,-1.264 11.544,-2.345 3.715,-1.187 7.337,-2.906 10.763,-5.11 2.529,-1.623 5.06,-3.56 7.686,-5.867 v -0.06 c -2.894,2.488 -5.651,3.04 -8.398,4.712 -3.367,2.056 -6.903,3.634 -10.518,4.69"
   id="path6701" />
	<path
   clip-path="url(#SVGID_2_)"
   fill="#bcbec0"
   d="m 83.76,61.084 c -3.298,0.776 -6.871,1.275 -11.247,1.569 -1.688,0.116 -3.502,0.201 -5.712,0.271 l -5.752,0.206 c -14.486,0.552 -29.175,1.186 -44.183,1.841 v 3.384 C 31.779,67.33 46.408,66.334 61.162,65.402 l 5.737,-0.346 c 2.25,-0.13 4.083,-0.261 5.766,-0.416 4.458,-0.414 8.105,-1.019 11.479,-1.898 3.783,-0.981 7.462,-2.422 10.932,-4.28 2.684,-1.432 5.36,-3.155 8.134,-5.232 v -1.445 c -2.997,2.18 -5.872,3.958 -8.752,5.408 -3.406,1.722 -7.006,3.028 -10.698,3.891"
   id="path6703" />
	<path
   clip-path="url(#SVGID_2_)"
   fill="#bcbec0"
   d="m 83.269,66.595 c -3.308,0.611 -6.873,1.001 -11.215,1.227 -1.635,0.085 -3.384,0.146 -5.671,0.198 l -49.516,1.352 v 3.38 l 43.909,-2.309 5.689,-0.291 c 2.221,-0.104 4.034,-0.213 5.715,-0.344 4.401,-0.341 8.026,-0.827 11.398,-1.537 3.83,-0.803 7.548,-1.972 11.046,-3.475 2.82,-1.206 5.645,-2.675 8.587,-4.463 v -1.356 c -3.143,1.841 -6.13,3.319 -9.098,4.503 -3.451,1.382 -7.1,2.43 -10.844,3.115"
   id="path6705" />
	<path
   clip-path="url(#SVGID_2_)"
   fill="#bcbec0"
   d="m 82.88,72.131 c -6.075,0.816 -12.329,0.913 -18.379,1.003 -1.387,0.018 -2.774,0.04 -4.159,0.07 l -43.476,0.787 v 3.377 l 43.551,-1.892 c 1.382,-0.062 2.764,-0.118 4.149,-0.176 6.09,-0.245 12.392,-0.496 18.55,-1.482 3.898,-0.62 7.648,-1.534 11.15,-2.722 2.897,-0.978 5.902,-2.244 8.945,-3.739 V 66.06 c -3.199,1.502 -6.342,2.749 -9.362,3.683 -3.459,1.078 -7.149,1.882 -10.969,2.388"
   id="path6707" />
	<path
   clip-path="url(#SVGID_2_)"
   fill="#bcbec0"
   d="m 82.536,77.703 c -5.694,0.474 -11.521,0.474 -17.155,0.474 -1.753,0 -3.507,0 -5.258,0.016 C 45.72,78.254 31.43,78.375 16.866,78.5 v 3.379 c 13.872,-0.476 28.588,-0.97 43.305,-1.412 1.746,-0.058 3.494,-0.103 5.245,-0.147 5.664,-0.144 11.524,-0.294 17.273,-0.921 4.018,-0.434 7.676,-1.07 11.178,-1.944 3.055,-0.754 6.193,-1.767 9.343,-2.978 v -1.241 c -3.253,1.177 -6.494,2.137 -9.65,2.837 -3.469,0.769 -7.076,1.303 -11.024,1.63"
   id="path6709" />
	<path
   clip-path="url(#SVGID_2_)"
   fill="#bcbec0"
   d="m 82.315,83.193 c -2.373,0.095 -4.939,0.141 -7.854,0.141 -1.101,0 -2.202,-0.006 -3.298,-0.015 L 59.955,83.18 C 52.31,83.123 44.694,83.11 37.547,83.103 L 16.866,83.124 V 86.5 l 20.729,-0.548 c 7.122,-0.178 14.76,-0.358 22.383,-0.499 l 11.195,-0.147 c 3.073,-0.05 7.126,-0.14 11.23,-0.411 4.023,-0.264 7.685,-0.667 11.195,-1.232 3.158,-0.509 6.384,-1.193 9.612,-2.021 v -1.198 c -3.316,0.77 -6.612,1.386 -9.81,1.815 -3.489,0.47 -7.114,0.776 -11.085,0.934"
   id="path6711" />
	<path
   clip-path="url(#SVGID_2_)"
   fill="#bcbec0"
   d="M 71.033,88.5 59.865,88.38 C 45.618,88.18 31.385,87.915 16.866,87.643 v 3.377 c 13.859,-0.093 28.536,-0.199 43.01,-0.364 L 71.048,90.49 c 3.765,-0.065 7.452,-0.132 11.18,-0.261 7.678,-0.248 14.556,-0.79 20.983,-1.647 v -1.174 c -6.452,0.7 -13.34,1.068 -21.021,1.118 -3.717,0.033 -7.438,0.005 -11.157,-0.026"
   id="path6713" />
</g><polygon
     fill="#bcbec0"
     points="16.866,95.64 103.21,95.64 103.21,94.471 16.866,92.266 "
     id="polygon6717"
     transform="matrix(0.643287,0,0,0.643287,6.0163215,3.2057797)" /><g
     id="g6753"
     transform="matrix(0.643287,0,0,0.643287,6.0163215,3.2057797)">
	<defs
   id="defs6720">
		<rect
   id="SVGID_3_"
   y="0.0020000001"
   width="609.44897"
   height="113.386"
   x="0" />
	</defs>
	<clipPath
   id="SVGID_4_">
		<use
   xlink:href="#SVGID_3_"
   overflow="visible"
   id="use6722"
   x="0"
   y="0"
   width="100%"
   height="100%" />
	</clipPath>
	<path
   clip-path="url(#SVGID_4_)"
   fill="#bcbec0"
   d="m 95.435,37.766 c -3.279,2.656 -5.812,4.543 -9.828,6.15 -3.494,1.4 -7.249,1.972 -11.539,2.562 -2.762,0.391 -5.646,0.966 -8.403,1.151 -1.134,0.078 -2.268,0.153 -3.399,0.241 l -45.399,3.336 v 3.386 l 45.582,-4.452 5.913,-0.56 c 2.192,-0.207 4.136,-0.451 5.947,-0.747 4.418,-0.713 8.225,-1.806 11.637,-3.336 3.539,-1.573 7.121,-4.149 10.449,-6.971 2.265,-1.916 4.445,-4.329 6.816,-6.961 v -1.214 c -2.868,2.985 -5.246,5.373 -7.776,7.415"
   id="path6725" />
	<path
   clip-path="url(#SVGID_4_)"
   fill="#bcbec0"
   d="m 139.956,8.987 c 0,0 15.54,24.75 18.381,29.288 2.84,4.538 6.088,8.125 17.584,10.566 11.499,2.438 16.503,3.589 16.503,3.589 v 0.88 c 0,0 -7.304,-1.557 -16.706,-3.657 -9.399,-2.099 -13.241,-2.807 -17.529,-8.769 -3.564,-4.962 -18.233,-26.05 -18.233,-26.05 z"
   id="path6727" />
	<path
   clip-path="url(#SVGID_4_)"
   fill="#bcbec0"
   d="m 139.956,37.252 c 0,0 14.145,14.822 18.233,19.079 4.34,4.513 9.899,6.184 17.602,7.561 7.355,1.312 16.631,2.827 16.631,2.827 v 0.835 c 0,0 -8.712,-1.428 -16.631,-2.781 -7.764,-1.33 -13.199,-2.072 -17.646,-6.171 -3.984,-3.667 -18.189,-16.989 -18.189,-16.989 z"
   id="path6729" />
	<path
   clip-path="url(#SVGID_4_)"
   fill="#bcbec0"
   d="m 139.956,43.929 c 0,0 13.453,12.492 18.233,16.761 4.403,3.926 7.97,5.147 17.65,6.863 9.68,1.716 16.583,2.785 16.583,2.785 v 0.88 c 0,0 -8.757,-1.438 -16.631,-2.691 -7.874,-1.252 -12.891,-1.746 -17.602,-5.563 -5.435,-4.41 -18.233,-14.95 -18.233,-14.95 z"
   id="path6731" />
	<path
   clip-path="url(#SVGID_4_)"
   fill="#bcbec0"
   d="m 139.956,51.051 c 0,0 15.367,12.191 18.239,14.323 2.872,2.134 6.669,4.623 17.694,6.216 10.931,1.58 16.535,2.365 16.535,2.365 v 0.928 c 0,0 -9.91,-1.439 -16.535,-2.271 -6.625,-0.836 -11.702,-1.192 -17.649,-5.15 -5.787,-3.853 -18.284,-12.653 -18.284,-12.653 z"
   id="path6733" />
	<path
   clip-path="url(#SVGID_4_)"
   fill="#bcbec0"
   d="m 139.956,57.893 c 0,0 15.412,10.265 18.332,11.888 2.917,1.623 6.346,4.267 17.601,5.704 11.255,1.438 16.535,2.087 16.535,2.087 v 0.881 c 0,0 -9.308,-1.02 -16.583,-1.807 -7.272,-0.791 -12.226,-1.856 -17.646,-4.825 -5.421,-2.968 -18.239,-10.458 -18.239,-10.458 z"
   id="path6735" />
	<path
   clip-path="url(#SVGID_4_)"
   fill="#bcbec0"
   d="m 139.956,64.739 c 0,0 13.623,7.413 18.233,9.726 5.143,2.583 9.59,3.817 17.65,4.778 7.911,0.939 16.583,1.855 16.583,1.855 v 0.833 c 0,0 -8.017,-0.857 -16.583,-1.668 -8.494,-0.805 -11.516,-1.177 -17.65,-3.896 -5.483,-2.433 -18.233,-8.38 -18.233,-8.38 z"
   id="path6737" />
	<path
   clip-path="url(#SVGID_4_)"
   fill="#bcbec0"
   d="m 139.956,71.677 c 0,0 10.766,4.609 18.332,7.609 7.442,2.953 13.124,3.201 17.646,3.714 1.994,0.223 16.49,1.716 16.49,1.716 v 0.833 c 0,0 -8.661,-0.695 -16.535,-1.391 -7.874,-0.694 -11.27,-0.99 -17.649,-3.107 -6.452,-2.144 -18.284,-6.27 -18.284,-6.27 z"
   id="path6739" />
	<path
   clip-path="url(#SVGID_4_)"
   fill="#bcbec0"
   d="m 139.956,78.749 c 0,0 10.869,3.369 18.281,5.317 7.41,1.946 14.22,2.736 17.647,2.968 3.429,0.232 16.54,1.297 16.54,1.297 v 0.79 c 0,0 -7.457,-0.509 -16.585,-1.159 -7.382,-0.526 -13.31,-1.081 -17.65,-2.042 -4.808,-1.062 -18.233,-4.251 -18.233,-4.251 z"
   id="path6741" />
	<path
   clip-path="url(#SVGID_4_)"
   fill="#bcbec0"
   d="m 139.956,85.707 c 0,0 8.89,1.533 18.281,3.091 7.041,1.166 16.583,1.901 17.602,1.948 1.018,0.046 16.583,1.114 16.583,1.114 v 0.833 c 0,0 -9.963,-0.515 -16.583,-0.882 -6.899,-0.38 -13.754,-0.799 -17.65,-1.206 -8.721,-0.91 -18.233,-2.113 -18.233,-2.113 z"
   id="path6743" />
	<path
   clip-path="url(#SVGID_4_)"
   fill="#bcbec0"
   d="m 139.956,92.908 c 0,0 14.02,0.527 18.281,0.62 4.262,0.092 34.185,1.299 34.185,1.299 v 0.813 h -52.466 z"
   id="path6745" />
	<path
   clip-path="url(#SVGID_4_)"
   fill="#bcbec0"
   d="M 175.839,52.666 C 163.146,49.929 160.274,45.291 158.145,42.414 156.012,39.54 139.956,16.071 139.956,16.071 v 5.295 c 0.633,0.828 14.376,18.821 18.233,23.785 4.35,5.594 11.166,6.865 17.65,8.258 6.484,1.389 16.585,3.331 16.585,3.331 v -0.743 c 0,0 -13.309,-2.626 -16.585,-3.331"
   id="path6747" />
	<path
   clip-path="url(#SVGID_4_)"
   fill="#bcbec0"
   d="M 175.839,56.376 C 165.417,54.334 161.202,51.043 158.145,47.052 155.087,43.064 139.956,23.12 139.956,23.12 v 5.014 c 0.633,0.752 14.476,17.17 18.189,21.424 4.332,4.962 10.374,6.261 17.694,7.606 7.319,1.348 16.583,3.108 16.583,3.108 v -0.743 c 0,0 -10.576,-1.977 -16.583,-3.153"
   id="path6749" />
	<path
   clip-path="url(#SVGID_4_)"
   fill="#bcbec0"
   d="M 175.839,60.226 C 165,58.123 162.777,56.391 158.189,51.367 155.308,48.208 140.578,30.815 139.956,30.083 v 4.633 c 0,0 13.764,14.681 18.189,19.016 5.807,5.688 11.255,6.123 17.694,7.282 6.439,1.159 16.583,3.015 16.583,3.015 v -0.787 c 0,0 -12.249,-2.175 -16.583,-3.016"
   id="path6751" />
</g><rect
     x="39.952286"
     y="32.176208"
     fill="#034ea2"
     width="48.663376"
     height="32.552895"
     id="rect6755"
     style="stroke-width:0.643287" /><polygon
     fill="#fff200"
     points="89.338,53.882 87.201,52.229 89.825,52.229 90.62,49.673 91.398,52.229 94.029,52.229 91.91,53.882 92.733,56.503 90.62,54.888 88.506,56.503 "
     id="polygon6757"
     transform="matrix(0.643287,0,0,0.643287,6.0163215,3.2057797)" /><polygon
     fill="#fff200"
     points="89.437,87.571 87.294,85.977 89.921,85.977 90.716,83.516 91.491,85.977 94.127,85.977 92.005,87.571 92.83,90.091 90.716,88.537 88.604,90.091 "
     id="polygon6759"
     transform="matrix(0.643287,0,0,0.643287,6.0163215,3.2057797)" /><polygon
     fill="#fff200"
     points="97.784,85.331 95.642,83.743 98.269,83.743 99.064,81.282 99.839,83.743 102.475,83.743 100.353,85.331 101.178,87.857 99.064,86.298 96.952,87.857 "
     id="polygon6761"
     transform="matrix(0.643287,0,0,0.643287,6.0163215,3.2057797)" /><polygon
     fill="#fff200"
     points="97.784,56.073 95.642,54.482 98.269,54.482 99.064,52.022 99.839,54.482 102.475,54.482 100.353,56.073 101.178,58.593 99.064,57.041 96.952,58.593 "
     id="polygon6763"
     transform="matrix(0.643287,0,0,0.643287,6.0163215,3.2057797)" /><polygon
     fill="#fff200"
     points="103.98,62.265 101.838,60.677 104.462,60.677 105.257,58.217 106.038,60.677 108.668,60.677 106.546,62.265 107.373,64.792 105.257,63.237 103.147,64.792 "
     id="polygon6765"
     transform="matrix(0.643287,0,0,0.643287,6.0163215,3.2057797)" /><polygon
     fill="#fff200"
     points="103.98,79.222 101.838,77.629 104.462,77.629 105.257,75.169 106.038,77.629 108.668,77.629 106.546,79.222 107.373,81.747 105.257,80.188 103.147,81.747 "
     id="polygon6767"
     transform="matrix(0.643287,0,0,0.643287,6.0163215,3.2057797)" /><polygon
     fill="#fff200"
     points="106.303,70.617 104.161,69.023 106.785,69.023 107.585,66.565 108.358,69.023 110.994,69.023 108.872,70.617 109.697,73.139 107.585,71.583 105.471,73.139 "
     id="polygon6769"
     transform="matrix(0.643287,0,0,0.643287,6.0163215,3.2057797)" /><polygon
     fill="#fff200"
     points="80.828,56.095 78.691,54.502 81.314,54.502 82.11,52.042 82.887,54.502 85.518,54.502 83.396,56.095 84.222,58.619 82.11,57.062 79.995,58.619 "
     id="polygon6771"
     transform="matrix(0.643287,0,0,0.643287,6.0163215,3.2057797)" /><polygon
     fill="#fff200"
     points="74.805,62.289 72.665,60.698 75.292,60.698 76.087,58.24 76.862,60.698 79.498,60.698 77.376,62.289 78.197,64.812 76.087,63.258 73.975,64.812 "
     id="polygon6773"
     transform="matrix(0.643287,0,0,0.643287,6.0163215,3.2057797)" /><polygon
     fill="#fff200"
     points="72.567,70.635 70.43,69.045 73.054,69.045 73.85,66.587 74.625,69.045 77.258,69.045 75.139,70.635 75.961,73.16 73.85,71.607 71.734,73.16 "
     id="polygon6775"
     transform="matrix(0.643287,0,0,0.643287,6.0163215,3.2057797)" /><polygon
     fill="#fff200"
     points="74.805,79.245 72.665,77.65 75.292,77.65 76.087,75.194 76.862,77.65 79.498,77.65 77.376,79.245 78.197,81.766 76.087,80.21 73.975,81.766 "
     id="polygon6777"
     transform="matrix(0.643287,0,0,0.643287,6.0163215,3.2057797)" /><polygon
     fill="#fff200"
     points="80.915,85.352 78.779,83.762 81.402,83.762 82.198,81.302 82.975,83.762 85.606,83.762 83.484,85.352 84.305,87.876 82.198,86.322 80.083,87.876 "
     id="polygon6779"
     transform="matrix(0.643287,0,0,0.643287,6.0163215,3.2057797)" /><g
     id="g6787"
     transform="matrix(0.643287,0,0,0.643287,6.0163215,3.2057797)">
	<path
   fill="#636466"
   d="m 405.19,96.302 v -5.22 c 0,-1.818 -0.216,-3.42 -2.646,-3.42 -1.098,0 -2.357,0.612 -3.023,1.08 -0.019,0 -0.036,-0.019 -0.054,-0.019 v -0.54 c 0,-0.233 -0.091,-0.359 -0.343,-0.359 h -1.277 c -0.252,0 -0.343,0.126 -0.343,0.359 v 8.118 c 0,0.234 0.091,0.342 0.343,0.342 h 1.277 c 0.252,0 0.343,-0.126 0.343,-0.342 v -6.012 c 0.485,-0.234 1.746,-0.81 2.466,-0.81 1.044,0 1.296,0.701 1.296,1.764 l -0.019,5.058 c 0,0.234 0.108,0.342 0.343,0.342 h 1.296 c 0.269,0.001 0.341,-0.125 0.341,-0.341 m -11.393,-4.086 c 0,1.926 -0.324,2.844 -1.963,2.844 -1.512,0 -1.854,-0.936 -1.854,-2.844 0,-1.872 0.342,-2.844 1.872,-2.844 1.638,0.001 1.945,0.936 1.945,2.844 m 2.015,-0.126 c 0,-2.124 -0.486,-4.446 -3.979,-4.446 -3.474,0 -3.852,2.755 -3.852,4.446 0,2.052 0.234,4.698 3.852,4.698 3.728,0.001 3.979,-2.646 3.979,-4.698 m -9.881,-3.923 c 0,-0.198 -0.072,-0.342 -0.324,-0.342 h -1.278 c -0.252,0 -0.359,0.09 -0.359,0.342 v 8.136 c 0,0.234 0.107,0.342 0.359,0.342 h 1.278 c 0.252,0 0.324,-0.144 0.324,-0.342 z m 0.107,-2.682 c 0,-0.612 -0.18,-1.026 -1.062,-1.026 -0.864,0 -1.062,0.45 -1.062,1.026 0,0.521 0.126,1.044 1.062,1.044 0.9,0 1.062,-0.487 1.062,-1.044 m -3.456,9.575 c -0.035,-0.216 -0.126,-0.27 -0.323,-0.252 -0.36,0.036 -0.954,0.072 -1.206,0.072 -0.954,0 -1.206,-0.036 -1.206,-0.99 v -4.481 h 1.926 c 0.288,0 0.342,-0.108 0.342,-0.342 v -0.9 c 0,-0.216 -0.054,-0.342 -0.342,-0.342 h -1.926 v -2.358 c 0,-0.233 -0.145,-0.27 -0.36,-0.216 l -1.206,0.324 c -0.198,0.054 -0.342,0.144 -0.342,0.396 v 1.854 h -0.918 c -0.271,0 -0.342,0.126 -0.342,0.359 v 0.883 c 0,0.233 0.071,0.342 0.342,0.342 h 0.899 v 4.518 c 0,1.548 0.108,2.862 2.215,2.862 0.558,0 1.71,-0.108 2.34,-0.378 0.18,-0.09 0.27,-0.216 0.233,-0.45 z m -9.484,0.576 c 0.18,0.847 0.702,1.099 1.548,1.099 0.27,0 0.558,-0.036 0.846,-0.091 0.306,-0.054 0.433,-0.18 0.433,-0.378 V 95.51 c 0,-0.198 -0.072,-0.252 -0.343,-0.27 -0.558,-0.072 -0.647,-0.09 -0.647,-0.828 v -3.474 c 0,-2.017 -0.378,-3.295 -3.492,-3.295 -0.846,0 -2.268,0.126 -3.042,0.396 -0.396,0.162 -0.45,0.306 -0.414,0.54 l 0.162,0.666 c 0.054,0.252 0.144,0.27 0.504,0.216 0.72,-0.072 1.854,-0.162 2.448,-0.162 1.476,0 1.872,0.378 1.872,1.458 v 0.468 h -2.305 c -2.268,0 -3.401,0.9 -3.384,3.007 0,1.512 0.559,2.556 2.466,2.556 1.206,0 2.412,-0.486 3.312,-1.17 z m -0.145,-1.296 c -0.684,0.396 -1.781,0.846 -2.556,0.846 -0.846,0 -1.116,-0.252 -1.116,-1.044 0,-1.188 0.576,-1.512 1.477,-1.512 h 2.195 z m -10.908,0.09 c -0.054,-0.162 -0.666,-2.069 -0.666,-2.069 l -1.439,-4.212 c -0.09,-0.271 -0.18,-0.324 -0.432,-0.324 h -1.423 c -0.233,0 -0.27,0.162 -0.197,0.359 l 3.06,8.101 c 0.09,0.252 0.18,0.359 0.504,0.359 h 1.206 c 0.288,0 0.414,-0.107 0.504,-0.378 l 3.061,-8.1 c 0.09,-0.216 0.054,-0.342 -0.216,-0.342 h -1.368 c -0.271,0 -0.343,0.09 -0.414,0.288 l -1.44,4.176 c 0,0 -0.666,1.998 -0.684,2.142 z m -6.947,-2.214 c 0,1.926 -0.324,2.844 -1.962,2.844 -1.513,0 -1.854,-0.936 -1.854,-2.844 0,-1.872 0.342,-2.844 1.872,-2.844 1.637,0.001 1.944,0.936 1.944,2.844 m 2.015,-0.126 c 0,-2.124 -0.486,-4.446 -3.978,-4.446 -3.475,0 -3.853,2.755 -3.853,4.446 0,2.052 0.234,4.698 3.853,4.698 3.726,0.001 3.978,-2.646 3.978,-4.698 m -9.54,4.212 v -5.22 c 0,-1.818 -0.216,-3.42 -2.646,-3.42 -1.099,0 -2.358,0.612 -3.024,1.08 -0.018,0 -0.036,-0.019 -0.054,-0.019 v -0.54 c 0,-0.233 -0.09,-0.359 -0.342,-0.359 h -1.278 c -0.252,0 -0.342,0.126 -0.342,0.359 v 8.118 c 0,0.234 0.09,0.342 0.342,0.342 h 1.278 c 0.252,0 0.342,-0.126 0.342,-0.342 v -6.012 c 0.485,-0.234 1.746,-0.81 2.466,-0.81 1.044,0 1.296,0.701 1.296,1.764 l -0.018,5.058 c 0,0.234 0.107,0.342 0.342,0.342 h 1.296 c 0.27,0.001 0.342,-0.125 0.342,-0.341 m -9.504,0 v -5.22 c 0,-1.818 -0.216,-3.42 -2.646,-3.42 -1.099,0 -2.358,0.612 -3.024,1.08 -0.018,0 -0.036,-0.019 -0.054,-0.019 v -0.54 c 0,-0.233 -0.09,-0.359 -0.342,-0.359 h -1.278 c -0.252,0 -0.342,0.126 -0.342,0.359 v 8.118 c 0,0.234 0.09,0.342 0.342,0.342 h 1.278 c 0.252,0 0.342,-0.126 0.342,-0.342 v -6.012 c 0.485,-0.234 1.746,-0.81 2.466,-0.81 1.044,0 1.296,0.701 1.296,1.764 l -0.018,5.058 c 0,0.234 0.107,0.342 0.342,0.342 h 1.296 c 0.27,0.001 0.342,-0.125 0.342,-0.341 m -12.114,0 c 0,0.234 0.09,0.342 0.343,0.342 h 1.367 c 0.252,0 0.343,-0.144 0.343,-0.342 v -11.25 c 0,-0.216 -0.091,-0.359 -0.343,-0.359 h -1.367 c -0.253,0 -0.343,0.126 -0.343,0.359 z M 313.05,87.05 c 0,0.72 -0.612,1.188 -1.44,1.639 -0.414,-0.576 -0.63,-1.08 -0.63,-1.513 0,-0.485 0.306,-1.134 1.026,-1.134 0.594,0 1.044,0.432 1.044,1.008 m -1.782,8.262 c -1.206,0 -2.196,-0.558 -2.196,-1.943 0,-1.026 0.738,-1.872 1.872,-2.538 0.648,1.008 1.908,2.592 3.006,3.654 -0.9,0.575 -1.837,0.846 -2.682,0.827 m 7.649,1.368 c 0.145,-0.216 0.145,-0.306 -0.071,-0.432 -0.774,-0.45 -1.584,-1.044 -2.286,-1.656 0.954,-0.99 2.105,-3.042 2.214,-4.95 0.018,-0.342 -0.054,-0.468 -0.378,-0.485 h -0.811 c -0.323,0 -0.342,0.036 -0.396,0.359 -0.216,1.566 -0.918,2.916 -1.872,3.925 -1.098,-1.062 -1.998,-2.179 -2.826,-3.421 1.44,-0.756 2.34,-1.728 2.34,-3.023 0,-1.404 -1.098,-2.484 -2.771,-2.484 -1.818,0 -2.826,1.225 -2.826,2.754 0,0.522 0.288,1.404 0.828,2.215 -1.746,1.008 -2.79,2.376 -2.79,3.978 0,2.376 1.8,3.384 3.978,3.384 1.351,0 2.772,-0.396 3.942,-1.17 0.81,0.702 2.016,1.548 2.754,1.89 0.288,0.127 0.414,0.036 0.54,-0.126 z m -18.342,-0.378 v -5.22 c 0,-1.818 -0.252,-3.42 -2.735,-3.42 -1.116,0 -2.341,0.594 -2.988,0.99 v -4.356 c 0,-0.216 -0.09,-0.342 -0.36,-0.342 h -1.278 c -0.233,0 -0.323,0.107 -0.323,0.342 v 12.006 c 0,0.234 0.09,0.342 0.323,0.342 h 1.278 c 0.271,0 0.342,-0.126 0.342,-0.342 v -6.065 c 0.486,-0.217 1.746,-0.811 2.467,-0.811 1.079,0 1.296,0.685 1.296,1.674 0,1.746 -0.019,3.456 -0.019,5.202 0,0.234 0.108,0.342 0.36,0.342 h 1.278 c 0.269,0 0.359,-0.126 0.359,-0.342 m -9.126,-1.134 c -0.054,-0.306 -0.18,-0.306 -0.468,-0.27 -0.738,0.09 -1.782,0.161 -2.322,0.161 -1.439,0 -1.943,-0.666 -1.943,-2.916 0,-1.998 0.504,-2.754 1.962,-2.754 0.611,0 1.458,0.091 2.195,0.162 0.343,0.019 0.486,0.019 0.559,-0.252 l 0.126,-0.72 c 0.036,-0.234 -0.036,-0.396 -0.271,-0.504 -0.773,-0.324 -1.943,-0.433 -2.771,-0.433 -3.33,0 -3.853,2.305 -3.853,4.536 0,2.448 0.486,4.608 3.853,4.608 0.882,0 2.052,-0.126 2.735,-0.414 0.324,-0.144 0.378,-0.288 0.307,-0.558 z m -10.836,-4.662 c 0.63,-0.27 1.908,-0.63 2.916,-0.828 0.378,-0.071 0.36,-0.18 0.342,-0.432 l -0.126,-1.206 c -0.036,-0.306 -0.197,-0.36 -0.432,-0.306 -0.846,0.161 -2.124,0.773 -2.664,1.277 l -0.036,-0.036 v -0.792 c 0,-0.216 -0.09,-0.359 -0.36,-0.359 h -1.277 c -0.252,0 -0.342,0.126 -0.342,0.359 v 8.118 c 0,0.234 0.09,0.342 0.342,0.342 h 1.296 c 0.252,0 0.342,-0.126 0.342,-0.342 v -5.795 z m -6.425,5.13 c 0.18,0.847 0.702,1.099 1.548,1.099 0.271,0 0.558,-0.036 0.846,-0.091 0.307,-0.054 0.433,-0.18 0.433,-0.378 V 95.51 c 0,-0.198 -0.072,-0.252 -0.342,-0.27 -0.559,-0.072 -0.648,-0.09 -0.648,-0.828 v -3.474 c 0,-2.017 -0.378,-3.295 -3.492,-3.295 -0.846,0 -2.268,0.126 -3.042,0.396 -0.396,0.162 -0.45,0.306 -0.414,0.54 l 0.162,0.666 c 0.054,0.252 0.145,0.27 0.504,0.216 0.72,-0.072 1.854,-0.162 2.448,-0.162 1.476,0 1.872,0.378 1.872,1.458 v 0.468 h -2.304 c -2.269,0 -3.402,0.9 -3.385,3.007 0,1.512 0.559,2.556 2.467,2.556 1.205,0 2.411,-0.486 3.312,-1.17 z m -0.145,-1.296 c -0.684,0.396 -1.781,0.846 -2.556,0.846 -0.846,0 -1.116,-0.252 -1.116,-1.044 0,-1.188 0.576,-1.512 1.477,-1.512 h 2.195 z m -10.942,-5.076 c 1.494,0 1.782,1.062 1.782,2.16 h -3.564 c 0.089,-1.349 0.45,-2.16 1.782,-2.16 m 2.969,3.511 c 0.72,0 0.9,-0.45 0.882,-1.099 -0.054,-1.943 -0.63,-4.032 -3.852,-4.032 -3.51,0 -3.834,2.881 -3.834,4.626 0,2.341 0.504,4.536 3.941,4.536 0.883,0 2.196,-0.18 2.898,-0.449 0.324,-0.145 0.36,-0.288 0.306,-0.559 l -0.107,-0.594 c -0.055,-0.342 -0.162,-0.342 -0.486,-0.306 -0.684,0.071 -1.692,0.197 -2.34,0.197 -1.477,0 -2.124,-0.504 -2.178,-2.321 h 4.77 z m -8.298,1.224 c 0,-2.142 -1.548,-2.484 -3.258,-2.736 -1.099,-0.18 -1.53,-0.27 -1.53,-0.972 0,-0.684 0.27,-1.008 1.422,-1.008 0.666,0 1.674,0.107 2.448,0.198 0.324,0.035 0.432,0 0.486,-0.253 l 0.144,-0.647 c 0.054,-0.271 -0.072,-0.414 -0.378,-0.54 -0.756,-0.288 -1.998,-0.396 -2.736,-0.396 -2.016,0 -3.384,0.937 -3.384,2.719 0,1.962 1.548,2.34 3.312,2.592 1.134,0.162 1.439,0.342 1.439,1.17 0,0.72 -0.468,1.026 -1.62,1.026 -0.611,0 -1.764,-0.091 -2.556,-0.217 -0.288,-0.035 -0.414,-0.018 -0.468,0.271 l -0.126,0.594 c -0.055,0.288 0.018,0.45 0.378,0.594 0.684,0.271 1.89,0.396 2.79,0.396 1.855,-0.001 3.637,-0.686 3.637,-2.791 m -12.078,-4.735 c 1.494,0 1.782,1.062 1.782,2.16 h -3.564 c 0.09,-1.349 0.45,-2.16 1.782,-2.16 m 2.97,3.511 c 0.721,0 0.9,-0.45 0.883,-1.099 -0.055,-1.943 -0.631,-4.032 -3.853,-4.032 -3.51,0 -3.834,2.881 -3.834,4.626 0,2.341 0.504,4.536 3.942,4.536 0.882,0 2.195,-0.18 2.897,-0.449 0.324,-0.145 0.36,-0.288 0.307,-0.559 l -0.108,-0.594 c -0.054,-0.342 -0.162,-0.342 -0.486,-0.306 -0.684,0.071 -1.691,0.197 -2.34,0.197 -1.476,0 -2.124,-0.504 -2.178,-2.321 h 4.77 z m -10.529,-4.572 c 0,1.638 -1.135,1.908 -2.017,1.908 h -1.872 v -3.637 h 1.908 c 1.044,0 1.981,0.378 1.981,1.729 m -0.036,3.294 c 1.565,-0.594 2.142,-2.016 2.142,-3.294 0,-2.484 -1.817,-3.51 -3.672,-3.51 h -3.996 c -0.27,0 -0.359,0.126 -0.359,0.342 v 11.268 c 0,0.234 0.09,0.342 0.359,0.342 h 1.332 c 0.252,0 0.342,-0.144 0.342,-0.359 v -4.464 h 1.836 l 2.106,4.518 c 0.108,0.252 0.252,0.306 0.521,0.306 h 1.549 c 0.197,0 0.288,-0.161 0.197,-0.378 z M 222.69,90.506 c 0.63,-0.27 1.908,-0.63 2.916,-0.828 0.378,-0.071 0.36,-0.18 0.342,-0.432 l -0.126,-1.206 c -0.036,-0.306 -0.198,-0.36 -0.432,-0.306 -0.847,0.161 -2.124,0.773 -2.664,1.277 l -0.036,-0.036 v -0.792 c 0,-0.216 -0.09,-0.359 -0.36,-0.359 h -1.277 c -0.252,0 -0.343,0.126 -0.343,0.359 v 8.118 c 0,0.234 0.091,0.342 0.343,0.342 h 1.296 c 0.252,0 0.342,-0.126 0.342,-0.342 v -5.795 z m -6.084,1.71 c 0,1.926 -0.324,2.844 -1.962,2.844 -1.512,0 -1.854,-0.936 -1.854,-2.844 0,-1.872 0.343,-2.844 1.872,-2.844 1.639,0.001 1.944,0.936 1.944,2.844 m 2.016,-0.126 c 0,-2.124 -0.485,-4.446 -3.978,-4.446 -3.475,0 -3.853,2.755 -3.853,4.446 0,2.052 0.234,4.698 3.853,4.698 3.726,0.001 3.978,-2.646 3.978,-4.698 m -11.231,-2.681 h 2.142 c 0.271,0 0.324,-0.108 0.324,-0.36 v -0.882 c 0,-0.216 -0.054,-0.342 -0.324,-0.342 h -2.142 v -0.756 c 0,-1.044 0.45,-1.494 1.529,-1.494 0.234,0 0.811,0.036 1.549,0.126 0.306,0.036 0.449,0.018 0.521,-0.216 l 0.126,-0.721 c 0.036,-0.197 0.036,-0.396 -0.233,-0.504 -0.757,-0.306 -1.765,-0.414 -2.269,-0.414 -2.286,0 -3.168,1.188 -3.168,3.024 v 0.954 H 204.6 c -0.252,0 -0.342,0.126 -0.342,0.359 v 0.864 c 0,0.252 0.09,0.36 0.342,0.36 h 0.828 v 6.894 c 0,0.234 0.107,0.342 0.359,0.342 h 1.278 c 0.252,0 0.324,-0.144 0.324,-0.342 v -6.892 z"
   id="path6781" />
	<path
   fill="#636466"
   d="m 383.194,72.109 c 0,-2.376 0.864,-2.7 1.98,-2.7 0.575,0 1.241,0.072 1.8,0.162 v 5.13 c -0.756,0.216 -1.512,0.306 -2.034,0.306 -1.259,-0.001 -1.746,-0.703 -1.746,-2.898 m 1.89,-4.465 c -3.077,0 -3.941,1.801 -3.941,4.626 0,2.664 0.702,4.465 3.618,4.465 0.575,0 1.296,-0.108 2.214,-0.433 v 0.594 c 0,1.116 -0.378,1.585 -1.908,1.585 -0.702,0 -1.674,-0.055 -2.484,-0.181 -0.342,-0.054 -0.468,-0.036 -0.521,0.252 l -0.145,0.666 c -0.035,0.198 -0.018,0.378 0.36,0.522 0.738,0.306 1.962,0.414 2.898,0.414 3.438,0 3.798,-1.548 3.798,-3.618 v -7.614 c 0,-0.324 -0.055,-0.666 -0.486,-0.81 -0.883,-0.287 -2.268,-0.468 -3.403,-0.468 m -5.688,8.658 v -5.22 c 0,-1.818 -0.216,-3.42 -2.646,-3.42 -1.098,0 -2.357,0.612 -3.023,1.08 -0.019,0 -0.036,-0.019 -0.055,-0.019 v -0.54 c 0,-0.233 -0.09,-0.359 -0.342,-0.359 h -1.277 c -0.252,0 -0.343,0.126 -0.343,0.359 v 8.118 c 0,0.234 0.091,0.342 0.343,0.342 h 1.277 c 0.252,0 0.342,-0.126 0.342,-0.342 v -6.012 c 0.486,-0.234 1.746,-0.81 2.467,-0.81 1.044,0 1.296,0.701 1.296,1.764 l -0.019,5.058 c 0,0.234 0.108,0.342 0.343,0.342 h 1.296 c 0.269,0.001 0.341,-0.125 0.341,-0.341 m -9.845,-8.135 c 0,-0.198 -0.072,-0.342 -0.324,-0.342 h -1.278 c -0.252,0 -0.36,0.09 -0.36,0.342 v 8.136 c 0,0.234 0.108,0.342 0.36,0.342 h 1.278 c 0.252,0 0.324,-0.144 0.324,-0.342 z m 0.107,-2.682 c 0,-0.612 -0.18,-1.026 -1.062,-1.026 -0.864,0 -1.062,0.45 -1.062,1.026 0,0.521 0.126,1.044 1.062,1.044 0.9,0 1.062,-0.487 1.062,-1.044 m -6.227,8.712 c -0.522,0.27 -1.692,0.81 -2.431,0.81 -0.936,0 -1.386,-0.378 -1.386,-2.682 0,-2.269 0.433,-2.952 1.746,-2.952 0.594,0 1.242,0.072 2.07,0.306 v 4.518 z m 1.962,2.105 V 64.315 c 0,-0.217 -0.036,-0.36 -0.324,-0.36 h -1.278 c -0.288,0 -0.342,0.126 -0.342,0.36 v 3.726 c -0.018,0 -0.018,0.018 -0.036,0.018 -0.773,-0.288 -1.512,-0.414 -2.231,-0.414 -2.916,0 -3.582,1.746 -3.582,4.698 0,2.718 0.611,4.446 2.952,4.446 1.062,0 2.214,-0.612 2.844,-1.062 0.018,0 0.036,0.019 0.054,0.019 v 0.576 c 0,0.233 0.09,0.323 0.324,0.323 h 1.296 c 0.25,-10e-4 0.323,-0.127 0.323,-0.343 m -9.468,0 v -5.22 c 0,-1.818 -0.217,-3.42 -2.646,-3.42 -1.098,0 -2.358,0.612 -3.024,1.08 -0.018,0 -0.035,-0.019 -0.054,-0.019 v -0.54 c 0,-0.233 -0.09,-0.359 -0.342,-0.359 h -1.278 c -0.252,0 -0.342,0.126 -0.342,0.359 v 8.118 c 0,0.234 0.09,0.342 0.342,0.342 h 1.278 c 0.252,0 0.342,-0.126 0.342,-0.342 v -6.012 c 0.486,-0.234 1.746,-0.81 2.466,-0.81 1.044,0 1.297,0.701 1.297,1.764 l -0.019,5.058 c 0,0.234 0.108,0.342 0.342,0.342 h 1.296 c 0.27,0.001 0.342,-0.125 0.342,-0.341 m -9.539,0 v -8.118 c 0,-0.233 -0.091,-0.359 -0.343,-0.359 h -1.277 c -0.271,0 -0.342,0.144 -0.342,0.359 v 6.013 c -0.469,0.233 -1.656,0.81 -2.431,0.81 -1.098,0 -1.313,-0.684 -1.313,-1.764 v -5.059 c 0,-0.233 -0.09,-0.359 -0.324,-0.359 h -1.314 c -0.252,0 -0.342,0.144 -0.342,0.359 v 5.292 c 0,1.891 0.234,3.33 2.664,3.33 1.098,0 2.322,-0.594 3.024,-1.08 l 0.036,0.019 v 0.558 c 0,0.216 0.071,0.342 0.342,0.342 h 1.277 c 0.252,-10e-4 0.343,-0.108 0.343,-0.343 m -11.935,-6.893 h 2.143 c 0.27,0 0.323,-0.108 0.323,-0.36 v -0.882 c 0,-0.216 -0.054,-0.342 -0.323,-0.342 h -2.143 v -0.756 c 0,-1.044 0.45,-1.494 1.53,-1.494 0.234,0 0.81,0.036 1.548,0.126 0.306,0.036 0.45,0.018 0.522,-0.216 l 0.126,-0.721 c 0.035,-0.197 0.035,-0.396 -0.234,-0.504 -0.756,-0.306 -1.764,-0.414 -2.268,-0.414 -2.286,0 -3.168,1.188 -3.168,3.024 v 0.954 h -0.847 c -0.252,0 -0.342,0.126 -0.342,0.359 v 0.864 c 0,0.252 0.09,0.36 0.342,0.36 h 0.828 v 6.894 c 0,0.234 0.108,0.342 0.36,0.342 h 1.277 c 0.252,0 0.324,-0.144 0.324,-0.342 v -6.892 z m -9.683,6.893 v -5.22 c 0,-1.818 -0.216,-3.42 -2.646,-3.42 -1.098,0 -2.357,0.612 -3.023,1.08 -0.019,0 -0.036,-0.019 -0.055,-0.019 v -0.54 c 0,-0.233 -0.09,-0.359 -0.342,-0.359 h -1.277 c -0.252,0 -0.343,0.126 -0.343,0.359 v 8.118 c 0,0.234 0.091,0.342 0.343,0.342 h 1.277 c 0.252,0 0.342,-0.126 0.342,-0.342 v -6.012 c 0.486,-0.234 1.746,-0.81 2.467,-0.81 1.044,0 1.296,0.701 1.296,1.764 l -0.019,5.058 c 0,0.234 0.108,0.342 0.342,0.342 h 1.297 c 0.268,0.001 0.341,-0.125 0.341,-0.341 m -11.395,-4.086 c 0,1.926 -0.323,2.844 -1.962,2.844 -1.512,0 -1.854,-0.936 -1.854,-2.844 0,-1.872 0.342,-2.844 1.872,-2.844 1.638,0.001 1.944,0.936 1.944,2.844 m 2.017,-0.126 c 0,-2.124 -0.486,-4.446 -3.979,-4.446 -3.474,0 -3.852,2.755 -3.852,4.446 0,2.052 0.233,4.698 3.852,4.698 3.727,0.001 3.979,-2.646 3.979,-4.698 m -9.882,-3.923 c 0,-0.198 -0.072,-0.342 -0.324,-0.342 h -1.278 c -0.252,0 -0.36,0.09 -0.36,0.342 v 8.136 c 0,0.234 0.108,0.342 0.36,0.342 h 1.278 c 0.252,0 0.324,-0.144 0.324,-0.342 z m 0.107,-2.682 c 0,-0.612 -0.18,-1.026 -1.062,-1.026 -0.864,0 -1.062,0.45 -1.062,1.026 0,0.521 0.126,1.044 1.062,1.044 0.9,0 1.062,-0.487 1.062,-1.044 m -4.212,10.817 v -5.22 c 0,-1.818 -0.216,-3.42 -2.646,-3.42 -1.099,0 -2.358,0.612 -3.024,1.08 -0.018,0 -0.036,-0.019 -0.054,-0.019 v -0.54 c 0,-0.233 -0.09,-0.359 -0.342,-0.359 h -1.278 c -0.252,0 -0.342,0.126 -0.342,0.359 v 8.118 c 0,0.234 0.09,0.342 0.342,0.342 h 1.278 c 0.252,0 0.342,-0.126 0.342,-0.342 v -6.012 c 0.485,-0.234 1.746,-0.81 2.466,-0.81 1.044,0 1.296,0.701 1.296,1.764 l -0.018,5.058 c 0,0.234 0.107,0.342 0.342,0.342 h 1.296 c 0.27,0.001 0.342,-0.125 0.342,-0.341 m -14.238,-1.313 c -1.584,0 -2.394,-0.954 -2.394,-2.719 v -7.218 c 0,-0.216 -0.09,-0.359 -0.342,-0.359 h -1.351 c -0.252,0 -0.342,0.126 -0.342,0.359 v 7.218 c 0,0.937 0.162,1.801 0.54,2.521 0.684,1.313 1.98,1.998 3.888,1.998 1.801,0 3.42,-0.685 4.122,-2.395 0.271,-0.701 0.324,-1.403 0.324,-2.124 l 0.018,-7.218 c 0,-0.216 -0.071,-0.359 -0.323,-0.359 h -1.351 c -0.252,0 -0.359,0.126 -0.359,0.359 v 7.218 c 10e-4,1.855 -0.864,2.719 -2.43,2.719 m -11.628,1.313 v -5.22 c 0,-1.818 -0.216,-3.42 -2.646,-3.42 -1.099,0 -2.358,0.612 -3.024,1.08 -0.018,0 -0.036,-0.019 -0.054,-0.019 v -0.54 c 0,-0.233 -0.09,-0.359 -0.342,-0.359 h -1.278 c -0.252,0 -0.342,0.126 -0.342,0.359 v 8.118 c 0,0.234 0.09,0.342 0.342,0.342 h 1.278 c 0.252,0 0.342,-0.126 0.342,-0.342 v -6.012 c 0.486,-0.234 1.746,-0.81 2.466,-0.81 1.044,0 1.296,0.701 1.296,1.764 l -0.018,5.058 c 0,0.234 0.107,0.342 0.342,0.342 h 1.296 c 0.271,0.001 0.342,-0.125 0.342,-0.341 m -11.734,-0.666 c 0.18,0.847 0.701,1.099 1.548,1.099 0.27,0 0.558,-0.036 0.846,-0.091 0.306,-0.054 0.432,-0.18 0.432,-0.378 V 75.51 c 0,-0.198 -0.071,-0.252 -0.342,-0.27 -0.558,-0.072 -0.647,-0.09 -0.647,-0.828 v -3.474 c 0,-2.017 -0.378,-3.295 -3.492,-3.295 -0.846,0 -2.269,0.126 -3.042,0.396 -0.396,0.162 -0.45,0.306 -0.414,0.54 l 0.162,0.666 c 0.054,0.252 0.144,0.27 0.504,0.216 0.72,-0.072 1.854,-0.162 2.448,-0.162 1.476,0 1.872,0.378 1.872,1.458 v 0.468 h -2.305 c -2.268,0 -3.401,0.9 -3.384,3.007 0,1.512 0.559,2.556 2.466,2.556 1.206,0 2.412,-0.486 3.312,-1.17 z m -0.145,-1.296 c -0.684,0.396 -1.782,0.846 -2.556,0.846 -0.846,0 -1.116,-0.252 -1.116,-1.044 0,-1.188 0.576,-1.512 1.477,-1.512 h 2.195 z m -10.943,-5.076 c 1.493,0 1.781,1.062 1.781,2.16 h -3.563 c 0.089,-1.349 0.45,-2.16 1.782,-2.16 m 2.97,3.511 c 0.72,0 0.899,-0.45 0.882,-1.099 -0.054,-1.943 -0.63,-4.032 -3.852,-4.032 -3.511,0 -3.834,2.881 -3.834,4.626 0,2.341 0.504,4.536 3.941,4.536 0.882,0 2.196,-0.18 2.898,-0.449 0.323,-0.145 0.359,-0.288 0.306,-0.559 l -0.108,-0.594 c -0.054,-0.342 -0.161,-0.342 -0.485,-0.306 -0.685,0.071 -1.692,0.197 -2.34,0.197 -1.477,0 -2.124,-0.504 -2.179,-2.321 h 4.771 z m -10.26,-0.612 c 0,2.268 -0.45,2.934 -1.746,2.934 -0.612,0 -1.261,-0.071 -2.07,-0.306 v -4.5 c 0.54,-0.288 1.674,-0.81 2.412,-0.81 0.954,0 1.404,0.395 1.404,2.682 m 2.033,0.017 c 0,-2.718 -0.611,-4.5 -2.97,-4.5 -1.044,0 -2.196,0.63 -2.844,1.08 l -0.054,-0.036 v -0.54 c 0,-0.216 -0.072,-0.359 -0.324,-0.359 h -1.278 c -0.252,0 -0.342,0.126 -0.342,0.359 v 11.412 c 0,0.234 0.054,0.36 0.342,0.36 h 1.278 c 0.288,0 0.342,-0.162 0.342,-0.36 v -3.168 l 0.018,-0.018 c 0.828,0.288 1.656,0.396 2.25,0.396 2.845,0 3.582,-1.691 3.582,-4.626 m -11.556,0.036 c 0,1.926 -0.324,2.844 -1.962,2.844 -1.512,0 -1.854,-0.936 -1.854,-2.844 0,-1.872 0.343,-2.844 1.872,-2.844 1.639,0.001 1.944,0.936 1.944,2.844 m 2.016,-0.126 c 0,-2.124 -0.485,-4.446 -3.978,-4.446 -3.474,0 -3.853,2.755 -3.853,4.446 0,2.052 0.234,4.698 3.853,4.698 3.726,0.001 3.978,-2.646 3.978,-4.698 m -11.897,-1.584 c 0.63,-0.27 1.908,-0.63 2.916,-0.828 0.378,-0.071 0.36,-0.18 0.342,-0.432 l -0.126,-1.206 c -0.036,-0.306 -0.198,-0.36 -0.432,-0.306 -0.847,0.161 -2.124,0.773 -2.664,1.277 l -0.036,-0.036 v -0.792 c 0,-0.216 -0.09,-0.359 -0.36,-0.359 h -1.277 c -0.252,0 -0.343,0.126 -0.343,0.359 v 8.118 c 0,0.234 0.091,0.342 0.343,0.342 h 1.296 c 0.252,0 0.342,-0.126 0.342,-0.342 v -5.795 z m -4.231,5.796 v -8.118 c 0,-0.233 -0.09,-0.359 -0.342,-0.359 h -1.278 c -0.27,0 -0.342,0.144 -0.342,0.359 v 6.013 c -0.468,0.233 -1.655,0.81 -2.43,0.81 -1.098,0 -1.314,-0.684 -1.314,-1.764 v -5.059 c 0,-0.233 -0.09,-0.359 -0.323,-0.359 h -1.314 c -0.252,0 -0.342,0.144 -0.342,0.359 v 5.292 c 0,1.891 0.233,3.33 2.664,3.33 1.098,0 2.322,-0.594 3.023,-1.08 l 0.036,0.019 v 0.558 c 0,0.216 0.072,0.342 0.342,0.342 h 1.278 c 0.252,-10e-4 0.342,-0.108 0.342,-0.343 m -16.83,0.019 c 0,0.216 0.108,0.323 0.36,0.323 h 6.714 c 0.252,0 0.342,-0.09 0.342,-0.323 v -1.099 c 0,-0.233 -0.107,-0.342 -0.323,-0.342 h -5.04 v -3.546 h 4.355 c 0.271,0 0.36,-0.108 0.36,-0.324 v -1.116 c 0,-0.216 -0.126,-0.323 -0.36,-0.323 h -4.355 v -3.097 h 4.914 c 0.27,0 0.359,-0.107 0.359,-0.323 v -1.116 c 0,-0.216 -0.126,-0.342 -0.342,-0.342 h -6.624 c -0.252,0 -0.36,0.126 -0.36,0.359 z"
   id="path6783" />
	<path
   fill="#636466"
   d="m 303.455,46.312 c 2.214,0 2.538,1.638 2.538,4.374 0,2.52 -0.414,4.338 -2.538,4.338 -2.088,0 -2.394,-1.854 -2.394,-4.338 0.001,-2.412 0.325,-4.374 2.394,-4.374 m 0,10.495 c 4.32,0 4.59,-4.032 4.59,-6.3 0,-2.682 -0.432,-5.958 -4.59,-5.958 -4.212,0 -4.464,4.23 -4.464,5.958 0,2.537 0.198,6.3 4.464,6.3 m -11.826,-1.963 c 1.692,-1.584 2.431,-2.268 3.564,-3.42 1.188,-1.206 1.692,-1.98 1.692,-3.582 0,-2.052 -1.062,-3.276 -4.23,-3.276 -0.684,0 -2.376,0.108 -3.33,0.486 -0.396,0.162 -0.396,0.342 -0.359,0.558 l 0.126,0.72 c 0.054,0.252 0.144,0.324 0.468,0.288 0.792,-0.108 1.979,-0.234 3.06,-0.234 1.872,0 2.196,0.504 2.196,1.674 0,0.864 -0.486,1.53 -1.188,2.214 -0.684,0.72 -1.565,1.548 -1.817,1.782 -0.414,0.432 -2.772,2.664 -2.772,2.664 -0.18,0.18 -0.233,0.378 -0.233,0.594 v 1.026 c 0,0.216 0.071,0.306 0.306,0.306 h 7.704 c 0.216,0 0.288,-0.108 0.288,-0.306 v -1.134 c 0,-0.216 -0.09,-0.306 -0.307,-0.306 h -5.13 z m -8.838,-8.532 c 2.215,0 2.538,1.638 2.538,4.374 0,2.52 -0.414,4.338 -2.538,4.338 -2.088,0 -2.394,-1.854 -2.394,-4.338 0,-2.412 0.325,-4.374 2.394,-4.374 m 0,10.495 c 4.32,0 4.591,-4.032 4.591,-6.3 0,-2.682 -0.433,-5.958 -4.591,-5.958 -4.212,0 -4.464,4.23 -4.464,5.958 0,2.537 0.198,6.3 4.464,6.3 m -11.825,-1.963 c 1.691,-1.584 2.43,-2.268 3.563,-3.42 1.188,-1.206 1.692,-1.98 1.692,-3.582 0,-2.052 -1.062,-3.276 -4.23,-3.276 -0.684,0 -2.376,0.108 -3.33,0.486 -0.396,0.162 -0.396,0.342 -0.359,0.558 l 0.126,0.72 c 0.054,0.252 0.144,0.324 0.468,0.288 0.792,-0.108 1.979,-0.234 3.06,-0.234 1.872,0 2.196,0.504 2.196,1.674 0,0.864 -0.486,1.53 -1.188,2.214 -0.684,0.72 -1.565,1.548 -1.817,1.782 -0.414,0.432 -2.772,2.664 -2.772,2.664 -0.18,0.18 -0.233,0.378 -0.233,0.594 v 1.026 c 0,0.216 0.071,0.306 0.306,0.306 h 7.704 c 0.216,0 0.288,-0.108 0.288,-0.306 v -1.134 c 0,-0.216 -0.09,-0.306 -0.306,-0.306 h -5.131 z m -9.648,1.458 v -5.22 c 0,-1.818 -0.216,-3.42 -2.646,-3.42 -1.099,0 -2.358,0.612 -3.024,1.08 -0.018,0 -0.036,-0.018 -0.054,-0.018 v -0.54 c 0,-0.234 -0.091,-0.36 -0.343,-0.36 h -1.277 c -0.252,0 -0.342,0.126 -0.342,0.36 v 8.118 c 0,0.234 0.09,0.342 0.342,0.342 h 1.277 c 0.252,0 0.343,-0.126 0.343,-0.342 V 50.29 c 0.485,-0.234 1.746,-0.81 2.466,-0.81 1.044,0 1.296,0.702 1.296,1.764 l -0.019,5.058 c 0,0.234 0.108,0.342 0.343,0.342 h 1.296 c 0.27,0.001 0.342,-0.125 0.342,-0.342 m -11.393,-4.086 c 0,1.926 -0.324,2.844 -1.962,2.844 -1.513,0 -1.854,-0.936 -1.854,-2.844 0,-1.872 0.342,-2.844 1.872,-2.844 1.637,10e-4 1.944,0.937 1.944,2.844 m 2.015,-0.126 c 0,-2.124 -0.486,-4.446 -3.978,-4.446 -3.475,0 -3.853,2.754 -3.853,4.446 0,2.052 0.234,4.698 3.853,4.698 3.726,0.001 3.978,-2.645 3.978,-4.698 m -13.752,2.881 4.212,-5.364 c 0.162,-0.198 0.216,-0.378 0.216,-0.594 V 48.13 c 0,-0.252 -0.107,-0.306 -0.342,-0.306 h -5.904 c -0.252,0 -0.342,0.09 -0.342,0.324 v 0.972 c 0,0.252 0.09,0.342 0.342,0.342 h 3.924 l -4.319,5.49 c -0.181,0.216 -0.198,0.396 -0.198,0.594 v 0.792 c 0,0.216 0.072,0.306 0.306,0.306 h 6.282 c 0.234,0 0.342,-0.108 0.342,-0.342 v -1.008 c 0,-0.234 -0.107,-0.324 -0.359,-0.324 h -4.16 z m -4.23,-6.804 c 0,-0.198 -0.071,-0.342 -0.323,-0.342 h -1.278 c -0.252,0 -0.36,0.09 -0.36,0.342 v 8.136 c 0,0.234 0.108,0.342 0.36,0.342 h 1.278 c 0.252,0 0.323,-0.144 0.323,-0.342 z m 0.108,-2.683 c 0,-0.612 -0.18,-1.026 -1.062,-1.026 -0.863,0 -1.062,0.45 -1.062,1.026 0,0.522 0.126,1.044 1.062,1.044 0.9,0 1.062,-0.486 1.062,-1.044 m -6.57,5.022 c 0.63,-0.27 1.908,-0.63 2.916,-0.828 0.378,-0.072 0.36,-0.18 0.342,-0.432 l -0.126,-1.206 c -0.035,-0.306 -0.197,-0.36 -0.432,-0.306 -0.846,0.162 -2.124,0.774 -2.664,1.278 l -0.036,-0.036 v -0.792 c 0,-0.216 -0.09,-0.36 -0.359,-0.36 h -1.278 c -0.252,0 -0.342,0.126 -0.342,0.36 v 8.118 c 0,0.234 0.09,0.342 0.342,0.342 h 1.296 c 0.252,0 0.342,-0.126 0.342,-0.342 v -5.796 z m -6.084,1.71 c 0,1.926 -0.324,2.844 -1.962,2.844 -1.512,0 -1.854,-0.936 -1.854,-2.844 0,-1.872 0.342,-2.844 1.872,-2.844 1.638,10e-4 1.944,0.937 1.944,2.844 m 2.017,-0.126 c 0,-2.124 -0.486,-4.446 -3.979,-4.446 -3.474,0 -3.852,2.754 -3.852,4.446 0,2.052 0.233,4.698 3.852,4.698 3.727,0.001 3.979,-2.645 3.979,-4.698 m -11.916,-2.61 h -4.536 v -4.428 c 0,-0.216 -0.072,-0.36 -0.324,-0.36 h -1.35 c -0.252,0 -0.36,0.126 -0.36,0.36 v 11.25 c 0,0.234 0.108,0.342 0.36,0.342 h 1.35 c 0.252,0 0.324,-0.144 0.324,-0.342 v -5.04 h 4.536 v 5.04 c 0,0.234 0.107,0.342 0.359,0.342 h 1.351 c 0.252,0 0.324,-0.144 0.324,-0.342 v -11.25 c 0,-0.216 -0.072,-0.36 -0.324,-0.36 h -1.351 c -0.252,0 -0.359,0.126 -0.359,0.36 z"
   id="path6785" />
</g></g>
</svg>
