<?xml version="1.0" encoding="UTF-8" standalone="no"?>
<svg
   width="300"
   height="90"
   viewBox="0 0 300 90"
   version="1.1"
   id="svg6468"
   sodipodi:docname="fastly.svg"
   inkscape:version="1.1.1 (3bf5ae0d25, 2021-09-20)"
   xmlns:inkscape="http://www.inkscape.org/namespaces/inkscape"
   xmlns:sodipodi="http://sodipodi.sourceforge.net/DTD/sodipodi-0.dtd"
   xmlns="http://www.w3.org/2000/svg"
   xmlns:svg="http://www.w3.org/2000/svg"
   xmlns:rdf="http://www.w3.org/1999/02/22-rdf-syntax-ns#"
   xmlns:cc="http://creativecommons.org/ns#"
   xmlns:dc="http://purl.org/dc/elements/1.1/"
   xmlns:sketch="http://www.bohemiancoding.com/sketch/ns">
  <sodipodi:namedview
     id="namedview6470"
     pagecolor="#ffffff"
     bordercolor="#666666"
     borderopacity="1.0"
     inkscape:pageshadow="2"
     inkscape:pageopacity="0.0"
     inkscape:pagecheckerboard="0"
     showgrid="false"
     inkscape:zoom="1.2788678"
     inkscape:cx="50.044264"
     inkscape:cy="108.29892"
     inkscape:window-width="1866"
     inkscape:window-height="1016"
     inkscape:window-x="54"
     inkscape:window-y="27"
     inkscape:window-maximized="1"
     inkscape:current-layer="svg6468" />
  <!-- Generator: Sketch 3.3.3 (12072) - http://www.bohemiancoding.com/sketch -->
  <title
     id="title6451">Imported Layers</title>
  <desc
     id="desc6453">Created with Sketch.</desc>
  <defs
     id="defs6455" />
  <g
     id="Page-1"
     stroke="none"
     stroke-width="1"
     fill="none"
     fill-rule="evenodd"
     sketch:type="MSPage"
     transform="matrix(0.75271197,0,0,0.75271197,35.576056,0.54035858)">
    <g
       id="Imported-Layers"
       sketch:type="MSLayerGroup"
       fill="#e72d2b">
      <path
         d="m 85.84597,30.673192 c 0,-1.416454 0.02949,-2.575577 -0.0118,-3.732431 -0.02359,-0.662161 0.18603,-0.899069 0.873887,-0.895892 4.766901,0.02496 9.533803,0.02224 14.300703,0.0023 0.61254,-0.0023 0.87344,0.187893 0.81173,0.806939 -0.0295,0.297723 -0.005,0.600892 -0.005,0.901792 0.007,15.4639 0.0254,30.9278 -0.005,46.3917 -0.002,1.100123 0.20826,1.479539 1.38887,1.430977 2.43336,-0.100754 2.43608,-0.02587 2.43608,2.467108 0,4.080984 -0.0259,8.161969 0.0204,12.2425 0.0104,0.904515 -0.13521,1.249438 -1.16246,1.236277 -4.894856,-0.06309 -9.791071,-0.04992 -14.686378,-0.0068 -0.799929,0.0073 -1.237326,-0.254608 -1.613015,-0.927208 -0.668346,-1.195884 -1.172896,-2.878746 -2.209672,-3.361638 -1.044036,-0.486069 -2.333086,0.954438 -3.544095,1.487708 -19.384311,8.534577 -41.697457,-3.147423 -45.55735,-23.87957 -3.2224,-17.309238 7.718424,-33.908207 25.05686,-37.953338 0.78677,-0.183354 1.096669,-0.4071 1.050388,-1.2272 -0.06534,-1.155946 -0.05898,-2.320516 -0.0018,-3.477369 0.03902,-0.7965 -0.245922,-1.122816 -1.027248,-0.999823 -0.751379,0.118 -0.90837,-0.229193 -0.919259,-0.934016 -0.049,-3.169208 -0.07124,-3.168754 3.090364,-3.168754 3.908442,0 7.816884,0.04221 11.723964,-0.02723 1.105743,-0.01952 1.464645,0.33403 1.322627,1.379692 -0.05717,0.421623 -0.04673,0.861854 -0.0023,1.286654 0.104812,0.9971 -0.03584,1.720984 -1.320812,1.470007 -0.515892,-0.100753 -0.657456,0.201508 -0.651558,0.675777 0.01724,1.3747 0.01044,2.7494 0.0027,4.123646 -0.0023,0.424347 0.06488,0.712539 0.58622,0.812385 3.509612,0.673962 6.779654,2.004639 10.052872,3.875846 z M 52.464048,60.640654 c 0.860728,7.7467 6.852251,13.780584 14.612418,14.8385 0.797206,0.108923 1.141588,-0.09349 1.006376,-0.918131 -0.136573,-0.832808 0.366161,-0.872292 0.99957,-0.871385 0.620704,4.54e-4 1.138866,0 0.990949,0.852323 -0.134758,0.777439 0.137935,1.0561 0.971439,0.966693 7.384478,-0.793323 13.709039,-6.881216 14.729027,-14.229439 0.1216,-0.875015 0.26271,-1.785884 -1.164728,-1.513123 -0.67243,0.127985 -0.677421,-0.386223 -0.607547,-0.817377 0.06851,-0.425707 -0.346197,-1.248984 0.53132,-1.1446 1.616191,0.192431 1.375713,-0.778346 1.211009,-1.723707 -1.310377,-7.529762 -7.182114,-13.100269 -14.757159,-14.032016 -0.603916,-0.07443 -1.027247,-0.06717 -0.92062,0.731146 0.08576,0.64537 0.04946,1.113739 -0.88523,1.109654 -0.941947,-0.0041 -1.225075,-0.330854 -1.102114,-1.194069 0.08349,-0.583646 -0.185122,-0.706184 -0.749564,-0.656715 -7.567331,0.662615 -14.034818,7.098607 -14.873767,14.769969 -0.08258,0.752931 0.04038,1.0384 0.799928,0.922215 0.741851,-0.113461 1.085326,0.102116 1.054018,0.954439 -0.02722,0.748392 -0.180585,1.155038 -1.008645,1.035677 -0.828967,-0.119362 -1.136597,0.202869 -0.83668,0.919946 z"
         id="Fill-1"
         sketch:type="MSShapeGroup" />
      <path
         d="m 255.57008,41.259154 c 3.84129,9.446354 7.63766,18.783331 11.52296,28.339969 3.87396,-9.5226 7.6735,-18.861392 11.52931,-28.339515 -2.36666,0 -4.58268,-0.03313 -6.79689,0.0177 -0.77815,0.0177 -1.0268,-0.178362 -1.01455,-0.992562 0.0477,-3.306723 0.0495,-6.615261 -4.5e-4,-9.921984 -0.0127,-0.837801 0.28222,-0.978947 1.03541,-0.977131 10.26386,0.02224 20.52772,0.02768 30.79158,-0.0068 0.89339,-0.0027 1.07352,0.302262 1.06536,1.102846 -0.0331,3.264516 -0.0395,6.529485 0.005,9.793546 0.0109,0.811023 -0.24592,1.02297 -1.0277,1.001639 -1.93108,-0.0531 -3.8667,0.03358 -5.79642,-0.0413 -0.84394,-0.03222 -1.18061,0.296361 -1.47689,1.027054 -6.55324,16.16963 -13.09741,32.342892 -19.71735,48.485292 -3.07902,7.508431 -6.99699,14.505382 -13.02527,20.126722 -5.776,5.38624 -12.59649,7.59148 -20.41972,6.80814 -2.25913,-0.22647 -4.51781,-0.42571 -6.75924,-0.83144 -0.9365,-0.16974 -1.06944,-0.56504 -0.98414,-1.36154 0.31443,-2.94274 0.59121,-5.88911 0.88795,-8.83412 0.12432,-1.23718 0.30672,-2.47028 0.37796,-3.71019 0.0399,-0.68939 0.19601,-0.82418 0.91835,-0.70482 4.05545,0.66987 8.10001,0.87683 12.0266,-0.72434 4.3835,-1.787704 7.75745,-4.648297 9.68535,-9.066489 0.2913,-0.668515 0.28948,-1.261692 0.01,-1.947908 -6.53872,-16.037107 -13.06383,-32.079661 -19.56489,-48.131746 -0.33576,-0.828723 -0.73187,-1.179092 -1.672,-1.136884 -1.92836,0.08668 -3.86398,0.0041 -5.79597,0.03858 -0.65382,0.01135 -0.90791,-0.167015 -0.90202,-0.862307 0.0295,-3.350293 0.0268,-6.701039 0.002,-10.051331 -0.005,-0.693477 0.16516,-0.975315 0.93197,-0.9735 10.35006,0.0236 20.69967,0.02315 31.04974,9.08e-4 0.73958,-0.0014 0.93832,0.227377 0.93106,0.946269 -0.0336,3.307177 -0.0513,6.615715 0.009,9.922439 0.0168,0.923576 -0.34983,1.034315 -1.12026,1.019338 -2.18109,-0.0413 -4.36354,-0.01452 -6.70479,-0.01452"
         id="Fill-2"
         sketch:type="MSShapeGroup" />
      <path
         d="m 156.70565,41.243269 c -1.63207,0 -3.26823,-0.07307 -4.89395,0.02632 -1.03904,0.06399 -1.28043,-0.344469 -1.14885,-1.243538 0.0771,-0.529185 -0.0463,-0.872292 -0.68876,-0.966239 -4.98288,-0.727515 -9.99253,-1.211769 -14.98493,-0.370792 -3.55998,0.599531 -5.26329,3.388869 -4.66935,6.913892 0.26679,1.580746 1.30992,2.459393 2.61894,3.104308 2.48236,1.222662 5.19386,1.696931 7.85862,2.310985 3.83585,0.884546 7.66398,1.794053 11.28748,3.3807 5.4729,2.397215 9.4249,6.160507 10.32647,12.313753 0.92606,6.3189 0.34892,12.448093 -3.56724,17.803477 -2.81903,3.85497 -6.91985,5.622247 -11.47441,6.447793 -5.03324,0.91223 -10.08463,0.6018 -15.13466,0.09304 -5.85132,-0.589092 -11.57786,-1.831269 -17.29261,-3.166484 -1.05856,-0.247346 -1.40248,-0.672146 -1.37254,-1.774539 0.0853,-3.133354 0.0558,-6.271246 0.0127,-9.406415 -0.0114,-0.837346 0.12477,-1.205869 1.09394,-1.187262 3.30544,0.06263 6.61314,0.04493 9.91948,0.0082 0.78904,-0.0086 1.26092,0.130707 1.10257,1.037946 -0.16153,0.925846 0.21733,1.216307 1.16064,1.340207 4.99286,0.656262 9.99434,1.0502 15.00943,0.437508 2.82267,-0.344923 5.18751,-1.520839 6.11449,-4.520308 0.78631,-2.544261 -0.005,-4.509415 -2.36894,-5.695769 -2.74961,-1.379692 -5.76329,-1.852146 -8.74431,-2.4308 -5.01418,-0.973046 -9.93626,-2.227023 -14.38963,-4.869769 -5.74379,-3.408839 -8.67308,-8.452431 -8.88043,-15.122608 -0.12614,-4.059654 0.3707,-7.973169 2.60623,-11.474138 2.58355,-4.046946 6.53646,-6.039331 11.03112,-7.167139 5.18796,-1.302084 10.47212,-1.204507 15.74357,-0.932654 6.26376,0.323139 12.41273,1.454123 18.49817,2.962254 0.98732,0.244623 1.37753,0.584554 1.34441,1.684677 -0.0948,3.132446 -0.0617,6.270792 -0.0145,9.405508 0.0127,0.845515 -0.2246,1.111923 -1.07943,1.077431 -1.672,-0.06672 -3.34899,-0.01952 -5.02371,-0.01952"
         id="Fill-3"
         sketch:type="MSShapeGroup" />
      <path
         d="m 24.437516,60.352461 c 0,5.971708 0.01906,11.943416 -0.02042,17.91467 -0.0054,0.883184 0.191928,1.186354 1.120262,1.1505 1.930173,-0.07534 3.865791,0.01044 5.797326,-0.03903 0.796298,-0.02042 1.126614,0.139785 1.112095,1.039308 -0.05445,3.349838 -0.03993,6.701492 -0.0077,10.052238 0.0073,0.727062 -0.09392,1.049746 -0.955559,1.047023 -10.050149,-0.03268 -20.100298,-0.03041 -30.1504473,-0.0036 -0.79992837,0.0023 -1.01681195,-0.224653 -1.0072836,-1.012984 0.0408358,-3.393408 0.0353911,-6.787723 0.003176,-10.181585 -0.00726,-0.734777 0.22595821,-0.955346 0.954197,-0.939915 2.0608478,0.04448 4.1235105,-0.01362 6.1843582,0.03132 0.7454806,0.01634 1.0345075,-0.125261 1.0322389,-0.968961 C 8.4702567,66.369554 8.4702567,54.2977 8.4992955,42.225846 8.5015642,41.362631 8.1685254,41.250985 7.4421015,41.265054 5.4243582,41.304992 3.4043463,41.252346 1.386603,41.293192 0.65019702,41.308169 0.30808358,41.177008 0.32351045,40.3206 c 0.0517254,-2.877385 0.0331224,-5.756585 0.009075,-8.634423 -0.005445,-0.659892 0.13203582,-0.971231 0.88795225,-1.068808 2.0803582,-0.268677 4.1416597,-0.679408 6.2170269,-0.989838 0.748203,-0.1121 1.0780657,-0.354 1.0662686,-1.212677 -0.053994,-3.951639 -0.039475,-7.904185 -0.016334,-11.856731 0.016788,-2.844254 0.3312239,-5.6581 1.3312478,-8.3398768 1.633433,-4.3818847 5.181159,-6.3293385 9.48117,-7.1589693 6.325469,-1.22084613 12.641863,-0.73568459 18.937839,0.3204154 0.485946,0.081692 0.980967,0.1048385 0.827606,0.9303846 -0.680143,3.6634462 -1.353934,7.3314308 -1.875271,11.0198381 -0.158806,1.125993 -0.644753,1.204962 -1.489147,1.049746 -2.259128,-0.416176 -4.537767,-0.290915 -6.809146,-0.212399 -2.974209,0.103023 -4.322699,1.391038 -4.412084,4.379161 -0.09982,3.348023 -0.01406,6.701038 -0.05762,10.051785 -0.01,0.748846 0.326686,0.815561 0.926973,0.81193 3.264143,-0.01997 6.52874,0.0236 9.792429,-0.02995 0.958735,-0.01543 1.331248,0.155669 1.30221,1.243084 -0.08485,3.219585 -0.05853,6.443708 -0.0041,9.664654 0.01361,0.813746 -0.217791,1.018431 -1.004108,1.008446 -3.221038,-0.04085 -6.443438,0.02768 -9.663116,-0.04312 -1.043128,-0.02269 -1.373899,0.2065 -1.362555,1.313884 0.05944,5.928139 0.02813,11.856731 0.02768,17.785323"
         id="Fill-4"
         sketch:type="MSShapeGroup" />
      <path
         d="m 170.54218,38.439861 c 0,-12.238869 0.0154,-24.477738 -0.0263,-36.7161533 -0.004,-1.11736924 0.24138,-1.44686155 1.40248,-1.42734616 4.46381,0.0757923 8.92943,0.0580923 13.39415,0.009077 0.96327,-0.0108923 1.22598,0.25506154 1.2219,1.22493076 -0.0377,8.8459157 -0.004,17.6922847 -0.0467,26.5381997 -0.005,1.041577 0.20508,1.387862 1.31445,1.361085 3.30362,-0.08078 6.61132,0.0032 9.9163,-0.04992 0.91427,-0.01498 1.26092,0.15113 1.23688,1.170923 -0.0744,3.176015 -0.0631,6.355661 -0.005,9.532584 0.0172,0.935831 -0.18829,1.242631 -1.18514,1.222208 -3.39028,-0.06853 -6.78283,-0.0032 -10.17402,-0.04312 -0.81218,-0.0095 -1.10211,0.174277 -1.09894,1.054738 0.0345,9.747708 0.005,19.49587 0.0386,29.243577 0.0113,3.426085 1.07035,4.442246 4.48423,4.490354 2.3163,0.03222 4.64303,0.1003 6.92984,-0.3363 0.67923,-0.1298 0.83032,0.127531 0.91789,0.653539 0.69557,4.179469 1.39931,8.357576 2.07628,12.540223 0.0658,0.406646 0.28721,0.889992 -0.49502,1.058823 -6.27964,1.352915 -12.56019,2.23973 -18.97187,0.8378 -6.14534,-1.343385 -9.30558,-5.334962 -10.36232,-11.309393 -0.4805,-2.716723 -0.56988,-5.455684 -0.56898,-8.204177 0.003,-10.950853 0.001,-21.901254 0.001,-32.851654"
         id="Fill-5"
         sketch:type="MSShapeGroup" />
      <path
         d="m 206.71637,45.929685 c 0,-14.733662 0.0136,-29.467324 -0.0268,-44.200985 -0.003,-1.13234615 0.26952,-1.44867692 1.41746,-1.43052308 4.42206,0.0708 8.84685,0.0667154 13.26892,0.002269 1.09213,-0.0158846 1.33487,0.31723846 1.33351,1.36380768 -0.0286,25.3863384 -0.0113,50.7726774 -0.054,76.1594694 -0.002,1.290739 0.28222,1.695569 1.59668,1.602531 1.79496,-0.126623 3.6058,-9.08e-4 5.40848,-0.04675 0.72642,-0.01815 0.95828,0.200146 0.95102,0.939461 -0.0349,3.436069 -0.0318,6.873046 -0.002,10.309116 0.006,0.6667 -0.17559,0.883638 -0.86209,0.881369 -7.38629,-0.02179 -14.77304,-0.03086 -22.15933,0.0077 -0.96418,0.005 -0.87615,-0.508761 -0.8757,-1.129169 0.006,-6.657923 0.004,-13.315846 0.004,-19.974223 V 45.929685"
         id="Fill-6"
         sketch:type="MSShapeGroup" />
      <path
         d="m 303.59436,85.540015 c -0.0186,3.387962 -2.65795,5.966262 -6.09678,5.956277 -3.37622,-0.0095 -6.05414,-2.698115 -6.03146,-6.054307 0.0222,-3.295377 2.83401,-6.051131 6.134,-6.0121 3.36759,0.03994 6.0133,2.736692 5.99424,6.11013 z m -6.03099,-4.96553 c -2.79,-0.0054 -5.0101,2.156676 -5.0337,4.902446 -0.0236,2.72943 2.2065,4.991854 4.94431,5.015 2.82539,0.02405 5.06818,-2.185269 5.07136,-4.995485 0.004,-2.775269 -2.16385,-4.916515 -4.98197,-4.921961 z"
         id="Fill-7"
         sketch:type="MSShapeGroup" />
      <path
         d="m 69.393672,55.666954 c 0.602555,0.216484 1.050388,-0.164292 1.515916,-0.574116 1.57717,-1.388769 3.201075,-2.726253 4.743761,-4.15133 0.557182,-0.515116 0.820347,-0.282747 1.236872,0.111192 0.447833,0.423892 0.555367,0.730692 0.0794,1.239454 -1.434699,1.534 -2.814042,3.120192 -4.227869,4.674615 -0.413803,0.455208 -0.669253,0.8909 -0.641122,1.579385 0.0785,1.9116 -1.22326,3.293107 -2.973755,3.305361 -1.68289,0.0118 -3.103976,-1.430523 -3.08129,-3.127454 0.02359,-1.761376 1.423809,-3.069361 3.348084,-3.057107"
         id="Fill-8"
         sketch:type="MSShapeGroup" />
      <path
         d="m 300.23902,88.309838 c -1.21963,0.408008 -1.91475,-0.04448 -2.39434,-1.010261 -0.1706,-0.344469 -0.41516,-0.698015 -0.88296,-0.611331 -0.58395,0.108015 -0.32351,0.603615 -0.34756,0.933108 -0.0327,0.443408 0.0318,0.825546 -0.63931,0.835077 -0.69647,0.01 -0.74775,-0.339931 -0.74003,-0.877285 0.02,-1.415092 0.0231,-2.831092 -9.1e-4,-4.246185 -0.01,-0.565946 0.10617,-0.893622 0.77361,-0.845515 0.76817,0.05582 1.55721,-0.05673 2.30995,0.06853 1.70013,0.282746 2.49552,2.293738 1.26183,3.377977 -0.69557,0.611331 -0.42424,0.8791 -0.0762,1.350646 0.2255,0.305892 0.44375,0.617231 0.73595,1.025238 z m -3.02094,-2.861953 c 0.77633,-0.07942 1.4229,-0.01 1.44196,-0.804216 0.02,-0.833715 -0.59212,-0.854592 -1.2219,-0.90043 -0.66245,-0.04765 -0.86618,0.175638 -0.85892,0.8437 0.007,0.667153 0.21462,0.942638 0.63886,0.860946 z"
         id="Fill-9"
         sketch:type="MSShapeGroup" />
    </g>
  </g>
  <metadata
     id="metadata6472">
    <rdf:RDF>
      <cc:Work
         rdf:about="">
        <dc:title>Imported Layers</dc:title>
      </cc:Work>
    </rdf:RDF>
  </metadata>
</svg>
