<?xml version="1.0" encoding="UTF-8" standalone="no"?>
<svg width="304px" height="118px" viewBox="0 0 304 118" version="1.1" xmlns="http://www.w3.org/2000/svg" xmlns:xlink="http://www.w3.org/1999/xlink" xmlns:sketch="http://www.bohemiancoding.com/sketch/ns">
    <!-- Generator: Sketch 3.3.3 (12072) - http://www.bohemiancoding.com/sketch -->
    <title>Imported Layers</title>
    <desc>Created with Sketch.</desc>
    <defs></defs>
    <g id="Page-1" stroke="none" stroke-width="1" fill="none" fill-rule="evenodd" sketch:type="MSPage">
        <g id="Imported-Layers" sketch:type="MSLayerGroup" fill="#E72D2B">
            <path d="M85.8459701,30.6731923 C85.8459701,29.2567385 85.8754627,28.0976154 85.8341731,26.9407615 C85.8105791,26.2786 86.020203,26.0416923 86.7080597,26.0448692 C91.4749612,26.0698308 96.2418627,26.0671077 101.008764,26.0471385 C101.621301,26.0448692 101.882197,26.2350308 101.82049,26.8540769 C101.790997,27.1518 101.815952,27.4549692 101.815952,27.7558692 C101.822758,43.2197692 101.841361,58.6836692 101.810507,74.1475692 C101.808693,75.2476923 102.01877,75.6271077 103.199379,75.5785462 C105.63274,75.4777923 105.635463,75.5526769 105.635463,78.0456538 C105.635463,82.1266385 105.6096,86.2076231 105.655881,90.2881538 C105.666316,91.1926692 105.520669,91.5375923 104.493421,91.5244308 C99.5985672,91.4613462 94.7023522,91.4745077 89.8070448,91.5176231 C89.0071164,91.5248846 88.5697194,91.2630154 88.1940299,90.5904154 C87.5256836,89.3945308 87.0211343,87.7116692 85.9843582,87.2287769 C84.9403224,86.7427077 83.6512716,88.1832154 82.4402627,88.7164846 C63.0559522,97.2510615 40.742806,85.5690615 36.8829134,64.8369154 C33.6605134,47.5276769 44.6013373,30.9287077 61.9397731,26.8835769 C62.7265433,26.7002231 63.0364418,26.4764769 62.9901612,25.6563769 C62.9248239,24.5004308 62.9311761,23.3358615 62.9883463,22.1790077 C63.0273672,21.3825077 62.7424239,21.0561923 61.9610985,21.1791846 C61.2097194,21.2971846 61.0527284,20.9499923 61.0418388,20.2451692 C60.9928358,17.0759615 60.970603,17.0764154 64.132203,17.0764154 C68.0406448,17.0764154 71.9490866,17.1186231 75.8561672,17.0491846 C76.9619104,17.0296692 77.3208119,17.3832154 77.178794,18.4288769 C77.1216239,18.8505 77.1320597,19.2907308 77.1765254,19.7155308 C77.2813373,20.7126308 77.1406806,21.4365154 75.8557134,21.1855385 C75.3398209,21.0847846 75.1982567,21.3870462 75.2041552,21.8613154 C75.221397,23.2360154 75.214591,24.6107154 75.2068776,25.9849615 C75.204609,26.4093077 75.2717612,26.6975 75.7930985,26.7973462 C79.3027104,27.4713077 82.5727522,28.8019846 85.8459701,30.6731923 L85.8459701,30.6731923 Z M52.4640478,60.6406538 C53.3247761,68.3873538 59.3162985,74.4212385 67.0764657,75.4791538 C67.8736716,75.5880769 68.2180537,75.3856615 68.0828418,74.5610231 C67.9462687,73.7282154 68.449003,73.6887308 69.0824119,73.6896385 C69.7031164,73.6900923 70.2212776,73.6896385 70.0733612,74.5419615 C69.938603,75.3194 70.2112955,75.5980615 71.0448,75.5086538 C78.4292776,74.7153308 84.7538388,68.6274385 85.7738269,61.2792154 C85.8954269,60.4042 86.0365373,59.4933308 84.6090985,59.7660923 C83.9366687,59.8940769 83.9316776,59.3798692 84.0015522,58.9487154 C84.0700657,58.5230077 83.6553552,57.6997308 84.5328716,57.8041154 C86.1490627,57.9965462 85.9085851,57.0257692 85.7438806,56.0804077 C84.4335045,48.5506462 78.5617672,42.9801385 70.9867224,42.0483923 C70.382806,41.9739615 69.9594746,41.9812231 70.0661015,42.7795385 C70.1518567,43.4249077 70.1155582,43.8932769 69.1808716,43.8891923 C68.2389254,43.8851077 67.955797,43.5583385 68.0787582,42.6951231 C68.1622448,42.1114769 67.8936358,41.9889385 67.329194,42.0384077 C59.7618627,42.7010231 53.2943761,49.1370154 52.4554269,56.8083769 C52.3728478,57.5613077 52.495809,57.8467769 53.2553552,57.7305923 C53.997206,57.6171308 54.3406806,57.8327077 54.3093731,58.6850308 C54.2821493,59.4334231 54.1287881,59.8400692 53.3007284,59.7207077 C52.4717612,59.6013462 52.1641313,59.9235769 52.4640478,60.6406538 L52.4640478,60.6406538 Z" id="Fill-1" sketch:type="MSShapeGroup"></path>
            <path d="M255.570078,41.2591538 C259.411367,50.7055077 263.207737,60.0424846 267.093039,69.5991231 C270.966997,60.0765231 274.766543,50.7377308 278.622352,41.2596077 C276.25569,41.2596077 274.039666,41.2264769 271.825457,41.2773077 C271.047307,41.2950077 270.798663,41.0989462 270.810913,40.2847462 C270.858555,36.9780231 270.86037,33.6694846 270.81046,30.3627615 C270.797755,29.5249615 271.092681,29.3838154 271.845875,29.3856308 C282.109731,29.4078692 292.373588,29.4133154 302.637445,29.3788231 C303.530842,29.3761 303.710973,29.6810846 303.702806,30.4816692 C303.669684,33.7461846 303.663331,37.0111538 303.707343,40.2752154 C303.718233,41.0862385 303.461421,41.2981846 302.679642,41.2768538 C300.748561,41.2237538 298.812943,41.3104385 296.883224,41.2355538 C296.039284,41.2033308 295.702615,41.5319154 295.406328,42.2626077 C288.853087,58.4322385 282.308919,74.6055 275.688979,90.7479 C272.609958,98.2563308 268.691988,105.253277 262.663713,110.874615 C256.887713,116.260862 250.067224,118.4661 242.243988,117.682762 C239.98486,117.456292 237.726185,117.257054 235.484752,116.851315 C234.548251,116.681577 234.415307,116.286277 234.500609,115.489777 C234.815045,112.547038 235.091821,109.600669 235.388561,106.655662 C235.512884,105.418477 235.695284,104.185377 235.766519,102.945469 C235.806448,102.256077 235.962531,102.121285 236.684872,102.240646 C240.740322,102.910523 244.784884,103.117477 248.711475,101.516308 C253.094973,99.7286077 256.468919,96.8680154 258.396824,92.4498231 C258.688119,91.7813077 258.686304,91.1881308 258.406352,90.5019154 C251.86763,74.4648077 245.342519,58.4222538 238.841457,42.3701692 C238.505696,41.5414462 238.109588,41.1910769 237.169457,41.2332846 C235.241099,41.3199692 233.305481,41.2373692 231.373493,41.2718615 C230.719666,41.2832077 230.465576,41.1048462 230.471475,40.4095538 C230.500967,37.0592615 230.498245,33.7085154 230.473743,30.3582231 C230.468752,29.6647462 230.638901,29.3829077 231.405707,29.3847231 C241.755773,29.4083231 252.105385,29.4078692 262.455451,29.3856308 C263.195033,29.3842692 263.393767,29.6130077 263.386507,30.3319 C263.352931,33.6390769 263.335236,36.9476154 263.395128,40.2543385 C263.411916,41.1779154 263.045301,41.2886538 262.274866,41.2736769 C260.093779,41.2323769 257.911331,41.2591538 255.570078,41.2591538" id="Fill-2" sketch:type="MSShapeGroup"></path>
            <path d="M156.705648,41.2432692 C155.073576,41.2432692 153.437421,41.1702 151.811701,41.2695923 C150.772657,41.3335846 150.531272,40.9251231 150.662854,40.0260538 C150.739988,39.4968692 150.616573,39.1537615 149.97409,39.0598154 C144.991212,38.3323 139.981564,37.8480462 134.989158,38.6890231 C131.429182,39.2885538 129.725875,42.0778923 130.319809,45.6029154 C130.586603,47.1836615 131.629731,48.0623077 132.938746,48.7072231 C135.42111,49.9298846 138.132609,50.4041538 140.797373,51.0182077 C144.633218,51.9027538 148.461349,52.8122615 152.084848,54.3989077 C157.557755,56.7961231 161.509755,60.5594154 162.411319,66.7126615 C163.337385,73.0315615 162.760239,79.1607538 158.844084,84.5161385 C156.025051,88.3711077 151.924227,90.1383846 147.369672,90.9639308 C142.33643,91.8761615 137.285039,91.5657308 132.235009,91.0569692 C126.38369,90.4678769 120.657146,89.2257 114.9424,87.8904846 C113.883845,87.6431385 113.539916,87.2183385 113.569863,86.1159462 C113.655164,82.9825923 113.625672,79.8447 113.582567,76.7095308 C113.571224,75.8721846 113.707343,75.5036615 114.676513,75.5222692 C117.981946,75.5849 121.289648,75.5672 124.595988,75.5304385 C125.385027,75.5218154 125.856907,75.6611462 125.698555,76.5683846 C125.537027,77.4942308 125.915893,77.7846923 126.8592,77.9085923 C131.85206,78.5648538 136.85354,78.9587923 141.868633,78.3461 C144.691296,78.0011769 147.056143,76.8252615 147.983116,73.8257923 C148.769433,71.2815308 147.977672,69.3163769 145.614185,68.1300231 C142.864573,66.7503308 139.85089,66.2778769 136.869875,65.6992231 C131.85569,64.7261769 126.933612,63.4722 122.480239,60.8294538 C116.736454,57.4206154 113.807164,52.3770231 113.599809,45.7068462 C113.473672,41.6471923 113.970507,37.7336769 116.206042,34.2327077 C118.789588,30.1857615 122.742496,28.1933769 127.237158,27.0655692 C132.425122,25.7634846 137.709278,25.8610615 142.980728,26.1329154 C149.24449,26.4560538 155.393457,27.5870385 161.478901,29.0951692 C162.466221,29.3397923 162.85643,29.6797231 162.823307,30.7798462 C162.728478,33.9122923 162.7616,37.0506385 162.808788,40.1853538 C162.821493,41.0308692 162.584191,41.2972769 161.729361,41.2627846 C160.057361,41.1960692 158.38037,41.2432692 156.705648,41.2432692" id="Fill-3" sketch:type="MSShapeGroup"></path>
            <path d="M24.4375164,60.3524615 C24.4375164,66.3241692 24.4565731,72.2958769 24.4170985,78.2671308 C24.4116537,79.1503154 24.6090269,79.4534846 25.5373612,79.4176308 C27.4675343,79.3422923 29.4031522,79.4280692 31.3346866,79.3786 C32.1309851,79.3581769 32.4613015,79.5183846 32.4467821,80.4179077 C32.3923343,83.7677462 32.4068537,87.1194 32.4390687,90.4701462 C32.4463284,91.1972077 32.3451463,91.5198923 31.4835104,91.5171692 C21.4333612,91.4844923 11.3832119,91.4867615 1.33306269,91.5135385 C0.533134328,91.5158077 0.316250746,91.2888846 0.325779104,90.5005538 C0.366614925,87.1071462 0.361170149,83.7128308 0.328955224,80.3189692 C0.321695522,79.5841923 0.554913433,79.3636231 1.28315224,79.3790538 C3.344,79.4235308 5.40666269,79.3654385 7.46751045,79.4103692 C8.21299104,79.4267077 8.50201791,79.2851077 8.49974925,78.4414077 C8.47025672,66.3695538 8.47025672,54.2977 8.49929552,42.2258462 C8.50156418,41.3626308 8.16852537,41.2509846 7.44210149,41.2650538 C5.42435821,41.3049923 3.40434627,41.2523462 1.38660299,41.2931923 C0.650197015,41.3081692 0.308083582,41.1770077 0.323510448,40.3206 C0.375235821,37.4432154 0.356632836,34.5640154 0.332585075,31.6861769 C0.327140299,31.0262846 0.464620896,30.7149462 1.22053731,30.6173692 C3.30089552,30.3486923 5.36219701,29.9379615 7.43756418,29.6275308 C8.18576716,29.5154308 8.51562985,29.2735308 8.50383284,28.4148538 C8.44983881,24.4632154 8.46435821,20.5106692 8.48749851,16.5581231 C8.50428657,13.7138692 8.81872239,10.9000231 9.81874627,8.21824615 C11.4521791,3.83636154 14.9999045,1.88890769 19.2999164,1.05927692 C25.6253851,-0.161569231 31.9417791,0.323592308 38.2377552,1.37969231 C38.7237015,1.46138462 39.2187224,1.48453077 39.0653612,2.31007692 C38.3852179,5.97352308 37.7114269,9.64150769 37.1900896,13.3299154 C37.0312836,14.4559077 36.5453373,14.5348769 35.7009433,14.3796615 C33.4418149,13.9634846 31.1631761,14.0887462 28.891797,14.1672615 C25.9175881,14.2702846 24.5690985,15.5583 24.4797134,18.5464231 C24.3798925,21.8944462 24.4656478,25.2474615 24.4220896,28.5982077 C24.4121075,29.3470538 24.7487761,29.4137692 25.3490627,29.4101385 C28.613206,29.3901692 31.877803,29.4337385 35.1414925,29.3801846 C36.1002269,29.3647538 36.4727403,29.5358538 36.4437015,30.6232692 C36.3588537,33.8428538 36.3851701,37.0669769 36.4396179,40.2879231 C36.4532299,41.1016692 36.2218269,41.3063538 35.4355104,41.2963692 C32.2144716,41.2555231 28.9920716,41.3240538 25.772394,41.2532538 C24.7292657,41.2305615 24.3984955,41.4597538 24.4098388,42.5671385 C24.4692776,48.4952769 24.4379701,54.4238692 24.4375164,60.3524615" id="Fill-4" sketch:type="MSShapeGroup"></path>
            <path d="M170.542185,38.4398615 C170.542185,26.2009923 170.557612,13.9621231 170.515869,1.72370769 C170.511785,0.606338462 170.757254,0.276846154 171.918352,0.296361538 C176.382161,0.372153846 180.847785,0.354453846 185.312501,0.305438462 C186.275773,0.294546154 186.538484,0.5605 186.5344,1.53036923 C186.49674,10.3762846 186.53077,19.2226538 186.487666,28.0685692 C186.482675,29.1101462 186.692752,29.4564308 187.802125,29.4296538 C191.105743,29.3488692 194.413445,29.4328308 197.718424,29.3797308 C198.632693,29.3647538 198.979343,29.5308615 198.955296,30.5506538 C198.880884,33.7266692 198.892227,36.9063154 198.950304,40.0832385 C198.967546,41.0190692 198.762006,41.3258692 197.765158,41.3054462 C194.374878,41.2369154 190.982328,41.3022692 187.59114,41.2623308 C186.778961,41.2528 186.489027,41.4366077 186.492203,42.3170692 C186.526687,52.0647769 186.497194,61.8129385 186.53077,71.5606462 C186.542113,74.9867308 187.601122,76.0028923 191.014997,76.051 C193.331296,76.0832231 195.65803,76.1513 197.944836,75.7147 C198.624072,75.5849 198.775164,75.8422308 198.862734,76.3682385 C199.558304,80.5477077 200.262042,84.7258154 200.939009,88.9084615 C201.0048,89.3151077 201.226221,89.7984538 200.443988,89.9672846 C194.164346,91.3202 187.883797,92.2070154 181.472119,90.8050846 C175.326782,89.4617 172.166543,85.4701231 171.109803,79.4956923 C170.629301,76.7789692 170.539916,74.0400077 170.540824,71.2915154 C170.544,60.3406615 170.542185,49.3902615 170.542185,38.4398615" id="Fill-5" sketch:type="MSShapeGroup"></path>
            <path d="M206.71637,45.9296846 C206.71637,31.1960231 206.729982,16.4623615 206.6896,1.7287 C206.686424,0.596353846 206.959116,0.280023077 208.107057,0.298176923 C212.529122,0.368976923 216.95391,0.364892308 221.375976,0.300446154 C222.468107,0.284561538 222.710854,0.617684615 222.709493,1.66425385 C222.680907,27.0505923 222.698149,52.4369308 222.655499,77.8237231 C222.65323,79.1144615 222.937719,79.5192923 224.252179,79.4262538 C226.04714,79.2996308 227.857982,79.4253462 229.660657,79.3795077 C230.387081,79.3613538 230.618937,79.5796538 230.611678,80.3189692 C230.57674,83.7550385 230.579916,87.1920154 230.609863,90.6280846 C230.615761,91.2947846 230.434269,91.5117231 229.747773,91.5094538 C222.361481,91.4876692 214.974734,91.4785923 207.588442,91.5171692 C206.624263,91.5221615 206.712287,91.0084077 206.71274,90.388 C206.718639,83.7300769 206.71637,77.0721538 206.71637,70.4137769 L206.71637,45.9296846" id="Fill-6" sketch:type="MSShapeGroup"></path>
            <path d="M303.594364,85.5400154 C303.575761,88.9279769 300.936406,91.5062769 297.497576,91.4962923 C294.121361,91.4867615 291.443439,88.7981769 291.466125,85.4419846 C291.488358,82.1466077 294.300131,79.3908538 297.600119,79.4298846 C300.967713,79.4698231 303.613421,82.1665769 303.594364,85.5400154 L303.594364,85.5400154 Z M297.563367,80.5744846 C294.773373,80.5690385 292.553266,82.7311615 292.529672,85.4769308 C292.506078,88.2063615 294.736167,90.4687846 297.473982,90.4919308 C300.299367,90.5159846 302.542161,88.3066615 302.545337,85.4964462 C302.548967,82.7211769 300.381493,80.5799308 297.563367,80.5744846 L297.563367,80.5744846 Z" id="Fill-7" sketch:type="MSShapeGroup"></path>
            <path d="M69.3936716,55.6669538 C69.9962269,55.8834385 70.4440597,55.5026615 70.9095881,55.0928385 C72.4867582,53.7040692 74.1106627,52.3665846 75.6533493,50.9415077 C76.2105313,50.4263923 76.4736955,50.6587615 76.8902209,51.0527 C77.3380537,51.4765923 77.4455881,51.7833923 76.9696239,52.2921538 C75.5349254,53.8261538 74.1555821,55.4123462 72.7417552,56.9667692 C72.3279522,57.4219769 72.0725015,57.8576692 72.1006328,58.5461538 C72.1791284,60.4577538 70.8773731,61.8392615 69.1268776,61.8515154 C67.4439881,61.8633154 66.0229015,60.4209923 66.0455881,58.7240615 C66.0691821,56.9626846 67.469397,55.6547 69.3936716,55.6669538" id="Fill-8" sketch:type="MSShapeGroup"></path>
            <path d="M300.239021,88.3098385 C299.019391,88.7178462 298.324275,88.2653615 297.844681,87.2995769 C297.674078,86.9551077 297.429516,86.6015615 296.961719,86.6882462 C296.377767,86.7962615 296.638209,87.2918615 296.614161,87.6213538 C296.581493,88.0647615 296.645922,88.4469 295.974854,88.4564308 C295.278376,88.4664154 295.227104,88.1165 295.234818,87.5791462 C295.254782,86.1640538 295.257958,84.7480538 295.23391,83.3329615 C295.224382,82.7670154 295.340084,82.4393385 296.007522,82.4874462 C296.77569,82.5432692 297.564728,82.4307154 298.317469,82.5559769 C300.0176,82.8387231 300.812991,84.8497154 299.579296,85.9339538 C298.883725,86.5452846 299.155057,86.8130538 299.503069,87.2846 C299.728573,87.5904923 299.946818,87.9018308 300.239021,88.3098385 L300.239021,88.3098385 Z M297.218078,85.4478846 C297.994412,85.3684615 298.640979,85.4379 298.660036,84.6436692 C298.68,83.8099538 298.067916,83.7890769 297.438137,83.7432385 C296.77569,83.6955846 296.571964,83.9188769 296.579224,84.5869385 C296.586484,85.2540923 296.793839,85.5295769 297.218078,85.4478846 L297.218078,85.4478846 Z" id="Fill-9" sketch:type="MSShapeGroup"></path>
        </g>
    </g>
</svg>