<svg width="500" height="500" viewBox="0 0 500 500" fill="none" xmlns="http://www.w3.org/2000/svg">
<path d="M250 494C384.757 494 494 384.757 494 250C494 115.243 384.757 6 250 6C115.243 6 6 115.243 6 250C6 384.757 115.243 494 250 494Z" fill="#333333"/>
<path d="M248.91 380.8C248.91 258.47 336.71 228.1 356.71 228.1C356.71 228.1 397.82 223.2 439.87 247.68" stroke="white" stroke-width="20" stroke-miterlimit="10" stroke-linecap="round"/>
<path d="M442 207.87V252.12L409 268.65" stroke="white" stroke-width="20" stroke-miterlimit="10" stroke-linecap="round"/>
<path d="M251.09 380.8C251.09 258.47 163.29 228.1 143.29 228.1C143.29 228.1 102.18 223.2 60.1299 247.68" stroke="white" stroke-width="20" stroke-miterlimit="10" stroke-linecap="round"/>
<path d="M58 207.87V252.12L91 268.65" stroke="white" stroke-width="20" stroke-miterlimit="10" stroke-linecap="round"/>
<path d="M251.22 323.71V148.71" stroke="white" stroke-width="20" stroke-miterlimit="10" stroke-linecap="round"/>
<path d="M213.72 150.2L251.8 127.63L287.74 150.03" stroke="white" stroke-width="20" stroke-miterlimit="10" stroke-linecap="round"/>
</svg>
