<svg width="120" height="120" viewBox="0 0 120 120" fill="none" xmlns="http://www.w3.org/2000/svg">
<path d="M59.9999 118.56C92.3417 118.56 118.56 92.3418 118.56 60C118.56 27.6582 92.3417 1.44 59.9999 1.44C27.6581 1.44 1.43994 27.6582 1.43994 60C1.43994 92.3418 27.6581 118.56 59.9999 118.56Z" fill="#4F4F4F"/>
<path d="M59.7383 91.392C59.7383 62.0328 80.8103 54.744 85.6103 54.744C85.6103 54.744 95.4767 53.568 105.569 59.4432" stroke="white" stroke-width="5" stroke-miterlimit="10" stroke-linecap="round"/>
<path d="M106.08 49.8888V60.5088L98.1599 64.476" stroke="white" stroke-width="5" stroke-miterlimit="10" stroke-linecap="round"/>
<path d="M60.2616 91.392C60.2616 62.0328 39.1896 54.744 34.3896 54.744C34.3896 54.744 24.5232 53.568 14.4312 59.4432" stroke="white" stroke-width="5" stroke-miterlimit="10" stroke-linecap="round"/>
<path d="M13.9199 49.8888V60.5088L21.8399 64.476" stroke="white" stroke-width="5" stroke-miterlimit="10" stroke-linecap="round"/>
<path d="M60.2927 77.6904V35.6904" stroke="white" stroke-width="5" stroke-miterlimit="10" stroke-linecap="round"/>
<path d="M51.2927 36.048L60.4319 30.6312L69.0575 36.0072" stroke="white" stroke-width="5" stroke-miterlimit="10" stroke-linecap="round"/>
</svg>
