<?xml version="1.0" encoding="UTF-8" standalone="no"?>
<svg width="87px" height="85px" viewBox="0 0 87 85" version="1.1" xmlns="http://www.w3.org/2000/svg" xmlns:xlink="http://www.w3.org/1999/xlink">
    <!-- Generator: Sketch 3.6 (26304) - http://www.bohemiancoding.com/sketch -->
    <title>Page 1</title>
    <desc>Created with Sketch.</desc>
    <defs>
        <path id="path-1" d="M0,0.185294118 L86.6266471,0.185294118 L86.6266471,84 L0,84"></path>
    </defs>
    <g id="Page-1" stroke="none" stroke-width="1" fill="none" fill-rule="evenodd" opacity="0.82">
        <g id="About---Desktop-Copy" transform="translate(-140.000000, -500.000000)">
            <g id="Page-1" transform="translate(140.000000, 500.500000)">
                <g id="Group-3">
                    <mask id="mask-2" fill="white">
                        <use xlink:href="#path-1"></use>
                    </mask>
                    <g id="Clip-2"></g>
                    <path d="M51.2973382,62.2042441 C53.2110147,61.8270676 54.9700735,61.5598324 56.6873382,61.1266559 C61.8562206,59.8236265 66.1881912,57.2770676 68.5811618,52.2963618 C71.0046029,47.25245 71.5501912,41.9203029 70.3501029,36.4510382 C69.81975,34.0337735 68.62275,31.9107147 67.0203676,30.0299794 C66.6598676,29.6068912 66.5128676,29.2587441 66.6971324,28.6701265 C67.7510441,25.3010676 67.4331618,21.97545 66.2923676,18.6798912 C66.0838088,18.0772735 65.7513088,17.8913618 65.1589853,17.9043324 C63.0902794,17.9494206 61.1718676,18.5798324 59.3475441,19.4700676 C57.8108382,20.2200971 56.3614265,21.1473912 54.8376912,21.92645 C54.4028676,22.1488029 53.8012794,22.3030088 53.3477206,22.1932735 C46.6176324,20.5655676 39.9027794,20.5717441 33.17475,22.2015088 C32.7471324,22.3050676 32.1560441,22.1949206 31.7770147,21.9622735 C28.9313088,20.2163912 26.0458676,18.5853912 22.6914265,18.0175676 C20.6731618,17.6758029 20.4781912,17.7781265 19.9317794,19.6848029 C19.0629559,22.7160088 18.9198676,25.7531853 19.8586912,28.8076559 C19.94825,29.0983618 19.8798971,29.57395 19.68925,29.7946559 C15.8128971,34.2771265 15.0982794,39.5442147 15.8890735,45.1592441 C16.1126618,46.7461853 16.4513382,48.3399206 16.9493676,49.8609794 C18.9987206,56.1210382 23.6049265,59.5502147 29.7764559,61.1311853 C31.5241912,61.5787735 33.3149559,61.8577441 35.1917794,62.2353324 C33.7771618,63.7498029 33.0298088,65.5201853 32.6516029,67.4738029 C32.6056912,67.7111853 32.3261029,67.9975676 32.0883088,68.0898029 C27.5949265,69.8336265 23.0683971,69.2820676 20.1654559,64.5731265 C18.7625735,62.2973029 16.9306324,60.5635676 14.2245147,60.02745 C13.5442794,59.8928029 12.7860147,59.9450971 12.1018676,60.0908618 C11.3149853,60.2586559 11.2003088,60.7503029 11.7345735,61.3687735 C12.0446324,61.7280382 12.4100735,62.0700088 12.8150441,62.3115088 C15.1314265,63.6923618 16.6189265,65.7668324 17.6042794,68.1923324 C19.2498971,72.2436853 22.4239853,74.0387735 26.5613971,74.3016853 C28.4874265,74.4239794 30.4375441,74.1662147 32.4827794,74.0760382 C32.4827794,76.7193618 32.5457794,79.4602735 32.45725,82.1962441 C32.4105147,83.6440088 30.9602794,84.3464794 29.3319559,83.8155088 C25.6596324,82.6183029 22.1898971,80.9665088 19.0357794,78.7470971 C5.94351471,69.5340676 -0.680338235,56.8941265 0.0552794118,40.8902735 C0.969602941,20.9983324 15.4447794,4.79662647 35.0995441,0.984920588 C57.5053088,-3.36043235 79.4369265,10.4089794 85.2531029,32.4725676 C90.9228971,53.9810971 78.5328971,76.8140676 57.4178088,83.7691853 C55.3114265,84.4628029 54.0524559,83.5729794 54.0547206,81.3727147 C54.0584265,77.8727147 54.0598676,74.3727147 54.0923971,70.8731265 C54.1218382,67.7113912 53.6631324,64.7127147 51.2973382,62.2042441" id="Fill-1" fill="#757575" mask="url(#mask-2)"></path>
                </g>
                <path d="M27.9785471,69.4603824 C28.3861941,69.8511471 28.6472529,70.1015 28.9085176,70.3520588 C28.5966059,70.5616471 28.2954,70.9124706 27.9696941,70.9367647 C27.7028706,70.9567353 27.4072235,70.5875882 27.1243412,70.3909706 C27.3652235,70.1284706 27.6063118,69.8659706 27.9785471,69.4603824" id="Fill-4" fill="#E46E2E"></path>
                <path d="M21.6733794,69.1442912 C21.2509088,68.5595853 20.9602029,68.2023794 20.7469088,67.8035853 C20.7209676,67.7547912 21.2377324,67.3069971 21.2889971,67.3436441 C21.6416735,67.5956441 21.9739676,67.9015853 22.2239088,68.2532324 C22.2792912,68.3312618 21.9801441,68.6612912 21.6733794,69.1442912" id="Fill-6" fill="#E46E2E"></path>
                <path d="M24.5191471,70.6627971 C24.1580294,70.2658559 23.8895588,69.9710324 23.6212941,69.6760029 C23.8702059,69.5063559 24.1971471,69.1427676 24.3521765,69.2053559 C24.7322353,69.3587382 25.0328235,69.7087382 25.3655294,69.9796794 C25.1308235,70.1690912 24.8959118,70.3587088 24.5191471,70.6627971" id="Fill-8" fill="#E46E2E"></path>
                <path d="M31.3432206,69.0479588 C31.7298676,69.4074294 31.9732206,69.6336941 32.2165735,69.8597529 C31.8842794,70.0998118 31.57875,70.4426059 31.2089853,70.5391647 C31.0035147,70.5931059 30.6905735,70.2365176 30.4260147,70.0650176 C30.6911912,69.7710176 30.9561618,69.4770176 31.3432206,69.0479588" id="Fill-10" fill="#E46E2E"></path>
                <path d="M20.2367735,65.7182441 C19.9042735,66.0099794 19.6189206,66.3177735 19.5773324,66.2877147 C19.2545088,66.0546559 18.9438324,65.7808324 18.7171559,65.4580088 C18.6716559,65.3931559 19.0008618,65.0653912 19.1573324,64.8586853 C19.4698618,65.1075971 19.7825971,65.3565088 20.2367735,65.7182441" id="Fill-12" fill="#E46E2E"></path>
                <path d="M17.8094824,64.1164176 C17.4644235,63.7108294 17.1988353,63.4759176 17.0506,63.1819176 C17.0001588,63.0816529 17.2447471,62.8325353 17.3544824,62.6515647 C17.6402471,62.9002706 17.9494824,63.1294176 18.1911882,63.4153882 C18.2368941,63.4691235 18.0149529,63.7493294 17.8094824,64.1164176" id="Fill-14" fill="#E46E2E"></path>
            </g>
        </g>
    </g>
</svg>