<?xml version="1.0" encoding="UTF-8" standalone="no"?>
<svg width="208px" height="73px" viewBox="0 0 208 73" version="1.1" xmlns="http://www.w3.org/2000/svg" xmlns:xlink="http://www.w3.org/1999/xlink" xmlns:sketch="http://www.bohemiancoding.com/sketch/ns">
    <!-- Generator: Sketch 3.3.3 (12072) - http://www.bohemiancoding.com/sketch -->
    <title>Imported Layers</title>
    <desc>Created with Sketch.</desc>
    <defs></defs>
    <g id="Page-1" stroke="none" stroke-width="1" fill="none" fill-rule="evenodd" sketch:type="MSPage">
        <g id="About---Desktop" sketch:type="MSArtboardGroup" transform="translate(-225.000000, -929.000000)">
            <g id="Imported-Layers-+-Imported-Layers-+-Imported-Layers" sketch:type="MSLayerGroup" transform="translate(225.000000, 929.000000)">
                <g id="Imported-Layers" sketch:type="MSShapeGroup">
                    <path d="M135.033831,54.5499044 C133.698996,54.0048765 132.523695,53.7201474 131.479945,53.1024104 C128.567368,51.3786215 128.360521,48.6444661 130.997592,46.5280478 C132.435994,45.3737171 134.150768,44.6998486 135.772361,43.812506 C135.330685,43.304996 134.716494,43.2686414 134.202985,43.0368446 C129.801232,41.0515936 127.270325,37.7404183 127.253304,32.7892151 C127.235994,27.7690837 129.654391,24.2156414 134.138075,22.1483745 C137.662247,20.523761 141.376821,20.2131474 145.122552,21.2011195 C149.768943,22.4267052 154.395717,22.6329084 159.270302,21.3029124 C159.06461,22.7925777 158.870458,24.2054622 158.673709,25.6177649 C158.583412,26.267494 158.072499,26.1345817 157.666885,26.1348725 C156.321953,26.1369084 154.976732,26.1107331 153.6318,26.1031713 C153.364949,26.1014263 153.027994,25.9411753 152.864999,26.2698207 C152.706042,26.5900319 153.008377,26.8032151 153.165315,27.0239602 C154.342058,28.6791116 155.060971,30.51051 155.141748,32.5481116 C155.325226,37.1796853 153.098386,40.3986653 149.160233,42.4909442 C145.966957,44.1876853 142.518946,44.6533147 138.948039,44.2798805 C137.407512,44.118757 135.687545,45.521753 135.645137,47.053008 C135.616,48.1131076 136.435307,48.5412191 137.254036,48.8698645 C139.636949,49.8261355 142.179107,50.1320956 144.666452,50.6570558 C147.722696,51.3027131 150.795096,51.8977649 153.626607,53.2987251 C159.373293,56.1416534 160.49782,62.0087012 156,66.6277689 C151.127434,71.6319044 144.909648,73.1137171 138.174313,72.8080478 C135.464832,72.6853147 132.85661,72.0399482 130.45033,70.7073347 C124.767112,67.5599004 124.411983,60.9922271 129.716705,57.2488685 C131.300505,56.1311833 133.081631,55.4075817 135.033831,54.5499044 L135.033831,54.5499044 Z M141.471157,70.01049 C146.021193,69.6236773 149.080033,68.3498127 151.046369,66.1403267 C153.42582,63.4669562 152.947795,60.2439044 149.902513,58.4087251 C148.948483,57.833741 147.925215,57.4126096 146.870502,57.0816375 C143.884938,56.1445618 140.784843,55.7164502 137.743601,55.0257131 C137.29327,54.9236295 136.90987,55.0120438 136.531085,55.2967729 C134.893626,56.5275936 133.449742,57.9259363 132.575334,59.8282988 C130.945087,63.3756335 132.127889,66.885741 135.54734,68.7075418 C137.518291,69.757753 139.639834,70.021251 141.471157,70.01049 L141.471157,70.01049 Z M133.766502,32.6027888 C133.700438,34.425753 134.001908,36.1826972 134.826985,37.8076016 C136.311834,40.7313825 138.775523,41.8807689 141.94947,41.6827092 C144.954652,41.4948287 147.051096,39.9752072 147.998202,37.1273347 C149.218508,33.4581394 148.918768,29.8538008 146.825209,26.5443705 C145.325936,24.1743426 143.052938,23.1453625 140.302491,23.3678526 C137.429148,23.6002311 135.549359,25.2399681 134.519745,27.9118845 C133.938441,29.4201633 133.701592,30.9895179 133.766502,32.6027888 L133.766502,32.6027888 Z" id="Fill-1" fill="#5270B5"></path>
                    <path d="M38.4921165,33.8059801 C40.8473343,33.8062709 43.2022635,33.8074343 45.5574813,33.8048167 C45.9541526,33.8045259 46.2893759,33.8277928 46.4901637,34.2893506 C46.6947018,34.7602151 46.481509,34.9867769 46.175423,35.2691793 C44.3267906,36.9766813 43.8565548,39.2364821 43.8233786,41.6108725 C43.7711623,45.3411434 43.7691429,49.0734502 43.827706,52.8034303 C43.8435728,53.8108884 43.6119168,54.2483068 42.5525881,54.3937251 C38.3663356,54.9678367 34.2011429,55.6928924 29.9799834,55.9982709 C24.4271623,56.4002072 19.0191623,55.773745 13.9209986,53.4499602 C5.69706519,49.7007849 0.922008322,43.2439203 0.176843273,34.1750518 C-0.688332871,23.6450199 2.52946463,14.7218606 11.6252094,8.70270518 C17.0522497,5.11116335 23.222147,4.24796016 29.5867739,4.53763347 C34.0064133,4.73889243 38.3787406,5.41537849 42.7637614,5.96244223 C43.7316394,6.08313944 44.0466685,6.35594422 43.8236671,7.39190438 C43.1725492,10.4189323 42.5586463,13.4581753 42.0716782,16.5154502 C41.8579085,17.8570797 41.0117725,17.5697331 40.1843883,17.6418606 C39.2442053,17.7238765 39.2571872,17.1500558 39.1925659,16.4703705 C38.699251,11.2757371 35.3149958,8.12277689 29.6724549,7.55884462 C17.5357559,6.34576494 8.6356061,13.8342271 7.47617198,26.2398645 C6.92112067,32.1802032 7.64609154,37.89049 10.9628405,42.9722789 C15.7168377,50.2557012 22.720466,53.0346454 31.1192233,52.796741 C32.8492871,52.7478805 34.5605992,52.5056135 36.2649875,52.1769681 C37.0032288,52.0344582 37.3393176,51.7965538 37.329509,50.9793028 C37.2862358,47.3944502 37.3358558,43.8081434 37.2781581,40.2232908 C37.2412316,37.9213187 36.6152122,37.1613625 34.3854868,36.5157052 C33.4190513,36.2359203 32.4269404,35.9962709 31.4302136,35.8877888 C30.5260915,35.7891952 30.538785,35.2665618 30.5252261,34.5886215 C30.5082053,33.7594462 31.0194064,33.8021992 31.5709958,33.8033625 C33.8780361,33.8091793 36.1850763,33.8059801 38.4921165,33.8059801" id="Fill-2" fill="#5270B5"></path>
                    <path d="M67.4070014,20.6950637 C81.4304133,20.7593386 86.4221248,30.9118645 84.3340472,41.3697689 C82.8480444,48.8122789 78.7082386,54.0362869 71.0298363,55.7152869 C63.0603495,57.4576892 55.5735035,54.0339602 52.6909293,47.1920279 C49.9618308,40.7145139 50.4182191,34.2657928 53.9666241,28.2251155 C57.1930763,22.7323745 62.4034619,20.7514861 67.4070014,20.6950637 L67.4070014,20.6950637 Z M77.9322053,39.1454502 C77.9324938,34.838741 77.045681,30.9918446 75.3519667,28.1172151 C73.4640999,24.9133586 70.7779861,23.0601474 66.9601331,23.2960159 C63.294025,23.5222869 60.8496644,25.6346335 59.5540638,28.8989841 C56.8737198,35.6522112 57.2239445,42.3673386 60.6445492,48.7840677 C62.3045104,51.8980558 65.0036061,53.6596534 68.6449043,53.5034741 C72.2455257,53.3490398 74.5687212,51.2713028 76.1023245,48.1610956 C77.5006269,45.3263108 77.9492261,42.2800876 77.9322053,39.1454502 L77.9322053,39.1454502 Z" id="Fill-3" fill="#E32135"></path>
                    <path d="M89.0969875,39.0078845 C89.329509,32.9619721 91.0004327,27.5625896 96.0691706,23.7756056 C102.557847,18.9276494 113.544921,19.7850359 118.870702,25.6023506 C122.251784,29.2956853 123.203506,33.8597849 122.795584,38.702506 C122.250918,45.1678048 119.721454,50.603251 113.919956,53.9536892 C107.219528,57.8235618 95.6520166,57.0284143 91.0944799,47.9964821 C89.6705021,45.1747849 89.0649653,42.1727689 89.0969875,39.0078845 L89.0969875,39.0078845 Z M116.005148,40.3291554 C115.99909,35.2441673 115.369609,31.5008088 113.410197,28.1041275 C111.552333,24.8834024 108.815157,23.0505498 105.01144,23.299506 C101.294558,23.5429363 99.0042497,25.7896494 97.5309404,29.0484741 C96.8100083,30.644004 96.3559279,32.3267849 96.1773537,34.0662789 C95.6430735,39.2693466 96.0634008,44.325251 98.7904799,48.9358845 C100.536988,51.8890398 103.102513,53.6134104 106.598125,53.5058008 C110.109892,53.3973187 112.482419,51.4568566 114.051795,48.39551 C115.544144,45.4848167 116.025054,42.3600677 116.005148,40.3291554 L116.005148,40.3291554 Z" id="Fill-4" fill="#FED252"></path>
                    <path d="M179.319368,39.0651793 C179.43332,33.1908606 181.155595,27.9540558 185.770252,24.1144303 C190.372216,20.2852749 195.573947,19.5846494 201.013104,22.1143466 C205.100693,24.0155458 207.196272,27.4523625 207.73863,31.9242669 C207.856333,32.8953705 207.546208,33.2757849 206.634008,33.5328845 C203.422558,34.4376773 200.102347,34.6438805 196.834641,35.1784382 C193.515295,35.7214303 190.181814,36.181243 186.849487,36.6384382 C185.66005,36.8015976 185.153176,37.4047928 185.319345,38.5975139 C185.40618,39.2213586 185.451473,39.8521833 185.567734,40.4702112 C187.441753,50.4278765 197.150247,54.3117092 205.579295,48.5069004 C205.993276,48.2218805 206.359656,47.2641554 207.042219,47.9348247 C207.762574,48.643012 207.547939,49.4093665 206.910092,50.1986972 C202.990402,55.0504343 197.928588,56.8588566 191.899761,55.8115538 C185.993254,54.7854821 182.256178,51.1232669 180.317825,45.5043028 C179.601798,43.4286016 179.302058,41.2720478 179.319368,39.0651793 L179.319368,39.0651793 Z M193.796571,23.5670757 C191.765614,23.5804542 190.078824,24.3811275 188.711678,25.8725378 C186.816599,27.9398048 186.014025,30.4968406 185.510902,33.189988 C185.357714,34.0086932 185.715151,34.0351594 186.376655,33.945 C190.124982,33.4328367 193.884272,33.0009442 197.628849,32.4640598 C201.360155,31.929502 201.404583,31.7968805 199.945121,28.1829442 C198.726835,25.1663865 196.597792,23.5691116 193.796571,23.5670757 L193.796571,23.5670757 Z" id="Fill-5" fill="#E32135"></path>
                    <path d="M166.030735,28.5310757 C166.030735,22.5223904 166.030735,16.5134143 166.030447,10.5047291 C166.030447,10.1653227 166.034774,9.82591633 166.022946,9.48709163 C165.888799,5.72599203 165.66147,5.51280876 161.967379,5.43719124 C161.486757,5.42759363 160.729187,5.79579283 160.694857,4.77844622 C160.667451,3.96962948 160.634852,3.36817928 161.742646,3.13841833 C165.174791,2.42615936 168.571739,1.5385259 171.865698,0.312358566 C172.766069,-0.0229760956 172.851462,0.312649402 172.70289,1.07580478 C172.173226,3.79978088 172.127645,6.55894821 172.129087,9.32276892 C172.135146,21.7766853 172.129087,34.2306016 172.135146,46.6845179 C172.135723,48.1878526 172.195151,49.7019482 171.899739,51.1761992 C171.683373,52.2552032 172.1363,52.5079402 173.06177,52.5695976 C174.403528,52.6588845 175.738652,52.8444382 177.078391,52.9683347 C177.5919,53.015741 178.095889,53.0387171 177.915872,53.7751155 C177.790092,54.2890239 177.95453,54.9719084 177.043196,54.9922669 C172.094469,55.104239 167.146607,55.2455857 162.198746,55.3959482 C161.631867,55.4133984 161.350591,55.2074861 161.463967,54.6551873 C161.571861,54.1281912 161.059218,53.4522869 162.035462,53.1218964 C165.50511,51.947498 166.030158,51.1395538 166.030447,47.4299323 C166.031024,41.1304104 166.030735,34.8308884 166.030735,28.5310757" id="Fill-6" fill="#27B34D"></path>
                </g>
            </g>
        </g>
    </g>
</svg>