<?xml version="1.0" encoding="UTF-8" standalone="no"?>
<svg width="130px" height="45px" viewBox="0 0 130 45" version="1.1" xmlns="http://www.w3.org/2000/svg" xmlns:xlink="http://www.w3.org/1999/xlink" xmlns:sketch="http://www.bohemiancoding.com/sketch/ns">
    <!-- Generator: Sketch 3.3.3 (12072) - http://www.bohemiancoding.com/sketch -->
    <title>Imported Layers</title>
    <desc>Created with Sketch.</desc>
    <defs></defs>
    <g id="Page-1" stroke="none" stroke-width="1" fill="none" fill-rule="evenodd" sketch:type="MSPage">
        <g id="Home---Desktop-Copy-2" sketch:type="MSArtboardGroup" transform="translate(-171.000000, -1907.000000)" fill="#B1B1B1">
            <g id="Group-+-Currently-in-use-at" sketch:type="MSLayerGroup" transform="translate(131.000000, 1814.000000)">
                <g id="Group" sketch:type="MSShapeGroup">
                    <g transform="translate(25.000000, 0.000000)" id="Row-3-+-Row-1-+-Row-2">
                        <g transform="translate(0.000000, 81.000000)">
                            <g id="Row-1" transform="translate(15.000000, 0.000000)">
                                <g id="Imported-Layers" transform="translate(0.000000, 12.000000)">
                                    <path d="M20.6156716,0 C21.7417724,0.236854839 22.8746642,0.445645161 23.9925187,0.716612903 C25.9284515,1.18596774 27.7234701,2.00008065 29.4369963,3.00701613 C30.0234515,3.35177419 30.299944,3.62491935 29.6426679,4.23604839 C28.4450187,5.34943548 27.3281343,6.54943548 26.1518284,7.73927419 C26.0322575,7.54112903 25.9539179,7.47120968 25.9653172,7.4216129 C26.4225,5.41330645 25.1569403,4.44387097 23.6895896,3.53080645 C17.9036194,-0.0691935484 7.18880597,1.03596774 5.1493097,11.6871774 C3.9123694,18.1473387 6.08453358,23.6566935 11.2066791,27.7572581 C14.095056,30.0696774 17.6533209,30.7550806 21.3605037,30.3878226 C22.6437687,30.2605645 23.9229104,30.1137097 25.1816791,29.7941129 C25.762556,29.6467742 25.9658022,29.4009677 25.957556,28.8087097 C25.928209,26.7130645 25.9214179,24.6164516 25.9609515,22.5212903 C25.973806,21.8479839 25.7016791,21.7197581 25.1077052,21.7318548 C23.5792351,21.7630645 22.0497948,21.7422581 20.2933396,21.7422581 C21.1516791,20.6883871 21.716306,19.7535484 23.195541,19.8050806 C26.1404291,19.9071774 29.0913806,19.8353226 32.0379664,19.8353226 C32.0530037,19.9429839 32.0961754,20.0620161 32.0685261,20.081371 C30.4170896,21.251129 30.1658209,22.8999194 30.2982463,24.7737097 C30.4141791,26.4181452 30.3152239,28.0773387 30.3278358,29.7297581 C30.3312313,30.1577419 30.319347,30.506129 29.7906157,30.6406452 C24.2811381,32.0416935 18.7098134,33.1383871 13.0354104,32.0196774 C6.20871269,30.6737903 1.88742537,26.5664516 0.339794776,19.7017742 C0.276735075,19.421129 0.40891791,19.023871 0,18.8709677 L0,13.5483871 C0.394608209,13.3969355 0.290559701,13.0057258 0.364533582,12.7243548 C2.05938433,6.26516129 6.28753731,2.3625 12.6320709,0.582096774 C13.4268657,0.359032258 14.2881157,0.40983871 15.0373134,0 L20.6156716,0" id="Fill-1"></path>
                                    <path d="M86.8283582,45 C85.7311194,44.478629 84.493694,44.3954032 83.3986381,43.8234677 C78.8013433,41.4215323 78.5275187,36.0466935 82.9079851,33.2426613 C85.4296455,31.6284677 88.2983769,31.17 91.2951679,30.8978226 C91.058694,30.0875806 90.113041,29.4694355 90.3097388,28.6695968 C90.8059701,26.651129 89.6386381,26.7079839 88.1843843,26.4447581 C84.4303918,25.7656452 82.2092351,23.2662097 82.0013806,19.9074194 C81.7838246,16.3918548 83.9106343,13.1341935 87.2751119,11.895 C88.6413246,11.3917742 90.0560448,11.1154839 91.529944,11.1278226 C94.5041791,11.1532258 97.4788993,11.1355645 100.51959,11.1355645 C99.2802239,12.8895968 99.1919403,12.9358065 96.9079664,13.0739516 C96.8555784,13.5609677 97.3086381,13.7223387 97.5429291,13.9964516 C100.325075,17.2519355 100.058769,21.2603226 96.8444216,24.0754839 C96.2987127,24.5533065 95.6841231,24.9585484 95.1735821,25.4692742 C94.0309888,26.6124194 94.0707649,27.708871 95.283694,28.7625 C96.0445336,29.4232258 96.843209,30.0433065 97.6520709,30.6452419 C103.205205,34.7791935 101.12472,41.3937097 95.6875187,43.7678226 C94.243694,44.3980645 92.6948507,44.6012903 91.1940299,45 L86.8283582,45 L86.8283582,45 Z M90.9759888,42.8155645 C92.8275187,42.8784677 94.5956157,42.6164516 96.1291791,41.4737903 C98.2072388,39.9249194 98.5312687,37.2902419 96.8565485,35.3419355 C95.8514739,34.1726613 94.5762127,33.311129 93.3210821,32.4365323 C93.1369963,32.3083065 92.8762687,32.2282258 92.651194,32.2289516 C90.379347,32.2357258 88.1351493,32.4280645 86.1104478,33.5879032 C83.1422761,35.2877419 82.8827612,39.0466935 85.595056,41.1273387 C87.1722761,42.3372581 88.9830597,42.8862097 90.9759888,42.8155645 L90.9759888,42.8155645 Z M85.84875,17.3170161 C85.8312873,19.8672581 86.9646642,22.4552419 88.5380037,24.0960484 C90.6332836,26.2812097 94.795709,24.9174194 95.3600933,22.1383065 C95.9283582,19.3400806 95.0675933,16.8827419 93.4287687,14.6804032 C92.1003918,12.8958871 90.1605784,12.2898387 88.4308022,12.9273387 C86.8261754,13.5183871 85.8635448,15.1550806 85.84875,17.3170161 L85.84875,17.3170161 Z" id="Fill-2"></path>
                                    <path d="M44.9004478,32.1851613 C38.8076679,32.1989516 34.1924254,27.7255645 34.1948507,21.8087903 C34.1972761,15.8131452 39.0965299,11.1621774 45.4740485,11.1423387 C51.4967351,11.1234677 55.9021828,15.4357258 56.0130224,21.4294355 C56.1265299,27.5552419 51.275541,32.1708871 44.9004478,32.1851613 L44.9004478,32.1851613 Z M51.704347,23.658629 C51.5811381,20.5584677 50.96,17.6003226 49.0572948,15.0479032 C47.732556,13.271129 45.9496642,12.3355645 43.7115299,12.6626613 C41.333209,13.0100806 39.4132836,14.2710484 38.8918284,16.6555645 C37.8933022,21.2235484 38.7671642,25.53 42.0385075,28.9947581 C45.0299627,32.1631452 50.1562313,30.7180645 51.3669776,26.531371 C51.6371642,25.5970161 51.7319963,24.6370161 51.704347,23.658629 L51.704347,23.658629 Z" id="Fill-3"></path>
                                    <path d="M69.0569216,32.1534677 C62.6733396,32.1868548 58.0205037,27.7403226 57.9974627,21.9285484 C57.9729664,15.8680645 62.8884701,11.1875806 69.2914552,11.1737903 C74.5705224,11.1624194 79.391194,15.3800806 79.6691418,19.8428226 C79.8893657,23.3779839 79.1833396,26.4345968 76.6883582,28.9785484 C74.5072201,31.2024194 71.7566045,32.0842742 69.0569216,32.1534677 L69.0569216,32.1534677 Z M62.2503545,19.4087903 C62.2634515,22.4666129 63.1358582,25.1494355 64.7033769,27.8719355 C66.0356343,30.1860484 68.4791978,30.9345968 70.4847388,30.6641129 C72.9261194,30.3348387 74.7584888,28.6642742 75.2273134,26.1377419 C75.978209,22.0904032 75.2190672,18.2772581 72.7691978,14.928629 C71.3852799,13.0364516 69.4214552,12.1993548 67.0436194,12.7091129 C63.8304851,13.3976613 62.234347,15.6570968 62.2503545,19.4087903 L62.2503545,19.4087903 Z" id="Fill-4"></path>
                                    <path d="M129.832649,28.533629 C128.791194,30.1502419 127.338396,31.1755645 125.555989,31.7264516 C118.552481,33.8905645 111.913993,29.0220968 111.806791,21.6462097 C111.705653,14.6966129 117.081493,10.0870161 123.855802,11.3915323 C126.30834,11.8637903 128.180485,13.2009677 129.217817,15.5760484 C129.571679,16.3862903 129.573619,16.8031452 128.601772,17.1764516 C124.765075,18.6508065 120.977612,20.2514516 117.148433,21.7451613 C116.350243,22.0565323 116.240616,22.4109677 116.496007,23.1689516 C118.354086,28.68 123.413657,31.0473387 128.840672,28.9132258 C129.170037,28.7835484 129.502071,28.6599194 129.832649,28.533629 L129.832649,28.533629 Z M115.691754,18.3249194 C115.691754,18.7429839 115.684478,18.9849194 115.692966,19.2266129 C115.743172,20.6523387 115.79556,20.6835484 117.104291,20.1515323 C119.3075,19.2558871 121.513862,18.3679839 123.716343,17.4701613 C125.002519,16.9458871 125.258396,16.1709677 124.567164,14.9370968 C123.433302,12.9125806 120.803228,12.1001613 118.663321,13.1859677 C116.504496,14.2812097 115.559571,16.1049194 115.691754,18.3249194 L115.691754,18.3249194 Z" id="Fill-5"></path>
                                    <path d="M111.575896,30.3169355 C110.990896,31.3940323 110.259888,31.7646774 109.154888,31.7271774 C106.788694,31.6466129 104.418134,31.7025 102.036175,31.7025 C102.059701,31.5326613 102.042966,31.4271774 102.082743,31.3979032 C103.56222,30.3087097 103.853993,28.8401613 103.834347,27.0631452 C103.751157,19.4487097 103.80209,11.8328226 103.80403,4.21766129 C103.804515,2.6325 103.804515,2.63225806 102.206922,2.62427419 C101.895746,2.62282258 101.584571,2.62403226 101.069664,2.62403226 C101.939403,1.48790323 102.609776,0.589354839 104.123451,0.693870968 C106.042164,0.826209677 107.977127,0.725806452 109.910149,0.725806452 C109.899963,0.876774194 109.923246,0.986854839 109.886381,1.01346774 C108.334627,2.12733871 108.120951,3.67258065 108.141082,5.47354839 C108.223787,12.8058871 108.177948,20.1396774 108.179646,27.4729839 C108.180131,29.9005645 108.261866,29.9883871 110.737201,30.2312903 C110.975616,30.2545161 111.213787,30.2799194 111.575896,30.3169355" id="Fill-6"></path>
                                </g>
                            </g>
                        </g>
                    </g>
                </g>
            </g>
        </g>
    </g>
</svg>