<?xml version="1.0" encoding="UTF-8" standalone="no"?>
<svg width="60px" height="53px" viewBox="0 0 60 53" version="1.1" xmlns="http://www.w3.org/2000/svg" xmlns:xlink="http://www.w3.org/1999/xlink" xmlns:sketch="http://www.bohemiancoding.com/sketch/ns">
    <!-- Generator: Sketch 3.3.3 (12072) - http://www.bohemiancoding.com/sketch -->
    <title>Imported Layers</title>
    <desc>Created with Sketch.</desc>
    <defs></defs>
    <g id="Page-1" stroke="none" stroke-width="1" fill="none" fill-rule="evenodd" sketch:type="MSPage">
        <g id="About---Desktop" sketch:type="MSArtboardGroup" transform="translate(-570.000000, -2058.000000)" stroke="#766A6A" stroke-width="2">
            <g id="Imported-Layers" sketch:type="MSLayerGroup" transform="translate(571.000000, 2059.000000)">
                <path d="M31.8245699,27.1663036 C31.8386943,25.047375 34.1493782,22.7423571 36.2857617,22.7168571 C37.6900829,22.7001607 38.5874301,23.8367321 38.1676062,25.1994643 C37.989399,25.7789821 38.0476995,26.0197143 38.6370155,26.2653036 C42.4668187,27.8602679 45.4912332,30.5732857 48.2713264,33.5746964 C50.3250674,35.7919821 52.1903834,38.1683393 53.3335544,41.027375 C53.4964352,41.4347679 53.7605907,41.4848571 54.1509637,41.4936607 C56.7681762,41.5531607 58.4408601,43.6790714 57.884,46.2712679 C57.4560622,48.2633036 55.7037409,49.2899821 54.0328601,49.232 C52.017886,49.1621786 50.4098135,47.4876786 50.4479793,45.577 C50.4615026,44.9082321 50.2394197,44.6328929 49.6600207,44.3684821 C45.8719896,42.638125 42.8725181,39.8634821 40.0993368,36.8192679 C38.3506218,34.8997857 36.788829,32.8336786 35.6751088,30.4567143 C35.6642902,30.4339464 35.6432539,30.4148214 35.6378446,30.3914464 C35.404342,29.3775179 35.0007461,28.885125 33.7692228,29.1625893 C32.5803731,29.4303393 31.8158549,28.485625 31.8245699,27.1663036" id="Fill-1" sketch:type="MSShapeGroup"></path>
                <path d="M27.1518135,26.418 C26.3344041,26.4677857 25.6994093,26.0776964 25.1560725,25.5285357 C22.6272124,22.9724643 20.1022591,20.4124464 17.5911295,17.8387679 C16.5266943,16.7477321 16.4741036,15.1949643 17.524114,14.095125 C19.3999482,12.1304107 21.310342,10.1981786 23.2468808,8.29448214 C24.235886,7.32244643 25.8740104,7.36707143 26.8552021,8.35155357 C29.464,10.9695536 32.0616788,13.5990893 34.642228,16.2459286 C35.686829,17.3169286 35.7349119,18.8353929 34.7017306,19.9249107 C32.8517409,21.8753571 30.9653886,23.7930179 29.0303523,25.6566429 C28.5618446,26.10775 27.8445078,26.2956607 27.2416684,26.6046964 C27.2116166,26.5424643 27.1818653,26.4802321 27.1518135,26.418" id="Fill-2" sketch:type="MSShapeGroup"></path>
                <path d="M15.0965285,50.8718929 C10.9175233,50.8725 6.73851813,50.8749286 2.55981347,50.8709821 C1.30394819,50.8697679 0.523502591,50.2292321 0.276476684,49.0228393 C0.0147253886,47.7429821 0.540331606,46.5891071 1.62880829,46.1364821 C1.8941658,46.0259821 2.20820725,45.9953214 2.49970984,45.9950179 C10.8574197,45.9868214 19.2154301,46.0144464 27.5731399,45.9652679 C29.4835337,45.9543393 30.1885492,47.478875 29.9769845,48.926 C29.7909637,50.1976607 28.9876788,50.8685536 27.7083731,50.8697679 C23.5044249,50.8740179 19.3004767,50.8712857 15.0965285,50.8718929" id="Fill-3" sketch:type="MSShapeGroup"></path>
                <path d="M30.3938031,0.141160714 C30.8463834,0.429553571 31.2668083,0.602892857 31.5640207,0.901607143 C35.0560415,4.409375 38.5342383,7.93141071 42.0046218,11.4610357 C42.8604974,12.3316786 42.8535855,12.9254643 42.0247565,13.7958036 C41.2626425,14.5963214 40.4978238,15.3953214 39.704456,16.1639643 C38.9417409,16.9028571 38.2959275,16.8961786 37.5500415,16.1442321 C34.0285699,12.5939643 30.5125078,9.03792857 27.0054611,5.47308929 C26.2027772,4.65678571 26.2271192,4.00532143 27.0258964,3.18628571 C27.7630674,2.43039286 28.4891192,1.66235714 29.2527358,0.934696429 C29.5604663,0.641446429 29.9550466,0.440785714 30.3938031,0.141160714" id="Fill-4" sketch:type="MSShapeGroup"></path>
                <path d="M25.8887358,29.72875 C25.6462176,30.1355357 25.4974611,30.5140893 25.2411192,30.7903393 C24.4886218,31.6011786 23.7015648,32.3798393 22.9130052,33.1554643 C22.1322591,33.9235 21.4470777,33.9316964 20.6254611,33.1363393 C19.5601244,32.1048036 18.5299482,31.0365357 17.4871503,29.981625 C15.1016373,27.5670179 12.7194301,25.1496786 10.332715,22.7362857 C9.32267358,21.715375 9.32297409,21.0721071 10.3423316,20.0487679 C11.0521554,19.3359821 11.7532642,18.6146964 12.4639896,17.903125 C13.1831295,17.1833571 13.9248083,17.1463214 14.6343316,17.8618393 C18.1735337,21.4330536 21.7034197,25.0139821 25.2191813,28.608875 C25.4971606,28.8930179 25.6429119,29.3086071 25.8887358,29.72875" id="Fill-5" sketch:type="MSShapeGroup"></path>
                <path d="M15.1638446,44.2415893 C11.8860933,44.2418929 8.60834197,44.2458393 5.33059067,44.2400714 C3.73303627,44.2373393 2.9712228,43.4750714 2.95409326,41.8895179 C2.93876684,40.4943036 3.70508808,39.6491607 5.08777202,39.590875 C5.91209326,39.5559643 6.73881865,39.5820714 7.56464249,39.5820714 C13.2943212,39.5817679 19.0243005,39.5805536 24.7542798,39.5829821 C26.6153886,39.5838929 27.4766736,40.562 27.2503834,42.4031607 C27.1076373,43.5628036 26.3304974,44.2346071 25.0725285,44.2379464 C21.7695337,44.2473571 18.4668394,44.2412857 15.1638446,44.2415893" id="Fill-6" sketch:type="MSShapeGroup"></path>
            </g>
        </g>
    </g>
</svg>