<?xml version="1.0" encoding="UTF-8" standalone="no"?>
<svg width="60px" height="61px" viewBox="0 0 60 61" version="1.1" xmlns="http://www.w3.org/2000/svg" xmlns:xlink="http://www.w3.org/1999/xlink" xmlns:sketch="http://www.bohemiancoding.com/sketch/ns">
    <!-- Generator: Sketch 3.3.3 (12072) - http://www.bohemiancoding.com/sketch -->
    <title>Oval 83 Copy 3 + Imported Layers</title>
    <desc>Created with Sketch.</desc>
    <defs>
        <linearGradient x1="0%" y1="-37.5892001%" x2="50%" y2="100%" id="linearGradient-1">
            <stop stop-color="#FBDA61" offset="0%"></stop>
            <stop stop-color="#F76B1C" offset="100%"></stop>
        </linearGradient>
    </defs>
    <g id="Page-1" stroke="none" stroke-width="1" fill="none" fill-rule="evenodd" sketch:type="MSPage">
        <g id="About---Desktop" sketch:type="MSArtboardGroup" transform="translate(-570.000000, -3482.000000)">
            <g id="Oval-83-Copy-3-+-Group" sketch:type="MSLayerGroup" transform="translate(180.000000, 3482.477414)">
                <g id="Oval-83-Copy-3-+-Imported-Layers" transform="translate(390.000000, 0.000000)" sketch:type="MSShapeGroup">
                    <circle id="Oval-83-Copy-3" fill="url(#linearGradient-1)" cx="30" cy="30" r="30"></circle>
                    <g id="Imported-Layers" transform="translate(8.000000, 7.000000)" fill="#FFFFFF">
                        <path d="M23.5940777,20.2415595 C23.6045492,18.66275 25.3176425,16.9452857 26.901513,16.9262857 C27.9426477,16.9138452 28.6079223,17.7607024 28.2966736,18.7760714 C28.1645544,19.207869 28.2077772,19.3872381 28.6446839,19.5702262 C31.4840207,20.758631 33.7262591,22.7800952 35.7873627,25.0164405 C37.3099637,26.6685357 38.6928705,28.4391548 39.5403938,30.5694167 C39.6611503,30.8729643 39.8569896,30.9102857 40.1464041,30.9168452 C42.0867513,30.9611786 43.3268446,32.5451905 42.914,34.476631 C42.5967358,35.9608929 41.297601,36.725869 40.0588446,36.6826667 C38.5649845,36.6306429 37.3727927,35.3829762 37.4010881,33.9593333 C37.411114,33.4610357 37.2464663,33.255881 36.8169119,33.058869 C34.008544,31.7695833 31.7847979,29.7022024 29.7288187,27.4339643 C28.4323575,26.0037619 27.2744767,24.4643095 26.4487876,22.6932381 C26.4407668,22.6762738 26.425171,22.6620238 26.4211606,22.6446071 C26.2480466,21.889131 25.948829,21.52225 25.0358031,21.7289881 C24.1544145,21.9284881 23.5876166,21.2245833 23.5940777,20.2415595" id="Fill-1"></path>
                        <path d="M20.1297927,19.684 C19.5237824,19.7210952 19.0530104,19.4304405 18.6501917,19.0212619 C16.7753472,17.1167381 14.903399,15.2092738 13.0416995,13.291631 C12.2525492,12.4787024 12.2135596,11.3217381 12.9920155,10.50225 C14.3827202,9.03834524 15.7990466,7.59864286 17.2347565,6.18020238 C17.9679845,5.45594048 19.182456,5.48919048 19.9098912,6.22272619 C21.844,8.17339286 23.7698653,10.1326548 25.6830311,12.1048095 C26.4574767,12.9028095 26.4931244,14.0342143 25.7271451,14.8460119 C24.355601,16.2992857 22.9570984,17.728131 21.5225026,19.1167143 C21.1751606,19.4528333 20.643342,19.5928452 20.1964093,19.8231071 C20.1741295,19.7767381 20.1520725,19.730369 20.1297927,19.684" id="Fill-2"></path>
                        <path d="M11.1922539,37.9045476 C8.09402591,37.905 4.99579793,37.9068095 1.89779275,37.903869 C0.966720207,37.9029643 0.38811399,37.4257024 0.204974093,36.5268214 C0.0109170984,35.5732024 0.400590674,34.7134524 1.20756477,34.3762024 C1.40429534,34.293869 1.63711917,34.2710238 1.85323316,34.2707976 C8.04946632,34.2646905 14.2459223,34.2852738 20.4421554,34.248631 C21.8584819,34.2404881 22.3811658,35.3764167 22.2243161,36.4546667 C22.0864041,37.4021786 21.4908653,37.9020595 20.5424145,37.9029643 C17.4256943,37.906131 14.3089741,37.9040952 11.1922539,37.9045476" id="Fill-3"></path>
                        <path d="M22.5333368,0.105178571 C22.8688705,0.320059524 23.1805648,0.449214286 23.4009119,0.671785714 C25.9898238,3.28541667 28.568487,5.90967857 31.1413575,8.53959524 C31.775886,9.18830952 31.7707617,9.6307381 31.156285,10.2792262 C30.5912694,10.8756905 30.0242487,11.4710238 29.4360622,12.0437381 C28.870601,12.5942857 28.3918083,12.5893095 27.8388238,12.0290357 C25.2280777,9.3837381 22.621342,6.73414286 20.0212902,4.0779881 C19.4261969,3.4697619 19.4442435,2.98435714 20.0364404,2.37409524 C20.5829637,1.81088095 21.1212435,1.23861905 21.6873731,0.696440476 C21.9155181,0.477940476 22.2080518,0.328428571 22.5333368,0.105178571" id="Fill-4"></path>
                        <path d="M19.1933731,22.1508333 C19.0135751,22.4539286 18.9032902,22.7359881 18.7132435,22.9418214 C18.1553575,23.5459762 17.5718497,24.1261548 16.987228,24.7040714 C16.408399,25.2763333 15.9004197,25.2824405 15.2912902,24.6898214 C14.5014715,23.9212262 13.7377202,23.1252619 12.9646114,22.33925 C11.1960415,20.540131 9.42992228,18.7389762 7.66046114,16.9407619 C6.91163731,16.1800833 6.9118601,15.7007857 7.66759067,14.9382976 C8.19383938,14.4072024 8.71362694,13.8697738 9.24054404,13.3395833 C9.77369948,12.8032857 10.3235648,12.7756905 10.8495907,13.3088214 C13.4734819,15.9697262 16.0904663,18.637869 18.6969793,21.3164167 C18.9030674,21.528131 19.0111244,21.8377857 19.1933731,22.1508333" id="Fill-5"></path>
                        <path d="M11.2421606,32.9643214 C8.81210363,32.9645476 6.38204663,32.9674881 3.95198964,32.9631905 C2.76759585,32.9611548 2.20280311,32.3931905 2.19010363,31.2117976 C2.17874093,30.1722262 2.74687565,29.5425119 3.77196891,29.4990833 C4.38310363,29.4730714 4.99602073,29.4925238 5.60826943,29.4925238 C9.85613472,29.4922976 14.1042228,29.4913929 18.3523109,29.4932024 C19.7320984,29.493881 20.3706373,30.2226667 20.2028705,31.5945119 C20.0970415,32.4585595 19.520886,32.959119 18.5882539,32.9616071 C16.1394819,32.968619 13.6909326,32.9640952 11.2421606,32.9643214" id="Fill-6"></path>
                    </g>
                </g>
            </g>
        </g>
    </g>
</svg>