<?xml version="1.0" encoding="UTF-8" standalone="no"?>
<svg width="209px" height="85px" viewBox="0 0 209 85" version="1.1" xmlns="http://www.w3.org/2000/svg" xmlns:xlink="http://www.w3.org/1999/xlink" xmlns:sketch="http://www.bohemiancoding.com/sketch/ns">
    <!-- Generator: Sketch 3.3.3 (12072) - http://www.bohemiancoding.com/sketch -->
    <title>Imported Layers</title>
    <desc>Created with Sketch.</desc>
    <defs></defs>
    <g id="Page-1" stroke="none" stroke-width="1" fill="none" fill-rule="evenodd" sketch:type="MSPage">
        <g id="About---Desktop" sketch:type="MSArtboardGroup" transform="translate(-225.000000, -785.000000)">
            <g id="Imported-Layers-+-Imported-Layers-+-Imported-Layers" sketch:type="MSLayerGroup" transform="translate(225.000000, 771.000000)">
                <g id="Imported-Layers" transform="translate(0.000000, 14.647959)" sketch:type="MSShapeGroup">
                    <path d="M0.0430284649,75.97492 C27.4858223,75.977255 54.9283235,75.9807575 82.3711174,75.9816331 C123.961788,75.9825087 165.552458,75.9816331 207.143128,75.9810494 C207.496137,75.9810494 207.849146,75.9769631 208.201863,75.97492 C208.201863,78.5559757 208.190447,81.1370314 208.213278,83.7180871 C208.217083,84.1503548 208.125465,84.3389064 207.675276,84.2516356 C207.59039,84.2349987 207.499357,84.2493006 207.410958,84.2493006 C138.55195,84.2493006 69.6929412,84.2481331 0.83393263,84.2662294 C0.164210672,84.2665213 0.014050111,84.1074491 0.0254658262,83.4536478 C0.0687870018,80.9613223 0.0430284649,78.4678292 0.0430284649,75.97492" id="Fill-1" fill="#223664"></path>
                    <path d="M208.201863,18.5819665 C206.567074,18.7947438 205.383644,19.7535551 204.515757,21.0401426 C202.272716,24.365481 200.107242,27.7427733 197.91162,31.0996343 C197.678037,31.4565981 197.621251,31.853257 197.622422,32.2735578 C197.629447,34.9710719 197.611299,37.6688778 197.632959,40.3663919 C197.6514,42.6561557 198.301218,43.4798286 200.514403,44.1490993 C200.839019,44.2471695 201.18149,44.2868646 201.130266,44.8122406 C201.075822,45.3688473 200.702616,45.200727 200.42659,45.2018945 C197.66223,45.2129858 194.898164,45.2132776 192.134097,45.2010189 C191.862754,45.1998514 191.483987,45.3811061 191.428372,44.8186619 C191.377147,44.2988315 191.701178,44.2232357 192.034868,44.1534774 C193.649753,43.8169449 194.468172,42.8210654 194.485442,41.1947347 C194.515298,38.3515748 194.525543,35.5081229 194.522616,32.664963 C194.52203,32.0674937 194.245126,31.5444526 193.926657,31.0400916 C192.036039,28.0451564 190.136347,25.0554749 188.282318,22.0380652 C187.264563,20.3813794 186.033422,19.0299955 184.029525,18.6374229 C183.610363,18.555114 183.633194,18.3186948 183.62295,18.015436 C183.610363,17.6327872 183.830189,17.5965946 184.128754,17.5968865 C187.098596,17.6009727 190.068731,17.5989296 193.038573,17.5995133 C193.302305,17.5995133 193.585649,17.5609858 193.592674,17.9675684 C193.598528,18.3046847 193.604968,18.5396446 193.143071,18.6400498 C190.583609,19.1949052 190.708596,20.1729803 191.849582,22.0333952 C193.515984,24.7510487 195.229512,27.4395146 196.979044,30.2295532 C198.786532,27.2737292 200.591386,24.4159755 202.293498,21.4986791 C203.102843,20.1116864 202.715587,19.3735331 201.15661,18.8849334 C200.793941,18.7713938 200.424833,18.6496817 200.050456,18.6096947 C199.62105,18.5638702 199.738427,18.2760809 199.717937,18.0352836 C199.69452,17.7585855 199.77765,17.5901733 200.101388,17.598054 C202.801351,17.661391 205.504241,17.4731312 208.201863,17.7016698 L208.201863,18.5819665" id="Fill-2" fill="#223664"></path>
                    <path d="M95.5594883,0.272611786 C95.7269187,0.482762199 95.790437,0.711008898 95.788388,0.989166319 C95.7746306,2.77632046 95.786339,4.56376647 95.775216,6.35121248 C95.7737524,6.6019336 95.9312308,6.96561057 95.422207,6.97786934 C94.8405909,6.99187937 95.0413904,6.57128667 95.0384633,6.30597177 C95.0223642,4.85447454 95.0308528,3.40297731 95.0308528,1.69608896 C94.1509646,2.97333647 93.4145046,4.04218482 92.6200879,5.19538521 C91.8534788,4.08567428 91.1167261,3.01886906 90.3796807,1.95177196 C90.3226021,1.9561501 90.2655235,1.96052823 90.2081522,1.96490636 C90.2081522,3.43099737 90.1876625,4.89738025 90.2192752,6.36288751 C90.2303982,6.88009102 90.0544791,7.05784325 89.563018,6.96006493 C89.5542366,4.78588378 89.5454553,2.61170263 89.536674,0.437521485 L89.5448699,0.432267725 C89.7831364,0.43985649 90.0211101,0.44773713 90.2590839,0.455325895 C91.0394505,1.60969379 91.819817,2.76376981 92.651408,3.99402535 C93.4724613,2.70948095 94.2510717,1.49090043 95.0299747,0.272611786 L95.5594883,0.272611786" id="Fill-3" fill="#223664"></path>
                    <path d="M68.7231908,0.272611786 C68.8900359,0.475173434 69.0981532,0.6106037 69.092299,0.956476255 C69.0612716,2.77310983 69.0835176,4.59061902 69.0694675,6.40783635 C69.068004,6.60047422 69.2336782,6.9054842 68.8502272,6.96823745 C68.5540041,7.01668879 68.3695964,6.8780479 68.1907502,6.64804994 C67.1112333,5.25930596 66.0176663,3.88136138 64.9270265,2.50137367 C64.7514001,2.27925636 64.5666997,2.06443593 64.1929082,1.88172182 L64.1929082,4.70532612 C64.1929082,5.26222472 64.2011041,5.81941519 64.1896883,6.37602191 C64.1841268,6.64133681 64.3091143,6.99421437 63.8044811,6.97553434 C63.2954573,6.95656242 63.4605461,6.58821545 63.4582044,6.33807808 C63.4388855,4.31625598 63.4350803,2.29443389 63.426299,0.272611786 L63.9561053,0.272611786 C64.1744674,0.490934715 64.415661,0.691453234 64.6073864,0.93108308 C65.6146038,2.18994243 66.6048439,3.46281181 67.6129394,4.72108741 C67.8154951,4.97385165 67.9448732,5.31855671 68.35379,5.46712137 C68.35379,4.01708352 68.3534973,2.64293332 68.35379,1.26849124 C68.35379,0.924369942 68.2975896,0.568865493 68.5463936,0.272611786 L68.7231908,0.272611786" id="Fill-4" fill="#223664"></path>
                    <path d="M56.717371,0.272611786 C57.8124015,0.849649795 58.7730778,1.51687736 59.0631541,2.85483499 C59.4442634,4.61367719 58.5233957,6.40141508 56.8836306,6.93525551 C55.1935194,7.48544096 53.3860311,6.70584131 52.6993319,5.13058884 C51.9570178,3.42895424 52.6404971,1.46667476 54.2574307,0.617316839 C54.4374478,0.522749153 54.7146447,0.551644834 54.7752358,0.272611786 L56.717371,0.272611786 L56.717371,0.272611786 Z M58.3618194,3.69602039 C58.361234,2.13798858 57.2477627,0.973113163 55.763427,0.977783172 C54.2782132,0.982453181 53.1732305,2.160463 53.1910858,3.71995419 C53.2083558,5.2015146 54.3393897,6.38974006 55.7572801,6.41630074 C57.2143937,6.44344517 58.3624048,5.24442031 58.3618194,3.69602039 L58.3618194,3.69602039 Z" id="Fill-5" fill="#223664"></path>
                    <path d="M124.867727,0.272611786 C125.240055,0.460579655 125.218102,0.79857157 125.216931,1.14210912 C125.211077,2.84257621 125.224541,4.54304331 125.202295,6.24292665 C125.199076,6.48255649 125.432951,6.85674098 124.970176,6.96502682 C124.620387,7.04675198 124.444175,6.81383527 124.257425,6.57537293 C123.118781,5.12095694 121.974868,3.67062722 120.826564,2.2238 C120.708016,2.07465158 120.642449,1.84961551 120.30993,1.83414611 C120.30993,3.32241966 120.320174,4.80252069 120.300563,6.28232985 C120.297343,6.54355849 120.516291,6.99012812 119.930284,6.97028058 C119.356278,6.95101679 119.591325,6.51057655 119.588398,6.25285042 C119.56703,4.25963212 119.57347,2.26583008 119.571128,0.272611786 L119.924137,0.272611786 C120.30671,0.46291466 120.59942,0.740196455 120.862567,1.08373401 C121.858369,2.38403969 122.877587,3.66624908 123.902075,4.9446641 C124.046381,5.12475132 124.115461,5.44347945 124.481642,5.38919059 C124.481642,3.97505344 124.480764,2.57288318 124.482227,1.17071293 C124.48252,0.856071058 124.428954,0.527127286 124.691223,0.272611786 L124.867727,0.272611786" id="Fill-6" fill="#223664"></path>
                    <path d="M158.58975,0.272611786 C159.570623,2.47889925 160.551204,4.68547859 161.532077,6.89205792 C160.940216,7.14307092 160.642822,6.88417728 160.502028,6.34449935 C160.271958,5.46040823 159.747713,5.04039928 158.798452,5.21756776 C158.514816,5.27068911 158.206884,5.2636841 157.92032,5.21873526 C156.865684,5.05324181 156.136249,5.32672922 155.844709,6.47146522 C155.711526,6.99363062 155.619322,6.97028058 154.907157,6.88826354 C155.901202,4.67905732 156.892321,2.47568862 157.883732,0.272611786 L158.58975,0.272611786 L158.58975,0.272611786 Z M158.211275,1.2331743 C157.743231,2.28129948 157.365634,3.17618999 156.943545,4.04977359 C156.745673,4.45927502 156.861586,4.56084772 157.267868,4.5550102 C158.041503,4.54421081 158.815722,4.55209145 159.700294,4.55209145 C159.188343,3.41056608 158.733178,2.39600658 158.211275,1.2331743 L158.211275,1.2331743 Z" id="Fill-7" fill="#223664"></path>
                    <path d="M76.8447404,0.272611786 C77.8250284,2.47889925 78.8053163,4.68518671 79.7856043,6.89176605 C79.1919871,7.14482217 78.8969347,6.88067478 78.7570191,6.34333184 C78.5266558,5.4583651 78.0018256,5.04098303 77.0534431,5.21815151 C76.7698065,5.27098099 76.4618749,5.26397597 76.1753112,5.21902713 C75.1206747,5.05324181 74.3640177,5.3173892 74.1128719,6.47467585 C74.0033982,6.98049622 73.6457058,7.09024144 73.1598061,6.88884729 C74.1547296,4.67876545 75.146726,2.47568862 76.1384296,0.272611786 L76.8447404,0.272611786 L76.8447404,0.272611786 Z M76.4747542,1.23901181 C76.2742474,1.66223139 76.1460401,1.92229253 76.0269069,2.18643992 C74.8627966,4.76837125 74.863382,4.76866312 77.7562414,4.51940138 C77.782878,4.51706638 77.8080511,4.49809447 77.9052311,4.45664814 C77.452115,3.43712676 76.9992916,2.418481 76.4747542,1.23901181 L76.4747542,1.23901181 Z" id="Fill-8" fill="#223664"></path>
                    <path d="M112.508898,0.272611786 C113.507041,2.46955923 114.505185,4.6662148 115.506841,6.87075101 C114.898588,7.15678907 114.583631,6.8780479 114.464791,6.35471499 C114.241453,5.36934305 113.635834,5.05119868 112.683354,5.22019464 C112.455918,5.26047347 112.21209,5.25142532 111.981141,5.22194589 C110.896355,5.08330499 110.026419,5.26076534 109.789616,6.54063973 C109.693607,7.058427 109.304302,7.02223443 108.882799,6.91102984 C109.862501,4.68314358 110.832544,2.47802362 111.802587,0.272611786 L112.508898,0.272611786 L112.508898,0.272611786 Z M110.688238,4.55238332 C111.579249,4.55238332 112.358152,4.54304331 113.136763,4.55588583 C113.585488,4.5634746 113.611832,4.40527803 113.435913,4.03517981 C113.020849,3.16305559 112.643838,2.27283509 112.18077,1.23142305 C111.653598,2.40447098 111.196676,3.4210736 110.688238,4.55238332 L110.688238,4.55238332 Z" id="Fill-9" fill="#223664"></path>
                    <path d="M15.4033123,0.272611786 C15.5727918,0.472546554 15.7937883,0.59542617 15.7873487,0.948595615 C15.7557359,2.76581294 15.7735913,4.58390589 15.7721277,6.40170696 C15.771835,6.68395064 15.8526232,7.0070569 15.3643818,6.97757747 C14.9127293,6.95014116 15.0845504,6.62966178 15.0470835,6.40316634 C15.0377167,6.3462506 15.0503033,6.28583236 15.0450345,6.22774912 C14.9800527,5.50798395 15.3763829,4.52669827 14.8799457,4.13733626 C14.4189264,3.7759943 13.4784471,4.00920288 12.7487195,4.00482475 C11.208476,3.99548473 11.208476,4.00190599 11.208476,5.50769208 C11.208476,5.68369305 11.2541389,5.8754553 11.1991093,6.03219248 C11.0875866,6.35062873 11.5638268,6.97290746 10.8098041,6.95539492 C10.1503271,6.94021739 10.4831391,6.37193565 10.478163,6.0774332 C10.4442086,4.14288189 10.4600149,2.20745496 10.4597222,0.272611786 L10.9895285,0.272611786 C11.3747357,0.727062054 11.1932551,1.26995062 11.2005729,1.77256036 C11.2225262,3.30461525 11.2081833,3.30461525 12.6928117,3.30461525 C13.1889563,3.30461525 13.6924186,3.25061826 14.1794891,3.3171659 C14.9504889,3.4222411 15.0874775,3.09329733 15.0678659,2.40009284 C15.0476689,1.69521333 14.8615049,0.95618438 15.2268078,0.272611786 L15.4033123,0.272611786" id="Fill-10" fill="#223664"></path>
                    <path d="M150.4682,0.272611786 C150.63446,0.475173434 150.843748,0.609436198 150.837601,0.955308753 C150.806574,2.76960732 150.824429,4.58478151 150.821795,6.39966383 C150.821502,6.6772375 150.911949,7.00267877 150.420196,6.97845309 C149.979081,6.9568543 150.106117,6.65359558 150.084456,6.41717636 C150.073919,6.30100989 150.0827,6.18309215 150.082408,6.06605005 C150.078895,4.00219787 150.078895,4.00219787 147.965817,4.00190599 C146.240873,4.00190599 146.241166,4.00190599 146.24058,5.74148441 C146.240288,6.06342317 146.237653,6.38536193 146.235897,6.70730068 C146.234433,6.95130866 146.072272,6.97319933 145.881424,6.97232371 C145.694382,6.97144808 145.514951,6.96239994 145.521976,6.71401382 C145.581396,4.62009846 145.366839,2.52122121 145.632035,0.431100222 C145.638767,0.376227615 145.677405,0.325149389 145.701407,0.272611786 L145.877912,0.272611786 C146.117642,0.472546554 146.290927,0.670438193 146.254923,1.04141205 C146.201064,1.59364063 146.268095,2.15637674 146.23297,2.71152408 C146.203991,3.16714185 146.348005,3.33205155 146.82044,3.31424714 C147.701499,3.28097332 148.586071,3.27659519 149.466544,3.31541464 C149.997229,3.33876469 150.106995,3.12073363 150.092067,2.64643583 C150.067479,1.85603677 150.104361,1.06388647 150.115191,0.272611786 L150.4682,0.272611786" id="Fill-11" fill="#223664"></path>
                    <path d="M124.691223,0.272611786 C124.428954,0.527127286 124.48252,0.856071058 124.482227,1.17071293 C124.480764,2.57288318 124.481642,3.97505344 124.481642,5.38919059 C124.115461,5.44347945 124.046381,5.12475132 123.902075,4.9446641 C122.877587,3.66624908 121.858369,2.38403969 120.862567,1.08373401 C120.59942,0.740196455 120.30671,0.46291466 119.924137,0.272611786 L124.691223,0.272611786" id="Fill-12" fill="#FDFDFE"></path>
                    <path d="M150.115191,0.272611786 C150.104361,1.06388647 150.067479,1.85603677 150.092067,2.64643583 C150.106995,3.12073363 149.997229,3.33876469 149.466544,3.31541464 C148.586071,3.27659519 147.701499,3.28097332 146.82044,3.31424714 C146.348005,3.33205155 146.203991,3.16714185 146.23297,2.71152408 C146.268095,2.15637674 146.201064,1.59364063 146.254923,1.04141205 C146.290927,0.670438193 146.117642,0.472546554 145.877912,0.272611786 L150.115191,0.272611786" id="Fill-13" fill="#FDFDFE"></path>
                    <path d="M15.2268078,0.272611786 C14.8615049,0.95618438 15.0476689,1.69521333 15.0678659,2.40009284 C15.0874775,3.09329733 14.9504889,3.4222411 14.1794891,3.3171659 C13.6924186,3.25061826 13.1889563,3.30461525 12.6928117,3.30461525 C11.2081833,3.30461525 11.2225262,3.30461525 11.2005729,1.77256036 C11.1932551,1.26995062 11.3747357,0.727062054 10.9895285,0.272611786 L15.2268078,0.272611786" id="Fill-14" fill="#FDFDFE"></path>
                    <path d="M68.5463936,0.272611786 C68.2975896,0.568865493 68.35379,0.924369942 68.35379,1.26849124 C68.3534973,2.64293332 68.35379,4.01708352 68.35379,5.46712137 C67.9448732,5.31855671 67.8154951,4.97385165 67.6129394,4.72108741 C66.6048439,3.46281181 65.6146038,2.18994243 64.6073864,0.93108308 C64.415661,0.691453234 64.1744674,0.490934715 63.9561053,0.272611786 L68.5463936,0.272611786" id="Fill-15" fill="#FDFDFE"></path>
                    <path d="M95.0299747,0.272611786 C94.2510717,1.49090043 93.4724613,2.70948095 92.651408,3.99402535 C91.819817,2.76376981 91.0394505,1.60969379 90.2590839,0.455325895 C90.2602547,0.3943239 90.2617183,0.333321905 90.2628891,0.272611786 L95.0299747,0.272611786" id="Fill-16" fill="#FDFDFE"></path>
                    <path d="M189.840124,0.272611786 C190.034776,0.494145346 189.922961,0.680070087 189.783045,0.876502348 C189.392862,1.42376905 189.048927,2.00839582 188.618935,2.52238871 C187.682554,3.64173153 187.113524,4.85505829 187.355888,6.35850937 C187.393941,6.59434484 187.520685,6.97203183 187.005514,6.97728559 C186.495905,6.98224748 186.600695,6.615068 186.639918,6.36989252 C186.876136,4.89738025 186.309155,3.71703543 185.403216,2.61141076 C184.873117,1.96403074 184.446052,1.23259055 183.955469,0.513992885 C184.506936,0.296253707 184.827747,0.415338941 185.111091,0.868037956 C185.684218,1.78306788 186.313253,2.66365649 186.990586,3.6636222 C187.714166,2.49174177 188.652011,1.53468177 189.134106,0.272611786 L189.840124,0.272611786" id="Fill-17" fill="#223664"></path>
                    <path d="M199.728475,6.96356744 C199.460059,6.87396164 199.523285,6.64133681 199.523577,6.45249331 C199.528553,4.39243551 199.540554,2.33266959 199.550799,0.272611786 L202.905263,0.272611786 C202.906727,0.321646882 202.910825,0.370681979 202.917557,0.419425199 C202.011032,0.428181467 201.104215,0.448612757 200.197397,0.440440241 C199.839412,0.437229609 199.660859,0.530046042 199.666713,0.927872449 C199.697155,2.9394789 199.709741,4.95166911 199.728475,6.96356744" id="Fill-18" fill="#A0B1C5"></path>
                    <path d="M6.39894743,0.272611786 C6.56432894,1.01164074 6.24000555,1.25594059 5.52579157,1.18501483 C5.07033381,1.13977412 4.60668014,1.17333981 4.14683172,1.17188043 C4.62219381,0.835347892 5.16019597,1.09628466 5.66190202,1.01339199 C5.89343614,0.975156292 6.26225156,1.1304341 6.24820144,0.701960755 C6.23649302,0.342370048 5.90924252,0.451239637 5.70288151,0.451531513 C4.17844447,0.454450268 2.65371471,0.472254678 1.12927767,0.485097204 C1.12020364,0.414171439 1.11142232,0.34353755 1.10234829,0.272611786 L6.39894743,0.272611786" id="Fill-19" fill="#A0B1C5"></path>
                    <path id="Fill-20" fill="#A0B1C5" d="M43.6633543,0.464082162 C43.6595491,0.400161412 43.6560365,0.336240661 43.6522313,0.272611786 L48.4193169,0.272611786 C48.4137554,0.337408163 48.4084866,0.402204541 48.4029251,0.466709042 C46.8231657,0.465833416 45.2434064,0.464957789 43.6633543,0.464082162"></path>
                    <path id="Fill-21" fill="#A0B1C5" d="M25.113988,0.272611786 C25.1145734,0.331570652 25.1154515,0.390821393 25.1163297,0.449780259 C23.5377412,0.464374038 21.9594454,0.478675941 20.3811496,0.492977844 C20.3697338,0.419425199 20.3583181,0.345872555 20.3469024,0.272611786 L25.113988,0.272611786"></path>
                    <path d="M208.201863,6.96239994 C207.914713,6.85936786 207.444913,7.24084923 207.334268,6.70671693 C207.17357,5.93120353 207.62815,5.8993891 208.201863,6.08210321 L208.201863,6.96239994" id="Fill-22" fill="#223664"></path>
                    <path id="Fill-23" fill="#A0B1C5" d="M178.540615,0.272611786 C178.540322,0.321938758 178.544127,0.370973854 178.55203,0.420008951 C177.435925,0.436937734 176.319819,0.453866517 175.203713,0.471087176 C175.197859,0.404831421 175.192005,0.338575666 175.186151,0.272611786 L178.540615,0.272611786"></path>
                    <path id="Fill-24" fill="#A0B1C5" d="M165.664273,0.464082162 C165.660175,0.400161412 165.656077,0.336532537 165.651979,0.272611786 L169.006736,0.272611786 C168.999418,0.323398136 169.002638,0.37389261 169.016396,0.423511458 C167.899119,0.436937734 166.78155,0.450655886 165.664273,0.464082162"></path>
                    <path id="Fill-25" fill="#A0B1C5" d="M129.82566,0.466125291 C129.820977,0.401620789 129.816001,0.337116288 129.811317,0.272611786 L132.636268,0.272611786 C132.633633,0.322522509 132.637146,0.372141357 132.647098,0.421176453 C131.706619,0.436062107 130.766139,0.450947761 129.82566,0.466125291"></path>
                    <path id="Fill-26" fill="#A0B1C5" d="M90.2628891,0.272611786 C90.2617183,0.333321905 90.2602547,0.3943239 90.2590839,0.455325895 C90.0211101,0.44773713 89.7831364,0.43985649 89.5448699,0.432267725 C89.5381376,0.378270744 89.5419428,0.324857514 89.5565783,0.272611786 L90.2628891,0.272611786"></path>
                    <path id="Fill-27" fill="#A0B1C5" d="M35.0280976,0.485097204 C35.0190235,0.414463315 35.0099495,0.34353755 35.0008755,0.272611786 L35.7071863,0.272611786 C35.7206509,0.327192518 35.7232853,0.382357002 35.7159676,0.438105236 C35.4867751,0.453866517 35.25729,0.469627798 35.0280976,0.485097204"></path>
                    <path d="M104.862711,23.9588983 C104.120397,25.4705219 103.376326,26.9815618 102.635768,28.494061 C100.193976,33.4822146 97.7568671,38.4724113 95.3062935,43.4558948 C95.1169098,43.8411706 95.0607093,44.3283109 94.3833769,44.3358997 C93.6565763,44.344364 93.6208656,43.8105236 93.4262131,43.4021897 C90.6337535,37.5465819 87.8530024,31.6857204 85.0687387,25.8260264 C84.9583868,25.5939853 84.8424734,25.364863 84.713388,25.1024668 C84.4613641,25.2644578 84.5131739,25.4824888 84.5061488,25.6596573 C84.3082765,30.7286604 84.0989883,35.7976635 83.9318506,40.8678341 C83.8639417,42.9238056 84.4601933,43.8362087 86.2913911,44.1765356 C86.6909411,44.250672 86.7948534,44.4628655 86.772022,44.8501844 C86.7424582,45.353086 86.3862293,45.2018945 86.1324492,45.203062 C84.0439587,45.2132776 81.9554683,45.212402 79.8669778,45.2039376 C79.6348583,45.2027701 79.3067296,45.3309035 79.2748242,44.8971764 C79.2490657,44.5518876 79.2619449,44.2573851 79.7007182,44.1832487 C81.6978829,43.8458406 82.2080776,42.7574366 82.3122826,40.5175834 C82.5376698,35.6844158 82.7510558,30.8506644 82.9729305,26.0174968 C83.036156,24.6383847 83.0358633,23.2674451 82.7094909,21.9102237 C82.344188,20.3904276 81.5664558,19.2226334 80.0267978,18.6972574 C79.6386635,18.5647459 79.5666567,18.3329967 79.5859756,17.9748653 C79.6117341,17.501735 79.9498149,17.6018484 80.2252557,17.6006808 C81.4019524,17.5954271 82.5798201,17.6327872 83.7544679,17.5855033 C84.320863,17.562737 84.5728869,17.7863137 84.7994449,18.2714109 C88.1404442,25.41886 91.500177,32.5578446 94.8558119,39.6982887 C94.9301604,39.8564852 95.0115339,40.0111793 95.0958346,40.1798834 C95.3885452,39.9799486 95.4561614,39.6580098 95.5925646,39.3842305 C99.0705524,32.3976049 102.551175,25.411855 106.00838,18.4150137 C106.301969,17.820755 106.617511,17.5265445 107.331432,17.5796658 C108.355334,17.6561372 109.389188,17.5998052 110.418651,17.5992215 C110.689702,17.5992215 110.97246,17.5770389 110.952263,17.982746 C110.938506,18.2606115 111.00056,18.484772 110.587838,18.6377148 C108.235323,19.509839 107.850994,20.0106975 107.930611,22.507693 C108.129069,28.7503278 108.384312,34.9915032 108.634873,41.2326786 C108.694,42.7016883 109.366357,43.5285718 110.780149,44.0116259 C110.973924,44.0778816 111.170332,44.1467643 111.371132,44.1782868 C111.787074,44.2430832 111.85147,44.49468 111.833322,44.8644863 C111.811954,45.2985053 111.513975,45.2051051 111.271025,45.2056889 C108.50608,45.2097751 105.740843,45.2097751 102.975898,45.205397 C102.732363,45.2051051 102.436432,45.2964622 102.414186,44.8630269 C102.39516,44.4905937 102.469216,44.2632226 102.878133,44.1788706 C105.150153,43.7095347 105.710986,42.3920083 105.639857,40.3553006 C105.450181,34.9100699 105.245869,29.465131 105.047411,24.0201922 C104.985942,23.9997609 104.92418,23.9793296 104.862711,23.9588983" id="Fill-28" fill="#223664"></path>
                    <path d="M14.5087886,31.6147946 C12.1548096,31.6147946 9.80083055,31.6145028 7.44655883,31.6150865 C7.13072404,31.6153784 6.79996101,31.5368639 6.80640065,32.0639912 C6.84181863,35.0554239 6.78737445,38.0500673 6.90006805,41.0382894 C6.96826963,42.8520042 7.73253713,43.610297 9.50636364,44.1085286 C9.64715746,44.1479318 9.7856096,44.2112688 9.92903781,44.2258626 C10.383032,44.2713952 10.2709238,44.6047171 10.2843885,44.8805395 C10.3025366,45.2518052 10.037048,45.2074401 9.80639205,45.2074401 C6.92260677,45.2086076 4.0391142,45.2091914 1.15532892,45.2068564 C0.927307326,45.2065645 0.654793715,45.2518052 0.650110344,44.888712 C0.646305106,44.6009227 0.580445211,44.3017502 1.00926631,44.21769 C1.35203047,44.1505587 1.6909894,44.0358516 2.01297111,43.8989619 C2.88524884,43.5282799 3.41856763,42.8852781 3.58453457,41.9343474 C3.69108124,41.3237437 3.73615868,40.7143075 3.73586597,40.0966988 C3.73293887,34.316395 3.73528055,28.536383 3.73176802,22.7560791 C3.73147531,22.3168064 3.70835117,21.876658 3.67673842,21.4382609 C3.5690209,19.9345179 2.7661156,19.0095642 1.30197695,18.6645673 C0.906232159,18.5711671 0.557906491,18.4967389 0.645426974,17.9585203 C0.739972512,17.3791473 1.18635625,17.6114802 1.48228671,17.6094371 C4.04204131,17.5913408 6.60208861,17.5925083 9.16213592,17.6082696 C9.43289327,17.6100209 9.83859022,17.4074592 9.9176221,17.9430509 C9.99431229,18.4646325 9.68608798,18.5431471 9.27834205,18.6607729 C7.57359525,19.1519995 7.02154297,19.7909152 6.893043,21.5850743 C6.69985397,24.2793777 6.85821043,26.9812699 6.80962046,29.6793677 C6.79791204,30.3255802 7.25190625,30.1732212 7.60228089,30.1735131 C11.1625205,30.1796425 14.7230528,30.1773074 18.2835851,30.1770156 C19.3429049,30.1770156 20.4028101,30.1562924 21.4612518,30.1866475 C21.9339795,30.2000737 22.1315592,30.1037548 22.1254123,29.5716656 C22.0961412,26.9900262 22.1309738,24.4075111 22.0990683,21.8255798 C22.0765296,20.0147837 21.4618373,19.2547397 19.7131839,18.7188562 C19.3467101,18.6064841 19.0027751,18.5419796 19.0651225,17.9973398 C19.1350803,17.3858604 19.5685848,17.6103127 19.8601246,17.6085615 C22.4201719,17.5916327 24.9802192,17.5913408 27.5399738,17.6103127 C27.8019498,17.6123559 28.2158427,17.3800229 28.2998507,17.9267059 C28.3721502,18.3972093 28.176034,18.5615352 27.7355045,18.6917117 C25.8361051,19.2524047 25.2899071,19.9114598 25.2799549,21.9058456 C25.2480495,28.2141523 25.2457078,34.5224591 25.2761497,40.830474 C25.2863946,42.9556201 25.7479992,43.4950061 27.8054624,44.1636931 C28.1608131,44.2789839 28.3276582,44.4079929 28.3109737,44.8212887 C28.291362,45.3201041 27.9690876,45.2051051 27.7009647,45.205397 C24.9644128,45.2106507 22.227861,45.2109426 19.4913092,45.205397 C19.2243571,45.2048132 18.8930086,45.3230228 18.8625667,44.8317963 C18.8373936,44.4255055 18.9980918,44.2854052 19.3604675,44.1657362 C21.6196083,43.420286 22.103459,42.7536422 22.1096059,40.4163026 C22.1169237,37.7167454 22.0940923,35.0171882 22.127754,32.3182148 C22.1350717,31.7306693 21.9591526,31.5937796 21.3939284,31.6016602 C19.0990769,31.6328909 16.8039328,31.6145028 14.5087886,31.6147946" id="Fill-29" fill="#223664"></path>
                    <path d="M42.3801108,17.5992215 C45.1749121,17.5989296 47.9697133,17.6158584 50.7639292,17.5857952 C51.3806705,17.5790821 51.5738595,17.7539155 51.5562969,18.3747349 C51.5132684,19.8697216 51.5466374,21.3664595 51.5387342,22.8626137 C51.5375634,23.1308473 51.6487934,23.4799305 51.1672844,23.5000699 C50.8107629,23.5146637 50.5315169,23.4802224 50.4726821,23.0432847 C50.4457527,22.8442255 50.3550124,22.6524633 50.2862254,22.4598254 C49.4157039,20.0179944 48.1438762,19.1201851 45.5346535,19.1125963 C44.0345114,19.1085101 42.5340766,19.0974188 41.0339346,19.1169745 C39.952076,19.1312764 39.4453939,19.5976935 39.4357345,20.6726713 C39.4079269,23.7230629 39.4290021,26.7737464 39.4120249,29.8244299 C39.4096832,30.2391851 39.5250112,30.3807447 39.9547104,30.3757828 C41.9843661,30.3524328 44.0146071,30.3862904 46.0436773,30.3463034 C47.4489811,30.3188671 47.896243,29.8833887 48.264473,28.4491122 C48.3476028,28.1245465 48.2717907,27.6447031 48.8841414,27.6928626 C49.2084648,27.7185476 49.3545274,27.7842196 49.3527711,28.1414753 C49.34077,30.4586755 49.3436971,32.7758757 49.3507222,35.0933677 C49.3516003,35.3846596 49.2643725,35.5311811 48.9505867,35.5087067 C48.6950503,35.4906104 48.4415629,35.564163 48.3619456,35.1698391 C48.247203,34.5995143 48.0897247,34.0312325 47.8845345,33.4871765 C47.5648945,32.6401535 46.9194675,32.1544726 46.0067957,32.1407544 C43.9774328,32.1103994 41.9474845,32.1261607 39.9178289,32.1051456 C39.541403,32.1013512 39.4105613,32.2116802 39.4123176,32.6007503 C39.4269531,35.7687678 39.4076342,38.9370772 39.4333928,42.1048028 C39.4407105,42.9947314 39.9904211,43.6024163 40.9871009,43.7311335 C44.2806811,44.1561043 47.4931804,43.8181124 50.543518,42.4474647 C51.4916078,42.0216182 52.2631931,41.3287056 52.8070495,40.4195132 C52.9276463,40.2175353 53.0134105,39.9749867 53.3310015,40.1282214 C53.6163944,40.2659867 53.5519981,40.5035734 53.5133603,40.7353226 C53.1021018,43.1984605 50.9931216,45.1356387 48.4187315,45.538427 C46.9098081,45.7745544 45.4202036,45.5956346 43.9320627,45.4891 C40.6138948,45.2515133 37.2954342,45.1505244 33.9699486,45.1981001 C33.7170466,45.2018945 33.3052027,45.4412325 33.2267562,44.8773288 C33.1553348,44.3615847 33.4486309,44.2492126 33.8429122,44.1336299 C35.6624015,43.5997895 36.229382,42.983932 36.2554333,41.0756495 C36.3195369,36.3834578 36.3046087,31.6898067 36.3078285,26.9967393 C36.3089993,25.1789382 36.3122192,23.3593859 36.2428467,21.5430442 C36.1799139,19.9024116 35.5725394,19.2290547 33.9755101,18.7194399 C33.7302186,18.6412173 33.329205,18.7495031 33.2522221,18.3648111 C33.1515296,17.8627851 33.2475387,17.5738283 33.9081866,17.5828764 C36.7316735,17.6216959 39.5560385,17.5995133 42.3801108,17.5992215" id="Fill-30" fill="#223664"></path>
                    <path d="M171.481019,17.5989296 C174.274942,17.5989296 177.069451,17.6152746 179.863374,17.5857952 C180.467236,17.5796658 180.678573,17.7282305 180.658962,18.3613086 C180.612421,19.8557115 180.649888,21.3524495 180.637886,22.8480199 C180.635837,23.1045785 180.782485,23.4697149 180.289268,23.4980268 C179.893816,23.5205012 179.639158,23.4594992 179.541392,22.9863689 C179.442456,22.5068174 179.227021,22.0459458 179.025636,21.5932468 C178.289762,19.9386042 176.942707,19.1776846 175.187907,19.1283576 C173.483453,19.0807819 171.776364,19.0985863 170.070739,19.1184338 C169.109185,19.1295251 168.57089,19.5326053 168.552449,20.466899 C168.490102,23.6328733 168.516153,26.8005989 168.498005,29.9677408 C168.495663,30.3629403 168.729247,30.3699453 169.014054,30.3687778 C171.102252,30.3603134 173.191328,30.391836 175.278354,30.337839 C176.539645,30.3051489 176.986321,29.8515743 177.324987,28.5655705 C177.39758,28.2903319 177.436803,27.9681012 177.61038,27.7719608 C177.714878,27.6537512 178.05852,27.6925707 178.276882,27.7413139 C178.547932,27.8014403 178.463046,28.0708414 178.463632,28.2608524 C178.468315,30.4896143 178.464217,32.7186681 178.468608,34.9477218 C178.469193,35.2644068 178.469779,35.5297217 178.02281,35.5142523 C177.699657,35.5028692 177.538959,35.4669685 177.431241,35.0781902 C176.627165,32.179282 176.516813,32.1115669 173.508919,32.1118587 C172.03834,32.1118587 170.567469,32.1258688 169.097184,32.1033944 C168.647873,32.0966812 168.488053,32.219269 168.491273,32.6926911 C168.51147,35.7719784 168.489516,38.8518495 168.510006,41.9311368 C168.517031,42.9506582 169.040398,43.5971626 170.085375,43.7317172 C173.377492,44.1558124 176.589405,43.8172368 179.639158,42.4457134 C180.559147,42.0318339 181.312292,41.3663576 181.862588,40.4977359 C181.987868,40.300428 182.023286,39.9379185 182.41464,40.1153789 C182.758282,40.2712404 182.628026,40.5639916 182.583827,40.8050808 C182.124564,43.3105408 180.064466,45.1476056 177.443242,45.5448483 C175.961834,45.7693006 174.503549,45.5921321 173.045265,45.4888082 C169.72739,45.2538483 166.409515,45.1508163 163.084614,45.1978082 C162.820589,45.2013107 162.415771,45.414088 162.320347,44.8855014 C162.227265,44.3720922 162.531099,44.2214844 162.934161,44.1397593 C164.510993,43.8201555 165.301312,42.8449992 165.365123,41.2566124 C165.375661,40.9933406 165.421323,40.7306526 165.421323,40.4676727 C165.426007,34.4556196 165.431568,28.4432747 165.421031,22.4309297 C165.41986,21.7310121 165.368636,21.0249651 165.121002,20.3539431 C164.783214,19.4380376 164.039437,19.0259093 163.166281,18.7462925 C162.798929,18.6283747 162.215557,18.7147699 162.32064,18.0122254 C162.434211,17.255392 163.018462,17.6228634 163.363275,17.6184853 C166.068799,17.5834602 168.774909,17.5992215 171.481019,17.5989296" id="Fill-31" fill="#223664"></path>
                    <path d="M125.556768,17.2694021 C127.970753,17.3035515 129.940988,17.5472676 131.753452,18.508122 C132.052895,18.6669023 132.267452,18.6146566 132.556065,18.4558763 C133.331455,18.0297379 133.442978,18.1158412 133.540158,19.0203636 C133.718712,20.6811357 133.897265,22.3419077 134.101284,23.9994691 C134.145484,24.3578923 134.170657,24.6208721 133.73364,24.729158 C133.269986,24.8444488 133.200028,24.5540326 133.098165,24.2233376 C132.231156,21.4049871 130.478405,19.4937858 127.504757,18.8639183 C125.437049,18.4258131 123.411199,18.5329314 121.482236,19.4584689 C119.813785,20.2587917 118.970778,21.6273963 118.935653,23.4551211 C118.901113,25.2396484 119.967165,26.300908 121.462039,27.0361425 C123.261038,27.9211093 125.217809,28.3472476 127.111647,28.9555163 C128.45314,29.3863246 129.772094,29.8629575 130.99943,30.5646263 C136.120988,33.4938896 136.361011,40.8004108 131.259649,43.7801686 C126.805179,46.3822393 122.10688,46.3985843 117.473856,43.9745577 C117.127872,43.793303 116.974492,43.5571756 116.905998,43.1666461 C116.598359,41.4092633 116.247691,39.6591773 115.91605,37.9058808 C115.857801,37.597952 115.715836,37.2800995 116.260863,37.2147194 C116.675634,37.1651006 116.851261,37.1721056 116.975077,37.6633322 C117.758078,40.7688883 119.642549,42.9424857 122.759918,43.8154855 C125.629946,44.6196027 128.432943,44.3621685 130.87532,42.4766522 C132.473228,41.2431861 133.028793,39.5041914 132.780867,37.5462901 C132.626023,36.3224558 131.787699,35.5294298 130.752089,34.933128 C129.13457,34.0014612 127.330887,33.5738635 125.571111,33.0300993 C124.031453,32.5543421 122.491502,32.0847143 121.059269,31.3264216 C117.895945,29.6516395 116.44088,26.8881616 116.944635,23.5003618 C117.396288,20.4616452 119.713093,18.2039877 123.06463,17.5209988 C124.020622,17.3263178 124.986275,17.2796177 125.556768,17.2694021" id="Fill-32" fill="#223664"></path>
                    <path d="M145.407819,17.5992215 C146.87869,17.5989296 148.349853,17.5977621 149.820724,17.5998052 C150.111971,17.600389 150.417561,17.5504783 150.436295,18.010766 C150.452686,18.4085924 150.334431,18.6006466 149.914977,18.6339204 C149.627242,18.6566867 149.344777,18.7652644 149.06436,18.8493246 C147.311023,19.3755762 146.598273,20.2742611 146.593882,22.1157041 C146.577783,28.7161783 146.583344,35.3166525 146.589199,41.9168349 C146.590077,42.9582469 147.060463,43.5895738 148.130613,43.7267553 C151.452293,44.1528937 154.692893,43.828328 157.76372,42.4066021 C158.65678,41.9930144 159.371873,41.3377538 159.913387,40.5050327 C160.043058,40.3056817 160.089306,39.943756 160.473343,40.1226757 C160.858843,40.3024711 160.685558,40.6004761 160.616478,40.8792172 C159.848113,43.9739739 157.543016,45.6916617 154.014097,45.6505072 C151.95839,45.6265734 149.903269,45.4520318 147.850489,45.3060941 C145.616521,45.1476056 143.381675,45.2097751 141.146537,45.1972245 C140.887781,45.1957651 140.481206,45.4345193 140.396027,44.8828745 C140.31758,44.3738435 140.605315,44.2489207 141.003109,44.1312949 C142.822013,43.5933682 143.404214,42.9360644 143.413874,41.0715632 C143.447243,34.6476737 143.447828,28.2234924 143.415923,21.7996029 C143.406556,19.9205079 142.82172,19.2500697 141.033843,18.7077649 C140.671468,18.5980197 140.330752,18.5492765 140.387246,17.9996748 C140.451642,17.3756448 140.885732,17.6149828 141.17171,17.6100209 C142.583453,17.5863789 143.995782,17.5992215 145.407819,17.5992215" id="Fill-33" fill="#223664"></path>
                    <path d="M62.3915669,17.5986377 C63.8331668,17.5986377 65.274474,17.5960108 66.7157812,17.6006808 C67.0210784,17.6015565 67.3811125,17.4932706 67.3989679,18.0241923 C67.4127253,18.4287319 67.2862743,18.6012303 66.8747231,18.6423848 C66.559181,18.6741992 66.2512494,18.7985382 65.9447814,18.8960246 C64.2848193,19.4231519 63.6121702,20.2558729 63.6069015,21.9685988 C63.5864117,28.6271563 63.5893388,35.2857137 63.5934368,41.9442712 C63.5940222,42.9483232 64.0497727,43.5851957 65.0610879,43.7174153 C68.4735086,44.1634012 71.8007506,43.835333 74.9327545,42.3126182 C75.7865914,41.8975711 76.4665583,41.2300517 76.9583121,40.4025844 C77.0844704,40.1903909 77.1714055,39.979073 77.4872403,40.1296808 C77.7863906,40.2724079 77.6971138,40.4784721 77.6491093,40.7186857 C77.0350023,43.8061455 74.5633536,45.6872836 70.9934546,45.651091 C69.1142523,45.6321191 67.235928,45.4631231 65.3590674,45.3314872 C62.9497661,45.1621994 60.5384158,45.1916788 58.12648,45.1972245 C57.8671384,45.1978082 57.4582216,45.4213849 57.3979232,44.8542707 C57.3493333,44.3939829 57.5773549,44.2611795 57.9529026,44.1438455 C59.8833293,43.5414143 60.4195752,42.8540474 60.4242586,40.8500297 C60.4394796,34.6021411 60.440065,28.3542526 60.426893,22.106656 C60.4222096,19.9660405 59.9325047,19.2961861 57.8952386,18.677118 C57.4280724,18.5349746 57.3827023,18.3163598 57.4069973,17.9392565 C57.43861,17.4456949 57.8150359,17.6485484 58.0673525,17.5998052 C58.0957454,17.5942596 58.1261873,17.5989296 58.1554584,17.5989296 C59.5674945,17.5989296 60.9795307,17.5989296 62.3915669,17.5986377" id="Fill-34" fill="#223664"></path>
                    <path d="M100.062549,60.3406049 C100.984295,60.7358044 101.483952,61.2929949 101.334962,62.2211592 C101.202364,63.0465833 100.515372,63.6026063 99.4891287,63.6691539 C98.5249398,63.7313234 97.5551894,63.6998008 96.5886589,63.7357015 C96.1855963,63.7505872 96.0152387,63.6425932 96.0202148,63.2027367 C96.0404118,61.36071 96.0389483,59.5183914 96.0208002,57.6763646 C96.0167023,57.2665713 96.1235417,57.1057479 96.5590951,57.124136 C97.3201428,57.1565342 98.0838249,57.1235523 98.8460434,57.1358111 C99.70632,57.1495292 100.49781,57.3380808 100.864576,58.231512 C101.219049,59.0957555 100.81862,59.7440112 100.062549,60.3406049 L100.062549,60.3406049 Z M98.1529046,63.077814 C98.7011516,63.0795652 99.1659761,63.0897809 99.6287516,62.9704038 C100.205099,62.8218391 100.578598,62.4990247 100.583574,61.8887129 C100.588843,61.2640992 100.191927,60.9532517 99.6158724,60.8303721 C98.8050639,60.656998 97.9828397,60.729675 97.1647134,60.7177081 C96.9744515,60.7147894 96.7929709,60.7571113 96.797947,60.9862336 C96.8119971,61.6520018 96.5869026,62.3916145 96.9030301,62.9575613 C97.1003171,63.310147 97.7770641,63.0130176 98.1529046,63.077814 L98.1529046,63.077814 Z M98.1815902,57.8129624 C96.7815552,57.8240537 96.7815552,57.8240537 96.7885803,59.2507415 C96.7894584,59.4255749 96.788873,59.6007003 96.7918001,59.7755338 C96.7956053,59.9810142 96.8881019,60.1044775 97.1088057,60.0945538 C97.8929775,60.0592368 98.6891505,60.2104284 99.4589795,59.9521185 C100.006934,59.7682369 100.241688,59.3721617 100.204513,58.8117606 C100.16851,58.261867 99.8114031,57.9699915 99.3176002,57.8739644 C98.9490775,57.802163 98.5609432,57.8295993 98.1815902,57.8129624 L98.1815902,57.8129624 Z" id="Fill-35" fill="#223664"></path>
                    <path d="M199.728475,6.96356744 C199.709741,4.95166911 199.697155,2.9394789 199.666713,0.927872449 C199.660859,0.530046042 199.839412,0.437229609 200.197397,0.440440241 C201.104215,0.448612757 202.011032,0.428181467 202.917557,0.419425199 C203.647578,0.538218558 204.284516,0.804409081 204.502293,1.5892625 C204.729729,2.40855723 204.421797,3.05739664 203.714608,3.55212573 C204.170066,3.88573951 204.678212,4.0818799 204.863498,4.64023787 C205.252803,5.81241018 204.419456,6.88534478 202.978734,6.95335179 C201.897461,7.00472189 200.81209,6.96356744 199.728475,6.96356744 L199.728475,6.96356744 Z M201.828674,6.31472804 C202.268618,6.29342112 202.716172,6.31414429 203.147042,6.23942414 C203.702022,6.14339708 204.131721,5.86874216 204.170066,5.21902713 C204.208118,4.57602525 203.864769,4.26663714 203.285787,4.09793306 C202.589429,3.89537141 201.878434,4.05823798 201.184125,3.96921593 C200.483668,3.87931825 200.362193,4.1726532 200.378292,4.80222882 C200.416345,6.29896676 200.384732,6.29984238 201.828674,6.31472804 L201.828674,6.31472804 Z M201.668854,3.34314282 C202.069574,3.31307964 202.519178,3.3303003 202.943901,3.23514886 C203.473707,3.1163555 203.809739,2.77807171 203.80769,2.17797553 C203.805934,1.58021436 203.49127,1.26586436 202.939218,1.14094162 C202.213003,0.976907545 201.475957,1.07468586 200.743595,1.0562977 C200.58758,1.05250332 200.421906,1.10387342 200.419857,1.27578813 C200.41254,1.91557939 200.304237,2.5953576 200.488352,3.18086 C200.594606,3.51885192 201.235349,3.25149389 201.668854,3.34314282 L201.668854,3.34314282 Z" id="Fill-36" fill="#223664"></path>
                    <path d="M175.203713,0.471087176 C176.319819,0.453866517 177.435925,0.436937734 178.55203,0.420008951 C179.778781,0.690285732 180.374447,1.21186738 180.44499,2.17330552 C180.531925,3.36182286 179.818004,3.9826422 178.683165,4.31538036 C179.350252,5.21085462 179.969921,6.04240813 180.601883,6.89059855 C180.011486,7.09491145 179.654379,6.92708299 179.35435,6.46767084 C178.987291,5.90551848 178.541493,5.39502811 178.158627,4.84221577 C177.955486,4.54917269 177.72483,4.42891996 177.361576,4.41490993 C175.937539,4.35974545 175.938124,4.34602729 175.937539,5.77738511 C175.937246,6.01176119 175.930807,6.24613728 175.939002,6.47992961 C175.949247,6.7656758 175.939588,6.9842906 175.537696,6.98166372 C175.0878,6.97845309 175.189956,6.68190751 175.189956,6.44227766 C175.190541,4.45197813 175.198152,2.46138671 175.203713,0.471087176 L175.203713,0.471087176 Z M177.284008,3.76869741 C177.753516,3.76607053 178.220389,3.78504244 178.681116,3.63589402 C179.35757,3.41669547 179.71936,2.97946586 179.66638,2.26758133 C179.615448,1.57758748 179.174626,1.22850429 178.518076,1.14853038 C178.110623,1.09891154 177.697023,1.08460963 177.286057,1.08169088 C175.93549,1.07205898 175.935197,1.07702087 175.935197,2.42723727 C175.935197,3.77044866 175.935197,3.77044866 177.284008,3.76869741 L177.284008,3.76869741 Z" id="Fill-37" fill="#223664"></path>
                    <path d="M163.53773,61.1018164 C164.153008,61.9263649 164.763603,62.7450758 165.421616,63.6265401 C164.883907,63.8291017 164.532069,63.7467928 164.225601,63.2733706 C163.876689,62.7339846 163.460748,62.2377961 163.071442,61.7249707 C162.863911,61.4511914 162.702334,61.1879197 162.258585,61.1692396 C160.769566,61.1070701 160.800301,61.0816769 160.747905,62.6166506 C160.735611,62.9841219 161.133991,63.7091409 160.356258,63.6930877 C159.647313,63.6784939 160.043351,62.9920026 160.032228,62.6435031 C159.980418,61.0052055 160.023739,59.3639892 159.999444,57.7245241 C159.993005,57.2770788 160.098088,57.0958241 160.579889,57.1229685 C161.282688,57.1623717 161.988998,57.1299736 162.693846,57.1337679 C164.185792,57.1416486 165.041385,57.6903747 165.252722,58.7697305 C165.447667,59.7661937 164.95767,60.4421776 163.53773,61.1018164 L163.53773,61.1018164 Z M162.109888,60.5069739 C162.548369,60.4789539 163.002948,60.5142708 163.421817,60.4086119 C164.111151,60.2349459 164.558413,59.78429 164.500749,59.0189923 C164.445133,58.2817146 163.935232,57.9571489 163.269315,57.8637487 C162.89406,57.8112111 162.506804,57.8415662 162.124816,57.8409825 C160.768102,57.8389393 160.768102,57.8401068 160.767224,59.1538388 C160.766346,60.4836239 160.766346,60.4836239 162.109888,60.5069739 L162.109888,60.5069739 Z" id="Fill-38" fill="#223664"></path>
                    <path d="M50.2595887,63.6355882 C49.6457745,63.8396092 49.3132552,63.6723645 49.0319603,63.2424318 C48.6643157,62.6799876 48.2369582,62.1566547 47.8388717,61.6137661 C47.6427555,61.3467 47.4352237,61.1829578 47.053529,61.1718665 C45.6040259,61.1304202 45.6391512,61.1114483 45.5811945,62.5658642 C45.5659735,62.9426756 45.9912821,63.6729483 45.2501387,63.6857908 C44.5078245,63.6986333 44.9050329,62.962815 44.8933244,62.5909655 C44.8423928,60.9824393 44.8895192,59.3709942 44.8608336,57.7613004 C44.852345,57.2738682 44.9773324,57.0946566 45.4881125,57.121801 C46.2784312,57.164123 47.0731406,57.1188823 47.8655083,57.1390217 C49.0360582,57.1685011 49.866771,57.7683054 50.0394703,58.6763303 C50.2490511,59.7799119 49.8606241,60.4126981 48.6356301,60.9669698 C48.559818,61.0014112 48.4895674,61.0481113 48.3762884,61.1117401 C48.9944933,61.9403749 49.6018679,62.7538321 50.2595887,63.6355882 L50.2595887,63.6355882 Z M47.0494311,57.8485712 C45.6043186,57.8398149 45.6043186,57.8398149 45.6046113,59.3193322 C45.6046113,59.5831878 45.6136853,59.847627 45.6031478,60.1111907 C45.5931956,60.363663 45.6856922,60.4894614 45.9538151,60.4836239 C46.6885188,60.466987 47.4358091,60.5393721 48.1547065,60.427 C48.8765309,60.3143361 49.3788224,59.8706852 49.3176459,59.028916 C49.258811,58.2207126 48.708515,57.9481008 48.0191814,57.8558681 C47.7012977,57.8132543 47.3728763,57.8485712 47.0494311,57.8485712 L47.0494311,57.8485712 Z" id="Fill-39" fill="#223664"></path>
                    <path d="M165.664273,0.464082162 C166.78155,0.450655886 167.899119,0.436937734 169.016396,0.423511458 C170.236999,0.716554534 170.740169,1.18443108 170.849642,2.12923231 C170.958823,3.06994728 170.623963,3.65311468 169.530396,4.13996314 C169.030738,4.36208045 169.269005,4.53603829 169.440241,4.76603624 C169.96068,5.46449449 170.485803,6.15974211 171.032294,6.88680416 C170.451849,7.07652329 170.095913,6.9580218 169.792664,6.48109712 C169.417117,5.89034095 168.938827,5.36554867 168.538106,4.78938629 C168.346381,4.51385575 168.123628,4.43271434 167.803403,4.41724493 C166.36795,4.34690292 166.398099,4.33843853 166.34746,5.83751148 C166.334581,6.21023658 166.71569,6.93554738 165.998549,6.92854237 C165.283749,6.92153736 165.672469,6.19710218 165.663981,5.82379332 C165.623001,4.03809856 165.656956,2.25094442 165.664273,0.464082162 L165.664273,0.464082162 Z M166.369999,2.40943286 C166.369999,2.73049599 166.374682,3.051851 166.368535,3.37262225 C166.363559,3.60904147 166.426199,3.78066431 166.704274,3.76607053 C167.489324,3.72520795 168.280814,3.86997823 169.060595,3.64348279 C169.7792,3.43449988 170.148015,3.0004809 170.083326,2.23839378 C170.01893,1.48010103 169.510784,1.205738 168.841355,1.1339366 C168.464343,1.0933659 168.082649,1.08344213 167.70271,1.08110713 C166.368535,1.07293461 166.368535,1.07643712 166.369999,2.40943286 L166.369999,2.40943286 Z" id="Fill-40" fill="#223664"></path>
                    <path d="M129.82566,0.466125291 C130.766139,0.450947761 131.706619,0.436062107 132.647098,0.421176453 C134.591867,0.773762146 135.763003,2.14820422 135.622794,3.91375957 C135.479073,5.72543125 134.061476,6.97028058 132.091826,6.96327556 C131.34395,6.96035681 130.344929,7.30126748 129.918449,6.79836586 C129.553439,6.36784939 129.809561,5.40436812 129.808975,4.67643044 C129.807805,3.27309268 129.81922,1.86946305 129.82566,0.466125291 L129.82566,0.466125291 Z M130.53402,3.60787397 C130.53402,3.87172949 130.534312,4.135585 130.53402,4.3997324 C130.53402,6.43935891 130.716086,6.59171796 132.736082,6.24059164 C133.920389,6.03481936 134.747004,5.08564 134.814328,3.85392508 C134.883993,2.58047195 134.15368,1.46171287 132.967616,1.20661362 C132.316335,1.06651335 131.623489,1.11905095 130.949669,1.08110713 C130.576463,1.06009208 130.526409,1.28308502 130.531385,1.58459249 C130.541923,2.25882507 130.534605,2.93334952 130.53402,3.60787397 L130.53402,3.60787397 Z" id="Fill-41" fill="#223664"></path>
                    <path d="M20.3811496,0.492977844 C21.9594454,0.478675941 23.5377412,0.464374038 25.1163297,0.449780259 C25.2454151,0.886717993 25.1403319,1.10328967 24.6251612,1.08811214 C23.6565817,1.05950833 22.6859532,1.0933659 21.7167882,1.07264273 C21.3105059,1.06417834 21.1682485,1.18939296 21.1442462,1.61523943 C21.0508715,3.28184895 21.0336016,3.28097332 22.6830261,3.28097332 C23.241518,3.28097332 23.8000099,3.2920646 24.3576237,3.27776269 C24.6611646,3.26988205 24.7709311,3.38721603 24.7662477,3.68697225 C24.7612717,4.00190599 24.5601794,3.98526908 24.3508913,3.98526908 C23.4692469,3.98556096 22.5873097,4.00511662 21.7068361,3.97797219 C21.2800639,3.96483779 21.1679558,4.11778059 21.1460025,4.53107641 C21.0532132,6.27532484 21.038285,6.27444921 22.7825477,6.27386546 C23.4584166,6.27386546 24.1342855,6.27882734 24.8098616,6.27240608 C25.0882294,6.26948732 25.2547818,6.3485856 25.2506839,6.66702186 C25.2465859,6.97640996 25.0402249,6.97086433 24.8318149,6.9711562 C23.4803699,6.97261558 22.1289248,6.96473494 20.7774798,6.97465871 C20.2207441,6.97874497 20.3791006,6.57741605 20.3779297,6.29342112 C20.3711974,4.36003732 20.3785152,2.42636164 20.3811496,0.492977844" id="Fill-42" fill="#223664"></path>
                    <path d="M15.7721277,60.396645 C15.7721277,59.5458277 15.7539797,58.6947185 15.782958,57.8447768 C15.7917393,57.5852994 15.5499603,57.1469023 16.1304056,57.1326004 C16.77232,57.1168392 16.5123929,57.5996014 16.5320046,57.8868069 C16.568008,58.4124748 16.5615683,58.9431046 16.5358098,59.46994 C16.5138565,59.9165097 16.6672369,60.1059369 17.1373302,60.0928025 C18.0485384,60.0674093 18.9617956,60.0644906 19.8730039,60.0945538 C20.2830915,60.10798 20.364465,59.9424866 20.3536348,59.5843553 C20.3334377,58.9101227 20.3542202,58.2347226 20.3454389,57.5601981 C20.3416336,57.2896295 20.3829058,57.1220929 20.7233283,57.1255954 C21.0728248,57.1288061 21.0865822,57.3220277 21.0862895,57.5768351 C21.0833624,59.4836582 21.082777,61.3904813 21.0874603,63.2973044 C21.0883385,63.5740025 21.0218932,63.7357015 20.6958135,63.7310315 C20.3416336,63.7263615 20.3389992,63.5097898 20.3477805,63.2611119 C20.3510004,63.1732573 20.3542202,63.084819 20.3471951,62.9972563 C20.288653,62.2742805 20.6756165,61.285698 20.1894241,60.8989628 C19.7345517,60.537329 18.7849984,60.7842557 18.0532218,60.781337 C16.5413713,60.7757913 16.5413713,60.7807532 16.5413713,62.3069706 C16.5413713,62.6003056 16.5393223,62.8936405 16.5419567,63.1869755 C16.5442984,63.4566685 16.5744476,63.7254859 16.1667017,63.7324909 C15.7712496,63.739204 15.7671516,63.4998661 15.7694933,63.2129524 C15.7768111,62.2742805 15.7721277,61.3353168 15.7721277,60.396645" id="Fill-43" fill="#223664"></path>
                    <path d="M87.4250594,63.5550306 C87.4572576,63.6598139 87.3381243,63.701844 87.1744991,63.7269453 C86.7743636,63.7882391 86.5586359,63.5859694 86.4819457,63.227838 C86.2466063,62.1306778 85.5414664,61.8066959 84.5011728,61.9876587 C84.3021295,62.0223919 84.0872799,62.0200569 83.8867731,61.9882425 C82.8084271,61.8169115 82.0069854,62.0699676 81.756425,63.2733706 C81.680613,63.6379232 81.392293,63.8609162 81.0425038,63.7068059 C80.6370995,63.5284699 81.0024024,63.2526475 81.0869958,63.0623446 C81.8901938,61.2518404 82.7147597,59.4506762 83.5366912,57.6483446 C83.6511411,57.3970397 83.6915351,57.1142123 84.0986956,57.0879435 C84.5553242,57.058464 84.6302582,57.3678521 84.7581727,57.6483446 C85.5815678,59.4500925 86.3982305,61.2544673 87.2163567,63.0585502 C87.2763624,63.1910617 87.329343,63.3270757 87.4250594,63.5550306 L87.4250594,63.5550306 Z M84.1335282,57.9632783 C83.5958187,59.1751457 83.1309942,60.222979 82.6363132,61.3382356 C83.5071274,61.3382356 84.2424166,61.3224743 84.9765349,61.3440731 C85.4542386,61.3580831 85.6307431,61.2699367 85.381061,60.7591544 C84.9578014,59.8937434 84.5922058,59.0006041 84.1335282,57.9632783 L84.1335282,57.9632783 Z" id="Fill-44" fill="#223664"></path>
                    <path d="M43.6633543,0.464082162 C45.2434064,0.464957789 46.8231657,0.465833416 48.4029251,0.466709042 C48.4919091,0.897225514 48.3830208,1.1088353 47.8757532,1.08927964 C46.9373229,1.05308707 45.9956727,1.10591655 45.0575351,1.06855648 C44.5344612,1.04783331 44.3509316,1.18122045 44.3526879,1.74249718 C44.357664,3.28068145 44.3275148,3.28068145 45.8408288,3.28097332 C46.3106294,3.28097332 46.7818935,3.25879078 47.2496451,3.28943772 C47.5265494,3.30782588 47.970006,3.08950295 47.9978136,3.62071649 C48.02767,4.18987386 47.559333,3.96658905 47.295308,3.97592907 C46.5035257,4.00394912 45.7094017,4.00453287 44.9173267,3.97855595 C44.502263,3.96483779 44.3766902,4.09764118 44.3567858,4.52086076 C44.2739487,6.27444921 44.2572642,6.27386546 45.9784028,6.27386546 C46.5951441,6.27386546 47.2118855,6.26656857 47.8283341,6.27736796 C48.0949935,6.28203797 48.4526859,6.1562396 48.4427337,6.65242808 C48.4336597,7.10454334 48.100555,6.96473494 47.8745824,6.96706995 C46.6413924,6.97874497 45.4076171,6.9556868 44.1750125,6.98137185 C43.7482404,6.99041999 43.628229,6.85353035 43.6337905,6.43614828 C43.6598418,4.44555686 43.6563293,2.45467358 43.6633543,0.464082162" id="Fill-45" fill="#223664"></path>
                    <path d="M33.1755319,61.9929125 C32.7098292,61.9929125 32.4686357,62.0270619 32.2406141,61.9867831 C31.3961439,61.8376347 30.9166838,62.1925554 30.7220312,63.0033857 C30.6819299,63.1703386 30.5841645,63.3247407 30.5057181,63.4814779 C30.354094,63.7850285 30.0634323,63.8040004 29.8298492,63.6849152 C29.5441636,63.5392693 29.8111157,63.3267839 29.8799027,63.1720898 C30.7103228,61.3046699 31.5533295,59.4430875 32.3942872,57.5806294 C32.5151767,57.3126877 32.6249432,57.0791872 33.0154192,57.0908622 C33.3713553,57.1010779 33.4588758,57.3275733 33.5633735,57.558155 C34.4078437,59.4191537 35.248216,61.2819036 36.0792215,63.1487398 C36.1573752,63.3238651 36.4568182,63.5664137 36.0631224,63.7076815 C35.8514926,63.7835691 35.5895166,63.7771479 35.4466738,63.5156274 C35.4185736,63.4642573 35.3761305,63.4152222 35.3664711,63.3603496 C35.1138618,61.9263649 34.1244998,61.7926858 33.1755319,61.9929125 L33.1755319,61.9929125 Z M34.4549701,61.3049618 C33.9561912,60.1835758 33.4866833,59.1284456 32.9732688,57.9746615 C32.45722,59.1313644 31.9862485,60.1862027 31.4871769,61.3049618 L34.4549701,61.3049618 L34.4549701,61.3049618 Z" id="Fill-46" fill="#223664"></path>
                    <path d="M190.640102,63.8317286 C189.88725,63.8229723 189.185623,63.6236213 188.576785,63.1849323 C188.38945,63.0497939 187.932821,63.0118501 188.192748,62.5611942 C188.46614,62.0868964 188.705285,62.4041652 188.947649,62.5807499 C189.598345,63.0547558 190.330414,63.2147036 191.115757,63.1131309 C191.687421,63.0389945 192.12034,62.7538321 192.201713,62.1385584 C192.28016,61.5440079 191.932127,61.2013459 191.409931,61.0308906 C190.798751,60.8315396 190.165325,60.6972768 189.559707,60.4836239 C188.620106,60.1523451 188.193041,59.5394064 188.269146,58.7250736 C188.342323,57.9443064 188.938868,57.3103527 189.79973,57.1261792 C190.632491,56.9481351 191.440666,57.032779 192.182102,57.4656305 C192.414221,57.6010607 192.892803,57.6422152 192.581652,58.1349012 C192.312943,58.5604557 192.098972,58.2175019 191.866267,58.1013355 C191.222596,57.7802723 190.570144,57.5654519 189.837489,57.8106274 C189.367396,57.9682402 189.076734,58.2679964 189.045707,58.7533855 C189.014094,59.2510333 189.29334,59.5922359 189.752018,59.7478056 C190.222111,59.9074615 190.708889,60.0183742 191.188642,60.1500101 C192.497936,60.5087252 193.120239,61.2080591 192.983251,62.1674541 C192.832797,63.2199574 191.956129,63.8416524 190.640102,63.8317286" id="Fill-47" fill="#223664"></path>
                    <path d="M4.66258788,63.8358149 C3.19932736,63.8404849 1.95267272,62.9666094 1.50160561,61.6204793 C1.00311938,60.1313301 1.51448488,58.4711418 2.73274659,57.6235351 C3.92261536,56.795776 5.64346125,56.8094942 6.77654416,57.6734459 C6.9536341,57.8085843 7.30459416,57.8993576 7.07657257,58.2612833 C6.82191431,58.6655309 6.59711253,58.4793143 6.29854768,58.2785039 C5.1801003,57.5266325 4.12282945,57.5111631 3.18878977,58.1862713 C2.31651205,58.8164306 1.91198594,60.0218767 2.18391413,61.1794553 C2.60336848,62.9663175 4.68015051,63.7126434 6.24732331,62.639125 C6.41563193,62.5235423 6.56403623,62.3595082 6.74873665,62.2935443 C6.94456007,62.2232023 7.04291085,62.4391902 7.15033565,62.5649886 C7.33327981,62.7792253 7.0964769,62.8682473 6.99022293,62.9616475 C6.32781874,63.5456905 5.55916058,63.8641268 4.66258788,63.8358149" id="Fill-48" fill="#223664"></path>
                    <path d="M123.100633,60.3735868 C123.100633,59.4950413 123.118196,58.616204 123.093022,57.7382422 C123.081021,57.3194008 123.141905,57.1048723 123.649758,57.1203417 C124.88207,57.1577017 126.116138,57.1293898 127.349621,57.1352273 C127.592278,57.1363948 127.891721,57.0406596 127.891428,57.4848943 C127.891428,57.9259182 127.596961,57.8366043 127.351084,57.8380637 C126.41119,57.8436093 125.470418,57.8663756 124.531988,57.8298912 C124.016817,57.8097518 123.821579,57.924167 123.824506,58.4953675 C123.831824,60.072955 123.800797,60.072955 125.394606,60.072955 C125.923242,60.072955 126.451877,60.0679931 126.98022,60.0755818 C127.205607,60.0787925 127.478999,60.0332599 127.485146,60.3934343 C127.491293,60.7495225 127.22756,60.7290913 126.994563,60.7302588 C126.143067,60.7352206 125.290694,60.75069 124.439784,60.7261725 C123.987546,60.71333 123.843825,60.865689 123.828604,61.3283118 C123.771526,63.0483346 123.752792,63.0477508 125.514325,63.0486264 C126.160337,63.0489183 126.80635,63.0500858 127.452655,63.0492102 C127.699117,63.0489183 127.930066,63.0527127 127.921285,63.4017959 C127.911918,63.7634297 127.653747,63.7234428 127.423384,63.7240265 C126.16063,63.7263615 124.897584,63.708849 123.635123,63.7342422 C123.206009,63.7429984 123.07868,63.6061088 123.091559,63.1846405 C123.120245,62.2485955 123.100633,61.3107993 123.100633,60.3735868" id="Fill-49" fill="#223664"></path>
                    <path d="M179.438065,59.5507896 C179.438065,60.1657714 179.4688,60.7825045 179.431626,61.3951513 C179.349374,62.7509134 178.423823,63.7006765 177.108967,63.8247236 C175.534769,63.9732883 174.416029,63.2946775 174.09756,61.9006798 C173.761528,60.4302107 174.02087,58.9253002 173.953546,57.4373185 C173.939789,57.1343517 174.144686,57.1404811 174.361585,57.1314329 C174.727473,57.1165473 174.699373,57.3652253 174.699373,57.6010607 C174.699666,58.5677526 174.696153,59.5341527 174.701715,60.5008446 C174.703471,60.7927201 174.704056,61.088682 174.751183,61.3753038 C174.956665,62.63212 175.679661,63.199818 176.948854,63.122471 C178.024273,63.0570908 178.689019,62.320105 178.711265,61.1175776 C178.73234,59.9754685 178.712143,58.8330675 178.722388,57.6906665 C178.724437,57.4586255 178.602377,57.1492373 179.04876,57.126471 C179.538465,57.1016616 179.453286,57.424476 179.45475,57.7055522 C179.458263,58.320534 179.455921,58.9358077 179.455921,59.5507896 L179.438065,59.5507896" id="Fill-50" fill="#223664"></path>
                    <path d="M203.297788,60.7174162 C203.297788,60.0157474 203.259151,59.3114516 203.309789,58.6135771 C203.352233,58.0239884 203.205584,57.7429123 202.559572,57.8319343 C202.214174,57.87951 201.857067,57.8357287 201.505228,57.8409825 C201.27545,57.844485 201.111825,57.804498 201.113874,57.5152493 C201.115923,57.2753276 201.161879,57.1299736 201.445515,57.1311411 C202.940389,57.1372704 204.435555,57.1369786 205.930721,57.1308492 C206.197965,57.1296817 206.281388,57.2382594 206.280217,57.4980287 C206.278754,57.7747267 206.149375,57.8552844 205.904962,57.8401068 C205.846713,57.8363124 205.787585,57.8377718 205.729043,57.8406906 C204.068788,57.9212482 204.068203,57.9212482 204.067325,59.624926 C204.066739,60.7358044 204.080497,61.8466828 204.059421,62.9572694 C204.05386,63.2543987 204.269295,63.736869 203.657237,63.7213996 C203.111917,63.7076815 203.31418,63.2719113 203.305692,62.9972563 C203.28286,62.238088 203.297788,61.4774602 203.297788,60.7174162" id="Fill-51" fill="#223664"></path>
                    <path d="M148.447326,60.8332908 C148.44674,60.0428918 148.416591,59.2513252 148.457571,58.4632612 C148.484207,57.9565652 148.313557,57.7866936 147.816534,57.8328099 C147.409374,57.8704619 146.995481,57.8328099 146.584808,57.84215 C146.328686,57.8479875 146.223018,57.7548792 146.221261,57.4866455 C146.219505,57.2175362 146.324881,57.1296817 146.581295,57.1305573 C148.077925,57.1366867 149.574847,57.1352273 151.071477,57.1343517 C151.280472,57.1340598 151.392873,57.2119906 151.392288,57.4387779 C151.39141,57.6632302 151.370627,57.8506143 151.07616,57.8383556 C150.959076,57.8336856 150.841406,57.8380637 150.724322,57.8403987 C149.216862,57.8719213 149.216862,57.8719213 149.216862,59.4232399 C149.216862,60.652328 149.220082,61.881416 149.214228,63.1105041 C149.213057,63.3825321 149.321653,63.7278209 148.836338,63.7301559 C148.354537,63.7324909 148.451717,63.392164 148.449668,63.1157578 C148.443813,62.3548382 148.447619,61.5939186 148.447326,60.8332908" id="Fill-52" fill="#223664"></path>
                    <path d="M71.3701732,60.7466038 C71.3701732,61.5086909 71.3851014,62.2713618 71.36227,63.033157 C71.3540741,63.3028501 71.555459,63.7427066 70.9835024,63.7176053 C70.4238397,63.6927958 70.6468852,63.2543987 70.64308,62.9914188 C70.6217121,61.4964321 70.6059057,60.0002779 70.6462998,58.5064588 C70.6615207,57.9478089 70.4815037,57.7779373 69.9496484,57.8331018 C69.5714663,57.8722131 69.1859664,57.8336856 68.803979,57.84215 C68.5367341,57.8479875 68.3549608,57.8097518 68.3646203,57.4670898 C68.3728162,57.180468 68.5121465,57.1317248 68.7477785,57.1320167 C70.2177714,57.1355192 71.6877642,57.1340598 73.1577571,57.1331842 C73.376412,57.1328923 73.5567217,57.1489455 73.5649176,57.4466586 C73.5734062,57.7615923 73.4250019,57.8284318 73.141658,57.8471118 C72.5664816,57.8847638 71.7398667,57.5634088 71.4784761,57.9840015 C71.1866436,58.4536293 71.3830525,59.2262239 71.3710513,59.8671827 C71.3657825,60.1602258 71.3701732,60.4532688 71.3701732,60.7466038" id="Fill-53" fill="#223664"></path>
                    <path d="M1.12927767,0.485097204 C2.65371471,0.472254678 4.17844447,0.454450268 5.70288151,0.451531513 C5.90924252,0.451239637 6.23649302,0.342370048 6.24820144,0.701960755 C6.26225156,1.1304341 5.89343614,0.975156292 5.66190202,1.01339199 C5.16019597,1.09628466 4.62219381,0.835347892 4.14683172,1.17188043 C4.13424516,2.83703058 4.13717227,4.50276448 4.09238754,6.16733087 C4.08536248,6.43527265 4.39270866,6.93875801 3.76279535,6.96590244 C3.11883193,6.9939225 3.39222367,6.48138899 3.38666217,6.20819345 C3.35826924,4.83433513 3.32987631,3.4581418 3.3901747,2.08661848 C3.42442184,1.31314821 3.24381938,0.930499329 2.40081272,1.07235086 C2.14410548,1.11525657 1.87247,1.05980021 1.61049397,1.08285838 C1.13337562,1.12459659 1.0721991,0.858114187 1.12927767,0.485097204" id="Fill-54" fill="#223664"></path>
                    <path d="M35.0280976,0.485097204 C35.25729,0.469627798 35.4867751,0.453866517 35.7159676,0.438105236 L35.7194801,0.441023992 C35.7229926,2.10763352 35.7177238,3.7748268 35.7396771,5.44143632 C35.7431897,5.70354059 35.5710758,6.0283981 35.9015461,6.23358663 C36.8985186,6.24701291 37.895491,6.25752043 38.8921708,6.27561671 C39.1679042,6.2805786 39.5244258,6.17842215 39.5112538,6.65768184 C39.49896,7.09870583 39.1576593,6.96473494 38.9270034,6.96706995 C37.8114831,6.97903684 36.6950847,6.94838991 35.5804425,6.9831231 C35.0875178,6.99859251 35.0032172,6.80303587 35.0084859,6.36901689 C35.0313174,4.40790491 35.0242923,2.44650106 35.0280976,0.485097204" id="Fill-55" fill="#223664"></path>
                    <path d="M110.038128,60.3753381 C110.038128,59.4690644 110.036371,58.5627907 110.039298,57.6565171 C110.040177,57.4040447 109.969633,57.1270548 110.403138,57.1247198 C110.821714,57.1223848 110.786881,57.3754409 110.786589,57.6427989 C110.786003,59.1628869 110.829032,60.685018 110.767855,62.2024792 C110.738291,62.93246 110.997633,63.1064178 111.665013,63.0597177 C112.394448,63.0086395 113.130323,63.037827 113.862978,63.0547558 C114.119099,63.0605933 114.506063,62.9129043 114.497867,63.4052984 C114.490549,63.8334799 114.150127,63.7184809 113.914495,63.720524 C112.800438,63.7307397 111.685796,63.7076815 110.572325,63.7333665 C110.143503,63.7432903 110.017052,63.6014388 110.029639,63.1817217 C110.057739,62.2471361 110.03842,61.3110911 110.038128,60.3753381" id="Fill-56" fill="#223664"></path>
                    <path d="M58.9885129,60.39431 C58.9885129,59.4865769 58.9847076,58.578552 58.9911473,57.670819 C58.9929035,57.4271029 58.902456,57.1366867 59.3409365,57.1253035 C59.7685868,57.1142123 59.7208749,57.3760247 59.7205822,57.6404639 C59.7199968,59.4854094 59.7229239,61.3303549 59.7173624,63.1753004 C59.7164843,63.415514 59.814835,63.720524 59.3731347,63.7260696 C58.8743557,63.7324909 58.9949525,63.382824 58.9920254,63.1178009 C58.982366,62.2100679 58.9885129,61.302043 58.9885129,60.39431" id="Fill-57" fill="#223664"></path>
                    <path id="Fill-58" fill="#A0B1C5" d="M89.536674,0.437521485 C89.5454553,2.61170263 89.5542366,4.78588378 89.563018,6.96006493 C89.3431923,6.8911823 89.3589986,6.7035063 89.3587059,6.53480222 C89.356657,4.62330909 89.3581205,2.71152408 89.3592914,0.800030948 C89.3595841,0.652341907 89.3812447,0.511657881 89.536674,0.437521485"></path>
                    <path id="Fill-59" fill="#A0B1C5" d="M35.9015461,6.23358663 C35.5710758,6.0283981 35.7431897,5.70354059 35.7396771,5.44143632 C35.7177238,3.7748268 35.7229926,2.10763352 35.7194801,0.441023992 C36.027119,0.65350941 35.8918867,0.97398879 35.8942284,1.24484932 C35.907693,2.90766447 35.9012534,4.57077149 35.9015461,6.23358663"></path>
                    <path d="M99.4297084,6.47788648 C99.5154726,6.92445611 99.2862802,6.97290746 98.9405889,6.9819556 C98.5310867,6.992755 98.5603578,6.75341703 98.5524546,6.48109712 C98.5433806,6.17958965 98.5969466,5.99162178 98.9689819,6.00154555 C99.3322358,6.01117744 99.5421093,6.10107512 99.4297084,6.47788648" id="Fill-60" fill="#223664"></path>
                </g>
            </g>
        </g>
    </g>
</svg>