<?xml version="1.0" encoding="UTF-8" standalone="no"?>
<svg width="351px" height="151px" viewBox="0 0 351 151" version="1.1" xmlns="http://www.w3.org/2000/svg" xmlns:xlink="http://www.w3.org/1999/xlink" xmlns:sketch="http://www.bohemiancoding.com/sketch/ns">
    <!-- Generator: Sketch 3.3.3 (12072) - http://www.bohemiancoding.com/sketch -->
    <title>Group Copy 2</title>
    <desc>Created with Sketch.</desc>
    <defs>
        <linearGradient x1="100%" y1="50%" x2="0%" y2="45.8679638%" id="linearGradient-1">
            <stop stop-color="#979797" offset="0%"></stop>
            <stop stop-color="#F1F1F1" offset="22.9303627%"></stop>
            <stop stop-color="#FFFFFF" offset="51.2919548%"></stop>
            <stop stop-color="#979797" offset="100%"></stop>
        </linearGradient>
        <linearGradient x1="100%" y1="50%" x2="0%" y2="45.8679638%" id="linearGradient-2">
            <stop stop-color="#979797" offset="0%"></stop>
            <stop stop-color="#F1F1F1" offset="19.7709656%"></stop>
            <stop stop-color="#FFFFFF" offset="56.7040063%"></stop>
            <stop stop-color="#979797" offset="100%"></stop>
        </linearGradient>
    </defs>
    <g id="Page-1" stroke="none" stroke-width="1" fill="none" fill-rule="evenodd" sketch:type="MSPage">
        <g id="Home---Desktop-Copy-2" sketch:type="MSArtboardGroup" transform="translate(-144.000000, -2506.000000)">
            <g id="Group" sketch:type="MSLayerGroup" transform="translate(97.000000, 2493.000000)">
                <g id="Enterprise-Jupyter-N-+-JupyterHub-is-a-mult-+-Group-Copy-2" transform="translate(48.000000, 0.000000)">
                    <g id="Group-Copy-2" transform="translate(0.000000, 13.000000)">
                        <path d="M187.95039,91.7077205 C283.824084,73.0576625 355.584553,45.5340927 348.231882,30.2321067 C340.879211,14.9301206 257.197708,17.6442692 161.324013,36.2943272 C65.4503178,54.9443852 -6.31015077,82.467955 1.04252015,97.7699411 C8.39519106,113.071927 92.0766946,110.357779 187.95039,91.7077205 L187.95039,91.7077205 Z" id="Oval-7-Copy-2" stroke="url(#linearGradient-1)" stroke-width="1.46502936" sketch:type="MSShapeGroup"></path>
                        <path d="M187.95039,91.7077205 C283.824084,73.0576625 355.584553,45.5340927 348.231882,30.2321067 C340.879211,14.9301206 257.197708,17.6442692 161.324013,36.2943272 C65.4503178,54.9443852 -6.31015077,82.467955 1.04252015,97.7699411 C8.39519106,113.071927 92.0766946,110.357779 187.95039,91.7077205 L187.95039,91.7077205 Z" id="Oval-7-Copy-3" stroke="url(#linearGradient-2)" stroke-width="1.46502936" sketch:type="MSShapeGroup"></path>
                        <g id="Group-Copy-5" transform="translate(63.415366, 0.324164)">
                            <path d="M117.596463,118.58752 C92.9904448,118.58752 71.5634674,109.740053 60.4086538,96.6682135 C68.8501648,120.101995 91.266461,136.856302 117.596463,136.856302 C143.926466,136.856302 166.343137,120.101995 174.784648,96.6682135 C163.629835,109.740053 142.202857,118.58752 117.596463,118.58752" id="Fill-9" fill="#E46E2E" sketch:type="MSShapeGroup"></path>
                            <path d="M117.187809,33.268782 C141.794204,33.268782 163.221181,42.1166252 174.375995,55.1880885 C165.934484,31.7543066 143.517812,15 117.187809,15 C90.8578072,15 68.441511,31.7543066 60,55.1880885 C71.1548135,42.1166252 92.581791,33.268782 117.187809,33.268782" id="Fill-10" fill="#E46E2E" sketch:type="MSShapeGroup"></path>
                            <path d="M74.4492266,150.159963 C69.1734184,150.385897 64.7132962,146.291633 64.4873968,141.01502 C64.2611265,135.738407 68.3551358,131.277604 73.6309441,131.051299 C78.9067523,130.825365 83.3668745,134.919628 83.5927739,140.196242 C83.8190442,145.472855 79.7254058,149.934029 74.4492266,150.159963 Z" id="Fill-11" fill="#767474" sketch:type="MSShapeGroup"></path>
                            <path d="M67.1123531,25.6358931 C63.8150402,25.7770823 61.0272013,23.2181701 60.8860401,19.9202027 C60.7448789,16.6218546 63.3032832,13.8338429 66.6005961,13.6926537 C69.8982895,13.5510839 72.6861284,16.1103767 72.8272896,19.4083441 C72.9684508,22.7063115 70.4100465,25.4947038 67.1123531,25.6358931 Z" id="Fill-12" fill="#767474" sketch:type="MSShapeGroup"></path>
                            <path d="M161.992366,18.5543884 C156.871767,18.7736696 152.542785,14.8001723 152.323541,9.67869881 C152.104297,4.55765866 156.077549,0.227937733 161.197715,0.00865650056 C166.318314,-0.210624731 170.646863,3.76287253 170.866106,8.88434605 C171.085784,14.0053862 167.112531,18.3351071 161.992366,18.5543884 Z" id="Fill-8" fill="#767474" sketch:type="MSShapeGroup"></path>
                            <g id="Group-Copy-+-hub" transform="translate(0.000000, 51.000000)">
                                <g id="Group-Copy" transform="translate(0.297974, 5.567815)" fill="#313940" sketch:type="MSShapeGroup">
                                    <path d="M6.30339972,25.8577182 C6.30339972,31.365551 5.8729923,33.1696397 4.72465834,34.4989227 C3.72051958,35.5908029 2.04637412,36.1131757 0.133065038,36.2558768 L0.563472455,39.5319498 C2.81134925,39.5319498 5.8729923,38.7721742 7.73838153,36.9205184 C9.79501454,34.8314597 10.5125055,31.9350584 10.5125055,27.4719712 L10.5125055,6.62808683 L6.30339972,6.62808683 L6.30339972,25.8577182" id="Fill-1"></path>
                                    <path d="M37.7296757,23.3414209 C37.7296757,25.715017 37.7771599,27.8045081 37.9209195,29.6085969 L34.1897054,29.6085969 L33.9505418,25.8577182 L33.8551377,25.8577182 C32.7547236,27.709374 30.3151674,30.1305372 26.2019013,30.1305372 C22.566527,30.1305372 18.2136617,28.1366127 18.2136617,20.065348 L18.2136617,6.62808683 L22.423203,6.62808683 L22.423203,19.352707 C22.423203,23.7206601 23.7623451,26.6650609 27.5889633,26.6650609 C30.4110071,26.6650609 32.372236,24.718271 33.1376468,22.8661828 C33.3768104,22.2491083 33.5201343,21.4893327 33.5201343,20.7295571 L33.5201343,6.62808683 L37.7296757,6.62808683 L37.7296757,23.3414209" id="Fill-2"></path>
                                    <path d="M45.6704312,14.1298441 C45.6704312,11.1863082 45.5750271,8.81184717 45.4791874,6.62808683 L49.2578857,6.62808683 L49.4491295,10.5688013 L49.5449692,10.5688013 C51.2670345,7.76753405 53.9932386,6.10571406 57.7719369,6.10571406 C63.3685402,6.10571406 67.577646,10.8062041 67.577646,17.7860211 C67.577646,26.047554 62.5072898,30.1305372 57.054446,30.1305372 C53.9932386,30.1305372 51.3145187,28.8012542 49.9274568,26.5223597 L49.8320527,26.5223597 L49.8320527,39.009577 L45.6704312,39.009577 L45.6704312,14.1298441 L45.6704312,14.1298441 Z M49.8320527,20.2547513 C49.8320527,20.8722582 49.9274568,21.442198 50.0232965,21.9641384 C50.7882716,24.8605397 53.3236675,26.8544643 56.3369551,26.8544643 C60.7852245,26.8544643 63.3685402,23.2462868 63.3685402,17.9758569 C63.3685402,13.3705009 60.928984,9.42935405 56.4807147,9.42935405 C53.610751,9.42935405 50.9320312,11.4712781 50.1187006,14.6046498 C49.9753766,15.1270226 49.8320527,15.7440971 49.8320527,16.3140369 L49.8320527,20.2547513 L49.8320527,20.2547513 Z" id="Fill-3"></path>
                                    <path d="M75.0400742,6.62808683 L80.1104304,20.2076167 C80.6366775,21.727168 81.2104089,23.5308243 81.5933321,24.9081068 L81.6887361,24.9081068 C82.1195792,23.5308243 82.5979064,21.7743026 83.1716378,20.1124826 L87.7636667,6.62808683 L92.2119361,6.62808683 L85.8982775,23.0088839 C82.8845543,30.8903128 80.8279213,34.9265938 77.9579577,37.3953241 C75.9013246,39.1994128 73.844256,39.9116214 72.7921974,40.1014572 L71.7397031,36.5884138 C72.7921974,36.2558768 74.1792593,35.5908029 75.4229974,34.5464898 C76.5708957,33.644013 78.0058775,32.0297601 78.9625321,29.8935668 C79.1537758,29.4663281 79.2970998,29.1337911 79.2970998,28.8963883 C79.2970998,28.658553 79.2016957,28.3268809 79.0100163,27.8045081 L70.4484809,6.62808683 L75.0400742,6.62808683" id="Fill-4"></path>
                                    <path d="M103.281858,0.0283739009 L103.281858,6.62808683 L109.308869,6.62808683 L109.308869,9.80945808 L103.281858,9.80945808 L103.281858,22.2015412 C103.281858,25.0503755 104.095189,26.6650609 106.438905,26.6650609 C107.538884,26.6650609 108.352214,26.5223597 108.878461,26.380091 L109.069705,29.5134627 C108.256375,29.8459997 106.965152,30.0834026 105.338927,30.0834026 C103.377698,30.0834026 101.798956,29.4663281 100.794382,28.3268809 C99.5989994,27.0918671 99.1681564,25.0503755 99.1681564,22.34381 L99.1681564,9.80945808 L95.5811375,9.80945808 L95.5811375,6.62808683 L99.1681564,6.62808683 L99.1681564,1.12025407 L103.281858,0.0283739009" id="Fill-5"></path>
                                    <path d="M117.057945,18.8779013 C117.153349,24.5280028 120.789159,26.8544643 124.998265,26.8544643 C128.011552,26.8544643 129.829022,26.3325239 131.407763,25.66745 L132.125254,28.658553 C130.642352,29.3236269 128.107392,30.0834026 124.424098,30.0834026 C117.297108,30.0834026 113.040083,25.4300471 113.040083,18.4982297 C113.040083,11.5659798 117.153349,6.10571406 123.898286,6.10571406 C131.455683,6.10571406 133.464396,12.705427 133.464396,16.9311113 C133.464396,17.7860211 133.368992,18.4506626 133.321072,18.8779013 L117.057945,18.8779013 L117.057945,18.8779013 Z M129.398614,15.8867982 C129.446534,13.2277998 128.298636,9.09681708 123.563283,9.09681708 C119.306257,9.09681708 117.440432,12.9903969 117.105865,15.8867982 L129.398614,15.8867982 L129.398614,15.8867982 Z" id="Fill-6"></path>
                                    <path d="M139.635602,13.7973072 C139.635602,11.091174 139.587682,8.76428011 139.443923,6.62808683 L143.127217,6.62808683 L143.270976,11.1387411 L143.46222,11.1387411 C144.514279,8.05250397 147.049675,6.10571406 149.871718,6.10571406 C150.350046,6.10571406 150.685049,6.15328112 151.067537,6.24841523 L151.067537,10.1891297 C150.637129,10.094428 150.206286,10.0468609 149.632555,10.0468609 C146.666751,10.0468609 144.562199,12.2781883 143.988467,15.4115601 C143.892628,15.9814999 143.796788,16.6465739 143.796788,17.35835 L143.796788,29.6085969 L139.635602,29.6085969 L139.635602,13.7973072" id="Fill-7"></path>
                                </g>
                                <text id="hub" sketch:type="MSTextLayer" font-family="Myriad Pro" font-size="46.7594204" font-weight="normal" fill="#999999">
                                    <tspan x="155.599198" y="35.1636002">hub</tspan>
                                </text>
                            </g>
                        </g>
                    </g>
                </g>
            </g>
        </g>
    </g>
</svg>