<?xml version="1.0" encoding="UTF-8" standalone="no"?>
<svg width="112px" height="45px" viewBox="0 0 112 45" version="1.1" xmlns="http://www.w3.org/2000/svg" xmlns:xlink="http://www.w3.org/1999/xlink" xmlns:sketch="http://www.bohemiancoding.com/sketch/ns">
    <!-- Generator: Sketch 3.3.3 (12072) - http://www.bohemiancoding.com/sketch -->
    <title>Imported Layers</title>
    <desc>Created with Sketch.</desc>
    <defs></defs>
    <g id="Page-1" stroke="none" stroke-width="1" fill="none" fill-rule="evenodd" sketch:type="MSPage">
        <g id="Home---Desktop-Copy-2" sketch:type="MSArtboardGroup" transform="translate(-556.000000, -1907.000000)" fill="#B1B1B1">
            <g id="Group-+-Currently-in-use-at" sketch:type="MSLayerGroup" transform="translate(131.000000, 1814.000000)">
                <g id="Group" sketch:type="MSShapeGroup">
                    <g transform="translate(25.000000, 0.000000)" id="Row-3-+-Row-1-+-Row-2">
                        <g transform="translate(0.000000, 81.000000)">
                            <g id="Row-1" transform="translate(15.000000, 0.000000)">
                                <g id="Imported-Layers" transform="translate(385.000000, 12.000000)">
                                    <path d="M48.71832,0.116635514 C49.06762,0.157429907 49.41706,0.19682243 49.76622,0.239439252 C51.30762,0.427429907 52.71868,0.984813084 54.03286,1.79102804 C54.56346,2.11654206 55.05864,2.50009346 55.5674,2.86065421 C55.65448,2.92247664 55.72896,3.00196262 55.87022,3.12742991 L55.49124,3.12742991 L25.4422,3.12742991 C25.03088,3.12742991 25.0327,3.12686916 25.03018,2.71780374 C25.02486,1.85074766 25.0173,0.983691589 25.01086,0.116635514 L48.71832,0.116635514" id="Fill-1"></path>
                                    <path d="M21.87962,0.116635514 C21.87192,0.973738318 21.86296,1.83084112 21.85694,2.68794393 C21.854,3.12714953 21.85638,3.12742991 21.42,3.12742991 C14.4718,3.12742991 7.5236,3.12728972 0.57554,3.12799065 C0.42672,3.12799065 0.2779,3.13584112 0.12908,3.14004673 L0.12908,0.116635514 L21.87962,0.116635514" id="Fill-2"></path>
                                    <path d="M0.12908,6.10738318 C0.26824,6.11397196 0.4074,6.12630841 0.54656,6.12630841 C7.51492,6.12728972 14.48342,6.12714953 21.45192,6.12714953 C21.85638,6.12714953 21.85638,6.12742991 21.85652,6.54042056 C21.85652,7.27738318 21.84364,8.01476636 21.86296,8.75116822 C21.87038,9.03252336 21.79436,9.11425234 21.50652,9.11341121 C17.84538,9.10359813 14.1841,9.10696262 10.52282,9.10696262 C7.17836,9.10696262 3.8339,9.10668224 0.48944,9.10794393 C0.36932,9.10794393 0.2492,9.12280374 0.12908,9.13079439 L0.12908,6.10738318" id="Fill-3"></path>
                                    <path d="M0.2968,44.9074766 C0.30618,44.3306075 0.31738,43.7535981 0.32396,43.176729 C0.32802,42.8315888 0.33026,42.4863084 0.32284,42.1413084 C0.31892,41.961729 0.3871,41.8794393 0.56882,41.8962617 C0.62426,41.9013084 0.68054,41.8966822 0.7364,41.8966822 C7.69594,41.8966822 14.65548,41.8966822 21.61488,41.8968224 C22.02452,41.8968224 22.02242,41.897243 22.02522,42.3072897 C22.03124,43.1740654 22.03978,44.0408411 22.04734,44.9074766 L0.2968,44.9074766" id="Fill-4"></path>
                                    <path d="M79.69472,0.116635514 C80.05172,1.10299065 80.40872,2.08934579 80.78448,3.12742991 L80.43938,3.12742991 C74.45746,3.12742991 68.47568,3.12742991 62.49376,3.12728972 C62.11044,3.12728972 62.10988,3.12658879 62.10974,2.74331776 C62.10946,1.96892523 62.11072,1.19453271 62.10848,0.420140187 C62.1082,0.318925234 62.09112,0.217850467 62.08174,0.116635514 L79.69472,0.116635514" id="Fill-5"></path>
                                    <path d="M111.7893,0.116635514 C111.77992,0.693504673 111.76872,1.27051402 111.76214,1.84738318 C111.75808,2.19252336 111.75584,2.53794393 111.7634,2.88294393 C111.76732,3.06238318 111.69886,3.1446729 111.51728,3.12785047 C111.46184,3.12280374 111.40556,3.12742991 111.34956,3.12742991 L93.62934,3.12742991 L93.25932,3.12742991 C93.63032,2.09775701 93.98718,1.10719626 94.34418,0.116635514 L111.7893,0.116635514" id="Fill-6"></path>
                                    <path d="M111.95702,38.916729 C111.81786,38.9101402 111.6787,38.8978037 111.53954,38.8978037 C106.60202,38.8968224 101.66436,38.8969626 96.72684,38.8969626 C96.32224,38.8969626 96.3221,38.8966822 96.3221,38.4834112 C96.32196,37.7464486 96.3347,37.0092056 96.31566,36.2728037 C96.30838,35.9918692 96.38384,35.9097196 96.67196,35.9102804 C101.63748,35.9192523 106.603,35.9168692 111.56852,35.9157477 C111.69802,35.9157477 111.82752,35.9011682 111.95702,35.8933178 L111.95702,38.916729" id="Fill-7"></path>
                                    <path d="M96.3011,44.9074766 C96.3081,44.0315888 96.3158,43.1558411 96.32168,42.2799533 C96.32434,41.8976636 96.32252,41.8968224 96.70346,41.8968224 C101.6484,41.8966822 106.59348,41.8968224 111.53856,41.8961215 C111.67814,41.8961215 111.81758,41.888271 111.95702,41.8840654 L111.95702,44.9074766 L96.3011,44.9074766" id="Fill-8"></path>
                                    <path d="M62.30546,44.9074766 C62.30574,44.0216355 62.31358,43.1357944 62.30154,42.2500935 C62.29804,41.9927103 62.36132,41.8909346 62.64174,41.8913551 C67.55854,41.8989252 72.47534,41.8985047 77.392,41.8919159 C77.64792,41.8916355 77.72646,41.9648131 77.7238,42.2238785 C77.71498,43.118271 77.73108,44.0129439 77.73766,44.9074766 L62.30546,44.9074766" id="Fill-9"></path>
                                    <path d="M77.71792,19.4331308 C77.71792,19.8478037 77.7007,20.2634579 77.72394,20.676729 C77.7399,20.9597664 77.65352,21.0396729 77.36666,21.0386916 C74.48728,21.0278972 71.60776,21.0284579 68.72824,21.0379907 C68.45412,21.0388318 68.35374,20.980514 68.36158,20.6855607 C68.38244,19.9023364 68.37614,19.1179907 68.3641,18.3343458 C68.3606,18.1101869 68.43382,18.0471028 68.65236,18.047243 C74.3834,18.0520093 80.11444,18.0518692 85.84548,18.0475234 C86.03546,18.0473832 86.1259,18.1114486 86.1882,18.291028 C86.4108,18.9332243 86.6495,19.5696729 86.88316,20.2078037 C86.92726,20.3286449 86.9757,20.4479439 87.0506,20.6412617 C87.12158,20.5013551 87.17184,20.4228505 87.20306,20.3374766 C87.45212,19.6553271 87.7023,18.9735981 87.941,18.2878037 C88.00288,18.1100467 88.09584,18.0469626 88.28624,18.047243 C93.98942,18.0520093 99.69246,18.0518692 105.39564,18.0479439 C105.59514,18.0478037 105.67732,18.0992523 105.67452,18.3151402 C105.66402,19.136215 105.66556,19.9574299 105.67382,20.7785047 C105.67578,20.9756075 105.6069,21.0354673 105.41398,21.0351869 C102.46922,21.0307009 99.52446,21.0307009 96.5797,21.0351869 C96.38762,21.0354673 96.31258,20.9777103 96.31888,20.7796262 C96.3305,20.4159813 96.32322,20.0517757 96.32126,19.6879907 C96.3207,19.6009346 96.31034,19.5140187 96.23642,19.4116822 C96.1954,19.4970561 96.1485,19.5801869 96.11462,19.6683645 C95.96748,20.0509346 95.81684,20.432243 95.68314,20.8195794 C95.6284,20.9784112 95.5451,21.0528505 95.37822,21.0329439 C95.3323,21.0273364 95.28512,21.0321028 95.2385,21.0321028 C89.74042,21.0321028 84.24234,21.0297196 78.74426,21.0392523 C78.46916,21.0396729 78.35002,20.9509346 78.27302,20.6994393 C78.14044,20.2669626 77.97636,19.8442991 77.82544,19.4174299 C77.7896,19.422757 77.75376,19.4279439 77.71792,19.4331308" id="Fill-10"></path>
                                    <path d="M59.5504,35.916729 C59.3481,36.8764486 59.1507,37.7723832 58.7034,38.5919159 C58.58524,38.8080841 58.43572,38.9035514 58.17112,38.903271 C47.24216,38.8958411 36.31334,38.8958411 25.38438,38.9029907 C25.10186,38.9031308 25.01632,38.8302336 25.02388,38.543972 C25.04362,37.788785 25.03032,37.032757 25.0306,36.2770093 C25.03088,35.9171495 25.0313,35.916729 25.40412,35.916729 L46.81474,35.916729 L59.16918,35.916729 L59.5504,35.916729" id="Fill-11"></path>
                                    <path d="M59.54998,9.10696262 L59.19942,9.10696262 C47.9262,9.10696262 36.65312,9.10584112 25.3799,9.11327103 C25.0908,9.11341121 25.01772,9.02957944 25.02416,8.75004673 C25.04236,7.96682243 25.03606,7.1828972 25.02682,6.39939252 C25.02444,6.19345794 25.0887,6.10135514 25.29828,6.12742991 C25.3533,6.13429907 25.41,6.12841121 25.46586,6.12841121 C36.3384,6.12841121 47.21108,6.13009346 58.08362,6.12042056 C58.41066,6.12014019 58.60022,6.22009346 58.74442,6.50285047 C59.15476,7.30738318 59.3565,8.17219626 59.54998,9.10696262" id="Fill-12"></path>
                                    <path d="M55.83396,42.0081308 C55.17302,42.454486 54.53,42.9308411 53.84736,43.3407477 C52.52464,44.1351869 51.09188,44.6405607 49.55482,44.817757 C49.17668,44.8613551 48.79182,44.8550467 48.41018,44.8551869 C40.75274,44.8571495 33.09544,44.856729 25.43814,44.8565888 C25.03088,44.8565888 25.0306,44.8556075 25.0306,44.4356075 C25.03046,43.68 25.03634,42.9243925 25.02696,42.1689252 C25.0243,41.9620093 25.09248,41.8735514 25.29982,41.8957009 C25.37346,41.9035514 25.44878,41.8966822 25.52326,41.8966822 L55.426,41.8966822 L55.78342,41.8966822 C55.80022,41.9338318 55.81716,41.9709813 55.83396,42.0081308" id="Fill-13"></path>
                                    <path d="M57.8781,18.0706542 C57.60412,18.679486 57.22906,19.1555607 56.81256,19.5935047 C56.39564,20.0318692 55.95128,20.4455607 55.4988,20.8473364 C55.38036,20.9524766 55.18716,21.0245327 55.02812,21.0246729 C47.2206,21.0330841 39.41308,21.0311215 31.60542,21.036729 C31.3649,21.0368692 31.2795,20.9765888 31.28412,20.7246729 C31.29868,19.9320561 31.29714,19.1387383 31.28496,18.3458411 C31.28118,18.1093458 31.36406,18.0469626 31.59114,18.0471028 C40.25588,18.051729 48.92062,18.051028 57.58536,18.051729 C57.66614,18.051729 57.74706,18.0618224 57.8781,18.0706542" id="Fill-14"></path>
                                    <path d="M57.86088,26.9732243 L57.5197,26.9732243 C48.90158,26.9732243 40.28346,26.9732243 31.66534,26.9730841 C31.29014,26.9730841 31.28972,26.9723832 31.28958,26.5847664 C31.2893,25.8290187 31.2991,25.0731308 31.28412,24.3178037 C31.27908,24.0609813 31.35496,23.9857009 31.61508,23.9864019 C34.9132,23.9949533 38.21132,23.9920093 41.50958,23.9920093 C46.00022,23.9920093 50.491,23.9934112 54.98178,23.9879439 C55.20186,23.9876636 55.37112,24.047243 55.5352,24.1919159 C56.30632,24.8721028 57.0451,25.5806075 57.60846,26.4507477 C57.68434,26.5678037 57.7493,26.6921495 57.8158,26.8149533 C57.83246,26.8456542 57.8361,26.8833645 57.86088,26.9732243" id="Fill-15"></path>
                                    <path d="M11.20238,35.916729 C14.69524,35.916729 18.1881,35.9193925 21.68096,35.9114019 C21.94262,35.9108411 22.03782,35.9716822 22.0311,36.2503738 C22.01276,37.0240654 22.01416,37.7985981 22.03068,38.5724299 C22.03628,38.8337383 21.95508,38.9027103 21.6993,38.9021495 C18.34616,38.8942991 14.99302,38.8969626 11.63988,38.8969626 L0.71428,38.8969626 C0.3255,38.8969626 0.32494,38.8965421 0.3248,38.5209813 C0.32452,37.7561215 0.33362,36.9912617 0.31962,36.2266822 C0.315,35.9777103 0.39718,35.9114019 0.63994,35.9119626 C4.1608,35.918972 7.68152,35.916729 11.20238,35.916729" id="Fill-16"></path>
                                    <path d="M82.803,9.10696262 L82.51642,9.10696262 C75.838,9.10696262 69.15944,9.10696262 62.48102,9.10682243 C62.11058,9.10682243 62.11002,9.10654206 62.10974,8.74121495 C62.10932,8.00439252 62.1096,7.26757009 62.10974,6.53074766 C62.10974,6.12869159 62.11002,6.12841121 62.50048,6.12841121 L81.05482,6.12841121 C81.25978,6.12841121 81.46614,6.11453271 81.66886,6.13584112 C81.75146,6.14453271 81.87298,6.21350467 81.89692,6.28275701 C82.20982,7.1882243 82.5083,8.09873832 82.80958,9.00813084 C82.81476,9.02411215 82.80762,9.04429907 82.803,9.10696262" id="Fill-17"></path>
                                    <path d="M91.1085,9.08537383 C91.2856,8.56009346 91.44828,8.07771028 91.61096,7.59546729 C91.74494,7.19845794 91.8981,6.80649533 92.00646,6.40247664 C92.07408,6.15070093 92.2187,6.12504673 92.43598,6.12518692 C97.32814,6.12939252 102.22044,6.12841121 107.11274,6.12841121 C108.55712,6.12841121 110.0015,6.13345794 111.44588,6.12336449 C111.68878,6.12168224 111.77082,6.18939252 111.76648,6.43864486 C111.75262,7.23154206 111.75626,8.02485981 111.7648,8.8178972 C111.76704,9.02957944 111.7102,9.11158879 111.48088,9.1114486 C104.7809,9.10584112 98.08078,9.10696262 91.38066,9.1061215 C91.30814,9.1061215 91.23562,9.09546729 91.1085,9.08537383" id="Fill-18"></path>
                                    <path d="M88.98064,15.0253738 C89.16054,14.5306542 89.32504,14.0785514 89.4894,13.6264486 C89.6483,13.1889252 89.81532,12.7540654 89.96232,12.3124766 C90.02644,12.1197196 90.1306,12.0609813 90.33024,12.0621028 C91.83972,12.0700935 93.34934,12.0664486 94.85882,12.0664486 C98.34384,12.0664486 101.82872,12.0696729 105.31374,12.0604206 C105.59206,12.0597196 105.68488,12.1247664 105.67732,12.4157944 C105.65702,13.1990187 105.66276,13.9832243 105.67508,14.7668692 C105.67872,14.9924299 105.60228,15.0535514 105.3857,15.053271 C100.00914,15.048785 94.63258,15.0497664 89.25602,15.0489252 C89.1835,15.0489252 89.11098,15.0368692 88.98064,15.0253738" id="Fill-19"></path>
                                    <path d="M84.98826,15.0497664 C84.83146,15.0497664 84.73094,15.0499065 84.63042,15.0499065 C79.33814,15.0499065 74.046,15.0499065 68.75372,15.0497664 C68.369,15.0497664 68.36886,15.0492056 68.36872,14.6715421 C68.36858,13.8971495 68.37614,13.1226168 68.3641,12.3485047 C68.36074,12.1247664 68.43298,12.0621028 68.65264,12.0623832 C73.65596,12.0677103 78.65942,12.0656075 83.66274,12.0724766 C83.76088,12.0726168 83.91964,12.1392056 83.94792,12.2136449 C84.29834,13.1343925 84.62972,14.0622897 84.98826,15.0497664" id="Fill-20"></path>
                                    <path d="M70.04368,35.916729 C72.485,35.916729 74.92646,35.9217757 77.36778,35.9101402 C77.65604,35.9087383 77.73136,35.9921495 77.72436,36.2728037 C77.7056,37.0281308 77.70574,37.7845794 77.72436,38.5399065 C77.73122,38.82 77.6566,38.903972 77.36806,38.9034112 C72.91382,38.8941589 68.45972,38.8969626 64.00562,38.8969626 C63.53032,38.8969626 63.05502,38.888972 62.58,38.9004673 C62.37154,38.905514 62.30182,38.828271 62.30364,38.6241589 C62.31078,37.8311215 62.31442,37.0378037 62.30168,36.2449065 C62.29762,35.9907477 62.3742,35.9101402 62.63558,35.9111215 C65.1049,35.9206542 67.57422,35.916729 70.04368,35.916729" id="Fill-21"></path>
                                    <path d="M79.5809,24.0085514 L94.58596,24.0085514 C94.41964,24.4812617 94.26326,24.9260748 94.1066,25.3708879 C93.94896,25.8183645 93.77858,26.2620561 93.63816,26.715 C93.56732,26.9440654 93.43124,26.9770093 93.22222,26.976729 C89.41212,26.9718224 85.60216,26.9732243 81.7922,26.9732243 C81.47538,26.9732243 81.158,26.9841589 80.84244,26.9652336 C80.75368,26.9600467 80.62082,26.8854673 80.59184,26.8103271 C80.24786,25.9157944 79.91942,25.0152336 79.58818,24.1157944 C79.57936,24.0919626 79.58412,24.0630841 79.5809,24.0085514" id="Fill-22"></path>
                                    <path d="M54.83072,32.9573832 C53.28484,32.9573832 51.73882,32.9526168 50.19294,32.9622897 C49.94626,32.9638318 49.84826,32.9116822 49.85442,32.6397196 C49.87262,31.8475234 49.86772,31.054486 49.85652,30.2620093 C49.85344,30.0437383 49.91686,29.9698598 50.14058,29.9704206 C53.08338,29.9764486 56.02618,29.9763084 58.96912,29.9702804 C59.1745,29.97 59.28062,30.0392523 59.32052,30.2357944 C59.48488,31.0450935 59.65386,31.853271 59.81738,32.6627103 C59.86484,32.8982243 59.75438,32.9631308 59.52436,32.9618692 C57.95986,32.9533178 56.39536,32.9573832 54.83072,32.9573832" id="Fill-23"></path>
                                    <path d="M54.83604,12.0664486 C56.40054,12.0664486 57.96518,12.0709346 59.52968,12.0616822 C59.76712,12.0602804 59.86302,12.1375234 59.81668,12.3663084 C59.65288,13.1757477 59.48334,13.9840654 59.31926,14.7933645 C59.27852,14.9941121 59.16512,15.053972 58.96366,15.0535514 C56.0301,15.0479439 53.09654,15.0478037 50.16298,15.0535514 C49.93912,15.0541121 49.85162,14.9974766 49.85582,14.7564953 C49.8694,13.9641589 49.86968,13.1712617 49.85568,12.378785 C49.85134,12.1338785 49.9226,12.0595794 50.17026,12.0612617 C51.72538,12.0716355 53.28078,12.0664486 54.83604,12.0664486" id="Fill-24"></path>
                                    <path d="M92.44158,30.0009813 C92.24222,30.5520561 92.05658,31.065 91.87094,31.5778037 C91.72828,31.9715888 91.59682,32.37 91.43442,32.755514 C91.39648,32.845514 91.25382,32.9485514 91.15904,32.948972 C88.42974,32.9593458 85.70044,32.9589252 82.971,32.9500935 C82.87888,32.9498131 82.73356,32.8637383 82.70332,32.7835514 C82.36886,31.8954673 82.05218,31.0006542 81.73186,30.107243 C81.72304,30.0824299 81.72822,30.0525701 81.72556,30.0009813 L92.44158,30.0009813" id="Fill-25"></path>
                                    <path d="M100.99978,32.9573832 C99.5463,32.9573832 98.09282,32.9524766 96.63934,32.9621495 C96.40176,32.9638318 96.3116,32.9078972 96.3165,32.6526168 C96.33176,31.8506075 96.3277,31.0478972 96.31832,30.2457477 C96.31594,30.0386916 96.383,29.9707009 96.59062,29.9709813 C99.52544,29.976028 102.4604,29.976729 105.39522,29.97 C105.62594,29.9695794 105.6769,30.0550935 105.67424,30.2667757 C105.66444,31.0689252 105.66346,31.8714953 105.6748,32.6736449 C105.67788,32.895 105.61026,32.9631308 105.38808,32.961729 C103.92536,32.9531776 102.4625,32.9573832 100.99978,32.9573832" id="Fill-26"></path>
                                    <path d="M73.04094,32.9573832 C71.58746,32.9573832 70.13384,32.9520561 68.68036,32.9625701 C68.43564,32.9642523 68.35878,32.8948598 68.3634,32.6470093 C68.37782,31.8542523 68.37446,31.0609346 68.3648,30.2680374 C68.36228,30.0580374 68.4103,29.9694393 68.6427,29.97 C71.57766,29.976729 74.51276,29.976028 77.44772,29.9711215 C77.65366,29.9707009 77.72408,30.0358879 77.72156,30.2443458 C77.71232,31.056028 77.7105,31.8678505 77.72254,32.6793925 C77.7259,32.9080374 77.644,32.9625701 77.42952,32.9614486 C75.96666,32.9535981 74.5038,32.9573832 73.04094,32.9573832" id="Fill-27"></path>
                                    <path d="M35.9401,32.9573832 C34.50566,32.9573832 33.07136,32.9516355 31.63706,32.9627103 C31.3782,32.9646729 31.27684,32.9070561 31.28314,32.6257009 C31.30134,31.8333645 31.29476,31.0403271 31.28608,30.2477103 C31.28384,30.0433178 31.34796,29.9707009 31.5574,29.9709813 C34.49124,29.9761682 37.42522,29.9765888 40.35906,29.9702804 C40.58642,29.9698598 40.64466,30.053972 40.64228,30.2657944 C40.63346,31.0584112 40.63052,31.8513084 40.64368,32.6439252 C40.64774,32.8878505 40.57452,32.9643925 40.32686,32.9625701 C38.8647,32.9520561 37.4024,32.9573832 35.9401,32.9573832" id="Fill-28"></path>
                                    <path d="M11.08856,32.9573832 C9.63508,32.9573832 8.1816,32.9521963 6.72826,32.9624299 C6.48452,32.9642523 6.4057,32.8968224 6.41032,32.6478505 C6.42502,31.8550935 6.42138,31.0619159 6.412,30.2690187 C6.40962,30.0605607 6.45484,29.9694393 6.68864,29.97 C9.62346,29.9768692 12.55842,29.976028 15.49324,29.9711215 C15.6982,29.9707009 15.7703,30.033785 15.76778,30.2435047 C15.75826,31.0550467 15.75658,31.8668692 15.76862,32.6784112 C15.77198,32.9057944 15.69288,32.9627103 15.47686,32.9614486 C14.01414,32.9535981 12.55128,32.9573832 11.08856,32.9573832" id="Fill-29"></path>
                                    <path d="M100.99754,23.9920093 C102.45088,23.9920093 103.90422,23.9971963 105.35742,23.9869626 C105.60046,23.9852804 105.6804,24.0513084 105.67578,24.3009813 C105.66108,25.0935981 105.66472,25.8867757 105.6741,26.6796729 C105.67662,26.8885514 105.6307,26.9781308 105.39704,26.9775701 C102.4625,26.9707009 99.52782,26.9714019 96.59328,26.9764486 C96.38874,26.9768692 96.31566,26.9157477 96.31818,26.7051869 C96.32798,25.893785 96.32952,25.0819626 96.31734,24.2705607 C96.31398,24.0424766 96.39434,23.9868224 96.60952,23.9879439 C98.07224,23.9957944 99.53482,23.9920093 100.99754,23.9920093" id="Fill-30"></path>
                                    <path d="M73.04164,26.9730841 C71.5883,26.9730841 70.13482,26.9680374 68.68148,26.9781308 C68.43844,26.9798131 68.35864,26.9126636 68.36326,26.6629907 C68.37796,25.8703738 68.37432,25.0771963 68.36494,24.2842991 C68.36242,24.0751402 68.40834,23.9866822 68.64242,23.987243 C71.5771,23.9945327 74.51192,23.9938318 77.4466,23.9883645 C77.65226,23.9880841 77.72408,24.0490654 77.7217,24.2590654 C77.71218,25.0706075 77.71036,25.8824299 77.72268,26.6938318 C77.72618,26.922757 77.64288,26.9778505 77.4298,26.9768692 C75.96708,26.9697196 74.50436,26.9730841 73.04164,26.9730841" id="Fill-31"></path>
                                    <path d="M11.06014,26.9730841 C9.61618,26.9730841 8.17208,26.9680374 6.72812,26.9781308 C6.48452,26.9798131 6.4057,26.9118224 6.41032,26.6627103 C6.42502,25.8700935 6.42138,25.0769159 6.412,24.2840187 C6.40948,24.0747196 6.45568,23.9866822 6.68962,23.987243 C9.62416,23.9945327 12.55884,23.9938318 15.49338,23.9883645 C15.69932,23.9880841 15.7703,24.0496262 15.76778,24.2593458 C15.75826,25.0708879 15.7563,25.8827103 15.76876,26.693972 C15.7724,26.9234579 15.68868,26.9778505 15.47602,26.9768692 C14.00406,26.9697196 12.5321,26.9730841 11.06014,26.9730841" id="Fill-32"></path>
                                    <path d="M11.08716,21.0321028 C9.63382,21.0321028 8.18048,21.0267757 6.72714,21.0372897 C6.48228,21.038972 6.40584,20.9694393 6.41032,20.721729 C6.42488,19.928972 6.42166,19.1357944 6.41186,18.3430374 C6.4092,18.1320561 6.4589,18.0459813 6.69046,18.0465421 C9.62514,18.0534112 12.55968,18.0527103 15.49436,18.0476636 C15.70058,18.047243 15.7703,18.111729 15.76778,18.3203271 C15.75826,19.1318692 15.7563,19.9436916 15.76876,20.7550935 C15.77226,20.9852804 15.68812,21.0371495 15.47504,21.036028 C14.01246,21.0284579 12.54974,21.0321028 11.08716,21.0321028" id="Fill-33"></path>
                                    <path d="M35.9618,12.0664486 C37.41472,12.0664486 38.86778,12.0713551 40.32084,12.0615421 C40.56052,12.06 40.64844,12.1216822 40.64396,12.3738785 C40.62982,13.1663551 40.63164,13.9593925 40.64312,14.7520093 C40.64648,14.9857009 40.56724,15.0543925 40.3375,15.053972 C37.42214,15.0476636 34.50678,15.0478037 31.59142,15.0536916 C31.3649,15.0542523 31.28132,14.9913084 31.28496,14.7545327 C31.29714,13.9526636 31.29602,13.1503738 31.28538,12.3483645 C31.28244,12.126729 31.35426,12.0607009 31.57476,12.0621028 C33.03706,12.0706542 34.49936,12.0664486 35.9618,12.0664486" id="Fill-34"></path>
                                    <path d="M11.11642,15.0497664 C9.66294,15.0497664 8.20932,15.0435981 6.75598,15.055514 C6.48816,15.0576168 6.4036,14.9830374 6.40962,14.7103738 C6.42698,13.9271495 6.42124,13.1430841 6.412,12.3594393 C6.40962,12.1514019 6.45344,12.0611215 6.68864,12.0616822 C9.6236,12.068972 12.55856,12.0681308 15.49352,12.0628037 C15.69974,12.0623832 15.7703,12.124486 15.76778,12.3340654 C15.75826,13.1456075 15.75644,13.9574299 15.76876,14.768972 C15.77226,14.9970561 15.69078,15.0543925 15.47686,15.0534112 C14.02338,15.0464019 12.5699,15.0497664 11.11642,15.0497664" id="Fill-35"></path>
                                    <path d="M90.30896,35.9429439 C90.2279,36.1823832 90.15888,36.3907009 90.08706,36.5978972 C89.8499,37.283271 89.60644,37.9664019 89.37754,38.6545794 C89.31804,38.8333178 89.23082,38.9020093 89.03832,38.9008879 C87.74472,38.8931776 86.45112,38.9007477 85.15766,38.8891121 C85.05756,38.888271 84.90076,38.800514 84.86772,38.7152804 C84.53144,37.8485047 84.21518,36.9740187 83.89444,36.1013551 C83.87932,36.0604206 83.87428,36.0157009 83.85804,35.9429439 L90.30896,35.9429439" id="Fill-36"></path>
                                    <path d="M86.04162,41.9184112 L88.23234,41.9184112 C88.03872,42.4553271 87.85756,42.9590187 87.67542,43.4624299 C87.52674,43.8728972 87.37918,44.283785 87.22462,44.6918692 C87.20474,44.7442991 87.15168,44.7943458 87.10114,44.8190187 C87.08364,44.8275701 87.00664,44.7629439 86.99138,44.7196262 C86.66644,43.8011215 86.3464,42.8809346 86.02622,41.9608879 C86.02384,41.9540187 86.0321,41.9436449 86.04162,41.9184112" id="Fill-37"></path>
                                </g>
                            </g>
                        </g>
                    </g>
                </g>
            </g>
        </g>
    </g>
</svg>