<?xml version="1.0" encoding="UTF-8" standalone="no"?>
<svg width="60px" height="60px" viewBox="0 0 60 60" version="1.1" xmlns="http://www.w3.org/2000/svg" xmlns:xlink="http://www.w3.org/1999/xlink" xmlns:sketch="http://www.bohemiancoding.com/sketch/ns">
    <!-- Generator: Sketch 3.3.3 (12072) - http://www.bohemiancoding.com/sketch -->
    <title>Oval 83 Copy 2 + Imported Layers + Imported Layers</title>
    <desc>Created with Sketch.</desc>
    <defs>
        <linearGradient x1="0%" y1="-37.5892001%" x2="50%" y2="100%" id="linearGradient-1">
            <stop stop-color="#FBDA61" offset="0%"></stop>
            <stop stop-color="#F76B1C" offset="100%"></stop>
        </linearGradient>
    </defs>
    <g id="Page-1" stroke="none" stroke-width="1" fill="none" fill-rule="evenodd" sketch:type="MSPage">
        <g id="About---Desktop" sketch:type="MSArtboardGroup" transform="translate(-569.000000, -2717.000000)">
            <g id="Oval-83-Copy-2-+-Group" sketch:type="MSLayerGroup" transform="translate(224.000000, 2717.000000)">
                <g id="Oval-83-Copy-2-+-Imported-Layers-+-Imported-Layers" transform="translate(345.000000, 0.000000)" sketch:type="MSShapeGroup">
                    <g id="Oval-83-Copy-2-+-Imported-Layers" fill="url(#linearGradient-1)">
                        <circle id="Oval-83-Copy-2" cx="30" cy="30" r="30"></circle>
                    </g>
                    <g id="Imported-Layers" transform="translate(8.000000, 16.000000)" fill="#FFFFFF">
                        <path d="M22.1121292,12.4802158 C15.1911722,12.4802158 8.27043062,12.4808633 1.349689,12.4795683 C0.174090909,12.4791367 0.172583732,12.4743885 0.747033493,11.4202878 C1.44980861,10.1305036 2.20662679,8.86705036 2.84157895,7.54467626 C3.25433014,6.68482014 3.79045455,6.36841727 4.7561244,6.37748201 C9.95523923,6.42690647 15.155,6.40489209 20.3545455,6.40705036 C20.6413397,6.40705036 20.9296411,6.42107914 21.2147129,6.39669065 C21.927823,6.33539568 22.4983971,6.06496403 22.4751435,5.23510791 C22.4531818,4.43935252 21.8655981,4.24316547 21.2069617,4.22848921 C20.2033971,4.20604317 19.1989713,4.21661871 18.1949761,4.21661871 C14.0353828,4.21618705 9.87557416,4.20410072 5.71619617,4.22935252 C4.92815789,4.23410072 4.64093301,4.12640288 5.15100478,3.32741007 C5.63157895,2.57460432 6.05552632,1.77776978 6.42586124,0.964532374 C6.74430622,0.264820144 7.23370813,0.0772661871 7.95930622,0.0783453237 C17.8562919,0.0925899281 27.7532775,0.0904316547 37.6502632,0.0718705036 C38.400622,0.0703597122 38.8142344,0.336258993 39.1154545,1.03748201 C40.627799,4.5576259 42.1625359,8.06848921 43.7461483,11.5566906 C44.1373684,12.4182734 43.8451914,12.4951079 43.0894498,12.4933813 C36.0970096,12.4771942 29.1045694,12.4838849 22.1121292,12.4838849 L22.1121292,12.4802158" id="Fill-1"></path>
                        <path d="M22.2202153,14.6533813 C24.8371053,14.6533813 27.4546411,14.6816547 30.0708852,14.6358993 C30.8421292,14.622518 31.1411962,14.9184173 31.2953589,15.6319424 C31.9313876,18.5747482 32.6091866,21.5082734 33.2708373,24.4454676 C33.6674402,26.2064029 33.3838756,26.8342446 31.7255502,27.5730216 C29.9386842,28.3692086 28.0224163,28.6890647 26.0951675,28.8401439 C22.2604785,29.1407914 18.4320335,29.1086331 14.6483732,28.277482 C14.4046411,28.2239568 14.1645694,28.151223 13.9255742,28.0780576 C10.8573923,27.1357554 10.5344258,26.5819424 11.2384928,23.4643165 C11.8148804,20.9119424 12.4300239,18.3677698 12.952799,15.8048201 C13.1289234,14.9419424 13.4663158,14.611295 14.3695455,14.6300719 C16.9855742,14.6846763 19.60311,14.6494964 22.2202153,14.6494964 L22.2202153,14.6533813" id="Fill-2"></path>
                        <g id="Fill-3-+-Fill-4" transform="translate(1.000000, 13.000000)">
                            <path d="M4.68925837,4.19179856 C4.68925837,4.69446043 4.72090909,5.1994964 4.6819378,5.69913669 C4.61949761,6.49985612 4.70110048,7.18899281 5.56449761,7.55719424 C5.77227273,7.64589928 5.95744019,7.89086331 6.06014354,8.10798561 C6.77605263,9.62309353 7.00191388,11.2730935 6.99760766,12.9019424 C6.99437799,14.0892086 5.74988038,14.9056835 4.374689,14.9658993 C1.73239234,15.0817986 0.620095694,14.616259 0.206913876,13.2209353 C-0.267416268,11.6199281 0.765430622,8.27892086 2.10229665,7.20625899 C2.50148325,6.88597122 2.52688995,6.49726619 2.52473684,6.05827338 C2.51849282,4.6942446 2.5180622,3.33 2.52086124,1.9657554 C2.52215311,1.27467626 2.63691388,0.60971223 3.49858852,0.572805755 C4.39492823,0.534388489 4.6388756,1.19438849 4.67655502,1.93079137 C4.71509569,2.68273381 4.68495215,3.43791367 4.68495215,4.19179856 L4.68925837,4.19179856 L4.68925837,4.19179856 Z M3.53562201,12.7901439 C4.95559809,12.7886331 4.9558134,12.7886331 4.69184211,11.381223 C4.60011962,10.8923741 4.49052632,10.4061151 4.41882775,9.9142446 C4.33894737,9.36517986 4.07605263,9.1381295 3.49514354,9.14093525 C2.91552632,9.14374101 2.7742823,9.44546763 2.70495215,9.91726619 C2.62744019,10.4445324 2.51677033,10.9666187 2.42052632,11.4908633 C2.18583732,12.7685612 2.20564593,12.7916547 3.53562201,12.7901439 L3.53562201,12.7901439 Z" id="Fill-3"></path>
                        </g>
                    </g>
                </g>
            </g>
        </g>
    </g>
</svg>