<?xml version="1.0" encoding="UTF-8" standalone="no"?>
<svg width="61px" height="41px" viewBox="0 0 61 41" version="1.1" xmlns="http://www.w3.org/2000/svg" xmlns:xlink="http://www.w3.org/1999/xlink" xmlns:sketch="http://www.bohemiancoding.com/sketch/ns">
    <!-- Generator: Sketch 3.3.3 (12072) - http://www.bohemiancoding.com/sketch -->
    <title>Group</title>
    <desc>Created with Sketch.</desc>
    <defs>
        <linearGradient x1="13.0544677%" y1="12.386752%" x2="85.3279376%" y2="216.359774%" id="linearGradient-1">
            <stop stop-color="#1D77EF" offset="0%"></stop>
            <stop stop-color="#81F3FD" offset="100%"></stop>
        </linearGradient>
    </defs>
    <g id="Page-1" stroke="none" stroke-width="1" fill="none" fill-rule="evenodd" sketch:type="MSPage">
        <g id="Group" sketch:type="MSLayerGroup">
            <path d="M11.1096139,3.8723842 C11.3684198,3.39057971 12.020057,3 12.5704143,3 L49.9284325,3 C50.4764044,3 51.0951094,3.40171355 51.3188733,3.91687795 L57.0458041,17.1018074 C57.2657514,17.6081851 56.9939973,18.0186853 56.4384926,18.0186853 L4.5163556,18.0186853 C3.96099938,18.0186853 3.72657844,17.6169718 3.97940364,17.1463011 L11.1096139,3.8723842 Z" id="Rectangle-1" fill="url(#linearGradient-1)" sketch:type="MSShapeGroup"></path>
            <path d="M18.835224,21.4819237 C18.9324931,20.9396222 19.450263,20.5 20.0144158,20.5 L41.0082747,20.5 C41.5622553,20.5 42.0889327,20.9362134 42.1859959,21.4819237 L44.6286716,35.2151731 C44.7251285,35.7574746 44.4103115,36.4243173 43.9208185,36.6769507 C43.9208185,36.6769507 39.9167996,39.3565559 30.5001041,39.3565559 C21.0834086,39.3565559 17.0646056,36.6700998 17.0646056,36.6700998 C16.5848101,36.4088675 16.2740998,35.7608835 16.3719803,35.2151731 L18.835224,21.4819237 Z" id="Rectangle-2" fill="url(#linearGradient-1)" sketch:type="MSShapeGroup"></path>
            <path d="M8.85401754,23.9549969 C8.85366082,24.944107 8.8604386,25.933336 8.84997466,26.9223273 C8.84640741,27.255794 8.95687329,27.4523563 9.27673684,27.6108896 C10.3642729,28.1499505 10.9729649,29.038878 11.1472846,30.2506954 C11.3131618,31.4042809 11.4562086,32.570107 11.7483665,33.6944577 C12.1492066,35.2374838 10.5894854,37.0829592 8.94522027,37.1196809 C7.97587914,37.1413099 7.00332749,37.1655534 6.03624561,37.1139766 C4.2159961,37.0170027 2.93868226,35.3425389 3.26960429,33.568249 C3.49422222,32.3640374 3.69624756,31.1555476 3.90695322,29.9487215 C4.09494737,28.8715505 4.71053606,28.1022954 5.6771423,27.644165 C6.0885653,27.4490287 6.20271735,27.2079012 6.19819883,26.7799563 C6.17822222,24.8611563 6.18440546,22.9421186 6.19082651,21.0231998 C6.19415595,20.0295737 6.62805263,19.5129737 7.4475692,19.4920577 C8.27719298,19.4709041 8.81893957,20.0208983 8.84783431,20.9877853 C8.8775614,21.9760635 8.85449318,22.9658867 8.85401754,23.9549969 L8.85401754,23.9549969 L8.85401754,23.9549969 Z M7.51867641,34.4652577 C7.83497271,34.4652577 8.1554308,34.4321012 8.46649513,34.4722693 C9.06781481,34.5499911 9.16294152,34.2887795 9.05235673,33.7646925 C8.869,32.8962055 8.73213645,32.0178548 8.57482066,31.1439012 C8.36910916,30.0017244 8.36875244,30.0184809 7.19476998,30.0183621 C6.75790058,30.0182432 6.56063158,30.1526519 6.49558869,30.6044838 C6.34362378,31.6585998 6.14040936,32.7054664 5.95419883,33.7545911 C5.84087914,34.3930027 5.895577,34.4600287 6.56990643,34.4647824 C6.88620273,34.4670403 7.20238012,34.4651389 7.51867641,34.4652577 L7.51867641,34.4652577 L7.51867641,34.4652577 Z" id="Fill-2" fill="url(#linearGradient-1)" sketch:type="MSShapeGroup"></path>
            <g id="institutional_partners" fill="#FFFFFF" sketch:type="MSShapeGroup">
                <g id="Page-1">
                    <g id="About---Desktop">
                        <g id="Imported-Layers">
                            <path d="M0,18.8956522 C2.04867251,15.1408841 4.0969883,11.3857594 6.14637427,7.63134783 C7.34187914,5.44111594 8.54975049,3.25753913 9.72955945,1.05886957 C10.0904464,0.386231884 10.6132865,0.0955478261 11.3612203,0.0962608696 C17.7027232,0.102202899 24.0442261,0.0989942029 30.385729,0.0994695652 C37.3416316,0.0999449275 44.2975341,0.102202899 51.2534366,0.101489855 C52.3789045,0.101371014 52.7301598,0.361394203 53.18546,1.40017971 C55.2758694,6.1696087 57.3798343,10.9330957 59.4837992,15.6965826 C59.9392183,16.7278812 60.4147329,17.7502667 60.8810916,18.7768116 L60.8810916,19.7275362 C60.4993957,20.368087 59.9481365,20.6042232 59.1939006,20.6005391 C54.4399435,20.5774841 49.6858674,20.5886551 44.9317914,20.589487 C44.2334425,20.5896058 44.2248811,20.6061246 44.3844561,21.3009855 C45.2874464,25.2341333 46.177,29.1704899 47.097232,33.0995971 C47.4306511,34.5233072 47.0489552,35.7123072 46.0797329,36.7562029 C44.9241813,38.0007014 43.4272437,38.680113 41.8723977,39.2348609 C39.5276433,40.0712609 37.0885945,40.4614145 34.6157758,40.6886377 C32.304078,40.9011246 29.9926179,40.9549594 27.6777096,40.7895333 C24.3673002,40.5530406 21.1013626,40.0922957 18.0215166,38.7619942 C16.9233977,38.2877014 15.9044717,37.6839913 15.0723509,36.8040957 C14.0980156,35.7737478 13.6585302,34.5982957 13.9908791,33.1662667 C14.8901832,29.2930145 15.7666569,25.4145333 16.6521676,21.5379536 C16.6785653,21.4223217 16.6962827,21.3037188 16.7340955,21.1918899 C16.8989025,20.7045246 16.7004444,20.5779594 16.2236218,20.5806928 C13.410963,20.5966174 10.5980663,20.5887739 7.7852885,20.5887739 C5.76479727,20.5886551 3.74406823,20.5689275 1.72405263,20.5975681 C0.923204678,20.6089768 0.33662963,20.3537072 0,19.6086957 L0,18.8956522 L0,18.8956522 Z M30.5304405,17.9183072 L46.400191,17.9183072 C49.907037,17.9183072 53.413883,17.9135536 56.9206101,17.9237739 C57.3800721,17.9250812 57.5590292,17.8353565 57.3095595,17.3580928 C57.0807797,16.9205217 56.9036062,16.4558551 56.704078,16.0029536 C54.8602846,11.818458 53.0101891,7.63669565 51.1809025,3.44590145 C50.960922,2.94201739 50.6781579,2.74521739 50.1104893,2.75567536 C48.0704971,2.7929913 46.0294347,2.77278841 43.988729,2.77266957 C33.4882865,2.77207536 22.9878441,2.77421449 12.4874016,2.75971594 C12.0033255,2.7590029 11.7389922,2.91444638 11.5175848,3.3406087 C10.8423041,4.64048696 10.1242164,5.91802319 9.42194347,7.20387826 C9.09244834,7.80723188 9.09161598,7.80877681 9.78794347,7.80877681 C14.7806686,7.80830145 19.7733938,7.80675652 24.7662378,7.80592464 C26.3710253,7.80568696 27.9759318,7.79427826 29.5806004,7.81174783 C30.6253294,7.82303768 31.2759961,8.733 30.8903762,9.62561159 C30.6342476,10.2183884 30.132692,10.4699739 29.5087797,10.4768667 C28.5578694,10.4873246 27.6067212,10.4801942 26.6558109,10.4801942 C20.5535517,10.4797188 14.4512924,10.484829 8.34915205,10.4687855 C7.82488499,10.4673594 7.53546199,10.6337362 7.28539766,11.1054145 C6.20047758,13.1517304 5.06989669,15.1739217 3.95750877,17.2057391 C3.56855945,17.9161681 3.57081871,17.9183072 4.37808772,17.9183072 C13.095499,17.9185449 21.8130292,17.9184261 30.5304405,17.9183072 L30.5304405,17.9183072 L30.5304405,17.9183072 Z M30.5621891,20.5917449 L30.5621891,20.5880609 C27.1733002,20.5880609 23.7844113,20.6049362 20.3959981,20.5728493 C19.774345,20.5670261 19.5469922,20.7714319 19.4160741,21.361 C18.5501832,25.2639623 17.6526628,29.159913 16.7556179,33.0558638 C16.4061462,34.5736957 16.6122144,35.1642145 17.9437505,35.9764899 C19.9938499,37.2269304 22.3163684,37.5770348 24.6369844,37.8687884 C27.7291969,38.2575159 30.8381754,38.3062406 33.947154,38.1077768 C36.1024873,37.9702783 38.2489025,37.7295072 40.3355068,37.140058 C41.5764347,36.7893594 42.8108226,36.3926696 43.7989513,35.5058812 C44.3769649,34.9872609 44.653308,34.3867594 44.4562768,33.5505971 C43.494308,29.4668783 42.5662281,25.3750783 41.6545575,21.2798319 C41.5371949,20.7526551 41.3314834,20.576058 40.7878343,20.5798609 C37.3793255,20.6033913 33.9706979,20.5917449 30.5621891,20.5917449 L30.5621891,20.5917449 L30.5621891,20.5917449 Z" id="Fill-1"></path>
                        </g>
                    </g>
                </g>
            </g>
        </g>
    </g>
</svg>