<?xml version="1.0" encoding="UTF-8" standalone="no"?>
<svg width="61px" height="41px" viewBox="0 0 61 41" version="1.1" xmlns="http://www.w3.org/2000/svg" xmlns:xlink="http://www.w3.org/1999/xlink" xmlns:sketch="http://www.bohemiancoding.com/sketch/ns">
    <!-- Generator: Sketch 3.3.3 (12072) - http://www.bohemiancoding.com/sketch -->
    <title>Imported Layers</title>
    <desc>Created with Sketch.</desc>
    <defs></defs>
    <g id="Page-1" stroke="none" stroke-width="1" fill="none" fill-rule="evenodd" sketch:type="MSPage">
        <g id="About---Desktop" sketch:type="MSArtboardGroup" transform="translate(-570.000000, -1292.000000)" fill="#766969">
            <g id="Imported-Layers" sketch:type="MSLayerGroup" transform="translate(570.000000, 1292.000000)">
                <path d="M0,18.8956522 C2.04867251,15.1408841 4.0969883,11.3857594 6.14637427,7.63134783 C7.34187914,5.44111594 8.54975049,3.25753913 9.72955945,1.05886957 C10.0904464,0.386231884 10.6132865,0.0955478261 11.3612203,0.0962608696 C17.7027232,0.102202899 24.0442261,0.0989942029 30.385729,0.0994695652 C37.3416316,0.0999449275 44.2975341,0.102202899 51.2534366,0.101489855 C52.3789045,0.101371014 52.7301598,0.361394203 53.18546,1.40017971 C55.2758694,6.1696087 57.3798343,10.9330957 59.4837992,15.6965826 C59.9392183,16.7278812 60.4147329,17.7502667 60.8810916,18.7768116 L60.8810916,19.7275362 C60.4993957,20.368087 59.9481365,20.6042232 59.1939006,20.6005391 C54.4399435,20.5774841 49.6858674,20.5886551 44.9317914,20.589487 C44.2334425,20.5896058 44.2248811,20.6061246 44.3844561,21.3009855 C45.2874464,25.2341333 46.177,29.1704899 47.097232,33.0995971 C47.4306511,34.5233072 47.0489552,35.7123072 46.0797329,36.7562029 C44.9241813,38.0007014 43.4272437,38.680113 41.8723977,39.2348609 C39.5276433,40.0712609 37.0885945,40.4614145 34.6157758,40.6886377 C32.304078,40.9011246 29.9926179,40.9549594 27.6777096,40.7895333 C24.3673002,40.5530406 21.1013626,40.0922957 18.0215166,38.7619942 C16.9233977,38.2877014 15.9044717,37.6839913 15.0723509,36.8040957 C14.0980156,35.7737478 13.6585302,34.5982957 13.9908791,33.1662667 C14.8901832,29.2930145 15.7666569,25.4145333 16.6521676,21.5379536 C16.6785653,21.4223217 16.6962827,21.3037188 16.7340955,21.1918899 C16.8989025,20.7045246 16.7004444,20.5779594 16.2236218,20.5806928 C13.410963,20.5966174 10.5980663,20.5887739 7.7852885,20.5887739 C5.76479727,20.5886551 3.74406823,20.5689275 1.72405263,20.5975681 C0.923204678,20.6089768 0.33662963,20.3537072 0,19.6086957 L0,18.8956522 L0,18.8956522 Z M30.5304405,17.9183072 L46.400191,17.9183072 C49.907037,17.9183072 53.413883,17.9135536 56.9206101,17.9237739 C57.3800721,17.9250812 57.5590292,17.8353565 57.3095595,17.3580928 C57.0807797,16.9205217 56.9036062,16.4558551 56.704078,16.0029536 C54.8602846,11.818458 53.0101891,7.63669565 51.1809025,3.44590145 C50.960922,2.94201739 50.6781579,2.74521739 50.1104893,2.75567536 C48.0704971,2.7929913 46.0294347,2.77278841 43.988729,2.77266957 C33.4882865,2.77207536 22.9878441,2.77421449 12.4874016,2.75971594 C12.0033255,2.7590029 11.7389922,2.91444638 11.5175848,3.3406087 C10.8423041,4.64048696 10.1242164,5.91802319 9.42194347,7.20387826 C9.09244834,7.80723188 9.09161598,7.80877681 9.78794347,7.80877681 C14.7806686,7.80830145 19.7733938,7.80675652 24.7662378,7.80592464 C26.3710253,7.80568696 27.9759318,7.79427826 29.5806004,7.81174783 C30.6253294,7.82303768 31.2759961,8.733 30.8903762,9.62561159 C30.6342476,10.2183884 30.132692,10.4699739 29.5087797,10.4768667 C28.5578694,10.4873246 27.6067212,10.4801942 26.6558109,10.4801942 C20.5535517,10.4797188 14.4512924,10.484829 8.34915205,10.4687855 C7.82488499,10.4673594 7.53546199,10.6337362 7.28539766,11.1054145 C6.20047758,13.1517304 5.06989669,15.1739217 3.95750877,17.2057391 C3.56855945,17.9161681 3.57081871,17.9183072 4.37808772,17.9183072 C13.095499,17.9185449 21.8130292,17.9184261 30.5304405,17.9183072 L30.5304405,17.9183072 Z M30.5621891,20.5917449 L30.5621891,20.5880609 C27.1733002,20.5880609 23.7844113,20.6049362 20.3959981,20.5728493 C19.774345,20.5670261 19.5469922,20.7714319 19.4160741,21.361 C18.5501832,25.2639623 17.6526628,29.159913 16.7556179,33.0558638 C16.4061462,34.5736957 16.6122144,35.1642145 17.9437505,35.9764899 C19.9938499,37.2269304 22.3163684,37.5770348 24.6369844,37.8687884 C27.7291969,38.2575159 30.8381754,38.3062406 33.947154,38.1077768 C36.1024873,37.9702783 38.2489025,37.7295072 40.3355068,37.140058 C41.5764347,36.7893594 42.8108226,36.3926696 43.7989513,35.5058812 C44.3769649,34.9872609 44.653308,34.3867594 44.4562768,33.5505971 C43.494308,29.4668783 42.5662281,25.3750783 41.6545575,21.2798319 C41.5371949,20.7526551 41.3314834,20.576058 40.7878343,20.5798609 C37.3793255,20.6033913 33.9706979,20.5917449 30.5621891,20.5917449 L30.5621891,20.5917449 Z" id="Fill-1" sketch:type="MSShapeGroup"></path>
                <path d="M7.85401754,26.1730928 C7.85366082,27.1622029 7.8604386,28.1514319 7.84997466,29.1404232 C7.84640741,29.4738899 7.95687329,29.6704522 8.27673684,29.8289855 C9.3642729,30.3680464 9.97296491,31.2569739 10.1472846,32.4687913 C10.3131618,33.6223768 10.4562086,34.7882029 10.7483665,35.9125536 C11.1492066,37.4555797 9.58948538,39.3010551 7.94522027,39.3377768 C6.97587914,39.3594058 6.00332749,39.3836493 5.03624561,39.3320725 C3.2159961,39.2350986 1.93868226,37.5606348 2.26960429,35.7863449 C2.49422222,34.5821333 2.69624756,33.3736435 2.90695322,32.1668174 C3.09494737,31.0896464 3.71053606,30.3203913 4.6771423,29.8622609 C5.0885653,29.6671246 5.20271735,29.4259971 5.19819883,28.9980522 C5.17822222,27.0792522 5.18440546,25.1602145 5.19082651,23.2412957 C5.19415595,22.2476696 5.62805263,21.7310696 6.4475692,21.7101536 C7.27719298,21.689 7.81893957,22.2389942 7.84783431,23.2058812 C7.8775614,24.1941594 7.85449318,25.1839826 7.85401754,26.1730928 L7.85401754,26.1730928 Z M6.51867641,36.6833536 C6.83497271,36.6833536 7.1554308,36.6501971 7.46649513,36.6903652 C8.06781481,36.768087 8.16294152,36.5068754 8.05235673,35.9827884 C7.869,35.1143014 7.73213645,34.2359507 7.57482066,33.3619971 C7.36910916,32.2198203 7.36875244,32.2365768 6.19476998,32.236458 C5.75790058,32.2363391 5.56063158,32.3707478 5.49558869,32.8225797 C5.34362378,33.8766957 5.14040936,34.9235623 4.95419883,35.972687 C4.84087914,36.6110986 4.895577,36.6781246 5.56990643,36.6828783 C5.88620273,36.6851362 6.20238012,36.6832348 6.51867641,36.6833536 L6.51867641,36.6833536 Z" id="Fill-2" sketch:type="MSShapeGroup"></path>
            </g>
        </g>
    </g>
</svg>