<?xml version="1.0" encoding="UTF-8" standalone="no"?>
<svg
   width="300"
   height="90"
   viewBox="0 0 300 90"
   version="1.1"
   id="svg5091"
   sodipodi:docname="janelia.svg"
   inkscape:version="1.1.1 (3bf5ae0d25, 2021-09-20)"
   xmlns:inkscape="http://www.inkscape.org/namespaces/inkscape"
   xmlns:sodipodi="http://sodipodi.sourceforge.net/DTD/sodipodi-0.dtd"
   xmlns="http://www.w3.org/2000/svg"
   xmlns:svg="http://www.w3.org/2000/svg"
   xmlns:rdf="http://www.w3.org/1999/02/22-rdf-syntax-ns#"
   xmlns:cc="http://creativecommons.org/ns#"
   xmlns:dc="http://purl.org/dc/elements/1.1/"
   xmlns:sketch="http://www.bohemiancoding.com/sketch/ns">
  <sodipodi:namedview
     id="namedview5093"
     pagecolor="#ffffff"
     bordercolor="#666666"
     borderopacity="1.0"
     inkscape:pageshadow="2"
     inkscape:pageopacity="0.0"
     inkscape:pagecheckerboard="0"
     showgrid="false"
     inkscape:zoom="1.9541212"
     inkscape:cx="50.662159"
     inkscape:cy="-14.584561"
     inkscape:window-width="1866"
     inkscape:window-height="1016"
     inkscape:window-x="54"
     inkscape:window-y="27"
     inkscape:window-maximized="1"
     inkscape:current-layer="svg5091" />
  <!-- Generator: Sketch 3.3.3 (12072) - http://www.bohemiancoding.com/sketch -->
  <title
     id="title5024">janelia-logo</title>
  <desc
     id="desc5026">Created with Sketch.</desc>
  <defs
     id="defs5028" />
  <g
     id="Page-1"
     stroke="none"
     stroke-width="1"
     fill="none"
     fill-rule="evenodd"
     sketch:type="MSPage"
     transform="matrix(1.524181,0,0,1.524181,14.77144,-0.71028896)">
    <g
       id="janelia-logo"
       sketch:type="MSLayerGroup"
       fill="#b1b1b1">
      <g
         id="Group"
         sketch:type="MSShapeGroup">
        <path
           d="m 134.31854,16.805454 -0.33289,-0.01091 c -0.01,-0.0011 -0.0207,-0.0076 -0.0295,-0.0076 l -1.2279,-0.03927 C 131.05834,16.62 129.44516,16.466182 127.88437,16.290545 v -4.34509 h -1.67213 c 0,0 -0.003,-0.0044 -0.008,-0.0076 -0.12115,-0.08073 -9.86137,-6.4603635 -22.8345,-9.5923634 -1.65903,-0.4145455 -3.35953,-0.7712728 -5.084039,-1.044 -0.03274,-0.00545 -0.06767,0 -0.09932,0.010909 C 96.307238,1.02 94.386262,0.81272727 92.433634,0.71236364 c -0.117878,-0.005455 -0.220475,0.0861818 -0.228116,0.20618181 -0.0065,0.11890915 0.08623,0.22254545 0.205195,0.22799995 3.739354,0.1898182 7.371744,0.781091 10.781477,1.6003637 10.67779,2.6498182 19.69873,7.7672729 22.0934,9.1974549 H 114.37532 V 7.5381818 H 100.8128 V 3.2214545 H 80.029152 c -0.225933,0 -0.386378,0.1058182 -0.386378,0.2989091 0,0.2934546 0.307793,0.3403637 0.39511,0.3501819 0.05894,0.00545 5.927738,0.6403636 13.74589,3.8781818 9.943236,4.1159997 21.116546,8.2450907 38.679276,9.5759997 0.003,0 0.0524,0.0011 0.13207,0.0044 0.0709,0.0065 0.14517,0.01309 0.2172,0.01746 0.0131,0 1.48439,0.048 1.48439,0.048 0.16372,0.0044 0.30234,-0.122181 0.3067,-0.284727 0.007,-0.162545 -0.12333,-0.3 -0.28487,-0.304364 z m -6.97227,-0.579272 c -7.17746,-0.841091 -13.22417,-2.168727 -18.57779,-3.741818 h 18.57779 z m -13.50904,-4.280727 h -6.84784 C 103.13762,10.742182 99.63511,9.4189091 96.307238,8.0749091 h 17.531082 c -10e-4,0.4014545 -10e-4,3.0469089 -10e-4,3.8705459 z M 100.27471,3.7603636 v 3.7767273 h -5.291417 c -0.320891,-0.1341818 -0.641781,-0.264 -0.960488,-0.396 C 89.613293,5.3149091 85.811726,4.3025454 83.278439,3.7603636 Z"
           id="Shape" />
        <path
           d="m 77.173884,48.096 h 4.118092 c 1.642652,0 2.659896,0.893454 2.659896,2.289818 0,1.053818 -0.464964,1.923273 -1.519317,2.217818 v 0.024 c 1.017244,0.196364 1.226805,0.943637 1.311939,1.802182 0.07313,0.856364 0.02401,1.812 0.516262,2.413091 h -1.298841 c -0.332897,-0.355636 -0.148439,-1.299273 -0.318708,-2.155636 -0.123335,-0.859637 -0.331805,-1.580727 -1.459286,-1.580727 h -2.844354 v 3.736363 H 77.174976 V 48.096 Z m 3.592006,4.030909 c 1.091464,0 2.023573,-0.282545 2.023573,-1.556727 0,-0.857455 -0.467146,-1.496728 -1.558609,-1.496728 h -2.89347 v 3.053455 z"
           id="path5031" />
        <path
           d="m 90.800805,54.833455 c -0.281598,1.396363 -1.287927,2.157818 -2.707921,2.157818 -2.025756,0 -2.979695,-1.396364 -3.043,-3.332727 0,-1.899273 1.251909,-3.296728 2.979695,-3.296728 2.242958,0 2.93058,2.095636 2.868366,3.626182 h -4.7435 c -0.03711,1.104 0.588299,2.083636 1.974457,2.083636 0.857891,0 1.459287,-0.416727 1.642653,-1.238181 z m -1.005238,-1.764001 c -0.04802,-0.991636 -0.795677,-1.787999 -1.82711,-1.787999 -1.091463,0 -1.740884,0.820363 -1.81292,1.787999 z"
           id="path5033" />
        <path
           d="m 92.715232,54.846545 c 0.03711,0.931637 0.844792,1.225091 1.704866,1.225091 0.64942,0 1.531323,-0.148363 1.531323,-0.943636 0,-0.808364 -1.02925,-0.941455 -2.071598,-1.176 -1.02925,-0.233455 -2.071597,-0.574909 -2.071597,-1.788 0,-1.275273 1.262823,-1.802182 2.365201,-1.802182 1.399256,0 2.514731,0.441818 2.600957,1.985455 h -1.041256 c -0.07531,-0.808364 -0.786945,-1.065818 -1.473476,-1.065818 -0.623225,0 -1.346865,0.171272 -1.346865,0.807272 0,0.747273 1.102378,0.870546 2.070506,1.101818 1.041256,0.234546 2.072689,0.577091 2.072689,1.802182 0,1.507637 -1.410171,1.997455 -2.697006,1.997455 -1.42436,0 -2.623878,-0.576 -2.686092,-2.144727 h 1.042348"
           id="path5035" />
        <path
           d="m 103.64405,54.833455 c -0.28268,1.396363 -1.28792,2.157818 -2.7101,2.157818 -2.023572,0 -2.978602,-1.396364 -3.041907,-3.332727 0,-1.899273 1.251908,-3.296728 2.979697,-3.296728 2.24405,0 2.93058,2.095636 2.86836,3.626182 h -4.742405 c -0.03711,1.104 0.587207,2.083636 1.972275,2.083636 0.85789,0 1.45929,-0.416727 1.64374,-1.238181 z m -1.00632,-1.764001 c -0.0502,-0.991636 -0.79568,-1.787999 -1.82711,-1.787999 -1.091468,0 -1.739797,0.820363 -1.812925,1.787999 z"
           id="path5037" />
        <path
           d="m 110.50499,56.818909 c -0.18336,0.111273 -0.41694,0.171273 -0.74874,0.171273 -0.53809,0 -0.88299,-0.295637 -0.88299,-0.980728 -0.5752,0.674182 -1.34796,0.980728 -2.22986,0.980728 -1.15368,0 -2.0967,-0.514909 -2.0967,-1.777091 0,-1.433455 1.06526,-1.74 2.14472,-1.948364 1.15259,-0.219273 2.13272,-0.146181 2.13272,-0.930545 0,-0.908728 -0.74765,-1.053818 -1.40908,-1.053818 -0.88408,0 -1.53132,0.269454 -1.58044,1.20109 h -1.04235 c 0.0611,-1.568727 1.27374,-2.120727 2.68282,-2.120727 1.14058,0 2.38048,0.256364 2.38048,1.741091 v 3.258546 c 0,0.490909 0,0.710182 0.33181,0.710182 0.0851,0 0.18336,-0.012 0.31761,-0.06218 v 0.810545 z m -1.69286,-3.246545 c -0.40384,0.294545 -1.18751,0.305454 -1.88714,0.429818 -0.68544,0.121091 -1.27482,0.367636 -1.27482,1.14 0,0.686182 0.58938,0.930545 1.22571,0.930545 1.37415,0 1.93625,-0.857454 1.93625,-1.432363 z"
           id="path5039" />
        <path
           d="m 111.50696,50.508 h 0.98013 v 1.336364 h 0.0251 c 0.50316,-1.016728 1.19951,-1.519637 2.32809,-1.482546 v 1.104 c -1.67758,0 -2.29208,0.955637 -2.29208,2.561455 v 2.817818 h -1.04234 V 50.508"
           id="path5041" />
        <path
           d="m 119.91668,52.543636 c -0.15935,-0.795272 -0.70945,-1.261091 -1.56843,-1.261091 -1.5084,0 -1.97446,1.186909 -1.97446,2.475273 0,1.162909 0.52609,2.314909 1.85003,2.314909 1.00524,0 1.60664,-0.589091 1.74089,-1.542545 h 1.06854 c -0.23357,1.542545 -1.20279,2.462182 -2.79633,2.462182 -1.93407,0 -2.9655,-1.347273 -2.9655,-3.234546 0,-1.899273 0.98013,-3.394909 2.9917,-3.394909 1.43309,0 2.58567,0.674182 2.73193,2.181818 h -1.07837"
           id="path5043" />
        <path
           d="m 122.22185,48.096 h 1.04235 v 3.342545 h 0.0229 c 0.3449,-0.758181 1.241,-1.077818 1.99956,-1.077818 1.66667,0 2.18075,0.955637 2.18075,2.316 v 4.166182 h -1.04017 v -4.289455 c 0,-0.771272 -0.49006,-1.27309 -1.28792,-1.27309 -1.26283,0 -1.87623,0.844363 -1.87623,1.983272 v 3.578182 h -1.04235 V 48.096"
           id="path5045" />
        <path
           d="m 138.76626,50.730545 c -0.24449,-1.240363 -1.23882,-1.865454 -2.45143,-1.865454 -2.0836,0 -2.96769,1.717091 -2.96769,3.541091 0,1.998545 0.88409,3.664364 2.98079,3.664364 1.5335,0 2.4154,-1.077819 2.52455,-2.522182 h 1.16459 c -0.22047,2.180727 -1.58262,3.502909 -3.78847,3.502909 -2.72211,0 -4.04496,-2.008364 -4.04496,-4.556728 0,-2.536363 1.4451,-4.608 4.14319,-4.608 1.82602,0 3.33443,0.977455 3.60402,2.84291 h -1.16459"
           id="path5047" />
        <path
           d="m 146.83326,56.818909 c -0.18336,0.111273 -0.41585,0.171273 -0.74656,0.171273 -0.54027,0 -0.88627,-0.295637 -0.88627,-0.980728 -0.57411,0.674182 -1.34686,0.980728 -2.22877,0.980728 -1.15476,0 -2.09888,-0.514909 -2.09888,-1.777091 0,-1.433455 1.06854,-1.74 2.148,-1.948364 1.15259,-0.219273 2.13054,-0.146181 2.13054,-0.930545 0,-0.908728 -0.74656,-1.053818 -1.40799,-1.053818 -0.88409,0 -1.53242,0.269454 -1.58153,1.20109 h -1.04126 c 0.0611,-1.568727 1.27483,-2.120727 2.68391,-2.120727 1.14058,0 2.37939,0.256364 2.37939,1.741091 v 3.258546 c 0,0.490909 0,0.710182 0.33071,0.710182 0.0862,0 0.18446,-0.012 0.31871,-0.06218 v 0.810545 z m -1.69068,-3.246545 c -0.40602,0.294545 -1.19078,0.305454 -1.88823,0.429818 -0.68653,0.121091 -1.27373,0.367636 -1.27373,1.14 0,0.686182 0.5872,0.930545 1.22462,0.930545 1.37306,0 1.93734,-0.857454 1.93734,-1.432363 z"
           id="path5049" />
        <path
           d="m 147.85815,50.508 h 0.97904 v 0.931636 h 0.0251 c 0.46387,-0.708 1.1766,-1.077818 2.0465,-1.077818 0.77166,0 1.48329,0.306546 1.74088,1.077818 0.43113,-0.673091 1.17769,-1.077818 1.98646,-1.077818 1.26064,0 2.10762,0.526909 2.10762,1.838182 v 4.645091 h -1.04235 v -4.154182 c 0,-0.784364 -0.20628,-1.408364 -1.22462,-1.408364 -1.00524,0 -1.65684,0.637091 -1.65684,1.616728 V 56.844 h -1.04017 v -4.154182 c 0,-0.820363 -0.25758,-1.408363 -1.19078,-1.408363 -1.23881,0 -1.69068,1.138909 -1.69068,1.616727 v 3.944727 h -1.04126 V 50.508"
           id="path5051" />
        <path
           d="m 158.34602,50.508 h 1.04125 v 0.858545 h 0.024 c 0.34272,-0.699272 1.15258,-1.005818 2.02357,-1.005818 1.94717,0 2.91639,1.544727 2.91639,3.333818 0,1.788 -0.95721,3.295637 -2.89238,3.295637 -0.65051,0 -1.58153,-0.246546 -2.04758,-0.992727 h -0.024 V 59.268 h -1.04125 z m 2.9404,0.773455 c -1.39598,0 -1.93516,1.20109 -1.93516,2.387999 0,1.250182 0.56537,2.401092 1.99956,2.401092 1.42108,0 1.89696,-1.213091 1.89696,-2.451273 -0.001,-1.185818 -0.61122,-2.337818 -1.96136,-2.337818 z"
           id="path5053" />
        <path
           d="m 170.83891,56.844 h -0.97904 v -1.005818 h -0.024 c -0.44204,0.784363 -1.15477,1.153091 -2.06068,1.153091 -1.66666,0 -2.18074,-0.955637 -2.18074,-2.314909 v -4.167273 h 1.04125 v 4.289455 c 0,0.773454 0.48898,1.274181 1.28684,1.274181 1.26282,0 1.87622,-0.844363 1.87622,-1.984363 V 50.510182 H 170.84 V 56.844"
           id="path5055" />
        <path
           d="m 173.09278,54.846545 c 0.036,0.931637 0.8437,1.225091 1.70377,1.225091 0.65052,0 1.53133,-0.148363 1.53133,-0.943636 0,-0.808364 -1.02925,-0.941455 -2.0716,-1.176 -1.02816,-0.233455 -2.07051,-0.574909 -2.07051,-1.788 0,-1.275273 1.26174,-1.802182 2.36739,-1.802182 1.39598,0 2.51146,0.441818 2.59877,1.985455 h -1.04235 c -0.0731,-0.808364 -0.78476,-1.065818 -1.4702,-1.065818 -0.6254,0 -1.34905,0.171272 -1.34905,0.807272 0,0.747273 1.10238,0.870546 2.07051,1.101818 1.04126,0.234546 2.07051,0.577091 2.07051,1.802182 0,1.507637 -1.41017,1.997455 -2.69483,1.997455 -1.42436,0 -2.62497,-0.576 -2.68609,-2.144727 h 1.04235"
           id="path5057" />
        <path
           d="m 85.505024,22.309091 c 0.07968,-0.273818 0.12661,-0.564 0.12661,-0.865091 0,-1.675636 -1.359963,-3.036 -3.039725,-3.036 -1.67758,0 -3.038635,1.360364 -3.038635,3.036 0,0.301091 0.04475,0.591273 0.127702,0.865091 h 5.824048"
           id="path5059" />
        <path
           d="m 157.80574,22.309091 c 0.083,-0.273818 0.1277,-0.564 0.1277,-0.865091 0,-1.675636 -1.35996,-3.036 -3.03754,-3.036 -1.67758,0 -3.03754,1.360364 -3.03754,3.036 0,0.301091 0.0426,0.591273 0.12443,0.865091 h 5.82295"
           id="path5061" />
        <path
           d="m 85.500658,24.183273 v 13.144363 c 0,3.605455 -0.360182,6.322909 -5.742188,6.322909 -0.805501,0 -1.609909,-0.02727 -2.635885,-0.08291 v -4.104 c 2.27461,0 2.608598,-0.139636 2.608598,-2.136 V 24.183273 h 5.769475"
           id="path5063" />
        <path
           d="M 98.265323,38.715273 97.987,37.161818 c -1.639378,1.525091 -3.302768,1.969091 -5.46714,1.969091 -2.746122,0 -5.187726,-1.360364 -5.187726,-4.382182 0,-6.598909 10.348165,-3.604363 10.348165,-6.322909 0,-1.053818 -1.277012,-1.192364 -1.88714,-1.192364 -0.804409,0 -1.887141,0.165819 -2.025757,1.413819 h -5.547908 c 0,-3.077455 2.191658,-4.880728 7.93603,-4.880728 6.881676,0 7.296436,2.550546 7.296436,6.018546 v 6.795273 c 0,0.831272 0.0273,1.246909 0.77712,1.856727 v 0.278182 H 98.265323 Z M 97.68139,32.28 c -1.88714,0.916364 -4.383317,0.471273 -4.383317,2.358545 0,0.721091 0.694171,1.217455 1.831476,1.217455 2.024664,0.0011 2.690457,-1.578546 2.551841,-3.576 z"
           id="path5065" />
        <path
           d="m 106.20135,24.183273 h 5.27068 v 2.273454 c 1.30539,-1.746545 2.71774,-2.689091 4.91159,-2.689091 3.82776,0 5.63086,2.246182 5.63086,6.24 v 8.707637 h -5.77057 v -7.681091 c 0,-1.442182 -0.38747,-2.718546 -2.02467,-2.718546 -1.77472,0 -2.24841,1.137818 -2.24841,2.995637 v 7.404 h -5.76948 v -14.532"
           id="path5067" />
        <path
           d="m 129.72894,32.751273 c 0,1.720363 1.33158,2.857091 2.85745,2.857091 0.91574,0 1.74962,-0.415637 2.16437,-1.276364 h 5.51953 c -0.9965,3.605454 -4.66055,4.797818 -8.04408,4.797818 -4.66164,0 -8.26784,-2.661818 -8.26784,-7.542545 0,-4.771637 3.57782,-7.820728 8.24055,-7.820728 5.3831,0 8.62911,3.716728 8.54507,8.983637 h -11.01505 z m 5.24339,-2.937819 c 0,-1.331999 -1.19297,-2.523272 -2.55184,-2.523272 -1.72015,0 -2.69155,0.970909 -2.69155,2.523272 z"
           id="path5069" />
        <rect
           id="Rectangle-path"
           x="143.04807"
           y="18.748363"
           width="5.7716584"
           height="19.965818" />
        <rect
           id="rect5072"
           x="152.01007"
           y="24.183273"
           width="5.7705669"
           height="14.532" />
        <path
           d="m 170.8782,38.715273 -0.27832,-1.553455 c -1.63611,1.525091 -3.30168,1.969091 -5.46605,1.969091 -2.74612,0 -5.18773,-1.360364 -5.18773,-4.382182 0,-6.598909 10.34817,-3.604363 10.34817,-6.322909 0,-1.053818 -1.27701,-1.192364 -1.88605,-1.192364 -0.8055,0 -1.88714,0.165819 -2.02685,1.413819 h -5.54682 c 0,-3.077455 2.19057,-4.880728 7.93276,-4.880728 6.88277,0 7.29862,2.550546 7.29862,6.018546 v 6.795273 c 0,0.831272 0.0284,1.246909 0.77603,1.856727 v 0.278182 z M 170.29427,32.28 c -1.88605,0.916364 -4.38441,0.471273 -4.38441,2.358545 0,0.721091 0.69526,1.217455 1.83257,1.217455 2.02466,0.0011 2.69155,-1.578546 2.55184,-3.576 z"
           id="path5074" />
        <path
           d="M 0.01287805,18.602182 H 5.6219085 v 7.106182 h 0.055665 c 0.9626707,-1.133455 2.2102134,-1.953819 4.5906945,-1.953819 2.633702,0 5.040378,1.613455 5.040378,4.983273 V 38.816727 H 9.6996159 v -7.701818 c 0,-1.698545 -0.1975549,-2.887636 -1.8380244,-2.887636 -0.9648537,0 -2.239683,0.481091 -2.239683,2.832 v 7.757454 H 0.01287805 V 18.602182"
           id="path5076" />
        <path
           d="m 17.762256,18.602182 h 5.611213 v 7.106182 h 0.05567 c 0.962671,-1.133455 2.209122,-1.953819 4.588512,-1.953819 2.633702,0 5.042561,1.613455 5.042561,4.983273 v 10.078909 h -5.60903 v -7.701818 c 0,-1.698545 -0.199738,-2.887636 -1.841299,-2.887636 -0.962671,0 -2.236409,0.481091 -2.236409,2.832 v 7.757454 H 17.762256 V 18.602182"
           id="path5078" />
        <path
           d="m 35.499628,24.122182 h 5.409293 V 26.076 h 0.05676 c 1.132939,-1.699636 2.776683,-2.321455 4.815536,-2.321455 1.58808,0 3.286397,0.820364 3.966378,2.294182 0.227025,-0.170181 1.358872,-2.294182 5.013092,-2.294182 3.76664,0 5.043652,2.604001 5.043652,4.983273 v 10.078909 h -5.60903 v -7.957091 c 0,-1.386545 -0.14189,-2.632363 -1.841299,-2.632363 -1.417811,0 -1.900238,1.104 -1.900238,2.632363 v 7.957091 h -5.606847 v -7.957091 c 0,-1.386545 -0.141891,-2.632363 -1.84239,-2.632363 -1.414537,0 -1.899147,1.104 -1.899147,2.632363 v 7.957091 H 35.498537 V 24.122182"
           id="path5080" />
        <rect
           id="rect5082"
           x="62.191364"
           y="24.122181"
           width="5.6090307"
           height="14.694546" />
        <path
           d="m 67.946652,22.321091 c 0.08186,-0.277091 0.128793,-0.571637 0.128793,-0.874909 0,-1.701818 -1.378518,-3.078546 -3.077927,-3.078546 -1.703774,0 -3.081201,1.377818 -3.081201,3.078546 0,0.303272 0.04584,0.597818 0.129884,0.874909 h 5.900451"
           id="path5084" />
        <rect
           id="rect5086"
           x="68.24353"
           y="16.691999"
           width="0.45841464"
           height="40.023273" />
      </g>
    </g>
  </g>
  <metadata
     id="metadata5175">
    <rdf:RDF>
      <cc:Work
         rdf:about="">
        <dc:title>janelia-logo</dc:title>
      </cc:Work>
    </rdf:RDF>
  </metadata>
</svg>
