<?xml version="1.0" encoding="UTF-8" standalone="no"?>
<svg width="178px" height="60px" viewBox="0 0 178 60" version="1.1" xmlns="http://www.w3.org/2000/svg" xmlns:xlink="http://www.w3.org/1999/xlink" xmlns:sketch="http://www.bohemiancoding.com/sketch/ns">
    <!-- Generator: Sketch 3.3.3 (12072) - http://www.bohemiancoding.com/sketch -->
    <title>janelia-logo</title>
    <desc>Created with Sketch.</desc>
    <defs></defs>
    <g id="Page-1" stroke="none" stroke-width="1" fill="none" fill-rule="evenodd" sketch:type="MSPage">
        <g id="janelia-logo" sketch:type="MSLayerGroup" fill="#B1B1B1">
            <g id="Group" sketch:type="MSShapeGroup">
                <path d="M134.318543,16.8054545 L133.985646,16.7945455 C133.975823,16.7934545 133.964909,16.7869091 133.956177,16.7869091 L132.72828,16.7476364 C131.058341,16.62 129.445159,16.4661818 127.884366,16.2905455 L127.884366,11.9454545 L126.212244,11.9454545 C126.212244,11.9454545 126.20897,11.9410909 126.204604,11.9378182 C126.083451,11.8570909 116.343232,5.47745455 103.370098,2.34545455 C101.711073,1.93090909 100.010573,1.57418182 98.286061,1.30145455 C98.2533171,1.296 98.2183902,1.30145455 98.1867378,1.31236364 C96.3072378,1.02 94.3862622,0.812727273 92.4336341,0.712363636 C92.3157561,0.706909091 92.2131585,0.798545455 92.2055183,0.918545455 C92.1989695,1.03745455 92.2917439,1.14109091 92.4107134,1.14654545 C96.1500671,1.33636364 99.7824573,1.92763636 103.192189,2.74690909 C113.869976,5.39672727 122.890921,10.5141818 125.285591,11.9443636 L114.375323,11.9443636 L114.375323,7.53818182 L100.812799,7.53818182 L100.812799,3.22145455 L80.0291524,3.22145455 C79.8032195,3.22145455 79.6427744,3.32727273 79.6427744,3.52036364 C79.6427744,3.81381818 79.9505671,3.86072727 80.0378841,3.87054545 C80.0968232,3.876 85.965622,4.51090909 93.7837744,7.74872727 C103.727006,11.8647273 114.900317,15.9938182 132.463055,17.3247273 C132.466329,17.3247273 132.515445,17.3258182 132.595122,17.3290909 C132.666067,17.3356364 132.740287,17.3421818 132.812323,17.3465455 C132.825421,17.3465455 134.296713,17.3945455 134.296713,17.3945455 C134.460433,17.3989091 134.599049,17.2723636 134.603415,17.1098182 C134.609963,16.9472727 134.480079,16.8098182 134.318543,16.8054545 L134.318543,16.8054545 Z M127.346274,16.2261818 C120.168811,15.3850909 114.122104,14.0574545 108.768476,12.4843636 L127.346274,12.4843636 L127.346274,16.2261818 L127.346274,16.2261818 Z M113.837232,11.9454545 L106.98939,11.9454545 C103.137616,10.7421818 99.6351098,9.41890909 96.3072378,8.07490909 L113.838323,8.07490909 C113.837232,8.47636364 113.837232,11.1218182 113.837232,11.9454545 L113.837232,11.9454545 Z M100.274707,3.76036364 L100.274707,7.53709091 L94.9832927,7.53709091 C94.6624024,7.40290909 94.3415122,7.27309091 94.0228049,7.14109091 C89.6132927,5.31490909 85.8117256,4.30254545 83.278439,3.76036364 L100.274707,3.76036364 L100.274707,3.76036364 Z" id="Shape"></path>
                <path d="M77.1738841,48.096 L81.2919756,48.096 C82.934628,48.096 83.951872,48.9894545 83.951872,50.3858182 C83.951872,51.4396364 83.4869085,52.3090909 82.4325549,52.6036364 L82.4325549,52.6276364 C83.4497988,52.824 83.6593598,53.5712727 83.7444939,54.4298182 C83.817622,55.2861818 83.7685061,56.2418182 84.2607561,56.8429091 L82.9619146,56.8429091 C82.6290183,56.4872727 82.8134756,55.5436364 82.6432073,54.6872727 C82.519872,53.8276364 82.3114024,53.1065455 81.1839207,53.1065455 L78.3395671,53.1065455 L78.3395671,56.8429091 L77.1749756,56.8429091 L77.1749756,48.096 L77.1738841,48.096 Z M80.7658902,52.1269091 C81.8573537,52.1269091 82.7894634,51.8443636 82.7894634,50.5701818 C82.7894634,49.7127273 82.3223171,49.0734545 81.2308537,49.0734545 L78.3373841,49.0734545 L78.3373841,52.1269091 L80.7658902,52.1269091 L80.7658902,52.1269091 Z" id="Shape"></path>
                <path d="M90.8008049,54.8334545 C90.5192073,56.2298182 89.512878,56.9912727 88.0928841,56.9912727 C86.067128,56.9912727 85.113189,55.5949091 85.0498841,53.6585455 C85.0498841,51.7592727 86.3017927,50.3618182 88.0295793,50.3618182 C90.2725366,50.3618182 90.9601585,52.4574545 90.8979451,53.988 L86.1544451,53.988 C86.1173354,55.092 86.7427439,56.0716364 88.1289024,56.0716364 C88.9867927,56.0716364 89.588189,55.6549091 89.7715549,54.8334545 L90.8008049,54.8334545 L90.8008049,54.8334545 Z M89.7955671,53.0694545 C89.7475427,52.0778182 88.9998902,51.2814545 87.9684573,51.2814545 C86.8769939,51.2814545 86.2275732,52.1018182 86.1555366,53.0694545 L89.7955671,53.0694545 L89.7955671,53.0694545 Z" id="Shape"></path>
                <path d="M92.7152317,54.8465455 C92.7523415,55.7781818 93.5600244,56.0716364 94.4200976,56.0716364 C95.0695183,56.0716364 95.9514207,55.9232727 95.9514207,55.128 C95.9514207,54.3196364 94.9221707,54.1865455 93.8798232,53.952 C92.8505732,53.7185455 91.8082256,53.3770909 91.8082256,52.164 C91.8082256,50.8887273 93.0710488,50.3618182 94.1734268,50.3618182 C95.5726829,50.3618182 96.6881585,50.8036364 96.7743841,52.3472727 L95.733128,52.3472727 C95.6578171,51.5389091 94.9461829,51.2814545 94.2596524,51.2814545 C93.6364268,51.2814545 92.9127866,51.4527273 92.9127866,52.0887273 C92.9127866,52.836 94.0151646,52.9592727 94.9832927,53.1905455 C96.0245488,53.4250909 97.0559817,53.7676364 97.0559817,54.9927273 C97.0559817,56.5003636 95.645811,56.9901818 94.3589756,56.9901818 C92.9346159,56.9901818 91.7350976,56.4141818 91.6728841,54.8454545 L92.7152317,54.8454545" id="Shape"></path>
                <path d="M103.644055,54.8334545 C103.361366,56.2298182 102.356128,56.9912727 100.933951,56.9912727 C98.910378,56.9912727 97.9553476,55.5949091 97.8920427,53.6585455 C97.8920427,51.7592727 99.1439512,50.3618182 100.871738,50.3618182 C103.115787,50.3618182 103.802317,52.4574545 103.740104,53.988 L98.9976951,53.988 C98.9605854,55.092 99.5849024,56.0716364 100.96997,56.0716364 C101.82786,56.0716364 102.429256,55.6549091 102.613713,54.8334545 L103.644055,54.8334545 L103.644055,54.8334545 Z M102.637726,53.0694545 C102.587518,52.0778182 101.842049,51.2814545 100.810616,51.2814545 C99.7191524,51.2814545 99.0708232,52.1018182 98.9976951,53.0694545 L102.637726,53.0694545 L102.637726,53.0694545 Z" id="Shape"></path>
                <path d="M110.504994,56.8189091 C110.321628,56.9301818 110.088055,56.9901818 109.75625,56.9901818 C109.218159,56.9901818 108.873256,56.6945455 108.873256,56.0094545 C108.298055,56.6836364 107.525299,56.9901818 106.643396,56.9901818 C105.48972,56.9901818 104.546695,56.4752727 104.546695,55.2130909 C104.546695,53.7796364 105.611963,53.4730909 106.691421,53.2647273 C107.844006,53.0454545 108.82414,53.1185455 108.82414,52.3341818 C108.82414,51.4254545 108.076488,51.2803636 107.415061,51.2803636 C106.530976,51.2803636 105.883738,51.5498182 105.834622,52.4814545 L104.792274,52.4814545 C104.853396,50.9127273 106.066012,50.3607273 107.475091,50.3607273 C108.615671,50.3607273 109.855573,50.6170909 109.855573,52.1018182 L109.855573,55.3603636 C109.855573,55.8512727 109.855573,56.0705455 110.187378,56.0705455 C110.272512,56.0705455 110.370744,56.0585455 110.504994,56.0083636 L110.504994,56.8189091 L110.504994,56.8189091 Z M108.812134,53.5723636 C108.408293,53.8669091 107.624622,53.8778182 106.924994,54.0021818 C106.239555,54.1232727 105.650165,54.3698182 105.650165,55.1421818 C105.650165,55.8283636 106.239555,56.0727273 106.875878,56.0727273 C108.25003,56.0727273 108.812134,55.2152727 108.812134,54.6403636 L108.812134,53.5723636 L108.812134,53.5723636 Z" id="Shape"></path>
                <path d="M111.506957,50.508 L112.487091,50.508 L112.487091,51.8443636 L112.512195,51.8443636 C113.01536,50.8276364 113.711713,50.3247273 114.840287,50.3618182 L114.840287,51.4658182 C113.162707,51.4658182 112.548213,52.4214545 112.548213,54.0272727 L112.548213,56.8450909 L111.505866,56.8450909 L111.505866,50.508" id="Shape"></path>
                <path d="M119.916683,52.5436364 C119.757329,51.7483636 119.207232,51.2825455 118.34825,51.2825455 C116.839848,51.2825455 116.373793,52.4694545 116.373793,53.7578182 C116.373793,54.9207273 116.899878,56.0727273 118.223823,56.0727273 C119.229061,56.0727273 119.830457,55.4836364 119.964707,54.5301818 L121.03325,54.5301818 C120.799677,56.0727273 119.830457,56.9923636 118.236921,56.9923636 C116.302848,56.9923636 115.271415,55.6450909 115.271415,53.7578182 C115.271415,51.8585455 116.251549,50.3629091 118.263116,50.3629091 C119.696207,50.3629091 120.848793,51.0370909 120.995049,52.5447273 L119.916683,52.5447273" id="Shape"></path>
                <path d="M122.221854,48.096 L123.264201,48.096 L123.264201,51.4385455 L123.287122,51.4385455 C123.632024,50.6803636 124.528116,50.3607273 125.286683,50.3607273 C126.953348,50.3607273 127.467427,51.3163636 127.467427,52.6767273 L127.467427,56.8429091 L126.427262,56.8429091 L126.427262,52.5534545 C126.427262,51.7821818 125.937195,51.2803636 125.139335,51.2803636 C123.876512,51.2803636 123.26311,52.1247273 123.26311,53.2636364 L123.26311,56.8418182 L122.220762,56.8418182 L122.220762,48.096" id="Shape"></path>
                <path d="M138.766256,50.7305455 C138.521768,49.4901818 137.527445,48.8650909 136.314829,48.8650909 C134.231226,48.8650909 133.34714,50.5821818 133.34714,52.4061818 C133.34714,54.4047273 134.231226,56.0705455 136.327927,56.0705455 C137.861433,56.0705455 138.743335,54.9927273 138.852482,53.5483636 L140.017073,53.5483636 C139.796598,55.7290909 138.434451,57.0512727 136.228604,57.0512727 C133.506494,57.0512727 132.18364,55.0429091 132.18364,52.4945455 C132.18364,49.9581818 133.628738,47.8865455 136.326835,47.8865455 C138.152854,47.8865455 139.661256,48.864 139.930848,50.7294545 L138.766256,50.7294545" id="Shape"></path>
                <path d="M146.833262,56.8189091 C146.649896,56.9301818 146.417415,56.9901818 146.086701,56.9901818 C145.546427,56.9901818 145.200433,56.6945455 145.200433,56.0094545 C144.626323,56.6836364 143.853567,56.9901818 142.971665,56.9901818 C141.816896,56.9901818 140.87278,56.4752727 140.87278,55.2130909 C140.87278,53.7796364 141.941323,53.4730909 143.02078,53.2647273 C144.173366,53.0454545 145.151317,53.1185455 145.151317,52.3341818 C145.151317,51.4254545 144.404756,51.2803636 143.743329,51.2803636 C142.859244,51.2803636 142.210915,51.5498182 142.161799,52.4814545 L141.120543,52.4814545 C141.181665,50.9127273 142.395372,50.3607273 143.804451,50.3607273 C144.94503,50.3607273 146.183841,50.6170909 146.183841,52.1018182 L146.183841,55.3603636 C146.183841,55.8512727 146.183841,56.0705455 146.514555,56.0705455 C146.60078,56.0705455 146.699012,56.0585455 146.833262,56.0083636 L146.833262,56.8189091 L146.833262,56.8189091 Z M145.142585,53.5723636 C144.736561,53.8669091 143.951799,53.8778182 143.254354,54.0021818 C142.567823,54.1232727 141.980616,54.3698182 141.980616,55.1421818 C141.980616,55.8283636 142.567823,56.0727273 143.205238,56.0727273 C144.578299,56.0727273 145.142585,55.2152727 145.142585,54.6403636 L145.142585,53.5723636 L145.142585,53.5723636 Z" id="Shape"></path>
                <path d="M147.858146,50.508 L148.837189,50.508 L148.837189,51.4396364 L148.862293,51.4396364 C149.326165,50.7316364 150.03889,50.3618182 150.908787,50.3618182 C151.680451,50.3618182 152.392085,50.6683636 152.649671,51.4396364 C153.080799,50.7665455 153.82736,50.3618182 154.636134,50.3618182 C155.896774,50.3618182 156.74375,50.8887273 156.74375,52.2 L156.74375,56.8450909 L155.701402,56.8450909 L155.701402,52.6909091 C155.701402,51.9065455 155.495116,51.2825455 154.47678,51.2825455 C153.471543,51.2825455 152.819939,51.9196364 152.819939,52.8992727 L152.819939,56.844 L151.779774,56.844 L151.779774,52.6898182 C151.779774,51.8694545 151.522189,51.2814545 150.588988,51.2814545 C149.350177,51.2814545 148.898311,52.4203636 148.898311,52.8981818 L148.898311,56.8429091 L147.857055,56.8429091 L147.857055,50.508" id="Shape"></path>
                <path d="M158.346018,50.508 L159.387274,50.508 L159.387274,51.3665455 L159.411287,51.3665455 C159.754006,50.6672727 160.563872,50.3607273 161.43486,50.3607273 C163.38203,50.3607273 164.35125,51.9054545 164.35125,53.6945455 C164.35125,55.4825455 163.394037,56.9901818 161.458872,56.9901818 C160.80836,56.9901818 159.877341,56.7436364 159.411287,55.9974545 L159.387274,55.9974545 L159.387274,59.268 L158.346018,59.268 L158.346018,50.508 L158.346018,50.508 Z M161.286421,51.2814545 C159.890439,51.2814545 159.351256,52.4825455 159.351256,53.6694545 C159.351256,54.9196364 159.916634,56.0705455 161.350817,56.0705455 C162.771902,56.0705455 163.24778,54.8574545 163.24778,53.6192727 C163.246689,52.4334545 162.636561,51.2814545 161.286421,51.2814545 L161.286421,51.2814545 Z" id="Shape"></path>
                <path d="M170.838909,56.844 L169.859866,56.844 L169.859866,55.8381818 L169.835854,55.8381818 C169.393811,56.6225455 168.681085,56.9912727 167.775171,56.9912727 C166.108506,56.9912727 165.594427,56.0356364 165.594427,54.6763636 L165.594427,50.5090909 L166.635683,50.5090909 L166.635683,54.7985455 C166.635683,55.572 167.124659,56.0727273 167.922518,56.0727273 C169.185341,56.0727273 169.798744,55.2283636 169.798744,54.0883636 L169.798744,50.5101818 L170.84,50.5101818 L170.84,56.844" id="Shape"></path>
                <path d="M173.09278,54.8465455 C173.128799,55.7781818 173.936482,56.0716364 174.796555,56.0716364 C175.447067,56.0716364 176.327878,55.9232727 176.327878,55.128 C176.327878,54.3196364 175.298628,54.1865455 174.25628,53.952 C173.228122,53.7185455 172.185774,53.3770909 172.185774,52.164 C172.185774,50.8887273 173.447506,50.3618182 174.553159,50.3618182 C175.94914,50.3618182 177.064616,50.8036364 177.151933,52.3472727 L176.109585,52.3472727 C176.036457,51.5389091 175.324823,51.2814545 174.639384,51.2814545 C174.013976,51.2814545 173.290335,51.4527273 173.290335,52.0887273 C173.290335,52.836 174.392713,52.9592727 175.360841,53.1905455 C176.402098,53.4250909 177.431348,53.7676364 177.431348,54.9927273 C177.431348,56.5003636 176.021177,56.9901818 174.736524,56.9901818 C173.312165,56.9901818 172.111555,56.4141818 172.050433,54.8454545 L173.09278,54.8454545" id="Shape"></path>
                <path d="M85.5050244,22.3090909 C85.5847012,22.0352727 85.6316341,21.7450909 85.6316341,21.444 C85.6316341,19.7683636 84.2716707,18.408 82.5919085,18.408 C80.9143293,18.408 79.5532744,19.7683636 79.5532744,21.444 C79.5532744,21.7450909 79.5980244,22.0352727 79.6809756,22.3090909 L85.5050244,22.3090909" id="Shape"></path>
                <path d="M157.805744,22.3090909 C157.888695,22.0352727 157.933445,21.7450909 157.933445,21.444 C157.933445,19.7683636 156.573482,18.408 154.895902,18.408 C153.218323,18.408 151.85836,19.7683636 151.85836,21.444 C151.85836,21.7450909 151.900927,22.0352727 151.982787,22.3090909 L157.805744,22.3090909" id="Shape"></path>
                <path d="M85.5006585,24.1832727 L85.5006585,37.3276364 C85.5006585,40.9330909 85.1404756,43.6505455 79.7584695,43.6505455 C78.9529695,43.6505455 78.148561,43.6232727 77.1225854,43.5676364 L77.1225854,39.4636364 C79.3971951,39.4636364 79.7311829,39.324 79.7311829,37.3276364 L79.7311829,24.1832727 L85.5006585,24.1832727" id="Shape"></path>
                <path d="M98.2653232,38.7152727 L97.987,37.1618182 C96.347622,38.6869091 94.6842317,39.1309091 92.5198598,39.1309091 C89.7737378,39.1309091 87.3321341,37.7705455 87.3321341,34.7487273 C87.3321341,28.1498182 97.6802988,31.1443636 97.6802988,28.4258182 C97.6802988,27.372 96.4032866,27.2334545 95.7931585,27.2334545 C94.98875,27.2334545 93.9060183,27.3992727 93.7674024,28.6472727 L88.2194939,28.6472727 C88.2194939,25.5698182 90.4111524,23.7665455 96.1555244,23.7665455 C103.037201,23.7665455 103.451957,26.3170909 103.451957,29.7850909 L103.451957,36.5803636 C103.451957,37.4116364 103.479244,37.8272727 104.229079,38.4370909 L104.229079,38.7152727 L98.2653232,38.7152727 L98.2653232,38.7152727 Z M97.6813902,32.28 C95.79425,33.1963636 93.2980732,32.7512727 93.2980732,34.6385455 C93.2980732,35.3596364 93.9922439,35.856 95.1295488,35.856 C97.1542134,35.8570909 97.8200061,34.2774545 97.6813902,32.28 L97.6813902,32.28 Z" id="Shape"></path>
                <path d="M106.201354,24.1832727 L111.47203,24.1832727 L111.47203,26.4567273 C112.777421,24.7101818 114.189774,23.7676364 116.383616,23.7676364 C120.211378,23.7676364 122.014476,26.0138182 122.014476,30.0076364 L122.014476,38.7152727 L116.243909,38.7152727 L116.243909,31.0341818 C116.243909,29.592 115.856439,28.3156364 114.219244,28.3156364 C112.444524,28.3156364 111.970829,29.4534545 111.970829,31.3112727 L111.970829,38.7152727 L106.201354,38.7152727 L106.201354,24.1832727" id="Shape"></path>
                <path d="M129.728939,32.7512727 C129.728939,34.4716364 131.060524,35.6083636 132.58639,35.6083636 C133.502128,35.6083636 134.336006,35.1927273 134.750762,34.332 L140.270293,34.332 C139.273787,37.9374545 135.609744,39.1298182 132.226207,39.1298182 C127.564567,39.1298182 123.958372,36.468 123.958372,31.5872727 C123.958372,26.8156364 127.536189,23.7665455 132.198921,23.7665455 C137.582018,23.7665455 140.82803,27.4832727 140.743988,32.7501818 L129.728939,32.7501818 L129.728939,32.7512727 Z M134.972329,29.8134545 C134.972329,28.4814545 133.77936,27.2901818 132.420488,27.2901818 C130.700341,27.2901818 129.728939,28.2610909 129.728939,29.8134545 L134.972329,29.8134545 L134.972329,29.8134545 Z" id="Shape"></path>
                <rect id="Rectangle-path" x="143.048067" y="18.7483636" width="5.77165854" height="19.9658182"></rect>
                <rect id="Rectangle-path" x="152.010073" y="24.1832727" width="5.77056707" height="14.532"></rect>
                <path d="M170.878201,38.7152727 L170.599878,37.1618182 C168.963774,38.6869091 167.298201,39.1309091 165.133829,39.1309091 C162.387707,39.1309091 159.946104,37.7705455 159.946104,34.7487273 C159.946104,28.1498182 170.294268,31.1443636 170.294268,28.4258182 C170.294268,27.372 169.017256,27.2334545 168.40822,27.2334545 C167.60272,27.2334545 166.521079,27.3992727 166.381372,28.6472727 L160.834555,28.6472727 C160.834555,25.5698182 163.025122,23.7665455 168.767311,23.7665455 C175.650079,23.7665455 176.065927,26.3170909 176.065927,29.7850909 L176.065927,36.5803636 C176.065927,37.4116364 176.094305,37.8272727 176.841957,38.4370909 L176.841957,38.7152727 L170.878201,38.7152727 L170.878201,38.7152727 Z M170.294268,32.28 C168.40822,33.1963636 165.90986,32.7512727 165.90986,34.6385455 C165.90986,35.3596364 166.605122,35.856 167.742427,35.856 C169.767091,35.8570909 170.433976,34.2774545 170.294268,32.28 L170.294268,32.28 Z" id="Shape"></path>
                <path d="M0.0128780488,18.6021818 L5.62190854,18.6021818 L5.62190854,25.7083636 L5.67757317,25.7083636 C6.6402439,24.5749091 7.88778659,23.7545455 10.2682683,23.7545455 C12.9019695,23.7545455 15.3086463,25.368 15.3086463,28.7378182 L15.3086463,38.8167273 L9.69961585,38.8167273 L9.69961585,31.1149091 C9.69961585,29.4163636 9.50206098,28.2272727 7.86159146,28.2272727 C6.8967378,28.2272727 5.62190854,28.7083636 5.62190854,31.0592727 L5.62190854,38.8167273 L0.0128780488,38.8167273 L0.0128780488,18.6021818" id="Shape"></path>
                <path d="M17.7622561,18.6021818 L23.3734695,18.6021818 L23.3734695,25.7083636 L23.4291341,25.7083636 C24.3918049,24.5749091 25.6382561,23.7545455 28.0176463,23.7545455 C30.6513476,23.7545455 33.0602073,25.368 33.0602073,28.7378182 L33.0602073,38.8167273 L27.4511768,38.8167273 L27.4511768,31.1149091 C27.4511768,29.4163636 27.251439,28.2272727 25.609878,28.2272727 C24.6472073,28.2272727 23.3734695,28.7083636 23.3734695,31.0592727 L23.3734695,38.8167273 L17.7622561,38.8167273 L17.7622561,18.6021818" id="Shape"></path>
                <path d="M35.499628,24.1221818 L40.9089207,24.1221818 L40.9089207,26.076 L40.9656768,26.076 C42.0986159,24.3763636 43.7423598,23.7545455 45.7812134,23.7545455 C47.3692927,23.7545455 49.0676098,24.5749091 49.7475915,26.0487273 C49.9746159,25.8785455 51.1064634,23.7545455 54.7606829,23.7545455 C58.5273232,23.7545455 59.8043354,26.3585455 59.8043354,28.7378182 L59.8043354,38.8167273 L54.1953049,38.8167273 L54.1953049,30.8596364 C54.1953049,29.4730909 54.0534146,28.2272727 52.3540061,28.2272727 C50.9361951,28.2272727 50.4537683,29.3312727 50.4537683,30.8596364 L50.4537683,38.8167273 L44.8469207,38.8167273 L44.8469207,30.8596364 C44.8469207,29.4730909 44.7050305,28.2272727 43.0045305,28.2272727 C41.5899939,28.2272727 41.1053841,29.3312727 41.1053841,30.8596364 L41.1053841,38.8167273 L35.4985366,38.8167273 L35.4985366,24.1221818" id="Shape"></path>
                <rect id="Rectangle-path" x="62.1913659" y="24.1221818" width="5.60903049" height="14.6945455"></rect>
                <path d="M67.9466524,22.3210909 C68.0285122,22.044 68.0754451,21.7494545 68.0754451,21.4461818 C68.0754451,19.7443636 66.6969268,18.3676364 64.9975183,18.3676364 C63.2937439,18.3676364 61.9163171,19.7454545 61.9163171,21.4461818 C61.9163171,21.7494545 61.9621585,22.044 62.0462012,22.3210909 L67.9466524,22.3210909" id="Shape"></path>
                <rect id="Rectangle-path" x="68.2435305" y="16.692" width="0.458414634" height="40.0232727"></rect>
            </g>
        </g>
    </g>
</svg>