<?xml version="1.0" encoding="UTF-8"?>
<svg width="311px" height="79px" viewBox="0 0 311 79" version="1.1" xmlns="http://www.w3.org/2000/svg" xmlns:xlink="http://www.w3.org/1999/xlink">
    <!-- Generator: Sketch 42 (36781) - http://www.bohemiancoding.com/sketch -->
    <title>Page 1</title>
    <desc>Created with Sketch.</desc>
    <defs>
        <polygon id="path-1" points="6.1552 9 0.9232 9 0.9232 0.2884 6.1552 0.2884 6.1552 9"></polygon>
        <polygon id="path-3" points="5.4193 9 0.1873 9 0.1873 0.2884 5.4193 0.2884"></polygon>
    </defs>
    <g id="Page-1" stroke="none" stroke-width="1" fill="none" fill-rule="evenodd">
        <g transform="translate(0.000000, -1.000000)">
            <g id="Group-3" transform="translate(0.000000, 0.222700)" fill="#FFFFFF">
                <path d="M13.2559,3.5645 C13.2559,5.0595 12.0319,6.2835 10.5359,6.2835 C9.0409,6.2835 7.7489,4.9925 7.7489,3.4965 C7.7489,2.0015 8.9729,0.7775 10.4689,0.7775 C12.0319,0.7775 13.2559,2.0015 13.2559,3.5645 L13.2559,3.5645 Z M12.9839,47.6815 C12.9839,54.6165 10.8089,57.2665 4.9619,57.2665 C1.4279,57.2665 -0.0001,56.7225 -0.0001,55.4315 C-0.0001,54.6165 0.6109,54.0035 1.4279,54.0035 C1.6319,54.0035 1.6989,54.0035 2.1749,54.1395 C2.7869,54.2765 3.6029,54.4125 4.2819,54.4125 C6.3899,54.4125 8.0219,53.4605 8.7699,51.7605 C9.1769,50.8085 9.3129,50.0615 9.3129,47.8855 L9.3129,17.7045 C9.3129,16.7525 8.9049,16.3435 7.9529,16.3435 L5.0989,16.3435 C4.0109,16.3435 3.3989,15.8005 3.3989,14.9175 C3.3989,14.1005 4.0109,13.5575 5.0989,13.5575 L11.3529,13.5575 C12.5079,13.5575 12.9839,14.0335 12.9839,15.1885 L12.9839,47.6815 Z" id="Fill-1"></path>
            </g>
            <path d="M44.9668,39.6114 C43.5388,44.0304 39.8008,46.2734 33.7498,46.2734 C30.0118,46.2734 27.2918,45.3214 25.3208,43.2144 C23.2138,41.0394 22.6018,38.8634 22.6018,33.9014 L22.6018,17.9264 C22.6018,16.9744 22.1948,16.5664 21.2418,16.5664 L18.4548,16.5664 C17.3668,16.5664 16.6878,16.0234 16.6878,15.1394 C16.6878,14.3234 17.3668,13.7804 18.4548,13.7804 L24.6418,13.7804 C25.7968,13.7804 26.2728,14.2564 26.2728,15.4114 L26.2728,33.9014 C26.2728,40.3594 28.9918,43.4184 34.7698,43.4184 C41.4998,43.4184 44.9668,39.1354 44.9668,30.8414 L44.9668,17.9264 C44.9668,16.9744 44.5588,16.5664 43.6078,16.5664 L40.7518,16.5664 C39.6638,16.5664 39.0528,16.0234 39.0528,15.1394 C39.0528,14.3234 39.6638,13.7804 40.7518,13.7804 L47.0058,13.7804 C48.1608,13.7804 48.6378,14.2564 48.6378,15.4114 L48.6378,41.1744 C48.6378,42.1274 49.0448,42.5344 49.9968,42.5344 L52.7838,42.5344 C53.9398,42.5344 54.5518,43.0784 54.5518,43.9624 C54.5518,44.7774 53.8718,45.3214 52.7838,45.3214 L46.5978,45.3214 C45.4428,45.3214 44.9668,44.8454 44.9668,43.6904 L44.9668,39.6114 Z" id="Fill-4" fill="#FFFFFF"></path>
            <path d="M62.5938,29.2784 C62.5938,34.1054 63.4778,37.0964 65.6528,39.6794 C67.6918,42.1274 70.4788,43.4184 73.8098,43.4184 C80.9478,43.4184 85.5708,37.9124 85.5708,29.4824 C85.5708,20.9854 81.0828,15.6834 73.8778,15.6834 C66.7398,15.6834 62.5938,20.6454 62.5938,29.2784 L62.5938,29.2784 Z M62.5258,20.9854 C64.0888,15.7514 68.3038,12.8284 74.3538,12.8284 C83.7348,12.8284 89.3768,19.0134 89.3768,29.3464 C89.3768,39.7474 83.6668,46.2734 74.4898,46.2734 C68.5748,46.2734 64.3618,43.4184 62.5258,38.0484 L62.5258,52.5944 C62.5258,53.6154 62.9338,54.0224 63.8848,54.0224 L66.6718,54.0224 C67.8278,54.0224 68.4398,54.5664 68.4398,55.4504 C68.4398,56.2654 67.7598,56.8094 66.6718,56.8094 L54.7078,56.8094 C53.6198,56.8094 52.9408,56.2654 52.9408,55.3824 C52.9408,54.5664 53.6198,54.0224 54.7078,54.0224 L57.4948,54.0224 C58.4478,54.0224 58.8548,53.6154 58.8548,52.5944 L58.8548,17.9264 C58.8548,16.9744 58.4478,16.5664 57.4948,16.5664 L54.7078,16.5664 C53.6198,16.5664 52.9408,16.0234 52.9408,15.1394 C52.9408,14.3234 53.6198,13.7804 54.7078,13.7804 L60.8938,13.7804 C62.0498,13.7804 62.5258,14.2564 62.5258,15.4114 L62.5258,20.9854 Z" id="Fill-6" fill="#FFFFFF"></path>
            <path d="M105.8145,36.6885 C106.2215,37.7085 106.5615,38.5915 107.7855,41.7185 C108.0575,40.9035 108.3975,40.1555 108.7375,39.4075 L109.7565,37.0965 L117.6425,18.4025 C117.7785,18.0625 117.8465,17.7905 117.8465,17.5865 C117.8465,16.9745 117.3025,16.5665 116.4185,16.5665 L114.1075,16.5665 C113.0195,16.5665 112.4085,16.0235 112.4085,15.1395 C112.4085,14.3235 113.0195,13.7805 114.1075,13.7805 L123.7605,13.7805 C124.9165,13.7805 125.5275,14.3235 125.5275,15.2075 C125.5275,16.0235 124.9165,16.5665 123.7605,16.5665 L123.0125,16.5665 C122.1975,16.5665 121.9935,16.7705 121.6535,17.4505 L107.7855,49.6045 C104.9985,55.9945 103.1635,57.6255 98.6765,57.6255 C95.8895,57.6255 94.1905,56.8775 94.1905,55.7215 C94.1905,54.9065 94.8015,54.2945 95.5495,54.2945 C95.8215,54.2945 95.8215,54.2945 97.2495,54.6345 C97.4535,54.7025 97.7245,54.7025 98.2015,54.7025 C100.9195,54.7025 102.4835,53.4115 103.9785,49.8075 L105.4745,46.1375 C105.6105,45.8655 105.6785,45.5935 105.6785,45.4575 C105.6785,45.2535 105.6105,45.0495 105.4745,44.7775 L93.3745,17.4505 C93.1025,16.7035 92.8305,16.5665 92.0145,16.5665 L90.9265,16.5665 C89.8395,16.5665 89.2275,16.0235 89.2275,15.1395 C89.2275,14.3235 89.8395,13.7805 90.9265,13.7805 L101.1245,13.7805 C102.2105,13.7805 102.8235,14.2555 102.8235,15.2075 C102.8235,16.0905 102.2105,16.5665 101.1245,16.5665 L98.8805,16.5665 C98.0645,16.5665 97.5205,16.9745 97.5205,17.5865 C97.5205,17.8585 97.5885,18.1305 97.7245,18.4025 L105.8145,36.6885 Z" id="Fill-8" fill="#FFFFFF"></path>
            <path d="M136.7451,36.6202 C136.7451,39.9512 136.8811,40.8352 137.6291,41.8542 C138.2401,42.8072 139.5991,43.4182 140.8911,43.4182 C142.7951,43.4182 144.0871,42.3982 144.6981,40.4952 C144.9711,39.6112 145.0381,39.5432 145.1741,37.8442 C145.1741,37.0282 145.8531,36.4162 146.6701,36.4162 C147.6891,36.4162 148.2331,37.1642 148.2331,38.4562 C148.2331,39.7472 147.7571,41.4472 147.0101,42.8072 C145.7181,45.0502 143.5431,46.2732 140.6201,46.2732 C135.4531,46.2732 133.0741,43.2142 133.0741,36.6202 L133.0741,17.9272 C133.0741,16.9742 132.6661,16.5662 131.7151,16.5662 L128.3151,16.5662 C127.2271,16.5662 126.5481,16.0232 126.5481,15.1402 C126.5481,14.3232 127.2271,13.7802 128.3151,13.7802 L131.7151,13.7802 C132.6661,13.7802 133.0741,13.3722 133.0741,12.4202 L133.0741,8.1382 C133.0741,6.7102 133.7541,5.8942 134.9091,5.8942 C136.0651,5.8942 136.7451,6.7102 136.7451,8.1382 L136.7451,12.4202 C136.7451,13.3722 137.1521,13.7802 138.1041,13.7802 L145.5821,13.7802 C146.6701,13.7802 147.2811,14.2562 147.2811,15.2072 C147.2811,16.0912 146.6701,16.5662 145.5821,16.5662 L138.1041,16.5662 C137.1521,16.5662 136.7451,16.9742 136.7451,17.9272 L136.7451,36.6202 Z" id="Fill-10" fill="#FFFFFF"></path>
            <path d="M175.6621,27.4434 C176.4771,27.4434 176.9541,27.1034 176.9541,26.3554 C176.9541,23.7044 175.5941,20.6454 173.4871,18.5384 C171.6511,16.7034 168.9331,15.6834 165.7371,15.6834 C162.3391,15.6834 159.4151,16.8394 157.5801,18.8784 C155.6771,20.9174 154.2491,24.2484 154.2491,26.4234 C154.2491,27.1034 154.6571,27.4434 155.4731,27.4434 L175.6621,27.4434 Z M155.4041,30.2304 C154.5211,30.2304 154.0451,30.6384 154.0451,31.5224 C154.0451,33.0174 154.5211,34.9894 155.2011,36.5524 C157.2401,41.0394 161.1151,43.4184 166.4171,43.4184 C171.8551,43.4184 175.6621,40.8354 176.8861,36.2804 C177.2251,34.9214 177.6341,34.4454 178.5851,34.4454 C179.5371,34.4454 180.1481,35.1924 180.1481,36.2804 C180.1481,37.4364 179.0611,39.7474 177.6341,41.5144 C175.1861,44.7104 171.3111,46.2734 166.0101,46.2734 C156.1521,46.2734 150.2381,40.0194 150.2381,29.5504 C150.2381,19.1504 156.1521,12.8284 165.8731,12.8284 C172.6711,12.8284 177.4971,16.0234 179.4691,21.7334 C180.1481,23.7044 180.7611,26.8994 180.7611,28.6674 C180.7611,29.7554 180.2171,30.2304 179.1291,30.2304 L155.4041,30.2304 Z" id="Fill-12" fill="#FFFFFF"></path>
            <path d="M191.0732,20.2373 C191.7532,17.9263 192.3652,16.8393 193.7242,15.6153 C195.5602,13.9163 198.4152,12.8283 201.2022,12.8283 C202.9692,12.8283 203.9892,13.5083 203.9892,14.5953 C203.9892,15.4113 203.5812,15.8863 202.9692,15.8863 C202.7652,15.8863 202.4942,15.8863 202.0862,15.8193 C201.6102,15.6833 201.3382,15.6833 201.0662,15.6833 C199.9112,15.6833 197.7352,16.2263 196.3072,16.8393 C192.9092,18.4023 191.0732,22.1403 191.0732,27.5793 L191.0732,41.1743 C191.0732,42.1273 191.4812,42.5343 192.4332,42.5343 L196.3762,42.5343 C197.4642,42.5343 198.0752,43.0783 198.0752,43.9623 C198.0752,44.7773 197.4642,45.3213 196.3762,45.3213 L183.2562,45.3213 C182.1692,45.3213 181.4882,44.7773 181.4882,43.8933 C181.4882,43.0783 182.1692,42.5343 183.2562,42.5343 L186.0432,42.5343 C186.9952,42.5343 187.4022,42.1273 187.4022,41.1743 L187.4022,17.9263 C187.4022,16.9743 186.9952,16.5663 186.0432,16.5663 L183.2562,16.5663 C182.1692,16.5663 181.4882,16.0233 181.4882,15.1393 C181.4882,14.3233 182.1692,13.7803 183.2562,13.7803 L189.4422,13.7803 C190.5972,13.7803 191.0732,14.2563 191.0732,15.4113 L191.0732,20.2373 Z" id="Fill-14" fill="#FFFFFF"></path>
            <path d="M231.0605,15.6153 C231.0605,14.4603 231.6035,13.7803 232.5555,13.7803 C233.5065,13.7803 234.0505,14.4603 234.0505,15.6153 L234.0505,23.7733 C234.0505,24.9283 233.4395,25.6773 232.4875,25.6773 C231.5365,25.6773 230.9925,25.0643 230.8565,23.9763 C230.2445,18.9463 226.3015,15.6833 220.9315,15.6833 C214.0655,15.6833 209.4435,21.1893 209.4435,29.4833 C209.4435,37.8443 214.0655,43.4193 221.0675,43.4193 C225.9615,43.4193 229.8365,40.6993 230.7195,36.6213 C231.1965,34.4453 231.4005,34.1053 232.5555,34.1053 C233.5065,34.1053 234.1875,34.8533 234.1875,35.8733 C234.1875,37.0283 233.1665,39.4753 231.9435,41.3113 C229.8365,44.5063 225.8935,46.2733 220.9315,46.2733 C211.6865,46.2733 205.6365,39.6793 205.6365,29.4833 C205.6365,19.4233 211.5505,12.8283 220.5915,12.8283 C225.6225,12.8283 229.7005,15.2753 231.0605,19.1503 L231.0605,15.6153 Z" id="Fill-16" fill="#FFFFFF"></path>
            <path d="M241.8008,29.0752 C241.8008,37.9122 246.3558,43.4192 253.6968,43.4192 C261.1748,43.4192 265.7968,38.1162 265.7968,29.7552 C265.7968,21.0542 261.2428,15.6832 253.9688,15.6832 C246.6958,15.6832 241.8008,21.1222 241.8008,29.0752 M269.6038,29.4832 C269.6038,39.6792 263.4178,46.2732 253.9018,46.2732 C244.1808,46.2732 237.9938,39.5442 237.9938,28.9392 C237.9938,19.3542 244.4518,12.8282 253.9018,12.8282 C263.5538,12.8282 269.6038,19.2862 269.6038,29.4832" id="Fill-18" fill="#FFFFFF"></path>
            <path d="M279.5977,19.8301 C281.2287,15.3441 285.1037,12.8281 290.6777,12.8281 C298.0197,12.8281 302.0307,16.4991 302.0307,23.2291 L302.0307,41.1761 C302.0307,42.1271 302.4387,42.5351 303.3897,42.5351 L306.1767,42.5351 C307.3317,42.5351 307.9447,43.0791 307.9447,43.9631 C307.9447,44.7781 307.2647,45.3221 306.1767,45.3221 L294.2127,45.3221 C293.1247,45.3221 292.4457,44.7781 292.4457,43.8941 C292.4457,43.0791 293.1247,42.5351 294.1447,42.5351 L296.9997,42.5351 C297.9517,42.5351 298.3597,42.1271 298.3597,41.1761 L298.3597,24.2491 C298.3597,18.6751 295.3007,15.6841 289.5897,15.6841 C283.4047,15.6841 279.5977,19.8981 279.5977,26.6961 L279.5977,41.1761 C279.5977,42.1271 280.0057,42.5351 280.9567,42.5351 L283.8127,42.5351 C284.8997,42.5351 285.5117,43.0791 285.5117,43.9631 C285.5117,44.7781 284.8997,45.3221 283.8127,45.3221 L271.7807,45.3221 C270.6927,45.3221 270.0127,44.7781 270.0127,43.8941 C270.0127,43.0791 270.6927,42.5351 271.7807,42.5351 L274.5677,42.5351 C275.5187,42.5351 275.9267,42.1271 275.9267,41.1761 L275.9267,17.9271 C275.9267,16.9761 275.5187,16.5671 274.5677,16.5671 L271.7807,16.5671 C270.6927,16.5671 270.0127,16.0231 270.0127,15.1401 C270.0127,14.3241 270.6927,13.7801 271.7807,13.7801 L277.9657,13.7801 C279.1217,13.7801 279.5977,14.2561 279.5977,15.4121 L279.5977,19.8301 Z" id="Fill-20" fill="#FFFFFF"></path>
            <path d="M3.3071,75.9024 C4.5081,75.9024 5.0221,75.3754 5.0221,74.3214 C5.0221,73.2314 4.4101,72.8394 3.2701,72.8394 L1.9591,72.8394 L1.9591,75.9024 L3.3071,75.9024 Z M3.0371,71.9684 C4.0301,71.9684 4.7161,71.6264 4.7161,70.5724 C4.7161,69.5184 4.1771,69.2124 3.1231,69.2124 L1.9591,69.2124 L1.9591,71.9684 L3.0371,71.9684 Z M0.8931,68.3054 L3.2341,68.3054 C5.1331,68.3054 5.8191,69.1014 5.8191,70.4244 C5.8191,71.3324 5.4641,72.0064 4.4831,72.2994 L4.4831,72.3484 C5.4881,72.5074 6.1501,73.0844 6.1501,74.3954 C6.1501,75.8164 5.2671,76.7974 3.3811,76.7974 L0.8931,76.7974 L0.8931,68.3054 Z" id="Fill-22" fill="#FFFFFF"></path>
            <path d="M7.4346,70.5108 L8.4276,70.5108 L8.4276,71.1848 L8.4766,71.1848 C8.8076,70.7808 9.3946,70.4248 10.0196,70.4248 C10.1666,70.4248 10.3136,70.4488 10.3876,70.4748 L10.3876,71.4058 C10.2526,71.3938 10.0696,71.3808 9.9586,71.3808 C9.3946,71.3808 8.8686,71.5648 8.4766,71.8468 L8.4766,76.7968 L7.4346,76.7968 L7.4346,70.5108 Z" id="Fill-24" fill="#FFFFFF"></path>
            <path d="M15.2754,73.9297 L15.2754,73.4147 C15.2754,71.8587 14.6264,71.2457 13.6944,71.2457 C12.6654,71.2457 12.1384,72.0917 12.1384,73.3777 L12.1384,73.9057 C12.1384,75.4117 12.7754,76.0617 13.7194,76.0617 C14.7364,76.0617 15.2754,75.2407 15.2754,73.9297 M11.0724,73.8307 L11.0724,73.5127 C11.0724,71.6017 12.0894,70.4007 13.7074,70.4007 C15.3984,70.4007 16.3414,71.5287 16.3414,73.4887 L16.3414,73.7947 C16.3414,75.7057 15.3364,76.9077 13.7074,76.9077 C11.9914,76.9077 11.0724,75.7677 11.0724,73.8307" id="Fill-26" fill="#FFFFFF"></path>
            <path d="M17.5654,75.1543 L17.5654,70.5103 L18.5944,70.5103 L18.5944,75.0563 C18.5944,75.7063 18.8034,76.0123 19.6364,76.0123 C20.2244,76.0123 20.7394,75.7923 21.1064,75.5953 L21.1064,70.5103 L22.1354,70.5103 L22.1354,76.7973 L21.2534,76.7973 L21.1554,76.2823 L21.0944,76.2823 C20.6284,76.6003 20.0284,76.9073 19.2934,76.9073 C18.1294,76.9073 17.5654,76.2453 17.5654,75.1543" id="Fill-28" fill="#FFFFFF"></path>
            <path d="M26.9619,72.6065 L26.9619,72.3855 C26.9619,71.5525 26.4969,71.1975 25.7739,71.1975 C25.0259,71.1975 24.5849,71.6015 24.5849,72.3615 L24.5849,72.5825 C24.5849,73.3775 25.0629,73.7575 25.7739,73.7575 C26.5209,73.7575 26.9619,73.3775 26.9619,72.6065 M27.4769,77.2745 C27.4769,76.7225 27.2319,76.4285 26.4599,76.4285 L24.9529,76.4285 C24.5479,76.5765 24.2169,76.9315 24.2169,77.4465 C24.2169,78.0345 24.6949,78.3655 25.7369,78.3655 C27.0239,78.3655 27.4769,77.9485 27.4769,77.2745 M23.1509,77.6175 C23.1509,76.9185 23.6539,76.4655 24.2789,76.2455 L24.2789,76.1965 C23.9109,76.0615 23.6419,75.7675 23.6419,75.3265 C23.6419,74.8845 23.8749,74.4935 24.3159,74.1625 C23.8869,73.8685 23.5559,73.3535 23.5559,72.6065 L23.5559,72.4475 C23.5559,71.1485 24.4869,70.4005 25.7739,70.4005 C26.0799,70.4005 26.3739,70.4375 26.6309,70.5105 L28.5799,70.5105 L28.5799,71.3075 L27.6239,71.3075 C27.8439,71.5775 27.9909,71.9195 27.9909,72.3975 L27.9909,72.5575 C27.9909,73.8805 27.0109,74.5425 25.7739,74.5425 C25.4299,74.5425 25.1119,74.5045 24.8299,74.4195 C24.7079,74.5425 24.5969,74.7505 24.5969,74.9465 C24.5969,75.2645 24.7689,75.4605 25.1729,75.4605 L26.6069,75.4605 C27.8079,75.4605 28.5429,75.9515 28.5429,77.1395 C28.5429,78.2915 27.6849,79.1985 25.7609,79.1985 C24.0339,79.1985 23.1509,78.5735 23.1509,77.6175" id="Fill-30" fill="#FFFFFF"></path>
            <path d="M29.5459,67.7784 L30.5879,67.7784 L30.5879,71.0014 L30.6369,71.0014 C31.1139,70.6704 31.8009,70.4004 32.5239,70.4004 C33.6389,70.4004 34.2019,70.8904 34.2019,72.0304 L34.2019,76.7974 L33.1729,76.7974 L33.1729,72.2024 C33.1729,71.5524 32.9279,71.2954 32.0829,71.2954 C31.5439,71.2954 30.9669,71.5034 30.5879,71.6874 L30.5879,76.7974 L29.5459,76.7974 L29.5459,67.7784 Z" id="Fill-32" fill="#FFFFFF"></path>
            <path d="M36.063,75.3877 L36.063,71.3677 L35.254,71.3677 L35.254,70.5107 L36.063,70.5107 L36.063,69.0287 L37.092,69.0287 L37.092,70.5107 L38.526,70.5107 L38.526,71.3677 L37.092,71.3677 L37.092,75.2407 C37.092,75.8287 37.288,76.0247 37.901,76.0247 C38.158,76.0247 38.416,75.9757 38.624,75.9267 L38.624,76.6247 C38.391,76.7477 38.121,76.8697 37.606,76.8697 C36.688,76.8697 36.063,76.4657 36.063,75.3877" id="Fill-34" fill="#FFFFFF"></path>
            <path d="M42.3594,75.3877 L42.3594,71.3677 L41.5504,71.3677 L41.5504,70.5107 L42.3594,70.5107 L42.3594,69.0287 L43.3884,69.0287 L43.3884,70.5107 L44.8224,70.5107 L44.8224,71.3677 L43.3884,71.3677 L43.3884,75.2407 C43.3884,75.8287 43.5844,76.0247 44.1974,76.0247 C44.4544,76.0247 44.7124,75.9757 44.9204,75.9267 L44.9204,76.6247 C44.6874,76.7477 44.4174,76.8697 43.9034,76.8697 C42.9844,76.8697 42.3594,76.4657 42.3594,75.3877" id="Fill-36" fill="#FFFFFF"></path>
            <path d="M49.9302,73.9297 L49.9302,73.4147 C49.9302,71.8587 49.2812,71.2457 48.3492,71.2457 C47.3202,71.2457 46.7932,72.0917 46.7932,73.3777 L46.7932,73.9057 C46.7932,75.4117 47.4302,76.0617 48.3742,76.0617 C49.3912,76.0617 49.9302,75.2407 49.9302,73.9297 M45.7272,73.8307 L45.7272,73.5127 C45.7272,71.6017 46.7442,70.4007 48.3622,70.4007 C50.0532,70.4007 50.9962,71.5287 50.9962,73.4887 L50.9962,73.7947 C50.9962,75.7057 49.9912,76.9077 48.3622,76.9077 C46.6462,76.9077 45.7272,75.7677 45.7272,73.8307" id="Fill-38" fill="#FFFFFF"></path>
            <g id="Group-42" transform="translate(53.000000, 70.222700)">
                <mask id="mask-2" fill="white">
                    <use xlink:href="#path-1"></use>
                </mask>
                <g id="Clip-41"></g>
                <path d="M1.1802,8.8164 L1.1802,8.0934 C1.3392,8.1184 1.5602,8.1424 1.7682,8.1424 C2.3192,8.1424 2.6502,7.8844 2.8952,7.1494 L3.1402,6.5004 L0.9232,0.2884 L2.0502,0.2884 L3.3732,4.2574 C3.5572,4.7964 3.6302,5.0544 3.6302,5.0544 L3.6552,5.0544 C3.6552,5.0544 3.7412,4.7364 3.8882,4.2704 L5.1132,0.2884 L6.1552,0.2884 L3.8392,7.2964 C3.4592,8.4614 2.9692,9.0004 1.9522,9.0004 C1.6822,9.0004 1.3642,8.9144 1.1802,8.8164" id="Fill-40" fill="#FFFFFF" mask="url(#mask-2)"></path>
            </g>
            <path d="M63.8706,73.9297 L63.8706,73.4147 C63.8706,71.8587 63.2216,71.2457 62.2896,71.2457 C61.2606,71.2457 60.7336,72.0917 60.7336,73.3777 L60.7336,73.9057 C60.7336,75.4117 61.3706,76.0617 62.3146,76.0617 C63.3316,76.0617 63.8706,75.2407 63.8706,73.9297 M59.6676,73.8307 L59.6676,73.5127 C59.6676,71.6017 60.6846,70.4007 62.3026,70.4007 C63.9936,70.4007 64.9366,71.5287 64.9366,73.4887 L64.9366,73.7947 C64.9366,75.7057 63.9316,76.9077 62.3026,76.9077 C60.5866,76.9077 59.6676,75.7677 59.6676,73.8307" id="Fill-43" fill="#FFFFFF"></path>
            <path d="M66.1602,75.1543 L66.1602,70.5103 L67.1892,70.5103 L67.1892,75.0563 C67.1892,75.7063 67.3982,76.0123 68.2312,76.0123 C68.8192,76.0123 69.3342,75.7923 69.7012,75.5953 L69.7012,70.5103 L70.7302,70.5103 L70.7302,76.7973 L69.8482,76.7973 L69.7502,76.2823 L69.6892,76.2823 C69.2232,76.6003 68.6232,76.9073 67.8882,76.9073 C66.7242,76.9073 66.1602,76.2453 66.1602,75.1543" id="Fill-45" fill="#FFFFFF"></path>
            <path d="M78.5825,73.8194 L78.5825,73.4154 C78.5825,71.7854 78.0675,71.2834 76.9525,71.2834 C76.4015,71.2834 75.9115,71.4914 75.6535,71.6134 L75.6535,75.8894 C75.8865,75.9754 76.2665,76.0614 76.8055,76.0614 C77.7735,76.0614 78.5825,75.5844 78.5825,73.8194 M74.6125,76.6004 L74.6125,67.7784 L75.6535,67.7784 L75.6535,70.8664 L75.7035,70.8664 C76.1075,70.6214 76.6465,70.4004 77.4065,70.4004 C78.5585,70.4004 79.6485,71.0874 79.6485,73.3534 L79.6485,73.6724 C79.6485,75.7554 78.6675,76.9314 76.7445,76.9314 C76.0215,76.9314 75.0785,76.7844 74.6125,76.6004" id="Fill-47" fill="#FFFFFF"></path>
            <g id="Group-51" transform="translate(80.000000, 70.222700)">
                <mask id="mask-4" fill="white">
                    <use xlink:href="#path-3"></use>
                </mask>
                <g id="Clip-50"></g>
                <path d="M0.4443,8.8164 L0.4443,8.0934 C0.6033,8.1184 0.8243,8.1424 1.0323,8.1424 C1.5833,8.1424 1.9143,7.8844 2.1593,7.1494 L2.4043,6.5004 L0.1873,0.2884 L1.3143,0.2884 L2.6373,4.2574 C2.8213,4.7964 2.8943,5.0544 2.8943,5.0544 L2.9193,5.0544 C2.9193,5.0544 3.0053,4.7364 3.1523,4.2704 L4.3773,0.2884 L5.4193,0.2884 L3.1033,7.2964 C2.7233,8.4614 2.2333,9.0004 1.2163,9.0004 C0.9463,9.0004 0.6283,8.9144 0.4443,8.8164" id="Fill-49" fill="#FFFFFF" mask="url(#mask-4)"></path>
            </g>
            <path d="M88.8477,68.3057 L90.1467,68.3057 L92.8057,73.5497 C93.1727,74.2727 93.5767,75.1547 93.5767,75.1547 L93.6017,75.1547 C93.6017,75.1547 93.5767,74.5047 93.5767,73.6357 L93.5767,68.3057 L94.5447,68.3057 L94.5447,76.7967 L93.3927,76.7967 L90.6237,71.3807 C90.1707,70.4867 89.8277,69.7147 89.8277,69.7147 L89.7907,69.7147 C89.7907,69.7147 89.8277,70.3397 89.8277,71.1727 L89.8277,76.7967 L88.8477,76.7967 L88.8477,68.3057 Z" id="Fill-52" fill="#FFFFFF"></path>
            <path d="M96.2705,75.1543 L96.2705,70.5103 L97.2995,70.5103 L97.2995,75.0563 C97.2995,75.7063 97.5085,76.0123 98.3415,76.0123 C98.9295,76.0123 99.4445,75.7923 99.8115,75.5953 L99.8115,70.5103 L100.8405,70.5103 L100.8405,76.7973 L99.9585,76.7973 L99.8605,76.2823 L99.7995,76.2823 C99.3335,76.6003 98.7335,76.9073 97.9985,76.9073 C96.8345,76.9073 96.2705,76.2453 96.2705,75.1543" id="Fill-54" fill="#FFFFFF"></path>
            <path d="M102.4326,70.5108 L103.4256,70.5108 L103.4256,71.0258 L103.4746,71.0258 C103.9396,70.7068 104.5776,70.4008 105.2386,70.4008 C105.9126,70.4008 106.3536,70.6208 106.6226,71.0738 L106.6726,71.0738 C107.2606,70.6698 107.8976,70.4008 108.5966,70.4008 C109.5886,70.4008 110.1886,70.8788 110.1886,72.0308 L110.1886,76.7968 L109.1476,76.7968 L109.1476,72.2018 C109.1476,71.5768 108.9266,71.2948 108.1796,71.2948 C107.7386,71.2948 107.2606,71.4668 106.8196,71.6988 L106.8196,76.7968 L105.7896,76.7968 L105.7896,72.2018 C105.7896,71.5648 105.5576,71.2948 104.8346,71.2948 C104.3316,71.2948 103.8666,71.4788 103.4746,71.6878 L103.4746,76.7968 L102.4326,76.7968 L102.4326,70.5108 Z" id="Fill-56" fill="#FFFFFF"></path>
            <polygon id="Fill-58" fill="#FFFFFF" points="111.9019 68.3057 116.3859 68.3057 116.3859 69.2117 112.9679 69.2117 112.9679 72.1167 115.6269 72.1167 115.6269 73.0227 112.9679 73.0227 112.9679 76.7967 111.9019 76.7967"></polygon>
            <path d="M122.7808,72.962 L122.7808,72.337 C122.7808,70.352 122.2048,69.066 120.5508,69.053 C119.0068,69.053 118.3698,70.352 118.3698,72.128 L118.3698,72.741 C118.3698,74.726 118.9338,76.049 120.5878,76.049 C122.1068,76.049 122.7808,74.775 122.7808,72.962 M117.2178,72.766 L117.2178,72.337 C117.2178,69.715 118.4188,68.171 120.5878,68.171 C122.7068,68.171 123.9208,69.58 123.9208,72.337 L123.9208,72.777 C123.9208,75.351 122.7438,76.932 120.5628,76.932 C118.4678,76.932 117.2178,75.571 117.2178,72.766" id="Fill-60" fill="#FFFFFF"></path>
            <path d="M125.0088,72.7901 L125.0088,72.2871 C125.0088,69.2251 126.6138,68.1711 128.5628,68.1711 C129.3708,68.1711 129.9838,68.3541 130.4368,68.6001 L130.4368,69.4941 C129.8118,69.2491 129.2608,69.0901 128.5128,69.0901 C127.1408,69.0901 126.1608,69.8981 126.1608,72.1521 L126.1608,72.7771 C126.1608,74.8361 126.8218,76.0131 128.5628,76.0131 C129.4318,76.0131 130.0448,75.7551 130.5348,75.5101 L130.5348,76.4171 C130.0088,76.7231 129.2978,76.9321 128.4278,76.9321 C126.3078,76.9321 125.0088,75.6441 125.0088,72.7901" id="Fill-62" fill="#FFFFFF"></path>
            <path d="M131.8569,74.0762 L131.8569,68.3052 L132.9229,68.3052 L132.9229,73.9662 C132.9229,75.5342 133.5359,76.0612 134.7609,76.0612 C135.9859,76.0612 136.5129,75.5472 136.5129,73.9542 L136.5129,68.3052 L137.5179,68.3052 L137.5179,74.0402 C137.5179,76.0132 136.6109,76.9432 134.7239,76.9432 C132.8249,76.9432 131.8569,75.9642 131.8569,74.0762" id="Fill-64" fill="#FFFFFF"></path>
            <path d="M138.8394,76.417 L138.8394,75.51 C139.4274,75.804 140.1744,76.024 140.9344,76.024 C142.0864,76.024 142.6004,75.485 142.6004,74.518 C142.6004,73.647 142.2334,73.354 141.3514,73.011 L140.6154,72.729 C139.5984,72.337 138.9244,71.748 138.9244,70.438 C138.9244,69.065 139.8074,68.171 141.4614,68.171 C142.3924,68.171 142.9194,68.379 143.3114,68.587 L143.3114,69.494 C142.8824,69.298 142.2574,69.09 141.4364,69.09 C140.5054,69.09 139.9784,69.53 139.9784,70.364 C139.9784,71.111 140.2354,71.442 141.0444,71.748 L141.7794,72.03 C142.9194,72.472 143.6914,72.962 143.6914,74.432 C143.6914,75.89 142.9074,76.943 141.0074,76.943 C140.0404,76.943 139.3294,76.698 138.8394,76.417" id="Fill-66" fill="#FFFFFF"></path>
            <polygon id="Fill-68" fill="#FFFFFF" points="147.4263 68.3057 151.9103 68.3057 151.9103 69.2117 148.4923 69.2117 148.4923 72.1167 151.1513 72.1167 151.1513 73.0227 148.4923 73.0227 148.4923 76.7967 147.4263 76.7967"></polygon>
            <path d="M156.6763,73.9297 L156.6763,73.4147 C156.6763,71.8587 156.0273,71.2457 155.0953,71.2457 C154.0663,71.2457 153.5393,72.0917 153.5393,73.3777 L153.5393,73.9057 C153.5393,75.4117 154.1763,76.0617 155.1203,76.0617 C156.1373,76.0617 156.6763,75.2407 156.6763,73.9297 M152.4733,73.8307 L152.4733,73.5127 C152.4733,71.6017 153.4903,70.4007 155.1083,70.4007 C156.7993,70.4007 157.7423,71.5287 157.7423,73.4887 L157.7423,73.7947 C157.7423,75.7057 156.7373,76.9077 155.1083,76.9077 C153.3923,76.9077 152.4733,75.7677 152.4733,73.8307" id="Fill-70" fill="#FFFFFF"></path>
            <path d="M158.9658,75.1543 L158.9658,70.5103 L159.9948,70.5103 L159.9948,75.0563 C159.9948,75.7063 160.2038,76.0123 161.0368,76.0123 C161.6248,76.0123 162.1398,75.7923 162.5068,75.5953 L162.5068,70.5103 L163.5358,70.5103 L163.5358,76.7973 L162.6538,76.7973 L162.5558,76.2823 L162.4948,76.2823 C162.0288,76.6003 161.4288,76.9073 160.6938,76.9073 C159.5298,76.9073 158.9658,76.2453 158.9658,75.1543" id="Fill-72" fill="#FFFFFF"></path>
            <path d="M165.1279,70.5108 L166.1199,70.5108 L166.1199,71.0258 L166.1689,71.0258 C166.6589,70.6828 167.3819,70.4008 168.1169,70.4008 C169.2319,70.4008 169.7839,70.8908 169.7839,72.0308 L169.7839,76.7968 L168.7549,76.7968 L168.7549,72.2018 C168.7549,71.5528 168.5099,71.2948 167.6639,71.2948 C167.1249,71.2948 166.5489,71.5028 166.1689,71.6878 L166.1689,76.7968 L165.1279,76.7968 L165.1279,70.5108 Z" id="Fill-74" fill="#FFFFFF"></path>
            <path d="M175.0381,75.5957 L175.0381,71.5887 C174.7931,71.4177 174.3041,71.2837 173.7641,71.2837 C172.6611,71.2837 172.1101,71.9197 172.1101,73.5127 L172.1101,73.8307 C172.1101,75.4237 172.7101,76.0617 173.7391,76.0617 C174.3281,76.0617 174.7681,75.8037 175.0381,75.5957 M171.0311,73.8677 L171.0311,73.6357 C171.0311,71.4787 172.0241,70.4007 173.6291,70.4007 C174.2541,70.4007 174.7441,70.5597 175.0381,70.7437 L175.0381,67.7787 L176.0671,67.7787 L176.0671,76.7967 L175.1971,76.7967 L175.1001,76.3187 L175.0381,76.3187 C174.7081,76.6497 174.1561,76.9077 173.4211,76.9077 C172.2081,76.9077 171.0311,76.1587 171.0311,73.8677" id="Fill-76" fill="#FFFFFF"></path>
            <path d="M180.5752,75.7305 L180.5752,73.8685 L179.3982,74.0025 C178.7002,74.0885 178.3572,74.3825 178.3572,75.0695 C178.3572,75.7545 178.7372,76.0985 179.3982,76.0985 C179.9012,76.0985 180.3422,75.9385 180.5752,75.7305 M177.2792,75.1185 C177.2792,74.0155 177.9402,73.4265 179.1172,73.2675 L180.5752,73.0715 L180.5752,72.4715 C180.5752,71.5525 180.2202,71.2945 179.1792,71.2945 C178.6022,71.2945 178.1252,71.3935 177.7812,71.4915 L177.7812,70.7445 C178.2712,70.5355 178.8352,70.4005 179.5832,70.4005 C180.9062,70.4005 181.6162,70.9895 181.6162,72.2025 L181.6162,76.7965 L180.7712,76.7965 L180.6732,76.3185 L180.5992,76.3185 C180.3172,76.6375 179.8402,76.9075 179.1292,76.9075 C178.0392,76.9075 177.2792,76.3315 177.2792,75.1185" id="Fill-78" fill="#FFFFFF"></path>
            <path d="M183.4648,75.3877 L183.4648,71.3677 L182.6558,71.3677 L182.6558,70.5107 L183.4648,70.5107 L183.4648,69.0287 L184.4938,69.0287 L184.4938,70.5107 L185.9278,70.5107 L185.9278,71.3677 L184.4938,71.3677 L184.4938,75.2407 C184.4938,75.8287 184.6908,76.0247 185.3028,76.0247 C185.5598,76.0247 185.8178,75.9757 186.0258,75.9267 L186.0258,76.6247 C185.7928,76.7477 185.5238,76.8697 185.0088,76.8697 C184.0898,76.8697 183.4648,76.4657 183.4648,75.3877" id="Fill-80" fill="#FFFFFF"></path>
            <path d="M187.213,76.7967 L188.242,76.7967 L188.242,70.5107 L187.213,70.5107 L187.213,76.7967 Z M187.201,69.2867 L188.255,69.2867 L188.255,68.1957 L187.201,68.1957 L187.201,69.2867 Z" id="Fill-82" fill="#FFFFFF"></path>
            <path d="M193.7187,73.9297 L193.7187,73.4147 C193.7187,71.8587 193.0697,71.2457 192.1377,71.2457 C191.1097,71.2457 190.5817,72.0917 190.5817,73.3777 L190.5817,73.9057 C190.5817,75.4117 191.2187,76.0617 192.1627,76.0617 C193.1797,76.0617 193.7187,75.2407 193.7187,73.9297 M189.5157,73.8307 L189.5157,73.5127 C189.5157,71.6017 190.5327,70.4007 192.1507,70.4007 C193.8407,70.4007 194.7847,71.5287 194.7847,73.4887 L194.7847,73.7947 C194.7847,75.7057 193.7807,76.9077 192.1507,76.9077 C190.4347,76.9077 189.5157,75.7677 189.5157,73.8307" id="Fill-84" fill="#FFFFFF"></path>
            <path d="M196.0322,70.5108 L197.0242,70.5108 L197.0242,71.0258 L197.0732,71.0258 C197.5632,70.6828 198.2862,70.4008 199.0212,70.4008 C200.1362,70.4008 200.6882,70.8908 200.6882,72.0308 L200.6882,76.7968 L199.6592,76.7968 L199.6592,72.2018 C199.6592,71.5528 199.4142,71.2948 198.5682,71.2948 C198.0292,71.2948 197.4532,71.5028 197.0732,71.6878 L197.0732,76.7968 L196.0322,76.7968 L196.0322,70.5108 Z" id="Fill-85" fill="#FFFFFF"></path>
            <path d="M207.4619,75.7305 L207.4619,73.8685 L206.2849,74.0025 C205.5869,74.0885 205.2439,74.3825 205.2439,75.0695 C205.2439,75.7545 205.6239,76.0985 206.2849,76.0985 C206.7879,76.0985 207.2289,75.9385 207.4619,75.7305 M204.1659,75.1185 C204.1659,74.0155 204.8269,73.4265 206.0039,73.2675 L207.4619,73.0715 L207.4619,72.4715 C207.4619,71.5525 207.1069,71.2945 206.0659,71.2945 C205.4889,71.2945 205.0119,71.3935 204.6679,71.4915 L204.6679,70.7445 C205.1579,70.5355 205.7219,70.4005 206.4699,70.4005 C207.7929,70.4005 208.5029,70.9895 208.5029,72.2025 L208.5029,76.7965 L207.6579,76.7965 L207.5599,76.3185 L207.4859,76.3185 C207.2039,76.6375 206.7269,76.9075 206.0159,76.9075 C204.9259,76.9075 204.1659,76.3315 204.1659,75.1185" id="Fill-86" fill="#FFFFFF"></path>
            <path d="M210.0586,70.5108 L211.0506,70.5108 L211.0506,71.0258 L211.0996,71.0258 C211.5896,70.6828 212.3126,70.4008 213.0476,70.4008 C214.1626,70.4008 214.7146,70.8908 214.7146,72.0308 L214.7146,76.7968 L213.6856,76.7968 L213.6856,72.2018 C213.6856,71.5528 213.4406,71.2948 212.5946,71.2948 C212.0556,71.2948 211.4796,71.5028 211.0996,71.6878 L211.0996,76.7968 L210.0586,76.7968 L210.0586,70.5108 Z" id="Fill-87" fill="#FFFFFF"></path>
            <path d="M219.9697,75.5957 L219.9697,71.5887 C219.7247,71.4177 219.2357,71.2837 218.6957,71.2837 C217.5927,71.2837 217.0417,71.9197 217.0417,73.5127 L217.0417,73.8307 C217.0417,75.4237 217.6417,76.0617 218.6707,76.0617 C219.2597,76.0617 219.6997,75.8037 219.9697,75.5957 M215.9627,73.8677 L215.9627,73.6357 C215.9627,71.4787 216.9557,70.4007 218.5607,70.4007 C219.1857,70.4007 219.6757,70.5597 219.9697,70.7437 L219.9697,67.7787 L220.9987,67.7787 L220.9987,76.7967 L220.1287,76.7967 L220.0317,76.3187 L219.9697,76.3187 C219.6397,76.6497 219.0877,76.9077 218.3527,76.9077 C217.1397,76.9077 215.9627,76.1587 215.9627,73.8677" id="Fill-88" fill="#FFFFFF"></path>
            <path d="M230.1865,72.962 L230.1865,72.337 C230.1865,70.352 229.6105,69.066 227.9565,69.053 C226.4125,69.053 225.7755,70.352 225.7755,72.128 L225.7755,72.741 C225.7755,74.726 226.3385,76.049 227.9935,76.049 C229.5115,76.049 230.1865,74.775 230.1865,72.962 M224.6235,72.766 L224.6235,72.337 C224.6235,69.715 225.8245,68.171 227.9935,68.171 C230.1125,68.171 231.3255,69.58 231.3255,72.337 L231.3255,72.777 C231.3255,75.351 230.1495,76.932 227.9685,76.932 C225.8735,76.932 224.6235,75.571 224.6235,72.766" id="Fill-89" fill="#FFFFFF"></path>
            <polygon id="Fill-90" fill="#FFFFFF" points="232.6709 68.3057 233.5409 68.3057 233.3689 70.5597 232.2419 70.5597"></polygon>
            <path d="M237.3145,72.337 C238.4425,72.337 238.8955,71.834 238.8955,70.756 C238.8955,69.653 238.4545,69.212 237.2785,69.212 L236.1745,69.212 L236.1745,72.337 L237.3145,72.337 Z M235.1095,68.306 L237.3635,68.306 C239.1655,68.306 240.0355,69.077 240.0355,70.732 C240.0355,71.969 239.4595,72.607 238.5525,72.925 L238.5525,72.986 L240.5745,76.797 L239.3855,76.797 L237.5105,73.194 L236.1745,73.194 L236.1745,76.797 L235.1095,76.797 L235.1095,68.306 Z" id="Fill-91" fill="#FFFFFF"></path>
            <path d="M242.1904,73.1329 L244.9224,73.1329 C244.9224,71.7849 244.5054,71.2459 243.6114,71.2459 C242.8884,71.2459 242.2524,71.6989 242.1904,73.1329 M241.1244,73.7949 L241.1244,73.5259 C241.1244,71.3939 242.2144,70.4009 243.6484,70.4009 C245.2414,70.4009 246.0134,71.3079 246.0134,73.3539 L246.0134,73.9789 L242.1904,73.9789 C242.2394,75.4609 242.8774,76.0129 244.0524,76.0129 C244.7994,76.0129 245.3394,75.8289 245.8414,75.5599 L245.8414,76.3189 C245.5104,76.6009 244.8364,76.9069 243.9184,76.9069 C242.0554,76.9069 241.1244,75.7789 241.1244,73.7949" id="Fill-92" fill="#FFFFFF"></path>
            <path d="M247.285,76.7967 L248.314,76.7967 L248.314,70.5107 L247.285,70.5107 L247.285,76.7967 Z M247.273,69.2867 L248.327,69.2867 L248.327,68.1957 L247.273,68.1957 L247.273,69.2867 Z" id="Fill-93" fill="#FFFFFF"></path>
            <polygon id="Fill-94" fill="#FFFFFF" points="249.968 76.7977 250.997 76.7977 250.997 67.7787 249.968 67.7787"></polygon>
            <polygon id="Fill-95" fill="#FFFFFF" points="252.65 76.7977 253.679 76.7977 253.679 67.7787 252.65 67.7787"></polygon>
            <path d="M254.9404,79.0391 L254.9404,78.3161 C255.0994,78.3411 255.3204,78.3651 255.5284,78.3651 C256.0804,78.3651 256.4104,78.1071 256.6554,77.3721 L256.9004,76.7231 L254.6824,70.5111 L255.8104,70.5111 L257.1334,74.4801 C257.3174,75.0191 257.3904,75.2771 257.3904,75.2771 L257.4154,75.2771 C257.4154,75.2771 257.5014,74.9591 257.6484,74.4931 L258.8734,70.5111 L259.9154,70.5111 L257.5994,77.5191 C257.2194,78.6841 256.7294,79.2231 255.7114,79.2231 C255.4424,79.2231 255.1244,79.1371 254.9404,79.0391" id="Fill-96" fill="#FFFFFF"></path>
            <path d="M263.3437,68.3057 L264.9477,68.3057 L266.5537,73.8557 C266.7867,74.6647 266.9707,75.4977 266.9707,75.4977 L267.0067,75.4977 C267.0067,75.4977 267.1917,74.6647 267.4237,73.8557 L269.0037,68.3057 L270.6097,68.3057 L270.6097,76.7967 L269.5687,76.7967 L269.5687,71.7117 C269.5687,70.6337 269.5927,69.5057 269.5927,69.5057 L269.5557,69.5057 C269.5557,69.5057 269.3347,70.4247 269.0537,71.3807 L267.4607,76.7967 L266.4067,76.7967 L264.8137,71.3937 C264.5317,70.4247 264.3237,69.5307 264.3237,69.5307 L264.2867,69.5307 C264.2867,69.5307 264.3237,70.6337 264.3237,71.7237 L264.3237,76.7967 L263.3437,76.7967 L263.3437,68.3057 Z" id="Fill-97" fill="#FFFFFF"></path>
            <path d="M273.083,73.1329 L275.815,73.1329 C275.815,71.7849 275.398,71.2459 274.504,71.2459 C273.781,71.2459 273.145,71.6989 273.083,73.1329 M272.017,73.7949 L272.017,73.5259 C272.017,71.3939 273.107,70.4009 274.541,70.4009 C276.134,70.4009 276.906,71.3079 276.906,73.3539 L276.906,73.9789 L273.083,73.9789 C273.132,75.4609 273.77,76.0129 274.945,76.0129 C275.692,76.0129 276.232,75.8289 276.734,75.5599 L276.734,76.3189 C276.403,76.6009 275.729,76.9069 274.811,76.9069 C272.948,76.9069 272.017,75.7789 272.017,73.7949" id="Fill-98" fill="#FFFFFF"></path>
            <path d="M281.8301,75.5957 L281.8301,71.5887 C281.5851,71.4177 281.0961,71.2837 280.5561,71.2837 C279.4531,71.2837 278.9021,71.9197 278.9021,73.5127 L278.9021,73.8307 C278.9021,75.4237 279.5021,76.0617 280.5311,76.0617 C281.1201,76.0617 281.5601,75.8037 281.8301,75.5957 M277.8241,73.8677 L277.8241,73.6357 C277.8241,71.4787 278.8161,70.4007 280.4211,70.4007 C281.0461,70.4007 281.5361,70.5597 281.8301,70.7437 L281.8301,67.7787 L282.8591,67.7787 L282.8591,76.7967 L281.9891,76.7967 L281.8921,76.3187 L281.8301,76.3187 C281.5001,76.6497 280.9481,76.9077 280.2131,76.9077 C279.0001,76.9077 277.8241,76.1587 277.8241,73.8677" id="Fill-99" fill="#FFFFFF"></path>
            <path d="M284.486,76.7967 L285.515,76.7967 L285.515,70.5107 L284.486,70.5107 L284.486,76.7967 Z M284.475,69.2867 L285.529,69.2867 L285.529,68.1957 L284.475,68.1957 L284.475,69.2867 Z" id="Fill-100" fill="#FFFFFF"></path>
            <path d="M290.0488,75.7305 L290.0488,73.8685 L288.8718,74.0025 C288.1738,74.0885 287.8308,74.3825 287.8308,75.0695 C287.8308,75.7545 288.2108,76.0985 288.8718,76.0985 C289.3748,76.0985 289.8158,75.9385 290.0488,75.7305 M286.7528,75.1185 C286.7528,74.0155 287.4138,73.4265 288.5908,73.2675 L290.0488,73.0715 L290.0488,72.4715 C290.0488,71.5525 289.6938,71.2945 288.6528,71.2945 C288.0758,71.2945 287.5978,71.3935 287.2548,71.4915 L287.2548,70.7445 C287.7448,70.5355 288.3088,70.4005 289.0568,70.4005 C290.3798,70.4005 291.0898,70.9895 291.0898,72.2025 L291.0898,76.7965 L290.2448,76.7965 L290.1468,76.3185 L290.0728,76.3185 C289.7908,76.6375 289.3138,76.9075 288.6028,76.9075 C287.5128,76.9075 286.7528,76.3315 286.7528,75.1185" id="Fill-101" fill="#FFFFFF"></path>
            <polygon id="Fill-102" fill="#FFFFFF" points="295.119 76.7967 296.185 76.7967 296.185 68.3057 295.119 68.3057"></polygon>
            <path d="M297.9619,70.5108 L298.9539,70.5108 L298.9539,71.0258 L299.0029,71.0258 C299.4929,70.6828 300.2159,70.4008 300.9509,70.4008 C302.0659,70.4008 302.6179,70.8908 302.6179,72.0308 L302.6179,76.7968 L301.5889,76.7968 L301.5889,72.2018 C301.5889,71.5528 301.3439,71.2948 300.4979,71.2948 C299.9589,71.2948 299.3829,71.5028 299.0029,71.6878 L299.0029,76.7968 L297.9619,76.7968 L297.9619,70.5108 Z" id="Fill-103" fill="#FFFFFF"></path>
            <path d="M303.8408,73.8311 L303.8408,73.5131 C303.8408,71.3191 305.0548,70.4001 306.6108,70.4001 C307.3328,70.4001 307.7748,70.5601 308.1418,70.7801 L308.1418,71.6501 C307.6768,71.4421 307.2838,71.2831 306.5488,71.2831 C305.4458,71.2831 304.9068,72.0791 304.9068,73.3911 L304.9068,73.8071 C304.9068,75.3991 305.5078,76.0241 306.6588,76.0241 C307.4068,76.0241 307.9338,75.7681 308.2158,75.6081 L308.2158,76.4411 C307.8478,76.6981 307.3208,76.9071 306.5368,76.9071 C304.8828,76.9071 303.8408,75.9511 303.8408,73.8311" id="Fill-104" fill="#FFFFFF"></path>
            <polygon id="Fill-105" fill="#FFFFFF" points="309.586 76.7967 310.763 76.7967 310.763 75.5837 309.586 75.5837"></polygon>
        </g>
    </g>
</svg>