<?xml version="1.0" encoding="UTF-8"?>
<svg width="679px" height="290px" viewBox="0 0 679 290" version="1.1" xmlns="http://www.w3.org/2000/svg" xmlns:xlink="http://www.w3.org/1999/xlink">
    <!-- Generator: Sketch 41.2 (35397) - http://www.bohemiancoding.com/sketch -->
    <title>Group 5</title>
    <desc>Created with Sketch.</desc>
    <defs>
        <polygon id="path-1" points="0.401638348 43.1886339 43.6020467 43.1886339 43.6020467 0.00908697274 0.401638348 0.00908697274 0.401638348 43.1886339"></polygon>
        <polygon id="path-3" points="34.8393202 0.489307591 0.394986023 0.489307591 0.394986023 34.890678 34.8393202 34.890678 34.8393202 0.489307591"></polygon>
        <polygon id="path-5" points="227.611463 0.280403096 0.298110542 0.280403096 0.298110542 228.576003 227.611463 228.576003"></polygon>
    </defs>
    <g id="Page-1" stroke="none" stroke-width="1" fill="none" fill-rule="evenodd">
        <g id="Group-4" transform="translate(-602.000000, -298.000000)">
            <g id="Group-5" transform="translate(601.000000, 298.000000)">
                <g id="Page-1" transform="translate(451.436473, 0.000000)">
                    <g id="Group-7" transform="translate(8.406896, 246.372998)">
                        <mask id="mask-2" fill="white">
                            <use xlink:href="#path-1"></use>
                        </mask>
                        <g id="Clip-6"></g>
                        <path d="M0.401654296,21.6266103 C0.387421678,9.49453039 9.90168142,-0.0329804114 21.9881188,0.0092266627 C33.8070811,0.0504521769 43.5220698,9.73255866 43.6015762,21.5490671 C43.6810825,33.3071726 33.6740797,43.2513556 21.8261614,43.1885358 C9.85162187,43.1247344 0.415396134,33.6276519 0.401654296,21.6266103" id="Fill-5" fill="#FFFFFF" mask="url(#mask-2)"></path>
                    </g>
                    <g id="Group-16" transform="translate(179.198312, 0.001472)">
                        <mask id="mask-4" fill="white">
                            <use xlink:href="#path-3"></use>
                        </mask>
                        <g id="Clip-15"></g>
                        <path d="M0.395176001,17.5855283 C0.438855414,8.03396932 8.01109897,0.491172555 17.5577502,0.489209435 C27.1333574,0.487246316 34.8876803,8.25187561 34.8390931,17.793619 C34.7905059,27.3191667 26.9566767,34.9772968 17.3506411,34.8899379 C7.84521535,34.8035607 0.351496587,27.155737 0.395176001,17.5855283" id="Fill-14" fill="#FFFFFF" mask="url(#mask-4)"></path>
                    </g>
                    <path d="M0.415378911,40.3740601 C0.405072532,33.4295241 5.87825032,27.9322981 12.8272034,27.9077591 C19.736894,27.8837109 25.4108008,33.4064574 25.4785284,40.2224091 C25.5462561,47.0481764 19.6902699,52.9262476 12.8576317,52.8909115 C6.01272402,52.8550845 0.425194509,47.234182 0.415378911,40.3740601" id="Fill-17" fill="#FFFFFF"></path>
                    <path d="M1.48974526,156.125537 C1.33073256,156.476445 1.17171986,156.827353 1.01319794,157.17826 C0.497879017,156.461231 0.519473334,155.664204 0.651002356,154.811229 C1.32778788,155.025209 1.329751,155.626414 1.48974526,156.125537" id="Fill-19" fill="#434141"></path>
                    <g id="Group-23" transform="translate(0.063637, 24.049689)">
                        <mask id="mask-6" fill="white">
                            <use xlink:href="#path-5"></use>
                        </mask>
                        <g id="Clip-22"></g>
                        <path d="M197.312575,147.719164 C194.872908,147.538557 192.401831,147.559661 189.958728,147.715238 C188.182105,147.827627 187.809603,147.177343 187.818928,145.512618 C187.886164,133.655865 187.863098,121.798132 187.849356,109.940888 C187.84543,106.662969 187.507282,103.428239 186.61259,100.25142 C182.966586,87.3095534 168.503302,87.6491731 161.951881,93.5316614 C157.63498,97.4078413 155.409293,102.111476 155.456408,107.997891 C155.555546,120.426892 155.443157,132.857366 155.531988,145.286368 C155.54573,147.212679 155.065747,147.852166 153.104591,147.719655 C150.499531,147.543465 147.869932,147.589598 145.258983,147.709349 C143.768975,147.778058 143.266907,147.378072 143.323347,145.823772 C143.444569,142.475181 143.361137,139.119718 143.360646,135.76671 C143.357701,121.946838 143.387148,108.126966 143.33169,94.3070937 C143.315985,90.4677223 143.084828,86.6268785 142.874774,82.7909426 C142.812445,81.6518424 143.065196,81.1870738 144.305888,81.2292809 C146.837822,81.3156581 149.378099,81.3347985 151.90856,81.2248638 C153.403966,81.1595901 153.632179,81.8417742 153.675368,83.1128942 C153.771561,85.941259 154.020877,88.7647159 154.242219,92.1123258 C162.464746,80.2791309 175.723656,76.530063 187.434647,82.4994193 C194.69181,86.1984277 197.849979,92.7469043 199.281584,100.37706 C199.705127,102.634648 199.86463,104.910394 199.862176,107.206263 C199.848925,119.881145 199.797393,132.556518 199.903402,145.23091 C199.92107,147.339301 199.305632,147.866889 197.312575,147.719164 M122.750343,127.81902 C118.767173,139.604118 108.209515,147.77953 95.8133954,148.865136 C89.9284533,149.380454 84.27565,148.827345 78.8235758,146.461786 C65.3055334,140.595494 59.4279529,126.939542 60.1616689,112.746677 C60.7172318,101.998597 64.3966089,92.6772135 73.2802165,85.9932817 C79.1008665,81.6135615 85.7774366,79.797185 93.0007357,79.7701921 C110.143188,79.6573127 123.16407,91.6132026 124.741928,108.737987 C125.342642,115.258489 124.851372,121.603292 122.750343,127.81902 M223.824016,85.4151429 C209.342572,30.0055979 155.329296,-7.6475292 95.5105842,1.70673629 C66.2728606,6.27884213 42.3743319,20.5610289 23.9033384,43.6718559 C11.0350886,59.7718915 3.31266638,78.1727034 0.443566902,98.5950379 C0.362588213,99.0396846 -0.0207109131,99.6315652 0.922568114,99.5765978 C10.3455428,78.5501132 34.2283666,76.8019551 48.9605985,82.6554873 C50.0177385,83.075595 50.2312278,83.6154529 49.8474379,84.7098921 C49.1205928,86.7829466 48.5400001,88.9099868 47.9643153,91.03261 C47.6737736,92.1054549 47.3675269,92.4421299 46.1626622,91.8792054 C42.4135943,90.1285934 38.3921435,89.4704575 34.2725368,89.3693568 C23.8459171,89.1141512 15.5070753,94.2967873 12.0544385,103.432165 C9.26386382,110.815458 9.18190357,118.3239 12.1761519,125.666459 C15.2567776,133.221525 21.0303127,137.658667 29.0673248,138.90034 C34.8997535,139.801412 40.6369709,139.028433 46.1263444,136.845444 C47.5118162,136.294789 48.1081138,136.308531 48.3446697,137.965404 C48.6082186,139.814172 49.0857474,141.6438 49.6118635,143.440545 C50.0147938,144.817673 49.6167713,145.434093 48.2681081,145.921437 C43.3141754,147.711312 38.2404925,148.696307 32.9690253,148.89311 C19.1633858,149.40941 8.25531106,144.594369 1.42610832,132.076045 C0.505405173,132.081934 0.825884468,132.649767 0.949561011,133.128768 C1.25286301,136.55932 2.13872078,139.876992 3.01574452,143.184358 C21.3012232,212.126178 96.1456535,247.504049 160.612051,218.254547 C211.668869,195.088753 237.938356,139.422039 223.824016,85.4151429" id="Fill-21" fill="#FFFFFF" mask="url(#mask-6)"></path>
                    </g>
                    <path d="M72.5539431,138.46438 C72.5956594,132.659926 73.6940249,127.11902 76.7098676,122.073312 C80.4810206,115.764336 86.1161557,112.720028 93.4047285,112.918303 C100.570606,113.112652 105.873483,116.558909 108.984537,122.968494 C114.574521,134.483664 114.427778,145.893316 107.06068,156.591337 C100.037128,166.790234 84.9701846,166.576745 77.8209933,156.460298 C74.208853,151.349807 72.5092821,145.54388 72.5539431,138.46438" id="Fill-28" fill="#FFFFFF"></path>
                </g>
                <g id="Group" transform="translate(0.848474, 85.098082)" fill="#FFFFFF">
                    <g id="g">
                        <g id="path" transform="translate(0.000000, 18.875538)">
                            <g id="path0-fill">
                                <g id="path0_fill-link" transform="translate(0.377611, 0.723562)">
                                    <path d="M17.6987107,56.3988478 C17.6987107,72.5880817 16.4639359,77.8738614 13.1711299,81.7757496 C9.57669272,85.0975297 4.87526821,86.9347486 0,86.9231087 L1.23479362,96.553408 C8.79134453,96.6581672 16.1166261,93.9259332 21.787278,88.8880522 C27.6868272,82.7443793 29.7448271,74.2484999 29.7448271,61.214312 L29.7448271,0 L17.6712782,0 L17.6712782,56.4819002 L17.6987107,56.3988478 Z" id="path0_fill"></path>
                                </g>
                            </g>
                        </g>
                        <g id="path" transform="translate(51.970447, 18.875538)">
                            <g id="path1-fill">
                                <g id="path1_fill-link" transform="translate(0.346351, 0.597725)">
                                    <path d="M55.8127624,49.1484392 C55.8127624,56.1223212 55.8127624,62.2656795 56.3614113,67.5514591 L45.7970875,67.5514591 L45.1112763,56.4819002 L44.8366373,56.4819002 C42.6127844,60.3507562 39.4064597,63.5517327 35.5479853,65.7551372 C31.6895108,67.9588562 27.3184711,69.0850966 22.884859,69.0180884 C12.4576975,69.0180884 0,63.1512568 0,39.4627717 L0,0 L12.0735488,0 L12.0735488,37.44246 C12.0735488,50.2831736 15.9151297,58.9171591 26.8636336,58.9171591 C30.298132,58.853926 33.6377809,57.769841 36.4637634,55.8004933 C39.2900606,53.8314601 41.4771062,51.0649355 42.751205,47.8479147 C43.4835758,45.836097 43.8554239,43.7088239 43.8488175,41.5658212 L43.8488175,0.0553474804 L55.9225551,0.0553474804 L55.9225551,49.1484392 L55.8127624,49.1484392 Z" id="path1_fill"></path>
                                </g>
                            </g>
                        </g>
                        <g id="path" transform="translate(129.800680, 17.365295)">
                            <g id="path2-fill">
                                <g id="path2_fill-link" transform="translate(0.535007, 0.472088)">
                                    <path d="M0.548796816,23.7086818 C0.548796816,15.0744762 0.274398723,8.10072007 0,1.56971487 L10.8387426,1.56971487 L11.3875489,13.1373112 L11.6619363,13.1373112 C14.0331442,8.99271505 17.482051,5.58020662 21.6362107,3.2683937 C25.790339,0.956602805 30.491795,-0.166642998 35.2327638,0.0199873067 C51.2577806,0.0199873067 63.3312035,13.8568467 63.3312035,34.335232 C63.3312035,58.6050835 48.8156006,70.587904 33.1473315,70.587904 C29.1253319,70.7580984 25.1285627,69.8703189 21.5493833,68.0123369 C17.9702038,66.1540402 14.9316827,63.3890885 12.7321163,59.988975 L12.4576975,59.988975 L12.4576975,96.6565943 L0.521358076,96.6565943 L0.521358076,23.5979768 L0.548796816,23.7086818 Z M12.4851614,41.6966916 C12.5166521,43.3794458 12.7003425,45.0562227 13.0339362,46.7056301 C14.0174146,50.7962737 16.3343239,54.4354773 19.613225,57.0396723 C22.8921575,59.6441819 26.943131,61.0626785 31.116827,61.0680266 C43.8765016,61.0680266 51.2577806,50.4690977 51.2577806,34.9996509 C51.2577806,21.4670859 44.2606188,9.89949588 31.5284395,9.89949588 C27.2464924,10.0203308 23.127504,11.5812119 19.826204,14.3340203 C16.5248725,17.0868601 14.2307082,20.8736076 13.308355,25.0923531 C12.8247323,26.7201166 12.5481113,28.4032168 12.4851614,30.1012916 L12.4851614,41.6690075 L12.4851614,41.6966916 Z" id="path2_fill"></path>
                                </g>
                            </g>
                        </g>
                        <g id="path" transform="translate(201.339067, 18.875538)">
                            <g id="path3-fill">
                                <g id="path3_fill-link" transform="translate(0.629285, 0.660644)">
                                    <path d="M13.0888325,0 L27.6045299,39.877719 C29.1137235,44.3332896 30.7601108,49.6467534 31.8578177,53.7147464 L32.1321421,53.7147464 C33.3669169,49.6744375 34.7388539,44.4993943 36.3854299,39.6288765 L49.5564654,0.0276737087 L62.3160142,0.0276737087 L44.2329347,48.1521254 C35.5895114,71.2875572 29.7173946,83.1593265 21.4854267,90.4100497 C17.325793,94.3119379 12.2273215,97.0498346 6.69534192,98.3522467 L3.67695471,88.030159 C7.5474466,86.7296345 11.1339875,84.6907618 14.2413099,82.0249067 C18.6320116,78.3246722 22.1080363,73.6441681 24.3940526,68.3539841 C24.8821111,67.4404081 25.2072108,66.4475548 25.35444,65.4207255 C25.2460629,64.3139899 24.9683723,63.2311632 24.5312463,62.2103112 L0,0.0276737087 L13.1711299,0.0276737087 L13.0888325,0 Z" id="path3_fill"></path>
                                </g>
                            </g>
                        </g>
                        <g id="path" transform="translate(273.695294, 0.000000)">
                            <g id="path4-fill">
                                <g id="path4_fill-link" transform="translate(0.188855, 0.125837)">
                                    <path d="M22.0890978,0 L22.0890978,19.3715867 L39.3488893,19.3715867 L39.3488893,28.7252964 L22.0890978,28.7252964 L22.0890978,65.0885161 C22.0890978,73.3906067 24.4214851,78.2057563 31.1442594,78.2057563 C33.5028208,78.2428782 35.8556565,77.9635202 38.1414841,77.3755472 L38.6901331,86.5908993 C35.2563582,87.8105736 31.6272215,88.3736938 27.9886785,88.2513174 C25.5757242,88.4004341 23.159561,88.0172607 20.9084958,87.1282229 C18.6574622,86.2391851 16.6256993,84.8659897 14.9547423,83.1039583 C11.5247426,79.4789113 10.2899678,73.473659 10.2899678,65.531462 L10.2899678,28.7252964 L0,28.7252964 L0,19.3715867 L10.2899678,19.3715867 L10.2899678,3.18247855 L22.0890978,0 Z" id="path4_fill"></path>
                                </g>
                            </g>
                        </g>
                        <g id="path" transform="translate(324.030061, 17.365295)">
                            <g id="path5-fill">
                                <g id="path5_fill-link" transform="translate(0.000100, 0.597925)">
                                    <path d="M11.4149813,37.5255124 C11.6894002,54.1296936 22.1165303,60.9651549 34.1625208,60.9651549 C40.4603439,61.1646064 46.7254494,59.9745038 52.5199248,57.4782139 L54.5779876,66.2509346 C47.6352503,69.1914288 40.153931,70.6155881 32.626052,70.429664 C12.2107425,70.429664 0,56.7587414 0,36.390778 C0,16.0230663 11.7991614,0 31.116827,0 C52.7668798,0 58.5566363,19.3715867 58.5566363,31.7971014 C58.5361878,33.713283 58.3990256,35.6263187 58.1451496,37.5255124 L11.4973101,37.5255124 L11.4149813,37.5255124 Z M46.7849073,28.7529805 C46.9220696,20.9489839 43.6295466,8.80024749 30.0741108,8.80024749 C17.8633683,8.80024749 12.5400263,20.2294798 11.5796389,28.7529805 L46.8122769,28.7529805 L46.7849073,28.7529805 Z" id="path5_fill"></path>
                                </g>
                            </g>
                        </g>
                        <g id="path" transform="translate(399.532211, 17.365295)">
                            <g id="path6-fill">
                                <g id="path6_fill-link" transform="translate(0.063018, 0.629384)">
                                    <path d="M0.548796816,22.5831335 C0.548796816,14.6407792 0.411596826,7.80538082 0,1.52344778 L10.5643552,1.52344778 L10.9759363,14.7791369 L11.5247426,14.7791369 C14.5431298,5.70217405 21.8147104,0.00139310905 29.8820208,0.00139310905 C31.0386193,-0.0156622919 32.1922293,0.123953138 33.3118632,0.416498174 L33.3118632,11.9841102 C31.9603748,11.6869149 30.5792831,11.5476449 29.1960208,11.5690057 C20.6896654,11.5690057 14.6803235,18.1276573 13.0339362,27.3153252 C12.6943023,29.2062451 12.5107377,31.1222694 12.4851299,33.0438306 L12.4851299,69.0196614 L0.548796816,69.0196614 L0.548796816,22.5831335 Z" id="path6_fill"></path>
                                </g>
                            </g>
                        </g>
                    </g>
                </g>
            </g>
        </g>
    </g>
</svg>