<svg xmlns="http://www.w3.org/2000/svg" role="img" viewBox="-4.20 -4.20 218.14 49.64"><title>JupyterCon-Logo-white.svg</title><defs><style>.cls-1{fill:#fff}</style></defs><g id="Canvas"><g id="logo"><g id="Group"><g id="g"><g id="path"><g id="path0_fill" data-name="path0 fill"><path id="path0_fill-2" d="M46.38 25.49c0 4.25-.32 5.64-1.19 6.66-.94.87-2.18 1.35-3.46 1.35l.32 2.53c1.98.03 3.91-.69 5.4-2.01 1.55-1.61 2.09-3.84 2.09-7.27V10.67h-3.17V25.5v-.02z" class="cls-1" data-name="path0 fill"/></g></g><g id="path-2" data-name="path"><g id="path1_fill" data-name="path1 fill"><path id="path1_fill-2" d="M70.03 23.55c0 1.83 0 3.45.14 4.83H67.4l-.18-2.91h-.07c-.58 1.02-1.43 1.86-2.44 2.44-1.01.58-2.16.87-3.33.86-2.74 0-6.01-1.54-6.01-7.76V10.65h3.17v9.83c0 3.37 1.01 5.64 3.88 5.64.9-.02 1.78-.3 2.52-.82s1.32-1.24 1.65-2.09c.19-.53.29-1.09.29-1.65v-10.9h3.17v12.89h-.03z" class="cls-1" data-name="path1 fill"/></g></g><g id="path-3" data-name="path"><g id="path2_fill" data-name="path2 fill"><path id="path2_fill-2" d="M76.01 16.44c0-2.27-.07-4.1-.14-5.81h2.85l.14 3.04h.07c.62-1.09 1.53-1.98 2.62-2.59 1.09-.61 2.33-.9 3.57-.85 4.21 0 7.38 3.63 7.38 9.01 0 6.37-3.81 9.52-7.93 9.52-1.06.04-2.11-.19-3.05-.68-.94-.49-1.74-1.21-2.32-2.11h-.07v9.63H76V16.41v.03zm3.13 4.72c0 .44.06.88.14 1.32.26 1.07.87 2.03 1.73 2.71.86.68 1.93 1.06 3.02 1.06 3.35 0 5.29-2.78 5.29-6.85 0-3.55-1.84-6.59-5.18-6.59-1.12.03-2.21.44-3.07 1.16-.87.72-1.47 1.72-1.71 2.83-.13.43-.2.87-.22 1.32v3.04z" class="cls-1" data-name="path2 fill"/></g></g><g id="path-4" data-name="path"><g id="path3_fill" data-name="path3 fill"><path id="path3_fill-2" d="M98.11 10.66l3.81 10.47c.4 1.17.83 2.57 1.12 3.63h.07c.32-1.06.68-2.42 1.12-3.7l3.46-10.4h3.35l-4.75 12.64c-2.27 6.08-3.81 9.19-5.97 11.1-1.09 1.02-2.43 1.74-3.88 2.09l-.79-2.71c1.02-.34 1.96-.88 2.77-1.58 1.15-.97 2.07-2.2 2.67-3.59.13-.24.21-.5.25-.77-.03-.29-.1-.58-.22-.84l-6.44-16.33h3.46-.02z" class="cls-1" data-name="path3 fill"/></g></g><g id="path-5" data-name="path"><g id="path4_fill" data-name="path4 fill"><path id="path4_fill-2" d="M119.36 5.56v5.09h4.53v2.46h-4.53v9.55c0 2.18.61 3.45 2.38 3.45.62 0 1.24-.06 1.84-.22l.14 2.42c-.9.32-1.85.47-2.81.44-.63.04-1.27-.06-1.86-.29-.59-.23-1.12-.59-1.56-1.06-.9-.95-1.23-2.53-1.23-4.62v-9.67h-2.7v-2.46h2.7V6.4l3.1-.84z" class="cls-1" data-name="path4 fill"/></g></g><g id="path-6" data-name="path"><g id="path5_fill" data-name="path5 fill"><path id="path5_fill-2" d="M129.74 20.1c.07 4.36 2.81 6.16 5.97 6.16 1.65.05 3.3-.26 4.82-.92l.54 2.3c-1.82.77-3.79 1.15-5.77 1.1-5.36 0-8.57-3.59-8.57-8.94s3.1-9.56 8.17-9.56c5.69 0 7.21 5.09 7.21 8.35 0 .5-.04 1.01-.11 1.5h-12.27zm9.28-2.3c.04-2.05-.83-5.24-4.39-5.24-3.21 0-4.61 3-4.86 5.24h9.25z" class="cls-1" data-name="path5 fill"/></g></g><g id="path-7" data-name="path"><g id="path6_fill" data-name="path6 fill"><path id="path6_fill-2" d="M146.73 16.18c0-2.09-.04-3.88-.14-5.53h2.77l.11 3.48h.14c.79-2.38 2.7-3.88 4.82-3.88.3 0 .61.03.9.11v3.04c-.35-.08-.72-.11-1.08-.11-2.23 0-3.81 1.72-4.24 4.14-.09.5-.14 1-.14 1.5v9.45h-3.13v-12.2z" class="cls-1" data-name="path6 fill"/></g></g></g></g><g id="g-2" data-name="g"><g id="path-8" data-name="path"><g id="path7_fill" data-name="path7 fill"><path id="path7_fill-2" d="M30.43 2.35c.02.49-.1.97-.35 1.38-.25.42-.62.75-1.05.95-.44.21-.92.28-1.4.2-.48-.07-.92-.29-1.28-.62s-.61-.76-.72-1.23c-.11-.47-.09-.97.08-1.42.17-.46.46-.85.85-1.14.39-.29.85-.45 1.33-.47.64-.03 1.27.2 1.75.64s.76 1.05.79 1.7z" class="cls-1" data-name="path7 fill"/></g></g><g id="path-9" data-name="path"><g id="path8_fill" data-name="path8 fill"><path id="path8_fill-2" d="M16.23 31.24c-6.49 0-12.15-2.38-15.09-5.89 1.1 3.16 3.14 5.89 5.84 7.83 2.7 1.94 5.94 2.97 9.25 2.97s6.55-1.04 9.25-2.97c2.7-1.94 4.75-4.67 5.84-7.83-2.95 3.52-8.61 5.89-15.1 5.89z" class="cls-1" data-name="path8 fill"/></g></g><g id="path-10" data-name="path"><g id="path9_fill" data-name="path9 fill"><path id="path9_fill-2" d="M16.23 8.35c6.49 0 12.15 2.38 15.09 5.89-1.1-3.16-3.14-5.89-5.84-7.83-2.7-1.94-5.94-2.97-9.25-2.97S9.68 4.48 6.98 6.41c-2.7 1.94-4.75 4.67-5.84 7.83 2.95-3.51 8.61-5.89 15.1-5.89z" class="cls-1" data-name="path9 fill"/></g></g><g id="path-11" data-name="path"><g id="path10_fill" data-name="path10 fill"><path id="path10_fill-2" d="M7.33 38.08c.03.61-.13 1.22-.44 1.74-.32.52-.78.94-1.33 1.2s-1.17.35-1.77.25c-.6-.09-1.16-.37-1.61-.78-.45-.41-.76-.95-.91-1.55-.14-.6-.11-1.22.1-1.8.21-.58.58-1.08 1.07-1.44.49-.36 1.08-.57 1.68-.59.81-.03 1.6.26 2.2.81.6.55.95 1.33.99 2.14z" class="cls-1" data-name="path10 fill"/></g></g><g id="path-12" data-name="path"><g id="path11_fill" data-name="path11 fill"><path id="path11_fill-2" d="M1.88 7.56c-.36.02-.71-.08-1.01-.26-.3-.19-.55-.46-.7-.79-.15-.33-.2-.69-.15-1.04.05-.36.21-.69.45-.95.24-.26.55-.45.9-.54.35-.08.71-.06 1.04.06.33.12.63.34.84.64.21.29.33.64.34 1 .02.48-.15.95-.47 1.3-.32.35-.77.56-1.25.59z" class="cls-1" data-name="path11 fill"/></g></g></g></g></g><path d="M172.12 27.64c-.84.44-2.7 1.02-5.07 1.02-5.32 0-8.79-3.61-8.79-9.01s3.72-9.37 9.48-9.37c1.9 0 3.57.47 4.45.91l-.73 2.48c-.77-.44-1.97-.84-3.72-.84-4.05 0-6.24 2.99-6.24 6.67 0 4.08 2.63 6.6 6.13 6.6 1.82 0 3.03-.47 3.94-.88l.55 2.41zm19.72-8.32c0 6.53-4.52 9.37-8.79 9.37-4.78 0-8.46-3.5-8.46-9.08 0-5.91 3.87-9.37 8.75-9.37s8.5 3.68 8.5 9.08zm-14 .19c0 3.87 2.22 6.78 5.36 6.78s5.36-2.88 5.36-6.86c0-2.99-1.5-6.78-5.29-6.78s-5.43 3.5-5.43 6.86zm17.03-4.09c0-1.82-.04-3.32-.15-4.78h2.84l.18 2.92h.07c.88-1.68 2.92-3.32 5.83-3.32 2.44 0 6.24 1.46 6.24 7.51v10.54h-3.21V18.12c0-2.84-1.06-5.21-4.08-5.21-2.12 0-3.76 1.5-4.3 3.28-.15.4-.22.95-.22 1.5V28.3h-3.21V15.43z" class="cls-1"/></svg>