<?xml version="1.0" encoding="UTF-8" standalone="no"?>
<svg width="254px" height="154px" viewBox="0 0 254 154" version="1.1" xmlns="http://www.w3.org/2000/svg" xmlns:xlink="http://www.w3.org/1999/xlink" xmlns:sketch="http://www.bohemiancoding.com/sketch/ns">
    <!-- Generator: Sketch 3.3.3 (12072) - http://www.bohemiancoding.com/sketch -->
    <title>Notebook Document Fo + Rectangle 123 + Nb + Triangle 1</title>
    <desc>Created with Sketch.</desc>
    <defs></defs>
    <g id="Page-1" stroke="none" stroke-width="1" fill="none" fill-rule="evenodd" sketch:type="MSPage">
        <g id="Rectangle-128-+-Notebook-Document-Fo-+-Rectangle-123-+-Nb-+-Triangle-1-+-Rectangle-128-Copy-+-Share-Notebooks.-+-The-Notebook-has-sup-+-Fill-1-Copy-+-Rectangle-125-+-&gt;_-+-Rectangle-128-Copy-2-+-Interactive-Computin-+-Line-+-Line-Copy-3" sketch:type="MSLayerGroup" transform="translate(-20.000000, -529.000000)">
            <g id="Share-Notebooks.-+-The-Notebook-has-sup-+-Fill-1-Copy-+-Rectangle-125-+-&gt;_" transform="translate(80.000000, 543.500000)" sketch:type="MSShapeGroup">
                <g id="Share-Notebooks.-+-The-Notebook-has-sup-+-Fill-1-Copy" transform="translate(0.000000, 96.000000)" fill="#766969">
                    <path d="M0.554,0.008 L0.554,1.632 L7.498,1.632 L7.498,20 L9.402,20 L9.402,1.632 L16.374,1.632 L16.374,0.008 L0.554,0.008 Z M17.886,0.008 L17.886,20 L19.65,20 L19.65,11.572 C19.6686668,10.8626631 19.7853323,10.2046697 20,9.598 C20.2146677,8.9913303 20.5133314,8.46866886 20.896,8.03 C21.2786686,7.59133114 21.7453306,7.24600126 22.296,6.994 C22.8466694,6.74199874 23.4766631,6.616 24.186,6.616 C24.8953369,6.616 25.4879976,6.72799888 25.964,6.952 C26.4400024,7.17600112 26.8179986,7.48399804 27.098,7.876 C27.3780014,8.26800196 27.5739994,8.72999734 27.686,9.262 C27.7980006,9.79400266 27.854,10.3679969 27.854,10.984 L27.854,20 L29.618,20 L29.618,10.704 C29.618,9.84532904 29.5340008,9.07067012 29.366,8.38 C29.1979992,7.68932988 28.9086687,7.10600238 28.498,6.63 C28.0873313,6.15399762 27.5413367,5.78533464 26.86,5.524 C26.1786633,5.26266536 25.334005,5.132 24.326,5.132 C23.2993282,5.132 22.356671,5.39799734 21.498,5.93 C20.639329,6.46200266 20.0420017,7.16666228 19.706,8.044 L19.65,8.044 L19.65,0.008 L17.886,0.008 Z M43.338,11.768 L33.986,11.768 C34.060667,11.1146634 34.2146655,10.4753365 34.448,9.85 C34.6813345,9.22466354 34.993998,8.67400238 35.386,8.198 C35.778002,7.72199762 36.2539972,7.33933478 36.814,7.05 C37.3740028,6.76066522 38.0179964,6.616 38.746,6.616 C39.4553369,6.616 40.0899972,6.76066522 40.65,7.05 C41.2100028,7.33933478 41.685998,7.72199762 42.078,8.198 C42.470002,8.67400238 42.7733323,9.21999692 42.988,9.836 C43.2026677,10.4520031 43.3193332,11.0959966 43.338,11.768 L43.338,11.768 Z M33.986,13.252 L45.102,13.252 C45.1393335,12.243995 45.0460011,11.2500049 44.822,10.27 C44.5979989,9.2899951 44.2293359,8.42200378 43.716,7.666 C43.2026641,6.90999622 42.5353374,6.298669 41.714,5.832 C40.8926626,5.365331 39.9033391,5.132 38.746,5.132 C37.6073276,5.132 36.6226708,5.35133114 35.792,5.79 C34.9613292,6.22866886 34.2846693,6.80732974 33.762,7.526 C33.2393307,8.24467026 32.8520013,9.06132876 32.6,9.976 C32.3479987,10.8906712 32.222,11.8239952 32.222,12.776 C32.222,13.8026718 32.3479987,14.7779954 32.6,15.702 C32.8520013,16.6260046 33.2393307,17.4379965 33.762,18.138 C34.2846693,18.8380035 34.9613292,19.3886647 35.792,19.79 C36.6226708,20.1913353 37.6073276,20.392 38.746,20.392 C40.5753425,20.392 41.9893283,19.9440045 42.988,19.048 C43.9866717,18.1519955 44.6726648,16.8826749 45.046,15.24 L43.282,15.24 C43.0019986,16.3600056 42.4980036,17.2559966 41.77,17.928 C41.0419964,18.6000034 40.0340064,18.936 38.746,18.936 C37.9059958,18.936 37.1873363,18.7586684 36.59,18.404 C35.9926637,18.0493316 35.498002,17.601336 35.106,17.06 C34.713998,16.518664 34.4293342,15.9073367 34.252,15.226 C34.0746658,14.5446633 33.986,13.8866698 33.986,13.252 L33.986,13.252 Z M55.602,0.008 L55.602,20 L57.506,20 L57.506,13.14 L61.342,9.584 L69.658,20 L72.122,20 L62.77,8.268 L71.702,0.008 L69.126,0.008 L57.506,10.76 L57.506,0.008 L55.602,0.008 Z M83.798,11.768 L74.446,11.768 C74.520667,11.1146634 74.6746655,10.4753365 74.908,9.85 C75.1413345,9.22466354 75.453998,8.67400238 75.846,8.198 C76.238002,7.72199762 76.7139972,7.33933478 77.274,7.05 C77.8340028,6.76066522 78.4779964,6.616 79.206,6.616 C79.9153369,6.616 80.5499972,6.76066522 81.11,7.05 C81.6700028,7.33933478 82.145998,7.72199762 82.538,8.198 C82.930002,8.67400238 83.2333323,9.21999692 83.448,9.836 C83.6626677,10.4520031 83.7793332,11.0959966 83.798,11.768 L83.798,11.768 Z M74.446,13.252 L85.562,13.252 C85.5993335,12.243995 85.5060011,11.2500049 85.282,10.27 C85.0579989,9.2899951 84.6893359,8.42200378 84.176,7.666 C83.6626641,6.90999622 82.9953374,6.298669 82.174,5.832 C81.3526626,5.365331 80.3633391,5.132 79.206,5.132 C78.0673276,5.132 77.0826708,5.35133114 76.252,5.79 C75.4213292,6.22866886 74.7446693,6.80732974 74.222,7.526 C73.6993307,8.24467026 73.3120013,9.06132876 73.06,9.976 C72.8079987,10.8906712 72.682,11.8239952 72.682,12.776 C72.682,13.8026718 72.8079987,14.7779954 73.06,15.702 C73.3120013,16.6260046 73.6993307,17.4379965 74.222,18.138 C74.7446693,18.8380035 75.4213292,19.3886647 76.252,19.79 C77.0826708,20.1913353 78.0673276,20.392 79.206,20.392 C81.0353425,20.392 82.4493283,19.9440045 83.448,19.048 C84.4466717,18.1519955 85.1326648,16.8826749 85.506,15.24 L83.742,15.24 C83.4619986,16.3600056 82.9580036,17.2559966 82.23,17.928 C81.5019964,18.6000034 80.4940064,18.936 79.206,18.936 C78.3659958,18.936 77.6473363,18.7586684 77.05,18.404 C76.4526637,18.0493316 75.958002,17.601336 75.566,17.06 C75.173998,16.518664 74.8893342,15.9073367 74.712,15.226 C74.5346658,14.5446633 74.446,13.8866698 74.446,13.252 L74.446,13.252 Z M87.942,5.552 L87.942,20 L89.706,20 L89.706,12.3 C89.706,11.5346628 89.8366654,10.8300032 90.098,10.186 C90.3593346,9.54199678 90.7279976,8.986669 91.204,8.52 C91.6800024,8.053331 92.2446634,7.69400126 92.898,7.442 C93.5513366,7.18999874 94.2793293,7.08266648 95.082,7.12 L95.082,5.356 C93.7753268,5.29999972 92.6506714,5.58933016 91.708,6.224 C90.7653286,6.85866984 90.0700022,7.76399412 89.622,8.94 L89.566,8.94 L89.566,5.552 L87.942,5.552 Z M97.238,5.552 L97.238,20 L99.002,20 L99.002,11.572 C99.0206668,10.8626631 99.1373323,10.2046697 99.352,9.598 C99.5666677,8.9913303 99.8653314,8.46866886 100.248,8.03 C100.630669,7.59133114 101.097331,7.24600126 101.648,6.994 C102.198669,6.74199874 102.828663,6.616 103.538,6.616 C104.247337,6.616 104.839998,6.72799888 105.316,6.952 C105.792002,7.17600112 106.169999,7.48399804 106.45,7.876 C106.730001,8.26800196 106.925999,8.72999734 107.038,9.262 C107.150001,9.79400266 107.206,10.3679969 107.206,10.984 L107.206,20 L108.97,20 L108.97,10.704 C108.97,9.84532904 108.886001,9.07067012 108.718,8.38 C108.549999,7.68932988 108.260669,7.10600238 107.85,6.63 C107.439331,6.15399762 106.893337,5.78533464 106.212,5.524 C105.530663,5.26266536 104.686005,5.132 103.678,5.132 C102.651328,5.132 101.708671,5.39799734 100.85,5.93 C99.991329,6.46200266 99.3940017,7.16666228 99.058,8.044 L99.002,8.044 L99.002,5.552 L97.238,5.552 Z M122.69,11.768 L113.338,11.768 C113.412667,11.1146634 113.566666,10.4753365 113.8,9.85 C114.033335,9.22466354 114.345998,8.67400238 114.738,8.198 C115.130002,7.72199762 115.605997,7.33933478 116.166,7.05 C116.726003,6.76066522 117.369996,6.616 118.098,6.616 C118.807337,6.616 119.441997,6.76066522 120.002,7.05 C120.562003,7.33933478 121.037998,7.72199762 121.43,8.198 C121.822002,8.67400238 122.125332,9.21999692 122.34,9.836 C122.554668,10.4520031 122.671333,11.0959966 122.69,11.768 L122.69,11.768 Z M113.338,13.252 L124.454,13.252 C124.491334,12.243995 124.398001,11.2500049 124.174,10.27 C123.949999,9.2899951 123.581336,8.42200378 123.068,7.666 C122.554664,6.90999622 121.887337,6.298669 121.066,5.832 C120.244663,5.365331 119.255339,5.132 118.098,5.132 C116.959328,5.132 115.974671,5.35133114 115.144,5.79 C114.313329,6.22866886 113.636669,6.80732974 113.114,7.526 C112.591331,8.24467026 112.204001,9.06132876 111.952,9.976 C111.699999,10.8906712 111.574,11.8239952 111.574,12.776 C111.574,13.8026718 111.699999,14.7779954 111.952,15.702 C112.204001,16.6260046 112.591331,17.4379965 113.114,18.138 C113.636669,18.8380035 114.313329,19.3886647 115.144,19.79 C115.974671,20.1913353 116.959328,20.392 118.098,20.392 C119.927342,20.392 121.341328,19.9440045 122.34,19.048 C123.338672,18.1519955 124.024665,16.8826749 124.398,15.24 L122.634,15.24 C122.353999,16.3600056 121.850004,17.2559966 121.122,17.928 C120.393996,18.6000034 119.386006,18.936 118.098,18.936 C117.257996,18.936 116.539336,18.7586684 115.942,18.404 C115.344664,18.0493316 114.850002,17.601336 114.458,17.06 C114.065998,16.518664 113.781334,15.9073367 113.604,15.226 C113.426666,14.5446633 113.338,13.8866698 113.338,13.252 L113.338,13.252 Z M126.862,0.008 L126.862,20 L128.626,20 L128.626,0.008 L126.862,0.008 Z" id="The-Kernel"></path>
                </g>
                <g id="Rectangle-125-+-&gt;_" transform="translate(38.000000, 0.000000)">
                    <rect id="Rectangle-125" stroke="#979797" stroke-width="2.1" x="0" y="0.0108376609" width="56" height="47.9891623" rx="5.83333333"></rect>
                    <path d="M8.41276042,9.50424757 L8.41276042,8.10482403 L18.0400391,12.4054915 L18.0400391,13.5091019 L8.41276042,17.8211468 L8.41276042,16.4103459 L15.6132812,13.2929308 L16.84375,12.9857403 L16.84375,12.9174757 L15.6132812,12.5875303 L8.41276042,9.50424757 Z M29.1370443,20.2559163 L19.0996094,20.2559163 L19.0996094,19.1067961 L29.1370443,19.1067961 L29.1370443,20.2559163 Z" id="&gt;_" fill="#979797"></path>
                </g>
            </g>
        </g>
    </g>
</svg>