<?xml version="1.0" encoding="UTF-8"?>
<svg width="531px" height="118px" viewBox="0 0 531 118" version="1.1" xmlns="http://www.w3.org/2000/svg" xmlns:xlink="http://www.w3.org/1999/xlink">
    <!-- Generator: Sketch 46.2 (44496) - http://www.bohemiancoding.com/sketch -->
    <title>Group 8</title>
    <desc>Created with Sketch.</desc>
    <defs></defs>
    <g id="Page-1" stroke="none" stroke-width="1" fill="none" fill-rule="evenodd">
        <g id="Artboard-Copy" transform="translate(-211.000000, -468.000000)">
            <g id="Group-4" transform="translate(0.318912, 0.000000)">
                <g id="Group-6" transform="translate(210.000000, 466.884621)">
                    <g id="Group-7" transform="translate(0.000000, 0.884621)">
                        <g id="Group-8">
                            <g id="JupyterLabLogo-withPlanet" transform="translate(0.703125, 9.881880)" fill-rule="nonzero">
                                <g id="logo.svg">
                                    <g id="Canvas">
                                        <g id="logo">
                                            <g id="Group" transform="translate(108.634335, 14.572241)" fill="#FFFFFF">
                                                <g id="g">
                                                    <g id="path" transform="translate(0.000000, 13.348825)">
                                                        <g id="path0-fill">
                                                            <g id="path0_fill-link" transform="translate(0.019862, 0.031809)">
                                                                <path d="M12.0927387,38.5044381 C12.0927387,49.5570993 11.2490723,53.1657894 8.9992449,55.8296739 C6.5433265,58.0975088 3.33105308,59.351809 0,59.3438621 L0.843679345,65.9186288 C6.00673316,65.9901497 11.0117709,64.1248077 14.8862742,60.685362 C18.9171727,56.4909737 20.3233121,50.6906944 20.3233121,41.792036 L20.3233121,0 L12.0739953,0 L12.0739953,38.5611392 L12.0927387,38.5044381 L12.0927387,38.5044381 Z" id="path0_fill"></path>
                                                            </g>
                                                        </g>
                                                    </g>
                                                    <g id="path" transform="translate(35.380065, 13.113375)">
                                                        <g id="path1-fill">
                                                            <g id="path1_fill-link" transform="translate(0.127525, 0.181348)">
                                                                <path d="M38.1343682,33.5544627 C38.1343682,38.3156486 38.1343682,42.5098222 38.5092357,46.1185126 L31.2911048,46.1185126 L30.8225208,38.5611392 L30.634872,38.5611392 C29.1154126,41.2024721 26.9246742,43.3878323 24.2883509,44.8921335 C21.6520277,46.3966494 18.6654914,47.1655524 15.6362023,47.119805 C8.51178841,47.119805 0,43.1144208 0,26.9418952 L0,0 L8.24931678,0 L8.24931678,25.5625945 C8.24931678,34.3291648 10.8740975,40.2237314 18.3547213,40.2237314 C20.7013607,40.1805609 22.9831937,39.440438 24.9140614,38.0959314 C26.8451438,36.7516393 28.3394546,34.8628869 29.2099894,32.6665727 C29.7103856,31.293071 29.9644528,29.8407462 29.959939,28.3776824 L29.959939,0.0377866518 L38.2093848,0.0377866518 L38.2093848,33.5544627 L38.1343682,33.5544627 L38.1343682,33.5544627 Z" id="path1_fill"></path>
                                                            </g>
                                                        </g>
                                                    </g>
                                                    <g id="path" transform="translate(88.654237, 12.125409)">
                                                        <g id="path2-fill">
                                                            <g id="path2_fill-link" transform="translate(0.160175, 0.052471)">
                                                                <path d="M0.374968358,16.1863142 C0.374968358,10.2915974 0.187484394,5.53049728 0,1.07167063 L7.40562884,1.07167063 L7.78060365,8.9690624 L7.96808032,8.9690624 C9.58822082,6.1394772 11.9447048,3.80970052 14.7830567,2.23138712 C17.621387,0.653088758 20.833682,-0.113769966 24.0729743,0.0136456687 C35.0221525,0.0136456687 43.2713834,9.46030133 43.2713834,23.441238 C43.2713834,40.0106721 33.3535201,48.1915443 22.6480914,48.1915443 C19.9000387,48.3077388 17.1692248,47.701637 14.7237313,46.4331614 C12.2782378,45.1644711 10.202152,43.2767924 8.69928655,40.955478 L8.51178841,40.955478 L8.51178841,65.9890757 L0.356220694,65.9890757 L0.356220694,16.110734 L0.374968358,16.1863142 L0.374968358,16.1863142 Z M8.53055326,28.4670296 C8.55206944,29.6158741 8.67757693,30.760638 8.90550658,31.8867159 C9.57747346,34.6794668 11.1605141,37.1640122 13.4008409,38.9419398 C15.641189,40.7200821 18.4090383,41.6885134 21.2607384,41.6921646 C29.9788544,41.6921646 35.0221525,34.4560984 35.0221525,23.8948479 C35.0221525,14.6559391 30.2413044,6.75855164 21.5419749,6.75855164 C18.6163116,6.84104765 15.8019908,7.90668733 13.5463599,9.78607574 C11.2907075,11.6654856 9.72320745,14.2507615 9.09300472,17.1309697 C8.76256692,18.2422711 8.57356414,19.3913518 8.53055326,20.5506559 L8.53055326,28.4481292 L8.53055326,28.4670296 L8.53055326,28.4670296 Z" id="path2_fill"></path>
                                                            </g>
                                                        </g>
                                                    </g>
                                                    <g id="path" transform="translate(137.565994, 13.113375)">
                                                        <g id="path3-fill">
                                                            <g id="path3_fill-link" transform="translate(0.170325, 0.224303)">
                                                                <path d="M8.9430148,0 L18.8609426,27.2251866 C19.8921072,30.2670794 21.0170101,33.89467 21.7670242,36.6719571 L21.9544579,36.6719571 C22.7981244,33.9135706 23.7355076,30.3804818 24.8605394,27.0552978 L33.8597199,0.0188933044 L42.5777499,0.0188933044 L30.222389,32.8742625 C24.3167241,48.6692093 20.3045688,56.7742651 14.6800326,61.7244552 C11.8379407,64.3883397 8.35438282,66.2575477 4.57462816,67.1467262 L2.51229897,60.0996641 C5.15683324,59.2117741 7.60735647,57.8198017 9.73045116,55.9997777 C12.7304216,53.4735656 15.105434,50.2781071 16.6673669,46.6664098 C17.0008354,46.0426961 17.2229615,45.3648585 17.3235567,44.6638251 C17.2495075,43.9082381 17.0597739,43.1689742 16.7611052,42.4720215 L0,0.0188933044 L8.9992449,0.0188933044 L8.9430148,0 L8.9430148,0 Z" id="path3_fill"></path>
                                                            </g>
                                                        </g>
                                                    </g>
                                                    <g id="path" transform="translate(186.767959, 0.000000)">
                                                        <g id="path4-fill">
                                                            <g id="path4_fill-link" transform="translate(0.105214, 0.085911)">
                                                                <path d="M15.0924942,13.2253067 L26.8853391,13.2253067 L26.8853391,19.6112409 L15.0924942,19.6112409 L15.0924942,44.4370201 C15.0924942,50.1049964 16.6861102,53.3923797 21.2794817,53.3923797 C22.8909815,53.4177235 24.498569,53.2270012 26.0603729,52.8255821 L26.4352403,59.1170572 C24.0890952,59.9497494 21.6094682,60.334201 19.1234142,60.2506525 C17.4747503,60.352457 15.8238939,60.0908581 14.2858416,59.483897 C12.7478108,58.8769362 11.3595979,57.9394325 10.2179077,56.7364643 C7.87434197,54.261584 7.03067552,50.1616976 7.03067552,44.7394267 L7.03067552,19.6112409 L0,19.6112409 L0,13.2253067 L7.03067552,13.2253067 L7.03067552,2.17273141 L15.0924942,0 L15.0924942,13.2253067 Z" id="path4_fill"></path>
                                                            </g>
                                                        </g>
                                                    </g>
                                                    <g id="path" transform="translate(220.932728, 12.125409)">
                                                        <g id="path5-fill">
                                                            <g id="path5_fill-link" transform="translate(0.224470, 0.138382)">
                                                                <path d="M7.79934701,25.6192959 C7.98684517,36.9552485 15.1112375,41.6219325 23.3417251,41.6219325 C27.6447463,41.7581012 31.9254131,40.9455983 35.8845194,39.2413394 L37.2907018,45.2306226 C32.5470396,47.2381474 27.4353879,48.2104447 22.2919245,48.0835113 C8.34305512,48.0835113 0,38.7501434 0,24.8445938 C0,10.9392157 8.06184013,0 21.2607384,0 C36.0532528,0 40.0091349,13.2253067 40.0091349,21.7084137 C39.9951634,23.0166229 39.9014466,24.3226846 39.7279842,25.6192959 L7.85559861,25.6192959 L7.79934701,25.6192959 L7.79934701,25.6192959 Z M31.9660381,19.6301414 C32.0597549,14.3022222 29.810121,6.00807635 20.548297,6.00807635 C12.2052419,6.00807635 8.56804001,13.8110047 7.91185021,19.6301414 L31.9847385,19.6301414 L31.9660381,19.6301414 L31.9660381,19.6301414 Z" id="path5_fill"></path>
                                                            </g>
                                                        </g>
                                                    </g>
                                                    <g id="path" transform="translate(272.746705, 12.125409)">
                                                        <g id="path6-fill">
                                                            <g id="path6_fill-link" transform="translate(0.040730, 0.159860)">
                                                                <path d="M0.374968358,15.4178835 C0.374968358,9.99550519 0.281225732,5.32886421 0,1.04008331 L7.21815219,1.04008331 L7.49936716,10.0899643 L7.87434197,10.0899643 C9.93667117,3.89296973 14.9050175,0.000951097584 20.4170504,0.000951097584 C21.2073026,-0.0106929103 21.9955128,0.0846248823 22.7605086,0.284350278 L22.7605086,8.18175278 C21.8370969,7.97885255 20.8934587,7.88377058 19.9483373,7.89835398 C14.1363245,7.89835398 10.0304095,12.3760553 8.90550658,18.64863 C8.67344993,19.9395927 8.54802844,21.2476946 8.53053177,22.5595766 L8.53053177,47.1208788 L0.374968358,47.1208788 L0.374968358,15.4178835 L0.374968358,15.4178835 Z" id="path6_fill"></path>
                                                            </g>
                                                        </g>
                                                    </g>
                                                </g>
                                            </g>
                                            <g id="g">
                                                <g id="path" transform="translate(66.406799, 0.000000)" fill="#FFFFFF">
                                                    <g id="path7-fill">
                                                        <g id="path7_fill-link" transform="translate(0.182297, 0.203631)">
                                                            <path d="M12.667958,6.10827002 C12.7224685,7.37040957 12.4042612,8.62045716 11.753617,9.70031509 C11.1029729,10.7801516 10.1491032,11.6412587 9.01270057,12.1746799 C7.87629799,12.7081226 6.60841241,12.8898888 5.36948019,12.6970186 C4.13054794,12.504127 2.97621879,11.9452762 2.05252332,11.0911278 C1.12883645,10.2370009 0.477302412,9.12595731 0.180348373,7.89859023 C-0.116605021,6.67122314 -0.0456332196,5.38268745 0.384284157,4.19597773 C0.814203681,3.00924653 1.58374785,1.97770706 2.59556937,1.23183016 C3.60736727,0.485953258 4.815992,0.0592611725 6.06850888,0.00573947517 C7.7464486,-0.0659613701 9.3839998,0.536490387 10.6214274,1.6807429 C11.858855,2.82498897 12.5949405,4.41745622 12.667958,6.10827002 L12.667958,6.10827002 Z" id="path7_fill"></path>
                                                        </g>
                                                    </g>
                                                </g>
                                                <g id="path" transform="translate(2.847827, 66.046495)" fill="#F37726">
                                                    <g id="path8-fill">
                                                        <g id="path8_fill-link" transform="translate(0.202975, 0.029372)">
                                                            <path d="M39.2591853,15.3224579 C22.3856413,15.3224579 7.64935709,9.14436372 0,0 C2.84888426,8.20535682 8.15843724,15.3153702 15.1937341,20.3459301 C22.22916,25.3763825 30.6421804,28.0787121 39.2686428,28.0787121 C47.8951055,28.0787121 56.3081257,25.3763825 63.3435515,20.3459301 C70.3787625,15.3153702 75.68838,8.20535682 78.5372857,0 C70.8690563,9.14436372 56.1329441,15.3224579 39.2591853,15.3224579 L39.2591853,15.3224579 Z" id="path8_fill"></path>
                                                        </g>
                                                    </g>
                                                </g>
                                                <g id="path" transform="translate(2.847827, 9.053276)" fill="#F37726">
                                                    <g id="path9-fill">
                                                        <g id="path9_fill-link" transform="translate(0.181480, 0.106573)">
                                                            <path d="M39.2778857,12.7562972 C56.1516445,12.7562972 70.8879717,18.9344129 78.5372857,28.0787121 C75.68838,19.8734198 70.3787625,12.7634063 63.3435515,7.73284649 C56.3081257,2.70228664 47.8951055,0 39.2686428,0 C30.6421804,0 22.22916,2.70228664 15.1937341,7.73284649 C8.15843724,12.7634063 2.84888426,19.8734198 0,28.0787121 C7.66812196,18.9533133 22.4043417,12.7562972 39.2778857,12.7562972 L39.2778857,12.7562972 Z" id="path9_fill"></path>
                                                        </g>
                                                    </g>
                                                </g>
                                                <g id="path" transform="translate(3.074556, 91.357607)" fill="#FFFFFF">
                                                    <g id="path10-fill">
                                                        <g id="path10_fill-link" transform="translate(0.105214, 0.126430)">
                                                            <path d="M15.9660167,7.69629138 C16.0352081,9.28762028 15.6342677,10.8638503 14.8139875,12.2254104 C13.9937073,13.5869704 12.7909506,14.6726488 11.3580288,15.3449881 C9.92510703,16.0173058 8.32641824,16.2460653 6.76442085,16.0022714 C5.20240198,15.7584776 3.74729768,15.0531055 2.58331741,13.9754598 C1.41935434,12.8978141 0.598863461,11.4963484 0.22573075,9.94853338 C-0.147401318,8.40069689 -0.0563936746,6.77609895 0.487230809,5.28043192 C1.03085722,3.78474339 2.0026535,2.48525404 3.2795733,1.54646835 C4.55650815,0.607680514 6.08114776,0.0718204977 7.66046984,0.0067299218 C9.77292466,-0.0803338454 11.8334483,0.680212999 13.3903514,2.1216466 C14.9472546,3.56307161 15.8734821,5.56778264 15.9660167,7.69629138 L15.9660167,7.69629138 L15.9660167,7.69629138 Z" id="path10_fill"></path>
                                                        </g>
                                                    </g>
                                                </g>
                                                <g id="path" transform="translate(0.000000, 10.276692)" fill="#FFFFFF">
                                                    <g id="path11-fill">
                                                        <g id="path11_fill-link" transform="translate(0.084535, 0.128866)">
                                                            <path d="M4.88941784,9.44223855 C3.96282489,9.48259523 3.04517374,9.24498696 2.25262166,8.75954702 C1.46006527,8.27408561 0.828250457,7.56261389 0.43713959,6.71514512 C0.0460278618,5.86767635 -0.0867951147,4.92233351 0.0554812249,3.99874761 C0.197757779,3.0751832 0.608738121,2.21491369 1.23640231,1.52681622 C1.86406651,0.838727331 2.68019396,0.353755605 3.58148767,0.133289153 C4.48278137,-0.0871775133 5.42871954,-0.0332290749 6.29957676,0.288306479 C7.17043399,0.609841173 7.92706845,1.18450825 8.47367832,1.93956903 C9.02028821,2.69464055 9.33232657,3.59614734 9.37028618,4.52999957 C9.42109963,5.77981091 8.97785769,6.99893054 8.13782384,7.91983172 C7.29779001,8.84075437 6.12955379,9.38826499 4.88941784,9.44223855 L4.88941784,9.44223855 L4.88941784,9.44223855 Z" id="path11_fill"></path>
                                                        </g>
                                                    </g>
                                                </g>
                                            </g>
                                        </g>
                                    </g>
                                </g>
                                <path d="M415.249619,73.9486837 L423.634614,73.9486837 L423.634614,6.35034321 L415.249619,6.35034321 L415.249619,73.9486837 Z M472.5144,73.9486837 C471.942698,70.8067891 471.752129,66.9032228 471.752129,62.9044478 L471.752129,45.6716314 C471.752129,36.4363652 468.321903,26.8202632 454.219866,26.8202632 C448.407539,26.8202632 442.881065,28.438815 439.069702,30.9142472 L440.975383,36.4363652 C444.215041,34.3417687 448.69339,33.0088437 452.981173,33.0088437 C462.414293,33.0088437 463.462417,39.8638868 463.462417,43.672244 L463.462417,44.6243331 C445.644301,44.5291242 435.734761,50.6224958 435.734761,61.7619406 C435.734761,68.4265659 440.498964,74.995982 449.8368,74.995982 C456.411399,74.995982 461.366168,71.7588783 463.938837,68.1409389 L464.224689,68.1409389 L464.891677,73.9486837 L472.5144,73.9486837 Z M463.652986,58.4296282 C463.652986,59.2865084 463.462417,60.2385978 463.176566,61.0954782 C461.842587,64.9990443 458.031227,68.8074015 452.028333,68.8074015 C447.74055,68.8074015 444.119756,66.2367604 444.119756,60.8098515 C444.119756,51.8602119 454.505717,50.2416601 463.652986,50.4320779 L463.652986,58.4296282 Z M493.761816,73.9486837 L494.142953,66.3319693 L494.428804,66.3319693 C497.859031,72.4253409 503.194938,74.995982 509.86482,74.995982 C520.155496,74.995982 530.541458,66.8080139 530.541458,50.336869 C530.636741,36.3411563 522.537598,26.8202632 511.103513,26.8202632 C503.671358,26.8202632 498.33545,30.1525759 495.381646,35.2938581 L495.191078,35.2938581 L495.191078,6.35034321 L486.901366,6.35034321 L486.901366,62.0475676 C486.901366,66.1415515 486.710798,70.8067891 486.520229,73.9486837 L493.761816,73.9486837 Z M495.191078,47.1949744 C495.191078,45.8620492 495.476929,44.7195423 495.667498,43.7674529 C497.382611,37.3884546 502.718516,33.4848883 508.435558,33.4848883 C517.392258,33.4848883 522.156461,41.3872296 522.156461,50.6224958 C522.156461,61.1906871 516.915839,68.331357 508.149707,68.331357 C502.051528,68.331357 497.192042,64.3325817 495.572215,58.5248371 C495.381646,57.5727478 495.191078,56.5254495 495.191078,55.4781512 L495.191078,47.1949744 Z" id="jupyterlab" fill="#F37726"></path>
                            </g>
                            <path d="M122.822266,18 L119.400391,18 L119.400391,0.9375 L122.822266,0.9375 L122.822266,18 Z M142.001953,18 L138.580078,18 L131.701172,6.4921875 L131.630859,6.50390625 L131.630859,18 L128.208984,18 L128.208984,0.9375 L131.630859,0.9375 L138.509766,12.4335938 L138.580078,12.421875 L138.580078,0.9375 L142.001953,0.9375 L142.001953,18 Z M158.697266,3.57421875 L153.822266,3.57421875 L153.822266,18 L150.400391,18 L150.400391,3.57421875 L145.595703,3.57421875 L145.595703,0.9375 L158.697266,0.9375 L158.697266,3.57421875 Z M165.994141,11.1796875 L165.994141,18 L162.572266,18 L162.572266,0.9375 L168.478516,0.9375 C170.423838,0.9375 171.945307,1.38085494 173.042969,2.26757812 C174.14063,3.15430131 174.689453,4.39061707 174.689453,5.9765625 C174.689453,6.85156687 174.457034,7.60741869 173.992188,8.24414062 C173.527341,8.88086256 172.849614,9.3945293 171.958984,9.78515625 C172.966802,10.0820327 173.691404,10.5781215 174.132812,11.2734375 C174.574221,11.9687535 174.794922,12.8281199 174.794922,13.8515625 L174.794922,15.1054688 C174.794922,15.5820336 174.859374,16.0800755 174.988281,16.5996094 C175.117188,17.1191432 175.337889,17.503905 175.650391,17.7539062 L175.650391,18 L172.123047,18 C171.810545,17.7499987 171.609375,17.3359404 171.519531,16.7578125 C171.429687,16.1796846 171.384766,15.6210964 171.384766,15.0820313 L171.384766,13.875 C171.384766,13.0234332 171.152346,12.3613305 170.6875,11.8886719 C170.222654,11.4160133 169.564457,11.1796875 168.712891,11.1796875 L165.994141,11.1796875 Z M165.994141,8.54296875 L168.419922,8.54296875 C169.380864,8.54296875 170.095701,8.33984578 170.564453,7.93359375 C171.033205,7.52734172 171.267578,6.92578523 171.267578,6.12890625 C171.267578,5.34765234 171.031252,4.7265648 170.558594,4.265625 C170.085935,3.8046852 169.392583,3.57421875 168.478516,3.57421875 L165.994141,3.57421875 L165.994141,8.54296875 Z M193.669922,11.0039062 C193.669922,13.1054793 193.009772,14.8378838 191.689453,16.2011719 C190.369134,17.5644599 188.650401,18.2460938 186.533203,18.2460938 C184.423818,18.2460938 182.712897,17.5625068 181.400391,16.1953125 C180.087884,14.8281182 179.431641,13.0976667 179.431641,11.0039062 L179.431641,7.93359375 C179.431641,5.84764582 180.085931,4.11914748 181.394531,2.74804688 C182.703132,1.37694627 184.408193,0.69140625 186.509766,0.69140625 C188.626964,0.69140625 190.349603,1.37694627 191.677734,2.74804688 C193.005866,4.11914748 193.669922,5.84764582 193.669922,7.93359375 L193.669922,11.0039062 Z M190.259766,7.91015625 C190.259766,6.58202461 189.927738,5.49219176 189.263672,4.640625 C188.599606,3.78905824 187.681646,3.36328125 186.509766,3.36328125 C185.35351,3.36328125 184.453128,3.78905824 183.808594,4.640625 C183.164059,5.49219176 182.841797,6.58202461 182.841797,7.91015625 L182.841797,11.0039062 C182.841797,12.3554755 183.166012,13.457027 183.814453,14.3085938 C184.462894,15.1601605 185.369135,15.5859375 186.533203,15.5859375 C187.705084,15.5859375 188.619137,15.1601605 189.275391,14.3085938 C189.931644,13.457027 190.259766,12.3554755 190.259766,11.0039062 L190.259766,7.91015625 Z M198.376953,18 L198.376953,0.9375 L204.330078,0.9375 C206.416026,0.9375 208.134759,1.60350896 209.486328,2.93554688 C210.837897,4.26758479 211.513672,5.97655207 211.513672,8.0625 L211.513672,10.8867188 C211.513672,12.9804792 210.837897,14.6894465 209.486328,16.0136719 C208.134759,17.3378972 206.416026,18 204.330078,18 L198.376953,18 Z M201.798828,3.57421875 L201.798828,15.375 L204.330078,15.375 C205.455084,15.375 206.361325,14.9550823 207.048828,14.1152344 C207.736332,13.2753864 208.080078,12.1992253 208.080078,10.8867188 L208.080078,8.0390625 C208.080078,6.73436848 207.736332,5.66406668 207.048828,4.828125 C206.361325,3.99218332 205.455084,3.57421875 204.330078,3.57421875 L201.798828,3.57421875 Z M229.779297,0.9375 L229.779297,12.1054688 C229.779297,14.0273534 229.142584,15.5312446 227.869141,16.6171875 C226.595697,17.7031304 224.94337,18.2460938 222.912109,18.2460938 C220.888662,18.2460938 219.2461,17.7031304 217.984375,16.6171875 C216.72265,15.5312446 216.091797,14.0273534 216.091797,12.1054688 L216.091797,0.9375 L219.525391,0.9375 L219.525391,12.1054688 C219.525391,13.2460995 219.830075,14.1171845 220.439453,14.71875 C221.048831,15.3203155 221.873042,15.6210938 222.912109,15.6210938 C223.966802,15.6210938 224.802731,15.3203155 225.419922,14.71875 C226.037112,14.1171845 226.345703,13.2460995 226.345703,12.1054688 L226.345703,0.9375 L229.779297,0.9375 Z M247.541016,12.3515625 L247.564453,12.421875 C247.595703,14.2421966 247.041021,15.6679636 245.900391,16.6992188 C244.75976,17.7304739 243.185557,18.2460938 241.177734,18.2460938 C239.130849,18.2460938 237.478522,17.5878972 236.220703,16.2714844 C234.962884,14.9550715 234.333984,13.2539167 234.333984,11.1679688 L234.333984,7.78125 C234.333984,5.70311461 234.947259,4.00195975 236.173828,2.67773438 C237.400397,1.353509 239.009756,0.69140625 241.001953,0.69140625 C243.080089,0.69140625 244.705072,1.19921367 245.876953,2.21484375 C247.048834,3.23047383 247.619141,4.66014703 247.587891,6.50390625 L247.564453,6.57421875 L244.236328,6.57421875 C244.236328,5.48046328 243.972659,4.6660183 243.445312,4.13085938 C242.917966,3.59570045 242.103521,3.328125 241.001953,3.328125 C239.978511,3.328125 239.17969,3.74023025 238.605469,4.56445312 C238.031247,5.388676 237.744141,6.45311848 237.744141,7.7578125 L237.744141,11.1679688 C237.744141,12.4804753 238.046872,13.5507771 238.652344,14.3789062 C239.257816,15.2070354 240.099604,15.6210938 241.177734,15.6210938 C242.201177,15.6210938 242.964841,15.3535183 243.46875,14.8183594 C243.972659,14.2832004 244.224609,13.460943 244.224609,12.3515625 L247.541016,12.3515625 Z M255.669922,18 L252.248047,18 L252.248047,0.9375 L255.669922,0.9375 L255.669922,18 Z M274.849609,18 L271.427734,18 L264.548828,6.4921875 L264.478516,6.50390625 L264.478516,18 L261.056641,18 L261.056641,0.9375 L264.478516,0.9375 L271.357422,12.4335938 L271.427734,12.421875 L271.427734,0.9375 L274.849609,0.9375 L274.849609,18 Z M293.068359,15.6679688 C292.537107,16.3632847 291.744146,16.9667943 290.689453,17.4785156 C289.63476,17.9902369 288.275399,18.2460938 286.611328,18.2460938 C284.548818,18.2460938 282.861335,17.5976627 281.548828,16.3007812 C280.236322,15.0038998 279.580078,13.3203229 279.580078,11.25 L279.580078,7.6875 C279.580078,5.62498969 280.216791,3.94336588 281.490234,2.64257812 C282.763678,1.34179037 284.400381,0.69140625 286.400391,0.69140625 C288.486339,0.69140625 290.083979,1.18554193 291.193359,2.17382812 C292.30274,3.16211432 292.837891,4.48046051 292.798828,6.12890625 L292.775391,6.19921875 L289.552734,6.19921875 C289.552734,5.29296422 289.291018,4.58789314 288.767578,4.08398438 C288.244138,3.58007561 287.482427,3.328125 286.482422,3.328125 C285.435542,3.328125 284.5918,3.73241783 283.951172,4.54101562 C283.310544,5.34961342 282.990234,6.39061863 282.990234,7.6640625 L282.990234,11.25 C282.990234,12.5390689 283.318356,13.5898397 283.974609,14.4023438 C284.630863,15.2148478 285.50976,15.6210938 286.611328,15.6210938 C287.423832,15.6210938 288.066404,15.5390633 288.539062,15.375 C289.011721,15.2109367 289.376952,15.0039075 289.634766,14.7539062 L289.634766,11.4492188 L286.353516,11.4492188 L286.353516,9.08203125 L293.068359,9.08203125 L293.068359,15.6679688 Z" id="INTRODUCING" fill="#FFFFFF"></path>
                        </g>
                    </g>
                </g>
            </g>
        </g>
    </g>
</svg>