<?xml version="1.0" encoding="UTF-8" standalone="no"?>
<svg
   viewBox="0 0 1920 247.3"
   version="1.1"
   id="svg287"
   sodipodi:docname="latimes.svg"
   inkscape:version="1.1.1 (3bf5ae0d25, 2021-09-20)"
   xmlns:inkscape="http://www.inkscape.org/namespaces/inkscape"
   xmlns:sodipodi="http://sodipodi.sourceforge.net/DTD/sodipodi-0.dtd"
   xmlns="http://www.w3.org/2000/svg"
   xmlns:svg="http://www.w3.org/2000/svg"
   xmlns:rdf="http://www.w3.org/1999/02/22-rdf-syntax-ns#"
   xmlns:cc="http://creativecommons.org/ns#"
   xmlns:dc="http://purl.org/dc/elements/1.1/">
  <defs
     id="defs291" />
  <sodipodi:namedview
     id="namedview289"
     pagecolor="#ffffff"
     bordercolor="#666666"
     borderopacity="1.0"
     inkscape:pageshadow="2"
     inkscape:pageopacity="0.0"
     inkscape:pagecheckerboard="0"
     showgrid="false"
     inkscape:zoom="0.65625"
     inkscape:cx="960"
     inkscape:cy="124.19048"
     inkscape:window-width="1866"
     inkscape:window-height="1016"
     inkscape:window-x="54"
     inkscape:window-y="27"
     inkscape:window-maximized="1"
     inkscape:current-layer="svg287" />
  <title
     id="title249">Los Angeles Times</title>
  <g
     fill="#000"
     id="g285"
     style="fill:#b1b1b1;fill-opacity:1">
    <path
       d="M364.8 170.4c-18.9 8.2-46.1 23.3-59.4 35.1-6.8-6.5-15.8-12.6-27.6-12.6-11.1 0-16 4-16 7.8 0 2.3 4.6 2 4.6 5.3 0 1.5-1.3 3.4-3.4 3.4-2.6 0-5.1-3.8-5.1-8.5 0-8.7 3.9-16.4 17.7-30.8l24.2-25.2c-10-5.1-24.6-11.5-32.7-15v-1.2c2.4-.7 4.1-3 4.1-5.8v-20.8c0-2.3-1.2-5.8-4.1-6.8v-1c20.4-7.3 46.3-21.8 61.1-32.2 3.3 3.7 12 11.4 21.3 11.4 7.9 0 9.7-3.8 9.7-6.5 0-1.6-2.9-2.4-2.9-4.8 0-2.1 1.1-2.9 2.7-2.9 2.3 0 4.4 2.1 4.4 6.5 0 13.1-12.6 29.8-32.2 29.8-12.9 0-20.8-5.8-26.9-14.3l-.5.2V114l17.9 8.7 8-8.5c8.4 5.3 25.9 14.7 35.1 18.7v.7c-1.8.8-4.1 2.9-4.1 6.8v23c0 3.3 2.4 5.3 4.1 6.1v.9zm-36.6 15.3v-39c-4.6-2.2-12.4-5.9-17-8.2l-37.6 38.8.2.2c5.7-3.1 12.6-6.3 24.2-6.3 11.9 0 23.9 8.6 29.6 14.8l.6-.3z"
       id="path251"
       style="fill:#b1b1b1;fill-opacity:1" />
    <path
       d="M253.5 170.4c-16.2 6.6-47.5 23.3-61.1 35.1-14.3-10.4-35.2-24.1-48.5-31.8v-.7c3.4-1.2 4.4-3.9 4.4-8v-61c0-5.6-1.5-7.8-4.4-8.7v-1c22.3-8.2 43.4-19.9 61.3-32.2 12.4 9.2 33.9 22.8 48.2 31.3v1c-2.6 1-4.4 3.6-4.4 7.8v60.6c0 4.4 1.7 6.1 4.4 6.8l.1.8zm-36.8 16V106c-11.2-6.1-27.6-18.2-35.4-25l-.5.2v81.4c10.7 5.8 26.7 16.5 35.4 24l.5-.2z"
       id="path253"
       style="fill:#b1b1b1;fill-opacity:1" />
    <path
       d="M141.8 165.1l-22.3 41.2c-12.5-8.7-32.5-14-49.5-14-33.5 0-56.5 6.1-68.4 13.6l-1.5-1.7c10.6-9.3 28.4-24.2 28.4-58.2 0-14.3-5.8-30.5-9.9-41.2-4.8-12.4-8.5-18.6-8.5-35.9 0-30 16.1-47.1 41.5-59.9l1.9 2.4c-8.8 7.3-12.8 16.7-14.1 26.2L80 3.7c10.4 14.6 20.2 20.1 33 20.1 10.5 0 13.6-4.5 13.6-8.2 0-2.7-3.6-3.2-3.6-5.8 0-2.5 1.7-3.2 3.2-3.2 3.2 0 4.1 4.2 4.1 7.3 0 20.5-16.2 34.7-34.4 34.7-3.2 0-6 .1-8-.2v114.9c14.6 0 32.5 4.8 45.3 10.4l5.6-9.9 3 1.3zm-56.5-1.9V48c-15.4-2-25.2-12.6-30.5-18.9L39.5 41.5c.1 17.2 5 32.3 10.9 46.1 5.4 12.6 11.4 29 11.4 40.2 0 18.6-10.2 30.3-34.7 53.3l.7.7c14.6-10.9 38-18.3 57.5-18.6z"
       id="path255"
       style="fill:#b1b1b1;fill-opacity:1" />
    <path
       d="M1212.4 170.4c-18.9 8.2-46.1 23.3-59.4 35.1-6.8-6.5-15.8-12.6-27.6-12.6-11.1 0-16 4-16 7.8 0 2.3 4.6 2 4.6 5.3 0 1.5-1.3 3.4-3.4 3.4-2.6 0-5.1-3.8-5.1-8.5 0-8.7 3.9-16.4 17.7-30.8l24.2-25.2c-10-5.1-24.6-11.5-32.7-15v-1.2c2.4-.7 4.1-3 4.1-5.8v-20.8c0-2.3-1.2-5.8-4.1-6.8v-1c20.4-7.3 46.3-21.8 61.1-32.2 3.3 3.7 12 11.4 21.3 11.4 7.9 0 9.7-3.8 9.7-6.5 0-1.6-2.9-2.4-2.9-4.8 0-2.1 1.1-2.9 2.7-2.9 2.3 0 4.4 2.1 4.4 6.5 0 13.1-12.6 29.8-32.2 29.8-12.9 0-20.8-5.8-26.9-14.3l-.5.2V114l17.9 8.7 8-8.5c8.4 5.3 25.9 14.7 35.2 18.7v.7c-1.8.8-4.1 2.9-4.1 6.8v23c0 3.3 2.4 5.3 4.1 6.1l-.1.9zm-36.6 15.3v-39c-4.6-2.2-12.4-5.9-17-8.2l-37.6 38.8.2.2c5.7-3.1 12.6-6.3 24.2-6.3 11.9 0 23.9 8.6 29.6 14.8l.6-.3z"
       id="path257"
       style="fill:#b1b1b1;fill-opacity:1" />
    <path
       d="M1106 106.5l-57.5 35.9v24.5c7.3 3.2 24.5 11.6 32.2 16.7l12.4-12.8c3.4-3.5 2.4-9.5 7.3-9.5 1.7 0 2.9 1 2.9 2.9 0 2.1-1.4 3.1-2.4 4.1l-37.6 37.3c-12.8-8.2-38.8-20.4-51.6-25.7v-1c2.1-.8 4.4-2.2 4.4-7.5v-68.1c0-5.6-2-7.6-4.4-8v-1c19.4-6.3 49-22.1 63-32 9.7 14.6 22.1 32.5 31.3 44.2zm-29.3 14.7c-6.8-9.5-19.9-27.6-27.4-38.8l-.7.2v56l28.1-17.4z"
       id="path259"
       style="fill:#b1b1b1;fill-opacity:1" />
    <path
       d="M941.9 106.5l-57.5 35.9v24.5c7.3 3.2 24.5 11.6 32.2 16.7l12.4-12.8c3.4-3.5 2.4-9.5 7.3-9.5 1.7 0 2.9 1 2.9 2.9 0 2.1-1.4 3.1-2.4 4.1l-37.6 37.3c-12.8-8.2-38.8-20.4-51.6-25.7v-1c2.1-.8 4.4-2.2 4.4-7.5v-68.1c0-5.6-2-7.6-4.4-8v-1c19.4-6.3 49-22.1 63-32 9.7 14.6 22.1 32.5 31.3 44.2zm-29.3 14.7c-6.8-9.5-19.9-27.6-27.4-38.8l-.7.2v56l28.1-17.4z"
       id="path261"
       style="fill:#b1b1b1;fill-opacity:1" />
    <path
       d="M839.3 194.7c-.8 30.8-27.3 52.1-56.1 52.1-22.5 0-27.7-11.6-48.2-11.6-11.9 0-29.7 3.9-33 8l-1.5-1c1.2-22.3 28.1-34.7 48.3-34.7 22.2 0 38.5 14.3 62.1 14.3 15 0 22.8-8 24.2-16l-.2-.5c-3.2 1.9-7.3 4.4-13.3 4.4-12.1 0-25.2-8.5-27.4-23.3-5.8 4-18.8 14.2-24.5 19.1-14.2-9.2-37.1-20.7-48.2-25.7v-1c2.3-.8 3.9-3.7 3.9-6.5V103c0-4.1-1.5-7.2-4.4-7.8v-1c20.6-7.5 47-21.3 61.3-32.5 12.4 9.8 35 23.7 48.2 31.3v1.2c-2.9 1.2-4.4 3.2-4.4 9.7v74.9c0 9.6.8 16.2 7.8 16.2 1.1 0 2.4-1.7 3.6-2.2l1.8 1.9zm-45.5-10.9V106c-9.5-5.3-25-16-35.4-25l-.5.2v85.1c9.5 4.4 26.2 14.3 33.2 19.6l2.7-2.1z"
       id="path263"
       style="fill:#b1b1b1;fill-opacity:1" />
    <path
       d="M584.8 177.2L554 205.6c-9.2-6.5-17.2-11.9-28.8-19.1v-1.2c2.6-1 4.1-3.7 4.1-6.8 0-1.4-.3-2.9-.7-4.4l-9.5-29.6h-65.2l-8.7 24.7c13.5 0 22.5 2.6 29.1 5.3l5.1-9.5 3.1 1.7-21.1 39c-8.8-5-18.8-9-30.1-9-13.3 0-23.2 3.6-28.1 8.2-1 .9-2.7.5-1.9-1.5 6.6-18.2 19.9-32.9 40.5-34.2l45.1-124.8c-5.3-15.5-11.4-18.9-22.8-18.9-10.7 0-21.1 4.8-21.1 17.9 0 6.1 5.8 5.5 5.8 9.9 0 1.5-1.3 3.4-3.4 3.4-3.9 0-6.5-5.3-6.5-15.5 0-23 17.7-35.4 36.8-35.4 17.5 0 24.7 5.6 30.1 12.8 1.9-6.1 7.9-10.1 13.1-10.9l.7 1c-3.2 4-5.1 7.5-5.1 12.6 0 2.6 1.9 8.5 2.7 10.7l49 141.8 9.5 6.3 6.8-6.1 2.3 3.2zm-71.7-51.4l-25-76.6-27.4 76.6h52.4z"
       id="path265"
       style="fill:#b1b1b1;fill-opacity:1" />
    <path
       d="M1913 170.4c-18.9 8.2-46.1 23.3-59.4 35.1-6.8-6.5-15.8-12.6-27.6-12.6-11.1 0-16 4-16 7.8 0 2.3 4.6 2 4.6 5.3 0 1.5-1.3 3.4-3.4 3.4-2.6 0-5.1-3.8-5.1-8.5 0-8.7 3.9-16.4 17.7-30.8L1848 145c-10-5.1-24.6-11.5-32.7-15v-1.2c2.4-.7 4.1-3 4.1-5.8v-20.8c0-2.3-1.2-5.8-4.1-6.8v-1c20.4-7.3 46.3-21.8 61.1-32.2 3.3 3.7 12 11.4 21.3 11.4 7.9 0 9.7-3.8 9.7-6.5 0-1.6-2.9-2.4-2.9-4.8 0-2.1 1.1-2.9 2.7-2.9 2.3 0 4.4 2.1 4.4 6.5 0 13.1-12.6 29.8-32.2 29.8-12.9 0-20.8-5.8-26.9-14.3l-.5.2V114l17.9 8.7 8-8.5c8.4 5.3 25.9 14.7 35.2 18.7v.7c-1.8.8-4.1 2.9-4.1 6.8v23c0 3.3 2.4 5.3 4.1 6.1l-.1.9zm-36.7 15.3v-39c-4.6-2.2-12.4-5.9-17-8.2l-37.6 38.8.2.2c5.7-3.1 12.6-6.3 24.2-6.3 11.9 0 23.9 8.6 29.6 14.8l.6-.3z"
       id="path267"
       style="fill:#b1b1b1;fill-opacity:1" />
    <path
       d="M1806.5 106.5l-57.5 35.9v24.5c7.3 3.2 24.5 11.6 32.2 16.7l12.4-12.8c3.4-3.5 2.4-9.5 7.3-9.5 1.7 0 2.9 1 2.9 2.9 0 2.1-1.4 3.1-2.4 4.1l-37.6 37.3c-12.8-8.2-38.8-20.4-51.6-25.7v-1c2.1-.8 4.4-2.2 4.4-7.5v-68.1c0-5.6-2-7.6-4.4-8v-1c19.4-6.3 49-22.1 63-32 9.8 14.6 22.1 32.5 31.3 44.2zm-29.3 14.7c-6.8-9.5-19.9-27.6-27.4-38.8l-.7.2v56l28.1-17.4z"
       id="path269"
       style="fill:#b1b1b1;fill-opacity:1" />
    <path
       d="M1440.5 22.1c0 19.5-14.9 30-31 32.5v121.9c19.6-10.9 25.9-22.9 25.9-28.6 0-1.2-2.4-2.9-2.4-5.1 0-1.7 1.4-3.2 2.9-3.2 2.2 0 3.2 1.9 3.2 5.6 0 28.4-27.1 66.7-84.8 66.7-43.3 0-80-34.2-80-78.1 0-62.5 52.4-84.1 88.7-86.3-13.3-2.9-34.6-7.5-52.4-7.5-20.6 0-37.6 12.1-37.6 23 0 4.1 3.4 4.8 3.4 7.8 0 1.6-.7 3.6-2.9 3.6-3.4 0-3.9-3.2-3.9-5.8 0-23.8 14.6-58.9 50.4-58.9 36.3 0 63.9 13.1 92.1 13.1 18.7 0 24.2-5.6 23.5-16.5l3.2 1.2c.7 1.8 1.7 7.3 1.7 14.6zm-33.4 156.1V55.1c-1.5.1-4.1.2-5.6.2-8.3 0-22.8-3.2-32.2-5.8-28.1 5.1-60.8 28.8-60.8 73.4 0 38.3 27.2 62.8 65.9 62.8 13 0 24.6-2.7 32.7-7.5z"
       id="path271"
       style="fill:#b1b1b1;fill-opacity:1" />
    <path
       d="M1710.1 178.9c-7.8 6.5-22.5 19.6-29.8 26.7-6.8-6.1-20.8-17.2-29.6-23.5v-1c2.5-.9 4.4-3.3 4.4-9v-67.4c-7-5.1-20.8-13.8-28.4-18.7l-5.3 4.6v84.8l11.9 8.7s-16.5 14.3-23.8 21.3c-6.5-6.3-16.2-13.6-25-20.1v-1c2.5-.9 4.4-3.3 4.4-9v-70.8c-7-5.1-20.8-13.8-28.4-18.7l-6.5 5.6v83.9l11.9 8.7s-16 13.4-23.8 21.1c-7.3-6.5-15.3-12.5-25-19.9v-.7c2.7-1.1 4.4-4.4 4.4-8.2v-81l-10.4-9.2-6.5 5.6-2.4-2.7c7.3-6.1 19.4-16.7 29.8-26.7l22.1 19.9v5.6l30.1-25.5c9.5 6.8 37.3 24.5 37.3 24.5l28.8-24.5c9.2 7.3 30.3 20.4 41.9 27.2v1c-3.9 1-4.4 6.1-4.4 8.7v73l13.3 9.9 6.3-5.8 2.7 2.6z"
       id="path273"
       style="fill:#b1b1b1;fill-opacity:1" />
    <path
       d="M1503 35.9c-7.8 10.9-14.1 16-26.7 16-8.5 0-14.3-4.6-21.8-12.8l-6.1 5.6-2.4-2.9 29.6-26.4c8.5 17.2 19.4 19.9 26.9 19.6l.5.9z"
       id="path275"
       style="fill:#b1b1b1;fill-opacity:1" />
    <path
       d="M1510.3 178.9c-8.5 7.3-22.1 19-29.8 26.7-7.3-6.5-19.6-16.1-29.3-23.5v-.7c2.7-1.1 4.4-4.4 4.4-8.2V95.3l-10.4-9.2-6.5 5.6-2.4-2.7c7.3-6.1 19.4-16.7 29.8-26.7l26.4 23.5v1c-3.2 1-4.4 2.9-4.4 10.2v75.1l13.3 9.7 6.3-5.6 2.6 2.7z"
       id="path277"
       style="fill:#b1b1b1;fill-opacity:1" />
    <path
       d="M1005.9 178.9c-8.5 7.3-22.1 19-29.8 26.7-7.3-6.5-19.6-16.1-29.3-23.5v-.7c2.7-1.1 4.4-4.4 4.4-8.2V47.3l-10.4-9.2-6.5 5.6-2.4-2.7c7.3-6.1 17.7-16.7 28.1-26.7l28.1 23.5v1c-3.2 1-4.4 2.9-4.4 10.2v123.1l13.3 9.7 6.3-5.6 2.6 2.7z"
       id="path279"
       style="fill:#b1b1b1;fill-opacity:1" />
    <path
       d="M715.5 178.9c-7.8 6.5-22.5 19.6-29.8 26.7-6.8-6.1-20.6-17.2-29.3-23.5v-1c2.5-.9 4.4-3.3 4.4-9v-67.4c-7-5.1-20.8-13.8-28.4-18.7l-6.5 5.6v83.9l11.9 8.7s-16 13.4-23.8 21.1c-7.3-6.5-15.3-12.5-25-19.9v-.7c2.7-1.1 4.4-4.4 4.4-8.2V95.3L583 86.1l-6.5 5.6-2.4-2.7c7.3-6.1 19.4-16.7 29.8-26.7L626 82.2v5.6l30.1-25.5c9.2 7.3 30.1 20.4 41.7 27.2v1c-3.9 1-4.4 6.1-4.4 8.7v73l13.3 9.9 6.3-5.8 2.5 2.6z"
       id="path281"
       style="fill:#b1b1b1;fill-opacity:1" />
    <path
       d="M1395.9 65.7c0 1.7-1.4 2.4-2.7 2.4-2.1 0-3.9-4.1-9.7-4.1-8.6 0-15.8 7.9-15.8 16.5 0 22.5 22.3 31.7 22.3 57.5 0 21.6-21.1 34-42.9 36.8l-4.1-2.9c11.9-1.6 17.7-5.6 17.7-20.1 0-19.6-20.4-35.6-20.4-58.7 0-18.7 17.5-33.2 41.5-33.2 4.7 0 9.3 1.4 11.9 2.7 1.5.7 2.2 1.7 2.2 3.1z"
       id="path283"
       style="fill:#b1b1b1;fill-opacity:1" />
  </g>
  <metadata
     id="metadata293">
    <rdf:RDF>
      <cc:Work
         rdf:about="">
        <dc:title>Los Angeles Times</dc:title>
      </cc:Work>
    </rdf:RDF>
  </metadata>
</svg>
