<?xml version="1.0" encoding="UTF-8" standalone="no"?>
<svg width="87px" height="77px" viewBox="0 0 87 77" version="1.1" xmlns="http://www.w3.org/2000/svg" xmlns:xlink="http://www.w3.org/1999/xlink">
    <!-- Generator: Sketch 3.6 (26304) - http://www.bohemiancoding.com/sketch -->
    <title>Page 1</title>
    <desc>Created with Sketch.</desc>
    <defs></defs>
    <g id="Page-1" stroke="none" stroke-width="1" fill="none" fill-rule="evenodd" opacity="0.82">
        <g id="About---Desktop-Copy" transform="translate(-143.000000, -849.000000)">
            <g id="Page-1" transform="translate(143.000000, 849.500000)">
                <path d="M80.2977099,43.3129909 L61.4882771,5.69412517 L25.1377046,5.69412517 L6.32827177,43.3129909 L21.8164962,43.3129909 C21.8164962,55.18443 31.4415517,64.8094855 43.3129909,64.8094855 C55.18443,64.8094855 64.8094855,55.18443 64.8094855,43.3129909 L80.2977099,43.3129909 Z M86.3059802,43.3129909 L86.3059802,75.5577329 L0.320001505,75.5577329 L0.320001505,43.3129909 L21.8164962,0.320001505 L64.8094855,0.320001505 L86.3059802,43.3129909 Z M16.4423725,37.9388672 L70.1836092,37.9388672 L70.1836092,32.5647435 L16.4423725,32.5647435 L16.4423725,37.9388672 Z M21.8164962,27.1906199 L64.8094855,27.1906199 L64.8094855,21.8164962 L21.8164962,21.8164962 L21.8164962,27.1906199 Z M27.1906199,16.4423725 L59.4353619,16.4423725 L59.4353619,11.0682488 L27.1906199,11.0682488 L27.1906199,16.4423725 Z" id="Fill-1" fill="#FFFFFF"></path>
                <path d="M80.2977099,43.3129909 L61.4882771,5.69412517 L25.1377046,5.69412517 L6.32827177,43.3129909 L21.8164962,43.3129909 C21.8164962,55.18443 31.4415517,64.8094855 43.3129909,64.8094855 C55.18443,64.8094855 64.8094855,55.18443 64.8094855,43.3129909 L80.2977099,43.3129909 L80.2977099,43.3129909 Z M86.3059802,43.3129909 L86.3059802,75.5577329 L0.320001505,75.5577329 L0.320001505,43.3129909 L21.8164962,0.320001505 L64.8094855,0.320001505 L86.3059802,43.3129909 L86.3059802,43.3129909 Z M16.4423725,37.9388672 L70.1836092,37.9388672 L70.1836092,32.5647435 L16.4423725,32.5647435 L16.4423725,37.9388672 Z M21.8164962,27.1906199 L64.8094855,27.1906199 L64.8094855,21.8164962 L21.8164962,21.8164962 L21.8164962,27.1906199 Z M27.1906199,16.4423725 L59.4353619,16.4423725 L59.4353619,11.0682488 L27.1906199,11.0682488 L27.1906199,16.4423725 Z" id="Stroke-3" fill="#757575"></path>
            </g>
        </g>
    </g>
</svg>