<?xml version="1.0" encoding="UTF-8" standalone="no"?>
<svg width="87px" height="76px" viewBox="0 0 87 76" version="1.1" xmlns="http://www.w3.org/2000/svg" xmlns:xlink="http://www.w3.org/1999/xlink">
    <!-- Generator: Sketch 3.6 (26304) - http://www.bohemiancoding.com/sketch -->
    <title>Group 6</title>
    <desc>Created with Sketch.</desc>
    <defs>
        <path id="path-1" d="M0,0.00264094894 L45.8468002,0.00264094894 L45.8468002,33.672099 L0,33.672099"></path>
    </defs>
    <g id="Page-1" stroke="none" stroke-width="1" fill="none" fill-rule="evenodd">
        <g id="About---Desktop-Copy" transform="translate(-143.000000, -1026.000000)">
            <g id="Group-6" transform="translate(143.000000, 1026.000000)">
                <g id="Page-1" opacity="0.78">
                    <path d="M80.2977099,43.3129909 L61.4882771,5.69412517 L25.1377046,5.69412517 L6.32827177,43.3129909 L21.8164962,43.3129909 C21.8164962,55.18443 31.4415517,64.8094855 43.3129909,64.8094855 C55.18443,64.8094855 64.8094855,55.18443 64.8094855,43.3129909 L80.2977099,43.3129909 Z M86.3059802,43.3129909 L86.3059802,75.5577329 L0.320001505,75.5577329 L0.320001505,43.3129909 L21.8164962,0.320001505 L64.8094855,0.320001505 L86.3059802,43.3129909 Z M16.4423725,37.9388672 L70.1836092,37.9388672 L70.1836092,32.5647435 L16.4423725,32.5647435 L16.4423725,37.9388672 Z M21.8164962,27.1906199 L64.8094855,27.1906199 L64.8094855,21.8164962 L21.8164962,21.8164962 L21.8164962,27.1906199 Z M27.1906199,16.4423725 L59.4353619,16.4423725 L59.4353619,11.0682488 L27.1906199,11.0682488 L27.1906199,16.4423725 Z" id="Fill-1" fill="#FFFFFF"></path>
                    <path d="M80.2977099,43.3129909 L61.4882771,5.69412517 L25.1377046,5.69412517 L6.32827177,43.3129909 L21.8164962,43.3129909 C21.8164962,55.18443 31.4415517,64.8094855 43.3129909,64.8094855 C55.18443,64.8094855 64.8094855,55.18443 64.8094855,43.3129909 L80.2977099,43.3129909 L80.2977099,43.3129909 Z M86.3059802,43.3129909 L86.3059802,75.5577329 L0.320001505,75.5577329 L0.320001505,43.3129909 L21.8164962,0.320001505 L64.8094855,0.320001505 L86.3059802,43.3129909 L86.3059802,43.3129909 Z" id="Stroke-3" fill="#757575"></path>
                </g>
                <g id="Page-1" opacity="0.82" transform="translate(20.500000, 21.000000)">
                    <g id="Group-3">
                        <mask id="mask-2" fill="white">
                            <use xlink:href="#path-1"></use>
                        </mask>
                        <g id="Clip-2"></g>
                        <path d="M45.8467782,8.71440523 C44.5607828,9.14245904 43.369348,9.54021529 42.177253,9.93562404 C40.1611086,10.6044444 38.145551,11.2750253 36.1277927,11.9389305 C33.4258818,12.8279766 30.7219169,13.7104937 28.0194192,14.5974858 C26.4650007,15.1076291 24.913003,15.6249616 23.3559435,16.1266686 C23.2065832,16.1747925 23.0152611,16.1772868 22.8663409,16.1294563 C19.5541508,15.0656673 16.2454086,13.9912413 12.935566,12.9199697 C9.04478794,11.6606039 5.15342305,10.4029253 1.26293846,9.14282584 C0.869290351,9.01532669 0.479456944,8.87601664 -2.20079073e-05,8.71220444 C0.703864244,8.4394531 1.33013594,8.19274446 1.95934202,7.95366522 C4.01297326,7.17348489 6.0673381,6.39521191 8.12206973,5.61796596 C10.3255015,4.78445313 12.5298135,3.9531411 14.733612,3.12058194 C17.1543352,2.20600666 19.5750583,1.29113793 21.9956347,0.37619584 C22.3038922,0.259627288 22.6076747,0.129413834 22.9214341,0.0303782487 C23.038076,-0.00644831699 23.1911043,-0.00820894961 23.3041516,0.0349999094 C25.8118793,0.994911488 28.3152788,1.96619382 30.8217594,2.92940659 C34.1716565,4.21679583 37.5243411,5.49699583 40.8740914,6.78460516 C42.5026766,7.41065677 44.1274471,8.04683203 45.8467782,8.71440523" id="Fill-1" fill="#757575" mask="url(#mask-2)"></path>
                    </g>
                    <path d="M9.37542008,12.4919159 C10.2067321,12.7681885 11.0037852,13.0306695 11.7992977,13.2979188 C14.9241272,14.3477694 18.048223,15.3998207 21.1731992,16.4491578 C21.7626444,16.6470089 22.3545837,16.9853438 22.9460829,16.9868843 C23.5243774,16.9883515 24.1034054,16.6419471 24.6822868,16.4488644 C27.450368,15.5254859 30.2181559,14.6014472 32.9867507,13.6796093 C34.1335828,13.2976988 35.2819554,12.9204099 36.430108,12.5424607 C36.4854212,12.5242675 36.5452093,12.5196459 36.6196694,12.5055608 L36.6196694,18.8816918 C35.9802663,18.9214528 35.3470254,18.9370051 34.7193599,19.0044226 C32.7688724,19.2137912 30.8720842,19.65571 29.0210724,20.3138198 C26.9758042,21.0410344 25.042923,21.9905289 23.193085,23.1203415 C23.0908216,23.182844 22.8827001,23.1768285 22.7769888,23.1137392 C19.892339,21.3912536 16.8303054,20.0969685 13.5424707,19.3955031 C12.3052595,19.131555 11.0295344,19.0474847 9.77097554,18.883966 C9.65081237,18.8683404 9.52830168,18.870908 9.37542008,18.8634986 L9.37542008,12.4919159 Z" id="Fill-4" fill="#757575"></path>
                </g>
            </g>
        </g>
    </g>
</svg>