<?xml version="1.0" encoding="UTF-8" standalone="no"?>
<svg width="103px" height="76px" viewBox="0 0 103 76" version="1.1" xmlns="http://www.w3.org/2000/svg" xmlns:xlink="http://www.w3.org/1999/xlink">
    <!-- Generator: Sketch 3.6 (26304) - http://www.bohemiancoding.com/sketch -->
    <title>Page 1</title>
    <desc>Created with Sketch.</desc>
    <defs>
        <path id="path-1" d="M0,0.00588235294 L102.117484,0.00588235294 L102.117484,75 L0,75"></path>
    </defs>
    <g id="Page-1" stroke="none" stroke-width="1" fill="none" fill-rule="evenodd">
        <g id="About---Desktop-Copy" transform="translate(-132.000000, -1026.000000)">
            <g id="Page-1" transform="translate(132.437908, 1026.500000)">
                <g id="Group-3">
                    <mask id="mask-2" fill="white">
                        <use xlink:href="#path-1"></use>
                    </mask>
                    <g id="Clip-2"></g>
                    <path d="M102.117435,19.4101471 C99.2530556,20.3635784 96.5992974,21.2495261 93.9440686,22.1302451 C89.4533824,23.619951 84.9640033,25.1135784 80.4697222,26.5923366 C74.451585,28.5725654 68.4288725,30.5382516 62.4094281,32.5139052 C58.9471732,33.6501797 55.4903105,34.8024673 52.0221732,35.919951 C51.6894935,36.0271405 51.2633497,36.0326961 50.9316503,35.9261601 C43.5541993,33.5567157 36.1844281,31.1635784 28.8122059,28.7774673 C20.1460294,25.972402 11.4785458,23.1710948 2.81302288,20.3643954 C1.93622549,20.0804085 1.06792484,19.7701144 -4.90196079e-05,19.4052451 C1.56776144,18.7977288 2.96269608,18.248219 4.36416667,17.7157026 C8.93834967,15.9779575 13.5141667,14.2444608 18.0908007,12.5132516 C22.9986438,10.6567157 27.9084477,8.8050817 32.8171078,6.95066993 C38.2089379,4.91357843 43.600768,2.87583333 48.9922712,0.837924837 C49.6788725,0.578284314 50.3555065,0.288251634 51.0543627,0.0676633987 C51.3141667,-0.0143627451 51.6550163,-0.0182843137 51.9068137,0.0779575163 C57.4924346,2.21602941 63.068415,4.3794281 68.6512582,6.52485294 C76.1126961,9.3923366 83.5803431,12.2438072 91.0414542,15.111781 C94.6689052,16.5062255 98.2878595,17.923219 102.117435,19.4101471" id="Fill-1" fill="#000000" mask="url(#mask-2)"></path>
                </g>
                <path d="M20.8824673,27.8240359 C22.7341013,28.4393954 24.5094281,29.0240359 26.2813235,29.6192974 C33.2414542,31.9576961 40.199951,34.3009967 47.1604085,36.6382516 C48.473317,37.0789379 49.791781,37.8325327 51.1092647,37.8359641 C52.3973366,37.839232 53.6870425,37.0676634 54.9764216,36.637598 C61.1419444,34.5808987 67.3068137,32.5227288 73.4734804,30.4694608 C76.0278922,29.6188072 78.5857353,28.7784477 81.1430882,27.9366176 C81.2662908,27.8960948 81.3994608,27.8858007 81.5653105,27.8544281 L81.5653105,42.0563889 C80.1411275,42.144951 78.7306699,42.1795915 77.3326307,42.3297549 C72.9881863,42.7960948 68.7633497,43.7804085 64.6404739,45.2462582 C60.0849183,46.8660294 55.7796895,48.9808987 51.6594281,51.497402 C51.4316503,51.6366176 50.9680882,51.623219 50.7326307,51.4826961 C44.3074673,47.6460948 37.4872059,44.7632516 30.1640033,43.2008333 C27.4082843,42.6129248 24.566781,42.4256699 21.7635131,42.0614542 C21.495866,42.0266503 21.2229902,42.0323693 20.8824673,42.015866 L20.8824673,27.8240359 Z" id="Fill-4" fill="#000000"></path>
                <path d="M89.1523203,52.1943301 C90.2903922,53.0312582 90.3586928,54.201683 90.3547712,55.4361601 C90.3348366,61.6150817 90.3467647,67.7940033 90.3443137,73.9729248 C90.3441503,74.2905719 90.3150654,74.6080556 90.2957843,74.997598 C88.4529739,74.997598 86.6884314,75.0105065 84.9247059,74.9761928 C84.7619608,74.9730882 84.5578758,74.6926961 84.4606536,74.497598 C84.3845098,74.3444935 84.4433333,74.1239052 84.4433333,73.9333824 C84.4431699,67.6456373 84.4539542,61.3577288 84.4328758,55.0699837 C84.4291176,53.9502124 84.6434967,52.9641013 85.5912092,52.2056046 C85.3846732,51.925866 85.1836928,51.6819118 85.0134314,51.4181863 C84.0776471,49.9696569 84.3604902,48.4595261 85.6923529,47.3613235 C85.9278105,47.1672059 86.0704575,46.7281536 86.0716013,46.401683 C86.0933333,40.0866503 86.0823856,33.7716176 86.0910458,27.456585 C86.0931699,25.9078922 85.8578758,26.196781 87.3921895,25.705768 C87.7724183,25.5841993 88.1635948,25.4971078 88.6680065,25.3626307 L88.6680065,26.4209641 C88.6683333,33.008219 88.6732353,39.5954739 88.6609804,46.1825654 C88.6598366,46.7585458 88.7761765,47.1614869 89.2724183,47.5642647 C90.6877778,48.7127941 90.6415359,50.505768 89.1523203,52.1943301" id="Fill-6" fill="#000000"></path>
            </g>
        </g>
    </g>
</svg>