<?xml version="1.0" encoding="UTF-8" standalone="no"?>
<svg width="87px" height="79px" viewBox="0 0 87 79" version="1.1" xmlns="http://www.w3.org/2000/svg" xmlns:xlink="http://www.w3.org/1999/xlink">
    <!-- Generator: Sketch 3.6 (26304) - http://www.bohemiancoding.com/sketch -->
    <title>Page 1</title>
    <desc>Created with Sketch.</desc>
    <defs>
        <path id="path-1" d="M0,0.14425641 L86.9412564,0.14425641 L86.9412564,78.5726496 L0,78.5726496"></path>
    </defs>
    <g id="Page-1" stroke="none" stroke-width="1" fill="none" fill-rule="evenodd">
        <g id="About---Desktop-Copy" transform="translate(-140.000000, -848.000000)">
            <g id="Page-1" transform="translate(183.500000, 887.500000) scale(-1, 1) translate(-183.500000, -887.500000) translate(140.000000, 848.000000)">
                <mask id="mask-2" fill="white">
                    <use xlink:href="#path-1"></use>
                </mask>
                <g id="Clip-2"></g>
                <path d="M1.40079915,1.11875556 C1.32321795,1.20203761 1.24538889,1.28556752 1.16780769,1.36884957 C1.7545,1.96000342 2.33995299,2.55264444 2.92862821,3.14206325 C19.6147821,19.8542427 36.3011838,36.5661744 52.9875855,53.2778581 C53.0750812,53.3656017 53.1836453,53.4402085 53.2468504,53.5428239 C53.8231325,54.479747 54.5558162,55.3609009 54.929594,56.3739179 C55.841235,58.8448667 56.5806111,61.3787726 57.4022778,63.8831829 C57.5135684,64.2225077 57.6994658,64.537294 57.8509103,64.8634821 L58.2028761,64.7606188 L58.2028761,63.458841 C58.2028761,60.3208923 58.1552863,57.1819521 58.2239444,54.0457385 C58.2564145,52.5615333 57.7554829,51.4751487 56.6472863,50.4854308 C38.8898675,34.625653 21.1564915,18.7393538 3.41592735,2.86098632 C2.75438034,2.26908889 2.07300427,1.69900342 1.40079915,1.11875556 M24.1680299,76.8466786 C27.7843547,64.8144051 31.4009274,52.7823795 35.0172521,40.7503538 L34.6769359,40.6422855 C30.2763718,53.1712769 25.8758077,65.7002684 21.3547821,78.5725504 C21.0662692,77.8487897 20.8679786,77.4638581 20.756688,77.0553795 C13.9642436,52.1156274 7.17948291,27.1736444 0.390260684,2.23290085 C0.282192308,1.83607179 0.0839017094,1.45882393 0.0145,1.05753333 C-0.0358162393,0.765798291 0.0578760684,0.449524786 0.0871239316,0.144157265 C0.39075641,0.174644444 0.726611111,0.131020513 0.993064103,0.247020513 C5.41395299,2.17167863 9.81798718,4.13475556 14.2413547,6.05371282 C38.1415684,16.4210889 62.0459957,26.7785504 85.9479444,37.1424564 C86.3083376,37.2986103 86.6523718,37.492935 86.9411325,37.8739009 L46.5495855,33.7291316 C46.5362009,33.8414137 46.5225684,33.9536957 46.5089359,34.0659778 C59.3690726,35.8565419 72.2294573,37.6468581 85.089594,39.4371744 C85.1213205,39.5316103 85.1532949,39.6260462 85.1852692,39.7204821 C84.879406,39.9262085 84.5899017,40.1629179 84.2654487,40.3329521 C77.8376111,43.7021573 71.4372863,47.1256444 64.9551667,50.3872769 C63.100406,51.3204821 62.3005513,52.540465 62.1285342,54.5783966 C61.5420897,61.526747 60.8081667,68.4629521 60.1248077,75.4031231 C60.1020043,75.6366103 60.0197137,75.8643966 59.915859,76.3036103 C59.5938846,75.9345419 59.3750214,75.7233624 59.2022607,75.479465 C56.1235513,71.1356615 53.0490556,66.7886359 49.9770385,62.4401231 C48.8730556,60.8773453 48.6398162,60.8285162 47.0034231,61.9253111 C39.8047308,66.7502171 32.6090128,71.5790889 25.4108162,76.4044906 C25.0774402,76.6280632 24.7314231,76.8323026 24.3913547,77.045465 C24.3169957,76.9790376 24.2423889,76.9128581 24.1680299,76.8466786" id="Fill-1" fill="#4285F4" mask="url(#mask-2)"></path>
            </g>
        </g>
    </g>
</svg>