<?xml version="1.0" encoding="UTF-8" standalone="no"?>
<!-- Generator: Adobe Illustrator 16.0.5, SVG Export Plug-In . SVG Version: 6.00 Build 0)  -->

<svg
   version="1.1"
   id="Layer_1"
   x="0px"
   y="0px"
   viewBox="0 0 922.24169 204.43292"
   enable-background="new 0 0 384.483 54.311"
   xml:space="preserve"
   sodipodi:docname="michigan.svg"
   width="922.2417"
   height="204.43292"
   inkscape:version="1.1.1 (3bf5ae0d25, 2021-09-20)"
   xmlns:inkscape="http://www.inkscape.org/namespaces/inkscape"
   xmlns:sodipodi="http://sodipodi.sourceforge.net/DTD/sodipodi-0.dtd"
   xmlns="http://www.w3.org/2000/svg"
   xmlns:svg="http://www.w3.org/2000/svg"><defs
   id="defs12636" /><sodipodi:namedview
   id="namedview12634"
   pagecolor="#ffffff"
   bordercolor="#666666"
   borderopacity="1.0"
   inkscape:pageshadow="2"
   inkscape:pageopacity="0.0"
   inkscape:pagecheckerboard="0"
   showgrid="false"
   fit-margin-top="0"
   fit-margin-left="0"
   fit-margin-right="0"
   fit-margin-bottom="0"
   inkscape:zoom="0.42886929"
   inkscape:cx="529.2988"
   inkscape:cy="395.22532"
   inkscape:window-width="1866"
   inkscape:window-height="1016"
   inkscape:window-x="54"
   inkscape:window-y="27"
   inkscape:window-maximized="1"
   inkscape:current-layer="Layer_1" />
<g
   id="g12625"
   transform="matrix(2.19783,0,0,2.19783,146.50753,23.1407)">
	
	
	
	
	
	
	
	<g
   id="g13151"
   transform="matrix(1.6578311,0,0,1.6578311,-51.867922,-23.807308)"><path
     fill="#002e5e"
     d="m 81.587,25.828 v 0.63 c 0,2.94 1.86,3.871 3.63,3.871 2.19,0 3.87,-0.931 3.87,-3.511 0,-4.8 -9.72,-4.26 -9.72,-10.77 0,-3.84 2.73,-5.879 6.36,-5.879 3.96,0 6.18,1.92 6,6.33 h -2.88 c 0.03,-2.37 -0.72,-3.93 -3.33,-3.93 -1.65,0 -3.33,0.84 -3.33,3.18 0,4.77 9.72,4.08 9.72,10.95 0,4.56 -3.15,6.03 -6.72,6.03 -6.39,0.06 -6.39,-4.83 -6.33,-6.9 h 2.73 z"
     id="path12587" /><path
     fill="#002e5e"
     d="m 104.282,16.588 c 0.03,-1.23 -0.06,-2.46 -0.63,-3.15 -0.57,-0.69 -1.86,-0.93 -2.43,-0.93 -2.28,0 -3.18,1.38 -3.27,1.68 -0.09,0.24 -0.63,0.78 -0.63,4.5 v 5.79 c 0,5.31 1.74,5.94 3.87,5.94 0.84,0 3.39,-0.301 3.419,-4.53 h 2.85 c 0.12,6.84 -4.71,6.84 -6.12,6.84 -2.7,0 -6.84,-0.181 -6.84,-8.58 v -6.12 c 0,-6.12 2.7,-7.859 6.959,-7.859 4.29,0 5.94,2.22 5.67,6.419 z"
     id="path12589" /><path
     fill="#002e5e"
     d="M 110.16,32.277 V 10.618 h 2.76 v 9.36 h 7.59 v -9.36 h 2.76 v 21.659 h -2.76 v -9.899 h -7.59 v 9.899 z"
     id="path12591" /><path
     fill="#002e5e"
     d="m 126.485,24.357 v -7.109 c 0,-4.32 2.22,-7.08 6.81,-7.08 4.59,0 6.81,2.76 6.81,7.08 v 7.109 c 0,6 -2.22,8.37 -6.81,8.37 -4.59,0 -6.81,-2.37 -6.81,-8.37 z m 10.8,0.121 v -7.319 c 0,-4.53 -3.12,-4.68 -3.99,-4.68 -0.87,0 -3.99,0.15 -3.99,4.68 v 7.319 c 0,4.739 1.38,5.94 3.99,5.94 2.61,0 3.99,-1.201 3.99,-5.94 z"
     id="path12593" /><path
     fill="#002e5e"
     d="m 143.081,24.357 v -7.109 c 0,-4.32 2.22,-7.08 6.81,-7.08 4.59,0 6.81,2.76 6.81,7.08 v 7.109 c 0,6 -2.22,8.37 -6.81,8.37 -4.59,0.001 -6.81,-2.37 -6.81,-8.37 z m 10.799,0.121 v -7.319 c 0,-4.53 -3.12,-4.68 -3.99,-4.68 -0.87,0 -3.99,0.15 -3.99,4.68 v 7.319 c 0,4.739 1.38,5.94 3.99,5.94 2.61,0 3.99,-1.201 3.99,-5.94 z"
     id="path12595" /><path
     fill="#002e5e"
     d="M 159.841,32.277 V 10.618 h 2.76 v 19.259 h 7.95 v 2.4 z"
     id="path12597" /><path
     fill="#002e5e"
     d="m 176.73,24.357 v -7.109 c 0,-4.32 2.22,-7.08 6.81,-7.08 4.59,0 6.81,2.76 6.81,7.08 v 7.109 c 0,6 -2.22,8.37 -6.81,8.37 -4.59,0 -6.81,-2.37 -6.81,-8.37 z m 10.8,0.121 v -7.319 c 0,-4.53 -3.12,-4.68 -3.99,-4.68 -0.87,0 -3.99,0.15 -3.99,4.68 v 7.319 c 0,4.739 1.38,5.94 3.99,5.94 2.61,0 3.99,-1.201 3.99,-5.94 z"
     id="path12599" /><path
     fill="#002e5e"
     d="M 193.389,32.277 V 10.618 h 10.74 v 2.4 h -7.979 v 6.96 h 7.56 v 2.4 h -7.56 v 9.899 z"
     id="path12601" /></g>
	
	
	
	
	
	
	
	
	
	
	<g
   id="g13141"
   transform="matrix(1.7021306,0,0,1.7021306,-203.70906,-91.207424)"><path
     fill="#002e5e"
     d="m 168.76132,101.59525 h -2.76 V 79.936251 h 2.76 z"
     id="path12603" /><path
     fill="#002e5e"
     d="m 187.08732,79.936251 v 21.658999 h -3.78 l -8.549,-18.778999 h -0.061 v 18.778999 h -2.459 V 79.936251 h 3.898 l 8.43,18.539 h 0.061 v -18.539 z"
     id="path12605" /><path
     fill="#002e5e"
     d="M 190.34232,101.59525 V 79.936251 h 10.74 v 2.4 h -7.979 v 6.96 h 7.56 v 2.4 h -7.56 v 9.898999 z"
     id="path12607" /><path
     fill="#002e5e"
     d="m 202.85232,93.675251 v -7.109 c 0,-4.32 2.221,-7.08 6.811,-7.08 4.59,0 6.81,2.76 6.81,7.08 v 7.109 c 0,6 -2.22,8.369999 -6.81,8.369999 -4.59,0 -6.811,-2.369999 -6.811,-8.369999 z m 10.8,0.121 v -7.319 c 0,-4.53 -3.121,-4.68 -3.99,-4.68 -0.87,0 -3.99,0.15 -3.99,4.68 v 7.319 c 0,4.739 1.38,5.94 3.99,5.94 2.609,0 3.99,-1.201 3.99,-5.94 z"
     id="path12609" /><path
     fill="#002e5e"
     d="m 222.34632,91.636251 v 9.958999 h -2.76 V 79.936251 h 7.469 c 3.84,0 5.19,2.7 5.19,5.4 0,2.55 -1.409,4.5 -3.96,4.95 v 0.06 c 2.49,0.39 3.391,1.23 3.54,5.58 0.03,0.93 0.33,4.319999 0.75,5.669999 h -2.88 c -0.779,-1.5 -0.6,-4.319999 -0.84,-7.199999 -0.21,-2.64 -2.34,-2.76 -3.27,-2.76 z m 0,-2.4 h 4.14 c 1.979,0 2.94,-1.71 2.94,-3.6 0,-1.56 -0.78,-3.3 -2.91,-3.3 h -4.17 z"
     id="path12611" /><path
     fill="#002e5e"
     d="m 237.67832,101.59525 h -2.579 V 79.936251 h 4.47 l 5.46,18.179 h 0.06 l 5.52,-18.179 h 4.561 v 21.658999 h -2.76 V 82.336251 h -0.061 l -6.06,19.258999 h -2.61 l -5.939,-19.258999 h -0.061 v 19.258999 z"
     id="path12613" /><path
     fill="#002e5e"
     d="m 264.17232,79.936251 h 3.51 l 7.049,21.658999 h -3.089 l -1.56,-5.159999 h -8.37 l -1.62,5.159999 h -2.789 z m 1.68,2.55 h -0.061 l -3.389,11.55 h 6.93 z"
     id="path12615" /><path
     fill="#002e5e"
     d="m 287.06832,79.936251 v 2.4 h -5.701 v 19.258999 h -2.76 V 82.336251 h -5.699 v -2.4 z"
     id="path12617" /><path
     fill="#002e5e"
     d="m 292.07432,101.59525 h -2.76 V 79.936251 h 2.76 z"
     id="path12619" /><path
     fill="#002e5e"
     d="m 295.35432,93.675251 v -7.109 c 0,-4.32 2.221,-7.08 6.811,-7.08 4.59,0 6.809,2.76 6.809,7.08 v 7.109 c 0,6 -2.219,8.369999 -6.809,8.369999 -4.59,0 -6.811,-2.369999 -6.811,-8.369999 z m 10.8,0.121 v -7.319 c 0,-4.53 -3.121,-4.68 -3.99,-4.68 -0.871,0 -3.99,0.15 -3.99,4.68 v 7.319 c 0,4.739 1.381,5.94 3.99,5.94 2.609,0 3.99,-1.201 3.99,-5.94 z"
     id="path12621" /><path
     fill="#002e5e"
     d="m 327.03932,79.936251 v 21.658999 h -3.779 l -8.551,-18.778999 h -0.059 v 18.778999 h -2.461 V 79.936251 h 3.9 l 8.43,18.539 h 0.061 v -18.539 z"
     id="path12623" /></g>
</g>

<path
   fill="#f5c400"
   d="M 142.95261,168.76113 84.39827,88.75179 v 58.20041 h 23.27779 v 57.48072 H 0 V 146.9522 H 21.82073 V 57.46892 H 0 V 0 H 84.58704 L 142.95261,80.59335 201.31231,0 h 84.56342 V 57.46892 H 264.0491 v 89.47738 h 21.82663 v 57.48072 H 178.20556 V 146.9463 h 23.26601 V 88.74589 Z"
   id="path12629"
   style="stroke-width:5.89909" />

</svg>
