<?xml version="1.0" encoding="utf-8"?>
<!-- Generator: Adobe Illustrator 16.0.0, SVG Export Plug-In . SVG Version: 6.00 Build 0)  -->
<!DOCTYPE svg PUBLIC "-//W3C//DTD SVG 1.1//EN" "http://www.w3.org/Graphics/SVG/1.1/DTD/svg11.dtd">
<svg version="1.1" id="svg3902" xmlns:svg="http://www.w3.org/2000/svg"
	 xmlns="http://www.w3.org/2000/svg" xmlns:xlink="http://www.w3.org/1999/xlink" x="0px" y="0px" width="450px" height="105px"
	 viewBox="0 0 450 105" enable-background="new 0 0 450 105" xml:space="preserve">
<g id="layer1" transform="translate(-259.21875,-371.53629)">
	<path id="path850" fill="#B1B1B1" d="M487.344,377.005c0,0-14.135,34.784-15.156,36.938c-0.539,1.078-1.027,1.705-2.531,2.781
		h7.438c-1.45-0.68-1.734-1.485-1.25-2.844c0.107-0.624,1.388-3.96,3-7.812h13.188c1.505,3.853,2.9,7.309,3.062,7.875
		c0.375,1.19,0.115,1.987-1.281,2.781h11.5c-1.775-0.964-2.15-1.591-2.688-2.781C501.658,411.789,487.344,377.005,487.344,377.005z
		 M629.906,377.005c0,0-14.166,34.784-15.188,36.938c-0.539,1.078-0.995,1.705-2.5,2.781h7.406c-1.452-0.68-1.735-1.485-1.25-2.844
		c0.107-0.624,1.419-3.96,3.031-7.812h13.156c1.505,3.853,2.898,7.309,3.062,7.875c0.374,1.19,0.115,1.987-1.281,2.781h11.5
		c-1.775-0.964-2.148-1.591-2.688-2.781C644.188,411.789,629.906,377.005,629.906,377.005z M349.75,377.568
		c-13.654,0-20.625,10.085-20.625,20c0,12.069,9.41,19.719,20,19.719c4.408,0,9.192-0.962,13.656-3.625c0,0,0.575-8.381,0.469-8.156
		c-3.547,7.763-9.63,8.656-12.156,8.656c-11.075,0-14.781-9.55-14.781-17.312c0-9.121,5.214-16.219,14.406-16.219
		c2.58,0,8.876,0.781,12.156,8.656c0.107,0.227-0.5-8.781-0.5-8.781C358.181,378.465,354.158,377.568,349.75,377.568z
		 M450.75,377.568c-13.76,0-20.812,10.085-20.812,20c0,12.069,9.459,19.719,20.156,19.719c4.3,0,11.953-1.462,16.469-4.125
		c-0.269-0.17-0.875-1.212-0.875-2.344v-8.375c0-1.304,0.6-2.085,1.406-2.594h-9.625c0.86,0.509,1.406,1.29,1.406,2.594v9.875
		c-2.526,1.756-5.716,1.844-6.844,1.844c-11.127,0-14.781-9.55-14.781-17.312c0-9.121,5.269-16.219,14.406-16.219
		c2.526,0,9.353,1.201,12.094,8.906l-0.375-9.031C459.129,378.579,455.159,377.568,450.75,377.568z M573.062,377.568
		c-4.889,0-11.688,3.076-11.688,10.781c0,4.306,2.148,7.361,7.094,10.25c4.894,2.776,9.562,3.498,9.562,8.938
		c0,2.775-1.617,6.812-6.938,6.812c-5.591,0-8.822-5.322-9.844-9.344l0.281,9.562c1.883,0.964,5.423,2.719,10.312,2.719
		c6.616,0,12.531-4.825,12.531-11.906c0-7.876-5.222-9.726-10.219-12.219c-5.055-2.436-7.375-3.761-7.375-7.219
		c0-2.436,1.634-5.438,5.719-5.438c5.159,0,8.22,4.562,8.969,7.562l-0.281-8.406C578.449,377.961,574.89,377.568,573.062,377.568z
		 M263.531,378.193c0.861,0.453,1.719,1.487,1.719,2.562v33.406c0,1.246-0.567,2.053-1.375,2.562h5.969
		c-0.914-0.51-1.5-1.316-1.5-2.562v-27.594v-1.531l0.375,1.531l13,30.938l12.906-31.844l0.469-1.281c0,0-0.094,0.602-0.094,1.281
		v28.5c0,1.246-0.545,2.053-1.406,2.562h9.625c-0.86-0.51-1.406-1.316-1.406-2.562v-33.406c0-1.303,0.546-2.11,1.406-2.562h-9.094
		l-10.375,26l-10.75-26H263.531L263.531,378.193z M311.906,378.193c0.86,0.453,1.406,1.26,1.406,2.562v33.406
		c0,1.246-0.546,2.053-1.406,2.562h9.75c-0.914-0.51-1.406-1.316-1.406-2.562v-33.406c0-1.303,0.493-2.11,1.406-2.562H311.906z
		 M370.719,378.193c0.86,0.453,1.406,1.26,1.406,2.562v33.406c0,1.246-0.546,2.053-1.406,2.562h9.719
		c-0.914-0.51-1.375-1.316-1.375-2.562v-17.312h16.719v17.312c0,1.246-0.545,2.053-1.406,2.562h9.719
		c-0.913-0.51-1.5-1.316-1.5-2.562v-33.406c0-1.303,0.587-2.11,1.5-2.562h-9.719c0.861,0.453,1.406,1.26,1.406,2.562v13.312h-16.719
		v-13.312c0-1.303,0.461-2.11,1.375-2.562H370.719z M412.75,378.193c0.861,0.453,1.406,1.26,1.406,2.562v33.406
		c0,1.246-0.545,2.053-1.406,2.562h9.719c-0.914-0.51-1.375-1.316-1.375-2.562v-33.406c0-1.303,0.461-2.11,1.375-2.562H412.75z
		 M506.656,378.193c1.13,0.68,1.869,1.477,2.406,2.156c1.022,1.304,0.969,1.353,0.969,3.562v30.25c0,1.246-0.599,2.053-1.406,2.562
		h5.969c-0.915-0.51-1.5-1.316-1.5-2.562v-28.375c0,0.454,25.812,32.531,25.812,32.531v-37.562c0-1.303,0.57-2.11,1.375-2.562
		h-5.938c0.859,0.453,1.375,1.26,1.375,2.562v22.375l-19.812-24.938H506.656z M587.688,378.193v5.5
		c0.481-0.962,1.397-2.281,2.688-2.281c0,0,4.647-0.375,8.625-0.375v33.125c0,1.246-0.548,2.053-1.406,2.562h9.625
		c-0.808-0.51-1.406-1.316-1.406-2.562v-33.125c3.924,0,8.812,0.375,8.812,0.375c1.29,0.112,2.046,1.319,2.531,2.281v-5.5H587.688z
		 M643.75,378.193v5.5c0.483-0.962,1.397-2.281,2.688-2.281c0,0,4.647-0.375,8.625-0.375v33.125c0,1.246-0.546,2.053-1.406,2.562
		h9.625c-0.807-0.51-1.406-1.316-1.406-2.562v-33.125c3.923,0,8.812,0.375,8.812,0.375c1.29,0.112,2.05,1.319,2.531,2.281v-5.5
		H643.75z M679.031,378.193c0.858,0.453,1.594,1.26,1.594,2.562v33.406c0,1.359-0.68,1.996-1.594,2.562h23.094l1.125-6.531
		c-1.988,3.569-4.135,3.48-8.812,3.594c-2.634,0.114-5.894-0.111-6.969-0.281v-16.656h8.125c0.751,0,1.637,0.831,1.906,1.625v-6
		c-0.27,0.679-1.155,1.594-1.906,1.594h-8.125v-13.031c0,0,7.513-0.018,9.125,0.094c2.046,0.115,3.168,0.589,4.188,2.062l-0.156-5
		H679.031z M485.312,389.255c0,0,2.941,7.586,5.469,13.875h-10.844C481.658,398.88,485.312,389.255,485.312,389.255z
		 M627.844,389.255c0,0,2.975,7.586,5.5,13.875h-10.875C624.19,398.88,627.844,389.255,627.844,389.255z M263.438,426.724v2.969
		h440.75v-2.969H263.438z M560.531,441.724c-3.521,0-8.438,2.203-8.438,7.75c0,3.104,1.564,5.297,5.125,7.375
		c3.525,2,6.875,2.551,6.875,6.469c0,1.999-1.168,4.875-5,4.875c-4.023,0-6.33-3.82-7.062-6.719l0.188,6.875
		c1.355,0.693,3.912,1.969,7.438,1.969c4.759,0,9-3.463,9-8.562c0-5.668-3.746-7.018-7.344-8.812
		c-3.641-1.756-5.312-2.701-5.312-5.188c0-1.755,1.186-3.906,4.125-3.906c3.717,0,5.897,3.273,6.438,5.438l-0.188-6.062
		C564.402,442,561.848,441.724,560.531,441.724z M264.062,442.161c0.62,0.328,1.25,0.905,1.25,1.844v16.969
		c0,7.221,5.754,9.344,10.281,9.344c5.263,0,9.188-2.691,9.188-9.625l0.094-16.688c0-0.938,0.451-1.516,1.031-1.844h-4.5
		c0.581,0.328,1.031,0.905,1.031,1.844l0.094,16.781c0,4.036-1.678,7.219-6.281,7.219c-5.031,0-5.938-4.053-5.938-6.906v-17.094
		c0-0.938,0.567-1.516,1.188-1.844H264.062L264.062,442.161z M314.75,442.161c0.812,0.491,1.362,1.074,1.75,1.562
		c0.734,0.939,0.688,0.971,0.688,2.562v21.781c0,0.897-0.42,1.478-1,1.844h4.312c-0.658-0.366-1.094-0.946-1.094-1.844V447.63
		c0,0.328,18.562,23.438,18.562,23.438v-27.062c0-0.938,0.45-1.516,1.031-1.844h-4.312c0.62,0.328,1,0.905,1,1.844v16.125
		l-14.281-17.969H314.75z M369.781,442.161c0.619,0.328,1,0.906,1,1.844v24.062c0,0.897-0.381,1.478-1,1.844h7
		c-0.659-0.366-1-0.946-1-1.844v-24.062c0-0.938,0.341-1.516,1-1.844H369.781z M403.5,442.161c1.163,0.491,1.631,1.151,2.094,1.969
		c0.736,1.508,10.844,26.656,10.844,26.656s9.31-25.066,9.969-26.656c0.388-0.979,0.462-1.271,1.469-1.969h-4.719
		c1.006,0.41,1.161,1.002,0.812,2.062c-0.039,0.286-6.188,17.344-6.188,17.344s-6.453-16.791-6.531-17.156
		c-0.271-0.98-0.195-1.84,0.812-2.25H403.5z M455.281,442.161c0.619,0.328,1.156,0.905,1.156,1.844v24.062
		c0,0.981-0.499,1.436-1.156,1.844h16.625l0.812-4.688c-1.433,2.57-2.978,2.48-6.344,2.562c-1.896,0.084-4.257-0.066-5.031-0.188
		v-12h5.844c0.542,0,1.212,0.617,1.406,1.188v-4.344c-0.194,0.488-0.864,1.156-1.406,1.156h-5.844v-9.375
		c0,0,5.433-0.019,6.594,0.062c1.47,0.081,2.265,0.406,3,1.469l-0.094-3.594H455.281L455.281,442.161z M501.719,442.161
		c0.619,0.328,1,0.905,1,1.844v24.062c0,0.897-0.381,1.478-1,1.844h7c-0.658-0.366-1.094-0.946-1.094-1.844v-11.125
		c0,0,1.255-0.094,1.719-0.094c1.665,0,2.557,1.772,3.562,3.406c1.395,2.283,3.105,5.242,4.844,7.812
		c0.697,0.98,1.969,1.938,3.438,1.938l5.031-0.094c0,0-1.736-0.647-2.469-1.625c-1.356-1.633-6-9.375-6-9.375
		c-0.58-0.901-1.742-2.777-4.375-3.062c2.746-0.205,6.531-2.408,6.531-6.812c0-2.733-1.834-6.875-9.844-6.875H501.719
		L501.719,442.161z M598.875,442.161c0.617,0.328,1.031,0.906,1.031,1.844v24.062c0,0.897-0.414,1.478-1.031,1.844h7.031
		c-0.657-0.366-1.031-0.946-1.031-1.844v-24.062c0-0.938,0.374-1.516,1.031-1.844H598.875z M634.875,442.161v3.969
		c0.348-0.689,1.009-1.625,1.938-1.625c0,0,3.324-0.281,6.188-0.281v23.844c0,0.897-0.38,1.478-1,1.844h6.938
		c-0.58-0.366-1.031-0.946-1.031-1.844v-23.844c2.824,0,6.375,0.281,6.375,0.281c0.928,0.081,1.463,0.936,1.812,1.625v-3.969
		H634.875z M681.594,442.161c1.045,0.574,1.455,0.99,2,1.969l7.594,13.094v10.844c0,0.98-0.731,1.478-1.312,1.844h7.719
		c-0.621-0.366-1.344-0.946-1.344-1.844v-11l6.188-12.406c0.464-0.938,1.36-2.09,2.562-2.5h-5.531
		c1.082,0.289,1.354,1.164,0.812,2.062l-5.125,10.5l-5.438-10.031c-1.006-1.918-0.343-2.121,0.625-2.531H681.594z M509.875,444.13
		c3.83,0,4.906,3.28,4.906,5.156c0,4.121-2.773,5.656-5.406,5.656c-0.658,0-1.75-0.094-1.75-0.094v-10.625
		C507.625,444.224,508.713,444.13,509.875,444.13L509.875,444.13z"/>
</g>
</svg>
