<?xml version="1.0" encoding="UTF-8" standalone="no"?>
<!-- Generator: Adobe Illustrator 16.0.0, SVG Export Plug-In . SVG Version: 6.00 Build 0)  -->

<svg
   version="1.1"
   id="svg3902"
   x="0px"
   y="0px"
   width="300"
   height="90"
   viewBox="0 0 300 90"
   enable-background="new 0 0 450 105"
   xml:space="preserve"
   sodipodi:docname="michigan-state.svg"
   inkscape:version="1.1.1 (3bf5ae0d25, 2021-09-20)"
   xmlns:inkscape="http://www.inkscape.org/namespaces/inkscape"
   xmlns:sodipodi="http://sodipodi.sourceforge.net/DTD/sodipodi-0.dtd"
   xmlns="http://www.w3.org/2000/svg"
   xmlns:svg="http://www.w3.org/2000/svg"><defs
   id="defs5615" /><sodipodi:namedview
   id="namedview5613"
   pagecolor="#ffffff"
   bordercolor="#666666"
   borderopacity="1.0"
   inkscape:pageshadow="2"
   inkscape:pageopacity="0.0"
   inkscape:pagecheckerboard="0"
   showgrid="false"
   inkscape:zoom="1.8188008"
   inkscape:cx="204.53037"
   inkscape:cy="31.064424"
   inkscape:window-width="1866"
   inkscape:window-height="1016"
   inkscape:window-x="54"
   inkscape:window-y="27"
   inkscape:window-maximized="1"
   inkscape:current-layer="svg3902" />
<g
   id="layer1"
   transform="matrix(0.6684177,0,0,0.6684177,-173.66088,-238.4335)">
	<path
   id="path850"
   fill="#b1b1b1"
   d="m 487.344,377.005 c 0,0 -14.135,34.784 -15.156,36.938 -0.539,1.078 -1.027,1.705 -2.531,2.781 h 7.438 c -1.45,-0.68 -1.734,-1.485 -1.25,-2.844 0.107,-0.624 1.388,-3.96 3,-7.812 h 13.188 c 1.505,3.853 2.9,7.309 3.062,7.875 0.375,1.19 0.115,1.987 -1.281,2.781 h 11.5 c -1.775,-0.964 -2.15,-1.591 -2.688,-2.781 -0.968,-2.154 -15.282,-36.938 -15.282,-36.938 z m 142.562,0 c 0,0 -14.166,34.784 -15.188,36.938 -0.539,1.078 -0.995,1.705 -2.5,2.781 h 7.406 c -1.452,-0.68 -1.735,-1.485 -1.25,-2.844 0.107,-0.624 1.419,-3.96 3.031,-7.812 h 13.156 c 1.505,3.853 2.898,7.309 3.062,7.875 0.374,1.19 0.115,1.987 -1.281,2.781 h 11.5 c -1.775,-0.964 -2.148,-1.591 -2.688,-2.781 -0.966,-2.154 -15.248,-36.938 -15.248,-36.938 z m -280.156,0.563 c -13.654,0 -20.625,10.085 -20.625,20 0,12.069 9.41,19.719 20,19.719 4.408,0 9.192,-0.962 13.656,-3.625 0,0 0.575,-8.381 0.469,-8.156 -3.547,7.763 -9.63,8.656 -12.156,8.656 -11.075,0 -14.781,-9.55 -14.781,-17.312 0,-9.121 5.214,-16.219 14.406,-16.219 2.58,0 8.876,0.781 12.156,8.656 0.107,0.227 -0.5,-8.781 -0.5,-8.781 -4.194,-2.041 -8.217,-2.938 -12.625,-2.938 z m 101,0 c -13.76,0 -20.812,10.085 -20.812,20 0,12.069 9.459,19.719 20.156,19.719 4.3,0 11.953,-1.462 16.469,-4.125 -0.269,-0.17 -0.875,-1.212 -0.875,-2.344 v -8.375 c 0,-1.304 0.6,-2.085 1.406,-2.594 h -9.625 c 0.86,0.509 1.406,1.29 1.406,2.594 v 9.875 c -2.526,1.756 -5.716,1.844 -6.844,1.844 -11.127,0 -14.781,-9.55 -14.781,-17.312 0,-9.121 5.269,-16.219 14.406,-16.219 2.526,0 9.353,1.201 12.094,8.906 l -0.375,-9.031 c -4.246,-1.927 -8.216,-2.938 -12.625,-2.938 z m 122.312,0 c -4.889,0 -11.688,3.076 -11.688,10.781 0,4.306 2.148,7.361 7.094,10.25 4.894,2.776 9.562,3.498 9.562,8.938 0,2.775 -1.617,6.812 -6.938,6.812 -5.591,0 -8.822,-5.322 -9.844,-9.344 l 0.281,9.562 c 1.883,0.964 5.423,2.719 10.312,2.719 6.616,0 12.531,-4.825 12.531,-11.906 0,-7.876 -5.222,-9.726 -10.219,-12.219 -5.055,-2.436 -7.375,-3.761 -7.375,-7.219 0,-2.436 1.634,-5.438 5.719,-5.438 5.159,0 8.22,4.562 8.969,7.562 l -0.281,-8.406 c -2.736,-1.699 -6.295,-2.092 -8.123,-2.092 z m -309.531,0.625 c 0.861,0.453 1.719,1.487 1.719,2.562 v 33.406 c 0,1.246 -0.567,2.053 -1.375,2.562 h 5.969 c -0.914,-0.51 -1.5,-1.316 -1.5,-2.562 v -27.594 -1.531 l 0.375,1.531 13,30.938 12.906,-31.844 0.469,-1.281 c 0,0 -0.094,0.602 -0.094,1.281 v 28.5 c 0,1.246 -0.545,2.053 -1.406,2.562 h 9.625 c -0.86,-0.51 -1.406,-1.316 -1.406,-2.562 v -33.406 c 0,-1.303 0.546,-2.11 1.406,-2.562 h -9.094 l -10.375,26 -10.75,-26 z m 48.375,0 c 0.86,0.453 1.406,1.26 1.406,2.562 v 33.406 c 0,1.246 -0.546,2.053 -1.406,2.562 h 9.75 c -0.914,-0.51 -1.406,-1.316 -1.406,-2.562 v -33.406 c 0,-1.303 0.493,-2.11 1.406,-2.562 z m 58.813,0 c 0.86,0.453 1.406,1.26 1.406,2.562 v 33.406 c 0,1.246 -0.546,2.053 -1.406,2.562 h 9.719 c -0.914,-0.51 -1.375,-1.316 -1.375,-2.562 v -17.312 h 16.719 v 17.312 c 0,1.246 -0.545,2.053 -1.406,2.562 h 9.719 c -0.913,-0.51 -1.5,-1.316 -1.5,-2.562 v -33.406 c 0,-1.303 0.587,-2.11 1.5,-2.562 h -9.719 c 0.861,0.453 1.406,1.26 1.406,2.562 v 13.312 h -16.719 v -13.312 c 0,-1.303 0.461,-2.11 1.375,-2.562 z m 42.031,0 c 0.861,0.453 1.406,1.26 1.406,2.562 v 33.406 c 0,1.246 -0.545,2.053 -1.406,2.562 h 9.719 c -0.914,-0.51 -1.375,-1.316 -1.375,-2.562 v -33.406 c 0,-1.303 0.461,-2.11 1.375,-2.562 z m 93.906,0 c 1.13,0.68 1.869,1.477 2.406,2.156 1.022,1.304 0.969,1.353 0.969,3.562 v 30.25 c 0,1.246 -0.599,2.053 -1.406,2.562 h 5.969 c -0.915,-0.51 -1.5,-1.316 -1.5,-2.562 v -28.375 c 0,0.454 25.812,32.531 25.812,32.531 v -37.562 c 0,-1.303 0.57,-2.11 1.375,-2.562 h -5.938 c 0.859,0.453 1.375,1.26 1.375,2.562 v 22.375 l -19.812,-24.938 h -9.25 z m 81.032,0 v 5.5 c 0.481,-0.962 1.397,-2.281 2.688,-2.281 0,0 4.647,-0.375 8.625,-0.375 v 33.125 c 0,1.246 -0.548,2.053 -1.406,2.562 h 9.625 c -0.808,-0.51 -1.406,-1.316 -1.406,-2.562 v -33.125 c 3.924,0 8.812,0.375 8.812,0.375 1.29,0.112 2.046,1.319 2.531,2.281 v -5.5 z m 56.062,0 v 5.5 c 0.483,-0.962 1.397,-2.281 2.688,-2.281 0,0 4.647,-0.375 8.625,-0.375 v 33.125 c 0,1.246 -0.546,2.053 -1.406,2.562 h 9.625 c -0.807,-0.51 -1.406,-1.316 -1.406,-2.562 v -33.125 c 3.923,0 8.812,0.375 8.812,0.375 1.29,0.112 2.05,1.319 2.531,2.281 v -5.5 z m 35.281,0 c 0.858,0.453 1.594,1.26 1.594,2.562 v 33.406 c 0,1.359 -0.68,1.996 -1.594,2.562 h 23.094 l 1.125,-6.531 c -1.988,3.569 -4.135,3.48 -8.812,3.594 -2.634,0.114 -5.894,-0.111 -6.969,-0.281 v -16.656 h 8.125 c 0.751,0 1.637,0.831 1.906,1.625 v -6 c -0.27,0.679 -1.155,1.594 -1.906,1.594 h -8.125 v -13.031 c 0,0 7.513,-0.018 9.125,0.094 2.046,0.115 3.168,0.589 4.188,2.062 l -0.156,-5 z m -193.719,11.062 c 0,0 2.941,7.586 5.469,13.875 h -10.844 c 1.721,-4.25 5.375,-13.875 5.375,-13.875 z m 142.532,0 c 0,0 2.975,7.586 5.5,13.875 h -10.875 c 1.721,-4.25 5.375,-13.875 5.375,-13.875 z m -364.406,37.469 v 2.969 h 440.75 v -2.969 z m 297.093,15 c -3.521,0 -8.438,2.203 -8.438,7.75 0,3.104 1.564,5.297 5.125,7.375 3.525,2 6.875,2.551 6.875,6.469 0,1.999 -1.168,4.875 -5,4.875 -4.023,0 -6.33,-3.82 -7.062,-6.719 l 0.188,6.875 c 1.355,0.693 3.912,1.969 7.438,1.969 4.759,0 9,-3.463 9,-8.562 0,-5.668 -3.746,-7.018 -7.344,-8.812 -3.641,-1.756 -5.312,-2.701 -5.312,-5.188 0,-1.755 1.186,-3.906 4.125,-3.906 3.717,0 5.897,3.273 6.438,5.438 l -0.188,-6.062 c -1.974,-1.226 -4.528,-1.502 -5.845,-1.502 z m -296.469,0.437 c 0.62,0.328 1.25,0.905 1.25,1.844 v 16.969 c 0,7.221 5.754,9.344 10.281,9.344 5.263,0 9.188,-2.691 9.188,-9.625 l 0.094,-16.688 c 0,-0.938 0.451,-1.516 1.031,-1.844 h -4.5 c 0.581,0.328 1.031,0.905 1.031,1.844 l 0.094,16.781 c 0,4.036 -1.678,7.219 -6.281,7.219 -5.031,0 -5.938,-4.053 -5.938,-6.906 v -17.094 c 0,-0.938 0.567,-1.516 1.188,-1.844 z m 50.688,0 c 0.812,0.491 1.362,1.074 1.75,1.562 0.734,0.939 0.688,0.971 0.688,2.562 v 21.781 c 0,0.897 -0.42,1.478 -1,1.844 h 4.312 c -0.658,-0.366 -1.094,-0.946 -1.094,-1.844 V 447.63 c 0,0.328 18.562,23.438 18.562,23.438 v -27.062 c 0,-0.938 0.45,-1.516 1.031,-1.844 h -4.312 c 0.62,0.328 1,0.905 1,1.844 v 16.125 l -14.281,-17.969 h -6.656 z m 55.031,0 c 0.619,0.328 1,0.906 1,1.844 v 24.062 c 0,0.897 -0.381,1.478 -1,1.844 h 7 c -0.659,-0.366 -1,-0.946 -1,-1.844 v -24.062 c 0,-0.938 0.341,-1.516 1,-1.844 z m 33.719,0 c 1.163,0.491 1.631,1.151 2.094,1.969 0.736,1.508 10.844,26.656 10.844,26.656 0,0 9.31,-25.066 9.969,-26.656 0.388,-0.979 0.462,-1.271 1.469,-1.969 h -4.719 c 1.006,0.41 1.161,1.002 0.812,2.062 -0.039,0.286 -6.188,17.344 -6.188,17.344 0,0 -6.453,-16.791 -6.531,-17.156 -0.271,-0.98 -0.195,-1.84 0.812,-2.25 z m 51.781,0 c 0.619,0.328 1.156,0.905 1.156,1.844 v 24.062 c 0,0.981 -0.499,1.436 -1.156,1.844 h 16.625 l 0.812,-4.688 c -1.433,2.57 -2.978,2.48 -6.344,2.562 -1.896,0.084 -4.257,-0.066 -5.031,-0.188 v -12 h 5.844 c 0.542,0 1.212,0.617 1.406,1.188 v -4.344 c -0.194,0.488 -0.864,1.156 -1.406,1.156 h -5.844 v -9.375 c 0,0 5.433,-0.019 6.594,0.062 1.47,0.081 2.265,0.406 3,1.469 l -0.094,-3.594 h -15.562 z m 46.438,0 c 0.619,0.328 1,0.905 1,1.844 v 24.062 c 0,0.897 -0.381,1.478 -1,1.844 h 7 c -0.658,-0.366 -1.094,-0.946 -1.094,-1.844 v -11.125 c 0,0 1.255,-0.094 1.719,-0.094 1.665,0 2.557,1.772 3.562,3.406 1.395,2.283 3.105,5.242 4.844,7.812 0.697,0.98 1.969,1.938 3.438,1.938 l 5.031,-0.094 c 0,0 -1.736,-0.647 -2.469,-1.625 -1.356,-1.633 -6,-9.375 -6,-9.375 -0.58,-0.901 -1.742,-2.777 -4.375,-3.062 2.746,-0.205 6.531,-2.408 6.531,-6.812 0,-2.733 -1.834,-6.875 -9.844,-6.875 z m 97.156,0 c 0.617,0.328 1.031,0.906 1.031,1.844 v 24.062 c 0,0.897 -0.414,1.478 -1.031,1.844 h 7.031 c -0.657,-0.366 -1.031,-0.946 -1.031,-1.844 v -24.062 c 0,-0.938 0.374,-1.516 1.031,-1.844 z m 36,0 v 3.969 c 0.348,-0.689 1.009,-1.625 1.938,-1.625 0,0 3.324,-0.281 6.188,-0.281 v 23.844 c 0,0.897 -0.38,1.478 -1,1.844 h 6.938 c -0.58,-0.366 -1.031,-0.946 -1.031,-1.844 v -23.844 c 2.824,0 6.375,0.281 6.375,0.281 0.928,0.081 1.463,0.936 1.812,1.625 v -3.969 z m 46.719,0 c 1.045,0.574 1.455,0.99 2,1.969 l 7.594,13.094 v 10.844 c 0,0.98 -0.731,1.478 -1.312,1.844 h 7.719 c -0.621,-0.366 -1.344,-0.946 -1.344,-1.844 v -11 l 6.188,-12.406 c 0.464,-0.938 1.36,-2.09 2.562,-2.5 h -5.531 c 1.082,0.289 1.354,1.164 0.812,2.062 l -5.125,10.5 -5.438,-10.031 c -1.006,-1.918 -0.343,-2.121 0.625,-2.531 h -8.75 z m -171.719,1.969 c 3.83,0 4.906,3.28 4.906,5.156 0,4.121 -2.773,5.656 -5.406,5.656 -0.658,0 -1.75,-0.094 -1.75,-0.094 v -10.625 c 0,10e-4 1.088,-0.093 2.25,-0.093 z" />
</g>
</svg>
