<?xml version="1.0" encoding="UTF-8" standalone="no"?>
<svg
   width="300"
   height="90"
   viewBox="0 0 300 90"
   version="1.1"
   id="svg7146"
   sodipodi:docname="microsoft-color.svg"
   inkscape:version="1.1.1 (3bf5ae0d25, 2021-09-20)"
   xmlns:inkscape="http://www.inkscape.org/namespaces/inkscape"
   xmlns:sodipodi="http://sodipodi.sourceforge.net/DTD/sodipodi-0.dtd"
   xmlns="http://www.w3.org/2000/svg"
   xmlns:svg="http://www.w3.org/2000/svg"
   xmlns:rdf="http://www.w3.org/1999/02/22-rdf-syntax-ns#"
   xmlns:cc="http://creativecommons.org/ns#"
   xmlns:dc="http://purl.org/dc/elements/1.1/"
   xmlns:sketch="http://www.bohemiancoding.com/sketch/ns">
  <sodipodi:namedview
     id="namedview7148"
     pagecolor="#ffffff"
     bordercolor="#666666"
     borderopacity="1.0"
     inkscape:pageshadow="2"
     inkscape:pageopacity="0.0"
     inkscape:pagecheckerboard="0"
     showgrid="false"
     inkscape:zoom="1.6819702"
     inkscape:cx="259.81435"
     inkscape:cy="-28.835231"
     inkscape:window-width="1866"
     inkscape:window-height="1016"
     inkscape:window-x="54"
     inkscape:window-y="27"
     inkscape:window-maximized="1"
     inkscape:current-layer="svg7146" />
  <!-- Generator: Sketch 3.3.3 (12072) - http://www.bohemiancoding.com/sketch -->
  <title
     id="title7116">microsoft-color</title>
  <desc
     id="desc7118">Created with Sketch.</desc>
  <defs
     id="defs7120" />
  <g
     id="g7144"
     stroke="none"
     stroke-width="1"
     fill="none"
     fill-rule="evenodd"
     sketch:type="MSPage"
     transform="matrix(3.0080749,0,0,3.0080749,-0.34452521,12.497908)">
    <g
       id="g7142"
       sketch:type="MSArtboardGroup"
       transform="translate(-743,-1277)">
      <g
         id="g7140"
         sketch:type="MSLayerGroup"
         transform="translate(225,771)">
        <g
           id="microsoft-color"
           transform="translate(518,506)"
           sketch:type="MSShapeGroup">
          <g
             id="Page-1">
            <g
               id="About---Desktop">
              <g
                 id="Imported-Layers-+-Imported-Layers-+-Imported-Layers">
                <g
                   id="Imported-Layers"
                   transform="translate(0.378576,0.13986)">
                  <path
                     d="m 10.118583,0.05327013 c -0.0032,1.05799227 -0.0084,2.11598457 -0.0091,3.17397687 -0.0014,2.2070052 -0.0042,4.4140104 0.005,6.6210156 9.77e-4,0.2388064 -0.06225,0.3017244 -0.3006597,0.3010254 -3.1389214,-0.008 -6.2779824,-0.0055 -9.41690391,-0.0049 -0.1205989,0 -0.24105822,0.0059 -0.36165713,0.0091 0,-3.2912828 0.0018146,-6.5824259 -0.0047458,-9.87370896 C 0.03014973,0.09102061 0.07300142,0.04809691 0.26143721,0.04851636 3.547199,0.05508774 6.8328212,0.05327013 10.118583,0.05327013"
                     id="Fill-1"
                     fill="#f15023" />
                  <path
                     d="m 21.228199,0.05327013 c -0.0032,0.66454835 -0.0089,1.32895687 -0.0091,1.99350527 -0.0011,2.5983518 -0.0031,5.1967037 0.004,7.7950556 5.58e-4,0.225804 -0.04118,0.308995 -0.292704,0.308296 -3.167117,-0.0095 -6.334234,-0.0096 -9.501351,1.4e-4 -0.252783,6.99e-4 -0.288935,-0.08571 -0.288516,-0.3077369 0.0063,-3.26304 0.0043,-6.5262199 0.0043,-9.78925997 h 10.083269"
                     id="Fill-2"
                     fill="#7fb901" />
                  <path
                     d="m 0.03531426,11.181554 c 3.23732684,0 6.47465364,0.0035 9.71198044,-0.0063 0.2763723,-8.39e-4 0.3712883,0.0453 0.3698923,0.351918 -0.01298,3.131893 -0.0127,6.264064 -4.19e-4,9.395956 0.0013,0.302424 -0.08891,0.356812 -0.3700316,0.355834 -3.1165884,-0.01035 -6.2333163,-0.0066 -9.35004417,-0.0062 -0.12045932,0 -0.24091865,0.0059 -0.36137797,0.0089 V 11.181554"
                     id="Fill-3"
                     fill="#01a4ee" />
                  <path
                     d="m 16.198917,21.272538 c -1.589839,0 -3.179819,-0.0041 -4.769798,0.0048 -0.216771,0.0013 -0.29047,-0.04209 -0.289772,-0.278096 0.0084,-3.185162 0.0078,-6.370464 8.37e-4,-9.555766 -5.58e-4,-0.211682 0.0536,-0.267189 0.265764,-0.26677 3.179819,0.0071 6.359778,0.0077 9.539736,-6.99e-4 0.234778,-6.99e-4 0.278467,0.07201 0.278048,0.28984 -0.007,3.175095 -0.0071,6.350331 2.79e-4,9.525426 5.58e-4,0.226363 -0.05862,0.288022 -0.285445,0.286484 -1.57979,-0.0099 -3.159719,-0.0052 -4.739649,-0.0052"
                     id="Fill-4"
                     fill="#feb801" />
                  <path
                     d="m 34.408933,13.712654 c 0.720662,-1.772735 1.413129,-3.477519 2.106572,-5.1818833 0.538229,-1.3226652 1.081761,-2.6430932 1.611615,-3.969114 0.07886,-0.197421 0.172105,-0.2752989 0.392086,-0.2715238 0.83484,0.014261 1.670239,0.011465 2.505219,0.00154 0.196531,-0.00224 0.254039,0.05313 0.25376,0.2532078 -0.0056,4.0715995 -0.0059,8.1433393 2.79e-4,12.2150783 2.79e-4,0.212521 -0.05946,0.2746 -0.269812,0.269287 -0.542974,-0.01384 -1.086926,-0.01706 -1.62962,9.78e-4 -0.251109,0.0083 -0.321737,-0.06781 -0.321039,-0.32018 0.0084,-3.023534 0.0054,-6.047068 0.0054,-9.0707421 V 7.3097522 c -0.01898,-0.00573 -0.03783,-0.011325 -0.05681,-0.017058 -0.05011,0.1217803 -0.101895,0.2430013 -0.15033,0.3654806 -1.191612,3.0112312 -2.385877,6.0212022 -3.568416,9.0359282 -0.100359,0.256005 -0.224308,0.362685 -0.503472,0.336819 -0.299264,-0.02782 -0.604251,-0.02223 -0.904632,-0.0013 -0.234637,0.0165 -0.325366,-0.08333 -0.408556,-0.291517 C 32.2476,13.674583 31.014114,10.615116 29.782441,7.5548093 29.746431,7.4651873 29.705111,7.3778015 29.611872,7.2962884 v 0.3106725 c 0,3.0235351 -0.0038,6.0470691 0.0061,9.0706031 8.37e-4,0.275299 -0.06714,0.367718 -0.348397,0.353317 -0.451548,-0.02335 -0.906306,-0.02461 -1.357715,1.39e-4 -0.29731,0.01636 -0.389853,-0.05858 -0.388876,-0.376805 0.01242,-3.81965 0.0081,-7.6394406 0.0081,-11.4590906 0,-0.2318159 0.0059,-0.4639115 -0.0017,-0.6954478 -0.0052,-0.1586919 0.061,-0.2072082 0.214817,-0.2062295 0.925569,0.00503 1.851277,0.00727 2.776985,-0.00168 0.18034,-0.00182 0.209652,0.1087773 0.258227,0.2318159 0.800503,2.0299974 1.602402,4.0594355 2.404162,6.088873 0.398506,1.008637 0.797292,2.017274 1.225251,3.100154"
                     id="Fill-5"
                     fill="#737373" />
                  <path
                     d="M 93.993306,5.3797237 C 93.823993,5.3256147 93.683992,5.2773779 93.542037,5.2359922 92.455809,4.9193076 91.698716,5.4503311 91.642185,6.5794901 c -0.01856,0.3720519 0.0024,0.7457818 -0.0059,1.1185329 -0.0035,0.1547769 0.04453,0.2123814 0.205465,0.2112629 0.925708,-0.00601 1.851416,-0.00727 2.777124,9.787e-4 0.181736,0.00154 0.216074,-0.069769 0.2137,-0.2311169 -0.008,-0.5240327 0.0046,-1.0483449 -0.007,-1.5722378 -0.004,-0.1888922 0.04174,-0.2853657 0.239523,-0.3401738 0.580243,-0.1607891 1.15574,-0.3401738 1.728305,-0.5269688 0.174199,-0.056765 0.204628,-0.00895 0.203371,0.1540779 -0.0057,0.725788 0.0127,1.4519955 -0.0099,2.1769446 -0.0092,0.2902593 0.08891,0.351499 0.354958,0.341572 0.522595,-0.019714 1.046446,0.00154 1.56946,-0.00965 0.19039,-0.00405 0.268835,0.041246 0.261158,0.2490134 -0.01535,0.4127386 -0.01494,0.8267356 -1.39e-4,1.2394742 0.0074,0.2083268 -0.05095,0.2799129 -0.267439,0.2743202 -0.563214,-0.014541 -1.126986,6.991e-4 -1.69034,-0.00811 -0.169871,-0.00266 -0.224448,0.049635 -0.223331,0.2220288 0.0085,1.4412296 0.0081,2.8824596 0.01382,4.3236896 4.19e-4,0.109476 0.0208,0.220071 0.04257,0.328149 0.127579,0.635606 0.43759,0.893568 1.083157,0.90741 0.298287,0.0064 0.58108,-0.0604 0.838191,-0.207628 0.169452,-0.09703 0.202952,-0.04404 0.200858,0.125556 -0.0057,0.453425 -0.0073,0.90727 0.0011,1.360555 0.0028,0.144431 -0.0469,0.223707 -0.181317,0.267889 -0.87169,0.286763 -1.752593,0.368976 -2.633356,0.06446 -0.897512,-0.310253 -1.310117,-1.014369 -1.462959,-1.906819 -0.05109,-0.298508 -0.06574,-0.599813 -0.06504,-0.902936 0.0031,-1.431302 -0.0031,-2.862605 0.0061,-4.2937679 0.0013,-0.2154574 -0.03936,-0.2957121 -0.276791,-0.2915176 -0.87504,0.01538 -1.750778,0.01538 -2.625957,2.796e-4 -0.24385,-0.00419 -0.298846,0.071866 -0.297869,0.3053595 0.0084,2.2376254 -0.0014,4.4752504 0.01242,6.7127354 0.002,0.301165 -0.0864,0.371493 -0.37059,0.35835 -0.512127,-0.02349 -1.026347,-0.01762 -1.539032,-0.0015 -0.224308,0.0071 -0.28712,-0.05481 -0.286143,-0.284667 0.0092,-2.247691 6.98e-4,-4.495383 0.01186,-6.743075 0.0014,-0.272363 -0.06211,-0.3700948 -0.343511,-0.3473047 -0.319922,0.025866 -0.643752,-6.991e-4 -0.965489,0.00881 -0.154797,0.00447 -0.213142,-0.041805 -0.209932,-0.2038527 0.0091,-0.4534253 0.01005,-0.90727 -2.79e-4,-1.3605555 -0.0039,-0.1723938 0.07356,-0.1977006 0.21705,-0.1946247 0.321877,0.00699 0.645148,-0.014541 0.965629,0.00741 0.25711,0.017617 0.346582,-0.04544 0.338347,-0.3252134 -0.01703,-0.582476 -0.05332,-1.1702651 0.07523,-1.7470085 0.34421,-1.5458125 1.600867,-2.4920913 3.270269,-2.4674836 0.342255,0.00517 0.681858,0.025307 1.015599,0.1157682 0.115574,0.031459 0.170569,0.078437 0.169731,0.2034331 -0.0039,0.5531145 -0.0017,1.1063689 -0.0017,1.6884254"
                     id="Fill-6"
                     fill="#737373" />
                  <path
                     d="m 78.415529,12.539732 c -0.01745,-0.846449 0.122273,-1.664377 0.488956,-2.43211 0.518268,-1.0849765 1.361204,-1.8103451 2.502566,-2.166458 1.037235,-0.3236754 2.0975,-0.3615657 3.156509,-0.1140903 1.76027,0.4113404 2.943088,1.7925887 3.140038,3.6222293 0.11362,1.055475 0.07928,2.095152 -0.337789,3.086172 -0.649754,1.543855 -1.83313,2.402049 -3.476011,2.636242 -0.855639,0.12178 -1.70681,0.09605 -2.534811,-0.17519 -1.680149,-0.550458 -2.591201,-1.750644 -2.882928,-3.463398 -0.02694,-0.158552 -0.04564,-0.319341 -0.05444,-0.47985 -0.0092,-0.170716 -0.0021,-0.342271 -0.0021,-0.513547 v 0 z m 2.218796,0.09577 c -0.01466,0.234192 0.03964,0.612257 0.132184,0.984169 0.280979,1.129019 1.114144,1.795944 2.279515,1.832017 1.1422,0.03537 1.948007,-0.496768 2.274629,-1.546652 0.29075,-0.934394 0.300241,-1.885986 0.01675,-2.824435 -0.256133,-0.848127 -0.816834,-1.4106096 -1.703739,-1.5600736 -0.886345,-0.1493241 -1.711415,-0.00378 -2.328507,0.7288636 -0.542696,0.643996 -0.661061,1.424592 -0.670832,2.386111 z"
                     id="Fill-7"
                     fill="#737373" />
                  <path
                     d="m 65.688715,17.229601 c -1.30579,8.39e-4 -2.483723,-0.335141 -3.416829,-1.308684 -0.696654,-0.726627 -1.043516,-1.610827 -1.151692,-2.59947 -0.118086,-1.078685 -0.03699,-2.135419 0.420421,-3.132172 0.682696,-1.4875086 1.895245,-2.2412599 3.479502,-2.4543405 0.764212,-0.1027652 1.523817,-0.080115 2.274629,0.1077986 1.457516,0.3649214 2.420633,1.2751275 2.871064,2.6986009 0.383152,1.210811 0.377011,2.443155 -0.0036,3.656483 -0.575218,1.833695 -2.189066,2.994732 -4.17169,3.031504 -0.100638,0.002 -0.201137,2.8e-4 -0.301776,2.8e-4 v 0 z m -2.376943,-4.685255 c -0.02052,0.342132 0.03559,0.730262 0.135814,1.110703 0.298845,1.133074 1.16216,1.793568 2.336883,1.796784 1.188401,0.0034 1.96378,-0.572549 2.260391,-1.726316 0.234778,-0.912863 0.24078,-1.834254 -0.06909,-2.735652 -0.309872,-0.901537 -1.028859,-1.4487795 -1.914647,-1.507083 -1.055938,-0.069629 -1.900968,0.2628552 -2.399695,1.25024 -0.277768,0.550179 -0.359703,1.146357 -0.349653,1.811324 v 0 z"
                     id="Fill-8"
                     fill="#737373" />
                  <path
                     d="m 71.427213,14.613353 c 0.730852,0.513965 1.475103,0.816389 2.305198,0.895525 0.335695,0.03202 0.662317,-0.0055 0.981541,-0.09983 0.324389,-0.09605 0.540043,-0.30522 0.589455,-0.654062 0.04871,-0.344229 -0.04453,-0.637145 -0.327041,-0.855678 -0.305127,-0.23629 -0.656175,-0.387851 -1.005689,-0.54109 -0.386223,-0.169178 -0.773284,-0.334721 -1.146248,-0.53382 -0.943853,-0.50348 -1.407545,-1.292185 -1.395541,-2.354931 0.01214,-1.0694575 0.54116,-1.8327163 1.46296,-2.3266884 0.92487,-0.4955101 1.918276,-0.5511571 2.9322,-0.3812799 0.315734,0.05299 0.62463,0.1470871 0.937154,0.2202112 0.180619,0.042225 0.259204,0.136461 0.252923,0.3380765 -0.01549,0.4929934 -0.0127,0.9869655 -0.0017,1.4803783 0.005,0.2260833 -0.03448,0.2603383 -0.239244,0.1371601 -0.691629,-0.4156748 -1.444535,-0.6016309 -2.250482,-0.508513 -0.64124,0.074243 -0.979307,0.5034796 -0.889835,1.0883322 0.04662,0.305499 0.232962,0.505298 0.48421,0.655321 0.311268,0.185816 0.643752,0.32801 0.979168,0.463212 0.345047,0.139258 0.680183,0.298648 1.004572,0.481808 0.930454,0.525571 1.438533,1.305748 1.385911,2.391004 -0.05458,1.127761 -0.649336,1.915907 -1.665214,2.349478 -1.409361,0.601771 -2.827794,0.44238 -4.231291,-0.06306 -0.103989,-0.03747 -0.165265,-0.09787 -0.164567,-0.220351 0.0033,-0.632111 0.0015,-1.264361 0.0015,-1.961207"
                     id="Fill-9"
                     fill="#737373" />
                  <path
                     d="M 54.065159,10.24688 C 53.548426,9.8949613 53.058213,9.6379784 52.496954,9.524727 c -1.681266,-0.3391951 -3.163907,0.766195 -3.312004,2.485939 -0.04955,0.575346 -0.03727,1.147755 0.149493,1.701708 0.429215,1.27331 1.710438,1.971275 3.062012,1.677939 0.527201,-0.114509 1.015599,-0.317104 1.458772,-0.623582 0.169871,-0.117585 0.215235,-0.0783 0.212444,0.118285 -0.0074,0.513686 -0.0053,1.027512 -5.59e-4,1.541199 0.0011,0.122479 -0.02792,0.203852 -0.145723,0.265232 -1.657118,0.863507 -4.883558,0.948376 -6.344843,-1.496737 -1.139268,-1.906539 -0.793384,-5.189573 1.184215,-6.5891374 1.078271,-0.7631191 2.282725,-1.0040231 3.573161,-0.901957 0.511987,0.040547 1.011412,0.1512816 1.49283,0.338496 0.169732,0.065993 0.248177,0.1579928 0.243431,0.3555536 -0.01396,0.5932419 -0.005,1.1871829 -0.005,1.8492148"
                     id="Fill-10"
                     fill="#737373" />
                  <path
                     d="M 60.957302,10.047222 C 60.625515,9.8600072 60.314666,9.755704 59.98274,9.7214489 c -0.813066,-0.08375 -1.405173,0.2281807 -1.794188,0.9454401 -0.291168,0.536756 -0.381199,1.117694 -0.380501,1.720024 0.0018,1.441369 -0.0056,2.882879 0.0064,4.324108 0.0021,0.254187 -0.07091,0.32759 -0.320899,0.319062 -0.532645,-0.01804 -1.066546,-0.01077 -1.59975,-0.0025 -0.178804,0.0028 -0.244827,-0.04978 -0.244408,-0.239506 0.0052,-2.882739 0.0053,-5.765338 -1.4e-4,-8.6480768 -2.79e-4,-0.1886126 0.06072,-0.2400651 0.241756,-0.2369891 0.563354,0.00965 1.127126,0.011325 1.690339,-5.593e-4 0.195973,-0.00419 0.235196,0.073264 0.230589,0.2484542 -0.01061,0.3896688 -0.0033,0.779897 -0.0033,1.2619847 0.206441,-0.3587695 0.344069,-0.6558797 0.565168,-0.9001394 0.655756,-0.7245296 1.467984,-0.8949661 2.389923,-0.6965664 0.134278,0.028942 0.199324,0.092139 0.19723,0.2467764 -0.0087,0.6445546 -0.0036,1.2895286 -0.0036,1.9842777"
                     id="Fill-11"
                     fill="#737373" />
                  <path
                     d="m 43.317619,12.421447 c 0,-1.410609 0.0049,-2.8213589 -0.005,-4.2319687 -0.0015,-0.2214695 0.05039,-0.2961315 0.281816,-0.2885814 0.542695,0.017617 1.086367,0.011884 1.629341,0.00224 0.180061,-0.00322 0.24385,0.047118 0.243571,0.23629 -0.0052,2.8716931 -0.0052,5.7433871 -1.4e-4,8.6150801 2.79e-4,0.193646 -0.0529,0.265232 -0.254318,0.260898 -0.542835,-0.01175 -1.086507,-0.01314 -1.629342,6.99e-4 -0.212164,0.0053 -0.271487,-0.06166 -0.270231,-0.272083 0.0084,-1.44081 0.0043,-2.88176 0.0043,-4.322571"
                     id="Fill-12"
                     fill="#737373" />
                  <path
                     d="m 44.427575,6.5155939 c -0.731829,0.00671 -1.301463,-0.516203 -1.318073,-1.209973 -0.01717,-0.7085906 0.546045,-1.2656199 1.283875,-1.2698144 0.763375,-0.00433 1.33957,0.5332605 1.339151,1.249541 -4.19e-4,0.6790893 -0.578009,1.223675 -1.304953,1.2302464"
                     id="Fill-13"
                     fill="#737373" />
                </g>
              </g>
            </g>
          </g>
        </g>
      </g>
    </g>
  </g>
  <metadata
     id="metadata7230">
    <rdf:RDF>
      <cc:Work
         rdf:about="">
        <dc:title>microsoft-color</dc:title>
      </cc:Work>
    </rdf:RDF>
  </metadata>
</svg>
