<?xml version="1.0" encoding="UTF-8" standalone="no"?>
<svg
   width="300"
   height="90"
   viewBox="0 0 300 90"
   version="1.1"
   id="svg5881"
   sodipodi:docname="Microsoft.svg"
   inkscape:version="1.1.1 (3bf5ae0d25, 2021-09-20)"
   xmlns:inkscape="http://www.inkscape.org/namespaces/inkscape"
   xmlns:sodipodi="http://sodipodi.sourceforge.net/DTD/sodipodi-0.dtd"
   xmlns="http://www.w3.org/2000/svg"
   xmlns:svg="http://www.w3.org/2000/svg"
   xmlns:rdf="http://www.w3.org/1999/02/22-rdf-syntax-ns#"
   xmlns:cc="http://creativecommons.org/ns#"
   xmlns:dc="http://purl.org/dc/elements/1.1/"
   xmlns:sketch="http://www.bohemiancoding.com/sketch/ns">
  <sodipodi:namedview
     id="namedview5883"
     pagecolor="#ffffff"
     bordercolor="#666666"
     borderopacity="1.0"
     inkscape:pageshadow="2"
     inkscape:pageopacity="0.0"
     inkscape:pagecheckerboard="0"
     showgrid="false"
     inkscape:zoom="2.3300777"
     inkscape:cx="136.90531"
     inkscape:cy="-14.377203"
     inkscape:window-width="1866"
     inkscape:window-height="1016"
     inkscape:window-x="54"
     inkscape:window-y="27"
     inkscape:window-maximized="1"
     inkscape:current-layer="svg5881" />
  <!-- Generator: Sketch 3.3.3 (12072) - http://www.bohemiancoding.com/sketch -->
  <title
     id="title5853">Imported Layers</title>
  <desc
     id="desc5855">Created with Sketch.</desc>
  <defs
     id="defs5857" />
  <g
     id="Page-1"
     stroke="none"
     stroke-width="1"
     fill="none"
     fill-rule="evenodd"
     sketch:type="MSPage"
     transform="matrix(1.4501297,0,0,1.4501297,0.73173578,12.554517)">
    <g
       id="Home---Desktop-Copy-2"
       sketch:type="MSArtboardGroup"
       transform="translate(-317,-1908)"
       fill="#b1b1b1">
      <g
         id="Group-+-Currently-in-use-at"
         sketch:type="MSLayerGroup"
         transform="translate(131,1814)">
        <g
           id="Group"
           sketch:type="MSShapeGroup">
          <g
             transform="translate(25)"
             id="Row-3-+-Row-1-+-Row-2">
            <g
               transform="translate(0,81)"
               id="g5874">
              <g
                 id="Row-1"
                 transform="translate(15)">
                <g
                   id="Imported-Layers"
                   transform="translate(146,13)">
                  <path
                     d="m 21.085451,0.23022979 c 0.0076,2.98447591 0.01815,5.96895191 0.02111,8.95342791 0.0038,3.7836843 -0.0034,7.5673683 0.0059,11.3510523 8.44e-4,0.478333 -0.04812,0.795378 -0.658947,0.793675 -6.713995,-0.01745 -13.4275692,-0.01447 -20.14156508,-0.01787 -0.0413689,0 -0.0827377,-0.0081 -0.12452869,-0.01234 0,-6.865188 0.004221,-13.7303765 -0.009709,-20.59556486 -8.4426e-4,-0.39364613 0.0882254,-0.48344 0.47869672,-0.48258887 6.80939755,0.0140436 13.61921705,0.0102135 20.42903705,0.0102135"
                     id="Fill-1" />
                  <path
                     d="m 44.111016,0.23022979 c 0.0059,5.08548231 0.01224,10.17096521 0.01731,15.25644721 0.0021,1.702253 -0.0152,3.404932 0.0089,5.10676 0.008,0.548126 -0.184049,0.731544 -0.726065,0.730693 -6.503775,-0.01319 -13.007971,-0.01021 -19.511746,-0.0051 -0.423398,4.25e-4 -0.719311,-0.04937 -0.718045,-0.600044 0.01604,-6.808589 0.01773,-13.6176029 0.02364,-20.4261914 0,-0.0208526 0.0051,-0.0417052 0.008,-0.0625578 h 20.898024"
                     id="Fill-2" />
                  <path
                     d="m 0.18742623,23.442584 c 3.29473357,-0.006 6.58946717,-0.01404 9.88420077,-0.01702 3.420107,-0.003 6.840213,0.0085 10.259898,-0.0094 0.553836,-0.003 0.775032,0.153629 0.773344,0.747289 -0.01562,6.538356 -0.01393,13.076712 -0.0025,19.614642 0.0013,0.526848 -0.145635,0.751971 -0.707492,0.750268 -6.735946,-0.0166 -13.4714711,-0.01489 -20.20741777,-0.01787 V 23.442584"
                     id="Fill-3" />
                  <path
                     d="m 61.523504,15.513913 v 4.284998 c 0,5.003348 4.22e-4,10.006697 -8.44e-4,15.010045 0,0.863043 -0.01435,0.875384 -0.878033,0.877938 -0.897029,0.0021 -1.793635,0.003 -2.690242,-4.26e-4 -0.811336,-0.003 -0.835819,-0.02638 -0.836242,-0.859212 -0.0013,-6.60134 -8.44e-4,-13.202253 -8.44e-4,-19.803592 0,-1.723957 -0.0021,-3.447915 0.0017,-5.1714463 0.0017,-0.7762276 0.03461,-0.8077192 0.8202,-0.8089959 1.710054,-0.00298 3.420529,0.017874 5.129738,-0.011916 0.527664,-0.00936 0.775455,0.1923546 0.962881,0.6732412 2.361402,6.065129 4.740111,12.12345 7.115443,18.183047 0.06796,0.173629 0.145635,0.343429 0.229217,0.539614 0.221197,-0.09745 0.241881,-0.299597 0.305623,-0.457906 2.432742,-6.014062 4.873082,-12.024293 7.27332,-18.0511221 0.271008,-0.6817526 0.607024,-0.9196425 1.328024,-0.8932576 1.561886,0.0566 3.12757,0.035322 4.691144,0.00851 0.551303,-0.00936 0.718045,0.1936313 0.717201,0.7362246 -0.01224,8.3882801 -0.01351,16.7761341 0.0017,25.1644141 0.0013,0.584299 -0.196291,0.778355 -0.759836,0.761333 -1.021135,-0.03021 -2.043537,-0.006 -3.065094,-0.0089 -0.822734,-0.0026 -0.848484,-0.02553 -0.848906,-0.846445 -0.0017,-6.180457 -8.44e-4,-12.36134 -8.44e-4,-18.542222 v -0.670263 c -0.03841,-0.0085 -0.07683,-0.01702 -0.11482,-0.02553 -0.239348,0.594086 -0.482918,1.18647 -0.717623,1.782684 -2.29977,5.841283 -4.605873,11.679587 -6.884959,17.528956 -0.226262,0.580468 -0.517533,0.839211 -1.143553,0.784313 -0.579586,-0.05064 -1.168881,-0.03958 -1.750578,-0.0021 -0.518799,0.03319 -0.78052,-0.169799 -0.973012,-0.659197 -1.46184,-3.711764 -2.948586,-7.412889 -4.429845,-11.116992 -1.121602,-2.806165 -2.246159,-5.611053 -3.36945,-8.416367 -0.03715,0.0034 -0.07429,0.0068 -0.111443,0.01064"
                     id="Fill-4" />
                  <path
                     d="m 44.123258,33.97698 c 0,3.215557 8.44e-4,6.431114 -8.44e-4,9.647096 -4.22e-4,0.885172 -0.01098,0.897939 -0.856082,0.897939 -6.400352,0.0013 -12.800705,0.0013 -19.201057,0 -0.863259,0 -0.872123,-0.0089 -0.872123,-0.878789 -0.0013,-6.452391 -0.0013,-12.904783 0,-19.357175 4.22e-4,-0.860064 0.0046,-0.863043 0.883942,-0.863468 6.400353,-8.51e-4 12.800705,-8.51e-4 19.201058,4.25e-4 0.826532,0 0.843418,0.0166 0.84384,0.843892 0.0025,3.23641 0.0013,6.473245 0.0013,9.71008"
                     id="Fill-5" />
                  <path
                     d="m 185.48865,27.961216 c 0,-2.312511 -0.0144,-4.625448 0.0101,-6.93796 0.006,-0.550679 -0.16506,-0.758779 -0.71594,-0.724309 -0.6028,0.03788 -1.2094,-0.003 -1.81389,0.01064 -0.40778,0.0089 -0.62096,-0.128095 -0.61167,-0.578767 0.0177,-0.882618 0.0156,-1.766088 4.2e-4,-2.648706 -0.007,-0.40769 0.17096,-0.573234 0.55932,-0.569404 0.56313,0.006 1.12625,0 1.68937,-0.0021 0.87846,-0.003 0.87086,-0.0038 0.88437,-0.863893 0.0148,-0.945177 -0.0861,-1.896736 0.0659,-2.834252 0.58718,-3.630056 3.36185,-5.8740517 7.01709,-5.694464 0.6028,0.029364 1.20645,0.033194 1.80292,0.1663953 0.43057,0.096603 0.65346,0.305129 0.64544,0.771972 -0.0156,0.9038966 -0.0118,1.8082188 -0.002,2.7121157 0.005,0.49876 -0.19165,0.649835 -0.65388,0.453225 -0.50783,-0.216187 -1.04182,-0.280447 -1.59102,-0.27534 -1.52009,0.01489 -2.51336,0.928154 -2.60834,2.471247 -0.0511,0.837934 -0.0139,1.681401 -0.027,2.521888 -0.006,0.397051 0.16716,0.572383 0.5627,0.571106 1.79364,-0.0064 3.58727,-0.0072 5.38091,8.51e-4 0.40651,0.0021 0.55003,-0.182992 0.54497,-0.577063 -0.0122,-1.009011 0.0139,-2.018448 -0.0101,-3.027458 -0.0101,-0.444714 0.12621,-0.697499 0.5703,-0.825593 1.12244,-0.323428 2.23814,-0.671965 3.34918,-1.032843 0.47997,-0.155756 0.64629,-0.0034 0.64207,0.486845 -0.0127,1.429467 0.0131,2.859786 -0.0114,4.288828 -0.009,0.525996 0.18616,0.705584 0.69567,0.693668 1.04224,-0.02468 2.08575,0.0085 3.12799,-0.01277 0.50529,-0.01021 0.71636,0.171502 0.69652,0.698349 -0.03,0.797932 -0.0333,1.598842 8.4e-4,2.396348 0.0241,0.56685 -0.21528,0.72899 -0.74126,0.715372 -1.04182,-0.02681 -2.08575,0.01064 -3.12799,-0.01489 -0.49221,-0.01192 -0.65346,0.174481 -0.65051,0.663028 0.0161,2.817229 0.007,5.634459 0.0131,8.452114 4.2e-4,0.250231 0.0532,0.500037 0.0734,0.751119 0.14395,1.784388 1.46058,2.368686 3.11533,1.998446 0.24188,-0.05405 0.49263,-0.128946 0.70369,-0.254487 0.45379,-0.270658 0.62518,-0.179587 0.61167,0.36258 -0.0224,0.882619 -0.0122,1.766088 -0.005,2.649132 0.003,0.330237 -0.0967,0.566425 -0.431,0.677497 -1.85358,0.61579 -3.73375,0.774951 -5.58015,0.07405 -2.22759,-0.845169 -2.96083,-2.752969 -3.01697,-4.933131 -0.0819,-3.193853 -0.0253,-6.39111 -0.0287,-9.586666 -0.001,-0.84219 -0.003,-0.844743 -0.82611,-0.845594 -1.62647,-0.0021 -3.25378,0.02085 -4.87983,-0.01192 -0.59943,-0.01234 -0.79361,0.187248 -0.79066,0.79325 0.0194,4.457351 0.0106,8.914702 0.0101,13.372053 0,1.225197 -4.3e-4,1.225622 -1.24445,1.225622 -0.8966,0 -1.79405,-0.02256 -2.68982,0.0077 -0.54286,0.01787 -0.73071,-0.181715 -0.72522,-0.732394 0.022,-2.333364 0.009,-4.667579 0.009,-7.001369"
                     id="Fill-6" />
                  <path
                     d="m 172.33377,36.074582 c -2.25502,0.09618 -4.21624,-0.387688 -5.96049,-1.587351 -2.41501,-1.660974 -3.53324,-4.083707 -3.75485,-6.943067 -0.13509,-1.74098 -0.0545,-3.48196 0.51457,-5.17017 1.12794,-3.348332 3.43742,-5.326776 6.84106,-6.029807 1.86033,-0.384284 3.727,-0.371517 5.5772,0.0966 2.8688,0.725585 4.85873,2.501036 5.81781,5.297413 1.03633,3.0215 1.01691,6.089812 -0.29169,9.040668 -1.48844,3.356419 -4.2268,4.953558 -7.76975,5.29103 -0.3719,0.03532 -0.75013,0.0047 -0.97386,0.0047 z m 0.0507,-3.808792 c 2.52519,0.0021 4.04782,-1.152426 4.64598,-3.621119 0.40566,-1.67289 0.41326,-3.372164 -4.3e-4,-5.051437 -0.53906,-2.188673 -2.14949,-3.567073 -4.22848,-3.659845 -2.54968,-0.114477 -4.28041,0.979646 -5.05629,3.249601 -0.56988,1.667783 -0.6028,3.376846 -0.23893,5.096122 0.5416,2.556359 2.29049,3.984124 4.87815,3.986678 z"
                     id="Fill-7" />
                  <path
                     d="m 136.38677,36.075433 c -2.22252,0.09405 -4.16136,-0.393221 -5.89548,-1.56352 -2.05409,-1.38606 -3.22086,-3.384505 -3.63202,-5.805535 -0.36936,-2.176757 -0.31448,-4.352237 0.41243,-6.470692 0.9996,-2.913406 2.96716,-4.814824 5.90097,-5.670632 2.14527,-0.625578 4.31755,-0.660474 6.4852,-0.115753 2.84558,0.714095 4.82074,2.482311 5.7832,5.251027 1.04941,3.018946 1.03506,6.087258 -0.2613,9.041945 -1.48633,3.386633 -4.23778,4.996965 -7.80859,5.328479 -0.37189,0.03447 -0.7497,0.0047 -0.98441,0.0047 z m 0.10047,-3.809643 c 2.51464,4.25e-4 4.04993,-1.173279 4.63458,-3.636865 0.3968,-1.674166 0.41284,-3.371739 -0.009,-5.051863 -0.54877,-2.184842 -2.15878,-3.55771 -4.24115,-3.644525 -2.55052,-0.105965 -4.27661,0.991989 -5.04531,3.265774 -0.57874,1.712041 -0.61673,3.46366 -0.19503,5.217407 0.60576,2.520612 2.29555,3.84922 4.8562,3.850072 z"
                     id="Fill-8" />
                  <path
                     d="m 148.09332,32.838172 c 4.2e-4,-0.546849 0.008,-1.093272 -0.002,-1.639695 -0.009,-0.514081 0.17265,-0.600045 0.58676,-0.30981 1.06166,0.74431 2.24531,1.20477 3.51213,1.424786 0.88732,0.154054 1.78561,0.166395 2.66702,-0.07788 0.60112,-0.166396 1.07855,-0.510251 1.20688,-1.149022 0.13719,-0.68005 0.0823,-1.332864 -0.50445,-1.844391 -0.72606,-0.633238 -1.60959,-0.95922 -2.46145,-1.348185 -0.77841,-0.35492 -1.55175,-0.715372 -2.30948,-1.117529 -3.54421,-1.881416 -3.62146,-7.336287 -0.0735,-9.46453 2.12966,-1.277541 4.41127,-1.424786 6.77141,-1.018799 2.27275,0.391093 2.26938,0.411946 2.26938,2.695944 0,0.462588 0.002,0.92475 -4.3e-4,1.387337 -0.003,0.800059 -0.006,0.799208 -0.67836,0.421733 -1.3466,-0.754949 -2.7886,-1.103486 -4.32853,-0.98986 -1.28835,0.09533 -2.1077,0.96688 -1.99373,2.092921 0.0642,0.63111 0.37739,1.097102 0.91012,1.427765 0.80289,0.499186 1.67966,0.838785 2.5446,1.203067 0.84933,0.357899 1.64842,0.800485 2.40995,1.326056 2.98827,2.061429 2.762,6.727731 -0.10384,8.766605 -1.17691,0.837084 -2.49311,1.2835 -3.89754,1.418403 -1.99373,0.191504 -3.95199,-0.0349 -5.84905,-0.728564 -0.47279,-0.172779 -0.72818,-0.420457 -0.68512,-0.963476 0.0393,-0.501314 0.008,-1.008585 0.009,-1.512878"
                     id="Fill-9" />
                  <path
                     d="m 112.20373,19.281 c -4.3e-4,0.567276 -0.01,1.134977 0.003,1.702253 0.01,0.4528 -0.13466,0.518762 -0.50192,0.265552 -1.21573,-0.836658 -2.54207,-1.32946 -4.03641,-1.322225 -2.64592,0.01234 -4.73336,1.643951 -5.37416,4.230099 -0.32926,1.328184 -0.34066,2.667857 -0.0333,3.996466 0.73704,3.187044 3.46569,4.511398 6.38642,4.01817 1.05955,-0.178737 2.03383,-0.608131 2.93845,-1.195834 0.14944,-0.09745 0.28663,-0.308533 0.48756,-0.212781 0.20558,0.0983 0.1258,0.335344 0.12707,0.513229 0.008,0.987733 -0.0101,1.975891 0.009,2.963198 0.008,0.41535 -0.1583,0.65324 -0.51922,0.834955 -1.02029,0.514932 -2.10052,0.825593 -3.22635,0.940921 -2.93423,0.300873 -5.70468,-0.07575 -8.05004,-2.0959 -1.395563,-1.202216 -2.259666,-2.743607 -2.733297,-4.501184 -0.660635,-2.449542 -0.491783,-4.889723 0.400181,-7.242663 1.300163,-3.429189 3.877696,-5.323372 7.414736,-5.922565 1.98233,-0.33577 3.94144,-0.18895 5.8596,0.470673 0.62264,0.214058 0.94304,0.535784 0.85904,1.234559 -0.0523,0.434926 -0.01,0.881768 -0.0101,1.323077"
                     id="Fill-10" />
                  <path
                     d="m 119.96207,19.391221 c 0.86157,-1.599267 1.99246,-2.766162 3.79496,-3.090016 0.74084,-0.132776 1.49308,-0.128946 2.23392,0.06043 0.32546,0.08341 0.49052,0.269807 0.48798,0.625578 -0.008,1.219239 -0.006,2.438904 4.3e-4,3.658143 0.002,0.345983 -0.087,0.472801 -0.43522,0.278318 -0.51753,-0.288957 -1.09163,-0.424712 -1.67333,-0.480886 -1.80039,-0.174056 -3.19469,0.733246 -3.89036,2.514654 -0.37105,0.950709 -0.51627,1.94525 -0.51711,2.962347 -0.002,2.985327 8.4e-4,5.970654 -0.002,8.955981 -4.2e-4,0.779206 -0.0308,0.807719 -0.81851,0.810272 -1.02198,0.0038 -2.04396,-0.01319 -3.06552,0.006 -0.48123,0.0094 -0.66317,-0.174055 -0.66232,-0.665581 0.0101,-5.949801 0.0101,-11.899177 -4.2e-4,-17.848553 -8.5e-4,-0.489824 0.1756,-0.679199 0.65768,-0.671114 1.08403,0.01745 2.16891,0.0183 3.25294,0 0.49516,-0.0085 0.65895,0.208526 0.64333,0.685583 -0.0245,0.732394 -0.006,1.46564 -0.006,2.198886"
                     id="Fill-11" />
                  <path
                     d="m 89.792783,26.098951 c 0,-2.898087 -0.0017,-5.795748 8.44e-4,-8.693835 8.44e-4,-0.847722 0.04475,-0.890278 0.882254,-0.893257 0.999607,-0.0038 2.000057,0.01362 2.999242,-0.006 0.514156,-0.0098 0.756459,0.154905 0.755193,0.720053 -0.01224,5.92214 -0.0114,11.843855 -4.23e-4,17.765995 8.45e-4,0.51408 -0.177295,0.714095 -0.692717,0.701754 -1.040553,-0.02468 -2.082795,-0.003 -3.124192,-0.0081 -0.752238,-0.0034 -0.817246,-0.06554 -0.818513,-0.829849 -0.0038,-2.918939 -0.0017,-5.837878 -0.0017,-8.756817"
                     id="Fill-12" />
                  <path
                     d="m 92.155873,13.746548 c -1.52516,-0.0026 -2.736676,-1.14051 -2.749762,-2.582318 -0.01393,-1.4860677 1.227557,-2.7002 2.781422,-2.7202015 1.488856,-0.01915 2.732877,1.1962587 2.743852,2.6801985 0.01055,1.462235 -1.220381,2.6253 -2.775512,2.622321"
                     id="Fill-13" />
                </g>
              </g>
            </g>
          </g>
        </g>
      </g>
    </g>
  </g>
  <metadata
     id="metadata5965">
    <rdf:RDF>
      <cc:Work
         rdf:about="">
        <dc:title>Imported Layers</dc:title>
      </cc:Work>
    </rdf:RDF>
  </metadata>
</svg>
