<?xml version="1.0" encoding="UTF-8" standalone="no"?>
<svg width="206px" height="45px" viewBox="0 0 206 45" version="1.1" xmlns="http://www.w3.org/2000/svg" xmlns:xlink="http://www.w3.org/1999/xlink" xmlns:sketch="http://www.bohemiancoding.com/sketch/ns">
    <!-- Generator: Sketch 3.3.3 (12072) - http://www.bohemiancoding.com/sketch -->
    <title>Imported Layers</title>
    <desc>Created with Sketch.</desc>
    <defs></defs>
    <g id="Page-1" stroke="none" stroke-width="1" fill="none" fill-rule="evenodd" sketch:type="MSPage">
        <g id="Home---Desktop-Copy-2" sketch:type="MSArtboardGroup" transform="translate(-317.000000, -1908.000000)" fill="#B1B1B1">
            <g id="Group-+-Currently-in-use-at" sketch:type="MSLayerGroup" transform="translate(131.000000, 1814.000000)">
                <g id="Group" sketch:type="MSShapeGroup">
                    <g transform="translate(25.000000, 0.000000)" id="Row-3-+-Row-1-+-Row-2">
                        <g transform="translate(0.000000, 81.000000)">
                            <g id="Row-1" transform="translate(15.000000, 0.000000)">
                                <g id="Imported-Layers" transform="translate(146.000000, 13.000000)">
                                    <path d="M21.0854508,0.230229787 C21.0930492,3.21470575 21.1036025,6.19918171 21.1065574,9.18365767 C21.1103566,12.9673417 21.1031803,16.7510256 21.1124672,20.5347096 C21.1133115,21.0130429 21.0643443,21.3300876 20.4535205,21.3283853 C13.7395246,21.3109372 7.02595082,21.3139162 0.311954918,21.3105117 C0.270586066,21.3105117 0.229217213,21.3024259 0.18742623,21.2981703 C0.18742623,14.4329819 0.191647541,7.56779353 0.177717213,0.702605135 C0.176872951,0.308959011 0.265942623,0.219165139 0.656413934,0.220016266 C7.46581148,0.234059857 14.2756311,0.230229787 21.0854508,0.230229787" id="Fill-1"></path>
                                    <path d="M44.1110164,0.230229787 C44.1169262,5.31571214 44.1232582,10.4011945 44.1283238,15.4866768 C44.1304344,17.1889303 44.113127,18.8916094 44.1371885,20.5934374 C44.145209,21.141563 43.9531393,21.3249808 43.411123,21.3241297 C36.9073484,21.3109372 30.4031516,21.3139162 23.899377,21.3190229 C23.4759795,21.3194485 23.1800656,21.2696576 23.181332,20.7189786 C23.197373,13.9103901 23.1990615,7.10137607 23.2049713,0.292787603 C23.2049713,0.271934998 23.2100369,0.251082392 23.2129918,0.230229787 L44.1110164,0.230229787" id="Fill-2"></path>
                                    <path d="M0.18742623,23.4425842 C3.48215984,23.4366263 6.77689344,23.4285406 10.071627,23.4255616 C13.4917336,23.4225827 16.9118402,23.4340729 20.3315246,23.4161992 C20.8853607,23.4132203 21.1065574,23.5698276 21.1048689,24.1634885 C21.08925,30.7018442 21.0909385,37.2402 21.1023361,43.7781301 C21.1036025,44.3049776 20.9567008,44.5301006 20.3948443,44.5283984 C13.6588975,44.5118014 6.92337295,44.5135036 0.18742623,44.5105247 L0.18742623,23.4425842" id="Fill-3"></path>
                                    <path d="M61.5235041,15.5139129 L61.5235041,19.7989105 C61.5235041,24.8022592 61.5239262,29.8056078 61.5226598,34.8089564 C61.5226598,35.6719989 61.5083074,35.6843403 60.644627,35.6868936 C59.7475984,35.6890215 58.8509918,35.6898726 57.9543852,35.6864681 C57.1430492,35.6834891 57.1185656,35.6600832 57.1181434,34.8272556 C57.116877,28.2259165 57.1172992,21.625003 57.1172992,15.0236639 C57.1172992,13.2997066 57.1151885,11.5757494 57.1189877,9.85221773 C57.1206762,9.07599014 57.1536025,9.04449845 57.9391885,9.04322176 C59.6492418,9.04024281 61.3597172,9.06109542 63.0689262,9.03130598 C63.5965902,9.02194359 63.8443811,9.22366063 64.0318074,9.70454724 C66.393209,15.7696765 68.771918,21.8279967 71.14725,27.8875936 C71.2152131,28.0612235 71.2928852,28.2310233 71.3764672,28.427208 C71.5976639,28.329754 71.6183484,28.1276114 71.6820902,27.9693018 C74.114832,21.9552402 76.5551721,15.9450086 78.9554098,9.91818006 C79.226418,9.23642753 79.5624344,8.9985376 80.2834344,9.02492253 C81.8453197,9.08152246 83.4110041,9.06024429 84.9745779,9.0334338 C85.5258811,9.0240714 85.692623,9.22706513 85.6917787,9.76965844 C85.6795369,18.1579382 85.6782705,26.5457923 85.6934672,34.934072 C85.6947336,35.5183705 85.4971762,35.7124274 84.9336311,35.6954049 C83.9124959,35.6651899 82.8900943,35.689447 81.8685369,35.6864681 C81.0458033,35.6839147 81.0200533,35.6609343 81.0196311,34.8400225 C81.0179426,28.6595656 81.0187869,22.4786831 81.0187869,16.2978006 L81.0187869,15.6275383 C80.980373,15.6190271 80.941959,15.6105158 80.9039672,15.6020045 C80.6646189,16.196091 80.4210492,16.7884752 80.1863443,17.3846895 C77.8865738,23.2259724 75.5804713,29.0642764 73.3013852,34.913645 C73.075123,35.4941134 72.7838525,35.752856 72.157832,35.6979583 C71.5782459,35.6473163 70.9889508,35.6583809 70.4072541,35.6958305 C69.8884549,35.7290244 69.6267336,35.5260307 69.4342418,35.0366328 C67.9724016,31.324869 66.4856557,27.6237443 65.0043975,23.9196407 C63.8827951,21.1134758 62.7582377,18.3085876 61.6349467,15.5032738 C61.5977992,15.5066783 61.5606516,15.5100828 61.5235041,15.5139129" id="Fill-4"></path>
                                    <path d="M44.1232582,33.97698 C44.1232582,37.1925369 44.1241025,40.4080937 44.1224139,43.6240762 C44.1219918,44.509248 44.1114385,44.5220149 43.266332,44.5220149 C36.8659795,44.5232916 30.465627,44.5232916 24.0652746,44.5220149 C23.2020164,44.5220149 23.1931516,44.5130781 23.1931516,43.6432265 C23.1918852,37.1908346 23.1918852,30.7384427 23.1931516,24.2860508 C23.1935738,23.4259872 23.1977951,23.4230083 24.0770943,23.4225827 C30.4774467,23.4217316 36.8777992,23.4217316 43.2781516,23.4230083 C44.1046844,23.4230083 44.1215697,23.4396052 44.1219918,24.2669004 C44.1245246,27.5033099 44.1232582,30.740145 44.1232582,33.97698" id="Fill-5"></path>
                                    <path d="M185.488648,27.9612161 C185.488648,25.6487047 185.474295,23.3357678 185.498779,21.0232564 C185.504689,20.4725774 185.333725,20.2644769 184.782844,20.2989475 C184.180041,20.3368226 183.573439,20.2959686 182.968947,20.3095866 C182.561168,20.3185234 182.347992,20.181492 182.357279,19.7308204 C182.375008,18.848202 182.372898,17.9647324 182.357701,17.0821139 C182.350525,16.6744242 182.528664,16.5088801 182.917025,16.5127101 C183.480148,16.518668 184.04327,16.5127101 184.606393,16.5105823 C185.484848,16.5076034 185.47725,16.5067523 185.490758,15.6466887 C185.505533,14.7015124 185.404643,13.7499527 185.556611,12.8124366 C186.143795,9.18238098 188.918463,6.93838529 192.573697,7.11797304 C193.1765,7.14733691 193.780148,7.15116698 194.376619,7.28436832 C194.807193,7.38097121 195.030078,7.58949726 195.022057,8.05634028 C195.006439,8.9602369 195.010238,9.86455907 195.020369,10.7684557 C195.025857,11.267216 194.828721,11.418291 194.366488,11.2216807 C193.858664,11.0054945 193.324668,10.9412344 192.775475,10.9463412 C191.255381,10.9612359 190.262107,11.8744949 190.167127,13.4175877 C190.116049,14.255522 190.153197,15.0989886 190.140111,15.9394763 C190.133779,16.3365269 190.307275,16.511859 190.702811,16.5105823 C192.496447,16.5041989 194.290082,16.5033477 196.083717,16.5114335 C196.49023,16.5135613 196.633754,16.3284412 196.628689,15.9343695 C196.616447,14.9253587 196.642619,13.9159224 196.618557,12.9069117 C196.608426,12.4621979 196.744775,12.2094133 197.188857,12.0813187 C198.311303,11.7578905 199.426996,11.4093541 200.538045,11.0484764 C201.018008,10.8927202 201.184328,11.0450719 201.180107,11.5353209 C201.167443,12.9647883 201.193193,14.3951068 201.168709,15.8241486 C201.159844,16.3501449 201.354869,16.5297327 201.864381,16.5178169 C202.906623,16.4931342 203.950131,16.5263282 204.992373,16.50505 C205.497664,16.4948365 205.70873,16.676552 205.688889,17.2033995 C205.658918,18.0013308 205.655541,18.8022411 205.689734,19.5997469 C205.713795,20.1665973 205.474447,20.3287369 204.948471,20.3151189 C203.906652,20.2883084 202.862721,20.325758 201.82048,20.3002242 C201.328275,20.2883084 201.16702,20.4747052 201.169975,20.9632519 C201.186016,23.7804815 201.17673,26.597711 201.183061,29.4153662 C201.183484,29.6655974 201.23625,29.9154031 201.256512,30.1664855 C201.400459,31.9508728 202.717086,32.5351713 204.37184,32.1649311 C204.613721,32.1108846 204.864467,32.0359854 205.075533,31.9104442 C205.529324,31.6397859 205.700709,31.7308565 205.687201,32.2730242 C205.664828,33.1556427 205.674959,34.0391122 205.682557,34.9221563 C205.68509,35.2523934 205.585889,35.4885811 205.251561,35.5996532 C203.397984,36.2154434 201.517811,36.3746041 199.67141,35.6737012 C197.443824,34.8285323 196.710582,32.9207317 196.654439,30.7405705 C196.572545,27.5467174 196.629111,24.3494597 196.625734,21.1539043 C196.624467,20.3117144 196.622357,20.309161 195.799623,20.3083099 C194.173152,20.3061821 192.545836,20.3291625 190.919787,20.2963941 C190.320361,20.2840528 190.12618,20.483642 190.129135,21.0896443 C190.148553,25.5469951 190.139689,30.0043459 190.139266,34.4616967 C190.139266,35.6868936 190.138844,35.6873192 188.894824,35.6873192 C187.998217,35.6873192 187.100766,35.6647643 186.205004,35.6949793 C185.662143,35.712853 185.474295,35.5132638 185.479783,34.9625848 C185.501734,32.6292208 185.48907,30.2950057 185.488648,27.9612161" id="Fill-6"></path>
                                    <path d="M172.333775,36.0745819 C170.07875,36.1707592 168.117529,35.6868936 166.373283,34.4872305 C163.95827,32.8262566 162.840045,30.4035243 162.618426,27.544164 C162.483344,25.8031842 162.563971,24.0622044 163.133004,22.3739945 C164.260939,19.0256619 166.570418,17.0472177 169.974061,16.344187 C171.834393,15.9599033 173.701057,15.9726702 175.551258,16.4407899 C178.420061,17.1663755 180.409988,18.9418259 181.36907,21.7382028 C182.405402,24.7597028 182.385984,27.8280148 181.077377,30.7788712 C179.588943,34.1352896 176.850578,35.7324289 173.307631,36.0699007 C172.935734,36.1052224 172.557504,36.0745819 172.333775,36.0745819 L172.333775,36.0745819 Z M172.38443,32.2657897 C174.909619,32.2679175 176.432246,31.113364 177.030406,28.6446709 C177.436074,26.9717813 177.443672,25.2725067 177.029984,23.5932336 C176.490922,21.4045612 174.880492,20.0261614 172.801496,19.9333886 C170.251824,19.818912 168.521086,20.9130355 167.745209,23.1829905 C167.175332,24.8507734 167.142406,26.5598359 167.506283,28.2791119 C168.047877,30.8354712 169.796766,32.2632363 172.38443,32.2657897 L172.38443,32.2657897 Z" id="Fill-7"></path>
                                    <path d="M136.386775,36.075433 C134.164254,36.1694825 132.225406,35.6822124 130.491291,34.5119132 C128.437201,33.1258532 127.27043,31.1274076 126.859275,28.7063776 C126.48991,26.5296209 126.544787,24.3541409 127.271697,22.2356864 C128.271303,19.3222796 130.238857,17.4208624 133.172668,16.5650544 C135.317939,15.9394763 137.490225,15.9045801 139.657869,16.4493012 C142.503455,17.1633965 144.478607,18.9316124 145.441066,21.7003277 C146.490484,24.7192743 146.476131,27.7875862 145.179766,30.7422728 C143.693443,34.1289061 140.941992,35.7392379 137.371184,36.0707518 C136.999287,36.1052224 136.62148,36.075433 136.386775,36.075433 L136.386775,36.075433 Z M136.487242,32.2657897 C139.001877,32.2662152 140.537168,31.0925114 141.12182,28.628925 C141.518623,26.9547587 141.534664,25.2571864 141.112533,23.5770622 C140.563762,21.3922198 138.953754,20.0193524 136.871381,19.9325374 C134.320865,19.8265722 132.59477,20.9245257 131.82607,23.1983108 C131.247328,24.9103523 131.209336,26.6619711 131.631045,28.4157178 C132.236803,30.9363297 133.926594,32.2649385 136.487242,32.2657897 L136.487242,32.2657897 Z" id="Fill-8"></path>
                                    <path d="M148.093316,32.8381724 C148.093738,32.2913235 148.100914,31.7449001 148.091627,31.1984767 C148.08234,30.6843962 148.264279,30.5984323 148.678389,30.8886666 C149.740049,31.6329769 150.923705,32.0934365 152.19052,32.3134528 C153.07784,32.4675067 153.976135,32.479848 154.857545,32.2355747 C155.45866,32.0691794 155.93609,31.7253242 156.064418,31.0865535 C156.201611,30.4065033 156.146734,29.753689 155.559971,29.2421619 C154.833906,28.6089236 153.950385,28.282942 153.098525,27.8939771 C152.320115,27.5390572 151.54677,27.1786051 150.789045,26.7764477 C147.244832,24.895032 147.167582,19.4401606 150.715594,17.3119182 C152.845246,16.0343769 155.126865,15.887132 157.487,16.2931194 C159.759754,16.6842122 159.756377,16.7050648 159.756377,18.9890634 C159.756377,19.4516508 159.758066,19.9138127 159.755955,20.3764 C159.752578,21.1764592 159.750045,21.1756081 159.07759,20.7981333 C157.730992,20.0431839 156.288992,19.6946475 154.749057,19.8082729 C153.460713,19.9035991 152.641357,20.7751529 152.755332,21.9011936 C152.819496,22.5323041 153.132717,22.998296 153.665447,23.3289587 C154.46834,23.8281446 155.345107,24.1677442 156.210053,24.5320264 C157.059381,24.8899252 157.858475,25.3325111 158.62,25.8580819 C161.608266,27.9195109 161.382004,32.5858133 158.516156,34.6246875 C157.339254,35.4617706 156.023049,35.9081866 154.618619,36.0430902 C152.624893,36.2345937 150.666627,36.008194 148.76957,35.3145257 C148.296783,35.141747 148.041393,34.8940691 148.084451,34.3510502 C148.123709,33.8497365 148.092893,33.342465 148.093316,32.8381724" id="Fill-9"></path>
                                    <path d="M112.203725,19.2809999 C112.203303,19.8482759 112.194016,20.4159774 112.206258,20.9832534 C112.215967,21.4360528 112.071598,21.5020152 111.704344,21.248805 C110.488607,20.4121474 109.16227,19.919345 107.667926,19.9265796 C105.022008,19.9389209 102.93457,21.5705309 102.293775,24.1566795 C101.964512,25.4848628 101.953115,26.8245363 102.260426,28.1531452 C102.997467,31.3401893 105.726123,32.6645425 108.646848,32.1713146 C109.706398,31.992578 110.680676,31.5631845 111.585303,30.9754815 C111.734738,30.8780275 111.87193,30.6669481 112.072865,30.7626998 C112.278443,30.861005 112.19866,31.0980438 112.199926,31.2759292 C112.207525,32.2636618 112.189795,33.25182 112.209213,34.239127 C112.217656,34.6544769 112.050914,34.8923668 111.689992,35.0740824 C110.669701,35.5890141 109.589467,35.8996753 108.463643,36.015003 C105.52941,36.3158763 102.758963,35.9392527 100.413602,33.9191034 C99.0180369,32.7168868 98.1539344,31.1754963 97.6803033,29.4179195 C97.019668,26.9683767 97.1885205,24.5281963 98.0804836,22.1752564 C99.3806475,18.7460667 101.95818,16.8518842 105.495217,16.2526909 C107.477545,15.9169214 109.436656,16.0637408 111.35482,16.723364 C111.977463,16.9374224 112.297861,17.2591483 112.213857,17.9579234 C112.161512,18.3928491 112.204148,18.8396907 112.203725,19.2809999" id="Fill-10"></path>
                                    <path d="M119.962074,19.3912208 C120.823643,17.7919537 121.954533,16.6250589 123.757033,16.3012051 C124.497873,16.1684294 125.250111,16.1722594 125.990951,16.3616351 C126.316414,16.4450456 126.481467,16.6314423 126.478934,16.9872133 C126.470492,18.2064524 126.473025,19.426117 126.479357,20.6453561 C126.481045,20.9913391 126.392398,21.118157 126.044139,20.9236745 C125.526607,20.634717 124.952508,20.4989623 124.370811,20.4427879 C122.570422,20.2687325 121.176123,21.1760336 120.480451,22.9574419 C120.109398,23.9081505 119.964184,24.9026921 119.96334,25.9197886 C119.961652,28.9051157 119.964184,31.8904428 119.96123,34.8757698 C119.960807,35.6549764 119.930414,35.6834891 119.142717,35.6860425 C118.120738,35.6898726 117.098758,35.6728501 116.077201,35.6920004 C115.595971,35.7013628 115.414033,35.517945 115.414877,35.0264193 C115.425008,29.0766177 115.425008,23.1272417 115.414455,17.1778657 C115.413611,16.6880423 115.590061,16.4986666 116.072135,16.5067523 C117.156168,16.5242004 118.241045,16.5250515 119.325078,16.5067523 C119.820238,16.498241 119.984025,16.7152783 119.968406,17.1923349 C119.943922,17.9247294 119.962074,18.6579751 119.962074,19.3912208" id="Fill-11"></path>
                                    <path d="M89.7927828,26.0989508 C89.7927828,23.2008642 89.7910943,20.3032031 89.793627,17.4051165 C89.7944713,16.5573943 89.838373,16.514838 90.6758811,16.511859 C91.6754877,16.5080289 92.6759385,16.525477 93.675123,16.5059011 C94.1892787,16.4961132 94.431582,16.6608062 94.4303156,17.2259544 C94.4180738,23.1480943 94.418918,29.0698087 94.4298934,34.9919487 C94.4307377,35.5060292 94.2525984,35.706044 93.7371762,35.6937027 C92.696623,35.66902 91.6543811,35.6907237 90.6129836,35.685617 C89.8607459,35.6822124 89.7957377,35.6200802 89.7944713,34.8557684 C89.7906721,31.9368292 89.7927828,29.01789 89.7927828,26.0989508" id="Fill-12"></path>
                                    <path d="M92.155873,13.7465482 C90.6307131,13.7439948 89.4191967,12.6060383 89.4061107,11.1642296 C89.3921803,9.67816231 90.633668,8.46403 92.1875328,8.44402852 C93.6763893,8.42487817 94.9204098,9.64028717 94.9313852,11.1242267 C94.9419385,12.5864624 93.7110041,13.7495271 92.155873,13.7465482" id="Fill-13"></path>
                                </g>
                            </g>
                        </g>
                    </g>
                </g>
            </g>
        </g>
    </g>
</svg>