<?xml version="1.0" encoding="UTF-8" standalone="no"?>
<svg width="100px" height="22px" viewBox="0 0 100 22" version="1.1" xmlns="http://www.w3.org/2000/svg" xmlns:xlink="http://www.w3.org/1999/xlink" xmlns:sketch="http://www.bohemiancoding.com/sketch/ns">
    <!-- Generator: Sketch 3.3.3 (12072) - http://www.bohemiancoding.com/sketch -->
    <title>microsoft-color</title>
    <desc>Created with Sketch.</desc>
    <defs></defs>
    <g id="Page-1" stroke="none" stroke-width="1" fill="none" fill-rule="evenodd" sketch:type="MSPage">
        <g id="About---Desktop" sketch:type="MSArtboardGroup" transform="translate(-743.000000, -1277.000000)">
            <g id="Imported-Layers-+-Imported-Layers-+-Imported-Layers" sketch:type="MSLayerGroup" transform="translate(225.000000, 771.000000)">
                <g id="microsoft-color" transform="translate(518.000000, 506.000000)" sketch:type="MSShapeGroup">
                    <g id="Page-1">
                        <g id="About---Desktop">
                            <g id="Imported-Layers-+-Imported-Layers-+-Imported-Layers">
                                <g id="Imported-Layers" transform="translate(0.378576, 0.139860)">
                                    <path d="M10.118583,0.0532701286 C10.1153726,1.11126242 10.110208,2.16925471 10.1095101,3.227247 C10.1081143,5.43425219 10.1053227,7.64125738 10.1145351,9.84826257 C10.1155122,10.0870694 10.0522815,10.1499868 9.81387533,10.1492878 C6.6749539,10.1413182 3.53589285,10.1438349 0.39697139,10.1443942 C0.276372487,10.1443942 0.155913166,10.1502665 0.0353142622,10.1534822 C0.0353142622,6.86219924 0.037128829,3.57105605 0.030568472,0.279773038 C0.0301497258,0.0910206133 0.0730014195,0.0480969138 0.261437206,0.0485163638 C3.54719899,0.0550877443 6.83282119,0.0532701286 10.118583,0.0532701286" id="Fill-1" fill="#F15023"></path>
                                    <path d="M21.2281986,0.0532701286 C21.2249882,0.717818476 21.2192654,1.38222701 21.2191258,2.04677536 C21.2180091,4.64512725 21.216055,7.24347914 21.2231737,9.841831 C21.223732,10.0676349 21.181997,10.1508257 20.9304701,10.1501267 C17.763353,10.1406191 14.596236,10.1404793 11.429119,10.1502665 C11.1763359,10.1509656 11.1401841,10.0645589 11.1406029,9.8425301 C11.146884,6.57949005 11.1449299,3.31631018 11.1449299,0.0532701286 L21.2281986,0.0532701286" id="Fill-2" fill="#7FB901"></path>
                                    <path d="M0.0353142622,11.1815538 C3.27264107,11.1815538 6.5099679,11.1850492 9.74729471,11.175262 C10.0236672,11.1744231 10.118583,11.2205626 10.1171871,11.5271804 C10.104206,14.6590725 10.1044852,17.7912442 10.1167684,20.9231363 C10.1180247,21.2255596 10.0278546,21.2799483 9.74673638,21.2789696 C6.63014805,21.2686231 3.51342013,21.2723982 0.396692226,21.2728176 C0.276232905,21.2728176 0.155773583,21.27869 0.0353142622,21.2817659 L0.0353142622,11.1815538" id="Fill-3" fill="#01A4EE"></path>
                                    <path d="M16.1989173,21.272538 C14.6090776,21.272538 13.0190983,21.2684833 11.429119,21.2772918 C11.212348,21.2785501 11.1386487,21.235207 11.1393466,20.9991965 C11.1477215,17.8140343 11.1471632,14.6287323 11.1401841,11.4434303 C11.1396258,11.231748 11.1937836,11.1762408 11.4059484,11.1766602 C14.5857674,11.1837909 17.765726,11.1843501 20.9456845,11.1759611 C21.1804616,11.175262 21.2241508,11.2479667 21.223732,11.465801 C21.2167529,14.6408964 21.2166133,17.8161316 21.2240111,20.991227 C21.2245695,21.2175901 21.1653867,21.2792492 20.9385659,21.2777112 C19.358776,21.2677842 17.7788467,21.272538 16.1989173,21.272538" id="Fill-4" fill="#FEB801"></path>
                                    <path d="M34.4089329,13.7126539 C35.1295951,11.9399191 35.8220618,10.2351351 36.5155054,8.53077067 C37.0537339,7.20810552 37.5972664,5.88767748 38.12712,4.56165673 C38.2059838,4.36423568 38.2992246,4.28635782 38.519206,4.29013287 C39.3540463,4.30439417 40.189445,4.30159784 41.0244249,4.29167086 C41.2209564,4.28943379 41.2784642,4.34480117 41.278185,4.54487874 C41.2726018,8.61647824 41.2723226,12.6882176 41.2784642,16.7599569 C41.2787434,16.9724781 41.2190022,17.0345567 41.0086521,17.0292437 C40.4656779,17.0154019 39.9217265,17.012186 39.3790315,17.0302224 C39.1279233,17.0384716 39.0572948,16.9624114 39.0579927,16.7100424 C39.0663677,13.6865082 39.0634364,10.662974 39.0634364,7.63929995 L39.0634364,7.30975219 C39.0444533,7.30401971 39.0256097,7.29842705 39.0066265,7.29269457 C38.9565166,7.41447486 38.9047316,7.53569586 38.8562967,7.65817519 C37.6646846,10.6694055 36.4704204,13.6793775 35.2878812,16.6941033 C35.1875217,16.9501075 35.0635728,17.0567876 34.7844087,17.0309215 C34.4851447,17.003098 34.1801579,17.0086907 33.8797773,17.0296631 C33.6451399,17.0461615 33.5544115,16.9463324 33.4712206,16.7381455 C32.2476442,13.6746238 31.0141576,10.6151567 29.7824854,7.55485071 C29.7464732,7.46522829 29.705157,7.3778429 29.6119161,7.29632981 L29.6119161,7.60700233 C29.6119161,10.6305365 29.6081474,13.6540707 29.6180578,16.6776049 C29.6188952,16.9529038 29.5509188,17.0453226 29.2696609,17.0309215 C28.818113,17.0075721 28.3633546,17.0063138 27.9119462,17.0310613 C27.6146364,17.0474199 27.5220935,16.9724781 27.5230705,16.6542556 C27.5354933,12.8346056 27.5311663,9.01481576 27.5311663,5.19516581 C27.5311663,4.96334986 27.5370288,4.73125428 27.5294913,4.49971797 C27.5243268,4.34102612 27.5904887,4.29250976 27.7443081,4.29348847 C28.6698768,4.29852187 29.595585,4.30075894 30.5212933,4.29181067 C30.7016333,4.28999306 30.7309455,4.400588 30.7795201,4.52362661 C31.5800232,6.553624 32.3819222,8.5830621 33.1836816,10.6125002 C33.5821884,11.6211372 33.9809743,12.6297742 34.4089329,13.7126539" id="Fill-5" fill="#737373"></path>
                                    <path d="M93.9933057,5.37972371 C93.8239929,5.32561467 93.6839919,5.27737795 93.5420367,5.23599224 C92.455809,4.91930762 91.6987162,5.4503311 91.6421852,6.57949005 C91.623621,6.95154205 91.6445581,7.32527186 91.6363229,7.69802295 C91.6328333,7.8527999 91.6808495,7.91040438 91.8417876,7.90928586 C92.7674962,7.90327371 93.6932043,7.90201538 94.6189124,7.91026457 C94.8006481,7.91180252 94.8349857,7.84049605 94.8326124,7.67914771 C94.8246567,7.15511505 94.837219,6.63080276 94.8256333,6.1069099 C94.8215857,5.91801767 94.8673686,5.82154419 95.0651562,5.7667361 C95.645399,5.605947 96.2208957,5.42656229 96.7934614,5.23976729 C96.96766,5.18300176 96.9980886,5.23081905 96.9968324,5.39384519 C96.9911095,6.11963324 97.0095343,6.84584071 96.9869224,7.57078981 C96.97771,7.8610491 97.0758362,7.92228876 97.3418795,7.91236181 C97.8644748,7.89264767 98.3883262,7.91389976 98.91134,7.90271448 C99.10173,7.89865976 99.1801752,7.94396033 99.1724981,8.15172786 C99.1571443,8.56446648 99.1575629,8.97846348 99.1723586,9.3912021 C99.1797562,9.59952886 99.121411,9.67111495 98.9049195,9.66552229 C98.3417057,9.65098133 97.7779338,9.66622138 97.2145805,9.6574129 C97.044709,9.65475638 96.9901324,9.70704781 96.991249,9.87944171 C96.9997638,11.3206713 96.9993448,12.761901 97.0050681,14.2031306 C97.0054867,14.312607 97.0258657,14.4232019 97.0476405,14.5312801 C97.1752186,15.1668864 97.48523,15.4248481 98.1307971,15.43869 C98.4290843,15.4451215 98.7118771,15.3782891 98.9689876,15.2310623 C99.13844,15.1340295 99.17194,15.18702 99.1698462,15.3566176 C99.1641233,15.8100429 99.1625876,16.2638876 99.1709629,16.717173 C99.1737543,16.8616036 99.1240633,16.9408796 98.9896457,16.9850617 C98.1179557,17.2718255 97.2370533,17.3540377 96.3562905,17.0495171 C95.4587776,16.739264 95.0461733,16.0351476 94.893331,15.1426982 C94.8422438,14.8441897 94.8275876,14.5428849 94.8282857,14.2397625 C94.8313562,12.8084599 94.8252148,11.3771572 94.8344271,9.94599438 C94.8356833,9.730537 94.7950652,9.65028229 94.5576357,9.65447676 C93.6825962,9.66985657 92.8068581,9.66985657 91.9316786,9.65475638 C91.6878286,9.6505619 91.6328333,9.72662214 91.6338105,9.96011586 C91.6421852,12.1977409 91.6324148,14.435366 91.6462333,16.6728511 C91.6481876,16.9740161 91.5598319,17.0443439 91.2756429,17.0312011 C90.7635162,17.007712 90.2492962,17.0135842 89.736611,17.0296631 C89.5123029,17.0367938 89.449491,16.974855 89.4504676,16.7449965 C89.45968,14.4973047 89.4511657,12.2496129 89.4623324,10.001921 C89.4637281,9.72955829 89.4002181,9.63182648 89.118821,9.65461657 C88.7988986,9.68048267 88.4750686,9.65391748 88.1533319,9.66342505 C87.9985352,9.66789914 87.94019,9.62161986 87.9434005,9.45957243 C87.9524733,9.00614714 87.95345,8.55230243 87.943121,8.09901695 C87.9392129,7.9266231 88.016681,7.90131629 88.1601714,7.90439224 C88.4820476,7.9113831 88.8053195,7.88985133 89.1258,7.91180252 C89.38291,7.92941943 89.4723824,7.86636214 89.4641467,7.5865891 C89.4471176,7.0041131 89.4108267,6.41632405 89.5393814,5.83958057 C89.883591,4.2937681 91.1402481,3.34748929 92.8096495,3.37209701 C93.1519048,3.37727022 93.4915081,3.39740381 93.825249,3.48786516 C93.9408229,3.5193239 93.9958181,3.56630228 93.9949805,3.69129833 C93.9910724,4.24441284 93.9933057,4.79766719 93.9933057,5.37972371" id="Fill-6" fill="#737373"></path>
                                    <path d="M78.4155286,12.5397323 C78.398081,11.6932826 78.5378024,10.8753554 78.9044848,10.1076224 C79.4227529,9.02264552 80.265689,8.2972769 81.4070514,7.941164 C82.4442857,7.61748857 83.504551,7.57959829 84.56356,7.82707367 C86.3238295,8.23841414 87.5066481,9.61966243 87.7035981,11.4493026 C87.8172181,12.5047782 87.782881,13.5444545 87.3658095,14.5354746 C86.7160552,16.0793297 85.5326786,16.937524 83.8897976,17.1717168 C83.0341595,17.2934971 82.1829881,17.2677709 81.3549871,16.9965266 C79.6748381,16.4460686 78.7637857,15.2458828 78.4720595,13.5331293 C78.44512,13.3745773 78.4264162,13.2137882 78.4176224,13.0532788 C78.40841,12.8825627 78.4155286,12.7110077 78.4155286,12.5397323 L78.4155286,12.5397323 L78.4155286,12.5397323 Z M80.6343252,12.6355067 C80.619669,12.8696995 80.6739662,13.2477637 80.766509,13.6196759 C81.0474881,14.748695 81.8806533,15.4156202 83.0460238,15.4516929 C84.1882238,15.4870665 84.9940314,14.9549245 85.3206533,13.9050415 C85.6114029,12.9706471 85.6208943,12.0190553 85.3374033,11.0806062 C85.08127,10.2324786 84.520569,9.66999643 83.6336643,9.52053243 C82.7473186,9.37120833 81.9222486,9.51675738 81.3051567,10.2493964 C80.7624614,10.8933918 80.6440957,11.6739879 80.6343252,12.6355067 L80.6343252,12.6355067 L80.6343252,12.6355067 Z" id="Fill-7" fill="#737373"></path>
                                    <path d="M65.6887152,17.2296009 C64.3829248,17.2304398 63.2049919,16.8944605 62.2718857,15.9209174 C61.5752319,15.1942905 61.2283705,14.3100902 61.1201943,13.321447 C61.0021076,12.2427619 61.0832048,11.1860279 61.5406152,10.1892753 C62.2233114,8.70176638 63.4358605,7.94801505 65.0201171,7.73493452 C65.784329,7.63216933 66.5439343,7.65481962 67.2947462,7.84273314 C68.7522624,8.20765448 69.7153786,9.11786062 70.16581,10.5413335 C70.5489624,11.7521454 70.542821,12.984489 70.1621805,14.1978175 C69.5869629,16.0315124 67.9731152,17.1925495 65.9904914,17.2293213 C65.8898529,17.2312787 65.7893538,17.2296009 65.6887152,17.2296009 L65.6887152,17.2296009 L65.6887152,17.2296009 Z M63.3117724,12.5443463 C63.2912538,12.8864775 63.3473657,13.2746084 63.4475857,13.6550494 C63.746431,14.7881232 64.6097457,15.4486169 65.7844686,15.4518327 C66.97287,15.4551883 67.7482486,14.8792837 68.0448605,13.725517 C68.2796376,12.8126544 68.2856395,11.8912629 67.9757671,10.9898652 C67.6658952,10.0883277 66.9469081,9.54108548 66.06112,9.48278195 C65.0051819,9.41315329 64.1601519,9.74563719 63.6614252,10.7330221 C63.3836571,11.2832005 63.3017224,11.8793785 63.3117724,12.5443463 L63.3117724,12.5443463 L63.3117724,12.5443463 Z" id="Fill-8" fill="#737373"></path>
                                    <path d="M71.4272129,14.6133525 C72.1580648,15.1273183 72.9023162,15.4297417 73.732411,15.5088779 C74.0681057,15.5408959 74.3947276,15.503425 74.7139519,15.4090488 C75.0383405,15.3129948 75.2539948,15.1038291 75.3034067,14.7549867 C75.352121,14.4107582 75.25888,14.1178424 74.9763662,13.899309 C74.6712395,13.663019 74.320191,13.5114578 73.9706771,13.3582188 C73.5844538,13.1890407 73.1973929,13.0234978 72.8244295,12.824399 C71.8805757,12.3209193 71.4168838,11.5322139 71.4288881,10.4694678 C71.4410314,9.40001052 71.9700476,8.63675167 72.8918476,8.14277957 C73.8167181,7.64726952 74.8101238,7.59162248 75.8240481,7.76149967 C76.1397824,7.81449019 76.4486776,7.90858676 76.7612019,7.98171086 C76.941821,8.02393548 77.0204057,8.11817186 77.0141248,8.31978738 C76.998631,8.81278076 77.0014229,9.30675286 77.0124495,9.80016567 C77.0174748,10.0262491 76.9779729,10.0605042 76.7732062,9.93732576 C76.0815767,9.521651 75.3286714,9.3356949 74.5227243,9.42881276 C73.8814843,9.50305538 73.5434167,9.93229238 73.6328886,10.5171452 C73.679509,10.8226445 73.8658514,11.0224425 74.117099,11.1724657 C74.4283671,11.358282 74.7608514,11.5004755 75.0962671,11.6356781 C75.4413138,11.7749355 75.7764505,11.9343264 76.100839,12.1174862 C77.0312933,12.6430568 77.5393719,13.4232335 77.4867495,14.50849 C77.4321729,15.6362508 76.8374138,16.424397 75.8215357,16.8579683 C74.4121752,17.459739 72.9937424,17.3003481 71.5902448,16.794911 C71.4862562,16.7574402 71.4249795,16.6970394 71.4256776,16.5745601 C71.4290276,15.9424492 71.4272129,15.3101985 71.4272129,14.6133525" id="Fill-9" fill="#737373"></path>
                                    <path d="M54.0651586,10.2468798 C53.5484257,9.89496133 53.0582133,9.63797843 52.4969538,9.52472695 C50.8156881,9.18553186 49.3330471,10.290922 49.1849505,12.0106663 C49.135399,12.5860116 49.1476824,13.1584209 49.3344429,13.7123742 C49.7636581,14.9856841 51.0448814,15.6836486 52.3964548,15.3903134 C52.9236562,15.2758036 53.4120538,15.0732093 53.8552271,14.7667313 C54.0250981,14.6491455 54.0704624,14.688434 54.067671,14.8850161 C54.0602729,15.3987024 54.0623667,15.9125284 54.0671124,16.4262147 C54.068229,16.548694 54.0391962,16.6300673 53.921389,16.6914468 C52.2642705,17.5549541 49.037831,17.6398229 47.5765465,15.19471 C46.4372777,13.2881707 46.783162,10.0051368 48.760761,8.60557257 C49.8390324,7.84245348 51.0434857,7.60154948 52.3339219,7.70361562 C52.845909,7.74416243 53.3453338,7.85489719 53.8267524,8.04211162 C53.9964838,8.10810505 54.074929,8.20010438 54.0701833,8.39766524 C54.0562252,8.99090714 54.0651586,9.5848481 54.0651586,10.2468798" id="Fill-10" fill="#737373"></path>
                                    <path d="M60.9573019,10.0472216 C60.6255152,9.86000719 60.3146662,9.755704 59.98274,9.7214489 C59.1696743,9.63769876 58.5775671,9.94962962 58.1885519,10.6668889 C57.8973838,11.2036448 57.8073533,11.7845828 57.8080514,12.3869128 C57.8098662,13.8282822 57.8024681,15.2697915 57.8144724,16.7110211 C57.8165657,16.9652077 57.7435643,17.0386114 57.4935729,17.0300826 C56.9609276,17.0120462 56.4270267,17.0193167 55.8938229,17.0275659 C55.7150186,17.0303622 55.6489962,16.9777912 55.6494148,16.78806 C55.6545795,13.9053212 55.654719,11.0227221 55.6492752,8.13998324 C55.6489962,7.95137062 55.7099933,7.89991814 55.8910314,7.9029941 C56.4543848,7.91264143 57.0181567,7.91431924 57.58137,7.90243481 C57.7773433,7.89824033 57.8165657,7.97569871 57.8119595,8.15088895 C57.8013514,8.54055781 57.8086095,8.930786 57.8086095,9.41287367 C58.0150514,9.05410424 58.1526795,8.75699395 58.3737776,8.51273433 C59.0295338,7.78820467 59.8417619,7.61776819 60.7637014,7.81616795 C60.8979795,7.84511 60.9630248,7.9083071 60.960931,8.06294429 C60.9522771,8.70749886 60.9573019,9.3524729 60.9573019,10.0472216" id="Fill-11" fill="#737373"></path>
                                    <path d="M43.3176186,12.4214475 C43.3176186,11.0108377 43.322504,9.6000881 43.3125936,8.18947833 C43.3110582,7.96800881 43.3629828,7.89334676 43.5944098,7.90089686 C44.1371049,7.91851371 44.680777,7.91278124 45.2237512,7.9031339 C45.4038121,7.89991814 45.4676011,7.9502521 45.467322,8.13942395 C45.4621574,11.0111173 45.4621574,13.8828107 45.4671824,16.754504 C45.4674615,16.94815 45.4142808,17.0197362 45.2128639,17.0154019 C44.6700292,17.0036572 44.126357,17.0022591 43.5835224,17.016101 C43.3713577,17.021414 43.3120353,16.9544418 43.3132915,16.7440178 C43.3216665,15.3032076 43.3176186,13.8622577 43.3176186,12.4214475" id="Fill-12" fill="#737373"></path>
                                    <path d="M44.4275751,6.51559386 C43.6957464,6.52230505 43.126112,5.99939095 43.1095017,5.3056209 C43.0923331,4.59703033 43.6555468,4.04000096 44.3933775,4.03580646 C45.1567519,4.03147214 45.7329466,4.56906701 45.7325279,5.28534752 C45.7321091,5.96443676 45.1545185,6.50902248 44.4275751,6.51559386" id="Fill-13" fill="#737373"></path>
                                </g>
                            </g>
                        </g>
                    </g>
                </g>
            </g>
        </g>
    </g>
</svg>