<?xml version="1.0" encoding="UTF-8" standalone="no"?>
<svg
   width="300"
   height="90"
   viewBox="0 0 300 90"
   version="1.1"
   id="svg5796"
   sodipodi:docname="moore.svg"
   inkscape:version="1.1.1 (3bf5ae0d25, 2021-09-20)"
   xmlns:inkscape="http://www.inkscape.org/namespaces/inkscape"
   xmlns:sodipodi="http://sodipodi.sourceforge.net/DTD/sodipodi-0.dtd"
   xmlns="http://www.w3.org/2000/svg"
   xmlns:svg="http://www.w3.org/2000/svg"
   xmlns:rdf="http://www.w3.org/1999/02/22-rdf-syntax-ns#"
   xmlns:cc="http://creativecommons.org/ns#"
   xmlns:dc="http://purl.org/dc/elements/1.1/"
   xmlns:sketch="http://www.bohemiancoding.com/sketch/ns">
  <sodipodi:namedview
     id="namedview5798"
     pagecolor="#ffffff"
     bordercolor="#666666"
     borderopacity="1.0"
     inkscape:pageshadow="2"
     inkscape:pageopacity="0.0"
     inkscape:pagecheckerboard="0"
     showgrid="false"
     inkscape:zoom="2.034723"
     inkscape:cx="56.027282"
     inkscape:cy="-26.293505"
     inkscape:window-width="1866"
     inkscape:window-height="1016"
     inkscape:window-x="54"
     inkscape:window-y="27"
     inkscape:window-maximized="1"
     inkscape:current-layer="svg5796" />
  <!-- Generator: Sketch 3.3.3 (12072) - http://www.bohemiancoding.com/sketch -->
  <title
     id="title5757">Imported Layers</title>
  <desc
     id="desc5759">Created with Sketch.</desc>
  <defs
     id="defs5761" />
  <g
     id="Page-1"
     stroke="none"
     stroke-width="1"
     fill="none"
     fill-rule="evenodd"
     sketch:type="MSPage"
     transform="matrix(1.1060827,0,0,1.1060827,34.104091,0.1162506)">
    <g
       id="About---Desktop"
       sketch:type="MSArtboardGroup"
       transform="translate(-768,-789)">
      <g
         id="Imported-Layers-+-Imported-Layers-+-Imported-Layers"
         sketch:type="MSLayerGroup"
         transform="translate(225,771)">
        <g
           id="Imported-Layers"
           transform="translate(543.59002,18.183673)"
           sketch:type="MSShapeGroup">
          <path
             d="m 0.1482504,62.717483 c 0.9109879,-0.941162 1.4051559,-2.108182 1.7822276,-3.328722 0.7203036,-2.33297 1.048227,-4.739262 1.2695283,-7.160006 0.7356121,-8.045506 0.42246,-16.112688 0.4855738,-24.17211 0.017726,-2.274364 -0.00295,-4.548995 0.00483,-6.823359 0.00457,-1.383779 -0.3040208,-2.61101 -1.6441829,-3.366188 0.069291,-0.057 0.1044736,-0.111323 0.1396562,-0.111055 3.0020705,0.0011 6.0041411,0.0021 9.0062116,0.01365 0.998273,0.004 1.583218,0.485166 1.911679,1.459244 2.828305,8.390179 5.691794,16.768852 8.540243,25.152342 0.724869,2.133069 1.432281,4.272026 2.151511,6.406968 0.07788,0.23121 0.164096,0.462955 0.277432,0.678376 0.284415,0.541095 0.750921,0.57508 1.100598,0.06235 0.194982,-0.285533 0.341352,-0.609601 0.475368,-0.930458 3.651741,-8.755994 7.297841,-17.513861 10.947701,-26.27039 0.658801,-1.5802 1.324585,-3.157724 1.995472,-4.733108 0.540362,-1.269244 1.424225,-1.928084 2.895449,-1.871085 2.086517,0.08108 4.178405,0.02756 6.267876,0.01445 0.397751,-0.0024 0.501419,0.06824 0.293547,0.453856 -0.737224,1.36799 -0.979474,2.868444 -1.106238,4.389771 -0.08863,1.062655 -0.10904,2.128788 -0.108771,3.195992 0.0021,5.808339 -0.0427,11.616945 -0.0016,17.425017 0.03491,4.91481 0.369821,9.813296 1.154312,14.672177 0.25729,1.593045 0.695058,3.137921 1.437385,4.582179 0.157381,0.306138 0.143416,0.41425 -0.244667,0.412912 -3.195709,-0.01097 -6.391687,-0.0083 -9.587396,-0.0029 -0.299993,5.35e-4 -0.406883,-0.05459 -0.302947,-0.389364 0.9032,-2.903768 1.079113,-5.902803 1.118055,-8.913613 0.115754,-8.921908 0.02363,-17.844084 0.04781,-26.76626 0.0011,-0.383476 -0.02713,-0.769361 -0.07547,-1.149893 -0.02793,-0.221041 -0.09427,-0.461081 -0.373312,-0.512194 -0.258633,-0.04737 -0.447974,0.09393 -0.579305,0.287139 -0.126227,0.185985 -0.222644,0.395251 -0.311003,0.603179 -5.250267,12.348039 -10.498116,24.696881 -15.746771,37.045722 -0.0607,0.143168 -0.125422,0.284731 -0.230701,0.522363 -0.282804,-0.723333 -0.535796,-1.368258 -0.78664,-2.013986 C 18.058617,50.523317 13.76607,39.46593 9.4721799,28.40908 9.1498964,27.578973 8.8206301,26.751542 8.4913638,25.924111 8.4526898,25.827239 8.4030044,25.732239 8.3431134,25.646874 8.1749889,25.407369 8.0350641,25.085709 7.6746438,25.145384 7.3134177,25.20506 7.2717894,25.550804 7.210287,25.83607 c -0.1638274,0.759727 -0.100445,1.534172 -0.1028621,2.301392 -0.016114,5.266174 0.011817,10.532615 -0.033303,15.798521 -0.02256,2.658376 -0.03572,5.317019 -0.030886,7.975394 0.00457,2.446433 0.00779,4.895275 0.3698203,7.324849 0.1683931,1.128485 0.4264885,2.229675 0.9676562,3.247639 0.089165,0.16752 0.2535296,0.378392 -0.1248849,0.375984 -2.7026155,-0.01713 -5.4054995,0.0562 -8.1075779,-0.03746 v -0.104901"
             id="Fill-1"
             fill="#37939b" />
          <path
             d="m 51.035737,0.15012569 c 0.557281,0.2290688 1.156192,0.0821543 1.731736,0.19561833 0.707681,0.13942154 1.40811,0.28446276 2.055632,0.60692526 1.55448,0.77444522 2.308624,2.07285852 2.451234,3.76357882 0.160067,1.8932964 -0.21593,3.610242 -1.628069,4.9983025 -0.980547,0.9639084 -2.226441,1.2836954 -3.527661,1.4480034 -1.885627,0.238435 -3.783339,0.095 -5.675412,0.137281 -0.289786,0.0064 -0.347797,-0.110253 -0.34726,-0.370899 0.007,-3.4079332 0.0078,-6.8161343 -0.0011,-10.22406778 -8.05e-4,-0.28312474 0.09803,-0.34627922 0.363644,-0.35136369 1.015998,-0.0195351 2.03146,-0.0612813 3.046653,-0.10222463 0.126496,-0.005084 0.286832,0.0706474 0.3717,-0.10115421 h 1.158878 z M 48.52488,5.736086 c 0,1.2593431 0.0013,2.5186863 -0.0013,3.7780294 -2.69e-4,0.2172943 -0.02766,0.4142506 0.306706,0.4035465 1.015999,-0.031845 2.034415,0.04469 3.047728,-0.1073091 1.46639,-0.2199703 2.424914,-1.085936 2.722221,-2.5312637 0.19525,-0.9494581 0.213513,-1.9112259 0.04136,-2.867374 C 54.355256,2.8205433 53.500399,1.9949858 51.910736,1.7212272 50.932874,1.5529044 49.949641,1.652453 48.969094,1.6222138 48.583965,1.6104392 48.51172,1.768593 48.51736,2.1154075 c 0.01961,1.2066252 0.0075,2.4137856 0.0075,3.6206785 z"
             id="Fill-2"
             fill="#465661" />
          <path
             d="m 131.63427,0.15012569 c 0.54063,0.22585755 1.12772,0.0476335 1.68017,0.19642114 0.405,0.10891472 0.82988,0.14718205 1.23005,0.26920935 2.35079,0.71717802 3.53679,2.56551702 3.36061,5.21506152 -0.1308,1.9666198 -0.875,3.5995378 -2.65615,4.6054603 -1.10947,0.62646 -2.36234,0.775248 -3.60958,0.819403 -1.52574,0.05406 -3.05417,0.02301 -4.58126,0.04576 -0.29918,0.0043 -0.38244,-0.08697 -0.38164,-0.382138 0.009,-3.3942861 0.009,-6.7885718 -2.7e-4,-10.18258993 -8e-4,-0.29302609 0.0733,-0.38160292 0.37708,-0.38534937 1.03453,-0.0131126 2.06879,-0.0599432 3.10278,-0.099281 0.11092,-0.004282 0.25299,0.0545912 0.31933,-0.10195702 z m -2.51086,5.61512911 c 0,1.2588079 0.005,2.5176159 -0.004,3.7764238 -0.002,0.2486039 0.0336,0.3864198 0.33679,0.3770537 0.78879,-0.024887 1.58107,0.019803 2.36717,-0.034788 1.95572,-0.1356751 3.00771,-0.9534721 3.36357,-2.5845169 0.20303,-0.9304581 0.21915,-1.8740289 0.0604,-2.8130504 -0.2828,-1.6709176 -1.15162,-2.5066441 -2.82293,-2.7753183 -0.96094,-0.1541397 -1.92564,-0.057802 -2.88793,-0.086971 -0.37465,-0.011239 -0.42246,0.1552102 -0.41897,0.4696446 0.0145,1.2237518 0.006,2.4475037 0.006,3.6715232 z"
             id="Fill-3"
             fill="#465661" />
          <path
             d="m 23.853543,0.15012569 c 0.483156,0.12818219 0.970879,0.24137857 1.448395,0.3874902 2.460903,0.75250171 3.79086,2.93989461 3.653889,5.54127041 -0.179404,3.4122152 -2.768683,5.1112317 -5.618744,5.3903417 -1.74785,0.171267 -3.429096,-0.04844 -4.90596,-1.129823 -2.60781,-1.9098875 -3.263657,-6.8988238 0.681093,-9.2331312 0.762737,-0.45117987 1.57892,-0.7474172 2.46144,-0.85686712 0.09857,-0.0123098 0.215661,0.016859 0.278238,-0.099281 z m 2.57585,5.93464791 C 26.427513,5.1995405 26.287857,4.3408001 25.847672,3.5607352 25.064523,2.1729423 23.867508,1.4493418 22.263611,1.536313 c -1.546424,0.084028 -2.572628,0.9347398 -3.085327,2.3712367 -0.444483,1.2462305 -0.422729,2.5109258 0.06607,3.7413677 0.828,2.0846331 3.082373,3.0525556 5.039708,2.1571537 1.58644,-0.7257413 2.100214,-2.0969428 2.145333,-3.7212975 z"
             id="Fill-4"
             fill="#465661" />
          <path
             d="m 67.998322,0.15012569 c 0.500345,0.1362103 1.00821,0.24887147 1.499155,0.41264495 2.153928,0.71931886 3.486838,2.62198136 3.568752,4.87841596 0.136702,3.7651845 -2.583102,5.7649874 -5.718383,6.0384784 -1.526549,0.132999 -3.005293,-0.04603 -4.369627,-0.838135 -2.952653,-1.7142696 -3.813687,-6.8241628 -0.07896,-9.3308069 0.813497,-0.54591164 1.70112,-0.89192326 2.66609,-1.05141508 0.112262,-0.0184647 0.253798,0.0331829 0.325775,-0.10918233 h 2.107197 z M 70.533618,6.2180403 C 70.527978,4.9177537 70.282237,3.87624 69.579659,2.9888661 68.708957,1.8895499 67.550348,1.3936802 66.157546,1.5499608 64.75615,1.7075794 63.807831,2.5071794 63.320914,3.8101419 c -0.483156,1.292526 -0.471071,2.6083336 0.05076,3.8874794 0.877685,2.1512664 3.292931,3.0651327 5.254563,1.992845 1.444636,-0.7896986 1.87569,-2.1269145 1.907381,-3.472426 z"
             id="Fill-5"
             fill="#465661" />
          <path
             d="m 9.9464737,0.15012569 c 0.5097453,0.10811191 1.0170733,0.2293364 1.5300413,0.32032167 0.440185,0.0778727 0.698818,0.27830788 0.659069,0.76079744 -0.01289,0.1557453 -5.37e-4,0.3149696 0.01262,0.4715177 0.02122,0.2512799 0.02175,0.4723206 -0.231238,0.643587 -0.269373,0.1822382 -0.45388,0.034788 -0.667124,-0.085098 C 10.162672,1.6503122 8.9922461,1.376286 7.7568261,1.5526368 5.1777526,1.9208596 4.2874445,3.8765076 4.397558,6.0887877 4.419044,6.5217705 4.494512,6.9601054 4.607848,7.3791729 5.0563591,9.0367104 6.2745907,9.9968726 8.0482241,10.114618 8.6635169,10.155298 9.273707,10.111118 9.8812113,9.9925909 10.166969,9.9369289 10.278426,9.826409 10.271443,9.511707 c -0.02417,-1.0666685 0.01155,-2.1349426 -0.01987,-3.2013434 -0.01182,-0.4078281 0.118976,-0.5071091 0.50303,-0.4832924 0.524785,0.032648 1.053599,0.022211 1.579727,0.00268 0.279581,-0.010437 0.358809,0.085633 0.356929,0.3580537 -0.01128,1.4694121 -0.0067,2.9390918 -0.0038,4.4087721 2.68e-4,0.188125 -0.01423,0.321124 -0.252993,0.374645 C 10.331871,11.44113 8.2187657,11.744057 6.0755806,11.284047 3.9020472,10.817346 2.4662743,9.5344533 1.994129,7.3395675 1.5150009,5.1128369 2.0792656,3.1788647 3.8644474,1.6802838 4.6978188,0.98023246 5.6802462,0.57320719 6.7416331,0.33851872 6.9333918,0.29623733 7.164093,0.33530747 7.3123434,0.15012569 h 2.6341303"
             id="Fill-6"
             fill="#465661" />
          <path
             d="m 118.4475,63.987263 c -2.67629,0.08938 -5.43101,-0.339321 -8.10516,-1.266301 -2.24578,-0.778459 -4.27213,-1.930225 -6.07397,-3.492228 -2.81192,-2.43787 -4.58448,-5.517454 -5.700655,-9.008612 -0.529619,-1.657003 -0.8468,-3.358695 -1.079113,-5.08688 -0.270986,-2.014788 -0.263467,-4.035732 -0.169467,-6.043295 0.110651,-2.360532 0.533648,-4.694304 1.259323,-6.961978 0.781806,-2.444293 1.836752,-4.750769 3.340202,-6.844501 1.83836,-2.560165 4.10804,-4.621784 6.91002,-6.10859 2.40692,-1.277273 4.9586,-2.016127 7.65719,-2.347153 1.63774,-0.20097 3.27521,-0.273491 4.91402,-0.181167 3.32516,0.187322 6.54047,0.845627 9.51783,2.415391 3.08318,1.625425 5.46513,3.973112 7.20868,6.971077 1.42503,2.450715 2.28177,5.108288 2.7386,7.88762 0.2017,1.228836 0.35237,2.46918 0.38325,3.727185 0.0218,0.886036 0.094,1.77448 0.0594,2.661854 -0.20922,5.337089 -1.42342,10.372856 -4.51412,14.841303 -1.80506,2.609404 -4.11207,4.661657 -6.89472,6.188871 -2.29439,1.259076 -4.75771,2.004888 -7.3341,2.416997 -1.31357,0.210069 -2.63493,0.25021 -4.11717,0.230407 z m 15.44329,-22.994118 c 0.0223,-1.795889 -0.13858,-3.832621 -0.46892,-5.854902 -0.52747,-3.230512 -1.41993,-6.341941 -3.15543,-9.156329 -2.33494,-3.786058 -5.66332,-5.989507 -10.1855,-6.209745 -3.17959,-0.154942 -6.13627,0.531194 -8.71723,2.479349 -2.59008,1.954577 -4.17813,4.604657 -5.21723,7.611988 -1.13659,3.28992 -1.49459,6.692234 -1.42798,10.157435 0.0583,3.033556 0.41037,6.025365 1.22575,8.949204 0.98001,3.514439 2.49743,6.730233 5.36333,9.155258 0.93623,0.792107 1.98446,1.396892 3.11621,1.860649 1.85206,0.759192 3.79301,0.960162 5.77183,0.851783 3.06492,-0.168055 5.77452,-1.215724 8.04688,-3.306512 1.65412,-1.521862 2.82911,-3.374215 3.69203,-5.426201 1.46021,-3.471891 1.98607,-7.116386 1.95626,-11.111977 z"
             id="Fill-7"
             fill="#37939b" />
          <path
             d="m 50.670214,41.852153 c -0.01209,-5.262695 0.828537,-9.744522 3.016841,-13.903352 3.268492,-6.21135 8.407302,-9.896521 15.356002,-11.004133 4.291205,-0.683727 8.544272,-0.446095 12.664935,1.001373 5.653121,1.985888 9.340849,5.950437 11.360224,11.509369 1.444098,3.975254 1.799416,8.095013 1.520641,12.28649 -0.261587,3.934043 -1.182781,7.695213 -3.075659,11.177808 -3.292931,6.058281 -8.37185,9.660227 -15.196203,10.744825 C 71.900369,64.366458 67.526982,64.11491 63.305874,62.551837 57.623479,60.447669 54.02787,56.332994 52.101421,50.691372 51.057759,47.635337 50.644162,44.476275 50.670214,41.852153 Z m 7.405537,-2.487644 c -0.02095,1.40144 0.0709,2.795388 0.221301,4.186928 0.355586,3.285638 1.075621,6.475742 2.525359,9.469158 1.09845,2.268744 2.561348,4.251688 4.659951,5.713339 2.466006,1.717481 5.233883,2.276773 8.188954,2.098014 2.970917,-0.17983 5.605316,-1.186555 7.819672,-3.198935 2.439149,-2.217097 3.845379,-5.039514 4.723601,-8.15014 0.988873,-3.50213 1.215815,-7.079456 0.973834,-10.698262 -0.216736,-3.240413 -0.759247,-6.414729 -1.924033,-9.460327 -1.039364,-2.717783 -2.469766,-5.202484 -4.824852,-6.995429 -3.946361,-3.003852 -8.333714,-3.280822 -12.859111,-1.646566 -3.511278,1.268175 -5.754908,3.946888 -7.283606,7.255005 -1.675606,3.625496 -2.225099,7.474975 -2.22107,11.427215 z"
             id="Fill-8"
             fill="#37939b" />
          <path
             d="m 178.47414,62.86413 h -1.30041 c -1.40435,0 -2.80978,-0.03559 -4.21305,0.0083 -2.14104,0.06744 -3.83625,-0.775783 -5.07248,-2.46918 -1.89851,-2.600305 -3.7401,-5.242089 -5.59779,-7.871831 -1.9893,-2.815459 -3.99497,-5.620214 -5.94452,-8.462968 -1.29236,-1.884733 -2.9916,-3.003317 -5.30264,-3.149428 -0.26722,-0.01686 -0.45549,-0.06931 -0.45281,0.32942 0.0352,5.089555 -0.0655,10.179914 0.0626,15.268398 0.0524,2.083295 0.28737,4.153746 1.33399,6.029648 0.16678,0.298645 0.0123,0.31818 -0.22131,0.31818 -3.01952,-0.0011 -6.03905,-0.0019 -9.05858,0.0013 -0.27233,2.68e-4 -0.41172,-0.03586 -0.22882,-0.346011 1.35171,-2.291223 1.70918,-4.812853 1.70918,-7.414497 5.3e-4,-9.83069 0.002,-19.661113 -0.002,-29.491804 -8.1e-4,-1.819438 -0.0854,-3.632453 -0.53311,-5.410412 -0.18021,-0.715573 -0.42058,-1.408666 -0.7896,-2.045831 -0.20787,-0.359124 -0.11844,-0.412645 0.25622,-0.419602 2.08598,-0.03827 4.17035,-0.119352 6.25445,-0.236294 3.53598,-0.198295 7.06821,-0.495603 10.61467,-0.466166 1.82063,0.01499 3.59695,0.266533 5.29646,0.952937 3.42104,1.382173 5.47775,4.432053 5.55026,8.113477 0.0792,4.027436 -1.66513,7.169372 -4.63578,9.73703 -1.61625,1.397159 -3.44038,2.467841 -5.41007,3.291793 -0.30751,0.128717 -0.45468,0.196421 -0.18826,0.560362 4.22863,5.775959 8.44033,11.564228 12.65661,17.349285 1.39817,1.918184 3.03725,3.619073 4.76603,5.238611 0.16383,0.153872 0.329,0.306139 0.49363,0.459208 -0.0142,0.04201 -0.0287,0.08403 -0.043,0.126041 z M 150.6404,29.643 h -0.0416 c 0,2.658643 2.7e-4,5.317019 -8.1e-4,7.975394 0,0.261449 -0.0524,0.499081 0.36096,0.540292 1.94445,0.194816 3.88405,0.26359 5.81453,-0.113731 3.2317,-0.631813 5.65635,-2.297111 6.86518,-5.446807 0.81349,-2.118618 0.91206,-4.32287 0.66444,-6.558164 -0.34162,-3.080387 -1.98419,-4.939965 -5.00641,-5.6352 -2.72974,-0.627798 -5.50755,-0.507376 -8.27677,-0.521024 -0.23608,-0.0011 -0.2965,0.109717 -0.30349,0.320589 -0.0161,0.488645 -0.0709,0.976754 -0.0722,1.465131 -0.008,2.65784 -0.004,5.31568 -0.004,7.97352 z"
             id="Fill-9"
             fill="#37939b" />
          <path
             d="m 207.86398,56.057897 c -0.16947,0.859276 -0.32041,1.622749 -0.47054,2.386222 -0.23956,1.216795 -0.49336,2.43118 -0.70741,3.652256 -0.0559,0.318984 -0.16383,0.431377 -0.48745,0.456532 -1.90631,0.148253 -3.81262,0.305604 -5.72537,0.308012 -6.84745,0.0086 -13.6949,0.0035 -20.54262,0.0032 -0.65047,0 -0.65396,-0.0029 -0.34752,-0.591939 0.91689,-1.761635 1.1911,-3.677411 1.34741,-5.618073 0.10796,-1.342835 0.10367,-2.689685 0.10286,-4.036267 -0.004,-9.079794 0.008,-18.159322 -0.0107,-27.239116 -0.004,-1.921662 -0.11012,-3.843057 -0.69049,-5.702368 -0.17243,-0.552869 -0.3854,-1.087542 -0.67223,-1.589834 -0.13644,-0.238702 -0.1128,-0.355377 0.18746,-0.341997 0.10501,0.0045 0.21056,0 0.31584,0 7.81322,0 15.62645,0.0043 23.43967,-0.01017 0.47027,-8.03e-4 0.68244,0.07546 0.69855,0.602911 0.0478,1.587158 0.1504,3.172442 0.23151,4.757191 -0.1888,0.05379 -0.26427,-0.095 -0.36902,-0.172604 -1.74543,-1.292526 -3.76561,-1.827466 -5.87603,-2.087309 -3.48039,-0.428701 -6.97878,-0.149858 -10.46803,-0.236294 -0.39185,-0.0096 -0.36365,0.203914 -0.36338,0.460546 0.003,2.204252 0.002,4.408771 0.002,6.613023 0,3.114105 0.006,6.227942 -0.008,9.342047 -0.002,0.362335 0.0959,0.476869 0.46812,0.474193 3.94797,-0.0297 7.89648,-0.03265 11.84096,-0.220505 1.24321,-0.05941 2.48373,-0.169126 3.72587,-0.252083 0.16947,-0.01124 0.34081,-0.0016 0.60321,-0.0016 -0.488,0.802543 -1.1194,1.359962 -1.84454,1.817297 -1.57248,0.991204 -3.33537,1.43275 -5.14284,1.736213 -2.99186,0.502292 -6.01327,0.442616 -9.02985,0.451982 -0.44877,0.0013 -0.62845,0.06985 -0.62684,0.586052 0.0209,5.948028 0.0175,11.896324 0.005,17.844352 -0.001,0.414251 0.0709,0.569461 0.53338,0.565179 2.96689,-0.02729 5.937,0.05807 8.90066,-0.04683 3.92273,-0.138887 7.57689,-1.164344 10.66973,-3.724241 0.0634,-0.05218 0.14208,-0.0859 0.31101,-0.185985"
             id="Fill-10"
             fill="#37939b" />
          <path
             d="m 91.282228,74.349147 c 0,-1.854494 -0.0016,-3.70872 0.0019,-5.563214 5.37e-4,-0.207393 -0.09212,-0.460278 0.297844,-0.463222 2.208179,-0.01739 4.415821,-0.271885 6.624537,-0.03827 1.435235,0.151731 2.788291,0.522095 3.884591,1.540327 0.89246,0.829304 1.33345,1.877775 1.46693,3.053358 0.24574,2.161168 -0.14047,4.148126 -1.75752,5.749467 -1.10946,1.099048 -2.535837,1.441581 -4.017535,1.615791 -2.046501,0.240041 -4.103743,0.08215 -6.155346,0.134605 -0.345649,0.0091 -0.349946,-0.157887 -0.348872,-0.413181 0.0064,-1.871888 0.0035,-3.743776 0.0035,-5.615664 z m 2.651856,-0.05165 c 0,1.381638 0.0021,2.763276 -0.0021,4.144646 -8.06e-4,0.244322 -0.01182,0.437265 0.342157,0.430842 1.069444,-0.0198 2.1405,0.02703 3.206184,-0.104098 1.735496,-0.213547 2.816495,-1.164611 3.158645,-2.823219 0.2205,-1.069344 0.23071,-2.151802 0.033,-3.227836 -0.3051,-1.659411 -1.246705,-2.56632 -2.918013,-2.865768 -1.098987,-0.196957 -2.204956,-0.07814 -3.307166,-0.115873 -0.404197,-0.01365 -0.532842,0.101154 -0.52371,0.52156 0.02954,1.346047 0.01101,2.693164 0.01101,4.039746 z"
             id="Fill-11"
             fill="#465661" />
          <path
             d="m 33.464304,74.296965 c -0.01155,3.175653 -2.030654,5.530298 -5.312843,6.144181 -1.866827,0.349223 -3.714854,0.293561 -5.437459,-0.602643 -3.87143,-2.013986 -4.272673,-7.51913 -0.761395,-10.210421 2.30379,-1.765382 6.149706,-2.047971 8.660026,-0.590869 2.010512,1.16702 2.839854,3.001979 2.851671,5.259752 z M 22.369159,74.16905 c -0.01289,0.961233 0.167319,1.883395 0.648058,2.718854 0.893531,1.552637 2.257864,2.347152 4.050029,2.179632 1.664326,-0.15521 2.830186,-1.07871 3.3402,-2.691291 0.494436,-1.563341 0.389963,-3.109555 -0.39238,-4.567728 -1.252609,-2.334307 -4.40481,-2.943106 -6.275665,-1.200738 -1.022445,0.951867 -1.3501,2.207731 -1.370242,3.561271 z"
             id="Fill-12"
             fill="#465661" />
          <path
             d="m 177.3056,68.116121 c 1.20748,0.0032 2.37388,0.217829 3.46186,0.751431 2.24819,1.10226 3.26956,3.299287 3.16724,5.702101 -0.16329,3.845465 -3.1044,5.643762 -6.0455,5.987901 -1.30337,0.152534 -2.59895,0.08938 -3.84484,-0.348153 -2.24122,-0.786755 -3.5462,-2.40094 -3.92085,-4.707685 -0.37976,-2.336983 0.33383,-4.310025 2.22295,-5.815296 1.45269,-1.157386 3.13259,-1.588496 4.95914,-1.570299 z m 3.85075,6.542644 c -0.002,-0.996021 -0.15389,-1.837367 -0.5452,-2.61208 -0.74206,-1.469145 -1.92296,-2.332434 -3.60098,-2.41218 -1.60336,-0.076 -2.85785,0.569728 -3.57063,2.012112 -0.92361,1.868677 -0.85593,3.757692 0.23876,5.54582 0.84921,1.387525 2.56725,2.146182 4.06184,1.866268 1.74275,-0.326476 2.83368,-1.356216 3.25506,-3.076105 0.11656,-0.475799 0.18397,-0.959894 0.16115,-1.323835 z"
             id="Fill-13"
             fill="#465661" />
          <path
             d="m 203.90043,76.645455 c 0,-1.899184 0.005,-3.748058 -0.002,-5.596932 -0.003,-0.78622 -0.0239,-1.572707 -0.0508,-2.358659 -0.009,-0.269745 0.0849,-0.355111 0.36042,-0.368758 1.58214,-0.07921 1.58483,-0.08644 1.58107,1.455496 -0.008,3.34023 -0.0242,6.68046 -0.0228,10.020957 2.7e-4,0.334772 -0.11145,0.443152 -0.42729,0.575616 -0.86157,0.361532 -1.39039,0.09232 -1.99118,-0.588461 -2.23477,-2.533137 -4.545,-4.999908 -6.82731,-7.491566 -0.11306,-0.123366 -0.22935,-0.244055 -0.37223,-0.395519 0,1.382976 -0.009,2.704404 0.003,4.025296 0.0121,1.380567 0.0384,2.761135 0.0728,4.141435 0.007,0.274026 -0.11254,0.324336 -0.34485,0.308815 -0.5041,-0.03345 -1.14679,0.203914 -1.47552,-0.08938 -0.31208,-0.278575 -0.08,-0.923233 -0.0798,-1.406257 0.002,-3.340766 0.0158,-6.681263 0.007,-10.022028 -0.001,-0.394983 0.0902,-0.503898 0.51082,-0.547249 1.02835,-0.105971 1.73227,0.235491 2.42491,1.035894 2.03791,2.35518 4.18136,4.619643 6.28373,6.919429 0.11629,0.12738 0.23338,0.254224 0.35075,0.381871"
             id="Fill-14"
             fill="#465661" />
          <path
             d="m 69.462026,71.949277 c 0,1.359427 -0.0091,2.71484 0.0027,4.069985 0.01101,1.275667 0.03223,2.551602 0.07439,3.826466 0.01289,0.390701 -0.06634,0.591404 -0.509476,0.530658 -0.46194,-0.06342 -1.083679,0.202308 -1.352248,-0.115605 -0.228553,-0.270547 -0.0846,-0.865698 -0.08191,-1.316878 0.01987,-3.356553 0.05345,-6.713107 0.05908,-10.069661 8.06e-4,-0.424954 0.106086,-0.518883 0.5409,-0.568122 1.026472,-0.11614 1.697359,0.267871 2.3712,1.042049 2.079803,2.388631 4.253605,4.69591 6.388196,7.036907 0.07896,0.08644 0.132405,0.196154 0.279849,0.223717 0,-1.317948 0.0091,-2.636164 -0.0027,-3.954113 -0.01182,-1.327849 -0.0376,-2.655432 -0.07305,-3.983014 -0.0078,-0.287941 0.103936,-0.359391 0.367403,-0.347884 0.385397,0.01659 0.77348,0.02623 1.157535,-0.0024 0.346992,-0.02569 0.401511,0.125506 0.400437,0.429236 -0.0145,3.707383 -0.02229,7.415032 -0.01423,11.122682 5.37e-4,0.319251 -0.125154,0.41211 -0.39802,0.480616 -1.207489,0.303195 -1.197283,0.30159 -2.021255,-0.603179 -2.297881,-2.523503 -4.603551,-5.040048 -6.908683,-7.556861 -0.08836,-0.09634 -0.152279,-0.23683 -0.280118,-0.24459"
             id="Fill-15"
             fill="#465661" />
          <path
             d="m 155.90812,4.9875983 c 1.14626,0.2884768 1.91329,0.9010218 2.26431,1.9468172 0.51351,1.5293553 -0.23258,3.1826115 -1.71804,3.8422545 -0.82988,0.368223 -1.7081,0.512729 -2.61023,0.516743 -1.31652,0.0062 -2.63332,-0.0094 -3.94931,0.0094 -0.34189,0.0051 -0.44744,-0.08617 -0.44636,-0.436194 0.0129,-3.3578919 0.007,-6.7160511 0.0102,-10.07421035 2.7e-4,-0.18759022 -0.0929,-0.43994054 0.2683,-0.43512367 1.78707,0.0235491 3.5744,-0.22104068 5.36146,0.002944 0.40205,0.0503095 0.79147,0.14905528 1.16129,0.3152372 1.61894,0.72761462 1.85367,2.72554402 0.44314,3.80104342 -0.2213,0.1685903 -0.46704,0.3056035 -0.78476,0.5111231 z m -4.06104,3.0183025 c 0,0.5418976 0.004,1.0837951 -0.002,1.6254251 -0.002,0.1982943 0.0244,0.3347722 0.27743,0.3307582 0.70124,-0.011239 1.40597,0.039605 2.10129,-0.066633 0.9596,-0.1466468 1.51903,-0.7744452 1.55341,-1.6944668 0.0427,-1.145344 -0.38594,-1.7744803 -1.40945,-2.0182673 -0.73964,-0.1760833 -1.49755,-0.1335343 -2.25115,-0.1394216 -0.26213,-0.00214 -0.27233,0.1455765 -0.27099,0.3369131 0.004,0.5418976 0.001,1.0837951 0.002,1.6256927 z m -2.7e-4,-4.8495148 c 0,0.4356589 0.008,0.8713177 -0.003,1.306709 -0.005,0.2132802 0.0489,0.3176456 0.28925,0.3093499 0.60992,-0.021408 1.22333,0.036929 1.82735,-0.1067739 0.79604,-0.1894634 1.15673,-0.736713 1.10999,-1.6995513 -0.0389,-0.7995999 -0.452,-1.237132 -1.25126,-1.351934 -0.55943,-0.080281 -1.11725,0.015521 -1.67507,-0.013113 -0.2299,-0.012042 -0.30751,0.075999 -0.30053,0.3013218 0.0129,0.4177294 0.004,0.8359941 0.003,1.2539911 z"
             id="Fill-16"
             fill="#465661" />
          <path
             d="m 32.896817,5.8353669 c 0,-1.6792134 -0.003,-3.3586944 0.004,-5.03790778 8.05e-4,-0.1790269 -0.115485,-0.44234897 0.257021,-0.44020814 1.910066,0.0117746 3.820133,-0.21408298 5.7302,0.007761 1.957335,0.22746317 3.130984,1.72952292 2.766266,3.57919992 -0.212707,1.0787106 -0.943753,1.7461143 -1.937998,2.0972104 -0.52371,0.1851818 -0.517533,0.3794621 -0.278506,0.8030788 0.534185,0.9451764 1.056284,1.8940992 1.79673,2.7011921 0.376803,0.4107717 0.819137,0.6973748 1.384476,0.7942478 0.17081,0.02917 0.523174,-0.132732 0.48262,0.200702 -0.03679,0.305069 0.04028,0.750629 -0.44314,0.848839 -1.306591,0.264928 -2.511663,0.111324 -3.52041,-0.854191 C 38.24726,9.6827058 37.706361,8.6013191 37.154182,7.5284957 36.727425,6.699727 36.453484,6.5640519 35.533633,6.7157832 c -0.280655,0.046028 -0.208679,0.2365617 -0.209216,0.3923071 -0.0054,1.2419489 -0.01665,2.4841654 0.0051,3.7255787 0.0064,0.365012 -0.09373,0.492659 -0.467042,0.46911 -0.489603,-0.03051 -0.984308,-0.03211 -1.473642,5.35e-4 -0.383517,0.02542 -0.50867,-0.07653 -0.502762,-0.483025 0.02525,-1.6612837 0.01074,-3.3233705 0.01074,-4.9849221 z m 2.424646,-2.3570536 c 0,0.5405595 -0.0024,1.0811191 0.0016,1.621411 0.0011,0.1477172 -0.04324,0.3438708 0.202502,0.3401243 0.836326,-0.012845 1.68608,0.1081119 2.498771,-0.17421 0.81108,-0.2817867 1.219037,-1.0348236 1.131752,-2.0193377 -0.07896,-0.8900501 -0.52559,-1.3513989 -1.439264,-1.5304258 -0.695058,-0.1362103 -1.39495,-0.07038 -2.092426,-0.100619 -0.280118,-0.01231 -0.311272,0.1214921 -0.306437,0.3462792 0.01074,0.5055035 0.0035,1.0112745 0.0035,1.516778 z"
             id="Fill-17"
             fill="#465661" />
          <path
             d="m 44.761146,72.684384 c 0,-1.294131 0.01101,-2.587995 -0.007,-3.881859 -0.0048,-0.352167 0.07627,-0.50256 0.462208,-0.482758 0.59515,0.03078 1.193523,0.02489 1.789211,0.0019 0.348334,-0.01365 0.441528,0.106774 0.43938,0.449039 -0.0145,2.343138 0.07198,4.689755 -0.02954,7.028344 -0.106622,2.462222 1.243746,3.002246 3.180401,2.972007 0.546002,-0.0086 1.076426,-0.134872 1.57892,-0.358589 0.98189,-0.437264 1.483041,-1.201005 1.494321,-2.263392 0.02525,-2.394518 0.05371,-4.789304 0.03196,-7.183822 -0.0051,-0.55394 0.162753,-0.719051 0.67599,-0.640911 0.154427,0.02328 0.315569,5.35e-4 0.473219,0.004 0.919582,0.0198 0.819406,-0.151196 0.799263,0.804684 -0.04727,2.217632 -0.111188,4.434997 -0.193101,6.651826 -0.05264,1.41723 -0.348604,2.744544 -1.587246,3.662693 -0.792549,0.58739 -1.685274,0.918951 -2.655348,1.053823 -1.153237,0.160295 -2.311578,0.177689 -3.448164,-0.08376 -2.045695,-0.470447 -2.980317,-1.735678 -3.00234,-4.008972 -0.01182,-1.241146 -0.0021,-2.482827 -0.0021,-3.724241"
             id="Fill-18"
             fill="#465661" />
          <path
             d="m 120.22597,7.8156346 c 0,-1.8649305 0.004,-3.698016 -0.003,-5.5311016 -0.002,-0.5405595 -0.0285,-1.0816542 -0.0577,-1.62167856 -0.0121,-0.22692796 0.0663,-0.32915259 0.29677,-0.30346263 0.0346,0.004014 0.0701,0.00107 0.10528,2.676e-4 1.374,-0.0366617 1.37588,-0.0366617 1.37373,1.31768079 -0.004,2.9896689 -0.018,5.9790701 -0.008,8.9684718 0.002,0.39525 -0.10474,0.537616 -0.50222,0.674629 -0.69372,0.239505 -1.11295,0.09473 -1.60605,-0.461617 -2.06583,-2.3302931 -4.19344,-4.6059952 -6.29688,-6.9031057 -0.0808,-0.088042 -0.1453,-0.191069 -0.21942,-0.2900824 -0.2444,0.1908015 -0.15631,0.3981943 -0.15416,0.5702635 0.0277,2.2187026 0.0559,4.4374051 0.11119,6.6555726 0.008,0.332899 -0.072,0.40649 -0.39131,0.411307 -1.36433,0.02087 -1.3689,0.03104 -1.36326,-1.3390893 0.0126,-3.0413164 0.0384,-6.0823652 0.0365,-9.12368159 -2.7e-4,-0.39525071 0.11441,-0.46001081 0.49551,-0.49854575 0.91287,-0.0928585 1.53729,0.21274497 2.15017,0.91814844 1.8354,2.112999 3.75836,4.1499986 5.64963,6.2142938 0.11226,0.1228301 0.19713,0.2825895 0.38244,0.34173"
             id="Fill-19"
             fill="#465661" />
          <path
             d="m 85.68873,7.8295499 c 0,-1.1437383 0.01047,-2.256167 -0.0027,-3.3683281 C 85.6718,3.238808 85.64548,2.0161265 85.60331,0.79451547 c -0.01182,-0.33664549 0.0795,-0.44341938 0.432665,-0.44395458 1.331837,-0.002944 1.331837,-0.016859 1.331837,1.32517371 0,3.0067955 -0.0075,6.0138586 0.0097,9.0209214 0.0019,0.366885 -0.121662,0.480884 -0.456031,0.604785 -0.714395,0.26466 -1.171769,0.122562 -1.698971,-0.476335 C 83.164713,8.4878551 81.033077,6.2153642 78.925074,3.9222679 78.83564,3.8248601 78.776555,3.683833 78.593391,3.6469036 c 0,0.6770375 -0.0097,1.3449764 0.0019,2.0126477 0.02927,1.7115934 0.05425,3.4234545 0.112262,5.1342447 0.01477,0.432716 -0.138045,0.516476 -0.534454,0.510321 -1.219305,-0.01846 -1.221185,-0.0029 -1.219305,-1.221879 0.0046,-3.0418515 0.02014,-6.0834355 0.0067,-9.12528706 -0.0021,-0.47258819 0.132942,-0.57641844 0.610727,-0.62164347 0.876074,-0.0829571 1.440876,0.24405461 2.008363,0.88764153 1.896639,2.1526045 3.858002,4.2490121 5.793583,6.3676308 0.0803,0.087774 0.140193,0.1977592 0.315569,0.2389701"
             id="Fill-20"
             fill="#465661" />
          <path
             d="m 124.8083,80.371034 c -0.9416,0 -1.80049,-0.01338 -2.65857,0.0075 -0.29596,0.007 -0.33759,-0.181703 -0.40956,-0.374378 -0.34753,-0.931528 -0.70957,-1.85824 -1.03239,-2.798332 -0.10662,-0.31042 -0.23795,-0.435659 -0.58226,-0.429772 -1.26254,0.02194 -2.52616,0.02275 -3.78897,-5.35e-4 -0.34216,-0.0064 -0.48987,0.11507 -0.60563,0.41773 -0.36123,0.945176 -0.76247,1.875099 -1.12316,2.820543 -0.1042,0.273223 -0.23849,0.375716 -0.53445,0.364744 -0.62926,-0.02355 -1.25986,-0.0072 -1.9713,-0.0072 0.48504,-1.01074 0.94268,-1.965282 1.40059,-2.919557 1.39656,-2.910458 2.79957,-5.817973 4.18055,-8.735924 0.1453,-0.307209 0.31423,-0.39418 0.63437,-0.394715 1.52144,-0.0024 1.52493,-0.01231 2.10585,1.390736 1.40784,3.401244 2.81219,6.803557 4.21708,10.205871 0.0521,0.126309 0.0953,0.256365 0.16785,0.453321 z m -6.48971,-9.506087 c -0.62308,1.540594 -1.20158,2.970669 -1.80613,4.465771 1.10812,0 2.13701,-0.0016 3.1659,0.0013 0.19578,5.35e-4 0.29677,-0.03104 0.2076,-0.266801 -0.51619,-1.365582 -1.02191,-2.73491 -1.56737,-4.200308 z"
             id="Fill-21"
             fill="#465661" />
          <path
             d="m 1.048227,74.330147 c 0,-1.836029 0.011817,-3.672058 -0.0094,-5.507552 -0.00457,-0.401406 0.1224677,-0.494799 0.5067907,-0.492658 2.6671643,0.01552 5.3345972,0.01659 8.0017615,-8.03e-4 0.3988258,-0.0027 0.5032998,0.111858 0.4976598,0.502292 -0.01611,1.129555 0.0016,1.129823 -1.1073127,1.129823 -1.5969146,0 -3.1938292,0.0091 -4.7904752,-0.0075 -0.3367863,-0.0035 -0.4520026,0.07921 -0.441797,0.430842 0.025514,0.873458 0.026857,1.748523 -2.685e-4,2.621981 -0.01128,0.360195 0.1187077,0.428701 0.4471683,0.425223 1.4739097,-0.01579 2.9480881,0.0013 4.4219978,-0.01338 0.3236263,-0.0032 0.4522712,0.05807 0.4514655,0.421744 -0.00188,1.207695 0.014771,1.207695 -1.1935232,1.207695 -1.2281686,0 -2.4568743,0.01124 -3.6847744,-0.0072 -0.3448433,-0.0051 -0.446094,0.0958 -0.4415283,0.442349 0.0188,1.486004 -0.00269,2.972542 0.015577,4.458546 0.0043,0.348152 -0.1001764,0.453053 -0.4452883,0.436997 -0.5776931,-0.02676 -1.1588777,-0.03104 -1.7363022,0.0011 -0.3888888,0.02168 -0.5062537,-0.08965 -0.501688,-0.489447 0.022291,-1.853156 0.00994,-3.706847 0.00994,-5.560003"
             id="Fill-22"
             fill="#465661" />
          <path
             d="m 138.93399,68.327796 c 1.84346,0 3.68665,0.0086 5.52985,-0.0067 0.3819,-0.0032 0.55862,0.05325 0.54707,0.504968 -0.0285,1.134372 -0.003,1.135175 -1.15807,1.135175 -1.01815,0 -2.0371,0.02248 -3.05444,-0.0107 -0.43052,-0.01418 -0.55567,0.08991 -0.55245,0.536813 0.0215,3.113569 0.003,6.227139 0.0215,9.340708 0.003,0.430307 -0.0999,0.583376 -0.5452,0.552602 -0.55916,-0.03853 -1.1245,-0.03532 -1.68393,-5.35e-4 -0.39802,0.02462 -0.499,-0.10062 -0.49685,-0.494265 0.0169,-3.043724 0.009,-6.087449 0.009,-9.130907 0,-0.793712 0,-0.793712 -0.799,-0.793712 -1.17633,-2.68e-4 -2.35267,-0.0091 -3.52874,0.0062 -0.2965,0.0037 -0.38324,-0.08296 -0.3905,-0.381068 -0.0303,-1.258808 -0.0408,-1.25854 1.20347,-1.25854 h 4.8979"
             id="Fill-23"
             fill="#465661" />
          <path
             d="m 96.654425,11.295286 c 0.59891,-1.253991 1.166935,-2.4475039 1.73872,-3.6394109 1.102746,-2.2984484 2.214085,-4.5926152 3.302865,-6.89775373 0.1402,-0.29650493 0.2914,-0.40836329 0.62362,-0.40675767 1.38314,0.00669 1.3826,-0.004817 1.89342,1.2333856 1.26469,3.0659359 2.52455,6.1334775 3.8016,9.1940617 0.16275,0.389898 0.17242,0.55608 -0.32954,0.525038 -0.59434,-0.03666 -1.19352,-0.02301 -1.78947,-0.0021 -0.27475,0.0096 -0.40152,-0.08697 -0.49095,-0.340927 -0.30187,-0.855529 -0.63678,-1.6998187 -0.93758,-2.5556154 -0.0943,-0.268139 -0.21673,-0.3781241 -0.52048,-0.3725044 -1.15808,0.020873 -2.31695,0.016859 -3.47503,0.00214 -0.27286,-0.00348 -0.405,0.087239 -0.501415,0.3387863 -0.323895,0.847501 -0.681092,1.6824245 -1.003376,2.5304605 -0.10689,0.280716 -0.23849,0.417194 -0.564802,0.399533 -0.556207,-0.02997 -1.115101,-0.0083 -1.747582,-0.0083 z m 5.650165,-8.6350373 c -0.56775,1.4019759 -1.10033,2.7167131 -1.64794,4.0681119 h 3.15945 c -0.49927,-1.3439059 -0.98914,-2.6621219 -1.51151,-4.0681119 z"
             id="Fill-24"
             fill="#465661" />
          <path
             d="m 162.35057,5.8099446 c 0,-1.6620868 0.01,-3.323906 -0.008,-4.98572511 -0.004,-0.35564536 0.0787,-0.47606704 0.45818,-0.473391 2.35267,0.0176619 4.70534,0.016859 7.05801,5.3521e-4 0.36418,-0.002676 0.47671,0.0845628 0.46892,0.45894039 -0.0188,0.91440191 0.001,0.91466951 -0.89756,0.91466951 -1.40462,0 -2.80951,0.013915 -4.21359,-0.0091 -0.38056,-0.00615 -0.47241,0.1158724 -0.45979,0.473391 0.026,0.7337695 0.0258,1.4696797 5.4e-4,2.2037167 -0.0126,0.3647439 0.0988,0.4779403 0.47107,0.4717854 1.33398,-0.021141 2.66878,0.00482 4.00276,-0.016324 0.39211,-0.00642 0.55379,0.068774 0.53768,0.5076443 -0.0325,0.8820219 -0.005,0.8830923 -0.8836,0.8830923 -1.22897,0 -2.45821,0.013113 -3.68692,-0.00856 -0.34914,-0.00615 -0.44905,0.095535 -0.44099,0.4380674 0.0215,0.9090498 0.0228,1.8197053 -5.4e-4,2.7287552 -0.009,0.3532369 0.11173,0.4375321 0.45012,0.4343209 1.61518,-0.016324 3.23063,0.00401 4.8458,-0.016056 0.36875,-0.00455 0.47322,0.095267 0.46812,0.4642922 -0.0145,1.015021 0.003,1.015289 -1.00767,1.015289 -2.17703,0 -4.35432,-0.01525 -6.53108,0.01177 -0.48852,0.0062 -0.6588,-0.0867 -0.64591,-0.616559 0.0392,-1.6259598 0.0142,-3.2535257 0.0142,-4.8805564"
             id="Fill-25"
             fill="#465661" />
          <path
             d="m 190.35109,0.35965941 c 1.68393,0 3.36787,0.007493 5.05153,-0.006422 0.30966,-0.002676 0.42112,0.0602108 0.42165,0.39819435 0.002,1.07871064 0.0188,1.07871064 -1.04769,1.07871064 -0.92952,0 -1.85984,0.018197 -2.78856,-0.0091 -0.3776,-0.010972 -0.46167,0.113464 -0.45979,0.4712502 0.014,2.8135856 -0.004,5.6277064 0.0193,8.4412924 0.004,0.467236 -0.11844,0.61308 -0.58226,0.571066 -0.46973,-0.04228 -0.94859,-0.0388 -1.41912,-5.35e-4 -0.41628,0.03398 -0.48584,-0.131394 -0.48369,-0.505504 0.015,-2.7964586 -0.005,-5.5929176 0.0207,-8.389109 0.004,-0.487574 -0.13348,-0.6063901 -0.60482,-0.5906015 -1.06864,0.035591 -2.13943,0.00161 -3.20941,0.016859 -0.31476,0.00455 -0.45979,-0.042549 -0.45737,-0.415321 0.007,-1.06051359 -0.0124,-1.0607812 1.06676,-1.0607812 h 4.47275"
             id="Fill-26"
             fill="#465661" />
          <path
             d="m 208.23272,0.35965941 c -1.36916,1.96314099 -2.6532,3.81709959 -3.95549,5.65821329 -0.22452,0.3176456 -0.32121,0.63208 -0.31584,1.0182322 0.018,1.2764698 -0.005,2.5534748 0.0142,3.8299451 0.005,0.348687 -0.10394,0.454926 -0.44798,0.436461 -0.50759,-0.02756 -1.01868,-0.02837 -1.52628,0 -0.36203,0.02034 -0.48342,-0.08617 -0.47671,-0.461349 0.0226,-1.2588076 -0.003,-2.5184184 0.0159,-3.7774939 0.006,-0.368758 -0.0919,-0.6714178 -0.29006,-0.9767537 -1.21689,-1.8750993 -2.42115,-3.7584943 -3.6845,-5.72431135 0.97652,0 1.87595,-2.676e-4 2.77566,0 0.23232,0 0.25837,0.21408299 0.34028,0.35082849 0.75414,1.25961076 1.49835,2.52510876 2.24712,3.78793076 0.087,0.1471821 0.13966,0.3203217 0.31101,0.4249548 0.79523,-1.3794973 1.60121,-2.749896 2.37388,-4.13849172 0.18854,-0.33905392 0.40017,-0.46054602 0.78208,-0.43726449 0.5699,0.0350561 1.14357,0.009099 1.83674,0.009099"
             id="Fill-27"
             fill="#465661" />
          <path
             d="m 178.06538,0.35965941 c 1.68474,0 3.36974,0.0112394 5.05421,-0.008831 0.36579,-0.004282 0.47295,0.0853656 0.46624,0.45840519 -0.0185,1.020373 5.3e-4,1.0209082 -0.99801,1.0209082 -0.93005,0 -1.86145,0.027296 -2.7899,-0.011775 -0.4606,-0.019267 -0.53687,0.14183 -0.53392,0.5595595 0.0188,2.7801351 -0.005,5.5608055 0.0228,8.3409407 0.005,0.50149 -0.15308,0.621109 -0.61395,0.584715 -0.4708,-0.0372 -0.94858,-0.03238 -1.42019,-5.36e-4 -0.3623,0.02462 -0.4281,-0.117478 -0.42676,-0.444757 0.0115,-2.832586 -0.004,-5.6657067 0.0177,-8.4982922 0.003,-0.4380673 -0.10582,-0.5544749 -0.54466,-0.5413623 -1.12236,0.033986 -2.24632,-0.00107 -3.36921,0.019 -0.33168,0.00589 -0.40769,-0.099281 -0.40849,-0.4161238 -0.002,-1.06185157 -0.0159,-1.06185157 1.0689,-1.06185157 h 4.47518"
             id="Fill-28"
             fill="#465661" />
          <path
             d="m 156.0937,74.370288 c 0,-1.851818 0.0124,-3.703636 -0.01,-5.555186 -0.005,-0.3998 0.1128,-0.514602 0.50168,-0.495067 0.59462,0.02997 1.19218,0.01927 1.78787,0.0029 0.2863,-0.0078 0.40259,0.07118 0.40178,0.379729 -0.009,3.773213 -0.008,7.546693 -8e-4,11.319906 5.3e-4,0.279111 -0.0972,0.360462 -0.36687,0.353772 -0.63087,-0.01579 -1.26335,-0.02703 -1.89315,0.0032 -0.36847,0.01766 -0.4289,-0.131661 -0.42675,-0.454123 0.0126,-1.851818 0.006,-3.703636 0.006,-5.555186"
             id="Fill-29"
             fill="#465661" />
        </g>
      </g>
    </g>
  </g>
  <metadata
     id="metadata5800">
    <rdf:RDF>
      <cc:Work
         rdf:about="">
        <dc:title>Imported Layers</dc:title>
      </cc:Work>
    </rdf:RDF>
  </metadata>
</svg>
