<?xml version="1.0" encoding="UTF-8" standalone="no"?>
<svg width="355px" height="302px" viewBox="0 0 355 302" version="1.1" xmlns="http://www.w3.org/2000/svg" xmlns:xlink="http://www.w3.org/1999/xlink" xmlns:sketch="http://www.bohemiancoding.com/sketch/ns">
    <!-- Generator: Sketch 3.4 (15575) - http://www.bohemiancoding.com/sketch -->
    <title>Page 1</title>
    <desc>Created with Sketch.</desc>
    <defs>
        <path id="path-1" d="M0,0.79 L354.328,0.79 L354.328,302 L0,302"></path>
    </defs>
    <g id="Page-1" stroke="none" stroke-width="1" fill="none" fill-rule="evenodd" sketch:type="MSPage">
        <g sketch:type="MSLayerGroup">
            <g id="Group-3">
                <mask id="mask-2" sketch:name="Clip 2" fill="white">
                    <use xlink:href="#path-1"></use>
                </mask>
                <g id="Clip-2"></g>
                <path d="M344.7351,24.7989 C344.7181,24.7799 344.6971,24.7429 344.6851,24.7459 C344.6481,24.7549 344.6151,24.7789 344.5801,24.7969 C344.5971,24.8159 344.6181,24.8529 344.6301,24.8499 C344.6671,24.8419 344.7011,24.8179 344.7351,24.7989 M68.6871,250.4879 C68.4791,250.6939 68.2811,250.9109 68.0621,251.1039 C61.2681,257.0889 54.5361,263.1419 47.9471,269.3519 C47.6981,269.5869 47.3461,269.7629 47.3201,270.1679 C47.2321,271.5909 47.1501,273.0149 47.0511,274.6899 C50.9961,270.6489 54.8961,266.9389 58.9021,263.3389 C62.9151,259.7319 66.9941,256.2039 71.1391,252.7499 C77.3841,258.4549 84.1111,263.5259 91.2981,267.9809 C111.0901,280.2519 132.6051,287.1809 155.8481,288.6599 C166.0991,289.3129 176.3031,288.7889 186.4511,287.1389 C197.4941,285.3429 208.1801,282.3049 218.4381,277.8569 C245.4701,266.1359 266.8941,247.8019 282.5461,222.8469 C295.6361,201.9749 302.5641,179.1449 303.4521,154.5199 C303.9511,140.6629 302.3441,127.0309 298.6801,113.6519 C296.9511,107.3409 294.8191,101.1679 292.1561,95.1839 C293.2231,94.2129 294.2871,93.2389 295.3561,92.2709 C306.3121,82.3529 316.5871,71.8009 325.4901,59.9699 C333.0201,49.9639 339.3591,39.2839 343.7931,27.5319 C344.1001,26.7169 344.4621,25.9139 344.6341,24.8979 C344.2741,25.2929 343.8501,24.9719 343.5381,25.4349 C338.4351,32.9799 332.2201,39.5459 325.5371,45.6899 C316.2251,54.2529 306.1471,61.8319 295.6491,68.8649 C291.3901,71.7179 287.0911,74.5109 282.6561,77.0859 C282.5551,76.9059 282.4631,76.7219 282.3541,76.5479 C274.6531,64.2899 265.3121,53.4439 254.2611,44.0949 C233.4131,26.4589 209.4721,15.6939 182.3981,11.9999 C171.8921,10.5659 161.3431,10.4459 150.7921,11.4779 C141.4701,12.3899 132.3241,14.2219 123.3891,17.0469 C97.8161,25.1329 76.3061,39.4029 58.7811,59.6749 C48.4331,71.6439 40.3941,85.0289 34.6181,99.7599 C28.6101,115.0849 25.4891,130.9919 25.1751,147.4479 C25.0581,153.5609 25.3651,159.6569 26.0711,165.7289 C26.6331,170.5609 27.4201,175.3569 28.5371,180.0939 C21.6891,183.4819 14.9171,187.0079 8.3001,191.1199 C9.4681,191.5479 10.5141,191.9219 11.5521,192.3189 C11.8671,192.4389 12.0561,192.2389 12.2751,192.1119 C13.7001,191.2839 15.1071,190.4249 16.5451,189.6209 C20.6741,187.3109 24.8701,185.1329 29.2351,183.2929 C29.2871,183.4299 29.3531,183.5639 29.3891,183.7049 C31.1901,190.8509 33.5651,197.8029 36.5091,204.5569 C44.1281,222.0419 54.8721,237.3419 68.6871,250.4879 M177.1641,301.9839 C118.3801,301.9839 59.5971,301.9819 0.8131,301.9999 C0.1491,301.9999 0.0001,301.8509 0.0001,301.1869 C0.0171,201.3259 0.0171,101.4649 0.0001,1.6029 C0.0001,0.9399 0.1491,0.7899 0.8131,0.7899 C118.3801,0.8069 235.9471,0.8069 353.5141,0.7899 C354.1781,0.7899 354.3281,0.9399 354.3271,1.6029 C354.3101,101.4649 354.3101,201.3259 354.3271,301.1869 C354.3281,301.8509 354.1781,301.9999 353.5141,301.9999 C294.7311,301.9819 235.9471,301.9839 177.1641,301.9839" id="Fill-1" fill="#FEFEFE" sketch:type="MSShapeGroup" mask="url(#mask-2)"></path>
            </g>
            <path d="M252.7815,186.4836 C252.1915,186.5726 251.7535,186.8956 251.7705,187.6106 C251.7865,188.3086 252.1875,188.6976 252.8815,188.6916 C253.5825,188.6856 253.9725,188.2686 253.9685,187.5826 C253.9655,186.8876 253.5475,186.5296 252.7815,186.4836 M224.4155,219.5646 C225.0125,219.5766 225.5895,219.0536 225.5595,218.4606 C225.5245,217.7886 225.1665,217.3476 224.4575,217.3366 C223.7525,217.3246 223.3705,217.7416 223.3145,218.4176 C223.2645,219.0136 223.8115,219.5516 224.4155,219.5646 M124.7595,238.1006 C124.8135,238.8066 125.1905,239.2066 125.8695,239.2596 C126.4665,239.3076 127.0025,238.7596 126.9895,238.1456 C126.9745,237.4476 126.5895,237.0316 125.8995,237.0176 C125.1985,237.0036 124.8485,237.4456 124.7595,238.1006 M229.6595,247.6226 C229.0035,247.7196 228.5695,248.0536 228.5705,248.7636 C228.5705,249.4736 229.0055,249.8766 229.6725,249.8776 C230.3445,249.8786 230.7815,249.4596 230.7775,248.7606 C230.7725,248.0686 230.3475,247.7076 229.6595,247.6226 M183.9905,226.5516 C184.6505,226.4416 185.0845,226.1026 185.0715,225.3926 C185.0595,224.6866 184.6275,224.2876 183.9535,224.2946 C183.2735,224.3026 182.8575,224.7306 182.8655,225.4256 C182.8745,226.1256 183.3195,226.4646 183.9905,226.5516 M255.4075,216.1036 C254.6835,216.1106 254.1795,216.6196 254.1835,217.2316 C254.1885,217.8346 254.7225,218.3926 255.3185,218.3426 C255.9845,218.2866 256.4215,217.9236 256.4115,217.2096 C256.4025,216.5016 255.9745,216.1656 255.4075,216.1036 M265.6445,224.7986 C266.3135,224.6956 266.7095,224.3306 266.7105,223.6296 C266.7115,223.0156 266.1605,222.4756 265.5655,222.5406 C264.8995,222.6126 264.4685,222.9936 264.4965,223.7016 C264.5235,224.3996 264.9555,224.7416 265.6445,224.7986 M266.7405,205.3046 C266.7285,205.9446 267.2535,206.4926 267.8485,206.5066 C268.4445,206.5206 268.9895,206.0006 268.9785,205.3916 C268.9645,204.6946 268.5815,204.2796 267.8905,204.2606 C267.1865,204.2406 266.8425,204.6896 266.7405,205.3046 M110.0515,236.2876 C110.7485,236.3106 111.2975,235.7996 111.3175,235.2026 C111.3375,234.6106 110.8165,234.0526 110.2235,234.0316 C109.6245,234.0096 109.0785,234.5186 109.0765,235.1296 C109.0755,235.8366 109.4825,236.1896 110.0515,236.2876 M224.4005,203.8826 C224.9995,203.9046 225.5465,203.3936 225.5675,202.7916 C225.5885,202.2056 225.0605,201.6406 224.4725,201.6196 C223.8885,201.5986 223.3265,202.1286 223.3055,202.7196 C223.2835,203.3166 223.7965,203.8616 224.4005,203.8826 M156.8055,236.1126 C157.5085,236.1276 158.0525,235.6116 158.0655,235.0156 C158.0785,234.4256 157.5465,233.8696 156.9565,233.8556 C156.3575,233.8406 155.8145,234.3566 155.8195,234.9666 C155.8255,235.6746 156.2395,236.0206 156.8055,236.1126 M125.4285,224.8286 C125.4425,224.0606 124.8145,223.4046 124.0615,223.3986 C123.3385,223.3936 122.7205,223.9906 122.6875,224.7256 C122.6515,225.5096 123.2345,226.1576 124.0025,226.1896 C124.7615,226.2216 125.4135,225.5996 125.4285,224.8286 M236.7335,195.1646 C236.7245,194.3966 236.0795,193.7776 235.3065,193.7956 C234.5385,193.8126 233.9065,194.4766 233.9395,195.2286 C233.9715,195.9416 234.6155,196.5646 235.3265,196.5716 C236.0735,196.5786 236.7415,195.9096 236.7335,195.1646 M274.9045,204.0606 C275.6545,204.0776 276.3215,203.4286 276.3275,202.6766 C276.3325,201.9336 275.6615,201.2636 274.9195,201.2716 C274.1965,201.2796 273.5855,201.8856 273.5615,202.6186 C273.5345,203.3986 274.1355,204.0426 274.9045,204.0606 M256.7685,194.4986 C256.7785,193.7146 256.1675,193.0916 255.3925,193.0946 C254.6295,193.0976 253.9965,193.7436 254.0095,194.5066 C254.0225,195.2256 254.6375,195.8526 255.3565,195.8786 C256.1105,195.9056 256.7585,195.2726 256.7685,194.4986 M235.1985,203.5466 C234.4425,203.5266 233.7705,204.1696 233.7615,204.9226 C233.7525,205.6586 234.4335,206.3426 235.1715,206.3366 C235.8835,206.3316 236.5245,205.7096 236.5575,204.9946 C236.5915,204.2366 235.9635,203.5686 235.1985,203.5466 M275.0565,193.2126 C275.0575,193.1856 275.0575,193.1586 275.0585,193.1316 C274.2375,193.0566 273.4155,192.9866 272.5955,192.9056 C272.3715,192.8826 272.1465,192.9236 271.9465,192.7176 C271.0475,191.7916 270.2855,190.8186 270.4075,189.4146 C270.4355,189.0926 270.3615,188.7626 270.3345,188.4356 C270.3245,191.5306 269.1115,193.4346 265.6215,193.2076 C266.4705,193.4166 267.2495,193.5026 268.0265,193.6046 C268.2175,193.6306 268.4265,193.5656 268.5915,193.7636 C269.4095,194.7506 270.3665,195.6556 270.1655,197.1336 C270.1135,197.5126 270.2295,197.9146 270.2685,198.3056 C270.4435,197.4016 270.5395,196.4956 270.6525,195.5906 C270.6805,195.3626 270.6875,195.0466 270.8325,194.9326 C271.7285,194.2256 272.4425,193.1656 273.8445,193.3886 C274.2295,193.4496 274.6515,193.2776 275.0565,193.2126 M258.0485,228.5606 C258.0755,228.5666 258.1035,228.5726 258.1315,228.5796 C258.2365,227.6756 258.3385,226.7716 258.4515,225.8686 C258.4765,225.6686 258.4765,225.3836 258.6015,225.2906 C259.4875,224.6316 260.1195,223.5146 261.4975,223.7126 C261.9475,223.7776 262.4215,223.6486 262.8455,223.4416 C261.9895,223.3626 261.1405,223.2866 260.2915,223.2026 C260.0975,223.1836 259.8995,223.2276 259.7295,223.0366 C258.9275,222.1356 258.0665,221.2836 258.2175,219.9086 C258.2615,219.5076 258.1495,219.0896 258.1165,218.7556 C257.4205,219.7816 258.1555,221.1556 257.0075,222.3566 C255.8475,223.5706 254.4575,223.0396 253.3155,223.6486 C254.1075,223.7326 254.8935,223.8126 255.6775,223.8996 C255.9045,223.9256 256.1865,223.8456 256.3375,224.0646 C256.9965,225.0226 258.1855,225.6956 257.9105,227.1606 C257.8275,227.6026 257.9955,228.0926 258.0485,228.5606 M109.2345,251.3966 C110.3145,252.0486 111.6705,251.4276 112.8615,252.6106 C114.0935,253.8356 113.4785,255.1506 114.0015,256.3216 C114.3185,255.5336 114.1765,254.6286 114.3725,253.7826 C114.4225,253.5646 114.3175,253.3196 114.5355,253.1296 C115.4385,252.3456 116.2565,251.4206 117.6395,251.5646 C117.9875,251.6016 118.3505,251.4976 118.8075,251.4476 C117.9985,251.1806 117.2515,251.1016 116.5315,251.1606 C115.5635,251.2406 115.4765,250.2306 114.8325,249.9666 C114.4325,249.8026 114.3605,249.5136 114.3065,249.1456 C114.1835,248.3086 114.2185,247.4476 113.9315,246.5726 C113.7535,250.4956 112.8105,251.2446 109.2345,251.3966 M292.1565,95.1836 C294.8185,101.1676 296.9505,107.3406 298.6795,113.6526 C302.3445,127.0306 303.9515,140.6636 303.4515,154.5196 C302.5635,179.1456 295.6355,201.9756 282.5455,222.8466 C266.8945,247.8016 245.4695,266.1356 218.4385,277.8566 C208.1805,282.3046 197.4945,285.3436 186.4515,287.1386 C176.3035,288.7886 166.0995,289.3126 155.8485,288.6596 C132.6055,287.1806 111.0895,280.2516 91.2985,267.9816 C84.1115,263.5256 77.3845,258.4556 71.1395,252.7496 C71.3445,252.5426 71.5325,252.3146 71.7555,252.1296 C75.5775,248.9746 79.3745,245.7916 83.2325,242.6816 C99.7205,229.3866 116.6935,216.7346 134.0295,204.5686 C139.0235,201.0636 144.0165,197.5556 149.1165,194.2046 C151.1105,197.0186 153.1545,199.7956 155.4135,202.4036 C157.6175,204.9486 159.9065,207.4106 162.8165,209.1836 C163.9855,209.8966 165.2205,210.4356 166.6485,210.2956 C169.1535,210.0516 170.4655,207.4756 169.1575,205.3516 C168.5315,204.3346 167.6735,203.5216 166.7835,202.7466 C164.7815,201.0026 162.5955,199.4946 160.4785,197.8966 C157.8675,195.9266 155.2395,193.9786 152.9155,191.6606 C153.1235,191.5006 153.3235,191.3266 153.5425,191.1826 C158.8565,187.6836 164.1625,184.1726 169.4915,180.6966 C172.7225,178.5906 175.9885,176.5396 179.2385,174.4636 L179.2385,179.0116 C181.1895,177.4936 183.0655,176.1786 184.9105,174.8196 C185.4175,174.4456 185.8225,174.4036 186.4245,174.6166 C192.8465,176.8876 199.4175,177.8046 206.1625,176.4366 C211.7945,175.2946 216.7315,172.7506 220.6595,168.5076 C224.4635,164.3976 224.9375,159.4306 222.1685,154.5686 C221.0775,152.6536 219.6205,151.0336 218.0325,149.5236 C218.5065,149.1836 218.9815,148.8446 219.4555,148.5046 C223.9425,156.1106 227.8105,164.0186 231.0895,172.2176 C231.2655,172.6576 231.2045,172.8976 230.8355,173.1716 C229.8325,173.9176 228.8545,174.6966 227.6695,175.6156 C229.1075,175.6156 230.3095,175.6576 231.5075,175.5996 C232.1875,175.5666 232.4685,175.8236 232.6885,176.4466 C235.4555,184.3036 237.6735,192.2866 238.3975,200.6266 C238.8145,205.4386 238.7485,210.2196 237.4485,214.9086 C235.7225,221.1366 232.0825,225.6426 225.7245,227.5756 C221.4925,228.8616 217.1705,228.7326 212.8605,228.0796 C207.2925,227.2356 201.9645,225.5266 196.7535,223.4236 C196.4875,223.3156 196.2115,223.0486 195.8625,223.2386 C196.1285,223.7786 196.1235,223.7906 196.5455,223.9636 C203.9885,227.0116 211.5455,229.6356 219.6895,229.9676 C223.6815,230.1296 227.5705,229.6536 231.1405,227.6966 C235.7875,225.1486 238.2635,220.9986 239.5725,216.0316 C241.1395,210.0886 240.9405,204.0636 240.2325,198.0436 C239.5675,192.3796 238.3135,186.8246 236.7315,181.3456 C236.1915,179.4736 235.5945,177.6186 235.0075,175.7026 C238.1355,175.6356 241.1905,175.7736 244.3925,175.5516 C243.0485,174.4616 242.3185,173.1446 241.9525,171.6296 C241.3225,169.0236 241.8625,166.5446 242.8175,164.1136 C242.9505,163.7766 243.1725,163.7166 243.5005,163.7166 C248.8105,163.7246 254.1215,163.7266 259.4325,163.7146 C259.8555,163.7136 260.0555,163.8426 260.1835,164.2586 C260.5445,165.4406 260.9325,166.6146 261.3565,167.7756 C262.1775,170.0216 261.7125,171.9166 259.9595,173.5526 C259.2395,174.2236 258.6395,175.0236 258.0035,175.7436 C267.9825,175.7926 278.0955,175.7236 288.2345,175.8226 C285.8995,174.6166 284.7635,172.5346 283.8535,170.2396 C281.5095,164.3296 279.2985,158.3696 277.1145,152.3986 C273.7975,143.3336 270.6715,134.1976 267.2165,125.1826 C266.9355,124.4486 266.5745,124.2466 265.8095,124.2516 C262.2995,124.2736 258.7895,124.2216 255.2795,124.1956 C255.4585,124.0466 255.6295,123.8856 255.8185,123.7496 C264.7585,117.2966 273.5715,110.6776 282.0795,103.6616 C285.4655,100.8686 288.7985,98.0116 292.1565,95.1836" id="Fill-4" fill="#B1B1B1" sketch:type="MSShapeGroup"></path>
            <path d="M145.0414,55.5788 C145.7244,55.5578 146.2604,55.0268 146.1974,54.4278 C146.1274,53.7598 145.7474,53.3388 145.0374,53.3668 C144.3374,53.3938 143.9514,53.8058 143.9674,54.4998 C143.9834,55.2078 144.4334,55.5298 145.0414,55.5788 M161.7124,50.2798 C161.6624,49.5958 161.2914,49.1738 160.6034,49.1688 C159.9134,49.1638 159.4974,49.5878 159.4884,50.2758 C159.4804,50.9708 159.9104,51.3948 160.5884,51.3988 C161.2644,51.4028 161.6584,50.9878 161.7124,50.2798 M139.5634,49.8988 C139.4914,49.2218 139.1044,48.8388 138.4204,48.8108 C137.8274,48.7868 137.2984,49.3618 137.3104,49.9548 C137.3224,50.5498 137.8754,51.1108 138.4624,51.0588 C139.1374,50.9998 139.5244,50.6128 139.5634,49.8988 M142.8904,52.2198 C142.9014,51.6138 142.3944,51.0808 141.7784,51.0878 C141.0724,51.0968 140.6914,51.5028 140.6304,52.1778 C140.5784,52.7638 141.1374,53.3158 141.7354,53.3308 C142.3234,53.3458 142.8784,52.8118 142.8904,52.2198 M173.9214,56.7828 C173.8824,56.0628 173.5154,55.6368 172.8324,55.6198 C172.1504,55.6028 171.7094,56.0068 171.6994,56.6988 C171.6894,57.3748 172.0694,57.8128 172.7764,57.8288 C173.4784,57.8448 173.8384,57.4378 173.9214,56.7828 M166.2744,23.4418 C166.1764,22.7498 165.7984,22.3538 165.1124,22.3278 C164.5084,22.3058 163.9554,22.8678 164.0064,23.4638 C164.0644,24.1378 164.4414,24.5588 165.1494,24.5478 C165.8574,24.5358 166.1874,24.0948 166.2744,23.4418 M141.1454,58.8418 C141.0814,58.1348 140.6924,57.7468 140.0194,57.6928 C139.4384,57.6468 138.8824,58.2258 138.8774,58.8138 C138.8724,59.4058 139.4054,59.9578 140.0074,59.9368 C140.7064,59.9128 141.0604,59.5028 141.1454,58.8418 M172.7044,42.0108 C173.4624,42.0188 174.0914,41.3788 174.0884,40.6028 C174.0844,39.8518 173.5194,39.2608 172.7744,39.2298 C172.0074,39.1968 171.3524,39.8108 171.3354,40.5758 C171.3194,41.3368 171.9534,42.0018 172.7044,42.0108 M158.0664,38.6758 C158.0544,37.9278 157.3714,37.2738 156.6284,37.2998 C155.8634,37.3268 155.2574,37.9868 155.2904,38.7568 C155.3224,39.4838 155.9434,40.0868 156.6654,40.0908 C157.4074,40.0938 158.0774,39.4168 158.0664,38.6758 M194.5154,68.6668 C194.5184,67.9148 193.8554,67.2568 193.1064,67.2698 C192.3764,67.2818 191.7764,67.8808 191.7544,68.6178 C191.7314,69.4038 192.3244,70.0318 193.1024,70.0438 C193.8704,70.0558 194.5134,69.4298 194.5154,68.6668 M192.9204,42.4388 C193.2164,41.0308 192.7074,39.3648 194.2954,38.3748 C194.3184,38.3608 194.3364,38.3288 194.3434,38.3018 C194.4484,37.8788 194.7674,37.8328 195.1424,37.7708 C195.9774,37.6328 196.8424,37.6538 197.5804,37.3788 C196.4834,36.8928 195.2084,37.5128 194.0074,36.3788 C192.8194,35.2568 193.3424,33.8998 192.8044,32.7828 C192.3144,33.9228 192.8094,35.1558 191.7094,36.3168 C190.5914,37.4968 189.2464,36.9168 188.1164,37.5468 C189.4894,37.7728 191.0194,37.3958 191.8624,38.9068 C191.8874,38.9518 191.9534,38.9888 192.0074,39.0018 C192.4414,39.1048 192.4644,39.4348 192.5304,39.8038 C192.6894,40.6858 192.5724,41.6158 192.9204,42.4388 M28.5364,180.0948 C27.4204,175.3568 26.6324,170.5608 26.0714,165.7288 C25.3654,159.6568 25.0584,153.5608 25.1754,147.4478 C25.4884,130.9918 28.6094,115.0848 34.6184,99.7598 C40.3934,85.0288 48.4334,71.6438 58.7804,59.6748 C76.3064,39.4038 97.8154,25.1328 123.3894,17.0468 C132.3244,14.2218 141.4704,12.3898 150.7924,11.4778 C161.3434,10.4458 171.8924,10.5658 182.3984,11.9998 C209.4714,15.6938 233.4124,26.4588 254.2604,44.0948 C265.3114,53.4438 274.6534,64.2898 282.3544,76.5478 C282.4634,76.7218 282.5554,76.9068 282.6554,77.0858 C277.7534,80.1428 272.7254,82.9838 267.6024,85.6478 C249.0364,95.3018 229.9744,103.8728 210.5454,111.6348 C206.8554,113.1088 203.1774,114.6138 199.4264,115.9278 C194.9814,110.4098 190.3084,105.0928 185.4074,99.9768 C176.3824,90.5578 166.7004,81.8958 155.9344,74.4928 C148.2644,69.2198 140.2144,64.6378 131.4424,61.4328 C125.9804,59.4368 120.3874,58.0658 114.5074,58.3688 C110.9494,58.5518 107.5824,59.4348 104.5644,61.3978 C99.8994,64.4298 97.3984,68.9448 95.9954,74.1598 C94.2664,80.5908 94.3644,87.1218 95.1644,93.6598 C96.1284,101.5308 98.2044,109.1338 100.8804,116.5868 C104.4484,126.5218 109.2194,135.8738 114.5744,144.9448 C114.5014,144.9918 114.4344,145.0568 114.3544,145.0828 C108.5134,147.0128 102.6714,148.9398 96.8294,150.8658 C96.8124,150.5138 96.7784,150.1618 96.7794,149.8098 C96.8044,143.6738 96.9434,137.5368 96.8104,131.4048 C96.7544,128.8418 97.3504,126.7978 99.3494,125.1708 C99.8934,124.7278 100.3894,124.1878 100.7564,123.4768 C95.5504,123.3168 90.4354,123.3318 85.1614,123.3288 C85.3914,123.6118 85.5134,123.7648 85.6394,123.9148 C86.7194,125.2028 87.8004,126.4878 88.7394,127.8868 C89.3294,128.7658 89.6614,129.6778 89.6334,130.7748 C89.5734,133.1038 89.6164,135.4348 89.6274,137.7658 C89.6514,142.9558 89.6814,148.1458 89.7094,153.3358 C89.3534,153.4618 88.9984,153.5868 88.6424,153.7128 C87.2514,151.3198 85.8624,148.9258 84.4704,146.5338 C80.1004,139.0238 75.7674,131.4938 71.2104,124.0938 C70.7974,123.4228 70.3544,123.0728 69.5234,123.1468 C68.6164,123.2278 67.6964,123.1608 66.7824,123.1578 C60.9714,123.1378 55.1614,123.1168 49.3514,123.1018 C49.0974,123.1018 48.7644,122.9918 48.6154,123.2518 C48.4444,123.5488 48.7934,123.7128 48.9424,123.8988 C49.8984,125.0978 50.8564,126.2968 51.8504,127.4628 C52.6184,128.3648 52.8934,129.3648 52.8864,130.5508 C52.8314,139.0748 52.8104,147.5978 52.8104,156.1218 C52.8094,160.0128 52.8794,163.9048 52.9174,167.7958 C49.4534,169.3318 46.0364,170.9688 42.6364,172.6398 C37.8634,174.9868 33.2004,177.5398 28.5364,180.0948" id="Fill-6" fill="#B1B1B1" sketch:type="MSShapeGroup"></path>
            <path d="M76.6652,218.7179 C76.0502,218.7829 75.6062,219.0969 75.5992,219.8109 C75.5922,220.5089 75.9792,220.9109 76.6742,220.9289 C77.3742,220.9459 77.7852,220.5449 77.8002,219.8579 C77.8152,219.1699 77.4102,218.7919 76.6652,218.7179 M100.3892,217.6709 C99.7232,217.7459 99.3122,218.0979 99.3202,218.8019 C99.3292,219.5069 99.7512,219.8969 100.4322,219.8909 C101.1182,219.8839 101.5302,219.4699 101.5192,218.7739 C101.5092,218.0819 101.0942,217.7219 100.3892,217.6709 M115.8382,178.9519 C115.8142,178.2209 115.4342,177.8299 114.7612,177.7619 C114.1642,177.7019 113.5882,178.2399 113.6082,178.8429 C113.6302,179.5129 113.9752,179.9679 114.6842,179.9899 C115.3862,180.0109 115.7472,179.5999 115.8382,178.9519 M63.1372,214.5079 C63.8282,214.5289 64.3792,214.0149 64.3992,213.4199 C64.4192,212.8299 63.8942,212.2729 63.3002,212.2519 C62.6992,212.2319 62.1562,212.7389 62.1562,213.3519 C62.1562,214.0599 62.5642,214.4119 63.1372,214.5079 M78.5262,210.6759 C77.7762,210.6769 77.1382,211.3369 77.1492,212.0989 C77.1602,212.8359 77.7502,213.4349 78.4852,213.4569 C79.2632,213.4799 79.8902,212.8759 79.8982,212.0959 C79.9072,211.3209 79.2832,210.6759 78.5262,210.6759 M116.5332,205.2379 C116.5122,204.4639 115.8622,203.8599 115.0912,203.8969 C114.3672,203.9319 113.7672,204.5609 113.7662,205.2839 C113.7662,206.0319 114.4382,206.6979 115.1812,206.6839 C115.9372,206.6689 116.5552,206.0079 116.5332,205.2379 M83.5802,224.3149 C83.6022,223.5669 82.9512,222.8879 82.2052,222.8799 C81.4622,222.8729 80.7872,223.5419 80.7902,224.2849 C80.7932,224.9969 81.4122,225.6339 82.1292,225.6659 C82.8872,225.6989 83.5572,225.0749 83.5802,224.3149 M68.6872,250.4879 C54.8722,237.3419 44.1282,222.0419 36.5092,204.5569 C33.5652,197.8029 31.1902,190.8509 29.3882,183.7049 C29.3532,183.5639 29.2862,183.4299 29.2342,183.2929 C29.5162,183.1399 29.7872,182.9609 30.0822,182.8369 C32.4902,181.8259 34.8922,180.7969 37.3162,179.8259 C42.0292,177.9389 46.7922,176.1859 51.6132,174.5949 L64.4202,174.5949 C64.4282,174.5079 64.4362,174.4209 64.4442,174.3339 C63.5612,173.3269 62.6782,172.3189 61.7952,171.3119 C66.1682,169.8739 70.5992,168.6309 75.0272,167.3749 C76.4542,169.7449 77.9012,172.1029 79.2912,174.4939 C79.6022,175.0279 79.9342,175.2029 80.5362,175.2009 C87.2562,175.1799 93.9772,175.1889 100.6972,175.1819 C100.9422,175.1819 101.2172,175.2879 101.4912,175.0379 C101.3082,174.7739 101.1412,174.5069 100.9482,174.2589 C99.8982,172.9109 98.8332,171.5759 97.7902,170.2219 C97.2402,169.5069 96.8912,168.6919 96.8832,167.7789 C96.8642,165.6869 96.8752,163.5949 96.8752,161.5039 C99.9822,160.7319 103.0882,159.9539 106.1972,159.1889 C111.1312,157.9749 116.0672,156.7709 121.0032,155.5619 C120.9392,155.8479 120.8882,156.1379 120.8082,156.4189 C119.9032,159.5869 118.8092,162.7149 118.1392,165.9319 C117.5162,168.9209 115.8862,171.0329 113.5362,172.7609 C112.8482,173.2669 112.1672,173.7849 111.4992,174.3169 C111.3132,174.4649 111.0052,174.5159 110.9762,174.8749 C116.4202,174.9519 121.8442,175.1069 127.3942,174.8859 C123.9762,171.7449 124.2922,166.9139 126.0362,163.1809 C126.2292,163.4389 126.4072,163.6649 126.5732,163.8989 C127.9992,165.9219 129.4072,167.9569 130.8492,169.9679 C135.6262,176.6279 140.7332,183.0319 145.9242,189.3699 C145.6912,189.5459 145.4652,189.7339 145.2232,189.8949 C136.4132,195.7669 127.6842,201.7549 119.1332,207.9989 C102.9122,219.8429 87.3932,232.5319 72.9022,246.4569 C71.5002,247.8039 70.0922,249.1439 68.6872,250.4879" id="Fill-8" fill="#B1B1B1" sketch:type="MSShapeGroup"></path>
            <path d="M199.4261,115.9279 C203.1771,114.6139 206.8561,113.1089 210.5451,111.6349 C229.9741,103.8719 249.0371,95.3019 267.6031,85.6479 C272.7261,82.9839 277.7541,80.1429 282.6561,77.0859 C287.0911,74.5109 291.3901,71.7179 295.6491,68.8649 C306.1471,61.8319 316.2251,54.2529 325.5371,45.6899 C332.2201,39.5449 338.4351,32.9799 343.5381,25.4349 C343.8501,24.9719 344.2741,25.2929 344.6341,24.8979 C344.4621,25.9139 344.1001,26.7169 343.7931,27.5319 C339.3591,39.2839 333.0201,49.9639 325.4911,59.9699 C316.5871,71.8009 306.3121,82.3529 295.3561,92.2709 C294.2871,93.2389 293.2231,94.2129 292.1561,95.1839 C288.7991,98.0119 285.4661,100.8689 282.0791,103.6619 C273.5711,110.6779 264.7581,117.2969 255.8181,123.7499 C255.6301,123.8859 255.4591,124.0469 255.2801,124.1959 C251.7671,126.6659 248.2551,129.1359 244.7431,131.6049 C244.4941,131.7609 244.2391,131.9079 243.9981,132.0739 C236.5061,137.2339 228.9691,142.3249 221.3381,147.2769 C220.3381,145.7779 219.3931,144.2449 218.5361,142.6599 C223.9541,139.2179 229.2361,135.5759 234.4781,131.8749 C237.1471,129.9909 239.8341,128.1309 242.4041,126.1109 C243.2981,125.5599 244.1321,124.9289 244.9211,124.2359 C245.1661,124.0749 245.4191,123.9249 245.6541,123.7499 C250.4591,120.1749 255.1931,116.5099 259.8751,112.7759 C265.7321,108.1029 271.5391,103.3689 277.2171,98.4789 C277.3051,98.3859 277.3921,98.2929 277.4801,98.2009 C277.5321,98.1579 277.5841,98.1159 277.6371,98.0739 C277.5291,97.9529 277.4661,98.0509 277.3971,98.1229 C277.2931,98.1939 277.1891,98.2639 277.0851,98.3349 C276.8811,98.4479 276.6681,98.5469 276.4741,98.6749 C258.3161,110.6059 238.7821,119.7599 218.4981,127.3969 L218.4981,123.1049 C217.8101,123.6639 217.2121,124.0919 216.6831,124.5919 C215.6491,125.5699 214.4331,125.8019 213.0861,125.5729 C210.9121,125.2019 208.7431,124.8039 206.5651,124.4609 C206.0511,124.3799 205.7241,124.1499 205.4211,123.7569 C203.6761,121.4969 201.9091,119.2559 200.1631,116.9969 C199.9001,116.6569 199.4971,116.4039 199.4261,115.9279" id="Fill-10" fill="#DDDDDD" sketch:type="MSShapeGroup"></path>
            <path d="M68.6874,250.4879 C70.0924,249.1439 71.5004,247.8039 72.9024,246.4569 C87.3934,232.5319 102.9124,219.8429 119.1334,207.9989 C127.6844,201.7549 136.4134,195.7669 145.2224,189.8949 C145.4654,189.7339 145.6914,189.5459 145.9244,189.3699 C146.9384,188.6979 147.9514,188.0269 148.9654,187.3559 C151.3304,185.8039 153.7064,184.2689 156.0584,182.6979 C159.7814,180.2099 163.4874,177.6979 167.2014,175.1969 C167.9464,174.7019 168.6904,174.2069 169.4354,173.7119 C172.6914,171.5899 175.9474,169.4669 179.2034,167.3439 C180.4394,166.5589 181.6744,165.7729 182.9104,164.9869 C187.0634,162.4049 191.2164,159.8219 195.3684,157.2389 C197.8234,155.7339 200.2904,154.2499 202.7274,152.7179 C206.2584,150.4979 209.8454,148.3689 213.2964,146.0229 C214.4634,145.3799 215.5774,144.6519 216.6534,143.8659 C217.7014,145.3429 218.6174,146.9009 219.4554,148.5049 C218.9814,148.8439 218.5064,149.1839 218.0324,149.5239 C212.6654,152.9859 207.2984,156.4479 201.9314,159.9099 L189.0984,168.1469 C185.7724,170.1909 182.4774,172.2829 179.2394,174.4629 C175.9884,176.5389 172.7224,178.5899 169.4914,180.6969 C164.1624,184.1729 158.8564,187.6839 153.5424,191.1829 C153.3234,191.3269 153.1234,191.5009 152.9154,191.6609 C151.5924,192.4249 150.3484,193.3049 149.1164,194.2049 C144.0164,197.5559 139.0234,201.0639 134.0294,204.5689 C116.6934,216.7339 99.7204,229.3859 83.2324,242.6809 C79.3754,245.7909 75.5774,248.9749 71.7554,252.1289 C71.5324,252.3139 71.3444,252.5419 71.1394,252.7499 C66.9944,256.2029 62.9154,259.7319 58.9024,263.3389 C54.8964,266.9389 50.9954,270.6489 47.0504,274.6899 C47.1504,273.0149 47.2314,271.5909 47.3204,270.1679 C47.3454,269.7629 47.6984,269.5869 47.9474,269.3519 C54.5364,263.1419 61.2674,257.0889 68.0614,251.1039 C68.2814,250.9109 68.4794,250.6939 68.6874,250.4879" id="Fill-12" fill="#DDDDDD" sketch:type="MSShapeGroup"></path>
            <path d="M51.6134,174.5949 C46.7914,176.1859 42.0294,177.9389 37.3164,179.8259 C34.8924,180.7969 32.4904,181.8259 30.0814,182.8369 C29.7874,182.9609 29.5164,183.1399 29.2344,183.2929 C24.8704,185.1329 20.6744,187.3109 16.5454,189.6209 C15.1074,190.4249 13.6994,191.2829 12.2754,192.1119 C12.0564,192.2389 11.8664,192.4389 11.5524,192.3189 C10.5144,191.9219 9.4684,191.5479 8.3004,191.1199 C14.9174,187.0069 21.6894,183.4819 28.5364,180.0939 C33.2004,177.5399 37.8634,174.9859 42.6364,172.6399 C46.0364,170.9679 49.4534,169.3309 52.9174,167.7959 C52.9044,167.9999 52.9134,168.2079 52.8734,168.4069 C52.3484,171.0419 50.5574,172.6829 48.4334,174.0679 C48.2114,174.2129 47.8574,174.2289 47.8094,174.5949 L51.6134,174.5949 Z" id="Fill-14" fill="#DDDDDD" sketch:type="MSShapeGroup"></path>
            <path d="M344.7355,24.7996 C344.7005,24.8176 344.6675,24.8416 344.6305,24.8496 C344.6185,24.8526 344.5975,24.8156 344.5795,24.7976 C344.6145,24.7786 344.6475,24.7546 344.6845,24.7456 C344.6965,24.7436 344.7185,24.7806 344.7355,24.7996" id="Fill-16" fill="#EC1C25" sketch:type="MSShapeGroup"></path>
            <path d="M258.0248,157.1331 C255.5288,150.7601 253.0588,144.4531 250.5128,137.9511 C248.4768,144.4811 246.5108,150.7851 244.5318,157.1331 L258.0248,157.1331 Z M213.2958,146.0231 C209.8458,148.3681 206.2578,150.4981 202.7278,152.7181 C200.2908,154.2501 197.8228,155.7341 195.3688,157.2391 C193.4198,156.5001 191.4688,155.7691 189.5238,155.0221 C182.8788,152.4721 179.1568,147.6791 178.4608,140.5731 C178.4678,140.3381 178.4778,140.1021 178.4798,139.8671 C178.5198,134.3741 180.8728,130.1121 185.4228,127.0971 C189.1768,124.6091 193.4298,123.7981 197.8548,123.6881 C199.4058,123.6491 200.9548,123.7121 202.6988,123.9081 C202.0968,123.1331 201.6318,122.5021 201.1328,121.9001 C199.7458,120.2271 198.4908,118.4421 196.9428,116.9041 C196.7618,116.6721 196.5898,116.4331 196.4008,116.2091 C193.2778,112.5141 190.0718,108.8921 186.7478,105.3761 C177.2278,95.3091 167.1718,85.8321 155.9318,77.6811 C147.9578,71.8991 139.5418,66.9011 130.1428,63.7581 C124.7568,61.9581 119.2528,60.8711 113.5398,61.7141 C107.8568,62.5531 103.4568,65.3591 100.6548,70.4481 C98.0598,75.1641 97.4478,80.3161 97.5058,85.5891 C97.5798,92.3311 98.8668,98.8851 100.7118,105.3351 C104.6018,118.9351 110.3598,131.7441 117.2438,144.0691 C116.3838,144.4511 115.4938,144.7421 114.5748,144.9441 C109.2198,135.8731 104.4488,126.5221 100.8808,116.5861 C98.2038,109.1341 96.1288,101.5311 95.1648,93.6591 C94.3638,87.1211 94.2658,80.5901 95.9958,74.1601 C97.3978,68.9441 99.8988,64.4301 104.5638,61.3971 C107.5818,59.4351 110.9488,58.5521 114.5078,58.3691 C120.3878,58.0651 125.9808,59.4371 131.4418,61.4331 C140.2138,64.6381 148.2638,69.2191 155.9348,74.4931 C166.7008,81.8951 176.3818,90.5581 185.4068,99.9771 C190.3088,105.0931 194.9818,110.4101 199.4258,115.9281 C199.4968,116.4041 199.8998,116.6561 200.1628,116.9971 C201.9088,119.2561 203.6768,121.4971 205.4208,123.7561 C205.7248,124.1501 206.0508,124.3801 206.5658,124.4611 C208.7438,124.8041 210.9118,125.2021 213.0858,125.5721 C214.4338,125.8021 215.6488,125.5701 216.6838,124.5921 C217.2128,124.0921 217.8098,123.6641 218.4978,123.1051 L218.4978,127.3971 L218.4978,136.3031 C216.3688,134.7931 214.3588,133.3601 212.0278,132.4821 C211.9688,132.4601 211.8658,132.4101 211.8608,132.4191 C211.8038,132.5151 211.8848,132.5261 211.9518,132.5421 C214.1468,135.9141 216.3418,139.2871 218.5358,142.6601 C219.3938,144.2451 220.3378,145.7781 221.3378,147.2761 C221.5088,147.5841 221.6728,147.8941 221.8498,148.1981 C225.2418,154.0061 228.3938,159.9401 231.1648,166.0721 C231.8728,167.6381 232.5458,169.2211 233.2648,170.8661 C233.7328,170.3391 234.1128,169.8671 234.2888,169.2531 C236.9698,159.8961 239.6698,150.5451 242.3258,141.1811 C243.2248,138.0141 244.1208,134.8431 244.7428,131.6051 C248.2548,129.1351 251.7678,126.6661 255.2798,124.1961 C258.7898,124.2211 262.2998,124.2741 265.8098,124.2511 C266.5738,124.2461 266.9358,124.4481 267.2168,125.1821 C270.6718,134.1981 273.7978,143.3331 277.1138,152.3991 C279.2978,158.3691 281.5098,164.3291 283.8528,170.2401 C284.7628,172.5351 285.8998,174.6161 288.2348,175.8231 C278.0948,175.7231 267.9828,175.7921 258.0038,175.7431 C258.6398,175.0231 259.2398,174.2241 259.9588,173.5521 C261.7128,171.9171 262.1778,170.0211 261.3568,167.7751 C260.9328,166.6151 260.5448,165.4401 260.1838,164.2591 C260.0558,163.8421 259.8548,163.7131 259.4328,163.7141 C254.1218,163.7261 248.8108,163.7251 243.4998,163.7171 C243.1728,163.7161 242.9508,163.7761 242.8178,164.1141 C241.8618,166.5441 241.3228,169.0241 241.9518,171.6301 C242.3188,173.1451 243.0488,174.4621 244.3918,175.5521 C241.1908,175.7741 238.1358,175.6351 235.0078,175.7031 C235.5948,177.6181 236.1918,179.4741 236.7318,181.3461 C238.3128,186.8241 239.5668,192.3791 240.2328,198.0441 C240.9408,204.0641 241.1398,210.0891 239.5728,216.0311 C238.2638,220.9981 235.7878,225.1491 231.1398,227.6961 C227.5708,229.6531 223.6808,230.1301 219.6898,229.9671 C211.5458,229.6361 203.9888,227.0121 196.5458,223.9641 C196.1238,223.7911 196.1288,223.7781 195.8618,223.2391 C196.2118,223.0481 196.4868,223.3161 196.7538,223.4231 C201.9638,225.5271 207.2928,227.2351 212.8608,228.0791 C217.1698,228.7321 221.4928,228.8621 225.7248,227.5751 C232.0818,225.6421 235.7228,221.1361 237.4488,214.9081 C238.7488,210.2191 238.8148,205.4391 238.3978,200.6261 C237.6738,192.2861 235.4548,184.3041 232.6888,176.4461 C232.4688,175.8231 232.1878,175.5671 231.5078,175.5991 C230.3098,175.6571 229.1078,175.6161 227.6698,175.6161 C228.8548,174.6971 229.8328,173.9171 230.8358,173.1711 C231.2038,172.8981 231.2658,172.6581 231.0898,172.2181 C227.8108,164.0191 223.9418,156.1101 219.4558,148.5051 C218.6168,146.9011 217.7008,145.3431 216.6528,143.8661 C214.0018,139.4941 211.1288,135.2731 208.0808,131.1691 C208.0058,130.9111 207.7628,130.9281 207.5778,130.8831 C204.9178,130.2341 202.2408,129.9961 199.5318,130.5661 C198.0428,130.8801 196.6308,131.3781 195.4978,132.4281 C194.5448,133.3121 193.9358,134.3521 194.4388,135.7251 C194.7438,137.0251 195.6928,137.8201 196.7038,138.5411 C198.4038,139.7531 200.3618,140.4071 202.3238,141.0401 C206.1718,142.2811 209.8788,143.8331 213.2958,146.0231 L213.2958,146.0231 Z" id="Fill-18" fill="#FEFEFE" sketch:type="MSShapeGroup"></path>
            <path d="M201.9318,159.9102 C207.2988,156.4482 212.6658,152.9862 218.0318,149.5232 C219.6208,151.0332 221.0768,152.6532 222.1688,154.5692 C224.9378,159.4302 224.4638,164.3982 220.6598,168.5072 C216.7318,172.7502 211.7948,175.2942 206.1628,176.4362 C199.4168,177.8042 192.8458,176.8872 186.4248,174.6162 C185.8218,174.4032 185.4178,174.4452 184.9098,174.8192 C183.0658,176.1782 181.1898,177.4942 179.2388,179.0122 L179.2388,174.4632 C182.4778,172.2832 185.7728,170.1902 189.0988,168.1472 C191.0198,168.9552 193.0468,169.3222 195.1068,169.4642 C198.4878,169.6952 201.7538,169.2332 204.7928,167.6302 C205.4468,167.2842 206.0408,166.8872 206.3058,166.1092 C206.9358,164.2582 206.5938,162.9312 205.0628,161.7152 C204.1118,160.9592 203.0418,160.3962 201.9318,159.9102" id="Fill-20" fill="#FEFEFE" sketch:type="MSShapeGroup"></path>
            <path d="M149.1163,194.2045 C150.3483,193.3055 151.5923,192.4245 152.9153,191.6605 C155.2393,193.9785 157.8683,195.9265 160.4783,197.8975 C162.5953,199.4945 164.7813,201.0025 166.7833,202.7465 C167.6733,203.5215 168.5313,204.3345 169.1583,205.3515 C170.4663,207.4755 169.1543,210.0515 166.6483,210.2955 C165.2203,210.4355 163.9863,209.8965 162.8163,209.1835 C159.9073,207.4105 157.6183,204.9495 155.4133,202.4045 C153.1543,199.7955 151.1103,197.0185 149.1163,194.2045" id="Fill-22" fill="#FEFEFE" sketch:type="MSShapeGroup"></path>
            <path d="M109.235,251.3968 C112.81,251.2448 113.754,250.4958 113.931,246.5728 C114.218,247.4478 114.183,248.3088 114.306,249.1458 C114.36,249.5138 114.433,249.8028 114.832,249.9668 C115.477,250.2308 115.564,251.2408 116.532,251.1608 C117.251,251.1018 117.998,251.1808 118.808,251.4478 C118.35,251.4978 117.988,251.6008 117.64,251.5648 C116.257,251.4208 115.438,252.3448 114.536,253.1298 C114.317,253.3188 114.423,253.5648 114.372,253.7828 C114.176,254.6288 114.319,255.5338 114.002,256.3218 C113.479,255.1508 114.094,253.8358 112.861,252.6108 C111.671,251.4278 110.314,252.0488 109.235,251.3968" id="Fill-24" fill="#FEFEFE" sketch:type="MSShapeGroup"></path>
            <path d="M258.0483,228.5601 C257.9953,228.0921 257.8283,227.6031 257.9113,227.1601 C258.1853,225.6951 256.9963,225.0221 256.3373,224.0641 C256.1863,223.8451 255.9043,223.9251 255.6773,223.9001 C254.8933,223.8121 254.1083,223.7321 253.3153,223.6491 C254.4573,223.0401 255.8473,223.5711 257.0083,222.3571 C258.1553,221.1561 257.4203,219.7811 258.1163,218.7561 C258.1493,219.0901 258.2613,219.5081 258.2173,219.9081 C258.0673,221.2831 258.9273,222.1361 259.7293,223.0361 C259.8993,223.2271 260.0973,223.1831 260.2913,223.2021 C261.1403,223.2861 261.9893,223.3621 262.8453,223.4421 C262.4213,223.6481 261.9473,223.7771 261.4973,223.7121 C260.1193,223.5141 259.4883,224.6311 258.6023,225.2901 C258.4763,225.3831 258.4763,225.6681 258.4513,225.8691 C258.3383,226.7711 258.2363,227.6761 258.1313,228.5791 C258.1033,228.5731 258.0763,228.5661 258.0483,228.5601" id="Fill-26" fill="#FEFEFE" sketch:type="MSShapeGroup"></path>
            <path d="M275.0569,193.2121 C274.6519,193.2771 274.2299,193.4501 273.8449,193.3891 C272.4429,193.1661 271.7289,194.2261 270.8319,194.9331 C270.6879,195.0461 270.6809,195.3631 270.6529,195.5911 C270.5399,196.4951 270.4439,197.4021 270.2679,198.3061 C270.2289,197.9141 270.1139,197.5121 270.1649,197.1331 C270.3669,195.6561 269.4089,194.7501 268.5909,193.7641 C268.4259,193.5651 268.2179,193.6301 268.0259,193.6051 C267.2499,193.5031 266.4709,193.4161 265.6219,193.2081 C269.1119,193.4351 270.3239,191.5311 270.3349,188.4361 C270.3619,188.7621 270.4349,189.0931 270.4069,189.4141 C270.2859,190.8191 271.0479,191.7921 271.9459,192.7171 C272.1469,192.9241 272.3719,192.8831 272.5959,192.9051 C273.4159,192.9861 274.2369,193.0571 275.0579,193.1311 C275.0579,193.1581 275.0569,193.1851 275.0569,193.2121" id="Fill-28" fill="#FEFEFE" sketch:type="MSShapeGroup"></path>
            <path d="M235.1988,203.547 C235.9638,203.568 236.5908,204.237 236.5568,204.994 C236.5248,205.71 235.8828,206.331 235.1718,206.337 C234.4338,206.342 233.7528,205.659 233.7618,204.922 C233.7708,204.169 234.4428,203.526 235.1988,203.547" id="Fill-30" fill="#FEFEFE" sketch:type="MSShapeGroup"></path>
            <path d="M256.7684,194.4985 C256.7584,195.2725 256.1104,195.9055 255.3564,195.8785 C254.6384,195.8525 254.0224,195.2255 254.0094,194.5065 C253.9964,193.7435 254.6294,193.0975 255.3934,193.0945 C256.1684,193.0915 256.7784,193.7155 256.7684,194.4985" id="Fill-32" fill="#FEFEFE" sketch:type="MSShapeGroup"></path>
            <path d="M274.9047,204.0602 C274.1357,204.0422 273.5347,203.3982 273.5607,202.6192 C273.5857,201.8852 274.1967,201.2792 274.9187,201.2722 C275.6617,201.2642 276.3327,201.9342 276.3267,202.6772 C276.3217,203.4292 275.6537,204.0772 274.9047,204.0602" id="Fill-34" fill="#FEFEFE" sketch:type="MSShapeGroup"></path>
            <path d="M236.7331,195.1642 C236.7421,195.9092 236.0731,196.5782 235.3261,196.5712 C234.6151,196.5652 233.9711,195.9412 233.9401,195.2292 C233.9061,194.4762 234.5391,193.8122 235.3061,193.7952 C236.0791,193.7782 236.7241,194.3972 236.7331,195.1642" id="Fill-36" fill="#FEFEFE" sketch:type="MSShapeGroup"></path>
            <path d="M125.428,224.8282 C125.413,225.5992 124.762,226.2222 124.003,226.1902 C123.234,226.1572 122.652,225.5092 122.687,224.7252 C122.72,223.9902 123.339,223.3942 124.061,223.3992 C124.815,223.4042 125.443,224.0612 125.428,224.8282" id="Fill-38" fill="#FEFEFE" sketch:type="MSShapeGroup"></path>
            <path d="M156.8051,236.1125 C156.2391,236.0205 155.8251,235.6745 155.8191,234.9665 C155.8141,234.3565 156.3571,233.8405 156.9561,233.8555 C157.5471,233.8695 158.0781,234.4255 158.0661,235.0155 C158.0531,235.6125 157.5091,236.1275 156.8051,236.1125" id="Fill-40" fill="#FEFEFE" sketch:type="MSShapeGroup"></path>
            <path d="M224.4005,203.8831 C223.7965,203.8611 223.2835,203.3161 223.3055,202.7191 C223.3265,202.1281 223.8885,201.5981 224.4725,201.6191 C225.0605,201.6401 225.5885,202.2061 225.5675,202.7921 C225.5465,203.3931 224.9995,203.9051 224.4005,203.8831" id="Fill-42" fill="#FEFEFE" sketch:type="MSShapeGroup"></path>
            <path d="M110.0511,236.2876 C109.4831,236.1896 109.0751,235.8366 109.0771,235.1296 C109.0781,234.5186 109.6241,234.0096 110.2231,234.0316 C110.8161,234.0526 111.3371,234.6106 111.3171,235.2026 C111.2971,235.7996 110.7481,236.3106 110.0511,236.2876" id="Fill-44" fill="#FEFEFE" sketch:type="MSShapeGroup"></path>
            <path d="M266.7408,205.3043 C266.8428,204.6893 267.1868,204.2403 267.8908,204.2603 C268.5818,204.2793 268.9648,204.6943 268.9778,205.3913 C268.9898,206.0013 268.4448,206.5203 267.8488,206.5063 C267.2528,206.4923 266.7288,205.9453 266.7408,205.3043" id="Fill-46" fill="#FEFEFE" sketch:type="MSShapeGroup"></path>
            <path d="M265.6442,224.7986 C264.9552,224.7416 264.5242,224.3996 264.4962,223.7016 C264.4682,222.9936 264.8992,222.6126 265.5662,222.5406 C266.1602,222.4756 266.7112,223.0156 266.7102,223.6296 C266.7092,224.3306 266.3142,224.6956 265.6442,224.7986" id="Fill-48" fill="#FEFEFE" sketch:type="MSShapeGroup"></path>
            <path d="M255.4077,216.1037 C255.9747,216.1657 256.4027,216.5017 256.4117,217.2097 C256.4217,217.9237 255.9837,218.2867 255.3187,218.3417 C254.7227,218.3927 254.1887,217.8347 254.1837,217.2317 C254.1797,216.6197 254.6827,216.1097 255.4077,216.1037" id="Fill-50" fill="#FEFEFE" sketch:type="MSShapeGroup"></path>
            <path d="M183.9908,226.5513 C183.3188,226.4643 182.8738,226.1253 182.8658,225.4263 C182.8578,224.7313 183.2738,224.3023 183.9538,224.2953 C184.6278,224.2873 185.0588,224.6863 185.0718,225.3923 C185.0848,226.1023 184.6508,226.4413 183.9908,226.5513" id="Fill-52" fill="#FEFEFE" sketch:type="MSShapeGroup"></path>
            <path d="M229.6597,247.6227 C230.3477,247.7077 230.7727,248.0687 230.7777,248.7607 C230.7817,249.4597 230.3447,249.8787 229.6727,249.8777 C229.0057,249.8767 228.5707,249.4737 228.5697,248.7637 C228.5697,248.0537 229.0037,247.7197 229.6597,247.6227" id="Fill-54" fill="#FEFEFE" sketch:type="MSShapeGroup"></path>
            <path d="M124.7599,238.1009 C124.8479,237.4459 125.1979,237.0029 125.8989,237.0179 C126.5889,237.0319 126.9739,237.4479 126.9889,238.1459 C127.0029,238.7599 126.4669,239.3069 125.8699,239.2599 C125.1909,239.2069 124.8139,238.8069 124.7599,238.1009" id="Fill-56" fill="#FEFEFE" sketch:type="MSShapeGroup"></path>
            <path d="M224.4154,219.5643 C223.8114,219.5513 223.2644,219.0133 223.3144,218.4173 C223.3714,217.7413 223.7524,217.3253 224.4574,217.3363 C225.1664,217.3483 225.5254,217.7883 225.5594,218.4603 C225.5894,219.0533 225.0124,219.5773 224.4154,219.5643" id="Fill-58" fill="#FEFEFE" sketch:type="MSShapeGroup"></path>
            <path d="M252.7815,186.4836 C253.5475,186.5296 253.9655,186.8876 253.9685,187.5826 C253.9725,188.2686 253.5825,188.6856 252.8815,188.6916 C252.1875,188.6976 251.7865,188.3086 251.7705,187.6106 C251.7535,186.8956 252.1915,186.5726 252.7815,186.4836" id="Fill-60" fill="#FEFEFE" sketch:type="MSShapeGroup"></path>
            <path d="M51.6134,174.5949 L47.8094,174.5949 C47.8574,174.2289 48.2114,174.2129 48.4334,174.0679 C50.5574,172.6829 52.3484,171.0419 52.8734,168.4069 C52.9134,168.2079 52.9044,167.9999 52.9174,167.7959 C52.8794,163.9049 52.8094,160.0129 52.8104,156.1219 C52.8104,147.5979 52.8314,139.0739 52.8864,130.5509 C52.8934,129.3649 52.6184,128.3649 51.8504,127.4629 C50.8564,126.2959 49.8984,125.0979 48.9424,123.8989 C48.7934,123.7119 48.4444,123.5489 48.6154,123.2509 C48.7644,122.9919 49.0974,123.1009 49.3514,123.1019 C55.1614,123.1169 60.9714,123.1379 66.7824,123.1569 C67.6964,123.1609 68.6164,123.2279 69.5234,123.1469 C70.3544,123.0729 70.7974,123.4229 71.2104,124.0939 C75.7674,131.4929 80.1004,139.0239 84.4704,146.5339 C85.8624,148.9259 87.2514,151.3199 88.6424,153.7129 C88.9664,154.3209 89.2914,154.9289 89.7094,155.7109 L89.7094,153.3359 C89.6814,148.1459 89.6514,142.9559 89.6274,137.7659 C89.6164,135.4349 89.5734,133.1039 89.6334,130.7749 C89.6614,129.6779 89.3294,128.7659 88.7394,127.8869 C87.8004,126.4879 86.7194,125.2019 85.6394,123.9149 C85.5134,123.7649 85.3914,123.6109 85.1614,123.3279 C90.4354,123.3319 95.5504,123.3169 100.7564,123.4769 C100.3894,124.1879 99.8944,124.7279 99.3494,125.1709 C97.3504,126.7979 96.7544,128.8409 96.8104,131.4049 C96.9434,137.5359 96.8044,143.6739 96.7794,149.8099 C96.7784,150.1619 96.8124,150.5139 96.8294,150.8659 C96.7494,154.4119 96.7994,157.9579 96.8744,161.5039 C96.8754,163.5949 96.8644,165.6869 96.8834,167.7789 C96.8914,168.6919 97.2404,169.5069 97.7904,170.2219 C98.8324,171.5759 99.8974,172.9109 100.9484,174.2589 C101.1414,174.5069 101.3084,174.7739 101.4914,175.0379 C101.2174,175.2879 100.9414,175.1819 100.6974,175.1819 C93.9764,175.1889 87.2564,175.1799 80.5364,175.2009 C79.9344,175.2029 79.6024,175.0279 79.2914,174.4939 C77.9014,172.1029 76.4534,169.7449 75.0264,167.3749 C73.6264,165.0209 72.2254,162.6659 70.8254,160.3109 C70.7654,160.1779 70.7174,160.0379 70.6444,159.9139 C67.0804,153.8519 63.5144,147.7919 59.9454,141.7329 C59.8944,141.6459 59.8594,141.5039 59.6104,141.5809 C59.6104,142.7559 59.6264,143.9589 59.6074,145.1619 C59.5014,151.7019 59.4944,158.2409 59.7364,164.7789 C59.6454,167.2009 59.9824,169.4889 61.7944,171.3119 C62.6784,172.3189 63.5614,173.3269 64.4444,174.3339 C64.4364,174.4209 64.4284,174.5079 64.4204,174.5949 L51.6134,174.5949 Z" id="Fill-62" fill="#FEFEFE" sketch:type="MSShapeGroup"></path>
            <path d="M96.8749,161.5034 C96.7989,157.9574 96.7499,154.4124 96.8299,150.8664 C102.6719,148.9394 108.5139,147.0124 114.3549,145.0834 C114.4349,145.0564 114.5019,144.9914 114.5749,144.9444 C115.4939,144.7424 116.3839,144.4514 117.2439,144.0694 C119.8399,143.2434 122.4359,142.4174 125.0319,141.5914 C124.6749,142.9234 124.3429,144.2634 123.9549,145.5884 C122.9809,148.9154 122.1069,152.2734 121.0029,155.5624 C116.0679,156.7704 111.1309,157.9754 106.1969,159.1884 C103.0879,159.9534 99.9819,160.7314 96.8749,161.5034" id="Fill-64" fill="#DDDDDD" sketch:type="MSShapeGroup"></path>
            <path d="M192.9207,42.439 C192.5717,41.616 192.6897,40.686 192.5307,39.803 C192.4637,39.435 192.4417,39.105 192.0077,39.002 C191.9537,38.989 191.8877,38.952 191.8627,38.906 C191.0197,37.396 189.4887,37.773 188.1167,37.546 C189.2467,36.917 190.5917,37.497 191.7087,36.317 C192.8097,35.155 192.3137,33.923 192.8047,32.783 C193.3427,33.9 192.8197,35.257 194.0077,36.379 C195.2087,37.513 196.4837,36.893 197.5807,37.379 C196.8427,37.654 195.9777,37.633 195.1427,37.771 C194.7677,37.833 194.4487,37.879 194.3427,38.302 C194.3367,38.329 194.3177,38.361 194.2957,38.375 C192.7077,39.364 193.2167,41.031 192.9207,42.439" id="Fill-66" fill="#FEFEFE" sketch:type="MSShapeGroup"></path>
            <path d="M194.5158,68.6669 C194.5138,69.4299 193.8708,70.0559 193.1018,70.0439 C192.3248,70.0319 191.7318,69.4039 191.7548,68.6179 C191.7768,67.8809 192.3768,67.2819 193.1068,67.2699 C193.8548,67.2569 194.5178,67.9149 194.5158,68.6669" id="Fill-68" fill="#FEFEFE" sketch:type="MSShapeGroup"></path>
            <path d="M158.066,38.6754 C158.078,39.4164 157.407,40.0934 156.666,40.0904 C155.943,40.0874 155.322,39.4844 155.291,38.7564 C155.257,37.9864 155.863,37.3264 156.628,37.2994 C157.371,37.2744 158.054,37.9274 158.066,38.6754" id="Fill-70" fill="#FEFEFE" sketch:type="MSShapeGroup"></path>
            <path d="M172.7048,42.0103 C171.9538,42.0013 171.3198,41.3373 171.3358,40.5763 C171.3518,39.8103 172.0078,39.1973 172.7748,39.2293 C173.5198,39.2613 174.0848,39.8523 174.0878,40.6033 C174.0918,41.3793 173.4628,42.0193 172.7048,42.0103" id="Fill-72" fill="#FEFEFE" sketch:type="MSShapeGroup"></path>
            <path d="M141.1451,58.8414 C141.0601,59.5034 140.7061,59.9134 140.0081,59.9364 C139.4061,59.9574 138.8721,59.4054 138.8771,58.8134 C138.8821,58.2254 139.4381,57.6464 140.0191,57.6934 C140.6921,57.7464 141.0821,58.1354 141.1451,58.8414" id="Fill-74" fill="#FEFEFE" sketch:type="MSShapeGroup"></path>
            <path d="M166.2741,23.4416 C166.1871,24.0946 165.8581,24.5356 165.1501,24.5476 C164.4411,24.5586 164.0641,24.1376 164.0061,23.4636 C163.9551,22.8676 164.5081,22.3056 165.1121,22.3276 C165.7981,22.3536 166.1761,22.7496 166.2741,23.4416" id="Fill-76" fill="#FEFEFE" sketch:type="MSShapeGroup"></path>
            <path d="M173.921,56.7824 C173.839,57.4374 173.478,57.8454 172.776,57.8284 C172.07,57.8124 171.689,57.3744 171.699,56.6984 C171.709,56.0064 172.15,55.6024 172.832,55.6194 C173.515,55.6364 173.883,56.0624 173.921,56.7824" id="Fill-78" fill="#FEFEFE" sketch:type="MSShapeGroup"></path>
            <path d="M142.8901,52.2202 C142.8791,52.8112 142.3231,53.3462 141.7351,53.3312 C141.1371,53.3162 140.5781,52.7642 140.6311,52.1772 C140.6911,51.5032 141.0731,51.0962 141.7781,51.0882 C142.3941,51.0802 142.9021,51.6142 142.8901,52.2202" id="Fill-80" fill="#FEFEFE" sketch:type="MSShapeGroup"></path>
            <path d="M139.5638,49.8984 C139.5238,50.6124 139.1378,50.9994 138.4628,51.0594 C137.8748,51.1104 137.3228,50.5504 137.3108,49.9554 C137.2988,49.3614 137.8268,48.7864 138.4208,48.8104 C139.1038,48.8384 139.4918,49.2214 139.5638,49.8984" id="Fill-82" fill="#FEFEFE" sketch:type="MSShapeGroup"></path>
            <path d="M161.7123,50.2794 C161.6583,50.9884 161.2643,51.4034 160.5883,51.3994 C159.9103,51.3954 159.4803,50.9704 159.4883,50.2754 C159.4973,49.5874 159.9133,49.1634 160.6033,49.1684 C161.2913,49.1734 161.6623,49.5964 161.7123,50.2794" id="Fill-84" fill="#FEFEFE" sketch:type="MSShapeGroup"></path>
            <path d="M145.0414,55.5788 C144.4334,55.5298 143.9834,55.2078 143.9674,54.4998 C143.9514,53.8058 144.3374,53.3938 145.0374,53.3668 C145.7474,53.3388 146.1274,53.7598 146.1974,54.4278 C146.2604,55.0268 145.7244,55.5578 145.0414,55.5788" id="Fill-86" fill="#FEFEFE" sketch:type="MSShapeGroup"></path>
            <path d="M89.7096,153.3358 L89.7096,155.7108 C89.2916,154.9288 88.9666,154.3208 88.6416,153.7128 C88.9976,153.5868 89.3536,153.4618 89.7096,153.3358" id="Fill-88" fill="#EC1C25" sketch:type="MSShapeGroup"></path>
            <path d="M128.5197,153.6355 C128.2567,154.4125 128.0007,155.1905 127.7277,155.9645 C127.5857,156.3685 127.7337,156.4775 128.1307,156.4775 C132.2517,156.4685 136.3737,156.4675 140.4947,156.4785 C140.9537,156.4795 141.0707,156.3475 140.8957,155.9155 C140.2437,154.3095 139.6067,152.6985 138.9647,151.0895 C138.6837,150.3475 138.4137,149.6005 138.1217,148.8625 C136.7677,145.4445 135.4077,142.0295 134.0507,138.6135 C133.9977,138.1825 133.8007,137.8075 133.5927,137.3965 C133.3367,137.8945 133.1957,138.3875 133.1137,138.9005 C132.6247,140.4095 132.1187,141.9135 131.6497,143.4285 C130.5967,146.8275 129.5617,150.2325 128.5197,153.6355 M121.0027,155.5625 C122.1067,152.2725 122.9807,148.9155 123.9547,145.5875 C124.3427,144.2635 124.6747,142.9235 125.0327,141.5905 C126.2277,137.7085 127.2237,133.7735 128.0807,129.8035 C128.1927,129.2875 127.9807,128.8785 127.7517,128.4705 C126.9047,126.9655 125.7557,125.7005 124.5597,124.4725 C124.3037,124.2085 123.9487,124.0105 123.8737,123.6035 C124.0247,123.4235 124.2137,123.4985 124.3757,123.4995 C132.6667,123.5225 140.9577,123.5585 149.2487,123.5655 C149.8157,123.5655 150.0057,123.8165 150.1767,124.2725 C151.1917,126.9725 152.2267,129.6645 153.2547,132.3585 C154.9067,136.9655 156.5597,141.5725 158.2127,146.1795 C161.1527,154.4755 164.1487,162.7505 167.4997,170.8925 C167.9407,171.9655 168.5637,172.9275 169.4357,173.7125 C168.6907,174.2075 167.9457,174.7015 167.2017,175.1965 C167.0257,175.1815 166.8497,175.1545 166.6737,175.1545 C158.7387,175.1195 150.8047,175.0865 142.8697,175.0545 C142.2097,175.0515 141.5487,175.0535 140.6837,175.0535 C141.8697,173.9155 142.9627,173.0195 143.8407,171.9095 C144.6957,170.8265 145.0297,169.6515 144.7127,168.2745 C144.3347,166.6335 143.7007,165.0775 143.2247,163.4705 C143.0897,163.0115 142.7737,163.0185 142.4067,163.0205 C140.7847,163.0285 139.1617,163.0235 137.5397,163.0235 L129.7667,163.0235 C135.9777,171.4275 142.6537,179.2485 148.9647,187.3555 C147.9517,188.0265 146.9377,188.6985 145.9247,189.3695 C140.7337,183.0315 135.6257,176.6275 130.8497,169.9675 C129.4077,167.9565 127.9987,165.9215 126.5727,163.8995 C126.4077,163.6645 126.2297,163.4385 126.0367,163.1805 C124.2927,166.9135 123.9757,171.7445 127.3937,174.8855 C121.8447,175.1065 116.4207,174.9515 110.9767,174.8745 C111.0057,174.5155 111.3137,174.4645 111.4997,174.3165 C112.1677,173.7845 112.8477,173.2665 113.5357,172.7605 C115.8867,171.0335 117.5167,168.9215 118.1397,165.9315 C118.8097,162.7145 119.9037,159.5865 120.8087,156.4195 C120.8887,156.1375 120.9387,155.8475 121.0027,155.5625" id="Fill-90" fill="#FEFEFE" sketch:type="MSShapeGroup"></path>
            <path d="M70.825,160.3112 C72.226,162.6662 73.626,165.0202 75.027,167.3752 C70.599,168.6312 66.168,169.8732 61.795,171.3112 C59.982,169.4892 59.645,167.2012 59.736,164.7782 C63.432,163.2892 67.129,161.8002 70.825,160.3112" id="Fill-92" fill="#DDDDDD" sketch:type="MSShapeGroup"></path>
            <path d="M83.5798,224.3148 C83.5568,225.0758 82.8878,225.6988 82.1298,225.6658 C81.4118,225.6338 80.7938,224.9968 80.7908,224.2848 C80.7868,223.5418 81.4618,222.8728 82.2048,222.8808 C82.9518,222.8878 83.6028,223.5668 83.5798,224.3148" id="Fill-94" fill="#FEFEFE" sketch:type="MSShapeGroup"></path>
            <path d="M116.5336,205.2375 C116.5556,206.0085 115.9366,206.6695 115.1806,206.6835 C114.4386,206.6975 113.7656,206.0315 113.7666,205.2835 C113.7676,204.5605 114.3676,203.9325 115.0906,203.8975 C115.8616,203.8605 116.5116,204.4635 116.5336,205.2375" id="Fill-96" fill="#FEFEFE" sketch:type="MSShapeGroup"></path>
            <path d="M78.5258,210.6764 C79.2828,210.6754 79.9068,211.3204 79.8988,212.0954 C79.8898,212.8754 79.2628,213.4794 78.4858,213.4564 C77.7498,213.4344 77.1598,212.8354 77.1488,212.0984 C77.1378,211.3364 77.7758,210.6774 78.5258,210.6764" id="Fill-98" fill="#FEFEFE" sketch:type="MSShapeGroup"></path>
            <path d="M63.1374,214.5082 C62.5644,214.4112 62.1554,214.0602 62.1564,213.3522 C62.1564,212.7392 62.6994,212.2322 63.3004,212.2522 C63.8944,212.2722 64.4194,212.8302 64.3994,213.4202 C64.3794,214.0142 63.8284,214.5292 63.1374,214.5082" id="Fill-100" fill="#FEFEFE" sketch:type="MSShapeGroup"></path>
            <path d="M115.8383,178.952 C115.7473,179.6 115.3863,180.011 114.6843,179.99 C113.9753,179.968 113.6303,179.513 113.6083,178.843 C113.5883,178.24 114.1643,177.702 114.7613,177.762 C115.4343,177.83 115.8143,178.221 115.8383,178.952" id="Fill-102" fill="#FEFEFE" sketch:type="MSShapeGroup"></path>
            <path d="M100.3896,217.6708 C101.0946,217.7218 101.5086,218.0818 101.5196,218.7738 C101.5306,219.4708 101.1186,219.8838 100.4326,219.8908 C99.7516,219.8968 99.3286,219.5078 99.3206,218.8018 C99.3116,218.0978 99.7236,217.7468 100.3896,217.6708" id="Fill-104" fill="#FEFEFE" sketch:type="MSShapeGroup"></path>
            <path d="M76.6652,218.7179 C77.4102,218.7919 77.8152,219.1699 77.8002,219.8579 C77.7852,220.5449 77.3742,220.9459 76.6742,220.9289 C75.9792,220.9109 75.5922,220.5089 75.5992,219.8109 C75.6062,219.0969 76.0502,218.7829 76.6652,218.7179" id="Fill-106" fill="#FEFEFE" sketch:type="MSShapeGroup"></path>
            <path d="M212.0287,132.4818 C214.3587,133.3608 216.3687,134.7928 218.4977,136.3028 L218.4977,127.3968 C238.7827,119.7598 258.3157,110.6068 276.4737,98.6748 C276.6677,98.5478 276.8807,98.4478 277.0847,98.3348 C277.1287,98.3828 277.1737,98.4308 277.2177,98.4788 C271.5387,103.3688 265.7317,108.1038 259.8747,112.7758 C255.1937,116.5098 250.4587,120.1758 245.6547,123.7498 C245.4197,123.9248 245.1657,124.0748 244.9207,124.2368 L240.7457,124.2368 C241.2127,125.0388 241.9047,125.4928 242.4047,126.1108 C239.8337,128.1308 237.1467,129.9908 234.4787,131.8748 C229.2367,135.5758 223.9537,139.2178 218.5357,142.6598 C216.3417,139.2868 214.1467,135.9148 211.9517,132.5418 C211.9767,132.5208 212.0027,132.5008 212.0287,132.4818" id="Fill-108" fill="#B1B1B1" sketch:type="MSShapeGroup"></path>
            <path d="M244.7427,131.6053 C244.1207,134.8433 243.2247,138.0143 242.3257,141.1813 C239.6697,150.5453 236.9697,159.8963 234.2887,169.2533 C234.1127,169.8673 233.7327,170.3393 233.2657,170.8653 C232.5457,169.2213 231.8737,167.6383 231.1657,166.0723 C228.3937,159.9403 225.2417,154.0063 221.8497,148.1983 C221.6727,147.8943 221.5087,147.5843 221.3387,147.2763 C228.9687,142.3243 236.5067,137.2333 243.9977,132.0743 C244.2397,131.9083 244.4937,131.7613 244.7427,131.6053" id="Fill-110" fill="#B1B1B1" sketch:type="MSShapeGroup"></path>
            <path d="M242.4044,126.1108 C241.9054,125.4928 241.2124,125.0388 240.7464,124.2368 L244.9214,124.2368 C244.1324,124.9288 243.2984,125.5598 242.4044,126.1108" id="Fill-112" fill="#FEFEFE" sketch:type="MSShapeGroup"></path>
            <path d="M277.085,98.3349 C277.189,98.2639 277.293,98.1939 277.397,98.1229 C277.425,98.1489 277.453,98.1749 277.48,98.2009 C277.392,98.2929 277.305,98.3859 277.217,98.4789 C277.173,98.4309 277.129,98.3829 277.085,98.3349" id="Fill-114" fill="#0066B1" sketch:type="MSShapeGroup"></path>
            <path d="M277.3973,98.1231 C277.4653,98.0511 277.5283,97.9531 277.6363,98.0741 C277.5843,98.1161 277.5323,98.1581 277.4803,98.2001 C277.4523,98.1741 277.4253,98.1491 277.3973,98.1231" id="Fill-116" fill="#0066B1" sketch:type="MSShapeGroup"></path>
            <path d="M169.4353,173.7122 C168.5633,172.9282 167.9413,171.9652 167.4993,170.8932 C164.1483,162.7512 161.1523,154.4752 158.2123,146.1792 C158.3233,146.1372 158.4303,146.0852 158.5443,146.0552 C165.2063,144.3142 171.8403,142.4682 178.4613,140.5732 C179.1573,147.6792 182.8783,152.4722 189.5233,155.0222 C191.4683,155.7692 193.4203,156.5002 195.3683,157.2392 C191.2163,159.8212 187.0633,162.4042 182.9103,164.9872 C181.5793,164.1482 180.4253,163.0712 179.2033,162.1012 L179.2033,167.3442 C175.9473,169.4672 172.6913,171.5892 169.4353,173.7122" id="Fill-118" fill="#B1B1B1" sketch:type="MSShapeGroup"></path>
            <path d="M148.965,187.3556 C142.654,179.2486 135.977,171.4276 129.766,163.0236 L137.54,163.0236 C139.162,163.0236 140.785,163.0286 142.407,163.0206 C142.774,163.0186 143.09,163.0116 143.225,163.4706 C143.701,165.0776 144.335,166.6336 144.713,168.2746 C145.03,169.6516 144.696,170.8266 143.84,171.9096 C142.963,173.0196 141.87,173.9156 140.683,175.0536 C141.549,175.0536 142.209,175.0516 142.87,175.0546 C150.804,175.0866 158.739,175.1196 166.674,175.1546 C166.85,175.1546 167.025,175.1816 167.201,175.1966 C163.488,177.6986 159.781,180.2106 156.058,182.6976 C153.706,184.2696 151.33,185.8046 148.965,187.3556" id="Fill-120" fill="#B1B1B1" sketch:type="MSShapeGroup"></path>
            <path d="M208.0803,131.169 C211.1283,135.273 214.0023,139.494 216.6533,143.866 C215.5773,144.652 214.4633,145.38 213.2963,146.023 C209.8793,143.833 206.1723,142.281 202.3243,141.04 C200.3613,140.407 198.4043,139.754 196.7043,138.541 C195.6933,137.82 194.7443,137.025 194.4383,135.725 C199.0053,134.264 203.5673,132.789 208.0803,131.169" id="Fill-122" fill="#B1B1B1" sketch:type="MSShapeGroup"></path>
            <path d="M201.9318,159.9102 C203.0418,160.3962 204.1118,160.9592 205.0628,161.7152 C206.5938,162.9312 206.9358,164.2582 206.3058,166.1092 C206.0408,166.8872 205.4468,167.2842 204.7928,167.6302 C201.7538,169.2332 198.4878,169.6952 195.1068,169.4642 C193.0468,169.3222 191.0198,168.9552 189.0988,168.1472 C193.3758,165.4012 197.6538,162.6562 201.9318,159.9102" id="Fill-124" fill="#B1B1B1" sketch:type="MSShapeGroup"></path>
            <path d="M179.2036,167.3444 L179.2036,162.1014 C180.4256,163.0714 181.5796,164.1474 182.9106,164.9874 C181.6746,165.7734 180.4396,166.5584 179.2036,167.3444" id="Fill-126" fill="#FEFEFE" sketch:type="MSShapeGroup"></path>
            <path d="M113.6413,76.1745 C113.0073,76.2475 112.5703,76.5825 112.5753,77.2845 C112.5793,77.9725 112.9713,78.3835 113.6703,78.3855 C114.3663,78.3875 114.7653,77.9925 114.7723,77.2955 C114.7793,76.5925 114.3623,76.2445 113.6413,76.1745 M119.6943,83.2095 C119.6903,82.6155 119.1483,82.0825 118.5533,82.0855 C117.9613,82.0885 117.4203,82.6335 117.4243,83.2225 C117.4273,83.8095 117.9793,84.3555 118.5663,84.3515 C119.1543,84.3475 119.6983,83.7965 119.6943,83.2095 M127.9363,84.8015 C128.0103,84.4095 128.0493,84.2095 128.0863,84.0095 C128.3213,82.7395 128.0203,81.2915 129.4403,80.4265 C129.7073,80.2645 129.8753,79.9835 130.2633,79.9295 C131.0593,79.8175 131.8883,79.8485 132.7033,79.5065 C131.8143,79.4225 130.9943,79.3495 130.1753,79.2625 C129.9833,79.2425 129.7663,79.3145 129.6123,79.1065 C128.9293,78.1835 127.8703,77.4665 128.1133,76.0625 C128.1803,75.6755 128.0263,75.2505 127.9743,74.8425 C128.0893,78.1715 126.4733,79.7785 123.0743,79.6235 C123.8943,79.7845 124.6263,79.8605 125.3563,79.9465 C125.6423,79.9805 126.0123,79.8655 126.1923,80.1245 C126.8373,81.0535 128.0383,81.6755 127.7793,83.1195 C127.6943,83.5925 127.8633,84.1115 127.9363,84.8015 M153.2543,132.3585 C152.2263,129.6645 151.1913,126.9725 150.1773,124.2725 C150.0053,123.8165 149.8163,123.5655 149.2483,123.5655 C140.9573,123.5585 132.6663,123.5225 124.3763,123.4995 C124.2143,123.4985 124.0253,123.4235 123.8733,123.6035 C123.9493,124.0105 124.3033,124.2085 124.5593,124.4725 C125.7553,125.7005 126.9053,126.9655 127.7513,128.4705 C127.9813,128.8785 128.1923,129.2875 128.0813,129.8035 C127.2233,133.7745 126.2273,137.7085 125.0323,141.5905 C122.4363,142.4175 119.8403,143.2435 117.2443,144.0695 C110.3603,131.7445 104.6013,118.9355 100.7113,105.3355 C98.8663,98.8855 97.5803,92.3305 97.5063,85.5895 C97.4483,80.3155 98.0593,75.1645 100.6553,70.4485 C103.4563,65.3585 107.8563,62.5525 113.5403,61.7145 C119.2533,60.8715 124.7573,61.9575 130.1433,63.7585 C139.5413,66.9015 147.9573,71.8995 155.9323,77.6815 C167.1713,85.8315 177.2273,95.3095 186.7473,105.3765 C190.0723,108.8915 193.2773,112.5145 196.4003,116.2095 C196.5903,116.4335 196.7623,116.6715 196.9423,116.9035 C185.5523,121.2385 174.0463,125.2495 162.5103,129.1765 C159.4213,130.2275 156.3393,131.2975 153.2543,132.3585" id="Fill-128" fill="#B1B1B1" sketch:type="MSShapeGroup"></path>
            <path d="M153.2543,132.3588 C156.3393,131.2978 159.4213,130.2278 162.5093,129.1758 C174.0463,125.2498 185.5523,121.2388 196.9423,116.9038 C198.4913,118.4418 199.7463,120.2268 201.1333,121.8998 C201.6323,122.5018 202.0963,123.1328 202.6993,123.9078 C200.9553,123.7118 199.4063,123.6488 197.8553,123.6878 C193.4303,123.7988 189.1773,124.6088 185.4223,127.0968 C180.8723,130.1118 178.5193,134.3738 178.4793,139.8668 C178.4773,140.1028 178.4673,140.3378 178.4613,140.5728 C171.8403,142.4678 165.2063,144.3148 158.5433,146.0558 C158.4303,146.0848 158.3233,146.1378 158.2123,146.1798 C156.5593,141.5728 154.9073,136.9658 153.2543,132.3588" id="Fill-130" fill="#DDDDDD" sketch:type="MSShapeGroup"></path>
            <path d="M258.0248,157.1331 L244.5318,157.1331 C246.5108,150.7851 248.4768,144.4811 250.5128,137.9511 C253.0588,144.4531 255.5288,150.7601 258.0248,157.1331" id="Fill-132" fill="#B1B1B1" sketch:type="MSShapeGroup"></path>
            <path d="M208.0803,131.169 C203.5673,132.789 199.0053,134.264 194.4383,135.725 C193.9353,134.352 194.5453,133.312 195.4973,132.429 C196.6313,131.378 198.0433,130.88 199.5313,130.566 C202.2403,129.996 204.9173,130.234 207.5773,130.883 C207.7633,130.928 208.0063,130.911 208.0803,131.169" id="Fill-134" fill="#B1B1B1" sketch:type="MSShapeGroup"></path>
            <path d="M211.952,132.5416 C211.885,132.5256 211.804,132.5156 211.861,132.4186 C211.866,132.4106 211.969,132.4606 212.028,132.4826 C212.002,132.5006 211.977,132.5206 211.952,132.5416" id="Fill-136" fill="#0066B1" sketch:type="MSShapeGroup"></path>
            <path d="M70.825,160.3112 C67.129,161.8002 63.432,163.2892 59.736,164.7782 C59.494,158.2412 59.502,151.7022 59.607,145.1622 C59.627,143.9592 59.61,142.7562 59.61,141.5802 C59.859,141.5042 59.894,141.6452 59.945,141.7332 C63.514,147.7912 67.08,153.8522 70.644,159.9132 C70.718,160.0382 70.765,160.1782 70.825,160.3112" id="Fill-138" fill="#B1B1B1" sketch:type="MSShapeGroup"></path>
            <path d="M134.0505,138.6132 C135.4085,142.0292 136.7675,145.4452 138.1215,148.8632 C138.4135,149.6012 138.6845,150.3472 138.9645,151.0902 C138.7915,151.1252 138.6175,151.1542 138.4455,151.1962 C135.1365,152.0082 131.8285,152.8222 128.5195,153.6352 C129.5615,150.2332 130.5965,146.8282 131.6495,143.4282 C132.1185,141.9132 132.6245,140.4092 133.1135,138.9002 C133.4255,138.8042 133.7385,138.7092 134.0505,138.6132" id="Fill-140" fill="#DDDDDD" sketch:type="MSShapeGroup"></path>
            <path d="M128.5197,153.6355 C131.8287,152.8225 135.1367,152.0085 138.4457,151.1965 C138.6167,151.1545 138.7917,151.1255 138.9647,151.0895 C139.6067,152.6985 140.2437,154.3095 140.8957,155.9155 C141.0707,156.3475 140.9537,156.4795 140.4947,156.4785 C136.3737,156.4675 132.2517,156.4685 128.1307,156.4775 C127.7337,156.4775 127.5857,156.3685 127.7277,155.9645 C128.0007,155.1905 128.2567,154.4125 128.5197,153.6355" id="Fill-142" fill="#B1B1B1" sketch:type="MSShapeGroup"></path>
            <path d="M134.0505,138.6132 C133.7385,138.7092 133.4255,138.8042 133.1135,138.9002 C133.1965,138.3882 133.3375,137.8942 133.5925,137.3962 C133.8015,137.8072 133.9975,138.1822 134.0505,138.6132" id="Fill-144" fill="#0066B1" sketch:type="MSShapeGroup"></path>
            <path d="M127.9364,84.8019 C127.8634,84.1119 127.6944,83.5929 127.7794,83.1199 C128.0384,81.6759 126.8364,81.0529 126.1924,80.1239 C126.0124,79.8659 125.6424,79.9809 125.3564,79.9469 C124.6264,79.8609 123.8944,79.7849 123.0744,79.6239 C126.4734,79.7789 128.0894,78.1719 127.9744,74.8429 C128.0264,75.2499 128.1794,75.6759 128.1124,76.0629 C127.8694,77.4659 128.9294,78.1839 129.6114,79.1059 C129.7664,79.3149 129.9834,79.2419 130.1754,79.2629 C130.9944,79.3489 131.8144,79.4219 132.7034,79.5069 C131.8884,79.8489 131.0584,79.8169 130.2624,79.9289 C129.8754,79.9839 129.7064,80.2649 129.4404,80.4269 C128.0204,81.2919 128.3214,82.7399 128.0864,84.0089 C128.0484,84.2089 128.0104,84.4089 127.9364,84.8019" id="Fill-146" fill="#FEFEFE" sketch:type="MSShapeGroup"></path>
            <path d="M119.6944,83.2095 C119.6984,83.7965 119.1544,84.3475 118.5664,84.3515 C117.9794,84.3555 117.4274,83.8095 117.4234,83.2225 C117.4204,82.6335 117.9614,82.0885 118.5534,82.0855 C119.1484,82.0825 119.6904,82.6155 119.6944,83.2095" id="Fill-148" fill="#FEFEFE" sketch:type="MSShapeGroup"></path>
            <path d="M113.6413,76.1745 C114.3623,76.2445 114.7793,76.5925 114.7723,77.2955 C114.7653,77.9925 114.3663,78.3875 113.6703,78.3855 C112.9713,78.3835 112.5793,77.9725 112.5753,77.2845 C112.5703,76.5825 113.0073,76.2475 113.6413,76.1745" id="Fill-150" fill="#FEFEFE" sketch:type="MSShapeGroup"></path>
        </g>
    </g>
</svg>