<?xml version="1.0" encoding="UTF-8" standalone="no"?>
<svg width="120px" height="34px" viewBox="0 0 120 34" version="1.1" xmlns="http://www.w3.org/2000/svg" xmlns:xlink="http://www.w3.org/1999/xlink" xmlns:sketch="http://www.bohemiancoding.com/sketch/ns">
    <!-- Generator: Sketch 3.3.3 (12072) - http://www.bohemiancoding.com/sketch -->
    <title>Imported Layers Copy</title>
    <desc>Created with Sketch.</desc>
    <defs></defs>
    <g id="Page-1" stroke="none" stroke-width="1" fill="none" fill-rule="evenodd" sketch:type="MSPage">
        <g id="Home---Desktop-Copy-2" sketch:type="MSArtboardGroup" transform="translate(-143.000000, -31.000000)">
            <g id="Imported-Layers-Copy" sketch:type="MSLayerGroup" transform="translate(143.000000, 31.500000)">
                <g id="Group" transform="translate(31.862673, 4.644772)" fill="#313940" sketch:type="MSShapeGroup">
                    <path d="M3.62109925,15.3380915 C3.62109925,18.6074295 3.36983556,19.6783813 2.69995617,20.4675537 C2.11383135,21.1158365 1.13690427,21.4256986 0.0201243564,21.5104227 L0.271388053,23.4551124 C1.58333339,23.4551124 3.36983556,23.0042021 4.45864491,21.9051676 C5.65886511,20.6649262 6.07763794,18.9456916 6.07763794,16.296395 L6.07763794,3.92317389 L3.62109925,3.92317389 L3.62109925,15.3380915" id="Fill-1"></path>
                    <path d="M21.960992,13.8443122 C21.960992,15.2533673 21.9888054,16.4936088 22.07256,17.5645605 L19.8952556,17.5645605 L19.755717,15.3380915 L19.699933,15.3380915 C19.0577099,16.4372847 17.6341966,17.8745812 15.233599,17.8745812 C13.1120786,17.8745812 10.5717854,16.6908226 10.5717854,11.8996225 L10.5717854,3.92317389 L13.028324,3.92317389 L13.028324,11.4766362 C13.028324,14.0696087 13.8099286,15.8172433 16.0431741,15.8172433 C17.6899806,15.8172433 18.8344168,14.6615673 19.2811602,13.5622155 C19.4206987,13.1960294 19.5044533,12.7449604 19.5044533,12.29405 L19.5044533,3.92317389 L21.960992,3.92317389 L21.960992,13.8443122" id="Fill-2"></path>
                    <path d="M26.5951494,8.37642922 C26.5951494,6.62911196 26.5393654,5.21973946 26.4834243,3.92317389 L28.6886992,3.92317389 L28.8004244,6.26260847 L28.8562084,6.26260847 C29.861106,4.59969807 31.4522856,3.61315319 33.6575606,3.61315319 C36.9235173,3.61315319 39.3798988,6.40349812 39.3798988,10.5467328 C39.3798988,15.4507398 36.4209899,17.8745812 33.2387878,17.8745812 C31.4522856,17.8745812 29.8890766,17.0854088 29.0795015,15.7325191 L29.0237175,15.7325191 L29.0237175,23.1450917 L26.5951494,23.1450917 L26.5951494,8.37642922 L26.5951494,8.37642922 Z M29.0237175,12.0122707 C29.0237175,12.3787742 29.0795015,12.7168776 29.1354426,13.0268983 C29.5820289,14.7461329 31.0614834,15.9298915 32.820015,15.9298915 C35.4160922,15.9298915 36.9235173,13.7878294 36.9235173,10.659381 C36.9235173,7.92551887 35.4998468,5.58608429 32.9037695,5.58608429 C31.2289925,5.58608429 29.6657835,6.79808434 29.1912266,8.65820853 C29.1074721,8.96822922 29.0237175,9.33457405 29.0237175,9.67283614 L29.0237175,12.0122707 L29.0237175,12.0122707 Z" id="Fill-3"></path>
                    <path d="M43.7349791,3.92317389 L46.6937309,11.9840293 C47.0009357,12.8860087 47.3357968,13.9569604 47.5592471,14.7743743 L47.6150311,14.7743743 C47.8661376,13.9569604 48.1453719,12.9140914 48.480233,11.9275465 L51.1600649,3.92317389 L53.7561421,3.92317389 L50.0714126,13.6469397 C48.312881,18.3254916 47.1125037,20.7212503 45.4377267,22.1869469 C44.2373493,23.25774 43.036972,23.6807263 42.4228766,23.7933745 L41.8087812,21.7077952 C42.4228766,21.5104227 43.2324517,21.1158365 43.9582722,20.4957951 C44.6281516,19.9601606 45.4656972,19.0020158 46.0238515,17.7336916 C46.1354195,17.4801537 46.219174,17.2827812 46.219174,17.1418916 C46.219174,17.0008433 46.16339,16.8036295 46.0516649,16.4936088 L41.0551473,3.92317389 L43.7349791,3.92317389" id="Fill-4"></path>
                    <path d="M60.2164004,0.00555308311 L60.2164004,3.92317389 L63.7336208,3.92317389 L63.7336208,5.81169812 L60.2164004,5.81169812 L60.2164004,13.167788 C60.2164004,14.8587811 60.6909573,15.8172433 62.0588437,15.8172433 C62.7007526,15.8172433 63.1753094,15.7325191 63.4823571,15.6481122 L63.5940822,17.5080777 C63.1195254,17.7054502 62.3657343,17.8463398 61.4167778,17.8463398 C60.2721844,17.8463398 59.3510414,17.4801537 58.7647594,16.8036295 C58.0669094,16.0707812 57.8158029,14.8587811 57.8158029,13.2521949 L57.8158029,5.81169812 L55.722253,5.81169812 L55.722253,3.92317389 L57.8158029,3.92317389 L57.8158029,0.653835871 L60.2164004,0.00555308311" id="Fill-5"></path>
                    <path d="M68.2558959,11.1948569 C68.3116799,14.5487604 70.4332003,15.9298915 72.889739,15.9298915 C74.6482706,15.9298915 75.7089522,15.6198708 76.6300953,15.225126 L77.0488681,17.0008433 C76.1835091,17.3954295 74.7042117,17.8463398 72.5547207,17.8463398 C68.3954344,17.8463398 65.9110823,15.084395 65.9110823,10.9694017 C65.9110823,6.85440847 68.3116799,3.61315319 72.247673,3.61315319 C76.658223,3.61315319 77.8304727,7.53077399 77.8304727,10.0393396 C77.8304727,10.5467328 77.7746887,10.9411603 77.7467181,11.1948569 L68.2558959,11.1948569 L68.2558959,11.1948569 Z M75.4576885,9.41929823 C75.4856591,7.84079469 74.8157797,5.38871185 72.0521933,5.38871185 C69.5678412,5.38871185 68.479189,7.69990504 68.2838665,9.41929823 L75.4576885,9.41929823 L75.4576885,9.41929823 Z" id="Fill-6"></path>
                    <path d="M81.4317618,8.17905678 C81.4317618,6.57262917 81.4037913,5.19149807 81.3200367,3.92317389 L83.4695277,3.92317389 L83.5532823,6.60087056 L83.6648503,6.60087056 C84.2791028,4.76882912 85.7585573,3.61315319 87.4053637,3.61315319 C87.684598,3.61315319 87.8800777,3.64139458 88.1033708,3.69787737 L88.1033708,6.03699464 C87.8521071,5.98082917 87.6008434,5.95258777 87.2658252,5.95258777 C85.535107,5.95258777 84.3070733,7.27723609 83.9720551,9.13736027 C83.916114,9.4754637 83.86033,9.87020858 83.86033,10.2928775 L83.86033,17.5645605 L81.4317618,17.5645605 L81.4317618,8.17905678" id="Fill-7"></path>
                </g>
                <g id="Group" sketch:type="MSShapeGroup">
                    <path d="M23.4077628,2.21323221 C23.4619043,3.48892668 22.4815571,4.56713415 21.2176117,4.62179283 C19.9543109,4.6764515 18.8859838,3.68673904 18.8318423,2.41104456 C18.7777009,1.13535009 19.7580481,0.0568172756 21.0216712,0.00215859889 C22.2852942,-0.0525000778 23.3536213,0.937537739 23.4077628,2.21323221" id="Fill-8" fill="#767474"></path>
                    <path d="M12.4739774,24.7822718 C7.43269034,24.7822718 3.04267002,22.9511458 0.757206152,20.2461798 C2.48672757,25.0956635 7.07945698,28.5628954 12.4739774,28.5628954 C17.8684978,28.5628954 22.4612272,25.0956635 24.1907487,20.2461798 C21.9052848,22.9511458 17.5152645,24.7822718 12.4739774,24.7822718" id="Fill-9" fill="#E46E2E"></path>
                    <path d="M12.4739774,7.1758498 C17.5152645,7.1758498 21.9052848,9.00674142 24.1907487,11.7119418 C22.4612272,6.86245816 17.8684978,3.3949918 12.4739774,3.3949918 C7.07945698,3.3949918 2.48672757,6.86245816 0.757206152,11.7119418 C3.04267002,9.00674142 7.43269034,7.1758498 12.4739774,7.1758498" id="Fill-10" fill="#E46E2E"></path>
                    <path d="M6.53501209,30.1357559 C6.59927213,31.6512186 5.43432026,32.9322487 3.93311658,32.9974402 C2.43191291,33.0623106 1.16293611,31.8862936 1.09867607,30.3708309 C1.03409791,28.8553682 2.19904978,27.574017 3.70025346,27.5091466 C5.20145714,27.4442762 6.47075205,28.6202932 6.53501209,30.1357559" id="Fill-11" fill="#767474"></path>
                    <path d="M1.73494706,6.12418497 C0.817015801,6.16382839 0.0408450592,5.44476757 0.00157356551,4.51782049 C-0.0380172086,3.59119571 0.674297446,2.80767403 1.59254798,2.76803061 C2.51047924,2.72838718 3.28664998,3.44744801 3.32592147,4.37407278 C3.36551225,5.30101986 2.65287831,6.08454154 1.73494706,6.12418497 Z" id="Fill-12" fill="#767474"></path>
                </g>
            </g>
        </g>
    </g>
</svg>