<?xml version="1.0" encoding="UTF-8" standalone="no"?>
<svg width="120px" height="147px" viewBox="0 0 120 147" version="1.1" xmlns="http://www.w3.org/2000/svg" xmlns:xlink="http://www.w3.org/1999/xlink" xmlns:sketch="http://www.bohemiancoding.com/sketch/ns">
    <!-- Generator: Sketch 3.3.3 (12072) - http://www.bohemiancoding.com/sketch -->
    <title>Rectangle 123 + Nb + Triangle 1</title>
    <desc>Created with Sketch.</desc>
    <defs></defs>
    <g id="Page-1" stroke="none" stroke-width="1" fill="none" fill-rule="evenodd" sketch:type="MSPage">
        <g id="Home---Desktop" sketch:type="MSArtboardGroup" transform="translate(-221.000000, -3616.000000)">
            <g id="Oval-67-+-Enterprise-Jupyter-N-+-JupyterHub-is-a-mult-+-Group-Copy-2-+-Rectangle-128-+-Notebook-Document-Fo-+-Rectangle-123-+-Nb-+-Triangle-1-+-Rectangle-128-Copy-+-Share-Notebooks.-+-The-Notebook-has-sup-+-Fill-1-Copy-+-Rectangle-125-+-&gt;_-+-Rectangle-128-Copy-2-+-Interactive-Computin-+-Line-+-Line-Copy-3-+-Rectangle-131-+-Jupyter-Notebooks-ar" sketch:type="MSLayerGroup" transform="translate(130.000000, 3334.000000)">
                <g id="Oval-67-+-Enterprise-Jupyter-N-+-JupyterHub-is-a-mult-+-Group-Copy-2-+-Rectangle-128-+-Notebook-Document-Fo-+-Rectangle-123-+-Nb-+-Triangle-1-+-Rectangle-128-Copy-+-Share-Notebooks.-+-The-Notebook-has-sup-+-Fill-1-Copy-+-Rectangle-125-+-&gt;_-+-Rectangle-128-Copy-2-+-Interactive-Computin-+-Line-+-Line-Copy-3-+-Rectangle-131" sketch:type="MSShapeGroup">
                    <g id="Enterprise-Jupyter-N-+-JupyterHub-is-a-mult-+-Group-Copy-2-+-Rectangle-128-+-Notebook-Document-Fo-+-Rectangle-123-+-Nb-+-Triangle-1-+-Rectangle-128-Copy-+-Share-Notebooks.-+-The-Notebook-has-sup-+-Fill-1-Copy-+-Rectangle-125-+-&gt;_-+-Rectangle-128-Copy-2-+-Interactive-Computin-+-Line-+-Line-Copy-3-+-Rectangle-131">
                        <g id="Rectangle-128-+-Notebook-Document-Fo-+-Rectangle-123-+-Nb-+-Triangle-1-+-Rectangle-128-Copy-+-Share-Notebooks.-+-The-Notebook-has-sup-+-Fill-1-Copy-+-Rectangle-125-+-&gt;_-+-Rectangle-128-Copy-2-+-Interactive-Computin-+-Line-+-Line-Copy-3" transform="translate(5.000000, 240.000000)">
                            <g id="Rectangle-123-+-Nb-+-Triangle-1" transform="translate(86.000000, 42.000000)">
                                <path d="M77.3161386,1.42108547e-14 L0,1.42108547e-14 L0,147 L120,147 L120,35.8160124 L77.3161386,1.39888101e-14 Z" id="Rectangle-123" stroke="#969696" stroke-width="2.1"></path>
                                <path d="M77,1 L77,41.3112887 L119,37" id="Path-2429" stroke="#979797"></path>
                                <path d="M59.642591,109.9 L56.5664191,109.9 L35.3664679,77.959082 L35.2126593,77.9847168 L35.2126593,109.9 L32.1364875,109.9 L32.1364875,72.5757813 L35.2126593,72.5757813 L56.4126105,104.439795 L56.5664191,104.41416 L56.5664191,72.5757813 L59.642591,72.5757813 L59.642591,109.9 Z M90.814466,96.8006348 C90.814466,100.953488 89.874534,104.264612 87.9946418,106.734106 C86.1147495,109.203601 83.5256641,110.43833 80.2273078,110.43833 C78.2106961,110.43833 76.4632771,110.03245 74.9849982,109.220679 C73.5067193,108.408907 72.3061698,107.251082 71.3833136,105.747168 L70.8706183,109.9 L68.4609503,109.9 L68.4609503,69.9097656 L71.5371222,69.9097656 L71.5371222,86.4185547 C72.4599784,84.897551 73.6391658,83.722636 75.0747199,82.8937744 C76.5102739,82.0649128 78.2106964,81.6504883 80.1760382,81.6504883 C83.5085744,81.6504883 86.1147495,82.9792103 87.9946418,85.6366943 C89.874534,88.2941783 90.814466,91.836013 90.814466,96.2623047 L90.814466,96.8006348 Z M87.7126593,96.2623047 C87.7126593,92.7246893 87.0290724,89.8493519 85.6618781,87.6362061 C84.2946837,85.4230602 82.2695575,84.3165039 79.5864386,84.3165039 C77.4672874,84.3165039 75.7583201,84.8334665 74.4594855,85.8674072 C73.1606509,86.9013479 72.1865395,88.2386148 71.5371222,89.879248 L71.5371222,102.568457 C72.2207194,104.17491 73.2332825,105.443819 74.574842,106.37522 C75.9164014,107.306621 77.6040066,107.772314 79.6377082,107.772314 C82.320827,107.772314 84.3374084,106.781113 85.6875128,104.798682 C87.0376173,102.81625 87.7126593,100.150261 87.7126593,96.8006348 L87.7126593,96.2623047 Z" id="Nb" fill="#969696"></path>
                            </g>
                        </g>
                    </g>
                </g>
            </g>
        </g>
    </g>
</svg>