<?xml version="1.0" encoding="UTF-8" standalone="no"?>
<!-- Created with Inkscape (http://www.inkscape.org/) -->

<svg
   xmlns:dc="http://purl.org/dc/elements/1.1/"
   xmlns:cc="http://creativecommons.org/ns#"
   xmlns:rdf="http://www.w3.org/1999/02/22-rdf-syntax-ns#"
   xmlns:svg="http://www.w3.org/2000/svg"
   xmlns="http://www.w3.org/2000/svg"
   version="1.1"
   width="740"
   height="236.99593"
   id="svg2">
  <defs
     id="defs4">
    <clipPath
       id="clipPath3001">
      <path
         d="M 0,1815.97 0,0 l 5760,0 0,1815.97 -5760,0 z"
         id="path3003" />
    </clipPath>
  </defs>
  <metadata
     id="metadata7">
    <rdf:RDF>
      <cc:Work
         rdf:about="">
        <dc:format>image/svg+xml</dc:format>
        <dc:type
           rdf:resource="http://purl.org/dc/dcmitype/StillImage" />
        <dc:title></dc:title>
      </cc:Work>
    </rdf:RDF>
  </metadata>
  <g
     transform="translate(4.2857143,-228.86422)"
     id="layer1">
    <g
       transform="matrix(1.25,0,0,-1.25,5.7142857,465.86047)"
       id="g2993"
       style="fill:#b1b1b1;fill-opacity:1">
      <g
         transform="scale(0.1,0.1)"
         id="g2995"
         style="fill:#b1b1b1;fill-opacity:1">
        <g
           id="g2997"
           style="fill:#b1b1b1;fill-opacity:1">
          <g
             clip-path="url(#clipPath3001)"
             id="g2999"
             style="fill:#b1b1b1;fill-opacity:1">
            <path
               d="m 23.0117,1766.66 0,-26.23 65.7344,-73.77 0,-506.51 L 0,1135.38 l 0,-29.72 240.25,0 0,29.92 -75.703,20.02 -19.317,23.71 0,422.67 421.102,-501.33 37.051,0 0,602.43 89.172,27 0,31.46 -243.809,0 0,-35.45 77.481,-19.44 18.875,-23.73 0,-400.4 -0.164,0.48 -4.954,0 -408.632,483.66 -108.3403,0"
               id="path3005"
               style="fill:#b1b1b1;fill-opacity:1;fill-rule:nonzero;stroke:none" />
            <path
               d="m 1067.35,1327.53 c 0,110.97 -60.43,205.09 -155.537,205.09 -85.215,0 -127.809,-74.32 -127.809,-185.28 0,-110.96 53.496,-208.05 153.562,-208.05 85.214,0 129.784,77.28 129.784,188.24 z M 924.691,1094.7 c -118.894,0 -232.82,76.29 -232.82,238.78 0,161.49 120.867,242.72 232.82,242.72 116.909,0 234.809,-73.31 234.809,-234.8 0,-155.55 -124.84,-246.7 -234.809,-246.7"
               id="path3007"
               style="fill:#b1b1b1;fill-opacity:1;fill-rule:nonzero;stroke:none" />
            <path
               d="m 2355.33,1375.09 c 0,110.96 -62.43,132.75 -134.74,132.75 -61.42,0 -101.05,-45.57 -101.05,-45.57 l 0.02,-73.32 0,-212.07 18.96,-23.83 64.06,-22.35 0.12,-25.09 -230.68,0 0,25.75 65.38,24.77 -0.1,477.54 c 0,86.41 -21.8,109.97 -69.36,109.97 l 0,22.79 146.64,49.54 9.91,0 c 0,0 -4.95,-102.04 -4.95,-178.33 l 0,-137.73 c 0,0 95.11,76.29 160.49,76.29 81.25,0 156.55,-33.68 156.55,-153.56 l -0.09,-245.76 18.96,-23.83 64.07,-22.35 0.11,-25.09 -230.68,0 0,25.75 63.42,24.1 2.96,219.63"
               id="path3009"
               style="fill:#b1b1b1;fill-opacity:1;fill-rule:nonzero;stroke:none" />
            <path
               d="m 3436.86,1397.87 c 47.54,1.99 64.39,10.9 64.39,59.45 0,41.61 -29.72,73.31 -93.13,73.31 -66.38,0 -116.9,-58.45 -116.9,-137.7 l 145.64,4.94 z m -145.64,-37.64 c 0,-137.73 78.27,-195.19 167.43,-195.19 55.49,0 121.86,22.8 121.86,22.8 l 9.91,-18.83 c -23.77,-23.78 -90.16,-74.31 -173.38,-74.31 -112.95,0 -214.01,84.22 -214.01,238.78 0,140.68 97.1,242.72 217.97,242.72 94.12,0 167.44,-56.46 167.44,-163.47 0,-27.74 -4.95,-52.5 -4.95,-52.5 l -292.27,0"
               id="path3011"
               style="fill:#b1b1b1;fill-opacity:1;fill-rule:nonzero;stroke:none" />
            <path
               d="m 3697.27,1112.54 c -6.93,2.97 -24.77,12.87 -25.76,33.68 l -5.94,94.12 43.6,0 c 11.87,-64.4 55.46,-106 111.95,-106 57.46,0 80.24,29.71 80.24,69.34 0,37.65 -30.71,57.47 -68.36,77.28 l -50.52,25.76 c -72.32,36.66 -108,66.39 -108,137.72 0,89.17 64.39,131.76 164.46,131.76 70.35,0 124.84,-26.74 124.84,-26.74 l -12.88,-115.92 -40.62,0 c 0,72.32 -29.72,99.08 -90.16,99.08 -40.62,0 -78.26,-15.85 -78.26,-55.49 0,-31.7 12.87,-45.57 91.14,-86.19 l 44.58,-22.79 c 81.25,-41.61 104.04,-76.29 104.04,-143.67 0,-81.23 -81.24,-129.78 -160.5,-129.78 -50.54,0 -95.12,5.95 -123.85,17.84"
               id="path3013"
               style="fill:#b1b1b1;fill-opacity:1;fill-rule:nonzero;stroke:none" />
            <path
               d="m 4621.92,1397.87 c 47.56,1.99 64.4,10.9 64.4,59.45 0,41.61 -29.71,73.31 -93.12,73.31 -66.38,0 -116.92,-58.45 -116.92,-137.7 l 145.64,4.94 z m -145.64,-37.64 c 0,-137.73 78.28,-195.19 167.44,-195.19 55.48,0 121.86,22.8 121.86,22.8 l 9.91,-18.83 c -23.79,-23.78 -90.15,-74.31 -173.38,-74.31 -112.94,0 -214,84.22 -214,238.78 0,140.68 97.09,242.72 217.96,242.72 94.12,0 167.45,-56.46 167.45,-163.47 0,-27.74 -4.96,-52.5 -4.96,-52.5 l -292.28,0"
               id="path3015"
               style="fill:#b1b1b1;fill-opacity:1;fill-rule:nonzero;stroke:none" />
            <path
               d="m 5695.92,1153.05 -18.94,23.84 0.94,250.71 c 0,115.92 -75.29,148.6 -152.56,148.6 -65.4,0 -157.54,-76.29 -157.54,-76.29 0,41.62 1.98,79.27 1.98,79.27 l -7.92,0 -144.66,-52.51 0,-23.78 c 55.49,0 70.34,-49.53 70.34,-138.7 l 0,-208.06 -65.38,-24.77 0,-25.75 227.8,0 1.82,25.09 -64.08,22.35 -18.95,23.84 0.05,284.39 c 0,0 34.67,46.56 97.08,46.56 64.41,0 130.79,-22.78 130.79,-132.75 l -3.04,-219.87 -63.26,-23.86 0,-25.75 227.8,0 1.81,25.09 -64.08,22.35"
               id="path3017"
               style="fill:#b1b1b1;fill-opacity:1;fill-rule:nonzero;stroke:none" />
            <path
               d="m 2946,1100.65 -106.14,294.3 -121.62,-294.3 -41.57,0 -119.5,363.6 c -16.83,45.57 -26.47,72.32 -58.18,72.32 l 0,27.75 195.57,0 0,-28 -59.54,-19.55 89.16,-301.2 78.28,188.25 18.22,47.74 -26.89,76.63 -33.93,8.38 0,27.75 189.11,0 0,-29.67 -59.6,-17.88 100.48,-301.2 104.39,299.21 -67.37,23.78 0,25.76 177.34,0 0,-27.75 c -40.62,-4.95 -60.43,-15.84 -92.14,-97.09 l -119.39,-338.83 -46.68,0"
               id="path3019"
               style="fill:#b1b1b1;fill-opacity:1;fill-rule:nonzero;stroke:none" />
            <path
               d="m 1917.14,1173.96 c 0,0 -27.74,-17.83 -69.35,-17.83 -44.58,0 -85.21,24.77 -84.21,86.2 l 3.96,259.57 146.63,0 0.01,0.05 1.34,0 1.99,16.1 0.06,0 9.9,81.35 -18.85,3.4 -14.18,-31.05 -8.08,-6.8 -116.58,-4.52 0,-0.03 -1.25,-0.05 0,117.9 -57.46,-9.9 -24.77,-111.96 -81.25,-7.93 0,-38.64 c 44.58,0 81.25,-3.96 81.25,-46.55 0,-42.6 -3.96,-176.37 -3.96,-229.86 0,-101.06 38.64,-138.71 103.04,-138.71 55.47,0 101.05,22.79 142.66,56.48 l -10.9,22.78"
               id="path3021"
               style="fill:#b1b1b1;fill-opacity:1;fill-rule:nonzero;stroke:none" />
            <path
               d="m 4342.68,1173.96 c 0,0 -27.73,-17.83 -69.35,-17.83 -44.58,0 -85.2,24.77 -84.22,86.2 l 3.97,259.57 146.63,0 0,0.05 0.29,0 1.98,16.1 0.07,0 9.91,81.35 -18.86,3.4 -14.19,-31.05 -8.06,-6.8 -116.6,-4.52 0,-0.07 -0.18,-0.01 0,117.9 -57.46,-9.9 -24.77,-111.96 -81.25,-7.93 0,-38.64 c 44.59,0 81.25,-3.96 81.25,-46.55 0,-42.6 -3.96,-176.37 -3.96,-229.86 0,-101.06 38.65,-138.71 103.04,-138.71 55.47,0 101.06,22.79 142.66,56.48 l -10.9,22.78"
               id="path3023"
               style="fill:#b1b1b1;fill-opacity:1;fill-rule:nonzero;stroke:none" />
            <path
               d="m 1548.31,1570.26 0,0.01 -0.05,0.01 c -0.49,0.17 -17.28,5.92 -49.5,5.92 -69.34,0 -141.68,-108.98 -141.68,-108.98 0,60.44 1.99,111.96 1.99,111.96 l -7.93,0 -141.67,-52.51 0,-23.78 c 53.5,0 70.35,-48.55 70.35,-130.77 l 0,-215.99 -65.4,-24.77 0,-25.75 227.79,0 -0.11,25.09 -64.07,22.35 -18.96,23.83 0,212.07 c 0,65.39 51.53,102.05 107,102.05 11.36,0 23.01,-2.8 32.96,-6.17 l 15.52,-22.87 19.09,-1.56 14.66,109.85 0.01,0.01 0,0"
               id="path3025"
               style="fill:#b1b1b1;fill-opacity:1;fill-rule:nonzero;stroke:none" />
            <path
               d="m 5172,1570.26 0,0.01 -0.06,0.01 c -0.47,0.17 -17.27,5.92 -49.48,5.92 -69.36,0 -141.69,-108.98 -141.69,-108.98 0,60.44 1.99,111.96 1.99,111.96 l -7.93,0 -141.67,-52.51 0,-23.78 c 53.51,0 70.34,-48.55 70.34,-130.77 l 0,-215.99 -65.39,-24.77 0,-25.75 227.78,0 -0.1,25.09 -64.08,22.35 -18.95,23.83 0,212.07 c 0,65.39 51.52,102.05 106.99,102.05 11.37,0 23.01,-2.8 32.97,-6.17 l 15.51,-22.87 19.09,-1.56 14.67,109.85 0.01,0.01 0,0"
               id="path3027"
               style="fill:#b1b1b1;fill-opacity:1;fill-rule:nonzero;stroke:none" />
            <path
               d="m 2979.29,524.559 c 47.56,1.992 64.41,10.902 64.41,59.453 0,41.609 -29.73,73.308 -93.14,73.308 -66.38,0 -116.91,-58.449 -116.91,-137.711 l 145.64,4.95 z m -145.64,-37.637 c 0,-137.731 78.28,-195.184 167.44,-195.184 55.49,0 121.86,22.793 121.86,22.793 l 9.92,-18.832 c -23.77,-23.769 -90.17,-74.301 -173.39,-74.301 -112.94,0 -213.99,84.211 -213.99,238.762 0,140.692 97.08,242.731 217.96,242.731 94.11,0 167.44,-56.461 167.44,-163.469 0,-27.742 -4.96,-52.5 -4.96,-52.5 l -292.28,0"
               id="path3029"
               style="fill:#b1b1b1;fill-opacity:1;fill-rule:nonzero;stroke:none" />
            <path
               d="m 2161.74,303.578 18.96,-23.828 64.08,-22.352 -1.83,-25.109 -224.94,0 0,25.762 65.38,24.769 -0.08,225.032 c 0,91.187 -17.83,121.918 -71.35,121.918 l 0,23.781 144.69,52.539 7.95,0 c 0,0 -2.98,-68.391 -2.98,-139.762 l 0.12,-262.75"
               id="path3031"
               style="fill:#b1b1b1;fill-opacity:1;fill-rule:nonzero;stroke:none" />
            <path
               d="m 2470.75,691.211 0,-25.762 -66.41,-21.808 110.01,-300.332 114,298.363 -69.4,23.777 0,25.762 176.02,0 0,-27.75 c -25.77,0 -57.49,-12.883 -92.18,-97.133 l -125.61,-338.976 -47.27,0 -138.09,363.757 c -21.81,52.532 -46.58,72.352 -78.29,72.352 l 0,27.75 217.22,0"
               id="path3033"
               style="fill:#b1b1b1;fill-opacity:1;fill-rule:nonzero;stroke:none" />
            <path
               d="m 3633.11,239.25 c -6.93,2.969 -24.78,12.879 -25.78,33.699 l -5.94,94.153 43.61,0 c 11.91,-64.422 55.5,-106.043 112.01,-106.043 57.49,0 80.28,29.73 80.28,69.371 0,37.672 -30.73,57.492 -68.39,77.32 l -50.54,25.762 c -72.36,36.668 -108.05,66.41 -108.05,137.777 0,89.199 64.43,131.82 164.53,131.82 70.39,0 124.9,-26.757 124.9,-26.757 l -12.89,-115.973 -40.64,0 c 0,72.359 -29.74,99.121 -90.2,99.121 -40.62,0 -78.3,-15.859 -78.3,-55.5 0,-31.719 12.89,-45.602 91.19,-86.238 l 44.59,-22.801 c 81.29,-41.633 104.08,-76.313 104.08,-143.711 0,-81.281 -81.27,-129.84 -160.56,-129.84 -50.55,0 -95.16,5.942 -123.9,17.84"
               id="path3035"
               style="fill:#b1b1b1;fill-opacity:1;fill-rule:nonzero;stroke:none" />
            <path
               d="m 4663.78,591.109 c -22.81,52.532 -46.6,72.352 -78.31,72.352 l 0,27.75 213.82,0 0,-25.762 -66.4,-21.808 113.98,-300.332 104.06,298.363 -69.36,23.777 0,25.762 184.34,0 0,-27.75 c -25.76,0 -62.44,-12.883 -94.15,-97.133 L 4856.23,251.148 C 4791.78,82.6406 4714.06,-6.55859 4595.11,0.378906 L 4583.22,97.5117 c 0,0 26.66,-6.5429 76.32,-2.9726 57.33,4.1211 113.42,61.8009 136.8,137.7699 l -132.56,358.8"
               id="path3037"
               style="fill:#b1b1b1;fill-opacity:1;fill-rule:nonzero;stroke:none" />
            <path
               d="m 1904.01,279.75 -18.95,23.828 0.96,250.703 c 0,115.918 -75.3,148.61 -152.58,148.61 -65.4,0 -157.53,-76.282 -157.53,-76.282 0,41.621 1.98,79.262 1.98,79.262 l -7.92,0 -144.66,-52.512 0,-23.781 c 55.49,0 70.35,-49.539 70.35,-138.699 l 0,-208.059 -65.38,-24.769 0,-25.762 227.78,0 1.83,25.109 -64.07,22.352 -18.96,23.828 0.04,284.383 c 0,0 34.68,46.578 97.09,46.578 64.4,0 130.79,-22.789 130.79,-132.769 l -3.05,-219.86 -63.25,-23.859 0,-25.762 227.8,0 1.81,25.109 -64.08,22.352"
               id="path3039"
               style="fill:#b1b1b1;fill-opacity:1;fill-rule:nonzero;stroke:none" />
            <path
               d="m 4548.75,300.648 c 0,0 -27.74,-17.828 -69.36,-17.828 -44.58,0 -85.2,24.77 -84.22,86.2 l 3.97,259.582 125.48,0 0.02,0.039 0.28,0 1.99,16.097 0.06,0 9.91,81.352 -18.86,3.398 -14.18,-31.047 -8.08,-6.8 -95.45,-4.52 0,-0.07 -0.19,-0.012 0,117.902 -57.45,-9.902 -24.77,-111.949 -81.25,-7.93 0,-38.64 c 44.6,0 81.25,-3.961 81.25,-46.571 0,-42.59 -3.96,-176.347 -3.96,-229.847 0,-101.063 38.64,-138.704 103.05,-138.704 55.47,0 101.04,22.782 142.65,56.461 l -10.89,22.789"
               id="path3041"
               style="fill:#b1b1b1;fill-opacity:1;fill-rule:nonzero;stroke:none" />
            <path
               d="m 3545.43,696.961 0,0 -0.05,0.008 c -0.48,0.172 -17.28,5.922 -49.49,5.922 -69.35,0 -141.69,-108.969 -141.69,-108.969 0,60.43 2,111.949 2,111.949 l -7.94,0 -141.67,-52.512 0,-23.781 c 53.5,0 70.34,-48.539 70.34,-130.769 l 0,-215.989 -65.39,-24.769 0,-25.762 227.78,0 -0.11,25.109 -64.07,22.352 -18.94,23.828 0,212.063 c 0,65.398 51.51,102.05 106.99,102.05 11.36,0 23.01,-2.793 32.96,-6.16 l 15.5,-22.883 19.11,-1.57 14.66,109.871 0.01,0.012 0,0"
               id="path3043"
               style="fill:#b1b1b1;fill-opacity:1;fill-rule:nonzero;stroke:none" />
            <path
               d="m 2120.79,781.969 c -11.33,0 -62.03,55.941 -62.03,66.597 0,10.422 49.87,67.454 62.03,67.454 13.09,0 62.01,-57.032 62.01,-67.454 0,-10.039 -50.7,-66.597 -62.01,-66.597"
               id="path3045"
               style="fill:#b1b1b1;fill-opacity:1;fill-rule:nonzero;stroke:none" />
            <path
               d="m 4143.78,303.578 18.97,-23.828 64.07,-22.352 -1.82,-25.109 -224.95,0 0,25.762 65.39,24.769 -0.08,225.032 c 0,91.187 -17.83,121.918 -71.36,121.918 l 0,23.781 144.71,52.539 7.93,0 c 0,0 -2.97,-68.391 -2.97,-139.762 l 0.11,-262.75"
               id="path3047"
               style="fill:#b1b1b1;fill-opacity:1;fill-rule:nonzero;stroke:none" />
            <path
               d="m 1326.43,452.621 c 0,-171.473 -121.91,-227.973 -238.88,-227.973 -175.433,0 -247.784,82.262 -247.784,234.903 l 0,288.429 c 0,84.254 -22.797,103.083 -89.207,106.055 l 0,32.719 270.591,0 0,-29.75 -92.181,-28.738 0,-325.106 c 0,-196.25 79.311,-224.988 169.491,-224.988 94.16,0 165.53,43.609 165.53,203.187 l 0,347.215 -89.17,27 0,31.461 238,0 0,-35.445 -67.56,-11.078 -18.88,-23.731 0,-127.312 0.05,-236.848"
               id="path3049"
               style="fill:#b1b1b1;fill-opacity:1;fill-rule:nonzero;stroke:none" />
            <path
               d="m 4102.83,781.969 c -11.33,0 -62.01,55.941 -62.01,66.597 0,10.422 49.86,67.454 62.01,67.454 13.1,0 62.02,-57.032 62.02,-67.454 0,-10.039 -50.7,-66.597 -62.02,-66.597"
               id="path3051"
               style="fill:#b1b1b1;fill-opacity:1;fill-rule:nonzero;stroke:none" />
          </g>
        </g>
      </g>
    </g>
  </g>
</svg>
