<?xml version="1.0" encoding="UTF-8" standalone="no"?>
<svg width="323px" height="60px" viewBox="0 0 323 60" version="1.1" xmlns="http://www.w3.org/2000/svg" xmlns:xlink="http://www.w3.org/1999/xlink" xmlns:sketch="http://www.bohemiancoding.com/sketch/ns">
    <!-- Generator: Sketch 3.3.3 (12072) - http://www.bohemiancoding.com/sketch -->
    <title>Imported Layers</title>
    <desc>Created with Sketch.</desc>
    <defs></defs>
    <g id="Page-1" stroke="none" stroke-width="1" fill="none" fill-rule="evenodd" sketch:type="MSPage">
        <g id="Imported-Layers" sketch:type="MSLayerGroup" fill="#B1B1B1">
            <path d="M182.965749,1.27085106 C182.528259,1.74 181.957093,1.53446809 181.447329,1.53510638 C174.713578,1.54978723 167.979828,1.54212766 161.246077,1.54851064 C160.61095,1.54914894 159.819121,1.31234043 159.64323,2.36617021 C159.617646,2.06744681 159.591422,1.7687234 159.565838,1.47 C159.780105,0.901914894 160.277077,1.0212766 160.703053,1.03021277 C167.793703,1.17319149 174.883713,1.23829787 181.973723,1.03085106 C182.315911,1.0206383 182.699034,0.933191489 182.965749,1.27085106" id="Fill-1" sketch:type="MSShapeGroup"></path>
            <path d="M182.968307,1.28425532 C182.520584,1.73680851 181.951337,1.53446809 181.439014,1.53510638 C174.911216,1.54978723 168.383418,1.5312766 161.856259,1.56510638 C161.169964,1.56829787 160.359586,1.18085106 159.767952,2.0087234 C159.666895,2.14978723 159.67521,1.62957447 159.563919,1.44319149 C159.758998,0.949148936 160.19265,1.02 160.585366,1.02765957 C167.761723,1.17510638 174.938719,1.23319149 182.115075,1.02893617 C182.419527,1.0206383 182.749562,0.981702128 182.968307,1.28425532" id="Fill-2" sketch:type="MSShapeGroup"></path>
            <path d="M168.400048,2.92851064 C168.199212,2.89659574 167.997737,2.86468085 167.796261,2.83340426 C167.802018,2.78170213 167.807774,2.7306383 167.81417,2.67957447 L174.72701,2.67957447 C174.729568,2.72489362 174.732127,2.77021277 174.735325,2.81489362 C174.350283,2.85510638 173.964602,2.89468085 173.57956,2.93489362 C171.85263,2.93234043 170.126339,2.93042553 168.400048,2.92851064" id="Fill-3" sketch:type="MSShapeGroup"></path>
            <path d="M171.313444,4.75723404 C170.887467,3.60765957 170.94759,2.45234043 171.27059,1.29382979 C171.730465,2.44276596 171.440085,3.6012766 171.313444,4.75723404" id="Fill-4" sketch:type="MSShapeGroup"></path>
            <path d="M322.58042,1.81276596 C322.373828,1.9806383 322.19282,2.22382979 321.956166,2.30425532 C320.616836,2.76 320.323897,3.75957447 320.328374,5.04191489 C320.354598,12.0906383 320.343725,19.1387234 320.33477,26.1874468 C320.334131,26.6680851 320.456295,27.1691489 320.20557,27.6312766 C319.875535,27.1895745 320.042471,26.6808511 320.041192,26.2078723 C320.02904,19.0142553 320.032238,11.8212766 320.032877,4.90978723 C319.962521,4.45148936 319.717552,4.71574468 319.860824,4.60851064 C319.907515,4.57404255 319.920947,4.61297872 319.954846,4.70617021 C320.112188,5.13829787 320.018166,5.58255319 320.018806,6.01914894 C320.027121,12.8878723 320.022004,19.7565957 320.029679,26.6253191 C320.030319,27.1097872 319.927343,27.6070213 320.135214,28.0787234 C319.725867,28.7157447 319.300531,28.343617 318.949388,28.0474468 C318.507422,27.6759574 318.110867,27.2444681 317.725826,26.8117021 C312.433743,20.8697872 307.147416,14.922766 301.854693,8.98085106 C301.688396,8.79382979 301.597572,8.49510638 301.106356,8.50659574 L301.106356,12.3038298 C301.106356,16.2791489 301.10124,20.2544681 301.108915,24.2297872 C301.112113,26.0189362 301.518261,26.5155319 303.246471,26.9087234 C303.753038,27.0242553 304.45916,26.9731915 304.381768,27.737234 C304.302457,28.5185106 303.605289,28.3391489 303.100002,28.2906383 C301.043675,28.0940426 298.991826,28.1004255 296.936139,28.2938298 C296.462832,28.3385106 295.865442,28.4591489 295.759267,27.7646809 C295.660768,27.1168085 296.22298,26.9329787 296.690531,26.82 C298.313206,26.4274468 298.961764,25.2765957 298.986709,23.766383 C299.079451,18.1410638 299.169636,12.5125532 298.941937,6.88914894 C298.849834,4.61042553 297.899382,2.82829787 295.371667,2.36680851 C294.924584,2.28510638 294.421855,2.11659574 294.535705,1.53765957 C294.646996,0.973404255 295.183624,0.979787234 295.631347,1.03659574 C296.523594,1.14893617 297.410725,1.20382979 298.301053,1.03595745 C299.034679,0.897446809 299.418442,1.36148936 299.855931,1.84978723 C305.908503,8.61 311.978345,15.3542553 318.048186,22.1068085 C318.503584,21.852766 318.291236,21.4525532 318.292515,21.1442553 C318.308505,16.32 318.312343,11.496383 318.30083,6.67212766 C318.294434,3.97468085 317.723267,3.21446809 315.169968,2.4306383 C314.649331,2.27042553 313.997574,2.16638298 314.145962,1.46042553 C314.282198,0.808723404 314.947386,1.00276596 315.398947,1.03914894 C317.367008,1.19680851 319.331232,1.1712766 321.297374,1.02893617 C321.743178,0.997021277 322.194099,0.982340426 322.58042,1.27659574 L322.58042,1.81276596" id="Fill-5" sketch:type="MSShapeGroup"></path>
            <path d="M24.0810891,5.65595745 C23.7657644,3.82148936 22.7251287,2.71404255 20.8549267,2.41021277 C20.3598733,2.32978723 19.7893465,2.16255319 19.862901,1.54212766 C19.9447703,0.853404255 20.5952475,1.00085106 21.0487267,1.03595745 C23.0609208,1.19170213 25.067998,1.16553191 27.0795525,1.03595745 C27.4908178,1.00914894 28.0549485,0.840638298 28.2154891,1.4393617 C28.3632376,1.99085106 27.9251089,2.23021277 27.4908178,2.39617021 C26.2141683,2.88446809 26.0190891,3.92170213 26.0216475,5.11595745 C26.0350792,12.2151064 26.0376376,19.3142553 26.0133327,26.4134043 C26.0107743,27.0753191 26.4022119,28.0404255 25.5892752,28.3314894 C24.7673842,28.626383 24.2800059,27.7225532 23.7932673,27.1774468 C18.5222911,21.2808511 13.2692238,15.3676596 8.0097604,9.46021277 C7.72129901,9.13659574 7.41620792,8.82829787 7.11431485,8.50851064 C6.68258218,8.80787234 6.85591485,9.19723404 6.85527525,9.51765957 C6.84248317,14.3840426 6.83992475,19.2510638 6.84951881,24.1174468 C6.85271683,26.1146809 7.14245743,26.4593617 9.13610297,26.9310638 C9.61708515,27.0446809 10.213196,27.0593617 10.1319663,27.7461702 C10.0513762,28.4368085 9.45654455,28.3480851 8.97236436,28.3002128 C6.82841188,28.0889362 4.68637822,28.0997872 2.54242574,28.2995745 C2.09342376,28.3410638 1.58365941,28.386383 1.49987129,27.7653191 C1.42375842,27.2029787 1.85868911,26.9565957 2.30321386,26.856383 C4.20091881,26.4306383 4.75993267,25.0365957 4.77080594,23.3553191 C4.80278614,18.0874468 4.79447129,12.8189362 4.76249109,7.55106383 C4.74394257,4.52042553 3.34001188,2.57617021 0.220023762,2.08085106 L0.220023762,1.27659574 C1.64378218,0.746808511 3.12254653,1.31680851 4.56933069,1.06595745 C5.03560198,0.984893617 5.27993069,1.53 5.57478812,1.85744681 C11.5288614,8.48234043 17.4867723,15.1046809 23.4414851,21.7295745 C23.6212139,21.9293617 23.7804752,22.1438298 24.0753327,22.1751064 C24.3593168,21.9912766 24.2627366,21.7002128 24.2633762,21.4493617 C24.2684931,16.3748936 24.2672139,11.3010638 24.265295,6.22659574 C24.265295,6.02170213 24.3554792,5.77723404 24.0810891,5.65595745" id="Fill-6" sketch:type="MSShapeGroup"></path>
            <path d="M86.7488455,52.4195745 C86.7827446,52.5012766 86.8454257,52.5823404 86.846705,52.6646809 C86.9426455,57.6989362 91.4588891,58.9691489 95.0816059,58.0448936 C97.2396297,57.4940426 98.5866356,55.89 98.7164752,53.2882979 C98.878295,50.0348936 98.7881109,46.7680851 98.7932277,43.5070213 C98.7951465,42.4768085 98.161299,42.0025532 97.2236396,41.8142553 C96.8264455,41.7344681 96.355697,41.6431915 96.4119822,41.1114894 C96.4727446,40.5306383 96.9901842,40.6697872 97.3675505,40.6665957 C98.5744832,40.6570213 99.7820554,40.6678723 100.988988,40.6710638 C101.300475,40.6717021 101.657374,40.6238298 101.775061,41.0080851 C101.883154,41.3610638 101.681679,41.6176596 101.367634,41.7568085 C100.414624,42.18 100.357699,42.9989362 100.337871,43.8868085 C100.273271,46.8708511 100.527194,49.86 100.200356,52.8402128 C99.8242693,51.9006383 100.051968,50.9214894 100.034699,49.9634043 C99.9963228,47.8161702 100.014871,45.6676596 100.021907,44.4504255 C100.126802,46.9519149 99.8428178,50.387234 100.135117,53.8174468 C99.8671228,57.2897872 97.709099,59.2882979 93.7179703,59.7612766 C93.1090673,60.0210638 92.4234119,59.646383 91.824103,59.987234 L91.2868356,59.987234 C90.8557426,59.4146809 90.1726455,59.5870213 89.6053168,59.4497872 C86.5812693,58.7170213 84.7552,56.5997872 84.5780297,53.5512766 C84.8716079,51.377234 84.6439089,49.1929787 84.7040317,47.0144681 C84.7385703,45.7595745 84.7001941,44.5021277 84.7097881,43.247234 C84.7021129,46.0978723 84.7091485,48.9485106 84.693798,51.7991489 C84.6912396,52.23 84.8453842,52.6940426 84.5326178,53.0917021 C84.198105,50.1121277 84.4309208,47.1223404 84.4021386,44.1382979 C84.3899861,42.9402128 84.4226059,41.8665957 82.8389465,41.73 C82.4993168,41.7006383 82.2473129,41.417234 82.3227861,41.0661702 C82.4008178,40.7048936 82.7564376,40.6646809 83.0813564,40.6640426 C84.6464673,40.6614894 86.2115782,40.6595745 87.7766891,40.6614894 C88.0939327,40.6614894 88.4540297,40.6697872 88.5403762,41.0457447 C88.6305604,41.4351064 88.3126772,41.6355319 88.0018297,41.6834043 C87.2662851,41.7957447 86.9528792,42.282766 86.7635564,42.9165957 C86.3625248,43.1693617 86.597899,43.5587234 86.5953406,43.8689362 C86.5735941,47.0080851 86.5819089,50.1478723 86.5819089,53.2870213 C86.6305188,52.9965957 86.4987604,52.6717021 86.7488455,52.4195745" id="Fill-7" sketch:type="MSShapeGroup"></path>
            <path d="M141.789964,59.987234 C141.250778,59.4708511 141.083842,58.757234 140.806893,58.1055319 C138.769115,53.3017021 136.734535,48.4965957 134.710828,43.6870213 C134.339218,42.8023404 133.96505,41.957234 132.887317,41.7280851 C132.555362,41.6578723 132.312313,41.4293617 132.404416,41.0508511 C132.499717,40.6614894 132.845103,40.6614894 133.162347,40.6614894 C134.502956,40.6602128 135.844206,40.6640426 137.184816,40.6634043 C137.461125,40.6634043 137.745749,40.6748936 137.874309,40.9614894 C138.01758,41.28 137.77645,41.4714894 137.548111,41.597234 C136.779307,42.0185106 136.801693,42.6510638 137.086317,43.3231915 C138.858659,47.5104255 140.643794,51.6919149 142.422533,55.8695745 C142.942531,55.7859574 142.893921,55.332766 143.014806,55.0397872 C144.476941,51.4940426 145.939715,47.9489362 147.345564,44.3808511 C147.765784,43.3123404 148.535228,42.0153191 146.499368,41.6317021 C146.287659,41.5921277 146.116246,41.3942553 146.143109,41.13 C146.168053,40.8804255 146.322198,40.6959574 146.563968,40.692766 C147.903939,40.6748936 149.248386,40.6123404 150.58196,40.7055319 C151.203016,40.7495745 151.289362,41.3317021 150.757212,41.6182979 C149.863046,42.1008511 149.614879,42.9459574 149.272051,43.7578723 C147.102515,48.8929787 144.940653,54.0312766 142.769838,59.1657447 C142.649592,59.4510638 142.476259,59.7140426 142.327232,59.987234 L141.789964,59.987234" id="Fill-8" sketch:type="MSShapeGroup"></path>
            <path d="M189.606756,59.987234 C189.606117,59.9093617 189.603558,59.8321277 189.599081,59.7548936 C190.319275,59.1746809 191.040749,59.1785106 191.762861,59.7497872 C191.757105,59.8289362 191.754547,59.9080851 191.755826,59.987234 L189.606756,59.987234" id="Fill-9" sketch:type="MSShapeGroup"></path>
            <path d="M91.824103,59.987234 C92.4016653,59.4619149 93.0828436,59.8021277 93.7179703,59.7612766 C93.7128535,59.8365957 93.7083762,59.9119149 93.7045386,59.987234 L91.824103,59.987234" id="Fill-10" sketch:type="MSShapeGroup"></path>
            <path d="M152.199519,23.0878723 C153.318826,20.3942553 154.39336,17.8034043 155.471733,15.2144681 C155.731412,14.5908511 155.602851,14.0119149 155.350848,13.4112766 C154.089549,10.41 152.835285,7.40489362 151.609804,4.38893617 C151.182549,3.33702128 150.484741,2.70765957 149.33921,2.57744681 C148.986788,2.53723404 148.631168,2.45617021 148.297295,2.33617021 C147.920568,2.20021277 147.733804,1.88680851 147.822069,1.48851064 C147.900741,1.13234043 148.181527,1.01234043 148.533309,1.02382979 C149.382703,1.0506383 150.235935,1.02829787 151.080851,1.10297872 C152.470711,1.22617021 153.850337,1.11510638 155.235079,1.0493617 C155.68664,1.02829787 156.301299,0.790851064 156.479109,1.47 C156.626218,2.02978723 156.128606,2.22319149 155.728853,2.42297872 C154.934465,2.8193617 154.79759,3.42829787 155.109077,4.21085106 C155.883638,6.15510638 156.647325,8.10382979 157.526141,10.3302128 C158.39856,8.19957447 159.188471,6.32680851 159.930412,4.43553191 C160.329525,3.41744681 159.776267,2.84425532 158.881461,2.46319149 C158.446531,2.27744681 157.805648,2.15234043 157.917578,1.5306383 C158.053174,0.776170213 158.77017,1.00978723 159.249873,1.04170213 C160.680028,1.13744681 162.104426,1.22489362 163.53458,1.04106383 C163.879966,0.997021277 164.305943,0.922340426 164.458808,1.35957447 C164.60016,1.76489362 164.324491,2.02148936 163.981024,2.20148936 C163.047202,2.69042553 162.586687,3.5706383 162.185655,4.46680851 C161.165487,6.74617021 160.185614,9.04340426 159.189111,11.3329787 C158.935828,11.9151064 158.72284,12.5182979 158.926234,13.1476596 C160.050018,16.6231915 161.563321,19.9391489 162.974287,23.3323404 C163.617729,23.0202128 163.659943,22.4917021 163.833275,22.0665957 C166.094915,16.5344681 168.345042,10.9978723 170.59325,5.4606383 C171.35182,3.59234043 171.248204,3.34851064 169.415099,2.54234043 C168.959701,2.3412766 168.44482,2.16765957 168.618152,1.50893617 C168.774216,0.91212766 169.295493,0.988085106 169.722749,1.03787234 C171.332632,1.22361702 172.937398,1.13297872 174.545362,1.03021277 C174.931683,1.00595745 175.408828,0.909574468 175.580881,1.40808511 C175.74398,1.88042553 175.426737,2.13829787 175.037218,2.34319149 C174.044552,2.86468085 173.688293,3.85723404 173.288541,4.79680851 C170.212685,12.0185106 167.148982,19.2453191 164.081442,26.4702128 C163.88956,26.9221277 163.713669,27.3817021 163.501321,27.8234043 C163.269145,28.3059574 163.038248,28.8478723 162.4044,28.8785106 C161.718105,28.9110638 161.554366,28.3104255 161.350333,27.8310638 C160.023154,24.7123404 158.711966,21.587234 157.393743,18.4646809 C157.241517,18.1034043 157.077139,17.747234 156.89741,17.3412766 C156.455444,17.5251064 156.44585,17.9176596 156.328162,18.2055319 C155.080295,21.2610638 153.856093,24.3255319 152.609505,27.3810638 C152.350465,28.0161702 152.255164,28.9097872 151.321982,28.8702128 C150.499451,28.8357447 150.376648,28.007234 150.134877,27.4091489 C147.192699,20.1325532 144.2518,12.8559574 141.348638,5.56404255 C140.804974,4.19744681 140.263869,2.91319149 138.688525,2.44978723 C138.322032,2.3412766 138.048281,2.06425532 138.167248,1.64361702 C138.272143,1.27276596 138.578513,1.04042553 138.97123,1.04297872 C141.024998,1.05446809 143.079406,1.24914894 145.133814,1.03085106 C145.438265,0.998297872 145.65701,1.16553191 145.740798,1.44446809 C145.846333,1.7987234 145.660848,2.08978723 145.358315,2.21489362 C143.83158,2.84489362 144.119402,3.86234043 144.613816,5.06106383 C146.907436,10.6276596 149.150527,16.2146809 151.417283,21.7921277 C151.580382,22.193617 151.641145,22.656383 152.199519,23.0878723" id="Fill-11" sketch:type="MSShapeGroup"></path>
            <path d="M122.340248,14.9553191 C120.23723,14.9559574 118.133572,14.9795745 116.030554,14.9419149 C115.32763,14.9291489 115.103129,15.1589362 115.110804,15.8585106 C115.141505,18.8055319 115.150459,21.7538298 115.111444,24.7008511 C115.093535,26.0323404 115.94165,26.436383 116.98996,26.76 C117.628925,26.957234 118.731602,26.8965957 118.607519,27.7895745 C118.47576,28.7425532 117.419774,28.2931915 116.785287,28.2734043 C114.416834,28.2006383 112.050939,27.9868085 109.683764,28.29 C109.242438,28.3461702 108.864432,28.2734043 108.765293,27.7582979 C108.671911,27.2731915 108.936067,26.9329787 109.365881,26.8595745 C111.551408,26.4855319 111.72538,24.936383 111.713867,23.1465957 C111.674851,17.1625532 111.699796,11.1778723 111.698517,5.19319149 C111.697877,3.27382979 111.380634,2.86212766 109.57823,2.35212766 C109.095968,2.21553191 108.348911,2.26021277 108.487065,1.48595745 C108.604752,0.828510638 109.273139,1.01170213 109.727257,1.03468085 C112.007446,1.14957447 114.284436,1.18659574 116.564624,1.03468085 C117.020661,1.00404255 117.674337,0.851489362 117.777952,1.51914894 C117.869416,2.10574468 117.250279,2.17148936 116.844131,2.27234043 C115.60202,2.58191489 115.099931,3.36638298 115.114642,4.61489362 C115.144063,7.11574468 115.153657,9.61723404 115.105687,12.1174468 C115.090337,12.9255319 115.309721,13.2082979 116.1508,13.2006383 C120.267291,13.1642553 124.385061,13.1578723 128.501552,13.2051064 C129.408511,13.2153191 129.509568,12.8291489 129.499335,12.0874468 C129.466075,9.67595745 129.434735,7.26255319 129.50765,4.85297872 C129.547945,3.50553191 128.977418,2.75553191 127.732109,2.40574468 C127.270315,2.27680851 126.654376,2.21297872 126.736246,1.54914894 C126.823871,0.836170213 127.469871,1.02574468 127.922071,1.03276596 C129.977119,1.06276596 132.030248,1.25744681 134.087853,1.03404255 C134.618725,0.975957447 135.274319,0.982340426 135.395204,1.66021277 C135.518008,2.35085106 134.826596,2.36553191 134.392945,2.49574468 C133.328004,2.81680851 132.910343,3.52468085 132.912261,4.59829787 C132.923135,11.2078723 132.926972,17.8174468 132.908424,24.4270213 C132.905226,25.5817021 133.441214,26.2691489 134.490804,26.6234043 C134.871368,26.7523404 135.262806,26.8493617 135.64401,26.9751064 C136.044402,27.107234 136.437119,27.3044681 136.317513,27.8074468 C136.203663,28.2861702 135.782804,28.3410638 135.350432,28.3193617 C134.055873,28.253617 132.760036,28.1489362 131.464838,28.1482979 C130.259184,28.1482979 129.053531,28.2631915 127.847877,28.3251064 C127.416145,28.3474468 127.00424,28.2734043 126.896786,27.786383 C126.789333,27.2993617 127.129602,27.0025532 127.53639,26.9106383 C129.341992,26.502766 129.569691,25.2523404 129.511487,23.6623404 C129.418745,21.12 129.433455,18.57 129.514685,16.0270213 C129.544747,15.0804255 129.210234,14.9202128 128.381307,14.94 C126.368473,14.9878723 124.35436,14.9553191 122.340248,14.9553191" id="Fill-12" sketch:type="MSShapeGroup"></path>
            <path d="M195.500707,4.75723404 C195.51158,4.84595745 195.54484,4.93787234 195.530768,5.02148936 C195.425234,5.65723404 195.554434,6.60893617 194.735741,6.65361702 C193.794244,6.70531915 193.966297,5.73319149 193.946469,5.11531915 C193.915129,4.10234043 193.418156,3.55021277 192.463867,3.33829787 C189.943188,2.77787234 187.396285,2.95276596 184.85258,3.07659574 C184.165646,3.11042553 183.970566,3.5706383 183.971206,4.18148936 C183.974404,6.94978723 183.984638,9.71808511 183.961612,12.4857447 C183.956495,13.1087234 184.15925,13.373617 184.80525,13.362766 C186.504677,13.3340426 188.205384,13.3806383 189.904172,13.3302128 C191.274204,13.2893617 192.145345,12.5540426 192.482416,11.213617 C192.581554,10.8191489 192.678774,10.3461702 193.191097,10.386383 C193.794244,10.4329787 193.79936,10.9895745 193.787208,11.4165957 C193.723887,13.5568085 193.624109,15.6957447 193.789766,17.8365957 C193.821107,18.2431915 193.753309,18.6912766 193.213483,18.7314894 C192.708836,18.7691489 192.55725,18.3644681 192.416537,17.9725532 C191.505101,15.4314894 191.503182,15.4321277 188.74585,15.4321277 C187.492865,15.4321277 186.239881,15.4582979 184.988176,15.4225532 C184.269261,15.4021277 183.942424,15.5968085 183.954576,16.397234 C183.995511,19.1648936 183.982079,21.9331915 183.962251,24.7008511 C183.955216,25.6768085 184.372238,26.237234 185.356588,26.292766 C189.508897,26.5244681 193.522412,26.2704255 196.638562,22.9774468 C196.841956,22.7623404 197.021685,22.4080851 197.395853,22.5714894 C197.814794,22.7546809 197.712457,23.1714894 197.695828,23.5155319 C197.592212,25.65 194.974313,28.3059574 192.84699,28.3104255 C188.198349,28.3212766 183.550347,27.9459574 178.901705,28.3212766 C178.497475,28.3538298 178.012016,28.3493617 177.890491,27.8795745 C177.740184,27.2987234 178.255705,27.1085106 178.677844,26.9948936 C180.23464,26.5774468 180.566594,25.4731915 180.558919,24.03 C180.525659,17.8685106 180.555721,11.7076596 180.539091,5.54617021 C180.533335,3.33446809 180.238477,2.95404255 178.27937,2.37893617 C177.831008,2.24744681 177.330838,2.12425532 177.44021,1.55680851 C177.545105,1.00851064 178.089408,1.02702128 178.53777,1.02765957 C180.86401,1.03085106 183.192168,0.984255319 185.51585,1.06595745 C188.333945,1.16425532 191.146923,1.1412766 193.963099,1.04297872 C194.453675,1.02574468 195.038913,0.765319149 195.457853,1.29382979 C195.706659,2.44531915 195.241028,3.60574468 195.500707,4.75723404" id="Fill-13" sketch:type="MSShapeGroup"></path>
            <path d="M255.244194,2.92851064 C254.275834,3.0612766 253.947717,3.63574468 253.959869,4.58042553 C253.994408,7.1712766 253.984814,9.76340426 253.959869,12.3542553 C253.952834,13.0876596 254.188848,13.3940426 254.967885,13.3697872 C256.532996,13.32 258.101945,13.3723404 259.668335,13.3448936 C261.058194,13.3212766 262.074525,12.7582979 262.451251,11.3106383 C262.557426,10.9021277 262.632259,10.3155319 263.232848,10.4023404 C263.90763,10.5 263.77779,11.1274468 263.780988,11.5921277 C263.795699,13.6468085 263.786745,15.7008511 263.782907,17.7555319 C263.781628,18.1544681 263.834075,18.6210638 263.29361,18.7117021 C262.71157,18.8093617 262.552949,18.3714894 262.410317,17.9189362 C261.627442,15.4314894 261.623604,15.432766 258.962851,15.4321277 C257.664455,15.4314894 256.36478,15.4691489 255.068303,15.4187234 C254.26624,15.3874468 253.944519,15.6465957 253.956032,16.4782979 C253.993768,19.1585106 254.004002,21.84 253.964347,24.5202128 C253.945798,25.7776596 254.538711,26.3317021 255.729014,26.3540426 C259.779626,26.4306383 263.734297,26.2002128 266.71677,22.8919149 C266.913129,22.6742553 267.112685,22.3519149 267.489412,22.6117021 C267.795782,22.8223404 267.761244,23.1504255 267.744614,23.4638298 C267.627566,25.6474468 264.964255,28.3078723 262.770414,28.3085106 C260.131408,28.3091489 257.491762,28.1559574 254.852756,28.1482979 C252.885335,28.1425532 250.917273,28.2682979 248.949851,28.3206383 C248.511723,28.3321277 247.970618,28.3889362 247.895784,27.7768085 C247.835022,27.276383 248.284663,27.1014894 248.670984,26.9987234 C250.215628,26.5876596 250.598111,25.4840426 250.592354,24.0440426 C250.56805,17.8334043 250.598111,11.6234043 250.566131,5.41276596 C250.555897,3.3306383 250.218826,2.94893617 248.288501,2.38021277 C247.841418,2.2487234 247.332933,2.13574468 247.436549,1.56319149 C247.536966,1.01170213 248.084467,1.02638298 248.530911,1.02829787 C251.440469,1.04425532 254.352586,0.996382979 257.258307,1.11574468 C259.635715,1.21340426 262.000331,1.06659574 264.369424,1.00404255 C265.366566,0.97787234 265.755446,1.30276596 265.687648,2.30170213 C265.60322,3.54638298 265.71579,4.80510638 265.366566,6.02808511 C265.261671,6.39702128 265.088339,6.7212766 264.661083,6.70914894 C264.308661,6.69957447 264.027875,6.42255319 264.059216,6.09957447 C264.32721,3.3312766 262.300305,3.22468085 260.423067,2.93489362 C260.542034,2.77148936 260.717285,2.77148936 260.895735,2.75361702 C261.03325,2.73893617 261.189952,2.83021277 261.272461,2.74659574 C259.534657,2.74723404 257.759117,2.73765957 255.984216,2.75808511 C255.742446,2.7612766 255.413689,2.55446809 255.244194,2.92851064" id="Fill-14" sketch:type="MSShapeGroup"></path>
            <path d="M208.530079,28.5919149 C206.422584,28.5734043 204.482026,28.1208511 202.632931,27.2508511 C201.937042,26.922766 201.517461,26.4612766 201.399135,25.6487234 C201.194461,24.2374468 200.855471,22.8459574 200.618818,21.4385106 C200.533111,20.9304255 200.387921,20.2531915 201.087008,20.0821277 C201.830867,19.9002128 201.884594,20.5685106 202.03618,21.0880851 C203.503432,26.1153191 209.12683,28.5121277 213.785705,26.0853191 C215.467224,25.2095745 216.548794,23.8806383 216.822545,21.9395745 C217.083503,20.0904255 216.432386,18.7097872 214.850006,17.7517021 C213.456949,16.9078723 211.895036,16.4968085 210.351032,16.0474468 C208.592121,15.5348936 206.822976,15.0606383 205.190067,14.1951064 C202.548503,12.7953191 201.285285,10.6091489 201.441349,7.63531915 C201.594214,4.71638298 203.064024,2.64638298 205.744604,1.54723404 C209.002107,0.211276596 212.297986,0.421276596 215.559966,1.63531915 C215.884885,1.75659574 216.219398,2.14978723 216.532804,1.95957447 C217.937374,1.10553191 217.901556,2.20276596 218.006451,3.02489362 C218.187459,4.4412766 218.307065,5.86595745 218.457372,7.28680851 C218.496388,7.65255319 218.539242,8.05021277 218.129255,8.20851064 C217.656588,8.39234043 217.37836,8.06425532 217.178164,7.68702128 C217.073909,7.49170213 217.006111,7.27723404 216.921683,7.07170213 C215.259992,3.01851064 211.313636,1.22106383 207.15685,2.62404255 C205.095406,3.31978723 203.898707,4.77765957 203.817477,6.6906383 C203.737527,8.56978723 204.596515,9.76021277 206.742386,10.7080851 C208.38361,11.4331915 210.139962,11.8097872 211.834913,12.3714894 C212.976606,12.7493617 214.127253,13.1521277 215.192834,13.6997872 C217.737178,15.0070213 219.15518,17.0642553 219.222978,20.0042553 C219.293974,23.0604255 218.012848,25.35 215.430766,26.9131915 C213.298966,28.2031915 210.905568,28.5082979 208.530079,28.5919149" id="Fill-15" sketch:type="MSShapeGroup"></path>
            <path d="M244.94785,1.27085106 C245.917489,2.71276596 245.356556,4.35765957 245.546519,5.90234043 C245.580418,6.18 245.295794,6.36 244.990063,6.36765957 C244.557691,6.37787234 244.364531,6.09574468 244.230214,5.73702128 C243.379541,3.47234043 243.378901,3.47234043 240.951604,3.47042553 C239.340442,3.46914894 237.72864,3.50170213 236.119396,3.45765957 C235.270642,3.43404255 234.947642,3.69510638 234.953398,4.59702128 C234.994333,11.2059574 235.000089,17.8148936 234.984739,24.4238298 C234.981541,25.7438298 235.492584,26.5423404 236.831915,26.7778723 C237.25917,26.8531915 237.779808,26.9093617 237.951222,27.3951064 C238.218576,28.1514894 237.765737,28.3742553 237.112061,28.3104255 C234.565798,28.0621277 232.020814,28.0819149 229.47519,28.307234 C229.092707,28.3410638 228.727493,28.2868085 228.618121,27.8604255 C228.497236,27.3880851 228.78122,27.1046809 229.189287,26.9310638 C229.477109,26.8091489 229.76685,26.6910638 230.061707,26.5895745 C231.120251,26.2244681 231.59164,25.5408511 231.585244,24.3734043 C231.548147,17.8091489 231.552624,11.2448936 231.583964,4.6806383 C231.588442,3.77553191 231.363941,3.40914894 230.391103,3.45 C228.648822,3.52212766 226.900784,3.49468085 225.156584,3.46340426 C223.718115,3.43723404 222.744638,3.96702128 222.436988,5.45617021 C222.365352,5.80404255 222.236152,6.14170213 222.112069,6.47553191 C221.969438,6.85787234 221.69185,7.06212766 221.276747,6.94340426 C220.913451,6.8393617 220.800881,6.51765957 220.858446,6.19787234 C221.138592,4.62893617 221.032418,3.00382979 221.547939,1.47 C223.780156,1.1112766 226.027725,1.25042553 228.265699,1.32319149 C231.869228,1.4393617 235.468279,1.47446809 239.069889,1.30914894 C241.027717,1.21914894 242.988743,1.30148936 244.94785,1.27085106" id="Fill-16" sketch:type="MSShapeGroup"></path>
            <path d="M104.984594,1.28425532 C105.908182,2.74212766 105.424642,4.37297872 105.543608,5.92851064 C105.565994,6.22340426 105.271776,6.37021277 104.971802,6.36319149 C104.543267,6.35234043 104.364818,6.06319149 104.241374,5.69808511 C103.50455,3.52021277 103.445707,3.47680851 101.197499,3.47106383 C99.4967921,3.46659574 97.7960851,3.49659574 96.0966574,3.45829787 C95.3150614,3.44106383 94.9875842,3.6612766 94.9907822,4.51212766 C95.020204,11.2097872 95.0106099,17.9080851 95.0067723,24.6057447 C95.0067723,25.8134043 95.5753802,26.5289362 96.7695208,26.7606383 C97.0733327,26.8193617 97.3758653,26.9170213 97.6598495,27.0414894 C97.9892455,27.186383 98.0787901,27.4857447 98.0340178,27.8240426 C97.9822099,28.217234 97.6969465,28.3442553 97.3598752,28.3142553 C94.6799347,28.0717021 92.0006337,28.0831915 89.3206931,28.3059574 C88.9772257,28.3340426 88.6983584,28.1865957 88.6273624,27.8182979 C88.5474119,27.4021277 88.7623188,27.0568085 89.1326495,26.9878723 C91.7473505,26.5046809 91.6219881,24.6070213 91.6008812,22.5931915 C91.5394792,16.6551064 91.5746574,10.7157447 91.6181505,4.77702128 C91.6245465,3.83744681 91.449295,3.39510638 90.3779584,3.44744681 C88.637596,3.53234043 86.8882792,3.50234043 85.1447188,3.46085106 C83.6819446,3.42638298 82.7615545,4.02255319 82.4443109,5.48042553 C82.3688376,5.82765957 82.2607446,6.17234043 82.1289861,6.50234043 C82.0042634,6.81446809 81.7605743,7.02382979 81.3998376,6.96574468 C80.9546733,6.89425532 80.8101228,6.54957447 80.8785604,6.16978723 C81.1631842,4.60148936 81.0518931,2.97446809 81.5802059,1.44319149 C82.9476792,1.17382979 84.3349802,1.22808511 85.7082099,1.2912766 C92.1343109,1.58553191 98.5591327,1.25808511 104.984594,1.28425532" id="Fill-17" sketch:type="MSShapeGroup"></path>
            <path d="M191.762861,59.7497872 C191.042028,59.7517021 190.320554,59.7529787 189.599081,59.7548936 C189.42319,59.723617 189.24538,59.6987234 189.071408,59.6604255 C186.013461,58.9902128 184.962592,57.6319149 185.109061,54.5387234 C185.124412,54.2144681 185.173022,53.8755319 185.555505,53.813617 C186.132428,53.7210638 186.175921,54.2208511 186.286572,54.5840426 C187.022756,56.9993617 188.703636,58.2746809 191.162273,58.5280851 C192.583473,58.6742553 193.933677,58.3385106 195.061939,57.4174468 C197.055584,55.7910638 196.734503,53.0559574 194.409543,52.0002128 C193.560788,51.6146809 192.641038,51.3823404 191.74815,51.0976596 C190.599422,50.7312766 189.432784,50.4248936 188.356331,49.8555319 C186.442636,48.8444681 185.610511,47.2570213 185.761457,45.1231915 C185.910485,43.0174468 187.054737,41.6559574 188.978026,40.9238298 C191.029236,40.1419149 193.095796,40.2785106 195.159798,40.9225532 C195.530768,41.0387234 195.858885,41.4031915 196.291897,41.2174468 C197.131697,40.8561702 197.184784,41.4459574 197.25642,41.9955319 C197.376665,42.9248936 197.480281,43.8568085 197.583897,44.7880851 C197.622913,45.1404255 197.72525,45.5821277 197.289679,45.7142553 C196.774798,45.8706383 196.598267,45.4097872 196.46459,45.0357447 C195.748873,43.0340426 194.355176,41.8953191 192.235529,41.6176596 C191.460968,41.5161702 190.711992,41.6151064 189.977727,41.8091489 C188.483612,42.2048936 187.552349,43.2619149 187.476875,44.603617 C187.391808,46.1125532 188.354412,46.8587234 189.575416,47.3795745 C191.464806,48.1851064 193.551834,48.4410638 195.375984,49.4368085 C198.83944,51.3268085 199.123424,56.0476596 195.908774,58.3417021 C195.17259,58.8670213 194.351339,59.2174468 193.475081,59.4274468 C192.91095,59.562766 192.334028,59.6444681 191.762861,59.7497872" id="Fill-18" sketch:type="MSShapeGroup"></path>
            <path d="M119.777354,59.382766 C118.63822,58.5102128 117.816968,57.3376596 116.869715,56.2870213 C114.010046,53.117234 111.191311,49.9110638 108.345073,46.7291489 C108.095628,46.4508511 107.942762,46.0002128 107.433638,46.0557447 C107.334499,46.14 107.22065,46.1878723 107.09145,46.1993617 C106.38021,46.0582979 106.197923,45.5495745 106.200481,44.9144681 C106.201121,44.8704255 106.222867,44.8180851 106.206238,44.7829787 C106.101982,44.5717021 106.084073,44.8608511 106.006681,44.82 C105.679204,43.3308511 105.238517,41.9451064 103.406691,41.6840426 C103.095204,41.6393617 102.796509,41.4223404 102.877739,41.0355319 C102.941699,40.7278723 103.232079,40.6678723 103.514145,40.6691489 C105.008259,40.6742553 106.295782,40.6838298 107.493121,42.1110638 C111.191311,46.5197872 115.141505,50.7165957 119.002154,55.0053191 C119.423653,54.7129787 119.229853,54.3242553 119.231133,54.0095745 C119.248402,50.8404255 119.224737,47.6712766 119.249681,44.5021277 C119.260554,43.0691489 118.745673,42.0817021 117.252838,41.7740426 C116.852446,41.6910638 116.347798,41.5857447 116.396408,41.1012766 C116.462287,40.4406383 117.067352,40.6882979 117.472222,40.6819149 C118.76742,40.662766 120.063257,40.6678723 121.359095,40.6710638 C121.700644,40.6717021 122.139412,40.5402128 122.25518,41.016383 C122.342806,41.3757447 122.052426,41.5953191 121.746695,41.7089362 C120.780893,42.0676596 120.778335,42.8623404 120.780253,43.6946809 C120.789848,48.4704255 120.789848,53.2468085 120.777055,58.0225532 C120.775776,58.4948936 120.944632,59.0106383 120.562149,59.4312766 C120.30119,58.877234 120.448299,58.29 120.44638,57.7212766 C120.43103,53.3068085 120.434228,48.8929787 120.443822,44.4785106 C120.444461,44.0661702 120.336368,43.6391489 120.42975,43.4540426 L120.42975,55.5006383 C120.42975,56.4817021 120.419517,57.462766 120.434228,58.4438298 C120.441263,58.9308511 120.396491,59.3476596 119.777354,59.382766" id="Fill-19" sketch:type="MSShapeGroup"></path>
            <path d="M157.146855,50.6234043 C156.775885,50.8474468 156.810424,51.2138298 156.811063,51.57 C156.812343,53.3055319 156.835368,55.0417021 156.801469,56.7765957 C156.7842,57.6644681 157.135982,58.1080851 158.037824,58.122766 C160.759339,58.1655319 163.412416,58.0008511 165.439321,55.8210638 C165.61777,55.6289362 165.818606,55.3653191 166.107067,55.5682979 C166.34436,55.7348936 166.294471,56.0406383 166.273364,56.3087234 C166.177424,57.4934043 164.829778,59.0425532 163.546093,59.4389362 C162.115939,59.2295745 160.685784,59.237234 159.25499,59.436383 L155.219729,59.4440426 C154.413828,59.243617 153.608566,59.2321277 152.804584,59.4504255 C152.602469,58.8459574 152.578804,58.7865957 153.060426,58.5938298 C153.716659,58.3308511 154.196362,57.9504255 154.39464,57.2597872 C154.6524,57.1193617 154.551343,56.8768085 154.551343,56.6731915 C154.55518,52.3602128 154.55518,48.047234 154.551343,43.7342553 C154.551343,43.5312766 154.65304,43.2874468 154.391442,43.1508511 C154.153509,42.3778723 153.755675,41.7925532 152.850636,41.712766 C152.537869,41.6846809 152.223824,41.5353191 152.232139,41.1402128 C152.241733,40.7055319 152.60055,40.6761702 152.906921,40.6755319 C156.656279,40.6640426 160.405638,40.6653191 164.154996,40.6608511 C164.56882,40.6602128 164.864317,40.812766 164.873911,41.2589362 C164.894378,42.1934043 164.946186,43.1317021 164.692263,44.0482979 C164.609115,44.3508511 164.524687,44.6942553 164.124935,44.676383 C163.732857,44.6597872 163.590226,44.316383 163.610693,44.01 C163.714949,42.4831915 162.688384,42.2565957 161.542853,42.2010638 C160.341038,42.1429787 159.135384,42.1123404 157.93165,42.1257447 C157.471135,42.1308511 156.842404,42.1085106 156.837927,42.8125532 C156.825135,44.8589362 156.855196,46.9053191 156.885897,48.9510638 C156.887176,49.0493617 157.054113,49.1444681 157.143657,49.2414894 C157.116154,49.4929787 157.515267,49.4393617 157.474333,49.7017021 C157.442992,49.9742553 157.356646,50.2155319 157.111677,50.3731915 C156.976081,50.4606383 156.985675,50.5206383 157.146855,50.6234043" id="Fill-20" sketch:type="MSShapeGroup"></path>
            <path d="M218.623669,59.4338298 C217.284339,59.4721277 215.945648,59.5129787 214.606317,59.5461702 C214.306343,59.5531915 213.941129,59.6534043 213.805533,59.2614894 C213.651388,58.8165957 213.957758,58.547234 214.314018,58.4731915 C215.704517,58.1840426 215.797899,57.2182979 215.785107,56.0457447 C215.740974,51.9414894 215.73202,47.8365957 215.794061,43.7329787 C215.809412,42.7078723 215.504321,42.3874468 214.516133,42.4959574 C213.80937,42.5738298 213.08342,42.5591489 212.37282,42.5010638 C210.91964,42.3823404 209.664097,42.4991489 209.424885,44.3278723 C209.38395,44.6431915 209.147297,44.9553191 208.783362,44.8768085 C208.424545,44.7995745 208.378493,44.4497872 208.414311,44.1153191 C208.509612,43.2287234 208.602354,42.3421277 208.697655,41.4555319 C208.762895,40.8453191 209.133865,40.6531915 209.712707,40.6544681 C214.628063,40.6640426 219.544059,40.6621277 224.460055,40.6589362 C225.05041,40.6582979 225.379166,40.9008511 225.414345,41.5168085 C225.45464,42.2285106 225.530113,42.9389362 225.576164,43.6506383 C225.59983,44.0195745 225.584479,44.4076596 225.080471,44.4248936 C224.69479,44.4382979 224.527214,44.1644681 224.509305,43.8191489 C224.448543,42.6631915 223.691891,42.4525532 222.743358,42.5131915 C221.285701,42.6070213 219.340026,41.8793617 218.510459,42.8017021 C217.788986,43.6034043 218.278923,45.5106383 218.272527,46.9295745 C218.257816,50.0074468 218.311543,53.0865957 218.246943,56.1638298 C218.220079,57.4385106 218.450337,58.3653191 219.904796,58.5529787 C220.029519,58.5689362 220.128657,58.787234 220.239949,58.9110638 C219.877933,59.6291489 219.108489,59.0942553 218.623669,59.4338298" id="Fill-21" sketch:type="MSShapeGroup"></path>
            <path d="M233.910844,50.6412766 C232.44743,48.2961702 230.983376,45.9517021 229.520602,43.6065957 C229.002523,42.7748936 228.562475,41.8710638 227.425899,41.7038298 C227.162382,41.6648936 226.925089,41.4848936 226.951952,41.153617 C226.984572,40.7438298 227.285826,40.6659574 227.619699,40.6653191 C229.183531,40.6621277 230.747362,40.6614894 232.310554,40.6691489 C232.534416,40.6697872 232.77043,40.7176596 232.853578,40.9691489 C232.956554,41.2793617 232.78578,41.5065957 232.526741,41.6151064 C231.479069,42.0542553 231.717002,42.6561702 232.206299,43.4010638 C233.353109,45.1480851 234.44939,46.9282979 235.679349,48.8751064 C236.885002,46.8989362 238.022857,45.1014894 239.086519,43.2612766 C239.61803,42.3408511 239.000812,41.9693617 238.184677,41.8053191 C237.787483,41.7255319 237.304582,41.7 237.369182,41.1434043 C237.433782,40.5944681 237.926917,40.6678723 238.320273,40.6653191 C239.525927,40.6582979 240.73222,40.6614894 241.937873,40.6602128 C242.210345,40.6595745 242.488572,40.6640426 242.626727,40.9557447 C242.769998,41.2582979 242.610097,41.4995745 242.368327,41.6278723 C240.87805,42.4219149 240.511556,44.0929787 239.497784,45.2489362 C236.673933,48.4704255 235.808549,52.2051064 236.288251,56.3814894 C236.407218,57.4174468 236.547931,58.2146809 237.71137,58.4629787 C238.05164,58.5351064 238.460986,58.7074468 238.416214,59.1453191 C238.365685,59.6380851 237.904531,59.5710638 237.56682,59.5602128 C235.913444,59.5053191 234.261347,59.4159574 232.60797,59.5589362 C232.295844,59.5857447 231.92935,59.5678723 231.863471,59.1689362 C231.80079,58.7948936 232.089891,58.5982979 232.408414,58.5191489 C233.030749,58.3640426 233.610869,58.1668085 233.902529,57.5253191 C234.182675,55.2312766 234.171802,52.9365957 233.910844,50.6412766" id="Fill-22" sketch:type="MSShapeGroup"></path>
            <path d="M204.386725,59.43 C203.269976,59.4740426 202.153228,59.5302128 201.036479,59.556383 C200.654636,59.5653191 200.165978,59.6585106 200.084109,59.0878723 C200.01823,58.6270213 200.391758,58.4719149 200.748018,58.3953191 C201.871162,58.152766 202.062404,57.347234 202.059846,56.3725532 C202.050251,52.0838298 202.039378,47.7944681 202.06816,43.5057447 C202.074556,42.5119149 201.768826,41.8742553 200.72819,41.6865957 C200.386002,41.6246809 199.960026,41.5180851 200.013113,41.0444681 C200.072596,40.5165957 200.538228,40.6678723 200.865705,40.6653191 C202.431455,40.6531915 203.996566,40.656383 205.562317,40.662766 C205.862931,40.6640426 206.258846,40.5753191 206.361822,40.9685106 C206.483986,41.436383 206.083594,41.6029787 205.739487,41.6738298 C204.632972,41.9029787 204.547905,42.6970213 204.550463,43.6091489 C204.565174,47.8538298 204.594596,52.0985106 204.533194,56.3419149 C204.515285,57.57 204.839564,58.3187234 206.134123,58.4859574 C206.372055,58.5165957 206.667552,58.607234 206.743026,58.9276596 C206.104701,59.7810638 205.115234,58.9946809 204.386725,59.43" id="Fill-23" sketch:type="MSShapeGroup"></path>
            <path d="M126.177232,42.8942553 C125.9054,42.1544681 125.360457,41.772766 124.594212,41.6355319 C124.282085,41.5793617 123.969958,41.406383 124.037117,41.0112766 C124.110671,40.577234 124.496992,40.6653191 124.79121,40.6640426 C126.398535,40.6551064 128.005859,40.6582979 129.613184,40.6608511 C129.922752,40.6614894 130.318667,40.6104255 130.398618,40.9934043 C130.493279,41.4497872 130.082014,41.6093617 129.739186,41.682766 C128.722855,41.8991489 128.56935,42.5993617 128.573188,43.4878723 C128.593016,47.6802128 128.626275,51.8738298 128.556558,56.0655319 C128.534172,57.3957447 128.730531,58.3582979 130.263661,58.5280851 C130.465776,58.5510638 130.696673,58.6544681 130.743364,58.9231915 C130.199701,59.7491489 129.270996,59.0087234 128.630113,59.4402128 C127.384164,59.4823404 126.138855,59.5334043 124.892267,59.5589362 C124.543044,59.5659574 124.140093,59.5640426 124.086366,59.0712766 C124.043513,58.6780851 124.333253,58.4885106 124.642182,58.4374468 C125.512044,58.2944681 125.912436,57.7091489 126.166358,56.9553191 C126.460576,56.8448936 126.343529,56.5921277 126.344168,56.3968085 C126.348646,52.0876596 126.348646,47.7785106 126.344808,43.4687234 C126.344168,43.2682979 126.449703,43.0219149 126.177232,42.8942553" id="Fill-24" sketch:type="MSShapeGroup"></path>
            <path d="M106.006681,44.82 C106.038661,44.6125532 106.070642,44.4044681 106.157628,43.8376596 C106.389804,44.867234 106.258685,45.7251064 107.136222,46.0468085 C107.43044,48.5897872 107.191228,51.1410638 107.264143,53.6878723 C107.280772,54.2604255 107.26798,54.833617 107.266061,55.4055319 C107.243036,55.9148936 106.883578,56.2851064 106.705768,56.7312766 C106.597036,57.0051064 106.450566,57.4225532 106.094307,57.2521277 C105.802008,57.1123404 105.922253,56.7076596 106.035463,56.4114894 C106.025869,52.5478723 106.016275,48.683617 106.006681,44.82" id="Fill-25" sketch:type="MSShapeGroup"></path>
            <path d="M106.035463,56.4114894 C106.052733,56.6202128 106.069362,56.8295745 106.086632,57.0382979 C106.349509,56.4931915 106.545228,55.9512766 107.134303,55.6978723 C107.522543,56.1593617 106.973762,56.8040426 107.438754,57.2502128 C107.697154,58.0704255 108.294545,58.4368085 109.116436,58.5446809 C109.473974,58.5919149 109.865412,58.716383 109.75604,59.2046809 C109.667135,59.5985106 109.291048,59.58 108.987875,59.5595745 C107.472653,59.4574468 105.95935,59.4548936 104.444768,59.5602128 C104.137758,59.5812766 103.770626,59.5704255 103.713061,59.1606383 C103.661253,58.7904255 103.939481,58.5631915 104.252248,58.4987234 C105.403535,58.2612766 105.793693,57.4065957 106.035463,56.4114894" id="Fill-26" sketch:type="MSShapeGroup"></path>
            <path d="M160.807949,49.2382979 C161.62984,48.9810638 162.401202,48.6829787 162.579651,47.6782979 C162.634018,47.3751064 162.806711,47.0534043 163.206463,47.1446809 C163.511554,47.2148936 163.561444,47.5085106 163.562083,47.783617 C163.565281,49.2887234 163.56656,50.7931915 163.564642,52.2982979 C163.564002,52.6180851 163.537139,52.9544681 163.115,52.9729787 C162.72804,52.9908511 162.56622,52.6844681 162.521448,52.3742553 C162.407598,51.5802128 162.122974,50.9310638 161.295327,50.6546809 C161.038206,50.2142553 159.960473,50.3751064 160.394125,49.4291489 C160.745267,49.3551064 161.107923,49.4604255 161.517909,49.3448936 C161.223691,49.4042553 160.993434,49.4444681 160.807949,49.2382979" id="Fill-27" sketch:type="MSShapeGroup"></path>
            <path d="M320.135214,28.0787234 C319.820529,27.8010638 319.896642,27.4270213 319.896642,27.0778723 C319.893444,19.6717021 319.894083,12.2655319 319.897281,4.8593617 C319.897281,4.65191489 319.938216,4.44446809 320.20557,4.24340426 L320.20557,27.6312766 C320.181905,27.78 320.158879,27.9293617 320.135214,28.0787234" id="Fill-28" sketch:type="MSShapeGroup"></path>
            <path d="M61.1691644,4.2906383 C61.2331248,4.1706383 61.3149941,3.8412766 61.4205287,4.05255319 C61.5638,4.34042553 61.468499,4.74957447 61.468499,5.10638298 C61.4691386,11.49 61.471697,17.873617 61.4614634,24.257234 C61.4608238,24.6274468 61.5951406,25.0231915 61.345695,25.3704255 C61.3431366,25.3742553 61.268303,25.3461702 61.2561505,25.32 C61.2190535,25.2395745 61.1960277,25.1534043 61.1678851,25.0691489 C61.1685248,18.1429787 61.1685248,11.2168085 61.1691644,4.2906383" id="Fill-29" sketch:type="MSShapeGroup"></path>
            <path d="M119.777354,59.382766 C120.403527,59.0253191 120.30119,58.4234043 120.30119,57.8502128 C120.298632,53.3055319 120.299271,48.7614894 120.299271,44.2174468 L120.299271,42.9025532 C120.386897,42.9025532 120.474523,42.9019149 120.562149,42.9019149 L120.562149,59.4312766 C120.26985,59.9074468 120.0268,59.5985106 119.777354,59.382766" id="Fill-30" sketch:type="MSShapeGroup"></path>
            <path d="M24.0810891,5.65595745 C24.1706337,5.50787234 24.3036713,4.94170213 24.3746673,5.62212766 C24.4667703,6.50170213 24.3976931,7.39851064 24.3976931,8.28765957 C24.3976931,12.4678723 24.4040891,16.6480851 24.3887386,20.8282979 C24.3868198,21.2865957 24.5953307,21.8246809 24.0753327,22.1751064 C24.0772515,16.6691489 24.0791703,11.1625532 24.0810891,5.65595745" id="Fill-31" sketch:type="MSShapeGroup"></path>
            <path d="M160.325687,49.5338298 C160.584087,50.0380851 161.026693,50.2065957 161.542853,50.4082979 C161.897834,50.5468085 161.368242,50.5410638 161.295327,50.6546809 C159.912503,50.6444681 158.529679,50.633617 157.146855,50.6234043 C156.424103,50.0968085 157.476891,49.9340426 157.370717,49.5338298 C158.356347,49.3244681 159.341337,49.3244681 160.325687,49.5338298" id="Fill-32" sketch:type="MSShapeGroup"></path>
            <path d="M154.391442,43.1508511 C154.676705,43.1259574 154.683741,43.1259574 154.68438,43.3161702 C154.685659,46.7470213 154.685659,50.177234 154.68438,53.6080851 C154.683741,54.8993617 154.679903,56.1912766 154.672867,57.4831915 C154.672228,57.5042553 154.613384,57.5253191 154.582044,57.546383 C154.520002,57.4506383 154.457321,57.3555319 154.39464,57.2597872 C154.394,52.5568085 154.392721,47.8538298 154.391442,43.1508511" id="Fill-33" sketch:type="MSShapeGroup"></path>
            <path d="M126.177232,42.8942553 C126.665889,42.1634043 126.468251,42.942766 126.468891,43.043617 C126.480404,46.1693617 126.478485,49.2944681 126.478485,52.4202128 C126.477846,53.9387234 126.520699,55.4585106 126.458657,56.9738298 C126.431154,57.6338298 126.257822,57.1614894 126.166358,56.9553191 C126.170196,52.2682979 126.173394,47.5812766 126.177232,42.8942553" id="Fill-34" sketch:type="MSShapeGroup"></path>
            <path d="M169.431729,43.4265957 C169.454754,43.2504255 169.47842,43.0742553 169.502085,42.8968085 C169.579477,42.9140426 169.698444,42.9274468 169.698444,42.9414894 C169.713794,47.6202128 169.721469,52.2989362 169.727865,56.9776596 C169.727865,57.066383 169.740018,57.2195745 169.7042,57.233617 C169.436846,57.336383 169.480339,57.0893617 169.420216,56.9578723 C169.424053,52.4476596 169.427891,47.9368085 169.431729,43.4265957" id="Fill-35" sketch:type="MSShapeGroup"></path>
            <path d="M86.7488455,52.4195745 C86.7149465,52.8855319 86.6810475,53.3521277 86.6471485,53.8180851 C86.5819089,53.8142553 86.5166693,53.8104255 86.4514297,53.8059574 C86.4514297,50.1651064 86.4258455,46.523617 86.475095,42.8834043 C86.4840495,42.2317021 86.6784891,42.7302128 86.7635564,42.9165957 C86.7584396,46.0838298 86.7533228,49.2517021 86.7488455,52.4195745" id="Fill-36" sketch:type="MSShapeGroup"></path>
            <path d="M107.438754,57.2502128 C106.746063,56.8480851 107.343453,56.1944681 107.134303,55.6978723 C107.134943,52.4808511 107.135582,49.2638298 107.136222,46.0468085 C107.23536,46.05 107.334499,46.0525532 107.433638,46.0557447 C107.435556,49.787234 107.436836,53.5187234 107.438754,57.2502128" id="Fill-37" sketch:type="MSShapeGroup"></path>
            <path d="M84.5326178,53.0917021 L84.5326178,42.84 C84.6221624,42.8406383 84.7110673,42.8406383 84.8006119,42.8406383 C84.8006119,46.302766 84.8025307,49.7642553 84.7916574,53.226383 C84.7910178,53.3348936 84.6522238,53.442766 84.5780297,53.5512766 C84.5633188,53.3980851 84.5479683,53.2448936 84.5326178,53.0917021" id="Fill-38" sketch:type="MSShapeGroup"></path>
            <path d="M100.135117,53.8174468 C100.063481,53.7076596 99.9291644,53.5978723 99.9285248,53.4874468 C99.9176515,50.0304255 99.9195703,46.572766 100.200356,43.1151064 L100.200356,52.8402128 C100.17861,53.1657447 100.156863,53.4912766 100.135117,53.8174468" id="Fill-39" sketch:type="MSShapeGroup"></path>
            <path d="M64.4701604,24.7806383 C64.4049208,24.9114894 64.2111208,25.146383 64.2111208,25.0774468 C64.218796,22.0238298 63.9719089,18.9657447 64.3185743,15.9178723 C64.3249703,15.8629787 64.4580079,15.822766 64.532202,15.7755319 C64.5117347,18.7774468 64.4906277,21.7793617 64.4701604,24.7806383" id="Fill-40" sketch:type="MSShapeGroup"></path>
            <path d="M233.910844,50.6412766 C233.986317,50.6361702 234.06179,50.6317021 234.137263,50.6265957 C234.237681,52.9359574 234.251113,55.2453191 234.124471,57.5540426 C234.123832,57.5680851 234.052196,57.5923404 234.017657,57.587234 C233.976723,57.5808511 233.940265,57.5470213 233.902529,57.5253191 C233.905087,55.2306383 233.908285,52.9359574 233.910844,50.6412766" id="Fill-41" sketch:type="MSShapeGroup"></path>
            <path d="M160.325687,49.5338298 L157.370717,49.5338298 C157.254309,49.5012766 157.137901,49.4687234 157.020853,49.4368085 L157.143657,49.2414894 C158.364661,49.2402128 159.586305,49.2395745 160.807949,49.2382979 C161.010703,49.2619149 161.214097,49.2855319 161.542853,49.3238298 C161.06379,49.6480851 160.680667,49.4795745 160.325687,49.5338298" id="Fill-42" sketch:type="MSShapeGroup"></path>
            <path d="M159.25499,59.436383 C160.685784,59.0253191 162.115939,59.0202128 163.546093,59.4389362 C162.115299,59.6693617 160.685145,59.5576596 159.25499,59.436383" id="Fill-43" sketch:type="MSShapeGroup"></path>
            <path d="M57.4185267,16.0161702 C57.0258099,14.9470213 57.0206931,13.8778723 57.4217248,12.8093617 C57.6020931,13.8785106 57.5918594,14.9476596 57.4185267,16.0161702" id="Fill-44" sketch:type="MSShapeGroup"></path>
            <path d="M167.585832,58.9174468 C168.213283,59.4389362 169.102333,58.89 169.724028,59.4370213 C169.163095,59.4746809 168.602802,59.5385106 168.041869,59.5423404 C167.654909,59.5455319 167.345341,59.4095745 167.585832,58.9174468" id="Fill-45" sketch:type="MSShapeGroup"></path>
            <path d="M204.386725,59.43 C205.085172,58.8561702 206.04138,59.4874468 206.743026,58.9276596 C206.942582,59.5806383 206.453925,59.55 206.079117,59.5468085 C205.514347,59.5417021 204.950855,59.4721277 204.386725,59.43" id="Fill-46" sketch:type="MSShapeGroup"></path>
            <path d="M152.804584,59.4504255 C153.608566,59.0176596 154.413188,59.0317021 155.219729,59.4440426 C154.415107,59.5302128 153.609846,59.6693617 152.804584,59.4504255" id="Fill-47" sketch:type="MSShapeGroup"></path>
            <path d="M128.630113,59.4402128 C129.239655,58.8817021 130.125507,59.4485106 130.743364,58.9231915 C130.954434,59.4574468 130.592418,59.5461702 130.213772,59.5429787 C129.686099,59.5391489 129.157786,59.477234 128.630113,59.4402128" id="Fill-48" sketch:type="MSShapeGroup"></path>
            <path d="M218.623669,59.4338298 C219.072032,58.9806383 219.777515,59.3202128 220.239949,58.9110638 C220.066616,60.2112766 219.180764,59.316383 218.623669,59.4338298" id="Fill-49" sketch:type="MSShapeGroup"></path>
            <path d="M299.255343,23.9738298 L299.255343,6.99957447 C299.297556,6.99957447 299.34041,6.99893617 299.382624,6.99893617 L299.382624,24.023617 C299.34041,24.0070213 299.297556,23.9904255 299.255343,23.9738298" id="Fill-50" sketch:type="MSShapeGroup"></path>
            <path d="M318.783091,5.92595745 L318.783091,22.097234 C318.738958,22.0978723 318.694186,22.0978723 318.650053,22.0985106 L318.650053,5.87042553 C318.694186,5.88893617 318.738958,5.90744681 318.783091,5.92595745" id="Fill-51" sketch:type="MSShapeGroup"></path>
            <path d="M6.61926139,8.61 L6.61926139,25.0461702 C6.57704752,25.0461702 6.53483366,25.0468085 6.4919802,25.0468085 L6.4919802,8.55255319 C6.53483366,8.57170213 6.57704752,8.59085106 6.61926139,8.61" id="Fill-52" sketch:type="MSShapeGroup"></path>
            <path d="M5.09444554,23.1689362 L5.09444554,7.8006383 C5.13921782,7.8006383 5.1833505,7.8 5.22748317,7.8 L5.22748317,23.2219149 C5.1833505,23.2040426 5.13921782,23.1861702 5.09444554,23.1689362" id="Fill-53" sketch:type="MSShapeGroup"></path>
            <path d="M132.618044,4.31680851 L132.618044,24.7780851 C132.573911,24.7787234 132.529139,24.7787234 132.485006,24.7793617 L132.485006,4.26191489 C132.529139,4.28042553 132.573911,4.29829787 132.618044,4.31680851" id="Fill-54" sketch:type="MSShapeGroup"></path>
            <path d="M115.476657,13.4202128 L129.091267,13.4202128 C129.091907,13.457234 129.091907,13.4942553 129.091907,13.5306383 L115.477297,13.5306383 C115.477297,13.4942553 115.477297,13.457234 115.476657,13.4202128" id="Fill-55" sketch:type="MSShapeGroup"></path>
            <path d="M114.7296,25.1068085 L114.7296,15.3044681 C114.76158,15.3038298 114.792921,15.3031915 114.824261,15.3031915 L114.824261,25.1055319 C114.792921,25.1061702 114.76158,25.1061702 114.7296,25.1068085" id="Fill-56" sketch:type="MSShapeGroup"></path>
            <path d="M129.904204,15.2310638 L129.904204,25.0659574 C129.868386,25.0665957 129.833208,25.0665957 129.79739,25.067234 L129.79739,15.2323404 C129.833208,15.2323404 129.868386,15.2317021 129.904204,15.2310638" id="Fill-57" sketch:type="MSShapeGroup"></path>
            <path d="M114.879267,4.05 L114.879267,12.7123404 C114.837053,12.7129787 114.7942,12.713617 114.751347,12.7142553 L114.751347,3.99638298 C114.7942,4.01425532 114.837053,4.03212766 114.879267,4.05" id="Fill-58" sketch:type="MSShapeGroup"></path>
            <path d="M129.91124,4.25234043 L129.91124,12.7525532 L129.788436,12.7525532 L129.788436,4.25297872 C129.82937,4.25234043 129.870305,4.25234043 129.91124,4.25234043" id="Fill-59" sketch:type="MSShapeGroup"></path>
            <path d="M293.530887,27.0548936 C291.583293,26.6968085 290.494687,25.2810638 289.491149,23.7791489 C287.68043,21.0708511 285.933032,18.3191489 284.073703,15.6453191 C283.467358,14.7734043 283.425145,14.4134043 284.440196,13.8134043 C287.220554,12.1704255 288.480574,9.16404255 287.863996,6.14170213 C287.319693,3.47106383 285.352911,1.81531915 282.044879,1.19489362 C281.157749,1.02893617 280.269339,1.00851064 279.375172,0.995106383 C276.338333,0.950425532 273.303412,1.37170213 270.263374,1.03723404 C269.775996,0.982978723 269.191398,0.976595745 269.105691,1.63595745 C269.018065,2.30553191 269.616095,2.38085106 270.080448,2.51361702 C272.070895,3.08489362 272.312665,3.39765957 272.313945,5.51553191 C272.316503,11.5417021 272.279406,17.5678723 272.33825,23.5934043 C272.35424,25.2044681 271.977513,26.393617 270.313903,26.9144681 C269.870657,27.053617 269.469626,27.3293617 269.625689,27.8891489 C269.768321,28.3997872 270.234592,28.3359574 270.631147,28.3180851 C271.970477,28.2561702 273.309168,28.1802128 274.842939,28.0991489 C275.811939,28.1540426 276.971541,28.253617 278.131782,28.2689362 C278.642826,28.2753191 279.441691,28.6997872 279.581764,27.84 C279.707127,27.0676596 278.912099,27.0325532 278.376111,26.8678723 C278.077416,26.7765957 277.76401,26.7344681 277.464036,26.6476596 C276.349206,26.3259574 275.717277,25.6289362 275.719836,24.4231915 C275.724952,21.7895745 275.733267,19.1559574 275.710242,16.5223404 C275.703846,15.857234 275.930265,15.5674468 276.621038,15.5093617 C278.841103,15.3223404 280.836028,15.4965957 281.756418,17.9993617 C281.952137,18.5310638 282.355087,18.9887234 282.676168,19.4719149 C284.131907,21.6638298 285.379135,23.993617 287.045943,26.046383 C288.719786,28.1068085 290.889962,28.6723404 293.418317,28.157234 C293.722129,28.0953191 294.084145,28.0506383 294.121881,27.6619149 C294.158978,27.2776596 293.853248,27.113617 293.530887,27.0548936 L293.530887,27.0548936 Z M280.10624,13.8504255 C275.719836,14.1868085 275.719836,14.1868085 275.719836,9.86744681 C275.719836,9.37595745 275.719836,8.88510638 275.719196,8.39361702 C275.719196,7.05382979 275.771644,5.71148936 275.704485,4.37489362 C275.641164,3.13085106 276.070978,2.50340426 277.388562,2.65021277 C278.186788,2.73957447 278.999725,2.73255319 279.787717,2.87106383 C283.558182,3.53361702 285.513451,6.57191489 284.589863,10.2810638 C284.066028,12.3855319 282.451667,13.6704255 280.10624,13.8504255 L280.10624,13.8504255 Z" id="Fill-60" sketch:type="MSShapeGroup"></path>
            <path d="M275.493416,3.44617021 L275.493416,13.2855319 C275.4544,13.2855319 275.415384,13.2855319 275.376368,13.2861702 L275.376368,3.44680851 C275.415384,3.44680851 275.4544,3.44617021 275.493416,3.44617021" id="Fill-61" sketch:type="MSShapeGroup"></path>
            <path d="M275.489578,16.0831915 L275.489578,24.8540426 L275.365495,24.8540426 L275.365495,16.0921277 C275.407069,16.0895745 275.448644,16.086383 275.489578,16.0831915" id="Fill-62" sketch:type="MSShapeGroup"></path>
            <path d="M82.3797109,27.06 C80.4321168,26.7031915 79.3390337,25.296383 78.3342158,23.7893617 C76.6488594,21.263617 74.976295,18.7289362 73.3005327,16.1968085 C72.2586178,14.622766 72.2618158,14.6234043 73.7239505,13.5465957 C74.4863584,12.9848936 75.1432317,12.3185106 75.6696257,11.5295745 C78.3054337,7.58042553 76.4921564,2.68468085 71.924105,1.42085106 C70.6193129,1.06021277 69.2857386,1.00531915 67.9368139,0.993829787 C65.0310931,0.969574468 62.1292099,1.37553191 59.2215703,1.04106383 C58.7022119,0.98106383 58.0255109,0.914680851 57.9410832,1.6493617 C57.8553762,2.38851064 58.5576614,2.47531915 59.0571921,2.53340426 C60.1745802,2.66297872 60.8333723,3.26425532 61.1691644,4.2906383 C61.4742554,4.4706383 61.3322634,4.76553191 61.3322634,5.00680851 C61.3399386,11.4555319 61.3399386,17.9048936 61.3322634,24.353617 C61.3322634,24.5942553 61.4742554,24.8897872 61.1678851,25.0691489 C60.8013921,26.0744681 60.0191564,26.6106383 59.0552733,26.9565957 C58.6529624,27.1008511 58.3203683,27.3542553 58.4374158,27.8470213 C58.5391129,28.2765957 58.9036871,28.3474468 59.2848911,28.3231915 C62.0997881,28.1482979 64.9134059,28.0282979 67.7289426,28.3174468 C68.0500238,28.35 68.3800594,28.2906383 68.4523347,27.893617 C68.5169347,27.5387234 68.3212158,27.263617 68.0180436,27.1397872 C67.6080574,26.9725532 67.1731267,26.8480851 66.7375564,26.7638298 C65.5869089,26.5410638 64.7726931,25.9582979 64.4701604,24.7806383 C64.375499,24.7468085 64.2859545,24.6944681 64.2859545,24.623617 C64.2910713,21.8106383 64.2789188,18.9976596 64.2885129,16.1853191 C64.2885129,15.9976596 64.3249703,15.8374468 64.532202,15.7755319 C67.2633109,14.9023404 68.9499465,15.4717021 70.4114416,17.7606383 C71.1565802,18.9268085 71.893404,20.0987234 72.6468574,21.2597872 C73.7399406,22.9442553 74.7134178,24.7091489 76.0380376,26.237234 C77.7067644,28.1629787 79.821295,28.6391489 82.2358,28.1623404 C82.5440891,28.1010638 82.9035465,28.0493617 82.9559941,27.6765957 C83.0103604,27.2942553 82.7020713,27.1193617 82.3797109,27.06 L82.3797109,27.06 Z M70.7280455,13.4125532 C68.6928257,14.0808511 66.6166713,14.0948936 64.5379584,13.583617 C64.1944911,13.4482979 64.2987465,13.1444681 64.2981069,12.8987234 C64.2910713,10.056383 64.2929901,7.21404255 64.2936297,4.37170213 C64.2936297,4.14893617 64.2853149,3.92680851 64.4528911,3.74744681 C64.6313406,2.90680851 65.1583743,2.61319149 66.0013723,2.64 C66.8961782,2.6687234 67.7839485,2.6993617 68.666602,2.86531915 C72.5784198,3.5993617 74.5867762,7.06851064 73.2564,10.8223404 C72.8144337,12.0682979 71.9899842,12.9976596 70.7280455,13.4125532 L70.7280455,13.4125532 Z" id="Fill-63" sketch:type="MSShapeGroup"></path>
            <path d="M64.4528911,3.74744681 C64.4810337,7.02574468 64.5091762,10.3046809 64.5379584,13.5829787 C64.3115386,13.4923404 64.172105,13.3257447 64.1714653,13.0831915 C64.1631505,9.93510638 64.1593129,6.78638298 64.1599525,3.63765957 C64.1599525,3.57638298 64.2283901,3.51446809 64.2648475,3.45319149 C64.3275287,3.55148936 64.3902099,3.64914894 64.4528911,3.74744681" id="Fill-64" sketch:type="MSShapeGroup"></path>
            <path d="M57.4217248,12.8093617 C57.0974455,8.50212766 55.0967644,5.11212766 51.4414277,2.89914894 C46.3469822,-0.186382979 41.0235584,-0.21893617 35.9316713,2.83851064 C30.8979881,5.86085106 29.0482535,10.626383 29.5631347,16.332766 C30.1234277,22.5421277 33.8990099,26.9444681 39.6221861,28.223617 C41.6989802,28.6876596 43.7860079,28.6525532 45.8883861,28.3576596 C52.329198,27.4538298 57.3104337,22.1387234 57.4185267,16.0161702 C57.2272851,14.9470213 57.2208891,13.8778723 57.4217248,12.8093617 L57.4217248,12.8093617 Z M54.1220079,18.6517021 C53.3346554,22.5485106 51.2386733,25.5319149 47.2616158,26.6431915 C43.1745465,27.7857447 39.4597267,26.712766 36.6064535,23.6214894 C32.6031723,19.283617 31.6284158,14.1331915 33.5561822,8.57361702 C34.9498792,4.55680851 38.4523505,2.27234043 43.2941525,2.32787234 C46.7371406,2.4606383 49.8846317,4.3193617 52.0803921,7.75085106 C54.2217861,11.0961702 54.9048832,14.7753191 54.1220079,18.6517021 L54.1220079,18.6517021 Z" id="Fill-65" sketch:type="MSShapeGroup"></path>
            <path d="M180.931168,4.76680851 C180.957392,4.93340426 181.006642,5.0993617 181.006642,5.26595745 C181.010479,11.7765957 181.00984,18.2878723 180.838426,24.7985106 L180.838426,4.77574468 C180.869766,4.77255319 180.900467,4.77 180.931168,4.76680851" id="Fill-66" sketch:type="MSShapeGroup"></path>
            <path d="M190.318636,15.1710638 L184.592261,15.1710638 C184.591622,15.1282979 184.590343,15.0855319 184.589703,15.0421277 L190.3762,15.0421277 C190.357012,15.0855319 190.337824,15.1282979 190.318636,15.1710638" id="Fill-67" sketch:type="MSShapeGroup"></path>
            <path d="M253.726414,3.77808511 L253.726414,13.0410638 C253.68356,13.0410638 253.641347,13.0404255 253.598493,13.0404255 L253.598493,3.73340426 C253.641347,3.74808511 253.68356,3.76340426 253.726414,3.77808511" id="Fill-68" sketch:type="MSShapeGroup"></path>
            <path d="M253.576747,25.0442553 L253.576747,15.846383 C253.61896,15.846383 253.661174,15.8457447 253.703388,15.8451064 L253.703388,25.0978723 C253.661174,25.08 253.61896,25.0621277 253.576747,25.0442553" id="Fill-69" sketch:type="MSShapeGroup"></path>
            <path d="M254.392881,15.0070213 L260.495982,15.0070213 C260.496622,15.0504255 260.496622,15.0944681 260.497261,15.1378723 L254.433176,15.1378723 C254.419745,15.0944681 254.406313,15.0504255 254.392881,15.0070213" id="Fill-70" sketch:type="MSShapeGroup"></path>
            <path d="M231.827014,25.043617 L231.827014,4.0487234 C231.869867,4.04808511 231.91336,4.04808511 231.956853,4.04808511 L231.956853,25.0978723 C231.91336,25.08 231.869867,25.0621277 231.827014,25.043617" id="Fill-71" sketch:type="MSShapeGroup"></path>
            <path d="M234.698836,4.0487234 L234.698836,24.7787234 C234.654063,24.7787234 234.609931,24.7793617 234.565158,24.7793617 L234.565158,3.99382979 C234.609931,4.01234043 234.654063,4.03021277 234.698836,4.0487234" id="Fill-72" sketch:type="MSShapeGroup"></path>
            <path d="M91.8637584,25.0474468 L91.8637584,4.0493617 C91.9078911,4.0493617 91.9520238,4.0493617 91.9961564,4.0487234 L91.9961564,25.097234 C91.9520238,25.0806383 91.9078911,25.0640426 91.8637584,25.0474468" id="Fill-73" sketch:type="MSShapeGroup"></path>
            <path d="M94.546897,24.7761702 L94.546897,4.0487234 C94.5903901,4.04808511 94.6338832,4.04808511 94.6780158,4.04808511 L94.6780158,24.8310638 C94.6338832,24.8125532 94.5903901,24.7946809 94.546897,24.7761702" id="Fill-74" sketch:type="MSShapeGroup"></path>
            <path d="M183.804909,58.5561702 C182.844224,58.283617 182.170081,57.6351064 181.636651,56.8487234 C180.257665,54.8157447 178.928568,52.7495745 177.538069,50.7248936 C177.163901,50.1804255 177.271994,49.9595745 177.787515,49.5912766 C179.986473,48.0204255 180.747602,46.0129787 180.067703,43.8153191 C179.461998,41.8576596 177.653198,40.7112766 174.96942,40.6691489 C172.64382,40.632766 170.31758,40.6678723 167.99198,40.667234 C167.622289,40.667234 167.209745,40.6710638 167.137469,41.1102128 C167.064554,41.5506383 167.423372,41.7440426 167.807135,41.7740426 C168.842014,41.8551064 169.254558,42.5189362 169.431729,43.4265957 C169.700362,43.4738298 169.594828,43.6838298 169.595467,43.8312766 C169.598026,48.0204255 169.599305,52.2095745 169.592909,56.3987234 C169.592909,56.5914894 169.721469,56.8480851 169.420216,56.9578723 C169.321077,58.0889362 168.179384,58.2478723 167.585832,58.9174468 C168.140368,59.7389362 169.070352,59.0195745 169.724028,59.4370213 C171.064638,59.4791489 172.404608,59.5270213 173.745857,59.5602128 C174.045832,59.5678723 174.440467,59.627234 174.48396,59.1970213 C174.520418,58.8344681 174.216606,58.6640426 173.898723,58.5689362 C173.685095,58.5051064 173.470188,58.4406383 173.251444,58.3965957 C172.280525,58.2025532 171.786111,57.653617 171.80338,56.627234 C171.830244,54.9746809 171.80402,53.3221277 171.812335,51.6695745 C171.813614,51.3338298 171.727907,50.9782979 172.222321,50.8142553 C173.333313,50.4446809 174.902261,50.9802128 175.569368,52.0097872 C176.808281,53.9195745 178.025448,55.8446809 179.300818,57.7308511 C180.33122,59.2551064 181.827253,59.7887234 183.624541,59.5238298 C183.955216,59.4746809 184.420848,59.5512766 184.469457,59.0648936 C184.512311,58.6346809 184.088893,58.6365957 183.804909,58.5561702 L183.804909,58.5561702 Z M172.471766,49.5197872 C171.858386,49.4017021 171.802741,49.0710638 171.804659,48.5878723 C171.812974,46.7176596 171.833442,44.8474468 171.798263,42.9785106 C171.782913,42.1448936 172.160919,41.9304255 172.928444,41.9119149 C175.911556,41.8404255 177.273273,42.8655319 178.027366,45.833617 C178.212212,45.9740426 178.228202,46.11 178.016493,46.2402128 C177.271994,49.0429787 175.456798,50.093617 172.471766,49.5197872 L172.471766,49.5197872 Z" id="Fill-75" sketch:type="MSShapeGroup"></path>
            <path d="M171.375485,48.9051064 L171.375485,42.6561702 C171.417699,42.6555319 171.459913,42.6542553 171.502127,42.653617 L171.502127,48.9555319 C171.459913,48.9389362 171.417699,48.9223404 171.375485,48.9051064" id="Fill-76" sketch:type="MSShapeGroup"></path>
            <path d="M171.406826,56.9661702 L171.406826,51.1551064 C171.449679,51.1551064 171.492533,51.1551064 171.534747,51.1557447 L171.534747,56.9795745 C171.492533,56.9751064 171.449679,56.9706383 171.406826,56.9661702" id="Fill-77" sketch:type="MSShapeGroup"></path>
            <path d="M178.016493,46.2402128 C178.020331,46.1048936 178.024168,45.9689362 178.027366,45.833617 C178.05359,45.6612766 178.079814,45.4889362 178.105398,45.3159574 C178.143135,45.312766 178.180232,45.3089362 178.217329,45.3051064 L178.217329,46.8229787 C178.187267,46.8306383 178.156566,46.8376596 178.126505,46.8453191 C178.089408,46.643617 178.05295,46.4419149 178.016493,46.2402128" id="Fill-78" sketch:type="MSShapeGroup"></path>
            <path d="M217.885566,57.216383 L217.885566,42.8623404 C217.92778,42.8629787 217.969994,42.8629787 218.012208,42.8629787 L218.012208,57.2648936 C217.969994,57.2482979 217.92778,57.2323404 217.885566,57.216383" id="Fill-79" sketch:type="MSShapeGroup"></path>
            <path d="M216.16759,42.9223404 L216.16759,57.2112766 C216.126016,57.2119149 216.084442,57.2119149 216.042867,57.2125532 L216.042867,42.8687234 C216.084442,42.8865957 216.126016,42.9044681 216.16759,42.9223404" id="Fill-80" sketch:type="MSShapeGroup"></path>
            <path d="M223.379125,42.216383 L218.63902,42.216383 C218.639659,42.173617 218.639659,42.1302128 218.640299,42.0868085 L223.400232,42.0868085 C223.393196,42.1302128 223.38616,42.173617 223.379125,42.216383" id="Fill-81" sketch:type="MSShapeGroup"></path>
            <path d="M210.958655,42.0740426 L215.339943,42.0740426 L215.339943,42.203617 L210.844166,42.203617 C210.882543,42.1602128 210.920919,42.1168085 210.958655,42.0740426" id="Fill-82" sketch:type="MSShapeGroup"></path>
            <path d="M236.004267,50.417234 L236.004267,57.012766 C235.960135,57.0121277 235.916002,57.0121277 235.871869,57.0114894 L235.871869,50.3834043 C235.916002,50.3948936 235.960135,50.406383 236.004267,50.417234" id="Fill-83" sketch:type="MSShapeGroup"></path>
            <path d="M204.178853,57.2897872 L204.178853,42.9038298 C204.212752,42.9031915 204.246651,42.9031915 204.28055,42.9025532 L204.28055,57.2885106 C204.246651,57.2891489 204.212752,57.2891489 204.178853,57.2897872" id="Fill-84" sketch:type="MSShapeGroup"></path>
            <path d="M202.465994,42.9255319 L202.465994,56.946383 C202.42442,56.946383 202.382846,56.9470213 202.340632,56.9470213 L202.340632,42.8668085 C202.382846,42.8859574 202.42442,42.9057447 202.465994,42.9255319" id="Fill-85" sketch:type="MSShapeGroup"></path>
            <path d="M128.160004,57.2840426 L128.160004,42.9076596 C128.193903,42.9070213 128.227802,42.9070213 128.261061,42.906383 L128.261061,57.282766 C128.227802,57.2834043 128.193903,57.2834043 128.160004,57.2840426" id="Fill-86" sketch:type="MSShapeGroup"></path>
        </g>
    </g>
</svg>