<?xml version="1.0" encoding="UTF-8" standalone="no"?>
<svg xmlns:sketch="http://www.bohemiancoding.com/sketch/ns" xmlns:rdf="http://www.w3.org/1999/02/22-rdf-syntax-ns#" xmlns="http://www.w3.org/2000/svg" height="99.4mm" width="166.2mm" version="1.1" xmlns:cc="http://creativecommons.org/ns#" viewBox="0 0 588.82894 352.34497" xmlns:dc="http://purl.org/dc/elements/1.1/">
<g fill="#b1b1b1" transform="translate(-2.717 -3.308)">
<g transform="matrix(1.25,0,0,-1.25,239.9,56.02)">
<path fill="#b1b1b1" d="m0 0c-10.07-10.08-16.3-23.98-16.3-39.36 0-15.37 6.23-29.28 16.3-39.36 10.07-10.07 23.98-16.3 39.36-16.3 15.37 0 29.28 6.229 39.36 16.3 10.07 10.07 16.3 23.98 16.3 39.36 0 15.37-6.229 29.28-16.3 39.36-10.08 10.07-23.99 16.3-39.36 16.3-15.38 0-29.29-6.23-39.36-16.3m-17.67-39.36c0 31.5 25.53 57.03 57.03 57.03s57.03-25.53 57.03-57.03-25.54-57.03-57.03-57.03c-31.5 0-57.03 25.53-57.03 57.03"/>
</g>
<g transform="matrix(1.25,0,0,-1.25,219.4,35.72)">
<path fill="#b1b1b1" d="m0 0c-14.32-14.32-23.17-34.09-23.17-55.94 0.003-21.85 8.855-41.62 23.17-55.94s34.09-23.17 55.94-23.17c21.85 0.002 41.62 8.855 55.94 23.17s23.17 34.09 23.17 55.94-8.853 41.62-23.17 55.94c-14.36 14.36-34.13 23.21-55.98 23.21s-41.62-8.85-55.94-23.17m-25.92-55.94c0 45.21 36.64 81.85 81.86 81.85 45.21 0 81.85-36.65 81.85-81.85-0.002-45.21-36.65-81.86-81.85-81.86-45.21 0-81.86 36.65-81.86 81.86"/>
</g>
<g transform="matrix(1.25,0,0,-1.25,255,71.75)">
<path fill="#b1b1b1" d="m0 0c-6.942-6.945-11.24-16.53-11.24-27.12 0-10.6 4.293-20.18 11.24-27.12 6.942-6.94 16.53-11.23 27.12-11.23s20.18 4.293 27.12 11.23c6.943 6.945 11.24 16.53 11.24 27.12s-4.29 20.18-11.24 27.12c-6.94 6.943-16.52 11.23-27.12 11.23-10.59 0-20.18-4.287-27.12-11.23m-12.61-27.12c0 21.94 17.79 39.73 39.73 39.73s39.73-17.79 39.73-39.73-17.79-39.73-39.73-39.73-39.73 17.79-39.73 39.73"/>
</g>
<g transform="matrix(1.25,0,0,-1.25,306.6,129.4)">
<path fill="#b1b1b1" d="m0 0c-0.253 0-0.509 0.013-0.764 0.023-1.248 0.049-2.508 0.224-3.647 0.604-0.042 0.014-0.086 0.022-0.127 0.036-0.264 0.092-0.558 0.169-0.867 0.236-0.828 0.179-1.795 0.271-2.796 0.273-0.273-0.001-0.546-0.01-0.82-0.024-0.022-0.002-0.043-0.003-0.065-0.004-1.208-0.066-2.397-0.263-3.376-0.626-0.026-0.01-0.052-0.021-0.078-0.032-0.316-0.122-0.614-0.257-0.876-0.417-1.283 0.779-3.296 1.095-5.22 1.103-0.263-0.001-0.521-0.013-0.779-0.025-0.049-0.002-0.1-0.002-0.148-0.005-1.032-0.06-1.99-0.217-2.732-0.479-0.334-0.116-0.687-0.21-1.052-0.29-0.452-0.099-0.925-0.165-1.408-0.214-0.589-0.06-1.188-0.096-1.793-0.096-0.494 0-0.987 0.019-1.472 0.049-0.538 0.034-1.058 0.086-1.563 0.146-0.786 0.093-1.526 0.207-2.162 0.324-0.267 0.048-0.51 0.097-0.74 0.144-0.989 0.203-1.615 0.374-1.619 0.373l-0.179-0.661c0.005-0.002 0.482-0.133 1.26-0.302 0.679-0.148 1.589-0.323 2.631-0.469 0.634-0.088 1.313-0.165 2.018-0.217 0.597-0.045 1.209-0.073 1.826-0.074 0.395 0 0.791 0.012 1.185 0.036 0.606 0.037 1.203 0.116 1.785 0.224 0.519 0.097 1.029 0.214 1.51 0.381 0.554 0.196 1.301 0.33 2.117 0.403 0.152 0.014 0.301 0.029 0.457 0.038 0.282 0.016 0.568 0.027 0.858 0.027 0.842 0.003 1.702-0.072 2.496-0.214 0.067-0.011 0.133-0.022 0.199-0.035 0.95-0.186 1.786-0.472 2.329-0.858l0.195-0.137 0.198 0.137c0.168 0.121 0.372 0.227 0.591 0.329 0.112 0.051 0.223 0.104 0.347 0.151 0.892 0.338 2.062 0.541 3.249 0.604 0.114 0.006 0.227 0.009 0.343 0.013 0.163 0.004 0.326 0.011 0.488 0.01 1.115 0 2.181-0.128 3.005-0.347 0.147-0.039 0.302-0.076 0.432-0.121 0.338-0.118 0.687-0.213 1.038-0.297 1.08-0.26 2.206-0.37 3.306-0.393 0.14-0.003 0.281-0.013 0.42-0.013 0.891 0 1.753 0.057 2.544 0.14 1.225 0.129 2.271 0.32 2.978 0.47 0.597 0.126 0.956 0.223 0.961 0.224l-0.193 0.662h-0.002c-0.003-0.001-0.451-0.123-1.19-0.271-0.804-0.162-1.955-0.356-3.261-0.461-0.592-0.048-1.214-0.078-1.851-0.078"/>
</g>
<g transform="matrix(1.25,0,0,-1.25,303.5,131.8)">
<path fill="#b1b1b1" d="m0 0c2.575-3.404 5.149-6.809 7.724-10.21-1.655 3.346-3.309 6.696-4.964 10.04 1.556-0.1965 3.511 0.9276 4.681-0.6223 1.937-1.744 3.879-3.487 5.809-5.231-1.47 2.204-2.94 4.409-4.407 6.613-0.606 1.564-3.181-0.4569-4.601-0.0265-2.737-0.2601-5.451 0.3259-8.084 0.9865-2.386 0.315-4.92 0.154-7.088-0.965-3.26 1.664-7.09 1.202-10.48 0.223-3.41-0.5863-6.88 0.0239-10.21 0.804-0.22-1.578-1.76-2.421-2.65-3.623-0.94-1.035-1.88-2.069-2.83-3.103l7.596 5.554c1.458 0.1162 3.695-0.6555 1.922-2.197-1.38-2.581-2.76-5.162-4.14-7.743 2.552 3.13 5.099 6.265 7.655 9.391 1.396 0.5224 3.208-0.2039 1.886-1.755-1.15-3.642-2.29-7.283-3.44-10.93 2.441 4.541 4.883 9.083 7.324 13.62 1.809 0.5086 0.6892-2.149 0.7339-3.151-0.4796-4.182-0.9592-8.365-1.439-12.55 1.638 5.241 3.275 10.48 4.913 15.72 1.487-0.4986 0.6215-2.439 0.9956-3.628 0.3278-4.292 0.6556-8.584 0.9834-12.88 0.5947 5.264 1.189 10.53 1.784 15.79 1.528 0.7094 1.247-1.935 1.741-2.841 1.141-4.125 2.272-8.26 3.402-12.4-0.419 5.363-0.839 10.73-1.258 16.1 1.66 0.138 1.648-2.029 2.431-3.053 1.839-3.738 3.677-7.477 5.516-11.22-1.255 4.607-2.554 9.2-3.781 13.81 0.738-0.2547 1.506-0.4209 2.28-0.53z"/>
</g>
<g transform="matrix(1.25,0,0,-1.25,278.1,163.8)">
<path fill="#b1b1b1" d="m0 0c-0.1733 1.572-2.583 3.084-3.67 2.845 0.318-1.705 2.164-2.498 3.67-2.845z"/>
</g>
<g transform="matrix(1.25,0,0,-1.25,272.6,162.6)">
<path fill="#b1b1b1" d="m0 0c-0.02483 1.568-2.348 3.151-3.434 2.939 0.161-1.707 1.982-2.556 3.434-2.939z"/>
</g>
<g transform="matrix(1.25,0,0,-1.25,266.9,160.8)">
<path fill="#b1b1b1" d="m0 0c0.03963 1.567-2.223 3.227-3.315 3.05 0.087-1.712 1.882-2.618 3.315-3.05z"/>
</g>
<g transform="matrix(1.25,0,0,-1.25,260.9,158.1)">
<path fill="#b1b1b1" d="m0 0c0.2173 1.542-1.893 3.362-2.989 3.256-0.105-1.698 1.617-2.734 2.989-3.256z"/>
</g>
<g transform="matrix(1.25,0,0,-1.25,280,163.4)">
<path fill="#b1b1b1" d="m0 0c1.012-0.8734 4.419-1.666 2.091 0.2973-0.927 0.9327-4.594 2.169-2.369-0.0786l0.278-0.2187z"/>
</g>
<g transform="matrix(1.25,0,0,-1.25,268.5,163.3)">
<path fill="#b1b1b1" d="m0 0c-1.122 0.2783-4.847-0.9086-1.925-1.166 1.037-0.317 4.118 0.115 3.716 0.9472-0.582 0.1611-1.191 0.1912-1.791 0.2188z"/>
</g>
<g transform="matrix(1.25,0,0,-1.25,274.4,164.9)">
<path fill="#b1b1b1" d="m0 0c-1.158 0.3171-4.697-0.8873-1.778-1.151 0.981-0.348 4.081 0.059 3.573 0.9-0.582 0.1695-1.193 0.213-1.795 0.251z"/>
</g>
<g transform="matrix(1.25,0,0,-1.25,280.9,166)">
<path fill="#b1b1b1" d="m0 0c-1.144 0.2512-4.783-1.064-1.846-1.223 1.032-0.291 4.106 0.236 3.646 1.055-0.588 0.1435-1.198 0.1573-1.8 0.168z"/>
</g>
<g transform="matrix(1.25,0,0,-1.25,325.5,153.7)">
<path fill="#b1b1b1" d="m0 0c-2.066-1.616-4.245-3.054-6.788-4.037-6.522-2.996-13.57-4.902-20.75-5.211-1.016-0.409 1.337 2.879-0.8546 1.798-0.9225-0.8749-0.3548-3.268-0.9049-0.7414-0.1146 2.035-2.345-0.6364-0.5469-1.214-9.162 0.2994-18.15 3.026-26.1 7.549-0.2946 1.151-3.865 2.858-3.594 1.398 1.272-2.044 4.15-1.593 5.904-3.117 7.409-3.85 15.67-6 24.01-6.276-0.6908-0.6376-1.512-2.149 0.2228-1.503 0.59 1.092 1.222 0.7769 1.783-0.1049 1.235 0.6384-1.5 2.076 0.6146 1.845 8.981 0.3408 17.65 3.447 25.48 7.723 1.247-0.1948 4.233 1.503 3.128 2.373-0.547-0.0805-1.078-0.2801-1.594-0.4913z"/>
</g>
<g transform="matrix(1.25,0,0,-1.25,262.1,161.3)">
<path fill="#b1b1b1" d="m0 0c-1.884 0.1862-2.557-1.163-0.406-1.404 1.25-0.24 4.487 0.8112 1.663 1.38-0.4147 0.07248-0.8396 0.06903-1.257 0.024z"/>
</g>
<g transform="matrix(1.25,0,0,-1.25,256.8,158.5)">
<path fill="#b1b1b1" d="m0 0c-1.767 0.5453-2.718-0.6531-0.695-1.318 1.162-0.48 4.493-0.07 1.899 1.049-0.3838 0.1531-0.7936 0.2324-1.204 0.269z"/>
</g>
<g transform="matrix(1.25,0,0,-1.25,305.5,159.7)">
<path fill="#b1b1b1" d="m0 0c-1.379-0.06526-4.087-1.8-3.528-2.873 1.49 0.36 3.281 1.158 3.528 2.873z"/>
</g>
<g transform="matrix(1.25,0,0,-1.25,309.6,160.3)">
<path fill="#b1b1b1" d="m0 0c1.104 0.9583 0.8221 2.426-0.6709 1.154-1.318-0.2462-3.321-3.506-0.7631-2.075 0.5189 0.2362 1.007 0.5423 1.434 0.921z"/>
</g>
<g transform="matrix(1.25,0,0,-1.25,315.2,158.4)">
<path fill="#b1b1b1" d="m0 0c1.065 0.9973 0.7178 2.447-0.7196 1.127-1.31-0.2918-3.177-3.61-0.6774-2.095 0.5094 0.2527 0.9857 0.5749 1.397 0.968z"/>
</g>
<g transform="matrix(1.25,0,0,-1.25,321.1,155.7)">
<path fill="#b1b1b1" d="m0 0c0.9618 1.077 0.4445 2.466-0.8455 1.063-1.292-0.3911-2.776-3.813-0.4465-2.123 0.4799 0.2864 0.9221 0.6399 1.292 1.06z"/>
</g>
<g transform="matrix(1.25,0,0,-1.25,300.1,161.3)">
<path fill="#b1b1b1" d="m0 0c-1.403 0.07655-4.305-1.346-3.923-2.477 1.55 0.2 3.417 0.808 3.923 2.477z"/>
</g>
<g transform="matrix(1.25,0,0,-1.25,307.5,163.4)">
<path fill="#b1b1b1" d="m0 0c1.312-1.139 4.385-1.262 5.202-0.4256-1.526 0.882-3.561 0.9924-5.202 0.4256z"/>
</g>
<g transform="matrix(1.25,0,0,-1.25,301.3,165.2)">
<path fill="#b1b1b1" d="m0 0c1.287-1.177 4.272-1.168 5.116-0.3436-1.492 0.9024-3.514 0.9115-5.116 0.3436z"/>
</g>
<g transform="matrix(1.25,0,0,-1.25,294.6,166.1)">
<path fill="#b1b1b1" d="m0 0c1.268-1.193 4.315-1.38 5.168-0.5771-1.489 0.9378-3.516 1.087-5.168 0.5771z"/>
</g>
<g transform="matrix(1.25,0,0,-1.25,316.4,160.6)">
<path fill="#b1b1b1" d="m0 0c-1.31 0.1927-3.664-1.635-1.046-1.449 1.398-0.624 4.726 1.771 1.635 1.476l-0.2791-0.0089-0.3099-0.0181z"/>
</g>
<g transform="matrix(1.25,0,0,-1.25,321.8,157.9)">
<path fill="#b1b1b1" d="m0 0c-1.31 0.2098-3.582-1.617-1.011-1.456 1.394-0.65 4.631 1.734 1.591 1.475l-0.2749-0.00507-0.3051-0.01393z"/>
</g>
<g transform="matrix(1.25,0,0,-1.25,230.3,154.6)">
<path fill="#b1b1b1" d="m0 0c-0.1936 0.7602-1.929 2.495-1.391 0.6429-0.045-1.81-2.371-2.244-3.439-3.377-0.8735-0.4392-2.743-2.362-2.966-1.808 0.8825 3.869 1.731 7.745 2.624 11.61-0.982 1.415-2.547-1.275-3.714-1.621-2.014-1.45-4.024-2.905-6.054-4.331-0.9499 0.4137-2.208-0.00102-0.9964-0.8983 0.4146-0.8399 2.24-3.45 1.893-1.12-0.4178 1.9 1.987 2.376 3.052 3.465 1.2 0.8623 2.398 1.727 3.6 2.588-0.9449-4.293-1.876-8.588-2.83-12.88 0.167-0.833 2.056-2.685 1.499-0.7679-0.3418 1.743 1.519 2.669 2.692 3.521 1.67 1.199 3.296 2.464 5.047 3.544 0.7692-0.2909 2.921-0.5977 1.549 0.7142-0.2077 0.2272-0.45 0.4309-0.57 0.718z"/>
</g>
<g transform="matrix(1.25,0,0,-1.25,204.3,140.1)">
<path fill="#b1b1b1" d="m0 0c-0.9911 2.279 0.07481 5.048 2.032 6.45 1.698 1.333 4.166 1.963 6.179 0.976 1.869-0.903 2.729-3.179 2.329-5.15-0.44-2.172-2.236-3.892-4.266-4.647-1.783-0.669-4.07-0.512-5.403 0.975-0.3745 0.4056-0.6716 0.8817-0.871 1.396zm7.541-3.632c2.417 0.87 4.419 3.226 4.344 5.875-0.08 2.913-1.931 5.88-4.792 6.762-3.222 0.969-7.097-0.792-8.292-3.981-1.273-3.385 0.6786-7.574 4.081-8.789 1.502-0.53 3.193-0.47 4.664 0.133z"/>
</g>
<g transform="matrix(1.25,0,0,-1.25,205.5,121.8)">
<path fill="#b1b1b1" d="m0 0c-1.588 0.1805-4.443-1.739-5.132 0.3278-0.407 1.76 1.117 3.755 3 3.381 1.903-0.216 2.117-2.184 2.132-3.709zm5.559-0.921c0.804-0.577 2.196-1.54 1.618 0.2595-0.526 0.9574 0.143 3.166-1.014 3.272-0.032-1.829-1.797-2.091-3.294-2.144-1.771-1.139-2.903 1.393-1.346 2.412 1.355 1.13 2.809 2.207 3.875 3.625 0.783 0.628 0.591 3.607-0.594 2.436-0.074-1.547-1.71-2.16-2.586-3.21-1.024-0.537-2.1-2.987-2.977-1.302-1.538 1.415-4.57 1.117-5.24-1.06-0.769-2.206 0.504-4.418 0.47-6.631 0.725-1.825 0.872 0.647 1.701 0.878 3.118 0.493 6.252 1.015 9.387 1.465z"/>
</g>
<g transform="matrix(1.25,0,0,-1.25,199.6,108.8)">
<path fill="#b1b1b1" d="m0 0c0.7745 1.079-1.993 0.8402-1.292 2.204 0.292 1.065-0.579 3.346 1.216 2.807 3.017-0.117 6.035-0.234 9.05-0.401 0.5-0.221 0.894-2.192 1.406-1.005-0.16 1.325 0.52 3.092-0.11 4.134-0.81-0.227-0.679-1.699-1.908-1.361-3.023 0.221-6.064 0.259-9.095 0.424-0.784 0.553-0.0123 2.091-0.269 3.036-0.442 1.182 2.33 1.092 1.026 1.882-1.04 0.24-2.605 0.11-2.292-1.35 0.013-3.206-0.225-6.408-0.408-9.605 0.453-0.8497 1.872-0.522 2.676-0.765z"/>
</g>
<g transform="matrix(1.25,0,0,-1.25,198.1,88.74)">
<path fill="#b1b1b1" d="m0 0c0.7176 0.1001 0.7412 1.523 1.705 1.14 2.989-0.8274 5.986-1.639 8.975-2.483 1.02-0.106 0.54-1.304 1.09-1.735 0.7952-0.1252 0.5243 1.045 0.8 1.518 0.23 0.9395 0.61 1.842 0.81 2.784-0.4 0.942-1.01-0.4495-1.33-0.8094-0.46-0.3621-1.01 0.0251-1.5 0.105-1.186 0.3292-2.373 0.6474-3.554 0.9834 0.581 2.123 1.17 4.244 1.754 6.366 1.51-0.454 3.04-0.824 4.55-1.281 0.73-0.204 0.15-1.952 1.18-1.363 0.3314 0.9447 0.4297 1.97 0.7843 2.916 0.3043 0.4475 0.5258 1.826-0.3713 1.25-0.29-0.575-0.8-1.35-1.56-0.98-3.02 0.837-6.04 1.659-9.057 2.509-0.902 0.06-0.145 1.88-1.181 1.33-0.408-0.66-0.327-1.51-0.652-2.22-0.13-0.493-0.894-1.948 0.142-1.709 0.345 0.469 0.763 1.188 1.471 0.832 1.24-0.354 2.496-0.666 3.725-1.047-0.586-2.111-1.156-4.227-1.753-6.334-1.329 0.361-2.659 0.72-3.982 1.101-0.971 0.038-0.182 1.878-1.161 1.458-0.3647-0.696-0.344-1.534-0.6245-2.268-0.0454-0.625-0.9041-1.603-0.2545-2.063z"/>
</g>
<g transform="matrix(1.25,0,0,-1.25,204.7,67.44)">
<path fill="#b1b1b1" d="m0 0c1.396 1.082 3.179 0.06909 4.731 0.0093 2.972-0.4335 5.939-1.046 8.919-1.36 1 0.7799-0.67 1.866-1.11 2.7-0.62 0.826-1.25 1.652-1.87 2.478 1.91 0.063 4.46-1.36 5.97-0.306-0.42 1.554-1.92 2.644-2.69 4.071-1.58 2.182-3.17 4.368-4.745 6.558 0.106 1.63-1.272 1-1.452-0.16-0.846-0.58-0.924-2.42 0.384-1.33 1.568-0.11 1.943-2.26 3.053-3.198 1.09-1.457 2.19-2.915 3.26-4.387-1.55-0.053-3.05 0.468-4.588 0.576-1.437 0.7-2.143 2.298-3.049 3.531-0.34 1.348-1.094 2.108-1.714 0.459-0.625-0.724-1.125-2.076 0.428-1.353 1.106 0.186 1.629-1.602 2.033-2.292-1.174 0.28-3.232 0.024-3.385 1.678-0.923-0.947-2.054-2.477-2.039-3.658 1.728 1.36 3.931 0.451 5.963 0.208 1.866-0.123 2.451-2.373 3.571-3.607-3.17 0.475-6.332 1.004-9.499 1.498-0.213 0.854-0.974 1.77-1.272 0.423-0.309-0.729-1.793-1.798-0.899-2.538z"/>
</g>
<g transform="matrix(1.25,0,0,-1.25,219.8,44.72)">
<path fill="#b1b1b1" d="m0 0c0.265 0.013 0.463 0.207 0.549 0.25 0.217 0.162 0.387 0.213 0.547 0.215 0.386 0.008 0.796-0.366 1.201-0.774l5.777-5.724c0.492-0.479 0.756-0.807 0.746-1.073 0-0.061-0.01-0.124-0.035-0.194-0.141-0.449-0.264-0.575-0.281-0.811 0-0.084 0.033-0.167 0.08-0.231 0.076-0.08 0.162-0.125 0.252-0.125 0.151 0.006 0.242 0.09 0.324 0.168 0.509 0.514 0.998 1.085 1.483 1.6 0.921 0.981 1.951 1.867 2.911 2.835 0.497 0.499 0.862 0.835 0.855 1.603 0 0.063-0.002 0.129-0.007 0.198-0.032 0.641-0.138 1.447-0.652 1.963-0.045 0.037-0.121 0.123-0.293 0.133-0.066 0.002-0.148-0.029-0.202-0.086-0.08-0.084-0.067-0.157-0.073-0.219 0.002-0.135 0.028-0.307 0.028-0.559-0.003-0.732-0.22-2.096-2.139-4.038-0.45-0.456-0.729-0.604-0.888-0.597-0.199-0.017-0.449 0.243-0.874 0.679l-2.331 2.308c-0.154 0.138-0.262 0.265-0.244 0.285 0 0.01 0.002 0.037 0.064 0.103l1.858 1.874c0.26 0.264 0.465 0.334 0.643 0.334 0.435 0.02 0.765-0.477 1.215-0.528 0.094-0.002 0.201 0.041 0.273 0.117 0.061 0.065 0.111 0.149 0.111 0.253 0 0.117-0.058 0.213-0.138 0.293-0.35 0.344-0.7 0.644-1.026 0.966-0.4 0.397-0.808 0.849-1.255 1.293-0.097 0.089-0.218 0.185-0.396 0.191-0.075 0.002-0.166-0.029-0.228-0.095-0.058-0.053-0.095-0.149-0.093-0.227 0.041-0.368 0.379-0.615 0.37-1.051-0.002-0.254-0.107-0.578-0.528-1.005l-1.357-1.367c-0.249-0.267-0.364-0.326-0.364-0.328-0.01-0.01-0.09 0.051-0.301 0.272l-2.355 2.335c-0.396 0.379-0.557 0.579-0.539 0.66-0.029 0.106 0.246 0.419 0.921 1.08 0.471 0.502 1.688 1.791 2.287 1.758 0.02 0 0.038-0.002 0.056-0.004 0.31-0.022 0.611-0.598 1.073-0.657 0.098-0.002 0.201 0.043 0.272 0.119 0.041 0.043 0.086 0.124 0.084 0.215-0.021 0.292-0.248 0.677-1.34 1.774-0.125 0.115-0.238 0.232-0.431 0.242-0.077 0.002-0.163-0.035-0.218-0.094-0.394-0.397-1.498-1.615-1.744-1.861-0.518-0.524-1.23-1.14-3.602-3.536-0.252-0.263-0.374-0.398-0.39-0.604-0.002-0.1 0.054-0.184 0.104-0.232 0.066-0.069 0.161-0.098 0.24-0.096"/>
</g>
<g transform="matrix(1.25,0,0,-1.25,238.4,36.9)">
<path fill="#b1b1b1" d="m0 0c1.848 0.008 3.857 1.221 5.303 1.208 0.606-0.003 1.086-0.188 1.48-0.755 0.313-0.457 0.446-0.924 0.446-1.379 0.003-0.996-0.652-1.969-1.579-2.602-0.759-0.516-1.491-0.697-2.146-0.697-1.035-0.002-1.885 0.463-2.246 0.779-0.211 0.176-0.313 0.364-0.586 0.387-0.088 0-0.168-0.035-0.235-0.082-0.101-0.06-0.165-0.184-0.162-0.301 0.006-0.191 0.114-0.355 0.288-0.529l1.668-1.647c0.125-0.105 0.252-0.109 0.414-0.113 0.648 0.004 1.926 0.363 2.843 0.986 2.075 1.415 2.763 2.932 2.761 4.2 0 0.807-0.272 1.503-0.619 2.01-0.81 1.19-1.838 1.596-2.883 1.592-1.866-0.009-3.85-1.197-5.249-1.184-0.582 0.003-1.037 0.178-1.41 0.714-0.258 0.377-0.361 0.746-0.364 1.105-0.004 0.848 0.619 1.674 1.409 2.213 0.639 0.438 1.33 0.668 2.014 0.668 0.65 0 1.297-0.205 1.908-0.656 0.119-0.078 0.338-0.279 0.613-0.291 0.059 0 0.133 0.014 0.196 0.057 0.101 0.066 0.175 0.179 0.172 0.296-0.002 0.128-0.065 0.219-0.127 0.291l-1.59 1.85c-0.088 0.11-0.204 0.186-0.334 0.186-0.086 0-0.159-0.035-0.211-0.072-0.243-0.225-0.164-0.42-0.196-0.373-0.041-0.078-1.064 0.064-2.838-1.161-1.181-0.808-2.037-2.016-2.039-3.348 0-0.625 0.194-1.27 0.621-1.894 0.739-1.087 1.695-1.462 2.678-1.458"/>
</g>
<g transform="matrix(1.25,0,0,-1.25,247.3,25.85)">
<path fill="#b1b1b1" d="m0 0c0.6423-0.7571 0.8609 0.4682 0.656 0.9746-0.1463 0.6694 0.553 0.9144 1.041 1.115 0.802 0.343 1.603 0.686 2.405 1.029 0.371-0.697 0.636-1.451 0.962-2.172 0.998-2.342 2.006-4.679 2.998-7.023 0.289-0.764-0.922-0.983-0.806-1.687 0.403-0.648 1.102 0.231 1.624 0.324 0.799 0.383 1.63 0.686 2.46 0.985 0.6293 0.5406-0.4198 0.9365-0.8899 0.6473-0.6426-0.08492-0.857 0.6033-1.056 1.075-1.203 2.828-2.42 5.651-3.617 8.481 0.113 0.255 0.591 0.285 0.849 0.448 0.809 0.325 1.591 0.727 2.422 0.989 0.758 0.289 0.721-0.895 1.372-0.833 0.57 0.148 0.2 0.722 0.03 1.053-0.25 0.431-0.4 0.936-0.741 1.3-0.662 0.227-1.266-0.427-1.888-0.593-2.699-1.239-5.453-2.354-8.203-3.473-0.5128-0.299-0.1113-0.879-0.0178-1.307 0.1332-0.4441 0.2665-0.8886 0.3998-1.333z"/>
</g>
<g transform="matrix(1.25,0,0,-1.25,265.1,16.61)">
<path fill="#b1b1b1" d="m0 0c0.8314 0.191 1.226-0.6723 1.291-1.355 0.594-2.845 1.211-5.685 1.787-8.534 0.273-0.711-0.391-1.111-0.869-1.461-0.248-0.93 1.044-0.37 1.5-0.27 1.899 0.5525 3.882 0.7244 5.793 1.215 0.792 0.273 1.135 1.128 1.41 1.847 0.26 0.394 0.11 1.738-0.52 1.136-0.702-1.488-2.347-2.18-3.857-2.548-0.533-0.09-1.542-0.51-1.695 0.298-0.294 1.388-0.596 2.776-0.873 4.167 0.145 0.2 0.495 0.157 0.735 0.242 0.758 0.145 1.508 0.346 2.272 0.45 0.914 0.125 0.668-1.472 1.546-1.235 0.408 0.48-0.112 1.158-0.141 1.719-0.179 0.699-0.198 1.445-0.461 2.116-0.658 0.571-0.66-0.6-0.792-0.989-0.388-0.637-1.218-0.62-1.866-0.792-0.512-0.099-1.018-0.235-1.535-0.3-0.328 1.344-0.581 2.714-0.875 4.068-0.23 0.779 0.898 0.6271 1.364 0.82 0.912 0.1709 1.874 0.517 2.799 0.2496 0.495-0.258 0.312-1.64 1.121-1.149 0.27 0.633 0.004 1.351-0.078 2.002 0.044 0.727-0.632 0.832-1.167 0.562-1.419-0.384-2.866-0.643-4.31-0.91-0.958-0.202-1.93-0.3561-2.875-0.6137-0.5827-0.1928-0.1939-0.8573 0.3-0.7357z"/>
</g>
<g transform="matrix(1.25,0,0,-1.25,280.7,13.11)">
<path fill="#b1b1b1" d="m0 0c0.001 0.004 0.003 0.007 0.003 0.011 0.001 0.006-0.002 0.014-0.001 0.018 0.002 0 0 0-0.002-0.029"/>
</g>
<g transform="matrix(1.25,0,0,-1.25,287.1,20.09)">
<path fill="#b1b1b1" d="m0 0c-0.5585 0.05904-1.348-0.1917-1.773 0.1411-0.0163 1.521-0.04823 3.042-0.05475 4.563 0.07109 0.5979 0.8691 0.3232 1.3 0.366 1.06-0.052 2.238-0.531 2.615-1.606 0.341-0.987 0.286-2.286-0.588-2.986-0.426-0.3275-0.9704-0.4568-1.499-0.478zm5.615-6.871c0.4569-0.02628 0.9452 0.08599 1.349 0.18-0.0137 0.2954 0.00182 0.04572-0.02348 0.3513-0.421 0.383-1.154 0.325-1.523 0.853-0.726 0.779-1.249 1.717-1.865 2.581-0.574 0.846-1.149 1.693-1.723 2.539 1.408 0.6449 2.396 2.248 2.058 3.799-0.147 1.166-1.086 2.102-2.202 2.39-1.302 0.386-2.672 0.148-4.004 0.128-0.773-0.044-1.55-0.054-2.319 0.017-0.835-0.013-0.398-1.075 0.287-0.891 0.6377-0.0464 0.8212-0.7109 0.7773-1.244 0.03395-3.011 0.08468-6.022 0.1081-9.032 0.087-0.864-1.077-0.781-1.279-1.426 0.2249-0.7286 1.206-0.1983 1.762-0.2959 0.9483 0.06724 1.902 0.00601 2.848-0.01392 0.5646 0.03628 0.2411 0.7783-0.1832 0.7845-0.5262 0.1015-1.283 0.2021-1.368 0.8605-0.06091 1.237-0.03948 2.478-0.06745 3.717-0.1175 0.4783 0.1281 0.7539 0.6577 0.6156 0.5991-0.01451 1.431 0.1625 1.678-0.567 0.901-1.33 1.725-2.713 2.669-4.014 0.558-0.749 1.387-1.364 2.362-1.328z"/>
</g>
<g transform="matrix(1.25,0,0,-1.25,311.2,31.8)">
<path fill="#b1b1b1" d="m0 0c0.5509 0.08344 0.4556 0.8003 0.6041 1.224 0.7081 3.274 1.405 6.551 2.12 9.824-0.00719 0.8886 1.378 0.4644 1.291 1.286-0.531 0.44-1.381 0.28-2.034 0.5-0.627 0.07-1.26 0.52-1.878 0.36-0.489-0.92 1.304-0.86 1.347-1.76 0.174-0.84-0.185-1.661-0.317-2.486-0.4108-1.907-0.8214-3.814-1.232-5.721-2.117 3.711-4.252 7.413-6.358 11.13-0.2419 0.7548-1.174 0.3792-1.72 0.7163-0.6455 0.4679-1.223-0.5291-0.3765-0.7326 0.8324-0.2649 1.19-1.173 1.112-1.984-0.099-1.25-0.461-2.45-0.694-3.67-0.332-1.471-0.602-2.958-0.979-4.418-0.12-0.999-1.146-1.004-1.816-1.302-0.32-0.895 1.141-0.613 1.656-0.839 0.735-0.099 1.432-0.433 2.165-0.494 0.877 0.727-0.801 0.817-0.961 1.421-0.111 0.644 0.171 1.273 0.268 1.908 0.438 2.018 0.864 4.039 1.309 6.054 1.971-3.496 3.94-6.995 5.925-10.48 0.1458-0.219 0.2971-0.4776 0.568-0.55z"/>
</g>
<g transform="matrix(1.25,0,0,-1.25,329.5,40.35)">
<path fill="#b1b1b1" d="m0 0c1.592-1.083 3.895-1.425 5.482-0.1438 1.512 1.208 2.264 3.058 3.323 4.628 0.5587 0.9153 1.114 1.84 1.719 2.722 0.8153 0.05177 2.172 0.5425 0.7908 1.182-0.94 0.239-1.526 1.43-2.543 1.267-0.307-0.844 1.403-1.619 0.354-2.521-1.181-1.889-2.27-3.844-3.555-5.663-0.884-1.124-2.464-1.733-3.823-1.13-1.741 0.5853-3.476 2.221-3.19 4.207 0.215 1.627 1.426 2.855 2.167 4.258 0.713 1.127 1.372 2.304 2.129 3.394 0.444 0.1937 1.876-0.3653 1.284 0.5929-0.983 0.6296-2.03 1.165-2.974 1.855-1.477 0.2573 0.2035-1.142 0.04103-1.706-1.279-2.2-2.774-4.289-3.913-6.57-0.667-1.515-0.527-3.411 0.638-4.652 0.579-0.694 1.31-1.245 2.075-1.718z"/>
</g>
<g transform="matrix(1.25,0,0,-1.25,341.7,44.63)">
<path fill="#b1b1b1" d="m0 0c-0.63-0.62-1.067-0.772-1.382-0.772-0.458-0.011-0.694 0.335-1.092 0.372-0.103 0.002-0.214-0.047-0.292-0.126-0.043-0.037-0.12-0.122-0.12-0.253 0-0.11 0.056-0.207 0.144-0.294 0.1-0.101 0.793-0.702 1.229-1.141 0.608-0.616 0.9-1.013 1.214-1.332 0.067-0.073 0.164-0.116 0.255-0.116 0.153 0.004 0.24 0.091 0.29 0.137 0.061 0.066 0.102 0.153 0.1 0.242-0.058 0.433-0.555 0.731-0.539 1.187 0 0.192 0.081 0.422 0.378 0.717l5.188 5.126c0.053 0.055 0.098 0.095 0.132 0.124v-0.004c0-0.118-0.021-0.234-0.023-0.303l-0.75-11.51c-0.005-0.099-0.007-0.186-0.007-0.261 0.002-0.378 0.053-0.573 0.179-0.706 0.04-0.048 0.119-0.079 0.185-0.079h0.006c0.259 0.027 0.395 0.214 0.709 0.504l7.346 7.258c0.292 0.29 0.508 0.354 0.686 0.354 0.277 0.008 0.486-0.187 0.793-0.207 0.096-0.002 0.207 0.039 0.288 0.118 0.061 0.064 0.104 0.145 0.102 0.234 0 0.103-0.05 0.188-0.112 0.248-0.31 0.317-0.9 0.81-1.32 1.233-0.39 0.396-0.7 0.814-1.09 1.205-0.07 0.065-0.15 0.12-0.27 0.12-0.09 0.003-0.17-0.041-0.24-0.105-0.07-0.065-0.11-0.172-0.11-0.269 0.04-0.465 0.57-0.858 0.56-1.479-0.01-0.332-0.14-0.736-0.65-1.239l-5.2-5.135 0.755 12.66c0.002 0.07 0.039 0.226 0.039 0.385 0 0.114-0.015 0.251-0.122 0.365-0.214 0.211-0.465 0.362-0.631 0.534-0.182 0.18-0.319 0.42-0.54 0.646-0.089 0.081-0.198 0.141-0.349 0.147-0.063 0-0.148-0.018-0.211-0.085-0.072-0.062-0.12-0.169-0.118-0.269 0.048-0.449 0.528-0.758 0.521-1.433 0-0.489-0.255-1.185-1.254-2.173l-4.683-4.625z"/>
</g>
<g transform="matrix(1.25,0,0,-1.25,354,59.61)">
<path fill="#b1b1b1" d="m0 0c-0.4188-0.3381-1.088-0.4811-1.474-0.01479-0.4167 0.6319-1.322-0.05961-0.6979-0.5829 0.805-0.9374 1.416-2.015 2.088-3.045 0.5464-0.578 0.8696 0.408 0.5161 0.807-0.2142 0.405-0.199 0.983 0.276 1.197 2.634 1.803 5.265 3.611 7.902 5.411 0.518 0.419 0.996-0.085 1.41-0.363 0.79-0.184 0.41 0.793 0.04 1.058-0.694 0.804-1.192 1.742-1.781 2.617-0.557 0.417-0.766-0.512-0.418-0.861 0.243-0.49-0.094-0.973-0.523-1.196-2.446-1.676-4.892-3.351-7.338-5.027z"/>
</g>
<g transform="matrix(1.25,0,0,-1.25,359.7,72.35)">
<path fill="#b1b1b1" d="m0 0c-0.6448-0.3728-1.25-1.702 0.02841-1.497 4.118 0.1631 8.245 0.2358 12.36 0.3603 0.4741-0.3465 1.672-0.7264 1.186 0.3003-0.5356 0.726-0.5964 1.712-1.176 2.369-1.055 0.292 0.06536-1.676-1.2-1.564-3.097-0.1839-6.201-0.2741-9.302-0.416 2.144 2.427 4.373 4.783 6.548 7.182 0.573 0.288 2.074-0.617 1.364 0.738-0.589 0.774-0.702 1.784-1.234 2.588-1.155 0.19-0.126-1.626-1.14-1.963-2.474-2.703-4.957-5.398-7.436-8.097z"/>
</g>
<g transform="matrix(1.25,0,0,-1.25,375.8,81.36)">
<path fill="#b1b1b1" d="m0 0c-2.957-0.65-5.904-1.39-8.868-1.98-0.5419 0.3365-1.777 1.592-1.473 0.09648 0.7161-2.113 0.8859-4.359 1.54-6.484 0.4743-0.989 1.905-1.72 2.945-1.279-0.00502 0.9591-1.842 1.364-1.982 2.569-0.4107 1.055-1.676 3.405 0.2519 3.568 1.193 0.2147 2.364 0.5556 3.556 0.7881 0.348-1.065 0.7004-2.228 0.6989-3.326-0.5115-0.325-1.927-1.366-0.496-1.323 1.021 0.4067 2.271 0.2306 3.142 0.8822 0.05867 0.841-1.804 0.4941-1.65 1.741-0.2823 1.035-0.9244 2.785 0.8292 2.606 1.092-0.0267 2.878 1.359 3.435-0.03419 0.075-1.112 0.783-2.225 0.41-3.326-0.32-0.582-1.986-1.155-0.485-1.412 1.241-0.125 2.703 0.614 1.761 2.011-0.585 2.095-0.877 4.272-1.413 6.385-1.037 1.229-0.531-1.664-1.819-1.402l-0.1951-0.0399-0.1899-0.03951z"/>
</g>
<g transform="matrix(1.25,0,0,-1.25,380.8,100.7)">
<path fill="#b1b1b1" d="m0 0c0.1363-1.536-0.9428-3.219-2.613-3.159-1.488-0.1721-2.571 1.144-2.478 2.55-0.4618 1.273 0.585 1.733 1.672 1.524 1.068 0.03842 2.137 0.08463 3.206 0.05552 0.3394-0.2053 0.1337-0.6595 0.213-0.9705zm-1.118 2.736c-3.17-0.0672-6.344-0.2299-9.512-0.2352-0.4656 0.3847-1.406 1.985-1.491 0.488 0.1444-1.211 0.1309-2.429 0.1122-3.644 0.7398-1.402 0.7218 1.504 1.835 1.402 1.327 0.03026 2.677 0.04233 4.015 0.09093 0.2524-0.9234 0.3005-2.181-0.7705-2.599-1.471-1.021-3.085-1.887-4.35-3.168-0.5905-0.6423-1.051-2.912 0.07336-2.845 0.2844 1.12 1.105 1.803 2.056 2.402 1.193 0.8748 2.43 1.687 3.629 2.552 0.732-0.7036 1.302-1.672 2.394-1.875 1.647-0.5129 3.652 0.5167 3.923 2.287 0.456 1.985-0.1598 4.007 0.0197 6.01-0.0437 1.251-1.119 0.288-1.046-0.47-0.1674-0.319-0.5468-0.442-0.8857-0.396z"/>
</g>
<g transform="matrix(1.25,0,0,-1.25,377.5,114.9)">
<path fill="#b1b1b1" d="m0 0c-1.97 0.4751-3.574-1.259-4.21-2.943-0.6246-1.433-1.618-3.866-3.609-3.041-2.086 0.9172-2.007 3.896-0.6237 5.39 0.5102 1.241 2.694 0.6768 2.784 1.771-1.038 0.421-3 0.534-3.716-0.6477-1.115-2.206-1.445-5.304 0.495-7.16 1.613-1.439 4.462-1.04 5.488 0.9125 0.9813 1.413 1.278 3.434 2.872 4.331 1.9 0.5554 3.072-1.832 2.395-3.395-0.287-1.645-1.883-2.221-3.188-2.685-0.04331-1.161 1.85-0.5451 2.673-0.7028 0.7004 0.745 0.9889 1.99 1.35 3.022 0.5016 1.858-0.04778 4.311-2.063 4.994-0.2091 0.07304-0.4263 0.1257-0.6467 0.154z"/>
</g>
<g transform="matrix(1.25,0,0,-1.25,378,131.2)">
<path fill="#b1b1b1" d="m0 0c-0.863-0.9384-1.96-1.306-3.077-0.5118-2.642 0.8835-5.333 1.677-7.933 2.65-0.2062 0.6118-0.64 2.42-1.203 0.9613-0.09144-1.289-1.346-2.587-0.8641-3.757 0.7444 0.2266 1.239 1.559 2.331 0.8414 2.937-1.093 5.983-1.876 8.907-3.01-0.08546-0.8538 0.9443-2.069 1.097-0.5542 0.06753 1.118 1.148 2.322 0.8401 3.33l-0.0782 0.03741-0.0279 0.01429z"/>
</g>
<g transform="matrix(1.25,0,0,-1.25,373.9,141.4)">
<path fill="#b1b1b1" d="m0 0c-0.3911 0.8211-2.772 1.302-1.405-0.05824 0.7466-1.273-0.613-2.752-1.247-3.735-1.553 0.08624-2.768 1.419-4.228 1.939-1.605 0.8315-3.21 1.664-4.787 2.548 0.1635 1.027-0.7448 2.445-1.121 0.7933-0.2754-0.8805-2.006-2.528-1.026-3.028 1.708 1.518 3.23-0.7221 4.908-1.23 1.785-0.93 3.564-1.857 5.34-2.79-0.5999-1.177-0.9266-3.162-2.364-3.402-2.213-0.112 1.363-2.225 1.909-0.7369 1.135 2.849 2.806 5.488 4.192 8.235 0.3734 0.5369 0.6569 1.171-0.163 1.465z"/>
</g>
<g transform="matrix(1.25,0,0,-1.25,364.8,158.2)">
<path fill="#b1b1b1" d="m0 0c-1.062-0.9031-2.399-0.324-3.627-0.245-1.313 0.1638-2.626 0.3268-3.937 0.5068-1.09 0.6652-2.001 1.598-3.024 2.366-0.832 0.4136-1.167 1.205-0.652 2.016-0.3613 1.171-1.238-0.5712-1.622-1.013-0.3332-0.7005-1.996-1.479-1.194-2.218 0.7877 0.4323 1.711 0.7544 2.376-0.1502 1.006-0.8493 2.055-1.647 3.048-2.512 0.6413-2.028 1.34-4.039 1.958-6.073-0.2473-0.6643 0.1989-1.843 0.8173-0.821 0.3881 0.9525 1.778 1.474 1.623 2.532-0.6063 0.4004-1.482-1.152-1.972 0.0656-0.397 1.358-0.951 2.667-1.348 4.024 1.576-0.1016 3.144-0.3544 4.71-0.5611 0.7983 0.00907-0.08047-1.929 0.9659-1.166 0.62 0.7763 1.16 1.619 1.903 2.29 0.2626 0.2524 0.5138 0.884-0.035 0.958z"/>
</g>
<g transform="matrix(1.25,0,0,-1.25,245.5,174.6)">
<path fill="#b1b1b1" d="m0 0-2.168-1.358-1.811 1.469 0.62-2.204-1.924-1.264 2.345-0.265 0.736-2.243 0.844 2.149 2.292-0.156-1.817 1.474l0.883 2.398z"/>
</g>
<g transform="matrix(1.25,0,0,-1.25,272.3,180.7)">
<path fill="#b1b1b1" d="m0 0c-1.14-0.6248-2.751-0.2724-3.74-0.989 0.143-0.921 2.384 0.04424 1.543-1.494-0.7774-2.697-1.512-5.407-2.316-8.095-0.1925-0.8738-2.947-0.05234-1.55-1.183 1.488-0.2768 2.899-0.8523 4.364-1.191 1.208 0.8471-2.255 1.109-1.03 2.572 0.8763 3.047 1.706 6.108 2.612 9.145 0.1066 0.3498 0.6455 0.9782 0.117 1.235z"/>
</g>
<g transform="matrix(1.25,0,0,-1.25,286.1,186.6)">
<path fill="#b1b1b1" d="m0 0c0.08255-1.83-2.264-2.447-3.377-1.176-1.257 0.9458-0.911 3.322 0.773 3.535 1.403 0.272 2.767-0.914 2.604-2.359zm-0.203-6.497c0.09791-1.517-1.362-2.838-2.866-2.454-2.327 0.5856-2.956 4.172-0.9071 5.487 1.548 0.7754 3.322-1.344 3.749-2.699l0.024-0.334zm1.398 6.414c0.343 2.031-1.706 3.58-3.603 3.291-2.292-0.074-3.928-2.918-2.607-4.857 0.606-0.7294 1.221-1.046 0.00414-1.496-2.165-1.516-1.884-5.328 0.6195-6.352 2.091-1.003 4.961 0.1744 5.455 2.514 0.506 1.686-0.3137 3.572-1.853 4.403 1.002 0.4504 1.903 1.35 1.984 2.497z"/>
</g>
<g transform="matrix(1.25,0,0,-1.25,296.6,187.6)">
<path fill="#b1b1b1" d="m0 0c-1.128-0.1281-2.178-0.6889-1.735 0.8129 0.1 0.6481-0.173 1.768 0.878 1.628 0.9586 0.162 1.965 0.155 2.881 0.465 0.671 0.64 1.027 3.251-0.324 1.594-1.253-0.367-2.619-0.272-3.87-0.647-0.599-0.578-0.303-1.537-0.443-2.299-0.034-1.117-0.186-2.248-0.148-3.357 1.148-0.379 2.819 0.8274 3.945-0.346 1.625-1.658 1.03-4.991-1.267-5.746-0.8353-0.82-2.548 0.481-2.963-0.468 1.159-1.027 3.106-0.5558 4.399 0.04311 2.618 1.426 3.263 5.734 0.8525 7.639-0.633 0.4665-1.425 0.6871-2.206 0.681z"/>
</g>
<g transform="matrix(1.25,0,0,-1.25,315.6,193.1)">
<path fill="#b1b1b1" d="m0 0c-1.262-0.6672-2.061 0.4287-2.263 1.543-0.912 2.724-1.864 5.435-2.75 8.167 0.114 1.22-0.907 1.29-1.273 0.222-0.31-0.724-2.652-1.71-1.367-2.26 0.916 1.159 1.698 0.381 1.844-0.72 0.809-2.418 1.66-4.823 2.441-7.25 0.272-0.803-2.31-1.703-0.592-1.81 1.37 0.6458 2.908 0.8919 4.259 1.533 0.242 0.2283-0.0082 0.6052-0.299 0.575z"/>
</g>
<g transform="matrix(1.25,0,0,-1.25,339.1,173.9)">
<path fill="#b1b1b1" d="m0 0-1.755-1.538-2.213 1.269 0.97-2.36-1.755-1.537 2.28 0.238 0.92-2.111 0.657 2.266 2.336 0.352-1.977 1.192l0.537 2.229z"/>
</g>
<g transform="matrix(1.25,0,0,-1.25,238.8,139.7)">
<path fill="#b1b1b1" d="m0 0c-1.854-1.383-4.966-0.1656-5.039 2.255-0.355 2.992 3.365 5.827 6.037 4.104 1.877-1.354 1.613-4.41-0.1594-5.745-0.257-0.2336-0.5385-0.4398-0.8386-0.614zm3.34 2.536c0.871-0.958 2.761 0.957 0.711 0.682-1.61 1.015-0.408 3.207-0.738 4.714 0.132 0.974-1.707 3.038-1.907 1.771 0.959-0.746 0.836-4.079-0.6442-2.36-2.765 1.515-6.695-0.532-6.863-3.732-0.285-3.061 2.928-5.984 5.946-4.973 1.757 0.5103 3.304 2.026 3.495 3.898z"/>
</g>
<g transform="matrix(1.25,0,0,-1.25,228.7,128.8)">
<path fill="#b1b1b1" d="m0 0c1.769 0.6007 3.64 0.9443 5.326 1.765 1.278 0.706 1.743 2.277 1.409 3.641-0.239 1.495-1.123 3.16-2.772 3.386-1.373 0.194-2.669-0.466-3.971-0.802-0.8795-0.13-1.819-0.891-2.681-0.445-1.147 0.685-0.421-0.944-0.296-1.468-0.105-0.653 0.794-1.342 0.853-0.339-0.177 1.045 1.2 0.95 1.849 1.254 1.275 0.334 2.515 0.923 3.845 0.963 1.116-0.016 1.902-0.965 2.16-1.975 0.406-1.179 0.01-2.712-1.245-3.187-1.389-0.566-2.866-0.887-4.29-1.358-0.6885-0.5745-1.142 0.398-1.692 0.287-0.2116-0.8121 0.5457-1.549 0.5062-2.38 0.2423-0.9606 1.059-0.107 0.7931 0.5049l0.08403 0.09761 0.122 0.05539z"/>
</g>
<g transform="matrix(1.25,0,0,-1.25,229.2,107.9)">
<path fill="#b1b1b1" d="m0 0c-0.03641-0.7202 0.3299-2.066 0.004224-2.414-0.9237 0.365-1.847 0.731-2.771 1.097 0.922 0.439 1.845 0.878 2.767 1.317zm-4.909-1.113c0.7122-0.8188 1.925-0.8224 2.827-1.351 1.918-0.7649 3.834-1.534 5.751-2.301 0.1366-0.6693 1.195-1.115 0.9103-0.103-0.2371 0.5969 0.338 2.149-0.5751 2.016-0.198-0.709-0.78-1.033-1.483-0.596-0.884 0.266-1.853 0.702-1.51 1.831 0.023 0.779-0.5177 2.038 0.496 2.392 0.774 0.1518 1.819 1.27 2.302 0.0854 0.926 0.1736 0.077 1.548 0.333 2.25 0.234 0.921-0.718 1.217-0.779 0.194-0.258-0.837-1.361-0.814-1.999-1.274-2.052-0.957-4.095-1.933-6.14-2.906l-0.088-0.1066-0.045-0.1304z"/>
</g>
<g transform="matrix(1.25,0,0,-1.25,226.9,93.3)">
<path fill="#b1b1b1" d="m0 0c-0.1417 0.4183-0.6878 0.4015-1.044 0.5037-0.332 0.0374-0.955 0.3029-1.01-0.2176-0.114-0.9597-0.209-1.922-0.401-2.871-0.132-0.862-0.304-1.722-0.379-2.591 0.058-0.51 0.677-0.284 0.689 0.136 0.1043 0.4981 0.6902 0.4648 1.077 0.3848 1.979-0.2921 3.959-0.5733 5.937-0.8741 0.5516 0.02422 0.6303-0.5175 0.768-0.9129 0.5376-0.4356 0.6083 0.496 0.6113 0.8479 0.09829 1.386 0.4527 2.735 0.6076 4.112 0.04115 0.6308-0.4843 1.107-0.9256 1.475-0.231 0.2117-0.957 0.4838-0.959-0.03386 0.232-0.3717 0.56-0.7032 0.662-1.152 0.261-0.914 0.209-1.902-0.022-2.816-0.132-0.429-0.651-0.156-0.964-0.152-0.782 0.12-1.567 0.219-2.346 0.352 0.08596 0.6434 0.1812 1.288 0.2832 1.929 0.04998 0.5003 0.6154 0.4214 0.9738 0.4879 0.471 0.201 0.117 0.7623-0.304 0.6515-0.686 0.0529-1.356 0.2114-2.037 0.2965-0.5293 0.03-0.3819-0.679 0.07-0.678 0.419-0.182 0.433-0.686 0.35-1.07-0.077-0.496-0.136-0.996-0.228-1.489-1.002 0.1463-2.007 0.2758-3.004 0.4549-0.1661 0.3294 0.06082 0.7658 0.05678 1.134 0.08626 0.5578 0.1373 1.151 0.428 1.647 0.2814 0.3303 0.8687-0.1386 1.091 0.308 0.01195 0.04178 0.0312 0.0916 0.019 0.137z"/>
</g>
<g transform="matrix(1.25,0,0,-1.25,238.6,83.59)">
<path fill="#b1b1b1" d="m0 0c-0.03541 0.4374 0.004233 0.9529-0.3067 1.299-0.3768 0.231-0.7363 0.496-1.124 0.706-0.549 0.038-0.345-0.604-0.019-0.771 0.8717-1.285 0.7409-3.132-0.208-4.341-0.854-1.061-2.347-1.339-3.63-1.097-1.198 0.235-2.427 0.8099-3.093 1.877-0.6789 1.119-0.4086 2.578 0.2688 3.632 0.578 0.89 1.656 1.264 2.657 1.409 0.535-0.132 0.694 0.627 0.134 0.687-0.589 0.089-1.13 0.414-1.728 0.435-0.377-0.162-0.009-0.675-0.504-0.787-1.073-0.852-1.718-2.169-1.938-3.504-0.256-1.727 0.643-3.506 2.104-4.429 1.424-0.9444 3.401-1.192 4.898-0.2698 1.128 0.6596 1.824 1.852 2.151 3.088 0.1968 0.671 0.3359 1.365 0.338 2.066z"/>
</g>
<g transform="matrix(1.25,0,0,-1.25,239.5,78.62)">
<path fill="#b1b1b1" d="m0 0c1.039 0 2.102 0.584 3.09 2.115 0.525 0.816 0.734 1.541 0.734 2.174-0.006 1.777-1.617 2.701-1.982 2.94l-3.213 2.081c-0.447 0.297-0.475 0.485-0.483 0.651 0 0.092 0.024 0.185 0.026 0.301 0.006 0.094-0.041 0.244-0.164 0.318-0.049 0.032-0.106 0.043-0.147 0.043-0.132 0-0.217-0.06-0.291-0.15-0.133-0.21-0.213-0.43-0.328-0.601-0.256-0.393-0.556-0.772-0.825-1.186-0.052-0.065-0.034-0.104-0.041-0.145 0.007-0.076 0.011-0.172 0.127-0.262 0.061-0.037 0.129-0.06 0.2-0.06 0.465 0.086 0.567 0.576 0.949 0.547 0.117 0 0.276-0.041 0.492-0.18l3.358-2.175c0.801-0.518 1.467-1.227 1.463-2.167 0-0.461-0.156-0.995-0.556-1.614-0.565-0.868-1.325-1.388-2.199-1.388-0.485 0-1.015 0.159-1.583 0.526l-3.721 2.409c-0.24 0.161-0.262 0.266-0.269 0.374-0.006 0.148 0.107 0.304 0.121 0.529 0.006 0.09-0.049 0.217-0.15 0.274-0.034 0.029-0.098 0.043-0.139 0.043-0.313-0.051-0.368-0.33-0.415-0.36-0.216-0.332-0.388-0.69-0.597-1.01-0.17-0.266-0.379-0.498-0.564-0.782-0.045-0.072-0.092-0.17-0.101-0.316 0-0.059 0.015-0.153 0.108-0.217 0.058-0.037 0.125-0.055 0.191-0.055 0.436 0.074 0.612 0.551 0.856 0.512 0.051 0 0.109-0.014 0.191-0.065l3.493-2.262c0.727-0.47 1.521-0.839 2.363-0.839h0.006z"/>
</g>
<g transform="matrix(1.25,0,0,-1.25,256.1,60.88)">
<path fill="#b1b1b1" d="m0 0c-0.439-0.2525-0.9851-0.385-1.305 0.126-1.412 1.444-2.832 2.881-4.239 4.33-0.662 0.44 0.107 1.011-0.1 1.492-0.569 0.294-0.919-0.64-1.378-0.884-0.012-0.499 0.23-0.971 0.342-1.455 0.583-1.993 1.172-3.984 1.751-5.978-2.234 0.8861-4.457 1.8-6.682 2.707-0.6564 0.3557-0.9255-0.6279-1.463-0.8415-0.63-0.567 0.31-0.757 0.72-0.481 0.8275-0.09825 1.398-0.8161 1.945-1.376 1.022-1.162 1.955-2.399 2.907-3.618 0.4589-0.4021-0.5494-1.374 0.3691-1.368 0.4834 0.423 0.9 0.9342 1.427 1.316 0.5187 0.156 0.6416 1.092-0.07807 0.8214-0.5102-0.4357-1.144-0.0777-1.463 0.4002-0.874 1.017-1.751 2.032-2.629 3.048 1.919-0.7657 3.842-1.522 5.758-2.294 0.7185-0.06796 0.2697 0.7939 0.1701 1.187-0.544 1.846-1.123 3.685-1.645 5.537 1.209-1.204 2.392-2.438 3.582-3.662 0.438-0.35-0.488-1.3 0.382-1.26 0.5596 0.5014 1.059 1.077 1.671 1.526 0.3216 0.1816 0.4402 0.6882-0.046 0.727z"/>
</g>
<g transform="matrix(1.25,0,0,-1.25,262.9,56.96)">
<path fill="#b1b1b1" d="m0 0c-0.55-0.299-1.112-0.433-1.662-0.433-1.502-0.002-2.939 1.008-3.71 2.431-0.341 0.622-0.52 1.291-0.52 1.932 0.002 1.057 0.478 2.024 1.56 2.613h0.002c0.545 0.297 1.103 0.431 1.655 0.431 1.488 0.002 2.921-0.983 3.679-2.379 0.371-0.684 0.54-1.353 0.54-1.971-0.002-1.135-0.568-2.092-1.544-2.624m3.52-1.275c0.954 0.532 1.369 1.14 1.384 1.538 0 0.064-0.011 0.123-0.043 0.178-0.033 0.064-0.108 0.175-0.26 0.179-0.052 0-0.109-0.016-0.158-0.047-0.191-0.146-0.322-0.49-0.567-0.616-0.201-0.109-0.406-0.191-0.786-0.193-0.078 0-0.166 0.004-0.259 0.012-0.952 0.084-1.499 0.116-1.833 0.116h-0.008c0.99 0.886 1.539 2.041 1.537 3.295 0 0.784-0.213 1.603-0.654 2.414-0.844 1.558-2.332 2.393-3.909 2.391-0.777 0-1.575-0.199-2.328-0.612-1.585-0.862-2.513-2.414-2.513-4.067 0-0.741 0.187-1.5 0.581-2.225 0.775-1.426 1.985-2.343 3.353-2.509-0.133-0.263-0.208-0.581-0.209-0.907 0-0.273 0.054-0.552 0.19-0.8 0.064-0.122 0.177-0.247 0.347-0.247 0.076 0 0.141 0.023 0.201 0.054 0.125 0.07 0.152 0.201 0.148 0.279-0.006 0.228-0.111 0.482-0.109 0.743 0.008 0.25 0.066 0.464 0.425 0.663 0.298 0.166 0.786 0.228 1.352 0.226 0.827 0 1.807-0.117 2.653-0.117 0.573 0.002 1.082 0.049 1.465 0.252"/>
</g>
<g transform="matrix(1.25,0,0,-1.25,278.1,47.39)">
<path fill="#b1b1b1" d="m0 0c-0.356 1.373-0.7573 2.734-1.08 4.115 0.2585 0.378 0.8344 1.332-0.119 1.073-0.633-0.389-1.771-0.065-2.028-0.848 0.3504-0.4241 1.443-0.1173 1.454-1.008 0.3229-1.534 0.8773-3.024 1.13-4.575 0.08585-0.9272-0.3861-1.932-1.29-2.275-1.132-0.5955-2.798-0.6262-3.604 0.5143-0.6532 0.9765-0.7327 2.189-1.094 3.282-0.2091 0.7698-0.4174 1.54-0.6031 2.316 0.199 0.3385 1.071 1.063 0.1426 1.027-0.701-0.164-1.364-0.46-2.081-0.532-0.868-0.225-0.224-0.878 0.378-0.769 0.703-0.434 0.506-1.542 0.855-2.256 0.332-1.121 0.513-2.309 1.056-3.353 0.5444-0.9982 1.646-1.65 2.79-1.573 1.19 0.02338 2.439 0.3501 3.366 1.122 0.9051 0.7967 1.141 2.102 0.8541 3.235-0.03492 0.1698-0.07816 0.3382-0.127 0.505z"/>
</g>
<g transform="matrix(1.25,0,0,-1.25,289.5,48.52)">
<path fill="#b1b1b1" d="m0 0c-0.3173-0.09393-0.4321-0.5203-0.7339-0.6807-0.8171-0.6013-1.866-0.7603-2.856-0.7883-0.419-0.076-0.66 0.226-0.574 0.6267-0.069 0.8731-0.098 1.749-0.158 2.623 0.05126 0.1241 0.2965 0.04056 0.4278 0.07933 0.5479 0.02065 1.097 0.08385 1.644 0.0741 0.4868-0.04585 0.367-0.644 0.6154-0.9218 0.3754-0.3256 0.6622 0.2288 0.5114 0.5604-0.08565 0.6681-0.05456 1.345-0.1192 2.013-0.125 0.545-0.744 0.165-0.655-0.263-0.122-0.446-0.62-0.511-1.011-0.518-0.488-0.023-0.974-0.068-1.462-0.072-0.05769 0.9797-0.1225 1.96-0.1581 2.941 0.106 0.3816 0.738 0.1383 1.059 0.2559 0.6071 0.02223 1.263 0.1449 1.832-0.1252 0.2588-0.2678 0.01578-1.011 0.5745-0.9533 0.4031 0.2151 0.2698 0.7722 0.3058 1.153 0.03959 0.3981-0.005469 1.096-0.5879 0.9012-0.925-0.085-1.849-0.167-2.778-0.171-0.833-0.037-1.668-0.057-2.498-0.132-0.619-0.142-0.149-0.791 0.304-0.675 0.493-0.084 0.472-0.669 0.503-1.058 0.108-1.959 0.227-3.918 0.327-5.878 0.114-0.487-0.282-0.756-0.681-0.899-0.3974-0.3479 0.1774-0.6727 0.5144-0.5197 1.075 0.1132 2.154 0.186 3.236 0.1913 0.5505 0.04844 1.137-0.04059 1.656 0.187 0.4303 0.2515 0.7043 0.706 0.9195 1.141 0.0986 0.2697 0.2737 0.829-0.158 0.9074z"/>
</g>
<g transform="matrix(1.25,0,0,-1.25,317.4,46.68)">
<path fill="#b1b1b1" d="m0 0c-0.7224 0.1249-1.061 0.9389-1.784 1.111-1.144 0.6008-2.802 0.6251-3.617-0.5257-0.6979-0.8907-0.6465-2.247 0.1494-3.062 0.7335-0.9197 1.903-1.43 2.497-2.464 0.361-1.021-0.7081-2.027-1.713-1.904-1.296 0.0273-2.558 1.123-2.555 2.46 0.4236 0.7723-0.6356 1.42-0.6954 0.3327-0.1797-0.7813-0.57-1.727 0.2879-2.263 1.233-1.01 3.089-1.666 4.592-0.8656 1.308 0.6986 1.729 2.611 0.7508 3.754-0.7309 1.03-2.05 1.539-2.618 2.69-0.2579 0.993 0.8445 1.807 1.761 1.504 1.103-0.1785 2.188-1.249 1.944-2.422-0.0005842-0.9853 0.9122-0.4991 0.8414 0.2109 0.08568 0.408 0.549 1.113 0.1586 1.444z"/>
</g>
<g transform="matrix(1.25,0,0,-1.25,326.6,60.1)">
<path fill="#b1b1b1" d="m0 0c0.8111 1.148 1.619 2.298 2.434 3.444 1.04-0.099 1.345 0.802 0.292 1.103-0.341 0.573-1.933 1.28-1.29 0.069 0.756-0.88-0.5584-1.518-0.8676-2.29-0.7465-1.009-1.364-2.163-2.349-2.961-1.336-0.895-3.077 0.052-3.816 1.284-0.664 1.001-0.199 2.249 0.479 3.107 0.8818 1.137 1.618 2.382 2.53 3.495 0.7249-0.2756 1.462 0.2864 0.521 0.7156-0.691 0.267-1.41 1.481-2.118 1.021 0.735-0.902 0.108-1.643-0.517-2.386-0.804-1.189-1.795-2.294-2.311-3.647-0.495-1.432 0.34-2.886 1.481-3.725 1.109-0.943 2.8-1.542 4.124-0.657 0.5899 0.341 1.038 0.8645 1.408 1.427z"/>
</g>
<g transform="matrix(1.25,0,0,-1.25,328.5,66.07)">
<path fill="#b1b1b1" d="m0 0 3.782 3.333c-0.343-2.804-0.699-5.606-1.03-8.411 0.897-0.831 1.669 1.025 2.484 1.378 1.308 1.152 2.604 2.318 3.937 3.441 0.772-0.3963 1.527 0.3365 0.59 0.7875-0.329 0.4895-1.633 2.192-1.491 0.7605 0.565-1.122-0.679-1.686-1.344-2.33-0.888-0.778-1.768-1.564-2.657-2.341 0.353 2.963 0.687 5.928 1.052 8.889-0.273 1.095-1.932 1.609-1.117 0.049-0.163-1.267-1.487-1.852-2.288-2.696-0.843-0.748-1.679-1.506-2.556-2.215-0.71 0.1561-2.182 0.1874-1.009-0.7292 0.351-0.3893 1.524-2.176 1.618-0.9688-0.1389 0.3217-0.4672 0.8614 0.029 1.053z"/>
</g>
<g transform="matrix(1.25,0,0,-1.25,338.2,79.35)">
<path fill="#b1b1b1" d="m0 0c1.967 1.077 3.928 2.165 5.899 3.236 0.259-0.884 1.635-1.897 0.819-2.748-0.484-1.131 1.399-0.1879 1.51 0.4184-0.123 0.7036-0.682 1.265-0.978 1.914-0.87 1.534-1.691 3.096-2.511 4.657-0.61 0.323-2.111-0.266-1.889-0.919 0.723-0.031 1.551 0.106 1.701-0.862 0.322-0.668 1.166-1.482-0.042-1.711-1.787-0.972-3.558-2.001-5.368-2.913-0.438 0.198-1.62 0.843-1.13-0.1721 0.612-0.6444 0.707-2.002 1.51-2.23 0.655 0.3544-0.315 1.058 0.479 1.33z"/>
</g>
<g transform="matrix(1.25,0,0,-1.25,354.5,107.8)">
<path fill="#b1b1b1" d="m0 0c-0.2882 0.6353 0.3127 1.897-0.4822 2.085-0.3408-0.484-0.6668-1.164-1.366-0.609-1.843 0.63-3.667 1.316-5.508 1.951 2 0.953 3.999 1.905 6 2.855 0.4873-0.332 1.312-0.728 1.054 0.276-0.2591 0.615 0.4124 2.066-0.6015 1.922-0.2575-0.959-1.276-1.161-2.056-1.566-2.067-0.959-4.112-2.001-6.198-2.902-0.673-1.048 1.077-0.97 1.672-1.366 2.188-0.815 4.378-1.624 6.559-2.458 0.2241-0.295 0.8096-0.9454 0.9273-0.188z"/>
</g>
<g transform="matrix(1.25,0,0,-1.25,351.8,117.8)">
<path fill="#b1b1b1" d="m0 0c-1.113 0.3344-1.031-0.9884 0.03584-0.8918 1.352-0.3712 1.086 1.244 1.253 2.07 0.195 1.225 0.484 2.438 0.582 3.677-0.707 0.566-1.086-1.282-1.962-0.524-2.022 0.348-4.062 0.59-6.078 0.978-0.174 0.72-1.091 1.317-1.013 0.146-0.084-1.491-0.56-2.93-0.642-4.417-0.00776-0.7529 1.387-2.101 1.759-1.227-0.4239 0.7453-0.8425 1.512-0.7198 2.411-0.1604 0.998 0.3823 2.146 1.561 1.605 0.7389-0.3135 2.362 0.08765 1.846-1.247 0-0.944-0.465-1.496-1.346-1.715 0.448-0.6753 1.832-0.6964 2.672-0.6377 0.331 0.522-1.122 1.007-0.539 1.791-0.106 0.896 0.459 1.689 1.373 1.132 0.8847 0.016 2.33-0.147 1.786-1.387-0.1423-0.587-0.1377-1.304-0.568-1.762z"/>
</g>
<g transform="matrix(1.25,0,0,-1.25,345.7,126.1)">
<path fill="#b1b1b1" d="m0 0c0.06075 0.7965 0.3956 2.181 1.438 1.404 0.731-0.4514 2.735-0.384 2.001-1.648-0.354-0.7461-1.103-1.418-1.984-1.219-0.726 0.099-1.484 0.6681-1.455 1.463zm4.137-0.518c0.193 1.046 1.008 2.137 0.868 3.123-0.686-0.053-1.088-1.041-1.921-0.405-1.883 0.738-3.817 1.348-5.7 2.092-0.062 0.786-0.825 1.605-1.021 0.361-0.116-0.817-0.716-1.483-0.757-2.293 0.516-0.818 0.845 1.065 1.64 0.554 0.793-0.398 1.949-0.43 2.489-1.12-0.0554-0.976-1.016-1.242-1.832-1.327-1.218-0.3613-2.8-0.3041-3.58-1.478-0.7196-0.8559 0.04554-1.762 0.6861-0.6615 0.6352 0.4015 1.46 0.4058 2.174 0.644 0.6858 0.07929 1.668 0.5698 2.165 0.3893 0.1518-1.525 1.99-2.732 3.391-1.913 0.743 0.428 1.151 1.244 1.398 2.034z"/>
</g>
<g transform="matrix(1.25,0,0,-1.25,338.4,138.6)">
<path fill="#b1b1b1" d="m0 0c0.4522 0.5594 0.9417 1.873 1.411 1.955 0.534-0.836 1.068-1.673 1.602-2.509-1.004 0.1847-2.009 0.3693-3.013 0.554zm-0.064 5.821c-0.2024 0.37-0.001509 1.815-0.7002 0.9587-0.1826-0.7049-1.49-1.496-0.8932-2.105 0.5199 0.08873 1.025 0.6461 1.434-0.09223 0.3302-0.757 1.438-1.544 0.5911-2.362-0.6213-0.626-0.7582-1.855-1.741-2.027-0.663 0.4201-2.018-0.0375-2.211 0.922 0.093 1.14-0.953 0.158-1.045-0.4386-0.226-0.4931-1.621-1.769-0.416-1.696 0.7085 0.9719 1.926 0.2101 2.867 0.142 2.166-0.402 4.335-0.782 6.492-1.223 0.854 0.65-0.549 1.473-0.741 2.182-1.216 1.911-2.423 3.827-3.637 5.739z"/>
</g>
<g transform="matrix(1.25,0,0,-1.25,52.91,247.8)">
<path fill="#b1b1b1" d="m0 0c-1.36-0.002-3.746-0.224-5.622-0.224-1.76 0-3.372 0.222-5.063 0.224 0.059-0.008 0.057-0.008 0.057-0.008-0.465 0.006-0.918-0.264-0.921-0.799 0.143-1.288 1.801-1.059 3.248-1.693 1.474-0.604 2.911-1.744 2.931-5.319v-23.26c0-0.104-0.004-0.19-0.01-0.258-0.096 0.093-0.231 0.238-0.386 0.421l-26.55 29.55c-0.322 0.334-0.779 1.317-1.632 1.364-0.881-0.004-1.769-0.226-2.561-0.224-0.842-0.002-1.67 0.217-2.595 0.222-0.007 0.001-0.015 0.002-0.023 0.002-0.015 0.001-0.032 0-0.051-0.005-0.371-0.042-0.957-0.206-1.032-0.802 0.005-0.705 0.622-0.957 1.237-1.11 1.911-0.552 5.439-0.69 5.496-9.296v-20.54c-0.012-3.853-1.177-5.04-2.309-5.611-0.577-0.286-1.169-0.402-1.656-0.577-0.478-0.155-0.943-0.482-0.931-1.102 0-0.15 0.008-0.372 0.168-0.569 0.163-0.197 0.435-0.295 0.806-0.292 0.418 0.002 3.292 0.223 5.231 0.223 2.713 0 4.256-0.223 5.62-0.223 0.75 0 0.861 0.696 0.861 0.973-0.142 1.126-1.505 0.852-2.633 1.209-1.165 0.338-2.238 0.939-2.263 3.354v22.76c-0.002 0.543 0.045 0.848 0.094 0.968 0.024 0.061 0.036 0.061 0.034 0.065l0.011-0.002c0.107 0.071 0.881-0.823 0.991-0.986l23.92-26.9c1.182-1.288 1.772-1.63 2.302-1.64 0.419 0.006 0.604 0.394 0.663 0.797 0.075 0.432 0.087 1.034 0.087 1.845v32.22c0.017 1.966 0.744 2.59 1.511 3.014 0.731 0.421 1.719 0.506 1.774 1.494-0.002 0.467-0.396 0.75-0.807 0.752"/>
</g>
<g transform="matrix(1.25,0,0,-1.25,83.72,295.4)">
<path fill="#b1b1b1" d="m0 0c-10.85 0.02-17.5 9.809-17.5 20.01 0.012 8.701 5.252 16.28 14.44 16.28 10.68-0.03 17.44-9.71 17.45-19.73-0.02-10.19-6.409-16.55-14.39-16.56m-1.391 38.62c-11.53-0.02-20.65-8.517-20.67-20.23 0-5.923 1.868-11.07 5.276-14.73 3.409-3.665 8.354-5.834 14.45-5.834 6.257 0 11.58 2.039 15.34 5.671s5.941 8.854 5.941 15.17c-0.02 11.65-8.866 19.93-20.34 19.95"/>
</g>
<g transform="matrix(1.25,0,0,-1.25,127.4,271.3)">
<path fill="#b1b1b1" d="m0 0c-0.908 0-1.911-0.033-2.829-0.033-0.872 0-1.673 0.031-2.23 0.141-0.583 0.116-0.78 0.301-0.758 0.42v14.14c0.055 1.835 0.673 1.746 2.384 1.811 0.171 0 0.35-0.002 0.539-0.002 5.404-0.03 10.37-2.2 10.38-8.828-0.008-6.729-5.131-7.628-7.483-7.654m21.17-20.17c0.026 0.443-0.329 0.722-0.671 0.787-1.006 0.294-3.101 0.207-6.103 4.749l-9.127 13.82c3.843 1.656 6.881 5.383 6.885 9.744-0.01 9.121-8.689 9.9-12.09 9.91-0.711 0-1.217-0.033-1.347-0.033-2.907-0.002-6.077-0.224-9.295-0.224-2.827 0-2.485 0.218-3.56 0.224h-0.003c-0.735-0.008-1.329-0.348-1.361-0.918-0.012-0.604 0.449-0.937 0.925-1.061 1.477-0.466 3.823-0.058 3.861-3.893v-28.32c-0.014-2.029-0.923-2.76-1.892-3.262-0.939-0.513-2.083-0.574-2.171-1.58 0-0.438 0.319-0.861 0.807-0.861 2.132 0 4.246 0.221 6.344 0.221 4.621 0 5.853-0.221 6.399-0.221 0.116 0 0.248-0.009 0.383-0.009 0.168 0.002 0.349 0.009 0.53 0.116 0.185 0.108 0.291 0.34 0.285 0.587-0.11 1.289-1.71 1.208-3.077 1.633-1.419 0.418-2.693 1.051-2.712 3.319v11.74c0 0.179-0.026 0.358-0.024 0.526 0.049 0.427-0.01 0.728 1.221 0.783 0.604 0 1.141 0.002 1.62 0.002 4.521-0.065 3.673 0.012 5.571-2.838l6.177-9.737c2.111-3.174 4.357-6.125 8.558-6.125 0.254 0 1.165-0.002 2.023 0.083 0.428 0.043 0.845 0.106 1.174 0.209 0.309 0.106 0.638 0.23 0.671 0.624"/>
</g>
<g transform="matrix(1.25,0,0,-1.25,151.1,258.7)">
<path fill="#b1b1b1" d="m0 0c0.968 0.026 1.037 0.984 1.184 1.458 1.074 3.093 0.923 3.656 4.325 3.717h9.069c0.06 0.004 0.157-0.082 0.239-0.371 0.073-0.273 0.098-0.658 0.098-1.011 0-0.408-0.029-0.762-0.029-0.927v-28.94c-0.01-1.537-0.964-2.128-2.042-2.579-1.039-0.467-2.252-0.542-2.354-1.54 0.002-0.298 0.036-0.547 0.212-0.74 0.185-0.192 0.434-0.233 0.705-0.233 0.385 0.002 1.382 0.223 7.625 0.223 1.59 0 3.144-0.223 4.506-0.223h0.024c0.281 0 0.515 0.138 0.616 0.324 0.108 0.184 0.11 0.365 0.112 0.487v0.106c0.008 0.567-0.426 0.885-0.874 1.021-1.396 0.486-3.606 0.221-3.634 3.543v28.38c0 0.54-0.011 0.972-0.011 1.316 0.106 1.317-0.128 1.058 1.138 1.164 0.236 0 0.517-0.004 0.85-0.004h7.956c2.788-0.035 3.251-0.95 3.477-1.914 0.104-0.497 0.096-1.019 0.202-1.463 0.08-0.447 0.439-0.879 1.052-0.852 0.318-0.007 0.589 0.124 0.727 0.342 0.139 0.212 0.163 0.451 0.165 0.677 0 0.167-0.016 0.33-0.03 0.479l-0.28 4.442c-0.03 0.648-0.1 1.113-0.42 1.447-0.32 0.326-0.79 0.399-1.44 0.401-1.13 0-6.24-0.222-16.31-0.222-7.16 0-11.44 0.221-15.78 0.222-0.011-0.004-0.019-0.004-0.028-0.004v0.001c-1.344-0.097-1.17-1.805-1.25-2.401l-0.611-5.39c0.01-0.412 0.257-0.913 0.807-0.946"/>
</g>
<g transform="matrix(1.25,0,0,-1.25,251.4,296.5)">
<path fill="#b1b1b1" d="m0 0c-0.135 1.062-1.504 0.998-2.701 1.461-1.237 0.441-2.351 1.086-2.363 2.99v29.5c0.017 1.834 0.83 2.414 1.705 2.781 0.443 0.174 0.896 0.269 1.267 0.387 0.346 0.109 0.739 0.277 0.756 0.728 0.004 0.191-0.039 0.516-0.322 0.761-0.282 0.239-0.734 0.378-1.486 0.38-1.153-0.002-1.969-0.223-4.006-0.223-1.036 0-3.93 0.223-5.781 0.223-0.009 0.001-0.018 0.001-0.026 0-0.432-0.003-0.721-0.067-0.929-0.239-0.214-0.181-0.25-0.437-0.248-0.623 0.113-0.984 1.279-0.937 2.246-1.359 1.004-0.408 1.91-0.998 1.928-2.816l-0.002-11.41c0.002-0.078 0.01-0.227 0.01-0.418 0-0.231-0.016-0.516-0.069-0.715-0.064-0.217-0.119-0.234-0.136-0.232l-20.37 0.002c-0.412-0.002-0.515 0.066-0.525 0.099-0.041 0.035-0.068 0.26-0.061 0.651v12.02c0.018 2.002 0.899 2.637 1.846 3.031 0.916 0.424 2.016 0.271 2.16 1.199 0.006 0.15-0.049 0.398-0.272 0.562-0.218 0.161-0.533 0.243-1.036 0.245-1.746-0.002-3.471-0.223-5.174-0.223-2.04 0-4.042 0.223-6.116 0.223-0.004 0.001-0.007 0.001-0.01 0-0.447 0-1.133-0.151-1.135-0.862 0.018-0.517 0.481-0.707 0.928-0.836 1.437-0.427 3.874-0.509 3.913-3.341v-28.49c-0.021-2.693-1.003-3.45-2.013-3.872-0.514-0.205-1.043-0.297-1.482-0.447-0.424-0.129-0.854-0.422-0.846-0.967 0.002-0.301 0.039-0.559 0.184-0.771 0.146-0.214 0.408-0.319 0.679-0.315 0.305 0.006 0.817 0.221 4.785 0.223 2.941 0 6.99-0.223 7.735-0.223 0.526 0.01 1.086 0.137 1.141 0.695-0.1 1.197-1.57 1.209-2.824 1.611-1.31 0.397-2.453 0.932-2.463 2.674v13.86c0.065 0.674-0.103 0.645 0.418 0.697h20.53c0.304-0.055 0.171 0.049 0.232-0.267 0-0.201-0.035-0.504-0.035-0.875v-13.36c-0.016-1.648-0.856-2.202-1.795-2.616-0.902-0.42-2.015-0.467-2.1-1.448-0.009-0.376 0.147-0.677 0.391-0.822 0.237-0.146 0.5-0.162 0.732-0.164 0.176 0 0.339 0.012 0.461 0.012 1.09 0.002 2.623 0.223 6.176 0.223 1.986 0 3.706-0.221 5.232-0.223 0.651 0.047 0.86 0.611 0.886 0.908"/>
</g>
<g transform="matrix(1.25,0,0,-1.25,288.5,277.5)">
<path fill="#b1b1b1" d="m0 0c0.12 0.229 0.155 0.229 0.211 0.229 0.012 0 0.025 0 0.041 0.002 0.031-0.035 0.11-0.169 0.174-0.342l6.123-14.64c0.765-1.75 1.025-2.243 1.733-2.268 1.081 0.043 1.5 1.23 1.845 1.988l14.3 33.72c0.91 2.173 1.677 2.833 2.197 3.129 0.456 0.258 1.057 0.301 1.051 1.087 0.004 0.333-0.08 0.601-0.302 0.745-0.216 0.133-0.425 0.114-0.616 0.118-1.307-0.002-2.971-0.225-4.619-0.223-1.309-0.002-2.586 0.221-3.895 0.221v-0.008h-0.002v0.01c-0.593-0.012-0.86-0.578-0.86-1.085 0.097-0.882 1.12-0.95 1.971-1.313 0.895-0.349 1.644-0.766 1.646-1.804-0.002-0.64-0.103-1.15-0.367-1.732l-10.15-24.95c-0.25-0.61-0.46-1.122-0.642-1.462-0.179-0.358-0.344-0.442-0.349-0.44-0.084-0.035-0.46 0.287-0.996 1.574l-4.673 11.52c-0.326 0.801-0.712 2.103-0.706 2.572 0.002 0.477 0.046 0.921 0.483 2.023l3.948 9.119c1.247 2.902 2.177 3.779 2.761 4.136 0.298 0.184 0.519 0.235 0.743 0.382 0.244 0.155 0.37 0.458 0.358 0.869-0.044 0.384-0.33 0.555-0.64 0.584-0.999 0-1.633-0.22-4.065-0.22-1.196 0-2.364 0.22-3.619 0.22h-0.031c-0.317-0.02-1.238 0.07-1.331-0.75 0.063-0.88 1.007-1.05 1.761-1.42 0.797-0.37 1.461-0.78 1.467-1.8v-0.06c0.005-0.48-0.266-1.38-0.483-1.91l-2.726-6.51c-0.165-0.39-0.318-0.73-0.442-0.97-0.03-0.05-0.058-0.11-0.085-0.15-0.103 0.2-0.268 0.59-0.515 1.18l-2.89 7.341c-0.278 0.675-0.369 0.939-0.373 1.576 0.008 0.797 0.454 1.113 1.007 1.414 0.515 0.299 1.218 0.436 1.275 1.147-0.018 0.357-0.066 0.851-0.584 0.919-1.257-0.002-2.74-0.223-5.398-0.223-0.755-0.002-3.708 0.22-5.612 0.223h-0.008-0.008c-0.256-0.004-0.498-0.006-0.725-0.132-0.237-0.13-0.361-0.413-0.353-0.731-0.018-0.569 0.36-0.941 0.799-1.075 1.319-0.436 3.55 0.013 4.619-2.582l5.57-13.43c0.279-0.71 0.55-1.408 0.539-1.631 0.006-0.247-0.211-1.096-0.65-2.187l-4.117-9.791c-0.202-0.611-0.506-0.862-0.549-0.848-0.002-0.002-0.014-0.002-0.078 0.066-0.202 0.196-0.475 0.774-0.632 1.216l-10.58 26.16c-0.212 0.473-0.318 1.014-0.316 1.296 0.005 0.826 0.49 1.204 1.07 1.544 0.548 0.347 1.256 0.487 1.324 1.184-0.002 0.403-0.165 0.917-0.695 0.919-1.364-0.002-2.699-0.225-4.008-0.223-1.589-0.002-3.256 0.22-4.889 0.223h-0.01c-0.589-0.002-1.503-0.239-1.528-1.141 0.064-0.838 0.89-0.886 1.651-1.251 0.804-0.361 1.726-0.937 2.374-2.516l12.19-30.27c1.601-3.81 1.812-5.469 3.013-5.61 0.017-0.001 0.034-0.001 0.051-0.001 0.691 0 1.217 0.45 1.577 1.56l6.229 15.46z"/>
</g>
<g transform="matrix(1.25,0,0,-1.25,328.7,250.3)">
<path fill="#b1b1b1" d="m0 0c2.815-0.413 2.799-2.83 2.815-5.379v-25.38c0-2.64-0.133-4.043-1.413-4.615-0.886-0.443-1.452-0.63-1.847-0.805-0.388-0.156-0.688-0.408-0.743-0.827-0.001-0.673 0.582-0.848 1.081-0.848 2.239 0 4.576 0.166 6.795 0.222 0.601 0.017 1.204 0.023 1.807 0.023 3.611 0 7.237-0.245 10.88-0.247 0.242 0.002 0.477 0 0.7 0 0.081 0 0.16-0.001 0.24-0.001 1.859 0 3.137 0.195 4.702 1.978 1.342 1.46 2.837 3.437 2.847 5.565-0.016 0.128-0.005 0.843-0.696 0.918-0.467-0.081-0.593-0.458-1.102-0.98-1.414-1.57-4.781-4.743-14.37-4.753-3.913 0.089-3.913 0.727-3.992 2.942 0 0.425 0.011 0.899 0.011 1.428l0.002 10.24c-0.002 0.195-0.011 0.385-0.011 0.559 0.048 0.657 0.009 0.939 0.763 0.972h8.235c2.239-0.025 2.777-1.083 3.119-2.263 0.16-0.59 0.228-1.197 0.375-1.692 0.128-0.477 0.431-0.949 1.015-0.943 0.238-0.002 0.479 0.075 0.639 0.259 0.161 0.185 0.221 0.431 0.221 0.715 0 1.514-0.11 2.963-0.11 4.396 0 1.77 0.11 3.663 0.112 5.621-0.012 0.471-0.134 1.248-0.862 1.308-1.034-0.139-0.839-1.359-1.369-2.37-0.495-1.038-1.417-2.066-4.252-2.083h-6.011c-1.011-0.008-1.539 0.025-1.681 0.139-0.131 0.06-0.194 0.309-0.185 1.038-0.002 0.139 0 0.295 0 0.466h0.002v10.35c-0.002 0.151-0.004 0.292-0.004 0.426-0.011 1.47 0.056 2.176 0.408 2.448 0.333 0.312 1.237 0.395 3.045 0.385 0.45 0 0.96-0.005 1.531-0.005 0.585 0 1.408 0.025 2.329 0.025 2.605 0.021 6.038-0.24 6.933-1.485 0.377-0.526 0.401-1.48 0.451-2.321 0.044-0.791 0.164-1.701 1.084-1.727 0.682 0.111 1.334 0.716 1.364 6.872-0.006 0.651-0.071 1.417-0.808 1.473-1.736 0-6.858-0.222-7.959-0.222-2.318 0-5.224 0.222-15.72 0.222 0.005 0.009-0.001 0.01-0.007 0.01h-0.017c-0.803 0.001-1.303-0.048-1.651-0.181-0.354-0.118-0.545-0.448-0.524-0.736 0.109-1.019 1.481-0.99 1.858-1.131"/>
</g>
<g transform="matrix(1.25,0,0,-1.25,402.8,283.2)">
<path fill="#b1b1b1" d="m0 0c0.007 7.843-5.832 10.25-11.47 11.93-5.705 1.705-11.16 2.797-11.12 7.774 0.011 4.927 4.482 6.969 8.823 6.984 4.814-0.008 8.751-2.381 10.39-7.065 0.202-0.485 0.473-1.745 1.404-1.839 0.284-0.002 0.531 0.094 0.682 0.277 0.15 0.181 0.191 0.403 0.191 0.615 0 0.073-0.003 0.148-0.011 0.223l-0.837 7.566c-0.025 0.676-0.483 1.034-0.912 1.001-0.777-0.071-0.913-0.695-1.172-0.612-0.266-0.029-0.932 0.487-2.394 1.003-1.43 0.505-3.625 1.011-6.955 1.002-6.471-0.01-12.59-3.473-12.6-10.71-0.002-7.437 5.841-9.65 11.48-11.29 5.699-1.664 11.15-2.845 11.12-7.967-0.009-5.666-5.001-8.532-10.21-8.544-7.536-0.007-10.8 5.682-11.45 8.161-0.137 0.57-0.202 1.027-0.353 1.391-0.134 0.368-0.481 0.651-0.947 0.632-0.605-0.002-0.938-0.563-0.938-1.277 0-0.224 0.027-0.472 0.083-0.746h-0.002l1.392-7.177c0.239-0.762 1.568-1.411 3.404-2.095 1.831-0.649 4.145-1.169 6.246-1.171 6.36 0 10.42 1.77 12.87 4.162 2.45 2.397 3.29 5.387 3.29 7.781"/>
</g>
<g transform="matrix(1.25,0,0,-1.25,450.6,250.1)">
<path fill="#b1b1b1" d="m0 0c-0.031 0.646-0.104 1.112-0.418 1.446-0.326 0.326-0.792 0.401-1.446 0.404-1.128-0.003-6.235-0.224-16.31-0.224-7.159 0-11.44 0.22-15.78 0.221-0.008 0.001-0.018 0.002-0.028 0.002v0.001c-0.001-0.001-0.002-0.001-0.002-0.001-0.013 0-0.026-0.001-0.041-0.003-1.298-0.129-1.127-1.808-1.207-2.397l-0.61-5.391c0.009-0.412 0.256-0.913 0.805-0.945 0.969 0.026 1.036 0.982 1.187 1.457 1.072 3.094 0.923 3.656 4.323 3.717h9.073c0.053 0.004 0.152-0.081 0.235-0.37 0.073-0.273 0.099-0.658 0.097-1.011 0.002-0.407-0.028-0.763-0.028-0.928v-28.94c-0.008-1.536-0.962-2.127-2.041-2.579-1.039-0.465-2.252-0.541-2.355-1.54 0.002-0.296 0.036-0.545 0.213-0.739 0.184-0.192 0.434-0.232 0.704-0.232 0.387 0 1.382 0.221 7.625 0.221 1.592 0 3.145-0.221 4.507-0.223h0.018c0.283 0 0.519 0.14 0.621 0.324 0.107 0.186 0.111 0.368 0.111 0.489v0.106c0.011 0.567-0.426 0.884-0.873 1.02-1.396 0.487-3.605 0.221-3.634 3.544l0.002 28.38c-0.002 0.541-0.013 0.974-0.013 1.316 0.107 1.316-0.127 1.06 1.137 1.166 0.236 0 0.519-0.006 0.851-0.006h7.959c2.787-0.034 3.249-0.949 3.476-1.914 0.103-0.498 0.094-1.018 0.201-1.463 0.079-0.447 0.439-0.877 1.053-0.852 0.315-0.006 0.587 0.125 0.725 0.342 0.138 0.214 0.163 0.452 0.165 0.678 0 0.165-0.015 0.33-0.03 0.48l-0.269 4.443z"/>
</g>
<g transform="matrix(1.25,0,0,-1.25,490.6,287.1)">
<path fill="#b1b1b1" d="m0 0c-0.468-0.08-0.593-0.457-1.103-0.979-1.414-1.571-4.781-4.743-14.37-4.753-3.912 0.087-3.912 0.725-3.991 2.942-0.002 0.424 0.011 0.898 0.011 1.427v10.24c0 0.195-0.011 0.386-0.011 0.561 0.05 0.656 0.011 0.935 0.764 0.97h8.237c2.235-0.025 2.774-1.084 3.116-2.263 0.158-0.591 0.23-1.198 0.376-1.692 0.128-0.477 0.432-0.949 1.015-0.942 0.237-0.003 0.478 0.073 0.641 0.258 0.159 0.184 0.219 0.43 0.219 0.715 0 1.515-0.111 2.962-0.109 4.396-0.002 1.771 0.109 3.663 0.111 5.62-0.012 0.472-0.136 1.25-0.862 1.309-1.036-0.14-0.842-1.36-1.372-2.37-0.495-1.04-1.418-2.07-4.255-2.08l-6.01-0.002c-1.013-0.008-1.542 0.026-1.685 0.139-0.127 0.061-0.19 0.308-0.181 1.034-0.003 0.14 0 0.298 0 0.47v10.35c0 0.152-0.003 0.296-0.003 0.43-0.01 1.468 0.057 2.175 0.405 2.443 0.336 0.315 1.237 0.397 3.048 0.386 0.451 0 0.961-0.004 1.531-0.004 0.585 0 1.408 0.025 2.33 0.025 2.604 0.021 6.036-0.241 6.933-1.485 0.376-0.526 0.4-1.481 0.449-2.32 0.044-0.791 0.163-1.701 1.084-1.728 0.684 0.111 1.334 0.717 1.363 6.871-0.003 0.651-0.068 1.418-0.807 1.475-1.736 0-6.859-0.224-7.956-0.224-2.323 0-5.229 0.224-15.74 0.224h-0.01-0.007c-0.818-0.002-1.317-0.05-1.665-0.185-0.355-0.117-0.546-0.446-0.524-0.734 0.111-1.021 1.48-0.99 1.858-1.132 2.814-0.412 2.8-2.83 2.814-5.379v-25.38c0.002-2.639-0.133-4.042-1.413-4.615-0.885-0.442-1.452-0.629-1.846-0.805-0.388-0.155-0.688-0.407-0.743-0.827-0.002-0.673 0.581-0.847 1.08-0.847 2.239 0 4.578 0.165 6.797 0.222 0.6 0.017 1.202 0.023 1.806 0.023 3.612 0 7.238-0.245 10.88-0.245h0.698c0.082-0.001 0.162-0.001 0.241-0.001 1.859 0 3.138 0.194 4.702 1.977 1.341 1.46 2.836 3.436 2.845 5.563 0.002 0.134 0.014 0.85-0.676 0.925"/>
</g>
<g transform="matrix(1.25,0,0,-1.25,513.3,271.3)">
<path fill="#b1b1b1" d="m0 0c-0.908 0-1.909-0.032-2.828-0.032-0.874 0-1.675 0.032-2.23 0.141-0.583 0.115-0.781 0.302-0.757 0.422v14.13c0.054 1.837 0.669 1.747 2.384 1.812 0.169 0 0.348-0.002 0.538-0.002 5.406-0.02 10.37-2.19 10.38-8.816-0.008-6.726-5.132-7.624-7.485-7.653m20.5-19.38c-1.005 0.295-3.1 0.207-6.103 4.748l-9.13 13.82c3.844 1.656 6.882 5.384 6.886 9.743-0.011 9.122-8.69 9.902-12.09 9.913-0.712 0-1.217-0.034-1.345-0.034-2.909-0.002-6.078-0.224-9.294-0.224-2.821 0-2.491 0.216-3.555 0.222l-0.009 0.002c-0.737-0.006-1.331-0.348-1.361-0.919-0.015-0.605 0.449-0.935 0.924-1.06 1.476-0.468 3.822-0.059 3.86-3.892v-28.33c-0.013-2.028-0.921-2.759-1.892-3.26-0.938-0.512-2.081-0.574-2.171-1.581 0.003-0.44 0.32-0.862 0.809-0.862 2.131 0 4.246 0.224 6.343 0.222 4.621 0 5.853-0.219 6.4-0.222 0.116 0 0.246-0.008 0.379-0.008 0.169 0.002 0.35 0.008 0.53 0.116 0.187 0.107 0.294 0.341 0.286 0.588-0.11 1.29-1.707 1.207-3.076 1.631-1.419 0.419-2.692 1.051-2.71 3.321v11.74c0 0.181-0.028 0.36-0.028 0.527 0.053 0.427-0.011 0.727 1.224 0.781 0.602 0 1.139 0.002 1.619 0.002 4.52-0.065 3.673 0.013 5.573-2.836l6.175-9.738c2.113-3.173 4.357-6.126 8.56-6.126 0.253 0 1.163 0 2.02 0.085 0.43 0.044 0.846 0.105 1.176 0.208 0.31 0.108 0.637 0.23 0.671 0.624 0.027 0.443-0.329 0.723-0.671 0.788"/>
</g>
<g transform="matrix(1.25,0,0,-1.25,590.6,247.8)">
<path fill="#b1b1b1" d="m0 0c-1.359 0-3.746-0.223-5.622-0.223-1.76 0-3.372 0.223-5.064 0.223 0.04-0.002 0.039-0.002 0.039-0.002-0.446 0.002-0.901-0.269-0.901-0.803 0.142-1.287 1.8-1.059 3.246-1.694 1.475-0.604 2.912-1.743 2.93-5.32v-23.26c0.001-0.103-0.003-0.189-0.009-0.256-0.096 0.092-0.23 0.237-0.386 0.419l-26.55 29.56c-0.32 0.333-0.777 1.317-1.632 1.362-0.879-0.002-1.767-0.225-2.559-0.223-0.841-0.002-1.668 0.216-2.591 0.223-0.008 0-0.017 0.001-0.029 0.002-0.014 0-0.034-0.002-0.058-0.008-0.369-0.04-0.947-0.208-1.021-0.799 0.002-0.705 0.618-0.957 1.236-1.11 1.908-0.554 5.437-0.692 5.495-9.298v-20.54c-0.014-3.852-1.176-5.04-2.307-5.612-0.578-0.285-1.172-0.402-1.661-0.576-0.474-0.154-0.943-0.48-0.93-1.101 0.003-0.152 0.011-0.373 0.17-0.569 0.161-0.198 0.434-0.295 0.805-0.293 0.421 0.003 3.293 0.223 5.232 0.223 2.713 0 4.255-0.223 5.619-0.223 0.749 0 0.861 0.697 0.861 0.974-0.141 1.127-1.505 0.85-2.634 1.207-1.164 0.339-2.237 0.941-2.262 3.355v22.76c-0.002 0.544 0.045 0.847 0.094 0.97 0.025 0.059 0.036 0.061 0.034 0.063l0.013-0.002c0.105 0.072 0.88-0.822 0.99-0.985l23.92-26.92c1.183-1.288 1.772-1.63 2.303-1.641 0.417 0.008 0.604 0.394 0.662 0.798 0.076 0.43 0.087 1.033 0.088 1.845v32.22c0.015 1.965 0.744 2.59 1.51 3.015 0.733 0.419 1.72 0.504 1.775 1.493 0.007 0.468-0.389 0.752-0.798 0.752"/>
</g>
<g transform="matrix(1.25,0,0,-1.25,187.4,320.3)">
<path fill="#b1b1b1" d="m0 0c-0.73-0.002-1.418-0.155-2.111-0.153-1.48 0-2.976 0.153-4.491 0.153-0.305-0.049-0.57-0.217-0.634-0.634-0.012-0.488 0.362-0.781 0.726-0.889 1.138-0.407 2.808-0.108 2.843-2.872v-12.44c-0.037-4.487-1.545-9.012-8.615-9.037-5.096 0.027-8.902 2.678-8.923 8.691v13.78c0.025 1.3 0.526 1.56 1.115 1.778 0.298 0.098 0.615 0.149 0.895 0.256 0.274 0.09 0.572 0.341 0.562 0.729-0.113 0.699-0.854 0.608-1.206 0.64-0.129 0-0.239-0.006-0.272-0.006-1.212 0-2.438-0.153-3.646-0.153-1.012 0-1.971 0.153-2.993 0.153-0.139-0.002-0.354-0.031-0.574-0.104-0.198-0.078-0.485-0.164-0.521-0.53 0.067-0.911 1.032-0.928 1.739-1.138 0.771-0.225 1.356-0.45 1.37-1.433v-12.93c0-2.978 0.478-5.928 2.277-8.15 1.798-2.222 4.897-3.654 9.984-3.652h0.031c5.203 0 7.989 2.077 9.409 4.509 1.426 2.43 1.52 5.177 1.52 6.547 0 0.226-0.002 0.414-0.002 0.553v11.9c0.013 1.722 0.521 2.261 1.018 2.592 0.466 0.334 1.2 0.379 1.247 1.17-0.044 0.466-0.422 0.654-0.745 0.678"/>
</g>
<g transform="matrix(1.25,0,0,-1.25,224.9,320.3)">
<path fill="#b1b1b1" d="m0 0c-0.942-0.002-2.588-0.153-3.875-0.153-1.207-0.002-2.319 0.151-3.492 0.153-0.303-0.002-0.673-0.219-0.673-0.634 0.142-1.003 1.321-0.795 2.288-1.241 0.995-0.412 1.954-1.15 1.972-3.595v-16.04c-0.041 0.046-0.088 0.098-0.137 0.156l-18.31 20.38c-0.216 0.213-0.519 0.92-1.183 0.967-0.62-0.002-1.233-0.155-1.766-0.153-0.571-0.002-1.147 0.151-1.803 0.153-0.281-0.033-0.747-0.114-0.826-0.634 0.004-0.545 0.49-0.74 0.911-0.84 1.321-0.399 3.674-0.425 3.733-6.337v-14.16c-0.014-2.646-0.797-3.416-1.549-3.8-0.389-0.193-0.79-0.272-1.137-0.397-0.333-0.102-0.703-0.364-0.693-0.832 0.002-0.108 0.006-0.28 0.135-0.441 0.133-0.16 0.349-0.232 0.615-0.229 0.299 0 2.273 0.153 3.608 0.153 1.867 0 2.926-0.153 3.876-0.156 0.577 0.003 0.671 0.561 0.671 0.751-0.141 0.893-1.127 0.652-1.873 0.907-0.785 0.237-1.478 0.601-1.502 2.241l-0.002 15.7c0 0.334 0.026 0.533 0.052 0.616 0.011-0.008 0.025-0.019 0.043-0.035 0.207-0.153 0.459-0.501 0.553-0.603l16.49-18.58c0.82-0.891 1.235-1.146 1.646-1.157 0.349 0.006 0.495 0.333 0.534 0.614 0.053 0.308 0.059 0.725 0.059 1.285l0.002 22.22c0.014 1.335 0.488 1.721 1 2.01 0.478 0.284 1.21 0.333 1.263 1.097 0 0.37-0.327 0.601-0.634 0.603"/>
</g>
<g transform="matrix(1.25,0,0,-1.25,239,352.7)">
<path fill="#b1b1b1" d="m0 0c-0.835 0.264-1.513 0.578-1.527 1.745v20.61c0.02 1.354 0.581 1.702 1.218 1.958 0.6 0.268 1.435 0.157 1.544 0.958 0.012 0.168-0.049 0.419-0.264 0.528-0.195 0.098-0.396 0.102-0.715 0.107-1.21 0-2.4-0.154-3.569-0.154-1.402 0-2.784 0.154-4.221 0.154-0.166-0.002-0.342-0.01-0.491-0.162-0.136-0.158-0.14-0.326-0.144-0.51 0.144-0.796 1.014-0.645 1.71-0.942 0.73-0.27 1.365-0.645 1.4-1.94v-19.65c-0.021-1.852-0.665-2.322-1.339-2.612-0.346-0.137-0.708-0.2-1.019-0.307-0.297-0.086-0.644-0.321-0.635-0.741-0.002-0.206 0.029-0.452 0.233-0.624 0.201-0.16 0.457-0.199 0.821-0.201 0.58 0.002 1.35 0.154 3.685 0.154 1.638 0 3.278-0.154 4.183-0.154 0.342 0.002 0.559 0.021 0.752 0.123 0.209 0.109 0.278 0.354 0.266 0.51-0.096 0.907-1.106 0.866-1.888 1.134"/>
</g>
<g transform="matrix(1.25,0,0,-1.25,277.2,320.3)">
<path fill="#b1b1b1" d="m0 0c-0.585-0.002-1.122-0.152-2.955-0.152-0.813-0.002-1.658 0.152-2.531 0.152-0.216-0.002-0.415-0.024-0.59-0.16-0.174-0.138-0.24-0.362-0.236-0.588 0.086-0.764 0.875-0.709 1.418-0.871 0.606-0.169 1.025-0.319 1.038-1.048 0.02-0.138 0.03-0.243 0.03-0.355 0.002-0.703-0.353-1.675-0.55-2.162l-6.679-16.46c-0.1-0.247-0.178-0.514-0.267-0.695-0.096-0.195-0.158-0.228-0.191-0.223-0.012-0.005-0.166 0.073-0.384 0.552-0.218 0.46-0.497 1.192-0.92 2.211l-6.718 15.81c-0.143 0.32-0.326 0.92-0.324 1.399 0.006 0.575 0.3 0.834 0.67 1.077 0.343 0.255 0.83 0.316 0.901 0.863v0.018c-0.045 0.477-0.472 0.619-0.786 0.633-0.568 0-2.014-0.154-3.031-0.154-1.13 0-2.32 0.154-3.532 0.154-0.216 0.002-0.426-0.062-0.576-0.211-0.148-0.15-0.211-0.36-0.211-0.576 0.068-0.715 0.75-0.69 1.288-0.898 0.586-0.207 1.229-0.534 1.687-1.615l0.23 0.095-0.23-0.097 9.481-22.41c0.166-0.389 0.37-0.999 0.612-1.521 0.255-0.506 0.493-1.007 1.038-1.05 0.941 0.136 1.035 1.467 1.494 2.375l9.558 22.61c0.529 1.252 1.007 1.582 1.352 1.747 0.292 0.129 0.82 0.197 0.818 0.807 0.004 0.224-0.088 0.45-0.271 0.58-0.17 0.127-0.386 0.166-0.627 0.166"/>
</g>
<g transform="matrix(1.25,0,0,-1.25,305.4,347.4)">
<path fill="#b1b1b1" d="m0 0c-0.41-0.08-0.457-0.346-0.818-0.7-0.966-1.072-3.253-3.243-9.851-3.254-2.694 0.089-2.598 0.435-2.676 1.952-0.002 0.29 0.008 0.618 0.008 0.984v7.061c0 0.138-0.008 0.27-0.008 0.39 0.049 0.453-0.022 0.556 0.449 0.589h5.68c1.513-0.025 1.836-0.703 2.075-1.502 0.11-0.402 0.157-0.818 0.26-1.168 0.087-0.336 0.325-0.713 0.775-0.707 0.177-0.002 0.371 0.058 0.499 0.204 0.128 0.148 0.172 0.338 0.172 0.544 0 1.048-0.078 2.048-0.078 3.033 0 1.218 0.078 2.524 0.078 3.875-0.01 0.334-0.082 0.921-0.671 0.981-0.823-0.14-0.639-1.01-1.01-1.68-0.332-0.687-0.923-1.371-2.859-1.386h-4.144c-0.696-0.01-1.061 0.025-1.119 0.082-0.043 0.005-0.099 0.143-0.091 0.652-0.002 0.095 0 0.201 0 0.319v7.139c0 0.107-0.002 0.204-0.002 0.295-0.01 1.018 0.05 1.485 0.251 1.63 0.191 0.187 0.806 0.257 2.055 0.247 0.308 0 0.661-0.002 1.054-0.002 0.407 0 0.973 0.016 1.608 0.016 1.788 0.021 4.153-0.183 4.718-0.995 0.239-0.327 0.261-0.974 0.295-1.557 0.026-0.534 0.111-1.237 0.826-1.266 0.579 0.114 0.987 0.579 1.017 4.817-0.006 0.444-0.037 1.039-0.633 1.095-1.203 0-4.736-0.153-5.49-0.153-1.596 0-3.605 0.155-10.86 0.155-0.57-0.002-0.921-0.036-1.18-0.134-0.268-0.081-0.435-0.361-0.414-0.577 0.111-0.814 1.104-0.75 1.341-0.857 1.883-0.274 1.866-1.863 1.883-3.635v-17.5c0-1.827-0.101-2.746-0.929-3.111-0.61-0.305-0.994-0.433-1.273-0.556-0.27-0.103-0.52-0.311-0.559-0.628-0.002-0.536 0.48-0.674 0.824-0.674 1.548 0 3.16 0.115 4.688 0.152 0.412 0.013 0.826 0.017 1.24 0.017 2.488 0 4.99-0.169 7.504-0.169h0.479c0.069-0.001 0.137-0.001 0.204-0.001 1.265 0 2.188 0.154 3.264 1.389 0.927 1.012 1.974 2.382 1.983 3.889-0.02 0.094 0.01 0.638-0.56 0.712"/>
</g>
<g transform="matrix(1.25,0,0,-1.25,321.1,336.5)">
<path fill="#b1b1b1" d="m0 0c-0.628 0-1.32-0.023-1.951-0.023-0.6 0-1.15 0.023-1.524 0.097-0.398 0.079-0.461 0.197-0.459 0.213v9.749c0.056 1.225 0.372 1.105 1.565 1.172 0.116 0 0.24-0.002 0.372-0.002 3.715-0.03 7.069-1.497 7.082-6.013-0.01-4.585-3.475-5.172-5.085-5.201m14.16-13.37c-0.709 0.211-2.096 0.126-4.165 3.243l-6.243 9.459c2.636 1.171 4.707 3.741 4.711 6.754-0.011 6.36-6.071 6.906-8.417 6.913-0.492 0-0.848-0.023-0.929-0.023-2.007 0-4.195-0.153-6.409-0.153-1.945 0-1.691 0.147-2.456 0.153-0.529-0.006-0.984-0.244-1.017-0.711-0.014-0.457 0.356-0.724 0.693-0.804 1.06-0.341 2.569-0.021 2.606-2.611v-19.54c-0.013-1.373-0.608-1.835-1.261-2.181-0.625-0.353-1.451-0.368-1.54-1.157 0-0.337 0.248-0.672 0.634-0.672 1.475 0 2.934 0.153 4.376 0.153 3.188-0.002 4.021-0.153 4.411-0.153 0.077 0 0.168-0.006 0.263-0.006 0.12 0.002 0.259 0.004 0.407 0.091 0.154 0.089 0.242 0.285 0.234 0.471-0.11 0.997-1.259 0.901-2.179 1.201-0.969 0.294-1.794 0.689-1.813 2.214v8.099c0 0.132-0.018 0.254-0.018 0.361 0.05 0.273-0.067 0.41 0.766 0.463 0.415 0 0.785 0.002 1.115 0.002 3.132-0.066 2.441 0.056 3.779-1.92l4.26-6.716c1.457-2.189 3.028-4.26 5.97-4.262 0.173 0.002 0.803 0 1.399 0.06 0.3 0.031 0.591 0.072 0.827 0.147 0.215 0.078 0.483 0.161 0.517 0.504 0.026 0.339-0.278 0.581-0.52 0.618"/>
</g>
<g transform="matrix(1.25,0,0,-1.25,354.3,334.5)">
<path fill="#b1b1b1" d="m0 0c-3.952 1.179-7.65 1.933-7.613 5.288 0.007 3.338 3.029 4.724 6.007 4.738 3.294-0.01 5.971-1.63 7.092-4.829 0.152-0.328 0.301-1.225 1.044-1.318 0.208-0.004 0.407 0.071 0.529 0.217 0.121 0.146 0.149 0.32 0.149 0.475 0 0.054-0.002 0.108-0.008 0.16l-0.576 5.219c-0.009 0.482-0.381 0.792-0.709 0.762-0.602-0.07-0.704-0.51-0.806-0.42-0.145-0.03-0.609 0.33-1.636 0.69-0.999 0.35-2.529 0.7-4.812 0.692-4.486-0.006-8.763-2.418-8.771-7.466-0.002-5.182 4.089-6.734 7.971-7.857 3.948-1.15 7.644-1.964 7.611-5.422-0.006-3.85-3.394-5.8-6.964-5.815-5.152-0.006-7.374 3.885-7.819 5.572-0.092 0.388-0.136 0.703-0.246 0.97-0.093 0.271-0.381 0.501-0.723 0.483-0.477 0-0.729-0.454-0.729-0.957 0-0.162 0.021-0.339 0.062-0.531h-0.002l0.96-4.95c0.205-0.605 1.123-1.016 2.396-1.502 1.273-0.45 2.874-0.81 4.335-0.81h0.012c4.392-0.001 7.209 1.225 8.917 2.89 1.711 1.668 2.298 3.75 2.298 5.418 0.006 5.453-4.08 7.14-7.971 8.292"/>
</g>
<g transform="matrix(1.25,0,0,-1.25,377.9,352.7)">
<path fill="#b1b1b1" d="m0 0c-0.835 0.263-1.514 0.579-1.527 1.745v20.61c0.02 1.355 0.581 1.702 1.217 1.959 0.6 0.268 1.437 0.158 1.546 0.959 0.011 0.168-0.051 0.417-0.265 0.527-0.193 0.098-0.397 0.102-0.714 0.106-1.21 0-2.402-0.154-3.57-0.154-1.402 0-2.783 0.154-4.22 0.154-0.166-0.002-0.343-0.01-0.492-0.162-0.135-0.158-0.139-0.324-0.141-0.51 0.141-0.795 1.01-0.644 1.707-0.94 0.73-0.27 1.365-0.645 1.401-1.939h-0.002v-19.65c-0.018-1.844-0.664-2.315-1.338-2.604-0.345-0.136-0.708-0.199-1.019-0.304-0.297-0.088-0.644-0.322-0.636-0.743-0.002-0.206 0.03-0.453 0.236-0.623 0.201-0.162 0.456-0.199 0.821-0.201 0.579 0 1.349 0.153 3.683 0.153 1.638 0 3.278-0.153 4.184-0.153 0.341 0.002 0.559 0.02 0.751 0.122 0.208 0.102 0.278 0.347 0.266 0.505-0.097 0.904-1.104 0.865-1.888 1.133"/>
</g>
<g transform="matrix(1.25,0,0,-1.25,414.1,322)">
<path fill="#b1b1b1" d="m0 0c-0.023 0.447-0.069 0.789-0.311 1.047-0.252 0.25-0.597 0.298-1.051 0.3-0.783 0-4.299-0.152-11.24-0.152-4.946-0.002-7.898 0.152-10.9 0.152-1.035-0.096-0.879-1.339-0.941-1.726l-0.421-3.715c0.011-0.326 0.187-0.705 0.633-0.739 0.746 0.025 0.796 0.76 0.891 1.06 0.762 2.145 0.579 2.448 2.908 2.509h6.255c-0.001-0.003 0.04-0.029 0.09-0.198 0.048-0.175 0.065-0.437 0.065-0.677 0-0.278-0.019-0.52-0.019-0.641h-0.002v-19.96c-0.007-1.018-0.621-1.393-1.357-1.705-0.699-0.329-1.573-0.344-1.675-1.135 0.002-0.212 0.025-0.404 0.169-0.564 0.15-0.156 0.349-0.183 0.544-0.183 0.28 0 0.949 0.152 5.257 0.152 1.09 0.002 2.161-0.152 3.108-0.152 0.5 0 0.596 0.489 0.596 0.636v0.074c0.009 0.433-0.34 0.685-0.657 0.776-1 0.352-2.424 0.135-2.452 2.37v19.57c-0.002 0.374-0.008 0.673-0.008 0.908 0.106 0.912-0.168 0.621 0.706 0.727 0.162 0 0.356-0.004 0.587-0.004h5.488c1.907-0.033 2.162-0.621 2.322-1.257 0.07-0.334 0.065-0.69 0.14-1.013 0.05-0.322 0.345-0.672 0.801-0.647 0.235-0.007 0.456 0.098 0.564 0.27 0.11 0.169 0.125 0.348 0.127 0.511 0 0.118-0.012 0.235-0.021 0.337l-0.196 3.067z"/>
</g>
<g transform="matrix(1.25,0,0,-1.25,444.9,320.3)">
<path fill="#b1b1b1" d="m0 0c-1.136-0.002-2.249-0.154-3.339-0.154-0.894 0-1.854 0.152-2.803 0.154-0.412-0.002-1.054-0.134-1.054-0.827 0.11-0.808 0.985-0.708 1.636-0.881 0.719-0.169 1.235-0.345 1.242-1.113-0.003-0.949-0.483-1.531-0.769-1.978l-3.954-6.411c-0.147-0.245-0.277-0.424-0.378-0.533-0.102-0.113-0.138-0.107-0.138-0.117-0.042-0.023-0.264 0.121-0.561 0.581l-4.639 7.401c-0.244 0.355-0.66 0.948-0.653 1.439-0.007 0.393 0.315 0.62 0.766 0.852 0.412 0.24 0.978 0.355 1.039 0.952-0.068 0.65-0.732 0.625-0.98 0.635-0.429-0.002-1.433-0.154-2.686-0.154-2.602 0-3.308 0.152-4.375 0.154-0.466-0.027-0.736-0.43-0.75-0.827 0.096-0.652 0.714-0.595 1.245-0.785 0.576-0.172 1.213-0.434 1.669-1.186l0.214 0.129-0.212-0.131 6.411-10.25c0.321-0.47 0.854-1.224 0.843-1.826v-9.287c-0.022-1.257-0.599-1.541-1.3-1.781-0.655-0.234-1.565-0.161-1.655-1.021-0.006-0.247 0.082-0.485 0.279-0.602 0.185-0.108 0.367-0.104 0.548-0.108 0.382 0.002 1.734 0.154 3.455 0.154 1.407 0 3.621-0.154 4.22-0.154 0.276 0.002 0.51 0.004 0.725 0.075 0.215 0.056 0.426 0.294 0.407 0.557-0.083 0.909-1.04 0.856-1.733 1.157-0.736 0.299-1.393 0.713-1.412 2.3v9.402c-0.012 0.442 0.234 0.595 0.879 1.593l5.375 8.366c0.624 0.984 1.112 2.007 2.066 2.569 0.172 0.142 0.976 0.228 1.042 0.942-0.015 0.345-0.235 0.69-0.666 0.723"/>
</g>
<g transform="matrix(1.25,0,0,-1.25,295.9,114)">
<path fill-rule="evenodd" fill="#b1b1b1" d="m0 0c-2.714 1.256-0.8107-3.846-0.09784-0.4387 0.03261 0.1463 0.06523 0.2925 0.09784 0.4387zm-1.305 0.562c2.713-1.257 0.8132 3.846 0.098 0.439-0.032-0.1466-0.065-0.2928-0.098-0.439zm1.285 2.546c-4.459 0.024-2.121-9.299 0.8349-4.239 0.5611 1.326 0.9471 3.659-0.8349 4.239zm-1.501 6.459c0.3427-2.903 2.053 2.959 0 0zm1.487-0.961c1.626 2.404-0.966 3.614-2.21 1.323-1.116-2.314 3.172-2.76 2.21-1.323zm0.697 4.186c-1.195 2.976-1.345-2.804 0 0zm1.353 6.889c0.3349-2.907 2.055 2.956 0 0zm1.489-0.96c0.991 1.82 0.229 3.61-1.799 1.98-2.086-2.12 2.27-4.04 1.799-1.98zm3.073-20.27c0.3426-2.911 2.056 2.958 0 0zm1.58-0.965c0.999 1.819 0.233 3.611-1.796 1.979-2.087-2.118 2.281-4.031 1.796-1.979zm2.897 0.539c-1.799 0.9 1.17 2.928-1.355 2.14-0.912-1.409 0.465-2.366-0.67-2.997 0.723-0.476 1.985-0.146 2.025 0.857zm-5.148 4.009c-3.607 0.0903 0.05981-2.701 0 0zm-1.577-1.832c-1.782-1.398 1.368-4.709 0.443-2.128 0.162 0.705 1.368 2.829-0.443 2.128zm-0.723 0.497c-3.096 1.65-2.402-5.323-0.336-2.72-2.367-0.179 1.304 1.532-0.885 1.333-0.04 0.9361 2.006 0.2433 1.221 1.387zm1.366 20.36c-1.62-1.81 1.365-4.55 0.53-2.63-0.441 0.64 1.631 3.35-0.53 2.63zm0.022 1.83h-0.001 0.001zm1.05-1.358c0.8824 2.015-3.684 1.588 0 0zm2.559-12.64c-3.357 1.214-0.5414-2.153 0 0zm-2.158 2.099c-2.288 1.68-3.531-3.679-2.003-2.695 0.538 1.795 1.707 1.985 0.671-0.06-1.148-5.009 2.477 1.606 1.332 2.755zm-3.7 0.991c-1.573-0.19-1.07-3.461-1.943-4.454 1.054 0.708 1.828 2.701 1.689 0.225 1.264 0.383 0.111 2.926 0.254 4.226zm-1.551 9.48c-1.075 0.14-1.899-0.82-2.248 0.2-1.486-0.65-1.184-5.41-0.016-2.1 1.643-3.367 0.7844 1.336 2.264 1.901zm-8.59-0.87c2.793 1.231-2.395 1.441-0.4705-0.7578 1.072-0.7563-1.69-1.8 0.5815-1.521 1.162 0.4737 1.302 2.103-0.111 2.279zm0.169-20.86c2.792 1.232-2.396 1.44-0.471-0.758 1.073-0.757-1.691-1.801 0.581-1.521 1.156 0.474 1.302 2.103-0.11 2.279zm-4.059 1.525c-1.704 0.4222-2.152-0.8499-1.55-1.61-0.6608-2.338 1.557-1.922 0.8042 0.07987-0.12 0.8874 1.65 0.5095 0.75 1.53zm-2.263-3.289c-0.408 1.077-0.5861 4.4-1.325 1.366-0.29-0.785 0.65-3.432 1.32-1.366zm-7.603-0.407c-2.185 0.135 1.854 4.874-0.616 2.716-1.673 2.598-0.3-1.8-1.779-2.544-0.6438-1.732 1.423 1.334 1.635-0.9222 0.352-0.5677 1.444 0.5666 0.7606 0.75zm13.41 12.92c2.754 0.96-2.144 1.81-0.491-0.561 0.507-0.991-1.326-2.279 0.838-1.602 1.017 0.57 0.776 1.943-0.347 2.163zm-1.808 1.785c-3.362 1.572-1.837-6.411-1.034-2.187 0.9508 3.108-0.4561-5.693 1.207-1.295 0.165 1.144 0.39 2.402-0.173 3.482zm-5.72 1.133c-1.507 1.79-1.601-2.997-0.06097-0.1699l0.06097 0.1699zm-0.127-1.829c-3.4 1.522-1.684-6.473-1.01-2.178 0.9794 3.037-0.4983-4.99 1.211-1.644 0.1223 1.249 0.4489 2.662-0.2011 3.821zm-2.819 0.342c-1.5-0.2796-1.054-3.453-1.955-4.441 1.054 0.7039 1.85 2.682 1.699 0.2183 1.302 0.08757 0.08892 3.104 0.2561 4.223zm-1.905-0.904c-1.211 0.1349-4.22 0.03105-2.498-1.22-0.9047-0.8994-1.205-3.309 0.3153-1.342 1.161 2.805-0.1593-0.4491 1.173-0.7909-0.4354 1.687 1.441 2.479 1.01 3.354zm8.667 10.41c-1.159 1.072-1.552-2.68-1.741-0.089-2.44 0.7512 1.163-3.248-0.876-3.93 2.3-0.5058 1.631 2.844 2.617 4.019zm-6.141 0.697c-1.477-0.3769-1.059-3.436-1.956-4.442 1.047 0.6888 1.85 2.689 1.696 0.2266 1.273 0.351 0.1171 2.922 0.2595 4.216v-0.000004zm7.186-22.52c0.03302-3.467 1.999 1.936 0.338 0.5191l-0.35-0.5201zm1.08 1.599c-3.84 0.347-0.415-6.363 0.803-1.878 0.141 0.6945 0.013 1.687-0.816 1.877zm-10.56-2.726c0.2944-2.94 1.946 2.979 0 0zm1.732-0.881c-0.276 1.007 0.7076 3.87-1.688 2.177-2.195-1.586 0.6478-4.923 1.688-2.177zm0.456 4.778c-3.288-0.4677 0.4925-2.666 0 0zm3.98 7.54c1.005-3.192 1.449 3.406-0.02614 0.4425 0.0087-0.1475 0.01743-0.295 0.02614-0.4425zm-0.774-0.194h-0.001 0.001zm2.642 0.55c-1.296 4.288-4.51-2.215-2.409-3.604 0.7343 0.9317 0.8144 2.083 2.377 2.526l0.1281 0.4461-0.09678 0.6323zm-4.355 9.382c-0.1556-3.772 2.429 2.117 0.4324 0.5713l-0.44-0.57zm1.085 1.653c-3.68 0.5691-0.9681-6.233 0.7717-2.294 0.2638 0.7896 0.2441 2.066-0.7717 2.294zm0.821 1.778c-3.619-0.4697 0.5369-2.668 0 0zm-8.253-3.505c-0.2812-3.365 2.606 2.333 0.1204 0.4024-0.04012-0.1341-0.08025-0.2683-0.1204-0.4024zm1.062 1.614c-3.729 0.5959-0.9809-6.205 0.7873-2.268 0.2715 0.7857 0.2276 2.058-0.7873 2.268zm-0.238 1.557h-0.001 0.001zm1.22 0.171c-1.64 1.804-1.308-2.855-0.1197-0.3699l0.1034 0.146 0.01634 0.224zm3.675-24.39c0.6615-3.251 1.245 3.393 0.0053 0.06021l-0.01-0.053zm0.615 1.921c-2.406-0.5213-1.8-7.649-0.3295-3.267 1.695-0.2208 1.807 2.951 0.3295 3.267zm5.702 20.03c-0.153-3.777 2.462 2.136 0.4395 0.5734l-0.44-0.56zm1.068 1.554c-3.728 0.5864-0.9828-6.255 0.7808-2.293 0.268 0.8 0.237 2.08-0.78 2.3zm17.85 6.28c-4.03 0.11-8.098 2.07-12.08 0.56-1.49-1.5-0.523-3.86-0.767-5.77v-33.42c3.96 1.82 8.184 0.09665 12.21-0.2717 2.011 0.2289 6.705-0.7137 6.703 2.151v37.43c-1.98-0.39-4.02-0.66-6.053-0.66zm-18.29 1.098c-3.807-0.3016-7.558-1.713-11.4-0.9634-2.297 1.187-4.66 0.6921-3.817-2.18v-35.76c4.457-1.267 9.323-1.65 13.73 0.01422 1.844 0.8113 6.511-2.238 6.243 0.9285v37.01c-1.458 0.7666-3.137 0.9235-4.757 0.948zm-22.61 1.634 6.705-4.968v4.066c3.301-1.493 0.8054 1.706 0.02795 2.969-0.332 0.6185-1.783 2.714-1.375 2.355 1.899-2.068 3.797-4.137 5.696-6.205 2.436-0.8779 4.727 0.01746 2.846 2.521l-2.892 7.601c2.093-3.397 4.187-6.795 6.28-10.19 3.222-0.352 1.836 3.107 1.545 4.99-0.4468 2.555-0.8936 5.109-1.34 7.664 1.485-3.923 2.971-7.846 4.456-11.77 2.966-1.035 2.096 2.645 2.231 4.421l0.147 8.538c0.78-4.506 1.56-9.013 2.34-13.52 2.578-1.413 2.096 2.863 2.724 4.512 0.622 2.97 1.245 5.93 1.869 8.89-0.082-4.32-0.164-8.63-0.246-12.95 2.831-0.81 3.108 2.61 4.051 4.42 0.994 2.36 1.987 4.73 2.981 7.09-0.821-3.87-1.643-7.74-2.464-11.6 2.592-1.87 3.856 1.52 5.079 3.25 1.259 1.88 2.52 3.77 3.78 5.66-1.38-3.26-2.753-6.51-4.128-9.77 2.361-0.2274 4.921 0.105 6.29 2.261 1.2 1.216 2.401 2.433 3.601 3.649-1.182-1.765-2.363-3.53-3.545-5.295 2.542 0.808-0.6945-6.73 2.524-3.669 1.985 1.362 3.97 2.725 5.954 4.087-2.497-2.521-4.994-5.042-7.491-7.563-0.4955-2.181 0.1968-3.707 2.221-2.165l9.191 4.007c-3.804-2.602-7.608-5.204-11.41-7.806-0.7012-2.711 2.255-1.075 3.637-0.9216 3.52 0.78 7.03 1.57 10.54 2.36-4.72-2.05-9.45-4.1-14.17-6.15-0.09-2.084 3.03-0.65 4.47-0.96 3.74 0.12 7.48 0.23 11.21 0.34-5.22-1.16-10.46-2.326-15.68-3.49 0.23-1.833 3.13-1.024 4.59-1.618 3.77-0.607 7.54-1.215 11.3-1.823-5.3-0.152-10.6-0.303-15.89-0.455-0.04-1.929 2.84-1.673 4.2-2.523 3.52-1.289 7.05-2.578 10.58-3.867-4.93 0.804-9.86 1.607-14.78 2.411-0.51-2.146 2.22-2.539 3.51-3.59l8.88-5.335c-4.133 1.519-8.265 3.037-12.4 4.556-0.6174-2.159 0.8267-3.516 2.358-4.7l6.464-5.799c-2.941 1.789-5.881 3.579-8.822 5.368-1.893-2.473-6.407-1.306-9.28-1.441-3.907 1.657-7.728 0.3319-11.56 0.1589-3.617 1.597-7.355 0.1458-11.02-0.3249-3.028-0.133-6.175 0.2828-9 1.418-1.081 0.4991-2.308-0.8463-3.452-1.144-2.098-0.9863-4.195-1.973-6.293-2.959 3.222 2.686 6.444 5.373 9.666 8.059 0.8283 2.872-1.387 1.917-3.012 1.282-3.35-1.091-6.69-2.182-10.02-3.273 4.342 2.398 8.683 4.796 13.02 7.194 0.4358 2.332-2.724 0.675-4.068 0.8029-3.7-0.4671-7.4-0.934-11.1-1.401 5.058 1.644 10.12 3.287 15.18 4.931-0.2157 1.864-3.166 0.7537-4.65 1.211-3.8 0.246-7.6 0.493-11.4 0.739 5.346 0.6653 10.69 1.331 16.04 1.996-0.2347 1.827-3.067 1.306-4.508 2.035-3.69 0.961-7.38 1.931-11.07 2.891 5.194-0.3463 10.39-0.6927 15.58-1.039 0.2651 2.003-2.584 2.037-3.868 2.993l-9.958 4.756c4.609-1.211 9.217-2.422 13.83-3.633 0.675 2.151-1.537 2.911-2.849 3.996-2.66 1.965-5.321 3.93-7.981 5.894l10.83-5.196c0.1335 1.915 0.2269 3.939-1.515 5.138-1.73 1.878-3.46 3.755-5.19 5.633z"/>
</g>
</g>
</svg>
