<?xml version="1.0" encoding="UTF-8" standalone="no"?>
<svg width="254px" height="154px" viewBox="0 0 254 154" version="1.1" xmlns="http://www.w3.org/2000/svg" xmlns:xlink="http://www.w3.org/1999/xlink" xmlns:sketch="http://www.bohemiancoding.com/sketch/ns">
    <!-- Generator: Sketch 3.3.3 (12072) - http://www.bohemiancoding.com/sketch -->
    <title>Notebook Document Fo + Rectangle 123 + Nb + Triangle 1</title>
    <desc>Created with Sketch.</desc>
    <defs></defs>
    <g id="Page-1" stroke="none" stroke-width="1" fill="none" fill-rule="evenodd" sketch:type="MSPage">
        <g id="Rectangle-128-+-Notebook-Document-Fo-+-Rectangle-123-+-Nb-+-Triangle-1-+-Rectangle-128-Copy-+-Share-Notebooks.-+-The-Notebook-has-sup-+-Fill-1-Copy-+-Rectangle-125-+-&gt;_-+-Rectangle-128-Copy-2-+-Interactive-Computin-+-Line-+-Line-Copy-3" sketch:type="MSLayerGroup" transform="translate(-20.000000, -529.000000)">
            <g id="Notebook-Document-Fo-+-Rectangle-123-+-Nb-+-Triangle-1" transform="translate(34.000000, 532.000000)" sketch:type="MSShapeGroup">
                <g id="Rectangle-123-+-Nb-+-Triangle-1" transform="translate(86.000000, 0.000000)">
                    <path d="M36.0791737,7.10542736e-15 L0,7.10542736e-15 L0,68.5337838 L56,68.5337838 L56,16.715558 L36.0791737,5.21804822e-15 Z" id="Rectangle-123" stroke="#969696" stroke-width="2.1"></path>
                    <path d="M35.9333333,0.466216216 L35.9333333,19.2599927 L55.5333333,17.25" id="Path-2429" stroke="#979797"></path>
                    <path d="M27.8332091,51.2371622 L26.3976622,51.2371622 L16.5043517,36.3457882 L16.4325744,36.3577396 L16.4325744,51.2371622 L14.9970275,51.2371622 L14.9970275,33.8360061 L16.4325744,33.8360061 L26.3258849,48.691526 L26.3976622,48.6795747 L26.3976622,33.8360061 L27.8332091,33.8360061 L27.8332091,51.2371622 Z M42.3800841,45.1300257 C42.3800841,47.066153 41.9414492,48.6098527 41.0641662,49.7611712 C40.1868831,50.9124898 38.9786432,51.4881404 37.4394103,51.4881404 C36.4983249,51.4881404 35.6828626,51.2989127 34.9929992,50.9204516 C34.3031357,50.5419905 33.7428792,50.0021935 33.312213,49.3010445 L33.0729552,51.2371622 L31.9484435,51.2371622 L31.9484435,32.5930664 L33.3839904,32.5930664 L33.3839904,40.2897316 C33.8146566,39.580615 34.3649441,39.0328506 35.0348693,38.6464219 C35.7047945,38.2599932 36.498325,38.0667817 37.4154845,38.0667817 C38.9706681,38.0667817 40.1868831,38.6862535 41.0641662,39.9252156 C41.9414492,41.1641777 42.3800841,42.8154385 42.3800841,44.8790475 L42.3800841,45.1300257 Z M40.9325744,44.8790475 C40.9325744,43.2297538 40.6135671,41.8892249 39.9755431,40.8574204 C39.3375191,39.8256159 38.3924602,39.3097214 37.140338,39.3097214 C36.1514008,39.3097214 35.3538827,39.5507378 34.7477599,40.0327777 C34.1416371,40.5148176 33.6870518,41.1382731 33.3839904,41.9031629 L33.3839904,47.8190779 C33.7030024,48.5680325 34.1755318,49.1596181 34.8015929,49.5938524 C35.427654,50.0280868 36.2152031,50.2452007 37.1642638,50.2452007 C38.416386,50.2452007 39.3574573,49.7830867 39.987506,48.8588448 C40.6175547,47.934603 40.9325744,46.6916757 40.9325744,45.1300257 L40.9325744,44.8790475 Z" id="Nb" fill="#969696"></path>
                </g>
                <path d="M52.9507008,93.0084003 L52.9507008,114 L54.9499008,114 L54.9499008,96.2424002 L55.0087008,96.2424002 L67.2391006,114 L69.4735006,114 L69.4735006,93.0084003 L67.4743006,93.0084003 L67.4743006,110.766 L67.4155006,110.766 L55.1851008,93.0084003 L52.9507008,93.0084003 Z M79.7341004,99.9468002 C80.6161048,99.9468002 81.3902971,100.132998 82.0567004,100.5054 C82.7231037,100.877802 83.2767982,101.367797 83.7178004,101.9754 C84.1588026,102.583003 84.4919992,103.273896 84.7174004,104.0481 C84.9428015,104.822304 85.0555004,105.611196 85.0555004,106.4148 C85.0555004,107.218404 84.9428015,108.007296 84.7174004,108.7815 C84.4919992,109.555704 84.1588026,110.246597 83.7178004,110.8542 C83.2767982,111.461803 82.7231037,111.951798 82.0567004,112.3242 C81.3902971,112.696602 80.6161048,112.8828 79.7341004,112.8828 C78.852096,112.8828 78.0779038,112.696602 77.4115005,112.3242 C76.7450971,111.951798 76.1914027,111.461803 75.7504005,110.8542 C75.3093983,110.246597 74.9762016,109.555704 74.7508005,108.7815 C74.5253994,108.007296 74.4127005,107.218404 74.4127005,106.4148 C74.4127005,105.611196 74.5253994,104.822304 74.7508005,104.0481 C74.9762016,103.273896 75.3093983,102.583003 75.7504005,101.9754 C76.1914027,101.367797 76.7450971,100.877802 77.4115005,100.5054 C78.0779038,100.132998 78.852096,99.9468002 79.7341004,99.9468002 L79.7341004,99.9468002 Z M79.7341004,98.3886002 C78.5776947,98.3886002 77.5536049,98.604198 76.6618005,99.0354002 C75.769996,99.4666023 75.0203035,100.044797 74.4127005,100.77 C73.8050975,101.495204 73.3445021,102.342895 73.0309005,103.3131 C72.717299,104.283305 72.5605005,105.317195 72.5605005,106.4148 C72.5605005,107.512406 72.717299,108.546295 73.0309005,109.5165 C73.3445021,110.486705 73.8050975,111.334396 74.4127005,112.0596 C75.0203035,112.784804 75.769996,113.358098 76.6618005,113.7795 C77.5536049,114.200902 78.5776947,114.4116 79.7341004,114.4116 C80.8905062,114.4116 81.914596,114.200902 82.8064004,113.7795 C83.6982048,113.358098 84.4478973,112.784804 85.0555004,112.0596 C85.6631034,111.334396 86.1236988,110.486705 86.4373004,109.5165 C86.7509019,108.546295 86.9077003,107.512406 86.9077003,106.4148 C86.9077003,105.317195 86.7509019,104.283305 86.4373004,103.3131 C86.1236988,102.342895 85.6631034,101.495204 85.0555004,100.77 C84.4478973,100.044797 83.6982048,99.4666023 82.8064004,99.0354002 C81.914596,98.604198 80.8905062,98.3886002 79.7341004,98.3886002 L79.7341004,98.3886002 Z M92.6113003,98.8296002 L92.6113003,94.2726003 L90.7591003,94.2726003 L90.7591003,98.8296002 L88.1131003,98.8296002 L88.1131003,100.3878 L90.7591003,100.3878 L90.7591003,110.766 C90.7395002,112.059606 90.9746978,112.946498 91.4647003,113.4267 C91.9547027,113.906902 92.8170941,114.147 94.0519003,114.147 C94.3263016,114.147 94.6006989,114.1372 94.8751002,114.1176 C95.1495016,114.098 95.4238989,114.0882 95.6983002,114.0882 L95.6983002,112.53 C95.1690976,112.5888 94.6399029,112.6182 94.1107003,112.6182 C93.4442969,112.579 93.0278011,112.387902 92.8612003,112.0449 C92.6945994,111.701898 92.6113003,111.226603 92.6113003,110.619 L92.6113003,100.3878 L95.6983002,100.3878 L95.6983002,98.8296002 L92.6113003,98.8296002 Z M109.2811,105.3564 L99.4615002,105.3564 C99.5399006,104.670397 99.701599,103.999103 99.9466002,103.3425 C100.191601,102.685897 100.519898,102.107703 100.9315,101.6079 C101.343102,101.108098 101.842897,100.706302 102.4309,100.4025 C103.018903,100.098699 103.695096,99.9468002 104.4595,99.9468002 C105.204304,99.9468002 105.870697,100.098699 106.4587,100.4025 C107.046703,100.706302 107.546498,101.108098 107.9581,101.6079 C108.369702,102.107703 108.688199,102.680997 108.9136,103.3278 C109.139001,103.974603 109.2615,104.650797 109.2811,105.3564 L109.2811,105.3564 Z M99.4615002,106.9146 L111.1333,106.9146 C111.1725,105.856195 111.074501,104.812505 110.8393,103.7835 C110.604099,102.754495 110.217003,101.843104 109.678,101.0493 C109.138997,100.255496 108.438304,99.6136026 107.5759,99.1236002 C106.713496,98.6335977 105.674706,98.3886002 104.4595,98.3886002 C103.263894,98.3886002 102.230005,98.6188979 101.3578,99.0795002 C100.485596,99.5401025 99.7751029,100.147696 99.2263002,100.9023 C98.6774974,101.656904 98.2708015,102.514395 98.0062002,103.4748 C97.7415989,104.435205 97.6093002,105.415195 97.6093002,106.4148 C97.6093002,107.492805 97.7415989,108.516895 98.0062002,109.4871 C98.2708015,110.457305 98.6774974,111.309896 99.2263002,112.0449 C99.7751029,112.779904 100.485596,113.358098 101.3578,113.7795 C102.230005,114.200902 103.263894,114.4116 104.4595,114.4116 C106.38031,114.4116 107.864995,113.941205 108.9136,113.0004 C109.962205,112.059595 110.682498,110.726809 111.0745,109.002 L109.2223,109.002 C108.928299,110.178006 108.399104,111.118797 107.6347,111.8244 C106.870296,112.530004 105.811907,112.8828 104.4595,112.8828 C103.577496,112.8828 102.822903,112.696602 102.1957,112.3242 C101.568497,111.951798 101.049102,111.481403 100.6375,110.913 C100.225898,110.344597 99.9270011,109.702704 99.7408002,108.9873 C99.5545992,108.271896 99.4615002,107.581003 99.4615002,106.9146 L99.4615002,106.9146 Z M113.6323,93.0084003 L113.6323,114 L115.3375,114 L115.3375,111.1188 L115.3963,111.1188 C115.827502,112.177205 116.528195,112.990597 117.4984,113.559 C118.468605,114.127403 119.571094,114.4116 120.8059,114.4116 C121.962306,114.4116 122.966796,114.200902 123.8194,113.7795 C124.672004,113.358098 125.382497,112.779904 125.9509,112.0449 C126.519303,111.309896 126.940698,110.457305 127.2151,109.4871 C127.489501,108.516895 127.6267,107.492805 127.6267,106.4148 C127.6267,105.336795 127.489501,104.312705 127.2151,103.3425 C126.940698,102.372295 126.519303,101.519704 125.9509,100.7847 C125.382497,100.049697 124.672004,99.4666023 123.8194,99.0354002 C122.966796,98.604198 121.962306,98.3886002 120.8059,98.3886002 C120.257097,98.3886002 119.708303,98.4571995 119.1595,98.5944002 C118.610697,98.7316009 118.101102,98.9422988 117.6307,99.2265002 C117.160298,99.5107016 116.743802,99.8585981 116.3812,100.2702 C116.018598,100.681802 115.739301,101.161997 115.5433,101.7108 L115.4845,101.7108 L115.4845,93.0084003 L113.6323,93.0084003 Z M125.7745,106.4148 C125.7745,107.198804 125.681401,107.977896 125.4952,108.7521 C125.308999,109.526304 125.015002,110.217197 124.6132,110.8248 C124.211398,111.432403 123.696903,111.927298 123.0697,112.3095 C122.442497,112.691702 121.687904,112.8828 120.8059,112.8828 C119.825895,112.8828 118.997803,112.691702 118.3216,112.3095 C117.645397,111.927298 117.096602,111.432403 116.6752,110.8248 C116.253798,110.217197 115.950001,109.526304 115.7638,108.7521 C115.577599,107.977896 115.4845,107.198804 115.4845,106.4148 C115.4845,105.630796 115.577599,104.851704 115.7638,104.0775 C115.950001,103.303296 116.253798,102.612403 116.6752,102.0048 C117.096602,101.397197 117.645397,100.902302 118.3216,100.5201 C118.997803,100.137898 119.825895,99.9468002 120.8059,99.9468002 C121.687904,99.9468002 122.442497,100.137898 123.0697,100.5201 C123.696903,100.902302 124.211398,101.397197 124.6132,102.0048 C125.015002,102.612403 125.308999,103.303296 125.4952,104.0775 C125.681401,104.851704 125.7745,105.630796 125.7745,106.4148 L125.7745,106.4148 Z M136.9171,99.9468002 C137.799104,99.9468002 138.573296,100.132998 139.2397,100.5054 C139.906103,100.877802 140.459797,101.367797 140.9008,101.9754 C141.341802,102.583003 141.674999,103.273896 141.9004,104.0481 C142.125801,104.822304 142.2385,105.611196 142.2385,106.4148 C142.2385,107.218404 142.125801,108.007296 141.9004,108.7815 C141.674999,109.555704 141.341802,110.246597 140.9008,110.8542 C140.459797,111.461803 139.906103,111.951798 139.2397,112.3242 C138.573296,112.696602 137.799104,112.8828 136.9171,112.8828 C136.035095,112.8828 135.260903,112.696602 134.5945,112.3242 C133.928096,111.951798 133.374402,111.461803 132.9334,110.8542 C132.492398,110.246597 132.159201,109.555704 131.9338,108.7815 C131.708399,108.007296 131.5957,107.218404 131.5957,106.4148 C131.5957,105.611196 131.708399,104.822304 131.9338,104.0481 C132.159201,103.273896 132.492398,102.583003 132.9334,101.9754 C133.374402,101.367797 133.928096,100.877802 134.5945,100.5054 C135.260903,100.132998 136.035095,99.9468002 136.9171,99.9468002 L136.9171,99.9468002 Z M136.9171,98.3886002 C135.760694,98.3886002 134.736604,98.604198 133.8448,99.0354002 C132.952995,99.4666023 132.203303,100.044797 131.5957,100.77 C130.988097,101.495204 130.527501,102.342895 130.2139,103.3131 C129.900298,104.283305 129.7435,105.317195 129.7435,106.4148 C129.7435,107.512406 129.900298,108.546295 130.2139,109.5165 C130.527501,110.486705 130.988097,111.334396 131.5957,112.0596 C132.203303,112.784804 132.952995,113.358098 133.8448,113.7795 C134.736604,114.200902 135.760694,114.4116 136.9171,114.4116 C138.073505,114.4116 139.097595,114.200902 139.9894,113.7795 C140.881204,113.358098 141.630897,112.784804 142.2385,112.0596 C142.846103,111.334396 143.306698,110.486705 143.6203,109.5165 C143.933901,108.546295 144.0907,107.512406 144.0907,106.4148 C144.0907,105.317195 143.933901,104.283305 143.6203,103.3131 C143.306698,102.342895 142.846103,101.495204 142.2385,100.77 C141.630897,100.044797 140.881204,99.4666023 139.9894,99.0354002 C139.097595,98.604198 138.073505,98.3886002 136.9171,98.3886002 L136.9171,98.3886002 Z M153.263499,99.9468002 C154.145504,99.9468002 154.919696,100.132998 155.586099,100.5054 C156.252503,100.877802 156.806197,101.367797 157.247199,101.9754 C157.688202,102.583003 158.021398,103.273896 158.246799,104.0481 C158.472201,104.822304 158.584899,105.611196 158.584899,106.4148 C158.584899,107.218404 158.472201,108.007296 158.246799,108.7815 C158.021398,109.555704 157.688202,110.246597 157.247199,110.8542 C156.806197,111.461803 156.252503,111.951798 155.586099,112.3242 C154.919696,112.696602 154.145504,112.8828 153.263499,112.8828 C152.381495,112.8828 151.607303,112.696602 150.9409,112.3242 C150.274496,111.951798 149.720802,111.461803 149.2798,110.8542 C148.838797,110.246597 148.505601,109.555704 148.2802,108.7815 C148.054798,108.007296 147.9421,107.218404 147.9421,106.4148 C147.9421,105.611196 148.054798,104.822304 148.2802,104.0481 C148.505601,103.273896 148.838797,102.583003 149.2798,101.9754 C149.720802,101.367797 150.274496,100.877802 150.9409,100.5054 C151.607303,100.132998 152.381495,99.9468002 153.263499,99.9468002 L153.263499,99.9468002 Z M153.263499,98.3886002 C152.107094,98.3886002 151.083004,98.604198 150.1912,99.0354002 C149.299395,99.4666023 148.549703,100.044797 147.9421,100.77 C147.334497,101.495204 146.873901,102.342895 146.5603,103.3131 C146.246698,104.283305 146.0899,105.317195 146.0899,106.4148 C146.0899,107.512406 146.246698,108.546295 146.5603,109.5165 C146.873901,110.486705 147.334497,111.334396 147.9421,112.0596 C148.549703,112.784804 149.299395,113.358098 150.1912,113.7795 C151.083004,114.200902 152.107094,114.4116 153.263499,114.4116 C154.419905,114.4116 155.443995,114.200902 156.335799,113.7795 C157.227604,113.358098 157.977296,112.784804 158.584899,112.0596 C159.192502,111.334396 159.653098,110.486705 159.966699,109.5165 C160.280301,108.546295 160.437099,107.512406 160.437099,106.4148 C160.437099,105.317195 160.280301,104.283305 159.966699,103.3131 C159.653098,102.342895 159.192502,101.495204 158.584899,100.77 C157.977296,100.044797 157.227604,99.4666023 156.335799,99.0354002 C155.443995,98.604198 154.419905,98.3886002 153.263499,98.3886002 L153.263499,98.3886002 Z M163.200699,93.0084003 L163.200699,114 L165.052899,114 L165.052899,108.2376 L168.051699,105.7386 L174.049299,114 L176.371899,114 L169.462899,104.445 L175.930899,98.8296002 L173.461299,98.8296002 L165.052899,106.1796 L165.052899,93.0084003 L163.200699,93.0084003 Z M0.721601463,128.0084 L0.721601463,149 L7.98340137,149 C11.1782173,148.9216 13.5840932,148.024909 15.2011013,146.3099 C16.8181093,144.594891 17.6266012,141.993018 17.6266012,138.5042 C17.6266012,135.015383 16.8181093,132.413509 15.2011013,130.6985 C13.5840932,128.983492 11.1782173,128.086801 7.98340137,128.0084 L0.721601463,128.0084 Z M2.72080144,147.2948 L2.72080144,129.7136 L6.98380138,129.7136 C8.49300891,129.7136 9.79149591,129.875299 10.8793013,130.1987 C11.9671068,130.522102 12.8637978,131.036597 13.5694013,131.7422 C14.2750048,132.447804 14.7943996,133.359195 15.1276013,134.4764 C15.4608029,135.593606 15.6274013,136.936192 15.6274013,138.5042 C15.6274013,140.072208 15.4608029,141.414795 15.1276013,142.532 C14.7943996,143.649206 14.2750048,144.560597 13.5694013,145.2662 C12.8637978,145.971804 11.9671068,146.486298 10.8793013,146.8097 C9.79149591,147.133102 8.49300891,147.2948 6.98380138,147.2948 L2.72080144,147.2948 Z M26.9170011,134.9468 C27.7990055,134.9468 28.5731978,135.132998 29.2396011,135.5054 C29.9060044,135.877802 30.4596989,136.367797 30.9007011,136.9754 C31.3417033,137.583003 31.6748999,138.273896 31.9003011,139.0481 C32.1257022,139.822304 32.2384011,140.611196 32.2384011,141.4148 C32.2384011,142.218404 32.1257022,143.007296 31.9003011,143.7815 C31.6748999,144.555704 31.3417033,145.246597 30.9007011,145.8542 C30.4596989,146.461803 29.9060044,146.951798 29.2396011,147.3242 C28.5731978,147.696602 27.7990055,147.8828 26.9170011,147.8828 C26.0349967,147.8828 25.2608045,147.696602 24.5944012,147.3242 C23.9279978,146.951798 23.3743034,146.461803 22.9333012,145.8542 C22.492299,145.246597 22.1591023,144.555704 21.9337012,143.7815 C21.7083001,143.007296 21.5956012,142.218404 21.5956012,141.4148 C21.5956012,140.611196 21.7083001,139.822304 21.9337012,139.0481 C22.1591023,138.273896 22.492299,137.583003 22.9333012,136.9754 C23.3743034,136.367797 23.9279978,135.877802 24.5944012,135.5054 C25.2608045,135.132998 26.0349967,134.9468 26.9170011,134.9468 L26.9170011,134.9468 Z M26.9170011,133.3886 C25.7605954,133.3886 24.7365056,133.604198 23.8447012,134.0354 C22.9528967,134.466602 22.2032042,135.044797 21.5956012,135.77 C20.9879982,136.495204 20.5274028,137.342895 20.2138012,138.3131 C19.9001996,139.283305 19.7434012,140.317195 19.7434012,141.4148 C19.7434012,142.512406 19.9001996,143.546295 20.2138012,144.5165 C20.5274028,145.486705 20.9879982,146.334396 21.5956012,147.0596 C22.2032042,147.784804 22.9528967,148.358098 23.8447012,148.7795 C24.7365056,149.200902 25.7605954,149.4116 26.9170011,149.4116 C28.0734069,149.4116 29.0974966,149.200902 29.9893011,148.7795 C30.8811055,148.358098 31.630798,147.784804 32.2384011,147.0596 C32.8460041,146.334396 33.3065995,145.486705 33.620201,144.5165 C33.9338026,143.546295 34.090601,142.512406 34.090601,141.4148 C34.090601,140.317195 33.9338026,139.283305 33.620201,138.3131 C33.3065995,137.342895 32.8460041,136.495204 32.2384011,135.77 C31.630798,135.044797 30.8811055,134.466602 29.9893011,134.0354 C29.0974966,133.604198 28.0734069,133.3886 26.9170011,133.3886 L26.9170011,133.3886 Z M47.5558009,138.5924 L49.4080008,138.5924 C49.1923998,136.847991 48.5211065,135.544604 47.3941009,134.6822 C46.2670952,133.819796 44.890209,133.3886 43.2634009,133.3886 C42.1069951,133.3886 41.0829054,133.604198 40.191101,134.0354 C39.2992965,134.466602 38.549604,135.044797 37.942001,135.77 C37.334398,136.495204 36.8738026,137.342895 36.560201,138.3131 C36.2465994,139.283305 36.089801,140.317195 36.089801,141.4148 C36.089801,142.512406 36.2465994,143.546295 36.560201,144.5165 C36.8738026,145.486705 37.334398,146.334396 37.942001,147.0596 C38.549604,147.784804 39.2992965,148.358098 40.191101,148.7795 C41.0829054,149.200902 42.1069951,149.4116 43.2634009,149.4116 C44.9882095,149.4116 46.3993954,148.897105 47.4970009,147.8681 C48.5946063,146.839095 49.2707996,145.403409 49.5256008,143.561 L47.6734009,143.561 C47.6146006,144.188203 47.4578021,144.766397 47.2030009,145.2956 C46.9481996,145.824803 46.6248028,146.280498 46.2328009,146.6627 C45.8407989,147.044902 45.3900034,147.343799 44.8804009,147.5594 C44.3707983,147.775001 43.8318037,147.8828 43.2634009,147.8828 C42.3813965,147.8828 41.6072043,147.696602 40.9408009,147.3242 C40.2743976,146.951798 39.7207032,146.461803 39.279701,145.8542 C38.8386988,145.246597 38.5055021,144.555704 38.280101,143.7815 C38.0546999,143.007296 37.942001,142.218404 37.942001,141.4148 C37.942001,140.611196 38.0546999,139.822304 38.280101,139.0481 C38.5055021,138.273896 38.8386988,137.583003 39.279701,136.9754 C39.7207032,136.367797 40.2743976,135.877802 40.9408009,135.5054 C41.6072043,135.132998 42.3813965,134.9468 43.2634009,134.9468 C44.4982071,134.9468 45.4585975,135.270197 46.1446009,135.917 C46.8306043,136.563803 47.3009996,137.455594 47.5558009,138.5924 L47.5558009,138.5924 Z M64.4020006,149 L64.4020006,133.8296 L62.5498007,133.8296 L62.5498007,141.797 C62.5498007,142.561404 62.4616015,143.311096 62.2852007,144.0461 C62.1087998,144.781104 61.8344025,145.432797 61.4620007,146.0012 C61.0895988,146.569603 60.6192035,147.025298 60.0508007,147.3683 C59.4823979,147.711302 58.7964047,147.8828 57.9928007,147.8828 C56.5227934,147.8828 55.4889037,147.530004 54.8911008,146.8244 C54.2932978,146.118797 53.974801,145.080007 53.9356008,143.708 L53.9356008,133.8296 L52.0834008,133.8296 L52.0834008,143.6786 C52.0834008,144.580205 52.1813998,145.383797 52.3774008,146.0894 C52.5734018,146.795004 52.8820987,147.392798 53.3035008,147.8828 C53.7249029,148.372802 54.2736974,148.750099 54.9499008,149.0147 C55.6261041,149.279301 56.4443959,149.4116 57.4048007,149.4116 C58.5416064,149.4116 59.575496,149.142103 60.5065007,148.6031 C61.4375053,148.064097 62.1479982,147.285005 62.6380007,146.2658 L62.6968007,146.2658 L62.6968007,149 L64.4020006,149 Z M67.9006006,133.8296 L67.9006006,149 L69.7528006,149 L69.7528006,140.5328 C69.7528006,139.729196 69.8409997,138.989304 70.0174006,138.3131 C70.1938014,137.636897 70.4632987,137.048903 70.8259006,136.5491 C71.1885024,136.049298 71.6588977,135.657302 72.2371005,135.3731 C72.8153034,135.088899 73.4963966,134.9468 74.2804005,134.9468 C74.8684034,134.9468 75.3681984,135.044799 75.7798005,135.2408 C76.1914025,135.436801 76.5196993,135.706298 76.7647005,136.0493 C77.0097017,136.392302 77.1860999,136.794098 77.2939005,137.2547 C77.401701,137.715302 77.4556005,138.200398 77.4556005,138.71 L77.4556005,149 L79.3078004,149 L79.3078004,140.4152 C79.3078004,139.709597 79.3714998,139.028503 79.4989004,138.3719 C79.6263011,137.715297 79.8467989,137.132203 80.1604004,136.6226 C80.474002,136.112998 80.8953978,135.706302 81.4246004,135.4025 C81.9538031,135.098699 82.6201964,134.9468 83.4238004,134.9468 C84.756607,134.9468 85.6875977,135.275097 86.2168004,135.9317 C86.746003,136.588303 87.0106003,137.543794 87.0106003,138.7982 L87.0106003,149 L88.8628003,149 L88.8628003,138.71 C88.8628003,135.162382 87.1870171,133.3886 83.8354004,133.3886 C82.8357954,133.3886 81.8950048,133.633598 81.0130004,134.1236 C80.130996,134.613603 79.4646027,135.358395 79.0138004,136.358 C78.7393991,135.358395 78.1955045,134.613603 77.3821005,134.1236 C76.5686964,133.633598 75.6622055,133.3886 74.6626005,133.3886 C73.4277943,133.3886 72.4135045,133.653198 71.6197005,134.1824 C70.8258966,134.711603 70.184003,135.446595 69.6940006,136.3874 L69.6058006,136.3874 L69.6058006,133.8296 L67.9006006,133.8296 Z M103.2982,140.3564 L93.4786003,140.3564 C93.5570007,139.670397 93.718699,138.999103 93.9637003,138.3425 C94.2087015,137.685897 94.5369982,137.107703 94.9486002,136.6079 C95.3602023,136.108098 95.8599973,135.706302 96.4480002,135.4025 C97.0360032,135.098699 97.7121964,134.9468 98.4766002,134.9468 C99.2214039,134.9468 99.8877972,135.098699 100.4758,135.4025 C101.063803,135.706302 101.563598,136.108098 101.9752,136.6079 C102.386802,137.107703 102.705299,137.680997 102.9307,138.3278 C103.156101,138.974603 103.2786,139.650797 103.2982,140.3564 L103.2982,140.3564 Z M93.4786003,141.9146 L105.1504,141.9146 C105.1896,140.856195 105.091601,139.812505 104.8564,138.7835 C104.621199,137.754495 104.234103,136.843104 103.6951,136.0493 C103.156097,135.255496 102.455404,134.613603 101.593,134.1236 C100.730596,133.633598 99.6918063,133.3886 98.4766002,133.3886 C97.2809942,133.3886 96.2471046,133.618898 95.3749002,134.0795 C94.5026959,134.540102 93.792203,135.147696 93.2434003,135.9023 C92.6945975,136.656904 92.2879016,137.514395 92.0233003,138.4748 C91.758699,139.435205 91.6264003,140.415195 91.6264003,141.4148 C91.6264003,142.492805 91.758699,143.516895 92.0233003,144.4871 C92.2879016,145.457305 92.6945975,146.309896 93.2434003,147.0449 C93.792203,147.779904 94.5026959,148.358098 95.3749002,148.7795 C96.2471046,149.200902 97.2809942,149.4116 98.4766002,149.4116 C100.39741,149.4116 101.882095,148.941205 102.9307,148.0004 C103.979305,147.059595 104.699598,145.726809 105.0916,144.002 L103.2394,144.002 C102.945399,145.178006 102.416204,146.118797 101.6518,146.8244 C100.887396,147.530004 99.8290069,147.8828 98.4766002,147.8828 C97.5945958,147.8828 96.8400034,147.696602 96.2128002,147.3242 C95.5855971,146.951798 95.0662023,146.481403 94.6546002,145.913 C94.2429982,145.344597 93.9441012,144.702704 93.7579003,143.9873 C93.5716993,143.271896 93.4786003,142.581003 93.4786003,141.9146 L93.4786003,141.9146 Z M107.62,133.8296 L107.62,149 L109.4722,149 L109.4722,140.1506 C109.4918,139.405796 109.614299,138.714903 109.8397,138.0779 C110.065101,137.440897 110.378698,136.892102 110.7805,136.4315 C111.182302,135.970898 111.672297,135.608301 112.2505,135.3437 C112.828703,135.079099 113.490196,134.9468 114.235,134.9468 C114.979804,134.9468 115.602097,135.064399 116.1019,135.2996 C116.601702,135.534801 116.998598,135.858198 117.2926,136.2698 C117.586601,136.681402 117.792399,137.166497 117.91,137.7251 C118.027601,138.283703 118.0864,138.886397 118.0864,139.5332 L118.0864,149 L119.9386,149 L119.9386,139.2392 C119.9386,138.337596 119.850401,137.524204 119.674,136.799 C119.497599,136.073797 119.193802,135.461303 118.7626,134.9615 C118.331398,134.461698 117.758104,134.074602 117.0427,133.8002 C116.327296,133.525799 115.440405,133.3886 114.382,133.3886 C113.303995,133.3886 112.314205,133.667897 111.4126,134.2265 C110.510996,134.785103 109.883802,135.524996 109.531,136.4462 L109.4722,136.4462 L109.4722,133.8296 L107.62,133.8296 Z M126.3772,133.8296 L126.3772,129.2726 L124.525,129.2726 L124.525,133.8296 L121.879,133.8296 L121.879,135.3878 L124.525,135.3878 L124.525,145.766 C124.5054,147.059606 124.740597,147.946498 125.2306,148.4267 C125.720602,148.906902 126.582994,149.147 127.8178,149.147 C128.092201,149.147 128.366598,149.1372 128.641,149.1176 C128.915401,149.098 129.189798,149.0882 129.4642,149.0882 L129.4642,147.53 C128.934997,147.5888 128.405802,147.6182 127.8766,147.6182 C127.210196,147.579 126.793701,147.387902 126.6271,147.0449 C126.460499,146.701898 126.3772,146.226603 126.3772,145.619 L126.3772,135.3878 L129.4642,135.3878 L129.4642,133.8296 L126.3772,133.8296 Z M140.6656,128.0084 L140.6656,149 L142.6648,149 L142.6648,139.004 L152.719599,139.004 L152.719599,137.2988 L142.6648,137.2988 L142.6648,129.7136 L153.983799,129.7136 L153.983799,128.0084 L140.6656,128.0084 Z M162.509799,134.9468 C163.391804,134.9468 164.165996,135.132998 164.832399,135.5054 C165.498803,135.877802 166.052497,136.367797 166.493499,136.9754 C166.934502,137.583003 167.267698,138.273896 167.493099,139.0481 C167.7185,139.822304 167.831199,140.611196 167.831199,141.4148 C167.831199,142.218404 167.7185,143.007296 167.493099,143.7815 C167.267698,144.555704 166.934502,145.246597 166.493499,145.8542 C166.052497,146.461803 165.498803,146.951798 164.832399,147.3242 C164.165996,147.696602 163.391804,147.8828 162.509799,147.8828 C161.627795,147.8828 160.853603,147.696602 160.187199,147.3242 C159.520796,146.951798 158.967102,146.461803 158.526099,145.8542 C158.085097,145.246597 157.751901,144.555704 157.526499,143.7815 C157.301098,143.007296 157.188399,142.218404 157.188399,141.4148 C157.188399,140.611196 157.301098,139.822304 157.526499,139.0481 C157.751901,138.273896 158.085097,137.583003 158.526099,136.9754 C158.967102,136.367797 159.520796,135.877802 160.187199,135.5054 C160.853603,135.132998 161.627795,134.9468 162.509799,134.9468 L162.509799,134.9468 Z M162.509799,133.3886 C161.353394,133.3886 160.329304,133.604198 159.437499,134.0354 C158.545695,134.466602 157.796002,135.044797 157.188399,135.77 C156.580796,136.495204 156.120201,137.342895 155.806599,138.3131 C155.492998,139.283305 155.336199,140.317195 155.336199,141.4148 C155.336199,142.512406 155.492998,143.546295 155.806599,144.5165 C156.120201,145.486705 156.580796,146.334396 157.188399,147.0596 C157.796002,147.784804 158.545695,148.358098 159.437499,148.7795 C160.329304,149.200902 161.353394,149.4116 162.509799,149.4116 C163.666205,149.4116 164.690295,149.200902 165.582099,148.7795 C166.473904,148.358098 167.223596,147.784804 167.831199,147.0596 C168.438802,146.334396 168.899398,145.486705 169.212999,144.5165 C169.526601,143.546295 169.683399,142.512406 169.683399,141.4148 C169.683399,140.317195 169.526601,139.283305 169.212999,138.3131 C168.899398,137.342895 168.438802,136.495204 167.831199,135.77 C167.223596,135.044797 166.473904,134.466602 165.582099,134.0354 C164.690295,133.604198 163.666205,133.3886 162.509799,133.3886 L162.509799,133.3886 Z M172.446999,133.8296 L172.446999,149 L174.299199,149 L174.299199,140.915 C174.299199,140.111396 174.436398,139.371504 174.710799,138.6953 C174.985201,138.019097 175.372297,137.436003 175.872099,136.946 C176.371902,136.455998 176.964796,136.078701 177.650799,135.8141 C178.336803,135.549499 179.101195,135.4368 179.943999,135.476 L179.943999,133.6238 C178.571992,133.565 177.391104,133.868797 176.401299,134.5352 C175.411494,135.201604 174.681402,136.152194 174.210999,137.387 L174.152199,137.387 L174.152199,133.8296 L172.446999,133.8296 Z M181.707999,133.8296 L181.707999,149 L183.560199,149 L183.560199,140.5328 C183.560199,139.729196 183.648398,138.989304 183.824799,138.3131 C184.0012,137.636897 184.270697,137.048903 184.633299,136.5491 C184.995901,136.049298 185.466296,135.657302 186.044499,135.3731 C186.622702,135.088899 187.303795,134.9468 188.087799,134.9468 C188.675802,134.9468 189.175597,135.044799 189.587199,135.2408 C189.998801,135.436801 190.327098,135.706298 190.572099,136.0493 C190.8171,136.392302 190.993498,136.794098 191.101299,137.2547 C191.2091,137.715302 191.262999,138.200398 191.262999,138.71 L191.262999,149 L193.115199,149 L193.115199,140.4152 C193.115199,139.709597 193.178898,139.028503 193.306299,138.3719 C193.4337,137.715297 193.654197,137.132203 193.967799,136.6226 C194.281401,136.112998 194.702796,135.706302 195.231999,135.4025 C195.761202,135.098699 196.427595,134.9468 197.231199,134.9468 C198.564006,134.9468 199.494996,135.275097 200.024199,135.9317 C200.553402,136.588303 200.817999,137.543794 200.817999,138.7982 L200.817999,149 L202.670199,149 L202.670199,138.71 C202.670199,135.162382 200.994416,133.3886 197.642799,133.3886 C196.643194,133.3886 195.702403,133.633598 194.820399,134.1236 C193.938395,134.613603 193.272001,135.358395 192.821199,136.358 C192.546798,135.358395 192.002903,134.613603 191.189499,134.1236 C190.376095,133.633598 189.469604,133.3886 188.469999,133.3886 C187.235193,133.3886 186.220903,133.653198 185.427099,134.1824 C184.633295,134.711603 183.991402,135.446595 183.501399,136.3874 L183.413199,136.3874 L183.413199,133.8296 L181.707999,133.8296 Z M206.021799,138.4748 L207.873999,138.4748 C207.913199,137.239994 208.305195,136.343303 209.049999,135.7847 C209.794802,135.226097 210.755193,134.9468 211.931199,134.9468 C212.480001,134.9468 212.994496,134.9909 213.474699,135.0791 C213.954901,135.167301 214.376297,135.328999 214.738899,135.5642 C215.1015,135.799401 215.385698,136.117898 215.591499,136.5197 C215.7973,136.921502 215.900199,137.435997 215.900199,138.0632 C215.900199,138.474802 215.846299,138.807999 215.738499,139.0628 C215.630698,139.317601 215.4788,139.518499 215.282799,139.6655 C215.086798,139.812501 214.8418,139.9154 214.547799,139.9742 C214.253797,140.033 213.910801,140.082 213.518799,140.1212 C212.519194,140.238801 211.534304,140.361299 210.564099,140.4887 C209.593894,140.616101 208.721703,140.836599 207.947499,141.1502 C207.173295,141.463802 206.551001,141.919497 206.080599,142.5173 C205.610196,143.115103 205.374999,143.943195 205.374999,145.0016 C205.374999,145.766004 205.507297,146.427497 205.771899,146.9861 C206.0365,147.544703 206.399096,148.005298 206.859699,148.3679 C207.320301,148.730502 207.859296,148.995099 208.476699,149.1617 C209.094102,149.328301 209.755595,149.4116 210.461199,149.4116 C211.206002,149.4116 211.847896,149.343001 212.386899,149.2058 C212.925901,149.068599 213.406097,148.872601 213.827499,148.6178 C214.248901,148.362999 214.631097,148.044502 214.974099,147.6623 C215.3171,147.280098 215.655197,146.844002 215.988399,146.354 L216.047199,146.354 C216.047199,146.746002 216.071698,147.103698 216.120699,147.4271 C216.169699,147.750502 216.272598,148.029799 216.429399,148.265 C216.586199,148.500201 216.806697,148.681499 217.090899,148.8089 C217.3751,148.936301 217.752396,149 218.222799,149 C218.4776,149 218.688298,148.9902 218.854899,148.9706 C219.021499,148.951 219.212598,148.9216 219.428199,148.8824 L219.428199,147.3242 C219.251798,147.4026 219.0558,147.4418 218.840199,147.4418 C218.114995,147.4418 217.752399,147.069404 217.752399,146.3246 L217.752399,138.269 C217.752399,137.249795 217.5858,136.421703 217.252599,135.7847 C216.919397,135.147697 216.488201,134.652802 215.958999,134.3 C215.429796,133.947198 214.832002,133.707101 214.165599,133.5797 C213.499195,133.4523 212.832802,133.3886 212.166399,133.3886 C211.284394,133.3886 210.480802,133.486599 209.755599,133.6826 C209.030395,133.878601 208.398301,134.182398 207.859299,134.594 C207.320296,135.005602 206.894,135.534797 206.580399,136.1816 C206.266797,136.828403 206.080599,137.592796 206.021799,138.4748 L206.021799,138.4748 Z M215.900199,140.7092 L215.900199,143.12 C215.900199,143.864804 215.7581,144.531197 215.473899,145.1192 C215.189697,145.707203 214.807501,146.206998 214.327299,146.6186 C213.847096,147.030202 213.283602,147.343799 212.636799,147.5594 C211.989995,147.775001 211.313802,147.8828 210.608199,147.8828 C210.176997,147.8828 209.755601,147.814201 209.343999,147.677 C208.932397,147.539799 208.5698,147.338901 208.256199,147.0743 C207.942597,146.809699 207.6927,146.496102 207.506499,146.1335 C207.320298,145.770898 207.227199,145.354402 207.227199,144.884 C207.227199,144.139196 207.447697,143.565902 207.888699,143.1641 C208.329701,142.762298 208.893195,142.453601 209.579199,142.238 C210.265202,142.022399 211.024695,141.860701 211.857699,141.7529 C212.690703,141.6451 213.499195,141.522601 214.283199,141.3854 C214.538,141.3462 214.831997,141.277601 215.165199,141.1796 C215.4984,141.0816 215.723798,140.924801 215.841399,140.7092 L215.900199,140.7092 Z M224.396799,133.8296 L224.396799,129.2726 L222.544599,129.2726 L222.544599,133.8296 L219.898599,133.8296 L219.898599,135.3878 L222.544599,135.3878 L222.544599,145.766 C222.524998,147.059606 222.760196,147.946498 223.250199,148.4267 C223.740201,148.906902 224.602592,149.147 225.837399,149.147 C226.1118,149.147 226.386197,149.1372 226.660599,149.1176 C226.935,149.098 227.209397,149.0882 227.483799,149.0882 L227.483799,147.53 C226.954596,147.5888 226.425401,147.6182 225.896199,147.6182 C225.229795,147.579 224.813299,147.387902 224.646699,147.0449 C224.480098,146.701898 224.396799,146.226603 224.396799,145.619 L224.396799,135.3878 L227.483799,135.3878 L227.483799,133.8296 L224.396799,133.8296 Z" id="Notebook-Document-Fo" fill="#766969"></path>
            </g>
        </g>
    </g>
</svg>