<?xml version="1.0" encoding="UTF-8" standalone="no"?>
<svg width="94px" height="45px" viewBox="0 0 94 45" version="1.1" xmlns="http://www.w3.org/2000/svg" xmlns:xlink="http://www.w3.org/1999/xlink" xmlns:sketch="http://www.bohemiancoding.com/sketch/ns">
    <!-- Generator: Sketch 3.3.3 (12072) - http://www.bohemiancoding.com/sketch -->
    <title>Imported Layers</title>
    <desc>Created with Sketch.</desc>
    <defs></defs>
    <g id="Page-1" stroke="none" stroke-width="1" fill="none" fill-rule="evenodd" sketch:type="MSPage">
        <g id="Imported-Layers" sketch:type="MSLayerGroup" fill="#B1B1B1">
            <path d="M84.0545526,27.8864011 C85.5583053,27.8864011 87.0618105,27.8910989 88.5653158,27.8819505 C88.8094684,27.880467 88.9606105,27.9521703 89.0857789,28.1695055 C90.6108053,30.8163462 92.1430053,33.4589835 93.6771842,36.1003846 C93.7771211,36.2724725 93.7808316,36.4119231 93.6779263,36.5892033 C92.1536421,39.2137912 90.6338105,41.8408516 89.1204105,44.4716209 C88.9828737,44.7107143 88.8225789,44.817033 88.5371158,44.816044 C85.5298579,44.8071429 82.5226,44.8083791 79.5153421,44.8140659 C79.2553579,44.8145604 79.0792316,44.7487912 78.9402105,44.5064835 C77.7600158,42.4446429 76.4922526,40.4342308 75.3276421,38.3629945 C74.9954263,37.7723077 74.6543053,37.1865659 74.3099684,36.6028022 C74.2038474,36.4228022 74.2036,36.271978 74.3121947,36.0853022 C75.3654895,34.2778846 76.3819263,32.4482143 77.4696053,30.6618132 C77.9851211,29.8149725 78.4850526,28.9597253 78.9869632,28.105467 C79.1042158,27.9056868 79.2598105,27.8846703 79.4552316,27.8849176 C80.9884211,27.8876374 82.5216105,27.8864011 84.0545526,27.8864011" id="Fill-1" sketch:type="MSShapeGroup"></path>
            <path d="M83.8596263,9.37879121 C85.3633789,9.37854396 86.8671316,9.38423077 88.3711316,9.37335165 C88.6395263,9.37137363 88.7983368,9.45519231 88.9346368,9.69255495 C90.4319579,12.2990934 91.9384316,14.9001923 93.4478737,17.4998077 C93.5693316,17.7092308 93.6269684,17.8820604 93.4879474,18.1204121 C91.9787526,20.7084066 90.475,23.2998626 88.9853474,25.899478 C88.8104579,26.2048352 88.6152842,26.3116484 88.2652579,26.3099176 C85.3067316,26.2958242 82.3482053,26.2973077 79.3896789,26.3084341 C79.0728,26.3094231 78.8934579,26.2008791 78.7334105,25.9321154 C77.2059105,23.3673626 75.6979526,20.7914835 74.2033526,18.2074451 C74.0517158,17.9453571 74.0405842,17.7497802 74.1971684,17.4832418 C75.2620895,15.6708791 76.2896579,13.8362637 77.3718947,12.034533 C77.8517895,11.2356593 78.3425684,10.4427198 78.8063842,9.6342033 C78.9280895,9.42181319 79.0940737,9.37483516 79.3186842,9.37557692 C80.8320842,9.38151099 82.3459789,9.37879121 83.8596263,9.37879121" id="Fill-2" sketch:type="MSShapeGroup"></path>
            <path d="M67.7472842,16.9378022 C66.2635684,16.9378022 64.7798526,16.9237088 63.2963842,16.9479396 C62.9374526,16.9538736 62.7734474,16.8037912 62.6146368,16.5224176 C61.9784053,15.3932143 61.3542947,14.2556044 60.6680947,13.1568132 C59.7679211,11.7158242 58.9444316,10.2315659 58.0769105,8.77228022 C57.9581737,8.57274725 57.9655947,8.4285989 58.0781474,8.23648352 C58.7680579,7.05881868 59.4114632,5.85247253 60.1392211,4.69879121 C61.0406316,3.26967033 61.8455684,1.78590659 62.7083895,0.335274725 C62.8224263,0.143901099 62.9518,0.0588461538 63.1774,0.0593406593 C66.2430368,0.064532967 69.3086737,0.0640384615 72.3740632,0.0600824176 C72.5731947,0.0598351648 72.6978684,0.124368132 72.8000316,0.301401099 C74.3366842,2.96332418 75.8780368,5.62252747 77.4231,8.27950549 C77.5292211,8.46173077 77.4921158,8.60934066 77.3971263,8.77277473 C76.5924368,10.1564011 75.7897263,11.5410165 74.9875105,12.9261264 C74.2837474,14.1411264 73.5750368,15.3534066 72.8829,16.5750824 C72.7354684,16.8354396 72.5684947,16.9486813 72.2573053,16.9452198 C70.7540474,16.9289011 69.2505421,16.9378022 67.7472842,16.9378022" id="Fill-3" sketch:type="MSShapeGroup"></path>
            <path d="M1.54085789,22.995 C1.457,23.1423626 1.48742632,23.262033 1.48742632,23.375522 C1.4852,26.0478297 1.48569474,28.7198901 1.48594211,31.3921978 C1.48594211,31.6196703 1.51537895,31.8634615 1.21606316,31.9383791 C0.850205263,32.0301099 0.477915789,32.1178846 0.153863158,31.8320604 C0.0413105263,31.7329121 0.0697578947,31.5766484 0.0697578947,31.4404121 C0.0690157895,28.9745604 0.0692631579,26.5084615 0.0690157895,24.0426099 C0.0690157895,23.0011813 0.0680263158,21.96 0.0700052632,20.9185714 C0.0707473684,20.5145604 0.241184211,20.3301099 0.643405263,20.2836264 C1.10326316,20.2307143 1.44463158,20.3795604 1.72292105,20.7778846 C3.68158421,23.5797527 5.65657368,26.3704945 7.62636842,29.1646978 C7.65407368,29.204011 7.68524211,29.2406044 7.72877895,29.296978 C7.82277895,29.1820055 7.78542632,29.0623352 7.78542632,28.9562637 C7.7879,26.2644231 7.78715789,23.5725824 7.78765263,20.8807418 C7.78765263,20.4198626 7.84578421,20.3469231 8.30118947,20.2495055 C8.39642632,20.2292308 8.49562105,20.2225549 8.59333158,20.2200824 C9.12467895,20.2074725 9.22016316,20.2994505 9.22090526,20.8189286 C9.22214211,21.7424176 9.21966842,22.6659066 9.22436842,23.5893956 C9.23673684,26.1135989 9.25281579,28.6378022 9.26592632,31.1620055 C9.26864737,31.6908791 9.17662632,31.8612363 8.80235789,31.9645879 C8.41547368,32.0714011 7.94201053,32.0407418 7.67213158,31.6547802 C5.71396316,28.8524176 3.73278947,26.0661264 1.75829474,23.2753846 C1.6967,23.1883516 1.62768421,23.106511 1.54085789,22.995" id="Fill-4" sketch:type="MSShapeGroup"></path>
            <path d="M21.2242105,20.0442857 C22.1196842,20.0183242 22.9372368,20.1894231 23.7268368,20.5291484 C24.0019105,20.6475824 24.0805737,20.8147253 23.9930053,21.0827473 C23.9593632,21.1851099 23.9237421,21.2877198 23.8784737,21.3853846 C23.6716737,21.8321703 23.6056263,21.8566484 23.1479947,21.6632967 C22.4655053,21.3752473 21.7496211,21.2662088 21.0151842,21.2966209 C20.3116684,21.3257967 19.8038211,21.6756593 19.5257789,22.3224725 C19.2895421,22.8728571 19.1975211,23.4519231 19.2892947,24.0502747 C19.4152053,24.8709066 19.8904,25.3075549 20.7111684,25.4143681 C21.1992263,25.4776648 21.6924789,25.4339011 22.1785579,25.5293407 C23.5103895,25.7906868 24.3892895,26.596978 24.5743211,27.8757692 C24.9409211,30.4110989 23.1650632,32.1685714 21.0510526,32.1537363 C20.1083316,32.1470604 19.1851526,32.0736264 18.33,31.6300549 C18.2429263,31.5848077 18.1509053,31.5432692 18.0757053,31.4824451 C17.8931474,31.3345879 17.5945737,31.2416209 17.6722474,30.9330495 C17.7642684,30.5666209 18.0032263,30.2892033 18.3507789,30.1267582 C18.4808947,30.0659341 18.5981474,30.1524725 18.7032789,30.2268956 C19.5257789,30.8094231 20.4492053,30.9540659 21.4250737,30.8358791 C22.4484368,30.7120055 23.2155263,29.8992857 23.3043316,28.8672527 C23.3169474,28.7206319 23.3322842,28.573022 23.3265947,28.4264011 C23.2892421,27.4737363 22.7781789,26.9329945 21.8102263,26.777967 C21.2739316,26.6919231 20.7282368,26.7680769 20.1956526,26.6587912 C19.9839053,26.6152747 19.7694368,26.5781868 19.5643684,26.5126648 C18.8004947,26.2686264 18.2110158,25.804533 17.9638947,25.0276648 C17.5611789,23.7612363 17.6450368,22.5207692 18.3562211,21.3717857 C18.8952368,20.5009615 19.7340632,20.1199451 20.7302158,20.0462637 C20.9060947,20.0331593 21.0837053,20.0442857 21.2242105,20.0442857" id="Fill-5" sketch:type="MSShapeGroup"></path>
            <path d="M64.1740474,26.0782418 C64.2524632,23.897967 65.0133684,22.0443132 66.8792684,20.7961813 C68.3243947,19.8296703 69.8605526,19.798022 71.4075947,20.6001099 C71.4944211,20.6451099 71.5782789,20.6975275 71.6591684,20.7529121 C72.2563158,21.1643407 72.3253316,21.6079121 71.8914474,22.1948901 C71.7675158,22.3627747 71.6579316,22.3573352 71.5053053,22.2223352 C70.2036526,21.0711264 68.3377526,21.1287363 67.0910158,22.3526374 C65.1303737,24.2770055 65.0395895,27.5941484 66.8918842,29.6203846 C68.1435684,30.9894231 70.0342053,31.142967 71.4714158,29.9922527 C71.7192789,29.7937088 71.8459316,29.7951923 72.0270053,30.0540659 C72.4621263,30.6766484 72.3896474,31.1061264 71.7880474,31.4658791 C70.3723579,32.3122253 68.3392368,32.4778846 66.7038842,31.2648626 C65.2557895,30.1905495 64.5055211,28.7144505 64.2400947,26.9624176 C64.1958158,26.6709066 64.1631632,26.3781593 64.1740474,26.0782418" id="Fill-6" sketch:type="MSShapeGroup"></path>
            <path d="M38.6411737,28.1843407 C38.1412421,28.2068407 37.5525053,28.1732143 36.9645105,28.1311813 C36.7218421,28.1138736 36.6226474,28.1996703 36.6409526,28.4486538 C36.7624105,30.1129121 37.8092737,30.985467 39.4535316,30.8593681 C39.8970632,30.8252473 40.3284737,30.7315385 40.7452895,30.5775 C40.9934,30.4860165 41.1655684,30.5604396 41.2781211,30.7928571 C41.3080526,30.8546703 41.3404579,30.9154945 41.3669263,30.9787912 C41.5863421,31.5049451 41.4886316,31.7638187 40.937,31.9057418 C39.8792526,32.177967 38.8022105,32.2593132 37.7264053,32.0246703 C36.7925895,31.8211813 36.1009474,31.2599176 35.7157947,30.3957692 C35.0419632,28.8833242 34.9449947,27.3137637 35.4830211,25.7414835 C35.9065158,24.5039835 36.8400842,23.8749725 38.1244211,23.7698901 C38.7836579,23.7157418 39.4416579,23.7664286 40.0766526,23.9760989 C40.8536368,24.2327473 41.3196789,24.7665659 41.4891263,25.5674176 C41.6229526,26.1993956 41.6274053,26.8355769 41.5616053,27.4727473 C41.5195526,27.8792308 41.4413842,27.9543956 41.0218474,28.0441484 C40.5592684,28.1428022 40.0863,28.1581319 39.6158053,28.1816209 C39.3216842,28.196456 39.0263263,28.1843407 38.6411737,28.1843407 L38.6411737,28.1843407 Z M38.7485316,27.000989 C39.1618842,27.0808516 39.5720211,27.026456 39.9836421,27.0051923 C40.1533368,26.9965385 40.2322474,26.9258242 40.2324947,26.7525 C40.2329895,26.4083242 40.2322474,26.0653846 40.1464105,25.7286264 C40.0724474,25.4381044 39.9326842,25.1846703 39.6440053,25.0783516 C38.9795737,24.8335714 38.2998053,24.7720055 37.6356211,25.0677198 C37.0372368,25.3342582 36.5852947,26.1754121 36.6483737,26.82 C36.6647,26.9881319 36.7700789,27.0004945 36.8942579,27.0007418 C37.5124316,27.0014835 38.1303579,27.000989 38.7485316,27.000989 L38.7485316,27.000989 Z" id="Fill-7" sketch:type="MSShapeGroup"></path>
            <path d="M56.3275211,26.0953022 C56.3275211,24.3269505 56.3344474,22.5585989 56.3210895,20.7902473 C56.3186158,20.4703022 56.4378474,20.3140385 56.7398842,20.2700275 C56.7980158,20.2616209 56.8544158,20.2420879 56.9127947,20.2331868 C57.5638684,20.1352747 57.7019,20.2527198 57.7019,20.9027473 C57.7021474,24.056456 57.7019,27.2099176 57.7021474,30.3633791 C57.7021474,30.7688736 57.7033842,30.7725824 58.1103053,30.7725824 C59.5059579,30.7730769 60.9016105,30.7733242 62.2972632,30.7666484 C62.6307158,30.7649176 62.9641684,30.7372253 63.2973737,30.7171978 C63.5115947,30.7040934 63.6253842,30.8104121 63.6763421,31.0082143 C63.7290316,31.2117033 63.7260632,31.4174176 63.6981105,31.6223901 C63.6674368,31.8464011 63.5021947,31.8904121 63.3104842,31.901044 C62.6732632,31.9361538 62.0365368,32.0011813 61.3990684,32.0063736 C59.8770105,32.0189835 58.3529737,32.0743681 56.8343789,31.9077198 C56.3606684,31.8557967 56.3356842,31.8281044 56.3356842,31.3412637 C56.3351895,29.5926923 56.3354368,27.8441209 56.3354368,26.0953022 L56.3275211,26.0953022" id="Fill-8" sketch:type="MSShapeGroup"></path>
            <path d="M47.4215158,26.0906044 C47.4215158,24.3318956 47.4212684,22.5734341 47.4217632,20.8149725 C47.4220105,20.3990934 47.4563947,20.3582967 47.8675211,20.2631044 C47.9056158,20.2542033 47.9437105,20.2438187 47.9825474,20.2371429 C48.6464842,20.1256319 48.7961421,20.249011 48.7961421,20.9076923 C48.7961421,24.0512637 48.7961421,27.1950824 48.7963895,30.3386538 C48.7963895,30.7696154 48.7968842,30.7728297 49.2386842,30.7730769 C50.5950053,30.7733242 51.9513263,30.7738187 53.3076474,30.7668956 C53.6411,30.7651648 53.9750474,30.7401923 54.3077579,30.716456 C54.5509211,30.6991484 54.6773263,30.8170879 54.7186368,31.0415934 C54.7381789,31.1469231 54.7478263,31.2557143 54.7485684,31.363022 C54.7522789,31.8093132 54.6887053,31.8706319 54.2525947,31.9064835 C52.6249105,32.0397527 50.9937632,32.0293681 49.3631105,32.0100824 C48.8730737,32.0043956 48.3832842,31.9475275 47.8944842,31.9025275 C47.4682684,31.8637088 47.4299263,31.815989 47.4299263,31.3954121 C47.4291842,29.6270604 47.4296789,27.858956 47.4296789,26.0906044 L47.4215158,26.0906044" id="Fill-9" sketch:type="MSShapeGroup"></path>
            <path d="M30.5532158,27.6161538 C30.5532158,26.9777473 30.5465368,26.3390934 30.5564316,25.7006868 C30.5603895,25.4393407 30.4651526,25.3572527 30.2031895,25.3851923 C29.4687526,25.4640659 29.3727737,25.3696154 29.3821737,24.6466484 C29.3831632,24.5779121 29.3829158,24.5089286 29.3891,24.4406868 C29.4247211,24.0440934 29.4823579,23.9941484 29.8788895,23.9921703 C30.6420211,23.9884615 30.5457947,24.0895879 30.5529684,23.3193956 C30.5554421,23.0639835 30.5534632,22.8083242 30.5537105,22.5529121 C30.5537105,22.4940659 30.5512368,22.4347253 30.5569263,22.3763736 C30.5841368,22.0878297 30.8574789,21.9696429 31.4531421,21.9871978 C31.8217211,21.9980769 31.9224,22.0804121 31.9263579,22.3961538 C31.9315526,22.8184615 31.9379842,23.2412637 31.9241316,23.6630769 C31.9164632,23.9011813 31.9924053,24.0052747 32.2412579,23.9906868 C32.6724211,23.9657143 33.1045737,23.9506319 33.5364789,23.9459341 C34.0589211,23.9402473 34.1610842,24.0470604 34.1647947,24.5603571 C34.1707316,25.3503297 34.1563842,25.3641758 33.3719789,25.3609615 C32.9789105,25.3592308 32.5855947,25.3631868 32.1925263,25.3579945 C32.0072474,25.355522 31.9204211,25.4304396 31.9298211,25.6208242 C31.9968579,26.9752747 31.9463947,28.3317033 31.9971053,29.6856593 C32.0282737,30.5206319 32.4181263,30.8526923 33.2861421,30.8900275 C33.8404947,30.9137637 33.9941105,31.1565659 33.7957211,31.6851923 C33.7294263,31.8624725 33.6161316,31.9542033 33.4221947,31.9579121 C32.9890526,31.9660714 32.5591263,31.9487637 32.1296947,31.8817582 C31.4749105,31.7793956 31.0855526,31.3724176 30.8498105,30.7908791 C30.6563684,30.3131868 30.5564316,29.813489 30.5566789,29.295989 L30.5566789,27.6161538 L30.5532158,27.6161538" id="Fill-10" sketch:type="MSShapeGroup"></path>
            <path d="M26.3739263,27.836456 C26.3739263,26.639011 26.3840684,25.4415659 26.3674947,24.2443681 C26.3627947,23.9224451 26.4941474,23.7723626 26.7875263,23.7211813 C26.9228368,23.6974451 27.0576526,23.6623352 27.1939526,23.6544231 C27.6184368,23.6299451 27.7891211,23.7911538 27.7898632,24.2164286 C27.7930789,26.6306044 27.7903579,29.0450275 27.8012421,31.4592033 C27.8027263,31.7786538 27.6585105,31.9272527 27.3715632,31.9890659 C27.2159684,32.0226923 27.0591368,32.0254121 26.9028,32.0088462 C26.4825211,31.9648352 26.3771421,31.8486264 26.3766474,31.4282967 C26.3754105,30.2310989 26.3764,29.0336538 26.3764,27.836456 L26.3739263,27.836456" id="Fill-11" sketch:type="MSShapeGroup"></path>
            <path d="M13.3959895,27.0066758 C12.7473895,27.0066758 12.0985421,26.9982692 11.4501895,27.0106319 C11.1587895,27.0163187 11.0078947,26.8810714 10.9569368,26.6150275 C10.9312105,26.4812637 10.9178526,26.3423077 10.9213158,26.2060714 C10.9334368,25.7043956 11.0541526,25.5911538 11.5592789,25.5899176 C12.8072526,25.5869505 14.0554737,25.5928846 15.3034474,25.5763187 C15.5965789,25.5726099 15.7442579,25.6870879 15.8016474,25.9556044 C15.8261368,26.0708242 15.8545842,26.186044 15.8684368,26.3027473 C15.9270632,26.7970055 15.7492053,27.0004945 15.2534789,27.0027198 C14.6343158,27.0056868 14.0151526,27.0034615 13.3959895,27.0034615 L13.3959895,27.0066758" id="Fill-12" sketch:type="MSShapeGroup"></path>
            <path d="M27.8573947,21.9016484 C27.8578895,22.4490659 27.6740947,22.6424176 27.1506632,22.6443956 C26.6086789,22.6463736 26.3766474,22.4302747 26.3741737,21.9211813 C26.3717,21.375989 26.5874053,21.1635989 27.1427474,21.1650824 C27.6684053,21.1660714 27.8571474,21.3606593 27.8573947,21.9016484" id="Fill-13" sketch:type="MSShapeGroup"></path>
        </g>
    </g>
</svg>