<?xml version="1.0" encoding="UTF-8" standalone="no"?>
<svg width="119px" height="44px" viewBox="0 0 119 44" version="1.1" xmlns="http://www.w3.org/2000/svg" xmlns:xlink="http://www.w3.org/1999/xlink" xmlns:sketch="http://www.bohemiancoding.com/sketch/ns">
    <!-- Generator: Sketch 3.3.3 (12072) - http://www.bohemiancoding.com/sketch -->
    <title>Imported Layers</title>
    <desc>Created with Sketch.</desc>
    <defs></defs>
    <g id="Page-1" stroke="none" stroke-width="1" fill="none" fill-rule="evenodd" sketch:type="MSPage">
        <g id="Home---Desktop-Copy-2" sketch:type="MSArtboardGroup" transform="translate(-941.000000, -1908.000000)" fill="#B1B1B1">
            <g id="Group-+-Currently-in-use-at" sketch:type="MSLayerGroup" transform="translate(131.000000, 1814.000000)">
                <g id="Group" sketch:type="MSShapeGroup">
                    <g transform="translate(25.000000, 0.000000)" id="Row-3-+-Row-1-+-Row-2">
                        <g transform="translate(0.000000, 93.000000)">
                            <g id="Row-1" transform="translate(15.000000, 0.000000)">
                                <g id="Imported-Layers" transform="translate(770.000000, 0.000000)">
                                    <g id="Fill-4-+-Fill-5-+-Fill-11-+-Fill-2-+-Fill-7-+-Fill-13-+-Group">
                                        <g id="Fill-4-+-Fill-5-+-Fill-11" transform="translate(36.151899, 1.500000)">
                                            <path d="M2.74265555,11.220702 C1.68713407,11.1523707 1.12053307,10.1498461 1.06268943,9.24524631 C0.984008736,8.01378695 1.73931004,7.40628695 3.81884739,7.01176108 C3.81884739,6.12162562 3.83751738,5.2233436 3.81084596,4.32655788 C3.79767695,3.88481527 3.10605366,3.1998399 2.66597522,3.1175431 C2.31474594,3.05203818 2.02036014,3.1524569 1.83816099,3.46252463 C1.69680246,3.70293103 1.59661794,3.96744458 1.48143074,4.21416872 C1.11119807,3.29909483 1.61612141,1.83155172 2.53411838,1.17700123 C3.41127474,0.551711823 4.65699679,0.606077586 5.49564628,1.3583867 C5.81587003,1.6458436 6.10125423,2.00163177 6.31095828,2.37703818 C8.01392851,5.4246798 9.6952282,8.48462438 11.3833625,11.5405788 C11.4393724,11.6418288 11.4987163,11.7410837 11.6000677,11.9168165 L11.6000677,4.34068966 C10.6790702,4.32506158 9.89693083,3.96993842 9.21497593,3.3321798 C8.94242735,3.63493227 8.68021394,3.92654557 8.41783384,4.21815887 C8.38632822,4.20319581 8.3549893,4.18823276 8.32348369,4.1732697 C8.34082011,4.10277709 8.33615261,4.01299877 8.37866019,3.96428571 C9.26581833,2.94796182 10.1581441,1.93645936 11.0499697,0.923294335 C12.3887083,2.18883621 14.0321679,2.0132697 14.4052344,0.447469212 C14.8359779,1.04765394 14.7114557,2.17753079 14.1505224,3.04887931 C13.6097593,3.88930419 12.7816117,4.20602217 11.8181066,4.363633 L11.8181066,5.57115148 C11.8182733,9.49313424 11.8199403,13.415117 11.8116055,17.3370998 C11.8112721,17.486564 11.7497611,17.7287993 11.6532439,17.7665394 C11.4362052,17.8516626 11.2718426,17.7110099 11.1518212,17.4925493 C9.02360849,13.6137931 6.88772776,9.73935961 4.753514,5.86409483 C4.5368087,5.4705665 4.31926992,5.07753695 4.05722321,4.60270936 L4.05722321,13.8302586 C5.16008647,14.0320936 6.12425833,14.5245443 6.92240061,15.3781034 C7.1854475,15.1074384 7.43649224,14.8484113 7.69120431,14.5930419 C7.69520503,14.5890517 7.74504725,14.6304495 7.82039401,14.6838177 C6.88856124,15.7127771 5.96389642,16.7335899 5.01706097,17.7790086 C4.57114815,17.288553 4.08422803,16.9059975 3.43577911,16.7954372 C3.03270726,16.7267734 2.6531396,16.7769828 2.32708148,17.0439901 C1.59511767,17.6435099 1.69780264,18.6200985 2.55578891,19.0967549 C2.81000089,19.2379064 3.0995525,19.3160468 3.36876716,19.4216195 C2.21589499,19.6625246 1.17554288,19.0764717 0.668285791,18.3697167 C-0.0115020503,17.4227217 0.0341727581,16.4398153 0.547097522,15.4587377 C1.09902924,14.4031773 2.06470137,13.981053 3.19540292,13.8520382 C3.3485969,13.834415 3.50295775,13.8269335 3.65648511,13.8118042 C3.70282671,13.8073153 3.74833482,13.7930172 3.81951417,13.7778879 C3.81951417,12.5100185 3.82318149,11.2433128 3.81051257,9.9767734 C3.80967909,9.898633 3.66348636,9.74551108 3.61247727,9.75631773 C3.26258157,9.83080049 2.87951328,9.87419335 2.58562756,10.0545813 C2.24590034,10.2630665 2.33108219,10.7137869 2.74265555,11.220702" id="Fill-4"></path>
                                            <path d="M31.2175646,8.008633 C31.1773908,8.0693165 31.1643885,8.10655788 31.1380505,8.12600985 C30.4760991,8.616133 30.3835826,9.28448276 30.4129212,10.0610653 C30.4669308,11.4925308 30.4334249,12.9276539 30.4230897,14.3611145 C30.4215894,14.5857266 30.4897682,14.7287069 30.6656329,14.867697 C31.242069,15.3232389 31.8035024,15.7975677 32.3546006,16.251447 C32.6628222,16.1751355 32.7144981,15.9837746 32.7131646,15.7131096 C32.7029961,13.664335 32.6996622,11.6153941 32.7166652,9.56661946 C32.719499,9.2262931 32.6334837,8.98139778 32.3651025,8.77607143 C32.1784026,8.63342365 32.0195409,8.45436576 31.8190052,8.26383621 C32.5851417,7.56406404 33.3416099,6.87293719 34.1205821,6.16152709 C34.8340426,6.74724754 35.5360011,7.32349138 36.249795,7.90937808 C36.5551827,7.66049261 36.8439009,7.42524015 37.1327857,7.18998768 C37.1597905,7.21858374 37.186962,7.2471798 37.2139668,7.27577586 C37.1756267,7.33429803 37.1476217,7.40445813 37.0971127,7.44934729 C36.6006909,7.89025862 36.1107702,8.3393165 35.5968452,8.7591133 C35.3788064,8.9373399 35.3171287,9.12870074 35.3189624,9.39720443 C35.3294643,11.0551108 35.320296,12.7133498 35.3291309,14.3712562 C35.3302977,14.5950369 35.2746211,14.7300369 35.0712516,14.853399 C33.6014896,15.7437007 32.137562,16.6438116 30.6814691,17.5560591 C30.4504279,17.7008682 30.3089027,17.6887315 30.099532,17.5163239 C29.3767365,16.9217919 28.6334373,16.3521983 27.8691344,15.750351 C27.0413202,16.4025739 26.2160064,17.0526355 25.3703557,17.7186576 C24.6060528,17.0865517 23.8500847,16.4612623 23.0804475,15.8246675 C22.7345525,16.0634113 22.3959922,16.296835 22.0574318,16.5304249 C22.02876,16.492851 21.9999216,16.4552771 21.9710831,16.4177032 C22.0829364,16.3207759 22.1809538,16.1970813 22.3089766,16.1312438 C22.8685764,15.8439532 23.0301052,15.4171736 23.0052674,14.7839039 C22.9485907,13.32883 22.9784293,11.8699323 22.9935987,10.4128633 C23.0019335,9.6123399 22.7368863,8.95945197 22.0934382,8.4648399 C21.5171688,8.02209975 21.1035951,7.4819335 21.0752567,6.71649015 C21.0329158,5.56932266 21.8992369,4.41982759 23.0486085,4.11757389 C23.2378089,4.0678633 23.434844,4.04758005 23.6282118,4.01366379 C23.6482154,4.04541872 23.6683856,4.07717365 23.6883892,4.10892857 C23.6040408,4.16844828 23.5081904,4.21666256 23.4370111,4.28915025 C22.8569076,4.8805234 22.8582412,5.56267241 23.4728508,6.11879926 C23.7785719,6.39528325 24.1231334,6.63585591 24.4741959,6.85398399 C25.2981761,7.3658867 25.7060822,8.03922414 25.6689089,9.05737685 C25.6047308,10.808553 25.6557399,12.5637192 25.6454047,14.3170567 C25.6440711,14.54383 25.7125833,14.684649 25.891782,14.819649 C26.3645329,15.1756034 26.821281,15.5525062 27.2746951,15.913282 C27.6215903,15.7731281 27.7284427,15.5445259 27.7251088,15.1889039 C27.7076056,13.306053 27.7072722,11.4228695 27.7256088,9.54001847 C27.7291095,9.18738916 27.6317588,8.9331835 27.3662114,8.71355911 C27.1850125,8.56376232 27.0301515,8.38204433 26.8371171,8.18818966 C27.5924184,7.52150246 28.3443858,6.85797414 29.1261918,6.16801108 C29.8198155,6.77850369 30.5096051,7.38550493 31.2175646,8.008633" id="Fill-5"></path>
                                            <path d="M18.8348574,15.8264963 C19.7078463,15.149335 20.5708335,14.4798214 21.4819959,13.7730665 C21.4538242,14.0661761 17.48445,17.2950369 16.8199982,17.6451724 C15.9448422,16.8556219 15.0663523,16.0629126 14.1621911,15.2472599 C13.8683054,15.4778571 13.5789205,15.7051293 13.2893689,15.9322352 C13.2596969,15.9041379 13.230025,15.8760406 13.200353,15.8479433 C13.2648645,15.763319 13.3112061,15.6442796 13.3967213,15.5998892 C13.9839927,15.2949754 14.0800098,14.8088424 14.0646737,14.1892057 C14.0238331,12.5349569 14.0550053,10.8788793 14.0468372,9.22346675 C14.045837,9.00716749 14.1146827,8.89810345 14.3085505,8.78953818 C15.7344714,7.99167488 17.1503904,7.17618842 18.5698101,6.36652094 C18.6499911,6.32063424 18.7316723,6.2779064 18.8325236,6.22287562 C19.5551524,7.47711207 20.2687796,8.7158867 20.9995766,9.98475369 C20.4063042,10.4220074 19.8186994,10.8561022 19.2299278,11.2883682 C18.4561232,11.8564655 17.6803182,12.4217365 16.9078472,12.9914963 C16.6906418,13.1517672 16.6294643,13.7569397 16.8243323,13.9426478 C17.4841166,14.5714286 18.153736,15.1899015 18.8348574,15.8264963 L18.8348574,15.8264963 Z M16.7456516,12.8510099 C17.480616,12.3123399 18.1649046,11.8107451 18.8626957,11.2991749 C18.1610706,10.1072845 17.4761152,8.94382389 16.7456516,7.70288793 L16.7456516,12.8510099 L16.7456516,12.8510099 Z" id="Fill-11"></path>
                                        </g>
                                        <g id="Fill-2-+-Fill-7-+-Fill-13" transform="translate(0.350025, 1.391583)">
                                            <path d="M10.5666411,5.23790025 C10.5666411,6.20717365 10.5598066,7.16414409 10.5758094,8.12061576 C10.5776431,8.23633005 10.6794946,8.37781404 10.7758451,8.45977833 C11.1905857,8.8129064 11.6204956,9.14841133 12.0859119,9.52331897 C11.665337,9.86231527 11.2732671,10.1954926 10.8616937,10.502734 C10.6419879,10.6668288 10.5541389,10.8470505 10.5581396,11.1258621 C10.5748092,12.2620567 10.5656409,13.3985837 10.5674746,14.5351108 C10.5676413,14.6494951 10.5779765,14.7640456 10.5866447,14.9409421 C11.7316821,14.1537192 12.5439936,13.1656589 13.0955919,11.9558128 C13.1265974,11.9583067 13.157603,11.9608005 13.1887752,11.9632943 C13.1591032,12.3571552 13.1659378,12.7576663 13.0935915,13.1435468 C12.7810358,14.8110961 12.0405705,16.2315887 10.5881449,17.1953756 C6.73329114,19.7530603 1.45718399,17.5257266 0.545521483,12.9955788 C-0.291794438,8.8345197 2.43919237,5.80067734 5.41005527,4.80846059 C5.54307898,4.7640702 5.68427081,4.74428571 5.86263594,4.70355296 C5.36604742,5.12883621 4.85845694,5.47996921 4.46055268,5.9278633 C4.06614905,6.3719335 3.78209841,6.9134298 3.44970583,7.41219828 C3.47971118,7.44495074 3.50954983,7.4777032 3.53955518,7.51045567 C5.08649759,6.82415025 6.63344001,6.13801108 8.21888929,5.43474754 C8.22655732,5.58022167 8.2365591,5.68030788 8.2365591,5.78056034 C8.23755928,7.78228448 8.2318916,9.78400862 8.24439383,11.7857328 C8.2460608,12.0547352 8.14787663,12.1792611 7.91633535,12.291484 C6.83897664,12.8135283 5.77045284,13.3538608 4.6992619,13.8883744 C4.60524514,13.9352586 4.51422892,13.9884606 4.38453913,14.0589532 C5.4822348,15.1825123 6.7349581,15.8791256 8.32190765,15.6915887 C8.93401676,15.6192672 9.53045641,15.3845135 10.1203949,15.1841749 C10.2369157,15.1446059 10.3614379,14.9244828 10.3634382,14.7859914 C10.3826083,13.5304249 10.3826083,12.2743596 10.3656053,11.0187931 C10.3636049,10.8714901 10.2584195,10.6882759 10.143399,10.5863608 C9.73732662,10.2259175 9.30608308,9.89357143 8.85333571,9.52531404 C9.3052496,9.15689039 9.73766001,8.81207512 10.1595686,8.45462438 C10.2505848,8.37748153 10.3631048,8.25644704 10.3646051,8.15403325 C10.3802746,7.18409483 10.3739401,6.21382389 10.3739401,5.29492611 C8.21622214,4.74145936 6.0950107,4.19663793 3.97313247,3.65431034 C3.85861205,3.624883 3.73959084,3.60742611 3.6215698,3.59811576 C3.04546711,3.55239532 2.52104029,3.64400246 2.21165181,4.2039532 C1.91393207,4.74278941 1.97160902,5.24704433 2.39851845,5.71389163 C1.81391424,5.56043719 1.43217953,5.17472291 1.19680424,4.6453633 C0.65804154,3.43352217 1.18463541,1.8710468 2.33850776,1.16678571 C3.33051792,0.561447044 4.38053842,0.440246305 5.48473525,0.763947044 C6.7581289,1.13735837 8.02452131,1.53387931 9.29941523,1.90197044 C9.69598592,2.01652094 10.1080594,2.08468596 10.517299,2.14603448 C10.6749938,2.16964286 10.8476912,2.13007389 11.0077197,2.09366379 C11.4021234,2.00405172 11.6655037,1.76414409 11.7348493,1.35964286 C11.7895258,1.04043103 11.5204778,0.631939655 11.1524122,0.461194581 C10.9933838,0.387376847 10.8173525,0.34614532 10.6456552,0.303916256 C10.4766251,0.262185961 10.3030941,0.238078818 10.1387315,0.177229064 C11.125074,-0.0334174877 12.0239009,0.199673645 12.7620324,0.862703202 C13.573177,1.59140394 13.5646755,2.54421798 13.2264486,3.48788793 C12.7948716,4.69258005 11.79436,5.11071429 10.5666411,5.23790025 L10.5666411,5.23790025 Z M4.26235069,13.8670936 C4.53289891,13.73758 4.77244161,13.6085653 5.02315297,13.5073153 C5.229023,13.4243534 5.29603494,13.2983313 5.29486807,13.0768781 C5.28669995,11.2779865 5.29086736,9.47892857 5.29120075,7.67987069 L5.29120075,6.95316502 C4.65825459,7.23480296 4.09315386,7.47753695 3.53772152,7.7408867 C3.43570333,7.78926724 3.33368515,7.90797414 3.29867891,8.01587438 C2.91794438,9.18831281 2.81675967,10.3765456 3.15198609,11.5785776 C3.3818604,12.4028756 3.7229212,13.1741379 4.26235069,13.8670936 L4.26235069,13.8670936 Z" id="Fill-2"></path>
                                            <path d="M20.3108781,6.50094828 C21.0200045,7.28684113 21.709294,8.05062192 22.3964165,8.81190887 C22.7586477,8.66244458 22.9883553,8.28637315 23.3687565,8.19376847 C23.3922607,8.23200739 23.4155981,8.27024631 23.4391023,8.30831897 C23.2000597,8.4928633 22.9693519,8.68987685 22.718974,8.85746305 C22.5499438,8.97051724 22.5037689,9.10335591 22.5041023,9.29804187 C22.5074363,11.1346736 22.5214388,12.9716379 22.4890997,14.8077709 C22.4739303,15.667814 22.4699296,16.5508005 22.2772286,17.3809175 C21.6649528,20.0179064 19.0513202,20.7141872 17.4465341,20.4081096 C17.4303646,20.4049507 17.4188625,20.3770197 17.387857,20.3399446 C17.4533687,20.311016 17.5105456,20.2805911 17.571223,20.2598091 C18.780772,19.8466626 19.4537253,18.979803 19.644926,17.7455172 C19.7387761,17.1395135 19.7861178,16.5210406 19.7921189,15.9075554 C19.8104555,14.0235406 19.8037877,12.1393596 19.7907853,10.2553448 C19.7894518,10.0731281 19.7147718,9.8629803 19.6062525,9.71551108 C19.2631913,9.24883005 18.8877911,8.80559113 18.5012221,8.32344828 C18.229007,8.55421182 17.9631262,8.76469212 17.7180825,8.99728448 C17.6544045,9.05763547 17.6314004,9.18648399 17.6312337,9.2839101 C17.6263995,11.1660961 17.6235657,13.0484483 17.6357345,14.9306342 C17.6367347,15.0742796 17.7290845,15.234218 17.8194339,15.3570813 C17.9659601,15.5557574 18.1459922,15.7299938 18.3186896,15.9220197 C18.6055741,15.7123707 18.8454502,15.5369704 19.1191656,15.3369643 C19.0978285,15.6086268 16.8615965,17.4731897 16.1314664,17.8883313 C15.5126894,17.3174076 14.8874113,16.740665 14.2582992,16.1602648 C14.0050874,16.314218 13.7607105,16.4626847 13.5165003,16.6111515 C13.4916625,16.5687562 13.466658,16.5265271 13.4418203,16.4841318 C13.7687119,16.2390702 14.0766001,15.9614224 14.4276627,15.7579249 C14.8085639,15.5369704 14.8902451,15.2460222 14.8882448,14.8303818 C14.8719085,11.4887993 14.8755759,8.14705049 14.8827438,4.80546798 C14.8839107,4.28309113 14.8605732,3.79562808 14.2042895,3.58248768 C15.3609957,2.69118842 16.4610251,1.84328202 17.6273997,0.944501232 L17.6273997,8.79362069 C18.5555652,8.00057882 19.4240533,7.25857759 20.3108781,6.50094828" id="Fill-7"></path>
                                            <path d="M29.5456909,16.1961761 C30.4465181,15.5334791 31.3171733,14.8927278 32.1894955,14.2544704 C32.1929961,14.2518103 32.2220012,14.2837315 32.2871795,14.3439163 C30.7264013,15.5785345 29.1732911,16.806835 27.5851747,18.0630665 C26.6906819,17.2583867 25.7963559,16.4538732 24.9085309,15.6553448 C24.5504671,15.8166133 24.346264,16.1835406 23.9808656,16.2821305 C23.953194,16.2448892 23.9256891,16.2074815 23.8980175,16.1700739 C24.1200571,15.9920135 24.3614334,15.8325739 24.5568016,15.6290764 C24.6721555,15.5088732 24.7788411,15.3198399 24.7801747,15.160899 C24.7955108,13.3124631 24.7946773,11.4638608 24.7840087,9.61542488 C24.7826752,9.38000616 24.8618559,9.27659483 25.0665591,9.16270936 C26.4533063,8.39078202 27.8283847,7.59757389 29.2067971,6.81084975 C29.3093154,6.75232759 29.41,6.69081281 29.5541924,6.60535714 C30.2788215,7.85992611 30.9976163,9.10435345 31.7310804,10.3743842 C31.1478098,10.8048214 30.5778748,11.2269458 30.0061063,11.6465764 C29.2222999,12.2221552 28.4363264,12.7950739 27.6526868,13.370819 C27.4113104,13.5482143 27.3246283,14.1065025 27.5369995,14.3114963 C28.199951,14.9520813 28.8804056,15.5745443 29.5456909,16.1961761 L29.5456909,16.1961761 Z M27.5296648,8.18479064 C27.5058272,8.18977833 27.4819897,8.19476601 27.4581521,8.19975369 L27.4581521,13.251447 C28.1962837,12.7122783 28.8870735,12.2075246 29.5936994,11.6912993 C28.8942414,10.5032328 28.2119531,9.34392857 27.5296648,8.18479064 L27.5296648,8.18479064 Z" id="Fill-13"></path>
                                        </g>
                                        <g id="Group" transform="translate(75.316456, 1.500000)">
                                            <path d="M8.35357996,1.23502463 L8.35357996,3.39236453 C8.90634516,2.94962438 9.37242824,2.57588054 9.83884471,2.20263547 C10.3017606,1.83221675 10.7648431,1.4622968 11.2582644,1.06777094 C11.9583892,1.68424877 12.6566803,2.2992303 13.3556383,2.9150431 C13.7523756,2.70007389 13.9864174,2.27612069 14.4073257,2.13530172 C14.4338305,2.16938424 14.4605019,2.20346675 14.4870066,2.237383 C14.2261268,2.4626601 13.972915,2.69741379 13.7018666,2.90955665 C13.5288358,3.04505542 13.4563229,3.18986453 13.456823,3.41730296 C13.464491,7.34709975 13.4656579,11.2770628 13.4571564,15.2068596 C13.4563229,15.5827648 13.4151489,15.965819 13.3351346,16.3330788 C13.1100945,17.3666933 12.2362721,18.012266 10.9710465,17.9459298 C10.1517338,17.9030357 9.33108754,17.7081835 8.53194509,17.5015271 C7.28472277,17.1788239 6.03383313,16.9242857 4.7407693,16.9891256 C4.39137369,17.0067488 4.0314762,17.0822291 3.70325103,17.2032635 C3.09897664,17.4262131 2.73957925,18.0042857 2.82509449,18.5170197 C2.92661259,19.1251847 3.38486094,19.5413239 4.09498752,19.5217057 C4.82645124,19.5014224 5.55774826,19.3906958 6.2838777,19.2841256 C7.66729096,19.0814594 9.04386967,18.8299138 10.4296167,18.645702 C11.1482448,18.5501047 11.8400348,18.6982389 12.4681467,19.1085591 C13.7715457,19.9594581 13.9429096,21.7329126 12.811708,22.8117488 C12.3727964,23.2303818 11.6491674,23.573202 10.9758807,23.5836761 C11.0600624,23.5303079 11.17725,23.4962254 11.2227581,23.4197475 C11.3826199,23.1512438 11.5891567,22.8822414 11.6476671,22.5876355 C11.7643546,21.9994212 11.4209601,21.5804557 10.8243537,21.6185283 C10.0343796,21.6689039 9.24507221,21.7846182 8.46559993,21.9275985 C7.07951952,22.1816379 5.71694331,22.5653571 4.28618827,22.5321059 C2.32367178,22.4862192 0.932923872,20.650585 1.51636121,18.8385591 C1.78290872,18.010936 2.41352113,17.5201478 3.1564869,17.1573768 C3.36385719,17.0561268 3.45153949,16.9616933 3.45003922,16.7182943 C3.43770369,14.7985345 3.43420307,12.8786084 3.4512061,10.9590148 C3.45437333,10.5997352 3.28951061,10.5362254 3.00179265,10.554181 C2.96628633,10.5563424 2.93111339,10.5634914 2.89594045,10.5688116 C2.53337582,10.6238424 2.19564896,10.7097968 2.06329203,11.1186207 C1.93410234,11.5178017 2.18231325,11.7350985 2.52120699,12.0044335 C1.92443395,11.9987808 1.53736495,11.7578756 1.24998039,11.3566995 C0.492512034,10.2994766 0.915587449,8.82528325 2.14380638,8.30107759 C2.54004368,8.13182882 2.97878855,8.06150246 3.44320467,7.93348522 L3.44320467,6.59262931 C3.44320467,5.77498153 3.45954092,4.95683498 3.43420307,4.13985222 C3.42520146,3.85222906 3.36169014,3.54565271 3.24000178,3.2862931 C2.92694598,2.61877463 2.11363434,2.55343596 1.67755661,3.14946429 C1.52953022,3.35163177 1.43634694,3.59370074 1.26131574,3.81049877 C1.30499019,3.55263547 1.31915939,3.28562808 1.39733999,3.03857143 C1.90926457,1.41890394 3.91562221,0.642820197 5.38238367,1.49521552 C6.22603405,1.98567118 6.49508201,2.7827032 6.49608219,3.6966133 C6.50074969,7.93730911 6.49808255,12.1780049 6.49808255,16.418867 L6.49808255,16.8503017 C7.06034944,16.9638547 7.60044571,17.073085 8.20171956,17.194452 L8.20171956,1.2396798 C8.25239526,1.2381835 8.30290426,1.23652094 8.35357996,1.23502463 L8.35357996,1.23502463 Z M8.3745837,17.2361823 C9.44444108,17.5427586 10.412447,16.8012562 10.4167811,15.7051293 C10.4227821,14.2131466 10.4182813,12.7209975 10.4177812,11.2290148 C10.4176145,10.6381404 10.1864067,10.3599938 9.60146907,10.2447783 C8.95018631,10.1162623 8.37258335,10.5762931 8.37408362,11.2216995 C8.3749171,11.6124015 8.37441701,12.0032697 8.3745837,12.3939717 L8.3745837,17.2361823 L8.3745837,17.2361823 Z M9.02820021,3.12336207 C8.86050365,3.25470443 8.69414067,3.35562192 8.5682849,3.49328202 C8.47643519,3.593867 8.38508558,3.7425 8.3839187,3.87051724 C8.37074969,5.23032635 8.37191656,6.59030172 8.38158495,7.95011084 C8.38241843,8.07663177 8.43126047,8.26067734 8.52160991,8.3177032 C8.7754885,8.47797414 9.05103762,8.649883 9.33892227,8.7010899 C9.93052772,8.80633005 10.4189481,8.35195197 10.4179479,7.7682266 C10.4171145,7.17685345 10.4229488,6.58564655 10.4167811,5.9942734 C10.4109467,5.42950123 10.5579729,4.7860899 10.3352665,4.3215702 C10.1048921,3.84075739 9.51061954,3.53334975 9.07537529,3.15029557 C9.06670708,3.14264778 9.05487163,3.13849138 9.02820021,3.12336207 L9.02820021,3.12336207 Z M8.39558745,8.55594828 L8.39558745,10.3915825 C9.06604029,9.83878079 9.724491,9.88100985 10.3964441,10.3327278 L10.3964441,8.5729064 C9.72399091,9.07167488 9.0795427,9.07716133 8.39558745,8.55594828 L8.39558745,8.55594828 Z" id="Fill-1"></path>
                                            <path d="M18.5212257,17.6721059 C17.6032287,16.9003448 16.6868987,16.1299138 15.7645677,15.3546613 C15.4375094,15.4625616 15.2844821,15.8703879 14.9299189,15.918436 C14.9092485,15.8893411 14.8887449,15.8602463 14.8680745,15.8311515 C14.9189169,15.7746244 14.9595908,15.7008067 15.0222687,15.6642303 C15.5391942,15.3618103 15.6652166,14.9247229 15.6512141,14.3331835 C15.6082065,12.5327956 15.6403789,10.7305788 15.6297103,8.92919335 C15.62821,8.69443966 15.7032234,8.5930234 15.9130941,8.48346059 C17.247332,7.78684729 18.569401,7.06695813 19.8949706,6.35388547 C19.998489,6.29818966 20.0988403,6.23634236 20.2180282,6.16734606 C21.208038,7.02339901 22.1927135,7.87463054 23.1923917,8.73899631 C23.4799429,8.48811576 23.7574924,8.24621305 24.0348752,8.00414409 C24.0652139,8.03024631 24.095386,8.05634852 24.125558,8.08245074 C24.0650472,8.17089901 24.0243733,8.2907697 23.9408584,8.34264163 C23.4140979,8.67016626 23.3199144,9.14067118 23.3340836,9.73071429 C23.3725905,11.3533744 23.3389178,12.977697 23.3545873,14.6011884 C23.3574211,14.880665 23.2609039,15.0096798 23.0246951,15.1408559 C21.5741032,15.9460345 20.1345133,16.77133 18.6910893,17.5893103 C18.6402469,17.6182389 18.5857372,17.6408498 18.5212257,17.6721059 L18.5212257,17.6721059 Z M18.3716991,7.58750616 C18.3493617,7.69075123 18.3358593,7.72400246 18.3358593,7.75741995 C18.3346925,9.80353448 18.3310251,11.849649 18.3423605,13.8957635 C18.343194,14.0259421 18.4317098,14.1863793 18.5298939,14.2801478 C18.9578035,14.6889717 19.4042164,15.0783436 19.8439615,15.4746983 C20.1026743,15.7076232 20.3617204,15.9400493 20.630435,16.1816195 C20.6626074,16.1172783 20.6807773,16.0979926 20.6807773,16.0785406 C20.6834445,14.0199569 20.6857782,11.9612069 20.6821109,9.90262315 C20.6819442,9.81783251 20.649105,9.70743842 20.5905946,9.65224138 C19.8689659,8.97208744 19.139836,8.29991379 18.3716991,7.58750616 L18.3716991,7.58750616 Z" id="Fill-8"></path>
                                            <path d="M37.0718658,15.5716256 C37.3377465,15.3536638 37.5699545,15.1633005 37.8280005,14.9518227 C37.8410029,15.2131773 35.8579827,17.0416626 34.9879943,17.6287131 C34.6716046,17.3344397 34.3508807,17.0376724 34.0318239,16.7390764 C33.7116001,16.439649 33.3930433,16.1383929 33.0556498,15.8210099 C32.7889356,16.0479495 32.5313897,16.2669089 32.2740105,16.4860345 C32.2408379,16.4657512 32.2076654,16.445468 32.1746595,16.4251847 C32.2218346,16.3420567 32.2518399,16.2401416 32.3190185,16.1791256 C32.6345748,15.891835 32.9728017,15.6281527 33.2760225,15.3290579 C33.3865422,15.2199938 33.4832261,15.036447 33.4838929,14.8863177 C33.4968952,11.4531281 33.4987288,8.01960591 33.4922277,4.58625 C33.4915609,4.2703633 33.4507203,3.94666256 33.372373,3.64075123 C33.2750223,3.26085591 33.059984,2.95112069 32.5472259,2.84039409 C33.7587752,1.99049261 34.9128142,1.18099138 36.1396996,0.320449507 C36.1396996,0.878571429 36.1398663,1.36703202 36.1396996,1.85532635 C36.1391995,5.949883 36.1425334,10.0444397 36.1305313,14.1389963 C36.1295311,14.4758313 36.211379,14.7262131 36.465591,14.94617 C36.6796292,15.1312131 36.8621617,15.3525 37.0718658,15.5716256" id="Fill-10"></path>
                                            <path d="M25.832529,15.6078695 C25.5504787,15.8715517 25.2930995,16.1119581 25.0357203,16.3525308 C25.0032145,16.3345751 24.9708754,16.3166195 24.9383696,16.29883 C24.9702086,16.2195259 24.9818773,16.1201047 25.0377206,16.0649076 C25.2314218,15.8733805 25.4249563,15.6753695 25.6468292,15.5200862 C26.0210626,15.2580665 26.1379167,14.9315394 26.1285817,14.4723399 C26.0974095,12.9324754 26.1112453,11.391447 26.1219139,9.85091749 C26.1237475,9.5744335 26.0589027,9.35198276 25.8772036,9.14067118 C25.6396613,8.86418719 25.4299572,8.56376232 25.1897477,8.24937192 C24.9061972,8.48844828 24.6411499,8.7117303 24.3637672,8.94565271 C24.3090907,8.7117303 25.8757033,7.20495074 27.1364281,6.2373399 C27.6560207,6.85913793 28.1767802,7.48259852 28.6998734,8.10871921 C29.311149,7.51784483 29.9054216,6.94326355 30.5215315,6.34756773 C31.2361589,6.9229803 31.9771243,7.09139778 32.6935853,6.27890394 C32.9622999,7.6062931 31.9317828,9.12205049 30.707898,9.24890394 C30.0787859,9.31424261 29.5821974,9.03293719 29.1396185,8.62843596 C29.0642717,8.55960591 29.0130959,8.46450739 28.9507515,8.38171182 C28.921913,8.39650862 28.8932412,8.41130542 28.8645694,8.42610222 L28.8645694,8.90857759 C28.8634026,10.7550185 28.8670699,12.6016256 28.8559012,14.4480665 C28.8542343,14.7077586 28.9212462,14.8937993 29.1287832,15.0555665 C29.4173346,15.2800123 29.6847156,15.5312254 29.9607648,15.7706342 C30.3343314,15.5781096 30.5732073,15.1940579 30.9607764,15.0608867 C30.9864477,15.0996244 31.0121189,15.1383621 31.0377902,15.177266 C30.0587823,15.9925862 29.0799412,16.8079064 28.0780959,17.6423461 C27.3327964,16.9671798 26.5974987,16.3009914 25.832529,15.6078695" id="Fill-14"></path>
                                            <path d="M42.5651783,15.5056219 C42.8827349,15.2319643 43.1687859,14.9855727 43.4548369,14.7390148 C43.4858424,14.7519828 43.5166812,14.765117 43.5476868,14.778085 C43.5195151,14.8510714 43.5120137,14.9475 43.4600045,14.9933867 C42.4728285,15.8622414 41.4803182,16.7251108 40.4561357,17.6177401 C40.1805866,17.1818165 39.9160394,16.7655111 39.6536593,16.3478756 C38.5768007,14.6327771 37.5044429,12.9148522 36.4192494,11.2050739 C36.2678891,10.9666626 36.2578873,10.8012377 36.4302514,10.5565086 C37.4055919,9.17142857 38.3579283,7.77038793 39.3187663,6.37516626 C39.3784436,6.28838054 39.4431218,6.20491995 39.5239695,6.09485837 C39.9720494,6.4910468 40.450468,6.81956897 41.0602434,6.83220443 C41.6811874,6.84517241 42.1587725,6.50750616 42.6145204,6.11347906 C42.6138536,7.10486453 41.9454011,8.37290025 41.1800981,8.79070197 C40.0972384,9.38190887 39.1422348,8.95995074 38.1192191,8.29924877 C38.1192191,8.51987069 38.0607087,8.70391626 38.1277206,8.80583128 C39.5909815,11.033165 41.0680781,13.2513547 42.5651783,15.5056219" id="Fill-15"></path>
                                        </g>
                                    </g>
                                    <g id="Group" transform="translate(33.139241, 25.500000)">
                                        <path d="M11.4911089,15.6026232 C12.6611508,14.794452 13.4742958,13.803399 14.0730692,12.5905603 C14.0730692,12.8859975 14.1079087,13.1862562 14.0674015,13.4758744 C13.8066884,15.3319581 13.0233821,16.8927709 11.3877572,17.9142488 C7.26118827,20.491053 2.18611695,17.8412623 1.42631485,13.3741256 C0.763696737,9.47807882 3.34715725,6.46202586 6.29201551,5.46565271 C6.43620788,5.4167734 6.58790159,5.39017241 6.76760029,5.38850985 C5.71457925,6.05968596 4.90093421,6.92255542 4.40501248,8.18128079 C6.01846675,7.464883 7.55607417,6.78223522 9.13102157,6.08296182 C9.14302371,6.20715517 9.15835978,6.29377463 9.15852648,6.38039409 C9.16069353,8.40705665 9.1573596,10.433553 9.16736138,12.4600493 C9.16852826,12.6956342 9.09501515,12.8106835 8.87931004,12.9150924 C7.80161794,13.4369704 6.7345944,13.9806281 5.66407024,14.5169704 C5.56088518,14.5686761 5.45936709,14.6233744 5.31650829,14.6978571 C6.05463986,15.4965517 6.90295775,16.0461946 7.92430647,16.2691441 C9.0009984,16.504064 10.0465181,16.3399692 11.0398618,15.8530049 C11.2353967,15.7570751 11.3059093,15.632383 11.3039089,15.4119273 C11.2930736,14.168165 11.3069094,12.9240702 11.2880727,11.6803079 C11.285739,11.5228633 11.1782198,11.3271798 11.0568649,11.218282 C10.6527928,10.8553448 10.2202157,10.52383 9.77747014,10.1632204 C10.2275504,9.80044951 10.6547932,9.46294951 11.072701,9.11397783 C11.1655509,9.03633621 11.2877393,8.91945813 11.2894063,8.81903941 C11.3057426,7.83812808 11.2992414,6.85688424 11.2992414,5.9351601 C9.16536103,5.38767857 7.07948921,4.84684729 4.98961669,4.32264163 C4.70673293,4.25165025 4.39801123,4.21474138 4.10995989,4.245 C3.06894099,4.35389778 2.64053129,5.38485222 3.26364236,6.23541872 C3.28181227,6.26035714 3.28664646,6.29510468 3.3169852,6.37740148 C2.69587449,6.17606527 2.3268087,5.77123153 2.10193528,5.2317303 C1.60801391,4.04715517 2.12627295,2.53472291 3.229803,1.83079433 C4.35016937,1.11605911 5.52587894,1.11024015 6.75059725,1.48847291 C7.99531913,1.87285714 9.23770726,2.26771552 10.4960982,2.60238916 C10.9631815,2.72641626 11.4749394,2.74004926 11.9616928,2.71477833 C12.3269246,2.69582512 12.5838037,2.41900862 12.6486486,2.04277094 C12.7179943,1.64109606 12.5091237,1.32986453 12.1743974,1.1669335 C11.829836,0.998848522 11.4399331,0.92320197 11.1088741,0.819291872 C11.6443029,0.504402709 13.0040453,0.919710591 13.6168212,1.42230296 C14.2937752,1.97709975 14.5251498,2.93905788 14.2072598,3.9939532 C13.8747005,5.09839286 12.9612043,5.73997537 11.4921091,5.87048645 C11.4921091,6.15694581 11.4922758,6.44872537 11.4921091,6.74067118 C11.4921091,7.07235222 11.5377839,7.41184729 11.4829408,7.73421798 C11.3295801,8.63649015 11.6538046,9.27441502 12.4482796,9.71017241 C12.6423141,9.81674261 12.7996755,9.98998153 13.0145472,10.1658805 C12.5831369,10.5138547 12.171897,10.8603325 11.7436539,11.1841995 C11.5542869,11.3273461 11.4836076,11.4822968 11.4857746,11.7197106 C11.49711,12.98625 11.4911089,14.2531219 11.4911089,15.6026232 L11.4911089,15.6026232 Z M5.18015065,14.5151416 C5.45169906,14.3837993 5.68740774,14.247303 5.93928597,14.154532 C6.18282938,14.0647537 6.23183812,13.9122968 6.23067124,13.6725554 C6.22150294,11.7798953 6.22550365,9.88723522 6.22550365,7.99457512 L6.22550365,7.60171182 C5.9976297,7.69847291 5.81559725,7.77411946 5.63489838,7.85309113 C4.10062489,8.52426724 4.08462204,8.52277094 3.90742378,10.2104372 C3.74022731,11.8038362 4.27232216,13.2018842 5.18015065,14.5151416 L5.18015065,14.5151416 Z" id="Fill-3"></path>
                                        <path d="M34.976962,16.4698153 C35.2780157,16.3133682 35.4323765,15.9788608 35.7387645,15.8972291 C35.7652692,15.9356342 35.7917739,15.9740394 35.8184454,16.0124446 C34.881445,16.8769766 33.9444446,17.7413424 32.963103,18.6469397 C32.2474755,17.8733498 31.5443502,17.1133929 30.8450588,16.3572599 C30.8552273,16.3241749 30.8550606,16.293085 30.8693965,16.2832759 C31.3051408,15.9846798 31.3408139,15.5555727 31.3318123,15.0714347 C31.3071412,13.7448768 31.3301453,12.4174877 31.3146425,11.0905973 C31.3128089,10.9231773 31.230961,10.7254988 31.1214414,10.5963177 C30.7098681,10.1101847 30.2714566,9.64649631 29.8510483,9.18314039 C29.3844651,9.37716133 29.2454404,9.68905788 29.2562756,10.1658805 C29.2942824,11.8578695 29.295616,13.5510222 29.2867811,15.2435099 C29.2849474,15.5873276 29.3456249,15.8594889 29.6185069,16.0832697 C29.7723676,16.2092919 29.8965564,16.3713916 30.0235791,16.5062254 C29.3309556,17.1903695 28.6513345,17.8618781 27.9450419,18.5598214 C27.3412676,17.8843227 26.7053209,17.1729126 26.0798761,16.4731404 C26.0953789,16.4211022 26.0948788,16.3905111 26.1088813,16.380702 C26.5561277,16.0678079 26.6294741,15.6345443 26.615805,15.1143288 C26.5817989,13.7999076 26.6129711,12.4841564 26.5956347,11.1690702 C26.5931342,10.9768781 26.5121198,10.751601 26.3922651,10.6008067 C26.0031958,10.1106835 25.5792869,9.64815887 25.1743814,9.18147783 C24.768309,9.38198276 24.6097807,9.65165025 24.6194491,10.1151724 C24.6554555,11.8204618 24.6421198,13.5272475 24.6267837,15.233202 C24.6237832,15.5559052 24.6984632,15.7981404 24.9476743,16.0079557 C25.1447094,16.1738793 25.3080718,16.3795382 25.4559315,16.5354865 C24.779811,17.2503879 24.1153592,17.9528202 23.4222357,18.6856773 C22.7142762,17.8879803 22.0408228,17.1291872 21.3722036,16.3757143 C21.3870396,16.3388054 21.3892066,16.3098768 21.4035425,16.3012315 C21.9381378,15.9788608 22.013818,15.4950554 21.9956481,14.910665 C21.9551408,13.5967426 21.9899804,12.2806589 21.9743109,10.9655727 C21.9723106,10.7974877 21.888629,10.6013054 21.780443,10.4687993 C21.443883,10.056484 21.0773177,9.66844212 20.6934159,9.23866995 C20.3968631,9.48356527 20.1033108,9.726133 19.8099251,9.96853448 C19.7835871,9.95240764 19.7574158,9.93611453 19.7312444,9.91982143 C19.7632501,9.84716749 19.7762525,9.75256773 19.8304288,9.70501847 C20.7210875,8.92328202 21.6167472,8.14769704 22.5325771,7.35216133 C23.1910278,8.04561576 23.8416438,8.73075739 24.5000945,9.42404557 C25.398588,8.72460591 26.2760777,8.04162562 27.1707372,7.34517857 C27.8151854,8.04079433 28.4504653,8.72643473 29.1174175,9.44615764 C30.0334142,8.72327586 30.941576,8.00654557 31.8824104,7.26404557 C32.5235247,7.977617 33.1619718,8.6878633 33.8167552,9.41639778 C34.1914887,9.19627463 34.4980433,8.86991379 34.873777,8.6704064 C34.9029488,8.71795567 34.931954,8.76550493 34.9611259,8.81305419 C34.7044134,9.01123153 34.4540355,9.2183867 34.1888215,9.4045936 C34.0189579,9.523633 33.9441112,9.65464286 33.9452781,9.87144089 C33.9549465,11.6124754 33.9474452,13.3535099 33.9576137,15.0945443 C33.9584471,15.2313732 34.0219585,15.3929741 34.1094741,15.4995443 C34.3793555,15.828399 34.6750749,16.1359729 34.976962,16.4698153" id="Fill-6"></path>
                                        <path d="M46.993604,14.1571921 C46.451174,13.6622475 45.96142,13.2323091 45.495837,12.777931 C45.3846506,12.6693658 45.2983018,12.4804988 45.2946345,12.3263793 C45.2754644,11.5212007 45.2801319,10.7151909 45.2943011,9.9096798 C45.2964682,9.79263547 45.3618132,9.62288793 45.452496,9.56918719 C46.7870672,8.77930419 48.1308067,8.00504926 49.5060519,7.20751847 C49.609737,7.30028941 49.7610973,7.42830665 49.9041228,7.56496921 C50.6227509,8.25260468 52.1185176,8.19940271 52.2540417,6.73352217 C52.4824158,7.17426724 52.4824158,7.60420567 52.3848984,8.03647167 C52.1955313,8.87656404 51.7326154,9.57666872 51.2146898,10.2456835 C51.0774987,10.4230788 50.9361401,10.597149 50.7839463,10.7886761 C51.320542,11.2224384 51.85147,11.6379126 52.3627278,12.0759975 C52.4692467,12.1674384 52.5600963,12.3420074 52.5619299,12.4796675 C52.5779328,13.6050554 52.5760991,14.7309421 52.5630968,15.85633 C52.5617632,15.970548 52.481749,16.1319828 52.3878989,16.1896736 C51.075665,16.9963485 49.7547629,17.7887254 48.4275263,18.5895813 C48.1569781,18.3884113 47.8527572,18.1258929 47.5138634,17.9204002 C47.1487984,17.6991133 46.7518943,17.6715148 46.370993,17.9204002 C45.932915,18.2066933 45.8665698,18.6545874 46.2309681,19.0291626 C46.3991647,19.202069 46.612036,19.3317488 46.8004029,19.4778879 C46.1772919,19.5284298 45.4049875,19.026835 45.0827634,18.3385345 C44.7231993,17.570431 44.7588723,16.8039901 45.2407916,16.1115333 C45.6041897,15.5893227 46.0449349,15.119649 46.4641763,14.6378387 C46.6107024,14.4694212 46.7960688,14.3344212 46.993604,14.1571921 L46.993604,14.1571921 Z M50.0841549,17.0211207 C50.0841549,15.8752833 50.0861553,14.7292796 50.0798208,13.5834421 C50.0793207,13.5008128 50.0386468,13.3942426 49.9789695,13.3400431 C49.665747,13.0549138 49.3403557,12.7829187 49.0251328,12.5115887 C47.7982475,13.3865948 45.6987065,15.6145936 45.4858353,16.2585037 C46.9330932,14.5779865 49.0264664,15.045 50.0841549,17.0211207 L50.0841549,17.0211207 Z M51.5559173,9.36519089 C50.9471421,9.84700123 50.3025272,10.1530788 49.5110528,9.92879926 C48.7732546,9.71981527 48.2751658,9.19461207 47.79408,8.53008621 C47.79408,9.52080665 47.7915796,10.4177586 47.7980808,11.3148768 C47.7987475,11.3998337 47.8315867,11.5108929 47.890764,11.5650924 C48.1861499,11.8359236 48.495205,12.0919581 48.816929,12.3681096 C49.8701168,11.4781404 50.8436236,10.5456096 51.5559173,9.36519089 L51.5559173,9.36519089 Z" id="Fill-9"></path>
                                        <path d="M41.6994937,7.24692118 C42.434458,8.52094212 43.1490854,9.75971675 43.8752148,11.0181096 C42.9072089,11.7275246 41.9520387,12.4277956 40.996535,13.127734 C40.6521403,13.3799446 40.3069121,13.6309914 39.9625174,13.883202 C39.4579274,14.2529557 39.4285889,14.7304433 39.8848369,15.1575554 C40.4812765,15.7160099 41.0785497,16.2734667 41.7021608,16.8563608 C42.0063817,16.6222722 42.3047682,16.394335 42.6011544,16.1640702 C42.8913728,15.9384606 43.1715894,15.6988855 43.4709761,15.4862438 C43.7566937,15.2830788 43.9915689,14.9896367 44.336297,14.882069 C44.3619683,14.9168165 44.3878062,14.9517303 44.4134774,14.9866441 C44.2841211,15.0948768 44.1574318,15.2064347 44.0250749,15.3111761 C42.6856695,16.3700616 41.3412631,17.4226293 40.0095258,18.4909914 C39.7884864,18.6682204 39.6609636,18.6663916 39.4507595,18.4697106 C38.6639526,17.7336946 37.854975,17.0209544 37.031995,16.2792857 C36.7346087,16.5113793 36.444557,16.7374877 36.154672,16.9637623 C36.1258335,16.9351663 36.096995,16.9065702 36.0681565,16.8779741 C36.1255001,16.800665 36.1663407,16.6937623 36.243021,16.6510345 C36.8162899,16.3316564 36.9563149,15.8636453 36.9353111,15.2159113 C36.8826351,13.5836084 36.92931,11.9481466 36.9131405,10.3143473 C36.9104733,10.0278879 37.0194928,9.91034483 37.2522009,9.78099754 C38.5672687,9.05063424 39.8710011,8.29965517 41.1779007,7.55482759 C41.3417632,7.46155788 41.5026252,7.36330049 41.6994937,7.24692118 L41.6994937,7.24692118 Z M39.6024532,13.8891872 C40.3502532,13.3435345 41.0427099,12.8384483 41.7393341,12.3300369 C41.0307078,11.1324938 40.343752,9.97185961 39.6569629,8.81122537 C39.638793,8.82036946 39.6206231,8.8296798 39.6024532,8.83899015 L39.6024532,13.8891872 L39.6024532,13.8891872 Z" id="Fill-12"></path>
                                        <path d="M17.9549278,18.6489347 C17.3171474,17.9154126 16.7115395,17.218633 16.0757595,16.4871059 C15.7807069,16.7315025 15.4921555,16.9702463 15.203604,17.2089901 C15.1645971,17.1650985 15.1254234,17.1210406 15.0862498,17.0769828 C15.2469451,16.9313424 15.3929711,16.7639224 15.5716696,16.6453818 C15.8608879,16.4530234 15.9339009,16.2064655 15.9304002,15.8678017 C15.9128971,14.1975924 15.9277331,12.5268842 15.9143974,10.8565086 C15.9130638,10.6860961 15.8370503,10.4885837 15.7321983,10.3522537 C15.4293109,9.95872537 15.0939178,9.59013547 14.7530237,9.19028941 C14.5038126,9.39943966 14.2637698,9.60094212 14.0235603,9.80261084 C13.9968889,9.79014163 13.9702175,9.77767241 13.9433794,9.7652032 C13.9678838,9.69371305 13.9707176,9.59794951 14.0200597,9.55439039 C14.8625432,8.80989532 15.7106944,8.07205049 16.5836834,7.30993227 C17.2476351,8.07753695 17.8954172,8.82635468 18.5645365,9.59994458 C18.8725914,9.34274631 19.1603093,9.1023399 19.4968693,8.82120074 C19.5103717,8.92494458 19.5383767,8.99460591 19.5210403,9.05013547 C19.5057042,9.09918103 19.4458602,9.14340517 19.3953512,9.17100369 C18.6928927,9.55439039 18.6025432,10.1678756 18.6297147,10.9035591 C18.6807238,12.2878079 18.6508852,13.6753818 18.6397165,15.0614594 C18.6373828,15.34875 18.6922259,15.5761884 18.9059306,15.7886638 C19.205484,16.0864286 19.4670307,16.4219335 19.7465805,16.7431404 C20.0407996,16.5102155 20.3136816,16.2940825 20.5865636,16.0779495 C20.6195694,16.1223399 20.6524086,16.1667303 20.6854145,16.2111207 C19.7832537,17.0166318 18.8810929,17.8221429 17.9549278,18.6489347" id="Fill-16"></path>
                                        <path d="M18.4040078,4.83969828 C17.7088839,5.46881158 17.0277625,6.08528941 16.3306383,6.71623153 C15.7728722,6.10075123 15.2352763,5.50754926 14.6596737,4.87245074 C15.3434623,4.24450123 16.0170824,3.62586207 16.7188741,2.98128695 C17.2836415,3.60408251 17.8347397,4.21191502 18.4040078,4.83969828" id="Fill-17"></path>
                                    </g>
                                    <path d="M83.7120431,10.0559483 C84.3959984,10.5771613 85.0404466,10.5716749 85.7128998,10.0729064 L85.7128998,11.8327278 C85.0409467,11.3810099 84.382496,11.3387808 83.7120431,11.8915825 L83.7120431,10.0559483" id="Fill-18"></path>
                                </g>
                            </g>
                        </g>
                    </g>
                </g>
            </g>
        </g>
    </g>
</svg>