<?xml version="1.0" encoding="UTF-8" standalone="no"?>
<svg
   width="300"
   height="90"
   viewBox="0 0 300 90"
   version="1.1"
   id="svg7464"
   sodipodi:docname="NYU.svg"
   inkscape:version="1.1.1 (3bf5ae0d25, 2021-09-20)"
   xmlns:inkscape="http://www.inkscape.org/namespaces/inkscape"
   xmlns:sodipodi="http://sodipodi.sourceforge.net/DTD/sodipodi-0.dtd"
   xmlns="http://www.w3.org/2000/svg"
   xmlns:svg="http://www.w3.org/2000/svg"
   xmlns:rdf="http://www.w3.org/1999/02/22-rdf-syntax-ns#"
   xmlns:cc="http://creativecommons.org/ns#"
   xmlns:dc="http://purl.org/dc/elements/1.1/"
   xmlns:sketch="http://www.bohemiancoding.com/sketch/ns">
  <sodipodi:namedview
     id="namedview7466"
     pagecolor="#ffffff"
     bordercolor="#666666"
     borderopacity="1.0"
     inkscape:pageshadow="2"
     inkscape:pageopacity="0.0"
     inkscape:pagecheckerboard="0"
     showgrid="false"
     inkscape:zoom="2.0139425"
     inkscape:cx="128.10694"
     inkscape:cy="-75.225584"
     inkscape:window-width="1866"
     inkscape:window-height="1016"
     inkscape:window-x="54"
     inkscape:window-y="27"
     inkscape:window-maximized="1"
     inkscape:current-layer="svg7464" />
  <!-- Generator: Sketch 3.3.3 (12072) - http://www.bohemiancoding.com/sketch -->
  <title
     id="title7445">Imported Layers</title>
  <desc
     id="desc7447">Created with Sketch.</desc>
  <defs
     id="defs7449" />
  <g
     id="Page-1"
     stroke="none"
     stroke-width="1"
     fill="none"
     fill-rule="evenodd"
     sketch:type="MSPage"
     transform="matrix(1.9913814,0,0,1.9913814,17.474259,-0.57098241)">
    <g
       id="Home---Desktop-Copy-2"
       sketch:type="MSArtboardGroup"
       transform="translate(-739,-2148)"
       fill="#b1b1b1">
      <g
         id="Group-+-Currently-in-use-at"
         sketch:type="MSLayerGroup"
         transform="translate(110,1814)">
        <g
           id="Group"
           sketch:type="MSShapeGroup">
          <g
             id="Row-3-+-Row-1-+-Row-2">
            <g
               transform="translate(0,93)"
               id="g7457">
              <g
                 id="Row-3"
                 transform="translate(46.079694,221.40588)">
                <g
                   id="Imported-Layers"
                   transform="translate(583,20)">
                  <path
                     d="M 0.04405495,0.03131336 H 45.247978 V 44.925138 H 0.04405495 Z M 21.21444,23.348571 C 21.1873,23.250901 21.1754,23.185783 21.15139,23.125438 21.06954,22.920553 20.976631,22.719816 20.900631,22.512857 20.484719,21.38288 20.326038,20.223041 20.513324,19.02712 c 0.245956,-1.569194 0.973384,-2.916705 2.032582,-4.072396 0.692143,-0.755254 1.482835,-1.421752 2.237615,-2.119355 0.133836,-0.123595 0.195847,-0.24636 0.19522,-0.427811 -0.0027,-0.80212 -0.155549,-1.581636 -0.349099,-2.354309 C 24.396,9.1196544 24.11956,8.1993318 23.692374,7.3310599 23.644769,7.234424 23.574824,7.1485714 23.477319,6.9998848 23.161626,8.0641244 22.62733,8.9230645 22.007011,9.7224885 21.246385,10.702327 20.436066,11.644009 19.65122,12.605599 c -0.822846,1.008456 -1.561759,2.069585 -2.045737,3.286244 -0.641824,1.613364 -0.603615,3.169286 0.401506,4.642673 0.79633,1.167304 1.899582,2.00053 3.059418,2.771959 0.0286,0.01908 0.0689,0.02032 0.148033,0.0421 z M 31.889725,13.41 c -0.02088,-10e-4 -0.04176,-0.0021 -0.06264,-0.0033 -0.03236,0.06014 -0.06076,0.122765 -0.09751,0.180207 -0.288549,0.451452 -0.542439,0.930277 -0.875044,1.347097 -0.917637,1.1503 -2.130296,1.901613 -3.458208,2.521244 -2.508627,1.170415 -3.971,3.156014 -4.455396,5.862028 -0.03341,0.187465 0.02192,0.252373 0.197725,0.241797 0.672726,-0.04002 1.35255,-0.03318 2.016506,-0.131682 2.533264,-0.375967 4.399857,-1.693203 5.539857,-3.987788 0.912626,-1.836912 1.17111,-3.81235 1.226439,-5.828433 0.0019,-0.06657 -0.02046,-0.133963 -0.03174,-0.201152 z M 28.080956,9.8717972 c -0.02965,0.00518 -0.0593,0.010369 -0.08915,0.015553 -0.02881,0.044378 -0.06055,0.086889 -0.08581,0.1329268 -0.206077,0.373064 -0.395033,0.756497 -0.619066,1.118571 -0.606121,0.979631 -1.304527,1.88129 -2.227593,2.59818 -0.745803,0.578986 -1.434814,1.220184 -2.028407,1.95864 -1.721901,2.142373 -2.165791,4.48818 -1.151275,7.068733 0.03967,0.100783 0.0973,0.194931 0.153044,0.304839 0.04468,-0.04604 0.0618,-0.05537 0.06514,-0.06823 0.03967,-0.152212 0.07746,-0.304839 0.11567,-0.457466 0.606748,-2.425437 1.946352,-4.308387 4.16977,-5.527534 0.618022,-0.339055 1.251912,-0.649908 1.882879,-0.96553 0.484187,-0.242212 0.820549,-0.584793 0.864813,-1.151129 0.01524,-0.195968 0.05992,-0.390691 0.06493,-0.586659 0.02965,-1.168548 -0.246165,-2.282558 -0.644747,-3.369608 C 28.41711,10.577696 28.239011,10.228272 28.080956,9.8717972 Z M 20.018275,23.574401 c -0.03529,-0.0815 -0.03737,-0.100784 -0.04802,-0.108664 -0.05742,-0.04189 -0.115671,-0.08253 -0.175594,-0.120276 -0.817209,-0.512834 -1.571153,-1.099286 -2.182703,-1.851429 -1.086341,-1.336313 -1.480956,-2.849723 -1.180923,-4.542097 0.182901,-1.032304 0.591714,-1.975645 1.156703,-2.853041 0.143231,-0.222511 0.202528,-0.432788 0.132583,-0.688687 -0.251176,-0.917212 -0.616143,-1.787765 -1.073396,-2.62099 -0.0357,-0.06512 -0.106483,-0.111152 -0.157011,-0.162374 -0.133835,0.434862 -0.235308,0.847328 -0.386681,1.240922 -0.512374,1.330714 -1.220385,2.564378 -1.945517,3.78871 -0.69423,1.172073 -0.952923,2.434562 -0.716154,3.774401 0.283539,1.604654 1.255044,2.686313 2.712198,3.366912 0.976099,0.455806 2.018176,0.648041 3.084473,0.733272 0.247417,0.0197 0.495879,0.028 0.780044,0.04334 z m -0.298154,3.680668 c 0,0.104931 -0.0081,0.191406 0.001,0.276014 0.232384,2.099447 0.468736,4.198687 0.699659,6.298341 0.212132,1.927327 0.419462,3.855069 0.626791,5.782811 0.019,0.176475 0.108363,0.290115 0.270385,0.35523 0.350978,0.141014 0.636396,-0.03816 0.685879,-0.435483 0.07224,-0.578572 0.13822,-1.157765 0.212132,-1.736129 0.215681,-1.687604 0.43533,-3.374793 0.65122,-5.062397 0.188956,-1.47712 0.375615,-2.954654 0.561857,-4.431981 0.04301,-0.342166 0.08038,-0.684747 0.122769,-1.046406 h -3.831736 z m 5.173846,-2.773825 c -0.05261,-0.01161 -0.07558,-0.02115 -0.09834,-0.02115 -2.09,-8.29e-4 -4.179791,2.08e-4 -6.269791,-0.0046 -0.157637,-2.07e-4 -0.183945,0.06926 -0.182901,0.200323 0.0038,0.513041 8.35e-4,1.025875 0.0031,1.538917 2.09e-4,0.05247 0.01816,0.104723 0.02735,0.1547 h 6.520549 v -1.868226 z"
                     id="Fill-1" />
                  <path
                     d="m 57.037582,9.5209217 h 0.268088 c 1.565517,-6.222e-4 3.131033,0.00145 4.696759,-0.00601 0.166615,-8.295e-4 0.259318,0.066982 0.35223,0.188295 1.854484,2.4248153 3.712099,4.8473503 5.568671,7.2709213 2.053461,2.680715 4.106505,5.361844 6.159967,8.042558 0.04593,0.06014 0.09625,0.117166 0.187703,0.227903 V 9.5344009 h 5.549044 V 35.034677 h -0.26955 c -1.41456,2.08e-4 -2.82912,-0.0035 -4.24389,0.0054 -0.196681,0.0012 -0.317153,-0.06159 -0.434076,-0.214839 -1.973913,-2.582419 -3.953045,-5.160898 -5.930715,-7.740207 -2.069538,-2.698756 -4.138868,-5.397512 -6.208615,-8.09606 -0.03195,-0.04147 -0.0689,-0.07901 -0.145736,-0.165899 v 16.197927 h -5.54988 V 9.5209217"
                     id="Fill-2" />
                  <path
                     d="m 110.53407,9.5306682 h 5.59978 c 0.005,0.1007834 0.0152,0.1990783 0.0152,0.2973733 8.3e-4,4.7044705 -0.003,9.4087325 0.003,14.1132025 10e-4,1.198618 0.15284,2.375668 0.66458,3.479516 0.71532,1.542235 1.93278,2.443687 3.60583,2.74189 1.0617,0.189124 2.1186,0.161958 3.16151,-0.130231 1.62336,-0.454562 2.67942,-1.506567 3.2442,-3.064562 0.31486,-0.868894 0.43491,-1.773871 0.43554,-2.693156 0.004,-4.815001 0.002,-9.63 0.002,-14.4447932 V 9.5360599 h 5.61314 c 0.005,0.088548 0.013,0.1723272 0.013,0.2563134 -0.003,4.9804837 0.0219,9.9613827 -0.0246,14.9416587 -0.0207,2.187373 -0.51676,4.285576 -1.68745,6.180138 -1.13416,1.835047 -2.76127,3.064148 -4.78925,3.780208 -1.73673,0.613203 -3.53609,0.793203 -5.36928,0.730368 -1.39702,-0.04769 -2.76398,-0.251336 -4.08375,-0.720829 -2.78924,-0.991866 -4.65855,-2.892857 -5.6478,-5.656728 -0.52114,-1.455968 -0.75499,-2.965645 -0.75937,-4.503733 -0.0138,-4.941083 -0.006,-9.882166 -0.007,-14.823456 0,-0.054539 0.006,-0.1092857 0.0104,-0.1893318"
                     id="Fill-3" />
                  <path
                     d="m 98.203066,35.020576 h -5.647385 v -0.31023 c 0,-3.149793 0.0027,-6.299586 -0.0061,-9.449378 -4.17e-4,-0.17606 -0.057,-0.375761 -0.151582,-0.524447 -2.489,-3.914586 -4.986352,-7.824194 -7.482868,-11.734217 -0.684627,-1.072327 -1.371132,-2.14341 -2.056385,-3.2153224 -0.04656,-0.072788 -0.09041,-0.1470277 -0.149494,-0.2434562 0.06932,-0.00954 0.118593,-0.022396 0.167868,-0.022396 2.066615,-0.00124 4.133022,6.222e-4 6.199428,-0.0056 0.162022,-4.148e-4 0.24011,0.065323 0.315693,0.192235 1.948648,3.2626036 3.900428,6.5233406 5.851791,9.7842856 0.05136,0.08585 0.104395,0.170668 0.175593,0.28659 0.370605,-0.606567 0.720956,-1.178295 1.069429,-1.75106 1.680351,-2.760553 3.361538,-5.520692 5.036666,-8.2843548 0.10231,-0.1688018 0.21318,-0.2289401 0.41425,-0.2281106 1.94719,0.00829 3.89458,0.00415 5.84176,0.00435 0.0766,0 0.15325,0.00809 0.26977,0.014516 -0.0695,0.1115668 -0.12068,0.1961751 -0.17414,0.2793318 -2.11861,3.2984786 -4.23659,6.5971656 -6.35622,9.8948156 -1.05127,1.635553 -2.103372,3.270483 -3.160899,4.902096 -0.112121,0.173157 -0.162022,0.344033 -0.161814,0.550784 0.0056,3.197074 0.0044,6.394355 0.0046,9.591428 v 0.268134"
                     id="Fill-4" />
                </g>
              </g>
            </g>
          </g>
        </g>
      </g>
    </g>
  </g>
  <metadata
     id="metadata7548">
    <rdf:RDF>
      <cc:Work
         rdf:about="">
        <dc:title>Imported Layers</dc:title>
      </cc:Work>
    </rdf:RDF>
  </metadata>
</svg>
