<?xml version="1.0" encoding="UTF-8" standalone="no"?>
<svg width="245px" height="46px" viewBox="0 0 245 46" version="1.1" xmlns="http://www.w3.org/2000/svg" xmlns:xlink="http://www.w3.org/1999/xlink" xmlns:sketch="http://www.bohemiancoding.com/sketch/ns">
    <!-- Generator: Sketch 3.3.3 (12072) - http://www.bohemiancoding.com/sketch -->
    <title>Imported Layers</title>
    <desc>Created with Sketch.</desc>
    <defs></defs>
    <g id="Page-1" stroke="none" stroke-width="1" fill="none" fill-rule="evenodd" sketch:type="MSPage">
        <g id="Home---Desktop-Copy-2" sketch:type="MSArtboardGroup" transform="translate(-110.000000, -2025.000000)" fill="#B1B1B1">
            <g id="Group-+-Currently-in-use-at" sketch:type="MSLayerGroup" transform="translate(131.000000, 1814.000000)">
                <g id="Group" sketch:type="MSShapeGroup">
                    <g transform="translate(25.000000, 0.000000)" id="Row-3-+-Row-1-+-Row-2">
                        <g transform="translate(0.000000, 93.000000)">
                            <g id="Row-2" transform="translate(5.837882, 103.088235)">
                                <g id="Imported-Layers" transform="translate(-51.000000, 15.000000)">
                                    <path d="M23.2024869,44.9412313 C17.2535186,44.7682836 11.8865254,43.1170522 7.3992077,39.1160821 C3.23006327,35.398209 0.844099037,30.7047761 0.268500688,25.1563433 C-0.492363136,17.8196642 1.68014305,11.4766791 7.07096561,6.37052239 C10.5973865,3.03011194 14.87863,1.20996269 19.6696891,0.583320896 C24.5332435,-0.0527238806 29.2820138,0.411716418 33.7693315,2.46593284 C40.860099,5.71231343 45.0534085,11.2714925 46.2821348,18.9500373 C47.3010949,25.3185448 45.8968363,31.1799627 41.9089298,36.3099627 C38.5610619,40.6168657 34.0925392,43.1691045 28.7842806,44.2289552 C26.949414,44.595 25.0645392,44.7108582 23.2024869,44.9412313 L23.2024869,44.9412313 Z M6.44905089,22.5117537 C6.50275103,26.9069776 7.8274663,30.8310448 10.9239505,34.0173134 C14.7806272,37.9863806 19.577392,39.4596269 25.0091609,39.0136567 C33.8139697,38.2906343 40.0693645,31.6393657 40.2046217,22.7988806 C40.2848363,17.5721642 38.4251334,13.1366418 34.3382173,9.78850746 C30.809447,6.89742537 26.6731939,5.84126866 22.1674168,6.07970149 C13.0837029,6.56093284 6.51550481,13.4277985 6.44905089,22.5117537 L6.44905089,22.5117537 Z" id="Fill-1"></path>
                                    <path d="M65.422542,0.976231343 C65.5584704,0.963134328 65.6594938,0.944328358 65.7605172,0.944664179 C69.7309711,0.951044776 73.7027675,0.903358209 77.671879,0.987313433 C80.267945,1.04238806 82.768022,1.65660448 85.0274553,2.99720149 C88.930784,5.31268657 90.5649464,8.87037313 90.5055406,13.2981716 C90.4642586,16.3766418 89.4996699,19.1219776 87.1610289,21.1963433 C86.052121,22.1799627 84.7170014,22.9080224 83.45874,23.769403 C83.404033,23.6649627 83.4181293,23.7388433 83.4620963,23.7690672 C85.9715708,25.4941791 87.8715488,27.7945522 89.5036974,30.3175746 C92.4541843,34.8783582 95.2788116,39.5217537 98.5689519,43.8545149 C98.6283576,43.9327612 98.666619,44.0277985 98.7461623,44.171194 C98.5810344,44.1926866 98.4662503,44.2202239 98.3514663,44.2202239 C96.1990977,44.2229104 94.0463934,44.2081343 91.8940248,44.2343284 C91.4540193,44.2400373 91.2744594,44.0140299 91.0730839,43.7037313 C88.6830922,40.0244776 86.3125667,36.3321269 83.8792792,32.6817537 C82.5565777,30.6973881 81.0851939,28.8214925 79.2509986,27.2632836 C77.7906905,26.0224254 76.1249794,25.3716045 74.1944594,25.4202985 C73.3637854,25.4414552 72.5317689,25.4239925 71.6363191,25.4239925 L71.6363191,44.1792537 L65.422542,44.1792537 L65.422542,0.976231343 L65.422542,0.976231343 Z M71.6567923,19.8208209 C73.2865915,19.8208209 74.8526217,19.8513806 76.4166382,19.8080597 C77.2050234,19.7862313 78.0031417,19.6928731 78.7730674,19.5239552 C81.3500028,18.9577612 83.2580358,17.5926493 83.8574635,14.878209 C84.0440715,14.0332836 84.0702503,13.1373134 84.0554828,12.2668657 C84.0111802,9.63906716 82.5508721,7.70070896 80.0581788,6.86720149 C77.3177937,5.95041045 74.4914883,6.30436567 71.6567923,6.22544776 L71.6567923,19.8208209 L71.6567923,19.8208209 Z" id="Fill-2"></path>
                                    <path d="M108.005744,25.1509701 L108.005744,38.6113433 L126.885706,38.6113433 L126.885706,44.1795896 L101.839961,44.1795896 L101.839961,0.995373134 L126.283928,0.995373134 L126.283928,6.48772388 L108.014135,6.48772388 L108.014135,19.5471269 L125.676446,19.5471269 L125.676446,25.1509701 L108.005744,25.1509701" id="Fill-3"></path>
                                    <path d="M216.313216,43.9048881 L210.141056,43.9048881 L210.141056,43.1187313 C210.141056,36.0497015 210.134008,28.9803358 210.153475,21.911306 C210.155153,21.2883582 209.993045,20.8118284 209.606069,20.3228731 C204.56027,13.9459701 199.533937,7.5536194 194.502905,1.16462687 C194.387114,1.01753731 194.276693,0.86641791 194.103175,0.637052239 C194.33912,0.61858209 194.507604,0.594067164 194.676088,0.594067164 C196.78751,0.591380597 198.898597,0.60380597 201.009684,0.581977612 C201.411428,0.577947761 201.64838,0.710932836 201.888688,1.02391791 C205.418465,5.61425373 208.961331,10.1945149 212.501513,14.776791 C212.691142,15.0222761 212.88312,15.2657463 213.117722,15.5659701 C213.29359,15.3591045 213.441937,15.1958955 213.577865,15.0229478 C217.221755,10.3889552 220.869001,5.75731343 224.498795,1.11257463 C224.798845,0.728731343 225.103593,0.574925373 225.592264,0.580634328 C227.785915,0.607164179 229.980572,0.59238806 232.318206,0.59238806 C232.122872,0.856007463 231.989629,1.04541045 231.847323,1.22742537 C226.814613,7.66813433 221.783917,14.1105224 216.741139,20.5431716 C216.440083,20.9270149 216.303147,21.303806 216.304154,21.7944403 C216.317579,28.8846269 216.313216,35.9748134 216.313216,43.065 L216.313216,43.9048881" id="Fill-4"></path>
                                    <path d="M145.47468,44.1772388 L145.47468,0.987985075 L151.616968,0.987985075 L151.616968,38.6026119 L171.147037,38.6026119 L171.147037,44.1772388 L145.47468,44.1772388" id="Fill-5"></path>
                                    <path d="M201.041232,44.1926866 L175.399081,44.1926866 L175.399081,0.992014925 L181.494382,0.992014925 L181.494382,38.6167164 L201.041232,38.6167164 L201.041232,44.1926866" id="Fill-6"></path>
                                    <path d="M132.903813,0.973544776 L138.984011,0.973544776 L138.984011,44.1722015 L132.903813,44.1722015 L132.903813,0.973544776" id="Fill-7"></path>
                                    <path d="M51.253425,17.9949627 L51.253425,15.2116791 C52.278762,15.0306716 53.2275763,14.7311194 53.9521926,13.9725 C55.1607813,12.7064552 55.3228886,11.1163433 55.2769078,9.48156716 C55.2735516,9.35966418 54.9456451,9.1511194 54.7644072,9.14608209 C53.6175736,9.11518657 52.4697331,9.13063433 51.2718845,9.13063433 L51.2718845,1.00477612 L58.7432517,1.00477612 C58.773458,1.05985075 58.8097056,1.09511194 58.80937,1.13037313 C58.7764787,4.30455224 58.8523301,7.48477612 58.6784759,10.6515672 C58.4448803,14.911791 55.3940413,17.8589552 51.253425,17.9949627" id="Fill-8"></path>
                                    <path d="M236.035934,4.52753731 C236.073188,2.37660448 237.824149,0.678358209 239.954702,0.726044776 C242.052363,0.773395522 243.744924,2.52705224 243.721095,4.62929104 C243.697601,6.72649254 241.949662,8.44354478 239.853343,8.4294403 C237.715406,8.415 235.99868,6.66 236.035934,4.52753731 L236.035934,4.52753731 Z M242.999499,4.56682836 C242.993458,2.83869403 241.567384,1.43462687 239.831862,1.4480597 C238.12252,1.46149254 236.734036,2.85649254 236.725309,4.5691791 C236.716583,6.28623134 238.155411,7.73126866 239.872138,7.72958955 C241.607659,7.72824627 243.005205,6.3144403 242.999499,4.56682836 L242.999499,4.56682836 Z" id="Fill-9"></path>
                                    <path d="M238.131917,2.58313433 C238.901508,2.58313433 239.668077,2.55022388 240.430619,2.5938806 C240.987087,2.62578358 241.357953,2.96563433 241.440182,3.53552239 C241.518382,4.07753731 241.266663,4.45970149 240.782691,4.69578358 C240.691065,4.74011194 240.597425,4.78007463 240.505128,4.82205224 C240.875994,5.4 241.235785,5.9608209 241.607659,6.54078358 C240.828336,6.77518657 240.353425,6.5925 240.057403,5.87921642 C239.914091,5.53399254 239.594239,5.26197761 239.354267,4.95705224 C239.286135,4.99130597 239.218338,5.02589552 239.150206,5.06048507 L239.150206,6.57470149 L238.131917,6.57470149 L238.131917,2.58313433 L238.131917,2.58313433 Z M239.156248,4.35458955 C239.610349,4.21723881 239.986922,4.12354478 240.340671,3.97477612 C240.3937,3.95261194 240.391015,3.5630597 240.325232,3.53216418 C239.979538,3.36895522 239.605315,3.26619403 239.156248,3.11406716 L239.156248,4.35458955 L239.156248,4.35458955 Z" id="Fill-10"></path>
                                </g>
                            </g>
                        </g>
                    </g>
                </g>
            </g>
        </g>
    </g>
</svg>