<?xml version="1.0" encoding="UTF-8" standalone="no"?>
<svg width="208px" height="63px" viewBox="0 0 208 63" version="1.1" xmlns="http://www.w3.org/2000/svg" xmlns:xlink="http://www.w3.org/1999/xlink" xmlns:sketch="http://www.bohemiancoding.com/sketch/ns">
    <!-- Generator: Sketch 3.3.3 (12072) - http://www.bohemiancoding.com/sketch -->
    <title>Imported Layers Copy 4</title>
    <desc>Created with Sketch.</desc>
    <defs></defs>
    <g id="Page-1" stroke="none" stroke-width="1" fill="none" fill-rule="evenodd" sketch:type="MSPage">
        <g id="About---Desktop" sketch:type="MSArtboardGroup" transform="translate(-362.000000, -1705.000000)" fill="#015629">
            <g id="Imported-Layers-Copy-4-+-Imported-Layers-Copy-5" sketch:type="MSLayerGroup" transform="translate(362.000000, 1705.000000)">
                <g id="Imported-Layers-Copy-4" sketch:type="MSShapeGroup">
                    <path d="M105.865409,16.766625 C105.8662,20.4869833 105.858819,24.2073415 105.872264,27.9276997 C105.8749,28.6649257 105.926043,29.4053112 106.007767,30.1385877 C106.195995,31.8307847 107.032213,32.6696425 108.719939,32.8702733 C109.561693,32.9703254 110.407929,33.057476 111.254165,33.0848587 C111.806195,33.1027628 111.971752,33.341308 111.948816,33.8476243 C111.922717,34.419501 111.638793,34.5390369 111.099417,34.529295 C107.615351,34.4658409 104.130758,34.4263467 100.646165,34.406073 C99.4930697,34.3994906 98.3381293,34.4539927 97.1863523,34.5179733 C96.6915285,34.545356 96.3456527,34.5090213 96.2916096,33.8971237 C96.2378302,33.2883857 96.5299265,33.1048691 97.0695665,33.0516835 C97.7607909,32.9834901 98.4480608,32.8697467 99.1348035,32.7604793 C100.281835,32.5780158 100.903726,31.8450026 101.052147,30.7494321 C101.188968,29.7399591 101.273065,28.7154783 101.275965,27.6973166 C101.293891,21.2573844 101.293364,14.8177155 101.272274,8.37804662 C101.268056,7.0544627 101.216385,5.72403311 101.066646,4.4104544 C100.937997,3.28091888 100.339042,2.81146392 99.1954373,2.67955312 C98.6333891,2.61478256 98.0723954,2.53948019 97.5095564,2.48603131 C97.1062104,2.44759024 96.8618302,2.30067163 96.877384,1.84174846 C96.8924106,1.39756981 97.1404816,1.22063558 97.5338099,1.18877688 C98.6840051,1.09478057 99.8344639,0.937593463 100.984923,0.935750398 C104.380674,0.929957909 107.784071,0.854918836 111.169541,1.05818257 C114.342003,1.24854485 117.398733,2.02131565 120.0102,4.02709689 C123.908684,7.02128753 124.974783,12.3156232 122.366479,16.1676289 C120.550895,18.8490251 117.934155,20.3274265 114.747458,20.6594415 C112.830641,20.8590191 110.884826,20.7905624 108.951665,20.8060968 C108.742347,20.8076766 108.362991,20.5791365 108.353237,20.4374838 C108.327138,20.0564959 108.577054,19.8600779 109.012826,19.8161076 C110.414783,19.6747182 111.850748,19.6270618 113.202089,19.2721402 C116.422003,18.4267 118.128183,16.1826367 118.571072,12.9369994 C118.769318,11.4828212 118.756928,10.0267999 118.41237,8.59315863 C117.623077,5.30802702 115.443691,3.42441465 112.206114,2.85543418 C110.664436,2.58450363 109.048679,2.65085397 107.470621,2.69877366 C106.325171,2.7332653 105.871209,3.34042355 105.867518,4.49628856 C105.860401,6.54130076 105.864619,8.58631296 105.864619,10.6315884 C105.864355,12.6766006 105.864619,14.7216128 105.865409,16.766625" id="Fill-1"></path>
                    <path d="M29.668076,2.20509555 C29.7951432,3.74326489 29.9282738,5.32066518 30.0542864,6.89859206 C30.1130748,7.63555474 30.1373283,8.37567696 30.2172066,9.11000669 C30.2643954,9.5457599 30.1273105,9.78799129 29.6838935,9.79904968 C29.2726388,9.80905489 28.8505754,9.84723267 28.7287807,9.27140652 C28.5898504,8.61422222 28.4409024,7.9530885 28.2186667,7.32065393 C27.1528314,4.28459939 24.8993663,2.68481902 21.8078378,2.16797096 C13.5967148,0.795414168 7.43975665,5.83224735 6.02593663,13.4738579 C5.05869708,18.7005267 5.98402028,23.5762234 9.28012167,27.8381794 C11.9037161,31.2309987 15.3379569,33.2459952 19.7317921,33.2362533 C24.3012015,33.2262481 27.7283245,31.3007718 29.6506768,27.0232814 C29.9029658,26.4614099 30.5641369,26.27763 31.0349708,26.6594077 C31.1601926,26.7613029 31.2282079,27.044345 31.1918276,27.2168032 C30.7431381,29.3513357 30.0616679,31.4050367 29.0277313,33.3363054 C28.8134043,33.7365138 28.5215716,33.9163443 28.0831635,34.0292978 C24.4219417,34.9721572 20.6958682,35.2075429 16.9402687,35.0406139 C12.3321065,34.8360337 8.17606084,33.4292485 4.8317161,30.1330586 C2.09212674,27.433495 0.671716096,24.0583165 0.186910013,20.2945146 C-0.391219265,15.8069148 0.456334601,11.5970912 3.20963245,7.94755931 C6.41583777,3.69771486 10.7419214,1.21642286 16.0067731,0.351498813 C20.0025349,-0.3048956 23.8451305,0.329382034 27.626038,1.60820581 C28.2803549,1.82963689 28.9531255,1.9976191 29.668076,2.20509555" id="Fill-2"></path>
                    <path d="M140.299559,35.2538828 C137.169278,35.2430877 134.187153,34.616709 131.543523,32.8826481 C127.389587,30.1578083 125.503878,26.1917958 125.601947,21.3058307 C125.752477,13.8137717 131.028664,8.25614104 138.544345,7.52260119 C141.499052,7.23402988 144.375199,7.52523414 147.108198,8.7153275 C150.878033,10.3567085 153.327371,13.1995045 154.362626,17.1636739 C155.519148,21.5922956 154.99638,25.8131776 152.268918,29.5851417 C149.756046,33.0606356 146.196583,34.739931 141.995721,35.1812134 C141.541759,35.2288698 141.082788,35.2317661 140.62619,35.253093 C140.517577,35.2580956 140.408436,35.2538828 140.299559,35.2538828 L140.299559,35.2538828 Z M150.058687,22.2576421 C150.003853,22.2471103 149.949019,22.2368418 149.894185,22.22631 C149.850423,18.8571873 149.182925,15.6602595 147.175158,12.8677528 C143.113227,7.21849548 134.734439,8.02444144 131.815584,14.333516 C131.075326,15.9335597 130.739731,17.6318124 130.642454,19.3790379 C130.454753,22.7444745 130.961967,25.9795801 132.702155,28.9174256 C134.759747,32.3908131 137.869465,33.9716362 141.868127,33.4845405 C145.712831,33.016402 148.101009,30.6691272 149.173171,27.0377626 C149.629769,25.4919577 149.773181,23.8537363 150.058687,22.2576421 L150.058687,22.2576421 Z" id="Fill-3"></path>
                    <path d="M56.1365374,34.5437762 C54.2215665,34.5437762 52.3065957,34.5298216 50.3918885,34.5535182 C49.8960101,34.5595739 49.5873054,34.4437241 49.5485526,33.9058125 C49.5126996,33.4079217 49.7030368,33.137781 50.2339772,33.0882815 C50.7079747,33.0443113 51.178545,32.9403097 51.6443701,32.8342019 C52.2103726,32.7051873 52.4357719,32.3376275 52.3071229,31.7683837 C52.2641521,31.5780215 52.2156451,31.3873959 52.148948,31.2046692 C51.5307478,29.512209 50.8919848,27.8268577 50.2940837,26.1272886 C50.0354677,25.3913791 49.5633156,25.029875 48.7924766,25.0296117 C46.5933181,25.0288219 44.3941597,25.0222395 42.1950013,25.0251357 C41.5565019,25.0261889 41.0408517,25.252096 40.8128162,25.9021713 C40.1809075,27.703899 39.5218454,29.4972011 38.9389708,31.3149898 C38.6223574,32.3026093 38.8456477,32.5946034 39.862185,32.8255131 C40.2855665,32.9218791 40.7136933,33.0035005 41.1436654,33.0640584 C41.6714423,33.1385709 41.8362079,33.4761151 41.7855919,33.9400408 C41.7349759,34.4055464 41.4613333,34.5735286 40.9731001,34.554308 C39.1680608,34.4826918 37.3617034,34.4302961 35.5556096,34.4160782 C34.6213232,34.4087059 33.685455,34.4869045 32.7516958,34.5461459 C32.3277871,34.5732653 32.076289,34.4237137 32.0393815,33.9895403 C32.0048466,33.5798533 32.017237,33.1896501 32.5410596,33.0809093 C32.8813992,33.0106095 33.2180482,32.9205626 33.559706,32.8586883 C35.0212421,32.5940768 36.0725779,31.7923436 36.6536071,30.4318984 C37.3010697,28.9158458 37.9324512,27.3911045 38.5169075,25.8497756 C40.2636857,21.2426399 41.9978099,16.6307648 43.7060989,12.0091478 C44.1795691,10.7282177 44.0888821,10.6010462 42.8300735,10.074193 C42.4723346,9.9243781 42.0903422,9.82037658 41.7099316,9.73928172 C41.1489379,9.6197458 41.058251,9.22217036 41.0867224,8.7571914 C41.1173029,8.25956387 41.3838276,8.0476114 41.9026413,8.05709002 C43.9024994,8.09342473 45.9036755,8.07578397 47.9016882,8.15055975 C48.1550317,8.16003836 48.5127706,8.55419097 48.6158479,8.84328887 C49.0671736,10.1097378 49.3945957,11.4204202 49.8538302,12.6837096 C51.7527199,17.9056392 53.6827174,23.1165103 55.6024335,28.3310676 C55.7975158,28.8605539 56.0345146,29.3774019 56.1926895,29.91742 C56.7441926,31.8010323 57.9850748,32.8265663 59.9361622,33.027987 C60.3703523,33.0727471 60.8314322,33.1559483 60.8222053,33.7636332 C60.8145602,34.2675798 60.6505856,34.5940656 60.0513663,34.5582575 C58.7477414,34.4808487 57.4422712,34.4342455 56.1378555,34.3750042 C56.1373283,34.4313493 56.136801,34.4874311 56.1365374,34.5437762 L56.1365374,34.5437762 Z M45.4634221,13.3756488 C45.2572674,13.6492123 45.1373181,13.7532139 45.0864385,13.8840715 C44.0480203,16.5549359 42.9958935,19.2210609 41.9996553,21.9074597 C41.734185,22.6233588 42.0468441,23.057269 42.8284918,23.1049254 C44.0654195,23.1802277 45.308147,23.1723289 46.5485019,23.1773315 C47.1345399,23.1797011 47.7218961,23.1457361 48.306616,23.0993962 C48.7779772,23.0622716 48.9427427,22.7713306 48.8372928,22.324519 C48.7777136,22.0714925 48.7176071,21.8158331 48.6282383,21.5722852 C47.791493,19.2884645 46.9544842,17.004907 46.1024487,14.7268787 C45.9463828,14.3098195 45.7223016,13.9180365 45.4634221,13.3756488 L45.4634221,13.3756488 Z" id="Fill-4"></path>
                    <path d="M194.953207,21.6199416 C195.627559,20.4688159 196.281876,19.4006281 196.888477,18.3058476 C198.089288,16.1384032 199.283772,13.9670094 200.442667,11.777185 C201.264913,10.2232179 201.114383,9.95676338 199.409521,9.65950334 C199.216811,9.62580158 199.020674,9.61158365 198.826119,9.59025676 C198.364248,9.53970412 198.176284,9.23375534 198.20871,8.82301515 C198.241926,8.40226976 198.431209,8.09447791 198.948705,8.09763745 C201.689349,8.11343515 204.429992,8.11975423 207.170636,8.1108022 C207.591381,8.10948573 207.781719,8.30827344 207.821526,8.67399019 C207.864497,9.06656302 207.899032,9.4830957 207.355965,9.59604925 C206.994008,9.67135161 206.637323,9.78720141 206.271939,9.82643236 C204.879209,9.97598392 203.909861,10.7271645 203.196755,11.8880321 C201.171062,15.1860652 199.131924,18.4756728 197.106758,21.7737059 C196.359381,22.9911819 196.020096,24.3150291 196.070976,25.7515666 C196.131346,27.4461332 196.113683,29.143596 196.188289,30.8373727 C196.244441,32.1133002 196.791199,32.6659564 198.058444,32.8657973 C198.702743,32.9671658 199.349678,33.0743269 199.99925,33.1132946 C200.624831,33.1509457 200.685465,33.5279842 200.655412,34.0063912 C200.622986,34.5206063 200.323508,34.6088101 199.853465,34.606967 C195.826332,34.5901162 191.798935,34.5877465 187.771539,34.6130228 C187.250616,34.6161824 187.035498,34.4031767 187.00439,33.9561018 C186.97381,33.5145561 187.062651,33.1498926 187.648953,33.1125047 C188.320406,33.0698509 188.988958,32.9621632 189.654875,32.8573718 C190.849359,32.6688526 191.446996,32.1275181 191.491022,30.9326854 C191.563255,28.9790366 191.589881,27.0172256 191.481795,25.0672629 C191.439351,24.3008112 191.068431,23.512506 190.700674,22.8105616 C188.864264,19.3068951 186.939275,15.849042 185.127909,12.3327374 C184.247402,10.6239529 182.888416,9.79404708 181.04726,9.63422702 C180.44435,9.58183132 180.243204,9.27035334 180.31781,8.72980873 C180.392943,8.18373491 180.736183,8.10421983 181.257369,8.10974902 C184.412431,8.14318749 187.568284,8.14661032 190.72361,8.11238197 C191.267731,8.10658948 191.638915,8.17978549 191.718003,8.75245209 C191.797354,9.32827824 191.45965,9.52785584 190.927919,9.63870303 C189.201176,9.99862729 189.00583,10.3709264 189.809886,11.9367417 C191.388208,15.0099209 193.012401,18.05993 194.620512,21.1181014 C194.698018,21.2655465 194.804786,21.3977206 194.953207,21.6199416" id="Fill-5"></path>
                    <path d="M2.52209886,45.4570903 L2.52209886,44.674051 L205.669556,44.674051 L205.669556,45.4570903 L2.52209886,45.4570903" id="Fill-6"></path>
                    <path d="M73.3401673,34.337353 C70.0967909,34.4042299 66.8534144,34.4655776 63.610038,34.5435129 C63.1431584,34.5545713 62.7988644,34.5077048 62.7477212,33.9334585 C62.6963143,33.3578956 62.9404309,33.09855 63.496943,33.0264072 C64.0782357,32.9513681 64.6555741,32.8384146 65.2300127,32.7194053 C66.1745805,32.5235138 66.7052573,31.9295203 66.8201977,30.9784988 C66.8826768,30.4611241 66.9475285,29.9400633 66.948583,29.4205823 C66.9586008,24.0046043 66.959128,18.5883631 66.9514829,13.1723851 C66.950692,12.6747576 66.8966489,12.1739705 66.8281065,11.6802924 C66.6783676,10.6007829 66.2265146,10.1136872 65.1540887,9.87408876 C64.6244664,9.75560601 64.087199,9.65818686 63.5483498,9.59604925 C63.0066008,9.53338504 62.7134499,9.31853633 62.7524664,8.72375294 C62.7914829,8.12554672 63.1349861,8.05366719 63.6371914,8.06446228 C66.3143016,8.12186059 68.9919392,8.17057016 71.6698403,8.1895274 C72.6481521,8.19663637 73.627782,8.12423025 74.6058302,8.06630535 C75.0339569,8.04076573 75.2730646,8.19584648 75.3102357,8.62896674 C75.3476705,9.06656302 75.3257896,9.45939915 74.7761318,9.58472756 C74.1624132,9.7248005 73.5502763,9.876985 72.9473663,10.0570788 C72.1820634,10.2858821 71.753673,10.8364319 71.6384689,11.6099926 C71.558327,12.1455346 71.4976933,12.6900287 71.4963752,13.2305733 C71.4855665,18.3637725 71.4858302,23.4972349 71.4942662,28.630434 C71.4953207,29.1499151 71.5517364,29.6715024 71.6163245,30.1880872 C71.8066616,31.7062461 72.3394474,32.4055576 73.8473815,32.5282531 C75.5938961,32.6704324 77.3691458,32.6572676 79.1177693,32.5243037 C80.8711381,32.3908131 82.1162383,31.3315774 82.9485019,29.8110488 C83.2706515,29.2220579 83.55273,28.6075274 83.8039645,27.985098 C84.0325272,27.4195404 84.4553815,27.412958 84.9296426,27.5090607 C85.4239392,27.6093761 85.4537288,27.9756194 85.3548695,28.3676656 C84.882981,30.2360069 84.3987022,32.1011886 83.9247047,33.9690033 C83.7997465,34.460575 83.4910418,34.5577309 83.008872,34.554308 C79.7865856,34.5311381 76.5637719,34.5421965 73.3412218,34.5421965 C73.3409582,34.4740031 73.3406946,34.4058097 73.3401673,34.337353" id="Fill-7"></path>
                    <path d="M170.181962,34.3339301 C166.590337,34.4015969 162.998449,34.4642612 159.407087,34.5427231 C158.943899,34.5529916 158.588005,34.51771 158.534753,33.9442535 C158.482555,33.3813289 158.707691,33.1022362 159.271584,33.0282503 C159.85235,32.9518947 160.430479,32.8399944 161.001754,32.7083469 C161.655544,32.5577421 162.081825,32.1630629 162.160385,31.4661211 C162.197029,31.1430581 162.241318,30.8184154 162.241582,30.4942993 C162.2458,24.5346172 162.243691,18.574935 162.242373,12.6152529 C162.242373,12.4414782 162.241318,12.2671769 162.234464,12.0934022 C162.174094,10.517845 161.786302,10.0594484 160.248314,9.76482134 C159.821506,9.68293659 159.390479,9.62132557 158.95998,9.56103101 C158.468056,9.49204772 158.30329,9.17556715 158.340198,8.73086191 C158.377105,8.2845769 158.571924,8.04603163 159.092583,8.05945968 C161.660553,8.12502013 164.229313,8.17214993 166.798074,8.19058058 C167.819883,8.19795284 168.843275,8.12712649 169.864558,8.06604205 C170.324319,8.03839608 170.5687,8.20453522 170.599544,8.66898758 C170.629597,9.11790554 170.567645,9.48572864 170.019833,9.59367959 C169.466484,9.70294701 168.91999,9.85144539 168.376132,10.0023134 C167.508542,10.242965 167.009237,10.8158949 166.905105,11.7124144 C166.850271,12.1863454 166.783047,12.6631726 166.781992,13.1386834 C166.773029,18.3369164 166.771447,23.5354127 166.78252,28.7336457 C166.783838,29.3178973 166.860025,29.9039919 166.931204,30.4853473 C167.056426,31.5066685 167.617683,32.1641161 168.643975,32.3489492 C169.412177,32.4874424 170.189607,32.6356774 170.965719,32.6543714 C172.268553,32.6859668 173.58035,32.6899162 174.876593,32.5743297 C176.673196,32.4142464 178.001602,31.4450575 178.875782,29.8818751 C179.213749,29.2776131 179.504264,28.6417557 179.762352,27.9987894 C179.987752,27.4371811 180.400324,27.4066389 180.878804,27.5064277 C181.395245,27.6141154 181.429252,27.9674573 181.315894,28.4058434 C180.838996,30.2507514 180.371853,32.0980291 179.903128,33.9450434 C179.782651,34.419501 179.499782,34.5603638 179.001004,34.5558878 C176.06185,34.529295 173.122433,34.5427231 170.183016,34.5427231 C170.182753,34.4732132 170.182226,34.4037033 170.181962,34.3339301" id="Fill-8"></path>
                    <path d="M52.5557212,53.6642585 L53.6468644,53.6642585 L53.6468644,62.3803759 C52.6348086,62.6834284 52.3050139,62.5836396 51.7071128,61.8045497 C50.1580532,59.7863936 48.6084664,57.7682375 47.0580887,55.7511346 C46.9159949,55.5660382 46.7667833,55.3869976 46.5036857,55.0594587 C46.4825957,55.4659861 46.4612421,55.6937363 46.4607148,55.9214865 C46.4580786,57.813261 46.459924,59.7047722 46.4588695,61.5962834 C46.4583422,62.5744243 46.4572877,62.5744243 45.4254601,62.4372476 L45.4254601,53.7332418 C46.4520152,53.4559922 46.7174854,53.5402466 47.3396401,54.350142 C48.8763093,56.3506573 50.4121876,58.3516992 51.9491204,60.351688 C52.1051863,60.5549517 52.267052,60.7534761 52.5557212,61.1170865 L52.5557212,53.6642585" id="Fill-9"></path>
                    <path d="M124.097176,62.7792678 C121.626748,62.7358241 119.660634,61.3743257 119.124948,59.2969282 C118.411052,56.5275915 120.213982,53.8814769 123.068512,53.5010156 C124.68216,53.2856403 126.204066,53.4981194 127.507691,54.5407675 C128.978454,55.7171695 129.452715,57.3040485 129.078104,59.0915582 C128.677131,61.004133 127.364279,62.1025997 125.511787,62.5778471 C125.053343,62.69554 124.569328,62.7147605 124.097176,62.7792678 L124.097176,62.7792678 Z M124.114048,54.3572509 C121.838966,54.3493521 120.160994,55.9096382 120.142276,58.0512796 C120.123559,60.1684347 121.830793,61.8219272 124.051305,61.8374616 C126.288953,61.8532593 127.993288,60.2476865 128.002778,58.1147337 C128.012796,55.9391272 126.384122,54.3654131 124.114048,54.3572509 L124.114048,54.3572509 Z" id="Fill-10"></path>
                    <path d="M183.257754,62.7766348 C181.022215,62.7368773 179.19925,61.6428866 178.465845,59.8622226 C177.296669,57.0241659 179.126753,53.9199179 182.210373,53.500489 C183.584913,53.3135496 184.904882,53.4517794 186.119138,54.1621493 C187.738586,55.1100113 188.612766,56.9709803 188.307752,58.7621761 C187.973475,60.7253036 186.583118,62.1744792 184.609359,62.590222 C184.165414,62.6836917 183.708553,62.716077 183.257754,62.7766348 L183.257754,62.7766348 Z M183.23851,54.3572509 C180.957364,54.356461 179.317881,55.9138509 179.320253,58.0797155 C179.322362,60.230309 180.994271,61.8366717 183.231655,61.8377249 C185.45164,61.8387781 187.168365,60.2058226 187.175483,58.0860346 C187.182864,55.9491324 185.503047,54.3580408 183.23851,54.3572509 L183.23851,54.3572509 Z" id="Fill-11"></path>
                    <path d="M135.057379,62.445673 L135.057379,53.5655229 C136.513115,53.640562 137.929308,53.6247643 139.318347,53.8111771 C140.599037,53.983372 141.22251,54.82144 141.184284,55.9341246 C141.161349,56.6015774 140.847635,57.0891997 140.300086,57.4404353 C140.102895,57.5668169 139.890677,57.6700285 139.601217,57.8301118 C139.865105,57.9264778 140.054651,57.9899319 140.239716,58.0644444 C141.09676,58.4101507 141.641409,58.9983517 141.69308,59.959905 C141.745805,60.9451549 141.283407,61.6392005 140.415817,62.0396722 C139.987954,62.2371434 139.508157,62.4093383 139.045496,62.427769 C137.74398,62.4796381 136.4393,62.445673 135.057379,62.445673 L135.057379,62.445673 Z M136.087888,61.6489424 C137.160314,61.5873314 138.140471,61.6023392 139.095848,61.4554206 C140.056233,61.3079754 140.554221,60.6960778 140.530231,59.9517429 C140.50545,59.1721264 139.936284,58.5552263 138.998834,58.4438525 C138.181333,58.3469599 137.349597,58.3466966 136.524715,58.3559119 C136.377612,58.357755 136.113724,58.6105182 136.10766,58.755857 C136.068907,59.6636982 136.087888,60.573909 136.087888,61.6489424 L136.087888,61.6489424 Z M136.091843,57.4736104 C137.094935,57.4143691 137.987569,57.4277971 138.856477,57.2908837 C139.675032,57.1618692 140.052542,56.6171118 140.019326,55.8922607 C139.988745,55.224018 139.545592,54.7435047 138.747599,54.6510881 C138.018413,54.5668337 137.277627,54.5605146 136.542114,54.5660438 C136.391321,54.567097 136.117414,54.7672012 136.111878,54.8854207 C136.073916,55.7008453 136.091843,56.5186395 136.091843,57.4736104 L136.091843,57.4736104 Z" id="Fill-12"></path>
                    <path d="M30.6039442,62.4464629 C30.7004309,62.2221356 30.7689734,62.0444115 30.851488,61.8737963 C32.1021242,59.2935054 33.3651508,56.7187437 34.5957516,54.1287109 C34.7863523,53.7279759 35.0141242,53.6208148 35.4353967,53.6144957 C35.8469151,53.60844 35.9919087,53.7982756 36.1416477,54.1213386 C37.3474677,56.7226931 38.5683143,59.317202 39.7833612,61.9143438 C39.8553308,62.068108 39.9175463,62.226085 39.986616,62.3869583 C38.9294804,62.6613116 38.7285982,62.640248 38.4154119,61.6678996 C38.0537186,60.5454731 37.421019,60.1639587 36.2642332,60.2992923 C35.2975209,60.4125091 34.3068188,60.3358903 33.3271888,60.3164064 C32.9536324,60.3090342 32.7076705,60.4077698 32.5787579,60.7813854 C32.4801622,61.0673238 32.3298961,61.3358847 32.2025653,61.6120811 C31.7636299,62.5623127 31.7636299,62.5623127 30.6039442,62.4464629 L30.6039442,62.4464629 Z M37.3340228,59.3538 C36.6681065,57.8530185 36.0422611,56.442284 35.3423371,54.8646204 C34.6076147,56.4459701 33.9485526,57.8640769 33.2560101,59.3538 L37.3340228,59.3538 L37.3340228,59.3538 Z" id="Fill-13"></path>
                    <path d="M79.1204056,53.6621521 L80.1366793,53.6621521 C80.1511787,53.9412448 80.1730596,54.1942713 80.1759594,54.4475611 C80.1949404,56.1215907 80.160142,57.7979899 80.2408112,59.4685966 C80.3135716,60.9717477 81.2098961,61.7866457 82.6600963,61.8358818 C84.1545856,61.8864345 85.1447605,61.1368336 85.2676096,59.6126189 C85.4017947,57.9485946 85.341161,56.2687726 85.3640963,54.5957962 C85.3683143,54.297483 85.3646236,53.9989064 85.3646236,53.6668914 L86.3824791,53.6668914 C86.4009328,53.8577803 86.4344132,54.0449831 86.4346768,54.2319225 C86.4386312,55.8411815 86.4333587,57.4507038 86.4370494,59.0599628 C86.4399493,60.3961848 86.1156907,61.6086583 84.8415919,62.2621564 C83.4177541,62.9922734 81.9346008,62.9680503 80.529744,62.173426 C79.6289379,61.6636869 79.1715488,60.7800689 79.1396502,59.7892899 C79.0747985,57.7713971 79.1204056,55.7503447 79.1204056,53.6621521" id="Fill-14"></path>
                    <path d="M168.342124,58.5152054 L168.342124,62.4409337 L167.216183,62.4409337 L167.216183,58.0952499 L167.216183,53.6350328 C168.843275,53.687955 170.450332,53.4275563 172.012046,53.9367688 C172.991412,54.2561456 173.499944,54.9902121 173.536852,55.9894166 C173.572968,56.9607118 173.096598,57.7977266 172.148867,58.1329011 C171.506677,58.3601247 170.800426,58.4320042 170.115529,58.5033571 C169.559544,58.561282 168.99275,58.5152054 168.342124,58.5152054 L168.342124,58.5152054 Z M168.38035,54.6266017 L168.38035,57.5352215 C169.262702,57.5352215 170.108938,57.5897235 170.944629,57.5202136 C171.82039,57.4475442 172.32655,56.8580267 172.328923,56.0794635 C172.331295,55.2887886 171.85308,54.7237575 170.952537,54.6426627 C170.118692,54.5673603 169.272984,54.6266017 168.38035,54.6266017 L168.38035,54.6266017 Z" id="Fill-15"></path>
                    <path d="M154.605952,61.5436244 C154.940492,61.2971803 155.20148,61.1049749 155.495949,60.8880199 C156.322413,61.7050242 157.291498,62.0370392 158.414276,61.7131864 C158.739589,61.6194534 159.071229,61.4585801 159.3309,61.2447846 C160.084867,60.6241983 159.980735,59.5175694 159.108401,59.0791833 C158.55057,58.7990374 157.929207,58.6463263 157.340269,58.4259484 C156.873125,58.2511205 156.388056,58.1044652 155.952548,57.8688162 C154.637323,57.1576564 154.397952,55.4488719 155.437161,54.3783145 C156.684106,53.0936983 159.455331,53.0963312 160.788218,54.4386091 C160.509303,54.6674124 160.234342,54.8925296 159.959118,55.1184367 C159.018768,54.2037499 157.966114,54.1684684 156.852826,54.6131736 C156.32294,54.8245995 156.018454,55.2413955 155.993673,55.8161685 C155.968365,56.4009466 156.256507,56.837753 156.787711,57.0481257 C157.613911,57.3754014 158.467265,57.6339571 159.298738,57.9485946 C160.102793,58.2529636 160.764755,58.7134665 160.952456,59.634999 C161.143321,60.5725925 160.887341,61.361161 160.150773,61.9683192 C158.880101,63.0154434 156.27127,63.0064914 155.006398,61.9625267 C154.877222,61.8558923 154.772563,61.7195055 154.605952,61.5436244" id="Fill-16"></path>
                    <path d="M26.1671381,54.4565131 C25.8787326,54.6861064 25.6256527,54.887527 25.3385653,55.1163304 C24.5268644,54.2848448 23.5514525,54.1947979 22.5140887,54.4999568 C21.8879797,54.6845266 21.4369176,55.0647246 21.386038,55.7758843 C21.3338403,56.5020519 21.7527402,56.9164782 22.3651407,57.1510741 C23.0940634,57.4304301 23.8475032,57.6452788 24.5806439,57.9143662 C25.8729328,58.3890871 26.4281267,59.1144648 26.3941191,60.2389977 C26.361166,61.3337783 25.6580786,62.2052847 24.4137693,62.5322971 C22.8278023,62.9493564 21.3151229,62.8587829 19.961673,61.5810123 C20.2880406,61.3314086 20.5685374,61.1168232 20.875924,60.8817008 C21.7179417,61.722665 22.6941445,62.0370392 23.8142864,61.7084471 C24.1577896,61.6078684 24.5086743,61.4248784 24.7746717,61.1881762 C25.4556147,60.5815445 25.3412015,59.5194125 24.533455,59.1031431 C23.9787883,58.8177314 23.3579518,58.6623873 22.7705957,58.4383233 C22.264436,58.245328 21.7342864,58.0897207 21.266616,57.8261624 C20.0650139,57.1487044 19.812725,55.5797296 20.6945501,54.5133848 C21.8605627,53.1037035 24.8471686,53.0394595 26.1671381,54.4565131" id="Fill-17"></path>
                    <path d="M106.105044,54.461779 C105.83852,54.6745214 105.573577,54.885684 105.286753,55.1147506 C104.454226,54.2795789 103.476177,54.1945346 102.434596,54.5070658 C101.802951,54.6963749 101.364542,55.1047454 101.317354,55.7972112 C101.270956,56.4804617 101.678783,56.9017337 102.266139,57.1302738 C103.013252,57.4209514 103.786728,57.643699 104.53964,57.9201587 C105.807676,58.3859276 106.345734,59.0823428 106.328071,60.1908147 C106.309881,61.3198237 105.649237,62.1420939 104.403082,62.5191323 C103.24366,62.8698413 102.082393,62.862469 100.969632,62.3416715 C100.610048,62.173426 100.298707,61.9019689 99.8729531,61.6155039 C100.243346,61.3285124 100.50908,61.1223524 100.811721,60.8874933 C101.642403,61.6881734 102.603843,62.0417785 103.725567,61.7160826 C104.05088,61.621823 104.384101,61.466479 104.64509,61.2545265 C105.425156,60.6207755 105.303888,59.5080908 104.391219,59.0573298 C103.850788,58.7903487 103.252096,58.6429035 102.684248,58.4293712 C102.197861,58.2466445 101.691701,58.0939334 101.240112,57.8445931 C100.039564,57.181353 99.7601217,55.6055325 100.619275,54.5386612 C101.783706,53.0923818 104.833582,53.0289277 106.105044,54.461779" id="Fill-18"></path>
                    <path d="M69.3135615,61.6065519 L73.8154829,61.6065519 L73.8154829,62.4625239 L68.2925425,62.4625239 L68.2925425,53.6803195 L69.3135615,53.6803195 L69.3135615,61.6065519" id="Fill-19"></path>
                    <path d="M92.8188796,53.6526735 L93.8108999,53.6526735 L93.8108999,62.416184 C92.8344335,62.6202376 92.7830266,62.585746 92.7824994,61.7026546 C92.7809176,59.269019 92.7809176,56.8353834 92.7835539,54.4014845 C92.7835539,54.1687317 92.8049075,53.9357156 92.8188796,53.6526735" id="Fill-20"></path>
                    <path d="M147.49019,53.6355593 C147.738261,53.6355593 147.911726,53.6329264 148.084928,53.6363492 C148.191432,53.6387189 148.297937,53.6500406 148.454793,53.6608357 L148.454793,62.4641037 L147.49019,62.4641037 L147.49019,53.6355593" id="Fill-21"></path>
                </g>
            </g>
        </g>
    </g>
</svg>