<?xml version="1.0" encoding="UTF-8" standalone="no"?>
<svg width="254px" height="154px" viewBox="0 0 254 154" version="1.1" xmlns="http://www.w3.org/2000/svg" xmlns:xlink="http://www.w3.org/1999/xlink" xmlns:sketch="http://www.bohemiancoding.com/sketch/ns">
    <!-- Generator: Sketch 3.3.3 (12072) - http://www.bohemiancoding.com/sketch -->
    <title>Notebook Document Fo + Rectangle 123 + Nb + Triangle 1</title>
    <desc>Created with Sketch.</desc>
    <defs></defs>
    <g id="Page-1" stroke="none" stroke-width="1" fill="none" fill-rule="evenodd" sketch:type="MSPage">
        <g id="Rectangle-128-+-Notebook-Document-Fo-+-Rectangle-123-+-Nb-+-Triangle-1-+-Rectangle-128-Copy-+-Share-Notebooks.-+-The-Notebook-has-sup-+-Fill-1-Copy-+-Rectangle-125-+-&gt;_-+-Rectangle-128-Copy-2-+-Interactive-Computin-+-Line-+-Line-Copy-3" sketch:type="MSLayerGroup" transform="translate(-20.000000, -529.000000)">
            <g id="Interactive-Computin-+-Line-+-Line-Copy-3" transform="translate(27.000000, 543.000000)" sketch:type="MSShapeGroup">
                <g id="Line-+-Line-Copy-3" transform="translate(92.000000, 0.000000)" stroke="#979797" stroke-width="2.1" stroke-linecap="square">
                    <path d="M0.261425061,12.9155844 L52.6565111,12.9155844 L39.5577396,0" id="Line"></path>
                    <path d="M3.34348894,38.7467532 L55.7385749,38.7467532 L42.6398034,25.8311688" id="Line-Copy-3" transform="translate(29.541032, 32.288961) scale(-1, -1) translate(-29.541032, -32.288961) "></path>
                </g>
                <path d="M61.196,79.008 L61.196,99 L63.1,99 L63.1,79.008 L61.196,79.008 Z M66.908,84.552 L66.908,99 L68.672,99 L68.672,90.572 C68.6906668,89.8626631 68.8073323,89.2046697 69.022,88.598 C69.2366677,87.9913303 69.5353314,87.4686689 69.918,87.03 C70.3006686,86.5913311 70.7673306,86.2460013 71.318,85.994 C71.8686694,85.7419987 72.4986631,85.616 73.208,85.616 C73.9173369,85.616 74.5099976,85.7279989 74.986,85.952 C75.4620024,86.1760011 75.8399986,86.483998 76.12,86.876 C76.4000014,87.268002 76.5959994,87.7299973 76.708,88.262 C76.8200006,88.7940027 76.876,89.3679969 76.876,89.984 L76.876,99 L78.64,99 L78.64,89.704 C78.64,88.845329 78.5560008,88.0706701 78.388,87.38 C78.2199992,86.6893299 77.9306687,86.1060024 77.52,85.63 C77.1093313,85.1539976 76.5633367,84.7853346 75.882,84.524 C75.2006633,84.2626654 74.356005,84.132 73.348,84.132 C72.3213282,84.132 71.378671,84.3979973 70.52,84.93 C69.661329,85.4620027 69.0640017,86.1666623 68.728,87.044 L68.672,87.044 L68.672,84.552 L66.908,84.552 Z M84.772,84.552 L84.772,80.212 L83.008,80.212 L83.008,84.552 L80.488,84.552 L80.488,86.036 L83.008,86.036 L83.008,95.92 C82.9893332,97.1520062 83.213331,97.9966644 83.68,98.454 C84.146669,98.9113356 84.9679941,99.14 86.144,99.14 C86.4053346,99.14 86.6666654,99.1306668 86.928,99.112 C87.1893346,99.0933332 87.4506654,99.084 87.712,99.084 L87.712,97.6 C87.2079975,97.6560003 86.7040025,97.684 86.2,97.684 C85.5653302,97.6466665 85.1686675,97.4646683 85.01,97.138 C84.8513325,96.8113317 84.772,96.3586696 84.772,95.78 L84.772,86.036 L87.712,86.036 L87.712,84.552 L84.772,84.552 Z M100.648,90.768 L91.296,90.768 C91.370667,90.1146634 91.5246655,89.4753365 91.758,88.85 C91.9913345,88.2246635 92.303998,87.6740024 92.696,87.198 C93.088002,86.7219976 93.5639972,86.3393348 94.124,86.05 C94.6840028,85.7606652 95.3279964,85.616 96.056,85.616 C96.7653369,85.616 97.3999972,85.7606652 97.96,86.05 C98.5200028,86.3393348 98.995998,86.7219976 99.388,87.198 C99.780002,87.6740024 100.083332,88.2199969 100.298,88.836 C100.512668,89.4520031 100.629333,90.0959966 100.648,90.768 L100.648,90.768 Z M91.296,92.252 L102.412,92.252 C102.449334,91.243995 102.356001,90.2500049 102.132,89.27 C101.907999,88.2899951 101.539336,87.4220038 101.026,86.666 C100.512664,85.9099962 99.8453374,85.298669 99.024,84.832 C98.2026626,84.365331 97.2133391,84.132 96.056,84.132 C94.9173276,84.132 93.9326708,84.3513311 93.102,84.79 C92.2713292,85.2286689 91.5946693,85.8073297 91.072,86.526 C90.5493307,87.2446703 90.1620013,88.0613288 89.91,88.976 C89.6579987,89.8906712 89.532,90.8239952 89.532,91.776 C89.532,92.8026718 89.6579987,93.7779954 89.91,94.702 C90.1620013,95.6260046 90.5493307,96.4379965 91.072,97.138 C91.5946693,97.8380035 92.2713292,98.3886647 93.102,98.79 C93.9326708,99.1913353 94.9173276,99.392 96.056,99.392 C97.8853425,99.392 99.2993283,98.9440045 100.298,98.048 C101.296672,97.1519955 101.982665,95.8826749 102.356,94.24 L100.592,94.24 C100.311999,95.3600056 99.8080036,96.2559966 99.08,96.928 C98.3519964,97.6000034 97.3440064,97.936 96.056,97.936 C95.2159958,97.936 94.4973363,97.7586684 93.9,97.404 C93.3026637,97.0493316 92.808002,96.601336 92.416,96.06 C92.023998,95.518664 91.7393342,94.9073367 91.562,94.226 C91.3846658,93.5446633 91.296,92.8866698 91.296,92.252 L91.296,92.252 Z M104.792,84.552 L104.792,99 L106.556,99 L106.556,91.3 C106.556,90.5346628 106.686665,89.8300032 106.948,89.186 C107.209335,88.5419968 107.577998,87.986669 108.054,87.52 C108.530002,87.053331 109.094663,86.6940013 109.748,86.442 C110.401337,86.1899987 111.129329,86.0826665 111.932,86.12 L111.932,84.356 C110.625327,84.2999997 109.500671,84.5893302 108.558,85.224 C107.615329,85.8586698 106.920002,86.7639941 106.472,87.94 L106.416,87.94 L106.416,84.552 L104.792,84.552 Z M113.444,88.976 L115.208,88.976 C115.245334,87.7999941 115.618663,86.9460027 116.328,86.414 C117.037337,85.8819973 117.951994,85.616 119.072,85.616 C119.594669,85.616 120.084664,85.6579996 120.542,85.742 C120.999336,85.8260004 121.400665,85.9799989 121.746,86.204 C122.091335,86.4280011 122.361999,86.7313314 122.558,87.114 C122.754001,87.4966686 122.852,87.9866637 122.852,88.584 C122.852,88.976002 122.800667,89.2933321 122.698,89.536 C122.595333,89.7786679 122.450668,89.9699993 122.264,90.11 C122.077332,90.2500007 121.844001,90.3479997 121.564,90.404 C121.283999,90.4600003 120.957335,90.5066665 120.584,90.544 C119.631995,90.6560006 118.694005,90.7726661 117.77,90.894 C116.845995,91.0153339 116.015337,91.2253318 115.278,91.524 C114.540663,91.8226682 113.948002,92.2566638 113.5,92.826 C113.051998,93.3953362 112.828,94.183995 112.828,95.192 C112.828,95.9200036 112.953999,96.5499973 113.206,97.082 C113.458001,97.6140027 113.803331,98.0526649 114.242,98.398 C114.680669,98.7433351 115.193997,98.9953325 115.782,99.154 C116.370003,99.3126675 116.999997,99.392 117.672,99.392 C118.381337,99.392 118.992664,99.3266673 119.506,99.196 C120.019336,99.0653327 120.476665,98.8786679 120.878,98.636 C121.279335,98.3933321 121.643332,98.0900018 121.97,97.726 C122.296668,97.3619982 122.618665,96.946669 122.936,96.48 L122.992,96.48 C122.992,96.8533352 123.015333,97.1939985 123.062,97.502 C123.108667,97.8100015 123.206666,98.0759989 123.356,98.3 C123.505334,98.5240011 123.715332,98.6966661 123.986,98.818 C124.256668,98.9393339 124.615998,99 125.064,99 C125.306668,99 125.507333,98.9906668 125.666,98.972 C125.824667,98.9533332 126.006666,98.9253335 126.212,98.888 L126.212,97.404 C126.043999,97.478667 125.857334,97.516 125.652,97.516 C124.96133,97.516 124.616,97.1613369 124.616,96.452 L124.616,88.78 C124.616,87.8093285 124.457335,87.0206697 124.14,86.414 C123.822665,85.8073303 123.412003,85.3360017 122.908,85 C122.403997,84.6639983 121.83467,84.4353339 121.2,84.314 C120.56533,84.1926661 119.93067,84.132 119.296,84.132 C118.455996,84.132 117.69067,84.2253324 117,84.412 C116.30933,84.5986676 115.707336,84.887998 115.194,85.28 C114.680664,85.672002 114.274668,86.1759969 113.976,86.792 C113.677332,87.4080031 113.5,88.1359958 113.444,88.976 L113.444,88.976 Z M122.852,91.104 L122.852,93.4 C122.852,94.1093369 122.716668,94.7439972 122.446,95.304 C122.175332,95.8640028 121.811336,96.339998 121.354,96.732 C120.896664,97.124002 120.360003,97.4226656 119.744,97.628 C119.127997,97.8333344 118.484003,97.936 117.812,97.936 C117.401331,97.936 117.000002,97.8706673 116.608,97.74 C116.215998,97.6093327 115.870668,97.4180013 115.572,97.166 C115.273332,96.9139987 115.035334,96.6153351 114.858,96.27 C114.680666,95.9246649 114.592,95.5280022 114.592,95.08 C114.592,94.3706631 114.801998,93.8246686 115.222,93.442 C115.642002,93.0593314 116.178663,92.7653344 116.832,92.56 C117.485337,92.3546656 118.208663,92.2006672 119.002,92.098 C119.795337,91.9953328 120.56533,91.8786673 121.312,91.748 C121.554668,91.7106665 121.834665,91.6453338 122.152,91.552 C122.469335,91.4586662 122.683999,91.3093344 122.796,91.104 L122.852,91.104 Z M138.336,89.088 L140.1,89.088 C139.894666,87.4266584 139.255339,86.1853374 138.182,85.364 C137.108661,84.5426626 135.797341,84.132 134.248,84.132 C133.146661,84.132 132.171338,84.3373313 131.322,84.748 C130.472662,85.1586687 129.75867,85.7093299 129.18,86.4 C128.60133,87.0906701 128.162668,87.8979954 127.864,88.822 C127.565332,89.7460046 127.416,90.7306614 127.416,91.776 C127.416,92.8213386 127.565332,93.8059954 127.864,94.73 C128.162668,95.6540046 128.60133,96.4613299 129.18,97.152 C129.75867,97.8426701 130.472662,98.3886647 131.322,98.79 C132.171338,99.1913353 133.146661,99.392 134.248,99.392 C135.890675,99.392 137.234661,98.9020049 138.28,97.922 C139.325339,96.9419951 139.969332,95.5746754 140.212,93.82 L138.448,93.82 C138.392,94.4173363 138.242668,94.9679975 138,95.472 C137.757332,95.9760025 137.449335,96.4099982 137.076,96.774 C136.702665,97.1380018 136.273336,97.4226656 135.788,97.628 C135.302664,97.8333344 134.789336,97.936 134.248,97.936 C133.407996,97.936 132.67067,97.7586684 132.036,97.404 C131.40133,97.0493316 130.874002,96.5826696 130.454,96.004 C130.033998,95.4253304 129.716668,94.767337 129.502,94.03 C129.287332,93.292663 129.18,92.5413372 129.18,91.776 C129.18,91.0106628 129.287332,90.259337 129.502,89.522 C129.716668,88.784663 130.033998,88.1266696 130.454,87.548 C130.874002,86.9693304 131.40133,86.5026684 132.036,86.148 C132.67067,85.7933316 133.407996,85.616 134.248,85.616 C135.424006,85.616 136.338663,85.9239969 136.992,86.54 C137.645337,87.1560031 138.093332,88.0053279 138.336,89.088 L138.336,89.088 Z M145.476,84.552 L145.476,80.212 L143.712,80.212 L143.712,84.552 L141.192,84.552 L141.192,86.036 L143.712,86.036 L143.712,95.92 C143.693333,97.1520062 143.917331,97.9966644 144.384,98.454 C144.850669,98.9113356 145.671994,99.14 146.848,99.14 C147.109335,99.14 147.370665,99.1306668 147.632,99.112 C147.893335,99.0933332 148.154665,99.084 148.416,99.084 L148.416,97.6 C147.911997,97.6560003 147.408003,97.684 146.904,97.684 C146.26933,97.6466665 145.872667,97.4646683 145.714,97.138 C145.555333,96.8113317 145.476,96.3586696 145.476,95.78 L145.476,86.036 L148.416,86.036 L148.416,84.552 L145.476,84.552 Z M150.992,79.008 L150.992,81.836 L152.756,81.836 L152.756,79.008 L150.992,79.008 Z M150.992,84.552 L150.992,99 L152.756,99 L152.756,84.552 L150.992,84.552 Z M154.52,84.552 L160.092,99 L161.968,99 L167.372,84.552 L165.552,84.552 L161.072,97.236 L161.016,97.236 L156.48,84.552 L154.52,84.552 Z M179.496,90.768 L170.144,90.768 C170.218667,90.1146634 170.372666,89.4753365 170.606,88.85 C170.839335,88.2246635 171.151998,87.6740024 171.544,87.198 C171.936002,86.7219976 172.411997,86.3393348 172.972,86.05 C173.532003,85.7606652 174.175996,85.616 174.904,85.616 C175.613337,85.616 176.247997,85.7606652 176.808,86.05 C177.368003,86.3393348 177.843998,86.7219976 178.236,87.198 C178.628002,87.6740024 178.931332,88.2199969 179.146,88.836 C179.360668,89.4520031 179.477333,90.0959966 179.496,90.768 L179.496,90.768 Z M170.144,92.252 L181.26,92.252 C181.297334,91.243995 181.204001,90.2500049 180.98,89.27 C180.755999,88.2899951 180.387336,87.4220038 179.874,86.666 C179.360664,85.9099962 178.693337,85.298669 177.872,84.832 C177.050663,84.365331 176.061339,84.132 174.904,84.132 C173.765328,84.132 172.780671,84.3513311 171.95,84.79 C171.119329,85.2286689 170.442669,85.8073297 169.92,86.526 C169.397331,87.2446703 169.010001,88.0613288 168.758,88.976 C168.505999,89.8906712 168.38,90.8239952 168.38,91.776 C168.38,92.8026718 168.505999,93.7779954 168.758,94.702 C169.010001,95.6260046 169.397331,96.4379965 169.92,97.138 C170.442669,97.8380035 171.119329,98.3886647 171.95,98.79 C172.780671,99.1913353 173.765328,99.392 174.904,99.392 C176.733342,99.392 178.147328,98.9440045 179.146,98.048 C180.144672,97.1519955 180.830665,95.8826749 181.204,94.24 L179.44,94.24 C179.159999,95.3600056 178.656004,96.2559966 177.928,96.928 C177.199996,97.6000034 176.192006,97.936 174.904,97.936 C174.063996,97.936 173.345336,97.7586684 172.748,97.404 C172.150664,97.0493316 171.656002,96.601336 171.264,96.06 C170.871998,95.518664 170.587334,94.9073367 170.41,94.226 C170.232666,93.5446633 170.144,92.8866698 170.144,92.252 L170.144,92.252 Z M16.018,119.056 L17.922,119.056 C17.7913327,118.010661 17.4786691,117.086671 16.984,116.284 C16.4893309,115.481329 15.873337,114.804669 15.136,114.254 C14.398663,113.703331 13.5773379,113.288001 12.672,113.008 C11.7666621,112.727999 10.8380048,112.588 9.886,112.588 C8.31799216,112.588 6.94133926,112.872664 5.756,113.442 C4.57066074,114.011336 3.58600392,114.776662 2.802,115.738 C2.01799608,116.699338 1.43000196,117.805327 1.038,119.056 C0.64599804,120.306673 0.45,121.62266 0.45,123.004 C0.45,124.38534 0.64599804,125.701327 1.038,126.952 C1.43000196,128.202673 2.01799608,129.303995 2.802,130.256 C3.58600392,131.208005 4.57066074,131.968664 5.756,132.538 C6.94133926,133.107336 8.31799216,133.392 9.886,133.392 C11.0620059,133.392 12.1306619,133.205335 13.092,132.832 C14.0533381,132.458665 14.8886631,131.92667 15.598,131.236 C16.3073369,130.54533 16.8859978,129.705338 17.334,128.716 C17.7820022,127.726662 18.0713327,126.616006 18.202,125.384 L16.298,125.384 C16.2046662,126.280004 15.9900017,127.115329 15.654,127.89 C15.3179983,128.664671 14.879336,129.34133 14.338,129.92 C13.796664,130.49867 13.1526704,130.955998 12.406,131.292 C11.6593296,131.628002 10.819338,131.796 9.886,131.796 C8.56066004,131.796 7.42200476,131.544003 6.47,131.04 C5.51799524,130.535997 4.7386697,129.868671 4.132,129.038 C3.5253303,128.207329 3.07733478,127.264672 2.788,126.21 C2.49866522,125.155328 2.354,124.086672 2.354,123.004 C2.354,121.902661 2.49866522,120.829339 2.788,119.784 C3.07733478,118.738661 3.5253303,117.800671 4.132,116.97 C4.7386697,116.139329 5.51799524,115.472003 6.47,114.968 C7.42200476,114.463997 8.56066004,114.212 9.886,114.212 C10.6140036,114.212 11.30933,114.319332 11.972,114.534 C12.63467,114.748668 13.2413306,115.061331 13.792,115.472 C14.3426694,115.882669 14.8093314,116.39133 15.192,116.998 C15.5746686,117.60467 15.8499992,118.290663 16.018,119.056 L16.018,119.056 Z M26.882,119.616 C27.7220042,119.616 28.4593302,119.793332 29.094,120.148 C29.7286698,120.502668 30.2559979,120.96933 30.676,121.548 C31.0960021,122.12667 31.4133323,122.784663 31.628,123.522 C31.8426677,124.259337 31.95,125.010663 31.95,125.776 C31.95,126.541337 31.8426677,127.292663 31.628,128.03 C31.4133323,128.767337 31.0960021,129.42533 30.676,130.004 C30.2559979,130.58267 29.7286698,131.049332 29.094,131.404 C28.4593302,131.758668 27.7220042,131.936 26.882,131.936 C26.0419958,131.936 25.3046698,131.758668 24.67,131.404 C24.0353302,131.049332 23.5080021,130.58267 23.088,130.004 C22.6679979,129.42533 22.3506677,128.767337 22.136,128.03 C21.9213323,127.292663 21.814,126.541337 21.814,125.776 C21.814,125.010663 21.9213323,124.259337 22.136,123.522 C22.3506677,122.784663 22.6679979,122.12667 23.088,121.548 C23.5080021,120.96933 24.0353302,120.502668 24.67,120.148 C25.3046698,119.793332 26.0419958,119.616 26.882,119.616 L26.882,119.616 Z M26.882,118.132 C25.7806612,118.132 24.8053376,118.337331 23.956,118.748 C23.1066624,119.158669 22.3926696,119.70933 21.814,120.4 C21.2353304,121.09067 20.7966682,121.897995 20.498,122.822 C20.1993318,123.746005 20.05,124.730661 20.05,125.776 C20.05,126.821339 20.1993318,127.805995 20.498,128.73 C20.7966682,129.654005 21.2353304,130.46133 21.814,131.152 C22.3926696,131.84267 23.1066624,132.388665 23.956,132.79 C24.8053376,133.191335 25.7806612,133.392 26.882,133.392 C27.9833388,133.392 28.9586624,133.191335 29.808,132.79 C30.6573376,132.388665 31.3713304,131.84267 31.95,131.152 C32.5286696,130.46133 32.9673318,129.654005 33.266,128.73 C33.5646682,127.805995 33.714,126.821339 33.714,125.776 C33.714,124.730661 33.5646682,123.746005 33.266,122.822 C32.9673318,121.897995 32.5286696,121.09067 31.95,120.4 C31.3713304,119.70933 30.6573376,119.158669 29.808,118.748 C28.9586624,118.337331 27.9833388,118.132 26.882,118.132 L26.882,118.132 Z M36.346,118.552 L36.346,133 L38.11,133 L38.11,124.936 C38.11,124.170663 38.1939992,123.466003 38.362,122.822 C38.5300008,122.177997 38.7866649,121.618002 39.132,121.142 C39.4773351,120.665998 39.9253306,120.292668 40.476,120.022 C41.0266694,119.751332 41.6753296,119.616 42.422,119.616 C42.9820028,119.616 43.457998,119.709332 43.85,119.896 C44.242002,120.082668 44.5546655,120.339332 44.788,120.666 C45.0213345,120.992668 45.1893328,121.375331 45.292,121.814 C45.3946672,122.252669 45.446,122.714664 45.446,123.2 L45.446,133 L47.21,133 L47.21,124.824 C47.21,124.151997 47.2706661,123.503336 47.392,122.878 C47.5133339,122.252664 47.7233318,121.697336 48.022,121.212 C48.3206682,120.726664 48.7219975,120.339335 49.226,120.05 C49.7300025,119.760665 50.3646628,119.616 51.13,119.616 C52.3993397,119.616 53.2859975,119.928664 53.79,120.554 C54.2940025,121.179336 54.546,122.089327 54.546,123.284 L54.546,133 L56.31,133 L56.31,123.2 C56.31,119.821316 54.714016,118.132 51.522,118.132 C50.5699952,118.132 49.6740042,118.365331 48.834,118.832 C47.9939958,119.298669 47.3593355,120.007995 46.93,120.96 C46.6686654,120.007995 46.1506705,119.298669 45.376,118.832 C44.6013295,118.365331 43.7380048,118.132 42.786,118.132 C41.6099941,118.132 40.6440038,118.383997 39.888,118.888 C39.1319962,119.392003 38.520669,120.091996 38.054,120.988 L37.97,120.988 L37.97,118.552 L36.346,118.552 Z M59.67,118.552 L59.67,138.32 L61.434,138.32 L61.434,130.256 L61.49,130.256 C61.6766676,130.778669 61.9426649,131.235998 62.288,131.628 C62.6333351,132.020002 63.0299978,132.346665 63.478,132.608 C63.9260022,132.869335 64.4113307,133.065333 64.934,133.196 C65.4566693,133.326667 65.9793307,133.392 66.502,133.392 C67.6033388,133.392 68.5599959,133.191335 69.372,132.79 C70.1840041,132.388665 70.860664,131.838004 71.402,131.138 C71.943336,130.437997 72.3446654,129.626005 72.606,128.702 C72.8673346,127.777995 72.998,126.802672 72.998,125.776 C72.998,124.749328 72.8673346,123.774005 72.606,122.85 C72.3446654,121.925995 71.943336,121.114004 71.402,120.414 C70.860664,119.713997 70.1840041,119.158669 69.372,118.748 C68.5599959,118.337331 67.6033388,118.132 66.502,118.132 C65.3259941,118.132 64.2760046,118.407331 63.352,118.958 C62.4279954,119.508669 61.7606687,120.287995 61.35,121.296 L61.294,121.296 L61.294,118.552 L59.67,118.552 Z M71.234,125.776 C71.234,126.52267 71.1453342,127.264663 70.968,128.002 C70.7906658,128.739337 70.5106686,129.39733 70.128,129.976 C69.7453314,130.55467 69.2553363,131.025998 68.658,131.39 C68.0606637,131.754002 67.3420042,131.936 66.502,131.936 C65.568662,131.936 64.7800032,131.754002 64.136,131.39 C63.4919968,131.025998 62.9693353,130.55467 62.568,129.976 C62.1666647,129.39733 61.8773342,128.739337 61.7,128.002 C61.5226658,127.264663 61.434,126.52267 61.434,125.776 C61.434,124.954663 61.5133325,124.17067 61.672,123.424 C61.8306675,122.67733 62.105998,122.024003 62.498,121.464 C62.890002,120.903997 63.4126634,120.456002 64.066,120.12 C64.7193366,119.783998 65.5313285,119.616 66.502,119.616 C67.3420042,119.616 68.0606637,119.797998 68.658,120.162 C69.2553363,120.526002 69.7453314,120.99733 70.128,121.576 C70.5106686,122.15467 70.7906658,122.812663 70.968,123.55 C71.1453342,124.287337 71.234,125.02933 71.234,125.776 L71.234,125.776 Z M87.446,133 L87.446,118.552 L85.682,118.552 L85.682,126.14 C85.682,126.868004 85.5980008,127.581997 85.43,128.282 C85.2619992,128.982004 85.0006684,129.602664 84.646,130.144 C84.2913316,130.685336 83.843336,131.119332 83.302,131.446 C82.760664,131.772668 82.1073372,131.936 81.342,131.936 C79.941993,131.936 78.9573362,131.600003 78.388,130.928 C77.8186638,130.255997 77.5153335,129.266673 77.478,127.96 L77.478,118.552 L75.714,118.552 L75.714,127.932 C75.714,128.790671 75.8073324,129.555997 75.994,130.228 C76.1806676,130.900003 76.4746647,131.469331 76.876,131.936 C77.2773353,132.402669 77.7999968,132.761999 78.444,133.014 C79.0880032,133.266001 79.8673288,133.392 80.782,133.392 C81.8646721,133.392 82.8493289,133.135336 83.736,132.622 C84.6226711,132.108664 85.299331,131.366672 85.766,130.396 L85.822,130.396 L85.822,133 L87.446,133 Z M93.578,118.552 L93.578,114.212 L91.814,114.212 L91.814,118.552 L89.294,118.552 L89.294,120.036 L91.814,120.036 L91.814,129.92 C91.7953332,131.152006 92.019331,131.996664 92.486,132.454 C92.952669,132.911336 93.7739941,133.14 94.95,133.14 C95.2113346,133.14 95.4726654,133.130667 95.734,133.112 C95.9953346,133.093333 96.2566654,133.084 96.518,133.084 L96.518,131.6 C96.0139975,131.656 95.5100025,131.684 95.006,131.684 C94.3713302,131.646666 93.9746675,131.464668 93.816,131.138 C93.6573325,130.811332 93.578,130.35867 93.578,129.78 L93.578,120.036 L96.518,120.036 L96.518,118.552 L93.578,118.552 Z M99.094,113.008 L99.094,115.836 L100.858,115.836 L100.858,113.008 L99.094,113.008 Z M99.094,118.552 L99.094,133 L100.858,133 L100.858,118.552 L99.094,118.552 Z M104.218,118.552 L104.218,133 L105.982,133 L105.982,124.572 C106.000667,123.862663 106.117332,123.20467 106.332,122.598 C106.546668,121.99133 106.845331,121.468669 107.228,121.03 C107.610669,120.591331 108.077331,120.246001 108.628,119.994 C109.178669,119.741999 109.808663,119.616 110.518,119.616 C111.227337,119.616 111.819998,119.727999 112.296,119.952 C112.772002,120.176001 113.149999,120.483998 113.43,120.876 C113.710001,121.268002 113.905999,121.729997 114.018,122.262 C114.130001,122.794003 114.186,123.367997 114.186,123.984 L114.186,133 L115.95,133 L115.95,123.704 C115.95,122.845329 115.866001,122.07067 115.698,121.38 C115.529999,120.68933 115.240669,120.106002 114.83,119.63 C114.419331,119.153998 113.873337,118.785335 113.192,118.524 C112.510663,118.262665 111.666005,118.132 110.658,118.132 C109.631328,118.132 108.688671,118.397997 107.83,118.93 C106.971329,119.462003 106.374002,120.166662 106.038,121.044 L105.982,121.044 L105.982,118.552 L104.218,118.552 Z M131.49,131.824 L131.49,118.552 L129.726,118.552 L129.726,121.044 L129.67,121.044 C129.501999,120.651998 129.264002,120.278668 128.956,119.924 C128.647998,119.569332 128.298002,119.256668 127.906,118.986 C127.513998,118.715332 127.080002,118.505334 126.604,118.356 C126.127998,118.206666 125.619336,118.132 125.078,118.132 C124.032661,118.132 123.104004,118.323331 122.292,118.706 C121.479996,119.088669 120.798669,119.61133 120.248,120.274 C119.697331,120.93667 119.277335,121.711329 118.988,122.598 C118.698665,123.484671 118.554,124.422662 118.554,125.412 C118.554,126.438672 118.675332,127.404662 118.918,128.31 C119.160668,129.215338 119.547997,130.003997 120.08,130.676 C120.612003,131.348003 121.288663,131.875331 122.11,132.258 C122.931337,132.640669 123.920661,132.832 125.078,132.832 C126.142005,132.832 127.070663,132.561336 127.864,132.02 C128.657337,131.478664 129.259331,130.760004 129.67,129.864 L129.726,129.864 L129.726,131.824 C129.726,133.578675 129.362004,134.922662 128.634,135.856 C127.905996,136.789338 126.720675,137.256 125.078,137.256 C124.592664,137.256 124.116669,137.204667 123.65,137.102 C123.183331,136.999333 122.758669,136.836001 122.376,136.612 C121.993331,136.387999 121.666668,136.094002 121.396,135.73 C121.125332,135.365998 120.943334,134.913336 120.85,134.372 L119.086,134.372 C119.142,135.137337 119.351998,135.795331 119.716,136.346 C120.080002,136.896669 120.537331,137.349332 121.088,137.704 C121.638669,138.058668 122.25933,138.319999 122.95,138.488 C123.64067,138.656001 124.349996,138.74 125.078,138.74 C126.254006,138.74 127.247996,138.581335 128.06,138.264 C128.872004,137.946665 129.529997,137.489336 130.034,136.892 C130.538003,136.294664 130.906665,135.566671 131.14,134.708 C131.373334,133.849329 131.49,132.888005 131.49,131.824 L131.49,131.824 Z M125.078,131.348 C124.256663,131.348 123.547336,131.184668 122.95,130.858 C122.352664,130.531332 121.858002,130.102003 121.466,129.57 C121.073998,129.037997 120.784668,128.42667 120.598,127.736 C120.411332,127.04533 120.318,126.336004 120.318,125.608 C120.318,124.86133 120.406666,124.12867 120.584,123.41 C120.761334,122.69133 121.045998,122.052003 121.438,121.492 C121.830002,120.931997 122.324664,120.479335 122.922,120.134 C123.519336,119.788665 124.237996,119.616 125.078,119.616 C125.918004,119.616 126.631997,119.793332 127.22,120.148 C127.808003,120.502668 128.288665,120.96933 128.662,121.548 C129.035335,122.12667 129.305999,122.770663 129.474,123.48 C129.642001,124.189337 129.726,124.898663 129.726,125.608 C129.726,126.336004 129.628001,127.04533 129.432,127.736 C129.235999,128.42667 128.942002,129.037997 128.55,129.57 C128.157998,130.102003 127.67267,130.531332 127.094,130.858 C126.51533,131.184668 125.843337,131.348 125.078,131.348 L125.078,131.348 Z M144.874,122.808 L144.874,114.632 L151.426,114.632 C152.75134,114.632 153.824663,114.967997 154.646,115.64 C155.467337,116.312003 155.878,117.33866 155.878,118.72 C155.878,120.10134 155.467337,121.127997 154.646,121.8 C153.824663,122.472003 152.75134,122.808 151.426,122.808 L144.874,122.808 Z M142.97,113.008 L142.97,133 L144.874,133 L144.874,124.432 L151.846,124.432 C152.742004,124.432 153.553996,124.306001 154.282,124.054 C155.010004,123.801999 155.635331,123.428669 156.158,122.934 C156.680669,122.439331 157.081999,121.837337 157.362,121.128 C157.642001,120.418663 157.782,119.616004 157.782,118.72 C157.782,117.823996 157.642001,117.021337 157.362,116.312 C157.081999,115.602663 156.680669,115.000669 156.158,114.506 C155.635331,114.011331 155.010004,113.638001 154.282,113.386 C153.553996,113.133999 152.742004,113.008 151.846,113.008 L142.97,113.008 Z M160.274,118.552 L160.274,133 L162.038,133 L162.038,125.3 C162.038,124.534663 162.168665,123.830003 162.43,123.186 C162.691335,122.541997 163.059998,121.986669 163.536,121.52 C164.012002,121.053331 164.576663,120.694001 165.23,120.442 C165.883337,120.189999 166.611329,120.082666 167.414,120.12 L167.414,118.356 C166.107327,118.3 164.982671,118.58933 164.04,119.224 C163.097329,119.85867 162.402002,120.763994 161.954,121.94 L161.898,121.94 L161.898,118.552 L160.274,118.552 Z M174.694,119.616 C175.534004,119.616 176.27133,119.793332 176.906,120.148 C177.54067,120.502668 178.067998,120.96933 178.488,121.548 C178.908002,122.12667 179.225332,122.784663 179.44,123.522 C179.654668,124.259337 179.762,125.010663 179.762,125.776 C179.762,126.541337 179.654668,127.292663 179.44,128.03 C179.225332,128.767337 178.908002,129.42533 178.488,130.004 C178.067998,130.58267 177.54067,131.049332 176.906,131.404 C176.27133,131.758668 175.534004,131.936 174.694,131.936 C173.853996,131.936 173.11667,131.758668 172.482,131.404 C171.84733,131.049332 171.320002,130.58267 170.9,130.004 C170.479998,129.42533 170.162668,128.767337 169.948,128.03 C169.733332,127.292663 169.626,126.541337 169.626,125.776 C169.626,125.010663 169.733332,124.259337 169.948,123.522 C170.162668,122.784663 170.479998,122.12667 170.9,121.548 C171.320002,120.96933 171.84733,120.502668 172.482,120.148 C173.11667,119.793332 173.853996,119.616 174.694,119.616 L174.694,119.616 Z M174.694,118.132 C173.592661,118.132 172.617338,118.337331 171.768,118.748 C170.918662,119.158669 170.20467,119.70933 169.626,120.4 C169.04733,121.09067 168.608668,121.897995 168.31,122.822 C168.011332,123.746005 167.862,124.730661 167.862,125.776 C167.862,126.821339 168.011332,127.805995 168.31,128.73 C168.608668,129.654005 169.04733,130.46133 169.626,131.152 C170.20467,131.84267 170.918662,132.388665 171.768,132.79 C172.617338,133.191335 173.592661,133.392 174.694,133.392 C175.795339,133.392 176.770662,133.191335 177.62,132.79 C178.469338,132.388665 179.18333,131.84267 179.762,131.152 C180.34067,130.46133 180.779332,129.654005 181.078,128.73 C181.376668,127.805995 181.526,126.821339 181.526,125.776 C181.526,124.730661 181.376668,123.746005 181.078,122.822 C180.779332,121.897995 180.34067,121.09067 179.762,120.4 C179.18333,119.70933 178.469338,119.158669 177.62,118.748 C176.770662,118.337331 175.795339,118.132 174.694,118.132 L174.694,118.132 Z M186.958,118.552 L186.958,114.212 L185.194,114.212 L185.194,118.552 L182.674,118.552 L182.674,120.036 L185.194,120.036 L185.194,129.92 C185.175333,131.152006 185.399331,131.996664 185.866,132.454 C186.332669,132.911336 187.153994,133.14 188.33,133.14 C188.591335,133.14 188.852665,133.130667 189.114,133.112 C189.375335,133.093333 189.636665,133.084 189.898,133.084 L189.898,131.6 C189.393997,131.656 188.890003,131.684 188.386,131.684 C187.75133,131.646666 187.354667,131.464668 187.196,131.138 C187.037333,130.811332 186.958,130.35867 186.958,129.78 L186.958,120.036 L189.898,120.036 L189.898,118.552 L186.958,118.552 Z M198.55,119.616 C199.390004,119.616 200.12733,119.793332 200.762,120.148 C201.39667,120.502668 201.923998,120.96933 202.344,121.548 C202.764002,122.12667 203.081332,122.784663 203.296,123.522 C203.510668,124.259337 203.618,125.010663 203.618,125.776 C203.618,126.541337 203.510668,127.292663 203.296,128.03 C203.081332,128.767337 202.764002,129.42533 202.344,130.004 C201.923998,130.58267 201.39667,131.049332 200.762,131.404 C200.12733,131.758668 199.390004,131.936 198.55,131.936 C197.709996,131.936 196.97267,131.758668 196.338,131.404 C195.70333,131.049332 195.176002,130.58267 194.756,130.004 C194.335998,129.42533 194.018668,128.767337 193.804,128.03 C193.589332,127.292663 193.482,126.541337 193.482,125.776 C193.482,125.010663 193.589332,124.259337 193.804,123.522 C194.018668,122.784663 194.335998,122.12667 194.756,121.548 C195.176002,120.96933 195.70333,120.502668 196.338,120.148 C196.97267,119.793332 197.709996,119.616 198.55,119.616 L198.55,119.616 Z M198.55,118.132 C197.448661,118.132 196.473338,118.337331 195.624,118.748 C194.774662,119.158669 194.06067,119.70933 193.482,120.4 C192.90333,121.09067 192.464668,121.897995 192.166,122.822 C191.867332,123.746005 191.718,124.730661 191.718,125.776 C191.718,126.821339 191.867332,127.805995 192.166,128.73 C192.464668,129.654005 192.90333,130.46133 193.482,131.152 C194.06067,131.84267 194.774662,132.388665 195.624,132.79 C196.473338,133.191335 197.448661,133.392 198.55,133.392 C199.651339,133.392 200.626662,133.191335 201.476,132.79 C202.325338,132.388665 203.03933,131.84267 203.618,131.152 C204.19667,130.46133 204.635332,129.654005 204.934,128.73 C205.232668,127.805995 205.382,126.821339 205.382,125.776 C205.382,124.730661 205.232668,123.746005 204.934,122.822 C204.635332,121.897995 204.19667,121.09067 203.618,120.4 C203.03933,119.70933 202.325338,119.158669 201.476,118.748 C200.626662,118.337331 199.651339,118.132 198.55,118.132 L198.55,118.132 Z M218.206,123.088 L219.97,123.088 C219.764666,121.426658 219.125339,120.185337 218.052,119.364 C216.978661,118.542663 215.667341,118.132 214.118,118.132 C213.016661,118.132 212.041338,118.337331 211.192,118.748 C210.342662,119.158669 209.62867,119.70933 209.05,120.4 C208.47133,121.09067 208.032668,121.897995 207.734,122.822 C207.435332,123.746005 207.286,124.730661 207.286,125.776 C207.286,126.821339 207.435332,127.805995 207.734,128.73 C208.032668,129.654005 208.47133,130.46133 209.05,131.152 C209.62867,131.84267 210.342662,132.388665 211.192,132.79 C212.041338,133.191335 213.016661,133.392 214.118,133.392 C215.760675,133.392 217.104661,132.902005 218.15,131.922 C219.195339,130.941995 219.839332,129.574675 220.082,127.82 L218.318,127.82 C218.262,128.417336 218.112668,128.967997 217.87,129.472 C217.627332,129.976003 217.319335,130.409998 216.946,130.774 C216.572665,131.138002 216.143336,131.422666 215.658,131.628 C215.172664,131.833334 214.659336,131.936 214.118,131.936 C213.277996,131.936 212.54067,131.758668 211.906,131.404 C211.27133,131.049332 210.744002,130.58267 210.324,130.004 C209.903998,129.42533 209.586668,128.767337 209.372,128.03 C209.157332,127.292663 209.05,126.541337 209.05,125.776 C209.05,125.010663 209.157332,124.259337 209.372,123.522 C209.586668,122.784663 209.903998,122.12667 210.324,121.548 C210.744002,120.96933 211.27133,120.502668 211.906,120.148 C212.54067,119.793332 213.277996,119.616 214.118,119.616 C215.294006,119.616 216.208663,119.923997 216.862,120.54 C217.515337,121.156003 217.963332,122.005328 218.206,123.088 L218.206,123.088 Z M228.65,119.616 C229.490004,119.616 230.22733,119.793332 230.862,120.148 C231.49667,120.502668 232.023998,120.96933 232.444,121.548 C232.864002,122.12667 233.181332,122.784663 233.396,123.522 C233.610668,124.259337 233.718,125.010663 233.718,125.776 C233.718,126.541337 233.610668,127.292663 233.396,128.03 C233.181332,128.767337 232.864002,129.42533 232.444,130.004 C232.023998,130.58267 231.49667,131.049332 230.862,131.404 C230.22733,131.758668 229.490004,131.936 228.65,131.936 C227.809996,131.936 227.07267,131.758668 226.438,131.404 C225.80333,131.049332 225.276002,130.58267 224.856,130.004 C224.435998,129.42533 224.118668,128.767337 223.904,128.03 C223.689332,127.292663 223.582,126.541337 223.582,125.776 C223.582,125.010663 223.689332,124.259337 223.904,123.522 C224.118668,122.784663 224.435998,122.12667 224.856,121.548 C225.276002,120.96933 225.80333,120.502668 226.438,120.148 C227.07267,119.793332 227.809996,119.616 228.65,119.616 L228.65,119.616 Z M228.65,118.132 C227.548661,118.132 226.573338,118.337331 225.724,118.748 C224.874662,119.158669 224.16067,119.70933 223.582,120.4 C223.00333,121.09067 222.564668,121.897995 222.266,122.822 C221.967332,123.746005 221.818,124.730661 221.818,125.776 C221.818,126.821339 221.967332,127.805995 222.266,128.73 C222.564668,129.654005 223.00333,130.46133 223.582,131.152 C224.16067,131.84267 224.874662,132.388665 225.724,132.79 C226.573338,133.191335 227.548661,133.392 228.65,133.392 C229.751339,133.392 230.726662,133.191335 231.576,132.79 C232.425338,132.388665 233.13933,131.84267 233.718,131.152 C234.29667,130.46133 234.735332,129.654005 235.034,128.73 C235.332668,127.805995 235.482,126.821339 235.482,125.776 C235.482,124.730661 235.332668,123.746005 235.034,122.822 C234.735332,121.897995 234.29667,121.09067 233.718,120.4 C233.13933,119.70933 232.425338,119.158669 231.576,118.748 C230.726662,118.337331 229.751339,118.132 228.65,118.132 L228.65,118.132 Z M238.142,113.008 L238.142,133 L239.906,133 L239.906,113.008 L238.142,113.008 Z" id="Interactive-Computin" fill="#766969"></path>
            </g>
        </g>
    </g>
</svg>