<?xml version="1.0" encoding="UTF-8" standalone="no"?>
<svg
   id="Layer_1"
   data-name="Layer 1"
   viewBox="0 0 300.00001 90.000003"
   version="1.1"
   sodipodi:docname="quansight.svg"
   width="300"
   height="90"
   inkscape:version="1.1.1 (3bf5ae0d25, 2021-09-20)"
   xmlns:inkscape="http://www.inkscape.org/namespaces/inkscape"
   xmlns:sodipodi="http://sodipodi.sourceforge.net/DTD/sodipodi-0.dtd"
   xmlns="http://www.w3.org/2000/svg"
   xmlns:svg="http://www.w3.org/2000/svg"
   xmlns:rdf="http://www.w3.org/1999/02/22-rdf-syntax-ns#"
   xmlns:cc="http://creativecommons.org/ns#"
   xmlns:dc="http://purl.org/dc/elements/1.1/">
  <sodipodi:namedview
     id="namedview3832"
     pagecolor="#ffffff"
     bordercolor="#666666"
     borderopacity="1.0"
     inkscape:pageshadow="2"
     inkscape:pageopacity="0.0"
     inkscape:pagecheckerboard="0"
     showgrid="false"
     inkscape:zoom="2.5683012"
     inkscape:cx="161.19605"
     inkscape:cy="58.988409"
     inkscape:window-width="1866"
     inkscape:window-height="1016"
     inkscape:window-x="54"
     inkscape:window-y="27"
     inkscape:window-maximized="1"
     inkscape:current-layer="Layer_1" />
  <defs
     id="defs3761">
    <style
       id="style3759">.cls-1{fill:#652e8e;}.cls-2{fill:#05773d;}.cls-3{fill:#e86825;}</style>
  </defs>
  <title
     id="title3763">QS logo strip vector</title>
  <g
     id="g3927"
     transform="matrix(0.38926357,0,0,0.38926357,-18.590052,-21.23451)">
    <polygon
       class="cls-1"
       points="140.5,224.35 121.98,201.34 134.09,191.4 154.38,209.2 "
       id="polygon3765" />
    <path
       class="cls-1"
       d="M 113,204.27 C 94,201.69 85.76,186.93 85.76,165 c 0,-28.47 17,-33.79 30.13,-33.79 18.75,0 31.5,13.9 31.5,39.51 a 45,45 0 0 1 -3,17.51 l 9.38,8 c 6.82,-8.2 9.59,-17.93 9.59,-29.79 0,-26.19 -17.73,-42.77 -46.2,-42.77 -34.26,0 -47.16,25.27 -47.16,44.83 0,20.24 13.26,44.82 46.08,44.82 a 17.31,17.31 0 0 0 2.32,-0.18 z"
       id="path3767" />
    <path
       class="cls-1"
       d="m 183.81,167.48 c 0,-14.59 0.11,-17.31 -0.12,-20.36 -0.22,-3.4 -1.13,-4.3 -4.3,-5.21 a 18.3,18.3 0 0 0 -3.84,-0.34 c -1.13,0 -1.7,-0.33 -1.7,-1 0,-0.67 0.68,-0.91 2.15,-0.91 5.32,0 12,0.23 14.93,0.23 2.49,0 9.17,-0.23 12.79,-0.23 1.47,0 2.15,0.23 2.15,0.91 0,0.68 -0.57,1 -1.59,1 a 14.28,14.28 0 0 0 -2.94,0.34 c -2.6,0.46 -3.39,1.81 -3.62,5.21 -0.23,3 -0.23,5.77 -0.23,20.36 V 181 c 0,14 2.72,19.45 7.59,23.3 4.41,3.51 9.16,3.85 12.55,3.85 A 19,19 0 0 0 231,203 c 5.55,-5.21 5.77,-13.58 5.77,-23.42 v -12.1 c 0,-14.59 -0.11,-17.31 -0.22,-20.36 -0.23,-3.28 -1,-4.3 -4.19,-5.21 a 17.54,17.54 0 0 0 -3.62,-0.34 c -1.13,0 -1.7,-0.33 -1.7,-1 0,-0.67 0.68,-0.91 2,-0.91 5.09,0 11.76,0.23 11.88,0.23 1.13,0 7.8,-0.23 11.65,-0.23 1.36,0 2,0.23 2,0.91 0,0.68 -0.57,1 -1.7,1 a 14.2,14.2 0 0 0 -2.94,0.34 c -2.72,0.46 -3.4,1.81 -3.62,5.21 -0.12,3 -0.23,5.77 -0.23,20.36 v 10.3 c 0,10.74 -1.13,22.06 -9.5,29 -7,5.88 -14.6,6.9 -21,6.9 -5.21,0 -15.5,-0.23 -22.74,-6.56 -5.09,-4.41 -9.05,-11.54 -9.05,-25.46 z"
       id="path3769" />
    <path
       class="cls-1"
       d="m 276.91,188.19 c -0.57,0 -0.68,0.11 -0.91,0.67 l -5.31,12.9 a 17.47,17.47 0 0 0 -1.48,5.88 c 0,1.7 0.91,2.72 4,2.72 h 1.48 c 1.24,0 1.47,0.45 1.47,1 0,0.79 -0.57,1 -1.59,1 -3.28,0 -7.92,-0.34 -11.08,-0.34 -1,0 -6.34,0.34 -11.54,0.34 -1.25,0 -1.81,-0.23 -1.81,-1 a 1,1 0 0 1 1.13,-1 c 0.9,0 2,-0.11 2.94,-0.11 4.52,-0.68 6.22,-3.62 8.26,-8.49 l 26,-60.52 c 1.13,-2.72 1.92,-3.85 2.94,-3.85 1.47,0 1.92,0.9 2.94,3.05 2.38,5.32 19,44.69 25.34,59.29 3.85,8.71 6.68,10 8.49,10.29 a 23.51,23.51 0 0 0 3.73,0.34 c 0.91,0 1.36,0.34 1.36,1 0,0.66 -0.57,1 -4.3,1 -3.51,0 -10.75,0 -19.12,-0.23 -1.81,-0.11 -2.94,-0.11 -2.94,-0.79 0,-0.68 0.22,-0.91 1.24,-1 a 1.51,1.51 0 0 0 0.91,-2.15 l -7.7,-19.35 a 0.93,0.93 0 0 0 -1,-0.67 z m 21.27,-5.32 c 0.45,0 0.56,-0.23 0.45,-0.57 l -9.39,-24.43 c -0.11,-0.34 -0.23,-0.91 -0.45,-0.91 -0.22,0 -0.46,0.57 -0.57,0.91 l -9.62,24.32 c -0.22,0.45 0,0.68 0.34,0.68 z"
       id="path3771" />
    <path
       class="cls-1"
       d="m 350.32,199.27 c 0.23,7.47 1.47,9.73 3.4,10.41 a 16.73,16.73 0 0 0 5.2,0.68 c 1.13,0 1.7,0.45 1.7,1 0,0.79 -0.91,1 -2.26,1 -6.45,0 -11.09,-0.34 -12.9,-0.34 -0.91,0 -5.66,0.34 -10.75,0.34 -1.36,0 -2.26,-0.12 -2.26,-1 0,-0.57 0.68,-1 1.58,-1 a 20.48,20.48 0 0 0 4.53,-0.45 c 2.6,-0.68 2.94,-3.28 3.05,-11.66 l 0.91,-57 c 0,-1.93 0.68,-3.29 1.69,-3.29 1.25,0 2.61,1.48 4.3,3.17 1.25,1.25 16.18,16.52 30.66,30.66 6.79,6.68 20,20.25 21.5,21.61 h 0.45 l -1,-42.76 c -0.11,-5.89 -1,-7.58 -3.39,-8.49 a 16.6,16.6 0 0 0 -5.21,-0.57 c -1.24,0 -1.58,-0.45 -1.58,-1 0,-0.79 1,-0.91 2.49,-0.91 5.2,0 10.52,0.23 12.67,0.23 1.13,0 4.86,-0.23 9.73,-0.23 1.36,0 2.26,0.12 2.26,0.91 0,0.56 -0.56,1 -1.7,1 a 10.06,10.06 0 0 0 -3.05,0.34 c -2.72,0.8 -3.51,2.49 -3.62,7.92 l -1.13,60.64 c 0,2.15 -0.79,3.06 -1.59,3.06 a 5.92,5.92 0 0 1 -4.07,-2 C 395.71,205.77 383.26,193.89 372.86,183.82 362,173.37 351.45,161.71 349.53,160 h -0.34 z"
       id="path3773" />
    <path
       class="cls-1"
       d="m 435.76,211 c -1.86,-0.8 -2.26,-1.34 -2.26,-3.88 0,-6.14 0.53,-13.22 0.66,-15.09 0.13,-1.87 0.54,-2.94 1.47,-2.94 0.93,0 1.2,1.07 1.2,1.88 a 21.07,21.07 0 0 0 1.07,5.87 c 2.54,8.42 11.35,11.22 18.7,11.22 10.15,0 16.3,-6.41 16.3,-14.42 0,-4.95 -1.21,-9.89 -11.63,-16 l -6.81,-4 C 440.57,165.45 436,157.83 436,147.81 c 0,-13.88 13.36,-22.83 29.65,-22.83 a 69.76,69.76 0 0 1 16.7,1.87 c 1.07,0.26 1.6,0.66 1.6,1.47 0,1.46 -0.4,4.67 -0.4,13.62 0,2.4 -0.54,3.61 -1.47,3.61 -0.93,0 -1.2,-0.67 -1.2,-2 a 12.88,12.88 0 0 0 -3.07,-7.48 c -1.74,-2.13 -5.48,-5.34 -13.09,-5.34 -8.42,0 -16,4.41 -16,12.15 0,5.08 1.87,9.09 12.42,15 l 4.86,2.62 c 15.49,8.55 20.3,17.23 20.3,27.52 0,8.41 -3.21,15.22 -11.75,21.23 -5.61,4 -13.36,4.68 -19.64,4.68 -6.86,0 -14.07,-0.67 -19.15,-2.93 z"
       id="path3775" />
    <path
       class="cls-1"
       d="m 511.35,167.48 c 0,-14.59 0,-17.31 -0.11,-20.36 -0.23,-3.28 -1.25,-4.41 -3.4,-5.09 a 12.66,12.66 0 0 0 -3.62,-0.46 c -1,0 -1.58,-0.22 -1.58,-1.13 0,-0.56 0.79,-0.79 2.38,-0.79 3.73,0 10.52,0.23 13.34,0.23 2.49,0 8.94,-0.23 12.79,-0.23 1.24,0 2,0.23 2,0.79 0,0.91 -0.57,1.13 -1.59,1.13 a 14.2,14.2 0 0 0 -2.94,0.34 c -2.72,0.46 -3.51,1.81 -3.73,5.21 -0.23,3 -0.23,5.77 -0.23,20.36 v 17 c 0,9.28 0,17 0.45,21 0.34,2.61 1,4.08 4,4.53 a 36.67,36.67 0 0 0 5.09,0.34 c 1.13,0 1.59,0.57 1.59,1 0,0.68 -0.79,1 -1.93,1 -6.56,0 -13.35,-0.34 -16.06,-0.34 -2.26,0 -9,0.34 -13,0.34 -1.25,0 -1.92,-0.34 -1.92,-1 0,-0.45 0.34,-1 1.58,-1 A 14.52,14.52 0 0 0 508,210 c 2,-0.45 2.6,-1.81 2.94,-4.64 0.45,-4 0.45,-11.65 0.45,-20.93 z"
       id="path3777" />
    <path
       class="cls-1"
       d="m 617,206 c 0,2.6 0,2.71 -1.24,3.39 -6.68,3.28 -16.52,4.3 -24.33,4.3 -24.43,0 -46,-11.09 -46,-37.67 0,-15.39 8.26,-26.14 17.42,-31.45 9.51,-5.55 18.44,-6.23 26.81,-6.23 a 113.41,113.41 0 0 1 17.65,1.59 c 2,0.34 5.55,0.9 7.92,1 1.13,0.11 1.36,0.45 1.36,1.13 a 130.16,130.16 0 0 0 -0.68,15.84 c 0,1.47 -0.56,2.15 -1.36,2.15 -0.8,0 -0.9,-0.46 -1,-1.25 a 12.85,12.85 0 0 0 -3.4,-7.92 c -2.94,-3 -10.41,-7.35 -21.61,-7.35 -5.43,0 -12.33,0.11 -19.23,5.66 -5.54,4.52 -9.16,11.65 -9.16,23.41 0,20.71 13.35,35.75 34.62,35.75 2.6,0 4.64,0 7,-1 1.47,-0.67 1.92,-1.69 1.92,-3.39 v -8.82 c 0,-4.75 0,-8.37 -0.11,-11.32 -0.11,-3.28 -1.13,-4.3 -4.3,-5.2 a 17.68,17.68 0 0 0 -3.85,-0.34 c -0.9,0 -1.58,-0.45 -1.58,-1 0,-0.79 0.79,-0.9 2.15,-0.9 5.2,0 12.33,0.22 15.27,0.22 3.17,0 8.38,-0.22 11.66,-0.22 1.35,0 2,0.11 2,0.9 a 1.14,1.14 0 0 1 -1.24,1 13.36,13.36 0 0 0 -2.72,0.34 c -2.71,0.45 -3.73,1.81 -3.84,5.2 -0.12,2.95 -0.12,6.79 -0.12,11.54 z"
       id="path3779" />
    <path
       class="cls-1"
       d="m 696.42,171 c 0.23,0 0.57,-0.11 0.57,-0.68 v -2 c 0,-14.59 -0.11,-18.1 -0.23,-21.15 -0.22,-3.28 -1.13,-4.3 -4.3,-5.21 a 18.3,18.3 0 0 0 -3.84,-0.34 c -1.13,0 -1.7,-0.33 -1.7,-1 0,-0.67 0.68,-0.91 2.15,-0.91 5.32,0 12.33,0.23 14.93,0.23 2.38,0 8.94,-0.23 12.79,-0.23 1.47,0 2.15,0.23 2.15,0.91 0,0.68 -0.68,1 -1.81,1 a 17.38,17.38 0 0 0 -3,0.34 c -2.6,0.46 -3.39,1.81 -3.62,5.21 -0.22,3 -0.22,5.77 -0.22,20.36 v 17 c 0,8.83 0,16.41 0.45,20.59 0.34,2.72 0.91,4.53 4,5 a 35.54,35.54 0 0 0 5.09,0.34 c 1,0 1.59,0.57 1.59,1 0,0.68 -0.8,1 -2,1 -6.45,0 -13,-0.34 -15.73,-0.34 -2.26,0 -9.27,0.34 -13.12,0.34 -1.36,0 -2.15,-0.34 -2.15,-1 0,-0.45 0.45,-1 1.58,-1 a 14.79,14.79 0 0 0 3.62,-0.34 c 2,-0.45 2.61,-2.26 2.95,-5.09 0.45,-4.07 0.45,-11.43 0.45,-20.25 v -7.35 a 0.6,0.6 0 0 0 -0.57,-0.57 h -37.59 c -0.34,0 -0.68,0.11 -0.68,0.57 v 7.35 c 0,8.82 0.12,16.18 0.57,20.36 0.34,2.72 0.9,4.53 3.85,5 a 36.56,36.56 0 0 0 5.09,0.34 c 1.13,0 1.58,0.57 1.58,1 0,0.68 -0.79,1 -2,1 -6.44,0 -13.34,-0.34 -16.17,-0.34 -2.27,0 -8.83,0.34 -12.79,0.34 -1.24,0 -1.92,-0.34 -1.92,-1 0,-0.45 0.34,-1 1.58,-1 a 14.46,14.46 0 0 0 3.51,-0.34 c 2,-0.45 2.6,-2.26 2.94,-5.09 0.45,-4.07 0.45,-11.65 0.45,-20.48 v -17 c 0,-14.59 0,-17.31 -0.11,-20.36 -0.22,-3.28 -1.13,-4.3 -4.3,-5.21 a 18.75,18.75 0 0 0 -4,-0.34 c -1,0 -1.69,-0.33 -1.69,-1 0,-0.67 0.79,-0.91 2.14,-0.91 5.32,0 11.88,0.23 14.6,0.23 2.38,0 9.28,-0.23 13.24,-0.23 1.35,0 2,0.23 2,0.91 0,0.68 -0.56,1 -1.81,1 a 15.12,15.12 0 0 0 -2.83,0.34 c -2.71,0.46 -3.5,1.81 -3.73,5.21 -0.23,3 -0.23,6.56 -0.23,21.15 v 2 a 0.6,0.6 0 0 0 0.68,0.68 z"
       id="path3781" />
    <path
       class="cls-1"
       d="m 756.15,145.53 -14.82,0.34 c -5.77,0.12 -8.15,0.8 -9.62,2.94 a 11.36,11.36 0 0 0 -1.7,3.29 c -0.22,0.79 -0.45,1.24 -1.13,1.24 -0.68,0 -0.9,-0.57 -0.9,-1.58 0,-1.59 1.92,-10.86 2.15,-11.66 0.22,-1.24 0.56,-1.81 1.13,-1.81 0.79,0 1.81,0.8 4.3,1.14 a 93.16,93.16 0 0 0 10,0.45 h 40.34 a 45,45 0 0 0 6.79,-0.45 c 1.58,-0.23 2.37,-0.46 2.71,-0.46 0.68,0 0.8,0.57 0.8,2 0,2 -0.23,9.16 -0.23,11.65 -0.11,1 -0.34,1.59 -0.91,1.59 -0.79,0 -1,-0.46 -1.13,-1.93 l -0.11,-1 c -0.23,-2.49 -2.83,-5.43 -11.77,-5.54 l -12.55,-0.23 v 38.92 c 0,8.83 0.11,16.41 0.56,20.59 0.34,2.72 0.91,4.53 3.85,5 a 36.67,36.67 0 0 0 5.09,0.34 c 1.13,0 1.58,0.57 1.58,1 0,0.68 -0.79,1 -1.92,1 -6.56,0 -13.24,-0.34 -16.06,-0.34 -2.27,0 -9.06,0.34 -13,0.34 -1.24,0 -1.92,-0.34 -1.92,-1 0,-0.45 0.34,-1 1.59,-1 a 13.77,13.77 0 0 0 3.5,-0.34 c 2,-0.45 2.61,-2.26 2.94,-5.09 0.46,-4.07 0.46,-11.65 0.46,-20.48 z"
       id="path3783" />
    <g
       id="bottom">
      <path
         class="cls-2"
         d="M 166.61,242.91 159,238.5 c -2.51,-1.51 -4.93,-3.17 -7.4,-4.75 q 6.44,-7.86 12.7,-15.84 c 1.72,1.09 3.39,2.24 5.15,3.27 l 5.28,3.07 c -2.73,6.18 -5.47,12.43 -8.12,18.66 z"
         id="path3785" />
      <path
         class="cls-2"
         d="m 192.38,255 -8,-3.34 c -2.66,-1.18 -5.28,-2.45 -7.92,-3.67 q 5.25,-8.7 10.36,-17.46 c 1.87,0.85 3.71,1.75 5.59,2.56 l 5.69,2.35 q -2.96,9.71 -5.72,19.56 z"
         id="path3787" />
      <path
         class="cls-2"
         d="m 219.26,263.78 -8.34,-2.37 -8.26,-2.68 q 4.16,-9.27 8.18,-18.59 l 5.89,1.89 c 2,0.59 4,1.12 6,1.68 q -1.82,10.02 -3.47,20.07 z"
         id="path3789" />
      <path
         class="cls-2"
         d="m 246.81,269.67 c -5.69,-0.88 -11.34,-2.05 -17,-3.26 q 3.13,-9.63 6.15,-19.34 c 4.07,0.79 8.11,1.71 12.21,2.31 q -0.74,10.14 -1.36,20.29 z"
         id="path3791" />
      <path
         class="cls-2"
         d="m 274.74,272.87 c -1.44,-0.1 -2.87,-0.17 -4.3,-0.29 l -4.3,-0.41 c -2.86,-0.28 -5.73,-0.53 -8.58,-0.95 q 2.19,-9.9 4.23,-19.82 c 2.06,0.28 4.13,0.41 6.2,0.62 2.07,0.21 4.13,0.44 6.2,0.53 q 0.21,10.16 0.55,20.32 z"
         id="path3793" />
      <path
         class="cls-2"
         d="m 302.81,273.49 c -5.75,0.08 -11.49,0.15 -17.24,-0.09 q 1.26,-10.06 2.38,-20.15 c 4.15,0.18 8.31,0 12.47,0 q 1.13,10.17 2.39,20.24 z"
         id="path3795" />
      <path
         class="cls-2"
         d="m 330.82,271.52 -8.57,0.89 -8.6,0.62 q 0.32,-10.15 0.53,-20.3 l 6.22,-0.46 6.19,-0.66 q 2.06,9.96 4.23,19.91 z"
         id="path3797" />
      <path
         class="cls-2"
         d="m 358.56,267 c -2.82,0.6 -5.63,1.22 -8.47,1.68 -2.84,0.46 -5.66,1.05 -8.51,1.45 -0.4,-6.75 -0.85,-13.48 -1.34,-20.23 l 6.13,-1.1 3.06,-0.55 3,-0.65 q 3.02,9.66 6.13,19.4 z"
         id="path3799" />
      <path
         class="cls-2"
         d="m 385.79,259.7 c -2.73,1 -5.52,1.7 -8.29,2.52 l -4.16,1.2 -4.19,1.06 q -1.57,-10 -3.29,-20 c 2,-0.48 4,-1.09 6,-1.67 2,-0.58 4,-1.14 6,-1.77 q 3.84,9.35 7.93,18.66 z"
         id="path3801" />
      <path
         class="cls-2"
         d="m 412.2,249.61 c -2.65,1.17 -5.34,2.27 -8,3.4 l -2,0.84 -2,0.77 -4.06,1.52 q -2.62,-9.81 -5.37,-19.57 c 3.89,-1.39 7.64,-3.07 11.44,-4.67 3.25,5.93 6.61,11.86 9.99,17.71 z"
         id="path3803" />
      <path
         class="cls-2"
         d="m 437.35,236.4 -7.55,4.41 -7.72,4.06 q -3.74,-9.45 -7.61,-18.82 l 5.44,-2.88 5.29,-3.12 q 5.99,8.22 12.15,16.35 z"
         id="path3805" />
    </g>
    <g
       id="top">
      <path
         class="cls-3"
         d="m 779.48,96.15 7.63,4.34 c 2.52,1.48 5,3.12 7.45,4.68 q -6.36,7.92 -12.55,16 c -1.73,-1.07 -3.41,-2.21 -5.17,-3.22 l -5.32,-3 c 2.71,-6.27 5.37,-12.54 7.96,-18.8 z"
         id="path3808" />
      <path
         class="cls-3"
         d="m 753.59,84.35 8.08,3.27 c 2.67,1.15 5.31,2.4 8,3.59 q -5.18,8.75 -10.19,17.56 c -1.88,-0.83 -3.73,-1.71 -5.62,-2.51 L 748.11,104 q 2.82,-9.81 5.48,-19.65 z"
         id="path3810" />
      <path
         class="cls-3"
         d="m 726.63,75.8 8.37,2.29 8.29,2.6 q -4.08,9.3 -8,18.66 l -5.9,-1.83 c -2,-0.57 -4,-1.08 -6,-1.62 q 1.7,-10.04 3.24,-20.1 z"
         id="path3812" />
      <path
         class="cls-3"
         d="m 699,70.18 c 5.7,0.82 11.36,1.94 17,3.1 q -3,9.66 -6,19.39 c -4.08,-0.75 -8.12,-1.62 -12.23,-2.19 Q 698.5,80.34 699,70.18 Z"
         id="path3814" />
      <path
         class="cls-3"
         d="m 671.06,67.26 c 1.44,0.08 2.87,0.13 4.31,0.24 l 4.3,0.38 c 2.86,0.24 5.73,0.47 8.58,0.85 q -2.09,9.93 -4,19.87 c -2.06,-0.26 -4.14,-0.37 -6.2,-0.57 -2.06,-0.2 -4.14,-0.4 -6.22,-0.46 Q 671.5,77.41 671.06,67.26 Z"
         id="path3816" />
      <path
         class="cls-3"
         d="m 643,66.91 c 5.74,-0.13 11.49,-0.26 17.23,-0.08 Q 659.08,76.91 658,87 c -4.15,-0.14 -8.31,0 -12.46,0.08 Q 644.35,77 643,66.91 Z"
         id="path3818" />
      <path
         class="cls-3"
         d="m 615,69.16 8.57,-1 8.59,-0.71 q -0.23,10.16 -0.33,20.31 l -6.21,0.52 -6.19,0.72 Q 617.28,79.08 615,69.16 Z"
         id="path3820" />
      <path
         class="cls-3"
         d="m 587.3,74 c 2.81,-0.63 5.62,-1.29 8.45,-1.77 2.83,-0.48 5.66,-1.1 8.5,-1.53 0.47,6.75 1,13.46 1.53,20.22 l -6.11,1.15 -3.06,0.58 -3,0.69 Q 590.5,83.65 587.3,74 Z"
         id="path3822" />
      <path
         class="cls-3"
         d="m 560.15,81.51 c 2.72,-1 5.5,-1.76 8.26,-2.6 l 4.14,-1.24 4.19,-1.1 q 1.66,10 3.48,20 c -2,0.5 -4,1.13 -6,1.73 -2,0.6 -4,1.18 -5.93,1.83 q -3.98,-9.34 -8.14,-18.62 z"
         id="path3824" />
      <path
         class="cls-3"
         d="m 533.84,91.86 c 2.64,-1.2 5.31,-2.32 8,-3.48 l 2,-0.86 2,-0.79 4,-1.56 q 2.71,9.78 5.56,19.51 c -3.87,1.43 -7.61,3.15 -11.39,4.79 -3.32,-5.9 -6.73,-11.79 -10.17,-17.61 z"
         id="path3826" />
      <path
         class="cls-3"
         d="m 508.82,105.31 7.5,-4.48 7.68,-4.14 q 3.82,9.42 7.79,18.75 l -5.41,2.94 -5.26,3.16 q -6.06,-8.16 -12.3,-16.23 z"
         id="path3828" />
    </g>
  </g>
  <metadata
     id="metadata3834">
    <rdf:RDF>
      <cc:Work
         rdf:about="">
        <dc:title>QS logo strip vector</dc:title>
      </cc:Work>
    </rdf:RDF>
  </metadata>
</svg>
