<?xml version="1.0" encoding="UTF-8"?>
<!-- Generator: Adobe Illustrator 19.2.1, SVG Export Plug-In . SVG Version: 6.00 Build 0)  -->
<svg width="409" height="110" version="1.1" viewBox="0 0 409 110" xml:space="preserve" xmlns="http://www.w3.org/2000/svg" xmlns:cc="http://creativecommons.org/ns#" xmlns:dc="http://purl.org/dc/elements/1.1/" xmlns:rdf="http://www.w3.org/1999/02/22-rdf-syntax-ns#"><metadata><rdf:RDF><cc:Work rdf:about=""><dc:format>image/svg+xml</dc:format><dc:type rdf:resource="http://purl.org/dc/dcmitype/StillImage"/><dc:title/></cc:Work></rdf:RDF></metadata><path d="m202.7 52.1c-2.1-1.5-3.7-2.8-4.4-3.7-1.6-1.9-2.5-4-2.6-4.1-1-2.3-1.4-4.7-1.2-7.3v-13.5h-10.4l-1.6-3.1h12v-10.9h3.3v10.8h12.1l-1.6 3.1h-10.4v14.5c0 1.8 0.3 3.5 1 5 0 0 0.8 1.7 2 3.2 0.6 0.6 1.8 1.7 3.4 2.9l-1.6 3.1zm-102.7-0.8c0-10.2 9.7-12.6 29.5-13.4-0.6-9.3-3.7-15.2-14.6-15.2-3 0-5.8 0.5-8.6 1.8l-1.5-2.9c3.3-1.7 6.7-2.1 10.1-2.1 13 0 18.1 7 18.1 22.1 0 15-5.1 22.1-18.1 22.1h-0.7c-11-0.1-14.2-5.1-14.2-12.4zm3.5 0.1c0 2.8 0.5 4.9 1.9 6.4 0.4 0.5 1 0.9 1.7 1.2 2.6 1.1 5.2 1.5 7.9 1.5 12.2 0 14.7-7.4 14.7-18.9v-0.7c-16.7 0.8-26.2 2.2-26.2 10.5zm59.1-32h-1.9c-12.5 0-14.2 10.5-14.2 19.7v22.2c1 0.9 2.2 1.6 3.4 2.2v-23.3c0-10.4 1.5-17.7 11.4-17.7h0.9c9.8 0 11.4 7.3 11.4 17.7v23.4c1.2-0.6 2.4-1.3 3.4-2.2v-22.2c-0.2-9.3-2-19.8-14.4-19.8zm91.5 19.8c-2.5-2.9-7.4-4.4-16-7.5-1.9-0.7-3.6-1.3-5.3-2.1-5.1-2.1-8.7-4.8-8.7-10.8 0-9.2 6.4-12.1 14.5-12.1 3.8 0 7.5 0.4 11.2 1.7l1.5-2.9c-4-1.5-8.3-2-12.8-2-9.4 0-17.7 4.1-17.7 15.4 0 6.7 3.4 10.4 8.6 12.9 0.8 0.3 1.4 0.6 2.1 0.9 1.9 0.8 3.3 1.4 5.1 2 8.4 3 12.3 3.5 15.1 6.6 0.2 0.2 4.1 4.8 3.1 10.4-0.5 2.9-2.2 5.5-4.9 7.8-6.2 5.1-15.9 4-25.2 0.9l-1.6 3.1c5.1 1.8 10.4 3 15.4 3 5.1 0 9.7-1.2 13.5-4.3 4.2-3.5 5.7-7.2 6.1-9.8 1.1-7-3.5-12.6-4-13.2zm-196.9 46.5c-0.9 0.9-1.8 1.7-2.9 2.3-9.3-4.8-16-13.1-19.4-23.9-3.2 1.6-7.1 2.4-11.8 2.4-16.6 0-23.1-9.7-23.1-30.7 0-20.9 6.5-30.7 23.1-30.7s23.1 9.7 23.1 30.7c0 13-2.5 21.6-8.4 26.4 3.2 10.9 10 19 19.4 23.5zm-14.5-49.9c0-16.4-3.3-27.5-19.7-27.5s-19.7 11-19.7 27.5c0 16.4 3.3 27.5 19.7 27.5s19.7-11 19.7-27.5zm317.9 24.7c-12.2 0-14.7-7.4-14.7-18.9s2.5-18.9 14.7-18.9c3.1 0 6 0.5 8.8 1.9l1.5-2.9c-3.4-1.7-6.9-2.1-10.2-2.1-13 0-18.1 7-18.1 22.1 0 15 5.1 22.1 18.1 22.1 3.4 0 6.9-0.4 10.3-2.1l-1.5-2.9c-3 1.2-5.9 1.7-8.9 1.7zm-79.3-3.9c-1.3-1.5-2-3.2-2-3.2-0.7-1.6-1-3.3-1-5v-24.7h12l-1.6-3.1h-10.4v-10.9h-3.3v10.8h-10.5l-1.6 3.1h12.1v23.7c-0.1 2.6 0.3 5.1 1.2 7.3 0 0.1 1 2.2 2.6 4.1 0.8 0.9 2.4 2.3 4.6 3.8l1.5-3.1c-1.8-1.1-3-2.1-3.6-2.8zm127.4-31.2c-0.7-0.9-1.5-1.7-2.4-2.4l-18.3 18.2v-22h-0.4c-1.1 0.2-2 0.5-3 0.8v42.6c1.1 0.4 2.2 0.6 3.4 0.9v-21.3l17.8 17.8c0.9-0.7 1.7-1.4 2.5-2.3l-16-16 16.4-16.3zm-320-3.7c-1-0.9-2.2-1.6-3.4-2.2v23.4c0 10.4-1.5 17.7-11.4 17.7h-0.9c-9.8 0-11.4-7.3-11.4-17.7v-23.5c-1.2 0.6-2.4 1.3-3.4 2.2v22.2c0 9.2 1.8 19.7 14.2 19.7h2.1c12.5 0 14.2-10.5 14.2-19.7v-22.1zm209.6 29.6c0-10.2 9.7-12.6 29.5-13.4-0.6-9.3-3.7-15.2-14.6-15.2-3 0-5.8 0.5-8.6 1.8l-1.5-2.9c3.3-1.7 6.7-2.1 10.1-2.1 13 0 18.1 7 18.1 22.1 0 15-5.1 22.1-18.1 22.1h-0.7c-11-0.1-14.2-5.1-14.2-12.4zm3.5 0.1c0 2.8 0.5 4.9 1.9 6.4 0.4 0.5 1 0.9 1.7 1.2 2.6 1.1 5.2 1.5 7.9 1.5 12.2 0 14.7-7.4 14.7-18.9v-0.7c-16.7 0.8-26.2 2.2-26.2 10.5zm-226 42.6c-2.2-0.7-4-1.2-4-3.3 0-2.3 1.6-3 3.8-3 1.5 0 3 0.3 4.3 1l0.7-1.7c-1.5-0.8-3.3-1-5.1-1-3.1 0-5.6 1.4-5.6 4.9 0 3.3 2.7 4.3 5.2 5 2.3 0.7 4.5 1.1 4.5 3.3 0 2.6-1.7 3.4-3.9 3.4-2 0-4-0.6-5.6-1.5l-0.7 1.7c1.6 1 3.9 1.6 6.3 1.6 3.5 0 5.9-1.6 5.9-5.1 0-3.7-3.2-4.6-5.8-5.3zm16.2-1.8c0.9 0 1.9 0.2 2.8 0.6l0.7-1.5c-1-0.6-2.2-0.8-3.5-0.8-3.8 0-5.5 2.1-5.5 6.8s1.7 6.8 5.5 6.8c1.3 0 2.5-0.2 3.5-0.8l-0.7-1.5c-0.9 0.5-1.8 0.6-2.8 0.6-2.6 0-3.6-1.2-3.6-5.2s0.9-5 3.6-5zm9.7-3.7c0.8 0 1.2-0.3 1.2-1.1s-0.5-1.1-1.2-1.1c-0.8 0-1.2 0.3-1.2 1.1s0.4 1.1 1.2 1.1zm0.9 2.3-1.9 0.3v8.3c0 1.7 0.1 3.2 0.5 4.5h1.8c-0.4-1.4-0.4-2.9-0.4-4.4v-8.7zm16.3 6.9v0.2l-8.7 0.7c0.1 3.1 1.4 4 3.8 4 1.3 0 2.5-0.3 3.7-1l0.7 1.4c-1.3 0.9-2.8 1.2-4.4 1.2-3.4 0-5.7-1.4-5.7-6.8 0-5.7 2.6-6.8 5.4-6.8 3.3-0.1 5.2 1.5 5.2 7.1zm-1.8-1.2c-0.1-3.3-1.3-4.4-3.3-4.4-2.2 0-3.6 1.2-3.6 4.7v0.3l6.9-0.6zm13.2-6c-2.2 0-3.5 0.7-4.3 2.1-0.1-0.7-0.3-1.3-0.5-1.9l-1.6 0.4c0.4 1.4 0.5 3 0.5 4.5v8.3h1.9v-9.2c0.8-1.7 1.8-2.6 3.7-2.6 2.7 0 2.9 1.8 2.9 4.7v7.1h1.9v-7.5c-0.1-3-0.7-5.9-4.5-5.9zm13.1-3.9-1.9 0.3v4h-2.2v1.6h2.2v5.2c0 2.9 0.2 5 2.3 6.6l1.3-1.1c-1.6-1.5-1.6-2.8-1.6-5v-5.7h2.7l0.2-1.6h-2.9v-4.3zm8.6 1.9c0.8 0 1.2-0.3 1.2-1.1s-0.5-1.1-1.2-1.1c-0.8 0-1.2 0.3-1.2 1.1s0.5 1.1 1.2 1.1zm1 2.3-1.9 0.3v8.3c0 1.7 0.1 3.2 0.5 4.5h1.8c-0.4-1.4-0.4-2.9-0.4-4.4v-8.7zm10.8-3.7c0.3 0 0.7 0.1 1.1 0.2l0.3-1.6c-0.5-0.1-1-0.2-1.5-0.2-2.8 0-3.7 1.6-3.7 3.8 0 0.6 0.1 1.2 0.2 1.8h-2.2v1.6h2.2v11.2h1.9v-11.2h2.8l0.2-1.6h-3c-0.2-0.5-0.2-1.2-0.2-1.7-0.2-1.6 0.2-2.3 1.9-2.3zm7.2 1.4c0.8 0 1.2-0.3 1.2-1.1s-0.5-1.1-1.2-1.1c-0.8 0-1.2 0.3-1.2 1.1s0.4 1.1 1.2 1.1zm0.9 2.3-1.9 0.3v8.3c0 1.7 0.1 3.2 0.5 4.5h1.8c-0.4-1.4-0.4-2.9-0.4-4.4v-8.7zm11.3 1.4c0.9 0 1.9 0.2 2.8 0.6l0.7-1.5c-1-0.6-2.2-0.8-3.5-0.8-3.8 0-5.5 2.1-5.5 6.8s1.7 6.8 5.5 6.8c1.3 0 2.5-0.2 3.5-0.8l-0.7-1.5c-0.9 0.5-1.8 0.6-2.8 0.6-2.6 0-3.6-1.2-3.6-5.2s0.9-5 3.6-5zm22.9-4.5c1.4 0 2.8 0.3 4.1 1l0.8-1.6c-1.4-0.9-3.2-1.1-5-1.1-4.1 0-6.9 2.1-6.9 9.2s2.9 9.2 6.9 9.2c1.8 0 3.6-0.2 5-1.1l-0.8-1.6c-1.3 0.8-2.7 1-4.1 1-3.1 0-5.1-1.2-5.1-7.4s2.1-7.6 5.1-7.6zm20.5 9.7c0 4.7-1.6 6.8-5.7 6.8s-5.7-2.2-5.7-6.8c0-4.7 1.6-6.8 5.7-6.8 4.1-0.1 5.7 2.1 5.7 6.8zm-1.9 0c0-3.3-0.6-5.2-3.8-5.2s-3.8 2-3.8 5.2 0.6 5.2 3.8 5.2 3.8-2 3.8-5.2zm21.4-6.9c-2.2 0-3.5 0.7-4.5 2.3-0.6-1.4-1.7-2.3-3.7-2.3-2.1 0-3.4 0.7-4.2 2.1-0.1-0.7-0.3-1.3-0.5-1.9l-1.6 0.4c0.4 1.4 0.5 3 0.5 4.5v8.3h1.9v-9.2c0.8-1.7 1.7-2.6 3.5-2.6 2.3 0 2.8 1.4 2.8 3.3v8.5h1.9v-9.2c0.8-1.7 1.7-2.6 3.5-2.6 2.6 0 2.8 1.8 2.8 4.7v7.1h1.9v-7.5c0-3-0.6-5.9-4.3-5.9zm20.7 6.9c0 5.7-2.7 6.8-5.3 6.8-1.3 0-2.4-0.2-3.4-0.8 0.1 0.9 0.1 1.7 0.1 2.5v1.9h-1.9v-12.2c0-1.6-0.1-3.1-0.5-4.5l1.6-0.4c0.2 0.6 0.4 1.3 0.5 1.9 0.8-1.4 2.1-2.1 4.2-2.1 3.3 0 4.7 2.3 4.7 6.9zm-1.9 0c0-3.2-0.6-5.3-3.1-5.3-1.9 0-2.8 1-3.7 2.6v7.1c1 0.6 2.1 0.8 3.2 0.8 2.3 0 3.6-0.9 3.6-5.2zm17.6-6.6-1.9 0.3v8.9c-0.8 1.7-1.8 2.6-3.7 2.6-2.7 0-2.9-1.8-2.9-4.7v-7.1l-1.9 0.3v7.2c0 3.1 0.6 5.9 4.4 5.9 2.2 0 3.5-0.7 4.3-2.1 0.1 0.7 0.3 1.3 0.5 1.9l1.6-0.4c-0.4-1.4-0.5-3-0.5-4.5v-8.3zm8.9-4.2-1.9 0.3v4h-2.2v1.6h2.2v5.2c0 2.9 0.2 5 2.3 6.6l1.3-1.1c-1.6-1.5-1.6-2.8-1.6-5v-5.7h2.7l0.2-1.6h-2.9v-4.3zm8.6 1.9c0.8 0 1.2-0.3 1.2-1.1s-0.5-1.1-1.2-1.1c-0.8 0-1.2 0.3-1.2 1.1s0.4 1.1 1.2 1.1zm0.9 2.3-1.9 0.3v8.3c0 1.7 0.1 3.2 0.5 4.5h1.8c-0.4-1.4-0.4-2.9-0.4-4.4v-8.7zm12.1-0.3c-2.2 0-3.5 0.7-4.3 2.1-0.1-0.7-0.3-1.3-0.5-1.9l-1.6 0.4c0.4 1.4 0.5 3 0.5 4.5v8.3h1.9v-9.2c0.8-1.7 1.8-2.6 3.7-2.6 2.7 0 2.9 1.8 2.9 4.7v7.1h1.9v-7.5c-0.1-3-0.7-5.9-4.5-5.9zm15.2 0c1.8 0 3.5 0.2 5.1 0.8v11.6c0 3.6-1.9 5.1-5 5.1-1.2 0-2.5-0.2-3.6-0.7l0.5-1.5c0.9 0.5 2 0.7 3.2 0.7 1.9 0 3.1-0.9 3.1-3.6v-0.9c-0.7 1.3-2 1.8-4 1.8-3.3 0-4.7-2.2-4.7-6.7 0-5.3 2.4-6.6 5.4-6.6zm3.3 2.1c-1-0.4-2.2-0.5-3.3-0.5-2.2 0-3.5 1-3.5 5.1 0 3.1 0.6 5.1 3.1 5.1 1.9 0 2.8-0.9 3.7-2.5v-7.2z" fill="#b1b1b1"/></svg>
