<?xml version="1.0" encoding="UTF-8" standalone="no"?>
<!-- Generator: Adobe Illustrator 19.2.1, SVG Export Plug-In . SVG Version: 6.00 Build 0)  -->

<svg
   xmlns:dc="http://purl.org/dc/elements/1.1/"
   xmlns:cc="http://creativecommons.org/ns#"
   xmlns:rdf="http://www.w3.org/1999/02/22-rdf-syntax-ns#"
   xmlns:svg="http://www.w3.org/2000/svg"
   xmlns="http://www.w3.org/2000/svg"
   xmlns:sodipodi="http://sodipodi.sourceforge.net/DTD/sodipodi-0.dtd"
   xmlns:inkscape="http://www.inkscape.org/namespaces/inkscape"
   version="1.1"
   id="Calque_1"
   x="0px"
   y="0px"
   viewBox="0 0 500 128.4"
   xml:space="preserve"
   inkscape:version="0.91 r13725"
   sodipodi:docname="quantstack-color.svg"
   width="500"
   height="128.39999"><metadata
     id="metadata11"><rdf:RDF><cc:Work
         rdf:about=""><dc:format>image/svg+xml</dc:format><dc:type
           rdf:resource="http://purl.org/dc/dcmitype/StillImage" /><dc:title></dc:title></cc:Work></rdf:RDF></metadata><defs
     id="defs9" /><sodipodi:namedview
     pagecolor="#ffffff"
     bordercolor="#666666"
     borderopacity="1"
     objecttolerance="10"
     gridtolerance="10"
     guidetolerance="10"
     inkscape:pageopacity="0"
     inkscape:pageshadow="2"
     inkscape:window-width="1847"
     inkscape:window-height="1056"
     id="namedview7"
     showgrid="false"
     inkscape:zoom="0.55185185"
     inkscape:cx="270"
     inkscape:cy="84.199997"
     inkscape:window-x="73"
     inkscape:window-y="24"
     inkscape:window-maximized="1"
     inkscape:current-layer="Calque_1" /><style
     type="text/css"
     id="style3">
	.st0{fill:#111212;}
</style><path
     class="st0"
     d="m 311.5,59.59999 c -0.5,2.9 -2.2,7.3 -7,11.3 -4.3,3.5 -9.7,4.9 -15.5,4.9 -5.7,0 -11.8,-1.4 -17.7,-3.4 l 1.8,-3.5 c 10.7,3.6 21.8,4.9 28.9,-1 3.2,-2.6 5.1,-5.6 5.7,-8.9 1.2,-6.499996 -3.3,-11.799996 -3.5,-11.999996 -3.3,-3.6 -7.8,-4.1 -17.4,-7.6 -2.1,-0.7 -3.7,-1.4 -5.9,-2.3 l 0,0 c 0,0 0,0 0,0 -0.7,-0.3 -1.5,-0.6 -2.4,-1 l 0,0 c -5.9,-2.9 -9.8,-7.1 -9.8,-14.8 0,-13.1000001 9.5,-17.7 20.4,-17.7 5.2,0 10.2,0.6 14.7,2.3 l -1.7,3.3999999 C 297.9,7.799994 293.7,7.299994 289.3,7.299994 c -9.4,0 -16.7,3.4 -16.7,13.9 0,6.8 4.1,10 10,12.4 l 0,0 c 2,0.8 4,1.6 6.1,2.4 9.8,3.6 15.4,5.2 18.4,8.6 0.6,0.5 5.8,6.8 4.4,14.999996 z m -64.1,-3.999996 c -1.9,-1.4 -3.3,-2.5 -3.9,-3.3 -1.5,-1.7 -2.3,-3.7 -2.3,-3.7 -0.8,-1.8 -1.1,-3.7 -1.1,-5.8 0,-1.3 0,-16.6 0,-16.6 l 12,0 1.8,-3.6 -13.9,0 0,-12.4 -3.8,0 0,12.5 -13.8,0 1.8,3.6 11.9,0 c 0,0 0,14 0,15.5 l 0,0 c -0.2,3 0.3,5.8 1.4,8.4 0,0.1 1.1,2.5 2.9,4.7 0.9,1 2.7,2.5 5.1,4.299996 l 1.9,-3.599996 z m -91.4,-8.6 c 0,17.299996 -5.8,25.399996 -20.7,25.399996 -0.2,0 -0.7,0 -0.8,0 -12.7,0 -16.4,-5.8 -16.4,-14.2 0,-11.799996 11.1,-14.499996 33.9,-15.399996 -0.7,-10.8 -4.3,-17.5 -16.8,-17.5 -3.4,0 -6.7,0.5 -9.9,2.1 l -1.7,-3.3 c 3.8,-1.9 7.7,-2.4 11.6,-2.4 14.9,0 20.8,8.1 20.8,25.3 z m -3.9,-0.8 c -19.1,1 -30,2.6 -30,12.099996 0,3.2 0.6,5.7 2.1,7.4 0.5,0.6 1.2,1 1.9,1.4 2.9,1.3 5.9,1.7 9.1,1.7 14,0 16.9,-8.5 16.9,-21.699996 0,-0.3 0,-0.6 0,-0.9 z m 39.9,-24.6 -2.1,0 c -14.3,0 -16.4,12.1 -16.4,22.7 l 0,25.499996 c 1.2,1 2.5,1.8 3.9,2.6 l 0,-26.899996 c 0,-12 1.8,-20.4 13.1,-20.4 l 1,0 c 11.3,0 13.1,8.4 13.1,20.4 l 0,26.899996 c 1.4,-0.7 2.7,-1.5 3.9,-2.5 l 0,-25.599996 c -0.2,-10.6 -2.2,-22.7 -16.5,-22.7 z M 65.9,97.69999 c -1,1.000004 -2.1,1.900004 -3.4,2.7 -10.6,-5.5 -18.4,-15 -22.3,-27.4 -3.7,1.9 -8.2,2.8 -13.6,2.8 -19.1,0 -26.6,-11.2 -26.6,-35.299996 0,-24.1 7.5,-35.3 26.6,-35.3 19.1,0 26.6,11.2 26.6,35.3 0,14.9 -2.9,24.899996 -9.6,30.299996 3.7,12.5 11.4,21.8 22.3,26.9 z M 49.2,40.399994 C 49.2,21.499994 45.4,8.7999939 26.6,8.7999939 7.8,8.7999939 4,21.499994 4,40.399994 4,59.29999 7.8,71.99999 26.6,71.99999 c 18.8,0 22.6,-12.7 22.6,-31.599996 z m 54.1,9.3 0,-25.5 c -1.2,-1 -2.5,-1.8 -3.9,-2.6 l 0,26.9 C 99.4,60.49999 97.6,68.89999 86.3,68.89999 l -1,0 c -11.3,0 -13.1,-8.4 -13.1,-20.399996 l 0,-26.9 c -1.4,0.7 -2.7,1.5 -3.9,2.5 l 0,25.6 c 0,10.599996 2,22.699996 16.4,22.699996 l 2.1,0 c 14.5,0 16.5,-12.1 16.5,-22.699996 z m 302.7,-2.7 c 0,17.299996 -5.8,25.399996 -20.7,25.399996 -0.2,0 -0.7,0 -0.8,0 -12.7,0 -16.4,-5.8 -16.4,-14.2 0,-11.799996 11.1,-14.499996 33.9,-15.399996 -0.7,-10.8 -4.3,-17.5 -16.8,-17.5 -3.4,0 -6.7,0.5 -9.9,2.1 l -1.7,-3.3 c 3.8,-1.9 7.7,-2.4 11.6,-2.4 14.9,0 20.8,8.1 20.8,25.3 z m -3.9,-0.8 c -19.1,1 -30,2.6 -30,12.099996 0,3.2 0.6,5.7 2.1,7.4 0.5,0.6 1.2,1 1.9,1.4 2.9,1.3 5.9,1.7 9.1,1.7 14,0 16.9,-8.5 16.9,-21.699996 0,-0.3 0,-0.6 0,-0.9 z m 41.2,22.599996 c -14,0 -16.9,-8.5 -16.9,-21.699996 0,-13.2 2.8,-21.7 16.9,-21.7 3.5,0 6.9,0.6 10.1,2.2 l 1.7,-3.3 c -3.9,-2 -7.9,-2.5 -11.8,-2.5 -14.9,0 -20.7,8.1 -20.7,25.3 0,17.299996 5.8,25.399996 20.7,25.399996 3.9,0 7.9,-0.5 11.8,-2.5 l -1.7,-3.3 c -3.2,1.5 -6.6,2.1 -10.1,2.1 z m -99.7,-4.5 c -1.5,-1.7 -2.3,-3.7 -2.3,-3.7 -0.8,-1.8 -1.1,-3.699996 -1.1,-5.799996 0,-1.3 0,-28.3 0,-28.3 l 13.8,0 -1.9,-3.6 -12,0 0,-12.4 -3.8,0 0,12.5 -12.1,0 -1.9,3.6 13.9,0 c 0,0 0,25.7 0,27.2 l 0,0 c -0.2,3 0.3,5.799996 1.4,8.399996 0,0.1 1.1,2.5 2.9,4.7 0.9,1 2.7,2.6 5.2,4.4 l 1.7,-3.6 c -1.8,-1.5 -3.2,-2.6 -3.8,-3.4 z M 500,28.499994 c -0.8,-1 -1.8,-1.9 -2.8,-2.7 l -21,21 0,-25.4 -0.5,0 c -1.2,0.2 -2.4,0.5 -3.4,0.9 l 0,48.999996 c 1.2,0.4 2.5,0.7 3.9,1 l 0,-24.499996 20.5,20.499996 c 1,-0.8 2,-1.7 2.9,-2.6 l -18.4,-18.399996 18.8,-18.8 z M 102.1,109.99999 c -2.5,-0.8 -4.7,-1.4 -4.7,-3.8 0,-2.7 1.9,-3.5 4.4,-3.5 1.7,0 3.4,0.3 5,1.1 l 0.8,-2 c -1.8,-0.9 -3.8,-1.2 -5.9,-1.2 -3.6,0 -6.5,1.7 -6.5,5.7 0,3.8 3.2,5 6.1,5.9 2.6,0.8 5.2,1.2 5.2,3.8 0,3 -2,3.9 -4.6,3.9 -2.4,0 -4.6,-0.6 -6.5,-1.8 l -0.8,2 c 1.9,1.2 4.5,1.9 7.4,1.9 4.1,0 6.8,-1.9 6.8,-6 0,-4.1 -3.7,-5.1 -6.7,-6 z m 18.8,-2 c 1.1,0 2.2,0.2 3.2,0.7 l 0.8,-1.7 c -1.2,-0.7 -2.5,-0.9 -4.1,-0.9 -4.4,0 -6.4,2.4 -6.4,7.9 0,5.5 2,7.9 6.4,7.9 1.6,0 2.9,-0.3 4.1,-0.9 l -0.8,-1.7 c -1,0.5 -2.1,0.7 -3.2,0.7 -3.1,0 -4.2,-1.4 -4.2,-6 -0.1,-4.6 1.1,-6 4.2,-6 z m 12.4,-1.6 -2.2,0.3 0,9.7 c 0,2 0.1,3.8 0.6,5.2 l 2.1,0 c -0.4,-1.6 -0.5,-3.4 -0.5,-5.1 l 0,-10.1 z m -1.1,-2.8 c 0.9,0 1.4,-0.4 1.4,-1.3 0,-0.9 -0.5,-1.3 -1.4,-1.3 -0.9,0 -1.4,0.4 -1.4,1.3 0,1 0.5,1.3 1.4,1.3 z m 20,10.8 0,0.3 -10.1,0.8 c 0.1,3.6 1.7,4.7 4.4,4.7 1.6,0 2.9,-0.4 4.3,-1.2 l 0.8,1.7 c -1.5,1 -3.3,1.4 -5.1,1.4 -4,0 -6.6,-1.6 -6.6,-7.9 0,-6.6 3,-7.9 6.3,-7.9 3.8,-0.2 6,1.6 6,8.1 z m -2.1,-1.4 c -0.1,-3.8 -1.5,-5.1 -3.9,-5.1 -2.6,0 -4.2,1.4 -4.2,5.5 l 0,0.3 8.1,-0.7 z m 15.4,-6.9 c -2.5,0 -4,0.9 -4.9,2.4 -0.1,-0.8 -0.4,-1.5 -0.6,-2.3 l -1.8,0.4 c 0.4,1.6 0.5,3.4 0.5,5.3 l 0,9.7 2.2,0 0,-10.7 c 1,-1.9 2.1,-3.1 4.3,-3.1 3.2,0 3.4,2.1 3.4,5.4 l 0,8.3 2.2,0 0,-8.7 c -0.2,-3.5 -1,-6.7 -5.3,-6.7 z m 15.2,-4.6 -2.2,0.3 0,4.6 -2.6,0 0,1.9 2.6,0 0,6.1 c 0,3.3 0.2,5.8 2.6,7.7 l 1.5,-1.2 c -1.9,-1.8 -1.9,-3.3 -1.9,-5.9 l 0,-6.7 3.2,0 0.2,-1.9 -3.4,0 0,-4.9 z m 10,2.1 c 0.9,0 1.4,-0.4 1.4,-1.3 0,-0.9 -0.5,-1.3 -1.4,-1.3 -0.9,0 -1.4,0.4 -1.4,1.3 0,1 0.6,1.3 1.4,1.3 z m 1.1,2.8 -2.2,0.3 0,9.7 c 0,2 0.1,3.8 0.6,5.2 l 2.1,0 c -0.4,-1.6 -0.5,-3.4 -0.5,-5.1 l 0,-10.1 z m 12.6,-4.4 c 0.4,0 0.8,0.1 1.2,0.2 l 0.4,-1.9 c -0.6,-0.1 -1.2,-0.2 -1.8,-0.2 -3.3,0 -4.3,1.9 -4.3,4.5 0,0.7 0.1,1.4 0.2,2.1 l -2.5,0 0,1.9 2.6,0 0,13 2.2,0 0,-13 3.2,0 0.2,-1.9 -3.5,0 c -0.2,-0.6 -0.2,-1.4 -0.2,-2 -0.1,-1.8 0.3,-2.7 2.3,-2.7 z m 9.4,4.4 -2.2,0.3 0,9.7 c 0,2 0.1,3.8 0.6,5.2 l 2.1,0 c -0.4,-1.6 -0.5,-3.4 -0.5,-5.1 l 0,-10.1 z m -1,-2.8 c 0.9,0 1.4,-0.4 1.4,-1.3 0,-0.9 -0.5,-1.3 -1.4,-1.3 -0.9,0 -1.4,0.4 -1.4,1.3 -0.1,1 0.5,1.3 1.4,1.3 z m 14.1,4.4 c 1.1,0 2.2,0.2 3.2,0.7 l 0.8,-1.7 c -1.2,-0.7 -2.5,-0.9 -4.1,-0.9 -4.4,0 -6.4,2.4 -6.4,7.9 0,5.5 2,7.9 6.4,7.9 1.6,0 2.9,-0.3 4.1,-0.9 l -0.8,-1.7 c -1,0.5 -2.1,0.7 -3.2,0.7 -3.1,0 -4.2,-1.4 -4.2,-6 0,-4.6 1.2,-6 4.2,-6 z m 26.7,-5.3 c 1.6,0 3.3,0.3 4.8,1.2 l 0.9,-1.9 c -1.6,-1.1 -3.7,-1.3 -5.8,-1.3 -4.7,0 -8.1,2.4 -8.1,10.7 0,8.2 3.3,10.7 8.1,10.7 2.1,0 4.2,-0.2 5.8,-1.3 l -0.9,-1.9 c -1.5,0.9 -3.1,1.2 -4.8,1.2 -3.6,0 -5.9,-1.4 -5.9,-8.6 0.1,-7.4 2.3,-8.8 5.9,-8.8 z m 23.8,11.3 c 0,5.4 -1.9,7.9 -6.6,7.9 -4.7,0 -6.6,-2.5 -6.6,-7.9 0,-5.4 1.9,-7.9 6.6,-7.9 4.7,0 6.6,2.5 6.6,7.9 z m -2.2,0 c 0,-3.8 -0.6,-6.1 -4.4,-6.1 -3.8,0 -4.4,2.3 -4.4,6.1 0,3.8 0.6,6.1 4.4,6.1 3.8,0 4.4,-2.3 4.4,-6.1 z m 24.9,-7.9 c -2.5,0 -4.1,0.8 -5.2,2.6 -0.7,-1.6 -1.9,-2.6 -4.4,-2.6 -2.4,0 -3.9,0.9 -4.8,2.4 -0.1,-0.8 -0.4,-1.5 -0.6,-2.3 l -1.8,0.4 c 0.4,1.6 0.5,3.4 0.5,5.3 l 0,9.7 2.2,0 0,-10.7 c 0.9,-1.9 2,-3.1 4.1,-3.1 2.7,0 3.2,1.7 3.2,3.8 l 0,9.9 2.2,0 0,-10.7 c 0.9,-1.9 2,-3.1 4.1,-3.1 3.1,0 3.2,2.1 3.2,5.4 l 0,8.3 2.2,0 0,-8.7 c 0.1,-3.4 -0.6,-6.6 -4.9,-6.6 z m 24.1,7.9 c 0,6.6 -3.1,7.9 -6.2,7.9 -1.5,0 -2.7,-0.2 -4,-0.9 0.1,1 0.1,1.9 0.1,2.9 l 0,2.2 -2.2,0 0,-14.2 c 0,-1.8 -0.1,-3.6 -0.5,-5.3 l 1.8,-0.4 c 0.3,0.7 0.5,1.5 0.6,2.3 0.9,-1.6 2.5,-2.4 4.9,-2.4 3.8,0 5.5,2.6 5.5,7.9 z m -2.2,0 c 0,-3.8 -0.6,-6.1 -3.6,-6.1 -2.2,0 -3.3,1.1 -4.3,3.1 l 0,8.3 c 1.2,0.7 2.5,0.9 3.7,0.9 2.6,-0.1 4.2,-1.2 4.2,-6.2 z m 20.4,-7.6 -2.2,0.3 0,10.4 c -1,1.9 -2.1,3.1 -4.3,3.1 -3.2,0 -3.4,-2.1 -3.4,-5.4 l 0,-8.3 -2.2,0.3 0,8.4 c 0,3.6 0.7,6.8 5.1,6.8 2.5,0 4,-0.9 4.9,-2.4 0.1,0.8 0.4,1.5 0.6,2.3 l 1.8,-0.4 c -0.4,-1.6 -0.5,-3.4 -0.5,-5.3 l 0,-9.8 z m 10.3,-4.9 -2.2,0.3 0,4.6 -2.6,0 0,1.9 2.6,0 0,6.1 c 0,3.3 0.2,5.8 2.6,7.7 l 1.5,-1.2 c -1.9,-1.8 -1.9,-3.3 -1.9,-5.9 l 0,-6.7 3.2,0 0.2,-1.9 -3.4,0 0,-4.9 z m 11.2,4.9 -2.2,0.3 0,9.7 c 0,2 0.1,3.8 0.6,5.2 l 2.1,0 c -0.4,-1.6 -0.5,-3.4 -0.5,-5.1 l 0,-10.1 z m -1.1,-2.8 c 0.9,0 1.4,-0.4 1.4,-1.3 0,-0.9 -0.5,-1.3 -1.4,-1.3 -0.9,0 -1.4,0.4 -1.4,1.3 0,1 0.5,1.3 1.4,1.3 z m 15.1,2.5 c -2.5,0 -4,0.9 -4.9,2.4 -0.1,-0.8 -0.4,-1.5 -0.6,-2.3 l -1.8,0.4 c 0.4,1.6 0.5,3.4 0.5,5.3 l 0,9.7 2.2,0 0,-10.7 c 1,-1.9 2.1,-3.1 4.3,-3.1 3.2,0 3.4,2.1 3.4,5.4 l 0,8.3 2.2,0 0,-8.7 c -0.2,-3.5 -0.9,-6.7 -5.3,-6.7 z m 17.7,0 c 2.1,0 4.1,0.2 5.9,0.9 l 0,13.5 c 0,4.1 -2.2,5.9 -5.8,5.9 -1.4,0 -2.9,-0.2 -4.2,-0.8 l 0.6,-1.8 c 1.1,0.5 2.4,0.8 3.7,0.8 2.3,0 3.6,-1 3.6,-4.2 l 0,-1 c -0.9,1.5 -2.3,2.1 -4.6,2.1 -3.8,0 -5.5,-2.6 -5.5,-7.7 0,-6.2 2.8,-7.7 6.3,-7.7 z m 3.8,2.3 c -1.1,-0.5 -2.5,-0.5 -3.9,-0.5 -2.5,0 -4,1.2 -4,5.9 0,3.6 0.6,5.9 3.6,5.9 2.2,0 3.3,-1.1 4.3,-2.9 l 0,-8.4 z"
     id="path5"
     inkscape:connector-curvature="0"
     style="fill:#111212" /></svg>