<?xml version="1.0" encoding="UTF-8" standalone="no"?>
<!-- Generator: Adobe Illustrator 19.2.1, SVG Export Plug-In . SVG Version: 6.00 Build 0)  -->

<svg
   xmlns:dc="http://purl.org/dc/elements/1.1/"
   xmlns:cc="http://creativecommons.org/ns#"
   xmlns:rdf="http://www.w3.org/1999/02/22-rdf-syntax-ns#"
   xmlns:svg="http://www.w3.org/2000/svg"
   xmlns="http://www.w3.org/2000/svg"
   xmlns:sodipodi="http://sodipodi.sourceforge.net/DTD/sodipodi-0.dtd"
   xmlns:inkscape="http://www.inkscape.org/namespaces/inkscape"
   version="1.1"
   id="Calque_1"
   x="0px"
   y="0px"
   viewBox="0 0 409 110"
   xml:space="preserve"
   inkscape:version="0.91 r13725"
   sodipodi:docname="quantstack-color.svg"
   width="409"
   height="110"><metadata
     id="metadata9"><rdf:RDF><cc:Work
         rdf:about=""><dc:format>image/svg+xml</dc:format><dc:type
           rdf:resource="http://purl.org/dc/dcmitype/StillImage" /><dc:title></dc:title></cc:Work></rdf:RDF></metadata><defs
     id="defs7" /><sodipodi:namedview
     pagecolor="#ffffff"
     bordercolor="#666666"
     borderopacity="1"
     objecttolerance="10"
     gridtolerance="10"
     guidetolerance="10"
     inkscape:pageopacity="0"
     inkscape:pageshadow="2"
     inkscape:window-width="1070"
     inkscape:window-height="565"
     id="namedview5"
     showgrid="false"
     inkscape:zoom="0.73341094"
     inkscape:cx="214.75"
     inkscape:cy="62.5"
     inkscape:window-x="0"
     inkscape:window-y="23"
     inkscape:window-maximized="0"
     inkscape:current-layer="Calque_1" /><path
     d="m 202.7,52.1 c -2.1,-1.5 -3.7,-2.8 -4.4,-3.7 -1.6,-1.9 -2.5,-4 -2.6,-4.1 -1,-2.3 -1.4,-4.7 -1.2,-7.3 l 0,0 c 0,-1.3 0,-13.5 0,-13.5 l -10.4,0 -1.6,-3.1 12,0 0,-10.9 3.3,0 0,10.8 12.1,0 -1.6,3.1 -10.4,0 c 0,0 0,13.3 0,14.5 0,1.8 0.3,3.5 1,5 0,0 0.8,1.7 2,3.2 0.6,0.6 1.8,1.7 3.4,2.9 l -1.6,3.1 z M 100,51.3 c 0,-10.2 9.7,-12.6 29.5,-13.4 -0.6,-9.3 -3.7,-15.2 -14.6,-15.2 -3,0 -5.8,0.5 -8.6,1.8 l -1.5,-2.9 c 3.3,-1.7 6.7,-2.1 10.1,-2.1 13,0 18.1,7 18.1,22.1 0,15 -5.1,22.1 -18.1,22.1 -0.1,0 -0.6,0 -0.7,0 C 103.2,63.6 100,58.6 100,51.3 Z m 3.5,0.1 c 0,2.8 0.5,4.9 1.9,6.4 0.4,0.5 1,0.9 1.7,1.2 2.6,1.1 5.2,1.5 7.9,1.5 12.2,0 14.7,-7.4 14.7,-18.9 0,-0.2 0,-0.5 0,-0.7 -16.7,0.8 -26.2,2.2 -26.2,10.5 z m 59.1,-32 -1.9,0 c -12.5,0 -14.2,10.5 -14.2,19.7 l 0,22.2 c 1,0.9 2.2,1.6 3.4,2.2 l 0,-23.3 c 0,-10.4 1.5,-17.7 11.4,-17.7 l 0.9,0 c 9.8,0 11.4,7.3 11.4,17.7 l 0,23.4 c 1.2,-0.6 2.4,-1.3 3.4,-2.2 l 0,-22.2 c -0.2,-9.3 -2,-19.8 -14.4,-19.8 z m 91.5,19.8 c -2.5,-2.9 -7.4,-4.4 -16,-7.5 -1.9,-0.7 -3.6,-1.3 -5.3,-2.1 l 0,0 c -5.1,-2.1 -8.7,-4.8 -8.7,-10.8 0,-9.2 6.4,-12.1 14.5,-12.1 3.8,0 7.5,0.4 11.2,1.7 l 1.5,-2.9 c -4,-1.5 -8.3,-2 -12.8,-2 -9.4,0 -17.7,4.1 -17.7,15.4 0,6.7 3.4,10.4 8.6,12.9 l 0,0 c 0.8,0.3 1.4,0.6 2.1,0.9 0,0 0,0 0,0 l 0,0 c 1.9,0.8 3.3,1.4 5.1,2 8.4,3 12.3,3.5 15.1,6.6 0.2,0.2 4.1,4.8 3.1,10.4 -0.5,2.9 -2.2,5.5 -4.9,7.8 -6.2,5.1 -15.9,4 -25.2,0.9 l -1.6,3.1 c 5.1,1.8 10.4,3 15.4,3 5.1,0 9.7,-1.2 13.5,-4.3 4.2,-3.5 5.7,-7.2 6.1,-9.8 1.1,-7 -3.5,-12.6 -4,-13.2 z M 57.2,85.7 C 56.3,86.6 55.4,87.4 54.3,88 45,83.2 38.3,74.9 34.9,64.1 31.7,65.7 27.8,66.5 23.1,66.5 6.5,66.5 0,56.8 0,35.8 0,14.9 6.5,5.1 23.1,5.1 c 16.6,0 23.1,9.7 23.1,30.7 0,13 -2.5,21.6 -8.4,26.4 3.2,10.9 10,19 19.4,23.5 z M 42.7,35.8 C 42.7,19.4 39.4,8.3 23,8.3 6.6,8.3 3.3,19.3 3.3,35.8 c 0,16.4 3.3,27.5 19.7,27.5 16.4,0 19.7,-11 19.7,-27.5 z m 317.9,24.7 c -12.2,0 -14.7,-7.4 -14.7,-18.9 0,-11.5 2.5,-18.9 14.7,-18.9 3.1,0 6,0.5 8.8,1.9 l 1.5,-2.9 c -3.4,-1.7 -6.9,-2.1 -10.2,-2.1 -13,0 -18.1,7 -18.1,22.1 0,15 5.1,22.1 18.1,22.1 3.4,0 6.9,-0.4 10.3,-2.1 l -1.5,-2.9 c -3,1.2 -5.9,1.7 -8.9,1.7 z m -79.3,-3.9 c -1.3,-1.5 -2,-3.2 -2,-3.2 -0.7,-1.6 -1,-3.3 -1,-5 0,-1.2 0,-24.7 0,-24.7 l 12,0 -1.6,-3.1 -10.4,0 0,-10.9 -3.3,0 0,10.8 -10.5,0 -1.6,3.1 12.1,0 c 0,0 0,22.4 0,23.7 l 0,0 c -0.1,2.6 0.3,5.1 1.2,7.3 0,0.1 1,2.2 2.6,4.1 0.8,0.9 2.4,2.3 4.6,3.8 l 1.5,-3.1 c -1.8,-1.1 -3,-2.1 -3.6,-2.8 z M 408.7,25.4 C 408,24.5 407.2,23.7 406.3,23 l -18.3,18.2 0,-22 -0.4,0 c -1.1,0.2 -2,0.5 -3,0.8 l 0,42.6 c 1.1,0.4 2.2,0.6 3.4,0.9 l 0,-21.3 17.8,17.8 c 0.9,-0.7 1.7,-1.4 2.5,-2.3 l -16,-16 16.4,-16.3 z m -320,-3.7 c -1,-0.9 -2.2,-1.6 -3.4,-2.2 l 0,23.4 c 0,10.4 -1.5,17.7 -11.4,17.7 l -0.9,0 c -9.8,0 -11.4,-7.3 -11.4,-17.7 l 0,-23.5 c -1.2,0.6 -2.4,1.3 -3.4,2.2 l 0,22.2 c 0,9.2 1.8,19.7 14.2,19.7 l 2.1,0 C 87,63.5 88.7,53 88.7,43.8 l 0,-22.1 z m 209.6,29.6 c 0,-10.2 9.7,-12.6 29.5,-13.4 -0.6,-9.3 -3.7,-15.2 -14.6,-15.2 -3,0 -5.8,0.5 -8.6,1.8 l -1.5,-2.9 c 3.3,-1.7 6.7,-2.1 10.1,-2.1 13,0 18.1,7 18.1,22.1 0,15 -5.1,22.1 -18.1,22.1 -0.1,0 -0.6,0 -0.7,0 -11,-0.1 -14.2,-5.1 -14.2,-12.4 z m 3.5,0.1 c 0,2.8 0.5,4.9 1.9,6.4 0.4,0.5 1,0.9 1.7,1.2 2.6,1.1 5.2,1.5 7.9,1.5 12.2,0 14.7,-7.4 14.7,-18.9 0,-0.2 0,-0.5 0,-0.7 -16.7,0.8 -26.2,2.2 -26.2,10.5 z M 75.8,94 c -2.2,-0.7 -4,-1.2 -4,-3.3 0,-2.3 1.6,-3 3.8,-3 1.5,0 3,0.3 4.3,1 L 80.6,87 c -1.5,-0.8 -3.3,-1 -5.1,-1 -3.1,0 -5.6,1.4 -5.6,4.9 0,3.3 2.7,4.3 5.2,5 2.3,0.7 4.5,1.1 4.5,3.3 0,2.6 -1.7,3.4 -3.9,3.4 -2,0 -4,-0.6 -5.6,-1.5 l -0.7,1.7 c 1.6,1 3.9,1.6 6.3,1.6 3.5,0 5.9,-1.6 5.9,-5.1 0,-3.7 -3.2,-4.6 -5.8,-5.3 z M 92,92.2 c 0.9,0 1.9,0.2 2.8,0.6 l 0.7,-1.5 c -1,-0.6 -2.2,-0.8 -3.5,-0.8 -3.8,0 -5.5,2.1 -5.5,6.8 0,4.7 1.7,6.8 5.5,6.8 1.3,0 2.5,-0.2 3.5,-0.8 l -0.7,-1.5 c -0.9,0.5 -1.8,0.6 -2.8,0.6 -2.6,0 -3.6,-1.2 -3.6,-5.2 0,-4 0.9,-5 3.6,-5 z m 9.7,-3.7 c 0.8,0 1.2,-0.3 1.2,-1.1 0,-0.8 -0.5,-1.1 -1.2,-1.1 -0.8,0 -1.2,0.3 -1.2,1.1 0,0.8 0.4,1.1 1.2,1.1 z m 0.9,2.3 -1.9,0.3 0,8.3 c 0,1.7 0.1,3.2 0.5,4.5 l 1.8,0 c -0.4,-1.4 -0.4,-2.9 -0.4,-4.4 l 0,-8.7 z m 16.3,6.9 0,0.2 -8.7,0.7 c 0.1,3.1 1.4,4 3.8,4 1.3,0 2.5,-0.3 3.7,-1 l 0.7,1.4 c -1.3,0.9 -2.8,1.2 -4.4,1.2 -3.4,0 -5.7,-1.4 -5.7,-6.8 0,-5.7 2.6,-6.8 5.4,-6.8 3.3,-0.1 5.2,1.5 5.2,7.1 z m -1.8,-1.2 c -0.1,-3.3 -1.3,-4.4 -3.3,-4.4 -2.2,0 -3.6,1.2 -3.6,4.7 l 0,0.3 6.9,-0.6 z m 13.2,-6 c -2.2,0 -3.5,0.7 -4.3,2.1 -0.1,-0.7 -0.3,-1.3 -0.5,-1.9 l -1.6,0.4 c 0.4,1.4 0.5,3 0.5,4.5 l 0,8.3 1.9,0 0,-9.2 c 0.8,-1.7 1.8,-2.6 3.7,-2.6 2.7,0 2.9,1.8 2.9,4.7 l 0,7.1 1.9,0 0,-7.5 c -0.1,-3 -0.7,-5.9 -4.5,-5.9 z m 13.1,-3.9 -1.9,0.3 0,4 -2.2,0 0,1.6 2.2,0 0,5.2 c 0,2.9 0.2,5 2.3,6.6 l 1.3,-1.1 c -1.6,-1.5 -1.6,-2.8 -1.6,-5 l 0,-5.7 2.7,0 0.2,-1.6 -2.9,0 0,-4.3 z m 8.6,1.9 c 0.8,0 1.2,-0.3 1.2,-1.1 0,-0.8 -0.5,-1.1 -1.2,-1.1 -0.8,0 -1.2,0.3 -1.2,1.1 0,0.8 0.5,1.1 1.2,1.1 z m 1,2.3 -1.9,0.3 0,8.3 c 0,1.7 0.1,3.2 0.5,4.5 l 1.8,0 C 153,102.5 153,101 153,99.5 l 0,-8.7 z m 10.8,-3.7 c 0.3,0 0.7,0.1 1.1,0.2 l 0.3,-1.6 c -0.5,-0.1 -1,-0.2 -1.5,-0.2 -2.8,0 -3.7,1.6 -3.7,3.8 0,0.6 0.1,1.2 0.2,1.8 l -2.2,0 0,1.6 2.2,0 0,11.2 1.9,0 0,-11.2 2.8,0 0.2,-1.6 -3,0 c -0.2,-0.5 -0.2,-1.2 -0.2,-1.7 -0.2,-1.6 0.2,-2.3 1.9,-2.3 z m 7.2,1.4 c 0.8,0 1.2,-0.3 1.2,-1.1 0,-0.8 -0.5,-1.1 -1.2,-1.1 -0.8,0 -1.2,0.3 -1.2,1.1 0,0.8 0.4,1.1 1.2,1.1 z m 0.9,2.3 -1.9,0.3 0,8.3 c 0,1.7 0.1,3.2 0.5,4.5 l 1.8,0 c -0.4,-1.4 -0.4,-2.9 -0.4,-4.4 l 0,-8.7 z m 11.3,1.4 c 0.9,0 1.9,0.2 2.8,0.6 l 0.7,-1.5 c -1,-0.6 -2.2,-0.8 -3.5,-0.8 -3.8,0 -5.5,2.1 -5.5,6.8 0,4.7 1.7,6.8 5.5,6.8 1.3,0 2.5,-0.2 3.5,-0.8 l -0.7,-1.5 c -0.9,0.5 -1.8,0.6 -2.8,0.6 -2.6,0 -3.6,-1.2 -3.6,-5.2 0,-4 0.9,-5 3.6,-5 z m 22.9,-4.5 c 1.4,0 2.8,0.3 4.1,1 l 0.8,-1.6 c -1.4,-0.9 -3.2,-1.1 -5,-1.1 -4.1,0 -6.9,2.1 -6.9,9.2 0,7.1 2.9,9.2 6.9,9.2 1.8,0 3.6,-0.2 5,-1.1 l -0.8,-1.6 c -1.3,0.8 -2.7,1 -4.1,1 -3.1,0 -5.1,-1.2 -5.1,-7.4 0,-6.2 2.1,-7.6 5.1,-7.6 z m 20.5,9.7 c 0,4.7 -1.6,6.8 -5.7,6.8 -4.1,0 -5.7,-2.2 -5.7,-6.8 0,-4.7 1.6,-6.8 5.7,-6.8 4.1,-0.1 5.7,2.1 5.7,6.8 z m -1.9,0 c 0,-3.3 -0.6,-5.2 -3.8,-5.2 -3.2,0 -3.8,2 -3.8,5.2 0,3.2 0.6,5.2 3.8,5.2 3.2,0 3.8,-2 3.8,-5.2 z m 21.4,-6.9 c -2.2,0 -3.5,0.7 -4.5,2.3 -0.6,-1.4 -1.7,-2.3 -3.7,-2.3 -2.1,0 -3.4,0.7 -4.2,2.1 -0.1,-0.7 -0.3,-1.3 -0.5,-1.9 l -1.6,0.4 c 0.4,1.4 0.5,3 0.5,4.5 l 0,8.3 1.9,0 0,-9.2 c 0.8,-1.7 1.7,-2.6 3.5,-2.6 2.3,0 2.8,1.4 2.8,3.3 l 0,8.5 1.9,0 0,-9.2 c 0.8,-1.7 1.7,-2.6 3.5,-2.6 2.6,0 2.8,1.8 2.8,4.7 l 0,7.1 1.9,0 0,-7.5 c 0,-3 -0.6,-5.9 -4.3,-5.9 z m 20.7,6.9 c 0,5.7 -2.7,6.8 -5.3,6.8 -1.3,0 -2.4,-0.2 -3.4,-0.8 0.1,0.9 0.1,1.7 0.1,2.5 l 0,1.9 -1.9,0 0,-12.2 c 0,-1.6 -0.1,-3.1 -0.5,-4.5 l 1.6,-0.4 c 0.2,0.6 0.4,1.3 0.5,1.9 0.8,-1.4 2.1,-2.1 4.2,-2.1 3.3,0 4.7,2.3 4.7,6.9 z m -1.9,0 c 0,-3.2 -0.6,-5.3 -3.1,-5.3 -1.9,0 -2.8,1 -3.7,2.6 l 0,7.1 c 1,0.6 2.1,0.8 3.2,0.8 2.3,0 3.6,-0.9 3.6,-5.2 z m 17.6,-6.6 -1.9,0.3 0,8.9 c -0.8,1.7 -1.8,2.6 -3.7,2.6 -2.7,0 -2.9,-1.8 -2.9,-4.7 l 0,-7.1 -1.9,0.3 0,7.2 c 0,3.1 0.6,5.9 4.4,5.9 2.2,0 3.5,-0.7 4.3,-2.1 0.1,0.7 0.3,1.3 0.5,1.9 l 1.6,-0.4 c -0.4,-1.4 -0.5,-3 -0.5,-4.5 l 0,-8.3 z m 8.9,-4.2 -1.9,0.3 0,4 -2.2,0 0,1.6 2.2,0 0,5.2 c 0,2.9 0.2,5 2.3,6.6 l 1.3,-1.1 c -1.6,-1.5 -1.6,-2.8 -1.6,-5 l 0,-5.7 2.7,0 0.2,-1.6 -2.9,0 0,-4.3 z m 8.6,1.9 c 0.8,0 1.2,-0.3 1.2,-1.1 0,-0.8 -0.5,-1.1 -1.2,-1.1 -0.8,0 -1.2,0.3 -1.2,1.1 0,0.8 0.4,1.1 1.2,1.1 z m 0.9,2.3 -1.9,0.3 0,8.3 c 0,1.7 0.1,3.2 0.5,4.5 l 1.8,0 c -0.4,-1.4 -0.4,-2.9 -0.4,-4.4 l 0,-8.7 z M 313,90.5 c -2.2,0 -3.5,0.7 -4.3,2.1 -0.1,-0.7 -0.3,-1.3 -0.5,-1.9 l -1.6,0.4 c 0.4,1.4 0.5,3 0.5,4.5 l 0,8.3 1.9,0 0,-9.2 c 0.8,-1.7 1.8,-2.6 3.7,-2.6 2.7,0 2.9,1.8 2.9,4.7 l 0,7.1 1.9,0 0,-7.5 c -0.1,-3 -0.7,-5.9 -4.5,-5.9 z m 15.2,0 c 1.8,0 3.5,0.2 5.1,0.8 l 0,11.6 c 0,3.6 -1.9,5.1 -5,5.1 -1.2,0 -2.5,-0.2 -3.6,-0.7 l 0.5,-1.5 c 0.9,0.5 2,0.7 3.2,0.7 1.9,0 3.1,-0.9 3.1,-3.6 l 0,-0.9 c -0.7,1.3 -2,1.8 -4,1.8 -3.3,0 -4.7,-2.2 -4.7,-6.7 0,-5.3 2.4,-6.6 5.4,-6.6 z m 3.3,2.1 c -1,-0.4 -2.2,-0.5 -3.3,-0.5 -2.2,0 -3.5,1 -3.5,5.1 0,3.1 0.6,5.1 3.1,5.1 1.9,0 2.8,-0.9 3.7,-2.5 l 0,-7.2 z"
     id="path3"
     inkscape:connector-curvature="0" /></svg>