<?xml version="1.0" encoding="UTF-8" standalone="no"?>
<svg
   width="300"
   height="90"
   viewBox="0 0 300 90"
   version="1.1"
   id="svg7739"
   sodipodi:docname="quantopian.svg"
   inkscape:version="1.1.1 (3bf5ae0d25, 2021-09-20)"
   xmlns:inkscape="http://www.inkscape.org/namespaces/inkscape"
   xmlns:sodipodi="http://sodipodi.sourceforge.net/DTD/sodipodi-0.dtd"
   xmlns="http://www.w3.org/2000/svg"
   xmlns:svg="http://www.w3.org/2000/svg"
   xmlns:rdf="http://www.w3.org/1999/02/22-rdf-syntax-ns#"
   xmlns:cc="http://creativecommons.org/ns#"
   xmlns:dc="http://purl.org/dc/elements/1.1/"
   xmlns:sketch="http://www.bohemiancoding.com/sketch/ns">
  <sodipodi:namedview
     id="namedview7741"
     pagecolor="#ffffff"
     bordercolor="#666666"
     borderopacity="1.0"
     inkscape:pageshadow="2"
     inkscape:pageopacity="0.0"
     inkscape:pagecheckerboard="0"
     showgrid="false"
     inkscape:zoom="2.2550977"
     inkscape:cx="156.97768"
     inkscape:cy="-50.773854"
     inkscape:window-width="1866"
     inkscape:window-height="1016"
     inkscape:window-x="54"
     inkscape:window-y="27"
     inkscape:window-maximized="1"
     inkscape:current-layer="svg7739" />
  <!-- Generator: Sketch 3.3.3 (12072) - http://www.bohemiancoding.com/sketch -->
  <title
     id="title7715">Imported Layers</title>
  <desc
     id="desc7717">Created with Sketch.</desc>
  <defs
     id="defs7719" />
  <g
     id="Page-1"
     stroke="none"
     stroke-width="1"
     fill="none"
     fill-rule="evenodd"
     sketch:type="MSPage"
     transform="matrix(1.5204103,0,0,1.5204103,60.316239,0.12782144)">
    <g
       id="Imported-Layers"
       sketch:type="MSLayerGroup"
       fill="#b1b1b1">
      <path
         d="m 0,45.25797 c 1.8843914,-3.730705 5.5070275,-5.16846 9.5287706,-3.720205 1.9789354,0.712542 2.8796334,2.312139 2.9792294,4.310731 0.104288,2.095626 0.02346,4.200302 0.02346,6.430977 -1.29367,-0.329116 -1.680147,-1.079312 -1.625658,-2.244795 0.06135,-1.321533 0.05557,-2.650307 0.0011,-3.972564 -0.08408,-2.037695 -1.1558229,-3.065956 -3.1618229,-3.107955 -0.8397125,-0.01774 -1.6805076,-0.0105 -2.520581,-0.0029 -2.4072722,0.02136 -3.4407646,1.065192 -3.4779328,3.542794 -0.021651,1.444634 0.019125,2.890355 -0.010826,4.334627 -0.029229,1.420377 0.2818288,2.921131 1.6602997,3.292608 1.3423854,0.362064 3.1571315,0.469235 4.2667646,-0.175239 1.5206483,-0.882711 2.4920734,-0.955124 3.7283674,0.197687 0.77981,0.727024 1.692055,1.310671 2.570379,1.977955 -0.617064,1.116242 -1.250728,1.171276 -2.142764,0.387408 C 10.608453,55.446083 9.6251193,54.801609 7.6757737,55.855939 4.7138654,57.457709 1.8187156,55.765423 0,52.137182 V 45.25797"
         id="Fill-1"
         sketch:type="MSShapeGroup" />
      <path
         d="M 76.862385,59.016393 V 44.671427 c 2.468979,0 4.822123,-0.254893 7.067009,0.128171 0.872551,0.14917 1.948985,1.654269 2.142765,2.690495 0.347865,1.862457 0.175015,3.841135 0.07614,5.763694 -0.08372,1.625304 -1.306661,2.731409 -2.962269,2.801649 -1.430074,0.06047 -2.864838,0.01231 -4.519364,0.01231 v 2.948647 h -1.804282 z m 1.792734,-4.695967 c 5.895309,0.692266 6.236318,0.391029 6.088728,-5.252821 -0.01407,-0.537664 0.02634,-1.163673 -0.227339,-1.585839 -0.302398,-0.502544 -0.864251,-1.122036 -1.368367,-1.175983 -1.461468,-0.156774 -2.950361,-0.05576 -4.493022,-0.05576 v 8.070401 z"
         id="Fill-2"
         sketch:type="MSShapeGroup" />
      <path
         d="m 43.715933,15.390969 c 0,-4.460988 0.04655,-8.9226999 -0.02598,-13.3826013 -0.02418,-1.48156492 0.443132,-2.00764357247 1.956924,-1.99822991 8.952122,0.05467162 17.904605,0.05249924 26.856727,0.0021724 1.558899,-0.00868953 2.146734,0.55395756 2.140961,2.10395251 -0.035,8.8615103 -0.03897,17.7237453 0.0029,26.5852563 0.0079,1.636528 -0.667944,2.287881 -2.247412,2.284622 -8.831957,-0.0181 -17.664275,-0.01991 -26.496594,0.0033 -1.54699,0.0043 -2.261486,-0.498562 -2.222152,-2.216193 0.102122,-4.458815 0.03428,-8.921251 0.03464,-13.382238 z M 71.073529,3.3675551 C 70.675144,3.3070904 70.445278,3.2419189 70.215052,3.2415569 62.939468,3.2335915 55.663523,3.2574877 48.3883,3.2049884 c -1.320373,-0.00941 -1.44126,0.6502666 -1.438012,1.6843207 0.02057,7.0587949 0.0079,14.1175899 0.01913,21.1763849 7.22e-4,0.46308 0.109339,0.925797 0.169241,1.400463 h 23.93487 z"
         id="Fill-3"
         sketch:type="MSShapeGroup" />
      <path
         d="m 38.867107,56.061591 c -2.371187,0 -4.522972,0.06807 -6.668263,-0.02245 -1.620245,-0.06843 -2.525272,-1.272654 -2.547645,-3.098904 -0.02382,-1.958765 0.84729,-3.1123 2.557749,-3.279573 0.833217,-0.08147 1.678703,-0.03874 2.518416,-0.0449 0.766098,-0.0054 1.532556,-0.0011 2.242,-0.0011 0.651345,-2.961682 0.321523,-3.38059 -2.440471,-3.38421 -0.960239,-0.0014 -1.936355,0.102826 -2.87422,-0.04272 -0.507003,-0.07857 -0.94833,-0.58256 -1.419248,-0.894659 0.09707,-0.222308 0.19378,-0.444977 0.29085,-0.667284 2.021878,0 4.055303,-0.131067 6.062025,0.04453 1.409504,0.123464 2.209162,1.258534 2.252464,2.637272 0.08805,2.820839 0.02634,5.646023 0.02634,8.753978 z m -1.762783,-1.591632 v -3.284281 c -1.637566,0 -3.145945,-0.157859 -4.587566,0.08545 -0.50592,0.08545 -1.136336,1.142674 -1.165565,1.780992 -0.02021,0.45077 0.83033,1.277361 1.372336,1.35267 1.39904,0.194428 2.842826,0.06517 4.380795,0.06517 z"
         id="Fill-4"
         sketch:type="MSShapeGroup" />
      <path
         d="m 105.20692,56.060143 c -2.41701,0 -4.57313,0.06771 -6.72311,-0.02209 -1.591737,-0.06662 -2.527437,-1.313929 -2.556666,-3.123162 -0.02887,-1.798009 0.875437,-3.077904 2.436862,-3.228161 1.248563,-0.120205 2.515534,-0.09631 3.772394,-0.06227 1.01617,0.02716 1.59859,-0.242582 1.51379,-1.412772 -0.0758,-1.044554 -0.21904,-1.957679 -1.54013,-1.972162 -1.37884,-0.01484 -2.759834,-0.05612 -4.135779,0.0043 -1.138862,0.05033 -1.361871,-0.463442 -1.012201,-1.624942 1.898104,0 3.86982,-0.102464 5.8253,0.03259 1.54952,0.10717 2.31165,1.347963 2.37877,2.720547 0.13676,2.807442 0.0408,5.626109 0.0408,8.688082 z m -1.17964,-1.598874 c -0.47524,-1.347963 -0.59577,-2.962406 -1.22185,-3.192678 -1.19913,-0.440994 -2.71437,-0.249462 -4.038708,-3.62e-4 -0.521799,0.09812 -1.224025,1.056864 -1.218612,1.617339 0.0054,0.529337 0.77945,1.431238 1.3063,1.50365 1.50116,0.205653 3.04887,0.07205 5.17287,0.07205 z"
         id="Fill-5"
         sketch:type="MSShapeGroup" />
      <path
         d="M 63.539572,50.226209 V 50.04554 c 0,-5.055135 1.604006,-6.364719 6.629651,-5.413216 1.413835,0.267927 2.536098,1.706045 2.59997,3.465675 0.05485,1.502926 0.06171,3.011646 -3.61e-4,4.513849 -0.08913,2.158262 -1.406618,3.411364 -3.5317,3.463139 -0.299511,0.0076 -0.601187,-0.01702 -0.899615,0.0058 -3.582581,0.272634 -5.121633,-0.812471 -4.801915,-4.771276 0.02887,-0.358805 0.004,-0.721955 0.004,-1.083295 z m 7.617315,0.276979 c 0,-0.599577 0.0097,-1.199155 -0.0018,-1.798371 -0.03753,-1.962023 -0.511334,-2.443568 -2.416655,-2.473981 -3.635988,-0.05865 -3.684703,-0.0076 -3.686508,3.858513 v 0.539475 c 0.0029,3.839686 0.283634,4.079735 4.078759,3.858876 1.330477,-0.07748 1.958728,-0.729921 2.016104,-2.006558 0.02995,-0.657869 0.0054,-1.318636 0.0101,-1.977954 z"
         id="Fill-6"
         sketch:type="MSShapeGroup" />
      <path
         d="m 43.928838,55.85268 c -1.102777,0.381616 -1.658135,0.262134 -1.636122,-0.924711 0.04402,-2.35269 -0.035,-4.707915 0.03067,-7.059519 0.05449,-1.955868 1.395071,-3.211143 3.330343,-3.26147 0.781254,-0.02028 1.56359,-0.01376 2.345566,-0.0036 2.368299,0.03114 3.501749,1.172725 3.513657,3.56307 0.01227,2.529377 0.0029,5.058754 0.0029,7.596821 -1.255058,0.628181 -1.662826,0.226652 -1.635762,-1.029347 0.04655,-2.171296 -0.01119,-4.344765 0.01949,-6.516423 0.01913,-1.350136 -0.550667,-2.034799 -1.930942,-1.988455 -0.660728,0.02209 -1.323621,0.02281 -1.984349,-3.62e-4 -1.459663,-0.05069 -2.065902,0.702042 -2.059046,2.103229 0.01263,2.522498 0.0036,5.045358 0.0036,7.520788"
         id="Fill-7"
         sketch:type="MSShapeGroup" />
      <path
         d="m 117.92638,55.845801 c -1.14607,0.41927 -1.62601,0.171618 -1.60689,-0.95621 0.0372,-2.168762 -0.0152,-4.33861 0.0155,-6.507372 0.0213,-1.509082 -0.62825,-2.251313 -2.1673,-2.15609 -0.5384,0.03331 -1.08293,0.03548 -1.62097,-3.62e-4 -1.652,-0.109705 -2.25752,0.748386 -2.23947,2.298019 0.0274,2.405189 0.007,4.811103 0.007,7.304636 -0.99343,0.370391 -1.63756,0.430132 -1.61808,-0.913125 0.0339,-2.349432 -0.0426,-4.701398 0.0274,-7.049381 0.0592,-1.992437 1.35501,-3.180006 3.31338,-3.265815 4.74959,-0.208187 6.1775,0.251996 5.90397,5.720969 -0.0927,1.852318 -0.0148,3.713326 -0.0148,5.524731"
         id="Fill-8"
         sketch:type="MSShapeGroup" />
      <path
         d="m 18.717615,44.884683 c 0,2.34038 -0.01371,4.68076 0.004,7.02114 0.01624,2.125677 0.43844,2.543498 2.51589,2.571377 0.53948,0.0072 1.079321,-0.0087 1.619162,-7.24e-4 1.267688,0.01883 1.8797,-0.623836 1.886557,-1.874404 0.01119,-2.106125 -0.04042,-4.214785 0.06387,-6.316203 0.02815,-0.561923 0.525046,-1.100673 0.806875,-1.650286 0.237082,0.514855 0.660367,1.023192 0.679131,1.54565 0.07686,2.163693 0.05485,4.331731 0.02382,6.497596 -0.03176,2.194831 -1.147884,3.318315 -3.294618,3.396158 -5.171431,0.187187 -5.932838,-0.550699 -5.932838,-5.752469 0,-1.504375 -0.0765,-3.014905 0.04619,-4.509142 0.03969,-0.486614 0.601547,-0.930142 0.924514,-1.393221 0.2194,0.154963 0.43844,0.309564 0.65748,0.464528"
         id="Fill-9"
         sketch:type="MSShapeGroup" />
      <path
         d="m 57.410789,46.219612 c 0,2.360294 -0.06135,4.513487 0.02779,6.660525 0.04078,0.976848 0.58567,1.648838 1.752679,1.651011 0.300593,7.24e-4 0.600104,0.537302 0.899975,0.827677 -0.336318,0.237514 -0.652428,0.640129 -1.012923,0.685387 -1.669682,0.209273 -2.936649,-0.765041 -3.080269,-2.495705 -0.149034,-1.795113 -0.06892,-3.608328 -0.130269,-5.41213 -0.02851,-0.82804 0.336318,-1.920024 -1.128398,-2.015609 -0.07867,-0.0051 -0.09779,-0.935572 -0.144343,-1.43522 1.644783,-0.03114 1.134893,-1.296189 1.32326,-2.216917 0.083,-0.406235 0.511334,-0.741506 0.782698,-1.108639 0.216513,0.353012 0.636189,0.719059 0.61526,1.057588 -0.09346,1.502565 0.207492,2.488464 2.032703,2.236106 0.21074,-0.02933 0.692122,0.48589 0.692483,0.74911 3.61e-4,0.27191 -0.395137,0.715438 -0.685266,0.780247 -0.558605,0.125274 -1.164844,0.03657 -1.945376,0.03657"
         id="Fill-10"
         sketch:type="MSShapeGroup" />
      <path
         d="m 91.607333,44.860062 c 0,3.421503 0.02021,6.843367 -0.03356,10.264146 -0.0051,0.312823 -0.483909,0.618043 -0.742643,0.926521 -0.267033,-0.314633 -0.760324,-0.625284 -0.766097,-0.944624 -0.05702,-3.186885 -0.0682,-6.375943 0.01191,-9.561742 0.0094,-0.384512 0.633303,-0.753455 0.972507,-1.129277 0.185842,0.148446 0.372043,0.29653 0.557884,0.444976"
         id="Fill-11"
         sketch:type="MSShapeGroup" />
      <path
         d="m 92.291878,41.006256 c -0.66145,0.509061 -1.027719,0.99821 -1.300887,0.950779 -0.380704,-0.06626 -0.692123,-0.534406 -1.033132,-0.830212 0.292655,-0.280237 0.556802,-0.7368 0.886263,-0.790385 0.322245,-0.05286 0.710887,0.305219 1.447756,0.669818"
         id="Fill-12"
         sketch:type="MSShapeGroup" />
      <path
         d="m 64.547083,6.9968822 h 3.004128 V 23.829951 H 64.547083 V 6.9968822"
         id="Fill-13"
         sketch:type="MSShapeGroup" />
      <path
         d="M 58.280092,23.840813 H 55.37556 V 11.15446 h 2.904532 v 12.686353"
         id="Fill-14"
         sketch:type="MSShapeGroup" />
      <path
         d="m 62.99937,14.55967 v 9.244936 c -0.627529,0.04236 -1.204177,0.06155 -1.776135,0.123102 -1.086538,0.117309 -1.503688,-0.357357 -1.475541,-1.442824 0.04799,-1.860646 0.0079,-3.723102 0.0087,-5.584834 0.0014,-2.826269 0.224452,-2.991733 3.243015,-2.34038"
         id="Fill-15"
         sketch:type="MSShapeGroup" />
      <path
         d="m 50.672159,23.917208 v -6.303892 h 3.144862 c 0,1.840732 0.05124,3.62281 -0.04727,5.396922 -0.01768,0.320065 -0.612373,0.772644 -1.011119,0.868229 -0.614538,0.146998 -1.290061,0.03874 -2.086471,0.03874"
         id="Fill-16"
         sketch:type="MSShapeGroup" />
    </g>
  </g>
  <metadata
     id="metadata7823">
    <rdf:RDF>
      <cc:Work
         rdf:about="">
        <dc:title>Imported Layers</dc:title>
      </cc:Work>
    </rdf:RDF>
  </metadata>
</svg>
