<?xml version="1.0" encoding="UTF-8" standalone="no"?>
<svg width="335px" height="45px" viewBox="0 0 335 45" version="1.1" xmlns="http://www.w3.org/2000/svg" xmlns:xlink="http://www.w3.org/1999/xlink" xmlns:sketch="http://www.bohemiancoding.com/sketch/ns">
    <!-- Generator: Sketch 3.3.3 (12072) - http://www.bohemiancoding.com/sketch -->
    <title>Imported Layers</title>
    <desc>Created with Sketch.</desc>
    <defs></defs>
    <g id="Page-1" stroke="none" stroke-width="1" fill="none" fill-rule="evenodd" sketch:type="MSPage">
        <g id="Home---Desktop-Copy-2" sketch:type="MSArtboardGroup" transform="translate(-397.000000, -2012.000000)" fill="#B1B1B1">
            <g id="Group-+-Currently-in-use-at" sketch:type="MSLayerGroup" transform="translate(110.000000, 1814.000000)">
                <g id="Group" sketch:type="MSShapeGroup">
                    <g id="Row-3-+-Row-1-+-Row-2">
                        <g transform="translate(0.000000, 93.000000)">
                            <g id="Row-2" transform="translate(0.837882, 105.088235)">
                                <g id="Imported-Layers" transform="translate(285.000000, 0.000000)">
                                    <g id="Group" transform="translate(63.000000, 0.000000)">
                                        <path d="M0.35677389,13.3859189 C4.70676985,4.86158108 13.0705639,1.57706757 22.3544011,4.88602703 C26.9230175,6.51441892 29.0019327,10.1689054 29.2319435,14.7351892 C29.4733445,19.5229459 29.2859556,24.3322297 29.2859556,29.4286622 C26.2994899,28.6770405 25.4077389,26.9629054 25.5333997,24.2997568 C25.6752275,21.2801351 25.6612651,18.2444595 25.5356043,15.2230135 C25.341969,10.5680676 22.8680673,8.21833784 18.2366205,8.12201351 C16.2976958,8.08151351 14.3576689,8.0982973 12.4180094,8.11544595 C6.86064065,8.1647027 4.47455451,10.5490946 4.38894347,16.2096081 C4.33897308,19.5105405 4.43303499,22.814027 4.36432571,26.1142297 C4.29635128,29.3593378 5.01504307,32.787973 8.19661373,33.6370135 C11.2958802,34.4637973 15.4853096,34.7086216 18.0470269,33.2367568 C21.5570794,31.2197838 23.8002355,31.0541351 26.6544266,33.6880946 C28.4540956,35.3489595 30.5602005,36.6825405 32.5884105,38.2076757 C31.1638869,40.7580811 29.7004159,40.8832297 27.6413419,39.0928378 C24.8470417,36.6635676 22.5770633,35.190973 18.0767887,37.6001757 C11.2392961,41.2601351 4.55538896,37.3936622 0.35677389,29.1035676 L0.35677389,13.3859189" id="Fill-1"></path>
                                        <path d="M177.797956,44.8212162 L177.797956,12.0457703 C183.49752,12.0457703 188.929962,11.4630811 194.112186,12.3387568 C196.127168,12.6791757 198.61246,16.1187568 199.059254,18.486 C199.862087,22.7410541 199.463059,27.2617297 199.234886,31.6543378 C199.041618,35.3682973 196.218291,37.8953514 192.396291,38.055527 C189.094938,38.1938108 185.783297,38.0843514 181.963502,38.0843514 L181.963502,44.8212162 L177.797956,44.8212162 L177.797956,44.8212162 Z M181.93668,34.092 C195.546262,35.6740541 196.333296,34.9855541 195.992689,22.0901351 C195.960355,20.8616351 196.05405,19.4313649 195.467633,18.467027 C194.769884,17.3187973 193.472859,15.9031216 192.308843,15.7797973 C188.935106,15.4218649 185.497805,15.6528243 181.93668,15.6528243 L181.93668,34.092 L181.93668,34.092 Z" id="Fill-2"></path>
                                        <path d="M90.0837537,38.0697568 C84.609424,38.0697568 79.6421467,38.2255541 74.6899341,38.0190405 C70.9495034,37.8625135 68.8599327,35.1107027 68.8084926,30.938473 C68.7537456,26.4630405 70.7646864,23.8272568 74.7130821,23.4452432 C76.6362073,23.2587973 78.5883594,23.3565811 80.527284,23.3427162 C82.2957214,23.3299459 84.0645262,23.3401622 85.7028937,23.3401622 C87.206782,16.5733784 86.4451009,15.615973 80.0687322,15.6079459 C77.852031,15.605027 75.5985868,15.8429189 73.4333257,15.5101622 C72.2630633,15.3306486 71.2441817,14.1791351 70.1569583,13.4661892 C70.3807227,12.9579324 70.6044872,12.4496757 70.8282517,11.9417838 C75.4964415,11.9417838 80.1907187,11.6422297 84.8232678,12.0435811 C88.0772221,12.3256216 89.9231871,14.9187162 90.0227604,18.0689595 C90.2259489,24.5135676 90.0837537,30.9691216 90.0837537,38.0697568 L90.0837537,38.0697568 Z M86.0141063,34.4331486 L86.0141063,26.9297027 C82.2339933,26.9297027 78.751498,26.5688514 75.4240579,27.1249054 C74.2552651,27.320473 72.800245,29.7355135 72.7333728,31.1938784 C72.6859744,32.2238919 74.6495168,34.1120676 75.9013486,34.2842838 C79.1306851,34.7286892 82.4636366,34.4331486 86.0141063,34.4331486 L86.0141063,34.4331486 Z" id="Fill-4"></path>
                                        <path d="M243.233447,38.0668378 C237.653297,38.0668378 232.675365,38.2211757 227.712497,38.0161216 C224.037836,37.863973 221.877719,35.0140135 221.810479,30.8804595 C221.74324,26.7720811 223.830606,23.8480541 227.435822,23.5050811 C230.317938,23.2303378 233.243043,23.2847027 236.144633,23.3620541 C238.489934,23.4248108 239.834725,22.8085541 239.639253,20.1344595 C239.464724,17.7478784 239.133303,15.6615811 236.083272,15.6287432 C232.900599,15.5948108 229.712782,15.5003108 226.536355,15.6389595 C223.907031,15.753527 223.391895,14.5801216 224.199872,11.9257297 C228.5811,11.9257297 233.132814,11.6914865 237.647051,12.0001622 C241.224343,12.2449865 242.983962,15.0803514 243.13865,18.2163649 C243.454639,24.6306892 243.233447,31.0712838 243.233447,38.0668378 L243.233447,38.0668378 Z M240.509693,34.4138108 C239.412549,31.3336216 239.134405,27.6452027 237.689306,27.1190676 C234.920725,26.1113108 231.422431,26.5491486 228.365051,27.1183378 C227.161353,27.3427297 225.539887,29.5326486 225.55238,30.8133243 C225.564505,32.0232162 227.352048,34.0836081 228.567872,34.248527 C232.033833,34.718473 235.606349,34.4138108 240.509693,34.4138108 L240.509693,34.4138108 Z" id="Fill-5"></path>
                                        <path d="M147.041548,24.7375946 C147.041548,24.6000405 147.04118,24.4624865 147.041548,24.3249324 C147.041548,12.7747703 150.744133,9.78251351 162.34645,11.9567432 C165.609957,12.5682568 168.200701,15.8549595 168.349143,19.8750405 C168.475538,23.3087838 168.49097,26.7556622 168.34804,30.1883108 C168.14228,35.1187297 165.1007,37.9821892 160.195151,38.1007703 C159.502914,38.1175541 158.806635,38.0617297 158.118073,38.1135405 C149.846871,38.7367297 146.294197,36.2571081 147.032362,27.212473 C147.099234,26.3926216 147.041548,25.5625541 147.041548,24.7375946 L147.041548,24.7375946 Z M164.626716,25.3702703 C164.626716,24.0005676 164.649129,22.6301351 164.622674,21.2611622 C164.535961,16.7787973 163.442124,15.6783649 159.043627,15.6086757 C150.649704,15.4751351 150.537638,15.5911622 150.532861,24.4245405 C150.532861,24.8357432 150.532861,25.2465811 150.533229,25.6574189 C150.539475,34.4302297 151.188355,34.9786216 159.949341,34.4740135 C163.019948,34.2970541 164.470559,32.8062162 164.603568,29.8894865 C164.672277,28.3858784 164.615693,26.8767973 164.626716,25.3702703 L164.626716,25.3702703 Z" id="Fill-6"></path>
                                        <path d="M101.769109,37.5925135 C99.2235585,38.4641757 97.9408627,38.1916216 97.9919354,35.4799459 C98.0933459,30.1047568 97.9111009,24.7233649 98.0624818,19.3507297 C98.1885101,14.8815 101.283,12.014027 105.750941,11.8983649 C107.554651,11.852027 109.360934,11.8673514 111.16538,11.8907027 C116.633096,11.9614865 119.249927,14.5699054 119.277117,20.0312027 C119.306144,25.8102973 119.283731,31.5897568 119.283731,37.3885541 C116.38655,38.8235676 115.445564,37.9062973 115.507659,35.037 C115.614949,30.0759324 115.481939,25.1101216 115.552853,20.1475946 C115.596945,17.0633919 114.281548,15.4984865 111.095568,15.6042973 C109.570001,15.6550135 108.039658,15.656473 106.514459,15.6039324 C103.144764,15.4882703 101.745226,17.2075135 101.761026,20.4092027 C101.789685,26.172973 101.769109,31.9371081 101.769109,37.5925135" id="Fill-7"></path>
                                        <path d="M272.596563,37.5768243 C269.951071,38.5349595 268.842904,37.9690541 268.887363,35.3920135 C268.972607,30.4375135 268.85209,25.4793649 268.923004,20.5241351 C268.97224,17.0757973 267.472393,15.3802703 263.919351,15.5980946 C262.676338,15.6743514 261.419729,15.6787297 260.177451,15.597 C256.363534,15.3463378 254.965833,17.3071216 255.006985,20.8474054 C255.070918,26.343 255.023887,31.8400541 255.023887,37.5374189 C252.730393,38.3839054 251.244141,38.5203649 251.288968,35.4511216 C251.36723,30.0828649 251.190497,24.7091351 251.351798,19.344527 C251.488482,14.792473 254.480092,12.0793378 259.000942,11.8830405 C269.965401,11.4076216 273.261977,12.4584324 272.630366,24.9546892 C272.416522,29.1867568 272.596563,33.4381622 272.596563,37.5768243" id="Fill-8"></path>
                                        <path d="M43.5675666,12.5328649 C43.5675666,17.8799595 43.5363351,23.2277838 43.5771198,28.5745135 C43.6138627,33.4315946 44.5890202,34.3860811 49.3847079,34.4499324 C50.6302934,34.4663514 51.8769812,34.4305946 53.1225666,34.4488378 C56.0495087,34.491527 57.4619071,33.0233108 57.4777066,30.1653243 C57.5041615,25.3538514 57.3851144,20.5354459 57.6257806,15.7349189 C57.6900808,14.4505946 58.8375626,13.2195405 59.4879125,11.9640405 C60.0353822,13.1403649 61.0127443,14.3013649 61.0557335,15.4955676 C61.2332019,20.4387568 61.1828641,25.392527 61.1104805,30.3408243 C61.037362,35.3562568 58.4609475,37.9230811 53.5050606,38.1007703 C41.5669139,38.5283919 39.8091319,36.8419865 39.8091319,24.9572432 C39.8087645,21.5202162 39.6316635,18.0685946 39.9149515,14.6545541 C40.0075437,13.5428108 41.3042019,12.5299459 42.0500834,11.4718378 C42.5560336,11.8253919 43.0619838,12.1789459 43.5675666,12.5328649" id="Fill-9"></path>
                                        <path d="M132.893314,15.5827703 C132.893314,20.9758378 132.751118,25.8956757 132.957246,30.8012838 C133.051308,33.033527 134.309386,34.5685135 137.003378,34.5732568 C137.697085,34.5747162 138.388587,35.8006622 139.080824,36.4639865 C138.304078,37.0072703 137.574731,37.9267297 136.742503,38.0299865 C132.88817,38.5086892 129.963065,36.2819189 129.631276,32.3278784 C129.287362,28.2267973 129.472546,24.0837568 129.330351,19.9622432 C129.265316,18.0707838 130.107464,15.575473 126.725645,15.3572838 C126.543767,15.3456081 126.500043,13.2195405 126.392386,12.0778784 C130.189769,12.0070946 129.012157,9.11663514 129.447561,7.01245946 C129.639359,6.08460811 130.627377,5.31875676 131.254211,4.47956757 C131.75465,5.28664865 132.723194,6.12291892 132.674693,6.89606757 C132.459012,10.3290811 133.153454,12.5821216 137.367501,12.0052703 C137.85361,11.9385 138.965451,13.1155541 138.966186,13.7168514 C138.966921,14.3382162 138.053491,15.3510811 137.384035,15.4995811 C136.093991,15.7856351 134.694452,15.5827703 132.893314,15.5827703" id="Fill-10"></path>
                                        <path d="M211.837712,12.4770405 C211.837712,20.2946351 211.884376,28.1129595 211.759817,35.9283649 C211.748427,36.6427703 210.643199,37.340027 210.046127,38.0453108 C209.42958,37.3261622 208.290549,36.6168649 208.277322,35.8871351 C208.145415,28.605527 208.120062,21.3191757 208.304144,14.0397568 C208.326557,13.1618919 209.76688,12.3190541 210.549872,11.4597973 C210.97903,11.7987568 211.408555,12.1380811 211.837712,12.4770405" id="Fill-11"></path>
                                        <path d="M213.418026,3.67175676 C211.890989,4.83458108 211.045534,5.95252703 210.414658,5.8437973 C209.535767,5.69274324 208.817075,4.62332432 208.030042,3.94686486 C208.705744,3.30652703 209.31531,2.26374324 210.075888,2.14078378 C210.819565,2.02074324 211.716828,2.83877027 213.418026,3.67175676" id="Fill-12"></path>
                                    </g>
                                    <g id="Group">
                                        <path d="M1.42722616,21.9660051 C1.42745642,15.5956926 1.49446083,9.22423986 1.38969448,2.85575169 C1.35469561,0.740219595 2.03072641,-0.0109459459 4.22068856,0.00228040541 C17.1716518,0.0800422297 30.123536,0.0770777027 43.0744993,0.00547297297 C45.3296238,-0.00684121622 46.1801884,0.796545608 46.1714387,3.00990709 C46.121243,15.6643328 46.1150261,28.3192145 46.1760438,40.9734122 C46.1873264,43.3105997 45.2096606,44.240777 42.9246028,44.2362162 C30.1472524,44.2102196 17.3694415,44.2077111 4.59209104,44.2410051 C2.35377518,44.2467061 1.32038751,43.5286064 1.37749093,41.0760304 C1.52508485,34.7089105 1.42699591,28.3363176 1.42722616,21.9660051 L1.42722616,21.9660051 Z M41.0054214,4.79660473 C40.4290913,4.71040541 40.0963718,4.61736486 39.7636523,4.61690878 C29.2379725,4.60527872 18.7118323,4.63971284 8.18661308,4.5646875 C6.27641163,4.55123311 6.10187779,5.49326858 6.10625265,6.96983108 C6.1361859,17.0496791 6.11799569,27.1297551 6.13411359,37.209603 C6.13526487,37.8709206 6.29229927,38.5320101 6.37887542,39.2095186 L41.0054214,39.2095186 L41.0054214,4.79660473 L41.0054214,4.79660473 Z" id="Fill-3"></path>
                                        <path d="M31.5637856,9.97973818 L35.909632,9.97973818 L35.909632,34.0168074 L31.5637856,34.0168074 L31.5637856,9.97973818" id="Fill-13"></path>
                                        <path d="M22.4972363,34.0325422 L18.29553,34.0325422 L18.29553,15.9160895 L22.4972363,15.9160895 L22.4972363,34.0325422" id="Fill-14"></path>
                                        <path d="M29.3245487,20.7790541 L29.3245487,33.9810051 C28.4168806,34.0409797 27.5824339,34.0685726 26.7546646,34.1568243 C25.1833996,34.3244341 24.5796691,33.6464696 24.6204243,32.096022 C24.6899616,29.4393497 24.6319371,26.7794848 24.6330884,24.1209882 C24.6347002,20.0851267 24.957749,19.8488767 29.3245487,20.7790541" id="Fill-15"></path>
                                        <path d="M11.4910129,34.1415456 L11.4910129,25.1396453 L16.0404054,25.1396453 C16.0404054,27.7680405 16.114778,30.313201 15.9720195,32.8465034 C15.9464611,33.3032686 15.0862257,33.9497635 14.5094352,34.0861318 C13.6201876,34.2963851 12.6432125,34.1415456 11.4910129,34.1415456" id="Fill-16"></path>
                                    </g>
                                </g>
                            </g>
                        </g>
                    </g>
                </g>
            </g>
        </g>
    </g>
</svg>