<?xml version="1.0" encoding="UTF-8" standalone="no"?>
<svg width="118px" height="60px" viewBox="0 0 118 60" version="1.1" xmlns="http://www.w3.org/2000/svg" xmlns:xlink="http://www.w3.org/1999/xlink" xmlns:sketch="http://www.bohemiancoding.com/sketch/ns">
    <!-- Generator: Sketch 3.3.3 (12072) - http://www.bohemiancoding.com/sketch -->
    <title>Imported Layers</title>
    <desc>Created with Sketch.</desc>
    <defs></defs>
    <g id="Page-1" stroke="none" stroke-width="1" fill="none" fill-rule="evenodd" sketch:type="MSPage">
        <g id="Imported-Layers" sketch:type="MSLayerGroup" fill="#B1B1B1">
            <path d="M0,45.2579704 C1.88439144,41.5272654 5.50702752,40.0895102 9.52877064,41.5377653 C11.5077064,42.2503067 12.4084037,43.8499045 12.508,45.8484964 C12.6122875,47.9441215 12.5314557,50.0487981 12.5314557,52.279473 C11.2377859,51.950357 10.8513089,51.2001609 10.9057982,50.0346777 C10.9671437,48.7131449 10.96137,47.3843709 10.9068807,46.0621141 C10.8228012,44.0244192 9.7510581,42.9961581 7.7450581,42.9541587 C6.90534557,42.9364176 6.06455046,42.9436589 5.22447706,42.9512622 C2.81720489,42.972624 1.78371254,44.0164538 1.74654434,46.4940561 C1.72489297,47.9386905 1.76566972,49.3844111 1.73571865,50.8286835 C1.7064893,52.2490596 2.0175474,53.7498139 3.39601835,54.1212914 C4.73840367,54.4833551 6.55314985,54.590526 7.66278287,53.9460525 C9.18343119,53.063341 10.1548563,52.9909283 11.3911498,54.1437393 C12.1709602,54.8707634 13.0832049,55.4544101 13.9615291,56.1216937 C13.3444648,57.2379362 12.7108012,57.2929699 11.8187645,56.5091019 C10.6084526,55.4460827 9.62511927,54.8016092 7.6757737,55.8559389 C4.71386544,57.4577089 1.8187156,55.7654229 0,52.1371819 L0,45.2579704" id="Fill-1" sketch:type="MSShapeGroup"></path>
            <path d="M76.8623853,59.0163934 L76.8623853,44.6714271 C79.3313639,44.6714271 81.6845076,44.4165342 83.9293945,44.7995977 C84.801945,44.948768 85.8783792,46.453867 86.072159,47.4900935 C86.4200245,49.3525495 86.2471743,51.331228 86.1482997,53.2537866 C86.064581,54.8790908 84.8416391,55.9851956 83.1860306,56.055436 C81.7559572,56.1159006 80.3211927,56.0677462 78.6666667,56.0677462 L78.6666667,59.0163934 L76.8623853,59.0163934 L76.8623853,59.0163934 Z M78.6551193,54.3204264 C84.5504281,55.0126923 84.8914373,54.7114553 84.7438471,49.0676054 C84.7297737,48.5299407 84.7701896,47.9039324 84.5165076,47.4817661 C84.2141101,46.9792216 83.6522569,46.3597305 83.1481407,46.305783 C81.6866728,46.1490094 80.1977798,46.2500251 78.6551193,46.2500251 L78.6551193,54.3204264 L78.6551193,54.3204264 Z" id="Fill-2" sketch:type="MSShapeGroup"></path>
            <path d="M43.7159327,15.3909685 C43.7159327,10.9299809 43.7624832,6.46826913 43.6899511,2.0083677 C43.6657737,0.526802776 44.1330826,0.000724127527 45.6468746,0.0101377854 C54.5989969,0.0648094137 63.5514801,0.0626370311 72.5036024,0.012310168 C74.0625015,0.00362063763 74.6503364,0.566267726 74.6445627,2.1162627 C74.6095596,10.9777733 74.6055902,19.840008 74.6474495,28.7015187 C74.6553884,30.3380469 73.9795046,30.9893996 72.4000367,30.986141 C63.5680795,30.9680378 54.7357615,30.9662275 45.9034434,30.9893996 C44.3564526,30.9937443 43.6419572,30.4908378 43.6812905,28.7732073 C43.7834128,24.314392 43.7155719,19.8519562 43.7159327,15.3909685 L43.7159327,15.3909685 Z M71.0735291,3.36755506 C70.6751437,3.30709042 70.4452783,3.24191894 70.215052,3.24155687 C62.9394679,3.23359147 55.6635229,3.25748768 48.3882997,3.20498843 C47.0679266,3.19557478 46.9470398,3.85525495 46.9502875,4.88930906 C46.9708563,11.9481042 46.9582263,19.0068993 46.9694128,26.0656945 C46.9701346,26.528774 47.0787523,26.9914915 47.1386544,27.4661571 L71.0735291,27.4661571 L71.0735291,3.36755506 L71.0735291,3.36755506 Z" id="Fill-3" sketch:type="MSShapeGroup"></path>
            <path d="M38.867107,56.0615911 C36.4959205,56.0615911 34.3441346,56.1296591 32.198844,56.0391431 C30.5785994,55.9707131 29.6735719,54.766489 29.6511988,52.9402394 C29.6273823,50.9814744 30.4984893,49.8279393 32.208948,49.6606658 C33.0421651,49.5792014 33.8876514,49.621925 34.7273639,49.6157699 C35.4934618,49.6103389 36.2599205,49.6146837 36.9693639,49.6146837 C37.6207095,46.6530021 37.2908869,46.2340943 34.528893,46.2304737 C33.5686544,46.2290254 32.5925382,46.3332998 31.6546728,46.1877502 C31.1476697,46.1091823 30.7063425,45.6051896 30.2354251,45.2930906 C30.3324954,45.0707835 30.4292049,44.8481143 30.5262752,44.6258071 C32.5481529,44.6258071 34.581578,44.49474 36.5882997,44.6703409 C37.9978043,44.7938047 38.7974618,45.9288746 38.8407645,47.3076134 C38.9288135,50.1284522 38.867107,52.9536357 38.867107,56.0615911 L38.867107,56.0615911 Z M37.1043242,54.4699588 L37.1043242,51.1856784 C35.4667584,51.1856784 33.9583792,51.0278186 32.5167584,51.2711254 C32.0108379,51.3565725 31.380422,52.4137987 31.3511927,53.0521171 C31.3309847,53.5028865 32.1815229,54.329478 32.7235291,54.4047873 C34.1225688,54.5992155 35.5663547,54.4699588 37.1043242,54.4699588 L37.1043242,54.4699588 Z" id="Fill-4" sketch:type="MSShapeGroup"></path>
            <path d="M105.206924,56.0601428 C102.789908,56.0601428 100.633792,56.1278487 98.4838104,56.0380569 C96.8920734,55.9714372 95.9563731,54.7241275 95.9271437,52.9148949 C95.8982752,51.1168863 96.802581,49.8369908 98.3640061,49.6867344 C99.6125688,49.5665292 100.879535,49.5904254 102.136398,49.6244594 C103.152569,49.6516142 103.734991,49.3818767 103.65019,48.2116866 C103.57441,47.1671327 103.43115,46.2540078 102.110055,46.2395253 C100.731223,46.2246807 99.3502263,46.1834054 97.9742813,46.2438701 C96.835419,46.2941969 96.6124098,45.7804284 96.9620795,44.6189279 C98.8601835,44.6189279 100.831902,44.5164638 102.787382,44.6515136 C104.336899,44.7586845 105.099028,45.999477 105.166147,47.3720607 C105.302911,50.1795032 105.206924,52.9981696 105.206924,56.0601428 L105.206924,56.0601428 Z M104.027284,54.4612692 C103.552037,53.1133058 103.431511,51.4988635 102.805425,51.268591 C101.6063,50.8275973 100.091064,51.019129 98.7667217,51.2682289 C98.2449235,51.3663482 97.5426972,52.325093 97.5481101,52.8855677 C97.5535229,53.414905 98.3275596,54.3168058 98.8544098,54.3892185 C100.355572,54.5948708 101.903284,54.4612692 104.027284,54.4612692 L104.027284,54.4612692 Z" id="Fill-5" sketch:type="MSShapeGroup"></path>
            <path d="M63.5395719,50.2262094 L63.5395719,50.0455396 C63.5395719,44.9904053 65.143578,43.6808207 70.1692232,44.6323242 C71.5830581,44.9002514 72.7053211,46.3383687 72.7691927,48.0979986 C72.8240428,49.6009253 72.8308991,51.109645 72.7688318,52.6118475 C72.6797003,54.7701096 71.3622141,56.0232123 69.2371315,56.0749874 C68.9376208,56.0825908 68.635945,56.0579704 68.3375168,56.0807804 C64.7549358,56.3534145 63.2158838,55.2683094 63.5356024,51.3095042 C63.5644709,50.950699 63.5395719,50.587549 63.5395719,50.2262094 L63.5395719,50.2262094 Z M71.1568869,50.5031882 C71.1568869,49.9036106 71.16663,49.304033 71.1550826,48.7048175 C71.1175535,46.7427939 70.6437492,46.2612491 68.7384281,46.2308358 C65.1024404,46.1721814 65.0537248,46.2232324 65.0519205,50.0893493 L65.0519205,50.6288243 C65.0548073,54.4685105 65.3355535,54.7085588 69.1306789,54.4876999 C70.461156,54.4102182 71.0894067,53.7577793 71.1467829,52.4811425 C71.1767339,51.8232727 71.1521957,51.1625063 71.1568869,50.5031882 L71.1568869,50.5031882 Z" id="Fill-6" sketch:type="MSShapeGroup"></path>
            <path d="M43.9288379,55.8526803 C42.8260612,56.2342955 42.2707034,56.1148144 42.2927156,54.9279694 C42.3367401,52.5752791 42.2577125,50.2200543 42.3233884,47.8684502 C42.3778777,45.9125817 43.7184587,44.6573066 45.6537309,44.6069798 C46.4349847,44.5867042 47.2173211,44.5932214 47.9992966,44.6033591 C50.3675963,44.6344966 51.5010459,45.7760837 51.5129541,48.1664286 C51.5252232,50.6958061 51.515841,53.2251835 51.515841,55.7632505 C50.2607829,56.3914312 49.8530153,55.9899024 49.8800795,54.7339032 C49.92663,52.5626069 49.868893,50.3891381 49.8995657,48.2174796 C49.9186911,46.8673439 49.3488991,46.1826813 47.9686239,46.2290254 C47.307896,46.2511113 46.6450031,46.2518355 45.9842752,46.2286634 C44.5246116,46.1779745 43.9183731,46.930705 43.9252294,48.3318918 C43.9378593,50.85439 43.9288379,53.3772503 43.9288379,55.8526803" id="Fill-7" sketch:type="MSShapeGroup"></path>
            <path d="M117.926385,55.8458011 C116.780306,56.2650709 116.300367,56.0174193 116.319492,54.8895907 C116.356661,52.7208287 116.304336,50.5509806 116.335009,48.3822186 C116.3563,46.8731369 115.706758,46.1309062 114.167706,46.2261289 C113.629309,46.2594388 113.084777,46.2616112 112.54674,46.2257669 C110.89474,46.1160616 110.289223,46.9741527 110.307266,48.5237856 C110.334691,50.9289752 110.314483,53.3348889 110.314483,55.828422 C109.321046,56.1988132 108.676917,56.2585538 108.696404,54.9152972 C108.730324,52.5658654 108.653823,50.2138992 108.723829,47.8659157 C108.783009,45.8734788 110.078844,44.6859097 112.037211,44.6001006 C116.786801,44.3919139 118.214709,44.852097 117.94118,50.3210701 C117.84844,52.1733883 117.926385,54.0343961 117.926385,55.8458011" id="Fill-8" sketch:type="MSShapeGroup"></path>
            <path d="M18.7176147,44.8846827 C18.7176147,47.2250629 18.7039021,49.565443 18.7215841,51.9058232 C18.7378226,54.0314995 19.1600245,54.4493211 21.237474,54.4772 C21.7769541,54.4844413 22.3167951,54.4685105 22.8566361,54.4764759 C24.1243242,54.4953032 24.7363364,53.85264 24.7431927,52.6020718 C24.7543792,50.4959469 24.7027768,48.3872875 24.8070642,46.2858695 C24.835211,45.7239465 25.3321101,45.1851956 25.6139388,44.6355828 C25.8510214,45.1504375 26.2743058,45.658775 26.2930703,46.181233 C26.3699327,48.3449261 26.3479205,50.5129639 26.3168869,52.6788293 C26.2851315,54.8736599 25.1690031,55.9971437 23.0222691,56.0749874 C17.8508379,56.2621744 17.0894312,55.5242884 17.0894312,50.3225184 C17.0894312,48.8181434 17.0129297,47.3076134 17.1356208,45.8133762 C17.175315,45.3267625 17.7371682,44.8832344 18.0601346,44.4201549 C18.2795352,44.5751182 18.4985749,44.7297194 18.7176147,44.8846827" id="Fill-9" sketch:type="MSShapeGroup"></path>
            <path d="M57.410789,46.2196118 C57.410789,48.5799055 57.3494434,50.7330987 57.4385749,52.8801368 C57.4793517,53.8569848 58.0242446,54.5289752 59.1912538,54.5311475 C59.4918471,54.5318717 59.7913578,55.0684502 60.0912294,55.3588253 C59.7549113,55.5963391 59.4388012,55.998954 59.0783058,56.044212 C57.4086239,56.2534849 56.1416575,55.2791713 55.9980367,53.5485065 C55.8490031,51.7533943 55.9291131,49.940179 55.8677676,48.1363774 C55.8392599,47.3083375 56.2040856,46.2163532 54.73937,46.1207684 C54.6607034,46.1156995 54.641578,45.1851956 54.5950275,44.6855476 C56.2398104,44.6544101 55.7299205,43.3893593 55.9182875,42.4686312 C56.0012844,42.0623957 56.4296208,41.7271246 56.7009847,41.359992 C56.9174985,41.7130041 57.3371743,42.0790506 57.3162446,42.4175802 C57.2227829,43.9201448 57.523737,44.9060445 59.348948,44.653686 C59.5596881,44.6243588 60.0410703,45.1395756 60.0414312,45.4027959 C60.041792,45.6747058 59.6462936,46.1182339 59.3561651,46.1830433 C58.7975596,46.3083174 58.1913211,46.2196118 57.410789,46.2196118" id="Fill-10" sketch:type="MSShapeGroup"></path>
            <path d="M91.6073333,44.8600624 C91.6073333,48.2815649 91.6275413,51.7034295 91.5737737,55.124208 C91.5687217,55.4370311 91.0898654,55.7422508 90.8311315,56.0507292 C90.5640979,55.7360957 90.0708073,55.425445 90.0650336,55.1061048 C90.0080183,51.9192196 89.9968318,48.7301619 90.0769419,45.5443629 C90.0863242,45.1598512 90.7102446,44.7909082 91.0494495,44.415086 C91.2352905,44.5635321 91.4214924,44.7116162 91.6073333,44.8600624" id="Fill-11" sketch:type="MSShapeGroup"></path>
            <path d="M92.2918777,41.0062557 C91.6304281,41.5153173 91.264159,42.0044655 90.9909908,41.9570351 C90.6102875,41.8907774 90.2988685,41.422629 89.9578593,41.1268229 C90.2505138,40.8465855 90.5146606,40.3900231 90.8441223,40.3364377 C91.166367,40.2835764 91.5550092,40.6416574 92.2918777,41.0062557" id="Fill-12" sketch:type="MSShapeGroup"></path>
            <path d="M64.5470826,6.99688223 L67.551211,6.99688223 L67.551211,23.8299507 L64.5470826,23.8299507 L64.5470826,6.99688223" id="Fill-13" sketch:type="MSShapeGroup"></path>
            <path d="M58.2800917,23.8408126 L55.3755596,23.8408126 L55.3755596,11.1544604 L58.2800917,11.1544604 L58.2800917,23.8408126" id="Fill-14" sketch:type="MSShapeGroup"></path>
            <path d="M62.99937,14.5596701 L62.99937,23.8046063 C62.371841,23.8469677 61.7951927,23.8661571 61.2232355,23.9277079 C60.1366972,24.0450166 59.7195474,23.570351 59.7476942,22.4848838 C59.7956881,20.6242382 59.755633,18.7617822 59.7563547,16.9000503 C59.7577982,14.0737805 59.9808073,13.9083174 62.99937,14.5596701" id="Fill-15" sketch:type="MSShapeGroup"></path>
            <path d="M50.672159,23.9172081 L50.672159,17.6133159 L53.8170214,17.6133159 C53.8170214,19.4540481 53.868263,21.2361259 53.7697492,23.0102384 C53.7520673,23.3303027 53.1573761,23.7828824 52.75863,23.8784673 C52.1440917,24.0254652 51.4685688,23.9172081 50.672159,23.9172081" id="Fill-16" sketch:type="MSShapeGroup"></path>
        </g>
    </g>
</svg>