<?xml version="1.0" encoding="UTF-8" standalone="no"?>
<svg
   width="300"
   height="90"
   viewBox="0 0 300 90"
   version="1.1"
   id="svg6265"
   sodipodi:docname="rackspace-color.svg"
   inkscape:version="1.1.1 (3bf5ae0d25, 2021-09-20)"
   xmlns:inkscape="http://www.inkscape.org/namespaces/inkscape"
   xmlns:sodipodi="http://sodipodi.sourceforge.net/DTD/sodipodi-0.dtd"
   xmlns="http://www.w3.org/2000/svg"
   xmlns:svg="http://www.w3.org/2000/svg"
   xmlns:rdf="http://www.w3.org/1999/02/22-rdf-syntax-ns#"
   xmlns:cc="http://creativecommons.org/ns#"
   xmlns:dc="http://purl.org/dc/elements/1.1/"
   xmlns:sketch="http://www.bohemiancoding.com/sketch/ns">
  <sodipodi:namedview
     id="namedview6267"
     pagecolor="#ffffff"
     bordercolor="#666666"
     borderopacity="1.0"
     inkscape:pageshadow="2"
     inkscape:pageopacity="0.0"
     inkscape:pagecheckerboard="0"
     showgrid="false"
     inkscape:zoom="1.7039198"
     inkscape:cx="87.445428"
     inkscape:cy="-19.073667"
     inkscape:window-width="1866"
     inkscape:window-height="1016"
     inkscape:window-x="54"
     inkscape:window-y="27"
     inkscape:window-maximized="1"
     inkscape:current-layer="svg6265" />
  <!-- Generator: Sketch 3.3.3 (12072) - http://www.bohemiancoding.com/sketch -->
  <title
     id="title6218">Imported Layers</title>
  <desc
     id="desc6220">Created with Sketch.</desc>
  <defs
     id="defs6222" />
  <g
     id="Page-1"
     stroke="none"
     stroke-width="1"
     fill="none"
     fill-rule="evenodd"
     sketch:type="MSPage"
     transform="matrix(1.423887,0,0,1.423887,0.62730258,-0.01011649)">
    <g
       id="About---Desktop"
       sketch:type="MSArtboardGroup"
       transform="translate(-768,-934)">
      <g
         id="Imported-Layers-+-Imported-Layers-+-Imported-Layers"
         sketch:type="MSLayerGroup"
         transform="translate(225,929)">
        <g
           id="Imported-Layers"
           transform="translate(543.59002,5.615385)"
           sketch:type="MSShapeGroup">
          <path
             d="m 23.236261,3.1151014 c 0.787198,-0.8577434 1.577008,-1.712852 2.359561,-2.57527931 0.162839,-0.17945279 0.344835,-0.23302515 0.583142,-0.24385672 8.34859,-0.37939774 15.570373,4.48690523 17.18976,13.11732563 0.904464,4.820927 0.02061,9.428444 -2.210365,13.739409 -3.704067,7.156741 -9.374676,11.953956 -17.155219,14.063478 -3.265186,0.885261 -6.570429,0.950544 -9.882058,0.150471 -0.70244,-0.169792 -1.044952,-0.400183 -1.035664,-1.238898 0.04296,-3.940935 0.587786,-7.752185 2.553168,-11.238194 0.566016,-1.004116 1.271068,-1.905771 2.199915,-2.604261 1.84289,-1.386148 3.891577,-1.329941 5.633165,0.189992 1.90878,1.666305 2.790894,3.924834 3.447473,6.291386 0.403467,1.45348 0.602299,2.948237 0.723919,4.576193 0.804033,-0.50118 1.54653,-0.970743 2.296284,-1.428304 0.402016,-0.245321 0.160516,-0.519623 0.05573,-0.789534 -1.217369,-3.133544 -1.911102,-6.355498 -1.73404,-9.747243 0.204927,-3.928347 1.428682,-7.555167 3.110475,-11.054936 1.296903,-2.698818 2.853011,-5.2433586 4.570797,-7.6857315 0.322484,-0.4587317 0.248757,-0.6537 -0.177062,-0.9467379 C 33.477087,4.1157043 30.916953,3.3885253 28.19311,3.1645753 26.565596,3.0307907 24.938373,3.0852413 23.236261,3.1151014"
             id="Fill-1"
             fill="#020202" />
          <path
             d="m 113.79824,38.470521 c -0.30101,0.354222 0.29287,0.558851 0.0636,0.985087 -1.8992,0 -3.882,0.0038 -5.86479,-0.0029 -0.41334,-0.0015 -0.42176,-0.394035 -0.53844,-0.653115 -1.38573,-3.073238 -2.76158,-6.150868 -4.14063,-9.226742 -0.0668,-0.149007 -0.13962,-0.295087 -0.29055,-0.612423 -0.48416,2.561521 -0.93553,4.950028 -1.38718,7.338536 -0.16603,0.878236 -0.3518,1.753544 -0.48822,2.636756 -0.0575,0.370615 -0.17735,0.533674 -0.57328,0.529283 -1.610674,-0.01727 -3.222223,-0.02898 -4.832321,0.0038 -0.656288,0.01317 -0.470519,-0.387887 -0.410434,-0.711078 0.607234,-3.270549 1.224046,-6.539049 1.8426,-9.807256 0.982255,-5.188615 1.978443,-10.374889 2.937185,-15.567603 0.10101,-0.546262 0.26124,-0.751184 0.83277,-0.73479 1.4432,0.04128 2.889,0.04596 4.33191,-8.78e-4 0.638,-0.02079 0.81826,0.132321 0.69025,0.789534 -0.82145,4.224312 -1.61242,8.45448 -2.41268,12.682891 -0.13904,0.734791 -0.27372,1.470167 -0.44875,2.411928 1.80254,-2.090494 3.47186,-4.027881 5.14233,-5.964098 0.83683,-0.969864 1.50502,-2.310052 2.56129,-2.801864 1.05744,-0.492397 2.50324,-0.140225 3.77867,-0.151349 0.81999,-0.007 1.64028,-0.0012 2.62167,-0.0012 -1.96626,2.23833 -3.81611,4.344631 -5.66626,6.45064 -0.25746,0.293038 -0.47748,0.636428 -0.78139,0.867404 -1.50763,1.14639 -1.55843,2.367723 -0.64236,4.025539 1.23566,2.235987 2.16712,4.64206 3.24836,6.966164 0.0964,0.207556 0.0511,0.580513 0.44642,0.567633 l -0.0197,-0.01991"
             id="Fill-2"
             fill="#020202" />
          <path
             d="m 113.81797,38.490428 c 0.26734,-1.509102 0.53496,-3.018496 0.82029,-4.628301 1.34305,0.683267 2.65389,1.236555 4.06487,1.49622 0.84728,0.156033 1.69282,0.30182 2.55316,0.09836 0.72189,-0.17067 1.29574,-0.533674 1.48558,-1.29891 0.17387,-0.700832 -0.14426,-1.248851 -0.638,-1.714901 -0.47197,-0.445265 -1.0438,-0.732741 -1.60343,-1.041587 -0.5097,-0.281329 -1.02347,-0.55768 -1.51547,-0.868868 -4.51738,-2.857778 -2.80599,-7.919342 0.0401,-9.747243 2.06146,-1.324087 4.32465,-1.646985 6.69176,-1.549208 1.16773,0.04801 2.30731,0.26874 3.42744,0.621206 0.61246,0.192626 0.81942,0.500594 0.67168,1.14961 -0.27285,1.196742 -0.47952,2.408707 -0.72683,3.68332 -1.28093,-0.599543 -2.59525,-0.99914 -3.98881,-1.08345 -0.69925,-0.04216 -1.39472,-0.01317 -2.03708,0.289817 -1.04844,0.494447 -1.22492,1.553892 -0.42263,2.392021 0.55122,0.57583 1.25482,0.912487 1.94826,1.263781 1.07108,0.542457 2.09832,1.155173 2.92732,2.041019 2.19556,2.345767 1.7053,6.321247 -1.04524,8.416131 -2.05275,1.56326 -4.44424,1.91953 -6.92862,1.877375 -2.01792,-0.03396 -3.92583,-0.546262 -5.74404,-1.416301 l 0.0197,0.01991"
             id="Fill-3"
             fill="#020202" />
          <path
             d="m 184.43122,33.894621 c -0.31232,1.641422 -0.60868,3.171016 -0.89082,4.703244 -0.0508,0.276352 -0.24034,0.348074 -0.45456,0.421846 -2.91077,1.001481 -5.85986,1.320866 -8.79995,0.221901 -3.05474,-1.141414 -4.83,-4.130049 -4.69677,-7.670216 0.23076,-6.128913 3.9238,-10.658852 9.84113,-12.001381 2.05798,-0.466929 4.1296,-0.413064 6.19367,0.07465 0.6589,0.15574 0.9062,0.41277 0.72856,1.12941 -0.27546,1.110383 -0.47864,2.24155 -0.656,3.372718 -0.0784,0.498545 -0.18402,0.607738 -0.67283,0.381154 -1.22085,-0.565584 -2.52704,-0.673021 -3.83149,-0.422139 -3.62076,0.696734 -6.12778,4.606931 -5.32374,8.24429 0.3547,1.60395 1.64609,2.683887 3.33078,2.782542 1.61678,0.09485 3.13428,-0.290695 4.59286,-0.964302 0.16835,-0.07787 0.34077,-0.146373 0.63916,-0.273717"
             id="Fill-4"
             fill="#020202" />
          <path
             d="m 94.57285,33.891694 c -0.315228,1.64552 -0.607815,3.148181 -0.887339,4.653477 -0.0476,0.256738 -0.181706,0.376763 -0.41653,0.456682 -3.109024,1.058274 -6.247075,1.423035 -9.329104,0.0202 -2.61122,-1.188545 -3.93773,-3.403456 -4.132787,-6.22991 -0.552084,-7.989016 5.351027,-13.85358 13.525169,-13.508726 0.947423,0.03981 1.867852,0.218388 2.779864,0.480688 0.414207,0.119147 0.500996,0.283377 0.408692,0.711956 -0.270817,1.255877 -0.500126,2.521707 -0.707665,3.789879 -0.07692,0.471612 -0.232211,0.421553 -0.600557,0.278693 -5.73708,-2.226912 -9.851581,2.714041 -9.260312,7.411137 0.233663,1.856004 1.541886,3.072068 3.402482,3.176578 0.892854,0.05006 1.771485,-0.04655 2.640537,-0.263178 0.836252,-0.208142 1.617644,-0.562949 2.57755,-0.977476"
             id="Fill-5"
             fill="#020202" />
          <path
             d="m 55.401642,22.764157 c 0.685315,-0.655456 1.210984,-1.40342 1.909651,-1.999742 1.279777,-1.092818 2.735744,-1.66894 4.428277,-1.597511 0.523347,0.02196 0.787197,0.111829 0.622908,0.786021 -0.363412,1.492122 -0.630455,3.009128 -0.898079,4.523206 -0.07111,0.40311 -0.158775,0.572609 -0.617393,0.534553 -2.50092,-0.20785 -4.147881,1.052418 -5.274688,3.185067 -0.956422,1.810629 -1.245235,3.807736 -1.615903,5.782888 -0.319291,1.702606 -0.665287,3.400821 -0.936974,5.111331 -0.08331,0.522843 -0.293458,0.609202 -0.751205,0.601884 -1.499217,-0.02488 -2.999594,-0.03689 -4.49823,0.0041 -0.607815,0.01639 -0.741627,-0.147543 -0.62494,-0.748549 0.855119,-4.415475 1.680051,-8.836513 2.516594,-13.255501 0.348027,-1.839904 0.708536,-3.677172 1.046694,-5.518832 0.06734,-0.366517 0.143391,-0.585198 0.604621,-0.572903 1.387465,0.03601 2.776671,0.02664 4.165007,0.0047 0.425528,-0.007 0.522766,0.119733 0.431914,0.531918 -0.191575,0.870917 -0.341351,1.750909 -0.508254,2.627388"
             id="Fill-6"
             fill="#020202" />
          <path
             d="m 41.939751,59.470596 c 0.456006,-2.424808 0.870213,-4.763842 1.347408,-7.08941 0.173869,-0.847205 0.91027,-0.287183 1.374984,-0.412771 0.447297,-0.120903 0.50535,0.181502 0.325676,0.676242 0.640034,-0.41482 1.122454,-0.796853 1.7442,-0.834031 0.758171,-0.04567 1.501829,0.115634 1.91952,0.770798 0.404049,0.633207 0.620005,0.435897 1.001993,0.02547 0.563404,-0.605689 1.324188,-0.819393 2.120093,-0.807098 1.426651,0.02196 2.481182,1.14639 2.312248,2.604261 -0.183157,1.579946 -0.458618,3.159306 -0.84496,4.700316 -0.193026,0.770213 -1.003445,0.315872 -1.511989,0.331681 -0.520734,0.0161 -0.202024,-0.445851 -0.159935,-0.68883 0.194767,-1.129118 0.418271,-2.252966 0.626391,-3.380035 0.190413,-1.031634 -0.07576,-1.661622 -0.783715,-1.875033 -0.730596,-0.220144 -1.587747,0.222193 -1.929098,1.084035 -0.403178,1.018753 -0.450201,2.128258 -0.694313,3.189459 -0.08766,0.380569 -0.144842,0.768749 -0.205798,1.155172 -0.05863,0.371201 -0.191865,0.561193 -0.637711,0.564998 -1.262071,0.01112 -1.257717,0.04069 -1.021731,-1.235384 0.19825,-1.072619 0.402306,-2.144358 0.57095,-3.221954 0.09695,-0.619741 -0.01713,-1.198498 -0.670511,-1.471044 -0.674285,-0.281621 -1.25046,-0.05562 -1.725043,0.459024 -0.393599,0.42653 -0.534377,0.970451 -0.63684,1.525203 -0.192446,1.044514 -0.410725,2.085516 -0.561662,3.136179 -0.08534,0.594272 -0.287943,0.910144 -0.939297,0.801243 -0.294908,-0.04947 -0.604911,-0.0085 -1.02086,-0.0085"
             id="Fill-7"
             fill="#020202" />
          <path
             d="m 165.0192,52.877096 c 1.88526,-1.38527 3.14066,-1.230993 4.25586,0.573195 0.57385,-0.821443 1.3236,-1.341944 2.31282,-1.476314 1.66119,-0.225999 2.98886,0.998554 2.78277,2.67774 -0.17996,1.468118 -0.49548,2.91867 -0.7364,4.379468 -0.11117,0.673607 -0.62494,0.447022 -0.9779,0.41804 -0.51261,-0.04245 -0.17852,-0.439996 -0.14601,-0.645503 0.20609,-1.295397 0.48213,-2.579963 0.66935,-3.877702 0.10624,-0.736254 -0.10188,-1.425084 -0.84728,-1.749445 -0.73292,-0.319093 -1.41097,-0.114464 -1.99383,0.413648 -0.58314,0.528698 -0.86353,1.214307 -0.99996,1.977201 -0.19186,1.072033 -0.44381,2.135869 -0.57414,3.215221 -0.0792,0.657798 -0.40695,0.782215 -0.9332,0.681803 -0.62117,-0.118269 -0.24963,-0.539822 -0.20115,-0.829054 0.1936,-1.156636 0.41536,-2.308589 0.62145,-3.463468 0.14484,-0.808855 -0.008,-1.517884 -0.76514,-1.955245 -0.64729,-0.374129 -1.47425,-0.176233 -2.12676,0.430042 -0.65455,0.608032 -0.85919,1.411032 -1.00925,2.244477 -0.17794,0.989186 -0.38315,1.974567 -0.52509,2.969315 -0.0787,0.553288 -0.36719,0.647845 -0.84612,0.620327 -0.37967,-0.02166 -0.44817,-0.115342 -0.37038,-0.504986 0.41014,-2.053607 0.8081,-4.110435 1.14799,-6.17663 0.0958,-0.583148 0.3251,-0.69849 0.85803,-0.689122 0.69141,0.01171 0.22524,0.540993 0.40434,0.766992"
             id="Fill-8"
             fill="#020202" />
          <path
             d="m 65.481371,52.781076 c 0.831608,-0.699954 1.477737,-1.011435 2.2272,-0.981868 1.512278,0.06001 2.502951,1.20172 2.307894,2.767906 -0.18577,1.494464 -0.441493,2.985708 -0.775297,4.45324 -0.204056,0.896971 -1.01999,0.386423 -1.537532,0.411892 -0.474582,0.02313 -0.220891,-0.45961 -0.179383,-0.708736 0.198251,-1.183569 0.438299,-2.359819 0.640614,-3.542509 0.114364,-0.668337 0.07692,-1.298325 -0.667609,-1.619174 -0.65832,-0.28367 -1.442324,-0.05152 -1.926776,0.568511 -0.393599,0.503815 -0.489677,1.114188 -0.601428,1.716658 -0.188672,1.015533 -0.364863,2.033408 -0.550342,3.049819 -0.191575,1.04715 -1.011572,0.516988 -1.529694,0.540115 -0.662094,0.02928 -0.261529,-0.564705 -0.220892,-0.804171 0.343383,-2.036335 0.771814,-4.058034 1.112294,-6.094954 0.158194,-0.945275 0.828415,-0.480395 1.290226,-0.571146 0.421755,-0.08255 0.748302,0.01756 0.410725,0.814417"
             id="Fill-9"
             fill="#020202" />
          <path
             d="m 131.74094,58.748686 c -0.57269,0.370615 -0.93813,0.661604 -1.41127,0.773726 -1.73317,0.411307 -3.15953,-0.728643 -3.05213,-2.51556 0.0938,-1.563844 0.4801,-3.088754 0.80491,-4.614249 0.19534,-0.917463 1.02318,-0.358027 1.53666,-0.394621 0.47342,-0.03366 0.20173,0.477761 0.16371,0.711957 -0.19187,1.184154 -0.45369,2.356598 -0.64671,3.54046 -0.11379,0.696148 -0.0494,1.355995 0.76862,1.635567 0.68357,0.233611 1.42665,-0.03132 1.88759,-0.689415 0.48532,-0.692635 0.49432,-1.5293 0.66819,-2.313272 0.17474,-0.790119 0.29984,-1.591363 0.45571,-2.385873 0.20551,-1.045979 1.01912,-0.464001 1.53115,-0.503815 0.63655,-0.04947 0.22234,0.511426 0.18548,0.727472 -0.35674,2.091372 -0.76137,4.174253 -1.15119,6.25977 -0.17416,0.930637 -0.89024,0.351587 -1.34683,0.478638 -0.49142,0.136712 -0.55673,-0.189113 -0.39389,-0.710785"
             id="Fill-10"
             fill="#020202" />
          <path
             d="m 107.50298,56.254497 c 0.008,-2.067952 1.02957,-3.569442 2.60454,-4.169276 1.55117,-0.59076 3.15489,-0.250005 4.18852,0.915999 0.18258,0.2058 0.67196,0.502351 0.11262,0.750013 -0.39969,0.176818 -0.61014,1.124434 -1.30909,0.376178 -0.9274,-0.992406 -2.16857,-0.991528 -3.05736,-0.04713 -0.94046,0.999139 -1.00838,2.677154 -0.14107,3.494499 0.6827,0.643747 1.70502,0.695563 2.58684,2.93e-4 0.82029,-0.646674 0.88502,0.271082 1.21302,0.543335 0.50331,0.417747 -0.0697,0.604518 -0.2984,0.771383 -1.26294,0.921562 -2.62225,0.981282 -3.99839,0.301821 -1.33667,-0.659848 -1.85653,-1.839026 -1.90123,-2.937113"
             id="Fill-11"
             fill="#020202" />
          <path
             d="m 7.4722815,52.864801 c 0.6179733,-0.27518 1.0252145,-0.705809 1.6121296,-0.836666 1.8536299,-0.41277 3.3931929,0.922733 3.1232469,2.81211 -0.201153,1.408397 -0.530604,2.798059 -0.749173,4.204699 -0.103915,0.66863 -0.565725,0.396377 -0.889661,0.412185 -0.501577,0.02459 -0.294909,-0.365346 -0.253981,-0.598078 0.212183,-1.209623 0.442073,-2.416026 0.671962,-3.622429 0.15326,-0.803292 0.03802,-1.514078 -0.706213,-1.977786 C 9.6129829,52.842845 8.6403062,53.002684 7.9709561,53.596371 7.3814287,54.119214 7.0815853,54.792235 6.940807,55.554836 6.7329776,56.680149 6.4697076,57.798142 6.3260266,58.931359 6.2322711,59.672297 5.7408532,59.503676 5.3562526,59.450103 4.8546754,59.380137 5.1452302,58.979662 5.191092,58.732585 5.7486903,55.743071 6.3547628,52.76234 6.8638869,49.764922 c 0.1169766,-0.690293 0.4757437,-0.658676 0.909399,-0.598664 0.6411945,0.0887 0.2592063,0.543043 0.2156666,0.82642 -0.1428102,0.93093 -0.3300309,1.855126 -0.516671,2.872123"
             id="Fill-12"
             fill="#020202" />
          <path
             d="m 202.10717,58.050782 c 0.56689,-1.003824 1.04031,-1.839318 1.51141,-2.676277 0.43656,-0.77636 0.93001,-1.527251 1.28907,-2.338448 0.35209,-0.795682 0.85628,-1.10482 1.71198,-0.8595 0.13874,0.152813 -0.043,0.281035 -0.1135,0.403696 -1.38833,2.41222 -2.77376,4.826782 -4.18387,7.226414 -0.69954,1.190595 -1.60429,2.091372 -3.14037,1.872984 -0.26995,-0.03835 -0.54541,-0.10451 -0.79359,-0.214583 -0.19534,-0.08695 -0.57327,-0.165108 -0.328,-0.509376 0.1701,-0.238587 0.19274,-0.770213 0.75672,-0.476882 0.72625,0.377349 1.38428,0.228634 1.96161,-0.367102 0.39505,-0.407794 0.55934,-0.811783 0.39244,-1.410739 -0.53873,-1.933582 -1.02289,-3.882387 -1.5117,-5.829435 -0.0601,-0.240344 -0.39621,-0.623254 0.10014,-0.721617 0.41508,-0.08226 0.90969,-0.203165 1.0644,0.521087 0.3698,1.732173 0.81681,3.447952 1.28326,5.379778"
             id="Fill-13"
             fill="#020202" />
          <path
             d="m 193.81954,52.890563 c 0.48039,-0.32524 0.85193,-0.657213 1.33928,-0.806221 1.88672,-0.577293 3.57461,0.777824 3.31076,2.735997 -0.18984,1.410446 -0.53177,2.799522 -0.75034,4.207041 -0.11233,0.723373 -0.62348,0.437068 -0.95526,0.417454 -0.465,-0.02723 -0.20986,-0.420382 -0.17067,-0.646967 0.20463,-1.184154 0.42814,-2.364795 0.65687,-3.544265 0.15587,-0.805342 0.0415,-1.517299 -0.69461,-1.986276 -0.6409,-0.408673 -1.59906,-0.280158 -2.25216,0.261714 -0.63074,0.523428 -0.95207,1.218112 -1.09836,2.012623 -0.21276,1.154001 -0.46965,2.30127 -0.63626,3.461711 -0.10188,0.711664 -0.59243,0.457561 -0.94046,0.44995 -0.49954,-0.01054 -0.23947,-0.396963 -0.19883,-0.620913 0.36719,-2.035164 0.76833,-4.063888 1.11636,-6.102273 0.0946,-0.555337 0.3785,-0.602177 0.84525,-0.620912 0.61797,-0.02459 0.33119,0.41482 0.42843,0.781337"
             id="Fill-14"
             fill="#020202" />
          <path
             d="m 115.49367,59.515678 c -0.56776,0.153692 -0.60549,-0.254688 -0.47894,-0.905168 0.57066,-2.930379 1.10794,-5.867198 1.67657,-8.798163 0.0453,-0.233903 -0.0392,-0.631744 0.36748,-0.645503 0.46645,-0.01581 0.94103,-0.0067 1.39994,0.0688 0.16081,0.02635 0.0572,0.301528 0.0287,0.455512 -0.57385,3.099585 -1.16251,6.196244 -1.72562,9.297586 -0.12772,0.704052 -0.63859,0.42126 -1.26817,0.526941"
             id="Fill-15"
             fill="#020202" />
          <path
             d="m 148.57977,56.089389 c -0.0177,0.977769 0.35209,1.757057 1.22666,2.210519 0.90069,0.467221 1.8127,0.359784 2.56245,-0.294795 0.47633,-0.41599 0.7367,-0.302405 1.03625,0.12149 0.37125,0.525184 -0.19361,0.623254 -0.41479,0.790704 -1.50183,1.136144 -3.7209,0.863306 -4.87064,-0.56412 -1.18892,-1.476313 -0.93755,-3.959964 0.53989,-5.335573 1.61591,-1.504125 4.15833,-1.388198 5.39921,0.251468 0.1521,0.201116 0.46065,0.432092 0.0229,0.648723 -0.27256,0.134956 -0.49403,0.588711 -0.88096,0.08021 -0.72711,-0.956106 -1.69282,-1.218699 -2.80976,-0.774604 -1.08762,0.432677 -1.80573,1.595168 -1.81125,2.865975"
             id="Fill-16"
             fill="#020202" />
          <path
             d="M 3.5955076,58.349382 C 3.5037839,59.463277 3.3763578,59.578911 2.3119575,59.582424 1.1874725,59.585937 0.4722605,59.05724 0.40637043,58.13802 0.33351402,57.11751 0.69112,56.152622 0.83102754,55.159338 0.88937072,54.745396 0.99763942,54.33848 1.0768816,53.927466 1.1630902,53.4822 1.2971925,53.002391 0.53727977,53.130906 c -0.14310045,0.024 -0.28707169,-0.0281 -0.26326999,-0.21868 0.0336707,-0.269619 0.064729,-0.744159 0.25978681,-0.727472 1.34537641,0.115341 1.02289241,-0.987722 1.15583361,-1.642886 0.119589,-0.589589 0.397082,-0.614765 0.850185,-0.611252 0.352091,0.0026 0.426689,0.137883 0.3776343,0.455512 -0.086789,0.563534 -0.5207347,1.271977 -0.1782225,1.640543 0.2658824,0.286013 1.0469844,0.08519 1.5990676,0.09983 0.2211817,0.0056 0.487064,-0.03367 0.4246571,0.325825 -0.048184,0.278108 0.048184,0.670386 -0.4223349,0.68034 -0.4438146,0.0094 -0.8914026,0.03659 -1.3314437,-0.0053 -0.4931596,-0.04742 -0.6827024,0.145788 -0.7535269,0.629988 -0.1413589,0.966645 -0.2824275,1.940315 -0.5303134,2.882369 -0.3953404,1.503246 -0.093175,2.168656 1.8701748,1.709632"
             id="Fill-17"
             fill="#020202" />
          <path
             d="m 35.840131,59.452738 c -0.671092,0.118855 -0.568048,-0.241222 -0.492579,-0.637013 0.486193,-2.547469 0.94423,-5.100499 1.446098,-7.644748 0.115235,-0.584612 0.0041,-0.716054 -0.538441,-0.477174 -0.226116,0.09953 -0.47139,0.178867 -0.714631,0.207263 -0.180255,0.02108 -0.476034,0.291282 -0.542215,-0.07465 -0.05196,-0.288354 -0.272848,-0.754111 0.121911,-0.886725 0.886178,-0.297722 1.741298,-0.722202 2.69801,-0.787777 0.406661,-0.0281 0.543666,0.103046 0.462682,0.526356 -0.593301,3.095487 -1.181377,6.191853 -1.746522,9.29261 -0.0894,0.490641 -0.335256,0.581977 -0.694313,0.481858"
             id="Fill-18"
             fill="#020202" />
          <path
             d="m 208.35831,37.15346 c 0,1.542475 -1.19531,2.786349 -2.69946,2.80889 -1.34683,0.0202 -2.38452,-1.009678 -2.38597,-2.368015 -10e-4,-1.477485 1.28297,-2.789276 2.75519,-2.813867 1.35611,-0.02254 2.33024,0.969279 2.33024,2.372992 z m -0.33438,0.01552 c 0.008,-1.103064 -0.83829,-1.96432 -1.93723,-1.97076 -1.2731,-0.0073 -2.406,1.112431 -2.41384,2.38558 -0.007,1.103649 0.83887,1.969297 1.93607,1.982177 1.2461,0.01464 2.40542,-1.136144 2.415,-2.396997 z"
             id="Fill-19"
             fill="#020202" />
          <path
             d="M 32.847503,5.514148 C 29.403513,4.2893022 25.894795,4.2011859 22.345149,4.9324634 11.776905,7.1096092 3.053003,16.670374 1.8420191,26.956268 c -0.5158002,4.379175 0.2133445,8.474973 2.8460444,12.1015 1.5894889,2.189441 3.6332419,3.796612 6.2427205,4.864253 0,-0.372957 0.0073,-0.642575 -8.71e-4,-0.911608 -0.101882,-3.395551 0.130329,-6.768561 0.659772,-10.12225 1.401107,-8.878961 4.631752,-16.983611 9.923275,-24.2565717 0.914334,-1.2564622 1.958125,-1.8516132 3.483176,-1.8545406 -0.195639,0.2353671 -0.373571,0.4440944 -0.546278,0.6572129 -1.741878,2.1546044 -3.139792,4.4754884 -3.459084,7.3136524 -0.248756,2.211104 1.127678,3.372424 3.22426,2.724579 1.191245,-0.36798 2.19498,-1.062372 3.124117,-1.870348 2.898873,-2.520829 4.614627,-5.8235801 6.045922,-9.317201 0.249047,-0.6074462 -0.187801,-0.6463813 -0.53757,-0.770798 z m -8.00753,9.671715 c -1.08588,0.329046 -1.782224,-0.226292 -1.762196,-1.404591 0.0299,-1.738028 1.826054,-4.1511269 3.47737,-4.6722133 1.08617,-0.3428046 1.815605,0.2060926 1.806607,1.3586303 -0.01451,1.781354 -1.821991,4.202942 -3.521781,4.718174 z"
             id="Fill-20"
             fill="#cc1331" />
          <path
             d="m 149.47437,23.806623 c -0.68735,-2.346938 -2.16306,-3.974016 -4.60621,-4.461437 -2.15667,-0.430042 -4.12786,0.110658 -5.84767,1.510273 -0.27982,0.227463 -0.54077,0.481273 -0.79068,0.742401 -0.1434,0.149886 -0.30014,0.314701 -0.48939,0.19936 -0.18461,-0.112122 -0.005,-0.292453 0.0267,-0.447022 0.11582,-0.574659 0.21335,-1.152831 0.34426,-1.877082 -1.631,0 -3.18421,0.01581 -4.73683,-0.01 -0.44033,-0.007 -0.48445,0.247076 -0.54396,0.563827 -1.57642,8.406177 -3.14646,16.813233 -4.7525,25.213556 -0.12017,0.628524 0.10072,0.620619 0.55818,0.615057 1.47251,-0.01873 2.9459,-0.04011 4.41696,0.0085 0.62145,0.02049 0.85076,-0.163937 0.95613,-0.793047 0.36631,-2.186221 0.802,-4.360732 1.22927,-6.634191 0.83567,0.818516 1.73346,1.258219 2.7787,1.409275 2.4838,0.358613 4.66165,-0.423016 6.63458,-1.856297 4.05383,-2.94443 6.23604,-9.358477 4.82246,-14.18321 z m -5.80094,4.789896 c -0.28272,1.974274 -0.93001,3.791636 -2.24404,5.318594 -0.55266,0.642283 -1.21301,1.142878 -2.04056,1.381465 -1.55059,0.447022 -2.48495,-0.11622 -2.79496,-1.702313 -0.0743,-0.381447 -0.0935,-0.773726 -0.12684,-1.063544 0.19186,-2.238036 0.59098,-4.315063 1.70269,-6.179265 0.6261,-1.049784 1.41765,-1.938558 2.67827,-2.235987 1.22579,-0.28894 2.21124,0.23039 2.64809,1.418643 0.36718,0.999725 0.32567,2.026968 0.17735,3.062407 z"
             id="Fill-21"
             fill="#020202" />
          <path
             d="m 74.186696,19.344894 c -1.519245,-0.254689 -3.046327,-0.169207 -4.544382,0.207849 -7.686787,1.933874 -10.480584,11.201015 -8.827527,16.392558 0.753817,2.367138 2.344177,3.871262 4.897925,3.989531 2.028369,0.09426 3.813496,-0.586954 5.216635,-2.138796 0.146003,-0.161595 0.220311,-0.439118 0.582271,-0.437947 -0.125395,0.695856 -0.243823,1.35219 -0.38344,2.127672 1.769453,0 3.489271,-0.0097 5.208508,0.0076 0.387793,0.0038 0.426108,-0.197018 0.483,-0.505571 0.48184,-2.610995 0.988061,-5.217598 1.476286,-7.827421 0.348898,-1.866836 0.83364,-3.716692 0.803743,-5.63593 -0.05486,-3.485716 -1.761326,-5.65086 -4.913019,-6.179557 z m -2.87478,14.053524 c -0.479227,0.675363 -1.099813,1.19118 -1.859726,1.500026 -1.410686,0.574074 -2.541847,0.0085 -2.964182,-1.467824 -0.15413,-0.538065 -0.244983,-1.091939 -0.210732,-1.666305 0.155292,-2.61158 0.968033,-4.959104 2.775801,-6.899711 0.423496,-0.454634 0.926524,-0.800073 1.512278,-1.005287 1.477157,-0.517574 2.878264,0.26874 2.823984,1.817947 -0.09521,2.709064 -0.437428,5.409346 -2.077423,7.721154 z"
             id="Fill-22"
             fill="#020202" />
          <path
             d="m 168.85562,24.309559 c -0.34919,-2.558886 -1.87133,-4.300719 -4.36732,-4.865718 -1.40256,-0.317628 -2.81324,-0.302113 -4.21435,-0.04655 -3.62744,0.661018 -6.28278,2.740095 -8.04062,5.934237 -1.80196,3.27494 -2.63299,6.772367 -1.57933,10.490816 0.84961,2.998882 3.15837,4.445336 6.20441,4.036956 1.79209,-0.240344 3.22164,-1.110675 4.45672,-2.700574 0.0409,0.757917 -0.12975,1.289835 -0.26153,1.820875 -0.10624,0.4277 0.0267,0.520794 0.43685,0.514939 1.52737,-0.02137 3.05503,-0.02313 4.58241,0.0012 0.42756,0.0067 0.54976,-0.146079 0.62523,-0.556801 0.52392,-2.858364 1.09516,-5.707652 1.62287,-8.565138 0.3695,-2.001499 0.81767,-3.990702 0.53466,-6.064216 z m -5.57859,1.649033 c -0.12772,2.227498 -0.44556,4.456167 -1.49254,6.480793 -0.57531,1.112139 -1.36018,2.053607 -2.579,2.494189 -1.38137,0.499716 -2.40659,-0.0363 -2.83879,-1.45026 -0.18113,-0.592809 -0.23279,-1.204646 -0.23337,-1.825559 0.15326,-2.406365 0.92159,-4.576485 2.45447,-6.450054 0.42814,-0.523428 0.9393,-0.948787 1.55582,-1.231286 1.68354,-0.771384 3.23935,0.13759 3.13341,1.982177 z"
             id="Fill-23"
             fill="#020202" />
          <path
             d="m 191.61121,31.874094 c 0.7721,0.05123 1.55349,-2.93e-4 2.32879,-0.0442 2.25274,-0.127051 4.48197,-0.387887 6.53153,-1.44294 2.23214,-1.149318 3.40219,-3.207902 3.18014,-5.607241 -0.2386,-2.579964 -1.59268,-4.305404 -4.02539,-5.11865 -2.10006,-0.702003 -4.21609,-0.574951 -6.29671,0.105974 -5.22621,1.710217 -8.74219,7.696271 -7.9039,13.303804 0.50709,3.394381 2.23997,5.705018 5.60472,6.482549 3.34327,0.772262 6.61048,0.29538 9.76159,-1.043051 0.21364,-0.09104 0.39825,-0.165694 0.44788,-0.432384 0.28504,-1.530765 0.57937,-3.060066 0.89518,-4.717882 -1.07979,0.5246 -2.00312,1.028122 -3.01208,1.322038 -1.8873,0.549775 -3.78969,0.886725 -5.73243,0.308846 -1.19938,-0.356857 -2.0423,-1.091647 -2.33199,-2.374456 -0.10885,-0.481566 -0.11001,-0.786607 0.55267,-0.742402 z m 3.94382,-8.292885 c 0.51029,-0.08636 0.99851,-0.03191 1.47048,0.129393 0.58721,0.200531 0.99677,0.608325 1.10388,1.245924 0.10682,0.6335 -0.13265,1.14961 -0.62059,1.546865 -0.65019,0.528991 -1.44435,0.697905 -2.23445,0.816174 -1.20228,0.179745 -2.41675,0.253224 -3.69188,0.207263 0.51957,-2.183 1.98918,-3.610426 3.97256,-3.945619 z"
             id="Fill-24"
             fill="#020202" />
          <path
             d="m 86.743252,51.955827 c -0.780811,-0.247662 -1.494572,0.10773 -1.699209,0.872088 -0.01596,0.05972 -0.09201,0.102754 -0.141068,0.154569 -1.377015,-1.432694 -3.154015,-1.581116 -4.647136,-0.410428 -1.50212,1.178006 -2.020532,3.431851 -1.123615,4.884746 0.935523,1.514956 2.637925,1.754129 4.833196,0.678876 -0.06792,1.231579 -0.664706,1.915724 -1.830408,2.070879 -1.034503,0.137297 -1.966833,-0.174769 -2.855914,-0.681803 -0.779941,-0.44468 -0.703601,0.449071 -1.012733,0.71137 -0.411305,0.348953 0.01858,0.492398 0.268495,0.634672 0.783424,0.446729 1.633609,0.706101 2.521528,0.795388 2.70904,0.272839 4.110437,-0.57378 4.641331,-2.921011 0.473712,-2.096055 0.820288,-4.221092 1.221143,-6.333542 0.03454,-0.182965 0.117558,-0.362711 -0.17561,-0.455804 z m -4.493296,5.434814 c -1.051338,-0.0284 -1.709368,-0.708443 -1.702982,-1.760862 0.0073,-1.283688 1.03073,-2.300684 2.282931,-2.26936 1.043501,0.02605 1.82083,0.803585 1.801092,1.800968 -0.02351,1.185911 -1.172379,2.261749 -2.381041,2.229254 z"
             id="Fill-25"
             fill="#020202" />
          <path
             d="m 143.68533,49.160989 c -0.94917,-0.201409 -1.41475,0.007 -1.53724,0.644918 -0.20348,1.059152 -0.40986,2.118011 -0.63133,3.262059 -0.56427,-0.514353 -1.02347,-0.990064 -1.7053,-1.152245 -2.24549,-0.534553 -4.39142,1.11653 -4.6393,3.592569 -0.31146,3.108368 1.92939,4.798386 4.76092,3.577053 0.28388,-0.122367 0.28881,-0.0088 0.46065,0.18443 0.38605,0.434141 0.9718,0.161888 1.47019,0.182965 0.43104,0.01815 0.30478,-0.40311 0.34977,-0.638184 0.56166,-2.933014 1.11229,-5.86837 1.64493,-8.806946 0.0505,-0.278401 0.47081,-0.709907 -0.17329,-0.846619 z m -4.89618,8.890378 c -1.07921,-0.03484 -1.82287,-0.90224 -1.79732,-2.096641 0.0308,-1.447917 1.0702,-2.617727 2.30383,-2.591966 1.14422,0.02401 1.90529,0.866526 1.89107,2.093714 -0.0165,1.427425 -1.1329,2.635585 -2.39758,2.594893 z"
             id="Fill-26"
             fill="#020202" />
          <path
             d="m 104.06247,49.224222 c -0.46123,-0.0685 -0.9361,-0.07436 -1.40401,-0.0565 -0.40811,0.01552 -0.31668,0.385253 -0.36718,0.640234 -0.21277,1.070276 -0.42147,2.141431 -0.65223,3.317974 -0.53438,-0.639649 -1.0377,-1.051248 -1.717495,-1.213136 -2.426031,-0.578465 -4.631171,1.387026 -4.616368,4.131219 0.0073,1.341944 0.433365,2.487163 1.658862,3.162234 1.186021,0.653407 2.339823,0.519915 3.427151,-0.34866 0.13178,1.023437 0.88647,0.490934 1.3715,0.606861 0.54048,0.129101 0.53641,-0.294794 0.60346,-0.650772 0.57386,-3.045136 1.15352,-6.0891 1.7294,-9.13365 0.0302,-0.15896 0.10856,-0.434726 -0.0331,-0.455804 z m -5.061344,8.832415 c -1.094878,0.0067 -1.850727,-0.815296 -1.862337,-2.02609 -0.01393,-1.445575 0.981094,-2.642025 2.218782,-2.668079 1.134939,-0.02401 1.966539,0.824956 1.976699,2.017307 0.0125,1.42157 -1.07485,2.668957 -2.333144,2.676862 z"
             id="Fill-27"
             fill="#020202" />
          <path
             d="m 33.302928,51.849853 c -1.247848,-0.08695 -1.247848,-0.08373 -1.027827,-1.366241 0.01916,-0.110365 0.007,-0.232147 0.04906,-0.331095 0.349768,-0.819101 -0.177933,-0.758503 -0.706504,-0.752062 -0.320743,0.0038 -0.336127,0.194968 -0.376183,0.425944 -0.09056,0.523135 -0.210442,1.041294 -0.29636,1.565016 -0.03977,0.2421 -0.09027,0.452583 -0.380537,0.447607 -0.662674,-0.01112 -1.435649,0.164523 -1.948837,-0.124124 -0.347156,-0.195261 0.0865,-1.002067 0.149777,-1.538083 0.0032,-0.02781 2.9e-4,-0.05767 0.0096,-0.08314 0.221472,-0.605104 -0.02786,-0.720446 -0.601718,-0.705223 -0.57037,0.01522 -0.503029,0.394913 -0.563113,0.732448 -0.280686,1.576726 -0.279525,1.577019 -1.752618,1.725733 -0.05515,0.0056 -0.114945,-0.0079 -0.166031,0.0082 -0.462102,0.147251 -0.329741,0.58227 -0.400565,0.901948 -0.0685,0.308261 0.205217,0.249126 0.387212,0.267569 1.332605,0.133492 1.332896,0.133785 1.092266,1.52286 -0.02874,0.165109 -0.09434,0.329046 -0.09259,0.493276 0.0067,0.648723 -0.298973,0.893166 -0.923622,0.787192 -0.841477,-0.142567 -1.327961,0.135248 -1.197051,1.151074 h 1.751166 c -0.117848,0.619156 -0.261819,1.163369 -0.308261,1.715779 -0.0209,0.24737 -0.411595,0.697905 0.217698,0.770798 0.458038,0.05269 0.808097,0.05269 0.919559,-0.611837 0.323935,-1.929776 0.363991,-1.923336 2.332566,-1.876204 0.109139,0.0026 0.217989,0.02137 0.386342,0.03864 -0.100722,0.594859 -0.215086,1.166297 -0.286491,1.743298 -0.02961,0.240344 -0.388374,0.631158 0.167773,0.698783 0.409853,0.05006 0.923041,0.172719 0.951197,-0.54275 0.01103,-0.276644 0.134102,-0.550068 0.136424,-0.825834 0.0084,-0.916292 0.418272,-1.282809 1.331444,-1.12824 0.251369,0.04245 0.606363,0.171842 0.750914,-0.286012 0.215087,-0.680632 0.101013,-0.904583 -0.659771,-0.833153 -0.812741,0.07641 -1.130581,-0.137004 -0.807226,-0.965181 0.0099,-0.02547 0.0078,-0.05533 0.01335,-0.08285 0.105657,-0.520209 0.09027,-1.11536 0.348898,-1.541011 0.307391,-0.505278 0.949746,-0.168621 1.441164,-0.22073 0.622908,-0.06616 0.389245,-0.589296 0.490547,-0.90224 0.12075,-0.374129 -0.242661,-0.266984 -0.431623,-0.280158 z m -2.880586,2.329081 c -0.323065,1.788088 -0.430172,1.851613 -2.305281,1.658694 -0.366605,-0.03747 -0.401146,-0.176525 -0.343093,-0.46927 0.07576,-0.384082 0.133522,-0.771384 0.206668,-1.156051 0.226407,-1.188838 0.227858,-1.188545 1.44784,-1.189131 1.202856,-5.85e-4 1.202856,-5.85e-4 0.993866,1.155758 z"
             id="Fill-28"
             fill="#020202" />
          <path
             d="m 122.70123,51.790426 c -2.1677,0.0076 -4.01,1.873276 -4.02481,4.075013 -0.0145,2.151091 1.66844,3.813006 3.82017,3.772607 2.20427,-0.04128 3.97634,-1.879424 3.96153,-4.109264 -0.0142,-2.147579 -1.62054,-3.745967 -3.75689,-3.738356 z m -0.30768,6.266211 c -1.13,-0.01581 -1.91313,-0.864477 -1.92474,-2.086395 -0.0131,-1.374146 0.99618,-2.556544 2.2092,-2.587575 1.17267,-0.03015 1.99267,0.822907 2.0005,2.081126 0.009,1.43006 -1.03102,2.610408 -2.28496,2.592844 z"
             id="Fill-29"
             fill="#020202" />
          <path
             d="m 60.074902,52.064728 c -1.062949,-0.298892 -2.134025,-0.194968 -3.206843,0.02576 -0.65774,0.135248 -0.86644,0.387302 -0.611878,1.07496 0.172417,0.465465 0.238308,0.730399 0.823191,0.474833 0.584302,-0.255274 1.242332,-0.262007 1.883527,-0.187357 0.432784,0.05035 0.80171,0.225414 1.030729,0.617692 0.178513,0.306212 0.227858,0.68034 0.05921,0.958155 -0.155582,0.256738 -0.447007,-0.0094 -0.675155,-0.04947 -1.188924,-0.208727 -2.368559,-0.32524 -3.482305,0.305333 -0.862956,0.488885 -1.257136,1.354825 -1.113455,2.419832 0.123073,0.911316 0.770363,1.599852 1.714303,1.814435 1.011572,0.229805 1.912554,-0.01844 2.827177,-0.772262 0.0023,0.391986 -0.150647,0.830811 0.367185,0.712542 0.458037,-0.104803 1.19618,0.40311 1.344215,-0.359491 0.301876,-1.55799 0.75672,-3.098415 0.776168,-4.701781 0.01509,-1.229529 -0.555567,-2.001206 -1.736073,-2.333179 z m -0.807226,5.529957 c -0.458908,0.488591 -1.027536,0.758502 -1.698918,0.685023 -0.527701,-0.05767 -0.952358,-0.308553 -1.027537,-0.906631 -0.07228,-0.574367 0.206378,-0.969865 0.708826,-1.186789 0.326258,-0.140811 0.678349,-0.233611 1.047565,-0.202287 0.163129,0.02196 0.336127,0.01669 0.487355,0.07202 0.343382,0.125295 0.894885,-0.09368 1.006927,0.367688 0.106237,0.436483 -0.215956,0.842521 -0.524218,1.170981 z"
             id="Fill-30"
             fill="#020202" />
          <path
             d="m 76.233932,52.130303 c -1.274552,-0.420967 -2.574647,-0.333436 -3.835846,0.110658 -0.73437,0.258494 -0.127136,0.730692 -0.115816,1.102478 0.01277,0.429165 0.220892,0.48625 0.607524,0.331681 0.654837,-0.261715 1.352923,-0.310018 2.047526,-0.21429 0.554406,0.0767 1.009541,0.323484 1.122454,0.94908 0.09027,0.500009 0.08098,0.796852 -0.617683,0.616814 -1.165413,-0.300356 -2.362464,-0.386424 -3.493045,0.192041 -0.952648,0.487421 -1.380498,1.405177 -1.214176,2.527269 0.139907,0.942932 0.816514,1.600438 1.828376,1.798041 0.989512,0.193504 1.847535,-0.105096 2.741259,-0.810026 -0.13236,0.591931 0.02322,0.862427 0.541634,0.735669 0.432204,-0.105682 1.067883,0.337535 1.198793,-0.558558 0.193606,-1.326136 0.511446,-2.633536 0.714921,-3.9585 0.213055,-1.385563 -0.339609,-2.430664 -1.525921,-2.822357 z m -0.907947,5.331475 c -0.474293,0.562949 -1.068464,0.891995 -1.813864,0.81471 -0.533216,-0.05533 -0.961066,-0.31353 -1.038566,-0.905168 -0.07518,-0.573488 0.219149,-0.963131 0.723049,-1.183569 0.330321,-0.144616 0.683863,-0.223364 1.052789,-0.203165 0.191285,0.02723 0.390406,0.02927 0.572402,0.08665 0.324226,0.101582 0.834221,-0.07289 0.934362,0.343097 0.08679,0.361248 -0.174159,0.743573 -0.430172,1.047442 z"
             id="Fill-31"
             fill="#020202" />
          <path
             d="m 92.633882,51.966073 c -1.644349,-0.536309 -3.524973,0.175647 -4.490974,1.700264 -0.963098,1.519933 -0.900691,3.580274 0.145132,4.783163 1.07398,1.235385 3.139502,1.553892 4.751922,0.732449 0.959615,-0.488885 0.958454,-0.580806 0.300714,-1.391125 -0.293747,-0.361833 -0.475163,-0.274595 -0.808096,-0.07582 -1.29458,0.773725 -2.739227,0.437654 -3.20336,-0.704345 -0.180255,-0.443509 -0.197961,-0.73479 0.441202,-0.69 0.689959,0.0483 1.386303,0.01083 2.079746,0.01083 0.721307,-2.93e-4 1.442615,-0.005 2.163632,0.0023 0.26327,0.0026 0.466455,-0.01727 0.582851,-0.327289 0.563694,-1.498562 -0.41682,-3.536362 -1.962769,-4.040469 z m 0.31842,3.000053 c -0.134102,0.34017 -0.538441,0.141981 -0.815933,0.149593 -0.912302,0.02547 -1.825765,0.0097 -2.848657,0.0097 0.323935,-1.021095 0.911721,-1.622979 1.86495,-1.805359 0.605782,-0.115927 1.159897,0.02693 1.558721,0.546555 0.249337,0.325532 0.38431,0.735961 0.240919,1.099551 z"
             id="Fill-32"
             fill="#020202" />
          <path
             d="m 182.47077,53.402281 c -1.00605,-1.617124 -2.37755,-1.749445 -5.24711,-0.396084 0.80519,-1.161906 -0.0554,-0.848961 -0.53815,-0.877065 -0.50332,-0.02898 -0.38025,0.420382 -0.42785,0.664239 -0.5367,2.739217 -1.05453,5.482239 -1.54508,8.230238 -0.0337,0.187649 -0.40463,0.66541 0.22699,0.653114 0.36776,-0.007 0.83364,0.207264 0.92217,-0.492104 0.1251,-0.989772 0.35906,-1.965491 0.57066,-3.073825 1.79006,1.786917 3.4794,1.991546 5.07876,0.693221 1.5236,-1.237141 1.9738,-3.771143 0.95961,-5.401734 z m -3.36387,5.169002 c -1.31751,0.0073 -2.33286,-1.034269 -2.3465,-2.407537 -0.0165,-1.633518 1.33057,-3.125933 2.83414,-3.139692 1.26701,-0.01171 2.20108,1.006458 2.21995,2.420125 0.0232,1.69558 -1.20925,3.118614 -2.70759,3.127104 z"
             id="Fill-33"
             fill="#020202" />
          <path
             d="m 18.071293,52.089612 c -2.181628,-0.574952 -4.305204,0.882041 -4.768176,3.271134 -0.302456,1.561503 0.313195,3.076166 1.538692,3.784903 1.274552,0.737425 3.240514,0.581391 4.320589,-0.321727 0.260077,-0.217217 0.335255,-0.361833 0.09201,-0.669509 -0.282138,-0.356563 -0.456006,-0.380568 -0.854249,-0.115634 -1.586586,1.057103 -3.42309,0.520208 -3.891868,-1.076424 -0.146874,-0.500301 -0.125394,-0.795096 0.525379,-0.753526 0.718986,0.04596 1.443196,0.01054 2.165084,0.01025 0.777619,0 1.555237,0.0018 2.332856,-8.78e-4 0.246725,-8.78e-4 0.466456,0.01991 0.576756,-0.323776 0.488806,-1.524032 -0.500997,-3.399943 -2.037077,-3.804809 z m 0.461521,3.210243 c -1.301837,-0.01786 -2.604254,-0.0064 -4.010586,-0.0064 0.322484,-1.162198 0.916946,-1.899624 1.965962,-2.214032 1.299224,-0.389644 2.326761,0.290403 2.543879,1.627663 0.07547,0.464294 -0.05283,0.598957 -0.499255,0.592809 z"
             id="Fill-34"
             fill="#020202" />
          <path
             d="m 189.11551,52.392018 c -1.26033,-0.575245 -2.5372,-0.417455 -3.81466,-0.05035 -0.40085,0.115049 -0.30768,0.380276 -0.21624,0.657506 0.0885,0.26874 0.12597,0.49913 0.54424,0.338706 0.70564,-0.270789 1.46323,-0.337828 2.21327,-0.216631 0.66355,0.107144 1.21069,0.400182 1.37034,1.14639 0.17445,0.817052 0.0145,0.983331 -0.78255,0.826712 -1.20721,-0.237416 -2.4182,-0.385838 -3.57577,0.196432 -0.93262,0.468978 -1.34567,1.302716 -1.21418,2.351037 0.12365,0.984502 0.73582,1.63381 1.74768,1.871227 1.16977,0.274595 2.16915,-0.08753 3.03617,-0.827884 0.2952,0.208435 -0.3129,0.761723 0.32394,0.76992 0.2801,0.0035 0.73233,0.243271 0.8229,-0.278108 0.28504,-1.647277 0.80142,-3.262352 0.78545,-4.951784 -0.008,-0.848083 -0.46645,-1.479827 -1.24059,-1.83317 z m -0.14919,4.184792 c -0.23686,1.156636 -1.39357,2.084345 -2.59874,2.079954 -0.89141,-0.0032 -1.47019,-0.443216 -1.55902,-1.185032 -0.0882,-0.738889 0.35471,-1.360973 1.18603,-1.579068 0.91085,-0.238587 1.81792,-0.05328 2.72036,0.106559 0.37241,0.06616 0.30419,0.320264 0.25137,0.577587 z"
             id="Fill-35"
             fill="#020202" />
          <path
             d="m 158.51959,51.958462 c -2.17147,0.02166 -3.8849,1.816484 -3.882,4.06623 0.003,2.096348 1.48761,3.612183 3.54065,3.613647 2.15841,0.0018 3.98185,-1.895525 3.96356,-4.123609 -0.0168,-2.053607 -1.5683,-3.577053 -3.62221,-3.556268 z m -0.40695,6.604624 c -1.38717,-0.02108 -2.31515,-1.034562 -2.30673,-2.519365 0.01,-1.674795 1.29109,-3.051869 2.80947,-3.018496 1.39008,0.03015 2.35985,1.065885 2.34969,2.509119 -0.0113,1.616539 -1.36279,3.051576 -2.85243,3.028742 z"
             id="Fill-36"
             fill="#020202" />
          <path
             d="m 207.0916,36.803337 c -0.0415,0.09924 -0.0665,0.348953 -0.19883,0.440874 -0.51929,0.359784 -0.60724,0.771677 -0.28156,1.302424 0.0755,0.122953 0.10014,0.280157 -0.0842,0.333436 -0.13468,0.03864 -0.27633,0.01112 -0.34135,-0.151934 -0.0311,-0.07728 -0.0583,-0.157497 -0.0993,-0.229805 -0.14774,-0.259665 -0.0267,-0.764943 -0.52393,-0.706102 -0.40375,0.04801 -0.30797,0.457854 -0.36776,0.734791 -0.0369,0.170377 -0.0665,0.370322 -0.27372,0.338706 -0.33003,-0.05035 -0.14107,-0.299186 -0.11349,-0.460781 0.11262,-0.658969 0.31029,-1.311206 0.34686,-1.973102 0.0473,-0.855695 0.62842,-0.621791 1.07166,-0.600128 0.51377,0.02518 0.9094,0.259372 0.86557,0.971621 z m -1.57933,0.04508 c -0.0369,0.244735 -0.13004,0.485079 0.24208,0.479224 0.44178,-0.0073 0.84989,-0.09895 0.91723,-0.613594 0.0476,-0.364761 -0.26239,-0.407501 -0.54889,-0.45112 -0.49896,-0.07641 -0.62552,0.194675 -0.61042,0.58549 z"
             id="Fill-37"
             fill="#020202" />
        </g>
      </g>
    </g>
  </g>
  <metadata
     id="metadata6349">
    <rdf:RDF>
      <cc:Work
         rdf:about="">
        <dc:title>Imported Layers</dc:title>
      </cc:Work>
    </rdf:RDF>
  </metadata>
</svg>
