<?xml version="1.0" encoding="UTF-8" standalone="no"?>
<svg width="209px" height="63px" viewBox="0 0 209 63" version="1.1" xmlns="http://www.w3.org/2000/svg" xmlns:xlink="http://www.w3.org/1999/xlink" xmlns:sketch="http://www.bohemiancoding.com/sketch/ns">
    <!-- Generator: Sketch 3.3.3 (12072) - http://www.bohemiancoding.com/sketch -->
    <title>Imported Layers</title>
    <desc>Created with Sketch.</desc>
    <defs></defs>
    <g id="Page-1" stroke="none" stroke-width="1" fill="none" fill-rule="evenodd" sketch:type="MSPage">
        <g id="About---Desktop" sketch:type="MSArtboardGroup" transform="translate(-768.000000, -934.000000)">
            <g id="Imported-Layers-+-Imported-Layers-+-Imported-Layers" sketch:type="MSLayerGroup" transform="translate(225.000000, 929.000000)">
                <g id="Imported-Layers" transform="translate(543.590020, 5.615385)" sketch:type="MSShapeGroup">
                    <path d="M23.2362614,3.11510135 C24.023459,2.257358 24.813269,1.40224936 25.5958223,0.539822093 C25.7586608,0.360369304 25.9406567,0.306796938 26.1789639,0.295965366 C34.5275542,-0.0834323733 41.7493373,4.78287058 43.3687235,13.4132909 C44.273188,18.2342184 43.3893323,22.8417346 41.1583586,27.1527 C37.4542921,34.3094411 31.783683,39.1066562 24.0031405,41.2161779 C20.737954,42.1014393 17.4327111,42.1667215 14.1210823,41.3666489 C13.418642,41.1968567 13.0761298,40.9664663 13.0854182,40.1277514 C13.1283774,36.1868159 13.673204,32.3755665 15.6385856,28.8895571 C16.2046016,27.8854411 16.9096543,26.983786 17.838501,26.285296 C19.6813909,24.8991476 21.7300784,24.9553547 23.471666,26.4752876 C25.380446,28.1415931 26.2625601,30.4001221 26.9191386,32.7666741 C27.3226064,34.2201538 27.5214376,35.7149107 27.6430585,37.3428666 C28.4470914,36.8416868 29.1895883,36.3721236 29.9393417,35.9145629 C30.3413582,35.6692424 30.0998581,35.3949402 29.9950725,35.1250292 C28.7777028,31.9914849 28.0839704,28.7695315 28.2610318,25.377786 C28.4659586,21.4494386 29.6897142,17.8226187 31.3715072,14.3228502 C32.6684095,11.6240324 34.224518,9.07949143 35.9423038,6.63711848 C36.2647878,6.1783868 36.1910606,5.98341852 35.7652424,5.69038061 C33.4770866,4.11570434 30.9169529,3.38852534 28.1931099,3.16457528 C26.5655963,3.03079074 24.938373,3.08524134 23.2362614,3.11510135" id="Fill-1" fill="#020202"></path>
                    <path d="M113.798235,38.470521 C113.49723,38.8247426 114.091112,39.0293715 113.861803,39.4556085 C111.962601,39.4556085 109.979804,39.4594141 107.997007,39.452681 C107.58367,39.4512173 107.575252,39.058646 107.458566,38.7995665 C106.072843,35.7263277 104.696988,32.6486978 103.317941,29.5728243 C103.25118,29.423817 103.178324,29.2777371 103.027386,28.9604014 C102.543225,31.5219216 102.091864,33.9104295 101.640212,36.2989373 C101.474181,37.1771728 101.288411,38.0524809 101.151987,38.935693 C101.094514,39.3063084 100.974635,39.4693675 100.578714,39.4649763 C98.968036,39.4477043 97.356487,39.4359945 95.7463893,39.468782 C95.090101,39.4819555 95.2758704,39.0808946 95.3359552,38.757704 C95.9431887,35.4871549 96.560001,32.2186551 97.1785548,28.950448 C98.1608102,23.7618327 99.1569983,18.5755592 100.115742,13.3828454 C100.216754,12.8365829 100.37698,12.6316613 100.948511,12.648055 C102.391707,12.6893321 103.837515,12.694016 105.28042,12.6471768 C105.918422,12.6263919 106.098676,12.7794976 105.970669,13.4367105 C105.149221,17.6610233 104.35825,21.891191 103.55799,26.1196023 C103.418953,26.8543926 103.284271,27.5897685 103.109241,28.5315297 C104.911784,26.4410365 106.581096,24.5036489 108.251569,22.5674324 C109.088401,21.5975676 109.756591,20.2573802 110.812863,19.7655684 C111.870297,19.273171 113.316105,19.6253434 114.591528,19.6142191 C115.411525,19.6071932 116.231813,19.6130481 117.213198,19.6130481 C115.246945,21.8513777 113.397089,23.9576792 111.546943,26.0636879 C111.289478,26.3567258 111.069457,26.7001159 110.76555,26.9310919 C109.257916,28.077482 109.20712,29.2988148 110.123195,30.9566307 C111.358851,33.1926183 112.29031,35.5986908 113.371546,37.9227948 C113.467914,38.1303511 113.422632,38.5033084 113.817973,38.4904276 L113.798235,38.470521" id="Fill-2" fill="#020202"></path>
                    <path d="M113.817973,38.4904276 C114.085306,36.9813263 114.35293,35.4719322 114.638261,33.8621265 C115.981315,34.5453937 117.29215,35.0986821 118.703126,35.3583471 C119.550408,35.5143802 120.395949,35.6601673 121.256293,35.4567094 C121.978181,35.286039 122.552034,34.923035 122.741868,34.1577991 C122.915736,33.4569672 122.597606,32.9089482 122.103866,32.4428979 C121.631896,31.9976325 121.060074,31.7101568 120.500444,31.4013106 C119.99074,31.1199825 119.476971,30.8436311 118.984973,30.5324429 C114.467585,27.6746646 116.178985,22.6131006 119.025029,20.7851998 C121.086489,19.4611134 123.349682,19.1382155 125.716789,19.2359923 C126.884524,19.2840026 128.024103,19.5047324 129.144234,19.8571976 C129.756692,20.0498239 129.963651,20.3577918 129.815906,21.0068079 C129.543057,22.2035501 129.336389,23.4155151 129.089083,24.6901276 C127.808146,24.0905855 126.493828,23.6909883 125.100267,23.6066777 C124.40102,23.5645224 123.705546,23.5935042 123.06319,23.8964954 C122.014755,24.390942 121.838274,25.4503868 122.640565,26.2885162 C123.191778,26.864346 123.895379,27.2010029 124.588821,27.5522971 C125.659897,28.0947539 126.687144,28.7074696 127.51614,29.5933164 C129.711701,31.9390835 129.221444,35.9145629 126.470897,38.0094473 C124.418146,39.5727065 122.026656,39.9289774 119.542281,39.8868221 C117.524361,39.8528637 115.616452,39.3405596 113.798235,38.470521 L113.817973,38.4904276" id="Fill-3" fill="#020202"></path>
                    <path d="M184.431222,33.8946212 C184.118897,35.5360434 183.822537,37.0656369 183.540399,38.5978651 C183.489603,38.8742166 183.30006,38.9459391 183.085845,39.0197109 C180.175072,40.0211921 177.225983,40.3405771 174.285893,39.2416117 C171.231149,38.1001983 169.45589,35.1115629 169.589122,31.5713956 C169.819882,25.4424827 173.512919,20.9125439 179.430253,19.5700146 C181.488229,19.103086 183.559847,19.1569511 185.623919,19.6446646 C186.282819,19.800405 186.530125,20.0574353 186.352483,20.7740755 C186.077022,21.8844579 185.873837,23.0156252 185.696485,24.1467926 C185.618113,24.6453376 185.512457,24.7545315 185.023652,24.5279468 C183.802799,23.9623631 182.496608,23.8549256 181.192159,24.1058082 C177.571398,24.8025417 175.064383,28.712739 175.868416,32.3500977 C176.223119,33.9540485 177.514506,35.0339854 179.199202,35.1326405 C180.815976,35.22749 182.333479,34.8419446 183.792059,34.168338 C183.960412,34.0904677 184.13283,34.0219654 184.431222,33.8946212" id="Fill-4" fill="#020202"></path>
                    <path d="M94.5728495,33.8916938 C94.2576222,35.5372144 93.9650355,37.0398753 93.6855107,38.545171 C93.6379073,38.8019085 93.503805,38.921934 93.268981,39.0018534 C90.1599569,40.0601272 87.0219063,40.4248877 83.9398769,39.0220529 C81.3286566,37.8335075 80.0021474,35.6185975 79.8070896,32.7921429 C79.2550063,24.8031272 85.1581174,18.9385633 93.3322587,19.2834171 C94.2796823,19.3232304 95.2001113,19.501805 96.1121227,19.7641046 C96.5263303,19.8832519 96.6131194,20.047482 96.5208152,20.4760609 C96.2499984,21.7319377 96.0206893,22.9977678 95.8131502,24.2659398 C95.73623,24.7375523 95.5809385,24.6874929 95.2125927,24.5446332 C89.475513,22.3177207 85.3610123,27.2586737 85.9522813,31.95577 C86.1859443,33.8117743 87.4941668,35.0278378 89.3547629,35.1323478 C90.2476168,35.1824072 91.1262477,35.0858013 91.9952999,34.8691699 C92.8315522,34.6610281 93.6129445,34.3062209 94.5728495,33.8916938" id="Fill-5" fill="#020202"></path>
                    <path d="M55.4016423,22.7641571 C56.086957,22.1087007 56.6126262,21.3607368 57.3112931,20.7644149 C58.5910697,19.6715972 60.0470369,19.0954747 61.7395698,19.1669045 C62.2629169,19.1888604 62.5267674,19.2787331 62.3624776,19.9529253 C61.9990663,21.4450474 61.7320229,22.9620529 61.464399,24.4761309 C61.3932841,24.879241 61.3056242,25.0487404 60.8470062,25.0106836 C58.3460864,24.8028345 56.6991251,26.0631024 55.5723179,28.195751 C54.6158961,30.0063799 54.3270828,32.0034874 53.9564149,33.9786391 C53.6371239,35.681245 53.2911285,37.3794597 53.0194408,39.0899697 C52.9361349,39.6128126 52.7259833,39.6991724 52.268236,39.6918538 C50.7690194,39.6669705 49.2686417,39.6549679 47.7700056,39.6959522 C47.1621915,39.712346 47.0283795,39.5484087 47.1450659,38.9474028 C48.0001854,34.5319275 48.8251174,30.1108899 49.66166,25.6919016 C50.0096872,23.8519982 50.3701958,22.0147295 50.7083541,20.1730696 C50.7756955,19.8065527 50.8517448,19.587872 51.3129752,19.6001673 C52.70044,19.636175 54.0896464,19.6268071 55.4779819,19.6048513 C55.9035098,19.5978254 56.0007485,19.724584 55.9098956,20.1367692 C55.718321,21.0076861 55.5685445,21.8876781 55.4016423,22.7641571" id="Fill-6" fill="#020202"></path>
                    <path d="M41.9397509,59.4705957 C42.3957566,57.0457875 42.8099642,54.7067536 43.2871592,52.3811859 C43.4610277,51.5339814 44.1974289,52.0940029 44.6621426,51.9684152 C45.1094403,51.8475115 45.1674932,52.1499172 44.9878194,52.6446566 C45.6278529,52.2298367 46.1102726,51.8478042 46.7320194,51.8106256 C47.4901905,51.7649573 48.2338484,51.9262599 48.6515392,52.5814236 C49.0555875,53.2146314 49.2715443,53.0173212 49.6535325,52.6068925 C50.2169361,52.0012027 50.9777196,51.7874987 51.7736252,51.799794 C53.2002756,51.8217499 54.2548069,52.9461841 54.0858729,54.404055 C53.902716,55.9840007 53.6272549,57.5633609 53.2409127,59.1043715 C53.0478867,59.874584 52.237468,59.4202435 51.7289244,59.4360518 C51.2081897,59.4521528 51.5269002,58.9902009 51.5689886,58.7472224 C51.7637562,57.6181043 51.9872599,56.4942556 52.1953796,55.3671867 C52.3857932,54.3355527 52.1196206,53.7055651 51.4116652,53.4921538 C50.6810692,53.2720095 49.8239179,53.7143474 49.4825667,54.5761892 C49.0793892,55.5949424 49.0323663,56.7044466 48.7882538,57.7656478 C48.7005939,58.1462166 48.6434118,58.5343966 48.5824562,58.9208203 C48.5238227,59.2920211 48.3905913,59.4820128 47.9447449,59.4858184 C46.6826744,59.4969428 46.6870284,59.52651 46.9230135,58.2504338 C47.1212642,57.1778155 47.3253202,56.1060755 47.493964,55.0284805 C47.5909123,54.408739 47.4768383,53.8299818 46.8234527,53.557436 C46.1491681,53.2758152 45.5729929,53.5018144 45.0984102,54.0164604 C44.7048115,54.4429902 44.5640331,54.9869107 44.4615697,55.5416628 C44.2691243,56.5861775 44.0508453,57.6271794 43.8999077,58.6778418 C43.8145699,59.2721145 43.6119653,59.5879865 42.9606115,59.4790853 C42.6657027,59.4296114 42.3557001,59.4705957 41.9397509,59.4705957" id="Fill-7" fill="#020202"></path>
                    <path d="M165.019196,52.8770962 C166.904465,51.4918261 168.159859,51.6461028 169.275056,53.4502913 C169.848909,52.6288483 170.598662,52.1083474 171.587884,51.9739774 C173.249068,51.7479781 174.576738,52.9725312 174.370651,54.6517175 C174.190687,56.1198345 173.875169,57.5703868 173.634249,59.0311852 C173.523078,59.7047918 173.00931,59.4782071 172.656348,59.4492253 C172.143741,59.4067773 172.477835,59.0092293 172.510345,58.8037222 C172.716433,57.5083248 172.992474,56.223759 173.179695,54.9260197 C173.285932,54.1897656 173.077812,53.5009362 172.332413,53.1765746 C171.599495,52.8574823 170.921436,53.0621112 170.338585,53.5902235 C169.755444,54.1189213 169.475048,54.8045304 169.338624,55.5674244 C169.146759,56.6394572 168.894809,57.7032931 168.76448,58.7826445 C168.685238,59.4404429 168.357529,59.5648596 167.83128,59.464448 C167.210113,59.346179 167.581652,58.924626 167.630126,58.6353937 C167.823733,57.4787576 168.045495,56.3268053 168.251583,55.1719256 C168.396425,54.3630707 168.243455,53.6540419 167.486445,53.2166806 C166.839155,52.8425523 166.012191,53.040448 165.359677,53.6467233 C164.70513,54.254755 164.500493,55.057755 164.350427,55.8912005 C164.172494,56.8803864 163.967277,57.8657667 163.825338,58.8605148 C163.746676,59.4138031 163.458153,59.5083598 162.979217,59.4808418 C162.59955,59.4591786 162.531048,59.3655002 162.608839,58.9758564 C163.018983,56.922249 163.416936,54.8654214 163.756835,52.799226 C163.852623,52.2160777 164.081932,52.1007361 164.614858,52.1101039 C165.306268,52.1218137 164.840103,52.651097 165.019196,52.8770962" id="Fill-8" fill="#020202"></path>
                    <path d="M65.4813707,52.7810758 C66.3129788,52.0811221 66.9591077,51.7696413 67.7085709,51.7992085 C69.2208495,51.8592213 70.2115225,53.0009275 70.0164647,54.5671141 C69.8306954,56.0615782 69.5749723,57.5528221 69.241168,59.0203536 C69.037112,59.9173248 68.2211782,59.4067773 67.7036364,59.4322461 C67.2290538,59.4553729 67.4827451,58.9726362 67.5242529,58.72351 C67.7225036,57.5399413 67.9625525,56.3636912 68.1648669,55.1810007 C68.2792311,54.5126635 68.241787,53.8826759 67.4972583,53.5618272 C66.8389382,53.2781571 66.0549335,53.510304 65.5704819,54.1303383 C65.1768831,54.6341528 65.0808055,55.2445264 64.9690537,55.846996 C64.7803817,56.862529 64.6041911,57.8804039 64.418712,58.8968152 C64.2271374,59.9439646 63.4071399,59.4138031 62.8890176,59.43693 C62.226924,59.4662045 62.6274892,58.8722246 62.6681262,58.632759 C63.0115092,56.5964236 63.4399398,54.5747255 63.7804202,52.5378046 C63.9386144,51.5925304 64.6088353,52.0574098 65.0706463,51.9666588 C65.4924007,51.8841046 65.8189484,51.9842235 65.4813707,52.7810758" id="Fill-9" fill="#020202"></path>
                    <path d="M131.740941,58.7486861 C131.168249,59.1193015 130.802806,59.4102902 130.329674,59.5224116 C128.596504,59.9337186 127.170144,58.7937689 127.277542,57.0068524 C127.371298,55.4430077 127.75764,53.9180981 128.082446,52.392603 C128.277794,51.4751396 129.105628,52.0345756 129.619107,51.9979825 C130.092528,51.9643168 129.82084,52.4757426 129.782816,52.7099388 C129.590951,53.894093 129.329132,55.0665374 129.136106,56.2503988 C129.022323,56.9465468 129.086761,57.6063945 129.904727,57.8859661 C130.5883,58.1195767 131.331377,57.8546424 131.792318,57.1965512 C132.27764,56.5039162 132.286638,55.6672505 132.460507,54.8832789 C132.635246,54.0931597 132.76035,53.2919162 132.916222,52.4974058 C133.121729,51.4514273 133.935341,52.0334047 134.447368,51.9935913 C135.083918,51.9441174 134.669711,52.5050171 134.632847,52.7210631 C134.276112,54.8124346 133.871483,56.8953164 133.481658,58.980833 C133.307499,59.9114699 132.591416,59.33242 132.13483,59.4594714 C131.643412,59.5961834 131.578102,59.270358 131.740941,58.7486861" id="Fill-10" fill="#020202"></path>
                    <path d="M107.502976,56.2544973 C107.510813,54.1865454 108.532545,52.6850554 110.10752,52.0852206 C111.658694,51.4944608 113.262406,51.8352162 114.296039,53.0012202 C114.478615,53.2070201 114.968001,53.5035709 114.408661,53.7512333 C114.008967,53.9280514 113.798525,54.8756675 113.099568,54.1274109 C112.172173,53.1350047 110.931001,53.135883 110.042211,54.0802789 C109.101754,55.0794182 109.033832,56.7574335 109.901142,57.574778 C110.583845,58.2185246 111.606157,58.2703405 112.48798,57.5750707 C113.308268,56.9283966 113.372997,57.8461528 113.700996,58.1184058 C114.204315,58.5361531 113.631333,58.7229245 113.402604,58.8897893 C112.139663,59.8113511 110.780354,59.8710711 109.404209,59.1916096 C108.067541,58.5317619 107.547677,57.3525844 107.502976,56.2544973" id="Fill-11" fill="#020202"></path>
                    <path d="M7.47228149,52.8648009 C8.09025481,52.5896205 8.49749604,52.1589923 9.08441105,52.0281353 C10.9380408,51.6153646 12.4776042,52.950868 12.2076581,54.8402454 C12.0065047,56.2486424 11.6770544,57.6383037 11.4584852,59.0449442 C11.3545705,59.7135742 10.8927595,59.4413212 10.5688242,59.4571294 C10.067247,59.48172 10.2739154,59.0917834 10.3148427,58.859051 C10.5270261,57.649428 10.7569157,56.4430252 10.9868052,55.2366223 C11.1400649,54.4333296 11.0248299,53.7225443 10.2805915,53.2588359 C9.61298288,52.8428451 8.64030622,53.0026839 7.97095606,53.5963711 C7.38142867,54.119214 7.08158534,54.7922351 6.94080701,55.5548363 C6.73297756,56.6801487 6.46970758,57.7981425 6.3260266,58.9313591 C6.23227114,59.6722971 5.74085318,59.5036759 5.35625259,59.4501035 C4.85467536,59.3801374 5.14523022,58.979662 5.19109203,58.7325851 C5.74869032,55.7430715 6.3547628,52.7623401 6.8638869,49.7649223 C6.98086353,49.0746292 7.33963057,49.1062457 7.77328588,49.1662585 C8.41448037,49.2549603 8.03249216,49.7093008 7.98895247,49.9926781 C7.84614229,50.9236077 7.65892162,51.8478042 7.47228149,52.8648009" id="Fill-12" fill="#020202"></path>
                    <path d="M202.107174,58.0507816 C202.674061,57.0469584 203.147483,56.2114637 203.618582,55.3745053 C204.05514,54.5981451 204.54859,53.8472537 204.907647,53.0360569 C205.259738,52.2403755 205.763928,51.9312366 206.619628,52.1765571 C206.758374,52.32937 206.576669,52.4575924 206.506134,52.5802526 C205.117799,54.9924728 203.732366,57.407035 202.32226,59.8066672 C201.622723,60.9972618 200.717968,61.8980386 199.181888,61.6796507 C198.911942,61.6413011 198.636481,61.5751407 198.388304,61.4650685 C198.192956,61.3781232 197.815032,61.2999603 198.060305,60.9556919 C198.2304,60.7171046 198.253041,60.1854794 198.817025,60.4788101 C199.543267,60.8561586 200.201297,60.707444 200.778633,60.1117076 C201.173683,59.7039136 201.337973,59.2999253 201.171071,58.7009686 C200.63234,56.7673868 200.148179,54.8185822 199.659373,52.8715341 C199.599288,52.6311903 199.263162,52.2482796 199.759514,52.1499172 C200.174593,52.0676559 200.669204,51.9467521 200.823915,52.6710036 C201.193712,54.4031768 201.640719,56.1189563 202.107174,58.0507816" id="Fill-13" fill="#020202"></path>
                    <path d="M193.81954,52.8905625 C194.299928,52.5653226 194.671466,52.2333496 195.15882,52.0843423 C197.04554,51.5070489 198.733429,52.8621662 198.469578,54.8203387 C198.279745,56.2307849 197.937814,57.6198607 197.719244,59.0273795 C197.606912,59.7507528 197.095756,59.464448 196.763984,59.4448341 C196.29898,59.4176088 196.554122,59.0244521 196.593308,58.7978673 C196.797945,57.6137131 197.021448,56.4330718 197.250177,55.2536015 C197.406049,54.4482596 197.291685,53.7363033 196.555574,53.2673256 C195.914669,52.8586533 194.956506,52.9871684 194.303411,53.5290397 C193.672666,54.0524681 193.351343,54.7471524 193.205049,55.5416628 C192.992286,56.6956642 192.735401,57.8429326 192.568789,59.0033744 C192.466907,59.7150379 191.976359,59.4609351 191.628332,59.4533237 C191.128787,59.4427849 191.388864,59.0563613 191.429501,58.8324112 C191.796686,56.7972468 192.197831,54.7685228 192.545859,52.7301382 C192.640485,52.1748006 192.924364,52.1279614 193.391109,52.1092257 C194.009082,52.0846351 193.722301,52.5240456 193.81954,52.8905625" id="Fill-14" fill="#020202"></path>
                    <path d="M115.49367,59.5156785 C114.925913,59.6693697 114.888178,59.2609902 115.014734,58.6105104 C115.585394,55.6801312 116.122674,52.7433117 116.691302,49.8123471 C116.736583,49.5784437 116.652116,49.180603 117.058777,49.166844 C117.525232,49.1510357 117.999815,49.1601108 118.458723,49.2356391 C118.61953,49.2619861 118.515905,49.5371666 118.487459,49.6911506 C117.913606,52.7907364 117.32495,55.8873948 116.761836,58.9887371 C116.63412,59.6927893 116.123254,59.4099974 115.49367,59.5156785" id="Fill-15" fill="#020202"></path>
                    <path d="M148.57977,56.089389 C148.562064,57.0671579 148.931861,57.8464455 149.806429,58.2999078 C150.70712,58.7671291 151.619131,58.6596916 152.368885,58.0051134 C152.845209,57.5891225 153.105576,57.7027076 153.405129,58.1266026 C153.776378,58.6517875 153.211523,58.7498571 152.990341,58.9173073 C151.488512,60.0534513 149.269439,59.7806128 148.119701,58.3531874 C146.930777,56.8768735 147.182146,54.3932235 148.659593,53.0176139 C150.275496,51.5134892 152.817924,51.6294163 154.058805,53.269082 C154.210904,53.470198 154.519455,53.7011739 154.081736,53.9178053 C153.809177,54.0527608 153.587706,54.5065159 153.200783,53.9980175 C152.47367,53.0419118 151.50796,52.7793194 150.391022,53.2234138 C149.3034,53.6560911 148.585286,54.8185822 148.57977,56.089389" id="Fill-16" fill="#020202"></path>
                    <path d="M3.59550755,58.3493817 C3.50378394,59.4632771 3.37635778,59.5789114 2.31195751,59.5824244 C1.18747246,59.5859373 0.472260497,59.0572395 0.406370434,58.1380197 C0.333514021,57.11751 0.691120003,56.1526219 0.831027538,55.1593376 C0.889370721,54.7453959 0.997639416,54.3384801 1.07688165,53.9274659 C1.16309024,53.4822005 1.29719248,53.0023912 0.537279767,53.1309063 C0.394179321,53.1549114 0.250208082,53.1028028 0.274009778,52.9122257 C0.307680472,52.6426074 0.338738783,52.1680674 0.533796592,52.1847539 C1.87917299,52.3000955 1.55668903,51.1970317 1.68963021,50.541868 C1.80921923,49.9522793 2.08671218,49.9271032 2.53981521,49.9306161 C2.89190617,49.9332508 2.96650417,50.0684991 2.91744945,50.3861276 C2.83066034,50.949662 2.39671477,51.6581054 2.73922699,52.0266715 C3.00510936,52.3126836 3.78621139,52.1118604 4.33829465,52.1264976 C4.55947627,52.1320598 4.82535864,52.0928319 4.76295175,52.452323 C4.71476783,52.7304309 4.81113568,53.1227094 4.34061677,53.1326628 C3.8968022,53.1420306 3.44921419,53.1692559 3.00917306,53.1273934 C2.51601352,53.0799686 2.32647074,53.2731805 2.25564617,53.757381 C2.11428732,54.7240255 1.97321872,55.697696 1.72533276,56.6397499 C1.32999238,58.1429964 1.63215782,58.8084061 3.59550755,58.3493817" id="Fill-17" fill="#020202"></path>
                    <path d="M35.8401307,59.4527382 C35.169039,59.5715928 35.2720829,59.2115162 35.3475517,58.8157248 C35.8337449,56.2682563 36.2917824,53.7152257 36.7936499,51.1709774 C36.9088849,50.5863653 36.7977136,50.4549227 36.2552091,50.6938028 C36.029093,50.7933361 35.7838194,50.8726701 35.5405776,50.9010664 C35.3603233,50.922144 35.0645437,51.1923478 34.9983634,50.8264163 C34.946406,50.5380623 34.7255147,50.0723048 35.1202745,49.9396912 C36.0064523,49.6419694 36.8615718,49.2174889 37.8182839,49.151914 C38.2249446,49.1238104 38.3619495,49.2549603 38.2809657,49.6782698 C37.6876649,52.7737572 37.0995888,55.8701229 36.5344436,58.9708797 C36.4450421,59.4615206 36.199188,59.5528571 35.8401307,59.4527382" id="Fill-18" fill="#020202"></path>
                    <path d="M208.358313,37.1534604 C208.358313,38.6959347 207.163003,39.939809 205.658852,39.9623503 C204.312024,39.9825498 203.274328,38.9526723 203.272877,37.5943347 C203.271716,36.1168498 204.555846,34.8050587 206.028068,34.7804681 C207.384185,34.7579267 208.358313,35.7497474 208.358313,37.1534604 L208.358313,37.1534604 Z M208.023928,37.1689759 C208.032346,36.0659121 207.185644,35.2046559 206.086702,35.1982155 C204.813601,35.1908968 203.680699,36.3106471 203.672862,37.5837958 C203.666185,38.6874451 204.511726,39.5530926 205.608926,39.5659734 C206.855032,39.5806106 208.014349,38.4298294 208.023928,37.1689759 L208.023928,37.1689759 Z" id="Fill-19" fill="#020202"></path>
                    <path d="M32.8475027,5.51414801 C29.4035133,4.28930222 25.8947949,4.20118593 22.3451491,4.93246336 C11.7769054,7.10960919 3.05300302,16.6703737 1.84201912,26.956268 C1.32621894,31.3354429 2.0553636,35.4312406 4.68806349,39.0577678 C6.27755241,41.2472089 8.32130543,42.8543799 10.9307841,43.9220215 C10.9307841,43.5490642 10.9380408,43.2794459 10.9299134,43.0104131 C10.8280305,39.6148618 11.0602422,36.241852 11.5896848,32.8881633 C12.990792,24.0092023 16.2214369,15.9045523 21.5129605,8.63159132 C22.427294,7.37512906 23.4710855,6.77997813 24.9961357,6.77705067 C24.8004973,7.01241779 24.6225651,7.2211451 24.4498577,7.43426358 C22.7079799,9.58886803 21.3100656,11.9097517 20.9907745,14.7479162 C20.7420177,16.9590204 22.1184525,18.1203405 24.2150336,17.4724954 C25.4062795,17.1045148 26.4100145,16.4101232 27.3391515,15.6021466 C30.238024,13.0813179 31.953778,9.7785669 33.3850727,6.28494604 C33.6341198,5.67749982 33.1972716,5.63856471 32.8475027,5.51414801 L32.8475027,5.51414801 Z M24.8399733,15.1858629 C23.7540935,15.5149085 23.0577487,14.9595709 23.077777,13.7812716 C23.1076742,12.0432435 24.9038315,9.6301451 26.5551468,9.10905869 C27.6413169,8.7662541 28.3707519,9.31515129 28.3617537,10.467689 C28.3472404,12.2490434 26.5397628,14.6706314 24.8399733,15.1858629 L24.8399733,15.1858629 Z" id="Fill-20" fill="#CC1331"></path>
                    <path d="M149.474366,23.8066227 C148.787019,21.4596847 147.311314,19.832607 144.868157,19.3451863 C142.711491,18.9151436 140.740304,19.455844 139.020487,20.8554586 C138.740671,21.0829216 138.479724,21.3367317 138.229806,21.5978604 C138.086415,21.7477459 137.929672,21.9125614 137.74042,21.7972198 C137.555811,21.6850984 137.735775,21.5047674 137.767124,21.350198 C137.88294,20.7755392 137.980469,20.1973675 138.111378,19.4731159 C136.480381,19.4731159 134.927175,19.4889242 133.37455,19.4631626 C132.934219,19.4561367 132.890098,19.7102395 132.830594,20.0269898 C131.254167,28.4331673 129.684126,36.8402231 128.078092,45.2405458 C127.957922,45.8690696 128.178814,45.8611655 128.636271,45.8556034 C130.108783,45.8368677 131.582166,45.8154973 133.053227,45.864093 C133.674684,45.8845851 133.903993,45.7001557 134.009359,45.0710463 C134.375673,42.8848254 134.81136,40.7103143 135.238629,38.4368553 C136.074301,39.2553708 136.972089,39.695074 138.017332,39.8461305 C140.501126,40.2047433 142.678982,39.4231137 144.65191,37.9898334 C148.705745,35.0454025 150.887955,28.6313558 149.474366,23.8066227 L149.474366,23.8066227 Z M143.673428,28.5965191 C143.39071,30.5707926 142.74342,32.3881546 141.429392,33.9151134 C140.876729,34.5573963 140.216377,35.0579905 139.388832,35.2965778 C137.838239,35.7435997 136.903877,35.180358 136.593875,33.5942647 C136.519567,33.2128177 136.500409,32.8205392 136.467029,32.5307215 C136.658894,30.2926847 137.058008,28.2156577 138.169721,26.3514564 C138.795822,25.3016723 139.587373,24.4128979 140.847992,24.1154688 C142.07378,23.8265293 143.059228,24.3458593 143.496076,25.5341119 C143.863261,26.5338367 143.821753,27.5610795 143.673428,28.5965191 L143.673428,28.5965191 Z" id="Fill-21" fill="#020202"></path>
                    <path d="M74.1866962,19.3448935 C72.6674513,19.0902052 71.1403693,19.1756868 69.6423137,19.5527426 C61.9555266,21.4866172 59.1617299,30.7537583 60.8147868,35.9453011 C61.5686039,38.3124386 63.1589637,39.8165633 65.7127116,39.9348323 C67.7410806,40.0290962 69.5262078,39.3478782 70.9293469,37.7960361 C71.07535,37.6344408 71.1496577,37.3569183 71.5116177,37.3580893 C71.3862234,38.0539446 71.2677954,38.7102793 71.1281781,39.4857612 C72.8976311,39.4857612 74.6174488,39.4761006 76.336686,39.4933726 C76.7244795,39.4971783 76.7627945,39.2963551 76.8196863,38.9878017 C77.3015256,36.3768075 77.807747,33.7702045 78.2959721,31.1603813 C78.6448701,29.2935454 79.129612,27.4436887 79.0997147,25.5244513 C79.0448547,22.0387346 77.3383892,19.8735913 74.1866962,19.3448935 L74.1866962,19.3448935 Z M71.3119156,33.3984182 C70.8326888,34.0737813 70.2121031,34.5895983 69.4521904,34.8984444 C68.0415044,35.4725177 66.9103433,34.906934 66.4880083,33.4306201 C66.3338778,32.8925545 66.243025,32.3386806 66.2772762,31.7643146 C66.4325678,29.152735 67.2453086,26.8052114 69.0530765,24.8646037 C69.4765726,24.4099705 69.9796011,24.0645312 70.5653551,23.8593168 C72.0425116,23.3417433 73.4436188,24.1280569 73.3893393,25.6772643 C73.2941326,28.3863281 72.9519106,31.0866096 71.3119156,33.3984182 L71.3119156,33.3984182 Z" id="Fill-22" fill="#020202"></path>
                    <path d="M168.855623,24.3095589 C168.506435,21.7506734 166.984287,20.0088396 164.488302,19.4438414 C163.085744,19.1262129 161.675058,19.1417284 160.273951,19.3972949 C156.646514,20.0583135 153.991173,22.1373897 152.233331,25.3315323 C150.431368,28.6064725 149.600341,32.103899 150.654001,35.8223482 C151.503606,38.8212297 153.81237,40.2676836 156.858407,39.859304 C158.650501,39.6189603 160.080054,38.7486289 161.31513,37.1587299 C161.356057,37.9166471 161.185381,38.4485651 161.053601,38.9796048 C160.947364,39.4073055 161.080306,39.5003985 161.490449,39.4945436 C163.017822,39.4731732 164.545484,39.4714167 166.072857,39.4957145 C166.500416,39.5024477 166.622618,39.3496347 166.698087,38.9389132 C167.222014,36.0805494 167.793255,33.2312607 168.320956,30.3737751 C168.690463,28.3722763 169.138631,26.3830729 168.855623,24.3095589 L168.855623,24.3095589 Z M163.277028,25.9585924 C163.149312,28.1860904 162.831472,30.4147594 161.784487,32.439385 C161.209183,33.5515239 160.424308,34.4929923 159.205487,34.9335738 C157.824117,35.4332898 156.798903,34.8972734 156.366699,33.4833143 C156.185574,32.8905053 156.133907,32.2786679 156.133326,31.6577554 C156.286586,29.2513901 157.054916,27.0812701 158.587803,25.2077011 C159.015944,24.6842727 159.5271,24.258914 160.143622,23.9764149 C161.827156,23.2050314 163.382975,24.1140051 163.277028,25.9585924 L163.277028,25.9585924 Z" id="Fill-23" fill="#020202"></path>
                    <path d="M191.611207,31.8740941 C192.38331,31.9253245 193.164703,31.8738013 193.939999,31.8298895 C196.192743,31.7028381 198.421975,31.4420022 200.471533,30.3869486 C202.703668,29.2376311 203.873725,27.179047 203.651672,24.7797076 C203.413075,22.1997444 202.05899,20.4743044 199.626283,19.6610583 C197.526218,18.9590554 195.41019,19.0861068 193.329573,19.7670321 C188.103359,21.4772494 184.587384,27.4633026 185.425668,33.0708363 C185.93276,36.4652166 187.66564,38.7758542 191.030387,39.5533853 C194.373655,40.3256471 197.640873,39.8487652 200.791985,38.5103343 C201.00562,38.4192906 201.190228,38.3446405 201.239864,38.0779497 C201.524904,36.5471852 201.819232,35.0178844 202.13504,33.3600685 C201.055255,33.8846679 200.131924,34.3881896 199.122964,34.6821057 C197.235664,35.2318812 195.333269,35.5688308 193.390529,34.9909519 C192.191155,34.6340955 191.348227,33.8993051 191.058543,32.6164958 C190.949694,32.13493 190.948532,31.8298895 191.611207,31.8740941 L191.611207,31.8740941 Z M195.555032,23.5812089 C196.065317,23.4948491 196.553542,23.5492997 197.025512,23.7106023 C197.612717,23.9111327 198.022281,24.3189267 198.129388,24.9565257 C198.236206,25.5900262 197.996737,26.106136 197.508803,26.5033912 C196.85861,27.0323817 196.064446,27.2012957 195.274346,27.3195647 C194.07207,27.4993102 192.857603,27.5727893 191.58247,27.5268283 C192.102044,25.3438276 193.571654,23.9164021 195.555032,23.5812089 L195.555032,23.5812089 Z" id="Fill-24" fill="#020202"></path>
                    <path d="M86.7432523,51.9558272 C85.9624406,51.7081648 85.2486799,52.0635574 85.0440434,52.8279151 C85.0280788,52.8876351 84.9520295,52.9306686 84.9029748,52.9824845 C83.5259596,51.5497896 81.7489597,51.4013678 80.2558386,52.5720558 C78.7537193,53.7500623 78.2353068,56.0039074 79.1322244,57.4568017 C80.0677472,58.9717579 81.770149,59.2109307 83.9654202,58.1356777 C83.8974982,59.3672567 83.3007142,60.0514021 82.1350116,60.2065571 C81.1005086,60.3438545 80.1681787,60.0317882 79.2790983,59.5247536 C78.4991573,59.0800736 78.5754969,59.9738246 78.2663651,60.2361243 C77.8550601,60.5850766 78.284942,60.7285217 78.5348598,60.8707958 C79.318284,61.317525 80.168469,61.5768972 81.0563884,61.6661845 C83.7654278,61.939023 85.1668253,61.0924039 85.6977193,58.7451732 C86.1714311,56.6491178 86.518007,54.5240806 86.9188624,52.4116314 C86.9534039,52.2286657 87.0364196,52.0489202 86.7432523,51.9558272 L86.7432523,51.9558272 Z M82.2499564,57.3906413 C81.198618,57.362245 80.5405882,56.682198 80.546974,55.6297791 C80.5542306,54.3460915 81.5777036,53.3290948 82.8299051,53.3604185 C83.8734063,53.3864728 84.6507349,54.164004 84.6309969,55.1613868 C84.6074854,56.3472975 83.4586182,57.423136 82.2499564,57.3906413 L82.2499564,57.3906413 Z" id="Fill-25" fill="#020202"></path>
                    <path d="M143.685329,49.1609891 C142.736164,48.9595804 142.270579,49.1680149 142.148088,49.8059067 C141.944612,50.8650587 141.738234,51.923918 141.516762,53.0679661 C140.952488,52.5536128 140.493289,52.0779019 139.811458,51.9157211 C137.565971,51.3811684 135.420045,53.0322512 135.172159,55.5082898 C134.860705,58.616658 137.101547,60.3066759 139.933078,59.0853431 C140.216957,58.9629756 140.221892,59.0765607 140.393728,59.2697725 C140.77978,59.7039136 141.365534,59.4316606 141.863919,59.4527382 C142.294961,59.4708884 142.168696,59.0496281 142.213687,58.8145538 C142.775349,55.8815399 143.325981,52.9461841 143.858617,50.0076081 C143.909123,49.7292074 144.329426,49.2977011 143.685329,49.1609891 L143.685329,49.1609891 Z M138.789146,58.0513671 C137.709942,58.0165304 136.966284,57.1491265 136.991827,55.9547262 C137.022595,54.5068086 138.062033,53.3369989 139.295657,53.3627605 C140.43988,53.3867656 141.200954,54.2292862 141.186731,55.4564739 C141.170186,56.8838994 140.053829,58.0920587 138.789146,58.0513671 L138.789146,58.0513671 Z" id="Fill-26" fill="#020202"></path>
                    <path d="M104.06247,49.224222 C103.60124,49.1557197 103.126367,49.1498647 102.65846,49.1677222 C102.250348,49.1832377 102.341781,49.5529748 102.291275,49.8079559 C102.078511,50.8782322 101.869811,51.9493868 101.639051,53.1259296 C101.104674,52.4862814 100.601355,52.0746817 99.9215552,51.9127937 C97.4955238,51.3343292 95.2903836,53.2998203 95.3051871,56.0440135 C95.3124437,57.3859573 95.7385522,58.5311764 96.9640493,59.2062468 C98.1500704,59.859654 99.3038722,59.7261622 100.391203,58.8575873 C100.522983,59.8810244 101.277671,59.348521 101.762704,59.464448 C102.303176,59.5935487 102.299113,59.1696537 102.366164,58.8136755 C102.940017,55.7685403 103.519675,52.724576 104.09556,49.6800262 C104.125748,49.5210656 104.204119,49.2452997 104.06247,49.224222 L104.06247,49.224222 Z M99.0011262,58.0566365 C97.9062482,58.0633697 97.1503991,57.2413412 97.1387886,56.0305472 C97.1248559,54.5849716 98.1198829,53.3885221 99.3575711,53.3624677 C100.492506,53.3384626 101.324114,54.1874236 101.334273,55.3797747 C101.346754,56.8013452 100.259423,58.0487324 99.0011262,58.0566365 L99.0011262,58.0566365 Z" id="Fill-27" fill="#020202"></path>
                    <path d="M33.3029279,51.8498534 C32.0550804,51.7629081 32.0550804,51.7661283 32.2751009,50.4836117 C32.2942584,50.3732468 32.2820673,50.2514648 32.3241557,50.152517 C32.6739245,49.333416 32.1462235,49.3940142 31.6176516,49.4004546 C31.2969092,49.4042603 31.2815252,49.5954229 31.2414687,49.8263988 C31.1509062,50.3495345 31.0310269,50.8676934 30.9451086,51.3914145 C30.9053423,51.6335148 30.8548363,51.8439985 30.5645717,51.8390219 C29.9018976,51.8278976 29.128923,52.0035447 28.6157352,51.7148979 C28.2685787,51.5196369 28.702234,50.7128312 28.7655117,50.1768148 C28.7687046,50.149004 28.765802,50.119144 28.7750904,50.0936752 C28.9965623,49.4885709 28.747225,49.3732293 28.1733719,49.3884521 C27.603002,49.4036748 27.6703434,49.7833653 27.6102586,50.1209005 C27.3295728,51.697626 27.3307338,51.6979187 25.857641,51.8466332 C25.8024907,51.8521954 25.7426962,51.8387291 25.6916096,51.8548301 C25.2295084,52.0020809 25.3618691,52.4371003 25.2910445,52.756778 C25.2225421,53.0650386 25.4962616,53.0059041 25.6782575,53.0243471 C27.0108622,53.1578389 27.0111525,53.1581316 26.7705231,54.5472074 C26.7417869,54.7123157 26.6761871,54.876253 26.6779287,55.040483 C26.6846048,55.6892063 26.3789562,55.9336486 25.7543068,55.8276748 C24.9128297,55.6851079 24.4263463,55.9629231 24.5572556,56.9787488 L26.3084219,56.9787488 C26.1905745,57.5979048 26.0466032,58.1421181 26.0001609,58.6945283 C25.9792619,58.9418979 25.5885657,59.3924327 26.2178593,59.4653263 C26.6758969,59.5180204 27.025956,59.5180204 27.1374176,58.8534889 C27.4613529,56.9237127 27.5014094,56.9301531 29.4699839,56.9772851 C29.5791234,56.9799198 29.6879726,56.9986555 29.8563261,57.0159275 C29.7556042,57.6107856 29.64124,58.1822242 29.5698349,58.7592249 C29.5402279,58.9995687 29.1814609,59.3903835 29.7376078,59.4580077 C30.1474614,59.5080671 30.6606493,59.6307273 30.6888049,58.9152581 C30.699835,58.6386139 30.8229072,58.3651899 30.8252293,58.089424 C30.833647,57.1731316 31.2435006,56.8066147 32.156673,56.9611841 C32.4080421,57.0036322 32.7630357,57.1330255 32.9075875,56.6751721 C33.1226736,55.9945396 33.0085996,55.7705895 32.2478161,55.8420193 C31.4350752,55.9184258 31.1172355,55.7050146 31.4405902,54.8768385 C31.4504592,54.8513697 31.4484274,54.8215097 31.4539424,54.7939916 C31.5595987,54.2737834 31.5442147,53.6786325 31.8028404,53.252981 C32.1102306,52.7477029 32.7525862,53.0843598 33.2440042,53.0322512 C33.866912,52.9660908 33.633249,52.4429552 33.7345513,52.1300106 C33.8553014,51.7558822 33.4918901,51.863027 33.3029279,51.8498534 L33.3029279,51.8498534 Z M30.422342,54.178934 C30.0992775,55.9670215 29.9921699,56.0305472 28.1170606,55.8376281 C27.7504564,55.8001568 27.7159149,55.6611028 27.7739678,55.3683576 C27.8497269,54.984276 27.9074896,54.5969741 27.9806362,54.212307 C28.2070426,53.0234688 28.2084939,53.0237616 29.428476,53.0231761 C30.6313325,53.0225906 30.6313325,53.0225906 30.422342,54.178934 L30.422342,54.178934 Z" id="Fill-28" fill="#020202"></path>
                    <path d="M122.70123,51.7904262 C120.533534,51.7980376 118.691225,53.6637025 118.676422,55.8654389 C118.661908,58.0165304 120.344862,59.6784448 122.496594,59.6380459 C124.700863,59.5967689 126.472929,57.7586219 126.458125,55.528782 C126.443902,53.3812034 124.837578,51.7828148 122.70123,51.7904262 L122.70123,51.7904262 Z M122.39355,58.0566365 C121.26355,58.0408283 120.480416,57.19216 120.468805,55.9702417 C120.455744,54.5960959 121.464994,53.4136981 122.678009,53.3826672 C123.850678,53.3525144 124.670676,54.2055738 124.678513,55.4637926 C124.687511,56.8938527 123.647493,58.0742012 122.39355,58.0566365 L122.39355,58.0566365 Z" id="Fill-29" fill="#020202"></path>
                    <path d="M60.0749023,52.0647284 C59.0119534,51.7658356 57.940877,51.8697601 56.8680591,52.09049 C56.2103195,52.2257382 56.0016193,52.4777918 56.2561813,53.1654502 C56.4285985,53.6309151 56.4944885,53.8958494 57.0793717,53.6402829 C57.6636743,53.3850091 58.3217042,53.378276 58.9628987,53.452926 C59.3956832,53.5032782 59.7646095,53.6783398 59.9936282,54.0706183 C60.172141,54.3768297 60.221486,54.7509581 60.0528422,55.0287732 C59.8972604,55.2855108 59.6058347,55.0194054 59.3776868,54.9792993 C58.188763,54.770572 57.0091277,54.6540594 55.8953824,55.2846325 C55.0324258,55.773517 54.6382465,56.6394572 54.7819274,57.7044641 C54.9049996,58.6157798 55.5522897,59.3043164 56.4962301,59.5188987 C57.5078022,59.7487036 58.4087836,59.5004557 59.3234073,58.7466369 C59.3257294,59.1386227 59.17276,59.5774477 59.690592,59.4591786 C60.1486295,59.3543759 60.8867724,59.8622887 61.0348073,59.0996876 C61.3366825,57.5416978 61.7915271,56.0012727 61.8109749,54.3979074 C61.8260686,53.1683777 61.2554084,52.3967014 60.0749023,52.0647284 L60.0749023,52.0647284 Z M59.2676765,57.5946847 C58.8087682,58.0832763 58.2401398,58.3531874 57.5687578,58.2797083 C57.0410568,58.2220376 56.6163997,57.9711549 56.5412211,57.3730766 C56.4689453,56.7987105 56.7475993,56.4032118 57.2500473,56.1862876 C57.5763047,56.0454772 57.9283956,55.952677 58.2976122,55.9840007 C58.4607409,56.0059566 58.6337386,56.0006872 58.7849665,56.056016 C59.1283495,56.181311 59.6798522,55.9623376 59.7918943,56.423704 C59.8981312,56.860187 59.5759375,57.2662246 59.2676765,57.5946847 L59.2676765,57.5946847 Z" id="Fill-30" fill="#020202"></path>
                    <path d="M76.2339324,52.1303033 C74.9593805,51.7093358 73.6592854,51.7968666 72.3980857,52.240961 C71.6637163,52.499455 72.2709499,52.9716529 72.2822702,53.3434393 C72.2950418,53.7726037 72.5031615,53.829689 72.889794,53.6751196 C73.5446309,53.4134054 74.2427173,53.3651024 74.9373204,53.4608301 C75.4917258,53.5375293 75.9468607,53.7843135 76.0597736,54.40991 C76.1500459,54.9099187 76.1407574,55.2067623 75.4420906,55.026724 C74.2766782,54.7263675 73.079627,54.6403004 71.9490464,55.2187649 C70.996398,55.7061856 70.568548,56.6239417 70.7348696,57.7460339 C70.8747771,58.6889661 71.5513839,59.3464717 72.5632463,59.5440747 C73.5527583,59.7375793 74.4107805,59.4389792 75.3045051,58.7340489 C75.1721445,59.3259796 75.3277263,59.5964761 75.8461389,59.4697175 C76.2783429,59.3640365 76.9140223,59.8072526 77.0449317,58.9111597 C77.2385381,57.5850241 77.5563779,56.2776241 77.7598534,54.9526595 C77.9729076,53.5670966 77.4202438,52.5219964 76.2339324,52.1303033 L76.2339324,52.1303033 Z M75.3259847,57.4617783 C74.8516924,58.0247273 74.2575207,58.3537729 73.5121213,58.2764882 C72.9789052,58.2211593 72.5510552,57.9629581 72.4735545,57.3713201 C72.398376,56.7978323 72.6927043,56.4081885 73.1966036,56.1877514 C73.5269248,56.0431353 73.880467,55.9643868 74.2493933,55.9845862 C74.4406777,56.0118115 74.6397992,56.0138607 74.8217951,56.0712388 C75.1460207,56.1728214 75.6560156,55.9983452 75.7561569,56.4143361 C75.842946,56.7755837 75.5819981,57.1579089 75.3259847,57.4617783 L75.3259847,57.4617783 Z" id="Fill-31" fill="#020202"></path>
                    <path d="M92.633882,51.9660733 C90.9895331,51.4297641 89.1089088,52.1417204 88.1429082,53.6663372 C87.1798103,55.1862701 87.2422172,57.2466106 88.2880405,58.4495005 C89.3620195,59.6848852 91.4275424,60.0033919 93.0399622,59.181949 C93.999577,58.6930645 93.9984159,58.6011425 93.3406763,57.7908239 C93.0469286,57.4289909 92.8655132,57.5162289 92.5325797,57.7150029 C91.2379996,58.4887284 89.7933527,58.1526569 89.3292196,57.010658 C89.1489653,56.5671491 89.1312592,56.2758677 89.7704218,56.3206577 C90.4603807,56.3689606 91.1567255,56.3314892 91.8501676,56.3314892 C92.5714752,56.3311965 93.2927827,56.3265126 94.0137999,56.3338312 C94.2770699,56.3364659 94.4802551,56.3165592 94.5966512,56.0065421 C95.1603451,54.5079796 94.1798313,52.4701805 92.633882,51.9660733 L92.633882,51.9660733 Z M92.9523023,54.9661258 C92.8182001,55.3062957 92.4138615,55.1081072 92.1363685,55.1157186 C91.2240669,55.1411874 90.3106042,55.1253791 89.2877118,55.1253791 C89.6116471,54.104284 90.1994329,53.5023999 91.1526618,53.3200197 C91.758444,53.2040926 92.3125591,53.3469522 92.7113827,53.8665749 C92.96072,54.1921075 93.095693,54.6025363 92.9523023,54.9661258 L92.9523023,54.9661258 Z" id="Fill-32" fill="#020202"></path>
                    <path d="M182.470774,53.4022811 C181.464717,51.7851568 180.093217,51.6528359 177.223661,53.0061969 C178.028855,51.8442913 177.168221,52.1572359 176.685511,52.1291323 C176.182192,52.1001506 176.305264,52.5495144 176.257661,52.7933711 C175.720962,55.5325877 175.203129,58.2756099 174.712582,61.0236088 C174.678912,61.2112585 174.307953,61.6890186 174.939569,61.6767233 C175.307334,61.6696974 175.773209,61.8839869 175.86174,61.1846187 C175.986844,60.1948472 176.220797,59.2191276 176.4324,58.1107944 C178.222462,59.8977109 179.911802,60.1023398 181.51116,58.8040149 C183.034759,57.5668739 183.484959,55.0328717 182.470774,53.4022811 L182.470774,53.4022811 Z M179.106898,58.5712825 C177.789387,58.5786012 176.774041,57.5370139 176.760399,56.1637463 C176.743854,54.5302282 178.090972,53.0378133 179.594543,53.0240543 C180.861548,53.0123445 181.795619,54.0305122 181.814486,55.4441786 C181.837707,57.1397587 180.605244,58.5627929 179.106898,58.5712825 L179.106898,58.5712825 Z" id="Fill-33" fill="#020202"></path>
                    <path d="M18.0712932,52.0896117 C15.8896645,51.5146602 13.7660887,52.9716529 13.3031167,55.3607463 C13.000661,56.922249 13.6163122,58.4369125 14.8418093,59.1456486 C16.1163612,59.8830736 18.0823233,59.7270405 19.1623978,58.8239216 C19.4224749,58.6067047 19.4976534,58.4620886 19.2544117,58.1544134 C18.9722745,57.7978498 18.798406,57.7738447 18.400163,58.0387791 C16.8135767,59.0958819 14.9770726,58.5589872 14.5082953,56.9623551 C14.3614214,56.4620536 14.382901,56.1672592 15.0336742,56.208829 C15.7526596,56.25479 16.4768698,56.2193678 17.1987578,56.2190751 C17.9763767,56.2190751 18.7539955,56.2208316 19.5316144,56.2181969 C19.7783393,56.2173186 19.9980696,56.2381035 20.1083701,55.8944207 C20.5971757,54.3703894 19.6073734,52.4944783 18.0712932,52.0896117 L18.0712932,52.0896117 Z M18.5328139,55.2998553 C17.2309772,55.2819978 15.92856,55.2934149 14.522228,55.2934149 C14.844712,54.1312166 15.4391738,53.3937915 16.4881901,53.0793832 C17.7874144,52.6897393 18.8149511,53.3697864 19.032069,54.7070463 C19.1075378,55.1713401 18.9792409,55.3060029 18.5328139,55.2998553 L18.5328139,55.2998553 Z" id="Fill-34" fill="#020202"></path>
                    <path d="M189.115512,52.3920175 C187.855183,51.8167732 186.578309,51.9745629 185.300854,52.3416653 C184.899999,52.4567142 184.993174,52.7219413 185.084607,52.999171 C185.173138,53.267911 185.210582,53.4983015 185.628853,53.3378771 C186.334486,53.0670879 187.092077,53.0000492 187.842121,53.1212457 C188.505666,53.2283904 189.052814,53.5214284 189.21246,54.2676358 C189.386909,55.0846876 189.226973,55.2509668 188.429907,55.0943482 C187.222696,54.8569318 186.011712,54.70851 184.854137,55.2907802 C183.921517,55.7597579 183.50847,56.5934962 183.63996,57.6418166 C183.763613,58.6263186 184.375781,59.2756274 185.387643,59.5130437 C186.55741,59.7876387 187.556791,59.4255129 188.423811,58.6851604 C188.71901,58.893595 188.110906,59.4468833 188.747746,59.4550802 C189.027852,59.4585931 189.480084,59.6983514 189.570646,59.1769723 C189.855686,57.5296952 190.372067,55.9146201 190.356102,54.2251878 C190.347975,53.377105 189.889647,52.7453609 189.115512,52.3920175 L189.115512,52.3920175 Z M188.966316,56.5768097 C188.72946,57.7334459 187.572755,58.6611553 186.367577,58.6567641 C185.476174,58.6535439 184.897386,58.2135479 184.808565,57.4717317 C184.720325,56.7328429 185.163269,56.1107594 185.994587,55.8926642 C186.905437,55.6540769 187.812514,55.8393846 188.714946,55.9992235 C189.087356,56.0653839 189.019144,56.3194867 188.966316,56.5768097 L188.966316,56.5768097 Z" id="Fill-35" fill="#020202"></path>
                    <path d="M158.519591,51.9584619 C156.348122,51.980125 154.63469,53.7749457 154.637593,56.0246923 C154.640205,58.1210405 156.125199,59.636875 158.17824,59.6383387 C160.336648,59.6400952 162.16009,57.7428137 162.141803,55.5147302 C162.124968,53.4611229 160.573504,51.937677 158.519591,51.9584619 L158.519591,51.9584619 Z M158.11264,58.5630857 C156.725466,58.542008 155.79749,57.5285242 155.805908,56.0437207 C155.815486,54.3689256 157.097005,52.9918524 158.615379,53.0252253 C160.005456,53.0553781 160.97523,54.0911105 160.965071,55.5343441 C160.95375,57.150883 159.602278,58.5859198 158.11264,58.5630857 L158.11264,58.5630857 Z" id="Fill-36" fill="#020202"></path>
                    <path d="M207.091598,36.8033372 C207.05009,36.9025778 207.025127,37.1522895 206.892767,37.2442114 C206.373483,37.6039953 206.285533,38.0158877 206.61121,38.5466347 C206.686679,38.6695877 206.711351,38.8267918 206.527033,38.8800715 C206.392351,38.9187138 206.250701,38.8911958 206.185682,38.7281367 C206.154624,38.650852 206.127339,38.5706398 206.086412,38.4983318 C205.938667,38.2386668 206.059707,37.7333886 205.562484,37.7922304 C205.158726,37.8402406 205.254513,38.2500838 205.194719,38.5270208 C205.157855,38.6973985 205.128248,38.8973434 204.920999,38.8657269 C204.590968,38.8153748 204.779931,38.5665414 204.807506,38.404946 C204.920129,37.7459767 205.117799,37.0937404 205.154372,36.4318436 C205.201685,35.5761495 205.782795,35.8100529 206.226029,35.831716 C206.739797,35.8568921 207.135428,36.0910882 207.091598,36.8033372 L207.091598,36.8033372 Z M205.512268,36.84842 C205.475405,37.0931549 205.38223,37.3334987 205.754349,37.3276438 C206.196132,37.3203252 206.604244,37.228696 206.671585,36.7140499 C206.719189,36.3492895 206.409186,36.3065487 206.122695,36.2629296 C205.62373,36.1865231 205.497175,36.4576052 205.512268,36.84842 L205.512268,36.84842 Z" id="Fill-37" fill="#020202"></path>
                </g>
            </g>
        </g>
    </g>
</svg>