<?xml version="1.0" encoding="UTF-8" standalone="no"?>
<svg
   width="300"
   height="90"
   viewBox="0 0 300 90"
   version="1.1"
   id="svg8562"
   sodipodi:docname="rackspace.svg"
   inkscape:version="1.1.1 (3bf5ae0d25, 2021-09-20)"
   xmlns:inkscape="http://www.inkscape.org/namespaces/inkscape"
   xmlns:sodipodi="http://sodipodi.sourceforge.net/DTD/sodipodi-0.dtd"
   xmlns="http://www.w3.org/2000/svg"
   xmlns:svg="http://www.w3.org/2000/svg"
   xmlns:rdf="http://www.w3.org/1999/02/22-rdf-syntax-ns#"
   xmlns:cc="http://creativecommons.org/ns#"
   xmlns:dc="http://purl.org/dc/elements/1.1/"
   xmlns:sketch="http://www.bohemiancoding.com/sketch/ns">
  <sodipodi:namedview
     id="namedview8564"
     pagecolor="#ffffff"
     bordercolor="#666666"
     borderopacity="1.0"
     inkscape:pageshadow="2"
     inkscape:pageopacity="0.0"
     inkscape:pagecheckerboard="0"
     showgrid="false"
     inkscape:zoom="2.6369827"
     inkscape:cx="172.54569"
     inkscape:cy="-8.1532578"
     inkscape:window-width="1866"
     inkscape:window-height="1016"
     inkscape:window-x="54"
     inkscape:window-y="27"
     inkscape:window-maximized="1"
     inkscape:current-layer="svg8562" />
  <!-- Generator: Sketch 3.3.3 (12072) - http://www.bohemiancoding.com/sketch -->
  <title
     id="title8512">rackspace-color</title>
  <desc
     id="desc8514">Created with Sketch.</desc>
  <defs
     id="defs8516" />
  <g
     id="g8560"
     stroke="none"
     stroke-width="1"
     fill="none"
     fill-rule="evenodd"
     sketch:type="MSPage"
     transform="matrix(1.455125,0,0,1.455125,4.6193146,1.1927873)">
    <g
       id="rackspace-color"
       sketch:type="MSLayerGroup"
       fill="#b1b1b1">
      <g
         id="Page-1"
         sketch:type="MSShapeGroup">
        <g
           id="About---Desktop">
          <g
             id="Imported-Layers-+-Imported-Layers-+-Imported-Layers">
            <g
               id="Imported-Layers"
               transform="translate(0.561924,0.586081)">
              <path
                 d="m 22.129773,2.9667632 c 0.749712,-0.8168984 1.501912,-1.6312876 2.247201,-2.45264692 0.155084,-0.17090742 0.328413,-0.22192872 0.555373,-0.2322445 7.951038,-0.36133118 14.828927,4.27324302 16.371199,12.49269122 0.861395,4.591359 0.01963,8.97947 -2.105109,13.085151 -3.527683,6.815944 -8.928263,11.38472 -16.338303,13.393789 -3.109702,0.843106 -6.257552,0.905279 -9.411484,0.143305 -0.668991,-0.161706 -0.995193,-0.381126 -0.986347,-1.179902 0.04091,-3.753272 0.559796,-7.383033 2.431588,-10.703042 0.539063,-0.956301 1.210542,-1.81502 2.095158,-2.480249 1.755133,-1.320141 3.706264,-1.266611 5.364919,0.180945 1.817885,1.586957 2.657994,3.737937 3.283307,5.991796 0.384255,1.384267 0.573618,2.807845 0.689447,4.358279 0.765746,-0.477314 1.472886,-0.924517 2.186937,-1.360289 0.382873,-0.233639 0.152873,-0.494879 0.05308,-0.751937 -1.1594,-2.984328 -1.820098,-6.052855 -1.651468,-9.283089 0.195169,-3.741283 1.36065,-7.195397 2.962358,-10.52851 1.235145,-2.570303 2.717153,-4.9936753 4.353139,-7.3197448 C 34.537893,5.8841779 34.467677,5.6984938 34.062136,5.4194101 31.88294,3.9197184 29.444717,3.227167 26.850581,3.0138812 25.300568,2.8864674 23.750831,2.9383251 22.129773,2.9667632"
                 id="Fill-1" />
              <path
                 d="m 108.37927,36.638591 c -0.28667,0.337354 0.27893,0.532239 0.0605,0.938179 -1.80876,0 -3.69714,0.0036 -5.58552,-0.0028 -0.39365,-0.0014 -0.40167,-0.375272 -0.5128,-0.622014 -1.31973,-2.926894 -2.630073,-5.85797 -3.943451,-8.787373 -0.06358,-0.141912 -0.132969,-0.281036 -0.276719,-0.58326 -0.461106,2.439543 -0.890973,4.714312 -1.321118,6.989081 -0.158125,0.836415 -0.335049,1.670042 -0.464976,2.511196 -0.05474,0.352967 -0.168907,0.508262 -0.545975,0.50408 -1.533979,-0.01645 -3.068787,-0.0276 -4.602214,0.0036 -0.625036,0.01255 -0.448113,-0.369416 -0.390889,-0.677217 0.578317,-3.114809 1.165758,-6.227666 1.754857,-9.340244 0.935481,-4.941538 1.884232,-9.880846 2.797321,-14.826288 0.0962,-0.52025 0.248798,-0.715413 0.793113,-0.6998 1.374472,0.03931 2.751432,0.04377 4.125631,-8.37e-4 0.60762,-0.0198 0.77929,0.12602 0.65738,0.751937 -0.78233,4.023155 -1.535641,8.051886 -2.297793,12.078945 -0.132416,0.6998 -0.260685,1.400158 -0.42738,2.297073 1.716708,-1.990946 3.306533,-3.836077 4.897453,-5.680092 0.79699,-0.923681 1.43336,-2.20005 2.43933,-2.668442 1.00708,-0.46895 2.38404,-0.133548 3.59873,-0.144142 0.78095,-0.0067 1.56218,-0.0011 2.49683,-0.0011 -1.87262,2.131743 -3.63439,4.137744 -5.39644,6.143467 -0.2452,0.279084 -0.45475,0.606122 -0.74418,0.826099 -1.43584,1.0918 -1.48422,2.254974 -0.61177,3.833846 1.17682,2.129512 2.06392,4.42101 3.09367,6.634442 0.0918,0.197673 0.0487,0.55287 0.42517,0.540603 l -0.0188,-0.01896"
                 id="Fill-2" />
              <path
                 d="m 108.39807,36.65755 c 0.2546,-1.437239 0.50948,-2.874757 0.78123,-4.407906 1.27909,0.650731 2.52751,1.177672 3.8713,1.424972 0.80693,0.148603 1.61221,0.287448 2.43158,0.09368 0.68752,-0.162544 1.23404,-0.508262 1.41484,-1.237058 0.16559,-0.667459 -0.13739,-1.189382 -0.60762,-1.633239 -0.4495,-0.424062 -0.99409,-0.697849 -1.52707,-0.991988 -0.48544,-0.267931 -0.97474,-0.531123 -1.44331,-0.827493 -4.30227,-2.721694 -2.67237,-7.542231 0.0382,-9.283089 1.9633,-1.261034 4.11872,-1.568556 6.37311,-1.475435 1.11212,0.04572 2.19744,0.255943 3.26423,0.591624 0.58329,0.183453 0.7804,0.476756 0.63969,1.094867 -0.25986,1.139754 -0.45669,2.294007 -0.69222,3.507923 -1.21994,-0.570992 -2.47167,-0.951561 -3.79887,-1.031857 -0.66595,-0.04015 -1.3283,-0.01255 -1.94007,0.276017 -0.99851,0.470902 -1.16659,1.479897 -0.4025,2.278115 0.52496,0.548409 1.19506,0.869035 1.85548,1.203601 1.02007,0.516626 1.9984,1.100164 2.78792,1.943828 2.09101,2.234064 1.6241,6.020235 -0.99547,8.015363 -1.955,1.488818 -4.23261,1.828123 -6.59868,1.787976 -1.92183,-0.03234 -3.73888,-0.52025 -5.47052,-1.348859 l 0.0188,0.01896"
                 id="Fill-3" />
              <path
                 d="m 175.64878,32.280592 c -0.29745,1.563259 -0.5797,3.020015 -0.8484,4.47928 -0.0484,0.263191 -0.22889,0.331499 -0.43291,0.401757 -2.77216,0.953792 -5.58082,1.257968 -8.3809,0.211334 -2.90929,-1.08706 -4.60001,-3.933379 -4.47312,-7.304967 0.21977,-5.83706 3.73695,-10.151288 9.3725,-11.429887 1.95998,-0.444694 3.93295,-0.393394 5.89873,0.07109 0.62753,0.148325 0.86306,0.393115 0.69387,1.07563 -0.26234,1.057507 -0.45585,2.134809 -0.62476,3.212111 -0.0746,0.474805 -0.17526,0.578799 -0.64079,0.363004 -1.16272,-0.538651 -2.40671,-0.640972 -3.64904,-0.402036 -3.44834,0.663555 -5.83598,4.387553 -5.07023,7.851704 0.33781,1.527572 1.5677,2.556083 3.17218,2.650041 1.53978,0.09033 2.98502,-0.276854 4.37415,-0.918384 0.16033,-0.07416 0.32454,-0.139402 0.60872,-0.260682"
                 id="Fill-4" />
              <path
                 d="m 90.06938,32.277804 c -0.300216,1.567162 -0.57887,2.998268 -0.845084,4.431883 -0.04534,0.244512 -0.173053,0.358822 -0.396695,0.434935 -2.960975,1.00788 -5.949595,1.355271 -8.884861,0.01924 -2.486877,-1.131948 -3.750219,-3.241386 -3.935988,-5.933248 -0.525794,-7.608586 5.096217,-13.193885 12.881113,-12.865453 0.902309,0.03792 1.778908,0.207989 2.64749,0.457798 0.394483,0.113473 0.47714,0.269883 0.389231,0.678053 -0.257921,1.196074 -0.476311,2.401626 -0.673967,3.609409 -0.07326,0.449155 -0.221154,0.401479 -0.571959,0.265422 -5.463886,-2.120869 -9.382458,2.584801 -8.819345,7.058226 0.222537,1.767623 1.468463,2.925778 3.240459,3.025312 0.850337,0.04768 1.687129,-0.04433 2.514797,-0.250646 0.796431,-0.19823 1.540614,-0.536142 2.454809,-0.930929"
                 id="Fill-5" />
              <path
                 d="m 52.763469,21.68015 c 0.652681,-0.624245 1.153318,-1.336591 1.818715,-1.904517 1.218835,-1.040779 2.60547,-1.589467 4.217406,-1.521438 0.498426,0.02091 0.749712,0.106503 0.593246,0.748591 -0.346106,1.421069 -0.600433,2.865836 -0.855313,4.307815 -0.06773,0.383914 -0.151214,0.545342 -0.587993,0.509098 -2.381829,-0.197952 -3.950363,1.002303 -5.023513,3.033397 -0.910878,1.724409 -1.185938,3.626416 -1.538955,5.507513 -0.304087,1.621529 -0.633606,3.238876 -0.892356,4.867934 -0.07934,0.497945 -0.279484,0.580193 -0.715434,0.573223 -1.427825,-0.0237 -2.856756,-0.03513 -4.284029,0.0039 -0.57887,0.01561 -0.70631,-0.140518 -0.59518,-0.712904 0.814399,-4.205215 1.600049,-8.415727 2.396756,-12.624287 0.331454,-1.752289 0.674796,-3.502069 0.996852,-5.256031 0.06413,-0.349064 0.136562,-0.557331 0.575829,-0.545621 1.321395,0.03429 2.644449,0.02537 3.966673,0.0045 0.405265,-0.0067 0.497873,0.114031 0.411347,0.506588 -0.182452,0.829445 -0.325097,1.667533 -0.484051,2.502275"
                 id="Fill-6" />
              <path
                 d="m 39.94262,56.638663 c 0.434291,-2.309342 0.828774,-4.536993 1.283246,-6.751819 0.165589,-0.806862 0.866923,-0.273508 1.309508,-0.393115 0.425998,-0.115147 0.481286,0.172859 0.310168,0.644039 0.609556,-0.395066 1.069003,-0.758907 1.661143,-0.794315 0.722068,-0.04349 1.430314,0.110128 1.828114,0.734093 0.384808,0.603055 0.590481,0.415141 0.95428,0.02426 0.536574,-0.576847 1.26113,-0.780375 2.019135,-0.768665 1.358715,0.02091 2.363031,1.0918 2.202141,2.480249 -0.174435,1.50471 -0.436779,3.008862 -0.804724,4.476492 -0.183834,0.733535 -0.955662,0.30083 -1.439989,0.315886 -0.495937,0.01533 -0.192404,-0.42462 -0.152319,-0.656028 0.185492,-1.075351 0.398353,-2.145683 0.596562,-3.219082 0.181347,-0.982509 -0.07215,-1.582497 -0.746394,-1.785746 -0.695806,-0.209661 -1.512141,0.211613 -1.837237,1.032415 -0.383979,0.970241 -0.428762,2.026912 -0.66125,3.03758 -0.08349,0.362446 -0.137945,0.732141 -0.195998,1.100164 -0.05584,0.353525 -0.182729,0.534469 -0.607344,0.538093 -1.201972,0.0106 -1.197825,0.03875 -0.973078,-1.176556 0.18881,-1.021542 0.383149,-2.042246 0.543763,-3.068527 0.09233,-0.59023 -0.01631,-1.141428 -0.638583,-1.400995 -0.642175,-0.26821 -1.190914,-0.05297 -1.642897,0.437166 -0.374856,0.406219 -0.508931,0.924238 -0.606515,1.452574 -0.183281,0.994776 -0.391166,1.986206 -0.534916,2.986837 -0.08127,0.565974 -0.274231,0.866804 -0.894568,0.763089 -0.280865,-0.04712 -0.576106,-0.0081 -0.972248,-0.0081"
                 id="Fill-7" />
              <path
                 d="m 157.16114,50.359139 c 1.79549,-1.319305 2.99111,-1.172374 4.0532,0.5459 0.54653,-0.782326 1.26058,-1.278041 2.20269,-1.406013 1.58208,-0.215237 2.84653,0.951004 2.65026,2.550229 -0.1714,1.398206 -0.47189,2.779685 -0.70134,4.170921 -0.10588,0.64153 -0.59518,0.425735 -0.93133,0.398134 -0.4882,-0.04043 -0.17002,-0.419044 -0.13905,-0.614765 0.19627,-1.233712 0.45917,-2.457108 0.63747,-3.69305 0.10118,-0.701194 -0.097,-1.357222 -0.80693,-1.666138 -0.69802,-0.303898 -1.34379,-0.109013 -1.89889,0.393951 -0.55537,0.503522 -0.82241,1.156483 -0.95234,1.883049 -0.18273,1.020983 -0.42268,2.03416 -0.5468,3.062114 -0.0755,0.626475 -0.38758,0.744967 -0.88877,0.649337 -0.59158,-0.112638 -0.23774,-0.514117 -0.19157,-0.789576 0.18439,-1.101558 0.39559,-2.198656 0.59186,-3.298541 0.13795,-0.770338 -0.008,-1.445603 -0.7287,-1.862138 -0.61647,-0.356313 -1.40405,-0.167841 -2.02549,0.409564 -0.62338,0.579078 -0.81827,1.34384 -0.96119,2.137598 -0.16946,0.942082 -0.36491,1.880539 -0.50009,2.827918 -0.0749,0.526941 -0.3497,0.616995 -0.80583,0.590788 -0.36159,-0.02063 -0.42683,-0.109849 -0.35274,-0.480939 0.39061,-1.955816 0.76962,-3.9147 1.09333,-5.882505 0.0912,-0.555379 0.30962,-0.665228 0.81717,-0.656307 0.65848,0.01115 0.21451,0.515232 0.38508,0.730469"
                 id="Fill-8" />
              <path
                 d="m 62.36321,50.267691 c 0.792008,-0.666622 1.407369,-0.963271 2.121143,-0.935111 1.440266,0.05716 2.383764,1.144494 2.197994,2.6361 -0.176923,1.423299 -0.420469,2.843531 -0.738378,4.241181 -0.194339,0.854258 -0.971418,0.368022 -1.464315,0.392278 -0.451984,0.02203 -0.210373,-0.437724 -0.170842,-0.674987 0.188811,-1.127208 0.417429,-2.247446 0.610109,-3.373818 0.108918,-0.636512 0.07326,-1.2365 -0.635818,-1.54207 -0.626971,-0.270162 -1.373642,-0.04907 -1.835025,0.541439 -0.374856,0.479824 -0.466359,1.061132 -0.572789,1.634912 -0.179687,0.967174 -0.347488,1.936579 -0.524135,2.90459 -0.182452,0.997285 -0.963402,0.492369 -1.456851,0.514395 -0.630566,0.02788 -0.249075,-0.537815 -0.210373,-0.765877 0.327031,-1.939367 0.73506,-3.864794 1.059327,-5.804719 0.150661,-0.900261 0.788967,-0.457519 1.228787,-0.543948 0.401671,-0.07862 0.712669,0.01673 0.391166,0.775635"
                 id="Fill-9" />
              <path
                 d="m 125.46756,55.95113 c -0.54542,0.352967 -0.89346,0.630099 -1.34406,0.736881 -1.65064,0.391721 -3.00908,-0.693945 -2.90679,-2.395771 0.0893,-1.489376 0.45723,-2.94167 0.76657,-4.394523 0.18605,-0.873775 0.97446,-0.340978 1.46349,-0.375829 0.45088,-0.03206 0.19213,0.45501 0.15591,0.678054 -0.18273,1.127766 -0.43208,2.244379 -0.61591,3.371866 -0.10837,0.662998 -0.047,1.291425 0.73202,1.557683 0.65102,0.222487 1.35871,-0.02983 1.7977,-0.656585 0.46222,-0.659652 0.47078,-1.456477 0.63637,-2.203117 0.16642,-0.752494 0.28557,-1.515583 0.43402,-2.27226 0.19572,-0.99617 0.97059,-0.441905 1.45823,-0.479823 0.60624,-0.04712 0.21176,0.487072 0.17665,0.69283 -0.33975,1.991783 -0.72511,3.97548 -1.09637,5.961686 -0.16587,0.886321 -0.84785,0.334845 -1.28269,0.455846 -0.46802,0.130202 -0.53022,-0.180108 -0.37514,-0.676938"
                 id="Fill-10" />
              <path
                 d="m 102.38379,53.575712 c 0.007,-1.969478 0.98054,-3.399469 2.48052,-3.97074 1.4773,-0.562628 3.00465,-0.238099 3.98906,0.872381 0.17388,0.195999 0.63996,0.478429 0.10726,0.714298 -0.38066,0.168398 -0.58108,1.070889 -1.24676,0.358264 -0.88323,-0.945149 -2.0653,-0.944312 -2.91176,-0.04489 -0.89568,0.951562 -0.96036,2.549672 -0.13436,3.328095 0.6502,0.613092 1.62383,0.66244 2.46366,2.79e-4 0.78123,-0.61588 0.84287,0.258173 1.15525,0.517462 0.47935,0.397854 -0.0663,0.575732 -0.28418,0.734651 -1.2028,0.877677 -2.49738,0.934554 -3.80799,0.287448 -1.27302,-0.628427 -1.76813,-1.751453 -1.8107,-2.79725"
                 id="Fill-11" />
              <path
                 d="m 7.1164586,50.347429 c 0.588546,-0.262076 0.9763948,-0.672198 1.5353615,-0.796824 1.7653619,-0.393115 3.2316129,0.878793 2.9745209,2.6782 -0.191575,1.341331 -0.505337,2.664818 -0.713498,4.004475 -0.09897,0.636791 -0.538786,0.377502 -0.847296,0.392558 -0.4776927,0.02342 -0.2808657,-0.347949 -0.2418873,-0.569599 0.2020793,-1.152022 0.4210223,-2.300977 0.6399643,-3.449932 0.145962,-0.765041 0.03621,-1.441979 -0.6725845,-1.883606 -0.6358177,-0.396182 -1.5621764,-0.243954 -2.1996528,0.321462 -0.5614546,0.497946 -0.8470197,1.138918 -0.9810943,1.865205 -0.1979328,1.071726 -0.4486661,2.136482 -0.5855052,3.215736 -0.089291,0.705655 -0.557308,0.545063 -0.9235943,0.494042 -0.4776926,-0.06663 -0.2009736,-0.448039 -0.1572957,-0.683351 0.531046,-2.847156 1.1082578,-5.685947 1.5931379,-8.540631 0.1114064,-0.657422 0.4530893,-0.627311 0.8660943,-0.570156 0.6106614,0.08448 0.2468631,0.517183 0.2053968,0.787066 -0.1360097,0.8866 -0.3143151,1.766787 -0.4920676,2.735355"
                 id="Fill-12" />
              <path
                 d="m 192.48302,55.286459 c 0.53989,-0.956022 0.99077,-1.751732 1.43944,-2.548835 0.41577,-0.739391 0.88572,-1.454525 1.22768,-2.227094 0.33532,-0.757791 0.81551,-1.052209 1.63046,-0.818571 0.13214,0.145536 -0.0409,0.267653 -0.10809,0.384472 -1.32222,2.297353 -2.64169,4.596936 -3.98464,6.8823 -0.66623,1.133899 -1.5279,1.991782 -2.99083,1.783794 -0.2571,-0.03652 -0.51944,-0.09953 -0.7558,-0.204365 -0.18604,-0.08281 -0.54597,-0.157245 -0.31238,-0.48512 0.162,-0.227226 0.18356,-0.733536 0.72069,-0.454173 0.69166,0.359379 1.31835,0.217746 1.8682,-0.349622 0.37623,-0.388375 0.5327,-0.773126 0.37375,-1.343561 -0.51308,-1.841506 -0.97419,-3.697511 -1.43972,-5.551842 -0.0572,-0.228899 -0.37734,-0.593576 0.0954,-0.687254 0.39531,-0.07834 0.86637,-0.193491 1.01371,0.496273 0.35219,1.649688 0.77791,3.283764 1.22215,5.123598"
                 id="Fill-13" />
              <path
                 d="m 184.59004,50.371964 c 0.45751,-0.309752 0.81136,-0.625917 1.2755,-0.767829 1.79688,-0.549803 3.40439,0.740785 3.15311,2.605711 -0.1808,1.343282 -0.50645,2.666212 -0.71461,4.006706 -0.10698,0.688927 -0.5938,0.416256 -0.90977,0.397576 -0.44286,-0.02593 -0.19987,-0.400364 -0.16255,-0.616159 0.19489,-1.127766 0.40775,-2.252186 0.62559,-3.375491 0.14845,-0.766993 0.0395,-1.445046 -0.66153,-1.891692 -0.61038,-0.389211 -1.52292,-0.266816 -2.14491,0.249252 -0.60071,0.498503 -0.90673,1.160107 -1.04606,1.916784 -0.20263,1.099049 -0.44729,2.191685 -0.60596,3.296868 -0.097,0.677775 -0.56422,0.435772 -0.89568,0.428523 -0.47575,-0.01004 -0.22806,-0.378059 -0.18936,-0.591345 0.3497,-1.938252 0.73174,-3.87037 1.0632,-5.811689 0.0901,-0.528893 0.36048,-0.573502 0.805,-0.591345 0.58854,-0.02342 0.31542,0.395067 0.40803,0.74413"
                 id="Fill-14" />
              <path
                 d="m 109.99397,56.681599 c -0.54072,0.146372 -0.57666,-0.242561 -0.45613,-0.862065 0.54349,-2.790838 1.05518,-5.587809 1.59673,-8.379203 0.0431,-0.222766 -0.0373,-0.601661 0.34998,-0.614765 0.44424,-0.01506 0.89623,-0.0064 1.33328,0.06552 0.15315,0.02509 0.0545,0.287169 0.0274,0.43382 -0.54653,2.951987 -1.10715,5.901185 -1.64345,8.854845 -0.12164,0.670526 -0.60817,0.4012 -1.20778,0.501849"
                 id="Fill-15" />
              <path
                 d="m 141.50454,53.418466 c -0.0169,0.931208 0.33533,1.673387 1.16825,2.105256 0.8578,0.444972 1.72638,0.342651 2.44043,-0.280757 0.45365,-0.396182 0.70161,-0.288005 0.9869,0.115704 0.35357,0.500176 -0.18438,0.593576 -0.39503,0.753052 -1.43032,1.082042 -3.54372,0.822196 -4.63871,-0.537257 -1.13231,-1.406013 -0.89291,-3.771394 0.51418,-5.081498 1.53896,-1.4325 3.96032,-1.322093 5.14211,0.239493 0.14486,0.191539 0.43872,0.411516 0.0218,0.617832 -0.25958,0.128529 -0.4705,0.560676 -0.839,0.07639 -0.69249,-0.910577 -1.61222,-1.160664 -2.67597,-0.737717 -1.03583,0.412073 -1.71974,1.519207 -1.725,2.7295"
                 id="Fill-16" />
              <path
                 d="m 3.4242929,55.57084 c -0.087356,1.060852 -0.2087141,1.17098 -1.2224286,1.174326 -1.0709382,0.0033 -1.7520924,-0.500176 -1.81484484,-1.375623 -0.0693871,-0.971914 0.27119007,-1.890856 0.40443534,-2.836841 0.0555649,-0.39423 0.15867798,-0.781769 0.2341468,-1.173211 0.082103,-0.424062 0.2098198,-0.881023 -0.51390658,-0.758628 -0.13628614,0.02286 -0.27340161,-0.02676 -0.25073333,-0.208267 0.0320673,-0.256779 0.0616467,-0.708722 0.24741602,-0.69283 1.28131089,0.109849 0.97418329,-0.940688 1.10079389,-1.564654 0.1138943,-0.561513 0.3781733,-0.58549 0.8097,-0.582144 0.3353248,0.0025 0.4063705,0.131317 0.3596517,0.43382 -0.082656,0.5367 -0.4959378,1.211408 -0.1697357,1.562423 0.2532213,0.272392 0.997128,0.08113 1.5229216,0.09507 0.2106491,0.0053 0.4638705,-0.03206 0.4044353,0.31031 -0.045889,0.264865 0.04589,0.638464 -0.4022238,0.647943 -0.4226805,0.0089 -0.8489548,0.03485 -1.2680416,-0.005 -0.4696757,-0.04517 -0.6501927,0.138844 -0.7176446,0.599988 -0.1346275,0.920613 -0.2689786,1.847919 -0.5050604,2.745113 -0.3765147,1.431663 -0.088738,2.065387 1.7811188,1.628221"
                 id="Fill-17" />
              <path
                 d="m 34.133458,56.621655 c -0.639135,0.113195 -0.540998,-0.229735 -0.469123,-0.606679 0.463041,-2.42616 0.899267,-4.857618 1.377236,-7.280712 0.109748,-0.556773 0.0039,-0.681957 -0.5128,-0.454452 -0.215349,0.09479 -0.448943,0.17035 -0.680602,0.197394 -0.171671,0.02007 -0.453365,0.277411 -0.516394,-0.07109 -0.04948,-0.274623 -0.259856,-0.718202 0.116105,-0.8445 0.843979,-0.283545 1.658379,-0.687812 2.569533,-0.750264 0.387296,-0.02677 0.517777,0.09814 0.44065,0.501291 -0.565049,2.948083 -1.125121,5.897003 -1.663355,8.850105 -0.08514,0.467277 -0.319291,0.554264 -0.66125,0.458912"
                 id="Fill-18" />
              <path
                 d="m 198.43649,35.384248 c 0,1.469023 -1.13839,2.653665 -2.57092,2.675133 -1.28269,0.01924 -2.27097,-0.961598 -2.27235,-2.255253 -0.001,-1.407128 1.22187,-2.656453 2.62399,-2.679873 1.29154,-0.02147 2.21928,0.923123 2.21928,2.259993 z m -0.31846,0.01478 c 0.008,-1.050537 -0.79837,-1.870781 -1.84498,-1.876915 -1.21248,-0.007 -2.29143,1.059459 -2.2989,2.271981 -0.006,1.051095 0.79892,1.875521 1.84387,1.887788 1.18677,0.01394 2.29088,-1.082042 2.30001,-2.282854 z"
                 id="Fill-19" />
              <path
                 d="M 31.283336,5.2515695 C 28.003346,4.0850497 24.661709,4.0011295 21.281094,4.6975841 11.2161,6.7710564 2.9076219,15.876546 1.7543039,25.672636 c -0.4912382,4.170643 0.2031852,8.071403 2.7105185,11.525238 1.5137989,2.085182 3.4602304,3.615821 5.9454486,4.632623 0,-0.355198 0.0069,-0.611977 -8.3e-4,-0.868199 -0.09703,-3.233858 0.124123,-6.446249 0.628354,-9.640238 1.334388,-8.456153 4.411192,-16.174867 9.450739,-23.1014968 0.870794,-1.1966308 1.864881,-1.7634412 3.31731,-1.7662292 -0.186323,0.2241591 -0.355782,0.422947 -0.520265,0.625917 -1.658932,2.0520043 -2.990278,4.26237 -3.294365,6.965384 -0.236911,2.105813 1.073979,3.211832 3.070723,2.594837 1.13452,-0.350458 2.090458,-1.011783 2.97535,-1.781285 2.760831,-2.400789 4.394882,-5.5462661 5.75802,-8.8735241 0.237188,-0.5785202 -0.178858,-0.6156013 -0.511971,-0.7340934 z m -7.626219,9.2111575 c -1.034171,0.313376 -1.697356,-0.215517 -1.678282,-1.337706 0.02847,-1.655265 1.7391,-3.9534542 3.311781,-4.449727 1.034448,-0.3264806 1.729148,0.1962787 1.720578,1.2939336 -0.01382,1.6965284 -1.735229,4.0028024 -3.354077,4.4934994 z"
                 id="Fill-20" />
              <path
                 d="m 142.35654,22.672974 c -0.65462,-2.235179 -2.06005,-3.784777 -4.38687,-4.248987 -2.05396,-0.409565 -3.93129,0.105388 -5.56921,1.438354 -0.26649,0.216632 -0.51501,0.458356 -0.75303,0.70705 -0.13656,0.142748 -0.28584,0.299715 -0.46608,0.189866 -0.17582,-0.106782 -0.004,-0.278526 0.0254,-0.425735 0.11031,-0.547294 0.20319,-1.097934 0.32787,-1.787697 -1.55334,0 -3.03258,0.01506 -4.51127,-0.0095 -0.41936,-0.0067 -0.46138,0.235312 -0.51805,0.536979 -1.50136,8.005883 -2.99664,16.012603 -4.52619,24.01291 -0.11445,0.598594 0.0959,0.591066 0.53159,0.585769 1.4024,-0.01784 2.80562,-0.0382 4.20663,0.0081 0.59186,0.01952 0.81025,-0.156131 0.9106,-0.755283 0.34887,-2.082115 0.76381,-4.153078 1.17073,-6.318277 0.79588,0.779538 1.65092,1.198303 2.64639,1.342167 2.36552,0.341536 4.43966,-0.402873 6.31864,-1.767902 3.8608,-2.80422 5.93909,-8.912836 4.59282,-13.50782 v 0 z m -5.5247,4.561806 c -0.26926,1.880261 -0.88573,3.611082 -2.13718,5.065328 -0.52635,0.611698 -1.15525,1.088454 -1.94339,1.31568 -1.47676,0.425735 -2.36663,-0.110685 -2.66187,-1.62125 -0.0708,-0.363283 -0.089,-0.736882 -0.1208,-1.012899 0.18273,-2.131463 0.56284,-4.109584 1.62161,-5.885014 0.59629,-0.999794 1.35014,-1.846246 2.55073,-2.129512 1.16742,-0.27518 2.10594,0.21942 2.52199,1.351089 0.3497,0.952119 0.31017,1.930445 0.16891,2.916578 z"
                 id="Fill-21" />
              <path
                 d="m 70.653996,18.423708 c -1.446899,-0.24256 -2.901263,-0.161149 -4.327983,0.197952 -7.32075,1.841785 -9.981508,10.667634 -8.407168,15.61196 0.717921,2.254417 2.232549,3.686916 4.66469,3.799554 1.93178,0.08977 3.631901,-0.559004 4.968224,-2.036949 0.13905,-0.1539 0.20982,-0.418208 0.554544,-0.417092 -0.119424,0.662719 -0.232212,1.2878 -0.365181,2.026354 1.685193,0 3.323115,-0.0092 4.960484,0.0072 0.369327,0.0036 0.405817,-0.187636 0.46,-0.481496 0.458895,-2.486661 0.94101,-4.969141 1.405987,-7.454686 0.332283,-1.777939 0.793942,-3.539708 0.765469,-5.367553 -0.05225,-3.31973 -1.677453,-5.381771 -4.679066,-5.885293 v 0 z M 67.91611,31.808017 c -0.456406,0.643203 -1.04744,1.134458 -1.771167,1.428597 -1.34351,0.546736 -2.420807,0.0081 -2.82303,-1.397928 -0.146791,-0.512444 -0.233318,-1.039943 -0.200698,-1.586958 0.147897,-2.487219 0.921936,-4.722955 2.64362,-6.571153 0.403329,-0.432984 0.882404,-0.761974 1.440265,-0.957416 1.406816,-0.492927 2.741204,0.255943 2.689509,1.731378 -0.09067,2.580061 -0.416599,5.151758 -1.978499,7.35348 z"
                 id="Fill-22" />
              <path
                 d="m 160.81488,23.151961 c -0.33256,-2.437034 -1.78223,-4.095923 -4.15935,-4.634017 -1.33577,-0.302503 -2.67928,-0.287727 -4.01367,-0.04433 -3.4547,0.629542 -5.9836,2.609614 -7.65774,5.651655 -1.71615,3.11899 -2.50761,6.449873 -1.50412,9.991253 0.80915,2.856078 3.00797,4.233653 5.90896,3.84472 1.70676,-0.228899 3.06823,-1.057786 4.2445,-2.571975 0.039,0.721825 -0.12357,1.228414 -0.24908,1.734166 -0.10118,0.407334 0.0254,0.495994 0.41605,0.490418 1.45464,-0.02035 2.90955,-0.02203 4.3642,0.0011 0.40719,0.0064 0.52358,-0.139123 0.59545,-0.530287 0.49898,-2.722251 1.04302,-5.435859 1.54559,-8.157274 0.35191,-1.90619 0.77874,-3.800669 0.50921,-5.775444 v 0 z m -5.31295,1.570508 c -0.12163,2.121427 -0.42434,4.243969 -1.42147,6.172183 -0.54791,1.05918 -1.29541,1.955817 -2.45619,2.375418 -1.31559,0.47592 -2.29198,-0.03457 -2.7036,-1.381199 -0.1725,-0.56458 -0.22171,-1.147283 -0.22226,-1.738628 0.14596,-2.291776 0.8777,-4.358557 2.33759,-6.142909 0.40776,-0.498503 0.89457,-0.903606 1.48173,-1.172653 1.60337,-0.734651 3.0851,0.131038 2.9842,1.887788 z"
                 id="Fill-23" />
              <path
                 d="m 182.48686,30.35628 c 0.73534,0.04879 1.47952,-2.79e-4 2.2179,-0.0421 2.14547,-0.121001 4.26855,-0.369416 6.22051,-1.374229 2.12584,-1.094588 3.24018,-3.055144 3.0287,-5.34023 -0.22723,-2.457107 -1.51684,-4.100384 -3.8337,-4.874904 -2.00006,-0.668574 -4.01533,-0.547572 -5.99687,0.100928 -4.97734,1.628778 -8.32589,7.329781 -7.52753,12.67029 0.48295,3.232743 2.13331,5.43335 5.33783,6.173856 3.18407,0.735487 6.2957,0.281314 9.29676,-0.993382 0.20346,-0.08671 0.37928,-0.157804 0.42655,-0.411795 0.27147,-1.457871 0.55178,-2.914348 0.85255,-4.49322 -1.02836,0.499618 -1.90773,0.979163 -2.86864,1.259083 -1.79743,0.523596 -3.60924,0.8445 -5.45946,0.294139 -1.14227,-0.339863 -1.94505,-1.039664 -2.22094,-2.261387 -0.10367,-0.458634 -0.10477,-0.749149 0.52634,-0.707049 z m 3.75603,-7.897986 c 0.48598,-0.08225 0.95096,-0.03039 1.40045,0.123232 0.55925,0.190981 0.94931,0.579357 1.05131,1.186594 0.10174,0.603333 -0.12633,1.094867 -0.59103,1.473205 -0.61923,0.5038 -1.37558,0.664671 -2.12805,0.777308 -1.14503,0.171186 -2.30166,0.241166 -3.51608,0.197394 0.49484,-2.079048 1.89447,-3.438501 3.7834,-3.757733 z"
                 id="Fill-24" />
              <path
                 d="m 82.612621,49.48174 c -0.74363,-0.235869 -1.423402,0.1026 -1.618294,0.83056 -0.0152,0.05688 -0.08763,0.09786 -0.134351,0.147209 -1.311443,-1.364471 -3.003824,-1.505825 -4.425844,-0.390884 -1.43059,1.121911 -1.924316,3.26843 -1.070109,4.652138 0.890974,1.442816 2.512309,1.6706 4.603044,0.646549 -0.06469,1.172932 -0.633054,1.824499 -1.743246,1.972266 -0.985241,0.13076 -1.873175,-0.166446 -2.719918,-0.649337 -0.742801,-0.423504 -0.670096,0.427687 -0.964508,0.677496 -0.391719,0.332336 0.01769,0.46895 0.25571,0.604449 0.746118,0.425457 1.555818,0.672478 2.401455,0.757514 2.580038,0.259846 3.914702,-0.546458 4.420316,-2.781916 0.451154,-1.996243 0.781226,-4.020088 1.162993,-6.031945 0.0329,-0.174253 0.111959,-0.345439 -0.167248,-0.434099 z m -4.279329,5.176014 c -1.001275,-0.02704 -1.62797,-0.674708 -1.621888,-1.677012 0.0069,-1.22256 0.981647,-2.191128 2.17422,-2.161296 0.993811,0.02481 1.734124,0.76532 1.715325,1.715208 -0.02239,1.129439 -1.116551,2.154047 -2.267657,2.1231 z"
                 id="Fill-25" />
              <path
                 d="m 136.84317,46.81999 c -0.90397,-0.191818 -1.34738,0.0067 -1.46404,0.614207 -0.19379,1.008716 -0.39034,2.017153 -0.60126,3.106723 -0.53741,-0.48986 -0.97474,-0.942918 -1.6241,-1.097376 -2.13856,-0.509098 -4.1823,1.063362 -4.41838,3.421494 -0.29662,2.960351 1.83751,4.569891 4.53421,3.406717 0.27036,-0.11654 0.27506,-0.0084 0.43871,0.175647 0.36767,0.413468 0.92553,0.15418 1.40018,0.174253 0.41052,0.01729 0.29027,-0.383914 0.33312,-0.607794 0.53491,-2.793347 1.05932,-5.588924 1.5666,-8.387568 0.0481,-0.265143 0.44839,-0.676101 -0.16504,-0.806303 z m -4.66303,8.467026 c -1.02781,-0.03318 -1.73606,-0.859276 -1.71173,-1.996801 0.0293,-1.378969 1.01924,-2.493073 2.19412,-2.468538 1.08974,0.02286 1.81457,0.825262 1.80102,1.994012 -0.0157,1.359453 -1.07895,2.510081 -2.28341,2.471327 z"
                 id="Fill-26" />
              <path
                 d="m 99.107114,46.880211 c -0.439266,-0.06524 -0.891526,-0.07082 -1.337152,-0.05381 -0.388678,0.01478 -0.301599,0.366907 -0.3497,0.609747 -0.202633,1.01931 -0.401394,2.039457 -0.621166,3.159974 -0.50893,-0.609188 -0.988282,-1.001188 -1.63571,-1.155367 -2.310506,-0.550919 -4.41064,1.320978 -4.396541,3.934495 0.0069,1.278042 0.412729,2.368726 1.579869,3.011651 1.129544,0.622292 2.228402,0.495157 3.263955,-0.332057 0.125505,0.974702 0.844256,0.467556 1.306192,0.577963 0.514735,0.122953 0.510866,-0.280757 0.574724,-0.619784 0.546526,-2.900129 1.098582,-5.799142 1.647044,-8.698713 0.02875,-0.151391 0.103389,-0.414026 -0.03151,-0.4341 v 0 z m -4.820327,8.411824 c -1.042741,0.0064 -1.762597,-0.776472 -1.773655,-1.929609 -0.01327,-1.376739 0.934375,-2.516214 2.113126,-2.541028 1.080891,-0.02286 1.872898,0.785672 1.882573,1.921245 0.01189,1.353876 -1.023666,2.541864 -2.222044,2.549392 z"
                 id="Fill-27" />
              <path
                 d="m 31.717074,49.380813 c -1.188426,-0.08281 -1.188426,-0.07974 -0.978883,-1.301183 0.01825,-0.105109 0.0066,-0.221092 0.04672,-0.315328 0.333113,-0.780096 -0.169459,-0.722384 -0.672861,-0.71625 -0.305469,0.0036 -0.32012,0.185684 -0.358269,0.405661 -0.08625,0.498225 -0.200421,0.991709 -0.282248,1.490491 -0.03787,0.230572 -0.08597,0.431033 -0.362416,0.426293 -0.631118,-0.0106 -1.367285,0.156688 -1.856035,-0.118213 -0.330625,-0.185963 0.08238,-0.95435 0.142644,-1.464841 0.003,-0.02649 2.77e-4,-0.05493 0.0091,-0.07918 0.210926,-0.57629 -0.02654,-0.686139 -0.573065,-0.671641 -0.54321,0.0145 -0.479075,0.376108 -0.536299,0.69757 -0.267319,1.501643 -0.266214,1.501922 -1.669159,1.643555 -0.05252,0.0053 -0.109472,-0.0075 -0.158125,0.0078 -0.440097,0.140238 -0.314039,0.554542 -0.381491,0.858998 -0.06524,0.293581 0.195445,0.237262 0.368774,0.254827 1.269148,0.127135 1.269424,0.127414 1.040253,1.450343 -0.02737,0.157246 -0.08984,0.313377 -0.08818,0.469787 0.0064,0.617831 -0.284736,0.850633 -0.87964,0.749706 -0.801407,-0.135778 -1.264724,0.128808 -1.140049,1.096261 h 1.667778 c -0.112236,0.589672 -0.249351,1.107971 -0.293582,1.634076 -0.0199,0.23559 -0.391995,0.664671 0.207332,0.734093 0.436226,0.05019 0.769616,0.05019 0.87577,-0.582702 0.308509,-1.837882 0.346658,-1.831749 2.221491,-1.786861 0.103943,0.0025 0.207609,0.02035 0.367945,0.0368 -0.09592,0.566532 -0.204844,1.110759 -0.272849,1.660284 -0.0282,0.228898 -0.36988,0.601103 0.159784,0.665507 0.390337,0.04768 0.879087,0.164495 0.905902,-0.516904 0.0105,-0.263471 0.127717,-0.523875 0.129928,-0.786509 0.008,-0.87266 0.398354,-1.221723 1.268042,-1.074514 0.239399,0.04043 0.577488,0.163658 0.715156,-0.272393 0.204844,-0.648221 0.0962,-0.861507 -0.628353,-0.793478 -0.774039,0.07277 -1.076744,-0.130481 -0.768787,-0.91922 0.0094,-0.02426 0.0075,-0.05269 0.01272,-0.0789 0.100625,-0.495436 0.08597,-1.062247 0.332283,-1.467629 0.292753,-0.481217 0.90452,-0.160592 1.372537,-0.210219 0.593246,-0.06301 0.37071,-0.561234 0.467188,-0.859277 0.115,-0.356313 -0.231106,-0.25427 -0.41107,-0.266816 v 0 z m -2.743415,2.218172 c -0.30768,1.70294 -0.409688,1.763441 -2.195506,1.579708 -0.349147,-0.03569 -0.382044,-0.168119 -0.326755,-0.446924 0.07215,-0.365792 0.127163,-0.734651 0.196827,-1.101 0.215625,-1.132227 0.217007,-1.131948 1.378895,-1.132506 1.145578,-5.58e-4 1.145578,-5.58e-4 0.946539,1.100722 z"
                 id="Fill-28" />
              <path
                 d="m 116.85831,49.324215 c -2.06447,0.0072 -3.81905,1.784073 -3.83315,3.880965 -0.0138,2.048658 1.58899,3.631434 3.63826,3.592959 2.09931,-0.03931 3.78699,-1.789928 3.77289,-3.913585 -0.0136,-2.045313 -1.54338,-3.567588 -3.578,-3.560339 z m -0.29302,5.96782 c -1.07619,-0.01506 -1.82204,-0.823311 -1.83309,-1.987043 -0.0124,-1.30871 0.94875,-2.434803 2.104,-2.464357 1.11683,-0.02872 1.89778,0.783721 1.90524,1.982025 0.009,1.361962 -0.98192,2.486103 -2.17615,2.469375 z"
                 id="Fill-29" />
              <path
                 d="m 57.214193,49.585456 c -1.012333,-0.28466 -2.032405,-0.185685 -3.054137,0.02454 -0.626418,0.128807 -0.82518,0.368858 -0.582741,1.023771 0.164207,0.4433 0.22696,0.695618 0.783991,0.452222 0.556479,-0.243118 1.183174,-0.249531 1.793836,-0.178435 0.412175,0.04795 0.763534,0.214679 0.981647,0.588278 0.170012,0.29163 0.217007,0.647943 0.05639,0.912528 -0.148173,0.244512 -0.425721,-0.0089 -0.643005,-0.04712 -1.132308,-0.198788 -2.255771,-0.309752 -3.316481,0.290794 -0.821863,0.465604 -1.197272,1.290309 -1.060433,2.304601 0.117212,0.86792 0.733679,1.523669 1.632669,1.728033 0.963402,0.218862 1.82148,-0.01756 2.69255,-0.735487 0.0022,0.37332 -0.143473,0.791248 0.3497,0.678611 0.436226,-0.09981 1.139219,0.383915 1.280205,-0.342372 0.2875,-1.4838 0.720685,-2.950872 0.739207,-4.477886 0.01438,-1.170981 -0.529111,-1.905911 -1.653402,-2.222075 v 0 z m -0.768787,5.266625 c -0.437055,0.465325 -0.978606,0.722383 -1.618018,0.652403 -0.502572,-0.05492 -0.907007,-0.29386 -0.978606,-0.863459 -0.06883,-0.547015 0.196551,-0.92368 0.675073,-1.130275 0.310721,-0.134105 0.646046,-0.222486 0.99768,-0.192654 0.155361,0.02091 0.320121,0.01589 0.464147,0.06859 0.327032,0.119329 0.852273,-0.08922 0.958979,0.350179 0.101178,0.415698 -0.205673,0.802401 -0.499255,1.11522 v 0 z"
                 id="Fill-30" />
              <path
                 d="m 72.603745,49.647908 c -1.213859,-0.400922 -2.452045,-0.317559 -3.653187,0.105388 -0.6994,0.246185 -0.121082,0.695897 -0.110301,1.049979 0.01216,0.408729 0.210373,0.463095 0.578594,0.315886 0.623655,-0.249251 1.288499,-0.295254 1.950026,-0.204085 0.528005,0.07305 0.961466,0.30808 1.069003,0.903886 0.08597,0.476199 0.07713,0.758907 -0.58827,0.587442 -1.109916,-0.286054 -2.249965,-0.368023 -3.326709,0.182896 -0.907284,0.46421 -1.31476,1.338263 -1.156359,2.406923 0.133246,0.89803 0.777633,1.524226 1.741312,1.71242 0.942392,0.18429 1.759556,-0.100091 2.610722,-0.771454 -0.126057,0.563744 0.02212,0.82136 0.515842,0.700637 0.411623,-0.100648 1.017032,0.321462 1.141707,-0.53196 0.184388,-1.262986 0.487092,-2.508129 0.680878,-3.77 0.202909,-1.319583 -0.323438,-2.314917 -1.453258,-2.687958 z m -0.864712,5.077595 c -0.451707,0.536142 -1.017585,0.849519 -1.727489,0.775914 -0.507825,-0.05269 -0.915301,-0.2986 -0.989111,-0.862065 -0.0716,-0.546178 0.208714,-0.917268 0.688618,-1.127208 0.314592,-0.137729 0.651298,-0.212728 1.002657,-0.19349 0.182175,0.02593 0.371815,0.02788 0.545145,0.08253 0.308786,0.09675 0.794495,-0.06942 0.889868,0.326759 0.08266,0.344045 -0.165866,0.708165 -0.409688,0.997564 v 0 z"
                 id="Fill-31" />
              <path
                 d="m 88.222745,49.491498 c -1.566047,-0.51077 -3.357118,0.167283 -4.277118,1.619299 -0.917236,1.447555 -0.857801,3.409784 0.138221,4.555394 1.022837,1.176557 2.990002,1.479896 4.52564,0.69757 0.913919,-0.465604 0.912813,-0.553149 0.286394,-1.324881 -0.279759,-0.344603 -0.452536,-0.261519 -0.769616,-0.07221 -1.232933,0.736882 -2.608787,0.416814 -3.050819,-0.670804 -0.17167,-0.42239 -0.188533,-0.699801 0.420193,-0.657143 0.657103,0.046 1.320289,0.01031 1.98071,0.01031 0.68696,-2.78e-4 1.373919,-0.0047 2.060602,0.0022 0.250734,0.0025 0.444243,-0.01645 0.555097,-0.311704 C 90.6289,51.912362 89.695077,49.9716 88.222745,49.491498 Z m 0.303257,2.857193 c -0.127716,0.323972 -0.512801,0.135221 -0.77708,0.14247 -0.868858,0.02426 -1.738823,0.0092 -2.713006,0.0092 0.30851,-0.972472 0.868306,-1.545694 1.776143,-1.71939 0.576935,-0.110407 1.104664,0.02565 1.484496,0.520529 0.237464,0.310031 0.36601,0.700915 0.229447,1.047191 z"
                 id="Fill-32" />
              <path
                 d="m 173.78169,50.859315 c -0.95815,-1.540118 -2.26434,-1.666138 -4.99725,-0.377223 0.76685,-1.106577 -0.0528,-0.808534 -0.51253,-0.835299 -0.47935,-0.0276 -0.36214,0.400364 -0.40747,0.632608 -0.51114,2.608778 -1.00432,5.22118 -1.47151,7.838322 -0.0321,0.178714 -0.38536,0.633723 0.21618,0.622013 0.35026,-0.0067 0.79395,0.197394 0.87826,-0.468671 0.11915,-0.942639 0.34196,-1.871896 0.54349,-2.927451 1.70482,1.701825 3.31371,1.89671 4.83691,0.66021 1.45105,-1.17823 1.87981,-3.591565 0.91392,-5.144509 z m -3.20369,4.922859 c -1.25477,0.007 -2.22177,-0.985018 -2.23476,-2.292892 -0.0158,-1.555731 1.26721,-2.977079 2.69918,-2.990183 1.20667,-0.01115 2.09626,0.958532 2.11423,2.304881 0.0221,1.614838 -1.15166,2.970108 -2.57865,2.978194 z"
                 id="Fill-33" />
              <path
                 d="m 17.210755,49.609154 c -2.077741,-0.547573 -4.100194,0.840039 -4.54112,3.115366 -0.288053,1.487146 0.298281,2.929682 1.465421,3.604669 1.213859,0.70231 3.086204,0.553707 4.114847,-0.306407 0.247692,-0.206873 0.319291,-0.344602 0.08763,-0.637626 -0.268702,-0.339585 -0.434291,-0.362447 -0.81357,-0.110128 -1.511035,1.006764 -3.260086,0.495436 -3.706541,-1.025166 -0.13988,-0.476478 -0.119423,-0.757234 0.500361,-0.717644 0.684748,0.04377 1.374472,0.01004 2.061984,0.0098 0.74059,0 1.481179,0.0017 2.221768,-8.36e-4 0.234977,-8.37e-4 0.444244,0.01896 0.549292,-0.308358 0.465529,-1.451459 -0.47714,-3.238041 -1.940074,-3.623628 v 0 z m 0.439544,3.057375 c -1.239845,-0.01701 -2.480242,-0.0061 -3.819606,-0.0061 0.307128,-1.106855 0.873282,-1.809165 1.872345,-2.108601 1.237357,-0.37109 2.215963,0.276574 2.422742,1.550155 0.07188,0.442184 -0.05031,0.570435 -0.475481,0.56458 v 0 z"
                 id="Fill-34" />
              <path
                 d="m 180.11001,49.897159 c -1.20031,-0.547851 -2.41638,-0.397575 -3.63301,-0.04795 -0.38176,0.10957 -0.29303,0.362168 -0.20595,0.626196 0.0843,0.255943 0.11998,0.475362 0.51833,0.322577 0.67203,-0.257894 1.39355,-0.321741 2.10788,-0.206315 0.63195,0.102042 1.15304,0.381126 1.30508,1.0918 0.16614,0.778144 0.0138,0.936505 -0.74529,0.787345 -1.14972,-0.226111 -2.30304,-0.367465 -3.40549,0.187078 -0.88821,0.446645 -1.28159,1.240682 -1.15636,2.239082 0.11776,0.937621 0.70078,1.55601 1.66446,1.782121 1.11406,0.261519 2.06585,-0.08336 2.89159,-0.78846 0.28114,0.198509 -0.29801,0.72545 0.30851,0.733257 0.26677,0.0033 0.69746,0.231687 0.78371,-0.264865 0.27147,-1.568835 0.76326,-3.107002 0.74806,-4.715985 -0.008,-0.807698 -0.44425,-1.409359 -1.18152,-1.745877 v 0 z m -0.14209,3.985517 c -0.22558,1.101558 -1.3272,1.985091 -2.47499,1.980909 -0.84896,-0.0031 -1.40018,-0.422111 -1.48477,-1.128602 -0.084,-0.703704 0.33781,-1.296165 1.12954,-1.503874 0.86748,-0.227226 1.73136,-0.05074 2.59082,0.101485 0.35468,0.06301 0.28971,0.305012 0.2394,0.550082 z"
                 id="Fill-35" />
              <path
                 d="m 150.97104,49.484249 c -2.06807,0.02063 -3.69991,1.729985 -3.69714,3.872601 0.002,1.996522 1.41677,3.440174 3.37204,3.441568 2.05563,0.0017 3.79224,-1.805262 3.77482,-3.927246 -0.016,-1.955817 -1.49361,-3.406718 -3.44972,-3.386923 z m -0.38757,6.290118 c -1.32112,-0.02007 -2.20491,-0.985296 -2.19689,-2.399395 0.009,-1.595043 1.22961,-2.906541 2.67569,-2.874757 1.32388,0.02872 2.24747,1.015128 2.2378,2.389636 -0.0108,1.539561 -1.2979,2.906263 -2.7166,2.884516 z"
                 id="Fill-36" />
              <path
                 d="m 197.23009,35.050797 c -0.0395,0.09451 -0.0633,0.332336 -0.18936,0.41988 -0.49456,0.342652 -0.57832,0.73493 -0.26815,1.240404 0.0719,0.117098 0.0954,0.266816 -0.0802,0.317558 -0.12827,0.0368 -0.26317,0.0106 -0.32509,-0.144699 -0.0296,-0.07361 -0.0556,-0.149997 -0.0945,-0.218862 -0.14071,-0.2473 -0.0254,-0.728517 -0.49898,-0.672478 -0.38453,0.04572 -0.2933,0.436051 -0.35025,0.699801 -0.0351,0.162264 -0.0633,0.352688 -0.26068,0.322577 -0.31432,-0.04795 -0.13435,-0.284939 -0.10809,-0.438839 0.10726,-0.62759 0.29552,-1.248767 0.33035,-1.879145 0.0451,-0.814947 0.59849,-0.592182 1.02062,-0.57155 0.4893,0.02398 0.8661,0.247021 0.82435,0.925353 v 0 z m -1.50412,0.04294 c -0.0351,0.233081 -0.12385,0.46198 0.23055,0.456404 0.42075,-0.007 0.80943,-0.09424 0.87356,-0.584375 0.0453,-0.347391 -0.2499,-0.388097 -0.52275,-0.429639 -0.47521,-0.07277 -0.59574,0.185406 -0.58136,0.55761 z"
                 id="Fill-37" />
            </g>
          </g>
        </g>
      </g>
    </g>
  </g>
  <metadata
     id="metadata8646">
    <rdf:RDF>
      <cc:Work
         rdf:about="">
        <dc:title>rackspace-color</dc:title>
      </cc:Work>
    </rdf:RDF>
  </metadata>
</svg>
