<?xml version="1.0" encoding="UTF-8" standalone="no"?>
<svg width="199px" height="60px" viewBox="0 0 199 60" version="1.1" xmlns="http://www.w3.org/2000/svg" xmlns:xlink="http://www.w3.org/1999/xlink" xmlns:sketch="http://www.bohemiancoding.com/sketch/ns">
    <!-- Generator: Sketch 3.3.3 (12072) - http://www.bohemiancoding.com/sketch -->
    <title>rackspace-color</title>
    <desc>Created with Sketch.</desc>
    <defs></defs>
    <g id="Page-1" stroke="none" stroke-width="1" fill="none" fill-rule="evenodd" sketch:type="MSPage">
        <g id="rackspace-color" sketch:type="MSLayerGroup" fill="#B1B1B1">
            <g id="Page-1" sketch:type="MSShapeGroup">
                <g id="About---Desktop">
                    <g id="Imported-Layers-+-Imported-Layers-+-Imported-Layers">
                        <g id="Imported-Layers" transform="translate(0.561924, 0.586081)">
                            <path d="M22.1297728,2.96676319 C22.8794848,2.14986476 23.6316848,1.33547558 24.3769736,0.514116279 C24.5320579,0.343208861 24.7053873,0.29218756 24.9323466,0.281871777 C32.883385,-0.0794594031 39.7612736,4.55511484 41.3035462,12.7745628 C42.164941,17.3659223 41.3231736,21.754033 39.1984368,25.8597143 C35.6707544,32.6756582 30.2701743,37.2444345 22.8601338,39.2535028 C19.7504324,40.0966089 16.602582,40.1587824 13.4486498,39.3968085 C12.779659,39.2351016 12.453457,39.0156822 12.462303,38.2169061 C12.5032166,34.4636342 13.022099,30.8338729 14.893891,27.5138639 C15.4329539,26.557563 16.1044327,25.6988438 16.9890486,25.0336152 C18.7441818,23.7134739 20.6953128,23.7670045 22.3539676,25.2145596 C24.1718533,26.8015172 25.011962,28.9524972 25.6372749,31.2063563 C26.0215299,32.5906227 26.210893,34.0142007 26.3267224,35.5646349 C27.092468,35.0873208 27.7996079,34.6401177 28.5136588,34.2043456 C28.8965316,33.970707 28.6665315,33.7094669 28.5667357,33.4524088 C27.407336,30.4680809 26.7466385,27.3995538 26.9152684,24.16932 C27.1104368,20.4280368 28.2759183,16.9739226 29.8776259,13.6408097 C31.112771,11.070507 32.594779,8.6471347 34.2307655,6.32106522 C34.5378931,5.8841779 34.4676768,5.69849383 34.0621356,5.4194101 C31.8829396,3.91971842 29.444717,3.22716699 26.8505809,3.01388122 C25.3005679,2.88646737 23.7508314,2.93832509 22.1297728,2.96676319" id="Fill-1"></path>
                            <path d="M108.379271,36.6385914 C108.0926,36.9759453 108.658202,37.17083 108.439812,37.57677 C106.631049,37.57677 104.74267,37.5803944 102.854292,37.5739819 C102.460638,37.5725879 102.452621,37.1987105 102.341491,36.9519681 C101.021755,34.025074 99.7114171,31.0939979 98.398039,28.1645946 C98.3344571,28.0226829 98.2650705,27.8835591 98.12132,27.5813347 C97.6602143,30.0208777 97.2303467,32.2956471 96.8002019,34.5704165 C96.6420771,35.4068312 96.4651533,36.240458 96.3352257,37.0816124 C96.2804895,37.4345794 96.166319,37.5898738 95.7892514,37.5856917 C94.2552724,37.5692422 92.7204638,37.55809 91.1870374,37.5893162 C90.562001,37.6018624 90.7389242,37.2198996 90.7961478,36.912099 C91.3744654,33.7972904 91.9619057,30.6844334 92.5510046,27.5718552 C93.4864859,22.6303169 94.4352365,17.6910088 95.3483257,12.745567 C95.4445276,12.225317 95.5971238,12.0301536 96.141439,12.0457667 C97.5159114,12.0850782 98.8928714,12.089539 100.267067,12.0449303 C100.874688,12.0251351 101.046358,12.1709501 100.924447,12.7968671 C100.142115,16.8200222 99.3888095,20.8487533 98.6266571,24.8758117 C98.494241,25.575612 98.3659724,26.27597 98.1992771,27.1728854 C99.9159848,25.1819395 101.505806,23.3368085 103.096732,21.4927928 C103.893715,20.569112 104.530087,19.292743 105.53606,18.8243509 C106.54314,18.355401 107.9201,18.6908032 109.134789,18.6802087 C109.915738,18.6735173 110.696965,18.6790934 111.631617,18.6790934 C109.758995,20.8108359 107.997228,22.8168373 106.235184,24.8225599 C105.989979,25.1016436 105.780435,25.4286818 105.491,25.648659 C104.055158,26.740459 104.006781,27.9036331 104.879233,29.4825054 C106.056049,31.6120174 106.943152,33.903515 107.972901,36.1169474 C108.06468,36.3146201 108.021554,36.6698175 108.39807,36.6575501 L108.379271,36.6385914" id="Fill-2"></path>
                            <path d="M108.39807,36.6575501 C108.652672,35.2203108 108.907552,33.7827926 109.179296,32.2496443 C110.458395,32.900375 111.70681,33.4273163 113.050596,33.6746163 C113.857531,33.8232192 114.662809,33.9620641 115.482184,33.7682947 C116.169696,33.6057514 116.716223,33.2600333 116.897017,32.5312372 C117.062606,31.8637783 116.759625,31.3418554 116.289396,30.897998 C115.839901,30.4739357 115.295309,30.2001493 114.762328,29.9060101 C114.276895,29.6380786 113.787591,29.3748868 113.319022,29.078517 C109.016748,26.3568234 110.646652,21.5362863 113.35717,19.7954284 C115.320466,18.5343937 117.475888,18.2268719 119.730275,18.3199927 C120.842404,18.3657168 121.927717,18.5759356 122.994509,18.9116168 C123.577802,19.0950704 123.774906,19.3883731 123.634196,20.0064837 C123.37434,21.1462382 123.177513,22.3004906 122.941984,23.5144072 C121.722044,22.9434148 120.470312,22.562846 119.143111,22.4825502 C118.477162,22.4424023 117.814806,22.470004 117.203038,22.758567 C116.204529,23.2294686 116.036451,24.2384636 116.800538,25.0366821 C117.325503,25.5850914 117.995599,25.905717 118.65602,26.240283 C119.676092,26.7569085 120.654423,27.3404472 121.443943,28.1841109 C123.534953,30.4181748 123.068042,34.2043456 120.448473,36.1994736 C118.493472,37.6882919 116.215863,38.0275975 113.849791,37.9874496 C111.927963,37.9551083 110.110907,37.4671996 108.379271,36.6385914 L108.39807,36.6575501" id="Fill-3"></path>
                            <path d="M175.648783,32.2805916 C175.35133,33.8438509 175.069083,35.3006066 174.80038,36.7598715 C174.752003,37.0230634 174.571486,37.0913706 174.367471,37.1616294 C171.595307,38.115421 168.78665,38.4195972 165.986565,37.3729635 C163.077285,36.2859031 161.386562,33.4395837 161.51345,30.0679958 C161.733221,24.2309359 165.250399,19.9167085 170.885955,18.6381091 C172.845932,18.1934152 174.818902,18.2447153 176.784685,18.7092044 C177.412209,18.8575286 177.647738,19.1023193 177.478555,19.7848338 C177.216211,20.8423409 177.022702,21.919643 176.853795,22.9969453 C176.779155,23.4717501 176.67853,23.5757443 176.213002,23.3599493 C175.050285,22.8212982 173.806293,22.7189768 172.563961,22.9579126 C169.115617,23.6214683 166.727984,27.3454657 167.49373,30.8096169 C167.831542,32.337189 169.061434,33.3657004 170.665907,33.4596576 C172.205691,33.5499905 173.650932,33.1828044 175.040056,32.5412743 C175.200392,32.4671121 175.3646,32.4018718 175.648783,32.2805916" id="Fill-4"></path>
                            <path d="M90.0693805,32.2778036 C89.769164,33.8449661 89.49051,35.2760717 89.2242959,36.7096867 C89.1789593,36.9541986 89.0512429,37.0685086 88.827601,37.1446223 C85.8666256,38.1525021 82.878006,38.499893 79.9427399,37.1638599 C77.4558634,36.0319119 76.1925213,33.9224738 76.006752,31.2306123 C75.4809584,23.6220259 81.102969,18.036727 88.8878654,18.3651591 C89.7901736,18.4030766 90.6667727,18.5731476 91.535355,18.8229568 C91.9298384,18.9364304 92.0124947,19.09284 91.9245859,19.5010104 C91.6666651,20.6970835 91.4482755,21.902636 91.2506192,23.1104189 C91.1773619,23.5595736 91.0294652,23.511898 90.6786597,23.3758411 C85.2147743,21.2549721 81.2962022,25.9606416 81.8593155,30.4340667 C82.0818517,32.2016898 83.3277779,33.3598455 85.0997742,33.4593789 C85.9501112,33.5070545 86.7869026,33.4150489 87.6145713,33.2087332 C88.4110021,33.010503 89.1551852,32.6725913 90.0693805,32.2778036" id="Fill-5"></path>
                            <path d="M52.7634689,21.6801496 C53.4161495,21.0559054 53.9167869,20.3435589 54.5821839,19.7756332 C55.8010188,18.7348545 57.1876542,18.1861664 58.7995903,18.2541948 C59.2980161,18.2751051 59.5493023,18.3606982 59.3928358,19.002786 C59.0467298,20.4238547 58.7924028,21.8686218 58.5375229,23.3106009 C58.4697944,23.6945152 58.3863088,23.8559432 57.9495297,23.8196987 C55.5677013,23.6217471 53.9991668,24.8220023 52.926017,26.8530962 C52.0151391,28.5775047 51.7400789,30.4795118 51.3870618,32.3606087 C51.0829751,33.9821381 50.7534557,35.5994854 50.4947055,37.2285426 C50.4153666,37.7264882 50.2152222,37.8087356 49.7792724,37.8017655 C48.351447,37.7780671 46.9225159,37.7666361 45.4952434,37.8056688 C44.9163729,37.8212819 44.7889329,37.6651511 44.9000628,37.0927646 C45.7144623,32.88755 46.5001118,28.677038 47.296819,24.4684777 C47.6282735,22.7161888 47.971615,20.966409 48.2936706,19.2124472 C48.3578052,18.8633835 48.4302331,18.6551162 48.8695002,18.666826 C50.1908952,18.701119 51.513949,18.6921972 52.8361732,18.671287 C53.2414379,18.6645956 53.3340462,18.7853181 53.2475196,19.1778754 C53.0650676,20.0073201 52.9224233,20.8454077 52.7634689,21.6801496" id="Fill-6"></path>
                            <path d="M39.9426199,56.6386626 C40.376911,54.3293214 40.7713945,52.1016701 41.2258659,49.8868437 C41.391455,49.0799823 42.0927894,49.6133361 42.5353739,49.4937288 C42.9613717,49.3785824 43.0166602,49.6665878 42.8455423,50.1377682 C43.455098,49.7427016 43.9145453,49.3788611 44.5066851,49.343453 C45.2287529,49.2999593 45.9369985,49.4535809 46.3347992,50.0775463 C46.7196071,50.6806013 46.9252803,50.4926869 47.2890786,50.1018024 C47.8256534,49.524955 48.5502091,49.3214273 49.3082145,49.3331371 C50.6669291,49.3540475 51.6712447,50.4249372 51.5103551,51.8133857 C51.33592,53.3180959 51.0735761,54.8222485 50.7056311,56.2898776 C50.5217969,57.0234133 49.7499695,56.5907081 49.2656423,56.6057636 C48.7697045,56.6210979 49.0732383,56.1811437 49.1133225,55.9497356 C49.2988154,54.874385 49.5116761,53.804053 49.7098853,52.730654 C49.8912316,51.7481454 49.6377339,51.1481572 48.9634907,50.9449084 C48.267685,50.7352471 47.4513504,51.1565213 47.126254,51.977323 C46.7422754,52.9475642 46.6974917,54.0042349 46.4650036,55.0149027 C46.381518,55.3773491 46.3270589,55.7470444 46.2690059,56.115067 C46.2131645,56.4685915 46.0862774,56.649536 45.6616618,56.6531604 C44.4596899,56.663755 44.4638366,56.6919143 44.6885843,55.4766036 C44.8773945,54.4550624 45.0717335,53.4343576 45.2323467,52.4080767 C45.3246784,51.8178467 45.2160365,51.2666493 44.5937645,51.0070819 C43.9515887,50.7388716 43.4028504,50.954109 42.9508669,51.444248 C42.576011,51.8504669 42.4419363,52.3684864 42.3443521,52.8968217 C42.1610708,53.8915976 41.953186,54.883028 41.8094359,55.8836589 C41.7281618,56.4496329 41.535205,56.7504633 40.9148681,56.6467479 C40.6340026,56.5996299 40.338762,56.6386626 39.9426199,56.6386626" id="Fill-7"></path>
                            <path d="M157.161139,50.3591392 C158.956633,49.0398344 160.152247,49.1867646 161.214339,50.9050393 C161.760866,50.1227127 162.474916,49.6269975 163.417032,49.4990261 C164.999112,49.2837887 166.26356,50.4500297 166.067287,52.0492548 C165.895892,53.4474614 165.595399,54.8289398 165.365951,56.2201764 C165.260074,56.8617065 164.770771,56.6459115 164.434617,56.6183098 C163.94642,56.5778831 164.264605,56.199266 164.295567,56.003545 C164.491841,54.7698331 164.754737,53.5464371 164.933043,52.310495 C165.034221,51.6093006 164.836011,50.9532726 164.126108,50.6443568 C163.42809,50.3404593 162.78232,50.535344 162.227224,51.0383081 C161.671851,51.5418298 161.404808,52.1947909 161.27488,52.9213566 C161.092151,53.9423402 160.852199,54.9555172 160.728076,55.983471 C160.652608,56.6099456 160.340504,56.7284377 159.839314,56.6328076 C159.247727,56.5201705 159.601573,56.1186914 159.647739,55.8432321 C159.832127,54.7416739 160.043329,53.6445765 160.239603,52.544691 C160.377548,51.774353 160.231862,51.0990875 159.5109,50.682553 C158.894433,50.3262403 158.106849,50.5147124 157.485407,51.0921174 C156.862029,51.6711952 156.667136,52.4359571 156.524216,53.2297148 C156.354756,54.1717966 156.159311,55.110254 156.024131,56.0576331 C155.949215,56.5845744 155.674431,56.6746284 155.218302,56.6484208 C154.856714,56.6277891 154.791474,56.5385716 154.865561,56.1674823 C155.256174,54.2116657 155.635177,52.2527823 155.95889,50.2849771 C156.050117,49.7295978 156.268507,49.6197487 156.776055,49.6286704 C157.434541,49.6398226 156.990574,50.1439019 157.161139,50.3591392" id="Fill-8"></path>
                            <path d="M62.3632102,50.2676912 C63.1552179,49.6010687 63.7705788,49.3044203 64.4843532,49.3325795 C65.9246186,49.3897346 66.8681167,50.4770738 66.6823473,51.9686801 C66.5054242,53.3919792 66.2618784,54.8122115 65.9439695,56.2098606 C65.7496305,57.0641189 64.9725507,56.5778831 64.4796537,56.6021391 C64.0276703,56.6241647 64.269281,56.1644154 64.3088123,55.9271524 C64.4976225,54.7999441 64.7262405,53.6797059 64.9189209,52.553334 C65.0278391,51.9168224 64.9921781,51.3168342 64.2831031,51.011264 C63.6561316,50.741102 62.9094605,50.9621943 62.448078,51.5527031 C62.073222,52.0325265 61.9817195,52.6138347 61.8752892,53.1876152 C61.6956016,54.1547895 61.527801,55.1241942 61.3511543,56.092205 C61.1687023,57.0894901 60.3877523,56.5845744 59.8943025,56.6066 C59.2637371,56.6344805 59.6452278,56.0687853 59.6839297,55.8407229 C60.0109611,53.9013558 60.4189903,51.975929 60.7432573,50.0360044 C60.8939185,49.1357432 61.5322241,49.5784855 61.9720441,49.492056 C62.373715,49.413433 62.6847128,49.5087843 62.3632102,50.2676912" id="Fill-9"></path>
                            <path d="M125.467563,55.9511296 C124.922142,56.3040967 124.574101,56.5812288 124.123499,56.688011 C122.472861,57.079732 121.114423,55.9940656 121.216707,54.2922404 C121.305998,52.8028645 121.673943,51.3505696 121.983282,49.8977171 C122.169328,49.0239425 122.957741,49.5567387 123.446769,49.5218881 C123.897646,49.4898255 123.638895,49.9768977 123.602682,50.1999417 C123.419953,51.3277076 123.170602,52.4443213 122.986768,53.5718084 C122.878403,54.2348065 122.939772,54.8632329 123.718788,55.1294915 C124.36981,55.3519778 125.077502,55.0996594 125.516493,54.4729059 C125.978705,53.8132535 125.987274,53.016429 126.152864,52.2697894 C126.319282,51.517295 126.438429,50.7542059 126.586878,49.9975293 C126.782599,49.0013593 127.557468,49.5556235 128.045112,49.517706 C128.65135,49.470588 128.256868,50.0047782 128.221759,50.2105363 C127.882011,52.2023187 127.49665,54.1860156 127.125389,56.1722219 C126.959523,57.0585428 126.277539,56.5070667 125.842695,56.628068 C125.374678,56.7582699 125.312478,56.44796 125.467563,55.9511296" id="Fill-10"></path>
                            <path d="M102.383787,53.5757117 C102.39125,51.6062337 103.364329,50.1762432 104.864305,49.604972 C106.341613,49.0423436 107.868958,49.3668726 108.85337,50.4773526 C109.027252,50.6733525 109.493334,50.9557818 108.96063,51.1916508 C108.579969,51.360049 108.379548,52.2625405 107.713874,51.5499151 C106.830641,50.6047664 105.648572,50.6056029 104.802106,51.5050275 C103.906432,52.4565888 103.841745,54.0546986 104.667754,54.8331219 C105.317948,55.4462139 106.291578,55.4955624 107.13141,54.8334007 C107.912636,54.2175206 107.974283,55.0915741 108.286663,55.3508627 C108.766014,55.7487172 108.220317,55.9265948 108.00248,56.0855136 C106.799679,56.9631915 105.505099,57.0200677 104.194485,56.3729615 C102.921468,55.7445351 102.426359,54.621509 102.383787,53.5757117" id="Fill-11"></path>
                            <path d="M7.11645856,50.3474294 C7.70500458,50.0853529 8.09285337,49.6752308 8.65182005,49.550605 C10.4171817,49.1574901 11.8834326,50.4293981 11.626341,52.2288051 C11.4347664,53.5701356 11.1210042,54.8936226 10.912843,56.2332802 C10.8138767,56.8700707 10.3740567,56.6107821 10.0655469,56.6258375 C9.58785429,56.6492571 9.78468133,56.277889 9.82365971,56.056239 C10.0257391,54.9042171 10.2446816,53.7552621 10.463624,52.606307 C10.6095856,51.8412663 10.499838,51.1643279 9.79103952,50.7227009 C9.15522179,50.3265191 8.22886307,50.4787466 7.59138672,51.044163 C7.02993207,51.5421086 6.74436699,52.183081 6.61029239,52.9093679 C6.41235958,53.981094 6.16162627,55.04585 6.02478724,56.1251039 C5.93549632,56.8307591 5.46747922,56.6701675 5.10119294,56.6191462 C4.62350034,56.5525118 4.90021926,56.1711067 4.94389717,55.9357953 C5.47494316,53.0886395 6.05215505,50.2498477 6.53703514,47.3951641 C6.64844146,46.7377421 6.99012435,46.767853 7.40312941,46.8250081 C8.01379083,46.909486 7.64999253,47.3421912 7.60852616,47.6120744 C7.47251647,48.498674 7.29421107,49.3788611 7.11645856,50.3474294" id="Fill-12"></path>
                            <path d="M192.483023,55.2864587 C193.022915,54.3304366 193.473793,53.5347273 193.922459,52.7376241 C194.338229,51.9982334 194.808181,51.2830988 195.15014,50.5105304 C195.485465,49.7527386 195.965646,49.4583206 196.780598,49.6919591 C196.912737,49.8374952 196.739685,49.9596118 196.672509,50.076431 C195.350285,52.3737836 194.030825,54.6733667 192.687867,56.9587307 C192.021641,58.0926303 191.15997,58.950513 189.697036,58.7425245 C189.439945,58.706001 189.177601,58.6429911 188.941242,58.5381605 C188.755196,58.4553554 188.395269,58.3809146 188.628862,58.0530399 C188.790857,57.8258139 188.81242,57.3195042 189.349548,57.5988668 C190.041207,57.9582463 190.667902,57.8166133 191.217746,57.2492453 C191.593984,56.8608701 191.75045,56.4761193 191.591496,55.9056844 C191.078419,54.0641779 190.617313,52.2081735 190.151784,50.353842 C190.09456,50.1249431 189.77444,49.7602663 190.247156,49.6665878 C190.64247,49.5882437 191.113528,49.4730972 191.260871,50.1628606 C191.613059,51.8125493 192.03878,53.446625 192.483023,55.2864587" id="Fill-13"></path>
                            <path d="M184.590038,50.3719643 C185.04755,50.062212 185.401396,49.7460472 185.865543,49.6041355 C187.662419,49.0543323 189.269932,50.3449202 189.018646,52.2098464 C188.837852,53.5531285 188.512204,54.8760578 188.304042,56.2165519 C188.197059,56.9054789 187.710244,56.6328076 187.39427,56.6141277 C186.95141,56.5881989 187.194402,56.2137639 187.231722,55.9979689 C187.426614,54.870203 187.639474,53.7457827 187.857311,52.6224776 C188.005761,51.8554853 187.896843,51.1774317 187.195785,50.7307863 C186.585399,50.3415746 185.672863,50.4639699 185.050868,50.9800378 C184.450158,51.478541 184.144136,52.1401451 184.004809,52.8968217 C183.802177,53.9958707 183.557525,55.0885072 183.398847,56.1936899 C183.301816,56.8714647 182.834628,56.629462 182.503173,56.622213 C182.027416,56.6121761 182.275109,56.2441536 182.31381,56.0308678 C182.66351,54.092616 183.045553,52.1604979 183.377009,50.2191792 C183.467129,49.6902863 183.73749,49.6456775 184.182009,49.627834 C184.770554,49.6044144 184.49743,50.0229006 184.590038,50.3719643" id="Fill-14"></path>
                            <path d="M109.993971,56.6815986 C109.45325,56.8279711 109.417312,56.4390383 109.537842,55.8195337 C110.081328,53.0286964 110.593023,50.2317254 111.134573,47.4403306 C111.177698,47.2175654 111.097253,46.8386695 111.48455,46.8255657 C111.928792,46.8105102 112.380776,46.8191531 112.817831,46.8910849 C112.970981,46.9161772 112.87229,47.1782539 112.845199,47.3249053 C112.298672,50.2768918 111.738048,53.2260903 111.201749,56.1797496 C111.080114,56.8502755 110.593575,56.5809499 109.993971,56.6815986" id="Fill-15"></path>
                            <path d="M141.504543,53.4184657 C141.48768,54.3496742 141.839868,55.0918529 142.67279,55.5237217 C143.53059,55.9686944 144.399172,55.866373 145.113224,55.2429651 C145.566866,54.8467833 145.814834,54.9549596 146.100123,55.3586691 C146.453693,55.8588452 145.915736,55.9522449 145.705087,56.1117212 C144.274773,57.1937631 142.16137,56.933917 141.066382,55.5744642 C139.934073,54.168451 140.173472,51.80307 141.580565,50.4929656 C143.11952,49.0604659 145.54088,49.1708727 146.722671,50.732459 C146.867528,50.9239981 147.161386,51.1439751 146.74451,51.3502908 C146.48493,51.4788198 146.274006,51.9109675 145.905508,51.4266833 C145.213019,50.5161065 144.293295,50.2660185 143.229545,50.6889655 C142.193714,51.1010391 141.509796,52.2081735 141.504543,53.4184657" id="Fill-16"></path>
                            <path d="M3.4242929,55.5708397 C3.33693709,56.6316925 3.21557884,56.7418204 2.2018643,56.7451661 C1.13092615,56.7485117 0.449771902,56.24499 0.387019461,55.3695426 C0.317632401,54.3976286 0.658209527,53.4786875 0.791454798,52.5327025 C0.847019734,52.1384723 0.950132777,51.7509334 1.02560157,51.3594913 C1.10770499,50.935429 1.23542141,50.4784678 0.511695016,50.6008631 C0.375408877,50.6237251 0.238293411,50.5740979 0.260961693,50.3925959 C0.293029021,50.1358166 0.322608365,49.6838737 0.508377707,49.6997656 C1.78968856,49.8096148 1.48256098,48.7590778 1.60917163,48.1351124 C1.72306593,47.5735993 1.98734493,47.5496221 2.41887163,47.5529677 C2.75419635,47.555477 2.82524207,47.6842849 2.77852329,47.9867882 C2.69586699,48.5234876 2.2825855,49.1981956 2.60878761,49.549211 C2.86200891,49.8216034 3.60591561,49.6303432 4.13170919,49.6442834 C4.34235835,49.6495808 4.59557966,49.6122209 4.53614452,49.9545933 C4.49025508,50.219458 4.58203398,50.5930566 4.13392073,50.602536 C3.71124019,50.6114577 3.2849659,50.6373866 2.8658791,50.5975175 C2.39620335,50.552351 2.21568642,50.7363624 2.14823445,51.1975057 C2.01360697,52.1181195 1.87925592,53.0454248 1.64317406,53.942619 C1.26665941,55.3742823 1.55443602,56.0080058 3.4242929,55.5708397" id="Fill-17"></path>
                            <path d="M34.1334578,56.6216554 C33.4943229,56.7348503 33.5924599,56.3919202 33.664335,56.014976 C34.1273761,53.5888155 34.5636023,51.1573578 35.0415713,48.7342642 C35.151319,48.1774908 35.0454415,48.0523073 34.5287706,48.2798122 C34.3134219,48.3746058 34.079828,48.450162 33.8481691,48.4772061 C33.6764984,48.49728 33.3948035,48.754617 33.3317747,48.4061108 C33.2822914,48.1314879 33.0719188,47.6879093 33.4478805,47.5616107 C34.2918593,47.2780661 35.1062589,46.873799 36.0174132,46.8113467 C36.4047091,46.7845813 36.53519,46.909486 36.4580626,47.3126379 C35.8930142,50.2607211 35.3329417,53.2096409 34.7947082,56.1627426 C34.7095639,56.6300196 34.4754171,56.7170068 34.1334578,56.6216554" id="Fill-18"></path>
                            <path d="M198.436489,35.384248 C198.436489,36.8532711 197.298098,38.0379133 195.865573,38.0593812 C194.58288,38.0786189 193.594598,37.0977831 193.593216,35.8041283 C193.59211,34.3969998 194.815091,33.147675 196.217208,33.1242553 C197.508748,33.1027873 198.436489,34.0473785 198.436489,35.384248 L198.436489,35.384248 L198.436489,35.384248 Z M198.118027,35.3990247 C198.126044,34.3484877 197.319661,33.5282437 196.27305,33.52211 C195.060572,33.5151398 193.981618,34.5815687 193.974154,35.7940912 C193.967795,36.8451858 194.773072,37.669612 195.818025,37.6818794 C197.004792,37.6958196 198.108904,36.5998375 198.118027,35.3990247 L198.118027,35.3990247 L198.118027,35.3990247 Z" id="Fill-19"></path>
                            <path d="M31.2833359,5.25156953 C28.003346,4.08504973 24.6617094,4.00112946 21.2810944,4.69758415 C11.2161004,6.77105637 2.90762192,15.8765464 1.75430392,25.6726362 C1.26306566,29.843279 1.95748914,33.7440387 4.46482237,37.1978741 C5.97862134,39.2830561 7.92505279,40.8136951 10.4102706,41.8304967 C10.4102706,41.4752992 10.4171817,41.2185199 10.4094413,40.9622982 C10.31241,37.7284398 10.533564,34.5160495 11.037795,31.3220603 C12.3721829,22.865907 15.4489875,15.1471927 20.4885338,8.22056316 C21.3593276,7.02393244 22.3534148,6.45712203 23.8058435,6.45433397 C23.6195212,6.67849313 23.450062,6.87728105 23.2855788,7.08025103 C21.6266475,9.13225527 20.2953006,11.3426207 19.9912138,14.0456345 C19.7543026,16.151448 21.0651929,17.2574671 23.0619368,16.6404718 C24.1964567,16.2900141 25.1523948,15.6286888 26.0372871,14.8591872 C28.7981181,12.458398 30.4321695,9.31292086 31.7953073,5.9856629 C32.032495,5.40714269 31.6164491,5.37006163 31.2833359,5.25156953 L31.2833359,5.25156953 L31.2833359,5.25156953 Z M23.6571174,14.4627266 C22.6229462,14.7761033 21.9597607,14.2472104 21.9788352,13.1250206 C22.0073088,11.4697557 23.7179348,9.17156676 25.290616,8.67529399 C26.3250637,8.34881343 27.0197637,8.87157266 27.011194,9.96922762 C26.9973718,11.6657556 25.2759646,13.9720299 23.6571174,14.4627266 L23.6571174,14.4627266 L23.6571174,14.4627266 Z" id="Fill-20"></path>
                            <path d="M142.356539,22.672974 C141.701923,20.437795 140.29649,18.8881971 137.969673,18.423987 C135.915706,18.0144225 134.038385,18.5293752 132.400464,19.8623415 C132.133972,20.078973 131.885451,20.3206969 131.647434,20.5693909 C131.510871,20.712139 131.361592,20.8691061 131.181352,20.759257 C131.005534,20.6524747 131.176929,20.4807309 131.206785,20.3335219 C131.317086,19.7862278 131.40997,19.2355881 131.534646,18.5458247 C129.981315,18.5458247 128.502071,18.5608802 127.023381,18.5363453 C126.604018,18.529654 126.561998,18.7716567 126.505328,19.0733236 C125.003969,27.079207 123.508691,35.0859268 121.979135,43.0862341 C121.864688,43.6848282 122.075061,43.6773005 122.510734,43.6720032 C123.913127,43.6541597 125.316349,43.633807 126.717359,43.6800886 C127.309223,43.6996049 127.527612,43.5239578 127.627961,42.924806 C127.976831,40.8426909 128.391771,38.7717279 128.798694,36.6065289 C129.594572,37.3860674 130.449609,37.8048324 131.445078,37.9486957 C133.810596,38.2902317 135.884745,37.5458226 137.763724,36.1807937 C141.624519,33.3765738 143.702814,27.2679579 142.356539,22.672974 L142.356539,22.672974 L142.356539,22.672974 Z M136.831836,27.2347801 C136.562581,29.1150406 135.946114,30.8458615 134.694659,32.300108 C134.168313,32.911806 133.539407,33.3885624 132.751269,33.6157884 C131.274513,34.0415235 130.384645,33.5051029 130.089405,31.9945378 C130.018635,31.631255 130.00039,31.2576564 129.968599,30.9816395 C130.151328,28.8501759 130.531436,26.872055 131.59021,25.0966251 C132.186497,24.0968308 132.940355,23.250379 134.140945,22.9671131 C135.308362,22.6919327 136.246884,23.1865327 136.66293,24.3182018 C137.01263,25.2703207 136.973098,26.2486471 136.831836,27.2347801 L136.831836,27.2347801 L136.831836,27.2347801 Z" id="Fill-21"></path>
                            <path d="M70.6539964,18.4237081 C69.2070965,18.1811478 67.7527327,18.2625589 66.326013,18.6216596 C59.0052634,20.463445 56.3445047,29.2892936 57.9188446,34.2336201 C58.6367656,36.4880368 60.151394,37.9205365 62.5835349,38.0331736 C64.5153149,38.1229488 66.215436,37.4741697 67.551759,35.9962249 C67.6908095,35.8423246 67.7615788,35.5780174 68.1063026,35.5791327 C67.9868794,36.241852 67.8740909,36.8669327 67.741122,37.6054869 C69.4263153,37.6054869 71.064237,37.5962863 72.7016057,37.6127358 C73.0709329,37.6163603 73.1074233,37.4251001 73.161606,37.1312397 C73.6205006,34.6445786 74.1026162,32.1620995 74.5675925,29.6765536 C74.8998763,27.8986147 75.3615352,26.1368464 75.3330616,24.3090012 C75.280814,20.989271 73.6556088,18.9272298 70.6539964,18.4237081 L70.6539964,18.4237081 L70.6539964,18.4237081 Z M67.9161101,31.8080173 C67.4597036,32.4512203 66.8686696,32.9424746 66.1449432,33.2366137 C64.8014328,33.7833502 63.7241365,33.244699 63.3219127,31.8386858 C63.1751217,31.3262424 63.0885952,30.7987434 63.1212154,30.2517282 C63.2691122,27.7645095 64.043151,25.5287728 65.7648348,23.680575 C66.1681644,23.247591 66.6472391,22.9186011 67.2051001,22.7231589 C68.6119158,22.2302317 69.9463036,22.9791018 69.8946089,24.4545374 C69.8039358,27.0345982 69.4780101,29.6062949 67.9161101,31.8080173 L67.9161101,31.8080173 L67.9161101,31.8080173 Z" id="Fill-22"></path>
                            <path d="M160.814879,23.1519609 C160.482319,20.714927 159.032654,19.0560377 156.655526,18.5179442 C155.319756,18.2154409 153.976246,18.2302175 152.641858,18.4736142 C149.187156,19.1031557 146.65826,21.0832283 144.984125,24.1252689 C143.26797,27.2442595 142.476515,30.5751419 143.480001,34.1165221 C144.289149,36.9725997 146.487971,38.3501749 149.388959,37.9612419 C151.095715,37.7323431 152.457194,36.9034561 153.633457,35.3892666 C153.672435,36.1110925 153.509887,36.617681 153.384382,37.1234331 C153.283204,37.5307671 153.409815,37.6194271 153.800428,37.613851 C155.255069,37.5934983 156.709985,37.5918254 158.164626,37.6149662 C158.571825,37.6213788 158.688208,37.4758426 158.760083,37.0846792 C159.259061,34.362428 159.8031,31.6488197 160.305672,28.9274049 C160.657584,27.0212155 161.08441,25.1267361 160.814879,23.1519609 L160.814879,23.1519609 L160.814879,23.1519609 Z M155.501931,24.722469 C155.380297,26.8438956 155.077592,28.9664375 154.080464,30.8946524 C153.532555,31.9538323 152.785055,32.8504689 151.624273,33.2700703 C150.308683,33.7459903 149.332289,33.2354985 148.920666,31.8888708 C148.748166,31.3242908 148.698959,30.7415885 148.698406,30.1502432 C148.844368,27.8584668 149.57611,25.7916858 151.036003,24.0073344 C151.443756,23.5088311 151.930571,23.1037276 152.517735,22.8346809 C154.121101,22.1000299 155.602833,22.9657191 155.501931,24.722469 L155.501931,24.722469 L155.501931,24.722469 Z" id="Fill-23"></path>
                            <path d="M182.486864,30.3562801 C183.2222,30.405071 183.966384,30.3560012 184.704761,30.3141805 C186.850231,30.1931791 188.97331,29.944764 190.92527,28.939951 C193.051112,27.845363 194.165452,25.8848067 193.953973,23.5997215 C193.726738,21.1426137 192.437133,19.4993375 190.12027,18.7248174 C188.120208,18.0562432 186.104943,18.1772446 184.123403,18.8257449 C179.146056,20.4545232 175.797509,26.1555263 176.595874,31.4960346 C177.078819,34.7287777 178.729181,36.929385 181.933702,37.6698908 C185.117767,38.4053782 188.229403,37.951205 191.230462,36.6765089 C191.433924,36.5898006 191.609741,36.5187052 191.657013,36.264714 C191.92848,34.806843 192.208792,33.3503661 192.509562,31.7714938 C191.481195,32.2711123 190.601832,32.7506568 189.640918,33.0305769 C187.84349,33.5541726 186.031685,33.875077 184.181456,33.3247161 C183.039195,32.9848529 182.236407,32.2850525 181.960517,31.0633293 C181.856851,30.6046952 181.855745,30.3141805 182.486864,30.3562801 L182.486864,30.3562801 L182.486864,30.3562801 Z M186.242888,22.4582942 C186.728873,22.3760468 187.19385,22.4279045 187.643345,22.581526 C188.202588,22.7725073 188.592649,23.1608826 188.694655,23.7681197 C188.796387,24.3714535 188.568321,24.8629867 188.103622,25.241325 C187.48439,25.7451254 186.728044,25.9059959 185.975568,26.018633 C184.830543,26.1898192 183.673908,26.2597993 182.459495,26.216027 C182.954328,24.1369787 184.353956,22.7775258 186.242888,22.4582942 L186.242888,22.4582942 L186.242888,22.4582942 Z" id="Fill-24"></path>
                            <path d="M82.6126212,49.4817402 C81.868991,49.2458712 81.189219,49.5843404 80.994327,50.3123001 C80.9791227,50.3691763 80.9066948,50.4101606 80.859976,50.459509 C79.548533,49.0950377 77.8561521,48.9536836 76.434132,50.0686246 C75.0035422,51.1905355 74.509816,53.3370547 75.3640232,54.7207635 C76.2549973,56.163579 77.8763324,56.3913626 79.9670669,55.3673121 C79.9023792,56.5402445 79.3340135,57.1918115 78.2238206,57.3395782 C77.2385796,57.4703376 76.3506464,57.1731316 75.5039031,56.6902415 C74.7611022,56.2667368 74.8338066,57.1179282 74.5393953,57.3677374 C74.1476763,57.700073 74.5570876,57.8366873 74.7951046,57.9721865 C75.5412229,58.3976429 76.3509229,58.644664 77.1965604,58.7296995 C79.7765979,58.9895457 81.1112622,58.1832418 81.6168755,55.947784 C82.0680296,53.9515408 82.3981019,51.9276958 82.779869,49.9158394 C82.8127656,49.7415864 82.8918282,49.5704002 82.6126212,49.4817402 L82.6126212,49.4817402 L82.6126212,49.4817402 Z M78.3332918,54.6577536 C77.3320171,54.6307095 76.7053221,53.9830457 76.7114038,52.980742 C76.7183149,51.7581824 77.693051,50.7896141 78.8856239,50.8194462 C79.8794346,50.8442598 80.6197475,51.5847657 80.6009494,52.5346541 C80.5785575,53.6640929 79.4843983,54.688701 78.3332918,54.6577536 L78.3332918,54.6577536 L78.3332918,54.6577536 Z" id="Fill-25"></path>
                            <path d="M136.84317,46.8199896 C135.939204,46.6281718 135.49579,46.8266809 135.379131,47.4341969 C135.185345,48.442913 134.988794,49.4513505 134.777869,50.5409201 C134.240465,50.0510598 133.803132,49.5980018 133.15377,49.4435439 C131.01521,48.9344461 128.971471,50.5069059 128.73539,52.8650379 C128.438767,55.8253886 130.572902,57.4349294 133.269598,56.2717553 C133.539959,56.1552149 133.544659,56.2633911 133.708312,56.4474024 C134.075981,56.8608701 134.633842,56.6015815 135.108494,56.6216554 C135.51901,56.6389413 135.398758,56.237741 135.441607,56.0138608 C135.976523,53.2205142 136.500934,50.4249372 137.008207,47.6262934 C137.056308,47.3611499 137.456596,46.9501915 136.84317,46.8199896 L136.84317,46.8199896 L136.84317,46.8199896 Z M132.180139,55.2870163 C131.152326,55.2538385 130.44408,54.4277395 130.468407,53.2902154 C130.49771,51.9112463 131.48765,50.7971418 132.66253,50.8216767 C133.752267,50.8445387 134.477099,51.6469392 134.463553,52.8156894 C134.447796,54.1751423 133.384599,55.3257702 132.180139,55.2870163 L132.180139,55.2870163 L132.180139,55.2870163 Z" id="Fill-26"></path>
                            <path d="M99.1071143,46.8802114 C98.6678476,46.8149711 98.2155876,46.809395 97.7699619,46.8264021 C97.3812838,46.8411788 97.4683629,47.1933093 97.4202619,47.4361485 C97.2176295,48.4554592 97.0188676,49.4756065 96.7990962,50.5961234 C96.2901657,49.9869347 95.8108143,49.594935 95.1633859,49.4407559 C92.8528798,48.8898373 90.7527463,50.7617336 90.7668449,53.375251 C90.7737559,54.6532927 91.1795735,55.7439775 92.3467136,56.3869017 C93.4762575,57.0091943 94.5751164,56.8820592 95.6106695,56.054845 C95.7361743,57.029547 96.4549248,56.522401 96.916861,56.6328076 C97.4315962,56.7557607 97.4277267,56.3520511 97.4915848,56.0130243 C98.0381114,53.1128955 98.5901667,50.2138819 99.1386286,47.3143107 C99.167379,47.1629196 99.2420181,46.9002854 99.1071143,46.8802114 L99.1071143,46.8802114 L99.1071143,46.8802114 Z M94.2867869,55.2920348 C93.2440459,55.2984473 92.5241896,54.515563 92.513132,53.3624259 C92.4998628,51.9856872 93.4475075,50.8462115 94.6262582,50.8213978 C95.7071486,50.7985358 96.4991562,51.6070701 96.5088314,52.7426426 C96.5207181,54.0965192 95.4851648,55.284507 94.2867869,55.2920348 L94.2867869,55.2920348 L94.2867869,55.2920348 Z" id="Fill-27"></path>
                            <path d="M31.7170742,49.3808128 C30.528648,49.2980077 30.528648,49.3010746 30.7381913,48.0796302 C30.7564366,47.9745208 30.744826,47.8585379 30.7849102,47.7643019 C31.1180233,46.9842057 30.615451,47.0419183 30.1120491,47.048052 C29.8065802,47.0516765 29.7919288,47.2337361 29.7537797,47.4537131 C29.6675297,47.9519376 29.553359,48.4454223 29.471532,48.9442043 C29.4336593,49.174776 29.3855584,49.3752367 29.1091159,49.370497 C28.4779977,49.3599025 27.7418314,49.5271854 27.2530811,49.2522837 C26.9224559,49.0663209 27.335461,48.2979345 27.3957254,47.7874427 C27.3987663,47.7609562 27.3960019,47.7325181 27.404848,47.7082621 C27.6157736,47.1319723 27.3783095,47.0221231 26.8317828,47.036621 C26.2885733,47.0511189 26.352708,47.4127289 26.2954844,47.734191 C26.0281646,49.2358343 26.0292703,49.236113 24.6263248,49.3777459 C24.5738007,49.3830432 24.5168535,49.3702182 24.4681996,49.3855525 C24.0281032,49.5257913 24.154161,49.9400955 24.086709,50.2445505 C24.0214687,50.538132 24.2821539,50.4818134 24.4554833,50.4993782 C25.7246307,50.6265132 25.7249071,50.626792 25.4957363,51.9497213 C25.4683685,52.1069673 25.4058925,52.2630981 25.4075511,52.4195076 C25.4139093,53.0373393 25.1228154,53.2701415 24.5279112,53.1692141 C23.7265045,53.0334361 23.263187,53.298022 23.3878625,54.265475 L25.0556399,54.265475 C24.9434043,54.8551474 24.8062888,55.3734458 24.762058,55.8995508 C24.7421542,56.1351409 24.3700626,56.5642216 24.9693898,56.6336441 C25.4056161,56.683829 25.7390057,56.683829 25.8451596,56.0509418 C26.1536694,54.2130597 26.1918185,54.2191934 28.0666513,54.264081 C28.1705937,54.2665903 28.2742596,54.2844338 28.4345963,54.3008833 C28.3386707,54.8674149 28.2297524,55.4116421 28.1617475,55.9611666 C28.1335504,56.1900654 27.7918675,56.56227 28.3215312,56.626674 C28.711868,56.6743496 29.2006184,56.7911689 29.2274332,56.1097696 C29.2379381,55.846299 29.3551497,55.5858951 29.3573612,55.323261 C29.3653781,54.4506015 29.7557149,54.1015378 30.6254029,54.2487468 C30.864802,54.2891735 31.2028911,54.4124052 31.3405595,53.9763544 C31.5454034,53.328133 31.4367615,53.1148471 30.7122058,53.1828755 C29.9381669,53.2556436 29.6354624,53.0523949 29.9434192,52.2636557 C29.9528183,52.2393997 29.9508832,52.2109616 29.9561356,52.1847539 C30.0567607,51.6893175 30.0421092,51.1225071 30.2884194,50.7171248 C30.581172,50.2359075 31.1929392,50.5565331 31.6609564,50.5069059 C32.2542019,50.443896 32.0316657,49.9456716 32.1281441,49.6476291 C32.2431442,49.2913164 31.8970382,49.393359 31.7170742,49.3808128 L31.7170742,49.3808128 L31.7170742,49.3808128 Z M28.973659,51.5989848 C28.6659786,53.3019252 28.5639713,53.3624259 26.778153,53.1786934 C26.4290061,53.1430065 26.3961094,53.0105741 26.4513979,52.7317691 C26.5235494,52.3659771 26.5785615,51.9971182 26.648225,51.6307686 C26.8638501,50.4985417 26.8652323,50.4988206 28.02712,50.498263 C29.1726976,50.4977053 29.1726976,50.4977053 28.973659,51.5989848 L28.973659,51.5989848 L28.973659,51.5989848 Z" id="Fill-28"></path>
                            <path d="M116.858314,49.3242154 C114.793842,49.3314644 113.039262,51.1082881 113.025164,53.2051799 C113.011341,55.2538385 114.614154,56.8366141 116.663423,56.798139 C118.762727,56.7588275 120.450409,55.0082113 120.43631,52.8845543 C120.422764,50.8392413 118.892931,49.3169665 116.858314,49.3242154 L116.858314,49.3242154 L116.858314,49.3242154 Z M116.565286,55.2920348 C115.489095,55.2769793 114.743253,54.4687238 114.732195,53.3049921 C114.719756,51.9962818 115.680947,50.8701887 116.836199,50.8406354 C117.953027,50.8119185 118.733977,51.624356 118.741441,52.8226596 C118.75001,54.1846216 117.759517,55.308763 116.565286,55.2920348 L116.565286,55.2920348 L116.565286,55.2920348 Z" id="Fill-29"></path>
                            <path d="M57.2141927,49.5854556 C56.2018604,49.3007958 55.1817876,49.3997715 54.1600563,49.6099905 C53.5336376,49.7387983 53.3348755,49.9788493 53.5773155,50.6337621 C53.7415224,51.077062 53.8042748,51.3293804 54.3613064,51.0859837 C54.917785,50.8428658 55.5444802,50.8364533 56.1551416,50.9075486 C56.5673173,50.955503 56.9186757,51.1222284 57.1367888,51.495827 C57.306801,51.7874569 57.3537962,52.1437696 57.193183,52.4083554 C57.0450099,52.6528674 56.7674616,52.3994337 56.5501779,52.3612374 C55.4178695,52.1624495 54.2944073,52.0514851 53.2336975,52.652031 C52.4118341,53.1176352 52.0364252,53.9423402 52.1732642,54.9566325 C52.2904758,55.8245522 52.9069426,56.4803013 53.8059334,56.6846654 C54.7693354,56.9035272 55.627413,56.6671007 56.4984831,55.949178 C56.5006947,56.3224978 56.3550095,56.7404264 56.8481829,56.6277891 C57.284409,56.527977 57.9874023,57.0117035 58.1283879,56.2854168 C58.4158881,54.801617 58.8490734,53.3345454 58.8675951,51.8075309 C58.8819701,50.6365502 58.3384842,49.9016204 57.2141927,49.5854556 L57.2141927,49.5854556 L57.2141927,49.5854556 Z M56.4454062,54.8520807 C56.0083507,55.317406 55.4667998,55.5744642 54.8273884,55.5044841 C54.324816,55.4495596 53.9203807,55.2106237 53.848782,54.6410253 C53.7799479,54.09401 54.0453327,53.7173446 54.5238546,53.5107501 C54.8345759,53.376645 55.1699006,53.2882638 55.5215354,53.3180959 C55.6768961,53.3390063 55.8416558,53.3339878 55.9856824,53.3866819 C56.3127138,53.5060105 56.8379545,53.2974644 56.9446612,53.736861 C57.0458392,54.152559 56.7389881,54.5392615 56.4454062,54.8520807 L56.4454062,54.8520807 L56.4454062,54.8520807 Z" id="Fill-30"></path>
                            <path d="M72.6037451,49.6479079 C71.3898862,49.2469865 70.1517004,49.3303491 68.9505578,49.7532962 C68.2511584,49.999481 68.8294761,50.4491932 68.8402573,50.8032755 C68.8524208,51.2120035 69.05063,51.2663705 69.4188514,51.1191615 C70.0425056,50.8699099 70.7073498,50.823907 71.3688766,50.9150763 C71.8968817,50.9881231 72.3303435,51.2231557 72.4378796,51.8189619 C72.5238532,52.2951607 72.515007,52.5778689 71.8496101,52.4064038 C70.7396935,52.12035 69.5996448,52.0383813 68.5229013,52.5892999 C67.6156171,53.0535101 67.208141,53.9275635 67.3665425,54.9962228 C67.4997877,55.8942534 68.1441751,56.5204492 69.1078536,56.7086426 C70.050246,56.8929327 70.86741,56.6085516 71.7185763,55.9371894 C71.5925186,56.500933 71.7406917,56.7585487 72.234418,56.6378262 C72.6460409,56.5371776 73.2514498,56.9592882 73.3761254,56.1058664 C73.5605125,54.8428801 73.863217,53.5977372 74.0570032,52.3358662 C74.259912,51.0162825 73.7335655,50.020949 72.6037451,49.6479079 L72.6037451,49.6479079 L72.6037451,49.6479079 Z M71.739033,54.7255031 C71.2873261,55.261645 70.7214483,55.5750218 70.0115441,55.5014173 C69.5037192,55.4487231 69.096243,55.2028172 69.0224329,54.6393525 C68.9508343,54.0931736 69.231147,53.7220843 69.711051,53.5121442 C70.0256427,53.3744146 70.3623495,53.299416 70.7137079,53.3186535 C70.8958835,53.3445824 71.085523,53.346534 71.2588525,53.4011798 C71.5676388,53.4979251 72.0533482,53.3317573 72.1487209,53.7279391 C72.2313771,54.0719845 71.9828553,54.4361037 71.739033,54.7255031 L71.739033,54.7255031 L71.739033,54.7255031 Z" id="Fill-31"></path>
                            <path d="M88.2227448,49.4914984 C86.6566982,48.9807277 84.8656274,49.6587813 83.9456269,51.1107973 C83.0283908,52.5583525 83.0878259,54.5205815 84.0838481,55.666191 C85.1066852,56.8427478 87.0738499,57.1460875 88.6094878,56.363761 C89.5234067,55.8981567 89.5223009,55.8106119 88.8958822,55.0388799 C88.6161225,54.694277 88.4433459,54.7773609 88.1262664,54.9666694 C86.893333,55.7035509 85.5174788,55.3834828 85.0754472,54.2958648 C84.9037765,53.8734753 84.8869135,53.5960645 85.4956398,53.6387216 C86.1527435,53.6847244 86.815929,53.6490373 87.4763501,53.6490373 C88.1633097,53.6487586 88.8502692,53.6442977 89.5369523,53.6512678 C89.7876856,53.653777 89.9811953,53.6348183 90.0920488,53.3395639 C90.6289001,51.9123615 89.6950774,49.9716005 88.2227448,49.4914984 L88.2227448,49.4914984 L88.2227448,49.4914984 Z M88.5260022,52.3486912 C88.3982858,52.6726626 88.0132014,52.4839116 87.7489224,52.4911606 C86.8800637,52.5154166 86.0100992,52.500361 85.035916,52.500361 C85.3444258,51.5278895 85.9042218,50.9546666 86.8120589,50.7809711 C87.3889943,50.6705644 87.916723,50.8066211 88.296555,51.3014999 C88.534019,51.611531 88.6625648,52.0024155 88.5260022,52.3486912 L88.5260022,52.3486912 L88.5260022,52.3486912 Z" id="Fill-32"></path>
                            <path d="M173.78169,50.8593153 C172.82354,49.319197 171.51735,49.193177 168.784439,50.4820923 C169.55129,49.3755155 168.731639,49.673558 168.271915,49.6467927 C167.792564,49.619191 167.909775,50.0471566 167.864439,50.279401 C167.353297,52.8881788 166.860123,55.5005809 166.392935,58.1177227 C166.360869,58.2964367 166.007574,58.7514463 166.609113,58.7397365 C166.959366,58.7330451 167.403056,58.9371304 167.487371,58.2710654 C167.606518,57.3284259 167.82933,56.3991691 168.030857,55.3436137 C169.735678,57.045439 171.344573,57.2403236 172.867771,56.0038237 C174.318818,54.8255942 174.74758,52.4122588 173.78169,50.8593153 L173.78169,50.8593153 L173.78169,50.8593153 Z M170.577998,55.7821738 C169.323226,55.789144 168.35623,54.7971561 168.343237,53.4892822 C168.32748,51.9335507 169.61045,50.5122031 171.042422,50.4990993 C172.249093,50.4879471 173.138685,51.4576307 173.156653,52.8039796 C173.178769,54.4188178 172.004994,55.7740885 170.577998,55.7821738 L170.577998,55.7821738 L170.577998,55.7821738 Z" id="Fill-33"></path>
                            <path d="M17.2107554,49.609154 C15.1330138,49.0615811 13.1105607,50.4491932 12.669635,52.7245203 C12.3815819,54.2116657 12.9679164,55.6542024 14.1350565,56.3291891 C15.3489154,57.0314987 17.2212603,56.8828957 18.2499027,56.0227825 C18.4975951,55.8159092 18.5691937,55.6781796 18.337535,55.3851556 C18.0688329,55.0455712 17.9032438,55.0227092 17.5239648,55.2750277 C16.0129302,56.2817923 14.2638787,55.770464 13.8174241,54.249862 C13.6775442,53.7733844 13.698001,53.4926278 14.317785,53.5322181 C15.002533,53.5759905 15.692257,53.542255 16.3797693,53.5419763 C17.1203588,53.5419763 17.8609481,53.5436491 18.6015375,53.5411399 C18.8365136,53.5403034 19.0457806,53.5600986 19.1508287,53.2327816 C19.6163578,51.7813232 18.673689,49.9947412 17.2107554,49.609154 L17.2107554,49.609154 L17.2107554,49.609154 Z M17.650299,52.6665289 C16.4104545,52.6495217 15.1700571,52.6603951 13.8306933,52.6603951 C14.137821,51.5535396 14.703975,50.85123 15.7030382,50.5517935 C16.9403947,50.1807041 17.919001,50.828368 18.12578,52.1019489 C18.197655,52.5441334 18.0754675,52.6723837 17.650299,52.6665289 L17.650299,52.6665289 L17.650299,52.6665289 Z" id="Fill-34"></path>
                            <path d="M180.110011,49.8971595 C178.909698,49.3493078 177.693628,49.4995837 176.477004,49.849205 C176.095237,49.9587754 176.183975,50.2113727 176.271054,50.475401 C176.35537,50.7313438 176.39103,50.9507633 176.789384,50.7979782 C177.461415,50.5400837 178.18293,50.4762373 178.897258,50.5916626 C179.529206,50.6937051 180.050299,50.972789 180.202343,51.6834627 C180.368485,52.4616072 180.216165,52.6199684 179.457054,52.4708078 C178.30733,52.244697 177.154011,52.1033429 176.051559,52.6578859 C175.16335,53.1045313 174.769971,53.8985678 174.8952,54.8969682 C175.012965,55.8345891 175.595982,56.4529785 176.55966,56.6790892 C177.673724,56.9406083 178.625515,56.5957266 179.451249,55.890629 C179.73239,56.0891381 179.153244,56.6160793 179.759758,56.6238859 C180.026526,56.6272315 180.457223,56.8555728 180.543472,56.3590212 C180.814939,54.7901859 181.30673,53.2520191 181.291526,51.643036 C181.283786,50.8353381 180.847283,50.233677 180.110011,49.8971595 L180.110011,49.8971595 L180.110011,49.8971595 Z M179.96792,53.8826759 C179.742343,54.9842342 178.640719,55.867767 177.49293,55.8635849 C176.643975,55.860518 176.092749,55.4414742 176.008157,54.7349826 C175.924119,54.031279 176.34597,53.4388185 177.137702,53.2311088 C178.005178,53.0038828 178.869061,53.1803663 179.72852,53.3325938 C180.083196,53.3956037 180.018232,53.6376064 179.96792,53.8826759 L179.96792,53.8826759 L179.96792,53.8826759 Z" id="Fill-35"></path>
                            <path d="M150.971039,49.4842494 C148.902973,49.504881 147.271133,51.214234 147.273898,53.3568498 C147.276386,55.3533719 148.690666,56.7970238 150.645943,56.7984178 C152.70157,56.8000907 154.438181,54.9931559 154.420765,52.8711716 C154.404731,50.9153551 152.927147,49.4644543 150.971039,49.4842494 L150.971039,49.4842494 L150.971039,49.4842494 Z M150.583467,55.7743673 C149.262349,55.7542933 148.378562,54.7890707 148.386579,53.3749721 C148.395701,51.7799291 149.616195,50.4684309 151.062266,50.5002146 C152.386149,50.5289315 153.309743,51.5153433 153.300068,52.8898515 C153.289286,54.4294124 152.00217,55.7961141 150.583467,55.7743673 L150.583467,55.7743673 L150.583467,55.7743673 Z" id="Fill-36"></path>
                            <path d="M197.230093,35.0507973 C197.190562,35.1453122 197.166788,35.3831329 197.04073,35.4706775 C196.546174,35.8133289 196.462412,36.2056073 196.772581,36.7110807 C196.844456,36.8281788 196.867953,36.977897 196.692412,37.0286395 C196.564144,37.0654417 196.429239,37.0392341 196.367316,36.8839397 C196.337737,36.8103352 196.311751,36.7339427 196.272773,36.6650779 C196.132064,36.4177779 196.24734,35.9365606 195.773794,35.9926004 C195.389263,36.0383244 195.480489,36.4286512 195.423542,36.6924008 C195.388433,36.8546652 195.360236,37.045089 195.162856,37.014978 C194.848541,36.9670236 195.028506,36.7300394 195.054768,36.576139 C195.162028,35.9485492 195.350285,35.3273718 195.385116,34.6969939 C195.430176,33.8820471 195.983614,34.1048123 196.405742,34.1254438 C196.895045,34.149421 197.271836,34.372465 197.230093,35.0507973 L197.230093,35.0507973 L197.230093,35.0507973 Z M195.72597,35.0937333 C195.690862,35.3268142 195.602124,35.555713 195.956523,35.550137 C196.377269,35.5431669 196.765947,35.455901 196.830081,34.9657618 C196.875418,34.618371 196.580177,34.5776654 196.307329,34.5361234 C195.832124,34.4633553 195.711595,34.7215288 195.72597,35.0937333 L195.72597,35.0937333 L195.72597,35.0937333 Z" id="Fill-37"></path>
                        </g>
                    </g>
                </g>
            </g>
        </g>
    </g>
</svg>