<svg width="500" height="500" viewBox="0 0 500 500" fill="none" xmlns="http://www.w3.org/2000/svg">
<path d="M250 494C384.757 494 494 384.757 494 250C494 115.243 384.757 6 250 6C115.243 6 6 115.243 6 250C6 384.757 115.243 494 250 494Z" fill="#333333"/>
<path d="M153.06 148.26H81.3601C75.8262 148.26 71.3401 152.746 71.3401 158.28V229.98C71.3401 235.514 75.8262 240 81.3601 240H153.06C158.594 240 163.08 235.514 163.08 229.98V158.28C163.08 152.746 158.594 148.26 153.06 148.26Z" fill="#333333"/>
<path d="M153.05 158.27V229.98H81.3401V158.27H153.03H153.05ZM153.03 138.27H81.3601C76.0558 138.27 70.9687 140.377 67.218 144.128C63.4672 147.879 61.3601 152.966 61.3601 158.27V230C61.3601 235.304 63.4672 240.391 67.218 244.142C70.9687 247.893 76.0558 250 81.3601 250H153.05C155.677 250 158.277 249.483 160.704 248.478C163.13 247.472 165.335 245.999 167.192 244.142C169.049 242.285 170.523 240.08 171.528 237.654C172.533 235.227 173.05 232.626 173.05 230V158.29C173.05 155.664 172.533 153.063 171.528 150.636C170.523 148.21 169.049 146.005 167.192 144.148C165.335 142.291 163.13 140.818 160.704 139.812C158.277 138.807 155.677 138.29 153.05 138.29L153.03 138.27Z" fill="white"/>
<path d="M285.28 203.26H213.59C208.056 203.26 203.57 207.746 203.57 213.28V284.98C203.57 290.514 208.056 295 213.59 295H285.28C290.814 295 295.3 290.514 295.3 284.98V213.28C295.3 207.746 290.814 203.26 285.28 203.26Z" fill="#333333"/>
<path d="M285.28 213.27V284.98H213.57V213.27H285.26H285.28ZM285.26 193.27H213.59C208.286 193.27 203.199 195.377 199.448 199.128C195.697 202.879 193.59 207.966 193.59 213.27V285C193.59 290.304 195.697 295.391 199.448 299.142C203.199 302.893 208.286 305 213.59 305H285.28C290.584 305 295.672 302.893 299.422 299.142C303.173 295.391 305.28 290.304 305.28 285V213.29C305.28 207.986 303.173 202.899 299.422 199.148C295.672 195.397 290.584 193.29 285.28 193.29L285.26 193.27Z" fill="white"/>
<path d="M421.07 258.27H349.38C343.846 258.27 339.36 262.756 339.36 268.29V339.98C339.36 345.514 343.846 350 349.38 350H421.07C426.604 350 431.09 345.514 431.09 339.98V268.29C431.09 262.756 426.604 258.27 421.07 258.27Z" fill="#333333"/>
<path d="M421.07 268.27V339.98H349.36V268.27H421.05H421.07ZM421.05 248.27H349.38C344.076 248.27 338.989 250.377 335.238 254.128C331.487 257.879 329.38 262.966 329.38 268.27V340C329.38 345.304 331.487 350.391 335.238 354.142C338.989 357.893 344.076 360 349.38 360H421.07C426.374 360 431.462 357.893 435.212 354.142C438.963 350.391 441.07 345.304 441.07 340V268.29C441.07 262.986 438.963 257.899 435.212 254.148C431.462 250.397 426.374 248.29 421.07 248.29L421.05 248.27Z" fill="white"/>
</svg>
