<svg width="120" height="120" viewBox="0 0 120 120" fill="none" xmlns="http://www.w3.org/2000/svg">
<path d="M59.9999 118.56C92.3417 118.56 118.56 92.3418 118.56 60C118.56 27.6582 92.3417 1.44 59.9999 1.44C27.6581 1.44 1.43994 27.6582 1.43994 60C1.43994 92.3418 27.6581 118.56 59.9999 118.56Z" fill="#4F4F4F"/>
<path d="M36.7344 35.5824H19.5264C18.1982 35.5824 17.1216 36.6591 17.1216 37.9872V55.1952C17.1216 56.5233 18.1982 57.6 19.5264 57.6H36.7344C38.0625 57.6 39.1392 56.5233 39.1392 55.1952V37.9872C39.1392 36.6591 38.0625 35.5824 36.7344 35.5824Z" fill="#4F4F4F"/>
<path d="M36.7319 37.9848V55.1952H19.5215V37.9848H36.7271H36.7319ZM36.7271 33.1848H19.5263C18.2533 33.1848 17.0324 33.6905 16.1322 34.5907C15.232 35.4909 14.7263 36.7118 14.7263 37.9848V55.2C14.7263 56.4731 15.232 57.6939 16.1322 58.5941C17.0324 59.4943 18.2533 60 19.5263 60H36.7319C37.3623 60 37.9864 59.8759 38.5688 59.6346C39.1512 59.3934 39.6803 59.0398 40.126 58.5941C40.5718 58.1484 40.9253 57.6193 41.1665 57.0369C41.4078 56.4545 41.5319 55.8304 41.5319 55.2V37.9896C41.5319 37.3593 41.4078 36.7351 41.1665 36.1527C40.9253 35.5704 40.5718 35.0412 40.126 34.5955C39.6803 34.1498 39.1512 33.7962 38.5688 33.555C37.9864 33.3138 37.3623 33.1896 36.7319 33.1896L36.7271 33.1848Z" fill="white"/>
<path d="M68.4671 48.7824H51.2615C49.9334 48.7824 48.8567 49.8591 48.8567 51.1872V68.3952C48.8567 69.7233 49.9334 70.8 51.2615 70.8H68.4671C69.7952 70.8 70.8719 69.7233 70.8719 68.3952V51.1872C70.8719 49.8591 69.7952 48.7824 68.4671 48.7824Z" fill="#4F4F4F"/>
<path d="M68.467 51.1848V68.3952H51.2566V51.1848H68.4622H68.467ZM68.4622 46.3848H51.2614C49.9884 46.3848 48.7675 46.8905 47.8673 47.7907C46.9671 48.6909 46.4614 49.9118 46.4614 51.1848V68.4C46.4614 69.6731 46.9671 70.894 47.8673 71.7941C48.7675 72.6943 49.9884 73.2 51.2614 73.2H68.467C69.7401 73.2 70.961 72.6943 71.8611 71.7941C72.7613 70.894 73.267 69.6731 73.267 68.4V51.1896C73.267 49.9166 72.7613 48.6957 71.8611 47.7955C70.961 46.8953 69.7401 46.3896 68.467 46.3896L68.4622 46.3848Z" fill="white"/>
<path d="M101.057 61.9848H83.8511C82.523 61.9848 81.4463 63.0615 81.4463 64.3896V81.5952C81.4463 82.9233 82.523 84 83.8511 84H101.057C102.385 84 103.461 82.9233 103.461 81.5952V64.3896C103.461 63.0615 102.385 61.9848 101.057 61.9848Z" fill="#4F4F4F"/>
<path d="M101.057 64.3848V81.5952H83.8462V64.3848H101.052H101.057ZM101.052 59.5848H83.851C82.578 59.5848 81.3571 60.0905 80.4569 60.9907C79.5567 61.8909 79.051 63.1118 79.051 64.3848V81.6C79.051 82.873 79.5567 84.0939 80.4569 84.9941C81.3571 85.8943 82.578 86.4 83.851 86.4H101.057C102.33 86.4 103.551 85.8943 104.451 84.9941C105.351 84.0939 105.857 82.873 105.857 81.6V64.3896C105.857 63.1166 105.351 61.8957 104.451 60.9955C103.551 60.0953 102.33 59.5896 101.057 59.5896L101.052 59.5848Z" fill="white"/>
</svg>
