<?xml version="1.0" encoding="UTF-8" standalone="no"?>
<svg width="465px" height="66px" viewBox="0 0 465 66" version="1.1" xmlns="http://www.w3.org/2000/svg" xmlns:xlink="http://www.w3.org/1999/xlink" xmlns:sketch="http://www.bohemiancoding.com/sketch/ns">
    <!-- Generator: Sketch 3.3.3 (12072) - http://www.bohemiancoding.com/sketch -->
    <title>Imported Layers</title>
    <desc>Created with Sketch.</desc>
    <defs></defs>
    <g id="Page-1" stroke="none" stroke-width="1" fill="none" fill-rule="evenodd" sketch:type="MSPage">
        <g id="Imported-Layers" sketch:type="MSLayerGroup">
            <path d="M4.8495,0 L155.1505,0 C157.829,0 160,2.1855 160,4.881 L160,61.119 C160,63.8145 157.829,66 155.1505,66 L4.8495,66 C2.171,66 0,63.8145 0,61.119 L0,4.881 C0,2.1855 2.171,0 4.8495,0" id="Fill-1" fill="#B1B1B1" sketch:type="MSShapeGroup"></path>
            <path d="M7.91961429,0 L457.080386,0 C461.454043,0 465,2.6865 465,6 L465,60 C465,63.314 461.454043,66 457.080386,66 L7.91961429,66 C3.54595714,66 0,63.314 0,60 L0,6 C0,2.6865 3.54595714,0 7.91961429,0" id="Fill-2" fill="#B1B1B1" sketch:type="MSShapeGroup"></path>
            <path d="M18.8615,25.812 C18.8165,25.8175 18.774,25.8285 18.728,25.8285 L18.6275,25.812 L18.427,26.922 L19.6805,26.771 L18.8615,25.812 M17.0395,24.971 L13.4125,27.4435 L13.4295,27.4945 L17.123,27.074 L17.441,25.358 C17.2945,25.2425 17.1535,25.1205 17.0395,24.971 M22.756,24.382 L21.0845,24.584 L22.3885,26.1315 L22.756,24.382 M41.5265,23.1035 L39.0695,33.0965 C42.097,33.091 45.4715,33.0825 49.031,33.08 L41.5265,23.1035 M35.9105,22.7835 L23.391,24.3145 L22.9565,26.384 L28.2215,25.778 L28.2215,25.711 C28.2215,24.9115 28.8395,24.264 29.609,24.264 C30.0475,24.264 30.44,24.473 30.6955,24.8025 L35.9105,22.7835 M24.227,17.484 L20.366,22.1275 L20.3825,22.161 L23.3075,21.791 L24.227,17.4845 M24.227,17.484 L24.227,17.4845 L24.227,17.484 M42.2615,17.1815 C42.198,17.214 42.13,17.2435 42.061,17.2655 L41.777,18.746 C42.5865,19.0705 43.1645,19.8765 43.1645,20.832 C43.1645,21.206 43.069,21.5485 42.9135,21.8585 L50.4685,31.8855 L51.1705,29.833 C50.903,29.569 50.719,29.2035 50.719,28.7895 C50.719,28.5505 50.7875,28.3325 50.8865,28.1335 L42.2615,17.1815 M26.8175,15.7345 C26.569,16.4425 25.9135,16.946 25.146,16.946 C25.082,16.946 25.025,16.936 24.9625,16.929 L23.9425,21.724 L39.0525,19.89 C39.327,19.2745 39.858,18.806 40.5065,18.645 L40.841,17.047 C40.577,16.848 40.3855,16.562 40.306,16.2225 L26.8175,15.7345 M24.528,57.1375 L23.291,56.448 L23.291,56.347 L23.625,56.263 L24.528,57.1375 M29.074,58.9715 L25.748,55.7245 L30.7625,54.446 L29.3915,58.887 C29.2815,58.905 29.1765,58.9335 29.074,58.9715 M31.314,58.921 L32.885,53.9075 L35.091,53.3355 C35.2995,53.863 35.796,54.244 36.3785,54.244 C36.9425,54.244 37.413,53.887 37.632,53.386 L44.518,54.9335 L31.314,58.921 M21.185,55.102 L13.8475,47.296 C14.0285,47.3605 14.2295,47.3965 14.4325,47.3965 L14.5495,47.38 L22.2715,54.9505 C22.153,54.917 22.0325,54.8835 21.9035,54.8835 C21.6405,54.8835 21.395,54.97 21.185,55.102 M12.761,46.135 L12.4435,45.7985 L12.694,45.849 C12.7095,45.947 12.731,46.043 12.761,46.135 M25.213,55.203 L16.07,46.2695 C16.09,46.2215 16.105,46.168 16.1205,46.118 L33.0185,44.217 C33.188,44.54 33.4145,44.828 33.687,45.058 L30.9795,53.739 L25.213,55.203 M33.102,53.201 L35.442,45.6805 C36.7505,45.6465 37.812,44.65 38.0165,43.342 L47.326,41.0875 L47.042,41.912 C46.3375,41.9305 45.772,42.5385 45.772,43.275 C45.772,43.8865 46.1555,44.402 46.691,44.5705 L46.5405,53.6885 C46.112,53.822 45.7465,54.122 45.521,54.513 L37.7655,52.797 C37.7655,51.9975 37.1475,51.35 36.3785,51.35 C35.63,51.35 35.007,51.9605 34.9745,52.73 L33.102,53.201 M47.1925,52.511 L47.3095,44.604 C47.9195,44.4905 48.379,43.941 48.379,43.275 C48.379,42.742 48.074,42.285 47.644,42.0635 L48.028,40.9195 L52.775,39.7755 L47.1925,52.511 M48.747,38.8335 L50.1845,34.6275 L52.6415,37.8915 L48.747,38.8335 M11.758,33.13 C12.352,33.13 12.846,33.1295 13.2985,33.1295 C14.204,33.1295 14.946,33.13 16.0035,33.13 L14.0645,43.7455 C13.5655,43.8515 13.1625,44.179 12.9115,44.62 L12.059,44.452 C12.046,43.881 11.712,43.3965 11.24,43.1735 L11.758,33.1295 M28.322,33.0965 C28.8335,33.0955 29.387,33.095 29.963,33.095 C30.7615,33.095 31.604,33.0955 32.442,33.0965 C33.2705,33.0975 34.0945,33.098 34.8655,33.098 C35.445,33.098 35.995,33.0975 36.4955,33.0965 L34.757,40.162 C34.6405,40.19 34.533,40.2365 34.4225,40.28 L28.322,33.0965 M23.782,3.4455 C23.658,3.4455 23.5335,3.448 23.408,3.453 L23.408,3.453 C21.438,3.536 19.4205,4.0875 17.424,4.883 C12.8605,6.7 10.391,11.092 10.0865,14.4385 C10.018,15.1915 10.031,15.889 10.07,16.5585 C7.372,17.553 5.437,18.9245 4.2865,20.579 C3.015,22.4085 2.7375,24.518 3.15,26.3835 C3.945,29.977 6.986,32.902 10.521,33.113 L10.705,29.4455 C10.2325,29.1135 9.936,28.552 9.936,27.9145 C9.936,26.8945 10.7265,26.064 11.708,26.064 C12.089,26.064 12.438,26.188 12.7275,26.4005 L16.5885,23.7755 C16.583,23.7115 16.572,23.6565 16.572,23.5905 C16.572,22.3505 17.5345,21.3365 18.728,21.3365 C18.933,21.3365 19.125,21.3815 19.313,21.437 L23.692,16.1545 C23.4925,15.856 23.3745,15.5025 23.3745,15.1115 C23.3745,14.0915 24.165,13.261 25.1465,13.261 C25.9175,13.261 26.572,13.7755 26.8175,14.489 L40.557,14.977 C40.812,14.6475 41.2045,14.4385 41.6435,14.4385 C42.4125,14.4385 43.0475,15.086 43.0475,15.8855 C43.0475,15.968 43.0265,16.042 43.014,16.121 L51.856,27.376 C51.9415,27.359 52.0325,27.3425 52.1235,27.3425 C52.8925,27.3425 53.5105,27.99 53.5105,28.7895 C53.5105,29.233 53.3115,29.6175 53.009,29.883 L53.9285,33.0795 C53.579,33.0795 53.348,33.079 53.083,33.079 C52.9505,33.079 52.81,33.079 52.6415,33.0795 L53.4435,35.855 L51.3715,33.08 C51.512,33.0795 51.636,33.0795 51.7535,33.0795 C51.8715,33.0795 51.983,33.0795 52.098,33.08 L52.4445,33.08 L52.6415,33.08 L51.8055,30.186 L51.7055,30.1695 L50.92,32.491 L51.3705,33.0795 L50.556,33.0795 L49.031,33.0795 L49.733,34.0215 L48.028,39.001 L37.6985,41.491 C37.555,41.2325 37.3765,41.016 37.164,40.818 L39.0695,33.096 L36.4955,33.096 L39.136,22.3965 L38.4845,22.4805 L30.963,25.3745 C30.9885,25.484 31.013,25.593 31.013,25.711 C31.013,26.5105 30.3785,27.1575 29.609,27.1575 C29.071,27.1575 28.621,26.831 28.3885,26.367 L23.1235,26.9895 L28.3215,33.096 C27.383,33.096 26.066,33.111 25.0795,33.1125 L32.7845,42.164 C32.7675,42.2305 32.747,42.297 32.7345,42.3655 L15.7025,44.267 C15.587,44.143 15.4465,44.0335 15.3015,43.947 L20.767,35.2495 C20.878,35.279 20.9985,35.3 21.118,35.3 C21.8875,35.3 22.5055,34.6525 22.5055,33.853 C22.5055,33.58 22.4315,33.3335 22.305,33.113 L25.0795,33.113 L22.238,29.782 L21.653,32.5075 C21.925,32.627 22.153,32.849 22.3045,33.113 L19.9315,33.113 C20.162,32.708 20.5705,32.43 21.051,32.4065 L21.7365,29.193 L20.1485,27.3255 L18.31,27.5445 L17.2905,33.113 L19.931,33.113 C19.808,33.33 19.731,33.5825 19.731,33.853 C19.731,34.2965 19.9135,34.681 20.2155,34.9465 L15.5855,42.332 L17.2905,33.113 C16.8255,33.113 16.4845,33.1295 16.0035,33.1295 L17.0065,27.696 L13.463,28.1165 C13.373,28.957 12.745,29.6355 11.942,29.7485 L11.758,33.1295 L11.3895,33.1295 L10.705,33.1295 C10.643,33.1295 10.583,33.1165 10.521,33.113 L10.003,43.224 C9.569,43.469 9.2675,43.936 9.2675,44.4855 C9.2675,45.285 9.9025,45.9325 10.6715,45.9325 C10.7335,45.9325 10.7955,45.924 10.8555,45.916 L20.5165,56.212 L20.5165,56.3295 C20.5165,57.129 21.1345,57.7765 21.9035,57.7765 C22.187,57.7765 22.4525,57.6755 22.6725,57.524 L27.904,60.4685 C27.8945,60.5465 27.8875,60.623 27.8875,60.704 C27.8875,61.7235 28.6775,62.5545 29.659,62.5545 C30.5905,62.5545 31.355,61.8025 31.431,60.855 L45.6215,56.5485 C45.945,57.0015 46.4575,57.3055 47.042,57.3055 C48.0235,57.3055 48.8305,56.4745 48.8305,55.455 C48.8305,55.021 48.687,54.626 48.446,54.311 L54.597,40.246 C55.571,40.237 56.369,39.4265 56.369,38.4125 C56.369,37.52 55.758,36.7675 54.948,36.5955 L53.9285,33.0795 L54.2795,33.0795 C59.1535,32.5105 62.2785,28.8055 62.904,24.802 C63.5845,20.4485 61.456,15.5395 56.4855,13.682 C54.8455,13.0685 53.3685,12.8235 52.0455,12.8235 C51.1165,12.8235 50.2635,12.9445 49.4825,13.1435 C47.571,8.0195 46.4875,6.4055 42.529,4.715 C41.1705,4.1345 39.586,3.8915 38.0085,3.8915 C34.9905,3.8915 31.999,4.78 30.662,5.8925 C28.651,4.2145 26.48,3.513 24.2435,3.453 C24.089,3.449 23.9355,3.4455 23.782,3.4455" id="Fill-3" fill="#F9F9FD" sketch:type="MSShapeGroup"></path>
            <text id="SageMathC" sketch:type="MSTextLayer" font-family="OCRA" font-size="42.5" font-weight="normal" letter-spacing="-0.110200003" fill="#FFFFFF">
                <tspan x="68" y="50">SageMathC</tspan>
            </text>
            <text id="l" sketch:type="MSTextLayer" font-family="OCRA" font-size="42.5" font-weight="normal" fill="#FFFFFF">
                <tspan x="342" y="50">l</tspan>
            </text>
            <text id="oud" sketch:type="MSTextLayer" font-family="OCRA" font-size="42.5" font-weight="normal" letter-spacing="-0.110100001" fill="#FFFFFF">
                <tspan x="369" y="50">oud</tspan>
            </text>
        </g>
    </g>
</svg>