<svg width="500" height="500" viewBox="0 0 500 500" fill="none" xmlns="http://www.w3.org/2000/svg">
<path d="M250 494C384.757 494 494 384.757 494 250C494 115.243 384.757 6 250 6C115.243 6 6 115.243 6 250C6 384.757 115.243 494 250 494Z" fill="#333333"/>
<path d="M403.98 203.26H295.02C289.486 203.26 285 207.746 285 213.28V322.24C285 327.774 289.486 332.26 295.02 332.26H403.98C409.514 332.26 414 327.774 414 322.24V213.28C414 207.746 409.514 203.26 403.98 203.26Z" fill="#333333"/>
<path d="M404 213.27V322.27H295V213.27H404ZM404 193.27H295C289.696 193.27 284.609 195.377 280.858 199.128C277.107 202.879 275 207.966 275 213.27V322.27C275 327.574 277.107 332.661 280.858 336.412C284.609 340.163 289.696 342.27 295 342.27H404C409.304 342.27 414.391 340.163 418.142 336.412C421.893 332.661 424 327.574 424 322.27V213.27C424 207.966 421.893 202.879 418.142 199.128C414.391 195.377 409.304 193.27 404 193.27Z" fill="white"/>
<path d="M140.21 249.79C140.21 160.49 197.5 106 266 108C266 108 296 107 340 127" stroke="white" stroke-width="20" stroke-miterlimit="10" stroke-linecap="round"/>
<path d="M190.98 203.26H82.02C76.4861 203.26 72 207.746 72 213.28V322.24C72 327.774 76.4861 332.26 82.02 332.26H190.98C196.514 332.26 201 327.774 201 322.24V213.28C201 207.746 196.514 203.26 190.98 203.26Z" fill="#333333"/>
<path d="M191 213.27V322.27H82V213.27H191ZM191 193.27H82C76.6957 193.27 71.6086 195.377 67.8579 199.128C64.1071 202.879 62 207.966 62 213.27V322.27C62 327.574 64.1071 332.661 67.8579 336.412C71.6086 340.163 76.6957 342.27 82 342.27H191C196.304 342.27 201.391 340.163 205.142 336.412C208.893 332.661 211 327.574 211 322.27V213.27C211 207.966 208.893 202.879 205.142 199.128C201.391 195.377 196.304 193.27 191 193.27Z" fill="white"/>
<path d="M332 92.5L342.23 130.63L312 145.5" stroke="white" stroke-width="20" stroke-miterlimit="10" stroke-linecap="round"/>
</svg>
