<svg width="120" height="120" viewBox="0 0 120 120" fill="none" xmlns="http://www.w3.org/2000/svg">
<path d="M59.9999 118.56C92.3417 118.56 118.56 92.3418 118.56 60C118.56 27.6582 92.3417 1.44 59.9999 1.44C27.6581 1.44 1.43994 27.6582 1.43994 60C1.43994 92.3418 27.6581 118.56 59.9999 118.56Z" fill="#4F4F4F"/>
<path d="M96.9552 48.7824H70.8048C69.4767 48.7824 68.4 49.8591 68.4 51.1872V77.3376C68.4 78.6657 69.4767 79.7424 70.8048 79.7424H96.9552C98.2834 79.7424 99.36 78.6657 99.36 77.3376V51.1872C99.36 49.8591 98.2834 48.7824 96.9552 48.7824Z" fill="#4F4F4F"/>
<path d="M96.96 51.1848V77.3448H70.8V51.1848H96.96V51.1848ZM96.96 46.3848H70.8C69.527 46.3848 68.3061 46.8905 67.4059 47.7907C66.5057 48.6909 66 49.9118 66 51.1848V77.3448C66 78.6179 66.5057 79.8388 67.4059 80.7389C68.3061 81.6391 69.527 82.1448 70.8 82.1448H96.96C98.233 82.1448 99.4539 81.6391 100.354 80.7389C101.254 79.8388 101.76 78.6179 101.76 77.3448V51.1848C101.76 49.9118 101.254 48.6909 100.354 47.7907C99.4539 46.8905 98.233 46.3848 96.96 46.3848V46.3848Z" fill="white"/>
<path d="M33.6504 59.9496C33.6504 38.5176 47.4 25.44 63.84 25.92C63.84 25.92 71.04 25.68 81.6 30.48" stroke="white" stroke-width="5" stroke-miterlimit="10" stroke-linecap="round"/>
<path d="M45.8352 48.7824H19.6848C18.3567 48.7824 17.28 49.8591 17.28 51.1872V77.3376C17.28 78.6657 18.3567 79.7424 19.6848 79.7424H45.8352C47.1634 79.7424 48.24 78.6657 48.24 77.3376V51.1872C48.24 49.8591 47.1634 48.7824 45.8352 48.7824Z" fill="#4F4F4F"/>
<path d="M45.84 51.1848V77.3448H19.68V51.1848H45.84V51.1848ZM45.84 46.3848H19.68C18.407 46.3848 17.1861 46.8905 16.2859 47.7907C15.3857 48.6909 14.88 49.9118 14.88 51.1848V77.3448C14.88 78.6179 15.3857 79.8388 16.2859 80.7389C17.1861 81.6391 18.407 82.1448 19.68 82.1448H45.84C47.113 82.1448 48.3339 81.6391 49.2341 80.7389C50.1343 79.8388 50.64 78.6179 50.64 77.3448V51.1848C50.64 49.9118 50.1343 48.6909 49.2341 47.7907C48.3339 46.8905 47.113 46.3848 45.84 46.3848Z" fill="white"/>
<path d="M79.6801 22.2L82.1353 31.3512L74.8801 34.92" stroke="white" stroke-width="5" stroke-miterlimit="10" stroke-linecap="round"/>
</svg>
