<?xml version="1.0" encoding="UTF-8" standalone="no"?>
<svg width="81px" height="81px" viewBox="0 0 81 81" version="1.1" xmlns="http://www.w3.org/2000/svg" xmlns:xlink="http://www.w3.org/1999/xlink" xmlns:sketch="http://www.bohemiancoding.com/sketch/ns">
    <!-- Generator: Sketch 3.3.3 (12072) - http://www.bohemiancoding.com/sketch -->
    <title>&lt;/&gt; copy</title>
    <desc>Created with Sketch.</desc>
    <defs>
        <linearGradient x1="-14.4048647%" y1="118.949807%" x2="100%" y2="-16.4479111%" id="linearGradient-1">
            <stop stop-color="#CCCBCB" offset="0%"></stop>
            <stop stop-color="#747171" offset="100%"></stop>
        </linearGradient>
    </defs>
    <g id="Page-1" stroke="none" stroke-width="1" fill="none" fill-rule="evenodd" sketch:type="MSPage">
        <g id="Home---Desktop-Copy-2" sketch:type="MSArtboardGroup" transform="translate(-357.000000, -1022.000000)" fill="url(#linearGradient-1)">
            <g id="Group" sketch:type="MSLayerGroup" transform="translate(130.000000, 1019.000000)">
                <g id="Share-Notebooks.-+-The-Notebook-has-sup-+-Fill-1" transform="translate(227.000000, 3.000000)" sketch:type="MSShapeGroup">
                    <path d="M30.7574743,21.983138 C26.7919781,21.9762403 22.8264819,21.9804208 18.8611965,21.9515759 C18.2052672,21.9469774 17.9256596,22.1058334 17.9273453,22.8204762 C17.9465196,30.8619329 17.9380913,38.9035986 17.9391449,46.9450552 C17.9391449,47.0483116 17.9680116,47.151359 17.9838146,47.2546153 C17.9678009,53.0674899 17.9602155,58.8805734 17.923974,64.693657 C17.9195492,65.4087179 18.2891283,65.4647356 18.847922,65.4620183 C21.3745035,65.449268 23.9012958,65.4599281 26.428088,65.4601371 C37.9739609,65.4607642 49.5198339,65.4480139 61.0657068,65.4829204 C62.0834192,65.4858467 62.3531235,65.1990698 62.3484879,64.2016215 C62.3084537,55.3591963 62.3181462,46.5165621 62.3288922,37.6741369 C62.3295243,37.2550498 62.0752016,36.6020681 62.6007036,36.461397 C63.3609326,36.2578105 64.2136618,36.223322 64.9747336,36.5048733 C65.3230315,36.6336303 65.1605768,37.1344447 65.1612089,37.4678332 C65.1679515,42.4462958 65.1650016,47.4245494 65.1635267,52.402803 C65.1624731,56.7195051 65.1584697,61.0364162 65.1631052,65.3531183 C65.163316,65.7293562 65.0752406,66.1221067 65.2931112,66.4759792 C65.2410666,68.3394016 65.2410666,68.3389836 63.3729429,68.3391926 C51.5565228,68.3398197 39.7401028,68.3402377 27.923472,68.3425369 C27.4681352,68.342746 27.0125878,68.3603037 26.5572511,68.3699187 C23.1910042,68.3575865 19.824968,68.3437911 16.4589318,68.3337581 C15.0172779,68.3295776 15.0094818,68.333131 15.0181208,66.9498299 C15.0493053,61.9843266 15.0876539,57.0188232 15.1182063,52.0533199 C15.1207348,51.63695 15.0866004,51.2201621 15.0693224,50.8035832 C15.1725686,47.3327892 15.2402054,43.8607411 15.0240205,40.3930823 C14.9584908,39.3425427 15.1508658,38.3162495 15.1375913,37.2755338 C15.0872325,33.3517913 15.0450912,29.4282577 15,25.5045151 C15.3514584,23.822732 15.0927109,22.1225551 15.1485481,20.4319931 C15.1940607,19.0478559 15.158662,19.0457657 16.610219,19.0455566 C22.878105,19.0447205 29.145991,19.0459747 35.4138771,19.0430484 C37.1178605,19.0424213 36.8793407,19.0351056 36.889876,20.5116301 C36.8909296,20.6495839 36.9206392,20.7871198 36.937285,20.9248646 C37.0224104,21.7824779 36.6197503,22.0475165 35.7847205,21.9800027 C34.9642294,21.9137431 34.133203,21.9768674 33.3068121,21.983138 C32.4570329,21.982929 31.6072536,21.983138 30.7574743,21.983138 Z M32.484214,47.6469478 C31.9526015,47.0867715 32.1761611,46.4465401 32.2416908,45.7973208 C32.4614577,43.6203669 32.7444365,41.4496836 33.3200866,39.3396164 C35.2305624,32.334486 39.143382,26.8083883 45.8059212,23.5474513 C48.5977823,22.18129 51.6536585,21.4607945 54.7784358,21.1012784 C56.5978863,20.8920483 58.4145977,20.9305082 60.2346804,20.9022903 C60.4932173,20.8983189 60.8385652,21.0592651 60.9957522,20.7453156 C61.123019,20.491146 60.8533147,20.3024 60.7169876,20.1176254 C59.5197533,18.4949953 58.3115622,16.8805169 57.1065318,15.2635303 C56.8085928,14.3806255 56.9034108,13.6062027 57.8347335,13.172066 C58.8355893,12.7053221 59.4535914,13.2531661 59.9938429,14.0359499 C60.4420156,14.6853782 60.9626713,15.2854775 61.4506676,15.9075241 C62.8310058,17.8242468 64.2071299,19.7445229 65.5948428,21.6564382 C66.706741,23.1883532 66.6538537,23.7042171 65.2421202,24.9942948 C64.9639876,25.2486734 64.5777626,25.4004227 64.4372214,25.79171 C62.675083,27.4210289 60.913366,29.0520199 59.1501741,30.6809207 C58.8438068,30.9641442 58.5538747,31.2732863 58.2140051,31.5107341 C57.682182,31.8819555 57.1063211,31.8457948 56.5192928,31.5932974 C55.7192403,31.2490398 55.8555674,30.5440119 55.8208008,29.8996001 C57.2911107,28.2115464 58.9569562,26.7222716 60.6057345,25.2127218 C60.9614071,24.8870671 61.6931907,24.6061428 61.4890161,24.0844263 C61.3221366,23.6576054 60.5981491,23.8563844 60.1183704,23.8392447 C57.9413509,23.7619069 55.7746561,23.8960984 53.6271355,24.2564506 C48.0853441,25.1861761 43.3908034,27.591381 40.0079107,32.1582813 C36.8275069,36.451991 35.6623,41.4260642 35.2333016,46.6267162 C34.8363306,48.275265 33.8061865,48.6575644 32.484214,47.6469478 Z" id="Fill-1"></path>
                </g>
            </g>
        </g>
    </g>
</svg>