<?xml version="1.0" encoding="UTF-8" standalone="no"?>
<svg
   width="300"
   height="90"
   viewBox="0 0 300 90"
   version="1.1"
   id="svg8966"
   sodipodi:docname="sheffield.svg"
   inkscape:version="1.1.1 (3bf5ae0d25, 2021-09-20)"
   xmlns:inkscape="http://www.inkscape.org/namespaces/inkscape"
   xmlns:sodipodi="http://sodipodi.sourceforge.net/DTD/sodipodi-0.dtd"
   xmlns="http://www.w3.org/2000/svg"
   xmlns:svg="http://www.w3.org/2000/svg"
   xmlns:rdf="http://www.w3.org/1999/02/22-rdf-syntax-ns#"
   xmlns:cc="http://creativecommons.org/ns#"
   xmlns:dc="http://purl.org/dc/elements/1.1/"
   xmlns:sketch="http://www.bohemiancoding.com/sketch/ns">
  <sodipodi:namedview
     id="namedview8968"
     pagecolor="#ffffff"
     bordercolor="#666666"
     borderopacity="1.0"
     inkscape:pageshadow="2"
     inkscape:pageopacity="0.0"
     inkscape:pagecheckerboard="0"
     showgrid="false"
     inkscape:zoom="2.8936785"
     inkscape:cx="156.89373"
     inkscape:cy="-17.797416"
     inkscape:window-width="1866"
     inkscape:window-height="1016"
     inkscape:window-x="54"
     inkscape:window-y="27"
     inkscape:window-maximized="1"
     inkscape:current-layer="svg8966" />
  <!-- Generator: Sketch 3.3.3 (12072) - http://www.bohemiancoding.com/sketch -->
  <title
     id="title8893">Imported Layers</title>
  <desc
     id="desc8895">Created with Sketch.</desc>
  <defs
     id="defs8897" />
  <g
     id="Page-1"
     stroke="none"
     stroke-width="1"
     fill="none"
     fill-rule="evenodd"
     sketch:type="MSPage"
     transform="matrix(1.4840469,0,0,1.4840469,48.31758,0.50584444)">
    <g
       id="Imported-Layers"
       sketch:type="MSLayerGroup"
       fill="#b1b1b1">
      <path
         d="m 34.314357,0.10617512 c 0.77974,0.0790783 1.558375,0.17751152 2.339772,0.23391705 5.402385,0.39041474 10.737928,1.21023043 16.019333,2.41133643 0.656826,0.1493087 0.867298,0.3821198 0.863984,1.0775115 -0.03176,6.4122579 0.03674,12.8253459 -0.03342,19.2367739 -0.07927,7.23871 -1.929877,13.927466 -6.514129,19.68636 -0.695496,0.873456 -1.459768,1.692166 -2.20581,2.55235 1.900046,0.27788 7.377008,-1.880737 9.551054,-3.760645 -0.54579,-0.66083 -1.073075,-1.340185 -1.645933,-1.978618 -0.392218,-0.436866 -0.431716,-0.887281 -0.24417,-1.406544 0.543581,-1.506359 2.664595,-2.748387 4.230151,-2.456958 0.664837,0.123595 1.099591,0.496866 1.260898,1.190599 0.340566,1.463502 0.961209,2.783226 1.979594,3.916866 0.671742,0.74765 0.670914,1.578802 0.07347,2.572258 -0.857078,1.42507 -2.031798,2.554286 -3.375282,3.510415 -2.84275,2.023134 -6.060593,3.116682 -9.446647,3.784701 -0.625615,0.123594 -1.253716,0.235023 -1.880436,0.354193 -0.01602,0.003 -0.02707,0.0318 -0.09004,0.111429 0.214339,0.52811 0.402437,1.115115 0.683343,1.653733 0.425086,0.816221 0.241683,1.494193 -0.360178,2.105253 -1.147927,1.165438 -2.526766,1.998525 -3.998135,2.672627 -3.233034,1.480645 -6.628756,2.195668 -10.191308,2.273364 -3.886271,0.08461 -7.662333,-0.353641 -11.278746,-1.84894 C 18.369048,57.302212 16.783052,56.44341 15.420234,55.217696 14.392458,54.293088 14.30269,53.812535 14.851242,52.542028 15.050665,52.08 15.226335,51.607465 15.448684,51.050046 14.738825,50.916774 14.099675,50.805346 13.464117,50.676221 9.4038347,49.850876 5.5929698,48.452627 2.5386432,45.530876 1.6467621,44.67788 1.0001552,43.568295 0.24113105,42.576221 V 41.51447 C 0.36735887,41.309862 0.46486089,41.07871 0.62451008,40.905346 1.7160907,39.718617 2.3491633,38.307097 2.7234274,36.756498 2.899373,36.02682 3.4584214,35.739816 4.1472883,35.679816 5.611752,35.552074 7.3714839,36.5447 8.0468165,37.860553 c 0.3902843,0.760369 0.3441573,1.143595 -0.2113004,1.810507 -0.5176169,0.62129 -1.0324717,1.245069 -1.5448407,1.863871 1.9909194,1.831521 7.3615406,3.92129 9.5554736,3.74129 -0.03812,-0.05917 -0.06463,-0.119723 -0.107722,-0.163686 C 9.9717218,39.245253 7.3604355,32.059355 7.1831089,23.965438 7.0358891,17.24682 7.1505161,10.522949 7.1179234,3.8012903 7.1146089,3.1551152 7.2922117,2.9023963 7.930256,2.757788 13.212214,1.560553 18.546651,0.7321659 23.94876,0.34258065 24.753911,0.28451615 25.556024,0.18580645 26.359518,0.10617512 Z M 8.0669798,14.211705 c 0,1.459355 8.287e-4,2.918986 -2.762e-4,4.378341 -0.00249,3.290323 -0.050546,6.577051 0.5043589,9.844977 0.9667339,5.691982 3.2703225,10.725069 7.1919475,14.981751 3.982391,4.322489 8.926821,7.207742 14.268163,9.484977 0.186442,0.07935 0.478395,0.0376 0.674228,-0.05143 1.38243,-0.628756 2.777565,-1.237604 4.122706,-1.940738 4.466586,-2.335299 8.452845,-5.285806 11.580091,-9.295299 4.298651,-5.510876 6.06004,-11.88553 6.165552,-18.757051 0.09419,-6.146267 0.01574,-12.295299 0.0279,-18.4429493 C 52.602476,3.9735484 52.523756,3.7479263 52.02796,3.660553 48.649639,3.064977 45.293415,2.3181567 41.898246,1.8503226 38.606103,1.3965899 35.281091,1.1120737 31.96105,0.94645161 27.876462,0.74267281 23.797673,1.076682 19.759488,1.7040553 16.043363,2.281106 12.351268,3.0121659 8.6445343,3.6511521 8.1636532,3.7338249 8.053998,3.9348387 8.0567601,4.3929954 c 0.019058,3.2729032 0.01022,6.5458066 0.01022,9.8187096 z M 30.730812,54.447926 c 2.967321,-0.05253 5.650974,-0.658617 8.224972,-1.779539 -0.318746,-0.728018 -0.608213,-1.388848 -0.883042,-2.016498 -2.400815,1.241475 -4.78478,2.474102 -7.34193,3.796037 z m -8.977366,-1.754378 c 2.636421,1.138618 5.346866,1.727005 8.206465,1.765162 -2.484782,-1.277143 -4.934762,-2.536314 -7.37756,-3.79189 -0.264609,0.647281 -0.530599,1.297328 -0.828905,2.026728 z m -7.786904,-4.878802 c 0.04723,0.02654 0.09419,0.05309 0.14142,0.07963 -0.230359,0.495207 -0.460994,0.990138 -0.702125,1.508295 0.323994,0.05751 0.758748,0.134378 1.298738,0.230046 -0.494968,-0.559355 -0.01492,-2.249862 0.641082,-2.737604 -0.664008,-0.380184 -1.130802,-0.139078 -1.497056,0.491337 -0.170145,0.293364 -0.415419,0.542765 -0.626444,0.812073 -0.04392,-0.01438 -0.08811,-0.02903 -0.132028,-0.04369 v -1.803595 c -0.389732,-0.08765 -0.703506,-0.158156 -1.112572,-0.25023 0.573963,0.603594 0.08756,1.05235 -0.04972,1.501659 -0.136724,0.44682 -0.108274,1.041567 -0.757091,1.241198 0.320679,0.08184 0.641359,0.16341 1.076942,0.274562 -0.568716,-0.722488 -0.0069,-1.146083 0.190308,-1.637972 0.04143,0.575391 0.08259,1.15106 0.124018,1.726728 0.06049,0.02378 0.12098,0.04728 0.181746,0.07106 0.407409,-0.488019 0.815095,-0.97576 1.22278,-1.463503 z M 8.053998,47.351336 C 8.1526048,46.81106 8.218619,46.45106 8.2851855,46.087189 9.0058165,45.854378 9.223746,45.276498 8.6859657,44.847373 8.1896169,44.451152 7.5894133,44.185714 6.8850786,43.775392 c 0.3958085,0.778064 -0.3488528,2.374838 -1.0719697,2.630046 0.4350302,0.236682 0.8468588,0.460921 1.2586875,0.685161 -0.4375162,-0.602212 0.00138,-0.944516 0.3731592,-1.323318 0.1096553,0.280092 0.096121,0.558525 0.113246,0.835023 0.017401,0.282581 0.00525,0.592811 0.1245706,0.831705 0.059109,0.118341 0.4673468,0.208756 0.5714778,0.12636 0.198871,-0.157051 0.2927823,-0.446821 0.4303347,-0.681567 -0.053308,-0.0318 -0.106617,-0.06359 -0.1602016,-0.09511 -0.1256754,0.151797 -0.251627,0.303594 -0.4703851,0.567649 z m 33.45645,8.400277 c -0.253561,-0.484148 -0.582803,-0.919355 -0.243065,-1.522396 0.226768,-0.402028 -0.264056,-0.782765 -0.764272,-0.596406 -0.56844,0.212074 -1.111468,0.492996 -1.750341,0.782212 0.764825,0.244977 0.551039,0.824793 0.609595,1.262765 0.05939,0.446267 0.01298,0.906636 0.01298,1.392442 0.325099,-0.136037 0.763167,-0.319078 1.366961,-0.57152 -0.609318,-0.08544 -0.735546,-0.247189 -0.710411,-0.768387 0.0069,-0.141567 0.133133,-0.277328 0.204671,-0.415577 0.154125,0.19189 0.375922,0.361383 0.448289,0.580369 0.138381,0.419447 0.388627,0.440184 0.712897,0.29447 0.440554,-0.197972 0.494692,-0.617696 0.112694,-1.170968 v 0.732996 z M 56.565532,39.538617 c 0.526732,-0.751797 0.94519,-1.438617 0.969772,-2.292442 0.02155,-0.755668 -0.342223,-1.146912 -1.097381,-1.192258 -1.416403,-0.08516 -2.530633,0.496037 -3.368653,1.605346 -0.31405,0.415852 -0.644121,0.89917 -0.302449,1.449677 0.209919,0.338157 1.010927,0.285069 1.58351,-0.123594 0.417629,-0.298065 0.773663,-0.68212 1.194607,-1.061475 0.325098,0.514286 0.640806,1.013917 1.020594,1.614746 z M 5.0148629,38.012627 c 0.6258911,0.412811 1.1727863,0.849124 1.7881815,1.142488 0.253008,0.120553 0.782502,0.04562 0.9493326,-0.146544 0.1637923,-0.188295 0.1212561,-0.676589 0.00525,-0.967465 C 7.2806109,36.84553 5.536623,35.88 4.2345706,36.030138 3.3092681,36.13659 2.8455121,36.747926 3.1150927,37.64765 c 0.1925182,0.64258 0.5278367,1.24258 0.8565263,1.991336 0.4223246,-0.658341 0.7518427,-1.17235 1.0432439,-1.626359 z M 37.23196,56.17659 c -0.115732,-0.04756 -0.231188,-0.09484 -0.34692,-0.14212 0.11076,-0.309401 0.130924,-0.739078 0.349958,-0.903594 0.508502,-0.381567 0.792722,0.04894 1.07777,0.456774 -0.03038,-0.31106 -0.06104,-0.621844 -0.09999,-1.016406 -0.830562,0.237512 -1.572738,0.449862 -2.413796,0.690415 0.689972,0.290599 0.809847,2.197604 0.17705,2.870599 0.945742,-0.268756 1.753932,-0.498525 2.609629,-0.741843 -0.05193,-0.397327 -0.09612,-0.733825 -0.140314,-1.070323 -0.116561,0.785807 -0.500492,1.198618 -1.413641,1.167926 0.05027,-0.366912 0.09805,-0.715576 0.145838,-1.064239 0.193347,0.124424 0.38697,0.248848 0.614567,0.395115 -0.02541,-0.481659 -0.04972,-0.94424 -0.08203,-1.558617 -0.215168,0.412534 -0.346643,0.664423 -0.478119,0.916313 z M 25.89079,55.403226 c 0.567059,0.488848 0.59827,0.808203 0.303831,1.700184 -0.693563,-0.523687 -0.436135,-1.968664 -1.876016,-1.923041 0.591088,0.496589 0.237816,1.009493 0.173183,1.474562 -0.06132,0.439631 -0.24555,0.862396 -0.385865,1.325806 0.219311,0.04783 0.546343,0.119447 1.05816,0.231429 -0.866746,-0.68682 -0.265714,-1.287926 -0.304107,-1.980277 0.631691,0.710876 0.708201,1.639908 1.406736,2.185991 0.476738,-0.938433 -0.02873,-2.057696 0.853764,-2.805069 -0.35493,-0.06055 -0.695772,-0.118617 -1.229686,-0.209585 z M 1.6125121,42.236958 c 0.309631,0.387097 0.6004798,0.750692 0.8211714,1.026637 0.080101,-0.389586 0.1648972,-0.801291 0.2499697,-1.212719 0.1002641,0.0097 0.2005283,0.01963 0.3010686,0.02958 0,0.299447 0.017401,0.600553 -0.00608,0.898064 -0.016849,0.21401 -0.1778791,0.456774 -0.1149033,0.62765 0.093635,0.254101 0.3281371,0.455945 0.5027017,0.679908 0.1497056,-0.215668 0.2994112,-0.43106 0.4491169,-0.646452 -0.056623,-0.03788 -0.113246,-0.07548 -0.169869,-0.113364 -0.096673,0.116129 -0.1933467,0.232535 -0.4060282,0.488019 0.1510867,-0.544424 0.1574395,-1.153272 0.3731593,-1.239816 0.8258669,-0.332074 0.5452379,-0.890323 0.3184697,-1.331613 -0.2693044,-0.524239 -0.7098588,-0.96 -1.0761129,-1.434193 0.1046835,0.701751 -0.6267197,2.121843 -1.2426673,2.228294 z m 26.9401109,16.41954 c 0.818409,0.0055 1.383258,-0.613272 1.385744,-1.518249 0.0025,-0.851613 -0.520655,-1.45659 -1.27968,-1.479816 -0.753223,-0.02295 -1.372209,0.668848 -1.386572,1.549493 -0.01409,0.847742 0.512645,1.443595 1.280508,1.448572 z M 5.1689879,45.194378 c 0.2723427,-0.527005 0.4886149,-0.945346 0.7082016,-1.370599 -0.2825625,0.06857 -0.4886149,0.118341 -0.6946673,0.168387 0.082863,-0.301936 0.166002,-0.603871 0.2474838,-0.9 0.8598408,0.286728 0.6990867,0.886728 0.7374799,1.435023 C 6.3174677,44.245438 6.4674496,43.963963 6.6323468,43.654562 6.0177802,43.1447 5.4363589,42.661935 4.7477681,42.090415 c 0.2886392,0.804608 -0.525627,2.374562 -1.217256,2.518341 0.6261673,0.516497 1.2269234,1.011981 1.8843024,1.554193 0.1787077,-0.378525 0.318746,-0.674931 0.4585081,-0.971336 -0.7399658,0.536958 -0.8242097,0.525898 -1.392373,-0.22977 0.1375524,-0.253272 0.2809052,-0.516497 0.4239818,-0.78 0.065186,0.0053 0.130371,0.01078 0.1952803,0.01604 0.019887,0.285899 0.039498,0.571521 0.068776,0.996498 z M 22.682339,56.020369 c 0.029,0.356682 0.08507,0.655299 0.05607,0.945622 -0.0077,0.07714 -0.371502,0.216497 -0.406857,0.177788 -0.206881,-0.22894 -0.499663,-0.497143 -0.508778,-0.761198 -0.01491,-0.417512 0.125399,-0.861844 0.29444,-1.25447 0.07016,-0.163134 0.40078,-0.329309 0.579764,-0.298894 0.184508,0.03124 0.371226,0.27705 0.477566,0.472258 0.100817,0.184424 0.09861,0.424977 0.141696,0.640921 0.0395,-0.0014 0.079,-0.0025 0.118494,-0.0036 0.08369,-0.329309 0.167107,-0.658618 0.246103,-0.969125 -0.194176,-0.07299 -0.366254,-0.101198 -0.493587,-0.191889 -0.504083,-0.358618 -1.012861,-0.435484 -1.519153,-0.03705 -0.47591,0.374655 -0.651026,1.208848 -0.38918,1.824056 0.247208,0.580368 0.668428,0.908848 1.334922,0.87235 0.188651,-0.01023 0.381169,0.05475 0.557667,0.08295 0.167935,-0.38212 0.341119,-0.776405 0.527008,-1.200276 -0.312945,-0.09235 -0.705992,-0.207927 -1.016175,-0.299447 z M 43.09451,53.44977 c -0.06491,-0.01742 -0.130095,-0.03484 -0.19528,-0.05253 -0.184232,-0.44682 -0.275657,-0.905253 0.285601,-1.1447 0.185612,-0.07908 0.468451,0.07023 0.733613,0.12 -0.05607,-0.193549 -0.139763,-0.480277 -0.237817,-0.817604 -0.689143,0.519262 -1.29929,0.978802 -1.975452,1.48811 0.866194,0.05336 0.563744,0.727742 0.677266,1.132535 0.126505,0.450138 0.08231,0.948387 0.111865,1.41788 0.390837,-0.287281 0.906797,-0.64894 1.402869,-1.036037 0.610148,-0.475852 0.622301,-0.662488 0.08424,-1.389677 0.140867,0.782488 -0.07762,1.304793 -0.932207,1.606728 0.029,-0.427742 0.05248,-0.769216 0.07568,-1.110415 0.169317,0.06498 0.338633,0.130231 0.544686,0.209586 -0.08369,-0.39318 -0.162412,-0.778618 -0.251075,-1.161844 -0.01243,-0.05364 -0.07347,-0.09622 -0.119322,-0.152903 -0.07043,0.307465 -0.137553,0.599171 -0.204672,0.890876 z m -22.281835,1.451612 c -0.0033,-0.927649 -0.665113,-1.710691 -1.423584,-1.684147 -0.586117,0.02074 -1.015071,0.576498 -1.022529,1.325253 -0.0099,0.942305 0.611252,1.694655 1.405355,1.702673 0.636111,0.0064 1.043797,-0.520092 1.040758,-1.343779 z m 28.353476,-6.008571 c -0.106064,-0.319631 -0.17705,-0.533917 -0.248036,-0.747926 0.231187,-0.06221 0.462375,-0.124148 0.693839,-0.18636 0.04557,0.216498 0.09115,0.432719 0.154953,0.735208 0.31046,-0.101198 0.752948,-0.245254 1.048492,-0.341751 -0.640806,-0.820646 -1.271393,-1.628019 -1.985947,-2.543503 -0.430335,1.139447 0.137276,2.279724 -0.451879,3.33788 0.348576,-0.111981 0.613461,-0.197142 0.788578,-0.253548 z m -16.778357,6.955023 c -0.317917,-0.05945 -0.558496,-0.126083 -0.802665,-0.145161 -0.489996,-0.03816 -0.878623,0.133272 -1.007613,0.647557 -0.114903,0.457881 0.02348,0.829494 0.480605,1.032719 0.140038,0.06249 0.309907,0.07714 0.428677,0.164793 0.194728,0.143226 0.372055,0.317972 0.517893,0.509032 0.01795,0.02323 -0.22732,0.346452 -0.310735,0.329862 -0.254113,-0.0506 -0.525904,-0.156774 -0.719527,-0.324055 -0.151086,-0.130507 -0.196108,-0.384332 -0.288363,-0.58341 -0.02734,0.01244 -0.05469,0.02488 -0.08203,0.03733 v 0.97023 c 0.261571,0.06194 0.474528,0.112258 0.687486,0.162581 0.58004,0.137696 1.050978,-0.105622 1.19875,-0.630692 0.16324,-0.580092 -0.09225,-0.930138 -0.633072,-1.11235 -0.125123,-0.0423 -0.27041,-0.05475 -0.372883,-0.127742 -0.165174,-0.117788 -0.33891,-0.25493 -0.430335,-0.426083 -0.02983,-0.05585 0.196661,-0.356682 0.286982,-0.347834 0.233673,0.02212 0.486957,0.115023 0.673951,0.256867 0.127609,0.0965 0.156887,0.322949 0.278696,0.603041 0.05358,-0.207097 0.08839,-0.284516 0.09143,-0.363041 0.008,-0.218987 0.0028,-0.438249 0.0028,-0.653641 z M 53.25654,47.162765 c 0.169593,-0.127466 0.26599,-0.254101 0.38476,-0.280645 0.809571,-0.179724 1.178035,-0.595023 1.083295,-1.274378 -0.107998,-0.774194 -0.647436,-0.679631 -1.201236,-0.612442 -0.157163,0.01908 -0.436964,-0.07963 -0.474252,-0.188572 -0.04834,-0.140737 0.03894,-0.422765 0.160754,-0.503502 0.145562,-0.0965 0.412657,-0.105346 0.583907,-0.03954 0.151915,0.05862 0.244446,0.27152 0.363216,0.416405 0.03425,-0.01548 0.0685,-0.03124 0.10275,-0.04673 -0.08342,-0.318802 -0.167107,-0.63788 -0.248865,-0.950876 -0.222625,0.08848 -0.362111,0.162028 -0.510436,0.199632 -0.605727,0.154009 -0.966457,0.627926 -0.881108,1.200276 0.102197,0.684609 0.559324,0.734931 1.129145,0.653088 0.175669,-0.02544 0.490272,0.07548 0.535847,0.196313 0.05552,0.147373 -0.05331,0.474747 -0.186166,0.54553 -0.168211,0.08986 -0.452708,0.05032 -0.648264,-0.02903 -0.156335,-0.06332 -0.254941,-0.269585 -0.37896,-0.412535 -0.03425,0.01604 -0.06822,0.03207 -0.102197,0.04811 0.09308,0.34894 0.186165,0.698157 0.28781,1.078894 z m 1.853643,-4.624424 v 3.55659 c 0.208539,-0.170876 0.45547,-0.372996 0.702402,-0.575392 -0.06049,0.03124 -0.121256,0.06249 -0.181746,0.09373 -0.07706,-0.15235 -0.243341,-0.32682 -0.212406,-0.452074 0.06408,-0.258525 0.233674,-0.490783 0.359625,-0.733825 0.08563,0.02184 0.170974,0.04396 0.256599,0.06581 v 0.853548 c 0.37675,-0.319908 0.740795,-0.629032 1.098486,-0.932627 -0.986068,-0.307742 -1.186873,-1.34129 -2.02296,-1.87576 z m -3.362576,4.156866 C 51.502333,46.193641 50.62951,45.9647 51.126135,45.100369 c -0.489996,0.216774 -0.908454,0.402027 -1.326359,0.587004 0.273172,0.21318 0.496349,0.333456 0.645502,0.514562 0.37896,0.45954 0.716764,0.952258 1.088266,1.418157 0.103579,0.129678 0.266543,0.211797 0.402162,0.316037 0.07071,-0.02737 0.141419,-0.05475 0.212129,-0.08184 v -3.194655 c -0.182575,0.07935 -0.452156,0.19659 -0.73748,0.320738 0.758748,0.484424 0.216824,1.158525 0.337252,1.714838 z M 9.5311673,48.247465 c 0.066843,0.03926 0.1334093,0.0788 0.1999758,0.118065 0.6507499,-0.789125 1.3014999,-1.578249 1.9746229,-2.39447 -0.207433,-0.07161 -0.464308,-0.160092 -0.780845,-0.269309 0.223454,0.526175 -0.102197,1.12894 -0.760681,1.563871 0.0072,-1.421198 0.0072,-1.421198 0.464308,-1.691336 -0.456022,-0.170323 -0.8656407,-0.323226 -1.1694714,-0.436314 0.025411,0.540277 0.058556,1.03659 0.069605,1.53318 0.011601,0.525346 0.00249,1.050691 0.00249,1.576313 z m 26.1020907,9.013549 c -0.08176,-0.0376 -0.163792,-0.07493 -0.24555,-0.112535 -0.03508,0.07382 -0.08673,0.144056 -0.102474,0.221751 -0.08922,0.439908 -0.355758,0.812904 -0.785817,0.702028 -0.261294,-0.06719 -0.438897,-0.502949 -0.625615,-0.791336 -0.06518,-0.100646 -0.07651,-0.260461 -0.05938,-0.385991 0.06436,-0.467281 0.01022,-1.039632 0.605728,-1.195853 0.579764,-0.152073 0.625339,0.411982 0.829734,0.745715 0.0061,0.01023 0.03839,0.0044 0.101645,0.0091 v -1.037696 c -0.312393,0 -0.583078,-0.008 -0.853212,0.0017 -0.647987,0.02295 -1.092133,0.445714 -1.281889,1.209125 -0.166554,0.6694 0.02873,1.415668 0.559601,1.607004 0.370397,0.133549 0.893262,0.132719 1.236038,-0.03594 0.290297,-0.142396 0.420392,-0.612165 0.621196,-0.93705 z m 11.950488,-10.87742 c -0.181746,0.05309 -0.315708,0.129125 -0.447184,0.124977 -0.88608,-0.02737 -1.349008,0.347834 -1.417231,1.170692 -0.07292,0.882304 0.484471,1.678617 1.237419,1.768202 0.83802,0.09982 1.344865,-0.494654 1.037996,-1.353179 -0.04309,0.172258 -0.04198,0.286451 -0.09557,0.361659 -0.16324,0.22894 -0.32427,0.590322 -0.52977,0.622672 -0.218482,0.03429 -0.605728,-0.192165 -0.707373,-0.405622 -0.190584,-0.401751 -0.274552,-0.872626 -0.30825,-1.321659 -0.01326,-0.178894 0.200529,-0.504331 0.355206,-0.534193 0.206881,-0.04009 0.481986,0.105345 0.680028,0.241106 0.149982,0.10258 0.225111,0.314654 0.333661,0.478064 0.04447,-0.0235 0.08894,-0.047 0.13341,-0.07051 -0.08949,-0.355299 -0.178708,-0.710875 -0.272343,-1.082212 z m 9.763183,-6.018801 c -0.117113,0.139631 -0.187822,0.28341 -0.303002,0.350322 -0.538608,0.312996 -0.64053,0.813456 -0.604623,1.366175 0.04585,0.706452 0.353549,0.861014 0.987726,0.523964 0.10717,-0.05724 0.230083,-0.08488 0.562087,-0.203779 -0.108827,0.446267 -0.09336,0.861843 -0.271514,0.977142 -0.177603,0.114471 -0.549381,-0.07216 -0.859289,-0.131336 0.122085,0.29447 0.266267,0.642028 0.380065,0.91659 0.182298,-0.152627 0.325099,-0.28424 0.480052,-0.399816 0.472871,-0.352534 0.694115,-1.307281 0.386694,-1.81023 -0.391665,-0.640369 -0.745766,-0.04839 -1.114782,0.05419 -0.03812,0.01051 -0.08369,-0.0055 -0.32068,-0.02654 0.104684,-0.368295 0.198871,-0.699539 0.32427,-1.14083 0.315984,0.260185 0.465414,0.382949 0.614567,0.505991 0.02817,-0.02378 0.05635,-0.04728 0.0848,-0.07078 -0.107445,-0.28258 -0.214891,-0.565161 -0.346367,-0.911059 z M 17.976554,54.16977 c -0.632244,0.61576 -1.088818,0.49023 -1.208141,-0.290323 -0.07016,-0.459263 0.03867,-0.955576 0.127333,-1.423687 0.02955,-0.156774 0.245827,-0.278433 0.37675,-0.415852 0.152191,0.147097 0.375645,0.268203 0.440554,0.447097 0.112418,0.310506 0.126781,0.656682 0.182575,0.987926 0.029,0.0036 0.05828,0.0072 0.08756,0.01078 0.08645,-0.327926 0.172908,-0.655852 0.240855,-0.912442 -0.240855,-0.255484 -0.42122,-0.470046 -0.625338,-0.658894 -0.476462,-0.440461 -1.017557,-0.320737 -1.274984,0.270415 -0.321784,0.739631 -0.05966,1.907557 0.549381,2.445622 0.500768,0.442673 0.848792,0.332627 1.103457,-0.460645 z"
         id="Fill-1"
         sketch:type="MSShapeGroup" />
      <path
         d="m 16.049992,33.369677 c 0.772835,-0.489954 1.632675,-1.024976 2.478153,-1.581843 0.12678,-0.0835 0.251351,-0.263226 0.265714,-0.409493 0.08314,-0.84553 0.13258,-1.694654 0.201909,-2.662673 -1.479655,0.936221 -2.851036,1.803871 -4.261639,2.696406 0.07043,0.207373 0.137,0.40341 0.20771,0.611889 -0.660141,0.749032 -1.492361,1.157419 -2.476496,1.234839 -1.017833,0.08018 -1.300119,-0.343687 -0.867299,-1.255853 0.42702,-0.900553 1.210904,-1.364516 2.108309,-1.725622 0.159373,0.138249 0.322889,0.280092 0.510988,0.443226 1.537383,-0.975207 3.067861,-1.93106 4.580937,-2.913733 0.541371,-0.351428 0.496349,-1.630507 -0.04392,-1.975023 -1.61776,-1.031889 -3.237177,-2.061567 -4.860186,-3.084608 -0.162135,-0.102304 -0.364596,-0.237235 -0.532532,-0.21788 -1.431871,0.165345 -2.55632,-0.500738 -3.6440341,-1.290692 -0.2455504,-0.178341 -0.5051875,-0.337603 -0.8322198,-0.55493 0.274,-0.216222 0.4872339,-0.384609 0.7048871,-0.556314 -0.1613064,-0.204608 -0.4330968,-0.398986 -0.451879,-0.615484 -0.017954,-0.208479 0.2253871,-0.439631 0.3654254,-0.679907 0.1938992,0.108387 0.3220605,0.183317 0.4535363,0.252442 0.1118651,0.05862 0.2275971,0.110322 0.3880751,0.187465 0.100816,-0.29917 0.188651,-0.559907 0.300239,-0.890875 0.809571,0.516497 1.603121,0.990968 2.356621,1.521843 0.25798,0.181936 0.518722,0.476682 0.601033,0.76977 0.266266,0.947834 0.999879,1.386636 1.760008,1.847004 1.131631,0.685438 2.236746,1.414286 3.355395,2.121014 0.160201,0.101198 0.333661,0.181659 0.555181,0.30083 0.06436,-0.807374 0.148325,-1.546176 0.164621,-2.286636 0.0041,-0.18553 -0.165173,-0.44295 -0.330899,-0.552996 -1.138812,-0.755115 -2.293921,-1.486451 -3.454831,-2.207557 -0.175116,-0.10894 -0.415419,-0.19189 -0.613737,-0.171429 -1.73874,0.18 -2.897716,-0.940092 -4.263021,-1.808571 0.288916,-0.216498 0.507398,-0.380185 0.781121,-0.585622 -0.534465,-0.325715 -0.855421,-0.675208 -0.193623,-1.148572 0.238369,0.12636 0.485853,0.257972 0.776426,0.412258 0.08342,-0.29364 0.154953,-0.544424 0.259637,-0.913272 1.203722,0.84553 2.694978,1.250876 3.265627,2.819724 0.10855,0.298894 0.378959,0.586451 0.648816,0.769769 0.893262,0.606636 1.819393,1.164609 2.735029,1.738065 0.141419,0.08848 0.293334,0.159816 0.494139,0.267926 0.06436,-0.838064 0.146943,-1.601474 0.164897,-2.366544 0.0047,-0.194377 -0.147772,-0.464239 -0.311841,-0.578156 -0.651302,-0.452627 -1.332159,-0.863226 -2.011083,-1.273825 -0.143905,-0.0871 -0.335318,-0.172535 -0.489995,-0.150968 -1.12445,0.156221 -2.070744,-0.239723 -2.955168,-0.882027 -0.40879,-0.296683 -0.842992,-0.558526 -1.321939,-0.87318 0.275657,-0.216221 0.506292,-0.397327 0.765377,-0.600553 -0.245551,-0.184148 -0.450222,-0.337327 -0.700468,-0.525069 0.129266,-0.20212 0.242512,-0.379079 0.377302,-0.58977 0.28422,0.150138 0.531704,0.280922 0.833049,0.440184 0.0801,-0.284516 0.155506,-0.551889 0.25577,-0.908295 1.289899,0.847466 2.832806,1.319724 3.344347,3.005254 0.06132,0.202396 0.283943,0.385161 0.474252,0.513456 0.579764,0.390138 1.18052,0.749032 1.83348,1.157972 0.03922,-0.318248 0.06712,-0.547189 0.09612,-0.781935 h 0.718422 c 0.03093,-0.16894 0.06104,-0.335115 0.09585,-0.525069 h 0.6966 c -0.06491,-0.218433 -0.06491,-0.48083 -0.171526,-0.535576 -1.105943,-0.569032 -1.949764,-1.6153 -3.402351,-1.558065 -1.433528,0.05613 -2.390042,-1.052073 -3.574705,-1.769308 0.309631,-0.217881 0.518169,-0.364701 0.779464,-0.548848 -0.400504,-0.334839 -0.972258,-0.648941 -0.146392,-1.154931 0.181746,0.09816 0.425363,0.229769 0.723117,0.390415 0.0975,-0.280646 0.186718,-0.536683 0.308803,-0.887558 1.265592,0.856313 2.801595,1.301198 3.302915,2.965714 0.06215,0.205991 0.26599,0.406728 0.455746,0.530599 1.107601,0.723871 2.237298,1.413733 3.34628,2.135669 0.703506,0.45788 1.418613,0.123041 2.119357,0.05502 1.181073,-0.11447 2.375956,-0.517881 3.525817,-0.403411 1.27084,0.126913 2.493344,0.02074 3.744022,-0.02101 1.038548,-0.03456 2.095879,0.209032 3.130284,0.406451 1.068655,0.203779 2.036218,0.140737 2.922851,-0.575115 0.44304,-0.358065 0.953199,-0.636498 1.447062,-0.927097 0.801008,-0.471705 1.566109,-0.945069 1.857787,-1.933548 0.09087,-0.308572 0.388903,-0.604424 0.666494,-0.799908 0.71704,-0.504608 1.475788,-0.950046 2.265748,-1.449401 0.109931,0.325991 0.19749,0.586452 0.297201,0.882304 0.469004,-0.204055 0.996289,-0.635391 1.220295,0.275668 -0.19749,0.149309 -0.401057,0.303042 -0.64716,0.489125 0.244722,0.178341 0.452984,0.330138 0.778635,0.56765 -1.147375,0.715023 -2.078477,1.761566 -3.477479,1.765714 -0.904863,0.0028 -1.610855,0.307465 -2.307732,0.788295 -0.3994,0.275115 -0.839402,0.496037 -1.215047,0.798525 -0.2055,0.165899 -0.315431,0.450691 -0.452431,0.657788 0.431716,0.203779 0.692181,0.326544 0.952371,0.449585 -0.01961,0.06 -0.03922,0.119724 -0.05883,0.179724 h 0.740242 c 0.04281,0.201843 0.08176,0.385991 0.136724,0.645069 0.767034,-0.485253 1.490427,-0.934286 2.201667,-1.401567 0.117389,-0.07714 0.224559,-0.223133 0.263781,-0.358341 0.31405,-1.080553 1.094895,-1.725069 2.028207,-2.242673 0.423153,-0.234746 0.83001,-0.498525 1.297633,-0.781659 0.09363,0.298618 0.17567,0.559908 0.268752,0.85659 0.435583,-0.103963 0.981097,-0.704516 1.227752,0.273733 -0.188099,0.156221 -0.399951,0.332074 -0.622024,0.516774 0.242236,0.182489 0.462099,0.348111 0.762891,0.574839 -1.328292,0.817051 -2.401091,1.944332 -4.078788,1.78341 -0.276762,-0.02654 -0.603518,0.09567 -0.85404,0.240829 -0.705164,0.408664 -1.404527,0.835577 -2.058867,1.319447 -0.217101,0.160369 -0.400228,0.511798 -0.408238,0.781659 -0.02044,0.679908 0.06767,1.363134 0.119046,2.14507 0.365702,-0.216775 0.681133,-0.394839 0.987726,-0.587282 0.579212,-0.363317 1.137708,-0.763686 1.734044,-1.096036 0.765654,-0.426913 1.385192,-0.920185 1.720787,-1.801383 0.170421,-0.447373 0.660969,-0.810968 1.076389,-1.117603 0.575344,-0.424701 1.216427,-0.760093 1.879606,-1.164609 0.109932,0.345899 0.192242,0.605807 0.285049,0.897788 0.279248,-0.146267 0.508778,-0.266544 0.785264,-0.411428 0.155782,0.191336 0.303002,0.372165 0.483091,0.593364 -0.235055,0.194931 -0.430059,0.356682 -0.673952,0.558802 0.243341,0.181658 0.46348,0.345898 0.752671,0.562119 -1.295699,0.869862 -2.434788,1.947374 -4.139002,1.831245 -0.261018,-0.01797 -0.567887,0.07963 -0.795483,0.218709 -1.221952,0.747097 -2.436446,1.508019 -3.6247,2.307097 -0.195556,0.131613 -0.343329,0.474194 -0.3483,0.722488 -0.01409,0.697881 0.05828,1.397143 0.103026,2.213088 1.602292,-1.014193 3.079185,-1.96977 4.579004,-2.887465 0.597994,-0.365807 1.045177,-0.788295 1.339064,-1.461291 0.206329,-0.472534 0.649093,-0.88341 1.073075,-1.208295 0.605175,-0.463686 1.289623,-0.823686 1.963022,-1.242304 0.107446,0.321844 0.195004,0.58341 0.282563,0.844977 0.874203,-0.334009 0.874203,-0.334009 1.249572,0.260185 -0.10634,0.09041 -0.216824,0.185806 -0.329518,0.279262 -0.09833,0.08157 -0.198595,0.160645 -0.337528,0.272627 0.250522,0.172534 0.459337,0.31659 0.830286,0.57235 -1.256754,0.690138 -2.18758,1.77871 -3.665578,1.760737 -0.672019,-0.0083 -1.224714,0.157881 -1.78321,0.527558 -1.52523,1.010046 -3.085262,1.967281 -4.628722,2.949954 -0.66677,0.424424 -0.666218,1.396313 0.0022,1.821843 1.597873,1.016406 3.199613,2.026175 4.831736,3.059171 0.345538,-0.598894 0.739689,-0.382397 1.173615,-0.143779 0.724221,0.39871 1.28106,0.925714 1.535725,1.733364 0.156611,0.497143 0.02541,0.834747 -0.525903,0.901659 -1.112849,0.135207 -2.029312,-0.310783 -2.798556,-1.060092 -0.122637,-0.119447 -0.01713,-0.473364 -0.01713,-0.805161 -1.41447,-0.8953 -2.891087,-1.830139 -4.518791,-2.860369 0.06629,1.013641 0.112418,1.861106 0.187547,2.706083 0.01132,0.123594 0.138933,0.271244 0.253008,0.345345 0.960381,0.624332 1.930429,1.234286 2.943842,1.877973 0.360454,-0.567926 0.774492,-0.377973 1.225543,-0.124701 0.65876,0.369401 1.178863,0.85659 1.45673,1.565254 0.254389,0.649216 0.07209,0.989862 -0.611252,1.034654 -1.050702,0.06885 -1.939545,-0.361106 -2.660176,-1.09659 -0.112969,-0.115299 0.01409,-0.465898 0.03701,-0.814009 -0.738032,-0.465622 -1.568318,-0.989309 -2.51627,-1.587373 0,0.49576 -0.0047,0.896129 0.0011,1.296498 0.01243,0.874838 -0.04337,0.922396 -0.892433,0.726359 -0.104408,-0.02405 -0.207434,-0.05475 -0.311013,-0.0824 -0.03093,0.04673 -0.06187,0.09373 -0.09281,0.140737 0.418182,0.269585 0.834706,0.541382 1.254544,0.808203 0.427021,0.271244 0.857355,0.537511 1.320283,0.827004 0.173736,-0.138801 0.338909,-0.270691 0.524246,-0.418617 0.915358,0.353087 1.735149,0.831981 2.154987,1.799723 0.345815,0.797696 0.116285,1.178157 -0.755709,1.180093 -0.947952,0.0022 -1.764704,-0.381291 -2.432026,-1.029125 -0.142525,-0.138249 -0.07982,-0.488848 -0.13341,-0.912995 -1.479102,-0.928756 -3.040239,-2.124608 -4.783399,-2.92341 -1.066998,-0.488848 -2.411863,-0.377696 -3.634091,-0.514839 -0.356862,-0.03982 -0.722012,-0.0061 -1.083018,-0.0061 -0.01381,0.0694 -0.02734,0.139078 -0.04088,0.208479 2.803528,1.778157 5.607057,3.556037 8.435444,5.349954 0.354929,-0.606912 0.757919,-0.373272 1.192673,-0.134931 0.790512,0.433825 1.371934,1.023042 1.591244,1.924701 0.101645,0.417511 -0.01409,0.780276 -0.460994,0.752626 -0.703506,-0.04396 -1.418613,-0.15235 -2.089802,-0.359723 -0.39719,-0.122765 -0.719526,-0.488572 -1.088266,-0.754562 0.08756,-0.221751 0.15882,-0.401475 0.254665,-0.643687 -1.381048,-0.876498 -2.773421,-1.760184 -4.165518,-2.643871 -1.396516,-0.886175 -2.785022,-1.785069 -4.196454,-2.646636 -0.227873,-0.138802 -0.555181,-0.138525 -0.839401,-0.156221 -0.740518,-0.0459 -1.482694,-0.07327 -2.224869,-0.09207 -0.20771,-0.0055 -0.458508,-0.02267 -0.619262,0.07797 -2.836397,1.778433 -5.662022,3.574562 -8.504496,5.376221 0.09115,0.210968 0.167935,0.388203 0.252732,0.583963 -0.775045,0.809862 -1.676317,1.291244 -2.814577,1.22682 -0.71925,-0.04064 -0.887738,-0.306636 -0.650197,-0.995945 0.33808,-0.981566 1.104286,-1.522119 2.013016,-1.870783 0.172631,-0.06608 0.448288,0.136867 0.824486,0.267097 2.685034,-1.701843 5.502925,-3.487742 8.453673,-5.35742 -0.278696,-0.06304 -0.410171,-0.124976 -0.536952,-0.116129 -1.296252,0.08959 -2.592504,0.181106 -3.886546,0.297512 -0.23174,0.02074 -0.475633,0.121659 -0.675609,0.246912 -1.568594,0.981567 -3.127522,1.978065 -4.731195,2.99613 0.382826,0.616036 -0.03674,0.923502 -0.466795,1.206912 -0.737756,0.486359 -1.53324,0.805161 -2.425673,0.5447 -0.180089,-0.05253 -0.407133,-0.343686 -0.412105,-0.530046 -0.02375,-0.879539 1.330778,-2.30682 2.18178,-2.31152 0.178984,-8.3e-4 0.358797,0.209032 0.623958,0.37576 0.751566,-0.477512 1.556441,-0.989032 2.36104,-1.500553 -0.02099,-0.05281 -0.04226,-0.105622 -0.06353,-0.158433 -0.426191,0.09871 -0.852383,0.197696 -1.363647,0.316037 v -2.04553 c -0.791065,0.49659 -1.473579,0.924885 -2.204706,1.383594 0.404095,0.572074 0.04613,0.848572 -0.38255,1.152166 -0.696877,0.493272 -1.44651,0.73023 -2.296131,0.662212 -0.536399,-0.04313 -0.744109,-0.296406 -0.594956,-0.837788 0.301069,-1.091613 1.120583,-1.659539 2.094222,-2.033088 0.164897,-0.06332 0.44525,0.17447 0.748252,0.306083 z m 5.696825,-17.135391 c -0.354378,5.349401 -0.701021,10.583502 -1.047664,15.820645 0.137,0.03981 0.24776,0.10894 0.347196,0.09484 0.825867,-0.115024 1.657534,-0.209309 2.473181,-0.378526 2.253595,-0.467004 4.485645,-0.699539 6.67875,0.289493 0.180641,0.08157 0.456851,-0.02959 0.684172,-0.07465 0.945465,-0.18636 1.894798,-0.559631 2.832806,-0.531429 1.350113,0.04009 2.690282,0.379355 4.037357,0.571521 0.530323,0.07548 1.067826,0.09816 1.797849,0.162028 -0.35051,-5.401383 -0.689972,-10.629954 -1.033024,-15.919632 -1.511144,0.368848 -2.890259,-0.04396 -4.301138,-0.304147 -0.909834,-0.167558 -1.87353,-0.103134 -2.808223,-0.05198 -0.57424,0.03125 -0.816752,0.401751 -0.818686,1.044332 -0.01436,4.641843 -0.07237,9.283687 -0.118494,13.925254 -0.0022,0.217327 -0.02458,0.434654 -0.04557,0.787189 -0.129819,-0.181936 -0.174841,-0.215392 -0.174841,-0.249125 -0.01878,-4.885438 -0.04033,-9.770875 -0.04005,-14.656037 2.77e-4,-0.483318 -0.175393,-0.814838 -0.618157,-0.861843 -0.73306,-0.0777 -1.492085,-0.162581 -2.212439,-0.05585 -1.842319,0.272627 -3.643758,0.939263 -5.63302,0.387927 z m -0.372055,0.423871 c -0.09971,-0.01714 -0.199423,-0.03456 -0.299135,-0.05198 -0.04778,0.168387 -0.125952,0.334009 -0.138657,0.504885 -0.383656,5.132903 -0.755986,10.266912 -1.148204,15.399263 -0.03425,0.447373 0.137,0.556589 0.518998,0.509308 0.895196,-0.110875 1.79923,-0.176958 2.682825,-0.347281 2.409929,-0.464516 4.803838,-0.710875 7.185871,0.147374 0.186441,0.06719 0.449669,0.04922 0.635282,-0.02876 1.485456,-0.624332 3.0198,-0.55742 4.562155,-0.347005 1.46253,0.199355 2.920917,0.429125 4.38179,0.641751 0.487787,0.07106 0.639426,-0.10811 0.606004,-0.629308 -0.231463,-3.593364 -0.426743,-7.189217 -0.634453,-10.783964 -0.09004,-1.561935 -0.182299,-3.123871 -0.273724,-4.68553 -0.04861,-0.03152 -0.09723,-0.06332 -0.146115,-0.09484 -0.109655,0.124147 -0.27759,0.233087 -0.314879,0.376037 -0.05386,0.207096 -0.02458,0.439354 -0.01132,0.659723 0.244445,4.013088 0.500491,8.025622 0.731955,12.039539 0.04806,0.82894 0.0072,1.663134 0.0072,2.644424 -0.818133,-0.106728 -1.562519,-0.150138 -2.282321,-0.307189 -2.269062,-0.494931 -4.527905,-0.761751 -6.791996,0.01382 -0.114627,0.03926 -0.26599,0.02544 -0.385312,-0.01161 -2.369327,-0.732719 -4.750531,-0.548848 -7.141125,-0.125806 -0.87669,0.155115 -1.763047,0.254654 -2.714589,0.389309 0.329794,-5.412166 0.649921,-10.662028 0.969772,-15.912166 z m 26.139379,5.216682 c -0.0064,-0.08544 -0.01271,-0.170599 -0.01878,-0.255761 1.617207,0.900277 2.451637,-0.429677 3.6305,-1.035484 -0.303555,-0.238894 -0.53419,-0.420276 -0.77394,-0.609124 0.291954,-0.227834 0.543029,-0.423871 0.794103,-0.619908 -0.03536,-0.04977 -0.07043,-0.09954 -0.105788,-0.149308 -0.294992,0.154285 -0.589984,0.308571 -0.91094,0.476405 -0.09087,-0.302212 -0.170973,-0.568756 -0.274828,-0.914378 -0.641635,0.403134 -1.233829,0.773641 -1.824089,1.147189 -0.320127,0.202396 -0.573411,0.421659 -0.52397,0.877051 0.02375,0.21788 -0.122361,0.454285 -0.224006,0.789401 -0.09584,-0.229493 -0.133409,-0.320185 -0.115179,-0.275945 -0.355758,0.324885 -0.677819,0.705622 -1.077494,0.968571 -1.492085,0.981844 -3.010962,1.923042 -4.516028,2.88553 -0.179813,0.115023 -0.336424,0.266544 -0.503807,0.401198 0.03784,0.04922 0.0754,0.09871 0.113246,0.147927 0.178432,-0.102028 0.361282,-0.197696 0.535018,-0.307466 1.342103,-0.848848 2.690559,-1.688295 4.020785,-2.555668 0.699362,-0.455945 1.377457,-0.929032 2.279558,-0.777235 -0.168212,-0.06442 -0.336423,-0.128848 -0.504359,-0.192995 z m -34.947982,0.191613 c 0.845202,-0.115853 1.521916,0.231705 2.205811,0.694009 1.260897,0.852719 2.565711,1.639908 3.853953,2.451428 0.168212,0.105899 0.348025,0.192996 0.522589,0.28894 0.03508,-0.05475 0.07043,-0.109493 0.105788,-0.163963 -0.175669,-0.134654 -0.3425,-0.282857 -0.528389,-0.401198 -1.228304,-0.782765 -2.46379,-1.55364 -3.690161,-2.339447 -0.656274,-0.420829 -1.441262,-0.72553 -1.635437,-1.636866 0.02403,0.169769 0.04806,0.339262 0.07209,0.509032 -0.444697,-0.486083 -0.165726,-1.301198 -0.954857,-1.631613 -0.609042,-0.255207 -1.142127,-0.692627 -1.729072,-1.061751 -0.111865,0.351429 -0.195004,0.612719 -0.286706,0.900277 -0.340014,-0.173641 -0.6294817,-0.321567 -0.9189494,-0.469493 -0.033698,0.05751 -0.067119,0.114746 -0.1008166,0.172257 0.2654375,0.190784 0.530875,0.381291 0.825591,0.593088 -0.272343,0.212627 -0.5051878,0.394286 -0.7883027,0.615207 1.1749957,0.642858 2.0503047,1.893457 3.6470727,1.046544 -0.0105,0.08101 -0.02072,0.162304 -0.03121,0.243318 -0.189756,0.06332 -0.379236,0.126913 -0.568992,0.190231 z m 28.295748,-0.239724 c 0.04668,0.06359 0.09336,0.127465 0.139762,0.191336 1.032472,-0.654469 2.052514,-1.329677 3.102387,-1.954838 0.55822,-0.33235 1.168367,-0.577327 1.710843,-0.840553 0.04834,0.03567 -0.03342,-0.02461 -0.114903,-0.08488 1.603121,0.6647 2.466552,-0.64424 3.647625,-1.256959 -0.298859,-0.228387 -0.531151,-0.405898 -0.788579,-0.602488 0.295545,-0.228111 0.551591,-0.425806 0.807914,-0.623502 -0.03591,-0.05364 -0.07154,-0.107281 -0.107446,-0.160922 -0.289468,0.156221 -0.578935,0.312442 -0.903482,0.487465 -0.105788,-0.318801 -0.193623,-0.584239 -0.298859,-0.900829 -0.591088,0.36553 -1.119201,0.78 -1.714986,1.038249 -0.781673,0.338433 -0.538332,1.112074 -0.823104,1.699078 -0.113246,-0.09511 -0.193623,-0.162857 -0.179537,-0.150968 -0.328137,0.302489 -0.593851,0.617973 -0.923369,0.837512 -1.007889,0.671613 -2.041742,1.304516 -3.062336,1.957051 -0.171527,0.109769 -0.328414,0.242765 -0.49193,0.365253 z M 15.217772,18.778341 c -0.06518,-1.703502 -1.580748,-1.917235 -2.628963,-2.701659 -0.123742,0.355576 -0.214615,0.617143 -0.309632,0.890323 -0.331175,-0.166729 -0.625891,-0.315208 -0.920606,-0.463411 -0.03038,0.04894 -0.06104,0.09788 -0.0917,0.146821 0.262675,0.205714 0.525627,0.411705 0.814542,0.63788 -0.258808,0.192442 -0.484748,0.360276 -0.778082,0.578157 0.515683,0.338156 0.991869,0.647004 1.46474,0.961106 0.500768,0.332626 0.991316,0.651705 1.626875,0.284516 0.138381,-0.07991 0.353548,-0.02654 0.653512,-0.03982 -0.18948,0.139355 -0.262676,0.193548 -0.202186,0.148756 0.505188,0.245806 1.073903,0.477788 1.597044,0.786912 0.892986,0.527558 1.756418,1.105162 2.635869,1.656774 0.107998,0.06774 0.23616,0.103134 0.355206,0.153457 0.02845,-0.04562 0.05718,-0.09125 0.0859,-0.136867 -0.160201,-0.125806 -0.311564,-0.265714 -0.482262,-0.375207 -0.910111,-0.584516 -1.847843,-1.12977 -2.728123,-1.756037 -0.369292,-0.262949 -0.620919,-0.691521 -0.925855,-1.045161 -0.03397,-0.03926 -0.06601,-0.08019 -0.125675,-0.15318 -0.01712,0.180553 -0.02873,0.303595 -0.0406,0.426636 z m -0.437516,-6.337604 c 1.188254,0.604977 2.036218,1.939079 3.71944,1.058987 -0.116837,0.249124 -0.154125,0.328755 -0.188652,0.402027 1.662506,0.205438 2.679234,1.715115 4.260258,2.06765 -0.981925,-0.695115 -2.001415,-1.326359 -3.000465,-1.988295 -0.222625,-0.147373 -0.454918,-0.372995 -0.543857,-0.614101 -0.522865,-1.415945 -1.733492,-2.027834 -2.956548,-2.680922 -0.107722,0.312442 -0.196938,0.57235 -0.289744,0.842212 -0.334214,-0.159816 -0.61871,-0.295853 -0.90293,-0.431613 -0.02762,0.05143 -0.05524,0.102857 -0.08259,0.154286 0.259914,0.197972 0.519827,0.395944 0.802113,0.61106 -0.278695,0.197419 -0.508778,0.360276 -0.817028,0.578709 z m 23.492185,3.498526 c 0.206882,-0.07742 0.431164,-0.126083 0.617329,-0.237788 0.62451,-0.374102 1.218637,-0.801567 1.855853,-1.150784 0.793827,-0.434654 1.524954,-1.161014 2.57455,-0.681014 0.09143,0.04203 0.263781,-0.03484 0.372883,-0.09981 0.714279,-0.424701 1.421099,-0.861567 2.169351,-1.318065 -0.31985,-0.236958 -0.556839,-0.412811 -0.805151,-0.596958 0.291677,-0.232535 0.541923,-0.432166 0.792169,-0.631797 -0.03259,-0.04535 -0.06491,-0.09069 -0.0975,-0.136314 -0.297201,0.147373 -0.594403,0.294747 -0.904863,0.448479 -0.09916,-0.301382 -0.185336,-0.563225 -0.296925,-0.902212 -1.040206,0.810139 -2.585046,1.003687 -2.606591,2.726544 -0.04364,-0.103686 -0.08756,-0.207097 -0.10275,-0.243871 -0.83802,1.365899 -2.499421,1.695484 -3.568353,2.823595 z m 5.706216,0.544424 c -0.01574,-0.0871 -0.03121,-0.174194 -0.04668,-0.261291 1.632675,0.820092 2.49224,-0.438801 3.658397,-1.075023 -0.32648,-0.25023 -0.548552,-0.420553 -0.781397,-0.59917 0.292506,-0.223134 0.548,-0.418341 0.80377,-0.613549 -0.03397,-0.05005 -0.06795,-0.100368 -0.101645,-0.150414 -0.296926,0.144608 -0.593851,0.289216 -0.919778,0.447649 -0.0975,-0.30553 -0.181194,-0.567373 -0.280629,-0.878433 -0.488063,0.298065 -0.938285,0.569586 -1.385192,0.84636 -0.537228,0.33235 -1.118097,0.627649 -1.024185,1.427557 0.0174,0.147926 -0.08922,0.310507 -0.155507,0.520369 -0.106893,-0.158986 -0.163792,-0.243871 -0.199975,-0.298065 -0.625891,1.206913 -2.080688,1.393549 -2.835845,2.396682 0.244169,-0.04977 0.437792,-0.170046 0.636939,-0.280368 1.050702,-0.582304 1.918277,-1.613088 3.310373,-1.353456 -0.226215,-0.04286 -0.452431,-0.08599 -0.678646,-0.128848 z m -24.307832,1.666175 c 0.04254,-0.06276 0.0848,-0.125254 0.127332,-0.188019 -0.542199,-0.348387 -1.070865,-0.72 -1.630189,-1.038249 -0.517893,-0.295023 -0.929722,-0.653364 -1.086609,-1.250875 -0.0064,-0.0235 -0.05718,-0.03539 -0.107998,-0.0647 v 0.429954 c -0.058,-1.718709 -1.616103,-1.895391 -2.637526,-2.709954 -0.119047,0.363318 -0.204948,0.626268 -0.299412,0.913825 -0.334766,-0.168663 -0.623681,-0.314378 -0.912873,-0.460368 -0.03508,0.05585 -0.06988,0.111428 -0.104959,0.167004 0.259084,0.189125 0.518445,0.378249 0.819514,0.597788 -0.275657,0.217881 -0.504911,0.39871 -0.774768,0.612166 0.617328,0.397051 1.212284,0.706452 1.718852,1.12341 0.619815,0.509586 1.265593,-0.05696 1.885408,0.193825 -0.225664,0.0506 -0.451051,0.100922 -0.676714,0.151521 1.570252,-0.317696 2.453571,1.035484 3.679942,1.522672 z m 8.87655,15.535852 c -0.0511,-0.07189 -0.101921,-0.143502 -0.152744,-0.215391 -2.981683,1.88682 -5.963091,3.773364 -8.872407,5.614562 -0.289468,-0.143502 -0.519827,-0.36 -0.730575,-0.342581 -0.675885,0.05613 -1.740673,1.135576 -1.833203,1.829862 -0.02099,0.15871 0.105788,0.447097 0.234225,0.497143 0.799904,0.312442 2.253319,-0.301659 2.765688,-1.175945 -0.728365,0.269309 -1.407012,0.520369 -2.085659,0.771429 -0.02817,-0.07217 -0.05662,-0.144332 -0.0848,-0.216498 0.925579,-0.531429 1.861377,-1.046544 2.77425,-1.59871 0.904587,-0.547189 1.785696,-1.13364 2.678682,-1.699908 0.911492,-0.578156 1.835689,-1.136958 2.734475,-1.733917 0.859841,-0.570967 1.810555,-1.026912 2.572065,-1.730046 z m 12.198524,6.229217 c 0.64495,0.894193 1.506448,1.27106 2.562674,1.192811 0.449116,-0.03318 0.555457,-0.333456 0.349129,-0.634286 -0.353273,-0.515115 -0.756539,-1.012258 -1.215047,-1.434193 -0.39056,-0.359447 -0.883871,-0.535023 -1.253163,0.13023 -2.981131,-1.885438 -5.920831,-3.744608 -8.86053,-5.604055 -0.05165,0.08295 -0.103579,0.166175 -0.155506,0.249124 3.537693,2.224424 7.075111,4.448848 10.612804,6.673549 -0.01878,0.0553 -0.03784,0.110599 -0.05662,0.165898 -0.661246,-0.246359 -1.322492,-0.492719 -1.983738,-0.739078 z m 0.529494,-12.199908 c -0.01713,0.16894 -0.04999,0.271797 -0.02596,0.287558 2.269615,1.472903 4.54365,2.93917 6.817408,4.40599 -0.01132,0.04203 -0.02265,0.08433 -0.03397,0.126636 -0.670637,-0.250507 -1.34155,-0.501014 -2.012464,-0.75152 0.643292,0.897235 1.502581,1.278801 2.549968,1.203594 0.433097,-0.03097 0.614843,-0.312166 0.361558,-0.67576 -0.345262,-0.494931 -0.726707,-0.981844 -1.171681,-1.384424 -0.40299,-0.364701 -0.91094,-0.587834 -1.286032,0.07189 -1.74316,-1.101014 -3.445164,-2.176037 -5.198819,-3.283963 z m -28.703157,4.786175 c -0.01795,-0.06664 -0.03618,-0.133272 -0.05414,-0.200184 0.76372,-0.433549 1.535173,-0.853549 2.288673,-1.303963 0.75571,-0.451798 1.50921,-0.910507 2.234536,-1.409033 0.687763,-0.472811 1.518877,-0.773364 2.059144,-1.435852 -0.04502,-0.06138 -0.09004,-0.122765 -0.135343,-0.184424 -1.608369,1.015299 -3.217014,2.030599 -4.696393,2.964332 -0.349958,-0.134102 -0.636111,-0.359171 -0.818962,-0.293917 -0.841611,0.3 -1.472474,0.872903 -1.784314,1.73447 -0.114075,0.315207 -0.01602,0.543594 0.362387,0.619078 0.844096,0.168111 2.090907,-0.3647 2.662937,-1.267742 -0.45547,0.200184 -0.776978,0.361383 -1.112849,0.483318 -0.327584,0.118894 -0.669808,0.197696 -1.005679,0.293917 z m 3.534931,5.477696 c -0.02624,-0.06304 -0.05276,-0.126083 -0.079,-0.189401 2.00915,-1.229309 4.018299,-2.458894 6.027448,-3.688479 -0.05027,-0.08682 -0.10054,-0.173917 -0.151087,-0.260737 -0.703506,0.414746 -1.41226,0.820921 -2.109137,1.246728 -0.723393,0.441843 -1.435185,0.902212 -2.045609,1.287649 -0.329518,-0.15152 -0.56982,-0.368848 -0.762615,-0.332626 -0.900167,0.167834 -1.751721,1.202212 -1.860548,2.168571 0.967562,0.496866 2.755744,-0.108387 2.950472,-1.000369 -0.65517,0.255484 -1.312549,0.512074 -1.969928,0.768664 z M 43.04203,36.440461 c -1.526887,-0.804332 -2.777288,-1.952074 -4.347264,-2.526636 -0.03729,0.06249 -0.07458,0.124977 -0.111865,0.187465 2.019645,1.235115 4.039014,2.470231 6.058383,3.705346 -0.02569,0.05751 -0.05138,0.115023 -0.07706,0.172535 -0.6792,-0.25742 -1.358676,-0.514839 -2.119633,-0.80295 0.649921,1.059816 2.17156,1.522949 3.097691,1.004793 -0.12899,-0.895576 -0.672847,-1.47871 -1.426623,-1.925807 -0.420943,-0.249953 -0.796865,-0.417235 -1.073627,0.185254 z m 1.735149,-2.709954 c -1.112296,-0.697051 -2.143387,-1.343226 -3.174477,-1.989401 -0.05027,0.0777 -0.100541,0.155392 -0.150811,0.232811 1.527992,1.17788 3.246292,2.076774 4.927581,3.030415 -0.03536,0.07438 -0.07043,0.148756 -0.105512,0.222857 -0.660142,-0.240277 -1.320283,-0.48083 -2.071849,-0.754286 0.615947,0.90083 1.963022,1.45189 2.781155,1.166267 0.127057,-0.04452 0.264057,-0.376866 0.223454,-0.530322 -0.190861,-0.720277 -0.694668,-1.20083 -1.323321,-1.577696 -0.418181,-0.250783 -0.796312,-0.427742 -1.10622,0.199355 z m -28.897332,-0.0094 c -0.349129,-0.635945 -0.789407,-0.438525 -1.202065,-0.133825 -0.315707,0.233088 -0.658484,0.476682 -0.865917,0.796037 -0.211577,0.325991 -0.272343,0.749862 -0.399399,1.130875 0.379512,0.0506 0.771177,0.186913 1.135774,0.133825 0.746042,-0.10811 1.400107,-0.437972 1.979042,-1.218801 -0.848516,0.311059 -1.5128,0.554378 -2.177361,0.797972 -0.02983,-0.07493 -0.05966,-0.149862 -0.08949,-0.224793 0.52618,-0.295023 1.05595,-0.584239 1.577986,-0.887004 0.533361,-0.309125 1.067274,-0.619079 1.585996,-0.951705 0.48392,-0.310784 0.948504,-0.651705 1.421651,-0.979079 l -0.162411,-0.224792 c -0.919502,0.577603 -1.838728,1.155207 -2.803804,1.76129 z"
         id="Fill-2"
         sketch:type="MSShapeGroup" />
      <path
         d="m 29.615202,7.5199078 c -1.73515,0.4968664 -2.230946,0.482212 -2.29116,-0.091244 C 26.750631,7.5342857 26.070603,7.6470968 25.854607,6.9738249 25.705454,6.5095852 25.738599,5.8484793 25.970339,5.4312442 26.342117,4.7610138 27.029327,5.0217511 27.714327,5.3247926 27.59749,5.0740092 27.5312,4.9324424 27.448613,4.7552074 c 0.22152,-0.0647 0.423429,-0.123871 0.650197,-0.1899539 -0.250522,-0.6602765 -0.285324,-1.261106 0.485577,-1.6581567 0.101921,0.1584332 0.203567,0.3165898 0.236988,0.3682949 0.177327,-0.4493087 0.254941,-1.076129 0.607109,-1.4264516 0.435306,-0.4332719 1.115611,-0.357235 1.682393,-0.068848 0.669808,0.3411981 0.583631,0.9652534 0.501597,1.7225806 0.186994,-0.2643318 0.296373,-0.419447 0.403818,-0.5715207 0.744938,0.4288479 0.825315,0.7023041 0.470662,1.6542857 0.224834,0.040369 0.446355,0.080184 0.74107,0.1332719 -0.140038,0.2029493 -0.240855,0.3492166 -0.418457,0.6060829 0.708754,-0.3132719 1.342102,-0.5745622 1.86331,0.016313 C 35.093268,5.817788 35.07421,6.4111521 34.804629,6.96 34.49555,7.5884793 33.896175,7.4654378 33.35149,7.4358525 33.19626,8.1069124 32.68251,7.8505991 32.298855,7.8171429 31.873492,7.7800922 31.456415,7.6473733 31.011718,7.5511521 c 0.534466,1.2951152 2.074058,1.5082949 3.748165,0.5253456 0.491101,0.8294931 1.24101,1.2785253 2.204982,1.2934562 0.64274,0.01023 1.241839,-0.172258 1.860825,-0.776129 -0.951819,0.181659 -1.719682,0.1968663 -2.432855,-0.364424 0.160201,-0.1296774 0.299135,-0.242212 0.490548,-0.3970507 -0.543304,-0.176129 -1.125554,-0.2665438 -1.106772,-0.9741014 0.0163,-0.6254377 0.368464,-1.0476497 0.918949,-1.253364 0.617329,-0.2311521 1.173615,-0.1128111 1.577434,0.5272811 0.01685,-0.2270046 0.03342,-0.4540092 0.06657,-0.901659 0.500492,0.2820277 0.901273,0.5076498 1.350942,0.7609217 0.427573,-1.2403687 1.37221,-1.7950231 2.85076,-1.5710599 -0.170145,0.2919815 -0.296925,0.5093087 -0.482538,0.8278341 0.907349,-0.2646083 1.742883,-0.4730876 2.21023,0.5261751 0.240578,0.5145622 0.05469,0.9940092 -0.548,1.5088479 C 43.12655,6.5123502 42.338248,6.4316129 41.480617,6.7388018 41.04172,6.896129 40.736232,7.144977 40.794236,7.7209217 c 0.02237,0.2234101 -0.230359,0.5057142 -0.414315,0.7103225 -0.200528,0.2225807 -0.53999,0.3403687 -0.690248,0.5836867 -0.403818,0.65447 -0.910387,1.2583411 -0.781949,2.1564051 0.05911,0.413088 -0.327309,0.87318 -0.337252,1.315576 -0.02652,1.152719 -0.07651,1.296498 -1.258135,1.54507 -2.47622,0.520921 -4.995805,0.626543 -7.506551,0.514285 -2.304693,-0.103133 -4.600824,-0.407004 -6.89806,-0.646451 -0.295545,-0.03069 -0.589984,-0.179171 -0.859289,-0.321844 -0.276485,-0.14599 -0.451326,-0.362212 -0.199147,-0.695115 0.07292,-0.09622 0.136724,-0.250507 0.114351,-0.359723 C 21.688536,11.174654 21.629704,9.7493088 20.650264,8.6424885 20.572373,8.5545622 20.439516,8.4909677 20.321851,8.4671889 19.83296,8.3684793 19.679939,8.0903226 19.750649,7.6031336 19.774956,7.4352995 19.669443,7.1875576 19.539349,7.0683871 18.747179,6.3431336 17.816077,6.3707834 16.868677,7.1142857 16.375643,6.7050691 16.166276,6.055023 16.463754,5.6129032 16.990762,4.8298617 17.728518,4.9943779 18.585597,5.3557604 18.395012,4.975023 18.266575,4.7187097 18.13427,4.4546544 c 1.338512,-0.2789862 1.858339,0.039539 2.865123,1.7430414 0.307698,-0.4866359 0.649921,-0.9129953 1.328569,-0.8037788 0.01851,0.243871 0.03591,0.4694931 0.06325,0.8228572 0.427296,-0.6168664 0.877794,-0.9392627 1.505342,-0.5947466 0.523418,0.2872812 0.927512,0.6976037 0.923922,1.3493088 -0.0044,0.7858065 -0.710688,0.6868203 -1.231619,0.898894 0.182298,0.1396314 0.328137,0.2513364 0.597441,0.4576037 -0.473975,0.1291244 -0.818409,0.2621198 -1.174443,0.3094009 -0.360178,0.047558 -0.731403,0.010507 -1.102905,0.010507 0.852935,1.1947466 2.778116,0.9323503 3.85423,-0.5521659 0.802941,0.5612904 1.695098,0.8612904 2.646917,0.4788941 0.480052,-0.1929954 0.888014,-0.5659908 1.328845,-0.8574194 -0.04143,-0.065806 -0.08259,-0.1316129 -0.123742,-0.1971429 z m -7.346625,5.4727192 c 0.01188,0.125806 0.02403,0.251613 0.03591,0.377419 0.468175,0.137696 0.928893,0.316037 1.405907,0.406728 3.837934,0.729401 7.705421,0.689032 11.574843,0.363595 0.866746,-0.07272 1.720786,-0.326544 2.571788,-0.533364 0.158544,-0.03843 0.274553,-0.250784 0.410448,-0.382673 -0.133133,-0.128295 -0.246932,-0.293088 -0.403819,-0.375484 -0.230635,-0.121106 -0.486129,-0.209309 -0.74107,-0.266544 -4.243962,-0.950599 -8.508087,-0.950322 -12.777184,-0.209585 -0.70682,0.122765 -1.385468,0.409216 -2.07682,0.619908 z M 31.24401,10.010046 C 30.405161,8.9258986 29.880363,8.9195392 29.282921,9.9859908 30.147458,10.94129 30.329756,10.943502 31.24401,10.010046 Z M 43.883641,6.6370507 C 44.154879,6.0945622 44.016222,5.5573272 43.459383,5.336129 42.786813,5.0690323 42.104298,5.3538249 41.926972,5.8661751 42.559768,6.115576 43.187869,6.362765 43.883641,6.6370507 Z M 18.646363,5.9267281 C 18.407165,5.3588018 17.727689,5.0789862 17.109256,5.3795392 16.58501,5.633917 16.460163,6.1625806 16.745212,6.6456221 17.389333,6.4020276 18.019643,6.1636866 18.646363,5.9267281 Z m 7.133667,5.0778799 c 0.04364,-0.04147 0.08728,-0.08267 0.130924,-0.124147 0.258808,-0.03456 0.539437,-0.01963 0.768415,-0.121383 0.148324,-0.06636 0.314327,-0.311613 0.300516,-0.460645 C 26.966903,10.160184 26.738202,9.96 26.581867,9.9362212 c -0.247484,-0.03788 -0.516788,0.034286 -0.771454,0.086821 -0.267371,0.05558 -0.725603,-0.042581 -0.596889,0.444884 0.05662,0.213733 0.369845,0.359724 0.566506,0.536682 z m 8.552004,-0.15152 c 0.219587,0.0097 0.299964,0.03871 0.347748,0.01106 0.189204,-0.109217 0.368188,-0.23613 0.551039,-0.356406 -0.15164,-0.15318 -0.277591,-0.374931 -0.460994,-0.443779 -0.278144,-0.1042395 -0.60269,-0.1581565 -0.89492,-0.1241473 -0.166002,0.019355 -0.382826,0.2339173 -0.431716,0.4025803 -0.03038,0.105069 0.182023,0.352535 0.336424,0.421659 0.209367,0.09373 0.467623,0.07797 0.552419,0.08903 z m 2.764859,-0.107558 c -0.01602,0.07134 -0.03204,0.142673 -0.04806,0.214009 0.422048,0.285069 0.844096,0.570415 1.466397,0.991244 0.04972,-0.571797 0.08314,-0.957511 0.116836,-1.343502 -0.30825,-0.0097 -0.618157,-0.0423 -0.924197,-0.02129 -0.206329,0.0141 -0.407685,0.103686 -0.610976,0.159539 z m -13.468812,0.06995 c -0.615119,-0.103963 -1.010375,-0.189954 -1.410051,-0.226175 -0.11076,-0.01 -0.336423,0.129677 -0.335318,0.197696 0.0052,0.31659 0.05911,0.635115 0.131199,0.944792 0.0094,0.04092 0.262123,0.09042 0.336976,0.03954 0.381446,-0.258801 0.741899,-0.549124 1.277194,-0.955852 z m 6.771004,-7.7258988 c -0.029,8.296e-4 -0.058,0.00166 -0.08701,0.00249 v 2.2321659 c 0.029,-5.53e-4 0.058,-0.00111 0.08701,-0.00166 V 3.0895852 Z"
         id="Fill-3"
         sketch:type="MSShapeGroup" />
      <path
         d="m 31.391506,37.167097 c 2.685034,0.386267 3.688504,1.06811 4.432613,3.006359 0.722841,0.147926 1.377458,0.281751 2.108861,0.431337 -0.269028,0.29917 -0.497178,0.538894 -0.70903,0.792165 -0.183404,0.21954 -0.348301,0.454839 -0.549658,0.720277 1.029986,1.385807 0.327033,4.692719 -1.55506,5.849309 0.05414,0.720829 0.101921,1.355115 0.155506,2.069308 -0.687762,-0.269032 -1.255097,-0.491059 -1.856682,-0.726082 -1.543735,1.290414 -4.778427,1.149124 -6.258911,-0.310231 -0.206881,0.0835 -0.438621,0.123871 -0.595508,0.254378 -0.172631,0.143779 -0.276486,0.370507 -0.335595,0.454562 -0.389732,0.09595 -0.696324,0.171429 -1.073627,0.264332 0.103026,-0.687373 0.204395,-1.365899 0.312117,-2.086728 -1.779066,-1.234562 -2.412415,-3.378802 -1.674383,-5.83189 -0.453812,-0.478894 -0.897957,-0.94811 -1.424966,-1.504147 0.528942,-0.09511 1.05015,-0.03263 1.241563,-0.254931 0.412933,-0.478894 0.715383,0.110323 1.052359,-0.03429 0.746595,-2.218064 2.545272,-2.975668 4.57348,-3.307465 0.323441,-0.608571 0.63031,-1.185346 0.990211,-1.862765 0.397466,0.707281 0.744385,1.324701 1.16671,2.076498 z m 1.617484,9.924055 c 1.235486,1.159078 1.998377,1.086083 2.885286,-0.329309 0.651303,-1.039631 0.923369,-2.194838 0.865089,-3.40811 -0.05662,-1.17871 -0.816752,-1.717051 -1.977938,-1.48341 -0.104959,0.02101 -0.217653,0.0028 -0.426744,0.0028 0.188375,-0.111153 0.281734,-0.16507 0.373712,-0.220646 1.063407,-0.64341 1.177482,-1.194193 0.417905,-2.198433 -0.726984,-0.961382 -1.67604,-1.614746 -2.844131,-1.929677 -1.15207,-0.310507 -1.561137,-0.126083 -2.024617,0.889769 -0.332832,-1.223778 -0.768691,-1.512719 -1.949211,-0.988479 -0.928893,0.412535 -1.795916,1.005346 -2.605762,1.627742 -0.369293,0.283963 -0.681962,0.811797 -0.749081,1.268848 -0.06049,0.412258 0.248865,0.878986 0.375921,1.263594 -0.976401,-0.168387 -1.494018,0.272627 -1.514734,1.438618 -0.0064,0.353364 -0.02293,0.710046 0.01574,1.059816 0.122085,1.104331 0.32648,2.189308 1.110916,3.048663 0.70323,0.770323 1.480484,0.793272 2.250832,0.09677 0.08369,-0.07548 0.170698,-0.147926 0.337529,-0.292534 -0.629482,1.485345 -0.343605,2.281106 1.140193,2.575023 1.157595,0.229216 2.408272,0.202673 3.586583,0.05005 1.060645,-0.137696 1.402593,-1.093272 0.944637,-2.085899 -0.06132,-0.132718 -0.140867,-0.256866 -0.212129,-0.385161 z"
         id="Fill-4"
         sketch:type="MSShapeGroup" />
      <path
         d="m 7.3894375,45.462028 c 0.1480484,-0.303042 0.2773145,-0.567374 0.405752,-0.82977 0.4601653,0.101475 0.7048871,0.330415 0.5339133,0.746267 -0.1900322,0.463134 -0.5350181,0.321291 -0.9396653,0.0835"
         id="Fill-5"
         sketch:type="MSShapeGroup" />
      <path
         d="m 39.976655,55.096313 c -0.05773,-0.43023 -0.347471,-0.85023 0.224559,-1.070599 0.115179,-0.04424 0.424534,0.08903 0.447183,0.18636 0.114351,0.493272 -0.171802,0.737696 -0.671742,0.884239"
         id="Fill-6"
         sketch:type="MSShapeGroup" />
      <path
         d="m 56.511395,38.91871 c -0.328966,-0.513457 -0.657655,-1.026913 -0.986345,-1.540646 0.06961,0.101475 0.13921,0.202673 0.208539,0.304148 -0.470109,0.33235 -0.92917,0.683226 -1.415575,0.990138 -0.254389,0.160645 -0.547448,0.297512 -0.84023,0.351429 -0.433649,0.07963 -0.674504,-0.05668 -0.507673,-0.588387 0.405199,-1.29318 2.399157,-2.461659 3.679389,-2.059908 0.25798,0.08101 0.607661,0.499908 0.584183,0.728848 -0.06463,0.626544 -0.305764,1.234562 -0.476737,1.849769 -0.08176,-0.01161 -0.163793,-0.0235 -0.245551,-0.03539"
         id="Fill-7"
         sketch:type="MSShapeGroup" />
      <path
         d="M 3.9688569,39.108387 C 3.7210968,38.475207 3.4835565,38.00129 3.3520807,37.499447 3.18525,36.86212 3.5100726,36.435207 4.1605464,36.314101 5.3526673,36.09235 7.1300766,37.10212 7.557373,38.244055 7.7659113,38.801475 7.5352762,39.13106 6.9919718,38.929493 6.4997661,38.746452 6.0713649,38.374009 5.6402016,38.05106 5.4573508,37.914194 5.3396855,37.689954 5.1018689,37.391889 4.7276048,37.958986 4.3989153,38.456958 3.9688569,39.108387"
         id="Fill-8"
         sketch:type="MSShapeGroup" />
      <path
         d="m 3.3161734,41.00129 c 0.4098952,0.371337 0.5305988,0.710876 0.23975,1.09189 -0.041708,0.05475 -0.3005161,0.02903 -0.3800645,-0.04479 -0.4538125,-0.419447 0.047784,-0.658894 0.1403145,-1.047097"
         id="Fill-9"
         sketch:type="MSShapeGroup" />
      <path
         d="m 27.923141,57.212903 c 0.04696,-0.209861 0.06049,-0.535852 0.19749,-0.797143 0.106341,-0.202949 0.369016,-0.449032 0.55822,-0.445714 0.175945,0.003 0.46707,0.293641 0.494691,0.488018 0.06325,0.443503 0.0616,0.92212 -0.04475,1.35401 -0.05579,0.226728 -0.388074,0.385437 -0.595784,0.574838 -0.193071,-0.227557 -0.404095,-0.443225 -0.570649,-0.688755 -0.06353,-0.09373 -0.02513,-0.25659 -0.03922,-0.485254"
         id="Fill-10"
         sketch:type="MSShapeGroup" />
      <path
         d="m 18.876722,54.956958 c 0.109931,-0.360552 0.188099,-0.729124 0.340566,-1.063963 0.0685,-0.150414 0.301621,-0.339815 0.431716,-0.32046 0.17705,0.02627 0.467899,0.239447 0.464308,0.365806 -0.01657,0.595023 -0.02403,1.220461 -0.217653,1.770691 -0.149153,0.424424 -0.561258,0.252443 -0.777254,-0.05392 -0.130923,-0.18553 -0.158544,-0.444055 -0.241683,-0.698157"
         id="Fill-11"
         sketch:type="MSShapeGroup" />
      <path
         d="m 31.095685,26.055207 v -4.388018 c 0.302174,-0.07272 0.771454,-0.254654 1.244877,-0.265438 0.186995,-0.0041 0.463756,0.339816 0.561535,0.581475 0.527836,1.303686 0.510159,2.608203 -0.339186,3.763133 -0.222625,0.303042 -0.781949,0.357788 -1.186597,0.526729 -0.09336,-0.07272 -0.186993,-0.145438 -0.280629,-0.217881 z M 31.96326,21.82424 c -0.0917,0.181659 -0.211024,0.311612 -0.215996,0.44599 -0.04005,1.037696 -0.07568,2.076775 -0.06546,3.114747 0.0019,0.17364 0.232017,0.345069 0.367359,0.531705 0.897406,-0.947281 0.847412,-3.280092 -0.0859,-4.092442 z"
         id="Fill-12"
         sketch:type="MSShapeGroup" />
      <path
         d="m 21.905637,26.309309 c -0.199147,-1.576037 0.156887,-3.053364 -0.12678,-4.666175 0.156334,0.01465 0.437516,0.04258 0.718974,0.06553 0.05828,0.0047 0.137828,0.01216 0.174564,-0.01963 0.633073,-0.548848 0.822553,0.03207 0.974468,0.434655 0.513197,1.359262 0.288915,2.663225 -0.555734,3.807649 -0.190861,0.258526 -0.744661,0.248572 -1.185492,0.377973 z m 0.872546,-4.380553 c -0.112417,0.149585 -0.24776,0.246083 -0.254112,0.350322 -0.0674,1.098526 -0.122638,2.19788 -0.153573,3.298065 -0.0028,0.102304 0.171526,0.273733 0.286429,0.296682 0.107722,0.02129 0.283391,-0.08212 0.364873,-0.182765 0.567611,-0.701751 0.447736,-2.943318 -0.243617,-3.762304 z"
         id="Fill-13"
         sketch:type="MSShapeGroup" />
      <path
         d="m 29.881744,25.71871 c -0.313222,0.08212 -0.664284,0.290599 -0.923645,0.208479 -0.24997,-0.07908 -0.512645,-0.432166 -0.579764,-0.710876 -0.153297,-0.636774 -0.04088,-1.267742 0.378407,-1.810783 0.18948,-0.24553 0.395808,-0.456498 0.691076,-0.157604 0.254942,0.258249 0.612634,0.51788 0.213787,0.932904 -0.106065,0.110599 -0.233121,0.201013 -0.340291,0.310783 -0.209643,0.215392 -0.699362,0.351981 -0.407409,0.746267 0.168764,0.227834 0.560706,0.28977 0.967839,0.48083"
         id="Fill-14"
         sketch:type="MSShapeGroup" />
      <path
         d="m 33.45424,24.557972 c 0.01409,-0.09871 0.02541,-0.186083 0.0395,-0.273179 0.103578,-0.640646 0.571478,-1.229309 0.957619,-1.206083 0.414591,0.02488 0.820343,0.722488 0.77532,1.387465 -0.01602,0.236682 -0.04999,0.518157 -0.186993,0.690415 -0.244446,0.307742 -0.573688,0.547742 -0.867299,0.816221 -0.226492,-0.34341 -0.464585,-0.679631 -0.672018,-1.034101 -0.06049,-0.103687 -0.0337,-0.258802 -0.04613,-0.380738 z m 1.016451,1.017788 c 0.52397,-0.611889 0.3309,-1.65788 -0.352443,-2.089493 -0.411552,0.619632 -0.286153,1.437512 0.352443,2.089493 z"
         id="Fill-15"
         sketch:type="MSShapeGroup" />
      <path
         d="m 37.665333,24.779723 c 0.07016,0.677696 0.265161,0.83447 0.963695,0.775853 -0.498282,0.617419 -1.052911,0.554654 -1.383534,-0.156774 -0.301069,-0.647834 -0.11297,-1.491982 0.42923,-2.078433 0.248036,-0.268203 0.478395,-0.330415 0.700467,-0.02074 0.21572,0.301106 0.616224,0.624056 0.148325,1.006452 -0.250246,0.204608 -0.573135,0.319908 -0.861498,0.473917 0.09253,-0.118618 0.170974,-0.248018 0.275934,-0.350323 0.353548,-0.345069 0.292506,-0.623778 -0.272619,-0.998156 v 1.348202"
         id="Fill-16"
         sketch:type="MSShapeGroup" />
      <path
         d="m 25.644135,23.364885 c -0.266542,0.49106 0.07706,0.691797 0.419563,0.915207 0.553524,0.36083 0.634453,1.167373 0.09419,1.517696 -0.224282,0.145161 -0.633349,0.02295 -0.951819,-0.02295 -0.0348,-0.005 -0.02624,-0.31106 -0.03756,-0.477512 0.05607,-0.01 0.112417,-0.02018 0.168488,-0.03041 0.08369,0.115023 0.144458,0.285346 0.256322,0.331245 0.149154,0.06111 0.337805,0.02544 0.509607,0.03124 -0.0052,-0.19189 0.04557,-0.412811 -0.03315,-0.567373 -0.06822,-0.133549 -0.290572,-0.182765 -0.43282,-0.285346 -0.486958,-0.351429 -0.591089,-0.823134 -0.302726,-1.327465 0.338909,-0.591982 0.588603,-0.594471 1.076389,0.124976 -0.250246,-0.06829 -0.500216,-0.136589 -0.766482,-0.209308"
         id="Fill-17"
         sketch:type="MSShapeGroup" />
      <path
         d="m 36.85079,23.855945 c -0.24555,-0.06387 -0.490824,-0.128019 -0.771453,-0.201291 -0.485853,0.636775 -0.138381,1.767374 0.69301,1.974747 -0.398018,0.487465 -0.766206,0.460369 -1.083018,-0.07991 -0.448565,-0.765069 -0.186994,-1.797235 0.675056,-2.48765 0.182298,0.193825 0.369569,0.392903 0.556839,0.591705 -0.02348,0.06747 -0.04696,0.134931 -0.07043,0.202397"
         id="Fill-18"
         sketch:type="MSShapeGroup" />
      <path
         d="m 27.591137,23.11659 c 0.220692,0.190783 0.403266,0.348663 0.585841,0.506544 -0.01713,0.06608 -0.03425,0.132165 -0.05137,0.198248 -0.23616,-0.03843 -0.472319,-0.07687 -0.732785,-0.11917 -0.498282,0.831429 -0.199147,1.802765 0.646331,1.91364 -0.428125,0.512351 -0.851002,0.4753 -1.140193,-0.100368 -0.39139,-0.779724 -0.149982,-1.614194 0.692181,-2.398894"
         id="Fill-19"
         sketch:type="MSShapeGroup" />
      <path
         d="m 24.524657,26.010415 c -0.0859,-0.880922 -0.172078,-1.761567 -0.267095,-2.73318 0.111589,-0.04175 0.344158,-0.128571 0.697154,-0.260461 -0.09585,1.079724 -0.180918,2.040553 -0.26599,3.001383 -0.05469,-0.0025 -0.109379,-0.0053 -0.164069,-0.0077"
         id="Fill-20"
         sketch:type="MSShapeGroup" />
      <path
         d="m 37.35874,13.27023 c -0.136448,0.08212 -0.272895,0.164516 -0.259637,0.156498 -0.274276,-0.201567 -0.44166,-0.427742 -0.630587,-0.44765 -1.835689,-0.194654 -3.672207,-0.424424 -5.51425,-0.506267 -2.246966,-0.100092 -4.49476,0.0086 -6.701399,0.512627 -0.209367,0.04783 -0.385313,0.241659 -0.685,0.438525 0.02044,0.01051 -0.119046,-0.06166 -0.32068,-0.166175 0.115456,-0.103963 0.168212,-0.191613 0.238093,-0.208756 0.830563,-0.201014 1.65422,-0.482765 2.497488,-0.568755 3.409532,-0.347558 6.819065,-0.359448 10.208434,0.241659 0.398294,0.07051 0.781121,0.226728 1.171405,0.34341 -0.0014,0.0683 -0.0028,0.136589 -0.0039,0.204884"
         id="Fill-21"
         sketch:type="MSShapeGroup" />
      <path
         d="m 33.094339,44.483226 c 0.458784,0.585622 0.775873,0.990415 1.092961,1.395484 -0.0279,0.02323 -0.05579,0.04673 -0.08369,0.06995 -0.470385,-0.51871 -0.94077,-1.03742 -1.508105,-1.662858 -0.428401,0.99318 -1.168643,1.396314 -2.138139,1.542028 0.18506,0.413364 0.351062,0.784148 0.517064,1.154931 -0.01906,0.01355 -0.03839,0.02737 -0.05773,0.04092 -0.118218,-0.169217 -0.236436,-0.33871 -0.44746,-0.641199 v 2.027835 c -0.0511,0 -0.102198,2.76e-4 -0.153296,2.76e-4 v -1.78341 c -0.0464,-0.01078 -0.09281,-0.02157 -0.13921,-0.03235 -0.298583,0.45788 -0.597165,0.915484 -0.895748,1.373087 -0.03011,-0.01576 -0.06049,-0.03152 -0.0906,-0.04728 0.354377,-0.667189 0.708478,-1.334378 1.092686,-2.057419 -0.982754,-0.269862 -1.860273,-0.523687 -2.23868,-1.545622 -0.280353,0.176129 -0.51596,0.324055 -0.810123,0.509032 0.02679,-0.126636 0.04696,-0.221751 0.07817,-0.367742 -0.637491,0.111982 -1.258411,0.220922 -1.879054,0.329862 -0.0041,-0.0282 -0.0083,-0.05641 -0.01215,-0.08461 0.821447,-0.230875 1.643171,-0.461474 2.472076,-0.694285 0.06021,-0.414194 0.06104,-0.889493 0.210472,-1.311982 0.141972,-0.401751 0.43945,-0.748756 0.68721,-1.149954 -0.135895,-0.09207 -0.311841,-0.211244 -0.530875,-0.359723 0.188099,-0.170046 0.366806,-0.331521 0.545238,-0.492719 0.08286,0.223963 0.164068,0.442396 0.200804,0.541659 h 2.560188 c 0.07099,-0.526175 0.157715,-1.169309 0.244721,-1.812443 0.0406,0.003 0.08121,0.0058 0.122085,0.0088 -0.0395,0.514839 -0.07872,1.029678 -0.133685,1.750231 0.466518,-0.658894 0.818961,-1.156314 1.171129,-1.654009 0.04033,0.02903 0.08038,0.05779 0.120703,0.08654 -0.310736,0.462304 -0.621471,0.924332 -1.044348,1.553917 0.665665,-0.226728 1.156213,-0.393732 1.646762,-0.561013 0.01132,0.02986 0.02265,0.05945 0.03397,0.08903 -0.600204,0.268479 -1.200131,0.536958 -1.88237,0.842212 0.69964,0.720276 1.028605,1.484792 0.838849,2.455023 0.24196,0.0271 0.443869,0.04977 0.645779,0.07217 -0.03453,0.05696 -0.06905,0.113917 -0.103855,0.170875 0.240855,0.102304 0.477566,0.217051 0.723945,0.304148 0.315984,0.111981 0.639978,0.201843 0.925855,0.420829 -0.536399,-0.144608 -1.072798,-0.289216 -1.781552,-0.480276 z m -2.7969,-0.554102 c 0.180089,-0.253824 0.350234,-0.393179 0.361007,-0.544147 0.0069,-0.09926 -0.211853,-0.292811 -0.337529,-0.3 -0.117941,-0.0069 -0.3483,0.177788 -0.346919,0.275668 0.0022,0.150968 0.159649,0.3 0.323441,0.568479 z"
         id="Fill-22"
         sketch:type="MSShapeGroup" />
      <path
         d="m 30.508464,48.865438 c 0.335042,-0.05889 0.725879,-0.180277 1.118373,-0.18636 0.939665,-0.01465 1.032195,-0.08184 1.139088,-0.989032 0.01298,0.259908 0.11297,0.562396 0.01298,0.767005 -0.09142,0.187189 -0.385312,0.314931 -0.615395,0.383226 -0.199423,0.05945 -0.444145,-0.04452 -0.652131,2.76e-4 -0.370673,0.07991 -0.728917,0.217604 -1.168367,0.354746 -0.216825,-0.450691 -0.7477,-0.475852 -1.313377,-0.387926 -0.811228,0.126083 -1.412812,-0.409493 -0.931379,-1.292627 0.0464,0.269862 -0.0052,0.714747 0.185889,0.882581 0.211024,0.18553 0.648264,0.09843 0.980268,0.163687 0.399676,0.07825 0.792446,0.192166 1.244049,0.304424"
         id="Fill-23"
         sketch:type="MSShapeGroup" />
      <path
         d="m 35.778544,44.968479 c 0.08811,0.08323 0.176222,0.166452 0.156059,0.147374 -0.285325,0.373824 -0.581974,0.666359 -0.758196,1.01917 -0.186441,0.373548 -0.112417,1.005899 -0.688038,0.971336 -0.441936,-0.02654 -0.86647,-0.343686 -1.298462,-0.531705 0.03149,-0.07272 0.06298,-0.145714 0.09474,-0.218709 0.04392,0.01438 0.09833,0.01659 0.130371,0.04452 0.976678,0.846912 1.165881,0.772534 1.622456,-0.455115 0.138657,-0.372166 0.499111,-0.661936 0.757919,-0.989309 l -0.01685,0.01244"
         id="Fill-24"
         sketch:type="MSShapeGroup" />
      <path
         d="m 24.897816,45.093733 h -0.421495 c 0.480881,-0.542765 0.309354,-1.015023 0.05579,-1.522673 -0.400504,-0.802949 -0.09474,-1.225991 0.978335,-1.208572 -0.250246,0.09456 -0.366254,0.155116 -0.489444,0.181659 -0.380893,0.0824 -0.55822,0.333457 -0.395256,0.670231 0.296649,0.613548 0.469004,1.221567 0.258532,1.894009 l 0.01353,-0.01465"
         id="Fill-25"
         sketch:type="MSShapeGroup" />
      <path
         d="m 29.604706,38.608203 c -0.393047,-0.827281 -0.667875,-0.88894 -1.273327,-0.250784 -0.316813,0.333733 -0.627825,0.607742 -1.137708,0.465623 -0.07071,-0.01991 -0.182022,0.106175 -0.28201,0.169216 v -0.398157 c 0.667875,0.324332 1.038825,-0.132442 1.480208,-0.486359 0.2113,-0.169493 0.575897,-0.327926 0.79576,-0.257143 0.236435,0.07604 0.385036,0.426636 0.571754,0.657512 -0.05165,0.03346 -0.103026,0.06691 -0.154677,0.100092"
         id="Fill-26"
         sketch:type="MSShapeGroup" />
      <path
         d="m 33.655321,38.764424 c -0.0848,0.537235 0.280352,0.811797 0.751014,1.036037 0.337252,0.160645 0.770349,0.277604 0.644121,0.945622 -0.200805,-0.989032 -1.579367,-0.757327 -1.546222,-1.767373 -0.359625,-0.116129 -0.690248,-0.223411 -1.020871,-0.330415 0.0091,-0.0329 0.01795,-0.06581 0.02707,-0.09871 0.356034,0.06664 0.712344,0.133549 1.144889,0.214839"
         id="Fill-27"
         sketch:type="MSShapeGroup" />
      <path
         d="m 24.884282,45.108387 c 0.188375,0.255207 0.454089,0.484424 0.551039,0.770876 0.337252,0.993456 0.551866,1.119262 1.542631,0.889769 -0.31046,0.08544 -0.649922,0.288664 -0.922817,0.221475 -0.24776,-0.06111 -0.473147,-0.388756 -0.618986,-0.64894 -0.220139,-0.39318 -0.362387,-0.830046 -0.538056,-1.248111 -2.77e-4,2.77e-4 -0.01381,0.01493 -0.01381,0.01493"
         id="Fill-28"
         sketch:type="MSShapeGroup" />
      <path
         d="m 35.795393,44.956037 c -0.01906,-0.340369 -0.118494,-0.699816 -0.04198,-1.017235 0.264609,-1.097143 0.113246,-1.333825 -0.931102,-1.450784 0.310735,0.03346 0.706544,-0.0365 0.908177,0.129678 0.199423,0.163963 0.282839,0.569309 0.273447,0.864332 -0.01574,0.497419 -0.144733,0.991244 -0.225663,1.486451 2.76e-4,0 0.01713,-0.01244 0.01713,-0.01244"
         id="Fill-29"
         sketch:type="MSShapeGroup" />
      <path
         d="m 70.440097,52.067005 c 0.887185,0.3094 0.709582,0.917419 0.867574,1.35235 0.485301,1.336037 1.049045,2.604055 2.698845,2.791521 0.999879,0.11364 1.885131,-0.125254 2.177637,-1.224056 0.279801,-1.050415 -0.22152,-1.813548 -1.173339,-2.219723 -0.715106,-0.304977 -1.486284,-0.478618 -2.231221,-0.7153 -2.121014,-0.673825 -3.0082,-2.198156 -2.296131,-3.940092 0.681409,-1.667004 2.757125,-2.341935 4.575413,-1.474009 0.483091,0.230599 0.89851,0.852995 1.353151,-0.134378 0.195004,-0.423318 0.545791,-0.03871 0.55242,0.331797 0.01989,1.105162 0.0097,2.211152 0.0025,3.31659 -0.0017,0.237788 -0.06988,0.4753 -0.360453,0.487189 -0.310184,0.01272 -0.313774,-0.25659 -0.380341,-0.473641 -0.187823,-0.612995 -0.31626,-1.260276 -0.60628,-1.822672 -0.548,-1.062857 -1.481865,-1.474563 -2.657966,-1.247835 -0.800732,0.154563 -1.324978,0.640922 -1.436014,1.469586 -0.103302,0.769493 0.220415,1.400461 0.91674,1.697419 0.841058,0.358618 1.73073,0.609125 2.610734,0.86765 1.207312,0.35447 2.276796,0.882304 2.495554,2.266451 0.193899,1.225715 -0.20329,2.300461 -1.242115,3.024332 -1.167262,0.813733 -2.408548,0.766452 -3.659778,0.146544 -0.55601,-0.275668 -1.111744,-1.14553 -1.696204,0.03954 -0.1486,0.301936 -0.501596,0.0929 -0.505187,-0.267096 -0.01409,-1.389954 -0.0055,-2.780185 -0.0055,-4.272166"
         id="Fill-30"
         sketch:type="MSShapeGroup" />
      <path
         d="m 78.489952,37.156866 c -0.01492,1.739724 -0.54441,3.275945 -1.975452,4.339079 -1.41005,1.047373 -3.00599,1.19364 -4.528734,0.328203 -1.853919,-1.053457 -2.475667,-2.850139 -2.525661,-4.891245 -0.0022,-0.09069 0.02072,-0.182212 0.02955,-0.273456 0.298859,-3.110046 2.252766,-5.180184 4.756055,-5.037788 2.452465,0.139631 4.271306,2.513087 4.244238,5.535207 z m -1.670793,0.148756 c -5.52e-4,-1.360921 -0.137828,-2.54212 -0.759576,-3.6047 -1.001813,-1.711798 -3.158734,-1.77401 -4.095914,-0.02903 -1.126383,2.096682 -1.098486,4.318894 -0.143629,6.490231 0.4052,0.921843 1.230514,1.334378 2.224593,1.351521 1.036339,0.01797 1.709185,-0.55106 2.162998,-1.431706 0.473976,-0.920184 0.641635,-1.905069 0.611528,-2.776313 z"
         id="Fill-31"
         sketch:type="MSShapeGroup" />
      <path
         d="m 125.3771,46.096037 c 0.51264,0.754286 0.19555,1.595945 0.2171,2.390875 0.0525,1.927742 0.05,3.858802 0.003,5.786821 -0.026,1.071152 0.0102,2.014285 1.72024,2.050783 -0.98828,0.639263 -1.86166,0.669401 -2.41159,0.291982 -0.62506,-0.429125 -0.94243,-0.363318 -1.49264,0 -0.69826,0.460921 -1.5012,0.372442 -2.25442,0.07659 -1.65229,-0.648941 -2.44915,-2.843226 -1.77189,-4.819908 0.65876,-1.922212 2.19615,-2.798987 4.05697,-2.190968 0.62479,0.204055 0.72367,0.06193 0.7082,-0.48083 -0.009,-0.32129 -0.0315,-0.646175 0.002,-0.964147 0.12015,-1.126175 -0.21793,-1.789217 -1.50231,-1.63106 -0.26958,0.03318 -0.74438,0.138802 -0.68334,-0.377419 0.0428,-0.360553 0.44056,-0.237512 0.68887,-0.237788 0.73278,-0.0011 1.46584,0.03097 2.19863,0.05032 0.15219,0.222028 0.32565,0.24083 0.52038,0.05475 z m -1.11865,7.125622 c -0.0177,-1.783134 -0.72395,-3.047281 -1.71913,-3.07659 -1.04076,-0.03041 -1.87436,1.375576 -1.84646,3.114747 0.0273,1.707096 0.72228,2.860921 1.74095,2.890507 1.10124,0.03207 1.84204,-1.157143 1.82464,-2.928664 z"
         id="Fill-32"
         sketch:type="MSShapeGroup" />
      <path
         d="m 77.740042,46.387189 c 1.20897,-0.587281 2.070744,-0.405899 2.888049,-0.341475 0.49331,0.03899 0.322889,0.580093 0.328965,0.915484 0.01961,1.089678 0.0072,2.180184 0.0072,3.265161 0.520103,0.08876 0.70682,-0.32046 1.025566,-0.467004 1.769123,-0.814286 3.41699,0.169493 3.465051,2.099447 0.01823,0.735484 0.0036,1.471521 0.0036,2.207281 -2.77e-4,1.739447 -5.53e-4,1.739447 1.384363,2.708571 -1.279956,0 -2.560741,0.0224 -3.839315,-0.02046 -0.233397,-0.008 -0.30604,-0.324884 -0.07541,-0.516497 0.0917,-0.07631 0.262399,-0.05309 0.39498,-0.08378 0.85183,-0.196866 0.70682,-0.912995 0.639149,-1.452442 -0.176775,-1.411521 0.640806,-3.043687 -0.581422,-4.181475 -0.443316,-0.412811 -1.419165,-0.342028 -1.911371,0.627097 -0.71704,1.411244 -0.44083,2.87447 -0.4911,4.326083 -0.02845,0.820368 0.83581,0.530046 1.386572,1.11235 H 78.17399 c 1.655048,-0.266267 1.324149,-1.520184 1.332988,-2.567281 0.01519,-1.747189 0.0116,-3.494931 0.0061,-5.242397 -0.0036,-1.06258 0.277591,-2.288847 -1.77299,-2.388663"
         id="Fill-33"
         sketch:type="MSShapeGroup" />
      <path
         d="M 78.219542,6.7719816 C 77.387875,6.4285714 77.679829,5.818341 77.554153,5.3781567 77.377379,4.7593548 77.316061,4.0894009 76.767232,3.660553 76.216194,3.2303226 75.530365,3.2117972 74.927952,3.4039631 c -0.573136,0.1824885 -0.287259,0.8001844 -0.293335,1.2168664 -0.02873,1.9780645 0.04613,3.958894 -0.03204,5.9339175 -0.04751,1.19917 0.228425,1.887096 1.579919,1.691336 0.222349,-0.03207 0.436135,0.05171 0.628929,0.454009 h -5.794602 c 0.08921,-0.20129 0.129266,-0.347004 0.156334,-0.344793 2.009426,0.175577 1.971585,-1.109032 1.905847,-2.5421193 -0.07817,-1.6988018 0.01381,-3.4047926 -0.0406,-5.1052534 -0.01491,-0.4647927 0.393875,-1.2320738 -0.470937,-1.3540092 -0.779188,-0.1100461 -1.592901,-0.058618 -2.035113,0.7938248 -0.303002,0.5839632 -0.369292,1.2265438 -0.425087,1.8702304 -0.02348,0.2698618 -0.01188,0.6218434 -0.371502,0.6353918 -0.393875,0.014654 -0.328137,-0.3489401 -0.352167,-0.6096775 -0.0041,-0.045346 0.003,-0.092074 2.76e-4,-0.1376958 -0.203567,-3.304424 -0.203567,-3.304424 3.12255,-3.3041475 1.608645,0 3.217014,-0.00249 4.82566,0.00332 0.392494,0.00138 0.912873,-0.1410138 0.955961,0.476682 0.08424,1.206083 0.111037,2.4157604 -0.0685,3.6901383"
         id="Fill-34"
         sketch:type="MSShapeGroup" />
      <path
         d="m 87.921407,12.466452 c -1.389887,0.473087 -3.263141,0.471981 -4.628169,0.01908 1.706423,-0.145438 1.499542,-1.224055 1.485179,-2.212258 -0.01215,-0.8289402 0.0022,-1.6581568 -0.0069,-2.4873734 -0.0055,-0.5217511 -0.07955,-1.0515207 -0.619814,-1.2854378 -0.618434,-0.2673732 -1.170577,-0.025438 -1.646762,0.3920738 -0.836087,0.7329953 -1.338789,4.0011984 -0.851555,4.9849774 0.254665,0.514285 0.891052,0.187465 1.11644,0.647004 -0.87669,0.398157 -2.671224,0.442673 -4.435375,-0.0088 2.147254,-0.171428 1.752826,-1.486728 1.759179,-2.5968662 0.0086,-1.5199078 -0.01188,-3.0403686 0.0069,-4.5602765 0.01353,-1.0863594 0.238645,-2.2628571 -1.835689,-2.3778801 1.225818,-0.5458065 2.03898,-0.3472811 2.819272,-0.3533641 0.552143,-0.00442 0.457127,0.4733641 0.46127,0.8220277 0.0116,0.9558525 0.0041,1.911705 0.0041,2.8866359 0.589708,0.04894 0.841059,-0.4296774 1.254821,-0.5903226 1.85972,-0.7219355 3.385226,0.2452535 3.420028,2.2114286 0.01215,0.6909677 -0.0028,1.3819355 0.005,2.0729033 0.01243,1.080276 -0.395256,2.387005 1.69206,2.436498"
         id="Fill-35"
         sketch:type="MSShapeGroup" />
      <path
         d="m 71.258506,17.252627 c 0.687486,-0.03346 1.448996,-0.210139 0.705716,0.941198 -0.260466,0.403133 -0.144182,1.068663 -0.149154,1.614746 -0.01436,1.611429 -0.05579,3.225346 0.01519,4.833733 0.05469,1.247005 0.750462,2.078157 2.031799,2.223871 1.221675,0.139078 2.28453,-0.3047 2.606038,-1.541475 0.585564,-2.253179 0.286429,-4.578801 0.193347,-6.86599 -0.04005,-0.986268 -1.251783,-0.412258 -1.796468,-0.777512 -0.01022,-0.600276 0.399399,-0.469216 0.680028,-0.475299 0.827524,-0.01853 1.657534,-0.04065 2.482573,0.0083 0.412381,0.02461 1.106496,-0.304147 1.184663,0.264609 0.0848,0.617696 -0.618434,0.258802 -0.955686,0.361935 -0.653236,0.199355 -0.644121,0.694009 -0.644397,1.209678 -5.52e-4,1.611428 0.01547,3.223133 -0.0047,4.834285 -0.03094,2.487927 -1.352323,3.836682 -3.704801,3.815392 -2.391147,-0.02157 -3.69458,-1.358709 -3.698171,-3.797696 -0.0025,-1.611428 -0.04668,-3.224792 0.01602,-4.833732 0.0348,-0.895853 -0.319022,-1.277973 -1.168091,-1.293733 -0.15882,-0.10424 -0.317917,-0.208203 -0.477014,-0.312443 0.668428,-0.529769 1.421375,-0.187742 2.139244,-0.207649 0.182299,0.251336 0.363492,0.248571 0.543857,-0.0022"
         id="Fill-36"
         sketch:type="MSShapeGroup" />
      <path
         d="m 78.693794,27.019631 c 1.569424,-0.02295 1.592073,-0.982396 1.504514,-2.054101 -0.05248,-0.640092 0.0017,-1.288479 -0.0055,-1.932995 -0.01132,-1.047097 0.338081,-2.295761 -1.412812,-2.524148 1.030262,-0.0318 2.057486,-0.924608 2.857389,0.324885 0.280077,0.437696 0.40879,0.0777 0.607385,-0.03677 2.329552,-1.345715 3.942617,-0.419447 3.942617,2.261751 -2.76e-4,0.690691 0.04972,1.38553 -0.0083,2.071244 -0.0859,1.015023 0.02127,1.850046 1.444024,1.853641 -0.866746,0.592258 -2.608248,0.676589 -4.398087,0.227004 1.50921,-0.352811 1.591244,-1.303686 1.489875,-2.380921 -0.09888,-1.049586 0.206329,-2.141199 -0.146943,-3.15401 -0.313222,-0.898064 -1.067275,-0.761474 -1.711119,-0.379908 -0.724498,0.429401 -1.188807,1.22765 -1.054016,1.971429 0.227044,1.252535 -1.160081,3.003595 1.031643,3.732166 0.19307,0.06415 0.105235,0.463687 -0.199424,0.469493 -1.254268,0.02323 -2.509365,0.0097 -3.763909,0.0097 -0.05911,-0.152903 -0.118218,-0.305806 -0.177327,-0.458433"
         id="Fill-37"
         sketch:type="MSShapeGroup" />
      <path
         d="m 102.62184,56.634746 h -4.143146 c 1.295147,-0.435207 1.291004,-1.392718 1.229685,-2.428479 -0.05137,-0.872074 -0.0091,-1.749677 -0.0094,-2.624792 0,-0.230323 -0.06187,-0.478894 0.0036,-0.68765 0.286705,-0.911613 -1.827404,-0.413364 -0.891053,-1.131705 0.670085,-0.514286 0.736651,-0.934286 0.847688,-1.534009 0.434476,-2.345254 3.238286,-3.475023 5.178106,-2.088664 0.43917,0.313548 0.74659,0.692074 0.71952,1.254194 -0.0329,0.690414 -0.332,1.194193 -1.10069,1.086082 -0.66484,-0.09318 -1.01507,-0.617419 -0.7245,-1.205253 0.51706,-1.045714 -0.26185,-0.990138 -0.80073,-1.000645 -1.31172,-0.02544 -2.3674,1.739447 -1.8484,2.954378 0.21296,0.497972 0.60214,0.3 0.93221,0.340092 0.28091,0.03401 0.60131,0.03124 0.59965,0.399263 -10e-4,0.251336 -0.23616,0.412811 -0.48889,0.369677 -1.13246,-0.191889 -0.99325,0.577051 -0.9869,1.266913 0.008,0.829216 0.024,1.659262 -0.009,2.487096 -0.0456,1.149678 -0.1276,2.293549 1.69786,2.199816 -0.0685,0.11447 -0.13727,0.22894 -0.20577,0.343686"
         id="Fill-38"
         sketch:type="MSShapeGroup" />
      <path
         d="m 82.906268,32.265346 c -1.307853,0.615483 -0.997945,1.532903 -0.934417,2.439262 0.06684,0.952258 0.686657,0.783042 1.26504,0.79189 0.287258,0.0044 0.612633,0.0506 0.611805,0.395115 -5.53e-4,0.343963 -0.32648,0.429124 -0.610976,0.381567 -0.949333,-0.158433 -1.043244,0.368295 -1.003746,1.123133 0.04806,0.91659 0.03121,1.838433 0.0014,2.756682 -0.02431,0.761475 0.029,1.406821 1.044072,1.355392 0.238369,-0.01217 0.472043,0.07465 0.412105,0.39235 -0.04336,0.230046 -0.256875,0.201014 -0.432544,0.231705 -0.561534,0.09843 -3.292143,-0.07134 -4.393391,-0.408387 2.262433,-0.128295 1.955288,-1.501106 1.786248,-2.576682 -0.166002,-1.057327 1.055397,-2.771336 -1.212837,-3.060829 -0.20771,-0.02654 -0.02983,-0.562673 0.286153,-0.545807 0.944361,0.0506 0.828353,-0.452073 0.757643,-1.121474 -0.127332,-1.206636 0.348301,-2.160277 1.516668,-2.658249 0.527284,-0.224793 1.073903,-0.243042 1.594006,0.047 0.586669,0.327097 0.887462,0.818434 0.68058,1.487005 -0.151639,0.490231 -0.5596,0.789954 -1.061749,0.646175 -0.885805,-0.253272 -0.421497,-0.925991 -0.306041,-1.675852"
         id="Fill-39"
         sketch:type="MSShapeGroup" />
      <path
         d="m 97.871032,56.631152 h -4.01747 c 1.37221,-0.409217 1.21919,-1.448848 1.197093,-2.436498 -0.01878,-0.827281 0.01768,-1.656221 -0.0094,-2.483225 -0.01989,-0.614655 0.310736,-1.433641 -0.869508,-1.425623 -0.346091,0.0022 -0.456575,-0.62046 -0.04033,-0.634838 1.081361,-0.03788 0.667599,-0.70341 0.656275,-1.231244 -0.04254,-1.995484 1.866348,-3.383503 3.529131,-2.55954 0.694943,0.34424 1.100695,0.866268 0.751842,1.668111 -0.174288,0.400092 -0.525074,0.671613 -0.997393,0.52811 -0.470109,-0.143225 -0.621472,-0.497419 -0.4853,-0.978801 0.06242,-0.220922 0.498006,-0.408664 0.119046,-0.67189 -0.309078,-0.214285 -0.646883,-0.0365 -0.895195,0.14295 -0.756262,0.546912 -0.669256,1.311428 -0.535571,2.121566 0.106893,0.648664 0.320956,1.013088 1.046559,0.912443 0.247207,-0.03429 0.609871,-0.07742 0.659036,0.300276 0.06436,0.492166 -0.344986,0.486083 -0.648264,0.459263 -0.722841,-0.06387 -0.822276,0.323779 -0.801837,0.920461 0.03342,0.9647 0.01492,1.931336 0.0039,2.897143 -0.01243,1.044608 -0.264333,2.223041 1.337407,2.471336"
         id="Fill-40"
         sketch:type="MSShapeGroup" />
      <path
         d="m 113.51969,54.13576 c 0.40023,1.081106 -0.0307,2.047742 -1.15262,2.589401 -1.71002,0.825346 -3.89704,-0.03733 -4.58149,-1.807465 -0.72947,-1.88682 0.18644,-4.544793 1.83514,-5.275576 0.94657,-0.419447 1.88319,-0.391521 2.74745,0.220645 0.98856,0.700092 1.28383,1.760184 1.37995,2.885253 0.0467,0.548295 -0.35134,0.67189 -0.82366,0.666913 -1.01093,-0.01051 -2.02324,0.0271 -3.03251,-0.01631 -0.70157,-0.03041 -0.92281,0.254102 -0.75543,0.896406 0.25411,0.975207 0.62147,1.861659 1.81194,1.96894 1.13853,0.102581 1.81304,-0.462857 2.15581,-1.516866 0.0746,-0.229493 0.0102,-0.591982 0.41542,-0.611337 z m -2.95876,-1.420368 c 0.50768,-0.411705 1.65505,0.562949 1.59981,-0.832811 -0.034,-0.851337 -0.29002,-1.764056 -1.36171,-1.72341 -1.13826,0.04313 -1.5244,1.065345 -1.57937,1.955391 -0.0657,1.069217 0.92779,0.215392 1.34127,0.60083 z"
         id="Fill-41"
         sketch:type="MSShapeGroup" />
      <path
         d="m 103.04775,24.097327 c -0.092,0.0014 -0.19334,-0.02433 -0.27455,0.0053 -0.61401,0.223963 -1.66168,-0.559632 -1.83265,0.481659 -0.14639,0.892534 0.28533,1.869401 1.27581,2.242119 0.94243,0.354471 1.82078,0.178618 2.41408,-0.749585 0.0492,-0.07687 0.0591,-0.190783 0.12319,-0.244147 0.32095,-0.26765 0.0146,-1.226544 0.6513,-0.92848 0.52507,0.246083 0.14943,0.995945 -0.11021,1.462673 -0.68169,1.224885 -1.83652,1.47318 -3.09106,1.310876 -1.41281,-0.182489 -2.356624,-1.014194 -2.726745,-2.396129 -0.309631,-1.155484 -0.138657,-2.289125 0.412658,-3.350876 0.684997,-1.32 1.884577,-2.01318 3.116197,-1.823226 1.44154,0.222305 2.07848,1.217696 2.41766,2.510323 0.26074,0.992903 0.13424,1.652074 -1.13384,1.486728 -0.40713,-0.05309 -0.82752,-0.0083 -1.24184,-0.0072 z m -0.6165,-0.669124 c 0.47232,-0.420553 1.54043,0.542488 1.55948,-0.692351 0.0133,-0.860184 -0.22455,-1.796682 -1.35701,-1.894285 -0.75323,-0.06498 -1.78459,1.193917 -1.64345,2.059355 0.15523,0.953364 0.98192,0.180829 1.44098,0.527281 z"
         id="Fill-42"
         sketch:type="MSShapeGroup" />
      <path
         d="m 117.93269,23.175207 c -0.91674,-0.509032 -0.82504,-1.301198 -1.30757,-1.740553 -0.51762,-0.471428 -1.04849,-0.755391 -1.73957,-0.51235 -0.37067,0.130231 -0.62534,0.422489 -0.64578,0.823134 -0.0384,0.749585 0.54607,1.00341 1.09241,1.252811 0.45906,0.209309 0.94519,0.35917 1.4048,0.567373 1.40315,0.635668 1.87602,1.523779 1.45204,2.686728 -0.411,1.127558 -1.81774,1.714286 -3.12173,1.341843 -0.54302,-0.155115 -1.06313,-0.969677 -1.69979,-0.07355 -0.1138,0.160092 -0.41487,-0.06636 -0.41625,-0.351981 -0.004,-0.895576 -0.002,-1.791153 -0.002,-2.795116 0.78775,0.182765 0.72643,0.733272 0.90872,1.100185 0.38808,0.780276 0.901,1.402119 1.84923,1.45576 0.54496,0.03069 1.03247,-0.121382 1.20952,-0.698433 0.16269,-0.52977 -0.15882,-0.902765 -0.58391,-1.122028 -0.61014,-0.314931 -1.26697,-0.538341 -1.88706,-0.835576 -1.41364,-0.677419 -1.83983,-1.639631 -1.30261,-2.876682 0.49193,-1.132534 1.72217,-1.602304 3.02284,-1.151336 0.43586,0.150967 0.79521,0.562673 1.34597,0.09318 0.31322,-0.267097 0.41183,0.170322 0.41625,0.437972 0.0122,0.718894 0.004,1.438064 0.004,2.398617"
         id="Fill-43"
         sketch:type="MSShapeGroup" />
      <path
         d="m 92.742647,55.42977 c -0.541371,1.626912 -2.395843,2.140645 -4.069121,1.129769 -1.177205,-0.711705 -1.763599,-2.241014 -1.479379,-3.859355 0.32869,-1.871336 1.242391,-2.974009 2.704093,-3.263502 1.806964,-0.357512 3.73905,1.56636 3.420304,3.379908 -0.100816,0.572627 -0.486129,0.590046 -0.912044,0.591152 -0.964248,0.0022 -1.930153,0.03594 -2.891639,-0.01493 -0.758196,-0.04009 -0.967563,0.225069 -0.822829,0.962212 0.408791,2.082304 1.746474,2.56894 3.460355,1.221014 0.185337,-0.145714 0.340843,-0.30553 0.59026,-0.146268 z m -2.683929,-2.716037 c 0.538332,-0.393457 1.639028,0.553548 1.67024,-0.75318 0.02099,-0.880645 -0.246379,-1.851429 -1.386297,-1.807189 -1.118925,0.04313 -1.496504,1.058433 -1.574395,1.941014 -0.09474,1.07364 0.897682,0.243318 1.290452,0.619355 z"
         id="Fill-44"
         sketch:type="MSShapeGroup" />
      <path
         d="m 118.46302,56.474931 c -1.48104,0.433272 -2.87838,0.27788 -4.4224,0.125253 2.03871,-0.448479 1.42607,-1.942949 1.44762,-3.131336 0.0345,-1.884885 -0.003,-3.770599 0.0141,-5.656037 0.006,-0.656682 -0.0312,-1.219631 -0.90321,-1.193917 -0.24058,0.0072 -0.47867,-0.06857 -0.42095,-0.380461 0.0572,-0.308848 0.3425,-0.248848 0.55574,-0.256037 0.41266,-0.01355 0.83139,0.03926 1.2388,-0.0091 0.86675,-0.103134 1.09849,0.277327 1.08329,1.103226 -0.0445,2.436497 0.0293,4.875207 -0.0373,7.310599 -0.0296,1.079723 0.079,1.907834 1.4443,2.087834"
         id="Fill-45"
         sketch:type="MSShapeGroup" />
      <path
         d="m 92.791813,12.577327 c -2.025722,0.926821 -3.983773,0.282581 -4.710204,-1.550322 -0.784988,-1.9802769 0.209643,-4.6363138 1.985395,-5.3026732 1.936506,-0.7266359 4.117458,1.0338249 3.933226,3.1482028 -0.05027,0.5767742 -0.367359,0.656682 -0.831391,0.6514285 -0.966182,-0.010783 -1.935678,0.046175 -2.897716,-0.016313 -0.8905,-0.057788 -1.001812,0.3364977 -0.836639,1.0758519 0.311841,1.397973 1.086885,1.832074 2.960415,1.601752 0.201909,0.06 0.352444,0.171981 0.396914,0.392073 z M 90.987611,8.8885714 C 91.486169,8.5725346 92.473619,9.2897696 92.471686,8.1987097 92.470028,7.3376958 92.238841,6.3815668 91.087875,6.29447 90.348738,6.238341 89.373718,7.4087558 89.475087,8.2609217 c 0.128437,1.081106 1.04932,0.2615668 1.512524,0.6276497 z"
         id="Fill-46"
         sketch:type="MSShapeGroup" />
      <path
         d="m 124.65287,22.483687 c -0.15716,-0.577604 0.25522,-1.428111 -0.85707,-1.545346 -0.32096,-0.03373 -0.18368,-0.50212 0.0837,-0.61659 1.125,-0.481382 1.26145,-1.484239 1.40701,-2.50341 0.0373,-0.261843 0.0679,-0.61576 0.43586,-0.593641 0.38559,0.0235 0.3204,0.370231 0.32178,0.639263 0.002,0.32212 0.0268,0.646728 -0.001,0.96636 -0.0834,0.949769 0.0552,1.653179 1.291,1.44 0.31322,-0.05392 0.83388,-0.151521 0.77947,0.450138 -0.0428,0.470599 -0.49525,0.37576 -0.77008,0.327926 -1.18797,-0.207097 -1.38767,0.390138 -1.30205,1.399908 0.0779,0.914378 0.0243,1.840369 0.021,2.761382 -0.002,0.629309 0.0475,1.343503 0.82504,1.342673 0.83885,-8.29e-4 0.92751,-0.73576 0.91895,-1.42341 -0.005,-0.414194 -0.011,-0.82977 0.0163,-1.242581 0.0135,-0.209032 0.008,-0.500184 0.33891,-0.480829 0.3099,0.01797 0.32123,0.295576 0.32289,0.511797 0.006,0.735761 0.0751,1.486728 -0.045,2.20424 -0.18257,1.091613 -1.00761,1.479262 -2.0282,1.464055 -1.07722,-0.01604 -1.75255,-0.563779 -1.7962,-1.669217 -0.0417,-1.055668 0.0191,-2.115207 0.0345,-3.173087 0.0276,-0.02516 0.082,-0.05641 0.0782,-0.07465 -0.0141,-0.06415 -0.0483,-0.123595 -0.0749,-0.184977"
         id="Fill-47"
         sketch:type="MSShapeGroup" />
      <path
         d="m 95.654726,20.257327 c -2.23426,1.94129 0.167659,3.302489 0.354377,4.934931 0.305488,-0.766452 0.610976,-1.532627 0.91674,-2.298802 0.361834,-0.906359 0.945465,-1.860829 -0.983307,-2.37871 1.443196,-0.3694 2.426226,-0.285069 3.702591,-0.145714 -2.3232,1.626636 -2.364355,4.204424 -3.47748,6.22341 -0.189204,0.342857 -0.168764,0.90553 -0.714831,0.877881 -0.518445,-0.02627 -0.53557,-0.563503 -0.675608,-0.929862 -0.50795,-1.329678 -0.990212,-2.669309 -1.491809,-4.001751 -0.28781,-0.764793 -0.460718,-1.643779 -1.561413,-1.654286 -0.20329,-0.0019 -0.342224,-0.154562 -0.291401,-0.368019 0.07043,-0.296958 0.338357,-0.255483 0.556562,-0.256589 1.143232,-0.0053 2.286188,-0.0025 3.665579,-0.0025"
         id="Fill-48"
         sketch:type="MSShapeGroup" />
      <path
         d="m 132.07629,27.17447 c -0.57121,-1.598433 -1.14103,-3.196866 -1.71389,-4.79447 -0.23146,-0.645069 -0.38393,-1.355115 -1.24487,-1.476774 -0.23533,-0.03318 -0.44608,-0.128848 -0.35714,-0.44212 0.0693,-0.244148 0.28588,-0.200461 0.45271,-0.201843 0.96424,-0.0091 1.92849,-0.0072 2.89247,-8.3e-4 0.21627,0.0017 0.49607,-0.05972 0.56319,0.241383 0.0674,0.303041 -0.16214,0.381013 -0.4052,0.406175 -0.75848,0.07852 -0.72229,0.516774 -0.5179,1.076129 0.37565,1.029124 0.72367,2.068203 1.18881,3.407281 0.45547,-1.132258 0.82504,-1.977235 1.13439,-2.844055 0.23892,-0.669954 0.9021,-1.521291 -0.52673,-1.707374 -0.079,-0.01023 -0.18644,-0.191889 -0.19141,-0.298341 -0.0119,-0.24553 0.19887,-0.278433 0.382,-0.279815 0.89215,-0.0066 1.78431,-0.003 3.06012,-0.003 -2.56516,1.913088 -2.57344,4.774286 -3.93985,6.917972 -0.25909,-2.76e-4 -0.5179,-2.76e-4 -0.7767,-2.76e-4"
         id="Fill-49"
         sketch:type="MSShapeGroup" />
      <path
         d="m 107.22266,56.555945 c -1.43049,0.219815 -2.74883,0.327649 -4.19976,-0.0086 1.84563,-0.394285 1.39596,-1.752719 1.41778,-2.895207 0.0141,-0.735208 0.001,-1.470968 0.004,-2.206452 0.003,-0.64341 -0.0721,-1.219078 -0.9184,-1.235944 -0.22732,-0.0047 -0.49414,-0.03733 -0.45492,-0.361659 0.0376,-0.310507 0.31599,-0.264885 0.53336,-0.281752 0.137,-0.01051 0.27539,-0.0047 0.41322,-0.0033 2.39363,0.02046 1.90004,-0.160645 1.94672,1.848664 0.0224,0.9647 8.3e-4,1.930507 0.003,2.896037 0.002,0.928479 -0.24224,1.993825 1.25454,2.248203"
         id="Fill-50"
         sketch:type="MSShapeGroup" />
      <path
         d="m 123.2489,27.377419 h -4.07464 c 1.47247,-0.437419 1.2283,-1.585714 1.2004,-2.6447 -0.029,-1.101567 0.0135,-2.207558 -0.0682,-3.304701 -0.0541,-0.729954 -0.98469,-0.316036 -1.33713,-0.889769 0.7941,-0.555484 1.66389,-0.2353 2.4671,-0.236129 0.5353,-5.53e-4 0.37454,0.540829 0.37951,0.873456 0.018,1.195023 -0.006,2.390599 0.01,3.585622 0.0141,1.06424 -0.42012,2.42212 1.85861,2.108019 -0.14528,0.169493 -0.29029,0.338986 -0.43558,0.508202"
         id="Fill-51"
         sketch:type="MSShapeGroup" />
      <path
         d="m 87.654865,20.581382 c 0.873375,-0.468663 1.687917,-0.302212 2.475391,-0.306912 0.643569,-0.0039 0.478671,0.553548 0.482262,0.931244 0.01353,1.465991 -0.0025,2.932258 0.0077,4.398526 0.003,0.439631 -0.118494,0.938986 0.443869,1.185622 0.246103,0.107834 0.781121,-0.0271 0.595232,0.496313 -0.130371,0.367742 -0.556563,0.193825 -0.852107,0.200461 -0.823381,0.01825 -1.647315,0.0088 -2.470972,5.53e-4 -0.22732,-0.0022 -0.482814,-0.02793 -0.475081,-0.340369 0.0052,-0.216497 0.187823,-0.289493 0.382827,-0.292534 0.957619,-0.01438 0.91453,-0.70894 0.919502,-1.361198 0.0069,-0.870415 -0.03093,-1.742489 0.0083,-2.611245 0.04972,-1.099631 0.09723,-2.158894 -1.516943,-2.300461"
         id="Fill-52"
         sketch:type="MSShapeGroup" />
      <path
         d="m 107.56793,26.093641 0.007,-3.375208 c 0.38283,-0.669401 -0.24527,-1.714009 0.19639,-2.012074 0.83249,-0.561566 0.89133,1.051245 1.73018,0.984885 -0.70158,1.430599 -0.41791,2.963779 -0.46183,4.462673 -0.0224,0.762304 0.50795,0.702304 1.02308,0.712535 0.1428,0.0028 0.37952,0.143225 0.4041,0.257419 0.0663,0.304977 -0.19528,0.360829 -0.42813,0.362212 -1.09655,0.0066 -2.1931,0.0028 -3.29849,0.0028 -0.11518,-0.616037 0.38918,-0.659447 0.69632,-0.868203 0.26489,-0.120553 0.32814,-0.291428 0.13093,-0.527004"
         id="Fill-53"
         sketch:type="MSShapeGroup" />
      <path
         d="m 109.50195,21.691244 c -0.83885,0.06636 -0.89769,-1.546451 -1.73018,-0.984885 -0.44166,0.298065 0.18644,1.342673 -0.19639,2.012074 -0.20688,-0.728848 0.29306,-1.903134 -1.16809,-1.850875 -0.0859,0.003 -0.23947,-0.155116 -0.25356,-0.253825 -0.0298,-0.204885 0.12568,-0.363042 0.32096,-0.339816 0.81647,0.09733 1.74868,-0.40424 2.43285,0.339263 0.53585,0.582304 0.68997,-0.112811 0.96757,-0.24083 0.89823,-0.414746 1.7252,-0.534746 2.1757,0.527558 0.2809,0.662488 0.22124,1.457419 -0.60987,1.709585 -0.88415,0.268203 -1.067,-0.406728 -1.09959,-1.114562 0.10993,-0.139079 0.23478,-0.295853 0.0547,-0.442396 -0.0459,-0.03733 -0.21683,0.07963 -0.33035,0.125806 -0.18782,0.170876 -0.37565,0.341751 -0.56374,0.512903"
         id="Fill-54"
         sketch:type="MSShapeGroup" />
      <path
         d="m 132.07629,27.17447 c 0.2588,0 0.51761,0 0.7767,2.76e-4 -0.34803,1.187558 -0.77974,2.342489 -1.58462,3.302489 -0.48226,0.575115 -1.13688,0.769493 -1.85696,0.507926 -0.52645,-0.191613 -0.78581,-0.635944 -0.77614,-1.18258 0.0113,-0.63871 0.20577,-1.290692 0.97888,-1.198341 0.63584,0.07576 0.89686,0.562119 0.53474,1.219354 -0.0453,0.08212 0.0495,0.241659 0.10828,0.484701 1.21366,-0.763134 1.41723,-2.008479 1.81912,-3.133825"
         id="Fill-55"
         sketch:type="MSShapeGroup" />
      <path
         d="m 90.61749,17.95023 c -0.01685,0.666636 -0.264885,1.107374 -0.846306,1.146636 -0.591918,0.03982 -0.92696,-0.393732 -0.951819,-0.941751 -0.02486,-0.545806 0.269581,-1.013917 0.850449,-1.055392 0.596061,-0.04258 0.851002,0.407282 0.947676,0.850507"
         id="Fill-56"
         sketch:type="MSShapeGroup" />
      <path
         d="m 120.99807,17.1 c 0.54192,0.101751 0.85376,0.444055 0.84051,1.02 -0.0135,0.58894 -0.30964,0.911613 -0.94216,0.882028 -0.58225,-0.0271 -0.79134,-0.37659 -0.79824,-0.886176 -0.008,-0.576497 0.27621,-0.935115 0.89989,-1.015852"
         id="Fill-57"
         sketch:type="MSShapeGroup" />
      <path
         d="m 129.80474,55.800277 c -0.22014,0.494654 -0.37261,1.021659 -1.10926,0.988479 -0.57811,-0.02627 -0.8336,-0.268756 -0.84796,-0.821751 -0.0152,-0.595853 0.17511,-0.90553 0.86895,-0.909401 0.60352,-0.0033 0.8963,0.249124 1.08827,0.742673"
         id="Fill-58"
         sketch:type="MSShapeGroup" />
      <path
         d="m 92.791813,12.577327 c -0.04447,-0.220092 -0.195005,-0.332073 -0.396914,-0.392073 0.477843,-0.436037 0.909006,-0.9 0.997946,-1.583226 0.03149,-0.241383 0.149982,-0.49659 0.403266,-0.462857 0.355205,0.04728 0.359073,0.373548 0.290849,0.647281 -0.191137,0.765898 -0.44525,1.497511 -1.295147,1.790875"
         id="Fill-59"
         sketch:type="MSShapeGroup" />
      <path
         d="m 72.187123,17.52083 c 0.530046,-0.362766 1.056778,-0.482489 1.717472,-0.02599 -0.672018,0.514562 -1.195988,0.310507 -1.717472,0.02599"
         id="Fill-60"
         sketch:type="MSShapeGroup" />
      <path
         id="Fill-61"
         sketch:type="MSShapeGroup"
         d="m 71.258506,17.252627 c -0.180365,0.250783 -0.361558,0.253548 -0.543857,0.0022 0.181194,-8.3e-4 0.362664,-0.0014 0.543857,-0.0022" />
      <path
         id="Fill-62"
         sketch:type="MSShapeGroup"
         d="m 125.3771,46.096037 c -0.19473,0.186083 -0.36819,0.167281 -0.52038,-0.05475 0.17346,0.01825 0.34719,0.0365 0.52038,0.05475" />
      <path
         id="Fill-63"
         sketch:type="MSShapeGroup"
         d="m 68.575405,17.462488 c 0.159097,0.10424 0.318194,0.208203 0.477014,0.312443 -0.251351,0.03733 -0.549933,0.146544 -0.477014,-0.312443" />
      <path
         id="Fill-64"
         sketch:type="MSShapeGroup"
         d="m 107.56793,26.093641 c 0.19721,0.235576 0.13396,0.406451 -0.13093,0.527004 0.0436,-0.175576 0.0873,-0.351428 0.13093,-0.527004" />
      <path
         id="Fill-65"
         sketch:type="MSShapeGroup"
         d="m 124.65287,22.483687 c 0.0265,0.06138 0.0608,0.120829 0.0749,0.184977 0.004,0.01825 -0.0505,0.04949 -0.0782,0.07465 -0.0605,-0.08737 -0.0594,-0.173641 0.003,-0.259631" />
    </g>
  </g>
  <metadata
     id="metadata9050">
    <rdf:RDF>
      <cc:Work
         rdf:about="">
        <dc:title>Imported Layers</dc:title>
      </cc:Work>
    </rdf:RDF>
  </metadata>
</svg>
