<?xml version="1.0" encoding="utf-8"?>
<!-- Generator: Adobe Illustrator 17.1.0, SVG Export Plug-In . SVG Version: 6.00 Build 0)  -->
<!DOCTYPE svg PUBLIC "-//W3C//DTD SVG 1.1//EN" "http://www.w3.org/Graphics/SVG/1.1/DTD/svg11.dtd">
<svg version="1.1" id="Ebene_1" xmlns="http://www.w3.org/2000/svg" xmlns:xlink="http://www.w3.org/1999/xlink" x="0px" y="0px"
	 viewBox="0 0 320 87.8" enable-background="new 0 0 320 87.8" xml:space="preserve">
<rect x="246.9" y="2.8" fill="#000000" width="14" height="83.3"/>
<g>
	<defs>
		<rect id="SVGID_1_" y="0" width="320" height="87.8"/>
	</defs>
	<clipPath id="SVGID_2_">
		<use xlink:href="#SVGID_1_"  overflow="visible"/>
	</clipPath>
	<path clip-path="url(#SVGID_2_)" fill="#000000" d="M58,9.9c0,5.2,4.3,9.6,9.4,9.6c5.3,0,9.4-4.4,9.4-9.6c0-5.5-4.1-9.9-9.4-9.9
		C62.3,0,58,4.4,58,9.9"/>
</g>
<rect x="60.5" y="27.8" fill="#000000" width="14" height="58.3"/>
<g>
	<defs>
		<rect id="SVGID_3_" y="0" width="320" height="87.8"/>
	</defs>
	<clipPath id="SVGID_4_">
		<use xlink:href="#SVGID_3_"  overflow="visible"/>
	</clipPath>
	<path clip-path="url(#SVGID_4_)" fill="#000000" d="M185.1,60.9c0,12.9,1.5,16.9,5.1,21.1c3.4,3.8,8.4,5.6,14.3,5.6
		c8.3,0,14.6-4,17.4-8.9v7.5h14V27.8h-14V59c0,9.4-3.8,16.2-12.5,16.2c-4.9,0-7.6-2.1-8.9-5.1C199.1,67,199,63,199,58.8v-31h-14
		V60.9z"/>
	<path clip-path="url(#SVGID_4_)" fill="#000000" d="M132.2,32c-3.4-3.8-8.4-5.6-14.4-5.6c-9.2,0-15.4,4-18.2,8.9v-7.5h-14v58.3h14
		V54.9c0-9.4,4-16.2,12.6-16.2c10.5,0,11.3,7.3,11.3,17.9v29.5h14V54.9c0-9.4,3.9-16.2,12.6-16.2c10.5,0,11.3,7.3,11.3,17.9v29.5h14
		V53c0-12.9-1.5-16.9-5.1-21.1c-3.1-3.4-8-5.6-15.4-5.6c-10.5,0-16.4,4.8-20,9.1C133.9,34.2,133.1,33.1,132.2,32"/>
	<path clip-path="url(#SVGID_4_)" fill="#000000" d="M50.4,35.7c-3.8-4.2-12.7-9.3-24.4-9.3c-11.1,0-23.5,5.4-23.5,18.1
		c0,10.7,8,14.9,18.1,17.1l8.7,1.8c5.6,1.2,8.9,2,8.9,6c0,4.2-4,6.6-11,6.6c-8.9,0-14.6-4.3-17.9-8.7L0,75.7
		c3.6,5,13,11.9,26.9,11.9c13.3,0,25.5-6.4,25.5-19.7c0-10.7-8-14-16.8-16l-7-1.6c-8.2-1.7-12.2-2.6-12.2-6.7c0-3.8,4-5.8,9.6-5.8
		c6.7,0,12.4,2.7,16.4,6.6L50.4,35.7z"/>
	<path clip-path="url(#SVGID_4_)" fill="#000000" d="M306.7,65.5c0,8-5.3,11.8-12.9,11.8c-6.9,0-10-3.2-10-8c0-4.7,2.9-6.4,9.6-7.7
		l5.4-1.1c4.2-0.9,5.9-1.3,8-2.1V65.5z M320,72.8V43.9c0-12.9-9.8-17.1-23.1-17.1c-14,0-25.7,5.8-25.5,20.1l13.1,0.9
		c-0.1-6.9,3.9-10.2,11.8-10.2c7.2,0,10.4,2.4,10.4,7.3v1c0,2.2-0.6,2.4-3.7,3.1l-12.9,2.2c-7.6,1.3-13.7,3.7-17.3,8
		c-2.1,2.6-3.3,5.9-3.3,10.3c0,12.7,9.3,18.4,20.6,18.4c10,0,14-5,16.5-7.5V86H320L320,72.8C320,72.9,320,72.9,320,72.8"/>
</g>
</svg>
