<svg xmlns="http://www.w3.org/2000/svg" viewBox="0 0 793.3 384.4" enable-background="new 0 0 793.3 384.4"><style type="text/css">.st0{fill:#FBF6F6;} .st1{fill:#B22525;} .st2{fill:#BD4242;} .st3{fill:#EECECE;}</style><path class="st0" d="M387.5 379.6c-5.5 0-11 .1-16.5 0h16.5c5.6 0 11.3.1 16.9 0-5.6.1-11.3 0-16.9 0zM631 245h-29.4 11.6c5.9 0 11.8.1 17.8 0zM170.9 336.2h23.8c-7.9.1-15.8 0-23.8 0-5.8 0-11.6.1-17.4 0 5.9.1 11.7 0 17.4 0zM171.4 297.2c7.7 0 15.4.1 23.2 0-7.7.1-15.5 0-23.2 0-5.9 0-11.9.1-17.8 0 5.9.1 11.9 0 17.8 0zM614 219.1c5.8 0 11.6.1 17.4 0-5.9.1-11.6 0-17.4 0-8.1 0-16.3.1-24.4-.1 8.1.3 16.2.1 24.4.1zM171.5 375.4c5.8 0 11.6-.1 17.4 0-5.8-.1-11.6 0-17.4 0-6 0-11.9-.1-17.9 0 6-.1 11.9 0 17.9 0zM749.5 319.1h17.7-11.9c-2-.1-3.9-.1-5.8 0zM159.6 332.1h23.200000000000003-11.3-11.9zM613.7 310.1h17.4c-5.8.1-11.6 0-17.4 0-7.9 0-15.8.2-23.8-.1 8 .3 15.9.1 23.8.1zM171.5 284.1h16.9-16.9c-7.7 0-15.5.1-23.2-.1 7.7.2 15.5.1 23.2.1zM387.2 319h-16.5 16.5c5.8 0 11.6-.1 17.4 0h-17.4zM218.1 188.3c1.9.2 3.7.5 5.6.6-1.9-.1-3.7-.4-5.6-.6-1.8-1.7-2.7-3.3-2.2-4.9-.5 1.6.4 3.3 2.2 4.9zM170.8 245h17.8c-5.9.1-11.8 0-17.8 0-5.8 0-11.6.1-17.4 0 5.9.1 11.6 0 17.4 0zM171.5 127.9h16.9c-5.6.1-11.3 0-16.9 0-5.8 0-11.6.1-17.4 0 5.8.1 11.6 0 17.4 0zM93.6 284.1c10 0 20 .1 30.1-.1-10 .2-20.1.1-30.1.1h-32c10.7-.1 21.4-.1 32 0zM530 323.4h-60.5 30.1 30.4zM499.3 318.9h-23.1 23.1c15.4 0 30.8-.1 46.1 0h-46.1zM613.3 267.1c-5.8 0-11.6-.1-17.4 0 5.9-.1 11.7 0 17.4 0h17.4c-5.8-.1-11.6 0-17.4 0zM471.8 362.9h17.9-17.9c-6.1 0-12.2-.1-18.4 0 6.1-.1 12.3 0 18.4 0zM171.5 167h16.9-16.9c-5.8 0-11.6.1-17.4 0h17.4zM171.5 258.2c7.5 0 15 .1 22.5 0h-22.5c-5.9 0-11.9.1-17.8 0h17.8zM537.2 154.2c6.1 0 12.2.1 18.3 0h-18.3c-7.7 0-15.4.1-23.1-.1 7.7.2 15.4.1 23.1.1zM387.7 306.1h-16.4 16.4c5.5 0 11-.1 16.4 0-5.4-.1-10.9 0-16.4 0zM170.8 154c7.9 0 15.9.1 23.8 0-7.9.1-15.8 0-23.8 0-7.7 0-15.4.1-23.2-.1 7.8.3 15.5.1 23.2.1zM388 254.1h-22c7.3-.1 14.6 0 22 0 7.1 0 14.2-.1 21.3.1-7.1-.3-14.2-.1-21.3-.1zM387.6 267.1h-16c5.3-.1 10.7 0 16 0 5.5 0 11-.1 16.4 0-5.5-.1-10.9 0-16.4 0zM316.1 319c-7.3 0-14.6-.1-21.9 0h21.9c5.5 0 11-.1 16.5 0h-16.5zM316 332.1h-32.5 16 16.5zM537.3 206c6.1 0 12.2.1 18.4 0-6.1.1-12.2 0-18.4 0-5.8 0-11.6.1-17.4 0 5.8.1 11.6 0 17.4 0zM607.4 162.9h11.6-5.8-5.8zM531.6 253.9h11.8-6-5.8zM316.3 306.1c-7.3 0-14.6-.1-21.9 0 7.3-.1 14.6 0 21.9 0 5.5 0 11-.1 16.5 0-5.5-.1-11 0-16.5 0zM520 201.8h29.299999999999997-11.9-17.4zM315.7 228.1h-21.3c7.1-.1 14.2 0 21.3 0 5.6 0 11.3-.1 16.9 0-5.6-.1-11.2 0-16.9 0zM245 214.9h-22.6 22.6l16.5-.1-16.5.1zM299.6 267.1h16.9c5.5 0 11-.1 16.4 0h-16.4c-5.7 0-11.3-.1-16.9 0zM549.8 258.2c-4 0-8-.1-11.9-.1h-11.9 11.9c4 .1 8 .1 11.9.1zM537.7 279.9c-6 0-11.9-.1-17.9 0 6-.1 11.9 0 17.9 0 6 0 11.9-.1 17.9 0-6-.1-11.9 0-17.9 0zM244.7 293.1h-22 22c7.5 0 15.1-.1 22.6.1-7.6-.2-15.1-.1-22.6-.1zM244.4 319c-5.5 0-11-.1-16.4 0h16.4c5.6 0 11.3-.1 16.9 0h-16.9zM315.8 206c5.8 0 11.6-.1 17.4 0-5.8-.1-11.6 0-17.4 0-5.6 0-11.3-.1-16.9 0 5.7-.1 11.3 0 16.9 0zM244.6 370.9h-16.5 16.5c5.6 0 11.3.1 16.9 0-5.6.1-11.2 0-16.9 0zM613.4 115c7.8 0 15.5.1 23.3 0-7.8.1-15.5 0-23.3 0-7.8 0-15.5.1-23.3-.1 7.8.2 15.6.1 23.3.1zM217.9 195.7c-1.1 1.9-.6 3.8 1.7 5.7 17.4.2 34.9.4 52.3.4-17.4 0-34.9-.2-52.3-.4-2.3-2-2.8-3.8-1.7-5.7zM316.1 358.1c-7.1 0-14.2-.1-21.3 0 7-.1 14.2 0 21.3 0 7.3 0 14.6-.1 21.9 0-7.3-.1-14.6 0-21.9 0zM244.8 379.7c-7.5 0-15 .1-22.5-.1 7.5.2 15 .1 22.5.1 5.5 0 11 .1 16.4 0-5.4.1-10.9 0-16.4 0zM316 370.9h-21.9 21.9c7.5 0 15-.1 22.5.1-7.4-.2-15-.1-22.5-.1zM556 232.3h-29.799999999999997 11.9c5.9-.1 11.9 0 17.9 0zM316.4 379.7c-5.5 0-11 .1-16.4 0 5.4.1 10.9 0 16.4 0 5.5 0 11 .1 16.4 0-5.5.1-11 0-16.4 0zM316.3 345.1c-7.3 0-14.6-.1-21.9 0h21.9c5.5 0 11-.1 16.5 0h-16.5zM613.3 128c5.9 0 11.9.1 17.8 0h-17.8c-5.9 0-11.9.1-17.8 0 5.9 0 11.9-.1 17.8 0zM244 345.1h-16 16c5.8 0 11.6-.1 17.4 0h-17.4zM244.6 358.1h-16.5c5.5-.1 11 0 16.5 0 5.6 0 11.3-.1 16.9 0-5.6-.1-11.3 0-16.9 0zM759.1 202c-6.9 0-13.8-.1-20.7 0 6.9-.1 13.8 0 20.7 0 5.5 0 11-.1 16.4 0-5.4-.1-10.9 0-16.4 0zM695.4 349.2c7.5 0 15.1-.1 22.6 0-7.6-.1-15.1 0-22.6 0-7.5 0-15.1.1-22.6 0 7.5.1 15-.1 22.6 0zM459.3 271.1c6 0 11.9.1 17.9 0-6 .1-11.9 0-17.9 0-5.6 0-11.3.1-16.9 0 5.6.1 11.3 0 16.9 0zM363 123.9h29.099999999999998-16.9c-4.1 0-8.2.1-12.2 0zM324.2 122.1l-1.8-1.8 1.8 1.8zM732.7 344l.1-7.6-.1 7.6-3.8.8 3.8-.8c.8-.8 1.6-1.6 2.5-2.4 0 .4 0 .8.1 1.1-.1-.3-.1-.7-.1-1.1-.9.8-1.7 1.6-2.5 2.4zM735.3 336.5c-.8 0-1.6 0-2.4-.1-22.8-.1-45.6-.2-68.3-.1 22.8 0 45.6.1 68.3.1.7 0 1.6.1 2.4.1zM411.8 170.9c.7-3-.7-3.7-2.6-3.9 1.9.1 3.3.9 2.6 3.9zM459.3 232.1c6.1 0 12.2.1 18.3 0h-18.3c-5.8 0-11.6.1-17.4 0 5.8.1 11.6 0 17.4 0zM305.4 123.9h-15.6c5.2.1 10.4 0 15.6 0 4 0 7.9.2 11.9-.1-4 .3-7.9.1-11.9.1zM243.9 119.3c6.9 0 13.8-.1 20.6.1-6.8-.3-13.7-.1-20.6-.1-5.3 0-10.6-.1-15.9 0 5.3-.1 10.6 0 15.9 0zM701.8 136.9h41.099999999999994-20.4-20.7zM459.3 180c8.1 0 16.3.1 24.4-.1-8.1.2-16.2.1-24.4.1-7.7 0-15.4.1-23.2-.1 7.8.2 15.5.1 23.2.1zM686.8 123.6c-.7-.2-1.4-.4-2-.5.6.2 1.3.3 2 .5zM448.1 214.9h20.6-8.7-11.9zM765.4 379.7c-7.7 0-15.4.1-23.1-.1 7.7.2 15.4.1 23.1.1 7.7 0 15.4.1 23.1-.1-7.7.2-15.4.1-23.1.1zM387.7 241c-7.3 0-14.6-.1-21.9 0 7.3-.1 14.6 0 21.9 0 5.5 0 11-.1 16.4 0-5.5-.1-10.9 0-16.4 0zM460 150c-6 0-11.9-.1-17.9 0 6-.1 11.9 0 17.9 0 6 0 11.9-.1 17.9 0-6-.1-12 0-17.9 0zM377.3 228.1h15.899999999999999-5.3-10.6zM793.3 378.1l-.6-.4c.2.2.4.3.6.4zM758.2 214.9c-5.3 0-10.6.1-16 0 5.3.1 10.7 0 16 0 7.3 0 14.6-.1 21.9.1-7.3-.2-14.6-.1-21.9-.1zM315.9 254.1c-7.3 0-14.6-.1-22 0 7.4-.1 14.7 0 22 0 7.5 0 15.1-.1 22.6 0-7.5-.1-15 0-22.6 0zM459.8 258.2c7.9 0 15.9.1 23.8 0-7.9.1-15.9 0-23.8 0h-17.9 17.9zM401.6 175.7c1.6 0 3.2-.5 4.9-.7l2.6-.6c-.9.2-1.7.4-2.6.5-1.6.4-3.3.8-4.9.8zM737.8 377.4l.6.3-.6-.3zM760.7 349.2c5 0 10-.2 15-.1-5-.2-10 .1-15 .1h-19.4c6.4-.1 12.9-.1 19.4 0zM538 379.6c-5.8 0-11.6.1-17.4 0h35.2-17.8zM63.4 163c-17.6 0-35.1.1-52.7-.1l52.7.1h39.5-39.5zM714 224.6c-1.5.3-3 .6-4.5 1-1.9.2-3.8.4-5.6.5 1.9-.2 3.8-.4 5.6-.5 1.5-.4 3-.7 4.5-1zM55.7 228.1h45.8-45.8c-15.3 0-30.5-.2-45.8.1 15.2-.3 30.5-.1 45.8-.1zM537.2 293.1c-7.9 0-15.9.2-23.8-.2 7.9.4 15.8.2 23.8.2 6 0 11.9-.1 17.9 0-6-.1-12 0-17.9 0zM79.4 271.1c10.5 0 21 .1 31.5 0-10.5.1-21 0-31.5 0h-43.9 43.9zM62.9 241h-48.3 48.3c16.3 0 32.6 0 48.9-.1-16.2.1-32.6.1-48.9.1zM96.2 167c7.3 0 14.7.1 22-.1-7.4.2-14.7.1-22 .1h-17.9c5.9-.1 11.9 0 17.9 0zM20.9 202h19.2-11-8.2zM26.3 319c-7.1 0-14.2-.2-21.3.1 7.1-.2 14.2-.1 21.3-.1 6.3 0 12.6.2 18.8-.1-6.2.3-12.5.1-18.8.1zM760 280h-31 15.5 15.5zM682.5 306.1l-10.7.1c3.5 0 7.1-.1 10.7-.1h20.1-20.1zM538.5 370.9c-7.7 0-15.5-.1-23.2 0h23.2c7.7 0 15.5-.1 23.2.1-7.7-.2-15.4-.1-23.2-.1zM537.3 141.7c8.2 0 16.3-.1 24.5.1-8.2-.3-16.3-.1-24.5-.1s-16.3.1-24.5-.1c8.2.2 16.4.1 24.5.1zM26.9 376.1c.3-.1.7-.2 1-.2-.4 0-.7.1-1 .2zM679.4 241h99.8-49-50.8zM113.6 135l-1.6-1.8c.5.6 1 1.2 1.6 1.8zM340.7 156.8l-2.5-.3c-.4-.3-.8-.7-1.1-1 .4.4.8.7 1.1 1 .8.1 1.6.2 2.5.3zM722.8 222l-2.7 1.3c-2 .4-4.1.8-6.1 1.3 2-.4 4.1-.8 6.1-1.3l2.7-1.3zM63.4 123.9h-34.5c11.5.1 23 0 34.5 0h35.8c-12 .1-23.9 0-35.8 0zM459.9 154c6 0 11.9.1 17.9 0-6 .1-12 0-17.9 0-7.9 0-15.9.1-23.8-.1 7.9.3 15.8.1 23.8.1z"/><path class="st1" d="M169 0c-27.8-.7-50 24.3-49.7 48.1.4 27.9 21.3 49.6 48.6 49.6 25.7 1.5 49.1-23 49.3-47.8.3-25.9-21.8-49.2-48.2-49.9z"/><path class="st2" d="M223.7 188.9c.6 0 1.2.1 1.9.1 60.4 0 120.7 0 181.1.1 5.7 0 8.3-1.5 7.2-7.4l-1.6-1.5-190.2-.1c-1.2 0-2.5.2-3.7.4-.1 2.6-.2 5.2-.2 7.9 1.8.1 3.6.4 5.5.5z"/><path class="st1" d="M410 201.9c3.3 0 4.2-1.1 4.4-4.3.3-5.2-3.1-4.4-6.2-4.4h-182c-2.3 0-4.5.3-6.8.5 0 2.5.1 5 .1 7.6 17.4.2 34.9.4 52.3.4 1.1 0 2.3-1.3 3.4-2.1l2.3-1.9h5.3l3.6 3c.5.3 1 .9 1.5.9 18.3.1 36.6.1 54.9 0 1.3 0 2.7-1.4 4-2.1l2.3-1.9c2.5.7 5 1.4 7.5 2.3 1.7.6 3.4 1.8 5 1.8 16.2.2 32.3.1 48.4.2zM275.3 199.7l2.3-1.9c-.8.6-1.6 1.2-2.3 1.9z"/><path class="st2" d="M409.2 167h-171.3c-5.2 0-10.5.1-15.7 0-3.6-.1-4.6 1.6-4.6 5 0 3.6 2.1 4.1 4.9 4 1.2-.1 2.5-.2 3.7-.4 1.6-.8 3.2-2.4 4.8-2.4 56.7-.1 113.3-.1 170 0 1.8 0 3.7 1.3 5.5 2 .9-.2 1.7-.4 2.6-.5l2.3-2c.2-.6.4-1.1.5-1.6.6-3.2-.8-4-2.7-4.1zM409.1 174.5l2.3-2c.2-.6.4-1.1.5-1.6-.1.5-.3 1-.5 1.6-.8.6-1.6 1.3-2.3 2z"/><path class="st1" d="M453.2 318.9h46.2c15.4 0 30.8-.1 46.1 0 5.1 0 10.3 0 15.4.1 4.2 0 5.5-1.3 5.2-5.4-.3-4.6-3.5-3.3-5.9-3.3-37.3-.1-74.5 0-111.8 0-4.2 0-8.4-.3-12.5.2-1.3.2-3.2 2.1-3.6 3.5-1.1 4.5 1.8 5 5.5 5 5.1-.1 10.2-.1 15.4-.1z"/><path class="st2" d="M120.2 323.2c-14.2-.2-28.5-.3-42.7.1-3.1.1-6.6 1.7-9.3 3.6-4.8 3.4-8.5 3.5-12.9-.4-1.7-1.5-4.1-3.1-6.2-3.2-14.4-.3-28.9 0-43.3-.2-4.7-.1-5.7 2.4-4 5.8.8 1.6 3.6 3.1 5.5 3.1 4.7.1 9.3.1 14 .1 14 .1 27.9 0 41.9 0 14.1 0 28.3-.1 42.4 0l14.1.1c4.7.1 6.5-1.5 6.4-6.1-.1-4.8-3.7-2.9-5.9-2.9zM63.3 332.1c-14 0-27.9.1-41.9 0 14 .1 27.9 0 41.9 0 14.1 0 28.3-.1 42.4 0h-42.4zM560.4 297.2c-16.5.1-33.2-1.3-49.5.6-8.6 1-16.1 1.1-24.7 0-16.3-2-33-.5-49.5-.6-3.4 0-5.5.3-5.4 4.6 0 4.5 2.5 4.4 5.7 4.4 20.5-.1 41 0 61.5 0h62c3 0 5.7.4 5.8-4.2.2-4.9-2.4-4.9-5.9-4.8zM437 306.1c20.5-.1 41 0 61.5 0h31-31-61.5z"/><path class="st1" d="M310.4 162.8c32.6 0 65.3-.2 97.9-.3l-1.2-8-15.6-.1c-15.6-.1-31.2-.2-46.8-.1-1.4 0-2.7 1.6-4.1 2.5l-.7 3.1-1.8-3.4c-.4-.3-.8-.7-1.1-1-.6-.6-1.3-1.2-1.9-1.2-20.4 0-40.7.2-61.1.3l-1.2 7.9c12.5.1 25.1.3 37.6.3zM407.1 154.5l-15.6-.1c5.2.1 10.4.1 15.6.1zM467.4 345.3c9 0 18-.1 27 0 8.4.1 16.6-1 25.1-.3 11.6 1 23.4.3 35.1.2 2 0 4.1-.5 6.1-.6 3.7-.2 6.1-1.9 4.6-5.6-.6-1.4-3.6-2.6-5.5-2.6-16.4.2-32.8 1-49.2 1-12.7 0-25.3-1.1-38-1.7v.6c-10.9 0-21.7.2-32.6-.1-4.9-.1-6.3 1.8-4.2 5.8.8 1.6 3.4 3 5.3 3.1 8.7.4 17.5.2 26.3.2z"/><path class="st2" d="M64 150h37.6c4.2 0 8.4 0 12.5-.1 1.7 0 3.3-1.3 5-2-1.3-2.2-2.4-4.6-4-6.6-.5-.7-2.4-.3-3.6-.3h-95.4c-.8 0-2.1-.3-2.4.1-1.8 2-3.3 4.1-5 6.3 1.7.9 3.4 2.6 5.1 2.6 16.7.1 33.4 0 50.2 0zM64 150c-16.7 0-33.5.1-50.2-.1 16.7.2 33.4.1 50.2.1h37.6-37.6z"/><path class="st1" d="M8.4 336.3c-5.2 0-5.3 2.6-3.5 5.7.9 1.6 3.8 2.9 5.8 2.9 13.1.1 26.3.1 39.5.1h65.3c1.5 0 3.6.5 4.3-.2 1.7-1.8 2.7-4.2 4-6.3-1.4-.7-2.9-2-4.3-2-37.1-.2-74.1-.1-111.1-.2zM50.2 345h65.3-52.1-13.2z"/><path class="st2" d="M669.9 175.8c28.4.2 56.8-.6 85.2 0 7.7.2 15.5.1 23.2 0 1.5 0 4.2-.5 4.4-1.2.5-1.9.6-4.6-.5-5.9-1-1.3-3.6-1.6-5.5-1.6-8.9-.1-17.8-.1-26.6-.1h-79.9c-3.6 0-6.6-.1-6.7 5-.2 5.6 3.8 3.8 6.4 3.8zM723.5 167h79.9-26.6-53.3zM779.8 245c-17.4.1-34.7 0-52.1 0h-35.1c-6.5 0-13 .1-19.5 0-4.8-.1-5.4 3.7-6.9 6.9 2.1.7 4.2 1.9 6.3 2 7.9.2 15.9.1 23.8.1s15.9-.2 23.8.1c7.3.3 14.5-1.1 22-.4 12.4 1.1 25.1.3 37.6.3 3.2 0 5.6 0 5.6-4.5.1-4.4-2.2-4.5-5.5-4.5zM779.8 245c-17.4.1-34.7 0-52.1 0h-35.1 35.1c17.4 0 34.7.1 52.1 0zM10.8 162.8c17.6.2 35.1.1 52.7.1h39.5c4.4 0 8.8 0 13.2-.1 2.2 0 5.9 1.7 5.9-3.1 0-4.1-1.6-5.8-6.1-5.8-34.9.1-69.8.2-104.7 0-5 0-5.6 2.9-5.8 6.1 0 .9 3.4 2.8 5.3 2.8z"/><path class="st1" d="M671 162.8c8.7 0 17.4 0 26 .1h52c8.7 0 17.4 0 26-.1 1.8 0 5-1.7 5.1-2.9.3-3.3-1.2-5.7-5.5-5.7-34.5.1-69 .1-103.5 0-4 0-4.9 2.1-5.3 5.4-.3 4.4 3 3.2 5.2 3.2zM697.1 162.8h52-26-26zM560.4 331.9c3 0 5.7.4 5.7-4.3s-2.6-4.3-5.7-4.3h-90.9c-10 0-20.1 0-30.1.1-2.4 0-6.2-1.7-6.1 3.6.1 4.5 2.4 4.9 6 4.9h121.1z"/><path class="st2" d="M20.1 253.9h97.9c5.5 0 6.5-1.4 3.5-6.1-1-1.6-4-2.6-6.1-2.6-33.3-.2-66.5-.1-99.8 0-1.8 0-3.5 1.2-5.2 1.8 1.6 2.3 2.8 4.9 4.8 6.8.9.7 3.2.1 4.9.1zM68.5 253.9h-48.3 48.3 49.6c-16.6.1-33.1 0-49.6 0zM101.9 349.2c-12.7-.1-25.4 0-38.1 0h-38.1c-4.2 0-8.5 0-12.7.1-1.8 0-3.6 1.4-5.3 2.2 1.8 2.2 3.5 4.6 5.6 6.5.7.6 2.4.1 3.7.1h94c1.3 0 3 .5 3.7-.1 1.9-1.8 3.4-4.1 5.1-6.1-1.7-.9-3.4-2.5-5.1-2.5-4.3-.2-8.5-.2-12.8-.2zM63.9 349.1h76.2-38.1-38.1zM14.6 241h48.3c16.3 0 32.6 0 48.9-.1 1.9 0 3.8-.8 5.7-1.3-.9-1.8-1.4-4.1-2.9-5.4-1.4-1.2-3.6-2.1-5.5-2.1-32.8-.1-65.7-.1-98.5 0-1.5 0-3 1.7-4.5 2.5 1.3 2.1 2.4 4.4 4.1 6.1.9.8 2.9.3 4.4.3z"/><path class="st1" d="M663 331.9h116c3.2 0 6.2.6 6.1-4.5-.1-4.8-3.1-4-5.9-4h-116c-2.6 0-6-1.3-6.1 3.8-.1 4.8 2.5 4.7 5.9 4.7zM721.5 323.4h57.7-57.7-58.3c19.4-.1 38.9 0 58.3 0z"/><path class="st2" d="M779.2 232.1c-30.3 0-60.7-.1-91 .2-3.5 0-7.2 2.4-10.5 4.1-1.1.6-1.6 2.5-2.3 3.9 1.4.2 2.8.7 4.1.7h99.8c3.1 0 6.2.7 6.2-4.5-.1-5-3.2-4.4-6.3-4.4zM121.5 258.3c-.9-.7-2.8-.1-4.3-.1h-92.2c-2.4 0-4.7.7-7.1 1 1.6 2.1 2.8 4.6 4.8 6.1 1.6 1.2 4.2 1.6 6.4 1.6l11.3.1h33.9c11.8 0 23.5.1 35.3 0 3.9 0 7.8-.1 11.8-.1 1.6 0 3.1-2 4.6-3.1-1.5-1.9-2.7-4-4.5-5.5zM74.3 267.1h-33.9 33.9c11.8 0 23.5.1 35.3 0h-35.3z"/><path class="st1" d="M674.6 149.7c16.1.2 32.2.1 48.3.1v-.1c15.9 0 31.8.1 47.7-.1 2 0 3.9-1.5 5.9-2.3-1.4-2.6-1.7-5.8-6.1-5.7-31.8.2-63.5.2-95.3 0-4.5 0-5.4 2.6-5.4 5.7-.1.9 3.1 2.4 4.9 2.4z"/><path class="st2" d="M55.7 228.1h45.8c1.8 0 3.5-.6 5.3-1-1.4-1.4-2.5-3.3-4.2-4-3.7-1.6-7.7-3.7-11.7-3.7-27.2-.3-54.4-.2-81.6-.1-2.3 0-5.8-1.5-5.7 3.3.1 4.3 1.8 5.7 6.1 5.6 15.4-.3 30.7-.1 46-.1zM42.3 136.9h43.2c7.2 0 14.4 0 21.6-.1 1.3 0 2.7-.5 4-.9l1.6-.6.8-.3-1.6-1.8c-1.6-1.8-3.2-3.6-5-5.1-.7-.6-2.4-.2-3.7-.2h-78.4c-1.7 0-3.9-.5-4.9.4-2.2 2-3.8 4.7-5.6 7.1 2.1.5 4.2 1.4 6.2 1.4 7.3.1 14.5.1 21.8.1zM42.3 136.9h43.2-21.6-21.6zM113.6 135l-.8.3c.2-.1.5-.2.8-.3zM701.8 136.9h41.099999999999994c6.8 0 13.6 0 20.4-.1 2.2 0 4.5-1 6.7-1.5-2.2-2.4-4.1-5.1-6.6-7.1-1-.8-3.2-.3-4.9-.3h-73.4c-1.3 0-3-.5-3.7.1-2.4 2-4.4 4.5-6.5 6.8 2.1.7 4.2 1.9 6.3 1.9 6.8.2 13.7.2 20.6.2zM79.4 271.1h-43.9c-1.1 0-2.3.6-3.4.8.4.6.6 1.6 1.2 1.8 5.5 2.2 11.1 5.8 16.7 6 23.8.7 47.6.3 71.4.2 2.5 0 6.4 1.6 6.3-3.4 0-4.2-2.1-5.6-6.3-5.5-3.5.1-7 .1-10.5.1-10.5.1-21 0-31.5 0z"/><path class="st1" d="M85.8 362.4h-42.900000000000006s-14.2 0-21.3.1c-2.1 0-4.2 1.2-6.4 1.8 2.1 2.2 4 4.5 6.3 6.4.8.6 2.4.2 3.7.2h78.4c1.5 0 3.4.4 4.3-.3 2.1-1.8 3.7-4.2 5.5-6.4-2-.6-3.9-1.7-5.9-1.7-7.3-.1-14.5-.1-21.7-.1zM85.8 362.4h-42.900000000000006 21.3 21.6z"/><path class="st2" d="M7.7 215.6c1.3.1 2.6.1 3.8.1 8.9.2 17.9.1 26.9 0 10.4 0 20.9.1 31.3-.1 2.1 0 4.1-1.2 6.2-1.8-1.6-.3-3.3-.4-4.8-1-2-.8-3.9-2.2-5.9-3.2-2.5-1.3-5.1-3.5-7.7-3.5-17.3-.3-34.7-.1-52-.2-4.5 0-5.1 3-3.8 5.7.9 2 3.9 3.9 6 4zM38.4 215.8c-9 0-17.9.2-26.9 0 9 .2 17.9 0 26.9 0 10.4 0 20.9.1 31.3-.1-10.4.2-20.9.1-31.3.1zM123.7 284c-10 .2-20 .1-30.1.1h-32c-1 0-2 .4-2.9.7 0 0 0 1.2.3 1.4 4.1 2.4 8.1 6.5 12.3 6.6 17.5.8 35.1.3 52.6.4 3.2 0 4.4-1.1 4.4-4.4 0-3.5-1-4.9-4.6-4.8zM732.8 336.4c-22.8-.1-45.6-.2-68.3-.1-2.5 0-6.4-1.5-6.3 3.6 0 4.4 2.3 5.4 6.4 5.4 20.7-.2 41.4-.1 62.1-.1.8 0 1.5-.1 2.3-.2l3.8-.8c-.1-2.7 0-5.3 0-7.8zM348.8 149.9c2.2.1 4.4.1 6.6.1 6.6.1 13.1 0 19.7 0 9 0 17.9-.2 26.9.1 5.4.2 6.6-1.9 3.8-6-1.1-1.6-3.7-3-5.7-3-10.2-.3-20.4-.1-30.7-.1-6.7 0-13.4.3-20-.1-5.1-.3-5.9 3.3-6.3 6.7 0 .6 3.7 2.2 5.7 2.3zM375.1 150c-6.6 0-13.1.1-19.7 0 6.6.1 13.1 0 19.7 0 9 0 17.9-.2 26.9.1-8.9-.4-17.9-.1-26.9-.1zM63.4 123.9h35.8c1.1 0 2.2-.6 3.4-1-.7-1-1.1-2.4-2-2.8-4.8-1.9-9.6-4.7-14.5-4.9-14.6-.6-29.3-.6-43.9 0-4.9.2-9.7 2.9-14.4 4.8-1 .4-1.5 2.1-2.3 3.1 1.2.3 2.3.8 3.5.8 11.4.1 22.9 0 34.4 0z"/><path class="st1" d="M704 227.4c1.2.2 2.5.5 3.7.5h72.2c2.9 0 5.3.2 5.3-4 .1-4.2-1.9-4.7-5.4-4.7-16.3.1-32.7-.1-49 .2-2.7 0-5.4 1.7-8.1 2.6l-2.7 1.3c-2 .4-4.1.8-6.1 1.3l-4.5 1c-1.9.2-3.8.4-5.6.5l.2 1.3zM704 227.4c1.2.2 2.5.5 3.7.5-1.3 0-2.5-.3-3.7-.5z"/><path class="st2" d="M718 349.2c-7.5-.1-15.1 0-22.6 0-7.5 0-15.1.1-22.6 0l-7.5-.1c-5.4-.1-5.8 2.6-3.8 6.1.9 1.6 3.9 2.7 5.9 2.8 16.9.2 33.9.1 50.8.1 2.3 0 5.1.8 6.8-.2 2.2-1.4 3.6-4.2 5.3-6.4-1.6-.8-3.2-2.1-4.8-2.2-2.5-.1-5-.1-7.5-.1zM64.8 375.2h-33.9c-.7 0-1.4.1-2 .3l-1 .3c-.3.1-.7.2-1 .2.2.2.4.4.6.7s.4.5.5.7c.2.3.5.7.7.9.4.4.8.8 1.3.9 5.2 1.8 10.5 4.3 15.8 4.6 12.7.7 25.5.7 38.3 0 5.3-.3 10.6-3 15.7-4.9 1-.4 1.6-2 2.5-3-1.2-.3-2.3-.8-3.5-.8-11.4.1-22.7.1-34 .1zM26.9 376.1c.2.2.4.4.6.7-.3-.3-.4-.5-.6-.7zM64.8 375.2h67.8-33.9-33.9zM471.3 349.1c-7.4 0-14.7-.1-22.1 0-2.5 0-4.9 0-7.4.1-.7 0-1.5.4-2.2.8l-1.1.7s-.7.5-1.1.6c.3.5.6 1.1.9 1.7.9 1.7 1.7 3.5 3 4.7.9.9 3.2.3 4.9.3h48.8c1.9 0 4.2.7 5.5-.2 2.1-1.4 3.4-3.9 5-5.9-1.6-1-3.3-2.7-4.9-2.7-9.7-.2-19.5-.1-29.3-.1zM437.5 351.4l1.1-.6-1.1.6zM471.3 349.1c9.8 0 19.6-.1 29.4.1-9.8-.2-19.6-.1-29.4-.1-7.4 0-14.7-.1-22.1 0h22.1zM688.8 123.9c10.6.1 21.3 0 31.9 0 11.3 0 22.5 0 33.8-.1 1.1 0 2.1-.8 3.2-1.2-.6-.8-1.1-2-1.9-2.3-5.2-1.9-10.3-4.8-15.6-5.1-12.9-.7-25.9-.6-38.8 0-4.7.2-9.3 2.7-13.8 4.5-.9.4-1.6 1.5-2.2 2.5-.2.3-.4.7-.7 1 .7.1 1.4.3 2 .5.8.1 1.4.2 2.1.2zM720.8 123.9h-31.9c10.6.1 21.2 0 31.9 0 11.3 0 22.5 0 33.8-.1-11.3.2-22.6.1-33.8.1zM684.7 123.1c.2-.3.5-.6.7-1-.2.4-.4.7-.7 1zM513.4 293c7.9.3 15.9.2 23.8.2 6 0 11.9-.1 17.9 0 2 0 4 0 6 .1 3.5.1 5.5-.5 5.4-4.7-.1-3.8-1.7-4.5-5-4.5-15.9.1-31.8.2-47.7 0-4.5-.1-5.7 2.6-5.3 5.8 0 1.1 3.1 3 4.9 3.1zM436.3 293.2c15.9-.1 31.8.1 47.7-.2 1.7 0 4.7-1.9 4.9-3.2.5-3.1-.3-6-5.1-5.8l-3 .1c-2 .1-4 .1-6 .1l-14.9-.1c-6 0-11.9.1-17.9 0-2 0-4 0-6-.1-3.5-.1-4.8 1.1-4.8 4.7.1 3.8 1.8 4.5 5.1 4.5zM460 284.1l14.9.1c-5 0-10-.1-14.9-.1-6 0-11.9.1-17.9 0h17.9zM483.8 140.9c-15.9.1-31.7.1-47.6 0-3.4 0-4.9.8-4.9 4.5 0 3.6 1.4 4.7 4.8 4.6 2 0 4-.1 5.9-.1h17.9c6 0 11.9-.1 17.9 0 2 0 4 .1 5.9.1 3.8.1 4.5-1.6 4.5-4.9.1-3.2-1.2-4.2-4.4-4.2zM561.7 179.9c-4 .1-7.9.1-11.9.1h-23.9c-4 0-7.9 0-11.9-.1-3.5-.1-4.8 1.1-4.7 4.7.1 3.1.9 4.5 4.3 4.5 16.1-.1 32.2-.1 48.2 0 3.3 0 4.3-1.2 4.4-4.4.2-3.4-.8-4.9-4.5-4.8zM543.9 180h-17.9 11.9 6zM436.2 189.1c15.9-.1 31.7-.1 47.6 0 3.1 0 4.5-.9 4.5-4.2 0-3.3-.7-5-4.5-4.9-8.1.2-16.3.1-24.4.1-7.7 0-15.4.1-23.2-.1-3.4-.1-4.9.9-4.8 4.6 0 3.5 1.4 4.5 4.8 4.5zM194.4 323.1c-15.7.1-31.3.1-47 0-3.3 0-4.3 1.1-4.4 4.4 0 3.5 1 4.9 4.6 4.8 4-.1 7.9-.1 11.9-.1h23.200000000000003c3.8 0 7.5 0 11.3.1 3.3 0 5.6-.4 5.5-4.7 0-4-2-4.5-5.1-4.5zM147.3 150c7.9-.2 15.9-.1 23.8-.1h23.8c3 0 4.6-.9 4.6-4.3 0-3.5-1.2-4.8-4.7-4.8-15.9.1-31.8.1-47.6 0-3.5 0-4.1 1.6-4.1 4.6-.1 3.3.8 4.7 4.2 4.6zM171.1 150c-7.9 0-15.9-.1-23.8.1 7.9-.2 15.9-.1 23.8-.1h23.8c-7.9-.1-15.9 0-23.8 0zM637 180c-15.7.1-31.3.1-47 0-3.6 0-4.6 1.3-4.6 4.8-.1 3.9 1.9 4.4 5 4.3l5.8-.1h17.4c7.7 0 15.5-.1 23.2 0 3.1 0 5.1-.5 5.1-4.4 0-3.7-1.6-4.7-4.9-4.6zM613.6 189h-17.4 17.4c7.7 0 15.5-.1 23.2 0h-23.2zM636.6 284c-15.5 0-30.9.1-46.4 0-3.3 0-4.9.8-4.9 4.5 0 3.6 1.3 4.7 4.8 4.6 7.7-.2 15.5-.1 23.2-.1 7.7 0 15.5-.1 23.2 0 3.4 0 5.5-.7 5.4-4.8-.1-3.9-2.3-4.2-5.3-4.2zM613.4 293.1c-7.7 0-15.5-.1-23.2.1 7.7-.2 15.4-.1 23.2-.1 7.7 0 15.5-.1 23.2 0-7.8-.1-15.5 0-23.2 0zM153.3 189h41.099999999999994c3.1 0 5.2-.4 5.2-4.3 0-3.6-1.4-4.8-4.8-4.8-15.9.1-31.8.1-47.6 0-3.5 0-4 1.7-4.1 4.7-.1 3.2 1 4.5 4.3 4.4h5.9zM171.2 189c-6 0-11.9-.1-17.9 0h41.099999999999994-23.2zM148 293.1c15.5-.1 30.9-.1 46.4 0 3.1 0 5.1-.4 5.2-4.4.1-4.3-2.2-4.7-5.5-4.7h-22.5c-7.7 0-15.5.1-23.2-.1-3.5-.1-5.4.5-5.3 4.7 0 4 1.7 4.6 4.9 4.5zM661.9 264.6c0 .7 3.7 2.3 5.7 2.4 7.7.3 15.5.1 23.2.1 7.7 0 15.5-.4 23.2.1 5.3.4 8.7-2.3 12.1-5.4.7-.6.9-1.7 1.4-2.6-.9-.4-1.8-1-2.7-1-6.5-.1-13-.1-19.5-.1-12.4 0-24.7.2-37.1-.1-5-.1-6.1 3-6.3 6.6zM365.8 332.2c7.3-.1 14.6 0 22 0 7.5 0 15.1-.1 22.6.1 3.5.1 4.1-1.6 4.1-4.6 0-3.1-.9-4.5-4.3-4.5-14.9.1-29.7.1-44.6 0-3.3 0-5 .9-5 4.6.1 3.8 2.1 4.4 5.2 4.4zM387.8 332.1c-7.3 0-14.6-.1-22 0h22c7.5 0 15.1-.1 22.6.1-7.5-.2-15.1-.1-22.6-.1zM294.7 332.2h37.8c1.8 0 3.7 0 5.5.1 3.2.1 5.1-.5 5-4.4-.1-3.5-1.1-4.8-4.7-4.8-14.6.1-29.3.1-43.9 0-3.1 0-5.1.5-5.2 4.4-.1 4.2 2.1 4.7 5.5 4.7zM266.4 323.1c-1.8 0-3.7 0-5.5.1h-16.5c-7.1 0-14.2.1-21.4 0-3.4-.1-5.6.5-5.5 4.7.1 3.9 2.1 4.4 5.2 4.4 14.7 0 29.3-.1 44 0 3.6 0 4.7-1.2 4.7-4.7.1-4.1-1.8-4.6-5-4.5zM244.4 323.1h16.5-16.5c-7.1 0-14.2.1-21.4 0 7.2.1 14.3 0 21.4 0zM222.7 293.1c7.3-.1 14.6 0 22 0 7.5 0 15.1-.1 22.6.1 3.5.1 4.1-1.6 4.1-4.6 0-3.2-.9-4.5-4.3-4.5-14.9.1-29.7.1-44.6 0-3.3 0-5 .9-5 4.6 0 3.8 2.1 4.4 5.2 4.4zM294.4 293.1c14.6 0 29.3-.1 43.9 0 3.5 0 4.7-1.2 4.7-4.7 0-3.9-1.8-4.5-5-4.4-7.1.1-14.2 0-21.3 0h-22c-3.3 0-5.6.4-5.6 4.7.1 4 2.2 4.4 5.3 4.4zM316.7 284.1c7.1 0 14.2.1 21.3 0-7.1.1-14.2 0-21.3 0h-16.5 16.5zM409.7 284l-5.5.1h-38.5c-3.3 0-5 .9-5 4.6 0 3.9 2 4.5 5.1 4.5 14.6 0 29.3-.1 43.9 0 3.4 0 4.8-1 4.8-4.6.1-3.8-1.5-4.7-4.8-4.6zM387.7 284.1c5.5 0 11 .1 16.5 0h-33 16.5zM409.5 245c-14.4.1-28.9.1-43.3 0-3.4 0-5.6.5-5.5 4.8.1 4 2.3 4.3 5.3 4.3h22c7.1 0 14.2-.1 21.3.1 3.5.1 5.4-.6 5.3-4.8-.1-3.9-1.9-4.4-5.1-4.4zM294 254.1c7.3-.1 14.6 0 22 0 7.5 0 15.1-.1 22.6 0 3.2.1 4.5-.9 4.5-4.3s-.9-4.9-4.6-4.9c-14.9.2-29.7.1-44.6 0-3 0-4.6.9-4.7 4.3-.1 3.7 1.3 4.9 4.8 4.9zM6.6 189c14.7 0 29.3-.1 44 0 3.8 0 4.4-1.8 4.6-5 .3-3.8-1.7-4.1-4.5-4.1h-21.4c-7.5 0-15.1.1-22.6 0-4-.1-4 2.4-4.3 5.4-.3 3.5 1.5 3.7 4.2 3.7zM778.4 179.9c-6.9.1-13.8 0-20.6 0h-22.5c-3.3 0-4.2.8-3.1 4.5 1.1 3.9 3.1 4.7 6.6 4.6 13.3-.2 26.7 0 40-.1 2.7 0 6.2 1.1 6.2-3.8 0-4.7-2.9-5.2-6.6-5.2zM757.7 180c6.9 0 13.8.1 20.6 0-6.8.1-13.7 0-20.6 0h-22.5 22.5z"/><path class="st1" d="M277.7 150.3c18.1-.2 36.2-.8 54.4-1 4.2-.1 4.1-2.6 2.6-4.7-1.2-1.7-3.9-3-5.9-3.1l-5.8-.2c-5.8-.1-11.6 0-17.4 0-5.2 0-10.5-.2-15.7-.1-3.1 0-6.3.1-9.4.4-2.2.2-4.2 3.7-6.3 5.6 1.1 1 2.3 3.1 3.5 3.1zM305.5 141.2c5.8 0 11.6-.1 17.4 0-5.8-.1-11.6 0-17.4 0-5.2 0-10.5-.2-15.7-.1 5.2-.1 10.5.1 15.7.1z"/><path class="st2" d="M222.3 150h21.4c5.3 0 10.7-.1 16 0 1.8 0 3.6 0 5.3.1 3.5.1 4.1-1.6 4.1-4.6 0-3.1-.7-4.6-4.2-4.6-14.2.1-28.5.1-42.7 0-3.5 0-4.8 1.4-4.7 4.9.1 3.5 1.9 4.2 4.8 4.2zM233 150h10.7c5.3 0 10.7-.1 16 0h-26.7zM781.6 284c-14.4.1-28.8.1-43.2 0-3.7 0-4.4 2.2-4.6 5.3-.2 3.9 2.4 3.8 4.9 3.8h20c5.6 0 11.3.1 16.9 0 1.9 0 3.8-.1 5.6-.2 1.4-.1 3.3-2.3 3.8-3.9.8-2.5.4-5-3.4-5zM758.8 293.1h-20 20c5.6 0 11.3.1 16.9 0-5.6.1-11.3 0-16.9 0zM561.7 245c-15.9.1-31.8.1-47.7 0-3.2 0-4.4 1-4.5 4.3-.1 3.5 1.1 4.8 4.7 4.7 5.8-.2 11.6-.1 17.4-.1h11.8c6 0 11.9 0 17.9.1 3.1 0 5.2-.3 5.1-4.3-.1-3.5-1.1-4.8-4.7-4.7zM509.4 223.7c.1 3.2 1 4.5 4.4 4.4 16.1-.1 32.2-.1 48.4 0 3.5 0 4.1-1.6 4.2-4.6.1-3.2-1-4.5-4.4-4.4-4 .1-8 .1-11.9.1h-23.8c-4 0-8 0-11.9-.1-3.6-.1-5.1.9-5 4.6zM550 219.2h-23.8 11.9c4-.1 8 0 11.9 0zM661.8 292.9c6.9.4 13.8.2 20.7.2 5.3 0 10.7.2 16 0 1.8-.1 3.5-.1 5.3-.3 1.5-.1 3.1-3.4 3.9-5.5.2-.6-1.9-3.1-2.9-3.1-14.4-.2-28.8-.1-43.3-.1-3.9 0-4.7 2.7-4 5.5.4 1.4 2.8 3.3 4.3 3.3zM682.5 293.1c-6.9 0-13.8.2-20.7-.2 6.9.4 13.8.2 20.7.2 5.3 0 10.7.2 16 0-5.3.2-10.6 0-16 0zM561.8 258.1c-4 .1-8 .1-11.9.1-4 0-8-.1-11.9-.1h-11.9c-4 0-8 0-11.9-.1-3.1-.1-4.6.7-4.6 4.1 0 3.3.8 4.9 4.6 4.9 15.9-.2 31.8-.1 47.7 0 3.1 0 4.7-.7 4.6-4.2-.2-3.1-1-4.8-4.7-4.7zM749.5 319.1h29.6c3 0 6.3.9 6.3-4.3 0-4.9-2.8-4.6-6.1-4.6-14.4.1-28.9 0-43.3 0-1.5 0-3.5-.5-4.3.3-2.1 2.1-3.6 4.8-5.3 7.2 1.9.5 3.7 1.4 5.6 1.4h17.5zM483.2 245c-3.9.1-7.7.1-11.6.1h-29.4c-2 0-4 0-6-.1-3.6-.1-4.7 1.2-4.7 4.7 0 3.3 1.3 4.3 4.5 4.3 15.9-.1 31.8-.1 47.7 0 3.6 0 4.6-1.3 4.7-4.8 0-3.9-2.1-4.3-5.2-4.2zM471.6 245.1h-20.5 8.9c3.8-.1 7.7-.1 11.6 0zM513.9 215c15.9-.1 31.8-.1 47.7 0 3.6 0 4.7-1.3 4.7-4.8 0-3.3-1.3-4.3-4.5-4.3l-6.1.1h-18.4c-5.8 0-11.6.1-17.4 0-1.9 0-3.9 0-5.8-.1-3.6-.1-4.7 1.3-4.7 4.8 0 3.4 1.4 4.3 4.5 4.3z"/><path class="st1" d="M561.4 167.1c-15.7.1-31.3.1-47 0-3.5 0-4.8.9-4.8 4.6 0 4.1 2.1 4.2 5.1 4.2 7.7-.1 15.5 0 23.2 0s15.5-.1 23.2 0c3.1.1 5.1-.2 5.1-4.2 0-3.8-1.4-4.7-4.8-4.6zM514.2 136.8c15.9-.1 31.8-.1 47.6 0 3.3 0 4.3-1.1 4.3-4.4 0-3.1-.9-4.5-4.3-4.4-8.1.2-16.3.1-24.4.1-7.7 0-15.5.2-23.2-.1-3.6-.1-4.7 1.2-4.7 4.7.1 3.5 1.7 4.1 4.7 4.1z"/><path class="st2" d="M771.7 359c3.5 0 7-.4 10.4-.9 2.2-.3 6-.1 4.4-3.9-.9-2.1-3.7-4.7-5.8-4.9-1.7-.2-3.3-.2-5-.3-5-.2-10 .1-15 .1h-19.4c-2.9 0-6.2-.6-6 4.1.1 4.2 2.3 5.9 6.4 5.8 9.9 0 19.9.1 30 0zM119.5 179.9c-2.5.1-5 .2-7.5.2l-12.5-.1c-4.8 0-9.7-.1-14.5 0-1.6 0-3.2.1-4.8.2-1.9.1-5.3 1.8-5.3 2.9-.1 3.3.7 6.3 5.6 6.1 13.1-.4 26.3 0 39.4-.3 1.8 0 4.8-2 5-3.3.3-3.2-.8-6-5.4-5.7zM99.5 180l12.5.1c-4.1 0-8.3-.1-12.5-.1-4.8 0-9.7-.1-14.5 0 4.8-.1 9.7 0 14.5 0zM194 258.1c-7.5.1-15 0-22.5 0-5.9 0-11.9.1-17.8 0-2 0-4 0-5.9-.1-3.6-.1-4.7 1.2-4.7 4.7 0 3.3 1.2 4.4 4.4 4.3 15.6-.1 31.3-.1 46.9 0 3.1 0 5.1-.5 5.2-4.4.1-4.2-2.3-4.5-5.6-4.5zM435.9 175.9l6-.1h17.9c7.9 0 15.9-.1 23.8 0 3.1.1 4.6-.7 4.6-4.2 0-3.4-.8-4.9-4.6-4.9-15.9.2-31.8.2-47.6 0-3.7 0-4.6 1.5-4.6 4.9-.1 3.6 1.5 4.4 4.5 4.3zM459.8 175.9h-17.9c6-.1 11.9 0 17.9 0 7.9 0 15.9-.1 23.8 0-7.9-.1-15.9 0-23.8 0zM194.6 349.1c-15.6.1-31.3.1-46.9 0-3.6 0-4.7 1.3-4.6 4.7 0 3.3 1.2 4.4 4.4 4.3 2 0 4-.1 5.9-.1h41c3.1 0 5.2-.4 5.1-4.3 0-3.6-1.5-4.6-4.9-4.6zM171.3 358.1c-5.9 0-11.9-.1-17.8 0 5.9-.1 11.8 0 17.8 0h23.2c-7.8-.1-15.5 0-23.2 0zM590.1 61.1c1.9 0 3.8-.1 5.6-.1h34.7c2 0 4 0 5.9.1 3.4 0 5.5-.5 5.5-4.7 0-4-2.3-4.2-5.2-4.2-15.4 0-30.9.1-46.3 0-3.2 0-5 .5-5 4.4.1 3.5 1.3 4.6 4.8 4.5zM612.7 61c-5.6 0-11.3-.1-16.9 0h34.7-17.8zM147.5 215c2 0 4-.1 5.9-.1h17.8c7.7 0 15.4-.1 23.2 0 3.1 0 5.1-.5 5.1-4.4 0-3.7-1.7-4.6-5-4.6-15.6.1-31.3.1-46.9 0-3.7 0-4.6 1.4-4.6 4.8s1.4 4.3 4.5 4.3zM171.3 214.9h-17.8 17.8c7.7 0 15.4-.1 23.2 0h-23.2zM147.5 163c15.6-.1 31.3-.1 46.9 0 3.1 0 5.1-.6 5.1-4.4 0-3.8-1.6-4.6-4.9-4.6-7.9.1-15.9 0-23.8 0-7.7 0-15.4.1-23.2-.1-3.6-.1-4.7 1.2-4.6 4.7.1 3.4 1.3 4.4 4.5 4.4zM636.9 336.2c-15.6.1-31.3.1-46.9 0-3 0-4.6.7-4.6 4.2 0 3.3.7 5 4.5 4.9 7.9-.2 15.9-.1 23.8-.1 7.7 0 15.4-.1 23.2 0 3.2 0 5-.7 5.1-4.5-.1-3.9-1.9-4.5-5.1-4.5zM613.7 345.1c-7.9 0-15.9-.2-23.8.1 7.9-.2 15.9-.1 23.8-.1 7.7 0 15.4-.1 23.2 0h-23.2zM194.9 345.2c3.6 0 4.6-1.6 4.6-4.9 0-3.6-2-4-4.8-4-7.9.1-15.9 0-23.8 0-5.8 0-11.6.1-17.4 0-1.9 0-3.9 0-5.8-.1-3.5-.1-4.8 1-4.8 4.6.1 3.2 1 4.4 4.3 4.4 16-.1 31.9-.1 47.7 0zM483.4 205.9c-15.7.1-31.3.1-47 0-3.3 0-5 .6-5 4.4 0 3.6 1.4 4.7 4.8 4.6 4-.1 7.9-.1 11.9-.1h29.3c1.9 0 3.9 0 5.8.1 3.2.1 5-.5 5-4.4-.1-3.5-1.3-4.6-4.8-4.6zM147.7 319.1c7.7-.2 15.4-.1 23.2-.1 7.7 0 15.4-.1 23.2 0 3.2 0 5.7-.2 5.5-4.6-.1-3.9-2-4.4-5.2-4.4-15.6.1-31.3.1-46.9 0-3.2 0-4.4 1-4.4 4.3-.1 3.6 1 4.9 4.6 4.8zM636.7 206c-15.4.1-30.9.1-46.3 0-3.2 0-5 .5-5 4.4-.1 4.2 2 4.7 5.4 4.6 7.5-.2 15 0 22.5-.1 7.7 0 15.4-.1 23.2 0 3.3 0 5.6-.3 5.5-4.6-.2-3.9-2.2-4.3-5.3-4.3zM613.3 214.9c-7.5 0-15-.1-22.5.1 7.4-.2 15-.1 22.5-.1 7.7 0 15.4-.1 23.2 0h-23.2zM637 297.2c-15.6.1-31.3.1-46.9 0-3.5 0-4.7 1.2-4.7 4.7 0 3.9 1.9 4.4 5 4.3 7.7-.1 15.4 0 23.2 0h23.2c3.1 0 5.2-.5 5.2-4.4-.1-3.8-1.7-4.7-5-4.6zM613.6 306.1c-7.7 0-15.4-.1-23.2 0 7.7-.1 15.5 0 23.2 0h23.2-23.2zM147.5 306.2c15.6-.1 31.3-.1 46.9 0 3.2 0 5.1-.6 5.1-4.5 0-3.8-1.7-4.6-5-4.5-7.7.1-15.4 0-23.2 0-5.9 0-11.9.1-17.8 0-2 0-4 0-5.9-.1-3.7-.1-4.6 1.3-4.6 4.8.1 3.3 1.4 4.3 4.5 4.3zM194.4 219.1c-15.6 0-31.3.1-46.9 0-3.2 0-4.4 1-4.4 4.3 0 3.5 1.1 4.8 4.7 4.7 1.9-.1 3.9-.1 5.8-.1h17.4c7.7 0 15.4-.1 23.2 0 3.3 0 5.6-.3 5.6-4.6-.3-3.9-2.3-4.3-5.4-4.3zM170.8 228.1c-5.8 0-11.6-.1-17.4 0 5.9-.1 11.7 0 17.4 0 7.7 0 15.4-.1 23.2 0-7.7-.1-15.4 0-23.2 0zM148 136.9c15.4-.1 30.9-.1 46.3 0 3 0 5.2-.3 5.2-4.3 0-4.2-2.2-4.7-5.5-4.7h-22.5c-5.8 0-11.6.1-17.4 0-1.9 0-3.9 0-5.8-.1-3.4-.1-5.4.4-5.4 4.7.2 4 2 4.4 5.1 4.4zM148.1 175.9c15.4-.1 30.9-.1 46.3 0 3 0 5.2-.3 5.2-4.3 0-4.3-2.2-4.7-5.5-4.7h-22.5c-5.8 0-11.6.1-17.4 0-1.9 0-3.9 0-5.8-.1-3.5-.1-5.4.5-5.3 4.7 0 4 1.8 4.4 5 4.4zM637.1 127.9c-2 0-4 .1-5.9.1h-17.8s-11.9.1-17.8 0c-2 0-4 0-5.9-.1-3.5-.1-4.1 1.6-4.1 4.6 0 3.2 1 4.4 4.3 4.4 15.9-.1 31.7-.1 47.6 0 3 0 4.6-.8 4.6-4.2-.2-3.6-1.5-4.8-5-4.8zM483.6 219.1c-15.9.1-31.8.1-47.6 0-3.1 0-4.5.8-4.6 4.2 0 3.4 1 4.9 4.6 4.8 7.9-.2 15.9-.1 23.8-.1 6 0 11.9-.1 17.9 0 2 0 4 0 6 .1 3.8.1 4.5-1.6 4.5-4.9 0-3.5-1.6-4.1-4.6-4.1zM459.8 228.1c-7.9 0-15.9-.1-23.8.1 7.9-.3 15.9-.1 23.8-.1 6 0 11.9-.1 17.9 0-6-.1-11.9 0-17.9 0zM636.7 167c-15.4 0-30.9.1-46.3 0-3.2 0-5 .5-5 4.4-.1 4.2 2 4.7 5.4 4.6 7.5-.2 15 0 22.5-.1h23.2c3.3 0 5.6-.3 5.5-4.6-.2-3.9-2.2-4.4-5.3-4.3zM613.3 175.9c-7.5 0-15-.1-22.5.1 7.4-.2 15-.1 22.5-.1h17.4c-5.9-.1-11.6 0-17.4 0zM637.2 228.1c3 0 4.6-.8 4.7-4.2.1-3.6-1.3-4.8-4.8-4.7l-5.8.1h-17.4c-8.1 0-16.3.1-24.4-.1-3.5-.1-4.1 1.6-4.2 4.6 0 3.2.9 4.5 4.3 4.5 15.9-.3 31.8-.3 47.6-.2zM636.6 258.2c-15.4 0-30.9.1-46.3 0-3.3 0-5 .6-4.9 4.4 0 3.7 1.4 4.7 4.8 4.6l5.8-.1h34.8c1.9 0 3.9 0 5.8.1 3.4.1 5.5-.6 5.4-4.8-.1-4.1-2.5-4.3-5.4-4.2zM435.9 267.1c15.9-.2 31.8-.2 47.6 0 3.7 0 4.6-1.4 4.6-4.8s-1.4-4.3-4.5-4.2c-7.9.1-15.9 0-23.8 0h-17.9c-2 0-4 0-6-.1-3 0-4.6.6-4.6 4.1.1 3.5.8 5.1 4.6 5zM631 245h-29.4c-3.9 0-7.7 0-11.6-.1-3.7-.1-4.6 1.4-4.6 4.8s1.3 4.3 4.5 4.2c15.6-.1 31.3-.1 46.9 0 3.1 0 5.1-.5 5.1-4.4 0-3.7-1.7-4.6-5-4.6-2 .1-3.9.1-5.9.1zM188.7 245h-17.8c-5.8 0-11.6.1-17.4 0-1.9 0-3.9 0-5.8-.1-3.6-.1-4.7 1.3-4.6 4.7 0 3.3 1.3 4.3 4.4 4.3 15.6-.1 31.3-.1 46.9 0 3.1 0 5.2-.4 5.1-4.4 0-3.7-1.6-4.7-4.9-4.6-2 .1-4 .1-5.9.1zM436.8 136.9c1.9 0 3.8-.1 5.6-.1h16.9c6 0 11.9-.1 17.9 0 2 0 4 0 6 .1 3.2.1 5.1-.5 5-4.4 0-3.6-1.2-4.7-4.8-4.7-15.7.1-31.3.1-47 0-3.2 0-5 .6-5.1 4.4-.1 4.4 2.1 4.8 5.5 4.7zM459.3 136.9c-5.6 0-11.3-.1-16.9 0 5.6-.1 11.3 0 16.9 0 6 0 11.9-.1 17.9 0-6-.1-11.9 0-17.9 0zM148.4 241c1.9 0 3.8-.1 5.6-.1h34.3c1.9 0 3.9 0 5.8.1 3.3 0 5.6-.4 5.5-4.7-.1-4-2.2-4.3-5.2-4.3-15.4 0-30.9.1-46.3 0-3.2 0-4.9.5-5 4.4-.2 4.3 1.9 4.7 5.3 4.6zM170.9 241c-5.6 0-11.3-.1-16.9 0 5.6-.1 11.3 0 16.9 0h17.4-17.4zM636.7 154c-15.6.1-31.3.1-46.9 0-3.3 0-4.3 1.1-4.4 4.3-.1 3.5 1.1 4.8 4.7 4.7 5.8-.2 11.6-.1 17.4-.1h29c3.3 0 5.6-.3 5.5-4.6-.2-3.9-2.2-4.3-5.3-4.3zM483.5 163c3.6 0 4.7-1.3 4.7-4.7 0-3.3-1.3-4.3-4.5-4.3l-6 .1h-17.9c-7.9 0-15.9.1-23.8-.1-3.6-.1-4.7 1.3-4.7 4.7 0 3.3 1.3 4.3 4.5 4.3 15.9-.1 31.8-.1 47.7 0zM637 193c-15.8.1-31.7.1-47.5 0-3.5 0-4.1 1.7-4.1 4.6 0 3.2 1 4.5 4.3 4.4 2 0 4-.1 5.9-.1h41c3 0 5.3-.3 5.3-4.3 0-3.4-1.4-4.6-4.9-4.6zM595.7 201.9h29.4-11.6c-5.9.1-11.9 0-17.8 0zM477.7 232.1h-18.3c-5.8 0-11.6.1-17.4 0-1.9 0-3.9 0-5.8-.1-3.5-.1-4.8 1.1-4.8 4.7.1 3.2 1.2 4.4 4.4 4.4 16.1-.1 32.2-.1 48.3 0 3.6 0 4-1.7 4.1-4.6.1-3.2-1.1-4.4-4.4-4.4h-6.1zM589.7 97.9c7.7-.2 15.4-.1 23.1-.1 8.1 0 16.3-.1 24.4 0 3 0 4.6-.8 4.7-4.2.1-3.6-1.3-4.8-4.8-4.7-15.8.1-31.7.1-47.5 0-3.5 0-4.1 1.6-4.1 4.6-.1 3.1.8 4.5 4.2 4.4zM612.8 97.8c-7.7 0-15.4-.1-23.1.1 7.7-.2 15.4-.1 23.1-.1 8.1 0 16.3-.1 24.4 0h-24.4zM590.1 241.1c1.9 0 3.8-.1 5.6-.1h28.799999999999997s7.9 0 11.9.1c3.4 0 5.6-.5 5.5-4.7-.1-4-2.2-4.3-5.3-4.3-15.4 0-30.9.1-46.3 0-3.2 0-5 .6-5 4.4.1 3.5 1.4 4.6 4.8 4.6zM595.8 241h28.799999999999997-11.9c-5.7 0-11.3-.1-16.9 0zM590.3 271.1c-3.3 0-5 .6-4.9 4.4 0 3.6 1.3 4.7 4.8 4.6 1.9 0 3.8-.1 5.6-.1h34.7c2 0 4 0 5.9.1 3.4.1 5.5-.5 5.5-4.7-.1-4-2.3-4.3-5.3-4.2l-46.3-.1zM612.7 280c-5.6 0-11.3-.1-16.9 0 5.6-.1 11.2 0 16.9 0h17.8-17.8zM483.1 193c-15.7.1-31.3.1-47 0-3.5 0-4.7 1.1-4.8 4.7 0 3.9 1.9 4.4 5.1 4.4 7.7-.1 15.5 0 23.2 0 7.7 0 15.5-.1 23.2.1 3.4.1 5.5-.4 5.4-4.7-.1-4-1.9-4.5-5.1-4.5zM436.4 280.1c15.7-.1 31.3-.1 47 0 3.5 0 4.7-1.1 4.7-4.7 0-3.9-1.8-4.4-5-4.4l-6 .1h-17.9c-5.6 0-11.3.1-16.9 0-1.9 0-3.8 0-5.6-.1-3.4-.1-5.5.4-5.4 4.7.1 3.9 1.9 4.4 5.1 4.4zM589.9 319.1c15.6-.1 31.3-.1 46.9 0 3.2 0 5.1-.7 5.1-4.5s-1.8-4.5-5-4.5c-1.9 0-3.9 0-5.8.1h-17.4c-7.9 0-15.8.2-23.8-.1-3.7-.1-4.5 1.5-4.6 4.8.1 3.4 1.5 4.2 4.6 4.2zM147.8 280.1l5.8-.1h34.8c1.9 0 3.9 0 5.8.1 3.4 0 5.6-.5 5.5-4.7-.1-4-2.3-4.3-5.3-4.3-15.4 0-30.9.1-46.3 0-3.2 0-5 .6-5 4.4-.1 3.6 1.2 4.7 4.7 4.6zM170.9 280c-5.8 0-11.6-.1-17.4 0 5.8-.1 11.6 0 17.4 0h17.4-17.4zM147.8 202c7.7-.2 15.4-.1 23.1-.1h17.4c1.9 0 3.9 0 5.8.1 3.4.1 5.5-.6 5.4-4.8-.1-4-2.3-4.2-5.3-4.2-15.4 0-30.9.1-46.3 0-3.3 0-4.9.7-4.9 4.4s1.4 4.7 4.8 4.6zM171 202c-7.7 0-15.4-.1-23.1.1 7.6-.3 15.4-.1 23.1-.1h17.4c-5.9-.1-11.6 0-17.4 0zM637.4 65c-15.9.1-31.8.1-47.8 0-3.4 0-4.2 1.4-4.2 4.5s.9 4.6 4.3 4.5c8-.2 15.9-.1 23.9-.1 8 0 15.9-.1 23.9 0 3.2 0 4.4-1.3 4.4-4.5 0-3.1-1.3-4.4-4.5-4.4zM613.6 74c-8 0-15.9-.1-23.9.1 7.9-.2 15.9-.1 23.9-.1 8 0 15.9-.1 23.9 0-8-.1-16 0-23.9 0zM636.8 349.1c-15.6.1-31.3.1-46.9 0-3.8 0-4.5 1.6-4.5 4.9 0 3.5 1.5 4.2 4.6 4.2 7.9-.1 15.8 0 23.8 0h17.4c1.9 0 3.9 0 5.8.1 3.2 0 5-.8 5-4.5-.1-4-2-4.7-5.2-4.7zM613.7 358.1c-7.9 0-15.8-.1-23.8 0 8-.1 15.9 0 23.8 0h17.4c-5.8-.1-11.6 0-17.4 0zM636.7 115c-7.8.1-15.5 0-23.3 0-7.8 0-15.5.1-23.3-.1-3.5-.1-4.9 1-4.8 4.6.1 3.2 1.1 4.4 4.4 4.4 15.7-.1 31.4-.1 47.1 0 3.3 0 5-.9 5-4.6.1-3.9-2-4.3-5.1-4.3zM561.7 349.1c-1.9.1-3.8.1-5.6.1-5.6.1-11.3 0-16.9 0-7.9 0-15.9.1-23.8 0-3.3 0-5 .9-5 4.6 0 3.9 2 4.4 5.1 4.4 15.4-.1 30.9-.1 46.3 0 3.2 0 4.5-.9 4.5-4.2.1-3.5-.9-5-4.6-4.9zM539.2 349.2c5.6 0 11.3.1 16.9 0-5.7 0-11.3-.1-16.9 0-7.9 0-15.9.1-23.8 0h23.8z"/><path class="st1" d="M561.9 162.9c3.5 0 4.1-1.5 4.2-4.5.1-3.4-1.3-4.3-4.5-4.2l-6.1.1h-18.3c-7.7 0-15.4.1-23.1-.1-3.2-.1-4.4.9-4.4 4.2 0 3 .5 4.6 4.1 4.5 16-.2 32.1-.2 48.1 0z"/><path class="st2" d="M123.6 297.2c-7.7.1-15.5 0-23.2 0-4.2 0-8.5-.1-12.7 0h-4.2c-1.9 0-3.8.1-5.6.1-2 .1-5.6 1.8-5.5 2.3.5 3.1.6 6.6 5.6 6.6 15.3-.3 30.6-.2 45.9 0 3.8 0 4.5-1.6 4.6-4.9-.2-3.6-1.9-4.2-4.9-4.1zM123.6 297.2c-7.7.1-15.5 0-23.2 0-4.2 0-8.5-.1-12.7 0h12.7c7.7 0 15.5.1 23.2 0z"/><path class="st1" d="M512.9 150.4c16.4-.4 32.9-1 49.3-1.2 3.6 0 3.9-2 3.2-4.3-.4-1.3-2.3-3.1-3.6-3.1-8.1-.3-16.3-.1-24.5-.1s-16.3.1-24.5-.1c-3-.1-4.1.8-3.9 3.9.2 2.7.4 5 4 4.9zM556 232.3h-29.799999999999997c-4 0-8 0-11.9-.1-3.1-.1-4.6.7-4.5 4.2.1 3 .6 4.6 4.1 4.6 16.1-.1 32.2 0 48.3-.2 1.3 0 3.2-2.4 3.7-4 .8-2.9-.4-4.6-3.9-4.5-2.1-.1-4-.1-6 0zM514.2 201.9l5.8-.1h29.299999999999997s8 0 11.9.1c3.4.1 4.9-.8 4.8-4.5-.1-3.4-1.3-4.2-4.5-4.2-15.9.1-31.8.1-47.7 0-3.5 0-4.2 1.4-4.2 4.5.1 3.3 1.4 4.3 4.6 4.2zM561.9 271.2c-16.1.1-32.2 0-48.3.2-1.3 0-3.2 2.4-3.7 4-.8 2.9.4 4.6 3.9 4.5l6-.1h17.9c6 0 11.9-.1 17.9 0 2 0 4 0 6 .1 3.1.1 4.6-.7 4.5-4.2-.1-3-.6-4.6-4.2-4.5zM585.4 145.4c.2 3.2 1 5.1 4.6 5.1 15.5-.1 30.9-.1 46.4 0 3.5 0 4.8-1.3 4.7-4.8-.1-3.5-1.8-4-4.8-4l-23.2.1c-7.7 0-15.5.1-23.2 0-2.7-.2-4.8-.3-4.5 3.6zM613.1 141.7c7.7 0 15.5.1 23.2-.1-7.7.2-15.5.1-23.2.1-7.7 0-15.5.1-23.2 0 7.7.1 15.5 0 23.2 0z"/><path class="st2" d="M222.4 254c7.5-.1 15.1 0 22.6 0 7.3 0 14.7-.1 22 .1 3.2.1 4.5-1 4.4-4.3-.1-2.8-.2-4.8-3.9-4.8-15.1.1-30.2.1-45.2 0-3.6 0-4.7 1.6-4.7 5 0 3.5 1.9 4 4.8 4zM661.2 319.1c7.9-.2 15.9-.1 23.8-.1h17.9c2 0 4 0 6-.1 1.2 0 2.4-1.3 3.6-1.9-2.3-2.3-4.5-6.5-6.9-6.6-14.8-.6-29.7-.3-44.5-.4-3.1 0-4.6.9-4.6 4.3-.1 3.5 1.1 4.9 4.7 4.8zM685 319c-7.9 0-15.9-.1-23.8.1 7.9-.2 15.9-.1 23.8-.1h17.9c-6 .1-11.9 0-17.9 0zM10.8 175.8c7.9.3 15.9.1 23.8.1h17.6c2.4 0 8.8-6.4 7.7-7.2-1.6-1.3-4.3-1.5-6.6-1.6-1.8 0-3.6-.1-5.3-.1h-36.7c-3.8 0-7.8-.7-7.8 5.1 0 6.1 4.6 3.6 7.3 3.7zM32 167c5.3 0 10.7-.1 16 0-5.4-.1-10.7 0-16 0h-20.7 20.7z"/><path class="st1" d="M591 371.7c3.3-.2 6.7 0 10 0h33.9c3.7 0 6.1-1 6.1-5.2 0-4.4-3.1-3.5-5.7-3.5h-44.6c-2.4 0-5.5-1.3-5.4 3.5.1 4.2 1.7 5.5 5.7 5.2zM612.7 362.9h44.6-22.6-22zM591.4 111.5c10.2-.1 20.5 0 30.8 0 4.4 0 8.9.5 13.1-.2 2.1-.4 5-2.8 5.5-4.8 1.1-4.2-2.5-3.7-5.3-3.7h-44.6c-2.7 0-5.8-1.1-5.6 3.9.2 4.6 2.6 4.8 6.1 4.8zM612.9 102.7h44.6-22.6-22zM590.8 332.7c13.2-.1 26.3-.1 39.5-.1 2.1 0 4.6.7 6.2-.2 1.9-1.1 3.1-3.5 4.6-5.4-1.6-1.1-3.2-2.9-4.8-3l-5.8-.2c-5.8-.1-11.6 0-17.4 0-7.5 0-15 .1-22.6 0-2.9 0-5.2-.4-5.1 4 .1 4.1 1.8 4.9 5.4 4.9zM613 323.9c5.8 0 11.6-.1 17.4 0-5.8-.1-11.6 0-17.4 0-7.5 0-15 .1-22.6 0 7.5.1 15.1 0 22.6 0z"/><path class="st2" d="M267.6 206.1c-15.1-.2-30.2-.1-45.2-.2-3.5 0-4.8 1.4-4.8 4.9 0 3.6 1.9 4.1 4.8 4.1 7.5-.1 15.1 0 22.6 0l16.5-.1c1.8 0 3.7.1 5.5.2 4.5.2 4.9-2.7 4.6-5.5-.1-1.3-2.6-3.3-4-3.4zM365.8 215c14.6-.2 29.3-.1 43.9 0 3.4 0 4.9-.8 4.9-4.5s-1.6-4.6-5-4.5c-1.9 0-3.8.1-5.6.1h-16.9c-5.3 0-10.7-.1-16 0-1.8 0-3.6 0-5.3.1-2.3.1-5.9-1.6-5.6 3.4.2 3.6 1.5 5.4 5.6 5.4zM387.1 206c5.6 0 11.3.1 16.9 0-5.7.1-11.3 0-16.9 0-5.3 0-10.7-.1-16 0 5.3-.1 10.6 0 16 0zM339 206.2l-5.8-.2c-5.8-.1-11.6 0-17.4 0-5.6 0-11.3-.1-16.9 0-1.9 0-3.8.1-5.6.2-1.6.1-4.1 1.8-4.4 3.1-.6 3 .3 5.7 4.5 5.7 15.2-.1 30.4-.1 45.7 0 4.3 0 4.3-3 3.9-5.4-.2-1.4-2.5-3.4-4-3.4zM223.4 163c8.2-.1 16.5-.2 24.7-.2l24.7-.2 1.2-7.9c-1.9-1-3.9 8.6-6 0-.1-.4-2.3-.5-3.5-.5h-41.3c-3.2 0-5.7.2-5.6 4.5 0 4.3 2.6 4.3 5.8 4.3zM272.8 162.5l-24.7.2c8.2 0 16.4-.1 24.7-.2zM365.8 271.1c-3.3 0-5 .9-5 4.6-.1 3.9 2 4.4 5.1 4.4 7.3-.1 14.6 0 21.9 0 5.6 0 11.3-.1 16.9 0 1.9 0 3.8 0 5.6.1 3.5.1 4.1-1.6 4.2-4.6 0-3.1-.9-4.5-4.3-4.5-14.8.1-29.6.1-44.4 0zM387.8 280c-7.3 0-14.6-.1-21.9 0h21.9c5.6 0 11.3-.1 16.9 0-5.6-.1-11.2 0-16.9 0zM267.2 349.1c-14.8.1-29.7.1-44.5 0-3.2 0-5.1.7-5.1 4.5-.1 3.9 1.9 4.5 5.1 4.5h22c5.6 0 11.3-.1 16.9 0 1.9 0 3.8 0 5.6.1 3.4.1 4.3-1.3 4.3-4.5-.1-3.1-.8-4.6-4.3-4.6zM365.2 319.1h22c5.8 0 11.6-.1 17.4 0 1.9 0 3.9 0 5.8.1 3.5.1 4.2-1.5 4.2-4.5 0-3.1-.8-4.5-4.2-4.5-15 .1-30.1.1-45.1 0-3.3 0-4.4 1.4-4.4 4.5-.2 3.2 1.1 4.4 4.3 4.4zM294.2 319.1c7.3-.1 14.6 0 21.9 0 5.5 0 11-.1 16.5 0 1.8 0 3.7 0 5.5.1 3.3.1 5-.6 5-4.4 0-3.6-1.4-4.6-4.8-4.6-14.6.1-29.3.1-43.9 0-3.2 0-5.1.7-5.2 4.5-.1 3.6 1.7 4.4 5 4.4zM124.2 310.3c-15.7-.3-31.4-.1-47-.2-4.5 0-3.4 3.6-3.7 5.8-.1.8 2.3 2.9 3.7 3 7.5.3 15.1.1 22.6.1 7 0 13.9.2 20.9-.1l3-.1c1.5-.1 3.3-2.9 3.9-4.9.1-.8-2.2-3.6-3.4-3.6zM99.7 319c-7.5 0-15.1.2-22.6-.1 7.6.3 15.1.1 22.6.1 7 0 13.9.2 20.9-.1-7 .3-13.9.1-20.9.1zM267.1 267.1c3.3 0 4.3-1.3 4.3-4.5 0-3-.7-4.6-4.2-4.6-7.5.2-15 .1-22.6.1-7.5 0-15 .1-22.6 0-3.1 0-4.5 1.1-4.5 4.4 0 3.2 1.2 4.6 4.4 4.6 15.1-.1 30.2-.1 45.2 0zM244.7 258.2c7.5 0 15.1.1 22.6-.1-7.6.2-15.1.1-22.6.1-7.5 0-15 .1-22.6 0h22.6zM338.6 336.2c-14.8.1-29.7.1-44.5 0-3.3 0-5 .9-4.9 4.6 0 3.9 2.1 4.4 5.2 4.4 7.3-.1 14.6 0 21.9 0 5.5 0 11-.1 16.5 0 1.8 0 3.7 0 5.5.1 3.5.1 4.8-1.1 4.7-4.7 0-3.3-1.1-4.5-4.4-4.4zM267.2 336.2c-14.8.1-29.7.1-44.5 0-3.2 0-5.1.6-5.1 4.5 0 3.8 1.9 4.6 5.1 4.5h21.3c5.8 0 11.6-.1 17.4 0 1.9 0 3.9 0 5.8.1 3.4.1 4.2-1.5 4.2-4.5 0-3.3-.8-4.7-4.2-4.6zM294.4 306.1c7.3-.1 14.6 0 21.9 0 5.5 0 11-.1 16.5 0 1.8 0 3.7 0 5.5.1 3.5.1 4.8-1.1 4.8-4.7-.1-3.2-1.1-4.4-4.4-4.4-14.8.1-29.7.1-44.5 0-3.3 0-5 .8-5 4.6 0 3.9 2 4.5 5.2 4.4zM222.1 306.1c15-.1 30.1-.1 45.1 0 3.5 0 4.1-1.6 4.1-4.6.1-3.2-1.1-4.5-4.3-4.4-1.9 0-3.8.1-5.6.1h-33.4c-1.8 0-3.7 0-5.5-.1-3.3-.1-5.1.8-5 4.6.2 3.3 1.5 4.4 4.6 4.4zM244.5 297.2c5.6 0 11.3.1 16.9 0-5.6.1-11.3 0-16.9 0h-16.5 16.5zM338.2 349.1c-14.6.1-29.3.1-43.9 0-3.1 0-5.1.5-5.2 4.4-.1 4.4 2.4 4.6 5.6 4.6 7.1-.1 14.2 0 21.3 0 7.3 0 14.6-.1 21.9 0 3.2.1 5.1-.5 5-4.4.1-3.6-1.2-4.6-4.7-4.6zM266.1 219.1c-1.8 0-3.6.1-5.3.1h-37.3c-3 0-5.9-.3-5.9 4.3 0 4.3 2.3 4.7 5.6 4.7 14.4-.1 28.8-.1 43.3 0 3.2 0 5-.4 5.1-4.3-.1-4.4-2.1-4.9-5.5-4.8zM260.7 219.2h-37.3 21.3c5.4-.1 10.7 0 16 0zM409.8 258.1c-14.6.1-29.2.1-43.8 0-3 0-5.2.3-5.2 4.3 0 4.3 2.2 4.7 5.6 4.7h21.3c5.5 0 11-.1 16.4 0 1.8 0 3.7 0 5.5.1 3.2.1 5.1-.5 5.1-4.4-.1-3.6-1.4-4.7-4.9-4.7zM409.5 219.1c-14.4.1-28.8.1-43.2 0-3.3 0-5.6.3-5.5 4.6.1 4.5 2.9 4.3 5.9 4.3h26.5c5.3 0 10.6-.1 16 .1 3.5.1 5.4-.5 5.4-4.7-.1-4-2-4.3-5.1-4.3zM409.8 232c-14.6.1-29.2.1-43.8 0-3.1 0-5.2.5-5.2 4.4 0 3.7 1.7 4.6 5 4.6 7.3-.1 14.6 0 21.9 0 5.5 0 11-.1 16.4 0 1.8 0 3.7 0 5.5.1 3.3.1 5-.6 5-4.4-.1-3.7-1.3-4.7-4.8-4.7zM293.9 267.1c1.9 0 3.8 0 5.6-.1h16.9c5.5 0 11-.1 16.4 0 1.8 0 3.7 0 5.5.1 3.7.1 4.6-1.5 4.6-4.9 0-3.5-1.5-4.2-4.6-4.2-14.8.1-29.7.1-44.5 0-2.9 0-4.7.6-4.8 4.1.1 3.7 1.4 5.1 4.9 5zM409.7 297.1c-14.6.1-29.2.1-43.9 0-3.1 0-5.2.5-5.1 4.4 0 3.7 1.8 4.6 5 4.6 1.8 0 3.7 0 5.5-.1h16.4c5.5 0 11-.1 16.4 0 1.8 0 3.7 0 5.5.1 3.3.1 4.9-.7 5-4.5.1-3.6-1.4-4.5-4.8-4.5zM404.8 336.2h-16.4c-7.7 0-15.5.1-23.2 0-3.2 0-4.4 1.2-4.4 4.5 0 3.2 1.3 4.5 4.5 4.5 15-.1 30.1-.1 45.1 0 3.4 0 4.2-1.5 4.2-4.6 0-3.2-.9-4.5-4.3-4.4h-5.5zM388.3 336.2c5.5 0 11 .1 16.4 0-5.4.1-10.9 0-16.4 0-7.7 0-15.5.1-23.2 0 7.8.1 15.5 0 23.2 0zM338.5 232l-5.5.1h-16.4c-5.6 0-11.3.1-16.9 0-1.9 0-3.8 0-5.6-.1-3.4-.1-4.9 1.2-4.8 4.7.1 3.4 1.7 4.2 4.7 4.2 14.8-.1 29.7-.1 44.5 0 3.6 0 4.6-1.3 4.6-4.8-.1-3.2-1.4-4.1-4.6-4.1zM316.6 232.1c5.5 0 11 .1 16.4 0h-16.4c-5.6 0-11.3.1-16.9 0h16.9zM409.8 349.1l-5.3.1h-16c-7.5 0-15 .1-22.6 0-3.1 0-5.2.5-5.2 4.4 0 3.7 1.6 4.6 4.9 4.6 14.8-.1 29.7-.1 44.5 0 3.2 0 4.4-1 4.4-4.3.1-3.6-1.1-4.9-4.7-4.8zM388.5 349.2c5.3 0 10.7.1 16 0-5.3 0-10.6-.1-16 0-7.5 0-15 .1-22.6 0h22.6zM266.8 232c-7.3.2-14.6.1-21.9.1-7.5 0-15 .1-22.6 0-3 0-4.7.8-4.8 4.2-.1 3.5 1.3 4.8 4.8 4.8 14.8-.1 29.7-.1 44.5 0 3.1 0 4.5-.8 4.5-4.2.1-3.5-.7-5-4.5-4.9zM244.9 232.1c7.3 0 14.6.2 21.9-.1-7.3.2-14.6.1-21.9.1-7.5 0-15 .1-22.6 0h22.6zM293.9 280c14.8-.1 29.7-.1 44.5 0 3.7 0 4.6-1.4 4.6-4.8s-1.4-4.3-4.5-4.2l-5.5.1h-16.4c-5.6 0-11.3.1-16.9 0-1.9 0-3.8 0-5.6-.1-3.5-.1-4.9 1.2-4.8 4.8-.1 3.5 1.6 4.3 4.6 4.2zM316.6 271.1c5.5 0 11 .1 16.4 0-5.5.1-11 0-16.4 0-5.6 0-11.3.1-16.9 0 5.6.1 11.2 0 16.9 0zM266.9 271.1l-5.5.1h-16.4c-5.6 0-11.3.1-16.9 0-1.9 0-3.8 0-5.6-.1-3.4-.1-4.9 1.2-4.8 4.7.1 3.4 1.7 4.2 4.7 4.2 14.8-.1 29.7-.1 44.5 0 3.6 0 4.6-1.3 4.6-4.8-.1-3.3-1.4-4.2-4.6-4.1zM245 271.1c5.5 0 11 .1 16.4 0-5.4.1-10.9 0-16.4 0-5.6 0-11.3.1-16.9 0 5.6.1 11.3 0 16.9 0zM222.5 319.1l5.5-.1h16.4c5.6 0 11.3-.1 16.9 0 1.9 0 3.8 0 5.6.1 3.2.1 4.5-.9 4.5-4.3 0-3.5-1-4.8-4.6-4.8-14.8.2-29.7.1-44.5 0-3 0-4.7.8-4.7 4.2-.1 3.7 1.4 4.9 4.9 4.9zM338.5 219.1c-14.8.1-29.7.1-44.5 0-3.3 0-4.9 1-4.9 4.7 0 3.9 2.2 4.3 5.3 4.3 7.1-.1 14.2 0 21.3 0 5.6 0 11.3-.1 16.9 0 1.9 0 3.8 0 5.6.1 3.5.1 4.7-1.2 4.7-4.7.1-3.5-1.2-4.4-4.4-4.4zM7.2 202l5.5-.1h27.4s7.3 0 11-.1c2-.1 5.8 1.7 5.2-2.9-.4-3.1-1-6-5.6-6-14.6.2-29.3.2-44 0-3.5 0-4.7 1.1-4.7 4.7.1 4 2 4.5 5.2 4.4zM666.9 189c2.3.1 4.6 0 6.9 0 9.8 0 19.6-.3 29.5.1 5 .2 6.4-2.7 6.4-6.3 0-.9-3.7-2.6-5.8-2.7l-2.2-.1c-5.1-.2-10.2 0-15.4 0-6.5 0-13 .2-19.4-.1-4.2-.1-4.6 2.3-4.9 5.5-.5 4.4 2.6 3.5 4.9 3.6zM686.3 180c5.1 0 10.2-.2 15.4 0-5.1-.2-10.3 0-15.4 0-6.5 0-13 .2-19.4-.1 6.5.3 12.9.1 19.4.1zM782.3 297.4c-15.5-.3-30.9-.4-46.4.1-1.5 0-2.8 3.7-4.2 5.7 1.4 1 2.8 2.8 4.2 2.8 1.9.1 3.8.1 5.6.1h16.9c7.7 0 15.5.2 23.2-.2 1.3-.1 3.1-2.7 3.3-4.3.3-1.3-1.6-4.2-2.6-4.2zM758.5 306.1h-12.7c4.2.1 8.5 0 12.7 0 7.7 0 15.5.2 23.2-.2-7.7.4-15.5.2-23.2.2zM118.2 166.9c-7.3.2-14.7.1-22 .1h-17.9c-2 0-4 0-6 .1-.9 0-2.7 2.1-2.5 2.3 2.1 3.5 3.6 6.9 9.2 6.7 13.2-.6 26.4-.2 39.6-.2 2.5 0 5.6 1 5.5-3.7-.2-4.2-2.1-5.4-5.9-5.3zM780.3 206c-9.8.1-19.6 0-29.4 0-4.6 0-9.2.1-13.8 0-4.7-.1-4.1 3.9-5.3 6.4 1.7.8 3.4 2.3 5.2 2.4 1.8.1 3.5.1 5.3.1 5.3.1 10.6 0 16 0 7.3 0 14.6-.1 21.9.1 3.5.1 5.4-.5 5.3-4.7-.2-4-2.1-4.4-5.2-4.3zM664.2 280c13.4.1 26.8.1 40.2.1.8 0 2 .3 2.5-.1 2.3-2.4 4.4-4.9 6.6-7.4-2.1-.5-4.1-1.3-6.2-1.4l-5-.1h-15.1l-17 .1c-1.9 0-3.8-.1-5.6-.1-4.5-.2-5.2 2.3-5.5 5.8-.4 4.5 3.1 3 5.1 3.1zM687.2 271.1c5 0 10.1-.1 15.1 0-5.1-.1-10.1 0-15.1 0l-17 .1c5.6 0 11.3-.1 17-.1zM370 136.9h10.6c5.3 0 10.7 0 16-.1 2 0 3.9-.7 5.8-1.1-1.2-2.4-2.1-4.9-3.7-7-.6-.8-2.7-.8-4.1-.8-6.3-.1-12.6 0-18.9 0-7.1 0-14.3-.5-21.3.3-2.4.3-4.4 4-6.6 6.2 2 .8 3.9 2.2 6 2.3 5.5.3 10.9.2 16.2.2zM370 136.9h10.6-5.3-5.3zM781.2 193c-14.2.1-28.4.1-42.6 0-3.4 0-4.9 1.2-4.8 4.7.1 3.4 1.6 4.3 4.7 4.2 6.9-.1 13.8 0 20.7 0 5.5 0 11-.1 16.4 0 1.8 0 3.7 0 5.5.1 3.4.1 4.3-1.3 4.3-4.4-.1-3-.7-4.6-4.2-4.6zM222.3 136.9c14.2-.1 28.4-.1 42.6 0 3.4 0 4.3-1.3 4.3-4.5 0-3-.7-4.7-4.2-4.6-3.4.1-6.9.1-10.3.1h-21.3c-3.7 0-7.3 0-11-.1-3.5-.1-4.8 1.3-4.8 4.8 0 3.6 1.8 4.3 4.7 4.3zM254.7 128h-21.3 11c3.4-.1 6.8 0 10.3 0zM5 319.1c7.1-.2 14.2-.1 21.3-.1 6.3 0 12.6.2 18.8-.1 2.4-.1 6.3 1.9 6.4-3.3 0-4.4-2.1-5.7-6.3-5.6-13.4.2-26.8.1-40.1.1-2.5 0-5.3-.6-5 3.5.1 3.3.7 5.6 4.9 5.5z"/><path class="st1" d="M401 173.1c-56.7-.1-113.3-.1-170 0-1.6 0-3.2 1.6-4.8 2.4.8.1 1.7.2 2.5.2h172.9c1.6 0 3.2-.5 4.9-.7-1.9-.7-3.7-1.9-5.5-1.9z"/><path class="st2" d="M661.1 306c3.5.2 7.1.2 10.6.2s7.1-.1 10.7-.1h20.1c2.4 0 5.4.7 5-3.5-.3-3.1-.4-5.6-4.8-5.5-13.8.3-27.6.3-41.4 0-4.5-.1-4.9 2.7-4.5 5.5.2 1.4 2.8 3.3 4.3 3.4z"/><path class="st1" d="M694.4 362.4c-8.4 0-16.7-.1-25.1.1-1.7 0-3.3.9-4.9 1.4 1.5 2.3 2.7 4.9 4.7 6.8.9.9 3.2.3 4.9.3h40.8c1.3 0 2.9.5 3.7-.1 2.3-2 4.3-4.4 6.4-6.6-2-.6-3.9-1.6-5.9-1.7-8.3-.3-16.5-.2-24.6-.2zM694.4 362.4c8.2 0 16.3-.1 24.5.1-8.2-.2-16.4-.1-24.5-.1-8.4 0-16.7-.1-25.1.1 8.3-.2 16.7-.1 25.1-.1z"/><path class="st2" d="M735.7 344c.1.2.3.3.5.5.4.3.8.4 1.4.5.5.1 1.2.1 1.9.1 13.7-.1 27.5-.1 41.2 0 3.6 0 4.6-1.3 4.7-4.8 0-3.4-1.3-4.3-4.5-4.2-15.2.2-30.4.2-45.6.3l-.1 5.1c0 .4 0 .8.1 1.1.1.3.1.6.3.9-.1.2 0 .4.1.5zM739.6 267.1c1.7-.1 3.5-.1 5.2-.1 5.2-.1 10.4 0 15.6 0 5.2 0 10.4-.1 15.6 0 1.7 0 3.5 0 5.2.1 3.5.1 4.2-1.5 4.2-4.6.1-3.2-1-4.5-4.3-4.4-13.8.1-27.6.1-41.5 0-3.1 0-4.5.8-4.5 4.2-.1 3.5.9 5 4.5 4.8zM744.8 267c5.2-.1 10.4 0 15.6 0 5.2 0 10.4-.1 15.6 0h-15.6c-5.2.1-10.4 0-15.6 0zM739.3 280.1c1.7 0 3.4 0 5.2-.1h31c1.7 0 3.4 0 5.2.1 2.9 0 4.7-.5 4.7-4-.1-3.2-.6-5-4.5-5-13.8.2-27.6.2-41.3 0-3.7 0-4.4 1.5-4.6 4.8-.3 3.6 1.3 4.2 4.3 4.2zM299.9 136.9h20.6c1.7 0 3.4 0 5.2-.1 1.9 0 3.7-1 5.5-1.5-1.3-2.3-2.2-4.9-4-6.8-.8-.9-3.2-.5-4.8-.5h-30.7c-2.3 0-5.2-.8-6.8.3-2.3 1.6-3.6 4.5-5.4 6.9 1.8.6 3.6 1.6 5.4 1.6 5 .1 10 .1 15 .1zM299.9 136.9h12.8-7.8-5z"/><path class="st1" d="M489.7 362.9h-17.9c-6.1 0-12.2-.1-18.4 0-2 0-4.1 0-6.1.1-2 0-4 1-6 1.5 2 2.1 4 4.4 6.2 6.3.6.5 2 .1 3.1.1h41.4c1 0 2.5.4 3.1-.1 2.2-2.1 4.2-4.6 6.2-6.9-1.9-.3-3.8-1-5.7-1h-5.9zM194.8 362.4c-15.7.1-31.4.1-47.1 0-3.1 0-4.5.8-4.5 4.2 0 3.3 1.1 4.5 4.4 4.4l6-.1h41.099999999999994c3 0 4.7-.7 4.7-4.2-.1-3.3-1.6-4.3-4.6-4.3zM171.4 370.9c-6 0-11.9-.1-17.9 0h41.099999999999994-23.2z"/><path class="st2" d="M637.6 78.2c-16.1-.2-32.2-.2-48.2 0-1.3 0-2.5 2.2-3.8 3.4 1.3 1.1 2.6 3.1 4 3.2 2 .1 4 .1 5.9.2 5.9.1 11.9 0 17.9 0l13.4.1h4.5c2 0 4-.1 5.9-.2 1.6-.1 3.1-2.2 4.6-3.3-1.4-1.3-2.8-3.4-4.2-3.4zM595.5 84.9c5.9.1 11.9 0 17.9 0 4.5 0 8.9.1 13.4 0l-13.4-.1c-6 .1-12 .2-17.9.1z"/><path class="st1" d="M590.1 47.8c3.8-.1 7.5-.1 11.3-.1h34.5c3.1 0 5.7 0 5.6-4.5-.1-4.1-2.6-4.1-5.4-4.1-15.2 0-30.5.1-45.7-.1-3.4 0-4.9.8-4.8 4.5 0 3.8 1.6 4.4 4.5 4.3zM612.7 47.8h-34.5 11.3 23.2zM561.6 362.3c-15.5.1-31 .1-46.4 0-3.1 0-4.6 1-4.6 4.4 0 3.4 1.7 4.3 4.7 4.2 7.7-.1 15.5 0 23.2 0 7.7 0 15.5-.1 23.2.1 3.3.1 4.3-1.2 4.3-4.4.1-3.4-1.2-4.3-4.4-4.3zM338.9 362.6c-15-.3-30.1-.1-45.1-.2-3.2 0-4.5 1.1-4.5 4.4 0 3.5 1.8 4.2 4.7 4.2 7.3-.1 14.6 0 21.9 0 7.5 0 15-.1 22.5.1 3.4.1 4.9-1.4 4-4.4-.3-1.7-2.2-4.1-3.5-4.1zM409.9 362.3c-7.3.2-14.6 0-21.9.1-7.5 0-15 .1-22.5 0-3.1 0-4.5 1-4.5 4.3 0 3.4 1.6 4.2 4.6 4.2 14.8-.1 29.6-.1 44.4 0 3.3 0 4.3-1.2 4.4-4.4 0-3.3-1.3-4.2-4.5-4.2zM388 362.4c7.3 0 14.6.1 21.9-.1-7.3.2-14.6.1-21.9.1-7.5 0-15 .1-22.5 0 7.5.1 15 0 22.5 0z"/><path class="st2" d="M665.4 201.7c12.5-.1 25-.2 37.5 0 4 .1 4.8-2.4 4.4-5.1-.2-1.4-2.7-3.3-4.2-3.4-.8 0-1.6-.1-2.3-.1-5.5-.2-10.9 0-16.4 0-5.5 0-11-.2-16.4 0-.8 0-1.6.1-2.3.1-1.5.1-3.6 2.2-4.1 3.7-.9 2.8.2 4.8 3.8 4.8zM684.3 193.1c5.5 0 11-.2 16.4 0-5.4-.2-10.9 0-16.4 0-5.5 0-11-.2-16.4 0 5.5-.2 11 0 16.4 0z"/><path class="st1" d="M267.1 362.3c-14.8.1-29.7.1-44.5 0-3.1 0-4.6.9-4.5 4.3 0 3.4 1.6 4.3 4.6 4.3h22c5.6 0 11.3.1 16.9 0 1.9 0 3.8-.1 5.6-.2 1.4-.1 3.4-2.3 3.8-3.9.9-2.8-.4-4.5-3.9-4.5zM741.9 371c1.8-.1 3.5-.1 5.3-.1 5.3-.1 10.6 0 16 0 5 0 10 .1 15 0l5-.1c2-.1 5.7-1.6 5.6-2.2-.2-3.2-.9-6.4-5.8-6.3-13.8.3-27.5.1-41.3.1-2.7 0-5 .1-4.8 3.9.3 3.2 1.3 4.8 5 4.7zM763.1 370.9c-5.3 0-10.6-.1-16 0 5.4-.1 10.7 0 16 0 5 0 10 .1 15 0-5 .1-10 0-15 0z"/><path class="st2" d="M702.3 375.2c-9.2 0-18.4 0-27.5.1-1.1 0-2.1.8-3.2 1.2.5.9.8 1.9 1.4 2.6 2.8 3.3 5.9 5.7 10.7 5.1 1.2-.1 2.3-.2 3.5-.2l5.9.1 5.3-.1h1.8c.8 0 1.6.1 2.3.2 5.2.8 8.7-2.1 12.1-5.2.7-.6 1.1-1.7 1.6-2.5-1.1-.4-2.1-1.2-3.2-1.2-3.6-.2-7.2-.1-10.7-.1zM687.1 384l5.9.1 5.3-.1-5.3.1c-2 .1-3.9-.1-5.9-.1zM471.9 375.3c-4.8 0-9.6-.2-14.4 0-2.7.1-5.4.8-8.1 1.3 2.9 2.5 5.7 5.1 8.7 7.4.7.5 2 .1 3.1.1 6.9 0 13.8-.3 20.7.1 4.9.3 7.8-2.2 10.6-5.4.6-.7.7-1.8 1.1-2.7-.9-.3-1.8-.9-2.8-.9-6.4 0-12.6.1-18.9.1zM363 123.9h29.099999999999998c2.8 0 4.1-.6 2-3.6-5.6-7.6-31.3-7.9-37-.4-.6.8-.9 1.8-1.4 2.7 1.1.4 2.1 1.2 3.2 1.2 1.3.1 2.7.1 4.1.1zM305.4 123.9c4 0 7.9.2 11.9-.1 1.8-.1 3.5-.7 5.2-1.3.6-.2 1.2-.4 1.7-.5l-1.8-1.8c-1.8-1.8-3.6-3.6-5.6-5.1-.8-.6-2.4-.1-3.7-.1-4.6 0-9.2.4-13.7-.1-5.1-.6-8.3 2-11.1 5.4-.6.7-.9 1.7-1.3 2.6.9.3 1.8.9 2.7.9 5.3.2 10.5.1 15.7.1zM324.2 122.1c-.6.2-1.2.3-1.7.5.6-.2 1.1-.4 1.7-.5zM525.9 124h23.8s7.9 0 11.9-.1c1.5 0 3-1.3 4.5-2.1-1.4-.8-2.7-2.4-4.1-2.4-16.1-.2-32.2-.2-48.3 0-1.4 0-2.8 1.6-4.1 2.4 1.5.7 2.9 2 4.4 2.1 4 0 8 .1 11.9.1zM525.9 124h23.8-11.9c-3.9-.1-7.9 0-11.9 0zM442.4 123.9c5.8.1 11.6 0 17.4 0 5.8 0 11.6.1 17.4 0l5.8-.1c1.7 0 3.3-1.4 5-2.1-1.6-.8-3.1-2.4-4.7-2.4-15.7-.2-31.4-.2-47 0-1.6 0-3.2 1.6-4.7 2.4 1.7.7 3.4 2 5.1 2 1.9.2 3.8.2 5.7.2zM459.8 123.9c-5.8 0-11.6.1-17.4 0 5.8.1 11.6 0 17.4 0 5.8 0 11.6.1 17.4 0-5.8.1-11.6 0-17.4 0zM153.4 123.9c5.8.1 11.6 0 17.4 0 8 0 15.9.1 23.9-.1 1.6 0 3.1-1.3 4.6-2-1.6-.9-3.2-2.4-4.8-2.4-15.7-.2-31.4-.2-47.1 0-1.4 0-2.8 1.5-4.2 2.3 1.5.8 2.9 2.1 4.4 2.1 1.9.1 3.9.1 5.8.1zM170.8 123.9c-5.8 0-11.6.1-17.4 0 5.8.1 11.6 0 17.4 0 8 0 15.9.1 23.9-.1-7.9.2-15.9.1-23.9.1zM264.9 123.8c1.4 0 2.7-1.6 4.1-2.4-1.5-.7-2.9-2-4.4-2.1-6.9-.2-13.8-.1-20.6-.1-5.3 0-10.6-.1-15.9 0l-5.3.1c-1.7.1-3.2 1.6-4.9 2.4 1.5.7 3 2 4.6 2 14.1.3 28.2.3 42.4.1z"/><path class="st1" d="M188.9 375.4c-5.8-.1-11.6 0-17.4 0-6 0-11.9-.1-17.9 0l-6 .1c-1.5 0-2.9 1.4-4.3 2.1 1.3.7 2.6 1.9 3.9 1.9 15.9.1 31.8.1 47.6 0 1.4 0 2.7-1.2 4.1-1.8-1.4-.8-2.9-2.2-4.3-2.2-1.8-.1-3.8-.1-5.7-.1zM590.3 375.5c-1.5 0-3 1.2-4.6 1.9 1.5.7 2.9 2.1 4.4 2.1 3.9.1 7.7.1 11.6.1h28.6l5.7-.1c1.8-.1 3.5-1.2 5.3-1.9-1.7-.7-3.4-2.1-5.1-2.1-15.3-.2-30.6-.2-45.9 0zM601.7 379.6h20.1-8.5-11.6z"/><path class="st2" d="M792.7 377.7c-1.4-1-2.7-2.3-4.1-2.3-15.4-.2-30.9-.2-46.3 0-.9 0-1.9.5-2.8 1.1-.4.2-.8.5-1.1.7l-.6.3.6.3.6.3c.6.4 1.1.7 1.7 1 .6.3 1.1.5 1.7.5 7.7.2 15.4.1 23.1.1 7.7 0 15.4.1 23.1-.1.8 0 1.6-.3 2.4-.6l1.2-.5 1.2-.5c-.3 0-.5-.1-.7-.3zM737.8 377.4l.6-.3-.6.3zM792.1 378.6l1.2-.5c-.4.1-.8.3-1.2.5z"/><path class="st1" d="M514.7 375.5c-1.3 0-2.6 1.4-3.9 2.1 1.3.7 2.7 1.9 4 1.9l5.8.1c5.8.1 11.6 0 17.4 0h17.8c2 0 4 0 5.9-.1 1.4 0 2.7-1.2 4-1.8-1.2-.8-2.4-2.2-3.5-2.2-15.8-.2-31.6-.2-47.5 0z"/><path class="st2" d="M222.5 375.3c-1.5 0-3.1 1.3-4.6 2.1 1.5.8 2.9 2.2 4.4 2.2 7.5.2 15 .1 22.5.1 5.5 0 11 .1 16.4 0l5.5-.1c1.5 0 3-1.3 4.5-2.1-1.4-.8-2.8-2.2-4.3-2.2-14.8-.1-29.6-.1-44.4 0z"/><path class="st1" d="M365.6 375.5c-1.4 0-2.8 1.5-4.2 2.3 1.4.6 2.8 1.7 4.2 1.7l5.5.1h16.5c5.6 0 11.3.1 16.9 0 1.9 0 3.8-.1 5.6-.1 1.4 0 2.8-1.5 4.2-2.3-1.4-.6-2.7-1.7-4.1-1.8-14.9-.1-29.8-.1-44.6.1z"/><path class="st2" d="M294.1 375.3c-1.6 0-3.1 1.3-4.6 2 1.6.8 3.3 2.2 5 2.3 1.8.1 3.6.1 5.5.1 5.5.1 11 0 16.4 0s11 .1 16.4 0c1.8 0 3.6-.1 5.5-.1 1.5 0 3-1.3 4.5-2-1.4-.8-2.8-2.3-4.2-2.3-14.8-.1-29.6-.1-44.5 0zM408.4 162.5c1.5-1.3 2.1-2.7 1.9-4l-.3-1-.6-1-.9-1-1.2-1c.2 2.7.6 5.4 1.1 8zM408.4 155.5l-1.2-1 1.2 1z"/><path class="st3" d="M218.1 188.3c.1-2.6.2-5.2.2-7.9-.9.6-1.5 1.3-2 1.9-.2.3-.3.6-.4.8 0 .1 0 .1-.1.2-.4 1.7.5 3.4 2.3 5z"/><path class="st2" d="M703.9 226.1l-5.5.7 5.7.6c-.2-.4-.2-.9-.2-1.3zM698.3 226.8l5.7.6-5.7-.6z"/><path class="st3" d="M732.7 344c.8-.8 1.6-1.6 2.5-2.4l.1-5.1c-.8 0-1.6 0-2.4-.1-.1 2.5-.2 5.1-.2 7.6z"/><path class="st2" d="M219.6 201.3c0-2.5-.1-5-.1-7.6-.7.6-1.2 1.3-1.6 1.9-1.1 2-.6 3.8 1.7 5.7zM339.9 159.9l.7-3.1-2.5-.3 1.8 3.4z"/><path class="st3" d="M414.3 180.2h-2l1.6 1.5.4-1.5zM414.3 180.2h-2 2z"/></svg>