<?xml version="1.0" encoding="UTF-8" standalone="no"?>
<svg width="700px" height="132px" viewBox="0 0 700 132" version="1.1" xmlns="http://www.w3.org/2000/svg" xmlns:xlink="http://www.w3.org/1999/xlink" xmlns:sketch="http://www.bohemiancoding.com/sketch/ns">
    <!-- Generator: Sketch 3.3.3 (12072) - http://www.bohemiancoding.com/sketch -->
    <title>smc-logo-jupyter</title>
    <desc>Created with Sketch.</desc>
    <defs></defs>
    <g id="Page-1" stroke="none" stroke-width="1" fill="none" fill-rule="evenodd" sketch:type="MSPage">
        <g id="smc-logo-jupyter" sketch:type="MSLayerGroup" transform="translate(-1.000000, -2.000000)">
            <g id="layer1" transform="translate(0.000000, 0.637820)" sketch:type="MSShapeGroup">
                <g id="g3315" transform="translate(0.090971, 0.874925)">
                    <rect id="rect3225-2-4-5" fill="#FFFFFF" x="0.909028758" y="0.487264239" width="319.999997" height="131.999998" rx="7.247725"></rect>
                    <rect id="rect3225-2-4" fill="#B1B1B1" x="0.909028758" y="0.487264239" width="700.000037" height="131.999998" rx="8.9091673"></rect>
                    <g id="g4199-9-5-9" transform="translate(6.255707, 6.693466)" fill="#FFFFFF" opacity="0.98999999">
                        <path d="M41.469106,0.699218086 C37.5294787,0.866216431 33.4946461,1.96909461 29.5015862,3.55929355 C20.3746074,7.19406474 15.4350464,15.9781131 14.8263316,22.6709675 C14.689375,24.1768597 14.7152837,25.5714197 14.7929562,26.9105289 C9.39716929,28.9000811 5.52754465,31.6422564 3.22658239,34.9521829 C0.683049867,38.6110725 0.128109959,42.8297457 0.953422212,46.5605598 C2.54345764,53.748272 8.62533246,59.5975209 15.6955345,60.0194851 L16.0632516,52.6843708 C15.117863,52.0205766 14.5255256,50.8973486 14.5255256,49.6224115 C14.5255256,47.5825768 16.1061154,45.921207 18.0689812,45.921207 C18.8310301,45.921207 19.5294839,46.1698203 20.1081396,46.5941533 L27.8301984,41.3451724 C27.8195012,41.2167205 27.7968231,41.1063573 27.7968231,40.9751058 C27.7968231,38.4944644 29.7220881,36.4663659 32.1091416,36.4663659 C32.5194123,36.4663659 32.903111,36.5568098 33.2791506,36.6682497 L42.037503,26.1029934 C41.6381863,25.5057401 41.4023553,24.7992004 41.4023553,24.01686 C41.4023553,21.9770253 42.9829451,20.3156555 44.9458109,20.3156555 C46.4880618,20.3156555 47.7968779,21.3449941 48.2886935,22.7718556 L75.7671885,23.7476815 C76.2778633,23.0890555 77.0627615,22.6709675 77.9400622,22.6709675 C79.4787296,22.6709675 80.7480836,23.9656084 80.7480836,25.5646364 C80.7480836,25.7296966 80.7067923,25.8781755 80.681226,26.0356988 L98.365075,48.5456975 C98.5366157,48.5112426 98.7187573,48.4789412 98.8999362,48.4789412 C100.438604,48.4789412 101.674529,49.7735821 101.674529,51.3726101 C101.674529,52.2598225 101.276335,53.0285963 100.671664,53.5597393 L102.510249,59.9527289 L103.212255,59.9527289 C112.959715,58.8147498 119.210649,51.4048039 120.461529,43.3982507 C121.821874,34.6909721 117.565716,24.87274 107.62486,21.1573229 C102.040181,19.0701127 97.4044108,19.1157654 93.6181817,20.0806089 C89.7958816,9.83222944 87.6288807,6.60510217 79.71179,3.22335877 C71.7947101,-0.158384633 60.0488261,2.19100537 55.9773235,5.5786707 C51.9549853,2.22244541 47.6130996,0.819810057 43.1406543,0.699756443 C42.5815959,0.684682447 42.0320153,0.676068735 41.4692129,0.699756443 L41.469106,0.699218086 Z M102.510142,59.9521905 C101.462392,59.9521905 100.946369,59.9518675 99.9361229,59.9521905 L101.540707,65.5039433 L97.3955321,59.9521905 C95.6211086,59.9528365 94.3877507,59.9521905 92.7154964,59.9521905 L94.1195071,61.83644 L90.7097668,71.7960447 L70.0507523,76.7758471 C69.7636281,76.258809 69.4062445,75.8255393 68.9810299,75.4299546 L72.791916,59.985784 L67.6438768,59.985784 L64.1672789,74.1176555 C63.9339831,74.1736446 63.7192685,74.2664574 63.4987024,74.3532405 L51.2971809,59.985784 C49.4202245,59.985784 46.7853697,60.015932 44.8119886,60.0191621 L60.2226774,78.1214166 C60.1879114,78.2546061 60.1475829,78.3881187 60.1224444,78.5251844 L26.0584706,82.3272769 C25.8268329,82.0801711 25.5464587,81.8601984 25.2561788,81.6880318 L36.1874049,64.292317 C36.4092333,64.3515363 36.6498459,64.3935282 36.8894103,64.3935282 C38.4280776,64.3935282 39.6640029,63.0987796 39.6640029,61.4998592 C39.6640029,60.9536422 39.5165523,60.4607225 39.2628569,60.0193774 L34.5159636,60.0193774 C34.2690182,60.4528625 34.1148177,60.9587028 34.1148177,61.4998592 C34.1148177,62.3861025 34.4806842,63.1558454 35.0842537,63.6868808 L25.8244688,78.4581051 L29.2342091,60.0193774 C28.3042566,60.0200235 27.6218272,60.0527556 26.6601895,60.0527556 L22.7824457,81.2842641 C21.7847262,81.4963767 20.9779844,82.1513419 20.4758567,83.0339243 L18.7709865,82.6974512 C18.7450992,81.5554883 18.0771111,80.5869841 17.1329741,80.1402554 L18.1692677,60.0527556 C17.2847249,60.0528633 16.9749547,60.0527556 16.0632516,60.0527556 C15.938875,60.0527556 15.8193335,60.0269144 15.6955345,60.0193774 L14.6592409,80.2413589 C13.7907761,80.7316944 13.1883726,81.6656362 13.1883726,82.7649612 C13.1883726,84.3638815 14.4577266,85.6586301 15.996394,85.6586301 C16.1204604,85.6586301 16.2443342,85.6414027 16.3641111,85.625252 L35.6859725,106.217408 C35.6795542,106.298161 35.6859725,106.370947 35.6859725,106.452993 C35.6859725,108.051913 36.9218978,109.346662 38.4605651,109.346662 C39.0275822,109.346662 39.5582394,109.144239 39.9982911,108.841898 L50.4615137,114.730232 C50.4420447,114.886678 50.4281383,115.039249 50.4281383,115.201294 C50.4281383,117.241021 52.0087281,118.902499 53.9715939,118.902499 C55.8338951,118.902499 57.3634056,117.398652 57.5150495,115.504066 L85.8961229,106.890354 C86.5438077,107.796301 87.5681097,108.404537 88.7375731,108.404537 C90.7004389,108.404537 92.3144575,106.743059 92.3144575,104.703332 C92.3144575,103.835932 92.0272477,103.045516 91.5455945,102.415315 L103.847402,74.2861613 C105.795003,74.2678571 107.390858,72.6468642 107.390858,70.6185503 C107.390858,68.8336815 106.168946,67.3290813 104.549408,66.9846405 L102.510249,59.9524058 L102.510142,59.9521905 Z M18.1692142,60.0534016 C21.7354655,60.0529709 23.488056,60.0534016 26.660136,60.0534016 L28.6658656,49.1853733 L21.5789544,50.0265023 C21.3997224,51.7081142 20.1432372,53.0643432 18.5369313,53.2903455 L18.1692142,60.0534016 L18.1692142,60.0534016 Z M29.2341556,60.0200235 L34.5159101,60.0200235 C34.9773349,59.2099038 35.7940787,58.6543194 36.7556415,58.6068363 L38.1262234,52.1801457 L34.9504849,48.4453477 L31.273314,48.882709 L29.2341556,60.0200235 L29.2341556,60.0200235 Z M39.2628035,60.0200235 L44.8119886,60.0200235 L39.1290881,53.3578555 L37.9590792,58.8087202 C38.5036428,59.0480737 38.9594409,59.4922183 39.2628035,60.0200235 L39.2628035,60.0200235 Z M51.2971809,59.9866453 C56.1907652,59.9758782 62.9916433,59.9974125 67.6438768,59.9866453 L72.9256314,38.5869541 L71.6219071,38.7552445 L56.5789354,44.5425824 C56.6299611,44.7618014 56.6791684,44.9799436 56.6791684,45.2155287 C56.6791684,46.814449 55.4098143,48.1091976 53.871147,48.1091976 C52.7950597,48.1091976 51.8949311,47.4558475 51.4308427,46.5277201 L40.9007624,47.7727245 L51.2971274,59.9866453 L51.2971809,59.9866453 Z M72.791916,59.9866453 C78.8471762,59.9758782 85.5964722,59.9586508 92.7154964,59.9532672 L77.7059535,40.0003566 L72.791916,59.9868607 L72.791916,59.9866453 Z M97.3955321,59.9532672 C98.3587957,59.9528365 98.9389918,59.9534825 99.9361229,59.9532672 L98.2646815,54.1659293 C98.2000703,54.1508553 98.1269013,54.1519321 98.0641086,54.1325512 L96.4929538,58.7758804 L97.3955321,59.9535902 L97.3955321,59.9532672 Z M48.2885865,25.2628334 C47.7910051,26.678497 46.4801458,27.68544 44.9457039,27.68544 C44.8172409,27.68544 44.7029304,27.6660591 44.5779868,27.6520619 L42.5388284,37.2416 L72.7584872,33.5740967 C73.3075544,32.3425512 74.3696604,31.4059176 75.6667951,31.0840878 L76.3353716,27.8876469 C75.8071641,27.4899087 75.4238611,26.9180659 75.2656492,26.2388747 L48.2885865,25.2631565 L48.2885865,25.2628334 Z M79.1768218,28.1565024 C79.0495784,28.2211052 78.9128892,28.2807552 78.7756759,28.3247928 L78.2073859,31.2857563 C79.8259615,31.9346919 80.9819784,33.5470711 80.9819784,35.4580232 C80.9819784,36.2055857 80.7914288,36.8903759 80.4805461,37.5104555 L95.5903755,57.5642541 L96.9943862,53.4592819 C96.4589366,52.931692 96.0918078,52.2004956 96.0918078,51.3731485 C96.0918078,50.8945491 96.2282402,50.4585876 96.4260961,50.0609571 L79.1768218,28.1565024 L79.1768218,28.1565024 Z M43.1071185,28.762154 L35.3850596,38.0488125 C35.4003567,38.0671166 35.4034588,38.0972646 35.418435,38.1155687 L41.2684795,37.3753278 L43.107065,28.7616157 L43.1071185,28.762154 Z M66.4738679,39.3611115 L41.4356772,42.4229632 L40.5665277,46.5616365 L51.0966079,45.3503333 C51.0944685,45.3040346 51.0966079,45.2620427 51.0966079,45.215744 C51.0966079,43.616716 52.3325331,42.3220751 53.8712005,42.3220751 C54.7485012,42.3220751 55.5333994,42.7401631 56.0440742,43.3987891 L66.4738679,39.3611115 L66.4738679,39.3611115 Z M40.1653818,42.5575524 L36.8224991,42.9613202 L39.4299476,46.056873 L40.1653818,42.5575524 L40.1653818,42.5575524 Z M28.7327232,43.7352622 L21.478668,48.6813634 C21.4872257,48.7158183 21.5045552,48.7481197 21.5120433,48.7825746 L28.8998139,47.9413379 L29.5349616,44.5093119 C29.2421892,44.2786798 28.9603923,44.0348041 28.7326697,43.7354776 L28.7327232,43.7352622 Z M31.9084617,45.4176279 L31.5073158,47.6383506 L34.0144778,47.3354709 L32.3764653,45.4176279 C32.2859668,45.428395 32.2009238,45.451006 32.1090347,45.451006 C32.0397167,45.451006 31.9769239,45.420858 31.9084617,45.4176279 L31.9084617,45.4176279 Z M95.0220854,63.04882 L99.9361229,69.5763988 L92.1472064,71.4606483 L95.0220854,63.04882 L95.0220854,63.04882 Z M100.203553,73.3448979 L89.0383255,98.8158601 L89.2723273,83.0016229 C90.4918216,82.77519 91.4117722,81.6759726 91.4117722,80.343539 C91.4117722,79.2780228 90.8016667,78.3633543 89.9409038,77.9209325 L90.7097668,75.6329152 L100.203553,73.3448979 L100.203553,73.3448979 Z M89.3057561,75.9693883 L88.7374661,77.6180528 C87.3283635,77.6546611 86.1968753,78.8703789 86.1968753,80.343539 C86.1968753,81.5665785 86.9641872,82.5977475 88.0354608,82.9343283 L87.7346013,101.171172 C86.8771974,101.438197 86.1461705,102.037819 85.6954429,102.819944 L70.1844676,99.3879183 C70.1844676,97.7888903 68.9485424,96.4942494 67.409875,96.4942494 C65.9134296,96.4942494 64.6677272,97.7150277 64.6018536,99.253329 L60.8578251,100.195454 L65.5378608,85.155051 C68.154327,85.0861413 70.2777688,83.094005 70.6859,80.4781283 L89.3057561,75.9693883 L89.3057561,75.9693883 Z M60.690681,82.2277886 C61.0294514,82.8736016 61.4818798,83.4500743 62.027834,83.9101542 L56.6123642,101.272168 L45.0794192,104.19943 L26.7938513,86.3327608 C26.8328962,86.2369332 26.8628484,86.1296925 26.8940843,86.0298811 L60.6906275,82.2277886 L60.690681,82.2277886 Z M19.539796,85.390636 L20.0412284,85.4918471 C20.0726783,85.6872707 20.1151463,85.8801102 20.1749437,86.0639053 L19.539796,85.390959 L19.539796,85.390636 Z M22.3478174,88.385193 C22.7105924,88.5149371 23.1126476,88.5870769 23.5178264,88.5870769 C23.599981,88.5870769 23.6710641,88.5590824 23.7518281,88.5536988 L39.1959458,103.69499 C38.9590558,103.627157 38.7182399,103.5604 38.4605116,103.5604 C37.9340905,103.5604 37.4430023,103.734074 37.0230721,103.997762 L22.3478174,88.3854084 L22.3478174,88.385193 Z M64.8358554,100.464632 C65.2519026,101.519489 66.2449259,102.281587 67.409875,102.281587 C68.537908,102.281587 69.4788573,101.567403 69.917037,100.56552 L83.6897134,103.661073 L57.2809407,111.63554 L60.4232504,101.608641 L64.8358554,100.464632 L64.8358554,100.464632 Z M56.1777895,102.685355 L53.4366257,111.568246 C53.2162201,111.603777 53.0065117,111.660843 52.801478,111.736428 L46.1491416,105.242551 L56.1777895,102.685355 L56.1777895,102.685355 Z M41.9036807,106.319265 L43.7088373,108.068925 L41.2351042,106.689331 C41.2404528,106.620422 41.2343019,106.557542 41.2351042,106.487448 L41.9036807,106.319265 L41.9036807,106.319265 Z" id="path5088-3-6-9"></path>
                    </g>
                    <g id="text3014" transform="translate(139.262641, 32.135709)" fill="#FFFFFF">
                        <g id="g3061" transform="translate(0.685093, 0.000000)">
                            <g id="text3031">
                                <path d="M9.12130152,0.521659905 C9.46127459,0.465004438 13.2012736,0.436676705 20.3412987,0.436676705 C27.4812566,0.436743833 31.2495968,0.465138693 31.6462924,0.521659905 C34.2529271,0.861726957 36.4345787,1.93839562 38.1913008,3.7516659 C39.9479156,5.56505701 40.9679153,7.74672208 41.2513,10.2966611 C41.4779085,11.9967144 41.0812531,13.3283864 40.0612936,14.2916636 C39.2679158,15.028386 38.3329126,15.3967137 37.2562977,15.3966734 C36.8595886,15.3967137 36.4912476,15.3683457 36.1513013,15.3116902 C35.4145924,15.0850818 34.8195891,14.7167407 34.3662917,14.2066938 C33.6862516,13.4700788 33.2895828,12.5350756 33.1762987,11.4016978 C33.1762585,11.0050827 33.1196433,10.6650827 33.0062921,10.381698 C32.7229208,9.58841407 32.1562587,9.05007974 31.3062925,8.766695 L30.9662926,8.59668833 L20.5112919,8.59668833 L9.97129459,8.59668833 L9.80130135,8.766695 C9.29128134,9.10674863 9.14961583,9.53174518 9.37629139,10.0416981 C9.48960232,10.1551433 14.5329456,16.6434024 24.5062942,29.5066904 C34.5362581,42.3700455 39.6362434,48.9150407 39.8062903,49.1416626 C40.5995742,50.3316959 41.0812531,51.6350401 41.2513,53.0516953 C41.5345774,55.3183167 41.0245842,57.4149717 39.7212937,59.3416603 C38.4179227,61.2116935 36.6612542,62.4300545 34.4513018,62.9967434 C33.8279171,63.1667098 33.0629207,63.2800208 32.156299,63.3366762 L22.0412982,63.3366762 C14.9579421,63.3366762 11.217943,63.3084828 10.8213011,63.2520958 C8.21461271,62.912163 6.03294772,61.8354406 4.27629269,60.022063 C2.51962423,58.2088195 1.49962449,56.0270471 1.21629347,53.4771483 C1.0462868,51.8903925 1.41461445,50.6155102 2.32128983,49.6520988 C2.83128299,49.0854099 3.45461393,48.7171494 4.19129607,48.5470487 C4.47461367,48.4342748 4.81461358,48.3770823 5.21129581,48.3770823 C6.28795101,48.3770823 7.22295413,48.7454771 8.01629174,49.4821324 C8.80961592,50.2187877 9.23461245,51.1820649 9.29129477,52.3720982 C9.34795023,52.8254762 9.4046057,53.165409 9.46130144,53.3920309 C9.8012745,54.1854759 10.36795,54.7238371 11.161301,55.0071144 L11.5013009,55.1770808 L21.9563016,55.1770808 L32.3262922,55.1770808 L32.5812955,55.0925004 C33.2045862,54.809223 33.3745929,54.3841728 33.0913021,53.8174839 C33.0912484,53.70471 28.047932,47.2159138 17.9612993,34.352505 C7.93128169,21.4325347 2.83128299,14.8592117 2.66130317,14.6324959 C1.6979589,13.1025432 1.21629347,11.4308847 1.21629347,9.61749363 C1.21629347,7.74755446 1.72628663,6.07589599 2.74629979,4.60250481 C4.27627926,2.27922793 6.40128879,0.919228227 9.12130152,0.522492283" id="path3761"></path>
                                <path d="M54.665421,17.6066662 C54.7787319,17.6067065 57.612069,17.6067065 63.1654188,17.6066662 C67.7553841,17.6067065 70.3620456,17.6349939 70.9854168,17.6916494 C71.6653764,17.6917031 72.3453762,17.7767669 73.0254163,17.9466527 C75.5187132,18.5700374 77.5870404,19.845027 79.2304248,21.7716485 C80.9303707,23.6416951 81.9220427,25.8516879 82.205414,28.4016537 C82.2053737,28.741694 82.3470392,32.3683553 82.6304239,39.2816513 C82.8570324,46.308312 83.027039,51.3800503 83.1404171,54.4966379 C83.253728,57.7833262 83.2820423,59.5400485 83.2254003,59.7666703 C83.1119551,60.7299475 82.6870257,61.5517203 81.9504107,62.2317201 C80.8170195,63.3083082 79.5136887,63.6200476 78.040405,63.1666696 C76.5670273,62.7132916 75.6320241,61.7216867 75.235409,60.1917206 C75.1787536,59.9649645 75.1502916,59.7949981 75.1504258,59.6816871 C75.1503856,59.5117207 75.1220981,59.4266033 75.0654427,59.4266033 C75.0654024,59.4266033 74.1020715,59.9932922 72.1754501,61.12667 C69.9087482,62.4300143 68.5770763,63.1383418 68.1804478,63.2516528 C67.9537454,63.3080397 65.5454182,63.3362332 60.9554395,63.3362332 L54.3254479,63.3362332 C53.7020902,63.2798462 53.0220903,63.1662668 52.2854485,62.9963004 C50.0754289,62.4296115 48.1770949,61.3245614 46.5904466,59.6812844 C44.7204403,57.7545957 43.6154305,55.4313189 43.275444,52.7111852 C43.2187886,52.201286 43.1904609,50.9545972 43.1904609,48.9712532 C43.1904474,46.9879091 43.2187886,45.7412203 43.275444,45.231254 C43.6154305,42.5679369 44.7204403,40.2729475 46.5904466,38.3462454 C48.4037705,36.4196105 50.6704321,35.2296175 53.3904448,34.7762529 L54.0704447,34.6912697 L62.9954524,34.6912697 L71.9204468,34.6912697 L72.6004466,34.7762529 C73.0537441,34.8895639 73.4220717,35.0029419 73.705443,35.1162529 C74.0454026,35.1729083 74.2154093,35.2012361 74.2154496,35.2012361 C74.272105,35.1445806 74.2437773,34.1529354 74.1304664,32.2262334 C74.0738109,30.2995984 74.0454832,29.194602 74.0454832,28.9112307 C73.7621119,27.4379335 72.8837777,26.4462749 71.4104805,25.9362415 L70.9004873,25.7662348 L62.6554928,25.6812516 C58.0654604,25.6812919 55.4871266,25.6812919 54.9204914,25.6812516 C54.3538025,25.6245961 53.8437959,25.4829575 53.3904851,25.256255 C52.3704719,24.7462887 51.662131,23.8962956 51.265489,22.7062489 C51.2088335,22.479627 51.1805058,22.1396271 51.1805058,21.6862491 C51.180479,21.1762962 51.2088335,20.7796274 51.265489,20.4962561 C51.4354688,19.9862898 51.6904721,19.5046243 52.0304854,19.0512463 C52.7104718,18.2579624 53.5888061,17.776297 54.6654881,17.60625 M72.0054837,43.0212478 L71.4954906,42.8512545 L63.165486,42.8512545 C57.6121361,42.8512679 54.7504713,42.8795822 54.5804915,42.9362377 C54.4104714,42.9362646 54.1837959,42.9645654 53.9004917,43.0212209 C52.653803,43.474572 51.8321376,44.3529063 51.4354822,45.6562103 L51.350499,46.0812605 L51.350499,48.9712263 L51.350499,51.9461753 L51.4354822,52.2862424 C51.8888065,53.7028975 52.7954685,54.637847 54.1554815,55.091225 C54.3821303,55.1476119 56.4221297,55.1758054 60.27548,55.1758054 L66.1404886,55.1758054 L70.4754908,52.7107556 C73.3654431,51.0108231 74.8104394,50.1608568 74.8104796,50.1608568 C74.8104394,50.1608568 74.7821519,49.480857 74.7254964,48.1208573 C74.668841,46.7608576 74.6121855,45.9392191 74.5555032,45.6558075 C74.3287874,44.8625101 73.9037908,44.210838 73.2805002,43.700818 C72.8837911,43.4175138 72.4587946,43.1908382 72.0054971,43.0208181" id="path3763"></path>
                                <path d="M98.0502557,17.6066662 C98.4468977,17.6067065 99.8919074,17.6067065 102.385258,17.6066662 C104.935224,17.5500107 106.46523,17.5783385 106.975264,17.6916494 C109.185229,17.9750341 111.140219,18.7400306 112.840259,19.9866523 C113.123549,20.2133681 113.775222,20.7800302 114.795262,21.6866519 L116.410264,23.0466516 L116.410264,22.0266518 C116.46692,21.2333679 116.580217,20.5816958 116.750264,20.0716489 C117.033555,19.2783649 117.600217,18.6266928 118.450264,18.1166594 C118.903548,17.8333686 119.413555,17.6633619 119.980257,17.6066528 C120.886879,17.4933418 121.736885,17.6633082 122.530263,18.1166594 C123.15354,18.4566996 123.635206,18.938365 123.975259,19.5616557 C124.08857,19.7883581 124.201881,20.0150337 124.315259,20.2416556 C124.42857,20.6383646 124.485212,21.6300233 124.485252,23.2166583 C124.541908,24.7466915 124.570236,31.6600143 124.570236,43.9566537 C124.570182,59.030015 124.541908,66.8216184 124.485252,67.3316519 C124.145212,69.9949958 123.068544,72.2616172 121.25526,74.1316504 C120.57522,74.8683057 119.21522,76.058339 117.175261,77.701616 C115.305214,79.2315821 113.123549,80.1383381 110.630253,80.4216154 L100.940262,80.4216154 L91.7602641,80.4216154 L91.4202641,80.337035 C90.5135753,80.0537576 89.7769066,79.5437242 89.210258,78.8070689 C88.7002514,78.0704136 88.4452481,77.248775 88.4452615,76.3420191 C88.4452481,75.4353974 88.7002514,74.6137588 89.210258,73.8771035 C89.7769066,73.1971037 90.5135753,72.715398 91.4202641,72.4321206 L91.7602641,72.3475402 L101.025258,72.2629598 L110.290253,72.2629598 L110.630253,72.1783793 C111.196888,72.0084129 112.160219,71.3284131 113.520259,70.1383798 C114.596887,69.2317581 115.276887,68.6084137 115.560258,68.2683466 C115.843549,67.9850693 116.070224,67.5883468 116.240258,67.0784476 L116.410264,66.5684141 L116.410264,60.5333987 C116.410224,59.2867099 116.410224,58.2667773 116.410264,57.4734665 C116.410224,56.6800214 116.410224,56.0566771 116.410264,55.6034333 C116.410224,55.1500553 116.410224,54.8384503 116.410264,54.6683496 C116.410224,54.4983832 116.381937,54.4417278 116.325281,54.4983832 C116.325241,54.4983832 115.815248,54.9234335 114.795288,55.7733997 C113.435248,56.9067776 112.556914,57.6151051 112.160286,57.8983825 C110.573584,58.9184494 108.788587,59.5701215 106.805284,59.8533988 C106.351919,59.9097858 104.906923,59.9379793 102.470281,59.9379793 C100.0336,59.9379793 98.5885901,59.9097858 98.1352926,59.8533988 C95.8119353,59.5701215 93.7719358,58.7483487 92.0152808,57.388349 C90.1452745,55.9150384 88.728606,54.6683496 87.7652886,53.648417 C86.2919377,52.1184509 85.3002791,50.3050732 84.790286,48.2084182 C84.6202793,47.5284183 84.5069415,46.8767462 84.4502861,46.2534018 C84.4502726,45.5734154 84.4502726,43.1650882 84.4502861,39.0283934 C84.4502726,34.098428 84.4502726,31.4350975 84.4502861,31.0384018 C84.7336037,28.2051049 85.8386134,25.7967643 87.7652886,23.8133934 C88.728606,22.7934339 90.1452745,21.5467719 92.0152808,20.0733942 C93.7719358,18.7134482 95.7835941,17.8917828 98.0502826,17.6083981 M106.210281,25.7683963 C105.926923,25.7117408 104.65192,25.6834131 102.385285,25.6834131 C100.118596,25.6834534 98.8719345,25.7117408 98.6452858,25.7683963 C98.1919347,25.8818415 97.7952659,26.0517676 97.4552928,26.2784029 C97.1152661,26.4484364 96.4352662,26.9867707 95.4152799,27.8933925 C94.0552668,29.0834392 93.2336015,29.9334323 92.9502839,30.4433986 C92.7802638,30.8400943 92.6669394,31.3217597 92.610284,31.8883949 C92.6102706,32.3984284 92.6102706,34.6934312 92.610284,38.7734035 C92.6102706,42.7967471 92.6102706,45.09175 92.610284,45.6583852 C92.6669394,46.1684186 92.7802638,46.6217966 92.9502839,47.0183849 C93.2336015,47.5284183 94.0552668,48.3783846 95.4152799,49.5684179 C96.831935,50.7584512 97.8235936,51.438451 98.3902825,51.6084174 L98.8152925,51.7783838 L102.470281,51.7783838 L106.125284,51.7783838 C106.465257,51.7219969 106.861926,51.5800897 107.31529,51.3533336 C107.598581,51.1833672 108.646922,50.3334009 110.460286,48.8034348 C112.273583,47.2734687 113.520245,46.1967464 114.200285,45.573402 C115.276914,44.6667534 115.956913,43.8450881 116.240285,43.1084059 L116.410291,42.5983993 L116.410291,38.7734035 L116.410291,34.8633976 L116.240285,34.5233977 C116.070251,33.9000936 115.815248,33.3901004 115.475288,32.9934048 C115.305241,32.8234249 114.001911,31.7184285 111.565283,29.6784021 C109.185256,27.581774 107.881925,26.4767641 107.65529,26.3633995 C107.201926,26.0234399 106.72026,25.8251055 106.210281,25.7683963" id="path3765"></path>
                                <path d="M140.099498,17.6066662 C140.49614,17.6067065 142.621136,17.6067065 146.474487,17.6066662 C150.724465,17.5500107 153.302786,17.6349939 154.209488,17.8616695 C156.079454,18.2583786 157.751112,19.0517162 159.22449,20.241669 C161.264449,21.9417089 162.596108,23.1317019 163.219492,23.8116615 C164.862783,25.5117014 165.91111,27.495032 166.364488,29.7616669 C166.534441,30.6117003 166.619438,33.1050241 166.619492,37.2416652 C166.619438,40.4150292 166.591164,42.2283532 166.534508,42.681664 C166.534455,43.0783597 166.421063,43.5033562 166.194508,43.9566671 C165.911124,44.523356 165.542796,44.9766803 165.089512,45.3166668 C164.69279,45.6566533 164.182796,45.9117371 163.559506,46.0817035 C163.33279,46.1380905 158.459467,46.1944775 148.939509,46.2516699 L134.574503,46.2516699 L134.659486,47.8666192 C134.659473,49.113308 134.772797,49.9634085 134.999486,50.4166522 C135.282804,50.9833412 136.104469,51.8333074 137.464496,52.9666852 C138.824468,54.1567185 139.787799,54.8650461 140.354488,55.091668 L140.779498,55.1762484 L151.999495,55.1762484 C158.176122,55.1762484 161.632777,55.2044419 162.369486,55.2608289 C163.106114,55.2608289 163.672776,55.3454093 164.069499,55.5159127 C164.806114,55.7991901 165.401117,56.3092235 165.854495,57.0458788 C166.307779,57.7258787 166.534441,58.462534 166.534495,59.2558448 C166.534441,60.2192562 166.222782,61.0975502 165.599492,61.890861 C164.976107,62.6275163 164.182783,63.0808943 163.219492,63.2508607 C162.936108,63.3072476 159.139453,63.3354411 151.829489,63.3354411 C144.51947,63.3354411 140.637806,63.3072476 140.184495,63.2508607 C137.861138,62.9675833 135.821138,62.1458106 134.064497,60.7858109 C132.194477,59.3125002 130.777808,58.0658115 129.814491,57.0458788 C127.944485,55.1191902 126.867816,52.7675856 126.584498,49.9907965 C126.527843,49.5942082 126.499515,46.4208308 126.499515,40.4708657 C126.499515,34.4642183 126.527843,31.2058979 126.584498,30.6958645 C126.924485,28.0325608 128.001154,25.7375714 129.814491,23.8108559 C130.494477,23.1308964 131.854477,21.9409033 133.89449,20.2408634 C135.651145,18.7675662 137.719472,17.8892454 140.099498,17.6058607 M152.679495,25.8508555 L152.339495,25.7658723 L146.72949,25.6808891 C142.762802,25.6809294 140.581137,25.7658723 140.184495,25.9358924 C139.731144,26.1059259 138.85281,26.7292569 137.549492,27.8058853 C136.416141,28.7692564 135.736141,29.3642597 135.509493,29.5908949 C135.226148,29.9875906 134.999473,30.4409149 134.829493,30.9508946 L134.659486,31.3758912 L134.659486,34.7758904 L134.574503,38.0908931 L146.55951,38.0908931 L158.459507,38.0908931 L158.459507,34.7758904 C158.459467,32.9059244 158.431179,31.8292558 158.374524,31.5458844 C158.374484,31.2059248 158.261079,30.809256 158.034524,30.3558914 C157.864477,30.0725872 157.694484,29.8175839 157.524517,29.5908949 C157.354484,29.3642597 156.702812,28.7692564 155.569515,27.8058853 C154.209488,26.672588 153.246144,26.0209293 152.679522,25.8508823" id="path3767"></path>
                                <path d="M173.999389,30.0166702 L173.999389,0.43666328 L179.014391,0.43666328 L184.11439,0.43666328 L184.709393,1.20167318 C185.049366,1.76838895 186.6077,4.03506406 189.384396,8.00167168 C192.217692,11.9683867 193.69103,14.0650551 193.804394,14.2916636 L194.059384,14.5466669 L198.98939,7.49166508 L203.919395,0.43666328 L209.019394,0.43666328 L214.119393,0.43666328 L214.119393,30.1866634 C214.119339,50.0767194 214.091065,60.1066165 214.034409,60.2767172 C213.637687,61.5232717 212.901018,62.4016999 211.824403,62.9117334 C210.804363,63.4216326 209.756022,63.4782881 208.679407,63.0816998 C208.169361,62.9117334 207.716023,62.6283218 207.319408,62.2317335 C206.752692,61.7217001 206.327695,61.0417002 206.044405,60.191734 C205.987749,60.0216333 205.959422,51.8899629 205.959422,35.7966689 L205.959422,11.7416709 L202.049416,17.3516629 L198.054413,22.9616684 L198.054413,24.1516614 C198.054387,25.5117014 197.88438,26.5033734 197.54442,27.1266641 C197.20438,27.6366976 196.751056,28.0900353 196.184421,28.4866638 C195.391056,28.9966973 194.512722,29.1950317 193.549418,29.081667 C192.92606,29.0250116 192.387726,28.8550317 191.934415,28.5716604 C191.141064,28.0617075 190.574389,27.4100354 190.234415,26.6166709 C190.064395,26.1067046 189.979399,25.3417081 189.979412,24.3216681 L189.894429,22.8766718 L185.984437,17.3516629 L182.159428,11.8266675 L182.074444,35.8816655 C182.074431,51.9749461 182.046117,60.1066165 181.989461,60.2767172 C181.649434,61.5232717 180.941107,62.4016999 179.864452,62.9117334 C178.787783,63.4216326 177.711114,63.4782881 176.634459,63.0816998 C176.124453,62.9117334 175.642774,62.5999941 175.189463,62.1466161 C174.736112,61.6367169 174.424453,61.1550112 174.25446,60.7016332 C174.084453,60.3050449 173.999443,59.1150116 173.999457,57.1316675 C173.999443,55.091668 173.999443,46.0533758 173.999457,30.0166702" id="path3769"></path>
                                <path d="M227.523619,17.6066662 C227.63693,17.6067065 230.470254,17.6067065 236.023617,17.6066662 C240.613582,17.6067065 243.220244,17.6349939 243.843615,17.6916494 C244.523574,17.6917031 245.203574,17.7767669 245.883614,17.9466527 C248.376911,18.5700374 250.445238,19.845027 252.088609,21.7716485 C253.788569,23.6416951 254.780227,25.8516879 255.063612,28.4016537 C255.063572,28.741694 255.205237,32.3683553 255.488608,39.2816513 C255.71523,46.308312 255.885237,51.3800503 255.998615,54.4966379 C256.111926,57.7833262 256.140227,59.5400485 256.083598,59.7666703 C255.970153,60.7299475 255.545224,61.5517203 254.808595,62.2317201 C253.675217,63.3083082 252.371887,63.6200476 250.898603,63.1666696 C249.425225,62.7132916 248.490222,61.7216867 248.093594,60.1917206 C248.036938,59.9649645 248.00861,59.7949981 248.00861,59.6816871 C248.00857,59.5117207 247.980283,59.4266033 247.923627,59.4266033 C247.923587,59.4266033 246.960256,59.9932922 245.033621,61.12667 C242.766919,62.4300143 241.435261,63.1383418 241.038632,63.2516528 C240.81193,63.3080397 238.403589,63.3362332 233.813624,63.3362332 L227.183632,63.3362332 C226.560275,63.2798462 225.880275,63.1662668 225.143633,62.9963004 C222.933613,62.4296115 221.035279,61.3245614 219.448631,59.6812844 C217.578611,57.7545957 216.473615,55.4313189 216.133629,52.7111852 C216.076973,52.201286 216.048645,50.9545972 216.048645,48.9712532 C216.048632,46.9879091 216.076973,45.7412203 216.133629,45.231254 C216.473615,42.5679369 217.578611,40.2729475 219.448631,38.3462454 C221.261942,36.4196105 223.528617,35.2296175 226.248629,34.7762529 L226.928629,34.6912697 L235.853624,34.6912697 L244.778631,34.6912697 L245.458631,34.7762529 C245.911915,34.8895639 246.280256,35.0029419 246.563628,35.1162529 C246.903587,35.1729083 247.07358,35.2012361 247.073621,35.2012361 C247.130276,35.1445806 247.101948,34.1529354 246.988638,32.2262334 C246.931982,30.2995984 246.903654,29.194602 246.903654,28.9112307 C246.620283,27.4379335 245.741949,26.4462749 244.268652,25.9362415 L243.758658,25.7662348 L235.51365,25.6812516 C230.923632,25.6812919 228.345298,25.6812919 227.778649,25.6812516 C227.211974,25.6245961 226.701967,25.4829575 226.248656,25.256255 C225.22863,24.7462887 224.520302,23.8962956 224.12366,22.7062489 C224.067005,22.479627 224.038677,22.1396271 224.038677,21.6862491 C224.038663,21.1762962 224.067005,20.7796274 224.12366,20.4962561 C224.29364,19.9862898 224.54863,19.5046243 224.888657,19.0512463 C225.56863,18.2579624 226.446964,17.776297 227.523659,17.60625 M244.863655,43.0212478 L244.353648,42.8512545 L236.023657,42.8512545 C230.470294,42.8512679 227.608629,42.8795822 227.438649,42.9362377 C227.268629,42.9362646 227.041967,42.9645654 226.758649,43.0212209 C225.511974,43.474572 224.690309,44.3529063 224.293653,45.6562103 L224.20867,46.0812605 L224.20867,48.9712263 L224.20867,51.9461753 L224.293653,52.2862424 C224.746964,53.7028975 225.65364,54.637847 227.013653,55.091225 C227.240301,55.1476119 229.280301,55.1758054 233.133651,55.1758054 L238.99866,55.1758054 L243.333649,52.7107556 C246.223614,51.0108231 247.66861,50.1608568 247.668651,50.1608568 C247.66861,50.1608568 247.640323,49.480857 247.583668,48.1208573 C247.527012,46.7608576 247.470222,45.9392191 247.413661,45.6558075 C247.186958,44.8625101 246.761962,44.210838 246.138671,43.700818 C245.741962,43.4175138 245.316966,43.1908382 244.863668,43.0208181" id="path3771"></path>
                                <path d="M267.024775,3.92167258 C267.648093,3.80836165 268.271424,3.83668938 268.894782,4.00665578 C269.064761,4.06331125 269.319751,4.17671616 269.659778,4.3466557 C270.453089,4.74337822 271.048092,5.33838145 271.444774,6.13165195 C271.671423,6.58504336 271.784747,7.03838107 271.784774,7.49165165 C271.84143,7.88837417 271.869757,9.5317049 271.869757,12.4216573 L271.869757,17.5216562 L280.199762,17.6066394 L288.529766,17.6066394 L288.869766,17.6916226 C290.059719,18.0883451 290.909726,18.7966727 291.419759,19.8166322 C291.70305,20.3266656 291.844715,20.9216688 291.844769,21.6016284 C291.844715,22.2816685 291.70305,22.9049995 291.419759,23.4716213 C290.909726,24.4916613 290.059719,25.2000023 288.869766,25.5966309 L288.529766,25.6816141 L280.199762,25.6816141 L271.869757,25.6816141 L271.954741,38.8566145 L271.954741,52.0315478 L272.124734,52.4565981 C272.351382,53.2499089 272.748038,53.8732533 273.31474,54.3266312 C273.711382,54.6099086 274.136379,54.8366647 274.589743,55.0066311 L275.099736,55.1765975 L279.774739,55.1765975 L284.364731,55.1765975 C284.761359,55.1202105 285.186369,54.9783034 285.639734,54.7515472 C286.716362,54.1849926 287.42469,53.2782366 287.764743,52.0315478 C287.991365,51.0682707 288.331365,50.3032876 288.784743,49.7365987 C289.691365,48.6600106 290.85303,48.2066326 292.269739,48.376599 C293.403023,48.5465654 294.309684,49.0849266 294.989738,49.9915483 C295.726353,50.8983043 296.009684,51.8899092 295.839731,52.9666315 C295.386353,56.0833535 293.913029,58.6332522 291.419732,60.6165963 C289.83303,61.9199405 288.076362,62.741579 286.14974,63.0816461 C285.299693,63.2516125 283.061373,63.3365957 279.434739,63.3365957 L274.504733,63.3365957 L273.824733,63.1666293 C271.161376,62.6565958 268.951383,61.4948903 267.194742,59.6816468 C265.324722,57.7549582 264.219726,55.4316813 263.879739,52.7115477 C263.823084,52.2016485 263.794756,47.5832882 263.794756,38.8566145 L263.794756,25.6816141 L261.414757,25.6816141 C259.884737,25.6816544 259.006403,25.6532863 258.779754,25.5966309 C257.873079,25.3133267 257.13641,24.8316613 256.569748,24.1516211 C256.059741,23.4150061 255.804738,22.5933407 255.804751,21.686625 C255.804738,20.7233344 256.059741,19.9016691 256.569748,19.2216289 C257.13641,18.4850005 257.873079,17.9750073 258.779754,17.6916226 C259.006403,17.6349671 259.884737,17.6066394 261.414757,17.6066394 L263.794756,17.5216562 L263.794756,12.4216573 C263.794729,9.5317049 263.794729,7.88837417 263.794756,7.49165165 C263.851411,7.03838107 263.993064,6.58504336 264.219753,6.13165195 C264.786401,4.94171263 265.721404,4.20504389 267.024748,3.92165915" id="path3773"></path>
                                <path d="M301.168996,0.521659905 C301.735658,0.408348972 302.330648,0.436676705 302.954006,0.606643104 C303.123986,0.663432825 303.378989,0.748362322 303.719003,0.861632979 C304.512313,1.25836892 305.107316,1.88169988 305.503999,2.73163928 C305.730647,3.18503069 305.843985,3.75169276 305.843999,4.4316389 C305.900654,5.11169245 305.928982,8.34169845 305.928982,14.1216435 L306.013965,24.4066378 L310.008954,21.8566451 C312.72894,20.1000169 314.343929,19.0800171 314.853963,18.7966458 C316.100598,18.1733551 317.460597,17.7766863 318.933962,17.6066394 C319.443928,17.5499839 320.747259,17.5499839 322.843954,17.6066394 C324.997251,17.6066796 326.243926,17.6349671 326.583966,17.6916226 C329.303925,18.1450005 331.598915,19.335007 333.468961,21.2616285 C335.395583,23.2449994 336.528907,25.6249989 336.86896,28.4016269 C336.868907,28.6849982 337.038913,33.7283282 337.378954,43.5316303 C337.718913,53.27825 337.888907,58.4632992 337.88896,59.0866436 C337.888907,59.5966771 337.860632,59.9932653 337.803977,60.2766769 C337.577261,61.2399541 337.067255,62.0049372 336.273971,62.5716261 C335.480593,63.138315 334.602259,63.3932646 333.638968,63.3366091 C332.732266,63.2802222 331.938928,62.9683486 331.258969,62.4016597 C330.578929,61.8349708 330.125604,61.0983154 329.898969,60.1916937 C329.842314,59.9649376 329.643939,54.7800227 329.303979,44.6366267 C328.963939,34.4366558 328.765605,29.1949914 328.708976,28.9116201 C328.425605,27.4383229 327.54727,26.4466643 326.073973,25.9366308 L325.56398,25.7666241 L322.588978,25.7666241 C320.378945,25.7666644 319.018945,25.8800693 318.508979,26.106624 C318.282276,26.219935 316.128952,27.5800018 312.04898,30.1866231 L306.013978,34.096629 L305.928995,47.0166127 C305.928982,54.3266447 305.900667,58.378316 305.844012,59.1716268 C305.843999,59.9649376 305.730701,60.588282 305.504012,61.04166 C305.10733,61.8916262 304.512327,62.5149706 303.719016,62.9116931 C302.642334,63.4215923 301.565665,63.4782478 300.48901,63.0816595 C299.979003,62.9116931 299.497338,62.5999538 299.044014,62.1465758 C298.420669,61.5232314 298.024001,60.7865761 297.854021,59.9366099 C297.854007,59.6533325 297.854007,50.303301 297.854021,31.8866228 C297.854007,13.4700116 297.854007,4.12002041 297.854021,3.83662225 C298.024001,3.04335175 298.420669,2.33502416 299.044014,1.71162608 C299.667331,1.08834882 300.375672,0.691693431 301.16901,0.521619628" id="path3775"></path>
                                <path d="M363.39031,0.521659905 C363.900276,0.465004438 366.846951,0.436676705 372.230307,0.436676705 C377.613597,0.436743833 380.418593,0.465138693 380.645309,0.521659905 C381.608599,0.691733707 382.401937,1.17339915 383.025308,1.96666965 C383.648599,2.7033921 383.960257,3.55339862 383.960311,4.51666238 C383.960257,5.31005371 383.733595,6.07506361 383.280311,6.81166523 C382.826933,7.49171878 382.23193,7.97338422 381.495315,8.25666155 C381.098593,8.42672193 380.616927,8.54005971 380.050305,8.59666148 C379.483603,8.59671518 376.933597,8.59671518 372.400314,8.59666148 C366.960275,8.59671518 364.126952,8.62512347 363.900316,8.68164468 C363.050283,8.96502941 362.341955,9.44669485 361.775307,10.126641 C361.605287,10.3533568 360.75528,12.0250287 359.225314,15.1416433 C355.258626,22.9616818 353.105289,27.268343 352.765316,28.0616404 C352.481958,28.6850116 352.283623,29.4216804 352.170313,30.2716466 C352.113657,30.6683423 352.085329,31.2066766 352.085329,31.8866362 C352.085303,32.5666763 352.113657,33.1049972 352.170313,33.5016392 C352.283623,34.3516726 352.481958,35.0883413 352.765316,35.7116454 C353.105289,36.5049965 355.258626,40.8399989 359.225314,48.7166929 C360.75528,51.7766251 361.605287,53.4200364 361.775307,53.6466582 C362.341955,54.3266581 363.050283,54.8083638 363.900316,55.0916411 C364.126952,55.1480281 366.960275,55.1762216 372.400314,55.1762216 C376.933597,55.1762216 379.483603,55.2044151 380.050305,55.260802 C380.616927,55.260802 381.098593,55.3453825 381.495315,55.5158859 C382.23193,55.7991632 382.826933,56.3091967 383.280311,57.045852 C383.733595,57.7258518 383.960257,58.4625071 383.960311,59.2558179 C383.960257,60.2192294 383.648599,61.0975233 383.025308,61.8908341 C382.401937,62.6274894 381.608599,63.0808674 380.645309,63.2508338 C380.361937,63.3072208 377.556941,63.3354143 372.230307,63.3354143 C366.960275,63.3354143 364.09861,63.3072208 363.645313,63.2508338 C359.678625,62.7974558 356.646953,60.8709015 354.550312,57.4709022 C354.380292,57.1874906 352.850299,54.1842139 349.960306,48.4608035 C347.0703,42.6808585 345.540308,39.5641903 345.370314,39.1108391 C344.690301,37.5241907 344.236963,35.8241911 344.010315,34.0108403 C343.953659,33.5008605 343.925331,32.7925329 343.925331,31.8858307 C343.925318,30.9791955 343.953659,30.2708679 344.010315,29.7608345 C344.236963,27.9475374 344.690301,26.2475377 345.370314,24.6608356 C345.540308,24.2075382 347.0703,21.1192111 349.960306,15.395841 C352.850299,9.61588258 354.380292,6.58422441 354.550312,6.30083968 C356.646953,2.95756302 359.593615,1.03090125 363.39031,0.520827526" id="path3777"></path>
                                <path d="M390.287102,0.521659905 C390.457082,0.465004438 392.723757,0.436676705 397.0871,0.436676705 C400.770404,0.493466426 402.838744,0.521794159 403.292109,0.521659905 C403.802075,0.521727032 404.283741,0.635105092 404.737105,0.86165983 C405.813733,1.42838902 406.522074,2.30672328 406.862101,3.4966626 C406.918757,3.72339187 406.947084,12.3933832 406.947084,29.5066636 L406.947084,55.1766512 L411.282087,55.1766512 L415.617089,55.2612316 L415.957089,55.3458121 C417.147041,55.6858791 417.997048,56.3942067 418.507095,57.4709291 C418.790372,57.9808283 418.932038,58.5758449 418.932091,59.2558448 C418.932038,59.9358446 418.790372,60.5308613 418.507095,61.0408947 C417.997048,62.1174828 417.147041,62.8258104 415.957089,63.1658775 L415.532092,63.3358439 L402.867085,63.3358439 L390.287089,63.3358439 L389.862092,63.1658775 C388.955403,62.9392556 388.218748,62.4575499 387.652086,61.7208946 C387.142079,60.9842393 386.887076,60.1624665 386.887089,59.2558448 C386.887076,58.3492231 387.142079,57.5559123 387.652086,56.8759124 C388.218748,56.1392571 388.955403,55.6292237 389.862092,55.3458121 L390.202092,55.2612316 L394.537094,55.1766512 L398.872083,55.1766512 L398.872083,31.886663 L398.872083,8.59666148 L394.537094,8.59666148 L390.202092,8.59666148 L389.862092,8.42666823 C388.78541,8.1433909 387.963745,7.54838767 387.397096,6.64167198 C386.830407,5.6783948 386.688742,4.65839502 386.972086,3.58167265 C387.142079,2.78838872 387.538748,2.10838887 388.162093,1.5416731 C388.78541,0.97506474 389.493738,0.635064815 390.287089,0.521659905" id="path3779"></path>
                                <path d="M431.586989,17.6066662 C431.926962,17.6067065 434.136955,17.6067065 438.21698,17.6066662 C442.296953,17.6067065 444.506945,17.6349939 444.846985,17.6916494 C445.696952,17.8050946 446.490276,18.0033619 447.226985,18.2866526 C448.530275,18.7966995 449.663613,19.4200305 450.626984,20.1566589 C452.553605,21.8000299 453.828608,22.9333541 454.45198,23.5566582 C456.491939,25.5400291 457.681932,27.9766841 458.021985,30.8666498 C458.078641,31.3200144 458.106969,34.5500204 458.106969,40.5566544 C458.106928,46.5066061 458.078641,49.736639 458.021985,50.2466724 C457.625276,53.0233273 456.43527,55.4033939 454.45198,57.3866037 C453.828608,58.0099481 452.553605,59.1149982 450.626984,60.7016198 C449.210275,61.8349976 447.538617,62.6283084 445.611982,63.0816864 C444.761949,63.2516528 442.240284,63.336636 438.046987,63.336636 C433.853624,63.336636 431.303631,63.2520555 430.396982,63.0816864 C428.640301,62.6849639 427.025298,61.9199808 425.551987,60.786603 C423.681967,59.3132923 422.265312,58.0666036 421.301981,57.0466709 C419.431975,55.1199823 418.355307,52.7683777 418.071989,49.9915886 C418.015333,49.5950003 417.987006,46.4216229 417.987006,40.4716578 C417.986992,34.4650104 418.015333,31.2066901 418.071989,30.6966566 C418.411975,28.0333529 419.488644,25.7383635 421.301981,23.8116481 C422.378637,22.6783642 423.823633,21.4316889 425.636984,20.0716489 C427.33697,18.7683583 429.3203,17.946693 431.586989,17.6066528 M444.081989,25.8516476 C443.911955,25.7949921 441.928625,25.7383367 438.131984,25.6816544 C434.221965,25.6816946 432.068627,25.7666375 431.671985,25.9366577 C431.218634,26.1066912 430.821966,26.3050256 430.481979,26.5316474 C430.311959,26.7016944 429.716969,27.2400287 428.696983,28.1466504 C427.790294,28.9400149 427.195304,29.4783493 426.911987,29.7616534 C426.685298,30.0450248 426.486963,30.4416802 426.316983,30.9516599 L426.14699,31.3766564 L426.14699,40.3866477 C426.146963,45.4300046 426.146963,48.2633283 426.14699,48.8866727 C426.203646,49.5100171 426.31697,50.0200506 426.48699,50.4166388 C426.770308,50.9833277 427.591973,51.833294 428.951986,52.9666718 C430.141966,53.9866045 430.878634,54.5816211 431.161992,54.7515875 C431.61529,54.9783436 432.068627,55.1199823 432.521992,55.1766378 L438.046987,55.1766378 L443.486986,55.1766378 C443.940283,55.1202508 444.336952,55.0066714 444.676979,54.836705 C445.073621,54.6666043 445.923614,54.0149322 447.226985,52.8816886 C448.246944,52.0317224 448.870275,51.4650335 449.096991,51.1816219 C449.380282,50.8983445 449.606944,50.501622 449.776991,49.9915886 L449.946984,49.4816894 L449.946984,40.4716578 C449.946944,34.5216792 449.918656,31.4333522 449.862001,31.2066498 C449.691954,30.6400146 449.436964,30.1300214 449.097005,29.6766568 C449.040349,29.5633459 448.445292,29.025025 447.311995,28.0616538 C446.235299,27.0983498 445.5553,26.5316877 445.271995,26.3616542 C444.931969,26.1350189 444.5353,25.9650257 444.082002,25.8516476" id="path3781"></path>
                                <path d="M463.436207,17.6066662 C463.9462,17.4933553 464.512862,17.521683 465.136207,17.6916494 C466.609531,18.1450274 467.572862,19.1366994 468.026213,20.6666521 C468.082868,20.9500234 468.281189,26.1916878 468.621202,36.3916587 C468.961189,46.5350681 469.159523,51.7483108 469.216206,52.0315881 C469.499523,53.505033 470.377858,54.4966379 471.851208,55.0066714 L472.361215,55.1766378 L475.336204,55.1766378 C477.546183,55.1766378 478.877842,55.0638639 479.331206,54.836705 C479.614511,54.7239311 481.796176,53.3633943 485.876215,50.7567059 L491.996213,46.76169 L491.996213,34.0116592 C491.996173,27.1550187 491.996173,23.2450263 491.996213,22.2816551 C492.052869,21.3183645 492.137839,20.6383646 492.251203,20.2416556 C492.364514,20.0150337 492.477838,19.7883581 492.591203,19.5616557 C492.931163,18.938365 493.412828,18.4566996 494.036213,18.1166594 C494.489497,17.8333686 494.999503,17.6633619 495.566206,17.6066528 C496.472827,17.4933418 497.322834,17.6633082 498.116212,18.1166594 C498.739489,18.4566996 499.221154,18.938365 499.561208,19.5616557 C499.844499,20.0150337 500.014492,20.4966991 500.071215,21.006652 C500.12787,21.2900233 500.156198,27.8633597 500.156198,40.7266477 C500.156144,53.5900162 500.12787,60.1066031 500.071215,60.2767038 C499.844499,60.9000482 499.561154,61.4099474 499.221208,61.8066699 C498.654492,62.5433252 497.946165,62.9967032 497.096212,63.1666696 C496.019503,63.4499469 494.999503,63.3083082 494.036213,62.7416193 C493.186166,62.2883756 492.619504,61.6367035 492.336213,60.786603 C492.166166,60.3333592 492.052829,59.454931 491.996213,58.151721 L491.996213,56.4516543 L487.916214,59.0866705 C484.629513,61.1833255 482.504517,62.3733588 481.541213,62.6566361 C480.691179,62.9400477 479.841186,63.1383418 478.991207,63.2516528 C478.481187,63.3080397 477.149515,63.3362332 474.996204,63.3362332 C472.899522,63.3362332 471.681188,63.3080397 471.341215,63.2516528 C468.56452,62.7416193 466.269531,61.5517203 464.456207,59.6816871 C462.529532,57.6416876 461.396194,55.2332932 461.056208,52.4566384 C461.056194,52.1167056 460.886201,47.073295 460.546215,37.3266484 C460.206201,27.5800287 460.036195,22.4233609 460.036208,21.8566586 C460.036195,21.1200301 460.149519,20.4966991 460.376208,19.9866523 C460.94287,18.6833617 461.96287,17.8900375 463.436207,17.6066528" id="path3783"></path>
                                <path d="M538.149862,0.521659905 C538.716484,0.408348972 539.311487,0.436676705 539.934872,0.606643104 C540.50148,0.720088291 541.011487,0.975037889 541.464865,1.37163958 C542.144824,1.93836877 542.62649,2.64669636 542.909861,3.49663575 C542.966517,3.72336502 542.994844,13.186694 542.994844,31.8866362 C542.994791,50.5865918 542.938189,60.0499342 542.824838,60.2766903 C542.768182,60.5033122 542.683118,60.7582618 542.569834,61.0416734 C542.173125,61.8916396 541.549794,62.514984 540.699842,62.9117065 C539.679788,63.4216057 538.631461,63.4782612 537.554846,63.0816729 C537.044799,62.9117065 536.563133,62.5999672 536.109836,62.1465892 C535.259803,61.296623 534.834793,60.1632452 534.834833,58.74659 C534.834793,58.1800353 534.834793,57.8966237 534.834833,57.8966237 C534.834793,57.8966237 534.296472,58.3500017 533.219843,59.2566234 C532.143135,60.1065897 531.519804,60.6166231 531.349837,60.7865895 C529.593142,62.1465892 527.553142,62.968362 525.229839,63.2516393 C524.776474,63.3080263 523.331478,63.3362198 520.894837,63.3362198 C518.458155,63.3362198 517.013145,63.3080263 516.559834,63.2516393 C514.23649,62.968362 512.196491,62.1465892 510.439836,60.7865895 C508.56983,59.3132789 507.153161,58.0665901 506.189844,57.0466575 C504.319824,55.1199689 503.214828,52.7683643 502.874841,49.9915751 C502.818186,49.5383314 502.789858,46.364954 502.789858,40.4716444 C502.846513,34.5216658 502.903169,31.320001 502.959851,30.8666364 C503.299838,28.0900084 504.376506,25.7383501 506.189857,23.8116346 C507.153175,22.7916751 508.569843,21.5450132 510.439849,20.0716355 C511.913173,18.9383516 513.528163,18.2016829 515.284858,17.8616427 C516.191493,17.6350208 518.061499,17.521683 520.89485,17.5216427 C523.38816,17.521683 524.889825,17.5782982 525.399859,17.691636 C527.609825,17.9750207 529.564814,18.7400172 531.264854,19.9866388 C531.548145,20.2133547 532.199817,20.7800167 533.219857,21.6866385 L534.834846,23.0466382 L534.834846,13.4416436 C534.834806,7.03836765 534.863174,3.75169276 534.91983,3.5816458 C535.20312,2.78836187 535.628117,2.13670318 536.194833,1.62664288 C536.761454,1.06003451 537.413113,0.691706856 538.149822,0.521633054 M524.634822,25.7666375 C524.351464,25.7099821 523.076461,25.6816544 520.809827,25.6816544 C518.543138,25.6816946 517.296463,25.7099821 517.069827,25.7666375 C516.616476,25.8800827 516.219808,26.0500089 515.879821,26.2766441 C515.539808,26.4466777 514.859808,26.985012 513.839822,27.8916337 C512.479808,29.0816805 511.658143,29.9316736 511.374826,30.4416399 C511.204805,30.8950044 511.091481,31.4333388 511.034826,32.0566429 C511.034812,32.6233318 511.034812,35.4283412 511.034826,40.4716444 C511.034812,45.4583189 511.034812,48.2633149 511.034826,48.8866593 C511.091481,49.5100037 511.204805,50.0200371 511.374826,50.4166254 C511.658143,50.9833143 512.479808,51.8332806 513.839822,52.9666584 C515.256477,54.2133472 516.248135,54.9216747 516.814824,55.0916411 L517.239821,55.1762216 L520.894823,55.1762216 L524.464829,55.1762216 C524.861457,55.1198346 525.258126,54.9779274 525.654822,54.7511713 C525.994795,54.6383974 527.128132,53.7312387 529.054821,52.0311719 C530.754794,50.614651 531.973114,49.5945841 532.709823,48.9712397 C533.729783,48.064618 534.381455,47.2429795 534.664826,46.5061899 L534.83482,46.0812739 L534.83482,40.4712416 L534.83482,34.8612361 L534.664826,34.5212362 C534.494779,33.8979321 534.23979,33.3879389 533.89983,32.9912433 C533.729783,32.8212634 532.426452,31.716267 529.989824,29.6762406 C527.609798,27.5796125 526.306454,26.4746026 526.079832,26.361238 C525.626467,26.0212784 525.144788,25.822944 524.634822,25.7662348" id="path3785"></path>
                            </g>
                        </g>
                    </g>
                </g>
            </g>
        </g>
    </g>
</svg>