<?xml version="1.0" encoding="utf-8"?>
<!-- Generator: Adobe Illustrator 19.2.1, SVG Export Plug-In . SVG Version: 6.00 Build 0)  -->
<svg version="1.1" id="Layer_1" xmlns="http://www.w3.org/2000/svg" xmlns:xlink="http://www.w3.org/1999/xlink" x="0px" y="0px"
	 viewBox="0 0 144 82" style="enable-background:new 0 0 144 82;" xml:space="preserve">
<style type="text/css">
	.st0{fill:#B2B2B2;}
</style>
<path class="st0" d="M1.6,37.4c-0.3,0-0.5,0.2-0.6,0.6l-1.1,8l1.1,7.9c0,0.3,0.3,0.6,0.6,0.6c0.3,0,0.5-0.2,0.6-0.6l0,0v0
	c0,0,0,0,0,0l1.2-7.9l-1.2-8C2.2,37.6,1.9,37.4,1.6,37.4z M7.6,33c0-0.3-0.3-0.6-0.6-0.6c-0.3,0-0.6,0.2-0.6,0.6
	c0,0-1.4,12.9-1.4,12.9l1.4,12.6c0,0.3,0.3,0.6,0.6,0.6c0.3,0,0.5-0.2,0.6-0.6l1.6-12.6L7.6,33z M29.9,21.1c-0.6,0-1.1,0.5-1.1,1.1
	l-1.1,23.8l1.1,15.4c0,0.6,0.5,1.1,1.1,1.1c0.6,0,1.1-0.5,1.1-1.1v0l1.3-15.4l-1.3-23.8C30.9,21.5,30.4,21.1,29.9,21.1z M18.3,29.3
	c-0.4,0-0.8,0.4-0.8,0.8l-1.3,15.8l1.3,15.3c0,0.5,0.4,0.8,0.8,0.8c0.4,0,0.8-0.4,0.8-0.8l1.4-15.3l-1.4-15.8
	C19.1,29.7,18.8,29.3,18.3,29.3z M41.6,62.4c0.7,0,1.3-0.6,1.3-1.3L44,45.9l-1.1-31.7c0-0.7-0.6-1.3-1.3-1.3c-0.7,0-1.3,0.6-1.3,1.3
	c0,0-1,31.7-1,31.7l1,15.1C40.3,61.8,40.9,62.4,41.6,62.4z M65.6,62.5c1,0,1.8-0.8,1.8-1.8v0v0l0.8-14.7L67.4,9.4
	c0-1-0.8-1.8-1.8-1.8c-1,0-1.8,0.8-1.8,1.8l-0.7,36.6c0,0,0.7,14.7,0.7,14.7C63.8,61.6,64.6,62.5,65.6,62.5z M53.5,62.4
	c0.9,0,1.6-0.7,1.6-1.6v0L56,45.9L55.1,14c0-0.9-0.7-1.6-1.6-1.6c-0.9,0-1.6,0.7-1.6,1.6l-0.8,31.9l0.8,14.9
	C51.9,61.7,52.6,62.4,53.5,62.4z M24.1,62.3c0.5,0,0.9-0.4,1-1l1.4-15.4L25,31.3c0-0.5-0.5-0.9-1-0.9c-0.5,0-0.9,0.4-1,1l-1.2,14.6
	l1.2,15.4C23.1,61.8,23.5,62.3,24.1,62.3z M12.6,61.4c0.4,0,0.7-0.3,0.7-0.7l1.5-14.8l-1.5-15.3c0-0.4-0.3-0.7-0.7-0.7
	c-0.4,0-0.7,0.3-0.7,0.7c0,0-1.3,15.3-1.3,15.3l1.3,14.8C11.9,61.1,12.2,61.4,12.6,61.4z M59.5,13.5c-0.9,0-1.7,0.7-1.7,1.7
	l-0.8,30.7l0.8,14.8c0,0.9,0.8,1.7,1.7,1.7c0.9,0,1.7-0.7,1.7-1.7v0l0.9-14.8l-0.9-30.7C61.2,14.3,60.5,13.5,59.5,13.5z M35.7,62.4
	c0.6,0,1.2-0.5,1.2-1.2l1.2-15.3l-1.2-29.2c0-0.7-0.6-1.2-1.2-1.2c-0.7,0-1.2,0.5-1.2,1.2c0,0-1.1,29.2-1.1,29.2l1.1,15.3
	C34.5,61.9,35.1,62.4,35.7,62.4z M49,61L49,61l1-15l-1-32.7c0-0.8-0.7-1.5-1.5-1.5c-0.8,0-1.4,0.6-1.5,1.5l-0.9,32.7l0.9,15
	c0,0.8,0.7,1.4,1.5,1.4C48.3,62.4,49,61.8,49,61L49,61z M126.3,27.1c-2.4,0-4.7,0.5-6.9,1.4C118,12.5,104.6,0,88.3,0
	c-4,0-7.9,0.8-11.3,2.1c-1.3,0.5-1.7,1-1.7,2.1v56.2c0,1.1,0.9,2,1.9,2.1c0,0,48.8,0,49.1,0c9.8,0,17.7-7.9,17.7-17.7
	S136.1,27.1,126.3,27.1z M71.7,4.1c-1.1,0-1.9,0.9-2,1.9L68.9,46l0.8,14.5c0,1.1,0.9,1.9,2,1.9c1.1,0,1.9-0.9,1.9-1.9v0L74.5,46
	L73.6,6.1C73.6,5,72.7,4.1,71.7,4.1z M14.3,73.8c-2.1-0.5-2.7-0.8-2.7-1.6c0-0.6,0.5-1.2,1.9-1.2c1.2,0,2.2,0.5,3,1.4l1.9-1.8
	c-1.2-1.3-2.8-2.1-4.8-2.1c-2.6,0-4.7,1.5-4.7,3.9c0,2.6,1.7,3.4,4.1,3.9c2.5,0.6,2.9,0.9,2.9,1.8c0,1-0.7,1.4-2.3,1.4
	c-1.3,0-2.5-0.4-3.4-1.5l-1.9,1.7c1,1.5,2.9,2.4,5.1,2.4c3.6,0,5.2-1.7,5.2-4.2C18.7,75,16.4,74.2,14.3,73.8z M26.5,68.4
	c-3.6,0-5.7,2.8-5.7,6.8c0,4,2.1,6.8,5.7,6.8s5.7-2.8,5.7-6.8C32.2,71.2,30.1,68.4,26.5,68.4z M26.5,79.4c-2.1,0-3-1.8-3-4.2
	c0-2.4,0.9-4.2,3-4.2c2.1,0,3,1.8,3,4.2C29.5,77.6,28.6,79.4,26.5,79.4z M42.9,76c0,2.1-1,3.4-2.7,3.4c-1.7,0-2.7-1.3-2.7-3.5v-7.4
	h-2.6V76c0,3.8,2.2,6,5.3,6c3.4,0,5.4-2.2,5.4-6v-7.4h-2.6C42.9,68.6,42.9,76,42.9,76z M56.9,74.2c0,0.7,0,2.4,0,2.9
	c-0.2-0.3-0.6-1-0.9-1.5l-4.7-7h-2.5v13.2h2.6V76c0-0.7,0-2.4,0-2.9c0.2,0.3,0.6,1,0.9,1.5l4.9,7.2h2.4V68.6h-2.6
	C56.9,68.6,56.9,74.2,56.9,74.2z M67.1,68.6h-4.1v13.2h3.9c3.4,0,6.8-2,6.8-6.6C73.6,70.4,70.8,68.6,67.1,68.6z M66.9,79.3h-1.3
	v-8.1H67c2.8,0,3.9,1.3,3.9,4C70.9,77.6,69.6,79.3,66.9,79.3z M81.8,71c1.2,0,1.9,0.5,2.4,1.4l2.5-1.1c-0.8-1.7-2.3-2.9-4.8-2.9
	c-3.5,0-5.9,2.8-5.9,6.8c0,4.2,2.3,6.8,5.8,6.8c2.4,0,4-1.1,4.9-3l-2.2-1.3c-0.7,1.2-1.4,1.7-2.6,1.7c-2,0-3.1-1.8-3.1-4.2
	C78.7,72.8,79.8,71,81.8,71z M91.6,68.6H89v13.2h7.9v-2.6h-5.3V68.6z M103.9,68.4c-3.6,0-5.7,2.8-5.7,6.8c0,4,2.1,6.8,5.7,6.8
	c3.6,0,5.7-2.8,5.7-6.8C109.6,71.2,107.5,68.4,103.9,68.4z M103.9,79.4c-2.1,0-3-1.8-3-4.2c0-2.4,0.9-4.2,3-4.2c2.1,0,3,1.8,3,4.2
	C106.9,77.6,106,79.4,103.9,79.4z M120.3,76c0,2.1-1,3.4-2.7,3.4c-1.7,0-2.7-1.3-2.7-3.5v-7.4h-2.6V76c0,3.8,2.2,6,5.3,6
	c3.4,0,5.4-2.2,5.4-6v-7.4h-2.6V76z M130.4,68.6h-4.1v13.2h3.9c3.4,0,6.8-2,6.8-6.6C136.9,70.4,134.1,68.6,130.4,68.6z M130.2,79.3
	h-1.3v-8.1h1.4c2.8,0,3.9,1.3,3.9,4C134.2,77.6,133,79.3,130.2,79.3z"/>
</svg>
