<?xml version="1.0" encoding="UTF-8" standalone="no"?>
<svg width="60px" height="60px" viewBox="0 0 60 60" version="1.1" xmlns="http://www.w3.org/2000/svg" xmlns:xlink="http://www.w3.org/1999/xlink" xmlns:sketch="http://www.bohemiancoding.com/sketch/ns">
    <!-- Generator: Sketch 3.3.3 (12072) - http://www.bohemiancoding.com/sketch -->
    <title>Oval 83 Copy + Imported Layers</title>
    <desc>Created with Sketch.</desc>
    <defs>
        <linearGradient x1="0%" y1="-37.5892001%" x2="50%" y2="100%" id="linearGradient-1">
            <stop stop-color="#FBDA61" offset="0%"></stop>
            <stop stop-color="#F76B1C" offset="100%"></stop>
        </linearGradient>
    </defs>
    <g id="Page-1" stroke="none" stroke-width="1" fill="none" fill-rule="evenodd" sketch:type="MSPage">
        <g id="About---Desktop" sketch:type="MSArtboardGroup" transform="translate(-570.000000, -1980.000000)">
            <g id="Group-+-Oval-83-Copy-+-Imported-Layers" sketch:type="MSLayerGroup" transform="translate(224.000000, 1980.000000)">
                <g id="Oval-83-Copy-+-Imported-Layers" transform="translate(346.000000, 0.000000)" sketch:type="MSShapeGroup">
                    <circle id="Oval-83-Copy" fill="url(#linearGradient-1)" cx="30" cy="30" r="30"></circle>
                    <g id="Imported-Layers" transform="translate(10.312500, 14.000000)" fill="#FFFFFF">
                        <path d="M35.0128999,20.3480916 C30.4412712,24.9090458 25.8626851,29.4633206 21.2942676,34.0277481 C20.5864733,34.7349618 19.7978647,35.133855 18.7753762,34.8835115 C18.1569593,34.6056489 17.6635103,34.1730916 17.2393689,33.6539695 C16.8050589,32.3830153 17.1229642,31.384313 18.1095947,30.4270229 C20.8182124,27.7985496 23.4561845,25.0968702 26.0960297,22.3989313 C26.4305261,22.0569466 27.2964703,21.7868321 26.6301535,21.0617176 C25.9341335,20.3048092 25.633622,21.1755344 25.2951117,21.5100382 C22.57579,24.1967557 19.8669047,26.8938931 17.1938774,29.6260305 C16.3346232,30.5039695 15.4167652,30.9151527 14.2149867,30.5079771 C13.8060983,30.1317939 13.39721,29.7553435 12.988054,29.3788931 C12.5473216,28.0999237 12.8919867,27.1025573 13.8746032,26.1479389 C16.586432,23.5130534 19.2310941,20.8087023 21.8776292,18.1075573 C22.229787,17.7482061 23.1364059,17.4762214 22.2865176,16.6875191 C21.4379672,15.8996183 21.1957919,16.8678626 20.857014,17.1994275 C18.2171687,19.7851527 15.5888301,22.3850382 13.0322075,25.0522519 C12.0627033,26.0635115 11.0463695,26.4971374 9.6992858,26.0896947 C9.54568507,25.9830916 9.33455097,25.8324046 9.12341687,25.6814504 C8.93235255,25.4041221 8.74102063,25.1267939 8.54968871,24.8491985 C8.12447694,23.6503817 8.53149211,22.724084 9.40626699,21.8640458 C11.9096377,19.4020229 14.4057834,16.9306489 16.8347621,14.3964885 C17.5749357,13.624084 18.0239636,13.3341985 19.0633107,14.0716031 C20.7323137,15.255458 23.0531833,14.6780916 24.4214072,13.0071756 C25.8327142,11.2838931 25.7508295,9.2421374 24.3625358,7.57950382 C23.0092973,5.95854962 21.2455649,4.72553435 20.0692081,2.94828244 C25.3301669,-1.67145038 33.4495977,-0.915610687 37.646858,5.61896947 C37.7084053,5.79236641 37.8989345,6.10229008 37.8989345,6.10229008 C40.3180121,11.5337023 39.1317542,16.2386641 35.0128999,20.3480916 Z" id="Fill-1"></path>
                        <path d="M2.26329794,3.94324427 C6.5293307,-0.901984733 13.285622,-1.3179771 18.5147367,2.94267176 C20.0708137,4.52541985 21.6276936,6.10709924 23.182165,7.69145038 C23.777301,8.29820611 24.3427336,8.90923664 24.4149848,9.83339695 C24.531122,11.3167557 23.7834557,12.6732061 22.4393155,13.3219084 C21.1489624,13.9446947 19.842821,13.6852672 18.6868016,12.5332061 C16.3241869,10.1783206 13.9813744,7.80339695 11.6107318,5.45625954 C11.3808659,5.22835878 11.1592955,4.68465649 10.654875,5.1679771 C10.175341,5.62751908 10.6174114,5.86958015 10.8700231,6.13782443 C11.3268113,6.62274809 11.7632621,7.14347328 12.2890904,7.54290076 C13.0455874,8.11706107 12.8697761,8.51381679 12.2716966,9.09812977 C9.7268483,11.5852672 7.24354733,14.1346565 4.701375,16.6247328 C3.80867112,17.4991985 3.15600182,18.4503435 3.06849757,19.7239695 C1.1468446,20.9239129 -1.74022209,8.48977099 2.26329794,3.94324427 Z" id="Fill-2"></path>
                        <path d="M5.07627852,17.6904962 C7.73565837,15.0668321 10.381926,12.4287405 12.9797585,9.74469466 C13.6166396,9.0869084 14.0011766,9.15183206 14.5312864,9.7890458 C15.2947409,10.7067939 16.8323538,11.4035878 16.81496,12.4038931 C16.8005097,13.2529771 15.4082021,14.0921756 14.6005941,14.9116031 C12.6658671,16.874542 10.6789587,18.7880534 8.78811772,20.7924046 C7.83119053,21.8068702 7.46492651,22.4766683 6.11650479,22.065218 C6.11623719,22.065218 5.45171723,21.9041221 5.45278762,21.9033206 C5.34253762,21.8100763 4.3188459,20.5999087 4.28258556,20.5805344 C3.92454066,19.4466412 4.22772816,18.5278244 5.07627852,17.6904962 Z" id="Fill-3"></path>
                    </g>
                </g>
            </g>
        </g>
    </g>
</svg>