<?xml version="1.0" encoding="UTF-8" standalone="no"?>
<svg width="67px" height="85px" viewBox="0 0 67 85" version="1.1" xmlns="http://www.w3.org/2000/svg" xmlns:xlink="http://www.w3.org/1999/xlink">
    <!-- Generator: Sketch 3.6 (26304) - http://www.bohemiancoding.com/sketch -->
    <title>Group 5</title>
    <desc>Created with Sketch.</desc>
    <defs></defs>
    <g id="Page-1" stroke="none" stroke-width="1" fill="none" fill-rule="evenodd" opacity="0.823402519">
        <g id="About---Desktop-Copy" transform="translate(-150.000000, -327.000000)" fill="#757575">
            <g id="Group-5" transform="translate(150.000000, 327.500000)">
                <path d="M55.3984514,49.2553102 L55.3984514,81.9796886 L55.351769,83.6135733 L55.351769,83.6602558 L2.50726644,83.6602558 L0.873381641,83.6135733 L0.826699219,83.6135733 L0.826699219,49.2553102 L6.47527237,49.2553102 L6.47527237,78.1050475 L49.7965607,78.1050475 L49.7965607,49.2553102 L55.3984514,49.2553102 L55.3984514,49.2553102 Z" id="Path"></path>
                <g id="stackoverflow" transform="translate(10.826699, 0.000000)">
                    <path d="M33.3212883,65.4074285 L33.3212883,72.4564743 L0.316815421,72.5031567 L0.316815421,65.4541109 L33.3212883,65.4074285 Z M1.25046388,53.3633634 L34.1148895,56.3977209 L33.508018,63.4000843 L0.596909958,60.3657268 L1.25046388,53.3633634 Z M4.42486862,38.6117178 L36.3089633,47.1546012 L34.4883489,53.9702349 L2.60425413,45.4273516 L4.42486862,38.6117178 Z M12.0341035,22.3195523 L40.463699,39.1252245 L36.8691524,45.1939395 L8.43955697,28.3882673 L12.0341035,22.3195523 Z M28.8397757,6.8676704 L47.4193799,34.1768877 L41.6307595,38.1448936 L23.0044729,10.8823588 L28.8397757,6.8676704 Z M49.9869132,0.00535425637 L55.6354863,32.5430029 L48.6798054,33.7567459 L43.0312322,1.21909725 L49.9869132,0.00535425637 Z" id="Shape"></path>
                </g>
            </g>
        </g>
    </g>
</svg>