<?xml version="1.0" encoding="UTF-8"?>
<svg width="200px" height="200px" viewBox="0 0 200 200" version="1.1" xmlns="http://www.w3.org/2000/svg" xmlns:xlink="http://www.w3.org/1999/xlink">
    <!-- Generator: Sketch 40.3 (33839) - http://www.bohemiancoding.com/sketch -->
    <title>Artboard</title>
    <desc>Created with Sketch.</desc>
    <defs></defs>
    <g id="Page-1" stroke="none" stroke-width="1" fill="none" fill-rule="evenodd">
        <g id="Artboard">
            <circle id="Oval" fill="#868686" cx="100" cy="100" r="100"></circle>
            <g id="stack-overflow" transform="translate(52.600000, 40.000000)" fill="#FFFFFF">
                <g id="Artboard">
                    <g id="Page-1">
                        <g id="Artboard">
                            <path d="M78.6053574,117.589286 L78.5383932,119.933036 L2.73482166,120 L0.39107166,119.933036 L0.32410734,70.6473216 L8.42678592,70.6473216 L8.42678592,112.03125 L70.5696432,112.03125 L70.5696432,70.6473216 L78.6053574,70.6473216 L78.6053574,117.589286 L78.6053574,117.589286 Z M62.4669642,93.8169642 L62.4669642,103.928572 L15.1232142,103.995536 L15.1232142,93.8839284 L62.4669642,93.8169642 L62.4669642,93.8169642 Z M16.4624999,76.5401784 L63.6053568,80.8928574 L62.7348216,90.9375 L15.5249999,86.5848216 L16.4624999,76.5401784 L16.4624999,76.5401784 Z M21.0160713,55.3794642 L66.7526784,67.6339284 L64.1410716,77.4107142 L18.4044641,65.15625 L21.0160713,55.3794642 L21.0160713,55.3794642 Z M31.9312498,32.0089285 L72.7125,56.1160714 L67.55625,64.8214284 L26.7749999,40.7142857 L31.9312498,32.0089285 L31.9312498,32.0089285 Z M56.0383926,9.84375 L82.6901784,49.0178572 L74.3866068,54.7098214 L47.6678568,15.6026786 L56.0383926,9.84375 L56.0383926,9.84375 Z M86.3732142,-8.52651282e-15 L94.4758926,46.6741072 L84.4982142,48.4151786 L76.3955358,1.74107143 L86.3732142,-8.52651282e-15 L86.3732142,-8.52651282e-15 Z" id="Combined-Shape"></path>
                        </g>
                    </g>
                </g>
            </g>
        </g>
    </g>
</svg>