<?xml version="1.0" encoding="UTF-8" standalone="no"?>
<svg width="137px" height="46px" viewBox="0 0 137 46" version="1.1" xmlns="http://www.w3.org/2000/svg" xmlns:xlink="http://www.w3.org/1999/xlink" xmlns:sketch="http://www.bohemiancoding.com/sketch/ns">
    <!-- Generator: Sketch 3.3.3 (12072) - http://www.bohemiancoding.com/sketch -->
    <title>Imported Layers</title>
    <desc>Created with Sketch.</desc>
    <defs></defs>
    <g id="Page-1" stroke="none" stroke-width="1" fill="none" fill-rule="evenodd" sketch:type="MSPage">
        <g id="Home---Desktop-Copy-2" sketch:type="MSArtboardGroup" transform="translate(-545.000000, -2148.000000)" fill="#B1B1B1">
            <g id="Group-+-Currently-in-use-at" sketch:type="MSLayerGroup" transform="translate(110.000000, 1814.000000)">
                <g id="Group" sketch:type="MSShapeGroup">
                    <g id="Row-3-+-Row-1-+-Row-2">
                        <g transform="translate(0.000000, 93.000000)">
                            <g id="Row-3" transform="translate(46.079694, 221.405882)">
                                <g id="Imported-Layers" transform="translate(389.000000, 20.000000)">
                                    <path d="M96.3926577,0.0662234043 C97.2012608,0.340212766 98.0192736,0.589946809 98.8152771,0.896808511 C99.3339313,1.09675532 99.4210116,1.44941489 99.0406333,1.90531915 C98.7498871,2.25351064 98.4929523,2.6318617 98.2404831,3.00973404 C97.9331502,3.46978723 97.7427218,3.40675532 97.4907311,2.93840426 C96.9239115,1.88489362 96.0393923,1.43840426 95.0376496,1.63148936 C94.1352678,1.80542553 93.5847159,2.26930851 93.5284168,3.22308511 C93.4418149,4.68989362 93.50561,6.16579787 93.50561,7.70744681 L96.3011118,7.70744681 L96.3011118,9.3231383 L93.4445262,9.3231383 C93.415021,9.57015957 93.3765844,9.7418617 93.3767439,9.91340426 C93.3789767,12.643883 93.3853562,15.3745213 93.3934901,18.1051596 C93.3939686,18.2865957 93.4060896,18.4689894 93.427461,18.6493085 C93.5655774,19.8170745 93.8183655,20.079734 94.9764063,20.2531915 C95.1979348,20.286383 95.4231315,20.2945213 95.6918685,20.3182979 L95.6918685,20.8970745 L88.6362887,20.8970745 C88.5005646,20.5407447 88.5900373,20.3583511 89.0263958,20.2913298 C89.7860361,20.1746809 90.2447229,19.7182979 90.3236694,18.9309574 C90.3621059,18.5468617 90.4080384,18.1613298 90.4096333,17.7764362 C90.42,15.0912766 90.4201595,12.406117 90.4209569,9.72095745 C90.4211164,9.63319149 90.3933655,9.54542553 90.3643388,9.37212766 L88.8008801,9.37212766 C88.6142794,8.86579787 88.7361281,8.59484043 89.1697753,8.44069149 C89.4456892,8.34255319 89.7488754,8.23452128 89.9509464,8.03904255 C90.1643411,7.83255319 90.3735891,7.52904255 90.4077194,7.24659574 C90.5357881,6.1881383 90.5113865,5.10718085 90.6906508,4.05973404 C91.0731024,1.82632979 92.6110431,0.44856383 94.8508894,0.195478723 C95.0484948,0.173138298 95.241475,0.110265957 95.436688,0.0662234043 L96.3926577,0.0662234043" id="Fill-1"></path>
                                    <path d="M0.122805588,6.21430851 C1.79391851,4.57835106 3.49278231,2.96904255 5.12179045,1.29207447 C5.70551572,0.691117021 6.28270198,0.442978723 7.13006054,0.451276596 C11.6800873,0.496117021 16.2309115,0.480638298 20.7812573,0.460851064 C21.2842817,0.458776596 21.6141024,0.620425532 21.9547683,0.978351064 C23.5233306,2.62611702 25.1330407,4.23446809 26.6992107,5.88462766 C26.9205797,6.11792553 27.0958568,6.50106383 27.1003225,6.81765957 C27.1336554,9.16196809 27.1055856,11.5070745 27.1287113,13.8517021 C27.1336554,14.3481383 27.0111688,14.5257447 26.4851781,14.5185638 C24.4151863,14.4898404 22.344078,14.5255851 20.2742456,14.4885638 C19.9243295,14.4823404 19.57856,14.2362766 19.2307171,14.1009574 C19.2514505,14.0280319 19.2721839,13.9551064 19.2929173,13.8821809 L26.4124517,13.8821809 C26.4365343,13.6337234 26.4713027,13.4401596 26.4717811,13.2462766 C26.4757683,11.1975 26.4890058,9.14840426 26.4580652,7.10010638 C26.4535995,6.79898936 26.3067113,6.43101064 26.1003341,6.21271277 C24.5839243,4.60994681 23.0448673,3.02840426 21.4861932,1.46680851 C21.2903423,1.27053191 20.9396286,1.1325 20.6598871,1.13138298 C16.0186333,1.11095745 11.37722,1.10984043 6.73596624,1.1331383 C6.43947846,1.13457447 6.07472992,1.29925532 5.85958091,1.50893617 C4.27873807,3.04946809 2.71830966,4.61138298 1.17925262,6.19356383 C0.970642608,6.40803191 0.808762515,6.77234043 0.807167637,7.06835106 C0.783882421,11.5300532 0.784998836,15.9920745 0.805094296,20.4539362 C0.806370198,20.7341489 0.940180442,21.0825 1.13316065,21.2821277 C2.44654249,22.6394681 3.79102445,23.9664894 5.12960536,25.2994149 C5.25591967,25.4251596 5.40089406,25.6065957 5.55145052,25.6219149 C6.79242491,25.748617 8.03674854,25.8418085 9.27995576,25.9468085 C9.34406985,25.952234 9.40706752,25.9718617 9.5078638,26.1126064 C9.33003492,26.1756383 9.152844,26.2906915 8.97405821,26.2934043 C7.85955763,26.3101596 6.74362165,26.3243617 5.63023749,26.2844681 C5.37649243,26.2753723 5.07920722,26.1028723 4.88909779,25.9166489 C3.45833295,24.5154255 2.05053434,23.0907447 0.63189057,21.677234 C0.474316647,21.5203723 0.292979045,21.3874468 0.122805588,21.2433511 L0.122805588,6.21430851" id="Fill-2"></path>
                                    <path d="M0.122805588,28.074734 L7.37503376,28.074734 C7.18747614,28.6305319 6.87488009,28.7800532 6.3724936,28.7720745 C4.55592782,28.7435106 2.73856461,28.7609043 0.854376019,28.7609043 C0.836832363,29.0323404 0.810835856,29.2503191 0.81051688,29.4684574 C0.807327125,31.472234 0.79185681,33.4761702 0.825827707,35.4793085 C0.831250291,35.7998936 0.985634459,36.1919681 1.20540861,36.4227128 C2.47700466,37.757234 3.77268335,39.0702128 5.10153551,40.3474468 C5.35847031,40.5944681 5.79785914,40.7749468 6.15415483,40.7770213 C11.1607951,40.8044681 16.1674354,40.8036702 21.1740757,40.7776596 C21.509638,40.7759043 21.9215949,40.5982979 22.1659302,40.3643617 C23.4809069,39.1053191 24.7689302,37.8165957 26.0287241,36.5023404 C26.2646065,36.2562766 26.4535995,35.8474468 26.4556729,35.5125 C26.4835832,31.0270213 26.4813504,26.541383 26.4583842,22.0557447 C26.4569488,21.7605319 26.3001723,21.3931915 26.0912433,21.1838298 C24.7733958,19.8636702 23.4344959,18.5634574 22.0665693,17.2957979 C21.816014,17.063617 21.4031001,16.9034043 21.0597229,16.8930319 C19.6045565,16.8491489 18.1471572,16.8628723 16.6908743,16.8809043 C16.2374505,16.8864894 16.0085856,16.7235638 15.996624,16.2043085 C16.9525937,16.3132979 17.8865541,16.4205319 18.8208335,16.5261702 C19.3179569,16.5825 19.8139639,16.83 20.2464948,16.2662234 C20.4560617,15.9933511 21.939617,16.236383 22.2247811,16.5110106 C23.7490058,17.9787766 25.2783341,19.4415957 26.7781572,20.9339362 C26.9735297,21.1284574 27.1031932,21.4833511 27.1043097,21.7645213 C27.1240861,26.4550532 27.125362,31.1457447 27.1020768,35.8362766 C27.1006414,36.1322872 26.9349336,36.4959574 26.7256857,36.7117021 C25.299546,38.1821809 23.8501211,39.6306383 22.382674,41.0599468 C22.1818789,41.2554255 21.8397776,41.406383 21.5624284,41.4073404 C16.3055518,41.427766 11.0485157,41.4296809 5.79163912,41.4041489 C5.47760768,41.4025532 5.09499651,41.2105851 4.86294179,40.9851064 C3.26519325,39.4324468 1.69902328,37.8470745 0.122805588,36.2723936 L0.122805588,28.074734" id="Fill-3"></path>
                                    <path d="M18.8378987,12.2074468 C17.7501921,12.0785106 16.6624854,11.9494149 15.5746193,11.8204787 C15.5617008,11.8836702 15.5486228,11.9467021 15.5357043,12.0098936 C16.2502095,12.4729787 16.6674296,13.4084043 17.7285017,13.3220745 C17.7501921,13.3203191 17.7734773,13.3292553 17.7950081,13.3359574 C18.6087148,13.5893617 19.7085425,15.1707447 19.688766,16.1656915 C18.6718719,15.9175532 17.5789022,16.2528191 16.642709,15.5352128 C16.4191071,15.3638298 15.9924773,15.222766 15.7918417,15.3260106 C15.6105041,15.4192021 15.5366612,15.8671277 15.5436787,16.1554787 C15.5698347,17.2539894 16.4194261,17.7122872 17.2109639,18.2190957 C17.6229208,18.4830319 17.9959627,18.807766 18.3865483,19.1050532 C18.3431676,19.2043085 18.2999464,19.3037234 18.2565658,19.4029787 C17.3769907,19.3388298 16.4972561,19.2746809 15.617681,19.2106915 C15.5645716,19.268617 15.5116217,19.3265426 15.4586717,19.3844681 C15.7924796,19.8108511 16.0640873,20.3143085 16.4741304,20.6465426 C17.1768335,21.2159043 17.9549744,21.6844149 18.9067974,21.7790426 C19.1717066,21.8053723 19.4181153,22.0174468 19.6729767,22.1443085 C19.5152433,22.3728191 19.3874936,22.6311702 19.1943539,22.8240957 C18.4579988,23.5602128 18.4520978,23.5490426 17.5503539,23.0502128 C17.3125576,22.9185638 17.0694983,22.7615426 16.8106496,22.712234 C16.5288347,22.6582979 16.0583458,22.6091489 15.9690326,22.7490957 C15.8167218,22.9875 15.7789232,23.4323936 15.9023667,23.6901064 C16.3451048,24.6140426 17.1336123,25.1181383 18.1524203,25.2478723 C18.3546508,25.2737234 18.5654936,25.2572872 18.7610256,25.306117 C19.3023271,25.4415957 19.3937136,25.7666489 19.0291246,26.1981383 C18.4986682,26.8257447 18.5178068,26.9052128 19.2720244,27.2114362 C20.3522352,27.6501064 21.0086868,28.7984043 21.0592445,30.4981915 C20.6688184,30.3555319 20.2710559,30.3102128 20.0106123,30.0971809 C18.9908475,29.2635638 17.8565704,28.9083511 16.5407963,28.9523936 C16.0774843,28.9678723 15.6050815,28.7058511 15.1167299,28.5646277 C15.0907334,28.5970213 15.0124249,28.6490426 15.0130629,28.700266 C15.0368265,30.9949468 15.0141793,33.2920213 15.1210361,35.5830319 C15.1699988,36.6338298 15.6511735,37.5181915 16.7203795,38.0131915 C17.5093655,38.3784574 18.2331211,38.8887766 18.9712305,39.357766 C19.1937159,39.4991489 19.3669197,39.7184043 19.5626112,39.9020745 C19.5302352,39.9548936 19.4978591,40.0078723 19.4653236,40.0606915 L8.95220838,40.0606915 C8.92238417,40.0105851 8.89255995,39.9603191 8.86273574,39.9102128 C9.14662398,39.7490426 9.41296857,39.5222872 9.7179092,39.4405851 C10.3102468,39.2818085 10.7502736,39 10.9644657,38.4028723 C11.2030594,37.7371277 11.6582375,37.2840957 12.3550396,37.1178191 C12.9247299,36.9818617 13.2180279,36.6051064 13.2496065,36.0574468 C13.3240873,34.764734 13.373369,33.470266 13.4068615,32.1756383 C13.426319,31.4262766 13.4149953,30.6745213 13.3778347,29.9257979 C13.361248,29.5910106 13.2988882,29.2385106 13.1666729,28.9332447 C12.8403609,28.1805319 12.2004959,28.1296277 11.7339942,28.8015957 C11.3955611,29.2887766 10.8504319,29.4343085 10.398922,29.7272872 C9.54327008,30.2829255 8.57964494,30.451117 7.7019837,30.8707979 C7.55206519,30.9426064 7.47854133,31.1644149 7.33133411,31.2540957 C7.03963097,31.4320213 6.72113388,31.5660638 6.3372468,31.6155319 C6.64154948,30.1739362 7.15159139,28.9257447 8.2721525,27.9979787 C8.91122002,27.4689894 9.67963213,27.0403723 9.93034692,26.1623936 C10.0005215,25.9163298 10.0076985,25.6523936 10.0563423,25.3080319 C9.44247381,25.4190957 8.93753551,25.5105319 8.31936088,25.6223936 C8.55508382,24.9505851 9.05332363,24.7731383 9.55491269,24.5248404 C10.1909499,24.2101596 10.7793003,23.7856915 11.3459604,23.3532447 C11.4840768,23.247766 11.4576019,22.926383 11.5068836,22.7042553 C11.2985925,22.7202128 11.0754692,22.6932447 10.8845623,22.7593085 C9.98552969,23.0706383 9.09861816,23.4167553 8.19974505,23.7285638 C7.97375087,23.8069149 7.72000582,23.805 7.43643655,23.6984043 C7.60820489,23.6312234 7.79018044,23.5825532 7.94871129,23.492234 C8.13052736,23.3888298 8.29129104,23.2487234 8.46114552,23.1244149 C8.31744703,22.9614894 8.17358906,22.7985638 8.01936438,22.6238298 C8.78442724,21.8851596 9.78744587,21.4973936 10.8915797,21.4029255 C11.3631851,21.3625532 11.4159756,21.0473936 11.4188463,20.7615957 C11.4221956,20.4493085 11.3670128,19.9916489 11.1647823,19.857766 C10.8962049,19.6796809 10.4600058,19.7187766 10.0973306,19.7277128 C9.64757509,19.738883 9.19957392,19.8148404 8.69782538,19.8682979 C8.85763213,19.2153191 9.37229919,19.0236702 9.82460652,18.9426064 C11.0017858,18.7314894 11.5461176,17.8302128 12.1239418,16.9720213 C12.2693946,16.7562766 12.3205902,16.2992553 12.1885343,16.123883 C12.0537672,15.9446809 11.6237881,15.8821277 11.351702,15.9304787 C10.3475669,16.1090426 9.35842375,16.3709043 8.35604307,16.5614362 C8.15030384,16.6005319 7.91171013,16.4676064 7.68810827,16.4141489 C7.76099418,16.1454255 7.82766007,15.8746277 7.91186962,15.6095745 C7.92925378,15.5551596 8.00628638,15.508883 8.0660943,15.4806383 C9.51599767,14.7949468 10.6383132,13.5403723 12.2277683,13.0889362 C12.4306368,13.0313298 12.5862969,12.8068085 12.7639662,12.6596809 C12.6124529,12.5060106 12.4671595,12.3456383 12.3083097,12.1999468 C11.8079965,11.7411702 11.3625471,11.8083511 10.8054563,12.2004255 C10.2588917,12.585 9.58888359,12.7943617 8.90260768,13.1133511 C8.87214552,12.0038298 9.91679045,10.9174468 11.0528219,10.5936702 C11.5033749,10.4653723 11.9850279,10.3010106 12.3366985,10.0121809 C12.6634889,9.74393617 12.9075052,9.31388298 13.0561478,8.90696809 C13.2000058,8.51345745 12.9890035,8.22271277 12.5103807,8.34909574 C12.1839092,8.43510638 11.8796065,8.62484043 11.5510617,8.67574468 C11.3572841,8.70574468 11.1357555,8.55510638 10.9266671,8.48569149 C10.9896647,8.31414894 11.0096007,8.10143617 11.1253888,7.9806383 C11.3213993,7.7762234 11.5780151,7.62989362 11.8614249,7.42069149 C11.3273003,7.00851064 11.4279371,6.71537234 11.9095902,6.44712766 C12.317241,6.21989362 12.7009686,5.94957447 13.1480128,5.66489362 C11.7051269,4.84308511 13.0695448,4.35319149 13.4395565,3.75430851 C12.6502515,3.33079787 12.6869336,3.28132979 13.2985693,2.75632979 C13.6205751,2.47994681 13.7628382,1.99388298 14.0454505,1.49904255 C14.1035041,1.79329787 14.1476822,2.01494681 14.1907439,2.23675532 C14.2644272,2.6162234 14.3232782,2.95803191 14.7834005,3.13468085 C15.1931246,3.29202128 15.0920093,3.5537234 14.4956845,3.87734043 C14.3114761,4.63180851 15.6742992,4.79601064 15.1923271,5.64287234 C15.4817974,5.99840426 15.7642503,6.34531915 16.1328265,6.79787234 C15.7018906,6.86058511 15.4672841,6.89489362 15.0467148,6.95617021 C15.5034878,7.2087766 15.8549988,7.34553191 16.1309127,7.57388298 C16.3545146,7.75867021 16.4870489,8.05340426 16.6599336,8.29930851 C16.3760454,8.38117021 16.0956659,8.5125 15.8074715,8.53244681 C15.4339511,8.55829787 14.9148184,8.37095745 14.8459197,8.87680851 C14.8031769,9.19212766 15.0384214,9.71090426 15.3081153,9.87239362 C16.1406414,10.3709043 17.059929,10.7216489 17.9238743,11.1716489 C18.2956403,11.3652128 18.6139779,11.6615426 18.9567171,11.9112766 C18.9171641,12.0098936 18.8774517,12.1086702 18.8378987,12.2074468" id="Fill-4"></path>
                                    <path d="M13.517227,1.85776596 C13.2620466,2.13462766 13.1660349,2.33824468 13.0341385,2.36537234 C12.2960291,2.51648936 12.3483411,3.01212766 12.4226624,3.57287234 C12.4521676,3.79579787 12.3467462,4.03946809 12.2898091,4.27069149 C12.1784866,4.72356383 12.0580733,5.17404255 11.9413283,5.6256383 C12.0025716,5.64526596 12.0636554,5.66489362 12.1248987,5.68452128 C11.8218719,5.95515957 11.390298,6.17026596 11.2443667,6.5087234 C10.9949278,7.08718085 10.7855204,7.66803191 10.4265134,8.20085106 C10.3352864,8.33632979 10.5137532,8.81824468 10.6989185,8.93664894 C10.9655821,9.10739362 11.3564866,9.15765957 11.6853504,9.13388298 C11.9563201,9.11425532 12.2143714,8.91239362 12.4955483,8.78329787 C12.6543981,9.34164894 12.3319139,9.34420213 11.9958731,9.34308511 C11.1607951,9.34021277 10.3257171,9.34212766 9.50036787,9.34212766 C9.45810361,9.47601064 9.41312806,9.54255319 9.42237835,9.60031915 C9.57405122,10.5378191 9.20914319,11.2942021 8.6766135,12.038617 C8.04839115,12.9170745 8.27438533,13.3546277 9.33481956,13.4676064 C9.56894761,13.9969149 9.33115134,14.3190957 8.86512806,14.5503191 C8.53993248,14.7118085 8.15126077,14.8195213 7.9160163,15.0690957 C7.61155413,15.392234 7.30119092,15.8101596 7.22846449,16.2282447 C7.12208615,16.8398936 7.50788708,17.1180319 8.14137253,17.0542021 C8.34503842,17.033617 8.54838533,17.01 8.75061583,16.9793617 C8.92908265,16.9523936 9.10579511,16.9137766 9.33529802,16.8705319 C9.37979511,17.1028723 9.42030501,17.3143085 9.47628522,17.6060106 C9.94135157,17.6317021 10.4282678,17.6585106 10.9151839,17.6853191 C10.9437322,17.7365426 10.9722806,17.7879255 11.0008289,17.8393085 C10.719014,18.0078191 10.4461304,18.1945213 10.1531513,18.3405319 C9.66894645,18.5818085 9.1412014,18.7487234 8.68857509,19.0365957 C8.24934575,19.3158511 8.09033644,19.7618617 8.37231083,20.3420745 C9.01504657,20.2820745 9.6670326,20.1904787 10.3206135,20.1767553 C10.5529872,20.1718085 10.96,20.3179787 10.9918976,20.4609574 C11.0899825,20.9017021 10.7080093,20.8576596 10.3906286,20.9489362 C9.7504447,21.1332447 9.14072293,21.4284574 8.52733295,21.6984574 C8.34583586,21.7784043 8.20899534,21.9636702 8.02622235,22.0362766 C7.52830151,22.2336702 7.35270547,22.5481915 7.58667404,23.0751064 C7.45222584,23.1525 7.26371129,23.1984574 7.19353667,23.3154255 C7.07742957,23.5093085 6.94856345,23.7705319 6.99497439,23.9620213 C7.02958324,24.1045213 7.3483993,24.2920213 7.51362864,24.2685638 C8.11553551,24.1835106 8.70914901,24.0295213 9.30005122,23.8785638 C9.6239709,23.7957447 9.93624796,23.6669681 10.3121607,23.6806915 C10.138319,23.7690957 9.96367986,23.8559043 9.79063562,23.9460638 C9.20100931,24.2529255 8.61457276,24.5661702 8.02095925,24.864734 C7.8676915,24.9418085 7.6954447,24.9995745 7.5259092,25.0225532 C6.40359371,25.1744681 5.49642724,24.9070213 4.71956228,23.9648936 C3.85481956,22.9161702 2.79789406,22.0279787 1.85755413,21.038617 C1.66473341,20.8356383 1.51896158,20.4947872 1.51752619,20.2166489 C1.49647381,15.9373404 1.49647381,11.6578723 1.51752619,7.37856383 C1.51896158,7.10042553 1.66186263,6.75494681 1.85675669,6.55643617 C3.30713853,5.07909574 4.78367637,3.62728723 6.26324447,2.17914894 C6.412844,2.03281915 6.63644587,1.87340426 6.82719325,1.87148936 C8.9845844,1.84978723 11.142454,1.85776596 13.517227,1.85776596" id="Fill-5"></path>
                                    <path d="M15.4315588,32.8956383 L18.7224296,32.8956383 L18.7224296,29.8332447 C19.2729814,30.173617 19.6827055,30.5080851 20.1515995,30.6895213 C20.4943388,30.8221277 20.9981607,30.8923404 21.2727986,30.7276596 C21.4705634,30.6090957 21.5005471,30.0437234 21.4474377,29.7020745 C21.2380303,28.3559043 20.6630768,27.2374468 19.4356589,26.7700532 C19.5053551,26.2579787 19.7648417,25.6760106 19.5761676,25.3898936 C19.3599022,25.0621277 18.7587928,24.8960106 18.3021793,24.8379255 C17.2318568,24.7018085 16.2926333,23.9502128 16.2923143,22.963883 C16.7533935,23.1927128 17.1757171,23.3741489 17.5698114,23.6040957 C18.3189255,24.0408511 18.7800047,23.9814894 19.349057,23.3350532 C19.4390081,23.232766 19.5675553,23.1571277 19.6345402,23.0433511 C19.8182701,22.731383 20.1796694,22.336117 20.0988091,22.1026596 C19.9917928,21.7934043 19.5613353,21.4680319 19.2176391,21.3947872 C18.3817637,21.2165426 17.5996356,20.9687234 16.9265972,20.4336702 C16.7058661,20.2582979 16.5055495,20.0570745 16.3586612,19.7226064 C16.7514796,19.767766 17.1500396,19.8762766 17.535362,19.8402128 C17.9340815,19.8030319 18.4804866,19.7449468 18.6753807,19.4826064 C19.0000978,19.0450532 18.5637392,18.646117 18.226901,18.3387766 C17.9953248,18.1276596 17.7206868,17.9639362 17.2903888,17.6522872 C18.2559278,17.6522872 19.0630955,17.7335106 19.8469779,17.6329787 C20.980936,17.4874468 21.7718359,17.9214894 22.5182386,18.728617 C23.4120081,19.6954787 24.4295402,20.5469681 25.3566426,21.4847872 C25.5665285,21.6971809 25.7347881,22.0589362 25.736383,22.3530319 C25.7604657,26.6784574 25.7591898,31.0042021 25.7382969,35.3297872 C25.737021,35.6087234 25.5949173,35.9521277 25.4019371,36.1541489 C24.2230035,37.3878191 22.9979779,38.5774468 21.8148976,39.8074468 C21.3110757,40.3311702 20.719376,40.0934043 20.1522375,40.093883 C20.0876449,40.093883 20.0323027,39.9272872 19.9567055,39.8545213 C19.597858,39.5087234 19.2752142,39.1045213 18.8642142,38.8367553 C16.1588231,37.0739362 15.4498999,37.3551064 15.4317183,33.8087234 C15.4302829,33.5376064 15.4315588,33.2666489 15.4315588,32.8956383" id="Fill-6"></path>
                                    <path d="M130.549676,0.983297872 C132.089052,0.735957447 133.606738,0.491968085 135.178171,0.239202128 C135.178171,0.618351064 135.17849,0.990159574 135.178171,1.36196809 C135.17227,6.87207447 135.158395,12.3821809 135.165572,17.8921277 C135.167645,19.4352128 135.323464,19.5842553 136.899363,19.8992553 L136.899363,20.4473936 C135.363496,20.6687234 133.850914,20.8865426 132.311697,21.1083511 C132.280916,20.7418085 132.255079,20.4319149 132.235622,20.2010106 C131.238345,20.5156915 130.278707,20.9594681 129.275369,21.1094681 C125.760258,21.6347872 122.894742,19.2710106 122.630311,15.7081915 C122.531907,14.3837234 122.611491,13.0720213 123.045298,11.7981383 C123.907329,9.26648936 126.271736,7.52281915 128.999455,7.4475 C130.036285,7.4187766 131.074391,7.44271277 132.132114,7.44271277 C132.132114,5.92914894 132.151572,4.29526596 132.122864,2.66234043 C132.110902,1.9725 131.710588,1.57835106 130.996561,1.55026596 C130.602307,1.53478723 130.388275,1.38781915 130.549676,0.983297872 L130.549676,0.983297872 Z M132.183948,14.2760106 C132.183948,12.9568085 132.199099,11.6371277 132.169594,10.3185638 C132.164331,10.0879787 132.032594,9.78 131.855084,9.64579787 C129.927355,8.18840426 126.968857,9.08042553 126.162168,11.352766 C125.704597,12.6421277 125.617357,13.9884574 125.784979,15.3264894 C126.172056,18.4155319 128.618279,20.01 131.448868,19.0948404 C131.963695,18.9282447 132.229242,18.7105851 132.201491,18.0965426 C132.143597,16.8253723 132.183948,15.549734 132.183948,14.2760106 L132.183948,14.2760106 Z" id="Fill-7"></path>
                                    <path d="M80.216929,20.8967553 C80.4890151,20.6235638 80.6231444,20.3660106 80.7995378,20.3326596 C81.6438661,20.1729255 82.1118033,19.6779255 82.1202561,18.8441489 C82.1448172,16.4155851 82.2414668,13.9790426 82.0848498,11.5603723 C81.9787905,9.92202128 80.8341467,9.17329787 79.1847241,9.26664894 C76.9888964,9.39079787 76.8691211,9.51765957 76.8691211,11.717234 C76.8691211,13.7200532 76.8633795,15.7230319 76.8735867,17.7258511 C76.8758196,18.1562234 76.9329162,18.5865957 76.9692794,19.0164894 C77.0316391,19.7513298 77.4319534,20.1904787 78.1565064,20.2951596 C78.5507602,20.3521277 78.7496414,20.4871277 78.5904726,20.8967553 L72.133291,20.8967553 C72.0324948,20.5815957 72.07444,20.3925 72.5168591,20.2937234 C73.4489057,20.0856383 73.8197148,19.712234 73.8369395,18.7351596 C73.8865402,15.8918617 73.8728242,13.0472872 73.8602247,10.2033511 C73.8571944,9.51255319 73.4565611,9.1212766 72.7573667,9.05026596 C72.5554552,9.02984043 72.3560955,8.98292553 72.1308987,8.94382979 L72.1308987,8.35069149 C73.0945239,8.23723404 74.0393295,8.14324468 74.977915,8.00696809 C75.3554226,7.95223404 75.728305,7.82824468 76.087631,7.69388298 C76.7673679,7.43952128 76.7842736,7.44207447 76.8258999,8.18569149 C76.8321199,8.29515957 76.8549267,8.40351064 76.8793283,8.57904255 C77.1168056,8.4518617 77.3142515,8.35260638 77.5056368,8.24265957 C78.7781898,7.51132979 80.15744,7.30212766 81.5897998,7.47765957 C83.8098696,7.74941489 85.0993283,9.23728723 85.1695029,11.6532447 C85.2243667,13.5408511 85.1857707,15.4308511 85.2029953,17.319734 C85.2079395,17.8415426 85.2433458,18.365266 85.3015588,18.883883 C85.409532,19.8453191 85.6296251,20.0570745 86.5602363,20.3288298 C86.7458801,20.3829255 86.877617,20.6213298 87.1586345,20.8967553 L80.216929,20.8967553" id="Fill-8"></path>
                                    <path d="M36.3518894,16.6278191 L36.8287579,16.6278191 C37.1571432,17.3101596 37.2994063,18.1030851 37.7718091,18.4667553 C38.4178941,18.9639894 39.2923655,19.2595213 40.1111758,19.407766 C40.8231292,19.5365426 41.6188137,19.4430319 42.3339569,19.2687766 C44.4454156,18.7541489 45.1879907,16.032766 43.6350582,14.4272872 C42.9645716,13.7340957 42.1127474,13.2135638 41.3310978,12.631117 C40.2756077,11.8445745 39.1481886,11.142766 38.1600023,10.2804255 C36.6174366,8.93425532 36.3898475,7.15021277 36.9142433,5.28 C37.4179057,3.48335106 38.7588789,2.52319149 40.5221758,2.13223404 C42.5329977,1.68654255 44.5476473,1.95973404 46.5552794,2.19430851 C46.7122154,2.21265957 46.9635681,2.44611702 46.9677148,2.58574468 C47.0015262,3.71904255 46.9866938,4.85393617 46.9866938,6.01388298 C46.5664435,6.18287234 46.3367811,6.14329787 46.2902107,5.64430851 C46.1811211,4.47702128 45.4538568,3.82308511 44.361525,3.67388298 C43.4506903,3.54941489 42.5073201,3.53632979 41.5904249,3.61452128 C40.6019197,3.69893617 39.815326,4.19297872 39.5499383,5.2412234 C39.2684424,6.35297872 39.3783295,7.42053191 40.3312689,8.15808511 C41.4612398,9.03271277 42.6861059,9.78335106 43.8498882,10.6155319 C44.5873597,11.1429255 45.3300943,11.6754255 45.9983481,12.2848404 C47.9691385,14.0822872 48.0641932,19.1639362 44.1559453,20.5334043 C41.6747939,21.402766 39.1883795,21.173617 36.7140861,20.4971809 C36.5620943,20.4556915 36.3724633,20.1931915 36.3679977,20.0288298 C36.337376,18.9183511 36.3518894,17.8067553 36.3518894,16.6278191" id="Fill-9"></path>
                                    <path d="M18.4758615,12.7921277 C18.7658102,12.5918617 19.2799988,12.4051596 19.2930768,12.1881383 C19.3126938,11.8626064 19.0651688,11.3650532 18.782397,11.2067553 C17.9753888,10.755 18.4576799,10.0142553 18.2058487,9.2937766 L15.2438417,9.2937766 C15.2315611,9.20840426 15.2192806,9.12303191 15.2068405,9.0375 C15.9272468,8.93058511 16.9465332,9.33781915 17.1422247,8.29611702 C17.2071362,7.9506383 16.7297893,7.50319149 16.5297916,7.15356383 C16.2577055,6.02696809 15.801092,5.02675532 15.1331572,4.10090426 C15.6983818,3.30207447 15.656915,3.17728723 14.8334796,2.63617021 C14.659319,2.52175532 14.613865,2.21138298 14.4451269,1.85680851 L17.5200512,1.85680851 C18.429929,1.85680851 19.3421991,1.81978723 20.2487276,1.87595745 C20.5908289,1.89702128 21.0026263,2.04973404 21.2407416,2.28574468 C22.6295611,3.66287234 23.9807416,5.0781383 25.331922,6.49276596 C25.5091129,6.67851064 25.7292061,6.93239362 25.7328743,7.15771277 C25.7642934,9.13308511 25.7510559,11.1092553 25.7510559,13.1280319 C25.5483469,13.1511702 25.397631,13.1830851 25.2467555,13.1832447 C23.1311502,13.1865957 21.0153853,13.1878723 18.89978,13.1832447 C18.5994645,13.1826064 18.2026589,13.2643085 18.4758615,12.7921277" id="Fill-10"></path>
                                    <path d="M110.501265,14.1260106 C110.481967,16.3562234 109.859965,18.3330319 108.107513,19.8402128 C105.745499,21.8714362 100.226744,21.9094149 98.2388882,18.3651064 C96.4253527,15.1311702 97.4101898,10.2671809 100.303776,8.36888298 C102.48222,6.93989362 107.469562,6.78031915 109.438598,9.95585106 C110.233166,11.2373936 110.526783,12.6370213 110.501265,14.1260106 L110.501265,14.1260106 Z M107.544203,14.3621809 C107.271957,13.1843617 107.109758,12.0062234 106.717258,10.9109043 C106.270374,9.66462766 105.334499,8.92404255 103.912506,8.92579787 C102.490673,8.92771277 101.577286,9.67946809 101.094357,10.9118617 C100.193251,13.2113298 100.227701,15.5423936 101.191007,17.8231915 C101.694669,19.0158511 102.627354,19.6908511 103.952219,19.692766 C105.314244,19.6948404 106.284887,18.9855319 106.72922,17.7544149 C107.116456,16.6819149 107.274349,15.5264362 107.544203,14.3621809 L107.544203,14.3621809 Z" id="Fill-11"></path>
                                    <path d="M9.80674389,30.7118617 L9.80674389,32.8985106 C10.6512317,32.8985106 11.4599942,32.927234 12.2654075,32.8879787 C12.7681129,32.8635638 12.9772014,33.0228191 12.9417951,33.5337766 C12.8866123,34.3265426 12.9089406,35.1287234 12.7920361,35.9109574 C12.7497718,36.1934043 12.4515297,36.5532447 12.1823143,36.6636702 C11.442291,36.9670213 10.9512282,37.4323404 10.5966868,38.1574468 C10.424759,38.5093085 9.96734808,38.7325532 9.61711292,38.9830851 C9.27660652,39.2265957 8.8019709,39.3552128 8.57805006,39.6705319 C8.29192899,40.0732979 7.97789756,40.0975532 7.55812573,40.152766 C6.32576368,40.3148936 5.41094179,39.9274468 4.61063213,38.946383 C3.79517113,37.9468085 2.80140279,37.0937234 1.90587893,36.1571809 C1.73315367,35.9765426 1.55038068,35.7081383 1.54719092,35.4777128 C1.52087544,33.5904255 1.53554831,31.7025 1.54128987,29.814734 C1.54160885,29.7518617 1.58052386,29.6891489 1.61545169,29.5843085 L6.43788359,29.5843085 C6.27616298,30.006383 6.12576601,30.3944681 5.97903725,30.7839894 C5.82321769,31.1974468 5.62832363,31.7344149 6.09737718,31.9389894 C6.458617,32.0966489 7.18843306,32.0648936 7.38396508,31.8205851 C7.92749942,31.141117 8.6075553,30.9561702 9.37820023,30.8524468 C9.50722584,30.8350532 9.63003143,30.7712234 9.80674389,30.7118617" id="Fill-12"></path>
                                    <path d="M60.7222596,10.7253191 C60.4962654,10.5928723 60.3214668,10.490266 60.0897311,10.3544681 C60.5297579,8.92835106 61.5016764,8.06265957 62.8719953,7.61968085 C63.9557148,7.26941489 65.0700559,7.27244681 66.1733923,7.52856383 C67.867631,7.92191489 68.8704901,9.04882979 68.9229616,10.8044681 C68.9880326,12.9866489 68.9333283,15.1723404 68.9314144,17.3565957 C68.9312549,17.6068085 68.9213667,17.858617 68.9438545,18.107234 C69.0385902,19.1498936 69.5679302,19.4455851 70.5046019,18.9884043 C70.9341024,19.2323936 70.9141665,19.4910638 70.5966263,19.8477128 C69.9827579,20.537234 69.2795763,21.031117 68.330305,21.0884043 C67.33861,21.1482447 66.7560012,20.8270213 66.1019418,19.8327128 C65.0561804,20.775 63.8263702,21.1772872 62.4198475,21.0981383 C60.6029627,20.9958511 59.4120675,20.0591489 59.0493923,18.3829787 C58.661837,16.5919149 59.3718766,14.9286702 61.0015227,14.2319681 C62.4370722,13.6179255 63.9467835,13.1738298 65.4351234,12.6896809 C65.8124715,12.5669681 65.9923737,12.4367553 65.995085,11.9985638 C66.0044948,10.4931383 65.5485192,9.64611702 64.4467776,9.26393617 C63.1306845,8.80755319 61.7731246,9.2468617 60.9511246,10.3957979 C60.8860536,10.4865957 60.8235343,10.5791489 60.7222596,10.7253191 L60.7222596,10.7253191 Z M65.9807311,14.0617021 C64.8509197,14.5417021 63.8376938,14.8809574 62.9177683,15.3892021 C62.0174598,15.8865957 61.8576531,16.8167553 61.9876356,17.7718085 C62.0804575,18.4541489 62.4624307,18.9555319 63.1518964,19.1334574 C64.018553,19.3570213 64.866709,19.2617553 65.6529837,18.827234 C65.8014668,18.7452128 65.9638254,18.5267553 65.9666962,18.3682979 C65.9912573,17.0107979 65.9807311,15.6525 65.9807311,14.0617021 L65.9807311,14.0617021 Z" id="Fill-13"></path>
                                    <path d="M50.214248,9.41090426 L48.3543015,9.41090426 C48.5377125,9.11106383 48.6008696,8.85558511 48.7468009,8.79255319 C50.4003702,8.07829787 51.446291,6.76675532 52.3250687,5.26771277 C52.4539348,5.04765957 52.7284133,4.91329787 52.9355879,4.73920213 C53.0048056,4.78180851 53.0740233,4.82425532 53.143241,4.8668617 L53.143241,7.74989362 L57.5824237,7.74989362 L57.5824237,9.35234043 C57.3741327,9.36542553 57.1360175,9.39223404 56.8979022,9.39335106 C55.8294936,9.39845745 54.761085,9.40292553 53.6926764,9.39255319 C53.3462689,9.38904255 53.1341502,9.45702128 53.1405297,9.87462766 C53.1794447,12.4203191 53.1531292,14.9680851 53.2491409,17.5112234 C53.3118196,19.1682447 54.4921886,19.9298936 56.2242258,19.5633511 C56.5983842,19.4840426 56.9577101,19.3343617 57.3636065,19.2044681 C57.6688661,19.4782979 57.6428696,19.7206915 57.3309115,20.0206915 C56.0467159,21.2556383 53.2333516,21.5909043 51.7059371,20.6557979 C50.7563469,20.0744681 50.2782026,19.1652128 50.2549173,18.0938298 C50.2000536,15.5503723 50.2227008,13.0051596 50.2144075,10.4605851 C50.2134505,10.1447872 50.214248,9.82898936 50.214248,9.41090426" id="Fill-14"></path>
                                    <path d="M111.870627,8.96441489 L111.870627,8.34973404 C113.419892,8.11324468 114.931995,7.8825 116.516347,7.64058511 C116.54027,7.93276596 116.567064,8.25989362 116.602789,8.69505319 C117.610274,7.90771277 118.67948,7.47239362 119.913915,7.57819149 C120.094934,7.59382979 120.27962,7.59031915 120.456652,7.62558511 C121.933668,7.91984043 122.152645,8.37861702 121.446593,9.68202128 C121.327615,9.90175532 121.211508,10.1230851 121.090616,10.3417021 C120.720285,11.011117 120.521563,11.0358511 120.008172,10.4790957 C119.257782,9.66526596 118.077254,9.38425532 117.084442,9.84478723 C116.874078,9.94244681 116.629583,10.2529787 116.627031,10.4680851 C116.59625,12.9703723 116.57153,15.4737766 116.621928,17.9754255 C116.661002,19.9223936 116.790506,20.0039362 118.972299,20.3147872 C118.985696,20.4915957 119.00005,20.6816489 119.016158,20.8965957 L111.862494,20.8965957 C111.818475,20.6141489 111.701889,20.3690426 112.215121,20.2677128 C113.184009,20.0762234 113.569491,19.6632447 113.584962,18.6783511 C113.62914,15.8605851 113.612872,13.0418617 113.610161,10.223617 C113.609523,9.51255319 113.198044,9.15335106 112.518626,9.06207447 C112.317353,9.03510638 112.116877,9.00175532 111.870627,8.96441489" id="Fill-15"></path>
                                    <path d="M47.0182724,28.2346277 L51.2659104,28.2346277 C51.0979697,28.4326596 51.0196612,28.617766 50.9011618,28.648883 C50.3322689,28.7985638 50.0416822,29.1625532 50.0440745,29.728883 C50.0544412,32.1844149 50.0171211,34.6429787 50.1290815,37.0943617 C50.187135,38.3637766 51.0834563,39.0638298 52.3644622,39.1464894 C52.7043306,39.1683511 53.0473888,39.1675532 53.3877357,39.1515957 C54.7140361,39.0895213 55.5558126,38.4087766 55.6881874,37.0895745 C55.8215192,35.7587234 55.8026997,34.4117553 55.8290151,33.0713298 C55.8483132,32.0929787 55.8291746,31.1139894 55.8337998,30.1351596 C55.837149,29.4344681 55.7546938,28.7961702 54.8966496,28.6335638 C54.8414668,28.6230319 54.7888359,28.5579255 54.7519942,28.5060638 C54.7293469,28.4743085 54.7387567,28.4194149 54.7245623,28.2920745 L58.6851222,28.2920745 C58.4798615,28.4696809 58.3741211,28.6302128 58.2337718,28.6704255 C57.6950221,28.824734 57.4471781,29.1769149 57.4309104,29.7173936 C57.4111339,30.3759574 57.3876892,31.0346809 57.3785984,31.6934043 C57.357227,33.2632979 57.3844994,34.8351064 57.3167171,36.4029255 C57.2210244,38.6125532 56.1623446,39.8447872 53.9846985,40.1025 C52.9011385,40.2306383 51.7571327,40.152766 50.6799523,39.9542553 C49.2011816,39.6817021 48.3637113,38.6427128 48.1992794,37.1557979 C48.087319,36.1420213 48.087,35.1142021 48.0721676,34.0921277 C48.0523912,32.7268085 48.0625984,31.3608511 48.0684994,29.9952128 C48.0712107,29.3548404 47.9546251,28.8046277 47.2027998,28.6603723 C47.0471397,28.6303723 46.8913201,28.6019681 46.7356601,28.5729255 C46.8297579,28.4601064 46.9240151,28.3474468 47.0182724,28.2346277" id="Fill-16"></path>
                                    <path d="M68.3000023,40.0476064 L63.9062736,40.0476064 C64.1485355,39.8617021 64.2568277,39.7235106 64.3936682,39.6834574 C64.9000419,39.5358511 65.1585716,39.2151064 65.160326,38.6923404 C65.1651106,37.1942553 65.2526694,35.6896277 65.1421444,34.2 C65.0378393,32.7931915 63.111546,32.0650532 61.9954505,32.9436702 C61.8696147,33.0426064 61.8120396,33.2950532 61.8115611,33.4766489 C61.806617,35.1146809 61.8249581,36.7528723 61.8289453,38.3910638 C61.8306997,39.0667021 61.982532,39.6165957 62.7818847,39.7230319 C62.8464773,39.7316489 62.8936857,39.8714362 63.0067625,40.0326064 L58.6843248,40.0326064 C58.792936,39.8743085 58.8385495,39.7343617 58.9028231,39.7251064 C59.7214738,39.6087766 59.9096694,39.016117 59.9182817,38.3385638 C59.9391746,36.7230319 59.9296054,35.1071809 59.9241828,33.4916489 C59.9224284,32.9607447 59.7339139,32.567234 59.1380675,32.4710106 C59.0233958,32.4525 58.9307334,32.2969149 58.8278638,32.2045213 C58.9513073,32.1365426 59.0683714,32.0281915 59.1994703,32.0069681 C59.999461,31.8769149 60.8028009,31.7664894 61.675837,31.6393085 C61.701674,31.7232447 61.7629173,31.9219149 61.8405879,32.1740426 C62.7369092,31.6405851 63.6786845,31.3916489 64.7076997,31.4865957 C66.0306508,31.6086702 66.9389336,32.3905851 67.0376566,33.7235106 C67.1465867,35.1949468 67.1406857,36.6762766 67.1477031,38.153617 C67.1513714,38.9366489 67.2185157,39.6264894 68.1909127,39.7619681 C68.2212154,39.766117 68.2366857,39.8760638 68.3000023,40.0476064" id="Fill-17"></path>
                                    <path d="M122.472737,31.6841489 L125.914483,31.6841489 C125.836494,31.8627128 125.802363,32.101117 125.710498,32.1260106 C125.020395,32.3125532 124.86617,32.9050532 124.66059,33.4527128 C123.551672,36.4094681 122.45934,39.3722872 121.343404,42.3263298 C120.559362,44.4019149 119.237208,45.1768085 117.226865,44.713883 C116.833249,44.6230851 116.488915,44.3184574 116.121774,44.1124468 C116.373605,43.7092021 116.625277,43.3059574 116.896725,42.8712766 C117.080615,43.0040426 117.160997,43.0448936 117.21921,43.1066489 C118.003889,43.9391489 119.028917,43.9209574 119.624604,42.9587234 C120.0742,42.2323404 120.370529,41.4078191 120.697478,40.6115426 C120.762868,40.4524468 120.696362,40.2087766 120.626666,40.0290957 C119.714396,37.6784043 118.806432,35.3257979 117.851579,32.9923404 C117.715376,32.6591489 117.329416,32.432234 117.076149,32.1411702 C116.976948,32.027234 116.924636,31.8724468 116.822723,31.6839894 L120.814702,31.6839894 C120.632407,31.8959043 120.546284,32.0929787 120.41056,32.1370213 C119.820615,32.3283511 119.776277,32.7084574 119.963516,33.2104787 C120.534163,34.7414362 121.100026,36.2741489 121.729045,37.9715426 C122.019792,37.1176596 122.263489,36.4088298 122.502561,35.6985638 C122.777678,34.8807447 123.034612,34.056383 123.326634,33.2447872 C123.510524,32.7343085 123.46507,32.367766 122.894423,32.158883 C122.757423,32.1087766 122.672256,31.9163298 122.472737,31.6841489" id="Fill-18"></path>
                                    <path d="M84.3618568,35.4914362 C84.4358591,36.0402128 84.456752,36.4506383 84.5500524,36.8438298 C84.9738114,38.6320213 86.5546542,39.4115426 88.5074226,38.8110638 C88.6374051,38.7711702 88.7605297,38.6891489 88.8916286,38.6770213 C89.0643539,38.6610638 89.2415448,38.6948936 89.4168219,38.7073404 C89.3643504,38.8761702 89.3648289,39.1054787 89.2514331,39.2042553 C88.0267264,40.2711702 86.5889441,40.4203723 85.0862503,40.0367553 C83.7497427,39.6955851 82.9444889,38.7690957 82.6816531,37.4297872 C82.4129162,36.0606383 82.5052596,34.7092021 83.1542154,33.4391489 C84.079085,31.6292553 86.4991525,30.893617 88.2583027,31.9182447 C89.591142,32.6944149 89.7303749,33.9968617 89.6897055,35.4914362 L87.0415704,35.4914362 L84.3618568,35.4914362 L84.3618568,35.4914362 Z M87.6685169,34.4955319 C87.8138102,33.2135106 87.2524133,32.4552128 86.1777846,32.4325532 C85.0538743,32.4089362 84.4274063,33.1717021 84.5085856,34.4955319 L87.6685169,34.4955319 L87.6685169,34.4955319 Z" id="Fill-19"></path>
                                    <path d="M73.5184424,31.6839894 L77.5459872,31.6839894 C77.2791641,31.9268617 77.1187194,32.0275532 77.0219104,32.1711702 C76.8523749,32.4231383 76.5391409,32.7612766 76.6038929,32.9589894 C77.0887357,34.437766 77.6515681,35.8910106 78.2582596,37.5373404 C78.8973271,35.9361702 79.4681339,34.5351064 80.0127846,33.1238298 C80.1810442,32.6880319 80.086787,32.3275532 79.5743527,32.1521809 C79.4244342,32.1007979 79.3185343,31.9212766 79.0713283,31.6843085 L82.5250361,31.6843085 C82.4357229,31.8729255 82.3921828,32.0380851 82.2942573,32.1590426 C81.9647555,32.5654787 81.5073446,32.9052128 81.2931525,33.3617553 C80.3290489,35.4173936 79.421085,37.4996809 78.5196601,39.5840426 C78.344702,39.9882447 78.1062678,40.3029255 77.6839441,40.191383 C77.4620966,40.1328191 77.2574738,39.7943617 77.1531688,39.5382447 C76.3053318,37.4559574 75.4895518,35.3605851 74.6480943,33.2755851 C74.4578254,32.8037234 74.3370931,32.2576596 73.7067974,32.115 C73.6273725,32.0969681 73.5953155,31.869734 73.5184424,31.6839894" id="Fill-20"></path>
                                    <path d="M98.1071513,37.5442021 C98.2396857,37.6862234 98.431709,37.8055851 98.4953446,37.9737766 C98.9195821,39.0923936 100.116219,39.6014362 101.201533,39.1008511 C101.967872,38.747234 102.072177,37.7475 101.349378,37.1964894 C100.737105,36.7300532 100.055614,36.3548936 99.4061793,35.9368085 C98.7463783,35.5121809 98.2621735,34.959734 98.1883306,34.1433511 C98.0521281,32.6363298 98.8597742,31.6429787 100.393568,31.5256915 C101.311899,31.4554787 102.239799,31.512766 103.248878,31.512766 C103.248878,32.312234 103.258447,32.9179787 103.23899,33.522766 C103.235959,33.6189894 103.081735,33.7991489 103.034526,33.7876596 C102.910126,33.7573404 102.752392,33.6676596 102.702473,33.5581915 C102.252717,32.5745745 101.864843,32.2823936 100.834073,32.4362234 C100.47395,32.49 100.034721,32.7884043 99.8572107,33.1026064 C99.6241991,33.5154255 99.7997951,34.0086702 100.233761,34.2927128 C100.860548,34.7029787 101.51078,35.0773404 102.14905,35.4703723 C102.968179,35.9746277 103.533563,36.6194681 103.503739,37.6677128 C103.46929,38.8801596 102.944256,39.6320745 101.778241,39.9823404 C100.655766,40.3195213 99.5286659,40.2509043 98.4192689,39.9258511 C98.2594622,39.8790957 98.0671199,39.6469149 98.0452701,39.4803191 C97.9691944,38.8981915 97.96122,38.3071277 97.9274086,37.7195745 C97.987376,37.6611702 98.0471839,37.6026064 98.1071513,37.5442021" id="Fill-21"></path>
                                    <path d="M111.120397,32.7367021 C110.724867,32.7145213 110.410357,32.6968085 109.882772,32.6671277 C110.54959,32.1367021 111.132518,31.7562766 111.60843,31.2705319 C112.070306,30.7989894 112.422296,30.219734 112.82261,29.6875532 C112.888478,29.7248936 112.954347,29.7623936 113.020215,29.799734 L113.020215,31.6223936 L115.86787,31.6223936 L115.86787,32.6765426 L113.0376,32.6765426 C113.0376,33.1026064 113.03744,33.4771277 113.0376,33.8514894 C113.0376,35.0120745 113.034091,36.1726596 113.038397,37.3332447 C113.044776,39.0065426 113.80952,39.5645745 115.392437,39.0584043 C115.497858,39.0245745 115.606948,39.0020745 115.754155,38.9640957 C115.77425,39.1016489 115.837886,39.2326596 115.797057,39.3035106 C115.391958,40.0054787 113.952102,40.4021809 112.808097,40.1423936 C111.798698,39.9130851 111.227732,39.2837234 111.159471,38.2485638 C111.113061,37.5464362 111.125022,36.8401596 111.121673,36.1356383 C111.11641,35.0246809 111.120397,33.913883 111.120397,32.7367021" id="Fill-22"></path>
                                    <path d="M95.123773,40.0417021 L90.6762969,40.0417021 C90.6515763,39.9989362 90.6268556,39.9561702 90.6019756,39.9134043 C90.7137765,39.8224468 90.8126589,39.6820213 90.9394517,39.6489894 C91.5300349,39.4954787 91.7375285,39.0651064 91.7432701,38.5262234 C91.7616112,36.7973936 91.7558696,35.0684043 91.7590594,33.3394149 C91.7600163,32.8128191 91.4603388,32.5718617 90.9753364,32.4708511 C90.8581129,32.4464362 90.7668859,32.2969149 90.6635378,32.205 C90.7900116,32.1177128 90.9077136,31.9734574 91.0442352,31.9523936 C91.8675111,31.8253723 92.6950931,31.7265957 93.5762631,31.6112234 C93.6086391,31.7439894 93.6583993,31.9480851 93.7185262,32.1947872 C94.5016112,31.6581383 95.3169127,31.3740957 96.2438556,31.6267021 C97.106525,31.8617553 97.197752,32.0730319 96.7701653,32.8557447 C96.6829255,33.0151596 96.591858,33.1726596 96.5092433,33.3343085 C96.324397,33.6954255 96.1243993,33.707234 95.8236054,33.4306915 C95.5972922,33.222766 95.3216973,33.0264894 95.0333434,32.9356915 C94.1236251,32.6495745 93.6654168,33.0023936 93.6652573,33.935266 C93.6647788,35.3457447 93.6598347,36.756383 93.6670116,38.1670213 C93.6725937,39.2762234 93.7591956,39.3690957 94.8210652,39.6485106 C94.960936,39.6852128 95.0730559,39.8278723 95.1980943,39.921383 C95.1732142,39.9614362 95.1484936,40.0016489 95.123773,40.0417021" id="Fill-23"></path>
                                    <path d="M109.186129,40.0275 L104.932431,40.0275 C104.914249,39.9735638 104.895908,39.9196277 104.877726,39.8656915 C105.005955,39.7985106 105.127325,39.7016489 105.264006,39.6692553 C105.839278,39.5328191 106.100679,39.1619681 106.102752,38.5906915 C106.108813,36.8189362 106.112162,35.0471809 106.113438,33.2754255 C106.113757,32.8026064 105.904828,32.5160106 105.410416,32.427766 C105.242794,32.397766 105.10085,32.225266 104.838333,32.0417553 C106.028909,31.8550532 107.003539,31.7023404 108.038774,31.5400532 C108.038774,31.7672872 108.039891,31.9854255 108.038615,32.2037234 C108.027291,34.2255319 108.012299,36.2473404 108.00576,38.2691489 C108.003527,38.975266 108.13351,39.5995213 109.010693,39.6987766 C109.078156,39.7064362 109.144184,39.7929255 109.194423,39.8557979 C109.214997,39.8816489 109.19203,39.9422872 109.186129,40.0275" id="Fill-24"></path>
                                    <path d="M69.1601199,32.0034574 C70.0934424,31.8528191 71.0267648,31.7023404 72.0332922,31.5398936 C72.0460512,31.7136702 72.0726857,31.903883 72.0723667,32.0942553 C72.0674226,34.1629787 72.0659872,36.2317021 72.0458917,38.300266 C72.0387148,39.039734 72.2103236,39.6090957 73.0701222,39.7073936 C73.1482712,39.7161702 73.2141397,39.8321809 73.4052061,40.0089894 L68.7956903,40.0089894 C69.0484785,39.8361702 69.1672969,39.7002128 69.3097194,39.6673404 C69.8302875,39.5468617 70.1128999,39.2120745 70.1202363,38.7082979 C70.1470303,36.8685638 70.1687206,35.0275532 70.1205553,33.1889362 C70.1138568,32.9350532 69.7154563,32.679734 69.4757462,32.4486702 C69.3425739,32.3203723 69.1625122,32.2407447 69.0036624,32.1392553 C69.0558149,32.0939362 69.1079674,32.048617 69.1601199,32.0034574" id="Fill-25"></path>
                                    <path d="M105.916949,28.8446809 C105.954747,28.2280851 106.419973,27.8243617 107.06558,27.8478191 C107.736066,27.8720745 108.166205,28.3442553 108.119794,29.0050532 C108.075137,29.6420745 107.588859,30.0292021 106.891738,29.982766 C106.236722,29.9390426 105.875482,29.5172872 105.916949,28.8446809" id="Fill-26"></path>
                                    <path d="M71.0570675,29.9880319 C70.3958312,30.0025532 69.9459162,29.6066489 69.9176868,28.9849468 C69.8888196,28.3484043 70.3545239,27.8660106 71.0159197,27.8471809 C71.6470128,27.8293085 72.1379162,28.2635106 72.1656671,28.8638298 C72.1951723,29.5016489 71.7302654,29.9730319 71.0570675,29.9880319" id="Fill-27"></path>
                                    <path d="M18.0135064,32.1576064 C17.2114424,32.1576064 16.4870489,32.1829787 15.7671211,32.1371809 C15.6132154,32.1274468 15.4757369,31.8593617 15.3307625,31.7103191 C15.369518,31.6504787 15.4084331,31.5906383 15.4471886,31.5307979 L17.3423818,31.5307979 L17.3423818,29.5321277 C17.8015471,29.4054255 18.0284983,29.4659043 18.0176531,29.9340957 C18.0013853,30.638617 18.0135064,31.3439362 18.0135064,32.1576064" id="Fill-28"></path>
                                    <path d="M10.5223655,32.1296809 L10.5223655,30.1942021 C10.7107206,30.1378723 10.9127916,30.0775532 11.1639849,30.0023936 L11.1639849,31.4746277 L12.8971385,31.4746277 L12.8971385,32.1296809 L10.5223655,32.1296809" id="Fill-29"></path>
                                    <path d="M11.8555239,16.5544149 C11.456326,17.2187234 10.7459674,16.7029787 10.2234854,16.899734 C10.2065797,16.835266 10.189674,16.7707979 10.1727683,16.7063298 C10.711518,16.5710106 11.2501083,16.4355319 11.788858,16.3002128 C11.8110268,16.3849468 11.8333551,16.4696809 11.8555239,16.5544149" id="Fill-30"></path>
                                </g>
                            </g>
                        </g>
                    </g>
                </g>
            </g>
        </g>
    </g>
</svg>