<?xml version="1.0" encoding="UTF-8" standalone="no"?>
<!-- Created with Inkscape (http://www.inkscape.org/) -->

<svg
   xmlns:dc="http://purl.org/dc/elements/1.1/"
   xmlns:cc="http://creativecommons.org/ns#"
   xmlns:rdf="http://www.w3.org/1999/02/22-rdf-syntax-ns#"
   xmlns:svg="http://www.w3.org/2000/svg"
   xmlns="http://www.w3.org/2000/svg"
   xmlns:sodipodi="http://sodipodi.sourceforge.net/DTD/sodipodi-0.dtd"
   xmlns:inkscape="http://www.inkscape.org/namespaces/inkscape"
   version="1.1"
   width="1910.9084"
   height="658.46985"
   id="svg2"
   xml:space="preserve"
   inkscape:version="0.48.4 r9939"
   sodipodi:docname="tdi2.svg"><sodipodi:namedview
     pagecolor="#ffffff"
     bordercolor="#666666"
     borderopacity="1"
     objecttolerance="10"
     gridtolerance="10"
     guidetolerance="10"
     inkscape:pageopacity="0"
     inkscape:pageshadow="2"
     inkscape:window-width="1920"
     inkscape:window-height="1025"
     id="namedview8"
     showgrid="false"
     inkscape:zoom="0.61136249"
     inkscape:cx="749.70919"
     inkscape:cy="187.53989"
     inkscape:window-x="0"
     inkscape:window-y="27"
     inkscape:window-maximized="1"
     inkscape:current-layer="g2986"
     showborder="true"
     fit-margin-top="0"
     fit-margin-left="0"
     fit-margin-right="0"
     fit-margin-bottom="0"
     inkscape:showpageshadow="true" /><metadata
     id="metadata8"><rdf:RDF><cc:Work
         rdf:about=""><dc:format>image/svg+xml</dc:format><dc:type
           rdf:resource="http://purl.org/dc/dcmitype/StillImage" /><dc:title /></cc:Work></rdf:RDF></metadata><defs
     id="defs6" /><g
     transform="matrix(1.25,0,0,-1.25,-574.6499,798.33191)"
     id="g10"><g
       transform="scale(0.135583,0.135583)"
       id="g12"><g
         id="g2986"><path
           sodipodi:nodetypes="ccccccccsscccsscccccsccscccsccccccscccccccsccccccccccccccsccccccccccccscsccccccsccccccccccccccccsccccccccccccccccccsccccccccccccccscccscccccccccccccccscccscccscccccccccccccccccccccccccc"
           inkscape:connector-curvature="0"
           style="fill:#b1b1b1;fill-opacity:1;fill-rule:nonzero;stroke:none"
           id="path14"
           d="m 10405.7,833.492 c -76.5,16.594 -143.6,66.696 -179.6,134.11 -48.6,91.298 -57.2,251.868 -19.2,363.878 15.3,45.32 52.7,101.79 84.8,128.07 74.9,61.42 198.9,81.27 317.8,50.85 65.7,-16.79 64,-14.67 47.5,-60.02 -7.6,-21.11 -15.3,-40.01 -17.1,-41.97 -1.7,-1.99 -24.7,2.19 -50.9,9.28 -63.8,17.14 -132.7,17.71 -176.1,1.47 -79.8,-29.86 -123.6,-117.06 -123.6,-246.14 0,-121.6 38.2,-204.727 110.3,-240.137 28.2,-13.887 34.1,-14.75 96.4,-14.285 55.7,0.425 73.9,2.765 112.9,14.601 25.7,7.781 47.8,14.117 49.2,14.117 1.4,0 2.5,-20.132 2.5,-44.769 l 0,-44.738 -28.1,-10.547 c -61.1,-22.852 -157.7,-28.731 -226.8,-13.77 z m 567,-0.031 c -81.5,19.738 -128.5,66.203 -149.8,148.203 -6.9,26.386 -8.2,73.066 -8.2,282.746 l 0,251.11 100.9,0 0,-224.34 c 0,-128.9 2.4,-238.79 5.5,-258.2 12.5,-77.16 50.3,-112.628 128.5,-120.636 70.6,-7.231 140.4,15.324 176,56.902 44,51.434 51.1,100.344 51.1,352.844 l 0,193.43 100.9,0 0,-679.727 -83.8,0 -3.1,17.258 c -1.7,9.508 -4.6,29.82 -6.6,45.144 -1.9,15.328 -4.6,27.887 -6,27.887 -1.3,0 -12.8,-11.547 -25.5,-25.637 -26.4,-29.39 -71.6,-55.343 -116.9,-67.132 -38.5,-10.024 -121.3,-9.965 -163,0.148 z m 864.2,-1.18 c -45.8,11.926 -76.2,28.61 -108.7,59.551 -17.3,16.477 -33.5,28.637 -36.1,27.023 -2.6,-1.617 -7.7,-16.773 -11.3,-33.675 -11.4,-53.164 -7.7,-49.387 -48.7,-49.387 l -36.8,0 0,961.187 100.9,0 0,-373.19 22.5,23.89 c 48.4,51.25 105.4,74.33 184.6,74.76 88.5,0.52 147,-21.78 198.3,-75.57 55.8,-58.49 82.2,-133.54 86.8,-247.31 7.6,-183.76 -56.5,-312.626 -178.3,-358.931 -37.5,-14.254 -132.8,-18.836 -173.2,-8.348 z m 126.8,89.34 c 31.9,10.281 71.8,49.637 89.2,87.899 22.3,49.24 32.8,118.93 29.1,192.69 -5,98.56 -25.5,156.38 -69.3,194.93 -30.5,26.77 -67.4,38.73 -119.7,38.73 -69.6,0 -123.1,-22.48 -151.7,-63.71 -57.7,-83.32 -56.3,-315.99 2.4,-397.066 19.2,-26.567 56.5,-49.18 95.7,-58.082 33.2,-7.524 93.5,-5.274 124.3,4.609 z m 493.1,-88.219 c -37.3,10.051 -56.4,20.43 -83.5,45.344 -62.5,57.656 -73.9,179.174 -23.6,252.274 48.6,70.68 137.5,100.98 315.6,107.66 l 90.3,3.37 -0.3,53.1 c -0.2,48.46 -1.6,55.64 -15.9,82.11 -12.7,23.45 -21.1,31.81 -44.1,43.8 -25.2,13.07 -34.3,14.81 -77.4,14.81 -53.3,0 -109.6,-12.14 -160.4,-34.61 -16.4,-7.22 -30.5,-13.16 -31.3,-13.16 -0.9,0 -8.2,17 -16.4,37.77 -17.2,43.99 -17.2,44.08 34.7,63.49 99.3,37.18 206.1,43.97 290.3,18.5 50.4,-15.21 88.1,-51.16 110.2,-104.86 11.2,-27.49 11.5,-34.99 13.1,-297.71 l 1.6,-269.497 -37.6,0 c -25.5,0 -38.3,2.16 -39.7,6.66 -1.1,3.629 -6,25.262 -10.9,48.02 l -8.8,41.406 -36.7,-34.633 c -42.1,-39.726 -65.4,-52.98 -112.3,-64.043 -41.7,-9.824 -120,-9.742 -156.9,0.199 z m 158.8,83.957 c 60.4,14.204 105.9,52.895 126.6,107.611 8.5,22.12 12.7,47.62 14.7,87.61 l 2.8,56.38 -52.5,-2.19 c -174.8,-7.26 -240.5,-28.09 -268,-84.96 -24.3,-50.22 -11.1,-124.033 26.5,-148.72 34.2,-22.414 94.6,-28.727 149.9,-15.731 z m 592.6,-86.722 c -66.8,16.824 -112,67.39 -125.5,140.453 -3.6,19.242 -5.8,113.63 -5.8,245.38 l 0,214.1 -95.6,0 0,52.81 27.9,11.98 c 15.3,6.6 37.2,16.82 48.7,22.73 22.4,11.55 18.6,2.68 54.1,123.83 l 8.3,28.12 60.1,-3.17 1.5,-75.66 1.5,-75.69 190.9,0 0,-84.95 -191.2,0 0,-439.547 14.7,-28.113 c 10.9,-21.008 20.6,-31.324 38.5,-40.941 21.7,-11.699 28,-12.563 71.6,-9.856 26.3,1.645 53.1,4.524 59.7,6.426 11.7,3.371 12,2.449 12,-36.738 l 0,-40.192 -19.9,-6.046 c -26.5,-8.008 -126.3,-11.262 -151.5,-4.926 z m 498.7,2.965 c -85,20.57 -156.9,80.703 -193.2,161.515 -24.5,54.593 -33.6,102.943 -33.7,178.833 -0.3,177.73 68,291.21 201.7,335.27 33.7,11.09 51,13.36 104.1,13.65 100.9,0.52 162.6,-23.66 222.6,-87.27 62.4,-66.11 88.4,-141.95 88.6,-258.22 0.1,-122.48 -27.2,-203.298 -90.8,-267.716 -39.8,-40.394 -84.4,-64.562 -140.7,-76.461 -46.2,-9.742 -117.5,-9.566 -158.6,0.399 z m 162.5,92.312 c 79.9,30.164 120.7,114.466 120.7,249.756 0,128.04 -35.6,206.12 -110.5,242.68 -27.5,13.4 -35.3,14.69 -91.1,14.78 -74.1,0.11 -102.8,-10.29 -140.9,-51.11 -43.4,-46.33 -60.7,-105.36 -60.7,-206.35 0,-179.857 73.3,-270.822 212.2,-263.385 23,1.238 52.7,7.004 70.3,13.629 z M 9110,1287.17 l 0,451.41 106.2,0 0,-902.787 -106.2,0 z m 335.85,-113.03 1.36,338.74 38.2,1.55 c 43.76,1.79 45.58,0.2 51.77,-44.05 7.58,-54.14 5.76,-53.24 39.3,-19.16 59.61,60.62 149.47,85.63 249.3,69.44 98.8,-16.02 153.48,-65.2 177.02,-159.13 5.7,-22.73 7.3,-84.01 7.3,-276.15 l 0,-246.935 -51.5,-1.504 -51.54,-1.527 -1.61,251.116 c -1.76,274.42 -0.99,267.36 -33.89,306.46 -24.35,28.93 -51.48,39.33 -109.42,41.84 -73.93,3.25 -117.29,-10.37 -155.87,-48.95 -22.13,-22.16 -30.59,-35.75 -40.28,-64.68 -11.84,-35.35 -12.38,-44.72 -15.07,-259.7 l -2.81,-223.055 -51.81,-1.504 -51.83,-1.527 z m 4832.45,0 1.4,338.74 40.8,1.55 40.8,1.53 2.9,-22.79 c 1.6,-12.53 4.8,-41.75 7,-64.94 l 4.1,-42.15 25.6,34.98 c 57.9,78.94 128.8,111.52 223.5,102.65 l 41.5,-3.89 -3.6,-32.67 c -2.1,-17.98 -4.9,-38.84 -6.5,-46.36 l -2.7,-13.68 -61.9,0.4 c -61.4,0.4 -62.2,0.23 -96.5,-18.62 -40.5,-22.32 -78.7,-66.03 -96.9,-110.85 -11.5,-28.39 -12,-37.14 -14.6,-244.52 l -2.6,-215.075 -51.8,-1.504 -51.8,-1.527 z" /><path
           sodipodi:nodetypes="ccsccccccccccsscccccccccccccccccccccccccccccccccccccccccccccsccccccccccccccccccsccccccccccccsccccccscccccccccccccccccccccccccccccccccsccccccccccccccccccsccccsccccccc"
           inkscape:connector-curvature="0"
           d="m 5159.75,833.055 c -53.98,12.215 -96.14,34.945 -138.08,74.539 -67.08,63.265 -96.26,143.736 -96.26,265.426 0,79.67 10.75,131.33 39.96,191.88 59.43,123.25 181.85,182.15 318.39,153.22 53.79,-11.41 90.99,-31.52 128.38,-69.43 57.65,-58.43 81.27,-125.73 81.39,-231.88 l 0.09,-62.4 -462.02,0 0.09,-17.25 c 0.17,-29.53 14.41,-86.46 28.7,-114.67 26.45,-52.154 62,-81.447 119.56,-98.478 56.19,-16.657 165.93,-7.375 243.48,20.597 20.31,7.317 38.46,13.344 40.31,13.344 1.81,0 3.31,-20.055 3.31,-44.539 l 0,-44.519 -27.86,-11.118 c -55.57,-22.183 -90.12,-28.437 -168.6,-30.422 -54.25,-1.386 -87,0.317 -110.84,5.7 z m 223.81,434.205 c -6.92,83.93 -42.41,139.51 -102.68,160.77 -28.52,10.05 -91.16,10.08 -124.84,0.03 -60.19,-17.95 -108.24,-85.11 -120.78,-168.75 l -2.99,-19.9 353.59,0 z M 7007.07,832.77 c -92.13,25.554 -138.57,88.218 -138.86,187.32 -0.17,58.81 10.72,89.7 44.6,126.77 56.38,61.71 161.25,92.17 318.21,92.43 34.08,0.06 65.75,1.55 70.36,3.31 10.03,3.86 10.95,30.97 2.82,81.13 -14.12,86.98 -53.76,115.27 -155.55,111.1 -44.68,-1.85 -63.06,-5.47 -107.06,-21.07 -29.18,-10.37 -56.67,-20.42 -61.05,-22.32 -6.08,-2.65 -11.49,5.65 -22.76,34.63 -8.12,20.97 -12.91,39.79 -10.6,41.8 9.68,8.53 86.86,36.59 123.63,44.95 23.91,5.42 63.17,9.11 98.24,9.25 148.4,0.57 218.33,-51.41 236.27,-175.55 2.83,-19.5 5.19,-142.38 5.25,-273.07 l 0.12,-237.657 -78.8,0 -5.65,26.449 c -3.13,14.52 -7.23,36.043 -9.1,47.77 -1.88,11.75 -4.9,21.343 -6.71,21.285 -1.82,-0.02 -16.89,-13.879 -33.48,-30.793 -53.62,-54.629 -108.47,-75.656 -195.31,-74.856 -27.86,0.262 -61.43,3.461 -74.57,7.122 z m 180.57,90.207 c 41.34,14.722 74.87,44.484 95.3,84.523 17.17,33.63 18.44,39.79 20.54,98.31 l 2.22,62.43 -52.41,-1.73 c -209.68,-6.94 -277.94,-43.18 -278.05,-147.71 -0.06,-31.058 16.68,-68.28 37.46,-83.409 27.19,-19.766 53.06,-25.586 103.25,-23.188 26.28,1.262 58.54,6.106 71.69,10.774 z m 552.82,-86.809 c -48.03,15.73 -84.17,52.434 -100.33,101.961 -11.34,34.832 -11.72,43.16 -11.72,263.991 l 0,228.04 -98.25,3.05 -3.17,48.7 98.77,43.5 42.81,141.46 30.37,1.61 30.36,1.58 0,-154.3 96.93,-1.45 96.88,-1.43 1.56,-41.15 1.56,-41.16 -196.93,0 0.06,-211.1 c 0,-125.01 2.19,-218.91 5.36,-230.29 8.39,-30.196 27.14,-54.075 53.07,-67.528 21.44,-11.125 28.66,-12.074 71.63,-9.48 26.3,1.609 53.17,4.465 59.75,6.367 11.63,3.371 11.95,2.449 11.95,-36.738 l 0,-40.192 -19.91,-5.929 c -10.97,-3.258 -46.21,-6.977 -78.33,-8.274 -49.18,-1.984 -63.79,-0.574 -92.39,8.762 z m 413.66,-3.398 c -56.76,15.82 -99.46,49.464 -122.01,96.199 -17.26,35.785 -21.61,121.001 -8.22,161.311 17.9,53.93 76.44,102.19 151.49,124.9 44.43,13.45 133.48,24 204.44,24.2 35.04,0.08 67.08,2.3 71.19,4.89 10.87,6.89 3.78,89.11 -10.57,122.45 -21.87,50.85 -56.75,69.15 -131.75,69.15 -49.15,0 -99.37,-11.27 -155.73,-35.01 -17.51,-7.38 -32.4,-12.65 -33.07,-11.75 -4.15,5.53 -29.62,74.96 -28.09,76.49 1.04,1.03 17.98,9.19 37.63,18.09 55.63,25.24 118.99,38.29 186.67,38.47 148.51,0.37 218.32,-51.52 236.28,-175.64 2.82,-19.5 5.18,-142.38 5.24,-273.07 l 0.11,-237.657 -78.31,0 -9.53,46.473 c -5.22,25.554 -10.2,47.367 -11.07,48.457 -0.83,1.07 -15.58,-12.067 -32.72,-29.215 -55.56,-55.547 -110.53,-76.66 -197.42,-75.86 -27.86,0.262 -61.39,3.461 -74.56,7.122 z m 180.56,90.207 c 41.34,14.722 74.87,44.484 95.3,84.523 17.17,33.63 18.44,39.79 20.54,98.31 l 2.23,62.43 -52.39,-1.73 c -209.71,-6.94 -277.96,-43.18 -278.08,-147.71 -0.03,-31.058 16.72,-68.28 37.45,-83.409 27.21,-19.766 53.11,-25.586 103.26,-23.188 26.28,1.262 58.55,6.106 71.69,10.774 z m -4657.21,316.433 0,403.58 -286.78,0 0,95.59 674.43,0 0,-95.59 -281.46,0 0,-807.197 -106.19,0 z m 509.78,76.97 0,480.6 100.89,0 0,-378.17 24.52,27.25 c 48.31,53.74 105.88,75.98 195.88,75.66 101.22,-0.35 163.88,-27.06 204.3,-87.12 35.56,-52.84 37.31,-69.44 37.31,-351.58 l 0,-247.227 -100.31,0 -3.23,496.527 -13.98,29.79 c -24.11,51.43 -67.3,73.81 -142.21,73.7 -66.98,-0.09 -110.74,-15.61 -144.6,-51.28 -49.21,-51.81 -53.39,-76.73 -56.23,-334.99 l -2.37,-213.747 -99.97,0 z m 1826.77,-28.72 0,451.84 184.57,-2.18 c 177.84,-2.14 186.35,-2.72 235.38,-15.89 147.33,-39.55 240.6,-133.1 282,-282.88 10.14,-36.74 11.78,-56.16 12.01,-143.4 0.23,-88.85 -1.21,-106.6 -12.07,-148.69 -38.89,-150.624 -138.95,-252.062 -285.68,-289.573 -66.19,-16.942 -119.57,-21.094 -271.34,-21.094 l -144.87,0 z m 348.76,-348.176 c 98.56,19.789 176.04,75.316 214.41,153.616 33.36,68.11 39.42,98.65 39.42,199.4 0,98.53 -5.88,129.48 -37.06,195.45 -34.51,73.1 -107.34,127.78 -196.43,147.46 -23.42,5.15 -78.97,9.33 -150.01,11.3 l -112.86,3.07 0,-725.393 100.46,3.371 c 55.78,1.875 118.97,7.086 142.07,11.726 z"
           id="path3089"
           style="fill:#b1b1b1;fill-opacity:1;fill-rule:nonzero;stroke:none" /></g><path
         d="m 7853.3739,2121.086 c -13.137,6.3047 -36.067,23.5938 -50.965,38.4063 -34.778,34.5976 -47.047,68.4809 -43.36,119.8199 3.973,55.723 30.481,93.864 85.739,123.426 l 21.871,11.695 1149.491,1.36 c 1296.8101,1.555 1180.9001,5.414 1226.7401,-40.625 36.1,-36.246 45.34,-58.629 45.17,-109.426 -0.12,-33.707 -2.64,-47.187 -12.18,-65.3085 -18.24,-34.5782 -45.01,-61.2539 -77.33,-77.0742 l -29.16,-14.2891 -1146.0701,0.2578 -1146.056,0.2891 z m 101.652,614.5312 c -53.652,14.434 -108.652,41.895 -158.207,78.914 -75.801,56.672 -120.797,108.559 -152.6954,176.059 -32.3008,68.402 -37.6836,97.242 -37.6836,201.823 0,87.99 0.8047,95.39 15.2656,139.47 19.2227,58.63 52.6133,109.31 146.7114,222.68 39.414,47.48 131.031,158.09 203.57,245.76 369.273,446.33 388.953,469.33 431.273,503.64 41.028,33.25 103.317,63.24 169.668,81.68 48.462,13.48 61.012,14.78 143.392,14.84 160.97,0.08 192.66,-14.24 445.16,-200.73 46.21,-34.17 88.04,-62.09 92.91,-62.09 4.9,0 25.61,20.81 46.07,46.22 20.45,25.41 64.71,78.59 98.39,118.15 33.68,39.56 94.87,112.56 136.01,162.21 138.67,167.3 197.53,210.23 327.81,239.03 52.49,11.62 194.3901,8.74 244.9801,-4.97 79.23,-21.47 154.66,-69.35 221.27,-140.42 49.61,-52.96 83.95,-111.39 104.78,-178.41 13.92,-44.66 16.45,-61.33 16.45,-107.43 0,-30.02 -2.65,-65.98 -5.93,-79.89 -25.7,-109.4 -55.2,-173.53 -115.08,-250.14 -21.4,-27.35 -118.35,-144.48 -215.49,-260.28 -97.12,-115.79 -209.7501,-251.17 -250.2301,-300.81 -196.09,-240.42 -244.78,-283.962 -358.52,-320.404 -130.42,-41.777 -278.54,-34.656 -383.96,18.469 -34.95,17.606 -91.62,55.695 -218.76,147.045 -55.49,39.88 -105.71,72.52 -111.61,72.55 -7.64,0.03 -61.61,-60.96 -187.884,-212.45 -213.859,-256.504 -237.226,-279.524 -325.844,-321.328 -63.246,-29.821 -92.402,-35.551 -192.457,-37.743 -77.504,-1.703 -95.824,-0.488 -129.359,8.555 z m 164.531,305.66 c 52.293,18.379 54.711,21.055 430.438,477.706 193.785,235.53 181.825,222.42 195.855,214.9 6.08,-3.26 78.39,-55.4 160.68,-115.88 262.38,-192.8 340.22,-248.63 364.71,-261.54 19.74,-10.37 31.81,-12.59 69.03,-12.59 38.81,0.03 49.01,2.04 72.64,14.44 15.3,8.03 37.99,26.82 51.22,42.41 94.56,111.46 348.52,417.35 576.6201,694.45 74.19,90.12 87.5,115.39 84.59,160.62 -6.54,101.53 -103.17,170.13 -196.6401,139.59 -15.49,-5.07 -36.76,-15.53 -47.28,-23.28 -21.23,-15.61 -121.83,-133.08 -282.75,-330.03 -58.44,-71.57 -130.39,-158.77 -159.84,-193.83 -29.47,-35.04 -68.62,-82.27 -87,-104.88 -18.42,-22.64 -35.84,-41.17 -38.75,-41.17 -2.91,0 -57.37,37.65 -120.98,83.64 -414.27,299.51 -410.9,297.16 -435.01,303.87 -10.75,2.96 -35.19,5.41 -54.34,5.44 -68.6,0.06 -82.52,-12.39 -273.447,-244.26 -49.32,-59.87 -138.898,-167.39 -199.113,-238.95 -190.465,-226.43 -287.934,-347.18 -297.898,-369.07 -13.114,-28.87 -12.739,-78.2 0.836,-108.1 36.042,-79.4 114.546,-118.787 186.429,-93.486 z"
         id="path3091"
         style="fill:#b1b1b1;fill-opacity:1;fill-rule:nonzero;stroke:none"
         inkscape:connector-curvature="0"
         sodipodi:nodetypes="cccccccccccccccccscccccccscscccccscccccccccccccccccccccccccccssccccccc" /></g></g></svg>