<?xml version="1.0" encoding="UTF-8" standalone="no"?>
<svg
   width="219.854"
   height="63"
   viewbox="0 0 230 42"
   version="1.1"
   id="svg12160"
   sodipodi:docname="two-sigma.svg"
   inkscape:version="1.1.1 (3bf5ae0d25, 2021-09-20)"
   xmlns:inkscape="http://www.inkscape.org/namespaces/inkscape"
   xmlns:sodipodi="http://sodipodi.sourceforge.net/DTD/sodipodi-0.dtd"
   xmlns:xlink="http://www.w3.org/1999/xlink"
   xmlns="http://www.w3.org/2000/svg"
   xmlns:svg="http://www.w3.org/2000/svg"
   xmlns:rdf="http://www.w3.org/1999/02/22-rdf-syntax-ns#"
   xmlns:cc="http://creativecommons.org/ns#"
   xmlns:dc="http://purl.org/dc/elements/1.1/">
  <sodipodi:namedview
     id="namedview12162"
     pagecolor="#ffffff"
     bordercolor="#666666"
     borderopacity="1.0"
     inkscape:pageshadow="2"
     inkscape:pageopacity="0.0"
     inkscape:pagecheckerboard="0"
     showgrid="false"
     inkscape:zoom="3.8685547"
     inkscape:cx="108.82617"
     inkscape:cy="-0.38774171"
     inkscape:window-width="1866"
     inkscape:window-height="1016"
     inkscape:window-x="54"
     inkscape:window-y="27"
     inkscape:window-maximized="1"
     inkscape:current-layer="g12158"
     fit-margin-top="0"
     fit-margin-left="0"
     fit-margin-right="0"
     fit-margin-bottom="0" />
  <title
     id="title12138">
  Logo
</title>
  <defs
     id="defs12141">
    <path
       id="a"
       d="M 19.436,21.668 V 1.025 H 0 v 20.643 h 19.435 z" />
  </defs>
  <g
     fill="none"
     fill-rule="evenodd"
     id="g12158">
    <path
       fill="#2d2d2d"
       d="M 49.06,24.335 H 41.923 V 21.18 h 17.811 v 3.155 H 52.6 V 41.821 H 49.06 Z M 63.07,21.18 h 3.745 l 4.747,15.66 h 0.06 l 4.483,-15.66 h 3.301 l 4.454,15.66 h 0.059 l 4.777,-15.66 h 3.716 L 85.895,41.821 H 82.09 L 77.755,26.694 h -0.059 l -4.335,15.127 h -3.804 z m 41.214,-0.355 c 5.986,0 10.527,4.158 10.527,10.556 0,6.55 -4.541,10.794 -10.527,10.794 -5.985,0 -10.558,-4.245 -10.558,-10.794 0,-6.398 4.573,-10.556 10.558,-10.556 m 0,18.285 c 3.892,0 6.93,-2.89 6.93,-7.729 0,-4.658 -3.007,-7.518 -6.93,-7.518 -3.922,0 -6.93,2.86 -6.93,7.518 0,4.839 3.038,7.73 6.93,7.73 M 145.13,21.18 h 3.539 v 20.641 h -3.54 v -11.54 z m 18.744,-0.355 c 2.832,0 5.222,0.885 7.313,2.33 0,0 -2.026,2.374 -2.128,2.311 -1.56,-1 -3.21,-1.574 -5.096,-1.574 -4.247,0 -7.048,3.068 -7.048,7.433 0,4.746 2.624,7.785 7.048,7.785 1.534,0 3.067,-0.385 4.13,-1.003 V 33.21 h -5.19 v -2.623 h 8.462 v 9.347 c -2.007,1.416 -4.63,2.24 -7.49,2.24 -6.46,0 -10.587,-4.363 -10.587,-10.85 0,-6.075 4.187,-10.499 10.586,-10.499 m 12.506,0.355 h 3.57 l 6.812,9.701 6.811,-9.701 h 3.541 v 20.641 h -3.421 V 26.429 l -6.962,9.73 -6.958,-9.73 v 15.392 h -3.392 z"
       id="path12143" />
    <g
       transform="translate(200.418,20.1535)"
       id="g12150">
      <mask
         id="b"
         fill="#ffffff">
        <use
           xlink:href="#a"
           id="use12145"
           x="0"
           y="0"
           width="100%"
           height="100%" />
      </mask>
      <path
         d="m 7.639,1.025 h 4.158 l 7.64,20.643 H 15.63 L 14.069,17.214 H 5.368 L 3.835,21.668 H 0 Z M 6.34,14.354 h 6.725 L 9.734,4.74 h -0.06 z"
         fill="#2d2d2d"
         mask="url(#b)"
         id="path12148" />
    </g>
    <path
       d="m 126.826,37.3695 c 1.861,1.007 3.618,1.68 5.887,1.68 2.715,0 4.069,-1.18 4.069,-2.83 0,-4.66 -11.616,-1.594 -11.616,-9.466 0,-3.303 2.74,-5.928 7.37,-5.928 2.714,0 5.443,0.653 7.579,1.902 l -2.314,2.361 c -1.68,-0.72 -3.11,-1.137 -5.146,-1.137 -2.389,0 -3.806,1.21 -3.806,2.744 0,4.63 11.62,1.473 11.62,9.494 0,3.393 -2.567,5.985 -7.756,5.985 -3.035,0 -6.33,-1.076 -8.273,-2.419 z"
       fill="#2d2d2d"
       id="path12152" />
    <path
       fill="#009aa6"
       d="M 20.625,10.871 0,31.501 20.625,52.129 41.255,31.501 Z"
       id="path12154" />
    <path
       d="m 9.748,37.425 c -0.16,-6.605 7.789,-5.746 7.789,-9.13 0,-1.1 -0.863,-2.041 -2.784,-2.041 -1.401,0 -2.743,0.701 -3.724,1.602 l -1.46,-1.463 c 1.259,-1.18 3.223,-2.14 5.284,-2.14 3.304,0 4.986,1.842 4.986,4.003 0,4.986 -7.728,4.104 -7.728,8.27 h 7.607 v 1.98 h -9.95 z m 15.937,-0.5 c -1.521,0 -2.423,-0.98 -2.423,-2.862 0,-2.404 1.602,-4.566 3.525,-4.566 1.5,0 2.402,0.981 2.402,2.883 0,2.401 -1.582,4.545 -3.504,4.545 z m 9.713,-9.25 h -8.444 v 0.003 c -3.437,0.005 -6.033,2.745 -6.033,6.403 0,2.905 1.881,4.666 4.544,4.666 3.464,0 6.067,-2.743 6.067,-6.386 0,-1.182 -0.313,-2.173 -0.856,-2.935 h 2.947 l 1.775,-1.75 z"
       fill="#ffffff"
       id="path12156" />
  </g>
  <metadata
     id="metadata12238">
    <rdf:RDF>
      <cc:Work
         rdf:about="">
        <dc:title>
  Logo
</dc:title>
      </cc:Work>
    </rdf:RDF>
  </metadata>
</svg>
