<?xml version="1.0" encoding="UTF-8" standalone="no"?>
<svg width="79px" height="60px" viewBox="0 0 79 60" version="1.1" xmlns="http://www.w3.org/2000/svg" xmlns:xlink="http://www.w3.org/1999/xlink" xmlns:sketch="http://www.bohemiancoding.com/sketch/ns">
    <!-- Generator: Sketch 3.3.3 (12072) - http://www.bohemiancoding.com/sketch -->
    <title>Imported Layers</title>
    <desc>Created with Sketch.</desc>
    <defs></defs>
    <g id="Page-1" stroke="none" stroke-width="1" fill="none" fill-rule="evenodd" sketch:type="MSPage">
        <path d="M5.2386875,58.9723796 L3.68447222,55.1520626 L2.13574306,58.9723796 L1.92507639,58.9723796 L0.0949097222,52.9583094 L0.743916667,52.9583094 L2.10556944,57.5040377 L3.5895625,53.8298979 L3.80516667,53.8298979 L5.29080556,57.4700939 L6.64148611,52.9583094 L7.27622917,52.9583094 L5.45484028,58.9723796 L5.2386875,58.9723796 L5.2386875,58.9723796 Z M12.2976667,58.9274862 L11.5992847,57.2746435 L8.89792361,57.2746435 L8.19679861,58.9274862 L7.51926389,58.9274862 L10.1536944,52.9183433 L10.36875,52.9183433 L13.0075694,58.9274862 L12.2976667,58.9274862 L12.2976667,58.9274862 Z M9.13053472,56.7271632 L11.3688681,56.7271632 L10.2486042,54.1019956 L9.13053472,56.7271632 L9.13053472,56.7271632 Z M13.9050972,58.049328 L13.9133264,58.049328 C14.4098194,58.2973365 14.9386806,58.4254469 15.493875,58.4254469 C16.2493125,58.4254469 16.6931389,58.0323561 16.6931389,57.3928992 C16.6931389,56.6773425 16.2279167,56.4895568 15.316125,56.0986559 C14.5798889,55.7811174 13.8189653,55.4433221 13.8189653,54.4671649 C13.8189653,53.5035997 14.5200903,52.8570255 15.6644931,52.8570255 C16.1033819,52.8570255 16.5120972,52.926008 16.9284931,53.0672579 L16.9284931,53.7001451 L16.9246528,53.7001451 C16.5120972,53.5567053 16.0830833,53.4625387 15.6644931,53.4625387 C14.9386806,53.4625387 14.5025347,53.8008814 14.5025347,54.4003723 C14.5025347,54.9971257 14.9891528,55.2270674 15.6771111,55.5166845 C16.4698542,55.8572172 17.3767083,56.208152 17.3767083,57.3272016 C17.3767083,58.3214256 16.6404722,59.029865 15.493875,59.029865 C14.9216736,59.029865 14.3494722,58.9121568 13.9050972,58.7150639 L13.9050972,58.049328 L13.9050972,58.049328 Z M23.1014653,58.9274862 L23.1014653,56.1911801 L19.9052569,56.1911801 L19.9052569,58.9274862 L19.2474722,58.9274862 L19.2474722,52.9583094 L19.9052569,52.9583094 L19.9052569,55.6042813 L23.1014653,55.6042813 L23.1014653,52.9583094 L23.7597986,52.9583094 L23.7597986,58.9274862 L23.1014653,58.9274862 L23.1014653,58.9274862 Z M26.0590278,52.9583094 L26.7146181,52.9583094 L26.7146181,58.9274862 L26.0590278,58.9274862 L26.0590278,52.9583094 Z M33.3742083,58.9466481 L29.6315833,54.3746407 L29.6315833,58.9274862 L29.0165903,58.9274862 L29.0165903,52.9402425 L29.2788264,52.9402425 L33.0225486,57.5127974 L33.0225486,52.9583094 L33.6375417,52.9583094 L33.6375417,58.9466481 L33.3742083,58.9466481 L33.3742083,58.9466481 Z M40.3574792,56.5404725 L38.7769306,56.5404725 L38.7769306,55.9267471 L41.0064861,55.9267471 L41.0064861,58.3318278 C40.4085,58.7867838 39.7079236,59.029865 38.8197222,59.029865 C37.1607222,59.029865 35.6235139,57.8117216 35.6235139,55.9453615 C35.6235139,53.9908571 37.2539861,52.8570255 38.8367292,52.8570255 C39.4753125,52.8570255 40.1533958,52.9758287 40.7140764,53.2495689 L40.7140764,53.897238 L40.7074931,53.897238 C40.141875,53.606526 39.4347153,53.4625387 38.8455069,53.4625387 C37.2539861,53.4625387 36.3284792,54.5454545 36.3284792,55.9453615 C36.3284792,57.3512907 37.4339306,58.4331116 38.8279514,58.4331116 C39.4177083,58.4331116 39.8779931,58.3159508 40.3574792,58.0323561 L40.3574792,56.5404725 L40.3574792,56.5404725 Z M44.0677361,58.9274862 L44.0677361,53.5490405 L42.0675,53.5490405 L42.0675,52.9583094 L46.7153333,52.9583094 L46.7153333,53.5490405 L44.7172917,53.5490405 L44.7172917,58.9274862 L44.0677361,58.9274862 L44.0677361,58.9274862 Z M47.4164583,55.9453615 C47.4164583,54.1534587 48.8165139,52.8570255 50.4338194,52.8570255 C52.0483819,52.8570255 53.3826042,54.1534587 53.3826042,55.9453615 C53.3826042,57.7334319 51.9863889,59.0243902 50.3734722,59.0243902 C48.7567153,59.0243902 47.4164583,57.7334319 47.4164583,55.9453615 L47.4164583,55.9453615 Z M52.6721528,55.9453615 C52.6721528,54.5350524 51.7334792,53.4466617 50.4080347,53.4466617 C49.0749097,53.4466617 48.1258125,54.5350524 48.1258125,55.9453615 C48.1258125,57.3512907 49.0749097,58.4435137 50.4080347,58.4435137 C51.7334792,58.4435137 52.6721528,57.3512907 52.6721528,55.9453615 L52.6721528,55.9453615 Z M59.7223542,58.9466481 L55.9786319,54.3746407 L55.9786319,58.9274862 L55.3680278,58.9274862 L55.3680278,52.9402425 L55.6280694,52.9402425 L59.3723403,57.5127974 L59.3723403,52.9583094 L59.9873333,52.9583094 L59.9873333,58.9466481 L59.7223542,58.9466481 L59.7223542,58.9466481 Z M62.1839722,60 L61.7895208,60 L61.9963472,58.1024335 L62.7408125,58.1024335 L62.7408125,58.3318278 L62.1839722,60 L62.1839722,60 Z M67.2575278,52.9583094 L68.8325903,52.9583094 C71.0610486,52.9583094 72.2400139,54.3379595 72.2400139,55.9453615 C72.2400139,57.5390764 71.0528194,58.9274862 68.8325903,58.9274862 L67.2575278,58.9274862 L67.2575278,52.9583094 L67.2575278,52.9583094 Z M68.8325903,53.5413758 L67.9076319,53.5413758 L67.9076319,58.3498946 L68.8325903,58.3498946 C70.6517847,58.3498946 71.5339514,57.3408886 71.5339514,55.9453615 C71.5339514,54.5531193 70.6435556,53.5413758 68.8325903,53.5413758 L68.8325903,53.5413758 Z M78.7448958,58.1024335 L78.7448958,58.725466 C78.2758333,58.9198215 77.7612361,59.029865 77.1215556,59.029865 C75.2496944,59.029865 73.9083403,57.7334319 73.9083403,55.9453615 C73.9083403,54.1884974 75.2842569,52.8570255 77.1215556,52.8570255 C77.7612361,52.8570255 78.2758333,52.9659741 78.7448958,53.161972 L78.7448958,53.785552 L78.7355694,53.785552 C78.2412708,53.5671074 77.6860764,53.4625387 77.1133264,53.4625387 C75.533875,53.4625387 74.6165972,54.5350524 74.6165972,55.9453615 C74.6165972,57.3512907 75.5914792,58.4254469 77.1215556,58.4254469 C77.6860764,58.4254469 78.2412708,58.3214256 78.7355694,58.1024335 L78.7448958,58.1024335 L78.7448958,58.1024335 Z M0,46.3710273 L79,46.3710273 L79,47.6417289 L0,47.6417289 L0,46.3710273 Z M4.33841667,14.6549506 L2.94659028,14.6549506 L2.94659028,7.81418521 L0.277597222,7.81418521 L0.277597222,6.55169582 L7.00686111,6.55169582 L7.00686111,7.81418521 L4.33841667,7.81418521 L4.33841667,14.6549506 L4.33841667,14.6549506 Z M15.533375,14.6549506 L14.1415486,14.6549506 L14.1415486,11.1685965 L10.220625,11.1685965 L10.220625,14.6549506 L8.83977083,14.6549506 L8.83977083,6.55169582 L10.220625,6.55169582 L10.220625,9.93019627 L14.1415486,9.93019627 L14.1415486,6.55169582 L15.533375,6.55169582 L15.533375,14.6549506 L15.533375,14.6549506 Z M23.7104236,14.6549506 L18.2928889,14.6549506 L18.2928889,6.55169582 L23.7104236,6.55169582 L23.7104236,7.81418521 L19.6869097,7.81418521 L19.6869097,9.93019627 L23.4778125,9.93019627 L23.4778125,11.1472448 L19.6869097,11.1472448 L19.6869097,13.3908188 L23.7104236,13.3908188 L23.7104236,14.6549506 L23.7104236,14.6549506 Z M34.2733819,11.5162465 L32.3477569,11.5162465 L32.3477569,10.3008404 L35.6081528,10.3008404 L35.6081528,14.0987107 C34.7962083,14.5624264 33.8103542,14.850401 32.6489444,14.850401 C30.2015903,14.850401 28.2073889,13.1499275 28.2073889,10.6134516 C28.2073889,7.92860858 30.3195417,6.35405546 32.8360208,6.35405546 C33.6583889,6.35405546 34.3545764,6.44657962 35.0277222,6.66830911 L35.0277222,7.99868605 C34.3205625,7.73096822 33.5327569,7.62585202 32.8360208,7.62585202 C30.7787292,7.62585202 29.6913819,8.89983849 29.6913819,10.6019545 C29.6913819,12.373053 30.9323403,13.6251403 32.7197153,13.6251403 C33.3358056,13.6251403 33.8207778,13.5408283 34.2733819,13.3563275 L34.2733819,11.5162465 L34.2733819,11.5162465 Z M43.4143403,14.6549506 L37.9979028,14.6549506 L37.9979028,6.55169582 L43.4143403,6.55169582 L43.4143403,7.81418521 L39.3875347,7.81418521 L39.3875347,9.93019627 L43.1817292,9.93019627 L43.1817292,11.1472448 L39.3875347,11.1472448 L39.3875347,13.3908188 L43.4143403,13.3908188 L43.4143403,14.6549506 L43.4143403,14.6549506 Z M45.3141806,10.6019545 C45.3141806,8.17059484 47.1344722,6.35405546 49.4918542,6.35405546 C51.8574653,6.35405546 53.5954653,8.17059484 53.5954653,10.6019545 C53.5954653,13.0327667 51.7762708,14.850401 49.4188889,14.850401 C47.0532778,14.850401 45.3141806,13.0327667 45.3141806,10.6019545 L45.3141806,10.6019545 Z M52.1114722,10.6019545 C52.1114722,8.88943637 51.0230278,7.58041116 49.4446736,7.58041116 C47.8888125,7.58041116 46.8014653,8.88943637 46.8014653,10.6019545 C46.8014653,12.3150201 47.8888125,13.6251403 49.4660694,13.6251403 C51.0230278,13.6251403 52.1114722,12.3150201 52.1114722,10.6019545 L52.1114722,10.6019545 Z M57.3199861,14.6549506 L55.9270625,14.6549506 L55.9270625,6.55169582 L58.4901736,6.55169582 C60.6292083,6.55169582 61.7379514,7.6734828 61.7379514,9.18781309 C61.7379514,10.254852 61.1827569,11.1346528 60.1168056,11.5611399 L62.1686111,14.6549506 L60.5419792,14.6549506 L58.7825833,11.8671813 L57.3199861,11.8671813 L57.3199861,14.6549506 L57.3199861,14.6549506 Z M58.5752083,10.6397306 C59.7212569,10.6397306 60.2775486,10.1048425 60.2775486,9.22668419 C60.2775486,8.34688347 59.7212569,7.80049821 58.5752083,7.80049821 L57.3199861,7.80049821 L57.3199861,10.6397306 L58.5752083,10.6397306 L58.5752083,10.6397306 Z M69.5803472,11.5162465 L67.6547222,11.5162465 L67.6547222,10.3008404 L70.9145694,10.3008404 L70.9145694,14.0987107 C70.0998819,14.5624264 69.1162222,14.850401 67.9559097,14.850401 C65.5085556,14.850401 63.5143542,13.1499275 63.5143542,10.6134516 C63.5143542,7.92860858 65.6243125,6.35405546 68.1435347,6.35405546 C68.9653542,6.35405546 69.6626389,6.44657962 70.3324931,6.66830911 L70.3324931,7.99868605 C69.6242361,7.73096822 68.8358819,7.62585202 68.1435347,7.62585202 C66.0862431,7.62585202 64.9967014,8.89983849 64.9967014,10.6019545 C64.9967014,12.373053 66.2393056,13.6251403 68.0244861,13.6251403 C68.6405764,13.6251403 69.1293889,13.5408283 69.5803472,13.3563275 L69.5803472,11.5162465 L69.5803472,11.5162465 Z M78.7191111,14.6549506 L73.3026736,14.6549506 L73.3026736,6.55169582 L78.7191111,6.55169582 L78.7191111,7.81418521 L74.6966944,7.81418521 L74.6966944,9.93019627 L78.4886944,9.93019627 L78.4886944,11.1472448 L74.6966944,11.1472448 L74.6966944,13.3908188 L78.7191111,13.3908188 L78.7191111,14.6549506 L78.7191111,14.6549506 Z M7.1445625,37.7942022 C7.1445625,39.902001 5.69732639,41.1513509 3.70147917,41.1513509 C1.68204167,41.1513509 0.290215278,39.9364923 0.290215278,37.7942022 L0.290215278,32.913416 L1.68204167,32.913416 L1.68204167,37.7252197 C1.68204167,39.1508582 2.43693056,39.9145931 3.72561806,39.9145931 C4.986875,39.9145931 5.75328472,39.1377186 5.75328472,37.7252197 L5.75328472,32.913416 L7.1445625,32.913416 L7.1445625,37.7942022 L7.1445625,37.7942022 Z M17.3185556,41.0708713 L16.8429097,41.0708713 L11.7731944,35.6995429 L11.7731944,41.0133859 L10.4499444,41.0133859 L10.4499444,32.8531932 L10.9239444,32.8531932 L15.9953056,38.2475158 L15.9953056,32.913416 L17.3185556,32.913416 L17.3185556,41.0708713 L17.3185556,41.0708713 Z M20.7358542,32.913416 L22.129875,32.913416 L22.129875,41.0133859 L20.7358542,41.0133859 L20.7358542,32.913416 Z M28.0779167,41.0708713 L24.2716528,32.913416 L25.7945972,32.913416 L28.2737708,38.4079275 L30.7694028,32.913416 L32.2424236,32.913416 L28.4356111,41.0708713 L28.0779167,41.0708713 L28.0779167,41.0708713 Z M39.9427292,41.0133859 L34.38475,41.0133859 L34.38475,32.913416 L39.9427292,32.913416 L39.9427292,34.172073 L35.7787708,34.172073 L35.7787708,36.2924639 L39.7101181,36.2924639 L39.7101181,37.50787 L35.7787708,37.50787 L35.7787708,39.751444 L39.9427292,39.751444 L39.9427292,41.0133859 L39.9427292,41.0133859 Z M44.4396944,41.0133859 L43.0478681,41.0133859 L43.0478681,32.913416 L45.7042431,32.913416 C47.8750972,32.913416 49.009625,34.034108 49.009625,35.5489858 C49.009625,36.6138348 48.4396181,37.50787 47.3380069,37.92286 L49.4490625,41.0133859 L47.8268194,41.0133859 L46.0048819,38.2234267 L44.4396944,38.2234267 L44.4396944,41.0133859 L44.4396944,41.0133859 Z M45.7843403,36.995976 C46.9671458,36.995976 47.5503194,36.4643727 47.5503194,35.583477 C47.5503194,34.7064137 46.9671458,34.1611234 45.7843403,34.1611234 L44.4396944,34.1611234 L44.4396944,36.995976 L45.7843403,36.995976 L45.7843403,36.995976 Z M51.4898958,39.4618269 C52.2442361,39.7990748 53.0556319,39.9830281 53.8450833,39.9830281 C54.8665972,39.9830281 55.2253889,39.4169336 55.2253889,38.82456 C55.2253889,38.1073609 54.6926875,37.9124579 53.4616042,37.4252005 C52.4296667,37.0217076 51.3286042,36.5109085 51.3286042,35.1329008 C51.3286042,33.7313515 52.4214375,32.7141332 54.1934514,32.7141332 C54.8430069,32.7141332 55.4684236,32.8400537 56.0494028,33.0382415 L56.0494028,34.381758 L56.0258125,34.381758 C55.4920139,34.1501738 54.7530347,33.9399414 54.1122569,33.9399414 C53.1713889,33.9399414 52.7440208,34.381758 52.7440208,34.9702992 C52.7440208,35.6075662 53.2300903,35.7937095 54.4496528,36.2557828 C55.5029861,36.6620131 56.6408056,37.1700747 56.6408056,38.6614109 C56.6408056,39.9704361 55.6906111,41.2093838 53.7627917,41.2093838 C52.9075069,41.2093838 52.1279306,41.0610167 51.4674028,40.8053434 L51.4674028,39.4618269 L51.4898958,39.4618269 L51.4898958,39.4618269 Z M59.5402153,32.913416 L60.9292986,32.913416 L60.9292986,41.0133859 L59.5402153,41.0133859 L59.5402153,32.913416 Z M67.4824583,41.0133859 L66.0928264,41.0133859 L66.0928264,34.172073 L63.3903681,34.172073 L63.3903681,32.913416 L70.1860139,32.913416 L70.1860139,34.172073 L67.4824583,34.172073 L67.4824583,41.0133859 L67.4824583,41.0133859 Z M74.4629861,41.0133859 L74.4629861,37.6940133 L71.4225833,32.913416 L73.0261736,32.913416 L75.1833125,36.4873669 L77.3157639,32.913416 L78.8853403,32.913416 L75.8443889,37.7022255 L75.8443889,41.0133859 L74.4629861,41.0133859 L74.4629861,41.0133859 Z M6.98381944,27.8908324 L4.91884722,23.4359859 L2.93616667,27.8908324 L2.57463194,27.8908324 L0.0603472222,19.7311872 L1.4861875,19.7311872 L2.99377083,24.8818811 L4.86069444,20.7850866 L5.0955,20.7850866 L6.98381944,24.8692891 L8.502375,19.7311872 L9.83988889,19.7311872 L7.34425694,27.8908324 L6.98381944,27.8908324 L6.98381944,27.8908324 Z M15.6902778,27.8338945 L15.0061597,26.2253976 L11.7325972,26.2253976 L11.0616458,27.8338945 L9.62483333,27.8338945 L13.2215278,19.6731543 L13.578125,19.6731543 L17.1742708,27.8338945 L15.6902778,27.8338945 L15.6902778,27.8338945 Z M12.2230556,25.066382 L14.5200903,25.066382 L13.3669097,22.3579973 L12.2230556,25.066382 L12.2230556,25.066382 Z M18.2682014,26.2817881 C18.9314722,26.6190359 19.6397292,26.8029892 20.3359167,26.8029892 C21.2307014,26.8029892 21.5659028,26.2363472 21.5659028,25.6456161 C21.5659028,24.9054228 21.0194861,24.6973803 19.977125,24.2468041 C19.0258333,23.8411212 18.0043194,23.3193726 18.0043194,21.9413649 C18.0043194,20.552955 19.0022431,19.5340943 20.6469792,19.5340943 C21.2520972,19.5340943 21.8544722,19.6600148 22.3882708,19.8592976 L22.3882708,21.2011716 L22.3762014,21.2011716 C21.9016528,20.9668501 21.2180833,20.7609975 20.6469792,20.7609975 C19.8026667,20.7609975 19.4169931,21.2011716 19.4169931,21.7913553 C19.4169931,22.449974 19.9880972,22.671156 20.9048264,23.0658892 C21.8769653,23.4825217 22.9818681,23.9905833 22.9818681,25.4956065 C22.9818681,26.7920396 22.0870833,28.02825 20.3359167,28.02825 C19.5464653,28.02825 18.8617986,27.8782404 18.2572292,27.6253045 L18.2572292,26.2817881 L18.2682014,26.2817881 L18.2682014,26.2817881 Z M31.2796111,27.8338945 L29.8894306,27.8338945 L29.8894306,24.3497304 L26.2219653,24.3497304 L26.2219653,27.8338945 L24.8405625,27.8338945 L24.8405625,19.7311872 L26.2219653,19.7311872 L26.2219653,23.1113301 L29.8894306,23.1113301 L29.8894306,19.7311872 L31.2796111,19.7311872 L31.2796111,27.8338945 L31.2796111,27.8338945 Z M33.8037708,19.7311872 L35.1934028,19.7311872 L35.1934028,27.8338945 L33.8037708,27.8338945 L33.8037708,19.7311872 Z M44.2690764,27.8908324 L43.7967222,27.8908324 L39.0413611,22.6136706 L39.0413611,27.8338945 L37.7159167,27.8338945 L37.7159167,19.6731543 L38.1915625,19.6731543 L42.9491181,24.9744053 L42.9491181,19.7311872 L44.2690764,19.7311872 L44.2690764,27.8908324 L44.2690764,27.8908324 Z M52.2914167,24.6973803 L50.4360139,24.6973803 L50.4360139,23.4825217 L53.6245417,23.4825217 L53.6245417,27.2798445 C52.8252153,27.7419178 51.8662431,28.02825 50.7262292,28.02825 C48.3260556,28.02825 46.3653194,26.3288714 46.3653194,23.7934905 C46.3653194,21.1091949 48.4286458,19.5340943 50.8984931,19.5340943 C51.6978194,19.5340943 52.3857778,19.6282609 53.0468542,19.8467055 L53.0468542,21.1666804 L53.0364306,21.1666804 C52.3484722,20.9110071 51.5842569,20.8080808 50.9138542,20.8080808 C48.9174583,20.8080808 47.8493125,22.0809723 47.8493125,23.7803509 C47.8493125,25.5541869 49.0546111,26.8029892 50.7838333,26.8029892 C51.3752361,26.8029892 51.853625,26.7214147 52.2914167,26.5374613 L52.2914167,24.6973803 L52.2914167,24.6973803 Z M58.6295208,27.8338945 L57.2387917,27.8338945 L57.2387917,20.9925816 L54.6531875,20.9925816 L54.6531875,19.7311872 L61.2184167,19.7311872 L61.2184167,20.9925816 L58.6295208,20.9925816 L58.6295208,27.8338945 L58.6295208,27.8338945 Z M61.9535556,23.7803509 C61.9535556,21.3533711 63.7409306,19.5340943 66.0604583,19.5340943 C68.3931528,19.5340943 70.0965903,21.3533711 70.0965903,23.7803509 C70.0965903,26.2128056 68.3119583,28.02825 65.9929792,28.02825 C63.6613819,28.02825 61.9535556,26.2128056 61.9535556,23.7803509 L61.9535556,23.7803509 Z M68.6125972,23.7803509 C68.6125972,22.0705702 67.5455486,20.7609975 66.014375,20.7609975 C64.5056944,20.7609975 63.4397431,22.0705702 63.4397431,23.7803509 C63.4397431,25.4956065 64.5056944,26.8029892 66.0357708,26.8029892 C67.5455486,26.8029892 68.6125972,25.4956065 68.6125972,23.7803509 L68.6125972,23.7803509 Z M78.7448958,27.8908324 L78.2714444,27.8908324 L73.5149861,22.6136706 L73.5149861,27.8338945 L72.1917361,27.8338945 L72.1917361,19.6731543 L72.6673819,19.6731543 L77.4227431,24.9744053 L77.4227431,19.7311872 L78.7448958,19.7311872 L78.7448958,27.8908324 L78.7448958,27.8908324 Z M0,0 L79,0 L79,1.26796419 L0,1.26796419 L0,0 Z" id="Imported-Layers" fill="#B1B1B1" sketch:type="MSShapeGroup"></path>
    </g>
</svg>