<?xml version="1.0" encoding="UTF-8" standalone="no"?>
<svg
   width="300"
   height="90"
   viewBox="0 0 300 90"
   version="1.1"
   id="svg4125"
   sodipodi:docname="washington.svg"
   inkscape:version="1.1.1 (3bf5ae0d25, 2021-09-20)"
   xmlns:inkscape="http://www.inkscape.org/namespaces/inkscape"
   xmlns:sodipodi="http://sodipodi.sourceforge.net/DTD/sodipodi-0.dtd"
   xmlns="http://www.w3.org/2000/svg"
   xmlns:svg="http://www.w3.org/2000/svg"
   xmlns:rdf="http://www.w3.org/1999/02/22-rdf-syntax-ns#"
   xmlns:cc="http://creativecommons.org/ns#"
   xmlns:dc="http://purl.org/dc/elements/1.1/"
   xmlns:sketch="http://www.bohemiancoding.com/sketch/ns">
  <sodipodi:namedview
     id="namedview4127"
     pagecolor="#ffffff"
     bordercolor="#666666"
     borderopacity="1.0"
     inkscape:pageshadow="2"
     inkscape:pageopacity="0.0"
     inkscape:pagecheckerboard="0"
     showgrid="false"
     inkscape:zoom="3.6736317"
     inkscape:cx="157.88191"
     inkscape:cy="15.652086"
     inkscape:window-width="1866"
     inkscape:window-height="1016"
     inkscape:window-x="54"
     inkscape:window-y="27"
     inkscape:window-maximized="1"
     inkscape:current-layer="svg4125" />
  <!-- Generator: Sketch 3.3.3 (12072) - http://www.bohemiancoding.com/sketch -->
  <title
     id="title4117">Imported Layers</title>
  <desc
     id="desc4119">Created with Sketch.</desc>
  <defs
     id="defs4121" />
  <g
     id="Page-1"
     stroke="none"
     stroke-width="1"
     fill="none"
     fill-rule="evenodd"
     sketch:type="MSPage"
     transform="matrix(1.4810628,0,0,1.4810628,91.498019,0.568116)">
    <path
       d="M 5.2386875,58.97238 3.6844722,55.152063 2.1357431,58.97238 H 1.9250764 L 0.09490972,52.958309 h 0.64900695 l 1.36165273,4.545729 1.4839931,-3.67414 h 0.2156042 l 1.4856389,3.640196 1.3506805,-4.511785 H 7.2762292 L 5.4548403,58.97238 Z M 12.297667,58.92749 11.599285,57.274648 H 8.8979236 L 8.1967986,58.92749 H 7.5192639 l 2.6344301,-6.009143 h 0.215056 l 2.638819,6.009143 z M 9.1305347,56.727163 h 2.2383333 l -1.120264,-2.625167 z m 4.7745623,1.322165 h 0.0082 c 0.496493,0.248008 1.025355,0.376119 1.580549,0.376119 0.755437,0 1.199264,-0.393091 1.199264,-1.032548 0,-0.715556 -0.465222,-0.903342 -1.377014,-1.294243 -0.736236,-0.317539 -1.49716,-0.655334 -1.49716,-1.631491 0,-0.963565 0.701125,-1.61014 1.845528,-1.61014 0.438889,0 0.847604,0.06898 1.264,0.210233 v 0.632887 h -0.0038 c -0.412556,-0.14344 -0.84157,-0.237606 -1.26016,-0.237606 -0.725812,0 -1.161958,0.338342 -1.161958,0.937833 0,0.596754 0.486618,0.826695 1.174576,1.116312 0.792743,0.340533 1.699597,0.691468 1.699597,1.810518 0,0.994224 -0.736236,1.702663 -1.882833,1.702663 -0.572201,0 -1.144403,-0.117708 -1.588778,-0.314801 v -0.665736 z m 9.196368,0.878158 V 56.19118 h -3.196208 v 2.736306 h -0.657785 v -5.969177 h 0.657785 v 2.645972 h 3.196208 v -2.645972 h 0.658334 v 5.969177 z m 2.957563,-5.969177 h 0.65559 v 5.969177 h -0.65559 z m 7.31518,5.988339 -3.742625,-4.572007 v 4.552845 H 29.01659 v -5.987244 h 0.262236 l 3.743723,4.572555 v -4.554488 h 0.614993 v 5.988339 z m 6.983271,-2.406176 h -1.580548 v -0.613725 h 2.229555 v 2.405081 c -0.597986,0.454956 -1.298562,0.698037 -2.186764,0.698037 -1.659,0 -3.196208,-1.218143 -3.196208,-3.084504 0,-1.954504 1.630472,-3.088336 3.213215,-3.088336 0.638583,0 1.316667,0.118804 1.877347,0.392544 v 0.647669 h -0.0066 c -0.565618,-0.290712 -1.272778,-0.434699 -1.861986,-0.434699 -1.591521,0 -2.517028,1.082915 -2.517028,2.482822 0,1.40593 1.105452,2.487751 2.499472,2.487751 0.589757,0 1.050042,-0.117161 1.529528,-0.400756 v -1.491884 z m 3.710257,2.387014 V 53.54904 H 42.0675 v -0.590731 h 4.647833 v 0.590731 h -1.998041 v 5.378446 z m 3.348722,-2.982125 c 0,-1.791902 1.400056,-3.088336 3.017361,-3.088336 1.614563,0 2.948785,1.296434 2.948785,3.088336 0,1.788071 -1.396215,3.079029 -3.009132,3.079029 -1.616757,0 -2.957014,-1.290958 -2.957014,-3.079029 z m 5.255695,0 c 0,-1.410309 -0.938674,-2.498699 -2.264118,-2.498699 -1.333125,0 -2.282222,1.08839 -2.282222,2.498699 0,1.40593 0.949097,2.498153 2.282222,2.498153 1.325444,0 2.264118,-1.092223 2.264118,-2.498153 z m 7.050201,3.001287 -3.743722,-4.572007 v 4.552845 h -0.610604 v -5.987244 h 0.260041 l 3.744271,4.572555 v -4.554488 h 0.614993 v 5.988339 z M 62.183972,60 h -0.394451 l 0.206826,-1.897567 h 0.744465 v 0.229395 z m 5.073556,-7.041691 h 1.575062 c 2.228459,0 3.407424,1.37965 3.407424,2.987052 0,1.593715 -1.187195,2.982125 -3.407424,2.982125 h -1.575062 z m 1.575062,0.583067 h -0.924958 v 4.808519 h 0.924958 c 1.819195,0 2.701361,-1.009006 2.701361,-2.404534 0,-1.392242 -0.890395,-2.403985 -2.701361,-2.403985 z m 9.912306,4.561057 v 0.623033 c -0.469063,0.194355 -0.98366,0.304399 -1.62334,0.304399 -1.871862,0 -3.213216,-1.296433 -3.213216,-3.084504 0,-1.756864 1.375917,-3.088336 3.213216,-3.088336 0.63968,0 1.154277,0.108949 1.62334,0.304947 v 0.62358 h -0.0093 c -0.494298,-0.218445 -1.049493,-0.323013 -1.622243,-0.323013 -1.579451,0 -2.496729,1.072513 -2.496729,2.482822 0,1.40593 0.974882,2.480086 2.504959,2.480086 0.56452,0 1.119715,-0.104021 1.614013,-0.323014 z M 0,46.371027 h 79 v 1.270702 H 0 Z M 4.3384167,14.654951 H 2.9465903 V 7.8141852 H 0.27759722 V 6.5516958 H 7.0068611 V 7.8141852 H 4.3384167 Z m 11.1949583,0 h -1.391826 v -3.486354 h -3.920924 v 3.486354 H 8.8397708 V 6.5516958 h 1.3808542 v 3.3785005 h 3.920924 V 6.5516958 h 1.391826 z m 8.177049,0 H 18.292889 V 6.5516958 h 5.417535 V 7.8141852 H 19.68691 v 2.1160111 h 3.790902 V 11.147245 H 19.68691 v 2.243574 h 4.023514 z M 34.273382,11.516246 H 32.347757 V 10.30084 h 3.260396 v 3.797871 c -0.811945,0.463715 -1.797799,0.75169 -2.959209,0.75169 -2.447354,0 -4.441555,-1.700473 -4.441555,-4.236949 0,-2.6848434 2.112153,-4.2593965 4.628632,-4.2593965 0.822368,0 1.518555,0.092524 2.191701,0.3142536 V 7.998686 c -0.70716,-0.2677178 -1.494965,-0.372834 -2.191701,-0.372834 -2.057292,0 -3.144639,1.2739865 -3.144639,2.976103 0,1.771098 1.240958,3.023185 3.028333,3.023185 0.616091,0 1.101063,-0.08431 1.553667,-0.268812 z m 9.140958,3.138705 H 37.997903 V 6.5516958 h 5.416437 v 1.2624894 h -4.026805 v 2.1160111 h 3.794194 v 1.2170487 h -3.794194 v 2.243574 h 4.026805 z m 1.899841,-4.052996 c 0,-2.4313602 1.820291,-4.2478995 4.177673,-4.2478995 2.365611,0 4.103611,1.8165393 4.103611,4.2478995 0,2.430812 -1.819194,4.248446 -4.176576,4.248446 -2.365611,0 -4.104708,-1.817634 -4.104708,-4.248446 z m 6.797291,0 c 0,-1.7125186 -1.088444,-3.0215438 -2.666798,-3.0215438 -1.555862,0 -2.643209,1.3090252 -2.643209,3.0215438 0,1.713065 1.087347,3.023185 2.664604,3.023185 1.556959,0 2.645403,-1.31012 2.645403,-3.023185 z m 5.208514,4.052996 H 55.927062 V 6.5516958 h 2.563112 c 2.139034,0 3.247777,1.121787 3.247777,2.6361173 0,1.0670389 -0.555194,1.9468399 -1.621145,2.3733269 l 2.051805,3.093811 h -1.626632 l -1.759396,-2.78777 h -1.462597 z m 1.255222,-4.01522 c 1.146049,0 1.702341,-0.534888 1.702341,-1.4130468 0,-0.8798007 -0.556292,-1.426186 -1.702341,-1.426186 h -1.255222 v 2.8392328 z m 11.005139,0.876515 H 67.654722 V 10.30084 h 3.259847 v 3.797871 c -0.814687,0.463715 -1.798347,0.75169 -2.958659,0.75169 -2.447354,0 -4.441556,-1.700473 -4.441556,-4.236949 0,-2.6848434 2.109959,-4.2593965 4.629181,-4.2593965 0.821819,0 1.519104,0.092524 2.188958,0.3142536 V 7.998686 C 69.624236,7.7309682 68.835882,7.625852 68.143535,7.625852 c -2.057292,0 -3.146834,1.2739865 -3.146834,2.976103 0,1.771098 1.242605,3.023185 3.027785,3.023185 0.61609,0 1.104903,-0.08431 1.555861,-0.268812 z m 9.138764,3.138705 H 73.302674 V 6.5516958 h 5.416437 v 1.2624894 h -4.022417 v 2.1160111 h 3.792 v 1.2170487 h -3.792 v 2.243574 h 4.022417 z M 7.1445625,37.794202 c 0,2.107799 -1.4472361,3.357149 -3.4430833,3.357149 -2.0194375,0 -3.41126392,-1.214859 -3.41126392,-3.357149 V 32.913416 H 1.6820417 v 4.811804 c 0,1.425638 0.7548889,2.189373 2.0435764,2.189373 1.2612569,0 2.0276666,-0.776874 2.0276666,-2.189373 V 32.913416 H 7.1445625 Z M 17.318556,41.070871 H 16.84291 l -5.069716,-5.371328 v 5.313843 h -1.32325 v -8.160193 h 0.474 l 5.071362,5.394323 v -5.3341 h 1.32325 z m 3.417298,-8.157455 h 1.394021 v 8.09997 h -1.394021 z m 7.342063,8.157455 -3.806264,-8.157455 h 1.522944 l 2.479174,5.494511 2.495632,-5.494511 h 1.473021 l -3.806813,8.157455 z m 11.864812,-0.05748 H 34.38475 v -8.09997 h 5.557979 v 1.258657 h -4.163958 v 2.120391 h 3.931347 v 1.215406 h -3.931347 v 2.243574 h 4.163958 z m 4.496965,0 h -1.391826 v -8.09997 h 2.656375 c 2.170854,0 3.305382,1.120692 3.305382,2.63557 0,1.064849 -0.570007,1.958884 -1.671618,2.373874 l 2.111055,3.090526 h -1.622243 l -1.821937,-2.789959 h -1.565188 z m 1.344646,-4.01741 c 1.182806,0 1.765979,-0.531603 1.765979,-1.412499 0,-0.877063 -0.583173,-1.422354 -1.765979,-1.422354 h -1.344646 v 2.834853 z m 5.705556,2.465851 c 0.75434,0.337248 1.565736,0.521201 2.355187,0.521201 1.021514,0 1.380306,-0.566094 1.380306,-1.158468 0,-0.717199 -0.532702,-0.912102 -1.763785,-1.399359 -1.031937,-0.403493 -2.133,-0.914293 -2.133,-2.2923 0,-1.401549 1.092834,-2.418768 2.864847,-2.418768 0.649556,0 1.274973,0.125921 1.855952,0.324108 v 1.343517 h -0.02359 c -0.533798,-0.231584 -1.272777,-0.441817 -1.913555,-0.441817 -0.940868,0 -1.368236,0.441817 -1.368236,1.030358 0,0.637267 0.486069,0.82341 1.705632,1.285484 1.053333,0.40623 2.191153,0.914292 2.191153,2.405628 0,1.309025 -0.950195,2.547973 -2.878014,2.547973 -0.855285,0 -1.634861,-0.148367 -2.295389,-0.404041 v -1.343516 h 0.02249 z m 8.050319,-6.548411 h 1.389084 v 8.09997 h -1.389084 z m 7.942243,8.09997 h -1.389632 v -6.841313 h -2.702458 v -1.258657 h 6.795646 v 1.258657 h -2.703556 z m 6.980528,0 v -3.319373 l -3.040403,-4.780597 h 1.603591 l 2.157138,3.573951 2.132452,-3.573951 h 1.569576 l -3.040951,4.788809 v 3.311161 z M 6.9838194,27.890832 4.9188472,23.435986 2.9361667,27.890832 H 2.5746319 L 0.06034722,19.731187 H 1.4861875 l 1.5075833,5.150694 1.8669236,-4.096794 H 5.0955 l 1.8883194,4.084202 1.5185556,-5.138102 h 1.3375139 l -2.495632,8.159645 H 6.9838194 Z m 8.7064586,-0.05694 -0.684118,-1.608496 h -3.273563 l -0.670951,1.608496 H 9.6248333 l 3.5966947,-8.16074 h 0.356597 l 3.596146,8.16074 z M 12.223056,25.06638 h 2.297034 l -1.15318,-2.708385 z m 6.045145,1.215406 c 0.663271,0.337248 1.371528,0.521201 2.067716,0.521201 0.894784,0 1.229986,-0.566642 1.229986,-1.157373 0,-0.740193 -0.546417,-0.948236 -1.588778,-1.398812 -0.951292,-0.405683 -1.972806,-0.927431 -1.972806,-2.305439 0,-1.38841 0.997924,-2.407271 2.64266,-2.407271 0.605118,0 1.207493,0.125921 1.741292,0.325204 v 1.341874 h -0.01207 c -0.474548,-0.234322 -1.158118,-0.440175 -1.729222,-0.440175 -0.844312,0 -1.229986,0.440175 -1.229986,1.030358 0,0.658619 0.571104,0.879801 1.487833,1.274534 0.972139,0.416633 2.077042,0.924694 2.077042,2.429717 0,1.296434 -0.894785,2.532644 -2.645951,2.532644 -0.789452,0 -1.474118,-0.15001 -2.078688,-0.402946 v -1.343516 h 0.01097 z m 13.01141,1.552106 h -1.39018 V 24.34973 h -3.667466 v 3.484164 h -1.381403 v -8.102707 h 1.381403 v 3.380143 h 3.667466 v -3.380143 h 1.39018 v 8.102707 z m 2.52416,-8.102707 h 1.389632 v 8.102707 h -1.389632 z m 10.465305,8.159645 h -0.472354 l -4.755361,-5.277161 v 5.220223 h -1.325444 v -8.16074 h 0.475646 l 4.757555,5.301251 v -5.243218 h 1.319958 z m 8.022341,-3.193452 H 50.436014 V 23.48252 h 3.188528 v 3.797322 c -0.799327,0.462074 -1.758299,0.748406 -2.898313,0.748406 -2.400173,0 -4.36091,-1.699379 -4.36091,-4.23476 0,-2.684295 2.063327,-4.259396 4.533174,-4.259396 0.799326,0 1.487285,0.09417 2.148361,0.312611 v 1.319975 h -0.01042 c -0.687959,-0.255673 -1.452174,-0.358599 -2.122577,-0.358599 -1.996396,0 -3.064541,1.272891 -3.064541,2.97227 0,1.773836 1.205298,3.022638 2.93452,3.022638 0.591403,0 1.069792,-0.08157 1.507584,-0.265528 V 24.69738 Z m 6.338104,3.136514 H 57.238792 V 20.99258 h -2.585604 v -1.261395 h 6.565229 v 1.261395 h -2.588896 z m 3.324035,-4.053543 c 0,-2.42698 1.787375,-4.246257 4.106902,-4.246257 2.332695,0 4.036132,1.819277 4.036132,4.246257 0,2.432455 -1.784632,4.247899 -4.103611,4.247899 -2.331597,0 -4.039423,-1.815444 -4.039423,-4.247899 z m 6.659041,0 c 0,-1.709781 -1.067048,-3.019354 -2.598222,-3.019354 -1.508681,0 -2.574632,1.309573 -2.574632,3.019354 0,1.715255 1.065951,3.022638 2.596028,3.022638 1.509778,0 2.576826,-1.307383 2.576826,-3.022638 z m 10.132299,4.110481 h -0.473452 l -4.756458,-5.277161 v 5.220223 h -1.32325 v -8.16074 h 0.475646 l 4.755361,5.301251 v -5.243218 h 1.322153 z M 0,0 H 79 V 1.2679642 H 0 Z"
       id="Imported-Layers"
       fill="#b1b1b1"
       sketch:type="MSShapeGroup" />
  </g>
  <metadata
     id="metadata4209">
    <rdf:RDF>
      <cc:Work
         rdf:about="">
        <dc:title>Imported Layers</dc:title>
      </cc:Work>
    </rdf:RDF>
  </metadata>
</svg>
