<?xml version="1.0" encoding="UTF-8"?>
<svg width="233px" height="63px" viewBox="0 0 233 63" version="1.1" xmlns="http://www.w3.org/2000/svg" xmlns:xlink="http://www.w3.org/1999/xlink">
    <!-- Generator: Sketch 41.2 (35397) - http://www.bohemiancoding.com/sketch -->
    <title>fulllogo-whitetext-whitebody-whitemoons</title>
    <desc>Created with Sketch.</desc>
    <defs></defs>
    <g id="Page-1" stroke="none" stroke-width="1" fill="none" fill-rule="evenodd">
        <g id="Group-4" transform="translate(-136.000000, -170.000000)" fill="#FFFFFF">
            <g id="fulllogo-whitetext-whitebody-whitemoons" transform="translate(135.703125, 170.550781)">
                <g id="logo-2.svg">
                    <g id="Canvas">
                        <g id="logo">
                            <g id="Group" transform="translate(62.730000, 8.610000)">
                                <g id="g">
                                    <g id="path" transform="translate(0.000000, 7.380000)">
                                        <g id="path0-fill">
                                            <g id="path0_fill-link" transform="translate(0.467400, 0.282900)">
                                                <path d="M6.9198816,22.050948 C6.9198816,28.380651 6.4371066,30.447297 5.1496779,31.972866 C3.7443168,33.271623 1.9061433,33.989943 0,33.985392 L0.48278238,37.750668 C3.4372596,37.791627 6.3013146,36.723372 8.5184388,34.75365 C10.8250578,32.351583 11.6296992,29.029845 11.6296992,23.933709 L11.6296992,0 L6.909156,0 L6.909156,22.08342 L6.9198816,22.050948 Z" id="path0_fill"></path>
                                            </g>
                                        </g>
                                    </g>
                                    <g id="path" transform="translate(19.680000, 7.380000)">
                                        <g id="path1-fill">
                                            <g id="path1_fill-link" transform="translate(1.094700, 0.233700)">
                                                <path d="M21.821799,19.216167 C21.821799,21.942831 21.821799,24.344775 22.036311,26.411421 L17.905848,26.411421 L17.637708,22.08342 L17.530329,22.08342 C16.660842,23.596074 15.407226,24.847599 13.898631,25.709091 C12.390036,26.570706 10.6810371,27.011046 8.9475735,26.984847 C4.8707385,26.984847 0,24.69102 0,15.429243 L0,0 L4.7205432,0 L4.7205432,14.639337 C4.7205432,19.659828 6.2225331,23.035563 10.5032037,23.035563 C11.8460316,23.01084 13.151775,22.586982 14.256684,21.817002 C15.361716,21.047145 16.216812,19.965483 16.714962,18.707685 C17.001306,17.9211 17.146692,17.089374 17.144109,16.251498 L17.144109,0.021639882 L21.864726,0.021639882 L21.864726,19.216167 L21.821799,19.216167 Z" id="path1_fill"></path>
                                            </g>
                                        </g>
                                    </g>
                                    <g id="path" transform="translate(50.430000, 6.150000)">
                                        <g id="path2-fill">
                                            <g id="path2_fill-link" transform="translate(0.848700, 0.824100)">
                                                <path d="M0.21456981,9.2696736 C0.21456981,5.8938525 0.107285028,3.1672377 0,0.61373064 L4.2377559,0.61373064 L4.4523294,5.1364554 L4.55961,5.1364554 C5.4867102,3.5159919 6.8351715,2.1817617 8.4593742,1.2778839 C10.0835646,0.37401471 11.9217504,-0.065154453 13.775385,0.007814682 C20.040882,0.007814682 24.761376,5.417781 24.761376,13.424466 C24.761376,22.913547 19.086033,27.598617 12.960018,27.598617 C11.3874876,27.66516 9.8248218,27.318054 8.4254262,26.591616 C7.0260306,25.865055 5.8380228,24.784008 4.9780314,23.454624 L4.8707385,23.454624 L4.8707385,37.791012 L0.20384175,37.791012 L0.20384175,9.2263899 L0.21456981,9.2696736 Z M4.8814764,16.302666 C4.8937887,16.960593 4.9656084,17.616183 5.0960376,18.261072 C5.4805602,19.860441 6.3864306,21.283305 7.6684227,22.301499 C8.9504271,23.319816 10.5342858,23.874423 12.1661268,23.876514 C17.154933,23.876514 20.040882,19.732521 20.040882,13.684242 C20.040882,8.3932494 17.305116,3.8705271 12.32706,3.8705271 C10.6528947,3.9177714 9.0424434,4.5280482 7.7516937,5.6043474 C6.4609317,6.6806589 5.5639542,8.1612099 5.2033305,9.8106645 C5.0142426,10.4470911 4.9060887,11.1051534 4.8814764,11.7690705 L4.8814764,16.291842 L4.8814764,16.302666 Z" id="path2_fill"></path>
                                            </g>
                                        </g>
                                    </g>
                                    <g id="path" transform="translate(78.720000, 7.380000)">
                                        <g id="path3-fill">
                                            <g id="path3_fill-link" transform="translate(0.565800, 0.258300)">
                                                <path d="M5.1175011,0 L10.792881,15.59148 C11.3829489,17.333529 12.0266571,19.410999 12.455841,21.001512 L12.563097,21.001512 C13.045872,19.421823 13.582275,17.398473 14.226057,15.494187 L19.375698,0.0108199287 L24.364455,0.0108199287 L17.294292,18.826626 C13.914867,27.872169 11.6189736,32.51382 8.4004203,35.348724 C6.7740774,36.874293 4.7806656,37.944762 2.6177598,38.453982 L1.437624,34.418229 C2.9509176,33.909747 4.3531914,33.112584 5.5680993,32.070282 C7.2847857,30.623556 8.6438496,28.793562 9.5376414,26.725194 C9.7284636,26.368002 9.8555718,25.979814 9.9131358,25.578342 C9.8707623,25.145628 9.7621902,24.722262 9.5912817,24.323127 L0,0.0108199287 L5.1496779,0.0108199287 L5.1175011,0 Z" id="path3_fill"></path>
                                            </g>
                                        </g>
                                    </g>
                                    <g id="path" transform="translate(107.010000, 0.000000)">
                                        <g id="path4-fill">
                                            <g id="path4_fill-link" transform="translate(0.393600, 0.049200)">
                                                <path d="M8.636445,0 L8.636445,7.5739464 L15.384717,7.5739464 L15.384717,11.2310808 L8.636445,11.2310808 L8.636445,25.448454 C8.636445,28.694424 9.548367,30.577062 12.1768524,30.577062 C13.099008,30.591576 14.018925,30.482352 14.912643,30.252465 L15.127155,33.855504 C13.78461,34.332375 12.365682,34.552545 10.9430763,34.504698 C9.999654,34.563 9.0549771,34.413186 8.1748506,34.065588 C7.2947364,33.71799 6.5003532,33.181095 5.8470387,32.492172 C4.5059697,31.074843 4.0231947,28.726896 4.0231947,25.621638 L4.0231947,11.2310808 L0,11.2310808 L0,7.5739464 L4.0231947,7.5739464 L4.0231947,1.2442926 L8.636445,0 Z" id="path4_fill"></path>
                                            </g>
                                        </g>
                                    </g>
                                    <g id="path" transform="translate(126.690000, 6.150000)">
                                        <g id="path5-fill">
                                            <g id="path5_fill-link" transform="translate(0.319800, 0.873300)">
                                                <path d="M4.463055,14.671809 C4.5703479,21.163749 8.6471706,23.836293 13.356939,23.836293 C15.819276,23.914275 18.268821,23.448966 20.534358,22.472961 L21.339024,25.902939 C18.624537,27.05262 15.699474,27.609441 12.756207,27.536748 C4.7741835,27.536748 0,22.19166 0,14.228148 C0,6.2647344 4.6132626,0 12.1661268,0 C20.630913,0 22.894605,7.5739464 22.894605,12.432102 C22.88661,13.181295 22.832982,13.929258 22.733721,14.671809 L4.4952441,14.671809 L4.463055,14.671809 Z M18.292068,11.2419048 C18.345696,8.1906807 17.058378,3.4407405 11.7584433,3.4407405 C6.9842598,3.4407405 4.9029276,7.9093674 4.5274332,11.2419048 L18.302769,11.2419048 L18.292068,11.2419048 Z" id="path5_fill"></path>
                                            </g>
                                        </g>
                                    </g>
                                    <g id="path" transform="translate(156.210000, 6.150000)">
                                        <g id="path6-fill">
                                            <g id="path6_fill-link" transform="translate(0.344400, 0.885600)">
                                                <path d="M0.21456981,8.8296042 C0.21456981,5.7242847 0.16092705,3.0517653 0,0.59564103 L4.1304753,0.59564103 L4.2913962,5.7783801 L4.5059697,5.7783801 C5.6861055,2.2294488 8.5291644,0.0005446809 11.6833395,0.0005446809 C12.135549,-0.006123678 12.58659,0.048463476 13.024347,0.16284339 L13.024347,4.6855743 C12.495939,4.5693762 11.9559567,4.5149241 11.4151257,4.5232758 C8.0892918,4.5232758 5.7397458,7.0875921 5.0960376,10.6798071 C4.9632468,11.4191232 4.8914763,12.1682547 4.8814641,12.919551 L4.8814641,26.985462 L0.21456981,26.985462 L0.21456981,8.8296042 Z" id="path6_fill"></path>
                                            </g>
                                        </g>
                                    </g>
                                </g>
                            </g>
                            <g id="g">
                                <g id="path" transform="translate(38.130000, 0.000000)">
                                    <g id="path7-fill">
                                        <g id="path7_fill-link" transform="translate(0.996300, 0.381300)">
                                            <path d="M7.2490419,3.49812 C7.2802347,4.2209295 7.0981455,4.9368141 6.7258245,5.5552335 C6.3535035,6.1736406 5.8076664,6.6667845 5.1573777,6.9722673 C4.507089,7.2777624 3.7815612,7.3818573 3.0726015,7.2714033 C2.3636418,7.160937 1.7030949,6.840891 1.17452454,6.3517323 C0.6459591,5.8625859 0.27312888,5.2263069 0.103201551,4.5234111 C-0.066725409,3.8205153 -0.0261129,3.0825891 0.21990063,2.4029772 C0.46591539,1.723353 0.90627507,1.13260491 1.4852742,0.70545174 C2.0642598,0.27829857 2.7558765,0.033938037 3.4726098,0.0032869167 C4.4327847,-0.037775145 5.3698479,0.30724047 6.0779466,0.96253773 C6.7860453,1.6178313 7.2072588,2.5298148 7.2490419,3.49812 Z" id="path7_fill"></path>
                                        </g>
                                    </g>
                                </g>
                                <g id="path" transform="translate(2.460000, 36.900000)">
                                    <g id="path8-fill">
                                        <g id="path8_fill-link" transform="translate(0.319800, 1.205400)">
                                            <path d="M22.465458,8.7749553 C12.809835,8.7749553 4.3772256,5.236848 0,0 C1.6302297,4.699092 4.6685388,8.7708963 8.694378,11.6518269 C12.720291,14.532696 17.534511,16.080282 22.47087,16.080282 C27.407229,16.080282 32.221449,14.532696 36.247362,11.6518269 C40.273152,8.7708963 43.311498,4.699092 44.94174,0 C40.553715,5.236848 32.121204,8.7749553 22.465458,8.7749553 Z" id="path8_fill"></path>
                                        </g>
                                    </g>
                                </g>
                                <g id="path" transform="translate(2.460000, 4.920000)">
                                    <g id="path9-fill">
                                        <g id="path9_fill-link" transform="translate(0.307500, 0.590400)">
                                            <path d="M22.476159,7.3053513 C32.131905,7.3053513 40.564539,10.8434709 44.94174,16.080282 C43.311498,11.3812269 40.273152,7.3094226 36.247362,4.428492 C32.221449,1.5475614 27.407229,0 22.47087,0 C17.534511,0 12.720291,1.5475614 8.694378,4.428492 C4.6685388,7.3094226 1.6302297,11.3812269 0,16.080282 C4.3879635,10.8542949 12.820536,7.3053513 22.476159,7.3053513 Z" id="path9_fill"></path>
                                        </g>
                                    </g>
                                </g>
                                <g id="path" transform="translate(2.460000, 51.660000)">
                                    <g id="path10-fill">
                                        <g id="path10_fill-link" transform="translate(0.381300, 0.996300)">
                                            <path d="M9.1363047,4.4075574 C9.1758984,5.318889 8.9464665,6.2215737 8.4770739,7.0013199 C8.0076813,7.7810661 7.3194225,8.4028188 6.4994553,8.787858 C5.6794881,9.1728849 4.7646633,9.3038922 3.8708346,9.1642749 C2.9769936,9.0246576 2.1443328,8.620701 1.4782632,8.0035485 C0.81220344,7.386396 0.3426903,6.5837964 0.12917091,5.6973846 C-0.084348111,4.8109605 -0.032270403,3.8805762 0.27881025,3.0240288 C0.58989201,2.1674691 1.14598731,1.4232699 1.8766848,0.88564059 C2.6073909,0.34801005 3.4798422,0.041130585 4.3835847,0.0038541312 C5.5924041,-0.046006059 6.7715067,0.38954838 7.6624203,1.21503705 C8.5533339,2.0405208 9.0833532,3.1885905 9.1363047,4.4075574 L9.1363047,4.4075574 Z" id="path10_fill"></path>
                                        </g>
                                    </g>
                                </g>
                                <g id="path" transform="translate(0.000000, 6.150000)">
                                    <g id="path11-fill">
                                        <g id="path11_fill-link" transform="translate(1.070100, 0.073800)">
                                            <path d="M2.7978933,5.4074367 C2.2676649,5.4305484 1.7425533,5.2944735 1.2890277,5.0164689 C0.83549964,4.738452 0.47395344,4.3310022 0.25014633,3.8456688 C0.026338728,3.3603354 -0.049667154,2.8189509 0.031748268,2.2900263 C0.113163813,1.761114 0.34834092,1.2684498 0.70751199,0.87438609 C1.06668306,0.4803273 1.5336993,0.20259084 2.0494506,0.076332816 C2.5652019,-0.049925331 3.1065003,-0.019029822 3.6048348,0.16510905 C4.1031693,0.34924743 4.5361416,0.67835115 4.8489306,1.1107638 C5.1617196,1.5431826 5.3402787,2.0594628 5.3620005,2.5942668 C5.3910777,3.3100161 5.1374394,4.0081887 4.6567431,4.5355758 C4.1760468,5.0629752 3.5075418,5.3765268 2.7978933,5.4074367 L2.7978933,5.4074367 Z" id="path11_fill"></path>
                                        </g>
                                    </g>
                                </g>
                            </g>
                        </g>
                    </g>
                </g>
            </g>
        </g>
    </g>
</svg>