<?xml version="1.0" encoding="UTF-8" standalone="no"?>
<svg
   width="300"
   height="90"
   viewBox="0 0 300 90"
   fill="none"
   version="1.1"
   id="svg870"
   sodipodi:docname="2i2c.svg"
   inkscape:version="1.1.1 (3bf5ae0d25, 2021-09-20)"
   xmlns:inkscape="http://www.inkscape.org/namespaces/inkscape"
   xmlns:sodipodi="http://sodipodi.sourceforge.net/DTD/sodipodi-0.dtd"
   xmlns="http://www.w3.org/2000/svg"
   xmlns:svg="http://www.w3.org/2000/svg">
  <defs
     id="defs874" />
  <sodipodi:namedview
     id="namedview872"
     pagecolor="#ffffff"
     bordercolor="#666666"
     borderopacity="1.0"
     inkscape:pageshadow="2"
     inkscape:pageopacity="0.0"
     inkscape:pagecheckerboard="0"
     showgrid="false"
     fit-margin-top="0"
     fit-margin-left="0"
     fit-margin-right="0"
     fit-margin-bottom="0"
     inkscape:zoom="2.5619048"
     inkscape:cx="133.49442"
     inkscape:cy="86.459107"
     inkscape:window-width="1866"
     inkscape:window-height="1016"
     inkscape:window-x="54"
     inkscape:window-y="27"
     inkscape:window-maximized="1"
     inkscape:current-layer="g4784" />
  <g
     id="g4784"
     transform="matrix(0.47141746,0,0,0.47141746,87.183388,0.42465065)">
    <path
       d="m 4.512,142.04 v 12.744 H 0.72 V 142.04 Z m -1.92,-6.72 c 0.656,0 1.192,0.208 1.608,0.624 0.432,0.4 0.648,0.912 0.648,1.536 0,0.624 -0.216,1.144 -0.648,1.56 -0.416,0.4 -0.952,0.6 -1.608,0.6 -0.656,0 -1.192,-0.2 -1.608,-0.6 -0.416,-0.416 -0.624,-0.936 -0.624,-1.56 0,-0.624 0.208,-1.136 0.624,-1.536 0.416,-0.416 0.952,-0.624 1.608,-0.624 z m 12.3654,6.312 c 1.104,0 1.968,0.336 2.592,1.008 0.624,0.672 0.936,1.616 0.936,2.832 v 9.312 h -3.792 v -8.664 c 0,-0.64 -0.104,-1.08 -0.312,-1.32 -0.192,-0.256 -0.488,-0.384 -0.888,-0.384 -0.768,0 -1.504,0.552 -2.208,1.656 v 8.712 H 7.4934 V 142.04 h 3.312 l 0.264,1.512 c 0.544,-0.64 1.128,-1.12 1.752,-1.44 0.64,-0.32 1.352,-0.48 2.136,-0.48 z m 14.3796,12.552 c -0.464,0.32 -1.008,0.568 -1.632,0.744 -0.608,0.176 -1.216,0.264 -1.824,0.264 -2.784,-0.016 -4.176,-1.552 -4.176,-4.608 v -5.904 h -1.8 v -2.64 h 1.8 v -2.76 l 3.792,-0.432 v 3.192 h 2.928 l -0.408,2.64 h -2.52 v 5.856 c 0,0.592 0.096,1.016 0.288,1.272 0.192,0.256 0.496,0.384 0.912,0.384 0.432,0 0.888,-0.136 1.368,-0.408 z m 11.9559,-6.024 c 0,0.528 -0.024,0.984 -0.072,1.368 h -7.896 c 0.128,1.072 0.432,1.824 0.912,2.256 0.48,0.432 1.144,0.648 1.992,0.648 0.512,0 1.008,-0.088 1.488,-0.264 0.48,-0.192 1,-0.48 1.56,-0.864 l 1.56,2.112 c -1.488,1.184 -3.144,1.776 -4.968,1.776 -2.064,0 -3.648,-0.608 -4.752,-1.824 -1.104,-1.216 -1.656,-2.848 -1.656,-4.896 0,-1.296 0.232,-2.456 0.696,-3.48 0.464,-1.04 1.144,-1.856 2.04,-2.448 0.896,-0.608 1.968,-0.912 3.216,-0.912 1.84,0 3.28,0.576 4.32,1.728 1.04,1.152 1.56,2.752 1.56,4.8 z m -3.72,-1.08 c -0.032,-1.952 -0.72,-2.928 -2.064,-2.928 -0.656,0 -1.168,0.24 -1.536,0.72 -0.352,0.48 -0.568,1.272 -0.648,2.376 h 4.248 z m 12.7622,-5.4 c 0.464,0 0.888,0.056 1.272,0.168 l -0.6,3.672 c -0.48,-0.112 -0.864,-0.168 -1.152,-0.168 -0.752,0 -1.328,0.264 -1.728,0.792 -0.384,0.512 -0.688,1.288 -0.912,2.328 v 6.312 h -3.792 V 142.04 h 3.312 l 0.312,2.472 c 0.288,-0.88 0.72,-1.568 1.296,-2.064 0.592,-0.512 1.256,-0.768 1.992,-0.768 z m 10.1848,-0.048 c 1.104,0 1.968,0.336 2.592,1.008 0.624,0.672 0.936,1.616 0.936,2.832 v 9.312 h -3.792 v -8.664 c 0,-0.64 -0.104,-1.08 -0.312,-1.32 -0.192,-0.256 -0.488,-0.384 -0.888,-0.384 -0.768,0 -1.504,0.552 -2.208,1.656 v 8.712 h -3.792 V 142.04 h 3.312 l 0.264,1.512 c 0.544,-0.64 1.128,-1.12 1.752,-1.44 0.64,-0.32 1.352,-0.48 2.136,-0.48 z m 16.5161,9.456 c 0,0.48 0.064,0.832 0.192,1.056 0.144,0.224 0.368,0.392 0.672,0.504 l -0.792,2.472 c -0.784,-0.064 -1.4245,-0.232 -1.9205,-0.504 -0.496,-0.288 -0.88,-0.736 -1.152,-1.344 -0.832,1.28 -2.112,1.92 -3.84,1.92 -1.264,0 -2.272,-0.368 -3.024,-1.104 -0.752,-0.736 -1.128,-1.696 -1.128,-2.88 0,-1.392 0.512,-2.456 1.536,-3.192 1.024,-0.736 2.504,-1.104 4.44,-1.104 h 1.296 v -0.552 c 0,-0.752 -0.16,-1.264 -0.48,-1.536 -0.32,-0.288 -0.88,-0.432 -1.68,-0.432 -0.416,0 -0.92,0.064 -1.512,0.192 -0.592,0.112 -1.2,0.272 -1.824,0.48 l -0.864,-2.496 c 0.8,-0.304 1.616,-0.536 2.448,-0.696 0.848,-0.16 1.632,-0.24 2.352,-0.24 1.824,0 3.16,0.376 4.008,1.128 0.8485,0.752 1.2725,1.88 1.2725,3.384 z m -5.7365,1.392 c 0.864,0 1.536,-0.408 2.016,-1.224 V 149 h -0.936 c -0.864,0 -1.512,0.152 -1.944,0.456 -0.416,0.304 -0.624,0.776 -0.624,1.416 0,0.512 0.128,0.912 0.384,1.2 0.272,0.272 0.64,0.408 1.104,0.408 z m 16.7485,1.704 c -0.464,0.32 -1.008,0.568 -1.632,0.744 -0.608,0.176 -1.216,0.264 -1.824,0.264 -2.784,-0.016 -4.176,-1.552 -4.176,-4.608 v -5.904 h -1.8 v -2.64 h 1.8 v -2.76 l 3.792,-0.432 v 3.192 h 2.928 l -0.408,2.64 h -2.52 v 5.856 c 0,0.592 0.096,1.016 0.288,1.272 0.192,0.256 0.496,0.384 0.912,0.384 0.432,0 0.888,-0.136 1.368,-0.408 z m 5.058,-12.144 v 12.744 H 89.314 V 142.04 Z m -1.92,-6.72 c 0.656,0 1.192,0.208 1.608,0.624 0.432,0.4 0.648,0.912 0.648,1.536 0,0.624 -0.216,1.144 -0.648,1.56 -0.416,0.4 -0.952,0.6 -1.608,0.6 -0.656,0 -1.192,-0.2 -1.608,-0.6 -0.416,-0.416 -0.624,-0.936 -0.624,-1.56 0,-0.624 0.208,-1.136 0.624,-1.536 0.416,-0.416 0.952,-0.624 1.608,-0.624 z m 10.421,6.312 c 1.952,0 3.48,0.6 4.584,1.8 1.104,1.184 1.656,2.848 1.656,4.992 0,1.36 -0.256,2.552 -0.768,3.576 -0.496,1.008 -1.216,1.792 -2.16,2.352 -0.928,0.56 -2.032,0.84 -3.312,0.84 -1.936,0 -3.464,-0.592 -4.584,-1.776 -1.104,-1.2 -1.656,-2.872 -1.656,-5.016 0,-1.36 0.248,-2.544 0.744,-3.552 0.512,-1.024 1.232,-1.816 2.16,-2.376 0.944,-0.56 2.056,-0.84 3.336,-0.84 z m 0,2.784 c -0.768,0 -1.344,0.328 -1.728,0.984 -0.384,0.64 -0.576,1.64 -0.576,3 0,1.392 0.184,2.408 0.552,3.048 0.384,0.64 0.968,0.96 1.752,0.96 0.768,0 1.344,-0.32 1.728,-0.96 0.384,-0.656 0.576,-1.664 0.576,-3.024 0,-1.392 -0.192,-2.408 -0.576,-3.048 -0.368,-0.64 -0.944,-0.96 -1.728,-0.96 z m 15.96,-2.784 c 1.104,0 1.968,0.336 2.592,1.008 0.624,0.672 0.936,1.616 0.936,2.832 v 9.312 h -3.792 v -8.664 c 0,-0.64 -0.104,-1.08 -0.312,-1.32 -0.192,-0.256 -0.488,-0.384 -0.888,-0.384 -0.768,0 -1.504,0.552 -2.208,1.656 v 8.712 h -3.792 V 142.04 h 3.312 l 0.264,1.512 c 0.544,-0.64 1.128,-1.12 1.752,-1.44 0.64,-0.32 1.352,-0.48 2.136,-0.48 z m 16.515,9.456 c 0,0.48 0.064,0.832 0.192,1.056 0.144,0.224 0.368,0.392 0.672,0.504 l -0.792,2.472 c -0.784,-0.064 -1.424,-0.232 -1.92,-0.504 -0.496,-0.288 -0.88,-0.736 -1.152,-1.344 -0.832,1.28 -2.112,1.92 -3.84,1.92 -1.264,0 -2.272,-0.368 -3.024,-1.104 -0.752,-0.736 -1.128,-1.696 -1.128,-2.88 0,-1.392 0.512,-2.456 1.536,-3.192 1.024,-0.736 2.504,-1.104 4.44,-1.104 h 1.296 v -0.552 c 0,-0.752 -0.16,-1.264 -0.48,-1.536 -0.32,-0.288 -0.88,-0.432 -1.68,-0.432 -0.416,0 -0.92,0.064 -1.512,0.192 -0.592,0.112 -1.2,0.272 -1.824,0.48 l -0.864,-2.496 c 0.8,-0.304 1.616,-0.536 2.448,-0.696 0.848,-0.16 1.632,-0.24 2.352,-0.24 1.824,0 3.16,0.376 4.008,1.128 0.848,0.752 1.272,1.88 1.272,3.384 z m -5.736,1.392 c 0.864,0 1.536,-0.408 2.016,-1.224 V 149 h -0.936 c -0.864,0 -1.512,0.152 -1.944,0.456 -0.416,0.304 -0.624,0.776 -0.624,1.416 0,0.512 0.128,0.912 0.384,1.2 0.272,0.272 0.64,0.408 1.104,0.408 z m 11.906,2.712 c -1.104,0 -1.968,-0.312 -2.592,-0.936 -0.608,-0.64 -0.912,-1.544 -0.912,-2.712 v -14.568 l 3.792,-0.408 V 151.4 c 0,0.528 0.216,0.792 0.648,0.792 0.224,0 0.432,-0.04 0.624,-0.12 l 0.744,2.688 c -0.688,0.288 -1.456,0.432 -2.304,0.432 z m 13.229,-13.152 v 12.744 h -3.792 V 142.04 Z m -1.92,-6.72 c 0.656,0 1.192,0.208 1.608,0.624 0.432,0.4 0.648,0.912 0.648,1.536 0,0.624 -0.216,1.144 -0.648,1.56 -0.416,0.4 -0.952,0.6 -1.608,0.6 -0.656,0 -1.192,-0.2 -1.608,-0.6 -0.416,-0.416 -0.624,-0.936 -0.624,-1.56 0,-0.624 0.208,-1.136 0.624,-1.536 0.416,-0.416 0.952,-0.624 1.608,-0.624 z m 12.365,6.312 c 1.104,0 1.968,0.336 2.592,1.008 0.624,0.672 0.936,1.616 0.936,2.832 v 9.312 h -3.792 v -8.664 c 0,-0.64 -0.104,-1.08 -0.312,-1.32 -0.192,-0.256 -0.488,-0.384 -0.888,-0.384 -0.768,0 -1.504,0.552 -2.208,1.656 v 8.712 h -3.792 V 142.04 h 3.312 l 0.264,1.512 c 0.544,-0.64 1.128,-1.12 1.752,-1.44 0.64,-0.32 1.352,-0.48 2.136,-0.48 z m 14.38,12.552 c -0.464,0.32 -1.008,0.568 -1.632,0.744 -0.608,0.176 -1.216,0.264 -1.824,0.264 -2.784,-0.016 -4.176,-1.552 -4.176,-4.608 v -5.904 h -1.8 v -2.64 h 1.8 v -2.76 l 3.792,-0.432 v 3.192 h 2.928 l -0.408,2.64 h -2.52 v 5.856 c 0,0.592 0.096,1.016 0.288,1.272 0.192,0.256 0.496,0.384 0.912,0.384 0.432,0 0.888,-0.136 1.368,-0.408 z m 11.956,-6.024 c 0,0.528 -0.024,0.984 -0.072,1.368 h -7.896 c 0.128,1.072 0.432,1.824 0.912,2.256 0.48,0.432 1.144,0.648 1.992,0.648 0.512,0 1.008,-0.088 1.488,-0.264 0.48,-0.192 1,-0.48 1.56,-0.864 l 1.56,2.112 c -1.488,1.184 -3.144,1.776 -4.968,1.776 -2.064,0 -3.648,-0.608 -4.752,-1.824 -1.104,-1.216 -1.656,-2.848 -1.656,-4.896 0,-1.296 0.232,-2.456 0.696,-3.48 0.464,-1.04 1.144,-1.856 2.04,-2.448 0.896,-0.608 1.968,-0.912 3.216,-0.912 1.84,0 3.28,0.576 4.32,1.728 1.04,1.152 1.56,2.752 1.56,4.8 z m -3.72,-1.08 c -0.032,-1.952 -0.72,-2.928 -2.064,-2.928 -0.656,0 -1.168,0.24 -1.536,0.72 -0.352,0.48 -0.568,1.272 -0.648,2.376 h 4.248 z m 12.762,-5.4 c 0.464,0 0.888,0.056 1.272,0.168 l -0.6,3.672 c -0.48,-0.112 -0.864,-0.168 -1.152,-0.168 -0.752,0 -1.328,0.264 -1.728,0.792 -0.384,0.512 -0.688,1.288 -0.912,2.328 v 6.312 h -3.792 V 142.04 h 3.312 l 0.312,2.472 c 0.288,-0.88 0.72,-1.568 1.296,-2.064 0.592,-0.512 1.256,-0.768 1.992,-0.768 z m 12.005,9.408 c 0,0.48 0.064,0.832 0.192,1.056 0.144,0.224 0.368,0.392 0.672,0.504 l -0.792,2.472 c -0.784,-0.064 -1.424,-0.232 -1.92,-0.504 -0.496,-0.288 -0.88,-0.736 -1.152,-1.344 -0.832,1.28 -2.112,1.92 -3.84,1.92 -1.264,0 -2.272,-0.368 -3.024,-1.104 -0.752,-0.736 -1.128,-1.696 -1.128,-2.88 0,-1.392 0.512,-2.456 1.536,-3.192 1.024,-0.736 2.504,-1.104 4.44,-1.104 h 1.296 v -0.552 c 0,-0.752 -0.16,-1.264 -0.48,-1.536 -0.32,-0.288 -0.88,-0.432 -1.68,-0.432 -0.416,0 -0.92,0.064 -1.512,0.192 -0.592,0.112 -1.2,0.272 -1.824,0.48 l -0.864,-2.496 c 0.8,-0.304 1.616,-0.536 2.448,-0.696 0.848,-0.16 1.632,-0.24 2.352,-0.24 1.824,0 3.16,0.376 4.008,1.128 0.848,0.752 1.272,1.88 1.272,3.384 z m -5.736,1.392 c 0.864,0 1.536,-0.408 2.016,-1.224 V 149 h -0.936 c -0.864,0 -1.512,0.152 -1.944,0.456 -0.416,0.304 -0.624,0.776 -0.624,1.416 0,0.512 0.128,0.912 0.384,1.2 0.272,0.272 0.64,0.408 1.104,0.408 z m 14.276,-10.848 c 0.88,0 1.672,0.128 2.376,0.384 0.704,0.256 1.368,0.648 1.992,1.176 l -1.632,2.256 c -0.8,-0.608 -1.608,-0.912 -2.424,-0.912 -0.848,0 -1.488,0.312 -1.92,0.936 -0.432,0.624 -0.648,1.632 -0.648,3.024 0,1.344 0.216,2.296 0.648,2.856 0.432,0.56 1.056,0.84 1.872,0.84 0.432,0 0.824,-0.064 1.176,-0.192 0.352,-0.144 0.776,-0.368 1.272,-0.672 l 1.656,2.352 c -1.264,1.008 -2.696,1.512 -4.296,1.512 -1.296,0 -2.416,-0.272 -3.36,-0.816 -0.944,-0.56 -1.672,-1.336 -2.184,-2.328 -0.512,-1.008 -0.768,-2.184 -0.768,-3.528 0,-1.344 0.256,-2.536 0.768,-3.576 0.512,-1.04 1.24,-1.848 2.184,-2.424 0.944,-0.592 2.04,-0.888 3.288,-0.888 z m 13.957,12.552 c -0.464,0.32 -1.008,0.568 -1.632,0.744 -0.608,0.176 -1.216,0.264 -1.824,0.264 -2.784,-0.016 -4.176,-1.552 -4.176,-4.608 v -5.904 h -1.8 v -2.64 h 1.8 v -2.76 l 3.792,-0.432 v 3.192 h 2.928 l -0.408,2.64 h -2.52 v 5.856 c 0,0.592 0.096,1.016 0.288,1.272 0.192,0.256 0.496,0.384 0.912,0.384 0.432,0 0.888,-0.136 1.368,-0.408 z m 5.058,-12.144 v 12.744 h -3.792 V 142.04 Z m -1.92,-6.72 c 0.656,0 1.192,0.208 1.608,0.624 0.432,0.4 0.648,0.912 0.648,1.536 0,0.624 -0.216,1.144 -0.648,1.56 -0.416,0.4 -0.952,0.6 -1.608,0.6 -0.656,0 -1.192,-0.2 -1.608,-0.6 -0.416,-0.416 -0.624,-0.936 -0.624,-1.56 0,-0.624 0.208,-1.136 0.624,-1.536 0.416,-0.416 0.952,-0.624 1.608,-0.624 z m 15.869,6.72 -4.008,12.744 h -4.488 l -4.104,-12.744 h 4.128 l 2.256,9.864 2.352,-9.864 z m 12.261,6.12 c 0,0.528 -0.024,0.984 -0.072,1.368 h -7.896 c 0.128,1.072 0.432,1.824 0.912,2.256 0.48,0.432 1.144,0.648 1.992,0.648 0.512,0 1.008,-0.088 1.488,-0.264 0.48,-0.192 1,-0.48 1.56,-0.864 l 1.56,2.112 c -1.488,1.184 -3.144,1.776 -4.968,1.776 -2.064,0 -3.648,-0.608 -4.752,-1.824 -1.104,-1.216 -1.656,-2.848 -1.656,-4.896 0,-1.296 0.232,-2.456 0.696,-3.48 0.464,-1.04 1.144,-1.856 2.04,-2.448 0.896,-0.608 1.968,-0.912 3.216,-0.912 1.84,0 3.28,0.576 4.32,1.728 1.04,1.152 1.56,2.752 1.56,4.8 z m -3.72,-1.08 c -0.032,-1.952 -0.72,-2.928 -2.064,-2.928 -0.656,0 -1.168,0.24 -1.536,0.72 -0.352,0.48 -0.568,1.272 -0.648,2.376 h 4.248 z M 6.24,170.632 c 0.88,0 1.672,0.128 2.376,0.384 0.704,0.256 1.368,0.648 1.992,1.176 l -1.632,2.256 c -0.8,-0.608 -1.608,-0.912 -2.424,-0.912 -0.848,0 -1.488,0.312 -1.92,0.936 -0.432,0.624 -0.648,1.632 -0.648,3.024 0,1.344 0.216,2.296 0.648,2.856 0.432,0.56 1.056,0.84 1.872,0.84 0.432,0 0.824,-0.064 1.176,-0.192 0.352,-0.144 0.776,-0.368 1.272,-0.672 l 1.656,2.352 c -1.264,1.008 -2.696,1.512 -4.296,1.512 -1.296,0 -2.416,-0.272 -3.36,-0.816 C 2.008,182.816 1.28,182.04 0.768,181.048 0.256,180.04 0,178.864 0,177.52 c 0,-1.344 0.256,-2.536 0.768,-3.576 0.512,-1.04 1.24,-1.848 2.184,-2.424 0.944,-0.592 2.04,-0.888 3.288,-0.888 z m 11.0156,0 c 1.952,0 3.48,0.6 4.584,1.8 1.104,1.184 1.656,2.848 1.656,4.992 0,1.36 -0.256,2.552 -0.768,3.576 -0.496,1.008 -1.216,1.792 -2.16,2.352 -0.928,0.56 -2.032,0.84 -3.312,0.84 -1.936,0 -3.464,-0.592 -4.584,-1.776 -1.104,-1.2 -1.656,-2.872 -1.656,-5.016 0,-1.36 0.248,-2.544 0.744,-3.552 0.512,-1.024 1.232,-1.816 2.16,-2.376 0.944,-0.56 2.056,-0.84 3.336,-0.84 z m 0,2.784 c -0.768,0 -1.344,0.328 -1.728,0.984 -0.384,0.64 -0.576,1.64 -0.576,3 0,1.392 0.184,2.408 0.552,3.048 0.384,0.64 0.968,0.96 1.752,0.96 0.768,0 1.344,-0.32 1.728,-0.96 0.384,-0.656 0.576,-1.664 0.576,-3.024 0,-1.392 -0.192,-2.408 -0.576,-3.048 -0.368,-0.64 -0.944,-0.96 -1.728,-0.96 z m 22.5837,-2.784 c 1.008,0 1.816,0.344 2.424,1.032 0.608,0.672 0.912,1.608 0.912,2.808 v 9.312 h -3.792 v -8.664 c 0,-1.136 -0.36,-1.704 -1.08,-1.704 -0.4,0 -0.752,0.136 -1.056,0.408 -0.304,0.272 -0.6,0.688 -0.888,1.248 v 8.712 h -3.792 v -8.664 c 0,-1.136 -0.36,-1.704 -1.08,-1.704 -0.384,0 -0.736,0.144 -1.0561,0.432 -0.3039,0.272 -0.5999,0.68 -0.8879,1.224 v 8.712 h -3.792 V 171.04 h 3.312 l 0.264,1.488 c 0.496,-0.64 1.04,-1.112 1.632,-1.416 0.608,-0.32 1.296,-0.48 2.064,-0.48 0.72,0 1.336,0.176 1.848,0.528 0.528,0.352 0.912,0.848 1.152,1.488 0.512,-0.688 1.072,-1.192 1.68,-1.512 0.624,-0.336 1.336,-0.504 2.136,-0.504 z m 13.3854,0 c 1.6,0 2.792,0.592 3.576,1.776 0.784,1.184 1.176,2.84 1.176,4.968 0,1.312 -0.208,2.488 -0.624,3.528 -0.4,1.024 -0.984,1.832 -1.752,2.424 -0.768,0.576 -1.664,0.864 -2.688,0.864 -1.28,0 -2.312,-0.44 -3.096,-1.32 v 5.832 l -3.792,0.408 V 171.04 h 3.336 l 0.192,1.416 c 0.496,-0.624 1.064,-1.08 1.704,-1.368 0.64,-0.304 1.296,-0.456 1.968,-0.456 z m -1.464,10.776 c 1.52,0 2.28,-1.328 2.28,-3.984 0,-1.504 -0.168,-2.544 -0.504,-3.12 -0.336,-0.592 -0.84,-0.888 -1.512,-0.888 -0.432,0 -0.84,0.128 -1.224,0.384 -0.368,0.256 -0.696,0.624 -0.984,1.104 v 5.376 c 0.512,0.752 1.16,1.128 1.944,1.128 z m 19.3363,2.376 h -3.288 l -0.168,-1.608 c -0.928,1.344 -2.216,2.016 -3.864,2.016 -1.168,0 -2.056,-0.352 -2.664,-1.056 -0.592,-0.704 -0.888,-1.688 -0.888,-2.952 v -9.144 h 3.792 v 8.664 c 0,0.624 0.096,1.064 0.288,1.32 0.208,0.24 0.52,0.36 0.936,0.36 0.8,0 1.488,-0.496 2.064,-1.488 v -8.856 h 3.792 z m 10.974,-0.6 c -0.464,0.32 -1.008,0.568 -1.632,0.744 -0.608,0.176 -1.216,0.264 -1.824,0.264 -2.7836,-0.016 -4.1756,-1.552 -4.1756,-4.608 v -5.904 h -1.8 v -2.64 h 1.8 v -2.76 l 3.7916,-0.432 v 3.192 h 2.928 l -0.408,2.64 h -2.52 v 5.856 c 0,0.592 0.096,1.016 0.288,1.272 0.192,0.256 0.496,0.384 0.912,0.384 0.432,0 0.888,-0.136 1.368,-0.408 z m 5.058,-12.144 v 12.744 H 83.337 V 171.04 Z m -1.92,-6.72 c 0.656,0 1.192,0.208 1.608,0.624 0.432,0.4 0.648,0.912 0.648,1.536 0,0.624 -0.216,1.144 -0.648,1.56 -0.416,0.4 -0.952,0.6 -1.608,0.6 -0.656,0 -1.192,-0.2 -1.608,-0.6 -0.416,-0.416 -0.624,-0.936 -0.624,-1.56 0,-0.624 0.208,-1.136 0.624,-1.536 0.416,-0.416 0.952,-0.624 1.608,-0.624 z m 12.366,6.312 c 1.104,0 1.968,0.336 2.592,1.008 0.624,0.672 0.936,1.616 0.936,2.832 v 9.312 h -3.792 v -8.664 c 0,-0.64 -0.104,-1.08 -0.312,-1.32 -0.192,-0.256 -0.488,-0.384 -0.888,-0.384 -0.768,0 -1.504,0.552 -2.208,1.656 v 8.712 H 90.111 V 171.04 h 3.312 l 0.264,1.512 c 0.544,-0.64 1.128,-1.12 1.752,-1.44 0.64,-0.32 1.352,-0.48 2.136,-0.48 z m 18.123,1.152 c -0.832,0.336 -2.056,0.504 -3.672,0.504 0.832,0.352 1.44,0.784 1.824,1.296 0.384,0.512 0.576,1.176 0.576,1.992 0,0.816 -0.216,1.552 -0.648,2.208 -0.432,0.64 -1.056,1.144 -1.872,1.512 -0.8,0.368 -1.744,0.552 -2.832,0.552 -0.512,0 -1,-0.048 -1.464,-0.144 -0.128,0.064 -0.232,0.168 -0.312,0.312 -0.064,0.128 -0.096,0.264 -0.096,0.408 0,0.24 0.088,0.432 0.264,0.576 0.192,0.128 0.568,0.192 1.128,0.192 h 1.92 c 0.976,0 1.832,0.16 2.568,0.48 0.736,0.32 1.304,0.76 1.704,1.32 0.4,0.56 0.6,1.192 0.6,1.896 0,1.328 -0.576,2.36 -1.728,3.096 -1.136,0.752 -2.784,1.128 -4.944,1.128 -1.552,0 -2.776,-0.168 -3.672,-0.504 -0.896,-0.32 -1.528,-0.776 -1.896,-1.368 -0.352,-0.592 -0.528,-1.336 -0.528,-2.232 h 3.408 c 0,0.384 0.072,0.688 0.216,0.912 0.16,0.224 0.44,0.392 0.84,0.504 0.4,0.112 0.976,0.168 1.728,0.168 1.04,0 1.76,-0.128 2.16,-0.384 0.4,-0.24 0.6,-0.592 0.6,-1.056 0,-0.384 -0.152,-0.688 -0.456,-0.912 -0.304,-0.224 -0.76,-0.336 -1.368,-0.336 h -1.848 c -1.312,0 -2.296,-0.232 -2.952,-0.696 -0.64,-0.48 -0.96,-1.088 -0.96,-1.824 0,-0.464 0.136,-0.912 0.408,-1.344 0.272,-0.448 0.64,-0.816 1.104,-1.104 -0.8,-0.432 -1.384,-0.936 -1.752,-1.512 -0.352,-0.592 -0.528,-1.304 -0.528,-2.136 0,-1.424 0.512,-2.552 1.536,-3.384 1.024,-0.848 2.376,-1.272 4.056,-1.272 1.28,0.032 2.36,-0.096 3.24,-0.384 0.896,-0.288 1.816,-0.712 2.76,-1.272 z m -6.792,1.344 c -0.592,0 -1.064,0.192 -1.416,0.576 -0.336,0.368 -0.504,0.88 -0.504,1.536 0,0.688 0.168,1.224 0.504,1.608 0.352,0.368 0.824,0.552 1.416,0.552 0.624,0 1.096,-0.184 1.416,-0.552 0.336,-0.368 0.504,-0.92 0.504,-1.656 0,-1.376 -0.64,-2.064 -1.92,-2.064 z m 19.49,-2.496 c 0.88,0 1.672,0.128 2.376,0.384 0.704,0.256 1.368,0.648 1.992,1.176 l -1.632,2.256 c -0.8,-0.608 -1.608,-0.912 -2.424,-0.912 -0.848,0 -1.488,0.312 -1.92,0.936 -0.432,0.624 -0.648,1.632 -0.648,3.024 0,1.344 0.216,2.296 0.648,2.856 0.432,0.56 1.056,0.84 1.872,0.84 0.432,0 0.824,-0.064 1.176,-0.192 0.352,-0.144 0.776,-0.368 1.272,-0.672 l 1.656,2.352 c -1.264,1.008 -2.696,1.512 -4.296,1.512 -1.296,0 -2.416,-0.272 -3.36,-0.816 -0.944,-0.56 -1.672,-1.336 -2.184,-2.328 -0.512,-1.008 -0.768,-2.184 -0.768,-3.528 0,-1.344 0.256,-2.536 0.768,-3.576 0.512,-1.04 1.24,-1.848 2.184,-2.424 0.944,-0.592 2.04,-0.888 3.288,-0.888 z m 11.016,0 c 1.952,0 3.48,0.6 4.584,1.8 1.104,1.184 1.656,2.848 1.656,4.992 0,1.36 -0.256,2.552 -0.768,3.576 -0.496,1.008 -1.216,1.792 -2.16,2.352 -0.928,0.56 -2.032,0.84 -3.312,0.84 -1.936,0 -3.464,-0.592 -4.584,-1.776 -1.104,-1.2 -1.656,-2.872 -1.656,-5.016 0,-1.36 0.248,-2.544 0.744,-3.552 0.512,-1.024 1.232,-1.816 2.16,-2.376 0.944,-0.56 2.056,-0.84 3.336,-0.84 z m 0,2.784 c -0.768,0 -1.344,0.328 -1.728,0.984 -0.384,0.64 -0.576,1.64 -0.576,3 0,1.392 0.184,2.408 0.552,3.048 0.384,0.64 0.968,0.96 1.752,0.96 0.768,0 1.344,-0.32 1.728,-0.96 0.384,-0.656 0.576,-1.664 0.576,-3.024 0,-1.392 -0.192,-2.408 -0.576,-3.048 -0.368,-0.64 -0.944,-0.96 -1.728,-0.96 z m 11.88,10.776 c -1.104,0 -1.968,-0.312 -2.592,-0.936 -0.608,-0.64 -0.912,-1.544 -0.912,-2.712 v -14.568 l 3.792,-0.408 V 180.4 c 0,0.528 0.216,0.792 0.648,0.792 0.224,0 0.432,-0.04 0.624,-0.12 l 0.744,2.688 c -0.688,0.288 -1.456,0.432 -2.304,0.432 z m 7.125,0 c -1.104,0 -1.968,-0.312 -2.592,-0.936 -0.608,-0.64 -0.912,-1.544 -0.912,-2.712 v -14.568 l 3.792,-0.408 V 180.4 c 0,0.528 0.216,0.792 0.648,0.792 0.224,0 0.432,-0.04 0.624,-0.12 l 0.744,2.688 c -0.688,0.288 -1.456,0.432 -2.304,0.432 z m 13.751,-4.104 c 0,0.48 0.064,0.832 0.192,1.056 0.144,0.224 0.368,0.392 0.672,0.504 l -0.792,2.472 c -0.784,-0.064 -1.424,-0.232 -1.92,-0.504 -0.496,-0.288 -0.88,-0.736 -1.152,-1.344 -0.832,1.28 -2.112,1.92 -3.84,1.92 -1.264,0 -2.272,-0.368 -3.024,-1.104 -0.752,-0.736 -1.128,-1.696 -1.128,-2.88 0,-1.392 0.512,-2.456 1.536,-3.192 1.024,-0.736 2.504,-1.104 4.44,-1.104 h 1.296 v -0.552 c 0,-0.752 -0.16,-1.264 -0.48,-1.536 -0.32,-0.288 -0.88,-0.432 -1.68,-0.432 -0.416,0 -0.92,0.064 -1.512,0.192 -0.592,0.112 -1.2,0.272 -1.824,0.48 l -0.864,-2.496 c 0.8,-0.304 1.616,-0.536 2.448,-0.696 0.848,-0.16 1.632,-0.24 2.352,-0.24 1.824,0 3.16,0.376 4.008,1.128 0.848,0.752 1.272,1.88 1.272,3.384 z m -5.736,1.392 c 0.864,0 1.536,-0.408 2.016,-1.224 V 178 h -0.936 c -0.864,0 -1.512,0.152 -1.944,0.456 -0.416,0.304 -0.624,0.776 -0.624,1.416 0,0.512 0.128,0.912 0.384,1.2 0.272,0.272 0.64,0.408 1.104,0.408 z m 15.981,-10.848 c 1.52,0 2.688,0.6 3.504,1.8 0.816,1.184 1.224,2.848 1.224,4.992 0,1.312 -0.208,2.48 -0.624,3.504 -0.4,1.024 -0.984,1.824 -1.752,2.4 -0.752,0.576 -1.648,0.864 -2.688,0.864 -0.688,0 -1.32,-0.144 -1.896,-0.432 -0.56,-0.288 -1.04,-0.688 -1.44,-1.2 l -0.192,1.224 h -3.36 v -17.808 l 3.792,-0.408 v 6.768 c 0.384,-0.528 0.872,-0.944 1.464,-1.248 0.608,-0.304 1.264,-0.456 1.968,-0.456 z m -1.44,10.8 c 1.488,0 2.232,-1.336 2.232,-4.008 0,-1.52 -0.176,-2.568 -0.528,-3.144 -0.352,-0.576 -0.864,-0.864 -1.536,-0.864 -0.848,0 -1.568,0.496 -2.16,1.488 v 5.304 c 0.24,0.384 0.528,0.688 0.864,0.912 0.352,0.208 0.728,0.312 1.128,0.312 z m 14.056,-10.8 c 1.952,0 3.48,0.6 4.584,1.8 1.104,1.184 1.656,2.848 1.656,4.992 0,1.36 -0.256,2.552 -0.768,3.576 -0.496,1.008 -1.216,1.792 -2.16,2.352 -0.928,0.56 -2.032,0.84 -3.312,0.84 -1.936,0 -3.464,-0.592 -4.584,-1.776 -1.104,-1.2 -1.656,-2.872 -1.656,-5.016 0,-1.36 0.248,-2.544 0.744,-3.552 0.512,-1.024 1.232,-1.816 2.16,-2.376 0.944,-0.56 2.056,-0.84 3.336,-0.84 z m 0,2.784 c -0.768,0 -1.344,0.328 -1.728,0.984 -0.384,0.64 -0.576,1.64 -0.576,3 0,1.392 0.184,2.408 0.552,3.048 0.384,0.64 0.968,0.96 1.752,0.96 0.768,0 1.344,-0.32 1.728,-0.96 0.384,-0.656 0.576,-1.664 0.576,-3.024 0,-1.392 -0.192,-2.408 -0.576,-3.048 -0.368,-0.64 -0.944,-0.96 -1.728,-0.96 z m 15.408,-2.736 c 0.464,0 0.888,0.056 1.272,0.168 l -0.6,3.672 c -0.48,-0.112 -0.864,-0.168 -1.152,-0.168 -0.752,0 -1.328,0.264 -1.728,0.792 -0.384,0.512 -0.688,1.288 -0.912,2.328 v 6.312 h -3.792 V 171.04 h 3.312 l 0.312,2.472 c 0.288,-0.88 0.72,-1.568 1.296,-2.064 0.592,-0.512 1.256,-0.768 1.992,-0.768 z m 12.005,9.408 c 0,0.48 0.064,0.832 0.192,1.056 0.144,0.224 0.368,0.392 0.672,0.504 l -0.792,2.472 c -0.784,-0.064 -1.424,-0.232 -1.92,-0.504 -0.496,-0.288 -0.88,-0.736 -1.152,-1.344 -0.832,1.28 -2.112,1.92 -3.84,1.92 -1.264,0 -2.272,-0.368 -3.024,-1.104 -0.752,-0.736 -1.128,-1.696 -1.128,-2.88 0,-1.392 0.512,-2.456 1.536,-3.192 1.024,-0.736 2.504,-1.104 4.44,-1.104 h 1.296 v -0.552 c 0,-0.752 -0.16,-1.264 -0.48,-1.536 -0.32,-0.288 -0.88,-0.432 -1.68,-0.432 -0.416,0 -0.92,0.064 -1.512,0.192 -0.592,0.112 -1.2,0.272 -1.824,0.48 l -0.864,-2.496 c 0.8,-0.304 1.616,-0.536 2.448,-0.696 0.848,-0.16 1.632,-0.24 2.352,-0.24 1.824,0 3.16,0.376 4.008,1.128 0.848,0.752 1.272,1.88 1.272,3.384 z m -5.736,1.392 c 0.864,0 1.536,-0.408 2.016,-1.224 V 178 h -0.936 c -0.864,0 -1.512,0.152 -1.944,0.456 -0.416,0.304 -0.624,0.776 -0.624,1.416 0,0.512 0.128,0.912 0.384,1.2 0.272,0.272 0.64,0.408 1.104,0.408 z m 16.748,1.704 c -0.464,0.32 -1.008,0.568 -1.632,0.744 -0.608,0.176 -1.216,0.264 -1.824,0.264 -2.784,-0.016 -4.176,-1.552 -4.176,-4.608 v -5.904 h -1.8 v -2.64 h 1.8 v -2.76 l 3.792,-0.432 v 3.192 h 2.928 l -0.408,2.64 h -2.52 v 5.856 c 0,0.592 0.096,1.016 0.288,1.272 0.192,0.256 0.496,0.384 0.912,0.384 0.432,0 0.888,-0.136 1.368,-0.408 z m 5.058,-12.144 v 12.744 H 234.72 V 171.04 Z m -1.92,-6.72 c 0.656,0 1.192,0.208 1.608,0.624 0.432,0.4 0.648,0.912 0.648,1.536 0,0.624 -0.216,1.144 -0.648,1.56 -0.416,0.4 -0.952,0.6 -1.608,0.6 -0.656,0 -1.192,-0.2 -1.608,-0.6 -0.416,-0.416 -0.624,-0.936 -0.624,-1.56 0,-0.624 0.208,-1.136 0.624,-1.536 0.416,-0.416 0.952,-0.624 1.608,-0.624 z m 10.421,6.312 c 1.952,0 3.48,0.6 4.584,1.8 1.104,1.184 1.656,2.848 1.656,4.992 0,1.36 -0.256,2.552 -0.768,3.576 -0.496,1.008 -1.216,1.792 -2.16,2.352 -0.928,0.56 -2.032,0.84 -3.312,0.84 -1.936,0 -3.464,-0.592 -4.584,-1.776 -1.104,-1.2 -1.656,-2.872 -1.656,-5.016 0,-1.36 0.248,-2.544 0.744,-3.552 0.512,-1.024 1.232,-1.816 2.16,-2.376 0.944,-0.56 2.056,-0.84 3.336,-0.84 z m 0,2.784 c -0.768,0 -1.344,0.328 -1.728,0.984 -0.384,0.64 -0.576,1.64 -0.576,3 0,1.392 0.184,2.408 0.552,3.048 0.384,0.64 0.968,0.96 1.752,0.96 0.768,0 1.344,-0.32 1.728,-0.96 0.384,-0.656 0.576,-1.664 0.576,-3.024 0,-1.392 -0.192,-2.408 -0.576,-3.048 -0.368,-0.64 -0.944,-0.96 -1.728,-0.96 z m 15.96,-2.784 c 1.104,0 1.968,0.336 2.592,1.008 0.624,0.672 0.936,1.616 0.936,2.832 v 9.312 h -3.792 v -8.664 c 0,-0.64 -0.104,-1.08 -0.312,-1.32 -0.192,-0.256 -0.488,-0.384 -0.888,-0.384 -0.768,0 -1.504,0.552 -2.208,1.656 v 8.712 h -3.792 V 171.04 h 3.312 l 0.264,1.512 c 0.544,-0.64 1.128,-1.12 1.752,-1.44 0.64,-0.32 1.352,-0.48 2.136,-0.48 z"
       fill="#4e4e4e"
       id="path866" />
    <path
       d="m 39.504,17.424 c 7.008,0 13.008,1.248 18,3.744 5.088,2.496 8.928,5.856 11.52,10.08 2.688,4.224 4.032,8.88 4.032,13.968 0,5.184 -1.056,10.128 -3.168,14.832 -2.112,4.704 -5.856,10.128 -11.232,16.272 -5.376,6.048 -13.2,13.728 -23.472,23.04 h 39.888 l -2.304,17.424 H 9.408 v -16.128 c 11.808,-11.616 20.4,-20.352 25.776,-26.208 5.376,-5.952 9.12,-10.896 11.232,-14.832 2.208,-3.936 3.312,-7.968 3.312,-12.096 0,-3.936 -1.152,-7.008 -3.456,-9.216 C 44.064,36 41.04,34.848 37.2,34.848 c -3.456,0 -6.528,0.816 -9.216,2.448 -2.688,1.536 -5.52,4.08 -8.496,7.632 L 6.096,34.272 c 4.032,-5.28 8.832,-9.408 14.4,-12.384 5.664,-2.976 12,-4.464 19.008,-4.464 z m 71.799,22.896 v 76.464 H 88.551 V 40.32 Z M 99.783,0 c 3.936,0 7.152,1.248 9.648,3.744 2.592,2.4 3.888,5.472 3.888,9.216 0,3.744 -1.296,6.864 -3.888,9.36 -2.496,2.4 -5.712,3.6 -9.648,3.6 -3.936,0 -7.152,-1.2 -9.648,-3.6 -2.496,-2.496 -3.744,-5.616 -3.744,-9.36 0,-3.744 1.248,-6.816 3.744,-9.216 C 92.631,1.248 95.847,0 99.783,0 Z m 54.752,17.424 c 7.008,0 13.008,1.248 18,3.744 5.088,2.496 8.928,5.856 11.52,10.08 2.688,4.224 4.032,8.88 4.032,13.968 0,5.184 -1.056,10.128 -3.168,14.832 -2.112,4.704 -5.856,10.128 -11.232,16.272 -5.376,6.048 -13.2,13.728 -23.472,23.04 h 39.888 l -2.304,17.424 h -63.36 v -16.128 c 11.808,-11.616 20.4,-20.352 25.776,-26.208 5.376,-5.952 9.12,-10.896 11.232,-14.832 2.208,-3.936 3.312,-7.968 3.312,-12.096 0,-3.936 -1.152,-7.008 -3.456,-9.216 -2.208,-2.304 -5.232,-3.456 -9.072,-3.456 -3.456,0 -6.528,0.816 -9.216,2.448 -2.688,1.536 -5.52,4.08 -8.496,7.632 L 121.127,34.272 c 4.032,-5.28 8.832,-9.408 14.4,-12.384 5.664,-2.976 12,-4.464 19.008,-4.464 z m 79.354,20.448 c 5.28,0 10.032,0.768 14.256,2.304 4.224,1.536 8.208,3.888 11.952,7.056 l -9.792,13.536 c -4.8,-3.648 -9.648,-5.472 -14.544,-5.472 -5.088,0 -8.928,1.872 -11.52,5.616 -2.592,3.744 -3.888,9.792 -3.888,18.144 0,8.064 1.296,13.776 3.888,17.136 2.592,3.36 6.336,5.04 11.232,5.04 2.592,0 4.944,-0.384 7.056,-1.152 2.112,-0.864 4.656,-2.208 7.632,-4.032 l 9.936,14.112 c -7.584,6.048 -16.176,9.072 -25.776,9.072 -7.776,0 -14.496,-1.632 -20.16,-4.896 -5.664,-3.36 -10.032,-8.016 -13.104,-13.968 -3.072,-6.048 -4.608,-13.104 -4.608,-21.168 0,-8.064 1.536,-15.216 4.608,-21.456 3.072,-6.24 7.44,-11.088 13.104,-14.544 5.664,-3.552 12.24,-5.328 19.728,-5.328 z"
       fill="#4e4e4e"
       id="path868" />
  </g>
</svg>
