<svg xmlns="http://www.w3.org/2000/svg" width="300" height="90" xmlns:v="https://vecta.io/nano"><style><![CDATA[.B{fill:#fdfdfd}.C{fill:#fbfbfb}.D{fill:#fcfcfc}.E{fill:#fafafa}.F{fill:#f9f9f9}.G{fill:#020202}.H{fill:#f8f8f8}.I{fill:#010101}]]></style><g transform="matrix(.884736 0 0 .884736 57.807382 1.232512)" fill-rule="evenodd"><path d="M121.991 15.674c.145 1.132.116 2.293.087 3.425l-.087 2.758-.406 3.048c-.261 1.306-.639 2.555-1.075 3.803-.377.987-.9 1.916-1.51 2.787-1.162 1.742-2.701 3.048-4.53 4.006-.987.523-2.033 1.016-3.136 1.335s-2.236.494-3.369.668c-1.713.261-3.397.29-5.111.203-1.133-.058-2.265-.261-3.369-.464-1.162-.232-2.294-.581-3.368-1.016-1.133-.465-2.207-1.045-3.194-1.771-1.307-.929-2.41-2.032-3.252-3.396-.436-.726-.871-1.451-1.191-2.235-.377-.9-.668-1.858-.9-2.816-.261-1.045-.406-2.09-.552-3.164-.174-1.422-.232-2.874-.203-4.325l.203-2.409c.058-1.103.203-2.206.406-3.309.174-.958.407-1.858.668-2.787.261-.842.668-1.655 1.074-2.439.552-1.045 1.22-2.003 2.033-2.845.755-.784 1.626-1.422 2.584-1.974.784-.465 1.597-.871 2.41-1.219.726-.319 1.481-.581 2.236-.726l2.294-.464c.261-.058.552-.058.813-.087 1.423-.174 2.875-.232 4.327-.145 1.278.087 2.584.232 3.862.494 1.365.29 2.672.784 3.978 1.364.871.406 1.742.813 2.497 1.393.958.726 1.917 1.481 2.613 2.497l1.423 2.293c.319.639.552 1.306.784 1.974.348 1.045.581 2.148.784 3.222.087.465.116.929.145 1.393-.029.29.116.581.029.929" fill="#000"/><path d="M104.742 36.981c-1.742-.058-3.456-.116-5.169-.465-.9-.174-1.771-.494-2.643-.842l-2.12-.929c-.581-.319-1.103-.726-1.626-1.074-.842-.552-1.539-1.248-2.149-2.061-.784-1.045-1.423-2.177-1.888-3.396-.261-.697-.552-1.394-.697-2.148-.116-.726-.348-1.422-.465-2.119-.116-.726-.174-1.452-.232-2.148l-.145-2.613.087-1.8.116-1.916.232-1.539c.174-.987.319-1.974.639-2.903.494-1.51 1.074-2.99 1.975-4.325.639-.929 1.336-1.771 2.236-2.409 1.074-.784 2.178-1.452 3.427-1.945 1.132-.435 2.236-.842 3.427-1.074.726-.145 1.452-.232 2.178-.319.755-.087 1.481-.145 2.236-.145.987-.029 2.004.058 3.02.174l2.788.436 2.265.726c.755.261 1.481.581 2.178.987 1.103.668 2.178 1.335 3.078 2.264.842.871 1.394 1.858 1.946 2.874.958 1.742 1.365 3.658 1.655 5.602.116.755.087 1.539.203 2.293.174 1.248.145 2.497.087 3.745l-.29 3.571c-.145 1.132-.407 2.235-.726 3.338-.232.784-.523 1.568-.9 2.322-.784 1.568-1.742 3.019-3.107 4.151-.697.581-1.423 1.074-2.236 1.48-.929.494-1.888.871-2.875 1.19a15.29 15.29 0 0 1-1.975.552c-.871.174-1.713.29-2.584.348-.668.058-1.307.145-1.946.116" fill="#fefefe"/><path d="M104.219 4.875h1.51c.552.058 1.133.058 1.684.174l2.933.755a9.3 9.3 0 0 1 3.543 2.177c.726.668 1.365 1.422 1.771 2.351.377.9.755 1.771.958 2.729.261 1.219.436 2.438.523 3.658.087 1.161.087 2.322.029 3.483-.058 1.103-.174 2.206-.377 3.309-.145.668-.232 1.335-.465 1.945-.465 1.248-.9 2.467-1.771 3.512-.639.784-1.394 1.422-2.207 2.032-.61.464-1.336.813-2.091.987-.203.058-.407.174-.61.232l-2.062.435c-1.365.232-2.73.29-4.065.232-1.133-.058-2.236-.174-3.34-.465-.871-.232-1.713-.494-2.497-.9-.523-.261-1.045-.552-1.481-.958-.29-.261-.639-.435-.9-.697-.813-.755-1.452-1.684-1.946-2.671-.494-1.016-.755-2.148-1.016-3.251-.29-1.335-.436-2.671-.465-4.035s.058-2.729.145-4.093c.116-1.51.523-2.961.929-4.383.261-.842.697-1.655 1.249-2.351.348-.465.697-.929 1.161-1.335.813-.697 1.684-1.306 2.672-1.713 1.016-.436 2.062-.668 3.136-.871 1.016-.232 2.091-.319 3.049-.29" fill="#000"/><path d="M118.971 21.973c.726 0 1.452.668 1.452 1.364 0 .784-.581 1.335-1.423 1.306s-1.51-.668-1.481-1.364c-.058-.755.581-1.306 1.452-1.306m-.813-12.627a3.71 3.71 0 0 0-1.539.668c-.087.058-.116.203-.261.087-.116-.087-.116-.203-.116-.348 0-.174.145-.087.232-.116.639-.145 1.249-.494 1.859-.726.116-.058.203-.174.261-.29.29.232.319.406.174.697l-.813 1.306c-.029.058-.145.087-.058.203.087.087.145.058.232.029.406-.232.9-.261 1.19-.697.116.087.145.203.174.29.058.116.029.203-.116.232-.668.087-1.22.523-1.859.726-.174.058-.406.261-.523.116s.087-.348.203-.523c.261-.552.581-1.045.958-1.655m-1.566 17.621c.726-.406 1.539-.494 2.236-.929-.581-.087-1.075-.552-1.713-.406-.058-.058-.029-.145-.029-.232 0-.116-.029-.232.087-.29s.145.087.232.145c.407.232.842.261 1.278.406.319.116.639.261.987.145.145-.029.116.116.116.203-.058.29-.29.377-.523.464l-1.365.465c-.058.029-.145 0-.145.116 0 .087.087.116.145.116.436 0 .813.319 1.278.232.058 0 .116.029.116.087 0 .116.029.261-.058.377-.058.058-.087.029-.145 0-.668-.436-1.452-.523-2.207-.726-.116-.029-.203-.058-.29-.174M106.136 3.162c.203-.465.116-.929.029-1.422-.029-.087-.087-.232.058-.261.087-.029.232-.029.29 0 .116.058.087.145.029.261-.029.116-.029.232-.029.348 0 .697 0 1.393-.116 2.119-.29-.087-.377-.348-.523-.552l-.813-1.161c-.058-.058-.087-.145-.174-.145-.087.029-.087.145-.087.203.058.464-.116.958.116 1.393a.14.14 0 0 1-.058.174.43.43 0 0 1-.377 0c-.087-.029-.058-.116-.029-.174.232-.668.058-1.364.116-2.032 0-.029 0-.087-.029-.145-.058-.116-.203-.232-.029-.319s.378-.087.494.116a12.22 12.22 0 0 0 1.133 1.597" class="I"/><g class="G"><path d="M91.065 15.587c-.029-.116.029-.261-.058-.377-.029-.058-.087-.116 0-.174.058-.029.145-.029.203.029.087.087.145.174.145.29l-.087 1.132c-.029.145-.087.319-.261.174-.319-.203-.697-.145-1.016-.145-.465 0-.9-.203-1.365-.029-.087.029-.232 0-.203-.145l.145-1.19c0-.087.058-.203.174-.174.145.029.116.145.087.261 0 .029-.029.058-.029.087-.203.581-.116.697.494.697.377 0 .436-.116.406-.61 0-.116-.087-.261.087-.261.145 0 .319.029.174.261-.116.174 0 .377-.058.552-.029.058.029.116.087.145a1.15 1.15 0 0 0 .871.058c.203-.087.232-.348.203-.581m23.522-8.099c0-.61.406-.842.755-1.132l.842-.726c.058-.058.058-.174.174-.087s.232.203.29.348c.029.116-.058.116-.145.145-.523.29-.9.755-1.336 1.132-.232.203-.261.581-.116.784.174.232.581.377.842.203.523-.348 1.046-.697 1.423-1.248.029-.058 0-.174.145-.145.116.029.174.145.232.232.029.087.029.174-.058.203-.61.203-.987.755-1.51 1.045-.348.203-.668.232-.987.029-.377-.203-.581-.465-.552-.784"/><path d="M96.117 5.862c0 .552-.436.987-.987.929-.087 0-.174 0-.261-.087-.058-.058-.145-.087-.087-.203.058-.058.116-.058.174-.029.261.058.523.029.726-.174.116-.116.29-.232.174-.435s-.29-.377-.552-.29c-.29.058-.552.116-.842.087-.436-.029-.726-.377-.726-.813 0-.319.406-.726.755-.755.145 0 .232.029.261.145.029.145-.087.116-.174.116h-.029c-.232.116-.552.145-.494.523.029.232.29.348.668.319.232-.029.465-.087.668-.087.465.029.726.319.726.755m24.625 12.772c.058.29-.087.639 0 .987.029.116-.087.232-.203.232-.145 0-.145-.116-.116-.232l.087-.29c.029-.145-.029-.29-.203-.29-.581.058-1.132-.174-1.713-.145h-.232c-.116.029-.232.232-.319.087-.087-.116-.029-.319-.029-.465 0-.116.116-.116.203-.087.668.145 1.336.058 2.004.145.232.029.348-.203.261-.494-.058-.145-.087-.232.087-.261.116-.029.232.058.232.232-.058.174-.058.348-.058.581"/></g><path d="M91.181 21.799c-.377-.145-.755-.116-1.133-.058-.436.087-.929.029-1.365.203-.203.087-.261-.087-.29-.232-.029-.319.029-.668-.087-.987-.029-.116.087-.174.145-.261.029-.029.087-.029.116.029.058.087 0 .145-.029.232-.087.261-.029.494.116.726.087.116.668.058.784-.058.174-.174.116-.377.058-.581-.029-.087-.145-.174-.058-.29.058-.058.145-.087.232-.058.174.058.087.203.116.29 0 .058-.029.116-.029.174 0 .232-.029.436.348.436.29-.029.581 0 .813-.145.232-.116.261-.029.261.145.029.174.058.29 0 .435" fill="#040404"/><path d="M109.301 4.672c.465-.697.639-1.481.842-2.264.058-.232.116-.261.319-.203l.929.29c.087.029.203.029.203.145 0 .058 0 .145-.058.174-.087.058-.116-.087-.203-.087-.203-.087-.406-.174-.61-.203s-.203.174-.261.29c-.232.494-.116.668.406.726h.116c.145 0 .174.087.145.203s-.087.145-.232.116c-.784-.261-.784-.261-.987.552v.029c-.029.116.087.319-.087.377-.203.058-.377-.029-.523-.145m-12.108.987c-.145.029-.174 0-.203-.116-.145-.726-.523-1.364-.842-2.003-.087-.145-.174-.261.029-.406.29-.174.319-.174.406.174a4.14 4.14 0 0 0 .61 1.422c0 .029.029.029.058.058.29.552.465.581.9.116.058-.058.087-.261.203-.116.087.116.145.29-.029.377-.378.232-.784.348-1.133.494M91.21 23.076c.029-.174-.087-.319-.145-.465-.029-.087-.087-.145 0-.203s.145 0 .203.058c.087.058.087.145.087.203l.116.9c.029.203 0 .261-.232.261-.784 0-1.51.261-2.265.406-.058 0-.116.087-.145 0-.058-.174-.116-.348-.087-.494 0-.116.174-.058.29-.058.639 0 1.249-.174 1.887-.232.203 0 .319-.145.29-.377" class="G"/><path d="M120.626 20.87c0 .203.029.348-.29.261-.726-.174-1.452-.29-2.207-.203-.145 0-.232.029-.29-.087-.058-.145-.087-.29.029-.436.087-.116.203-.058.319-.029.319.087.61.145.929.145.465 0 .9.203 1.394.116.174-.058.087.145.116.232" fill="#030303"/><path fill="#d9d9d9" d="M111.131 34.252l-.639.261c-.058.029-.174.058-.203-.029s.058-.116.116-.145c.145-.058.29-.145.465-.116.058.058.145.029.261.029"/><path fill="#070707" d="M93.446 8.794c-.029.087-.029.232-.174.232-.116 0-.232-.087-.232-.232 0-.116.087-.203.232-.203s.174.058.174.203"/><path fill="#cdcdcd" d="M110.143 34.049c-.29.058-.581.203-.987.203.203-.232.436-.232.61-.29.116.145.261.058.377.087"/><path fill="#d6d6d6" d="M99.108 33.991c.116.058.261.029.377.203-.232.058-.406-.058-.581-.116.058-.058.145 0 .203-.087"/><path d="M108.517 35.036c-.261-.029-.552.029-.813.029.174-.058.348-.116.552-.145.058.087.203 0 .261.116" class="H"/><path d="M98.063 25.312l-.203-3.483-.145-2.09-.29-3.28c-.087-.697-.029-1.422-.058-2.148-.058-.842 0-1.684.087-2.526.087-.929.174-1.887.552-2.758.145-.348.523-.668.958-.639l3.427.087 4.327.029 4.501.116c.319.029.348.087.232.377-.29.842-.465 1.713-.581 2.613-.145 1.132-.116 2.264-.116 3.396 0 1.074.116 2.148.203 3.222l.319 3.716.203 4.616a12.52 12.52 0 0 1-.145 1.8c-.029.232-.174.465-.319.639-.174.203-.406.203-.552-.029-.116-.145-.232-.29-.29-.494-.058-.319-.029-.406.319-.406.697-.029.697-.029.581-.755-.145-.784-.494-.9-1.162-.871-.697.029-1.365 0-2.062-.029l-9.147-.058c-.668 0-.668 0-.668-.668v-.377m3.165 1.364l3.659.029 2.091.058h1.597l1.249.058c.174 0 .174.116.145.232l-.116.639c-.029.406 0 .813.203 1.219.116.232-.029.377-.29.377l-2.672-.058h-3.397c-.987 0-1.975-.029-2.991-.029-1.045 0-2.062-.058-3.107 0-.842.058-1.045-.435-1.162-1.103-.029-.29.029-.61.116-.9.087-.377.319-.523.726-.523h3.949" fill="#fefefe"/><g class="B"><path d="M109.969 8.33h-3.427l-4.849-.058-5.895-.058c-.116 0-.261.058-.319-.087s.145-.174.232-.261c.058-.087.174-.058.29-.058l2.904.029h1.423l3.107.029 6.969.087 2.759.058c.087 0 .174-.029.232.058s.261.087.203.232c-.029.116-.174.058-.29.058l-3.339-.029m1.713 22.265c-.871-.087-1.742 0-2.613-.087-.436-.029-.871.058-1.307.029-3.572-.116-7.144 0-10.715-.058-.319 0-.668.029-.9-.261-.029-.029-.116-.058-.087-.116.029-.087.087-.087.174-.087h.813l2.468.087 6.156.029 6.214.029c.232 0 .436.116.639.087.058 0 .116.029.116.116s-.058.145-.145.145c-.319.029-.552.116-.813.087"/><path d="M111.595 31.001c-.319.29-.668.319-1.075.319l-3.281-.029c-1.132.029-2.265-.087-3.397.029-.232.029-.465-.029-.697-.029h-3.601c-.639 0-1.278-.058-1.888-.087-.058 0-.116-.029-.174-.029-.174-.029-.348-.116-.319-.29.029-.145.232-.058.377-.058h4.298l2.817.029 6.563.058c.116-.058.261-.087.378.087M98.353 6.443c.842.116 1.713.029 2.555.029l4.385.087 5.14.029c.436 0 .9-.116 1.307.203.058.058.174.029.145.145s-.116.087-.174.087l-6.476-.058c-2.526 0-5.053-.058-7.608-.087-.087 0-.232.058-.261-.087-.029-.116.116-.174.203-.232.232-.145.523-.116.784-.116m-3.078 22.991l4.995.029 1.452.029 4.704.029 6.679.058c.116 0 .29-.087.29.087 0 .145-.174.203-.319.203h-3.165c-1.568 0-3.107 0-4.675-.029-1.481 0-2.991 0-4.472-.058-1.597-.058-3.223-.029-4.82 0-.29 0-.523-.058-.668-.348m1.045-21.975c.174-.261.436-.319.639-.319l4.443.029 4.791.087 3.02.058c1.045.058 2.091 0 3.136 0 .116 0 .203 0 .319.029.087.029.232.087.203.232s-.174.087-.261.087c-1.045 0-2.12.029-3.165-.058-2.73-.174-5.459-.058-8.189-.087-1.133-.029-2.294.058-3.427-.029-.494.029-.987.058-1.51-.029"/></g><path d="M110.55 6.298c-.639.087-1.19.029-1.713.029-1.249 0-2.497.029-3.746-.029-2.004-.087-3.978 0-5.982-.058-.145 0-.261 0-.377-.145.319-.087.581-.232.9-.232h4.182l2.817.058 3.107.087c.261-.029.494.087.813.29" class="D"/><path d="M98.382 31.524h.436 7.55l3.485.029c.087 0 .174 0 .203.087.029.145-.116.087-.174.116-.261.087-.552.174-.842.145-.755-.058-1.539-.058-2.294-.058-.784 0-1.568-.145-2.323-.029-.639.087-1.278.145-1.888.058-1.074-.116-2.149-.029-3.223-.058-.232 0-.465-.058-.668-.145-.058 0-.116-.058-.261-.145" class="B"/><path d="M96.03 21.683h-2.846c-.232 0-.465-.029-.697-.058-.145 0-.261-.029-.261-.203s.116-.232.29-.232l3.427.087c.436 0 .871.087 1.307.029.145 0 .319-.029.319.174 0 .174-.174.203-.29.232h-1.22c-.029 0-.029-.029-.029-.029" class="C"/><path d="M113.889 15.384h2.41c.116 0 .232-.029.319.087.058.087.116.145.087.232-.029.116-.145.087-.203.087h-5.053c-.174 0-.319-.029-.319-.232 0-.232.174-.174.319-.174h2.439" class="F"/><path d="M116.154 19.157h-4.298-.232c-.174 0-.261-.087-.261-.261 0-.203.116-.203.261-.203l1.684.029h2.468c.261 0 .552.087.813.058.087-.029.261.058.261.174 0 .145-.116.203-.261.203h-.465" class="C"/><path d="M95.188 24.383c-.639-.029-1.423.058-2.178-.029-.087 0-.174-.058-.261-.087s-.145-.116-.145-.203c.029-.116.087-.145.203-.145h2.236c.378 0 .755.145 1.162 0 .203-.058.407.087.639.058.203-.029.377 0 .581 0 .145 0 .232.029.261.203.029.203-.145.203-.261.203-.203.029-.406 0-.581 0h-1.655" class="E"/><path d="M95.624 20.957h-3.049c-.203 0-.377-.029-.377-.261 0-.261.203-.203.348-.203l4.675.058c.145 0 .29.029.29.203 0 .203-.145.232-.29.232h-1.597v-.029" class="D"/><path d="M113.918 16.748l2.642.029c.145 0 .232 0 .232.174 0 .145-.087.232-.232.261h-.232c-1.074 0-2.149-.029-3.252 0-.523 0-1.016-.116-1.539-.087-.145 0-.319 0-.319-.232s.232-.174.319-.145c.813.058 1.597-.029 2.381 0" class="C"/><path d="M114.383 22.554c-.697.029-1.568-.029-2.468-.058-.203 0-.319-.087-.319-.29s.145-.174.29-.174l2.962.058 1.481.029c.116 0 .232 0 .232.145s-.087.232-.232.261h-.552c-.377.029-.784.029-1.394.029m-1.045-7.838h1.713c.436 0 .9.087 1.336.029.087 0 .203.058.232.174s-.087.145-.174.174a.41.41 0 0 1-.319.029l-3.804-.058c-.348 0-.697-.058-1.016-.058-.087 0-.232.058-.203-.116 0-.145.087-.203.232-.203h1.307l.697.029" class="E"/><path d="M113.918 14.455h-2.178-.29c-.174-.029-.436-.058-.407-.29.029-.203.261-.116.407-.116l4.675.029h.174c.116.029.232.087.232.232 0 .116-.145.145-.261.145h-2.352" class="H"/><path d="M113.744 12.452c-.668 0-1.481.029-2.323-.058-.145 0-.319 0-.29-.203 0-.174.145-.232.319-.232l2.701.029c.377.029.697.087 1.074-.029.261-.058.465.203.726.145.087 0 .116.116.087.203-.029.116-.116.145-.232.145h-2.062" class="B"/><path d="M107.646 32.249c-.348.29-.755.145-1.133.203-.523.058-1.074.203-1.597.203-.639 0-1.307.116-1.975-.058a5.33 5.33 0 0 0-1.365-.174h-.232c-.087 0-.174-.058-.145-.145 0-.087.116-.058.174-.087h.987 4.385c.29-.029.581.087.9.058" class="E"/><path d="M111.944 13.381h4.007c.116 0 .203-.029.29.058.058.058.116.116.087.203s-.087.145-.174.145h-.726-3.165a9.35 9.35 0 0 1-.929-.058c-.116 0-.261-.029-.232-.174 0-.145.116-.174.261-.174.203 0 .407-.029.581-.029v.029" class="C"/><path d="M95.304 25.312h2.12c.145 0 .29-.029.261.203 0 .203-.087.319-.29.29-.377-.029-.726.058-1.103-.058-.174-.058-.407 0-.61 0-.755.029-1.481-.116-2.236-.029h-.116c-.145-.087-.436.058-.436-.232.029-.29.29-.145.436-.145l1.975-.029" class="D"/><path d="M97.105 23.018h-4.269c-.087 0-.174-.029-.261-.029-.116 0-.203-.029-.174-.174 0-.174.087-.174.232-.174h1.539c.697.058 1.394.058 2.091.058h1.19c.174 0 .203.087.232.203.029.145-.087.174-.174.203h-.348v-.087" class="C"/><path d="M115.283 19.796h-3.456c-.058 0-.145 0-.203-.029-.087-.058-.232-.058-.203-.203.029-.116.145-.174.261-.174l2.236.029 2.12.029a1.46 1.46 0 0 1 .61.058c.116.029.232 0 .203.174-.029.116-.087.203-.232.203h-1.336v-.087" class="D"/><path d="M95.014 22.321h-2.149-.203c-.174-.029-.348-.087-.348-.261 0-.203.203-.232.377-.232.668.087 1.336.029 2.004.087.523.058 1.046.058 1.568.029h1.016c.174 0 .407-.058.407.203 0 .232-.261.174-.436.174h-2.236" class="C"/><path d="M116.125 16.487l-4.501-.058h-.116c-.145-.029-.406 0-.377-.261.029-.174.232-.116.406-.116l2.207.029 2.788.058c.116 0 .261 0 .261.174 0 .145-.145.116-.232.145-.174.029-.319.058-.436.029" class="D"/><path d="M112.263 8.736c.29-.029.465.116.552.377.145.552.174 1.074-.116 1.597-.058.116-.174.232-.29.203-.145 0-.232-.116-.29-.261-.058-.174-.145-.319-.145-.523.029-.203 0-.406-.29-.436-.058 0-.087-.058-.116-.116-.087-.348.319-.842.697-.842" class="B"/><path d="M94.52 23.308h2.875c.145 0 .29.029.319.203 0 .203-.145.203-.29.203-1.278 0-2.526 0-3.804-.029-.29 0-.581-.058-.842-.058-.145 0-.261-.087-.261-.203 0-.203.174-.145.29-.145h1.742v.029" class="C"/><path d="M95.885 24.992h-2.817c-.116 0-.29 0-.29-.203 0-.232.145-.145.261-.174.668-.087 1.307.029 1.975.029h2.323.203a.22.22 0 0 1 .174.232c0 .145-.116.116-.203.116h-1.626" class="F"/><path d="M96.93 18.983c-.494 0-1.016-.029-1.51 0-.9.029-1.8-.029-2.701-.029-.116 0-.232 0-.348-.029s-.203-.029-.203-.174c0-.174.087-.174.232-.174h2.991l1.568.029c.174 0 .377.058.348.232 0 .203-.203.203-.378.145" class="D"/><path d="M95.392 18.258H92.4c-.087 0-.232.058-.203-.145 0-.145.058-.203.203-.232l1.278-.029c.639.058 1.278 0 1.917.058.494.029.958-.058 1.452.029.116.029.261-.029.261.145 0 .203-.116.203-.261.203h-1.626v-.029" class="C"/><path d="M96.088 16.254h-3.398c-.087 0-.174-.029-.261-.058s-.174-.087-.174-.203c0-.145.116-.116.203-.116h4.327c.116 0 .29 0 .261.174 0 .116-.116.203-.261.203h-.697c0 .029 0 .029 0 0" class="H"/><path d="M96.234 14.948l-3.456-.029c-.145 0-.319 0-.29-.203 0-.174.145-.232.319-.232h3.862c.174 0 .319.058.319.261 0 .261-.203.174-.319.174-.174.029-.319.029-.436.029" class="F"/><path d="M114.412 23.221c-.523-.058-1.133.058-1.771-.058-.232-.029-.494.087-.726-.029-.116-.029-.232-.029-.203-.203.029-.145.145-.174.261-.174.348-.029.726 0 1.074 0l3.107.029c.087 0 .174 0 .232.029.087.029.116.145.087.232-.029.116-.145.145-.261.145l-1.8.029" class="C"/><path d="M113.744 18.112h2.846c.087 0 .203 0 .232.087.087.116.116.232-.087.261h-.174c-1.655 0-3.281-.029-4.937-.029-.145 0-.319.029-.319-.203s.203-.145.319-.145h2.12v.029" class="B"/><path d="M113.802 25.979h-1.539c-.116 0-.232 0-.348-.058s-.174-.116-.145-.261.087-.203.232-.203l2.875.058c.174 0 .377-.029.552-.029s.377 0 .377.203-.145.29-.348.29c-.523-.029-1.103 0-1.655 0" class="D"/><path d="M94.782 11.755h1.859c.203 0 .436.029.436.29s-.29.29-.465.261c-.407-.087-.813-.029-1.22-.029l-2.062-.058c-.116 0-.29.058-.261-.145 0-.145.087-.29.29-.29l1.423-.029" class="B"/><path d="M112.205 20.754c1.016.116 2.004-.029 3.02.058.406.029.842-.058 1.249-.029.087 0 .319-.029.29.203-.029.203-.203.174-.319.174-.348.029-.668 0-1.016 0l-3.427-.029c-.174 0-.465.116-.436-.174 0-.232.261-.232.465-.232.058.029.116.029.174.029" class="D"/><path d="M112.931 17.764h-1.365c-.116 0-.261.029-.261-.145s.087-.232.261-.203c.726.058 1.452-.058 2.178.058.406.087.842.029 1.278.029h1.568c.116 0 .261-.029.261.145s-.116.203-.261.203c-.319-.029-.61.029-.929-.087-.261-.087-.581 0-.871 0-.697.058-1.365-.087-1.859 0" class="C"/><path d="M101.286 5.514c2.149-.406 4.298-.319 6.447.029-2.149.058-4.298.116-6.447-.029" class="E"/><path d="M114.092 21.451h2.178c.116 0 .203-.029.319.029.058.029.145.087.116.174 0 .087-.058.145-.145.174-.203.029-.406.058-.61.029-1.307-.087-2.613 0-3.92-.029h-.203c-.145-.029-.232-.116-.232-.261 0-.174.145-.116.232-.116h2.265M93.91 15.18h2.73c.145 0 .377-.029.377.174s-.203.232-.377.232l-4.007-.058c-.145 0-.261-.058-.29-.203 0-.174.145-.203.29-.203h1.249v.058" class="B"/><path d="M93.998 20.202H92.4c-.087 0-.232.087-.232-.116 0-.145.087-.174.203-.203.174-.029.348-.029.523-.029l4.124.058c.174 0 .436-.029.436.174 0 .261-.261.174-.436.174-.61.029-1.22-.029-1.83-.029-.377.029-.784.058-1.19-.029" class="E"/><path d="M113.599 20.435c-.494-.029-1.162.029-1.829-.029-.087 0-.261.058-.261-.145 0-.174.145-.203.29-.174l2.439.029c.755.058 1.51.029 2.294.058.116 0 .319-.058.319.145 0 .232-.174.232-.319.203-.958-.116-1.859-.087-2.933-.087" class="C"/><path d="M94.869 13.148h1.771c.174 0 .348.029.348.232s-.203.232-.377.203c-1.016-.087-2.033 0-3.049-.029-.203 0-.377 0-.581-.029-.087 0-.261 0-.232-.174 0-.174.116-.203.261-.203h1.858" class="F"/><path d="M94.578 17.619c-.61 0-1.394 0-2.149-.087-.116 0-.232-.029-.232-.145 0-.145.145-.145.261-.145.203 0 .436.029.639-.087.145-.058.319.116.494.116h3.252c.116 0 .348-.087.348.145s-.203.203-.377.203h-2.236" class="E"/><path d="M111.886 12.626c1.307.174 2.643.058 3.978.087.087 0 .174.029.261.058.116.029.116.087.116.174s-.087.116-.145.116c-.407-.058-.784.029-1.162.029-.697 0-1.394-.058-2.091-.058-.494 0-.987 0-1.481-.029-.116 0-.174-.029-.203-.145-.029-.145.087-.116.174-.174.145-.087.319-.058.552-.058" class="B"/><path d="M114.063 23.831h-1.946c-.174 0-.378.029-.378-.203 0-.203.203-.203.378-.203l2.613.058 1.394.029c.145 0 .232.058.261.145 0 .116-.087.174-.232.174h-2.091" class="D"/><path d="M113.976 25.224h-1.713c-.087 0-.174 0-.261-.029-.145-.029-.232-.116-.203-.29.029-.145.174-.087.261-.087l3.02.029c.232.029.465-.029.726-.029.145 0 .29 0 .29.203s-.145.174-.261.174l-1.859.029" class="F"/><path d="M95.333 26.095h2.12c.116 0 .29 0 .29.174 0 .203-.203.174-.319.203h-3.136-.813c-.203 0-.29-.087-.319-.261-.029-.232.174-.145.29-.145l1.888.029c0-.029 0 0 0 0m-2.817-6.85c1.365.087 2.701.029 4.036.029.174 0 .348 0 .523-.029.145 0 .29.029.319.174.029.174-.145.174-.232.232-.116.087-.261 0-.377 0-.465-.087-.9 0-1.365-.029-.958-.087-1.917-.029-2.875-.058-.145 0-.377.116-.377-.203 0-.29.261-.058.348-.116" class="B"/><path d="M93.446 13.874l3.281.058c.116 0 .261-.058.261.174 0 .203-.145.174-.261.174h-3.456c-.174 0-.29-.116-.465-.087-.087 0-.203.029-.174-.116.029-.087.029-.203.174-.203h.639" class="D"/><path d="M115.167 24.528h-2.12c-.348 0-.697-.029-1.016-.029-.116 0-.261 0-.261-.145 0-.203.174-.116.261-.145.494-.087.987.029 1.481 0h2.497c.087 0 .232-.087.261.087.029.145-.087.232-.232.261h-.842l-.029-.029" class="F"/><path d="M94.753 12.51c.61 0 1.307-.058 1.975.087.087.029.261-.087.232.145-.029.203-.116.232-.29.203h-1.22l-2.265-.087c-.116 0-.319.029-.319-.145s.203-.203.348-.203h1.539m-1.859 4.006c1.278.087 2.555.029 3.833.058.116 0 .203.029.319.058.087 0 .087.087.087.145s-.029.116-.087.116c-.377.029-.755.203-1.132.029-.087-.029-.203-.029-.319-.029h-2.991c-.116 0-.319.058-.319-.145s.174-.116.29-.145c.058-.087.203-.087.319-.087m21.46 10.74h-2.12a1.03 1.03 0 0 1-.29-.058c-.087-.029-.203-.087-.174-.232.029-.116.116-.145.232-.145h1.452l1.655.029c.087 0 .232-.058.232.116.029.116-.058.174-.145.232-.261.145-.552.087-.842.058m-2.294-15.559h-.668c-.116 0-.174-.058-.174-.174s.087-.116.174-.145c.348-.116.697-.029 1.045-.029l2.73.029c.174 0 .319.029.494.029.087 0 .116.058.116.145s-.058.116-.116.116c-.145.029-.261.058-.406.058-.726-.087-1.452-.058-2.178 0-.348.058-.726-.087-1.016-.029" class="D"/><path d="M95.624 9.084l1.771.087c.087 0 .174 0 .174.116s-.058.174-.145.232c-.232.174-.523.029-.755.058-.61.058-1.22.029-1.859.029h-.029c-.145-.029-.406-.029-.406-.174 0-.203.203-.261.406-.261.319-.087.61-.087.842-.087" class="C"/><path d="M95.508 10.507h1.452c.116 0 .29 0 .29.145.029.203-.145.261-.29.261h-1.045c-.668 0-1.336-.029-2.004-.058-.116 0-.29.087-.29-.174 0-.232.174-.174.29-.174.552-.029 1.074 0 1.597 0m.232-.726c.436.029.958-.058 1.481.058.116.029.232 0 .203.145-.029.116-.087.203-.232.203-.755 0-1.51-.029-2.265-.029-.232 0-.494-.029-.726-.029-.087 0-.174.029-.203-.087 0-.087.058-.145.116-.203.087-.087.203-.058.29-.058h1.336" class="E"/><path d="M113.599 26.24h1.713c.116 0 .261-.058.261.116 0 .145-.145.203-.261.232h-.871c-.784 0-1.539-.029-2.323-.029-.116 0-.29.029-.29-.145 0-.203.174-.174.29-.203.581-.058 1.161.029 1.481.029" class="F"/><path d="M95.217 11.174h1.626c.145 0 .232.029.232.203s-.116.203-.232.203c-1.133-.029-2.265.058-3.369-.087-.087 0-.174-.058-.145-.145 0-.116.116-.174.232-.174h1.655" class="B"/><path d="M96.292 8.852c-.319-.029-.726.058-1.133-.029-.087-.029-.203 0-.203-.145 0-.116.087-.145.203-.174s.232-.058.348-.058h1.917c.174 0 .494-.029.465.203 0 .174-.29.203-.494.203-.377.029-.697 0-1.103 0" class="F"/><path d="M114.964 27.692c-.058.203-.203.232-.319.232-.9-.058-1.771.029-2.672-.087-.058 0-.145 0-.174-.087s.058-.116.116-.145.116-.087.145-.087c.552.029 1.104-.116 1.655.029.116.029.232.087.319.058.348-.116.61.087.929.087" class="E"/><path d="M112.728 29.288h-.929c-.145 0-.261 0-.29-.174 0-.145.087-.203.232-.232.523-.145 1.045.058 1.597 0 .203-.029.406 0 .61.029.145 0 .232.029.087.203-.087.145-.203.203-.377.203-.319-.029-.639-.029-.929-.029" class="D"/><path d="M113.657 28.534h-1.742c-.087 0-.174.029-.174-.087s.029-.174.145-.232c.232-.087.436 0 .668-.029.61-.029 1.22.029 1.8.029.087 0 .232-.029.232.087 0 .145-.116.232-.261.232-.203.087-.436.058-.668 0" class="E"/><path d="M94.346 26.734l1.713.087c.058 0 .145-.029.145.087 0 .058-.058.116-.116.145-.232.116-.465.087-.668.058-.552-.087-1.104-.058-1.655-.087-.116 0-.29 0-.29-.145 0-.116.145-.174.29-.174.203.029.377.029.581.029" class="H"/><path d="M114.267 11.058h-1.016c-.116 0-.29.058-.29-.116a.26.26 0 0 1 .261-.261h.552 1.191c.116 0 .261.029.377.087s.232.116.203.232c-.029.203-.203.058-.29.058-.319.029-.639 0-.987 0" class="B"/><path d="M113.831 10.042h1.103c.174 0 .29.087.29.232 0 .116-.174.145-.29.145h-1.394c-.145 0-.319.029-.319-.203 0-.203.145-.203.29-.203h.319v.029M95.479 29.23c-.232.029-.523.029-.726-.232-.058-.058-.116-.087-.087-.174s.116-.087.174-.087h1.133c.203 0 .29.116.29.261s-.145.232-.29.232h-.494m-.32-.812h-.668c-.203 0-.319-.116-.319-.261 0-.174.203-.116.29-.116l1.278.029c.145 0 .29.029.29.203 0 .232-.203.145-.319.145h-.552" class="F"/><path d="M94.956 27.692h-.871c-.174 0-.29-.087-.29-.232s.174-.087.261-.087h1.626c.145 0 .348 0 .348.203 0 .145-.203.116-.319.116h-.755" class="B"/><path d="M114.354 9.694h-.9c-.145 0-.261-.029-.261-.203 0-.203.145-.174.232-.174l1.133.029c.145 0 .261.116.261.232 0 .145-.145.087-.232.116s-.145.029-.232.029v-.029" class="H"/><path d="M110.463 27.837c-.203.029-.406-.058-.377-.29.058-.232.058-.552.377-.639.203-.058.348.29.348.668.029.232 0 .261-.348.261" class="C"/><path d="M111.682 11.058c-.319.029-.436-.116-.319-.436.058-.145-.029-.319.058-.464.029-.058.058-.174.174-.145.087.029.174.087.174.174-.029.232.087.465.116.668 0 .145.058.29-.203.203" class="E"/><path fill="#e6e6e6" d="M113.686 8.997h-.436c-.087 0-.145-.058-.145-.145 0-.116.087-.116.174-.116h.755c.116 0 .232.029.232.145 0 .145-.145.116-.232.116h-.348"/><path d="M117.083 31.437c-.319-.058-.61-.145-.958-.058-.436.116-.726.436-1.074.668-.058.029-.116.145-.203.058s0-.145.058-.203c.319-.377.697-.639 1.132-.842.232-.116.494-.261.668-.435.552-.581.668-1.306.552-2.09-.029-.203-.087-.203-.261-.116-.668.319-1.074.842-1.22 1.568-.116.639-.29 1.219-.9 1.597-.116.058-.145.261-.319.174.377-.726.261-1.248.203-1.829-.029-.174-.087-.29-.261-.203a1.68 1.68 0 0 0-.9.987c-.145.436-.087.9-.029 1.335a.71.71 0 0 1-.261.668c-.232.174-.465.348-.726.464-.174.087-.348.261-.668.174.755-.494.929-1.219.929-2.003 0-.087.029-.203-.058-.232-.116-.029-.261-.029-.319.058-.116.145-.29.232-.436.348-.406.29-.697.668-.726 1.19-.058 1.016-.203 1.074-1.133 1.364-.174.087-.377 0-.552.058.058-.029.087-.029.145-.058.029-.029.058-.029.087-.058.552-.319.726-.9.9-1.422.116-.319-.029-.436-.378-.348l-.523.174c-.639.174-1.074.61-1.161 1.248-.116.871-.697 1.19-1.626 1.016.639-.174 1.045-.581 1.336-1.132.116-.203.319-.435.174-.639s-.406-.029-.61-.029c-.784.087-1.307.494-1.597 1.248-.087.203-.203.348-.377.464-.465.319-1.016.436-1.539.668-.058.029-.145 0-.174-.029-.203-.203-.494-.232-.755-.319-.61-.174-.929-.581-1.133-1.103-.058-.145-.145-.232-.232-.348-.436-.523-1.074-.61-1.655-.726-.145-.029-.29.029-.203.29.145.377.29.755.552 1.074.203.232.523.319.697.552-.174.087-.29-.058-.436-.058-.668-.058-.842-.261-.987-.929-.087-.348-.232-.668-.494-.958-.377-.406-.9-.435-1.365-.639-.145-.058-.232.087-.203.232.029.174.087.319.116.494.116.581.377 1.016.987 1.219.029.029.058.087.116.116-.087-.058-.232.029-.319-.058l-.9-.319c-.203-.087-.319-.232-.348-.494-.087-.958-.523-1.713-1.394-2.235-.232-.116-.29-.087-.29.145 0 .697 0 1.394.552 1.974-.436-.232-.871-.406-1.22-.784-.029-.029-.029-.087-.029-.116-.174-.377-.116-.755-.087-1.161.029-.668-.465-1.393-1.075-1.626-.029.116 0 .261-.058.377-.232.523 0 .987.087 1.48 0 .058.116.145.029.203-.087.087-.174-.029-.232-.087-.581-.407-.784-.987-.871-1.655-.116-.784-.552-1.364-1.307-1.655-.087-.029-.203-.058-.203.087-.116.726-.029 1.422.407 2.032.29.377.755.581 1.103.9.145.319.523.406.697.697-.29-.203-.465-.523-.842-.552-.377-.232-.784-.116-1.191-.145-.29 0-.348.087-.232.377l.087.174c.377.784 1.132 1.219 1.946.755.348-.203.784-.348 1.162-.058.174.145.377.232.581.377.058.029.145.058.116.145 0 .116-.116.087-.174.087l-1.162.029c-.116 0-.261-.029-.203.174.174.61.61.929 1.162 1.103.494.145.929-.029 1.278-.406.174-.203.377-.319.668-.174.319.174.697.261 1.045.406.116.029.232.058.319.116.058.029.145.087.087.145-.029.087-.116.058-.174.029l-.174-.087c-.319-.174-.668-.203-.987-.058-.29.116-.523.319-.813.465-.203.116-.145.203 0 .29.29.174.581.348.871.465.523.203 1.162.203 1.51-.406.174-.29.465-.494.813-.465.494.058.958.174 1.452.29.116.029.232.058.261.174-.232.058-.436-.029-.639-.058-.639-.087-1.104.29-1.568.61-.145.087-.087.203.058.261.348.203.697.406 1.103.436.348.029.726.174.987-.174.116-.174.261-.319.377-.494.552-.697 1.859-.639 2.323.116.174.261.813.377.958.116.29-.464.726-.552 1.191-.668.581-.116.871 0 1.22.464.116.145.232.319.377.465.465.435 1.917.261 2.207-.29.058-.116-.029-.116-.087-.174-.319-.319-.755-.464-1.133-.668-.174-.058-.348-.058-.523-.029.087-.029.145-.029.261-.116.145-.116.319-.058.465-.116.726-.203 1.016-.116 1.394.494.29.464.668.61 1.191.435.348-.145.726-.29 1.045-.494.145-.087.348-.203.029-.377-.407-.232-.813-.464-1.278-.581-.203.058-.406.029-.61.145.087-.087.232-.087.319-.203.145-.058.319-.116.436-.203.494-.29.9-.232 1.307.174.319.319.755.494 1.249.29s.755-.61 1.016-1.045c.116-.174-.087-.174-.203-.203l-1.278-.145c.203-.174.319-.348.494-.406.348-.116.697-.406 1.103-.145.145.087.319.116.494.203.319.174.639.203.987.029.465-.232.552-.726.784-1.103.029-.087-.116-.174-.203-.203zm-1.074-1.161c.116-.436.203-.9.552-1.219 0 0 0-.029.029-.029.116-.087.29-.261.377-.232.145.029.087.261.087.465 0 .523-.29.929-.755 1.219-.087.058-.232.116-.319.058-.116-.058 0-.174.029-.261zm-23.26.203c-.058.029-.116-.029-.174-.058-.639-.377-.842-.987-.871-1.655 0-.087 0-.174.087-.203.116-.058.174.029.232.087.581.406.726 1.016.784 1.655-.029.029.029.145-.058.174zm.407 1.8c-.523.203-1.162-.087-1.278-.639-.087-.319.261-.174.348-.29.436.087.784.261 1.074.581.087.087.087.232-.145.348zm1.655-.552c-.726-.406-.494-1.103-.523-1.771.581.464.784 1.132.523 1.771zm1.191 1.974c-.029.174-.232.261-.406.319-.116.029-.232.029-.348.029-.348 0-.61-.145-.871-.377-.174-.174-.203-.319.116-.406.436-.116.813 0 1.162.174.116.058.406.029.348.261zm1.103-.726a.4.4 0 0 1-.348-.116c-.348-.319-.61-.668-.523-1.19.029-.232.145-.232.261-.145.377.29.639.668.697 1.103-.058.174 0 .348-.087.348zm1.22 1.974c-.116.29-.378.348-.668.377-.29-.058-.61-.174-.929-.319-.116-.058-.087-.145 0-.203.348-.319 1.249-.348 1.568-.058.116.058.058.116.029.203zm1.22-1.103c-.523-.145-.9-.464-1.045-.987-.058-.203-.029-.319.232-.29.523.058 1.045.581 1.045 1.045-.029.174-.058.29-.232.232zm1.597 1.771c-.145.319-.436.377-.784.406-.203-.116-.465-.058-.697-.116-.203-.058-.232-.174-.087-.319.261-.232 1.22-.377 1.51-.203.116.058.087.145.058.232zm.784-1.306c-.523-.145-.958-.348-1.161-.929-.029-.087-.087-.145 0-.203.058-.058.087-.058.145-.058.436.174.842.319 1.103.755.058.087.058.203.116.29-.029.116-.087.174-.203.145zm4.908-.029c-.261.116-.29 0-.232-.203a1.31 1.31 0 0 1 1.045-.842c.087 0 .174 0 .29-.058.145 0 .087.145.087.203-.058.319-.668.842-1.016.871-.058 0-.116 0-.174.029zm2.149 1.277c.087.058.203.087.203.203 0 .145-.116.145-.203.174-.174.116-.349.058-.494.087-.407 0-.726-.029-.987-.348-.116-.145-.029-.232.087-.261.465 0 .958-.087 1.394.145zm.145-1.684c-.116 0-.203 0-.174-.174.058-.464.61-1.045 1.074-1.074.116 0 .232-.058.232.145 0 .465-.668 1.103-1.133 1.103zm2.062.726c.232.058.465.116.639.261.087.058.116.087.029.203-.436.552-1.162.581-1.597.058-.145-.174-.058-.203.058-.29.29-.174.61-.116.871-.232zm.407-1.452c-.087-.697.116-1.219.697-1.51.116-.058.232-.087.203.087-.058.319-.058.639-.232.929-.145.232-.377.348-.668.494zm2.613.348c.203.058.203.174.087.261-.29.232-.552.523-1.016.465-.058 0-.145.029-.232 0-.174-.058-.348-.174-.377-.348 0-.145.203-.174.319-.232.377-.203.784-.29 1.22-.145zm0-1.916c-.087.087-.116.261-.29.203-.145-.058-.087-.203-.087-.319v-.174c-.058-.377.174-.697.377-1.016.029-.058.087-.174.174-.145.116.029.116.116.116.232.058.465-.029.871-.29 1.219zm2.468.523c-.116.232-.377.348-.581.523-.116.116-.552-.029-.668-.232-.145-.203.058-.319.174-.436.232-.232.523-.319.842-.319.116 0 .261-.029.348.116.058.145-.058.232-.116.348z" fill="#000"/><path d="M120.104 12.365c0-.058-.087-.174-.145-.087-.232.348-.581.319-.929.348-.494.058-.958.29-1.481.116-.116-.029-.174.029-.174.145 0 .087.029.174.058.261-.058.232.087.436.087.639.029.552.813 1.103 1.423 1.045.9-.087 1.278-.61 1.365-1.306.058-.406-.203-.755-.203-1.161zm-.755 1.887c-.436.174-.871.232-1.307-.116-.232-.174-.319-.406-.261-.668.029-.29.319-.29.523-.319.465-.029.9-.174 1.365-.203.378 0 .436.058.465.319-.087.61-.406.813-.784.987zm-28.575-2.468c-.523-.203-1.22.029-1.568.494-.29.348-.29.784-.348 1.19-.058.232-.058.319.261.319.726.029 1.481.087 2.178.406.116.058.203.029.203-.058 0-.348.203-.668.203-1.016 0-.523-.436-1.132-.929-1.335zm.145 1.8a12.24 12.24 0 0 1-1.423-.261c-.174-.029-.348-.058-.377-.29a.63.63 0 0 1 .232-.581c.232-.174.494-.319.697-.29.436.029.755.058 1.046.261.174.116.29.261.319.465.116.464-.087.755-.494.697z" class="I"/><path d="M120.191 23.396c.029.319-.203.435-.436.61-.552.406-1.626.145-1.975-.435-.174-.29-.145-.639.145-.813.581-.406 1.771-.319 2.207.377.058.058.029.145.058.261" class="B"/><path d="M99.573 1.943c-.61 0-1.278.436-1.278 1.364 0 .61.61 1.481 1.336 1.451.842-.058 1.336-.493 1.336-1.335.087-.958-.697-1.51-1.394-1.481zm.494 2.526c-.348.145-.639-.029-.9-.29-.319-.319-.436-.697-.494-1.103-.058-.348.203-.755.436-.842.377-.116.871.058 1.103.377.203.319.29.639.261 1.016.058.377-.029.697-.406.842z" class="G"/><path d="M113.367 3.482c-.9 0-1.51.61-1.51 1.539 0 .697.523 1.19 1.249 1.219.755.029 1.51-.639 1.51-1.539-.029-.697-.523-1.19-1.249-1.219zm-.174 2.467c-.377.174-.726 0-.9-.435-.29-.668.436-1.771 1.191-1.771.436 0 .697.29.697.755-.058.697-.378 1.19-.987 1.451zM90.89 18.925c-.261.029-.523.029-.755.029-.087 0-.174 0-.203-.116-.029-.087.058-.116.116-.145l.407-.261c.29-.261.755-.406.668-1.016-.203.203-.348.348-.523.436s-.378.203-.523.319c-.232.174-.378.174-.552-.087-.232-.348-.697-.348-.987-.058-.29.319-.203.726-.232 1.074 0 .203.058.232.261.232.755-.029 1.539-.058 2.294.029.174.029.261-.029.261-.203.029-.116 0-.232-.232-.232zm-1.888 0c-.203 0-.436.058-.494-.232-.029-.174.319-.464.552-.435s.436.145.465.377c.029.203-.174.29-.523.29z" class="I"/><path d="M120.423 16.283l-.987-.29-1.278-.406c-.116-.029-.203-.203-.319-.116-.087.087-.029.232-.029.377 0 .174.058.203.232.174.232-.058.494-.116.697.087.116.116.116.319.058.465a.45.45 0 0 1-.494.29c-.319-.029-.436.087-.378.406l.087.319 1.249-.552 1.22-.465c.087-.029.174-.058.145-.174-.029-.058-.116-.087-.203-.116zm-1.191.261c-.116.029-.232-.029-.232-.174s.116-.145.29-.145c.087 0 .29.029.29.203 0 .145-.203.087-.348.116zM92.749 9.375c-.116-.058-.232-.087-.348-.145-.319-.145-.377-.319-.232-.668.058-.116.145-.232.116-.348-.029-.348-.145-.552-.406-.697-.319-.174-.581-.058-.813.145s-.348.465-.523.726c-.087.145-.058.261.116.319.726.29 1.365.726 1.975 1.19.058.029.116.116.174.029.116-.116.232-.261.232-.406-.029-.174-.203-.116-.29-.145zm-.929-.668c-.145.145-.232-.029-.348-.087-.116-.029-.174-.174-.261-.203-.145-.087-.348-.116-.29-.319s.261-.319.406-.29c.377 0 .523.203.639.436.116.145-.029.319-.145.464zm11.789-4.848l-.087-.232-.639-1.742c-.058-.116-.058-.319-.203-.319-.174 0-.145.203-.203.348-.261.726-.407 1.51-.755 2.206-.029.058-.087.174.029.203.145.029.29.058.407-.029.145-.087.029-.174.029-.261-.058-.435.087-.668.436-.668.377 0 .581.232.552.726 0 .087-.029.145.087.174.174.029.377.029.494-.087.087-.145-.087-.232-.145-.319zm-1.016-.726c-.145 0-.203-.087-.203-.203.029-.174.087-.377.261-.377.116 0 .116.261.145.348.029.203-.058.232-.203.232z" class="G"/><path d="M92.139 26.24c-.087-.087-.174.029-.232.058-.116.029-.232.058-.348.058-.232 0-.377-.058-.465-.319s.029-.377.174-.494c.116-.116.261-.145.406-.174.058 0 .145.029.145-.087 0-.203-.058-.406-.203-.523-.087-.087-.174.116-.261.203s-.203.145-.319.232l-1.568 1.016c-.058.029-.145.087-.116.174s.116.087.174.087c.784.058 1.568.087 2.323.261.116-.087.29.116.377-.087.058-.145 0-.29-.087-.406zm-1.539.116c-.116-.029-.29.058-.29-.087.029-.145.174-.29.377-.29.145 0 .261.029.261.203-.029.232-.232.116-.348.174z" class="I"/><path d="M106.978 12.974c-.261-.377-.407-.755-.726-1.016a4.05 4.05 0 0 0-2.091-.871c-.494-.058-.987-.203-1.51-.029-.203.087-.436.145-.552.319-.29.464-.261.755.261 1.045.436.261.9.406 1.394.581l2.149.784c.552.261 1.103.523 1.568.9a2.31 2.31 0 0 1 .813 1.335c.087.348-.058.755-.174 1.103-.319.958-.755 1.858-1.394 2.613-.697.813-1.626 1.161-2.642.929-.668-.145-1.336-.436-1.946-.784-.494-.261-.987-.523-1.423-.871-.261-.174-.29-.406-.232-.639.174-.552.174-1.103.174-1.684 0-.058 0-.145.116-.203.116.232.232.436.29.639.145.523.494.871.871 1.19.726.581 1.568 1.045 2.497 1.161.406.058.784.261 1.22.174s.871-.174 1.074-.668c.174-.406.087-.755-.261-1.103-.377-.348-.813-.61-1.249-.813l-3.397-1.51a2.38 2.38 0 0 1-1.191-1.248c-.116-.261-.087-.581 0-.842.348-.929.755-1.829 1.423-2.584 1.045-1.19 2.41-1.219 3.717-.668l1.191.552c.348.145.465.348.348.697-.203.494-.261.987-.319 1.51" fill="#000"/><path d="M106.92 23.686a.56.56 0 0 0 .348.116c.145-.029.319-.029.232-.261-.029-.116 0-.232 0-.348 0-.174.087-.203.203-.203s.203.058.203.203c0 .29-.087.581.261.755.029.029.058.116 0 .145-.261.116-.261.319-.261.552 0 .116-.087.203-.174.203a.2.2 0 0 1-.174-.232c.058-.319-.058-.436-.348-.406-.174 0-.377-.029-.552-.029-.29 0-.261-.145-.174-.29a11.84 11.84 0 0 0 .813-1.277c.058-.087.145-.203.29-.116.203.116 0 .203-.029.261-.232.261-.436.581-.639.929M103 25.079c.348-.464.61-.987.668-1.568.029-.348-.087-.61-.348-.813-.174-.116-.378-.145-.552-.029-.261.203-.319.465-.261.755.058.232.203.406.465.464.058 0 .203-.029.174.116-.029.087-.087.116-.174.116-.407.058-.871-.436-.871-.871 0-.377.552-.871.929-.9.348 0 .9.406.987.726.145.755-.261 1.626-1.016 2.003" class="G"/><path d="M104.858 22.496a.49.49 0 0 1 .668 0c.232.174.261.406.145.639-.087.145-.058.261.058.406.261.29.261.639.058.958-.203.29-.61.436-.958.348-.116-.029-.145-.087-.203-.174.203-.087.436.029.61-.174.29-.319.29-.697-.087-.929-.145-.087-.348-.174-.029-.319a.31.31 0 0 0 .174-.348c-.029-.145-.145-.261-.319-.261-.029-.058-.087-.058-.116-.145" fill="#030303"/><path d="M100.647 22.96l.465-.465c.203-.174.406-.116.406.116 0 .639.058 1.306-.029 1.945-.029.116-.058.232-.145.232-.145 0-.145-.145-.145-.261v-1.335c0-.319-.087-.348-.319-.203-.116.029-.203.116-.232-.029" fill="#040404"/><path fill="#7c7c7c" d="M100.647 22.96c.058.087.145.029.203.058-.058.087-.145.087-.232.029-.058-.029-.029-.087.029-.087"/><path d="M101.402 13.032c.842.813 1.859 1.074 2.875 1.452.929.319 1.888.639 2.642 1.306.348.319.494.697.494 1.132 0 .058 0 .145-.058.174s-.116-.029-.145-.058c-.668-.755-1.597-1.103-2.497-1.51l-2.497-1.074c-.61-.232-.871-.697-.813-1.423" class="B"/><path d="M38.145 80.219c-.167-1.948-1.508-1.837-2.794-1.837-1.341 0-2.738-.056-4.079-.111-.67-.056-1.006.167-.95.891l-.056 6.122c-.056.835.279 1.002 1.006.946 1.006-.056 2.011 0 3.017 0 1.565-.056 3.353.39 4.135-1.67v4.898l-.335.167c-.391-2.059-1.9-1.837-3.297-1.837h-3.688c-.67 0-.838.222-.838.835l.168 6.957c.056.946.112 1.948 1.397 2.171.112 0 .335.223.335.334 0 .334-.279.278-.503.278h-5.475c-.224 0-.503.111-.559-.223-.056-.223 0-.445.279-.501 1.229-.223 1.229-1.225 1.285-2.115.112-5.343.168-10.742-.056-16.086-.056-.946-.112-1.837-1.285-2.115-.224-.056-.391-.223-.335-.501.112-.278.391-.223.559-.223h12.013c.447 0 .67.111.615.612-.112.946-.168 1.892-.279 2.783-.056.111-.168.167-.279.223m52.52 14.251v-9.74c0-.835-.782-.946-1.565-1.447h4.47c-1.341.445-1.173 1.503-1.173 2.449l-.056 11.855c0 .334.112.724-.335 1.28L80.832 87.288v5.789 2.727c0 1.057-.112 2.115 1.229 2.56H77.87c1.508-.501 1.285-1.781 1.285-2.894L79.1 84.004c0-.334-.168-.835.167-1.002.503-.222.726.278.95.557 3.408 3.729 6.817 7.347 10.448 10.909m88.392-11.243h4.023c-1.397.557-1.006 1.781-1.062 2.783l-.056 11.076c0 .501.279 1.28-.224 1.503-.614.278-.95-.556-1.341-.946l-9.722-10.13c-.447.111-.335.445-.335.668l.112 8.07c0 .946 0 1.781 1.229 2.06h-4.134c1.341-.445 1.229-1.503 1.229-2.56l-.056-11.577c0-.39-.279-1.002.279-1.169.503-.167.726.445 1.006.779 3.297 3.673 6.649 7.291 10.225 10.798v-9.685c0-.779-.391-1.28-1.453-1.225.112-.167.224-.334.279-.445m-118.227.055h4.582c-1.341.612-1.117 1.725-1.117 2.839v5.733c0 1.169.112 2.282.67 3.34.838 1.725 2.235 2.449 4.134 2.282 1.788-.111 2.961-1.057 3.576-2.727.335-.891.503-1.781.503-2.672l-.056-6.289c-.056-1.67-.112-1.67-1.565-2.505 1.565-.167 2.961-.167 4.414.056-1.397.39-1.285 1.503-1.341 2.505-.112 2.56.168 5.12-.224 7.625-.614 3.673-2.626 5.343-6.258 5.288-3.408-.056-5.532-2.004-5.867-5.566-.224-2.449-.168-4.898-.224-7.347 0-1.057.112-2.115-1.229-2.56m65.877 2.726l.727-3.729c.67 1.002 1.564 1.057 2.514 1.057h7.096c1.006 0 2.179.112 2.85-1.057l-.503 3.562c-.838-1.002-3.129-1.67-4.414-1.28-.447.111-.391.445-.391.724v11.299c0 .891.391 1.336 1.229 1.67h-4.637c1.341-.501 1.285-1.614 1.229-2.783l-.056-9.963c0-.724-.167-1.113-1.006-1.002-.447.056-.894 0-1.341 0-1.956.056-1.956.056-3.297 1.503m19.556 12.299c-.112.056-.223.111-.335.111-1.397 0-2.794 0-4.246-.111 1.341-.501 1.285-1.559 1.285-2.672V85.84c0-1.057-.056-2.004-1.229-2.505h4.917c-1.788.724-1.509 2.06-1.509 3.34v9.407c-.112.891-.168 1.837 1.117 2.226m-35.145-7.903c-.167-4.063-2.682-6.846-6.928-7.18-2.738-.223-5.531-.056-8.269-.056 1.341.501 1.341 1.558 1.285 2.616v9.685c0 1.113.112 2.393-1.788 2.672 1.397.334 8.102.39 9.331.167 4.414-.779 6.537-3.451 6.369-7.904zM108.21 93.8c-1.062 2.838-5.084 4.564-7.878 3.506-.727-.278-.894-.835-.894-1.503V90.46h.056v-5.343c0-.501 0-.891.67-.891 2.682-.111 5.252.167 7.096 2.338 1.732 2.171 1.899 4.675.95 7.236zm48.833-11.02c-4.582 0-7.822 3.34-7.822 8.015s3.185 7.904 7.767 7.904 7.766-3.34 7.71-8.071c-.056-4.62-3.185-7.848-7.655-7.848zm4.414 11.967c-.782 1.67-2.179 2.672-4.079 2.783-2.011.112-3.52-.724-4.582-2.449-.894-1.391-1.173-2.95-1.173-4.564 0-1.28.168-2.505.727-3.729 1.732-3.562 6.425-3.896 8.549-.556 1.732 2.727 1.844 5.622.559 8.516zM50.269 82.835c-4.526 0-7.878 3.34-7.878 8.015 0 4.62 3.185 7.904 7.766 7.904 4.526 0 7.711-3.284 7.711-7.904 0-4.787-3.073-8.015-7.599-8.015zm4.302 12.134c-1.732 3.172-6.035 3.506-8.213.668-1.844-2.338-2.067-6.624-.559-9.184 1.788-3.006 5.867-3.284 8.046-.501 1.005 1.28 1.564 3.173 1.564 5.844.056.668-.167 1.948-.838 3.173zm68.222 3.339h4.694c-1.285-.501-1.453-1.726-1.9-2.727l-4.973-11.633c-.168-.334-.168-.835-.726-.891-.67-.056-.67.501-.838.891l-4.191 10.074c-.67 1.503-.894 3.284-3.017 4.286h4.526c-1.62-.835-1.006-1.726-.67-2.616 1.006-2.449 1.006-2.449 3.632-2.449 2.794 0 2.794 0 3.799 2.56.447.946 1.062 1.892-.335 2.505zm-1.899-6.178c-3.688.222-3.688.278-2.347-3.117l.95-2.393 1.9 4.731c.224.556.168.724-.503.779zm-20.877-44.104c.112-.334.279-.39.503-.39l8.213-.056c4.693.167 7.599 4.397 6.034 8.516-1.062 2.783-4.246 4.508-7.096 3.841-.335-.056-.838-.056-.838-.501.056-.557.559-.278.894-.278 2.459-.056 3.744-1.225 4.135-3.618.615-3.729-2.067-6.735-5.755-6.623-.782.056-1.118.222-1.118 1.113l.056 16.809c0 1.447.727 2.004 1.9 2.171 0 .612-.391.445-.615.445-1.844 0-3.743-.223-5.587 0-.223 0-.503.111-.559-.167-.112-.39.167-.501.447-.501 1.117-.112 1.173-.946 1.229-1.781.335-5.566 0-11.076.056-16.642.112-1.503-.838-1.948-1.9-2.338m43.024-.557c-.167 1.447-.279 2.783-.224 4.175 0 .223.056.501-.279.557s-.391-.167-.559-.445c-1.006-2.449-3.352-3.451-5.867-2.449-1.565.668-2.235 2.226-1.565 3.952.391 1.113 1.229 1.892 2.179 2.56l4.134 2.894c2.068 1.447 3.073 3.451 2.626 6.011s-2.179 4.007-4.582 4.675c-1.676.501-3.408.39-5.14.223-1.229-.167-1.956-.835-2.123-2.115l-.224-2.282c-.056-.278-.056-.556.279-.612.391-.056.391.278.447.557.447 3.34 5.029 3.618 6.984 2.282 1.9-1.28 2.235-3.451.615-5.121-1.508-1.558-3.464-2.504-5.196-3.729-1.956-1.336-3.017-3.117-2.905-5.51.167-3.618 2.626-5.788 6.481-5.622 1.732 0 3.297.501 4.917 0m62.189 18.033v-9.295c0-.946-.447-1.503-1.229-1.948h4.302c-1.397.612-1.341 1.614-1.341 2.56v11.744c0 .334.167.835-.168 1.002-.503.278-.726-.278-.95-.556l-9.275-9.629-1.062-1.169v9.796c0 .779.726.891 1.229 1.28h-4.191c1.565-.556 1.229-1.837 1.229-3.006l-.056-11.299c0-.334-.168-.835.167-1.002.503-.223.727.278.95.557 3.185 3.673 6.593 7.18 10.001 10.631.056.111.168.167.391.334M60.515 54.149h8.604c.726 0 .894.278.782.89-.112.445.112 1.002-.391 1.503-.335-1.336-1.397-1.225-2.347-1.225-3.185 0-3.185 0-3.185 3.117 0 2.449 0 2.449 2.402 2.393 1.117 0 2.402.334 3.017-1.225.223 1.28 0 2.505-.112 3.785-.391-1.67-1.62-1.336-2.738-1.336-2.626 0-2.626 0-2.626 2.56v.557c.112 1.002-.503 2.393.559 2.894 1.285.612 2.85.39 4.246-.056.838-.278 1.006-1.169 1.565-1.892.279 2.783-.279 3.451-2.682 3.395-2.347 0-4.749 0-7.207-.111 1.676-.835 1.341-2.282 1.341-3.618v-9.017c0-1.002 0-2.004-1.229-2.616m-24.974.002h7.934c1.062-.056 1.508.222 1.229 1.336-.112.334-.112.724-.167 1.447-.67-2.059-2.123-1.447-3.297-1.503-2.402-.111-2.402-.111-2.402 2.282v.112c.056 1.002-.503 2.672.223 2.95 1.341.501 2.961.278 4.414 0 .559-.112.614-.724 1.117-1.336v3.896c-1.565-2.115-3.632-1.057-5.42-1.28-.447-.056-.391.445-.391.724l.112 4.898c0 .835.615 1.169 1.564 1.67h-4.861c1.117-.668 1.062-1.67 1.062-2.672v-9.574c-.056-1.057.279-2.226-1.397-2.672l.279-.278m111.244 14.916c1.229-.223 1.397-1.058 1.453-2.059.056-3.451.112-6.902 0-10.353 0-1.057-.056-1.948-1.229-2.393h4.749c-1.564.445-1.173 1.781-1.173 2.894v9.685c0 1.113.503 1.503 1.564 1.559 2.291.111 2.85-.167 4.526-2.171-.112.835-.224 1.725-.447 2.56-.112.501-.503.724-1.006.724h-8.269c-.056-.167-.112-.334-.168-.445m-113.199-2.84l-.391 2.449c-.112.501-.447.779-1.006.779-2.794 0-5.587 0-8.437-.167 1.509-.668 1.453-1.892 1.453-3.117v-9.685c0-.946 0-1.892-1.229-2.226h4.917c-1.732.557-1.453 1.948-1.453 3.117v9.295c0 1.28.559 1.67 1.732 1.67 2.346.056 2.961-.223 4.414-2.115m83.14-.334c1.006.056 1.788.835 1.732 1.892 0 1.002-.894 1.837-1.844 1.837-1.006 0-1.9-1.002-1.844-2.004.056-.946.95-1.725 1.956-1.725M14.922 69.288h7.096c-2.011-1.781-2.011-1.781-3.297-4.731L11.96 48.639c-.167-.445-.167-1.057-1.006-1.113-.894 0-.894.668-1.062 1.169L2.63 66.171c-.447 1.057-.838 2.115-2.123 2.504-.224.056-.447.223-.391.501s.335.223.559.223h4.358c.223 0 .503.056.559-.223s-.167-.39-.391-.445c-.95-.278-.782-1.002-.67-1.67.112-.501.335-1.002.559-1.503.503-1.113.67-2.616 1.508-3.284.894-.668 2.459-.167 3.744-.223 1.285 0 2.849-.39 3.743.167.894.612 1.117 2.171 1.62 3.34 1.006 2.282.95 2.282-.782 3.729zm-7.655-8.905l3.129-7.848 3.129 7.848zm74.312-6.068c-2.905-.501-5.923 0-8.94 0 .894.39 1.397.891 1.397 1.892v9.573c0 1.336.503 2.95-1.509 3.562l8.716.056c4.246-.39 6.649-3.006 6.761-7.013.056-4.619-2.011-7.347-6.425-8.07zm3.743 9.796c-.726 3.284-4.861 5.288-8.046 4.174-.838-.278-.95-.89-.95-1.614v-5.176h.056V56.04c0-.445 0-.779.615-.835 5.811-.445 9.666 2.894 8.325 8.905zm81.576-10.296c-4.582.056-7.822 3.395-7.822 8.07 0 4.62 3.241 7.904 7.822 7.848s7.71-3.395 7.71-8.126c-.056-4.62-3.241-7.848-7.71-7.792zm4.246 12.301c-1.9 3.172-6.202 3.228-8.325.167-.95-1.447-1.341-3.061-1.285-5.009a6.8 6.8 0 0 1 .782-3.506c1.676-3.395 5.978-3.841 8.325-.835 1.788 2.338 2.011 6.679.503 9.184zm-114.931.11c-.726-1.225-1.397-2.449-2.85-3.117l1.341-.612c1.9-1.002 2.738-2.56 2.459-4.564-.279-1.892-1.509-3.284-3.576-3.618-2.179-.39-4.358 0-6.649.056 1.341.39 1.285 1.391 1.285 2.338v9.963c0 1.113.056 2.171-1.229 2.672h4.861c-1.453-.89-1.453-.89-1.453-2.56v-1.892c.056-.445-.279-1.113.279-1.336.67-.278 1.341.111 1.788.724.335.445.559.946.782 1.447.726 1.391 1.509 2.727 2.794 3.673 1.062.835 2.291 1.169 3.688.724-1.9-.724-2.626-2.393-3.52-3.896zm-4.749-3.673c-.727.056-1.118-.111-1.062-.946.056-.946 0-1.892 0-2.838h.056v-2.56c-.112-1.057.447-1.225 1.285-1.057 2.011.334 3.24 1.948 3.185 4.119-.112 1.837-1.453 3.117-3.464 3.284zm134.543 6.79h4.917c-1.229-.668-1.508-1.892-1.955-2.95l-4.861-11.41c-.168-.39-.224-.946-.838-.891-.559.056-.559.557-.726.891L178.13 65.67c-.559 1.336-.838 2.838-2.794 3.618h4.302c-1.006-.946-1.006-.946-.614-2.059 1.117-3.006 1.117-3.006 4.246-3.006h1.62c.279 0 .67 0 .726.167.447.835.67 1.781 1.173 2.616.615 1.002.391 1.725-.782 2.338zm-1.676-6.234c-3.688.222-3.688.222-2.347-3.117l.95-2.393 1.9 4.731c.279.612.168.724-.503.779z" fill="#000"/></g></svg>