<?xml version="1.0" encoding="UTF-8" standalone="no"?>
<svg
   width="300"
   height="90"
   viewBox="0 0 300 90"
   version="1.1"
   id="svg904"
   sodipodi:docname="anaconda.svg"
   inkscape:version="1.1.1 (3bf5ae0d25, 2021-09-20)"
   xmlns:inkscape="http://www.inkscape.org/namespaces/inkscape"
   xmlns:sodipodi="http://sodipodi.sourceforge.net/DTD/sodipodi-0.dtd"
   xmlns="http://www.w3.org/2000/svg"
   xmlns:svg="http://www.w3.org/2000/svg"
   xmlns:rdf="http://www.w3.org/1999/02/22-rdf-syntax-ns#"
   xmlns:cc="http://creativecommons.org/ns#"
   xmlns:dc="http://purl.org/dc/elements/1.1/">
  <sodipodi:namedview
     id="namedview906"
     pagecolor="#ffffff"
     bordercolor="#666666"
     borderopacity="1.0"
     inkscape:pageshadow="2"
     inkscape:pageopacity="0.0"
     inkscape:pagecheckerboard="0"
     showgrid="false"
     inkscape:zoom="1.9488743"
     inkscape:cx="108.78075"
     inkscape:cy="-10.518893"
     inkscape:window-width="1866"
     inkscape:window-height="1016"
     inkscape:window-x="54"
     inkscape:window-y="27"
     inkscape:window-maximized="1"
     inkscape:current-layer="svg904" />
  <!-- Generator: Sketch 46.2 (44496) - http://www.bohemiancoding.com/sketch -->
  <title
     id="title882">logo-horizontal-large-white</title>
  <desc
     id="desc884">Created with Sketch.</desc>
  <defs
     id="defs886" />
  <g
     id="Page-1"
     stroke="none"
     stroke-width="1"
     fill="none"
     fill-rule="evenodd"
     transform="matrix(1.431093,0,0,1.431093,0.80855475,19.598099)">
    <g
       id="logo-horizontal-large-white">
      <path
         d="M 53.8,7.95 C 53.7,7.75 53.6,7.65 53.3,7.65 H 53 c -0.3,0 -0.4,0.1 -0.5,0.3 l -8.9,19.3 c -0.2,0.4 0.1,0.7 0.5,0.7 h 2.5 c 0.5,0 0.7,-0.3 0.8,-0.6 l 1.4,-3.1 h 8.6 l 1.4,3.1 c 0.2,0.4 0.4,0.6 0.8,0.6 h 2.5 c 0.4,0 0.7,-0.4 0.5,-0.7 z m -3.6,13.2 2.8,-6.3 h 0.1 l 2.9,6.3 z M 81.1,7.95 h -2.6 c -0.3,0 -0.5,0.3 -0.5,0.5 v 11.9 L 66,7.65 h -0.7 c -0.3,0 -0.5,0.2 -0.5,0.5 v 19.3 c 0,0.3 0.3,0.5 0.5,0.5 h 2.6 c 0.3,0 0.5,-0.3 0.5,-0.5 v -12.3 l 12,13.2 h 0.7 c 0.3,0 0.5,-0.2 0.5,-0.5 V 8.45 c 0.1,-0.2 -0.2,-0.5 -0.5,-0.5 z m 12.9,0 c -0.1,-0.2 -0.2,-0.3 -0.5,-0.3 h -0.3 c -0.3,0 -0.4,0.1 -0.5,0.3 l -8.9,19.3 c -0.2,0.4 0.1,0.7 0.5,0.7 h 2.5 c 0.5,0 0.7,-0.3 0.8,-0.6 l 1.4,-3 h 8.6 l 1.4,3.1 c 0.2,0.4 0.4,0.6 0.8,0.6 h 2.5 c 0.4,0 0.7,-0.4 0.5,-0.7 z m -3.6,13.2 2.8,-6.3 h 0.1 l 2.9,6.3 z m 28.1,1.8 c -0.2,-0.2 -0.5,-0.2 -0.7,0 -1.2,1 -2.7,1.6 -4.4,1.6 -3.7,0 -6.4,-3 -6.4,-6.6 0,-3.6 2.7,-6.7 6.4,-6.7 1.6,0 3.2,0.6 4.4,1.7 0.2,0.2 0.5,0.2 0.7,0 l 1.7,-1.8 c 0.2,-0.2 0.2,-0.6 0,-0.8 -1.9,-1.7 -4,-2.7 -6.9,-2.7 -5.7,0 -10.3,4.6 -10.3,10.3 0,5.7 4.6,10.3 10.3,10.3 2.6,0 5,-0.9 7,-2.8 0.2,-0.2 0.3,-0.6 0,-0.8 z M 132,7.65 c -5.7,0 -10.3,4.6 -10.3,10.3 0,5.7 4.6,10.3 10.3,10.3 5.7,0 10.3,-4.6 10.3,-10.3 0,-5.7 -4.5,-10.3 -10.3,-10.3 z m 0,16.9 c -3.6,0 -6.6,-3 -6.6,-6.6 0,-3.6 3,-6.6 6.6,-6.6 3.6,0 6.6,3 6.6,6.6 0,3.7 -3,6.6 -6.6,6.6 z m 29.9,-16.6 h -2.6 c -0.3,0 -0.5,0.3 -0.5,0.5 v 11.9 L 146.7,7.65 H 146 c -0.3,0 -0.5,0.2 -0.5,0.5 v 19.3 c 0,0.3 0.3,0.5 0.5,0.5 h 2.6 c 0.3,0 0.5,-0.3 0.5,-0.5 v -12.3 l 12,13.2 h 0.7 c 0.3,0 0.5,-0.2 0.5,-0.5 V 8.45 c 0.1,-0.2 -0.1,-0.5 -0.4,-0.5 z m 11.5,0 h -6.8 c -0.3,0 -0.5,0.3 -0.5,0.5 v 19 c 0,0.3 0.2,0.5 0.5,0.5 h 6.8 c 5.5,0 10.1,-4.5 10.1,-10.1 -0.1,-5.4 -4.6,-9.9 -10.1,-9.9 z m -0.4,16.6 h -3.3 v -13.1 h 3.3 c 3.7,0 6.4,2.8 6.4,6.5 0.1,3.8 -2.7,6.6 -6.4,6.6 z m 29.6,2.7 -8.8,-19.3 c -0.1,-0.2 -0.2,-0.3 -0.5,-0.3 H 193 c -0.3,0 -0.4,0.1 -0.5,0.3 l -8.9,19.3 c -0.2,0.4 0.1,0.7 0.5,0.7 h 2.5 c 0.5,0 0.7,-0.3 0.8,-0.6 l 1.4,-3.1 h 8.6 l 1.4,3.1 c 0.2,0.4 0.4,0.6 0.8,0.6 h 2.5 c 0.4,0.1 0.7,-0.3 0.5,-0.7 z m -12.4,-6.1 2.8,-6.3 h 0.1 l 2.9,6.3 z"
         id="Shape"
         fill="#b1b1b1"
         fill-rule="nonzero" />
      <path
         d="m 206.9,25 c 0,-0.1 -0.1,-0.2 -0.2,-0.2 h -0.4 v 0.5 h 0.4 c 0.1,-0.1 0.2,-0.2 0.2,-0.3 z"
         id="path889" />
      <path
         d="m 206.5,26.6 c 0.8,0 1.4,-0.6 1.4,-1.4 0,-0.8 -0.6,-1.4 -1.4,-1.4 -0.8,0 -1.4,0.6 -1.4,1.4 0,0.8 0.7,1.4 1.4,1.4 z m -0.6,-2.1 c 0,0 0,-0.1 0,0 l 0.8,-0.1 c 0.3,0 0.6,0.2 0.6,0.6 0,0.3 -0.2,0.5 -0.4,0.5 0.1,0.2 0.2,0.4 0.2,0.5 0,0.1 0,0.1 -0.1,0.1 h -0.2 c 0,0 -0.1,0 -0.1,-0.1 l -0.2,-0.6 h -0.3 V 26 c 0,0 0,0.1 -0.1,0.1 H 206 c -0.1,0 -0.1,0 -0.1,-0.1 z"
         id="path891" />
      <path
         d="m 206,26.1 h 0.2 c 0.1,0 0.1,0 0.1,-0.1 v -0.5 h 0.3 l 0.2,0.6 c 0,0 0,0.1 0.1,0.1 h 0.2 c 0.1,0 0.1,-0.1 0.1,-0.1 -0.1,-0.2 -0.2,-0.3 -0.2,-0.5 0.1,-0.1 0.4,-0.2 0.4,-0.5 0,-0.4 -0.3,-0.6 -0.6,-0.6 H 206 c -0.1,0 -0.1,0 -0.1,0.1 l 0.1,1.5 c -0.1,0 -0.1,0 0,0 z m 0.2,-1.4 h 0.4 c 0.1,0 0.2,0.1 0.2,0.2 0,0.1 -0.1,0.2 -0.2,0.2 h -0.4 z"
         id="path893"
         fill="#3fae2a"
         fill-rule="nonzero" />
      <path
         d="m 206.5,27 c 0.9,0 1.7,-0.8 1.7,-1.7 0,-0.9 -0.8,-1.7 -1.7,-1.7 -0.9,0 -1.7,0.8 -1.7,1.7 0,0.9 0.8,1.7 1.7,1.7 z m 0,-3.1 c 0.8,0 1.4,0.6 1.4,1.4 0,0.8 -0.6,1.4 -1.4,1.4 -0.8,0 -1.4,-0.6 -1.4,-1.4 0,-0.8 0.7,-1.4 1.4,-1.4 z"
         id="path895"
         fill="#3fae2a"
         fill-rule="nonzero" />
      <g
         id="Group"
         fill-rule="nonzero"
         fill="#b1b1b1">
        <path
           d="m 6.3,26.8 c 0,-1 0.1,-1.9 0.2,-2.8 -0.9,-0.4 -1.7,-0.8 -2.6,-1.2 -0.5,1.1 -1,2.2 -1.3,3.4 1.3,0.3 2.5,0.5 3.7,0.6 z M 9.3,9.1 C 8.6,9.1 7.8,9.2 7,9.3 7.1,10.1 7.2,10.8 7.4,11.6 8,10.7 8.6,9.9 9.3,9.1 Z m -6,18.5 c 0.9,1.3 2,2.5 3.2,3.6 C 6.4,30.1 6.3,29.1 6.3,28.1 5.3,28 4.3,27.9 3.3,27.6 Z M 12.1,1 C 10.7,1.5 9.4,2.1 8.2,2.9 9.1,3 10,3.2 10.9,3.5 11.2,2.6 11.6,1.8 12.1,1 Z m 5.7,-1 c -0.7,0 -1.4,0 -2,0.1 0.9,0.7 1.8,1.4 2.7,2.2 l 0.7,0.6 -0.7,0.7 c -0.6,0.5 -1.1,1.1 -1.7,1.8 l -0.3,0.3 c 0.4,0 0.8,-0.1 1.3,-0.1 6.7,0 12.1,5.4 12.1,12.1 0,6.7 -5.4,12.1 -12.1,12.1 -2.3,0 -4.5,-0.7 -6.3,-1.8 -0.9,0.1 -1.8,0.2 -2.7,0.2 H 7.5 c 0,1.4 0.2,2.8 0.4,4.3 2.8,1.9 6.2,3 9.9,3 9.8,0 17.7,-7.9 17.7,-17.7 C 35.5,7.9 27.6,0 17.8,0 Z"
           id="path897" />
        <path
           d="M 15.5,4.2 C 15.9,3.8 16.2,3.4 16.6,3 15.8,2.3 14.9,1.6 14,1.1 c -0.6,1 -1.1,1.9 -1.5,3 0.8,0.3 1.6,0.6 2.3,1 0.4,-0.6 0.6,-0.8 0.7,-0.9 z M 1.9,10.6 C 2.4,11.8 3,13 3.6,14 L 6,12.5 C 5.8,11.6 5.6,10.6 5.4,9.6 4.2,9.9 3,10.2 1.9,10.6 Z m -1.2,8.1 c 0.9,0.7 1.8,1.4 2.7,2 C 3.8,19.9 4.3,19.2 4.9,18.4 4.3,17.7 3.7,17 3.2,16.3 2.3,17.1 1.5,17.9 0.7,18.7 Z m 7.1,5.9 C 7.7,25.3 7.7,26.1 7.6,26.9 H 9.8 C 9.1,26.3 8.4,25.5 7.8,24.6 Z M 10.3,5 C 9.2,4.7 8.1,4.5 6.9,4.3 6.8,5.5 6.8,6.6 6.9,7.8 7.8,7.7 8.7,7.6 9.6,7.6 9.8,6.7 10,5.9 10.3,5 Z m 1.6,0.5 C 11.7,6.2 11.5,6.8 11.3,7.5 12.1,7 12.9,6.6 13.8,6.3 13.2,6 12.5,5.8 11.9,5.5 Z M 2.8,22 C 2,21.5 1.2,21 0.4,20.4 0.6,21.9 1,23.3 1.6,24.7 2,23.7 2.3,22.9 2.8,22 Z M 5.4,5.1 C 4.3,6.1 3.4,7.3 2.7,8.6 3.5,8.4 4.5,8.2 5.4,8 5.3,7 5.3,6.1 5.4,5.1 Z m 0.7,9.2 C 5.6,14.6 5,15 4.5,15.4 l 1.2,1.5 C 5.7,16 5.9,15.2 6.1,14.3 Z M 4.7,21.5 C 5.3,21.8 6,22.2 6.6,22.4 6.2,21.5 6,20.6 5.8,19.7 5.4,20.3 5,20.9 4.7,21.5 Z M 2.3,15 C 1.8,14.2 1.4,13.4 1,12.6 0.6,14 0.3,15.4 0.3,16.9 0.9,16.2 1.6,15.6 2.3,15 Z"
           id="path899" />
      </g>
    </g>
  </g>
  <metadata
     id="metadata988">
    <rdf:RDF>
      <cc:Work
         rdf:about="">
        <dc:title>logo-horizontal-large-white</dc:title>
      </cc:Work>
    </rdf:RDF>
  </metadata>
</svg>
