<svg xmlns="http://www.w3.org/2000/svg" width="300" height="90" xmlns:v="https://vecta.io/nano"><g transform="matrix(1.431093 0 0 1.431093 .808555 19.598099)" fill-rule="nonzero"><path d="M53.8 7.95c-.1-.2-.2-.3-.5-.3H53c-.3 0-.4.1-.5.3l-8.9 19.3c-.2.4.1.7.5.7h2.5c.5 0 .7-.3.8-.6l1.4-3.1h8.6l1.4 3.1c.2.4.4.6.8.6h2.5c.4 0 .7-.4.5-.7zm-3.6 13.2l2.8-6.3h.1l2.9 6.3zm30.9-13.2h-2.6c-.3 0-.5.3-.5.5v11.9L66 7.65h-.7a.47.47 0 0 0-.5.5v19.3c0 .3.3.5.5.5h2.6c.3 0 .5-.3.5-.5v-12.3l12 13.2h.7a.47.47 0 0 0 .5-.5V8.45c.1-.2-.2-.5-.5-.5zm12.9 0c-.1-.2-.2-.3-.5-.3h-.3c-.3 0-.4.1-.5.3l-8.9 19.3c-.2.4.1.7.5.7h2.5c.5 0 .7-.3.8-.6l1.4-3h8.6l1.4 3.1c.2.4.4.6.8.6h2.5c.4 0 .7-.4.5-.7zm-3.6 13.2l2.8-6.3h.1l2.9 6.3zm28.1 1.8c-.2-.2-.5-.2-.7 0-1.2 1-2.7 1.6-4.4 1.6-3.7 0-6.4-3-6.4-6.6s2.7-6.7 6.4-6.7c1.6 0 3.2.6 4.4 1.7.2.2.5.2.7 0l1.7-1.8a.61.61 0 0 0 0-.8c-1.9-1.7-4-2.7-6.9-2.7-5.7 0-10.3 4.6-10.3 10.3s4.6 10.3 10.3 10.3c2.6 0 5-.9 7-2.8.2-.2.3-.6 0-.8zM132 7.65c-5.7 0-10.3 4.6-10.3 10.3s4.6 10.3 10.3 10.3 10.3-4.6 10.3-10.3-4.5-10.3-10.3-10.3zm0 16.9c-3.6 0-6.6-3-6.6-6.6s3-6.6 6.6-6.6 6.6 3 6.6 6.6c0 3.7-3 6.6-6.6 6.6zm29.9-16.6h-2.6c-.3 0-.5.3-.5.5v11.9l-12.1-12.7h-.7a.47.47 0 0 0-.5.5v19.3c0 .3.3.5.5.5h2.6c.3 0 .5-.3.5-.5v-12.3l12 13.2h.7a.47.47 0 0 0 .5-.5V8.45c.1-.2-.1-.5-.4-.5zm11.5 0h-6.8c-.3 0-.5.3-.5.5v19a.47.47 0 0 0 .5.5h6.8c5.5 0 10.1-4.5 10.1-10.1-.1-5.4-4.6-9.9-10.1-9.9zm-.4 16.6h-3.3v-13.1h3.3c3.7 0 6.4 2.8 6.4 6.5.1 3.8-2.7 6.6-6.4 6.6zm29.6 2.7l-8.8-19.3c-.1-.2-.2-.3-.5-.3h-.3c-.3 0-.4.1-.5.3l-8.9 19.3c-.2.4.1.7.5.7h2.5c.5 0 .7-.3.8-.6l1.4-3.1h8.6l1.4 3.1c.2.4.4.6.8.6h2.5c.4.1.7-.3.5-.7zm-12.4-6.1l2.8-6.3h.1l2.9 6.3z" fill="#b1b1b1"/><g fill="#3fae2a"><path d="M206 26.1h.2c.1 0 .1 0 .1-.1v-.5h.3l.2.6s0 .1.1.1h.2c.1 0 .1-.1.1-.1-.1-.2-.2-.3-.2-.5.1-.1.4-.2.4-.5 0-.4-.3-.6-.6-.6h-.8c-.1 0-.1 0-.1.1l.1 1.5c-.1 0-.1 0 0 0zm.2-1.4h.4c.1 0 .2.1.2.2s-.1.2-.2.2h-.4z"/><path d="M206.5 27c.9 0 1.7-.8 1.7-1.7s-.8-1.7-1.7-1.7-1.7.8-1.7 1.7.8 1.7 1.7 1.7zm0-3.1c.8 0 1.4.6 1.4 1.4s-.6 1.4-1.4 1.4-1.4-.6-1.4-1.4.7-1.4 1.4-1.4z"/></g><path d="M6.3 26.8c0-1 .1-1.9.2-2.8l-2.6-1.2c-.5 1.1-1 2.2-1.3 3.4 1.3.3 2.5.5 3.7.6zm3-17.7c-.7 0-1.5.1-2.3.2l.4 2.3a23.48 23.48 0 0 1 1.9-2.5zm-6 18.5c.9 1.3 2 2.5 3.2 3.6l-.2-3.1c-1-.1-2-.2-3-.5zM12.1 1c-1.4.5-2.7 1.1-3.9 1.9.9.1 1.8.3 2.7.6.3-.9.7-1.7 1.2-2.5zm5.7-1l-2 .1 2.7 2.2.7.6-.7.7c-.6.5-1.1 1.1-1.7 1.8l-.3.3c.4 0 .8-.1 1.3-.1a12.08 12.08 0 0 1 12.1 12.1 12.08 12.08 0 0 1-12.1 12.1c-2.3 0-4.5-.7-6.3-1.8l-2.7.2H7.5c0 1.4.2 2.8.4 4.3 2.8 1.9 6.2 3 9.9 3a17.67 17.67 0 0 0 17.7-17.7C35.5 7.9 27.6 0 17.8 0zm-2.3 4.2L16.6 3c-.8-.7-1.7-1.4-2.6-1.9-.6 1-1.1 1.9-1.5 3 .8.3 1.6.6 2.3 1 .4-.6.6-.8.7-.9zM1.9 10.6A26.94 26.94 0 0 0 3.6 14L6 12.5l-.6-2.9-3.5 1zM.7 18.7l2.7 2c.4-.8.9-1.5 1.5-2.3l-1.7-2.1-2.5 2.4zm7.1 5.9c-.1.7-.1 1.5-.2 2.3h2.2c-.7-.6-1.4-1.4-2-2.3zM10.3 5c-1.1-.3-2.2-.5-3.4-.7-.1 1.2-.1 2.3 0 3.5l2.7-.2.7-2.6zm1.6.5l-.6 2c.8-.5 1.6-.9 2.5-1.2-.6-.3-1.3-.5-1.9-.8zM2.8 22L.4 20.4c.2 1.5.6 2.9 1.2 4.3L2.8 22zM5.4 5.1c-1.1 1-2 2.2-2.7 3.5L5.4 8c-.1-1-.1-1.9 0-2.9zm.7 9.2a15.26 15.26 0 0 0-1.6 1.1l1.2 1.5c0-.9.2-1.7.4-2.6zm-1.4 7.2c.6.3 1.3.7 1.9.9-.4-.9-.6-1.8-.8-2.7l-1.1 1.8zM2.3 15c-.5-.8-.9-1.6-1.3-2.4-.4 1.4-.7 2.8-.7 4.3.6-.7 1.3-1.3 2-1.9z" fill="#b1b1b1"/></g></svg>