<svg xmlns="http://www.w3.org/2000/svg" width="300" height="90" xmlns:v="https://vecta.io/nano"><path d="M184.844 69.118c-1.306 3.017-2.852 5.794-4.643 8.347-2.441 3.481-4.44 5.89-5.981 7.228-2.388 2.196-4.946 3.321-7.686 3.385-1.967 0-4.339-.56-7.1-1.695-2.77-1.13-5.316-1.69-7.644-1.69-2.441 0-5.059.56-7.86 1.69-2.805 1.135-5.064 1.727-6.792 1.786-2.627.112-5.246-1.045-7.86-3.475-1.668-1.455-3.755-3.95-6.255-7.484-2.682-3.774-4.887-8.15-6.615-13.139-1.85-5.389-2.778-10.607-2.778-15.659 0-5.787 1.25-10.778 3.755-14.961 1.968-3.36 4.587-6.01 7.865-7.955s6.819-2.937 10.633-3c2.087 0 4.823.645 8.224 1.914 3.391 1.273 5.568 1.918 6.523 1.918.714 0 3.133-.755 7.233-2.259 3.878-1.395 7.15-1.973 9.832-1.746 7.265.586 12.723 3.45 16.353 8.61-6.498 3.937-9.712 9.451-9.648 16.525.059 5.51 2.057 10.095 5.986 13.735a19.67 19.67 0 0 0 5.981 3.923 64.65 64.65 0 0 1-1.524 4.003zM168.181 3.551c0 4.319-1.578 8.351-4.723 12.083-3.795 4.437-8.385 7.001-13.363 6.596a13.45 13.45 0 0 1-.1-1.636c0-4.146 1.805-8.583 5.01-12.21 1.6-1.837 3.635-3.364 6.103-4.582 2.463-1.2 4.792-1.864 6.983-1.978.064.577.091 1.155.091 1.727z"/></svg>