<svg xmlns="http://www.w3.org/2000/svg" width="300" height="90" fill="#b1b1b1" xmlns:v="https://vecta.io/nano"><path d="M25.707 19.553L3.406 70.528h9.149l5.228-12.254h23.935l5.147 12.254h9.313l-22.22-50.975zm-4.738 30.879l8.659-20.259 8.741 20.259zm65.271-.245l20.26-30.634H96.207L81.829 42.1 67.533 19.553H56.995l20.178 30.879v20.096h9.068zm43.296-30.634l-22.302 50.975h9.149l5.228-12.254h23.935l5.147 12.254h9.394l-22.302-50.975zm-4.738 30.879l8.659-20.259 8.741 20.259zm67.559-9.476c-9.721-2.369-12.09-4.085-12.09-8.006v-.163c0-3.349 3.023-6.045 8.332-6.045 4.656 0 9.231 1.797 13.806 5.228l4.82-6.78c-5.147-4.166-11.028-6.372-18.462-6.372-10.13 0-17.4 6.045-17.4 14.786v.163c0 9.394 6.127 12.58 16.992 15.194 9.476 2.206 11.518 4.166 11.518 7.761v.163c0 3.839-3.513 6.372-9.068 6.372-6.372 0-11.192-2.369-16.093-6.617l-5.392 6.372c6.127 5.473 13.479 8.169 21.24 8.169 10.701 0 18.217-5.718 18.217-15.194v-.163c-.082-8.414-5.637-12.254-16.42-14.868zm51.383-21.403h-19.034v50.975h19.034c16.011 0 27.121-11.11 27.121-25.488v-.163c-.082-14.296-11.11-25.324-27.121-25.324zm17.645 25.651c0 9.966-7.025 17.155-17.727 17.155H233.61V27.722h10.048c10.701 0 17.727 7.352 17.727 17.318zm26.223-25.651h8.986v50.975h-8.986z"/></svg>