<?xml version="1.0" encoding="UTF-8" standalone="no"?>
<!-- Generator: Adobe Illustrator 19.2.1, SVG Export Plug-In . SVG Version: 6.00 Build 0)  -->

<svg
   version="1.1"
   id="Layer_1"
   x="0px"
   y="0px"
   viewBox="0 0 300 89.999997"
   xml:space="preserve"
   sodipodi:docname="ayasdi.svg"
   width="300"
   height="90"
   inkscape:version="1.1.1 (3bf5ae0d25, 2021-09-20)"
   xmlns:inkscape="http://www.inkscape.org/namespaces/inkscape"
   xmlns:sodipodi="http://sodipodi.sourceforge.net/DTD/sodipodi-0.dtd"
   xmlns="http://www.w3.org/2000/svg"
   xmlns:svg="http://www.w3.org/2000/svg"><defs
   id="defs1165" /><sodipodi:namedview
   id="namedview1163"
   pagecolor="#ffffff"
   bordercolor="#666666"
   borderopacity="1.0"
   inkscape:pageshadow="2"
   inkscape:pageopacity="0.0"
   inkscape:pagecheckerboard="0"
   showgrid="false"
   width="300px"
   inkscape:zoom="1.8328865"
   inkscape:cx="197.50269"
   inkscape:cy="10.638957"
   inkscape:window-width="1866"
   inkscape:window-height="1016"
   inkscape:window-x="54"
   inkscape:window-y="27"
   inkscape:window-maximized="1"
   inkscape:current-layer="Layer_1" />
<style
   type="text/css"
   id="style1146">
	.st0{fill:#B1B1B1;}
</style>
<g
   id="g1160"
   transform="matrix(0.81690829,0,0,0.81690829,-5.0900339,11.629296)">
	<path
   class="st0"
   d="M 37.7,9.7 10.4,72.1 h 11.2 l 6.4,-15 h 29.3 l 6.3,15 H 75 L 47.8,9.7 Z M 31.9,47.5 42.5,22.7 53.2,47.5 Z"
   id="path1148" />
	<polygon
   class="st0"
   points="111.8,47.2 136.6,9.7 124,9.7 106.4,37.3 88.9,9.7 76,9.7 100.7,47.5 100.7,72.1 111.8,72.1 "
   id="polygon1150" />
	<path
   class="st0"
   d="m 164.8,9.7 -27.3,62.4 h 11.2 l 6.4,-15 h 29.3 l 6.3,15 h 11.5 L 174.9,9.7 Z m -5.8,37.8 10.6,-24.8 10.7,24.8 z"
   id="path1152" />
	<path
   class="st0"
   d="m 241.7,35.9 c -11.9,-2.9 -14.8,-5 -14.8,-9.8 v -0.2 c 0,-4.1 3.7,-7.4 10.2,-7.4 5.7,0 11.3,2.2 16.9,6.4 l 5.9,-8.3 C 253.6,11.5 246.4,8.8 237.3,8.8 224.9,8.8 216,16.2 216,26.9 v 0.2 c 0,11.5 7.5,15.4 20.8,18.6 11.6,2.7 14.1,5.1 14.1,9.5 v 0.2 c 0,4.7 -4.3,7.8 -11.1,7.8 -7.8,0 -13.7,-2.9 -19.7,-8.1 l -6.6,7.8 c 7.5,6.7 16.5,10 26,10 13.1,0 22.3,-7 22.3,-18.6 v -0.2 c -0.1,-10.3 -6.9,-15 -20.1,-18.2 z"
   id="path1154" />
	<path
   class="st0"
   d="m 304.6,9.7 h -23.3 v 62.4 h 23.3 c 19.6,0 33.2,-13.6 33.2,-31.2 v -0.2 c -0.1,-17.5 -13.6,-31 -33.2,-31 z m 21.6,31.4 c 0,12.2 -8.6,21 -21.7,21 H 292.2 V 19.7 h 12.3 c 13.1,0 21.7,9 21.7,21.2 z"
   id="path1156" />
	<rect
   x="358.29999"
   y="9.6999998"
   class="st0"
   width="11"
   height="62.400002"
   id="rect1158" />
</g>
</svg>
