<svg xmlns="http://www.w3.org/2000/svg" width="300" height="90" fill="#b1b1b1" fill-rule="evenodd" xmlns:v="https://vecta.io/nano"><path d="M36.519.715l4.333.713c3.776.781 7.204 2.27 9.784 5.233 4.657 5.347 4.269 13.743-1.008 18.911-1.728 1.692-3.863 2.975-5.832 4.417-.689.505-1.44.925-2.393 1.532.733.324 1.242.516 1.721.766 2.399 1.251 4.88 2.373 7.167 3.801 9.545 5.959 8.848 21.668-2.221 26.795-3.895 1.804-7.992 2.812-12.24 2.863-3.872.046-7.746-.457-11.624-.536-4.596-.094-9.196.008-13.794.021-.828.002-1.673.075-2.477-.069-.347-.062-.865-.611-.846-.908.026-.39.466-1.026.799-1.074 1.261-.185 2.549-.208 3.829-.232 3.074-.06 3.212-.18 3.212-3.169l-.023-46.173c-.006-2.24-.149-4.509-.537-6.711-.48-2.718-1.638-3.495-4.395-3.506-.906-.004-1.822.064-2.715-.045-.761-.093-1.496-.392-2.242-.6V1.617c.965-.105 1.928-.288 2.894-.302l13.462-.138c2.558-.058 5.112-.301 7.667-.461zM23.67 45.922c0 2.477-.101 4.959.028 7.429.13 2.5.472 4.991.751 7.482a2.35 2.35 0 0 0 1.706 2.057c1.319.424 2.66.877 4.025 1.042 4.544.552 8.822-.077 12.361-3.297 4.341-3.95 5.712-11.453 3.188-17.428-3.282-7.772-11.488-11.002-19.189-10.612-2.402.122-2.839.658-2.86 3.08l-.011 10.245zm.007-28.498h-.006l.003 11.031c.004 1.789.389 2.16 2.183 2.234l12.092.502c.32.012.709-.012.957-.179 2.688-1.811 4.88-4.013 5.67-7.292.751-3.12.912-6.242-.129-9.32-1.658-4.898-4.406-8.868-9.595-10.621-2.875-.971-5.824-.684-8.736-.265-1.947.28-2.412.916-2.43 2.879l-.01 11.031z"/><path d="M29.04.715l-7.667.461-13.462.138c-.966.014-1.929.197-2.894.302V.715H29.04m137.836 27.532c-1.554 1.931-2.795 3.842-4.395 5.383-3.332 3.208-6.85 6.227-10.301 9.312-2.302 2.058-2.588 1.647-.446 4.273l10.771 12.92c.699.826 1.481 1.665 2.399 2.203.933.547 2.074.757 3.14 1.06.539.153 1.147.1 1.657.305.312.125.497.562.739.86-.269.211-.515.553-.813.608-.699.126-1.424.149-2.138.153-2.227.014-4.461-.102-6.679.031-1.55.093-2.565-.497-3.472-1.647l-10.694-13.414c-1.927-2.404-1.358-2.092-3.764-.657-.971.579-1.91 1.21-2.861 1.821-.75.481-1.132 1.106-1.107 2.056.061 2.289.002 4.582.037 6.872.027 1.842.586 2.417 2.436 2.522 1.093.062 2.191.011 3.285.047.486.016 1.032.005 1.434.221.346.186.664.656.722 1.041.027.181-.581.65-.909.658-2 .046-4.003-.02-6.004-.016l-12.573.043c-.672-.002-1.714.332-1.735-.851-.019-1.082 1.005-.985 1.694-1.059 1.009-.108 2.038-.021 3.056-.072 1.453-.073 1.807-.437 1.814-1.854l.221-50.134c.004-1.339-.207-2.692-.459-4.013-.211-1.102-.968-1.742-2.162-1.784l-3.394-.173c-.649-.046-1.321-.092-1.264-1.045.051-.846.601-.916 1.259-.919 3.916-.019 7.719-.756 11.484-1.761 1.748-.467 1.799-.407 1.772 1.372l-.689 44.943c-.033 2.215.378 2.521 2.238 1.182 3.419-2.46 6.734-5.071 9.994-7.739 1.831-1.499 3.579-3.135 5.145-4.903a11.12 11.12 0 0 0 2.185-3.84c.581-1.785-.04-2.415-1.911-2.495-1.056-.045-2.123 0-3.162-.149-.334-.048-.596-.587-.891-.901.311-.248.62-.709.934-.713l12.557-.031c.137 0 .274.087.851.283m87.677 60.31l1.38-.635c2.674-1.1 4.961-2.705 6.624-5.093l9.105-13.157c1.481-2.141 1.621-4.228.525-6.721l-12.309-28.88c-.293-.689-.673-1.342-.997-2.019-.669-1.396-1.732-2.108-3.329-2.028-.563.028-1.291.153-1.295-.805-.004-.887.546-1.203 1.311-1.192l5.204.144 8.83-.238c.677-.016 1.398-.067 2.017.14.367.123.733.697.79 1.111.032.231-.533.711-.894.792-.727.163-1.498.131-2.251.177-1.088.066-1.733.709-1.73 1.717.004 1.103.056 2.293.465 3.293l7.849 18.668c.175.412.374.836.658 1.176.366.438.827.795 1.247 1.188l1.013-1.284c.202-.309.319-.679.437-1.034l6.288-19c.304-.938.338-1.99.342-2.989.004-1.323-.525-1.825-1.847-1.918l-3.507-.158c-.623-.024-.987-.265-.96-.958.027-.682.412-.911 1.023-.921l.906-.014 11.2-.152c.528-.007 1.068-.051 1.581.041.281.05.679.311.734.545a1.27 1.27 0 0 1-.264.99c-.226.257-.646.48-.983.483-1.744.017-2.533 1.226-3.132 2.53-2.019 4.396-4.096 8.772-5.909 13.252-5.463 13.499-11.168 26.882-17.888 39.823-.928 1.787-2.14 2.737-4.158 2.944-2.271.232-4.459 1.161-6.801.846-.431-.058-.849-.203-1.273-.308l-.001-.357m-45.302-53.712l-.004-25.11c-.008-4.112-.41-4.505-4.466-4.653-.64-.023-1.317.011-1.903-.193-.361-.126-.799-.654-.798-1.001 0-.296.56-.827.901-.851 4.074-.289 8.096-.825 12.016-2.022.887-.271 1.326.178 1.289 1.296-.05 1.499-.273 2.993-.288 4.491l-.25 30.512-.202 21.049c-.006.927.151 1.873.365 2.778.326 1.382.803 1.696 2.218 1.764 1.015.049 2.045.048 3.034.243.365.072.632.638.944.979-.358.256-.696.691-1.078.733-1.008.111-2.034.059-3.054.059H204.28c-.491 0-1.011.093-1.464-.038-.427-.124-1.022-.419-1.122-.761-.196-.672.377-.986 1.002-1.056.598-.066 1.201-.095 1.802-.117 1.055-.04 2.115-.015 3.166-.106 1.105-.095 1.623-.691 1.615-1.873l-.018-16.102V34.843h-.008M94.308 60.331c-3.705 2.959-7.808 5.135-12.48 5.791-6.579.925-12.546-.568-17.214-5.607-2.293-2.475-3.428-5.534-3.913-8.824-.851-5.775-.169-11.316 2.923-16.379 2.581-4.226 6.242-7.097 11.207-8.069 3.936-.771 7.541.31 10.971 2.169 3.399 1.843 6.036 4.465 8.008 7.761.832 1.391.755 1.702-.871 2.021l-15.771 2.919c-2.859.469-5.77.64-8.663.883-1.126.095-1.585.641-1.667 1.709-.708 9.224 5.157 16.049 14.439 16.926 4.006.379 7.812-.189 11.497-1.74.543-.228 1.127-.622 1.534.439zM69.77 41.347l14.727-2.364c1.898-.312 2.145-.794 1.272-2.577-1.25-2.552-3.124-4.604-5.465-6.197-3.3-2.246-6.668-1.747-9.256 1.284-1.749 2.048-2.753 4.461-3.431 7.022-.703 2.656-.672 2.676 2.151 2.831zm151.02 6.173c.032-6.467 1.895-12.213 6.919-16.596 5.508-4.806 12.372-5.17 19.075-1.169 3.148 1.879 5.608 4.412 7.461 7.542.754 1.273.688 1.561-.709 1.845l-14.31 2.738c-3.381.548-6.814.807-10.232 1.097-1.245.106-1.776.697-1.821 1.828-.264 6.601 2.199 13.282 10.262 15.899 5.124 1.664 10.174 1.369 15.157-.591.351-.138.689-.336 1.051-.403.248-.045.529.09.795.144-.084.282-.124.588-.265.839-.103.183-.33.303-.514.433-3.838 2.707-7.981 4.79-12.727 5.164-9.235.729-19.674-3.794-20.141-17.418-.016-.45-.002-.901-.002-1.351zm9.407-6.166l14.919-2.437c1.598-.268 1.83-.702 1.145-2.218-1.218-2.701-3.166-4.829-5.599-6.486-3.336-2.272-6.717-1.744-9.312 1.357-1.698 2.029-2.704 4.395-3.351 6.923-.69 2.696-.674 2.699 2.197 2.861zm-28.174-2.639l-4.573 1.165c-7.11 1.603-14.315 2.564-21.579 3.131-1.317.103-1.724.494-1.772 1.843-.286 8.015 3.374 14.639 12.712 16.503 4.454.889 8.78.378 12.968-1.348.313-.129.62-.316.946-.36.21-.028.547.098.647.263.089.146-.011.479-.132.662-.139.21-.383.357-.598.509-3.961 2.81-8.247 4.959-13.165 5.242-9.121.527-18.975-3.962-19.724-16.831-.335-5.756.675-11.17 4.296-15.822 3.717-4.775 8.583-7.434 14.763-6.471 5.478.854 9.873 3.768 13.136 8.266.675.93 1.243 1.938 2.075 3.247zm-24.953 2.652l15.582-2.557c.686-.113.999-.536.799-1.207-.179-.605-.375-1.224-.683-1.769-1.258-2.218-2.941-4.081-5.037-5.541-3.391-2.362-6.843-1.867-9.492 1.323-1.664 2.003-2.652 4.334-3.293 6.827-.707 2.748-.703 2.749 2.125 2.924zm-67.128 8.152l.006 10.022c.021 2.638.705 3.318 3.354 3.426l5.092.158c.721.019 1.129.279 1.088 1.082-.041.828-.624.722-1.134.705l-8.485-.282c-2.9-.014-5.8.128-8.7.2l-3.392.04c-.309-.019-.859-.54-.822-.745.066-.364.467-.907.781-.945 1.307-.159 2.634-.184 3.954-.206 1.061-.018 1.563-.419 1.559-1.555l-.058-28.263c-.008-2.266-.591-2.848-2.855-3.02l-2.828-.086c-.694.005-.914-.298-.897-.961.016-.635.103-1.136.885-1.142l2.603-.005 8.69-.314c1.048-.046 1.376.2 1.339 1.266l-.162 2.806c.02 1.127.454 1.366 1.415.776l3.682-2.417c.731-.459 1.503-.859 2.281-1.235 2.942-1.42 5.487-.578 7.804 1.413 1.044.897 1.426 2.003.924 3.333l-1.132 2.933c-.368.912-.903.885-1.522.226l-.472-.486c-2.641-3.069-5.972-3.207-9.509-2.092-2.313.729-3.454 2.523-3.486 5.233l-.009 10.134h.005M32.267 83.556V75.87h1.907v11.915c-1.147.374-1.862.037-2.479-1.018-1.343-2.296-2.823-4.514-4.461-6.741v7.808H25.24V76.171c1.76-.551 1.758-.55 2.664.909l4.084 6.563.279-.086m193.475 4.222c-1.243.383-1.908-.036-2.493-1.034-1.344-2.295-2.823-4.512-4.467-6.729v7.81h-1.984V76.178c1.745-.584 1.746-.585 2.71.962l3.452 5.545c.188.3.402.584.819.817v-7.63h1.963V87.78m-21.445-5.765l-.296 1.99c-.628 2.706-2.353 4.107-5.008 4.112-2.649.005-4.546-1.396-5.033-4.064a12.6 12.6 0 0 1 .002-4.441c.503-2.742 2.638-4.188 5.43-3.984s4.539 2.029 4.797 5.029c.038.446.006.899.006 1.348l.102.009zm-8.662-.236c.217.959.333 1.975.686 2.9.434 1.138 1.349 1.745 2.636 1.744s2.16-.599 2.649-1.734c.791-1.841.78-3.72.038-5.568-.459-1.143-1.361-1.778-2.619-1.801-1.305-.023-2.271.594-2.733 1.789-.318.823-.432 1.723-.656 2.67zm-77.581.066l.283-2.106c.601-2.758 2.452-4.201 5.225-4.116 2.731.083 4.563 1.693 4.928 4.466.14 1.062.169 2.171.032 3.231-.422 3.275-2.359 4.901-5.544 4.793-2.706-.093-4.639-2.188-4.833-5.248-.021-.336-.003-.674-.003-1.011l-.089-.008zm8.657.031c-.232-.974-.36-1.947-.704-2.838-.425-1.102-1.342-1.694-2.55-1.718-1.25-.024-2.197.535-2.701 1.673a6.88 6.88 0 0 0 .007 5.766c.5 1.133 1.417 1.687 2.694 1.665 1.242-.022 2.113-.629 2.543-1.713.351-.887.476-1.863.71-2.834zm79.647-5.955l4.771.034c1.736.182 2.6 1.12 2.902 2.683.31 1.606-.219 2.83-1.624 3.76l-.398.258 2.769 5.089c-2.002.405-2.016.397-2.852-1.28l-1.171-2.309c-.504-.959-1.291-1.295-2.448-1.012v4.669h-1.949V75.921zm1.962 5.465c1.277-.068 2.658.435 3.362-.848.331-.604.342-1.73-.02-2.288-.773-1.193-2.135-.626-3.342-.706v3.843zM73.644 87.78c-2.066.314-2.065.314-2.879-1.325l-1.118-2.206c-.616-1.117-1.065-1.307-2.543-1.076v4.672h-1.949V75.934l4.88.029c1.544.126 2.522 1.077 2.854 2.614s-.24 2.892-1.583 3.781l-.451.288 2.788 5.134zm-6.46-10.272v3.887c1.257-.088 2.637.43 3.355-.862.325-.584.356-1.642.031-2.207-.736-1.28-2.136-.672-3.385-.818z"/><path d="M13.131 75.861h1.843l.104 1.278.064 7.087c.049 1.488.839 2.159 2.309 2.185 1.657.03 2.506-.755 2.535-2.459l.013-6.751v-1.313h1.887c.032.21.103.458.103.706l-.008 7.426c-.036 2.437-1.531 3.977-3.896 4.091-2.981.145-4.742-.993-4.913-3.567-.19-2.864-.043-5.749-.043-8.684m230.255 11.956c-1.843.222-1.912.241-2.393-1.454-.307-1.08-.809-1.612-1.968-1.397-.292.054-.602.008-.904.008-2.52 0-2.551-.012-3.451 2.284-.451 1.151-1.296.469-2.103.641l4.181-11.393c.171-.428 1.329-.513 2.05-.647.186-.035.574.303.661.543l3.922 11.008c.035.099.004.22.004.406zm-3.423-4.263l-1.913-5.498-.235.043-1.835 5.455h3.982z"/><path d="M157.785 87.909l4.184-11.411c.17-.427 1.335-.52 2.059-.635.198-.032.592.375.694.653l3.864 10.803c.049.137.048.292.07.437-1.796.392-1.957.374-2.408-1.279-.32-1.173-.864-1.74-2.111-1.512-.256.047-.528.007-.792.007-2.538 0-2.572-.013-3.452 2.284-.448 1.171-1.304.453-2.108.652zm5.528-9.776l-.274-.031-1.826 5.408h3.947l-1.847-5.377zM61.158 80.961v1.688h-4.416v3.567h5.184c.25 1.632.201 1.693-1.262 1.694l-5.946.001V75.863h7.047v1.624H56.73v3.475h4.428m-19.294-5.121c1.966-.088 1.971-.09 2.541 1.592l2.715 8.056 3.27-9.645h1.982l-2.266 6.522-1.675 4.896c-.218.694-.696.706-1.226.641s-1.221.322-1.514-.54l-3.87-11.277c-.021-.06.023-.144.043-.244m33.535 10.943l.677-1.195 3.368.795c.925.118 1.734-.285 1.984-1.291.249-.998-.384-1.536-1.18-1.928l-1.747-.8c-1.979-.969-2.71-2.287-2.31-4.132.334-1.539 1.786-2.641 3.784-2.566 1.153.044 2.291.492 3.548.784l-.4.982c-.097.193-.233.367-.348.545l-2.323-.625c-.958-.151-1.886.044-2.206 1.102-.306 1.014.225 1.744 1.13 2.195.572.285 1.174.509 1.76.766 1.855.814 2.683 2.038 2.441 3.605s-1.675 2.868-3.477 3.063a6.34 6.34 0 0 1-4.702-1.301m80.155-1.634l.934 1.185c-1.673 1.572-3.59 2.078-5.74 1.661-2.133-.414-3.39-1.844-3.716-3.892-.225-1.414-.281-2.942.006-4.334.86-4.176 5.664-5.54 9.131-2.586l-.895 1.193c-.703-.321-1.317-.69-1.982-.889-1.998-.599-3.72.303-4.146 2.316-.251 1.184-.313 2.474-.135 3.668.387 2.6 2.538 3.656 4.969 2.572.509-.226.973-.551 1.572-.895m-23.946-9.308h6.912v1.669h-4.886v3.431h4.371v1.709h-4.415v5.183h-1.982V75.841m55.619 1.615v3.505h4.382v1.724h-4.435v5.065c-1.985.401-2.05.354-2.051-1.381v-9.105-1.399h7.011v1.592h-4.906m-80.442 10.412h-2.006l-.025-3.927c-.053-.752-.233-1.546-.567-2.218l-2.641-4.836-.507-1.005c2.127-.204 2.124-.203 2.96 1.576l1.769 3.724 1.895-3.821c.843-1.694.844-1.693 2.929-1.463l-2.786 5.023c-.782 1.264-1.157 2.555-1.036 4.033.076.924.014 1.859.014 2.914"/><path d="M99.318 75.89l-.091 1.627h-3.074v10.297h-2.004V77.54h-3.197v-1.65h8.367m71.475-.046h1.863v10.383h5.196v1.582h-7.059V75.844"/><path d="M230.625 87.846h-1.867V75.871h1.867v11.975m-193.118.002v-11.98h1.87v11.979h-1.87m144.642.016h-1.858V75.869h1.858v11.994M86.338 75.855h1.837l.096 1.298.004 9.112c0 1.778-.002 1.778-1.937 1.564V75.855"/></svg>