<?xml version="1.0" encoding="UTF-8" standalone="no"?>
<svg
   width="300"
   height="90"
   viewBox="0 0 300 90"
   version="1.1"
   id="svg1473"
   sodipodi:docname="Berkeley.svg"
   inkscape:version="1.1.1 (3bf5ae0d25, 2021-09-20)"
   xmlns:inkscape="http://www.inkscape.org/namespaces/inkscape"
   xmlns:sodipodi="http://sodipodi.sourceforge.net/DTD/sodipodi-0.dtd"
   xmlns="http://www.w3.org/2000/svg"
   xmlns:svg="http://www.w3.org/2000/svg"
   xmlns:rdf="http://www.w3.org/1999/02/22-rdf-syntax-ns#"
   xmlns:cc="http://creativecommons.org/ns#"
   xmlns:dc="http://purl.org/dc/elements/1.1/"
   xmlns:sketch="http://www.bohemiancoding.com/sketch/ns">
  <sodipodi:namedview
     id="namedview1475"
     pagecolor="#ffffff"
     bordercolor="#666666"
     borderopacity="1.0"
     inkscape:pageshadow="2"
     inkscape:pageopacity="0.0"
     inkscape:pagecheckerboard="0"
     showgrid="false"
     inkscape:zoom="1.8074335"
     inkscape:cx="54.22053"
     inkscape:cy="-71.648558"
     inkscape:window-width="1866"
     inkscape:window-height="1016"
     inkscape:window-x="54"
     inkscape:window-y="27"
     inkscape:window-maximized="1"
     inkscape:current-layer="svg1473" />
  <!-- Generator: Sketch 3.3.3 (12072) - http://www.bohemiancoding.com/sketch -->
  <title
     id="title1427">Imported Layers</title>
  <desc
     id="desc1429">Created with Sketch.</desc>
  <defs
     id="defs1431" />
  <g
     id="Page-1"
     stroke="none"
     stroke-width="1"
     fill="none"
     fill-rule="evenodd"
     sketch:type="MSPage"
     transform="matrix(1.9759139,0,0,1.9759139,4.7501403,-0.35797422)">
    <g
       id="Home---Desktop-Copy-2"
       sketch:type="MSArtboardGroup"
       transform="translate(-348,-2148)"
       fill="#b1b1b1">
      <g
         id="Group-+-Currently-in-use-at"
         sketch:type="MSLayerGroup"
         transform="translate(110,1814)">
        <g
           id="Group"
           sketch:type="MSShapeGroup">
          <g
             id="Row-3-+-Row-1-+-Row-2">
            <g
               transform="translate(0,93)"
               id="g1466">
              <g
                 id="Row-3"
                 transform="translate(46.079694,221.40588)">
                <g
                   id="Imported-Layers"
                   transform="translate(192,20)">
                  <path
                     d="m 15.9985,0.13727064 c 0.731263,0.11869266 1.468131,0.21116973 2.19275,0.36103211 1.910792,0.39509174 3.645932,1.14873855 4.951699,2.64818805 2.356983,2.7059863 2.16036,6.9551832 -0.510347,9.5705502 -0.874318,0.856239 -1.955017,1.505643 -2.951627,2.235551 -0.348606,0.255344 -0.728564,0.468371 -1.211297,0.775321 0.370822,0.163899 0.628695,0.26133 0.871203,0.38766 1.213996,0.63289 2.469725,1.200964 3.627246,1.923854 4.830653,3.016032 4.477894,10.966169 -1.124093,13.560688 -1.971004,0.912798 -4.044784,1.42328 -6.194763,1.449082 -1.959377,0.02333 -3.920415,-0.231192 -5.882699,-0.271445 -2.3258389,-0.04748 -4.6539618,0.0043 -6.9808389,0.01073 -0.4191992,0.0012 -0.8467034,0.03798 -1.253445,-0.03509 -0.1756525,-0.03158 -0.4378856,-0.30922 -0.4279195,-0.459495 0.013288,-0.197546 0.2358644,-0.519151 0.4044577,-0.543716 0.6380381,-0.09371 1.2901949,-0.105068 1.9377839,-0.117454 1.5559576,-0.03014 1.6255127,-0.09124 1.6255127,-1.603899 C 5.0723305,22.239495 5.0827119,14.450161 5.0604958,6.6610321 5.0573814,5.5273624 4.9853347,4.3788303 4.7885042,3.2645642 4.5455805,1.8889679 3.9594492,1.4959404 2.5639873,1.4899541 2.105339,1.4878899 1.6419152,1.522156 1.1897034,1.4670413 0.80476271,1.4201835 0.43269492,1.2686697 0.05481356,1.1636009 V 0.5934633 C 0.54315254,0.54020642 1.030661,0.44772936 1.5196229,0.44050459 3.7906483,0.40747706 6.0625042,0.42213303 8.3329068,0.37073395 9.6274619,0.34142202 10.919941,0.21818807 12.21325,0.13727064 Z M 9.495411,23.016261 c 0,1.253601 -0.050869,2.509679 0.014326,3.759978 0.065818,1.265366 0.2387712,2.525779 0.3801652,3.786605 0.058343,0.521422 0.3791278,0.885757 0.8633138,1.041193 0.667521,0.214472 1.346254,0.443601 2.037237,0.527408 2.299471,0.279289 4.464814,-0.03901 6.256013,-1.668509 2.19711,-1.998991 2.890792,-5.796537 1.61347,-8.820207 -1.661224,-3.933371 -5.813974,-5.568027 -9.711343,-5.370481 -1.2158645,0.06172 -1.4365721,0.333165 -1.4475763,1.558899 -0.01578,1.728371 -0.00415,3.456743 -0.00561,5.185114 z M 9.498731,8.5935551 h -0.00311 c 0,1.8608949 -0.00311,3.7217889 0.00145,5.5826839 0.00208,0.905573 0.1970382,1.093211 1.104992,1.130573 2.040144,0.0836 4.079665,0.174633 6.119809,0.254312 0.161741,0.0062 0.358572,-0.0062 0.484186,-0.09083 1.360373,-0.916307 2.469932,-2.030986 2.869407,-3.690619 0.379958,-1.578922 0.461555,-3.1592891 -0.0654,-4.7167432 -0.839023,-2.478918 -2.229917,-4.48823 -4.855777,-5.375019 C 13.69903,1.196422 12.207021,1.3417431 10.733284,1.5537385 9.7478856,1.6955505 9.5126441,2.0175688 9.5037161,3.0106651 c -0.017025,1.8608945 -0.00498,3.721789 -0.00498,5.58289 z"
                     id="Fill-1" />
                  <path
                     id="Fill-2"
                     d="M 12.21325,0.13727064 C 10.919941,0.21818807 9.6274619,0.34142202 8.3329068,0.37073395 6.0625042,0.42213303 3.7906483,0.40747706 1.5196229,0.44050459 1.030661,0.44772936 0.54315254,0.54020642 0.05481356,0.5934633 V 0.13727064 H 12.21325" />
                  <path
                     d="m 81.971186,14.070757 c -0.786699,0.977408 -1.414355,1.944495 -2.224101,2.724358 -1.686348,1.623715 -3.46675,3.151238 -5.21331,4.712821 -1.164995,1.041605 -1.309711,0.833738 -0.225898,2.162477 1.793483,2.198807 3.619356,4.371605 5.45125,6.53883 0.353589,0.418211 0.749326,0.842408 1.213996,1.114679 0.472144,0.276812 1.049763,0.383326 1.58897,0.536697 0.272822,0.07762 0.580733,0.05057 0.838814,0.154198 0.158004,0.06316 0.251644,0.284655 0.373936,0.435137 -0.136203,0.106927 -0.260572,0.280115 -0.411517,0.307569 -0.353796,0.06399 -0.720466,0.07534 -1.081945,0.07762 -1.127207,0.007 -2.257529,-0.05181 -3.380377,0.01569 -0.784207,0.04706 -1.298085,-0.251629 -1.757148,-0.833326 -1.79286,-2.271674 -3.602331,-4.53055 -5.412424,-6.788807 -0.975017,-1.216445 -0.687038,-1.058532 -1.904771,-0.332753 -0.491246,0.292913 -0.966504,0.612455 -1.447784,0.921468 -0.379335,0.243578 -0.573051,0.559817 -0.560178,1.040574 0.03094,1.158646 0.0012,2.318738 0.01848,3.477798 0.0137,0.931995 0.296491,1.223257 1.233097,1.276514 0.552911,0.03138 1.108729,0.0056 1.662471,0.02394 0.246038,0.0081 0.522182,0.0025 0.725657,0.111675 0.175237,0.09413 0.33594,0.332133 0.365216,0.526995 0.0137,0.09144 -0.294208,0.329037 -0.460102,0.332959 -1.01239,0.02333 -2.025818,-0.01032 -3.038831,-0.0083 -2.121118,0.0045 -4.242029,0.02766 -6.363148,0.02188 -0.340093,-8.26e-4 -0.867258,0.168234 -0.877847,-0.430803 -0.0098,-0.547431 0.508686,-0.498509 0.857292,-0.535872 0.510763,-0.0547 1.031492,-0.01073 1.546614,-0.03654 0.735416,-0.03674 0.91439,-0.221078 0.918128,-0.938188 0.04256,-8.457523 0.08762,-16.91484 0.111911,-25.3723626 0.0021,-0.6774771 -0.104644,-1.3625918 -0.232335,-2.0307799 -0.106928,-0.5579587 -0.49,-0.8818348 -1.094195,-0.9030963 -0.572843,-0.020229 -1.145686,-0.047271 -1.717492,-0.087523 -0.328466,-0.023326 -0.668767,-0.046445 -0.639699,-0.5288532 0.02595,-0.4281193 0.304382,-0.4636239 0.637,-0.4652753 1.981801,-0.0095 3.906712,-0.38270639 5.812106,-0.89133024 0.884492,-0.23614679 0.910653,-0.20580275 0.896742,0.69461004 -0.116479,7.5818808 -0.235657,15.1637615 -0.348814,22.7456425 -0.01661,1.121078 0.191225,1.275894 1.132814,0.598211 1.730157,-1.245138 3.408199,-2.566445 5.058004,-3.916445 0.926847,-0.758395 1.811339,-1.586766 2.603644,-2.481193 0.486886,-0.549495 0.879093,-1.245963 1.105822,-1.943257 0.293792,-0.903509 -0.02035,-1.222431 -0.967127,-1.262889 -0.534225,-0.02271 -1.074263,0 -1.60039,-0.07555 -0.168801,-0.02415 -0.301682,-0.297041 -0.450966,-0.456193 0.157589,-0.125711 0.313725,-0.358968 0.472767,-0.360825 2.118004,-0.02498 4.236424,-0.01837 6.354843,-0.01548 0.06935,2.06e-4 0.138488,0.04417 0.430826,0.143257"
                     id="Fill-3" />
                  <path
                     d="m 126.34484,44.592729 c 0.23275,-0.107752 0.46176,-0.224174 0.69866,-0.321605 1.35353,-0.55672 2.51084,-1.368991 3.35214,-2.577385 1.54226,-2.215322 3.07247,-4.4389 4.60808,-6.658762 0.74953,-1.083509 0.82033,-2.139977 0.26576,-3.401422 -2.13108,-4.848234 -4.15856,-9.741468 -6.22964,-14.615917 -0.14825,-0.348854 -0.34051,-0.679129 -0.50454,-1.021583 -0.33864,-0.706376 -0.8768,-1.066995 -1.68489,-1.02633 -0.28486,0.01424 -0.65319,0.0772 -0.65548,-0.407271 -0.002,-0.448968 0.27615,-0.608945 0.66337,-0.603371 0.87806,0.013 1.75611,0.08339 2.63354,0.07287 1.48993,-0.01796 2.97904,-0.08525 4.46876,-0.120551 0.34238,-0.008 0.70759,-0.03406 1.0209,0.0708 0.18562,0.06213 0.37103,0.352981 0.39989,0.562293 0.0162,0.116835 -0.26991,0.359794 -0.45262,0.400666 -0.36771,0.08236 -0.75805,0.06626 -1.13925,0.08938 -0.55042,0.03344 -0.87723,0.358762 -0.87557,0.868831 0.002,0.558371 0.0282,1.160711 0.23524,1.666651 1.29352,3.161766 2.63936,6.302271 3.97253,9.447936 0.0884,0.208692 0.18936,0.423165 0.33283,0.595114 0.185,0.221491 0.41858,0.402523 0.63098,0.601101 0.17274,-0.215298 0.36189,-0.420275 0.51263,-0.649816 0.10215,-0.156262 0.16153,-0.343693 0.22133,-0.52328 1.06679,-3.203257 2.14313,-6.403624 3.18209,-9.615757 0.15365,-0.474771 0.17109,-1.006926 0.17317,-1.51266 0.002,-0.669427 -0.26556,-0.923533 -0.93453,-0.970803 -0.5905,-0.04149 -1.18306,-0.05635 -1.7748,-0.07988 -0.31539,-0.01239 -0.49976,-0.133968 -0.48564,-0.484886 0.0139,-0.345137 0.20846,-0.46094 0.51782,-0.465894 0.15281,-0.0025 0.30563,-0.005 0.45844,-0.007 1.88941,-0.02601 3.77882,-0.05284 5.66822,-0.077 0.26722,-0.0035 0.54046,-0.02601 0.79999,0.02064 0.14243,0.02539 0.34341,0.157294 0.37165,0.275986 0.0365,0.152546 -0.0274,0.380023 -0.1335,0.500987 -0.1144,0.130045 -0.32701,0.242958 -0.49768,0.24461 -0.88263,0.0087 -1.28189,0.620711 -1.58503,1.280435 -1.02173,2.22461 -2.07295,4.439519 -2.99066,6.706858 -2.76476,6.831537 -5.65203,13.605069 -9.05296,20.154427 -0.46965,0.904335 -1.08319,1.385298 -2.10451,1.489954 -1.14921,0.11766 -2.25649,0.587477 -3.44204,0.428119 -0.21801,-0.02911 -0.42979,-0.102798 -0.64427,-0.155848 -2e-4,-0.06028 -2e-4,-0.120551 -4.1e-4,-0.18062"
                     id="Fill-4" />
                  <path
                     d="m 103.41824,17.409014 c 0,-4.235986 0.005,-8.4721791 -0.002,-12.7081654 -0.004,-2.0809403 -0.20762,-2.2801376 -2.26043,-2.3550688 -0.3239,-0.011766 -0.66669,0.00557 -0.96298,-0.097638 -0.18292,-0.063991 -0.404248,-0.3308945 -0.40404,-0.5065596 0,-0.149656 0.2832,-0.4186239 0.45574,-0.4308028 2.06174,-0.1463532 4.09732,-0.41738531 6.08119,-1.02344035 0.44868,-0.13706422 0.67126,0.0902064 0.65257,0.65600917 -0.0251,0.75839448 -0.13807,1.51472478 -0.14575,2.27291288 -0.0515,5.147133 -0.0818,10.2944729 -0.12645,15.4418119 -0.0307,3.551078 -0.081,7.10195 -0.10215,10.653028 -0.003,0.469197 0.0766,0.947683 0.18479,1.406147 0.16486,0.699564 0.40654,0.858302 1.12243,0.892568 0.51367,0.02457 1.03502,0.02436 1.53561,0.122822 0.18479,0.03633 0.31975,0.32305 0.47755,0.495619 -0.18126,0.129426 -0.35214,0.349472 -0.54544,0.370734 -0.50993,0.05615 -1.02962,0.02972 -1.54537,0.02993 -2.31068,0.0014 -4.62136,6.19e-4 -6.93205,2.06e-4 -0.24832,0 -0.51159,0.04727 -0.74081,-0.0194 -0.216347,-0.06275 -0.517199,-0.212202 -0.567652,-0.384977 -0.09925,-0.339977 0.191017,-0.498922 0.507022,-0.53422 0.30252,-0.03365 0.60773,-0.04789 0.91211,-0.05945 0.53402,-0.02002 1.07052,-0.0078 1.60205,-0.05346 0.55935,-0.0481 0.82158,-0.349886 0.81722,-0.947684 -0.0199,-2.716307 -0.009,-5.432615 -0.009,-8.149128 v -5.071789 h -0.004"
                     id="Fill-5" />
                  <path
                     d="m 45.245271,30.308532 c -1.875288,1.497385 -3.951767,2.598647 -6.316224,2.930986 -3.329509,0.467959 -6.349653,-0.287339 -8.712034,-2.83789 -1.160428,-1.252775 -1.734933,-2.800527 -1.980348,-4.465734 -0.430826,-2.922729 -0.08554,-5.727178 1.479343,-8.289289 1.30639,-2.138532 3.159047,-3.591743 5.67175,-4.083853 1.991975,-0.390344 3.816602,0.156675 5.552573,1.097959 1.719983,0.932821 3.055025,2.259908 4.052881,3.927592 0.421068,0.703899 0.382241,0.861399 -0.440585,1.023027 -2.65472,0.521629 -5.311725,1.039542 -7.981602,1.477156 -1.446953,0.237179 -2.920275,0.32367 -4.384461,0.44711 -0.569937,0.04789 -0.802272,0.324289 -0.843797,0.865115 -0.358157,4.668234 2.609873,8.1225 7.307644,8.566307 2.027271,0.19156 3.953843,-0.09578 5.818335,-0.880596 0.27469,-0.115596 0.570559,-0.315 0.776525,0.22211 z M 32.826263,20.700826 c 2.484673,-0.397776 4.970385,-0.789152 7.453398,-1.196629 0.960483,-0.157706 1.085682,-0.401903 0.643852,-1.303968 -0.632433,-1.291582 -1.581288,-2.330091 -2.765594,-3.136169 -1.670152,-1.136766 -3.374771,-0.883899 -4.684275,0.649816 -0.884907,1.036239 -1.393386,2.257844 -1.736178,3.553968 -0.355665,1.34422 -0.340301,1.354128 1.088797,1.432982 z"
                     id="Fill-6" />
                  <path
                     d="m 109.25671,23.82461 c 0.0162,-3.272821 0.95903,-6.180688 3.50184,-8.399105 2.7876,-2.432065 6.26141,-2.616606 9.65362,-0.591812 1.59313,0.950986 2.83827,2.232867 3.77591,3.816743 0.38162,0.644243 0.3484,0.789977 -0.35899,0.933853 -2.40868,0.490459 -4.81695,0.99289 -7.24245,1.385917 -1.71126,0.277225 -3.44847,0.40851 -5.17822,0.555069 -0.62994,0.05346 -0.89861,0.352569 -0.92144,0.924977 -0.13372,3.340941 1.11308,6.72172 5.19358,8.046537 2.59305,0.841995 5.14915,0.692752 7.67078,-0.299106 0.17752,-0.06977 0.34861,-0.170091 0.53215,-0.203945 0.12541,-0.02291 0.26784,0.04541 0.40259,0.07287 -0.0424,0.142637 -0.0629,0.29766 -0.13392,0.424403 -0.0521,0.09248 -0.16693,0.153165 -0.26016,0.219014 -1.94256,1.370229 -4.03917,2.424014 -6.44121,2.613509 -4.6739,0.368876 -9.95676,-1.920344 -10.19304,-8.815252 -0.008,-0.227684 -0.001,-0.45578 -0.001,-0.68367 z m 4.76068,-3.120688 c 2.51707,-0.409541 5.03538,-0.811032 7.55036,-1.233165 0.80892,-0.135826 0.92602,-0.355252 0.5797,-1.12273 -0.61665,-1.36672 -1.60205,-2.444036 -2.83349,-3.282522 -1.68842,-1.149771 -3.39948,-0.882867 -4.71293,0.686766 -0.85937,1.026949 -1.36826,2.224197 -1.69569,3.503807 -0.34923,1.364243 -0.34134,1.366101 1.11205,1.447844 z"
                     id="Fill-7" />
                  <path
                     d="m 99.759017,19.368784 c -0.889059,0.227684 -1.597275,0.427913 -2.314212,0.589542 -3.598386,0.811032 -7.244941,1.297568 -10.920979,1.584701 -0.66669,0.05202 -0.872449,0.250184 -0.896949,0.932615 -0.144924,4.056399 1.707733,7.408486 6.433534,8.352248 2.254208,0.45 4.443428,0.191353 6.563093,-0.682431 0.158627,-0.06544 0.313932,-0.159977 0.478581,-0.182065 0.106512,-0.01404 0.276767,0.04975 0.327428,0.133349 0.04526,0.07411 -0.0056,0.242546 -0.06686,0.334817 -0.07039,0.106101 -0.193924,0.180825 -0.302513,0.257821 -2.00464,1.422041 -4.17372,2.509472 -6.662546,2.653142 -4.616174,0.266697 -9.603378,-2.00539 -9.982297,-8.518005 -0.169424,-2.913027 0.341547,-5.65328 2.174063,-8.007523 1.88131,-2.416789 4.343975,-3.762454 7.471462,-3.275091 2.772445,0.432041 4.996754,1.906926 6.648221,4.183348 0.341546,0.470849 0.62911,0.980711 1.04997,1.643532 z M 87.130305,20.71094 c 2.628767,-0.430802 5.257742,-0.860573 7.886093,-1.293853 0.346945,-0.05718 0.505365,-0.271032 0.404458,-0.611009 -0.09073,-0.306124 -0.189564,-0.619266 -0.345907,-0.895046 -0.636585,-1.122729 -1.488479,-2.065252 -2.549453,-2.804243 -1.716038,-1.19539 -3.463013,-0.944794 -4.804077,0.669427 -0.842135,1.013532 -1.342101,2.193646 -1.666622,3.454885 -0.357742,1.390871 -0.355666,1.391284 1.075508,1.479839 z"
                     id="Fill-8" />
                  <path
                     d="m 53.157525,24.836697 c 0,1.690803 -0.01,3.381399 0.0031,5.071996 0.01038,1.334931 0.356703,1.679449 1.697559,1.733945 0.858746,0.03468 1.718115,0.0578 2.577276,0.07988 0.365008,0.0095 0.571182,0.141399 0.550834,0.547638 -0.02076,0.41883 -0.315801,0.36516 -0.574089,0.356697 -1.431589,-0.04583 -2.862555,-0.136032 -4.294144,-0.142844 -1.467508,-0.007 -2.935224,0.06482 -4.40294,0.101353 -0.572636,0.01424 -1.14714,0.05491 -1.716661,0.02023 -0.156136,-0.0097 -0.434979,-0.273302 -0.416085,-0.376926 0.03364,-0.184129 0.236487,-0.458876 0.395114,-0.478074 0.6615,-0.0803 1.332966,-0.09289 2.00111,-0.104036 0.536924,-0.0091 0.791267,-0.211996 0.788776,-0.787088 -0.01931,-4.767935 -0.0137,-9.536078 -0.02948,-14.304013 -0.0039,-1.146675 -0.299191,-1.441445 -1.44467,-1.528555 -0.475673,-0.03633 -0.954254,-0.04645 -1.431381,-0.04355 -0.351305,0.0023 -0.462593,-0.150688 -0.453873,-0.486331 0.0083,-0.321605 0.05212,-0.575091 0.447644,-0.577775 0.439131,-0.0027 0.878678,0.01177 1.317602,-0.0023 1.466262,-0.04645 2.932525,-0.09434 4.398165,-0.159152 0.530487,-0.02353 0.696589,0.101353 0.677487,0.640734 -0.01661,0.473739 -0.09032,0.947477 -0.08222,1.420184 0.01,0.57055 0.229843,0.6911 0.716106,0.392821 0.633055,-0.388487 1.234136,-0.828372 1.863661,-1.223051 0.369784,-0.232225 0.760746,-0.434518 1.154614,-0.624839 1.488687,-0.718555 2.776805,-0.2925 3.949691,0.715252 0.528203,0.453922 0.721712,1.013739 0.467784,1.686881 -0.18728,0.496238 -0.374352,0.992683 -0.572843,1.484587 -0.186242,0.461766 -0.456988,0.447729 -0.770089,0.114151 -0.07807,-0.08319 -0.164441,-0.159358 -0.238771,-0.245848 -1.336704,-1.553326 -3.022221,-1.623097 -4.812382,-1.058945 -1.170394,0.368876 -1.748012,1.27672 -1.764415,2.648188 -0.02014,1.70938 -0.0048,3.419174 -0.0048,5.128761 h 0.0023"
                     id="Fill-9" />
                  <path
                     d="m 13.846237,42.062615 v -3.890023 h 0.965051 v 6.03 c -0.580318,0.189289 -0.942212,0.01878 -1.25469,-0.51523 -0.679772,-1.162156 -1.42889,-2.284266 -2.257738,-3.411743 v 3.951537 h -1.008652 v -5.902431 c 0.890512,-0.279083 0.889474,-0.278464 1.34833,0.459908 0.688076,1.107661 1.377814,2.214289 2.06672,3.32133 0.04713,-0.01445 0.09406,-0.0289 0.140979,-0.04335"
                     id="Fill-10" />
                  <path
                     d="m 111.76298,44.199908 c -0.62911,0.193624 -0.96588,-0.01817 -1.26175,-0.523073 -0.68039,-1.16133 -1.42848,-2.283647 -2.26085,-3.405757 v 3.952569 h -1.00409 V 38.32844 c 0.88304,-0.295802 0.88387,-0.296215 1.37159,0.486744 0.58281,0.935091 1.16312,1.871834 1.74718,2.8061 0.0949,0.151927 0.20368,0.29539 0.41442,0.41367 v -3.861537 h 0.9935 v 6.026491"
                     id="Fill-11" />
                  <path
                     d="m 100.90989,41.282339 c -0.0486,0.336055 -0.0731,0.677684 -0.1497,1.00734 -0.31808,1.369404 -1.190944,2.07867 -2.534499,2.081147 -1.340649,0.0027 -2.300924,-0.706376 -2.546962,-2.056583 -0.132674,-0.72805 -0.132674,-1.519885 10e-4,-2.247729 0.254758,-1.387569 1.33525,-2.119748 2.747945,-2.01633 1.412487,0.103417 2.297186,1.026743 2.427986,2.545183 0.0193,0.225826 0.003,0.454748 0.003,0.682225 0.0172,0.0014 0.0343,0.0031 0.0515,0.0047 z m -4.383627,-0.119312 c 0.110042,0.485505 0.168593,0.99929 0.347152,1.467867 0.219462,0.576124 0.682678,0.883074 1.334004,0.882867 0.649666,0 1.093365,-0.303234 1.340441,-0.877706 0.400513,-0.931789 0.394907,-1.882569 0.01931,-2.818073 -0.232335,-0.578601 -0.688907,-0.9 -1.3257,-0.911354 -0.660669,-0.01177 -1.149423,0.300757 -1.383004,0.905367 -0.160911,0.416354 -0.218631,0.872133 -0.332203,1.351032 z"
                     id="Fill-12" />
                  <path
                     d="m 57.262729,41.196468 c 0.0463,-0.355459 0.06727,-0.716697 0.14347,-1.065757 0.304381,-1.396032 1.241195,-2.12594 2.644547,-2.083211 1.382173,0.04211 2.309229,0.856651 2.494224,2.260115 0.07101,0.537523 0.08534,1.098784 0.0162,1.635275 -0.21344,1.657362 -1.193648,2.480573 -2.805665,2.425665 -1.369301,-0.04686 -2.34764,-1.107248 -2.446055,-2.656032 -0.0108,-0.170092 -0.0017,-0.341216 -0.0017,-0.51172 -0.01495,-0.0014 -0.03011,-0.0029 -0.04505,-0.0043 z m 4.381347,0.01589 c -0.117517,-0.492935 -0.182089,-0.985458 -0.35608,-1.43649 -0.215102,-0.557753 -0.678941,-0.857271 -1.29061,-0.86945 -0.63264,-0.01239 -1.111844,0.270619 -1.36681,0.846537 -0.428127,0.967087 -0.422313,1.952958 0.0037,2.918394 0.252889,0.573234 0.716936,0.853762 1.363487,0.842615 0.628487,-0.01094 1.069487,-0.318096 1.28708,-0.867179 0.177729,-0.448968 0.241055,-0.942729 0.359195,-1.434427 z"
                     id="Fill-13" />
                  <path
                     d="m 101.95301,38.198188 c 0.8247,0 1.62738,-0.06523 2.4145,0.01734 0.87847,0.09227 1.31594,0.566629 1.46875,1.358051 0.15676,0.81289 -0.11066,1.432362 -0.82178,1.902798 -0.0748,0.04954 -0.15033,0.09764 -0.2014,0.130665 0.47608,0.874817 0.93453,1.717225 1.40148,2.575321 -1.01343,0.205184 -1.02028,0.200849 -1.44342,-0.647752 -0.19476,-0.390757 -0.38931,-0.781926 -0.59257,-1.168555 -0.25518,-0.485092 -0.6534,-0.65539 -1.23912,-0.512133 v 2.362706 h -0.98644 v -6.01844 z m 0.99288,2.765849 c 0.64613,-0.03427 1.34542,0.220252 1.70129,-0.429152 0.16756,-0.305711 0.17316,-0.875642 -0.01,-1.158027 -0.39137,-0.603785 -1.08049,-0.316858 -1.69153,-0.357523 v 1.944702 z"
                     id="Fill-14" />
                  <path
                     d="m 34.787301,44.200321 c -1.045818,0.159152 -1.044987,0.158739 -1.457127,-0.670665 -0.185619,-0.373624 -0.363971,-0.751376 -0.565577,-1.116537 -0.311855,-0.56539 -0.538792,-0.661582 -1.28708,-0.544541 v 2.364564 h -0.986229 v -6.028348 c 0.845458,0 1.662471,-0.05119 2.469932,0.01466 0.781509,0.06378 1.276284,0.54516 1.444255,1.323165 0.167762,0.776766 -0.121462,1.463738 -0.801026,1.913738 -0.07786,0.0514 -0.157174,0.100321 -0.228182,0.145528 0.471106,0.867385 0.935568,1.722798 1.411034,2.59844 z m -3.269504,-5.198738 v 1.966995 c 0.635962,-0.04438 1.334419,0.217775 1.697767,-0.436376 0.164233,-0.295596 0.180012,-0.831055 0.01557,-1.116743 -0.372484,-0.647753 -1.081115,-0.339977 -1.713339,-0.413876 z"
                     id="Fill-15" />
                  <path
                     d="m 4.1618856,38.168257 h 0.9328686 c 0.018064,0.212615 0.050661,0.429564 0.052737,0.646927 0.01225,1.195802 -0.00644,2.392224 0.032597,3.586788 0.024708,0.753234 0.4243898,1.092592 1.168733,1.105803 0.838606,0.01507 1.2683941,-0.381881 1.2831356,-1.244518 0.019309,-1.138624 0.00602,-2.277661 0.00664,-3.416697 2.076e-4,-0.206835 0,-0.413876 0,-0.664473 h 0.9550847 c 0.016403,0.106514 0.052115,0.231812 0.052322,0.357317 0.00332,1.252775 0.014119,2.505757 -0.00415,3.758325 -0.018064,1.233578 -0.775072,2.012615 -1.9716271,2.07062 -1.5086186,0.07328 -2.3997542,-0.502638 -2.4863347,-1.805161 -0.096339,-1.449289 -0.022009,-2.909725 -0.022009,-4.394931"
                     id="Fill-16" />
                  <path
                     d="m 120.69157,44.21828 c -0.93266,0.112293 -0.96755,0.122202 -1.2113,-0.736101 -0.1553,-0.546399 -0.40923,-0.815573 -0.99619,-0.706996 -0.14763,0.02746 -0.30459,0.0041 -0.45741,0.0041 -1.27524,0 -1.29123,-0.0062 -1.74635,1.155963 -0.22818,0.582317 -0.6561,0.237386 -1.0645,0.324496 0.7078,-1.967822 1.36681,-3.884656 2.11613,-5.76578 0.0864,-0.216743 0.67251,-0.259679 1.03752,-0.327592 0.0943,-0.01755 0.29026,0.153165 0.33469,0.274954 0.67271,1.853257 1.3284,3.712294 1.98512,5.571331 0.0177,0.04995 0.002,0.111261 0.002,0.205596 z m -1.73244,-2.157523 c -0.34549,-0.993509 -0.65673,-1.888142 -0.96796,-2.782569 -0.0395,0.0072 -0.0791,0.01445 -0.11876,0.02167 -0.30376,0.903097 -0.60752,1.806193 -0.92872,2.760895 h 2.01544 z"
                     id="Fill-17" />
                  <path
                     d="m 77.370377,44.265344 c 0.709047,-1.972775 1.36764,-3.891674 2.117381,-5.774862 0.08596,-0.216331 0.675411,-0.262982 1.042081,-0.321399 0.100076,-0.0161 0.299813,0.189701 0.351305,0.330688 0.663369,1.818371 1.308466,3.643142 1.95564,5.467293 0.02471,0.06936 0.02429,0.147592 0.0355,0.221078 -0.908991,0.198165 -0.990381,0.189083 -1.218771,-0.647339 -0.162157,-0.593464 -0.43747,-0.880597 -1.068242,-0.765 -0.129351,0.02374 -0.267008,0.0035 -0.40072,0.0035 -1.284589,0 -1.301822,-0.0066 -1.747182,1.15617 -0.226937,0.592431 -0.659839,0.229128 -1.066996,0.329862 z m 2.797568,-4.947523 c -0.0463,-0.0054 -0.0926,-0.01073 -0.138903,-0.01589 -0.303966,0.900412 -0.607932,1.800825 -0.92394,2.737156 h 1.997788 c -0.328051,-0.954909 -0.631394,-1.838189 -0.934945,-2.721262 z"
                     id="Fill-18" />
                  <path
                     d="m 28.467962,40.749358 v 0.85438 h -2.234898 v 1.805161 h 2.623368 c 0.126653,0.826101 0.101737,0.856652 -0.638453,0.857477 -0.988928,10e-4 -1.978064,4.13e-4 -3.00914,4.13e-4 v -6.097913 h 3.566203 v 0.821766 h -2.548207 v 1.758716 h 2.241127"
                     id="Fill-19" />
                  <path
                     d="m 18.703466,38.157729 c 0.994742,-0.04438 0.997441,-0.04541 1.285835,0.805459 0.447644,1.321307 0.891343,2.643853 1.374076,4.077041 0.573674,-1.692041 1.112881,-3.282316 1.654996,-4.881261 h 1.003046 c -0.390339,1.122936 -0.769466,2.211605 -1.146932,3.300688 -0.28611,0.824862 -0.586131,1.64539 -0.847741,2.477683 -0.110458,0.351124 -0.352344,0.35711 -0.620598,0.324496 -0.270953,-0.03282 -0.618106,0.163073 -0.766144,-0.273097 -0.646551,-1.904449 -1.306182,-3.80477 -1.958339,-5.707362 -0.01059,-0.03055 0.01184,-0.07266 0.0218,-0.123647"
                     id="Fill-20" />
                  <path
                     d="m 35.675322,43.696858 c 0.142848,-0.252041 0.260987,-0.460321 0.342792,-0.60461 0.611878,0.149862 1.151085,0.33172 1.704619,0.40211 0.467992,0.05966 0.877432,-0.144083 1.004292,-0.653326 0.12603,-0.505115 -0.194339,-0.777385 -0.597135,-0.975757 -0.290678,-0.14305 -0.592983,-0.262362 -0.884076,-0.404793 -1.001386,-0.490253 -1.371378,-1.157202 -1.168941,-2.091055 0.169008,-0.778831 0.904008,-1.336789 1.915152,-1.298808 0.58364,0.02209 1.15939,0.248945 1.795767,0.396743 -0.105059,0.261331 -0.145339,0.383326 -0.202644,0.497065 -0.04921,0.09764 -0.117932,0.185779 -0.176275,0.275779 -0.409441,-0.113532 -0.786284,-0.254724 -1.175793,-0.316238 -0.485016,-0.07658 -0.954669,0.0225 -1.116411,0.557959 -0.155097,0.513371 0.113988,0.882867 0.572013,1.110963 0.289432,0.144082 0.594229,0.257615 0.89072,0.38766 0.93889,0.411812 1.357882,1.031285 1.235589,1.824565 -0.122499,0.79555 -0.847741,1.451353 -1.759847,1.550023 -0.845873,0.09145 -1.628419,-0.09372 -2.379822,-0.65828"
                     id="Fill-21" />
                  <path
                     d="m 76.240886,42.869312 c 0.162987,0.206628 0.301682,0.382706 0.472766,0.599656 -0.84691,0.795757 -1.816737,1.05172 -2.905118,0.840757 -1.079454,-0.209519 -1.715831,-0.933441 -1.880479,-1.969473 -0.11378,-0.715871 -0.142017,-1.488922 0.0029,-2.19344 0.435186,-2.113555 2.866707,-2.803624 4.621364,-1.308922 -0.149907,0.200023 -0.302928,0.404174 -0.452835,0.603991 -0.355665,-0.162661 -0.666275,-0.34906 -1.002838,-0.45 -1.010937,-0.303028 -1.882556,0.153165 -2.098072,1.172064 -0.126861,0.599449 -0.158212,1.251949 -0.0681,1.85656 0.196,1.31594 1.284381,1.850367 2.514987,1.301903 0.257458,-0.114564 0.492492,-0.278669 0.79542,-0.453096"
                     id="Fill-22" />
                  <path
                     d="m 64.120653,38.157729 h 3.498309 v 0.844679 h -2.472839 v 1.736216 h 2.212267 v 0.864702 h -2.234483 v 2.623004 h -1.003254 v -6.068601"
                     id="Fill-23" />
                  <path
                     d="m 92.269491,38.975367 v 1.773991 h 2.217458 v 0.872339 H 92.2425 v 2.563142 c -1.004708,0.202913 -1.03772,0.179175 -1.038136,-0.698738 -8.3e-4,-1.535986 -2.07e-4,-3.071973 -2.07e-4,-4.607959 v -0.708234 h 3.548347 v 0.805459 h -2.483013"
                     id="Fill-24" />
                  <path
                     d="M 51.558589,44.245115 H 50.5435 c 0,-0.673762 0.0328,-1.33328 -0.01266,-1.987225 -0.02658,-0.380642 -0.117932,-0.78234 -0.286733,-1.122317 -0.412971,-0.83188 -0.888852,-1.632798 -1.336704,-2.447546 -0.08845,-0.160802 -0.165686,-0.327798 -0.256419,-0.508623 1.076546,-0.103211 1.075093,-0.102592 1.497822,0.797614 0.278843,0.594083 0.563085,1.185895 0.895496,1.88484 0.357118,-0.720413 0.657139,-1.3275 0.958822,-1.933968 0.426673,-0.857271 0.427089,-0.857064 1.482457,-0.740642 -0.475051,0.864701 -0.905462,1.726101 -1.409996,2.542087 -0.395529,0.639908 -0.585508,1.293234 -0.524258,2.041101 0.03841,0.467752 0.0073,0.941078 0.0073,1.474679"
                     id="Fill-25" />
                  <path
                     d="m 47.780814,38.182706 c -0.01619,0.286101 -0.02948,0.525964 -0.0463,0.823211 h -1.55575 v 5.211331 H 45.164297 V 39.01789 h -1.618039 v -0.835184 h 4.234556"
                     id="Fill-26" />
                  <path
                     d="m 83.954233,38.159587 h 0.942627 v 5.254679 h 2.629805 v 0.800505 h -3.572432 v -6.055184"
                     id="Fill-27" />
                  <path
                     d="m 114.23416,44.233761 h -0.94512 v -6.06055 h 0.94512 v 6.06055"
                     id="Fill-28" />
                  <path
                     d="m 16.498466,44.234381 v -6.062615 h 0.946364 v 6.062615 h -0.946364"
                     id="Fill-29" />
                  <path
                     d="m 89.700936,44.242225 h -0.940135 v -6.070046 h 0.940135 v 6.070046"
                     id="Fill-30" />
                  <path
                     d="m 41.211491,38.164954 h 0.929547 c 0.01723,0.220872 0.04817,0.438853 0.04879,0.656835 0.0042,1.537225 0.0027,3.07445 0.0021,4.611674 -2.08e-4,0.9 -8.31e-4,0.9 -0.980416,0.791629 v -6.060138"
                     id="Fill-31" />
                </g>
              </g>
            </g>
          </g>
        </g>
      </g>
    </g>
  </g>
  <metadata
     id="metadata1557">
    <rdf:RDF>
      <cc:Work
         rdf:about="">
        <dc:title>Imported Layers</dc:title>
      </cc:Work>
    </rdf:RDF>
  </metadata>
</svg>
