<svg xmlns="http://www.w3.org/2000/svg" width="300" height="90" fill="#21396f" fill-rule="evenodd" xmlns:v="https://vecta.io/nano"><path d="M38.222 1.156l4.268.706c3.719.773 7.096 2.247 9.637 5.181 4.587 5.294 4.205 13.606-.993 18.722-1.702 1.675-3.805 2.945-5.745 4.373-.678.5-1.418.916-2.358 1.517.722.321 1.224.511 1.696.758 2.363 1.238 4.807 2.349 7.06 3.764 9.402 5.9 8.715 21.453-2.188 26.528-3.836 1.786-7.872 2.784-12.057 2.835-3.813.046-7.63-.452-11.449-.531-4.527-.093-9.058.009-13.587.021-.816.002-1.648.074-2.44-.069-.342-.062-.852-.605-.833-.899.026-.386.459-1.016.787-1.064 1.242-.183 2.511-.206 3.771-.23 3.028-.059 3.164-.178 3.164-3.138l-.023-45.713c-.006-2.218-.146-4.465-.529-6.644-.473-2.691-1.614-3.46-4.329-3.472-.893-.004-1.795.063-2.675-.045-.749-.092-1.473-.388-2.209-.594V2.048c.95-.104 1.899-.285 2.851-.299l13.26-.136c2.52-.057 5.035-.298 7.552-.457zM25.565 45.913c0 2.452-.099 4.91.028 7.355.128 2.475.465 4.941.74 7.408.114 1.02.738 1.733 1.68 2.037 1.299.42 2.62.868 3.965 1.032 4.475.546 8.69-.076 12.176-3.264 4.276-3.911 5.626-11.339 3.14-17.254-3.233-7.695-11.316-10.892-18.901-10.506-2.366.121-2.796.652-2.817 3.05l-.011 10.143zm.006-28.214h-.006l.003 10.921c.004 1.772.383 2.139 2.151 2.212l11.911.497c.315.012.698-.012.942-.178 2.648-1.793 4.807-3.973 5.585-7.22.739-3.089.898-6.18-.127-9.227-1.633-4.849-4.34-8.78-9.451-10.515-2.832-.961-5.736-.677-8.604-.262-1.918.277-2.376.907-2.393 2.85l-.01 10.921z"/><path d="M30.855 1.156l-7.552.457-13.26.136c-.952.014-1.9.195-2.851.299v-.892h23.664m135.766 27.257c-1.531 1.912-2.753 3.804-4.329 5.33-3.282 3.176-6.747 6.165-10.146 9.219-2.267 2.038-2.549 1.631-.44 4.23l10.61 12.792c.688.818 1.458 1.648 2.363 2.181.919.542 2.043.75 3.093 1.05.531.152 1.13.099 1.633.302.308.124.49.557.728.851-.265.209-.507.548-.801.602-.689.125-1.402.147-2.106.152-2.194.014-4.394-.101-6.579.031-1.526.092-2.526-.492-3.42-1.63l-10.534-13.281c-1.898-2.38-1.337-2.071-3.707-.651-.956.573-1.881 1.198-2.818 1.803-.738.476-1.115 1.095-1.09 2.036.06 2.267.002 4.536.036 6.803.027 1.823.577 2.393 2.4 2.497 1.076.061 2.158.011 3.236.047.479.016 1.016.005 1.412.218a1.58 1.58 0 0 1 .711 1.031c.027.179-.573.644-.895.651-1.97.046-3.943-.02-5.914-.016l-12.384.043c-.662-.002-1.688.329-1.709-.843-.019-1.071.99-.975 1.669-1.048.994-.107 2.008-.021 3.01-.071 1.431-.072 1.78-.432 1.787-1.835l.218-49.635c.004-1.325-.204-2.666-.452-3.973-.208-1.092-.954-1.725-2.13-1.767a95.65 95.65 0 0 1-3.343-.171c-.639-.046-1.302-.091-1.245-1.035.051-.838.592-.907 1.24-.91 3.857-.019 7.603-.749 11.312-1.744 1.721-.462 1.772-.403 1.745 1.359l-.679 44.496c-.032 2.193.372 2.496 2.205 1.17 3.367-2.436 6.633-5.021 9.844-7.662 1.804-1.484 3.525-3.104 5.067-4.854a11.02 11.02 0 0 0 2.152-3.801c.572-1.767-.04-2.391-1.882-2.471-1.04-.044-2.091 0-3.115-.148-.329-.047-.587-.581-.878-.892.307-.246.611-.702.92-.706l12.368-.03c.135 0 .27.086.838.28m86.362 59.708l1.36-.629c2.634-1.089 4.887-2.678 6.524-5.042l8.969-13.026c1.459-2.12 1.597-4.186.517-6.654L258.23 34.178c-.289-.682-.663-1.329-.982-1.998-.659-1.382-1.706-2.087-3.279-2.008-.554.028-1.271.151-1.276-.797-.004-.878.537-1.191 1.291-1.18l5.126.143 8.697-.236c.666-.016 1.377-.067 1.987.139.361.122.722.691.778 1.1.031.229-.525.704-.881.784-.716.161-1.475.13-2.217.175-1.071.065-1.707.702-1.704 1.7.004 1.092.055 2.271.458 3.26l7.732 18.482c.172.408.369.828.648 1.164.36.433.815.787 1.228 1.176l.998-1.271c.199-.306.314-.672.431-1.024l6.193-18.811c.299-.929.333-1.97.337-2.959.006-1.31-.517-1.807-1.819-1.899l-3.454-.156c-.614-.024-.973-.262-.945-.949.027-.675.406-.902 1.008-.911l.892-.014 11.032-.151c.52-.007 1.052-.051 1.557.04.277.05.668.308.723.54.071.298-.053.743-.26.98-.223.254-.636.475-.969.479-1.718.017-2.495 1.214-3.085 2.505-1.989 4.352-4.035 8.685-5.821 13.12-5.381 13.364-11 26.615-17.619 39.427-.914 1.769-2.108 2.71-4.096 2.915-2.237.23-4.392 1.149-6.699.838-.424-.057-.836-.201-1.254-.305l-.001-.353m-44.621-53.179l-.004-24.86c-.007-4.071-.404-4.461-4.399-4.607-.63-.023-1.298.011-1.874-.191-.356-.125-.787-.647-.786-.991 0-.293.551-.819.887-.843 4.013-.286 7.974-.817 11.836-2.002.873-.268 1.306.176 1.27 1.283-.049 1.484-.269 2.963-.284 4.446l-.246 30.208-.199 20.84c-.006.918.149 1.854.36 2.751.321 1.369.791 1.679 2.185 1.746 1 .048 2.014.048 2.989.24.36.071.622.632.929.97-.353.253-.685.684-1.062.725-.992.11-2.004.058-3.008.059h-13.492c-.483 0-.996.092-1.442-.038-.421-.123-1.007-.415-1.105-.753-.193-.665.372-.976.987-1.045.589-.066 1.183-.094 1.775-.116 1.039-.039 2.084-.015 3.118-.105 1.089-.094 1.599-.684 1.591-1.854l-.017-15.942v-9.922h-.008M95.144 60.178c-3.65 2.929-7.691 5.084-12.293 5.734-6.48.915-12.358-.562-16.956-5.552-2.258-2.451-3.377-5.479-3.854-8.736-.839-5.718-.166-11.204 2.879-16.216 2.543-4.183 6.148-7.026 11.039-7.989 3.877-.764 7.428.306 10.807 2.148 3.348 1.825 5.946 4.421 7.888 7.683.82 1.377.744 1.685-.857 2.001l-15.534 2.89c-2.816.464-5.684.633-8.533.875-1.109.094-1.561.634-1.642 1.692-.697 9.132 5.08 15.89 14.223 16.758 3.946.375 7.695-.187 11.324-1.723.535-.226 1.11-.616 1.511.435zM70.973 41.383l14.506-2.341c1.869-.309 2.113-.786 1.253-2.551-1.231-2.527-3.078-4.558-5.383-6.135-3.251-2.224-6.568-1.729-9.117 1.271-1.722 2.027-2.712 4.417-3.379 6.952-.692 2.63-.662 2.649 2.119 2.803zm148.754 6.111c.031-6.402 1.867-12.091 6.815-16.431 5.425-4.758 12.186-5.119 18.788-1.158 3.101 1.86 5.524 4.368 7.349 7.466.743 1.26.678 1.545-.699 1.827-4.688.959-9.375 1.942-14.096 2.711-3.331.542-6.712.799-10.078 1.086-1.226.105-1.749.69-1.793 1.809-.26 6.536 2.166 13.149 10.108 15.741 5.047 1.647 10.022 1.355 14.929-.585.345-.136.678-.333 1.036-.399.244-.045.521.089.784.143-.082.279-.122.582-.261.83-.101.181-.325.3-.506.428-3.781 2.681-7.861 4.742-12.536 5.113-9.097.722-19.378-3.757-19.838-17.245-.015-.445-.001-.892-.001-1.337zm9.266-6.105l14.695-2.412c1.574-.266 1.802-.695 1.128-2.196-1.2-2.674-3.118-4.781-5.515-6.421-3.286-2.249-6.616-1.727-9.173 1.343-1.673 2.009-2.663 4.351-3.3 6.854-.68 2.669-.664 2.672 2.164 2.832zm-27.751-2.612l-4.504 1.153c-7.003 1.587-14.101 2.538-21.255 3.1-1.298.102-1.698.489-1.746 1.824-.282 7.935 3.324 14.493 12.521 16.339 4.387.88 8.648.374 12.774-1.335.309-.128.611-.313.931-.356.207-.027.539.097.637.261.088.145-.011.474-.13.655-.137.208-.377.354-.589.504-3.902 2.782-8.123 4.909-12.967 5.19-8.984.522-18.691-3.923-19.428-16.663-.33-5.699.665-11.059 4.231-15.665 3.662-4.728 8.455-7.36 14.541-6.407 5.396.845 9.725 3.73 12.939 8.184.665.921 1.224 1.919 2.044 3.215zm-24.579 2.626l15.348-2.531c.675-.112.984-.53.787-1.195-.177-.599-.369-1.211-.673-1.751a16.55 16.55 0 0 0-4.962-5.486c-3.34-2.338-6.74-1.848-9.35 1.31-1.639 1.983-2.612 4.291-3.244 6.759-.696 2.721-.692 2.722 2.093 2.895zm-66.12 8.071l.006 9.922c.02 2.611.694 3.285 3.304 3.392l5.016.156c.71.019 1.112.277 1.072 1.071-.04.819-.615.714-1.117.698l-8.358-.279c-2.856-.014-5.713.127-8.569.198l-3.341.04c-.304-.019-.847-.535-.81-.737.065-.36.46-.898.769-.935 1.287-.157 2.594-.182 3.895-.204 1.045-.018 1.54-.415 1.535-1.54l-.057-27.982c-.008-2.243-.582-2.82-2.812-2.99l-2.786-.085c-.684.004-.9-.295-.883-.951.016-.629.101-1.125.871-1.13l2.564-.004 8.56-.311c1.032-.046 1.356.198 1.319 1.253l-.16 2.778c.019 1.116.447 1.352 1.394.768l3.627-2.393c.72-.454 1.481-.85 2.247-1.222 2.897-1.406 5.404-.572 7.687 1.399 1.028.888 1.405 1.983.91 3.3l-1.115 2.904c-.362.903-.889.876-1.499.223l-.465-.481c-2.602-3.039-5.882-3.175-9.366-2.072-2.278.722-3.402 2.498-3.434 5.181l-.009 10.033h.004M34.033 83.172v-7.61h1.878v11.796c-1.129.37-1.834.037-2.442-1.008-1.323-2.273-2.781-4.469-4.394-6.674v7.73h-1.963V75.86c1.733-.546 1.731-.545 2.624.9l4.022 6.497.274-.085m190.573 4.181c-1.224.379-1.88-.036-2.456-1.023a73.46 73.46 0 0 0-4.4-6.662V87.4h-1.954V75.867c1.719-.579 1.72-.579 2.669.952l3.4 5.489c.185.297.396.578.807.809v-7.554h1.934v11.789m-21.123-5.706l-.291 1.971c-.619 2.679-2.318 4.066-4.933 4.071-2.609.005-4.478-1.382-4.957-4.023-.258-1.424-.258-2.973.001-4.397.496-2.714 2.599-4.147 5.348-3.944s4.471 2.009 4.726 4.979c.038.442.006.89.006 1.335l.1.009zm-8.532-.233c.214.95.328 1.955.676 2.872.427 1.127 1.329 1.728 2.596 1.727s2.128-.593 2.609-1.717c.78-1.823.769-3.683.038-5.513-.452-1.132-1.341-1.761-2.58-1.783-1.286-.023-2.237.588-2.692 1.771-.313.814-.426 1.706-.647 2.643zm-76.417.065l.279-2.085c.592-2.731 2.416-4.159 5.147-4.075 2.69.082 4.494 1.676 4.854 4.421.138 1.052.166 2.149.032 3.199-.415 3.242-2.323 4.853-5.461 4.745-2.665-.092-4.569-2.166-4.761-5.196-.021-.333-.003-.668-.003-1.001l-.088-.009zm8.527.031c-.229-.964-.354-1.928-.693-2.81-.419-1.091-1.321-1.677-2.512-1.701-1.231-.024-2.164.529-2.66 1.656-.833 1.892-.822 3.82.007 5.709.492 1.121 1.395 1.67 2.654 1.648 1.223-.021 2.082-.622 2.505-1.696.346-.878.469-1.844.699-2.806zm78.452-5.897l4.699.034c1.71.181 2.561 1.108 2.859 2.657.305 1.59-.215 2.802-1.599 3.722l-.392.256 2.728 5.038c-1.972.401-1.986.393-2.809-1.267l-1.153-2.286c-.497-.949-1.272-1.282-2.412-1.002v4.622h-1.92zm1.932 5.411c1.258-.067 2.619.431 3.311-.84.326-.598.337-1.713-.019-2.265-.762-1.181-2.103-.62-3.292-.699v3.804zM74.79 87.354c-2.035.311-2.034.311-2.836-1.312l-1.101-2.184c-.607-1.106-1.049-1.294-2.505-1.065v4.626h-1.919V75.625l4.807.029c1.521.125 2.484 1.066 2.811 2.588s-.236 2.863-1.559 3.744l-.444.285 2.746 5.083zm-6.363-10.17v3.848c1.238-.087 2.597.426 3.304-.854.32-.578.35-1.626.03-2.185-.725-1.267-2.104-.665-3.335-.81z"/><path d="M15.185 75.554H17l.103 1.266.063 7.017c.048 1.474.826 2.137 2.275 2.163 1.632.029 2.469-.747 2.497-2.435l.013-6.684v-1.3h1.859c.032.208.101.453.102.699l-.008 7.352c-.035 2.413-1.508 3.937-3.837 4.051-2.936.143-4.671-.983-4.839-3.531-.188-2.835-.043-5.692-.043-8.598m226.797 11.835c-1.815.22-1.883.239-2.357-1.44-.302-1.069-.796-1.595-1.939-1.383-.287.054-.593.008-.89.008-2.482 0-2.513-.012-3.399 2.261-.444 1.139-1.277.464-2.072.635l4.119-11.279c.168-.424 1.309-.508 2.019-.641.183-.034.565.3.651.538l3.864 10.899c.034.098.004.218.004.402zm-3.372-4.221l-1.884-5.443-.231.042-1.808 5.401h3.923z"/><path d="M157.668 87.481l4.121-11.297c.167-.423 1.315-.514 2.028-.629.195-.031.584.371.684.647l3.806 10.695c.048.136.047.289.069.432-1.769.388-1.928.37-2.372-1.266-.316-1.161-.851-1.723-2.079-1.497-.252.046-.52.007-.78.007-2.5 0-2.534-.013-3.4 2.262-.442 1.159-1.284.448-2.077.645zm5.445-9.679l-.27-.031-1.798 5.355h3.888l-1.82-5.323zM62.491 80.603v1.671h-4.35v3.531h5.106c.246 1.616.198 1.676-1.243 1.677l-5.857.001V75.555h6.941v1.608h-4.959v3.44h4.362m-19.004-5.07c1.936-.087 1.941-.089 2.503 1.576l2.674 7.976 3.221-9.549h1.952l-2.232 6.457-1.65 4.847c-.215.687-.686.699-1.208.635-.527-.064-1.203.319-1.491-.534l-3.811-11.165c-.021-.06.023-.142.042-.242m33.031 10.835l.667-1.183 3.318.787c.911.117 1.708-.282 1.955-1.278.245-.988-.378-1.521-1.162-1.909l-1.721-.792c-1.949-.959-2.669-2.264-2.275-4.091.329-1.524 1.759-2.615 3.727-2.541 1.136.043 2.256.487 3.495.776l-.394.972c-.096.191-.23.363-.343.539l-2.288-.619c-.944-.15-1.858.044-2.173 1.092-.302 1.004.222 1.727 1.113 2.173.563.282 1.157.504 1.734.758 1.827.806 2.643 2.017 2.405 3.569s-1.65 2.839-3.425 3.032c-1.646.179-3.169-.183-4.632-1.288m78.951-1.616l.92 1.173c-1.648 1.557-3.536 2.057-5.654 1.645-2.101-.41-3.339-1.826-3.66-3.853-.221-1.4-.276-2.913.006-4.291.847-4.135 5.579-5.485 8.994-2.561l-.881 1.182c-.692-.318-1.297-.683-1.952-.88-1.968-.593-3.664.3-4.083 2.293-.247 1.173-.308 2.449-.133 3.632.381 2.574 2.5 3.62 4.895 2.547.501-.224.959-.545 1.548-.886m-23.59-9.218h6.809v1.652h-4.813v3.396h4.306v1.692h-4.349v5.131h-1.953V75.533m54.785 1.6v3.47h4.316v1.707h-4.368v5.014c-1.955.397-2.02.351-2.02-1.367v-9.014-1.385h6.906v1.576h-4.833m-79.235 10.307h-1.976l-.025-3.887c-.052-.745-.23-1.53-.558-2.196l-2.602-4.788-.499-.995c2.095-.202 2.092-.201 2.915 1.56l1.743 3.687 1.866-3.783c.83-1.677.831-1.677 2.885-1.449l-2.744 4.973c-.77 1.252-1.14 2.53-1.02 3.993.075.915.014 1.841.014 2.885"/><path d="M100.079 75.582l-.09 1.61h-3.028v10.195h-1.974V77.216h-3.149v-1.634h8.242m70.402-.045h1.835v10.279h5.118v1.566h-6.953V75.537"/><path d="M229.414 87.419h-1.839V75.563h1.839v11.856m-190.219.001V75.56h1.842v11.86h-1.842m142.471.016h-1.83V75.561h1.83v11.874M87.293 75.547h1.809l.095 1.285.004 9.022c0 1.761-.002 1.761-1.908 1.549V75.547"/></svg>