<svg xmlns="http://www.w3.org/2000/svg" width="212.118" height="65.883" xmlns:v="https://vecta.io/nano"><path d="M50.751 48.727V12.472h7.251v17.547c1.885-2.32 4.544-3.094 7.299-3.094 6.042 0 10.586 5.269 10.586 11.167S71.344 49.21 65.302 49.21c-2.755 0-5.849-.87-7.299-3.046v2.562h-7.252zm12.327-5.318c2.9 0 5.076-2.514 5.076-5.317s-2.175-5.317-5.076-5.317-5.076 2.514-5.076 5.317 2.176 5.317 5.076 5.317zM84.35 15.855c2.32 0 4.254 1.885 4.254 4.254 0 2.32-1.934 4.254-4.254 4.254-2.369 0-4.254-1.934-4.254-4.254a4.23 4.23 0 0 1 4.254-4.254zm-3.626 32.872V27.409h7.251v21.318h-7.251zm35.095 0h-7.25V36.642c0-2.514-.967-3.867-3.239-3.867s-4.061 2.417-4.061 5.317v10.635h-7.251V27.409h7.251v2.61c1.45-1.837 3.722-3.094 6.526-3.094 5.704 0 8.024 3.916 8.024 9.716v12.086zm29.007 0h-7.251v-2.562c-1.45 2.176-4.592 3.046-7.299 3.046-6.043 0-10.587-5.221-10.587-11.118s4.544-11.167 10.587-11.167c2.707 0 5.414.773 7.299 3.094V12.472h7.251v36.255zm-12.327-15.953c-2.9 0-5.075 2.514-5.075 5.317s2.175 5.317 5.075 5.317 5.076-2.514 5.076-5.317-2.176-5.317-5.076-5.317zm41.14 6.188h-16.532c0 2.466 1.74 5.075 4.592 5.075 2.562 0 4.158-1.691 4.206-3.238h7.396c-1.256 5.607-5.801 8.411-11.456 8.411-7.348 0-12.423-4.351-12.423-11.118 0-6.671 5.269-11.167 12.423-11.167 6.478 0 11.843 3.867 11.843 10.683-.001.435-.049.919-.049 1.354zm-6.913-3.432s-.338-3.964-4.736-3.964c-4.545 0-4.786 3.964-4.786 3.964h9.522zm18.806 2.562v10.635h-7.251V27.409h7.251v2.61c1.111-1.595 2.949-3.094 5.607-3.094.629 0 1.596.193 2.176.483v6.574h-.098c-.725-.87-1.788-1.208-2.9-1.208-2.707 0-4.785 2.756-4.785 5.318z" fill="#545454"/><g fill="none" stroke-width="4.834"><circle stroke="#f5a252" cx="27.879" cy="23.939" r="9.542"/><circle stroke="#579aca" cx="27.879" cy="42.499" r="9.543"/><circle stroke="#e66581" cx="18.551" cy="33.289" r="9.543"/><g stroke-miterlimit="10"><path stroke="#579aca" d="M20.196 36.836a9.51 9.51 0 0 1 2.921-2.607c4.566-2.63 10.401-1.06 13.031 3.507"/><path stroke="#f5a252" d="M19.61 28.701c-2.63-4.566-1.061-10.401 3.507-13.032s10.401-1.059 13.031 3.508"/></g></g></svg>