<svg xmlns="http://www.w3.org/2000/svg" width="300" height="90" fill="#b1b1b1" fill-rule="evenodd" xmlns:v="https://vecta.io/nano"><path d="M1.21 15.897l10.34.007 9.049.21c4.004.334 7.619 1.696 9.82 5.352 2.637 4.378 2.21 11.913-4.772 14.756-.317.13-.624.287-1.143.528l1.444.355c5.503 1.513 8.448 6.603 7.686 12.214-.782 5.754-4.682 8.784-10.122 10.02-1.943.442-3.977.631-5.974.667-5.07.091-10.142.031-15.213.031H1.21zm7.925 37.266c.292.026.467.055.641.054 2.621-.008 5.245.046 7.863-.059 1.311-.053 2.65-.262 3.906-.638 3.153-.944 4.372-2.944 4.209-6.591-.113-2.516-1.778-4.492-4.804-4.802-3.839-.393-7.727-.313-11.594-.431-.057-.002-.115.068-.22.134v12.333zm.006-19.359l7.194-.003c.646-.003 1.301.014 1.934-.089 1.762-.287 3.451-.795 4.628-2.262 1.811-2.259 1.658-7.09-3.113-8.22-3.501-.829-7.054-.351-10.643-.475v11.049zm282.463.739v-4.377h7.165v1.101l-.047 26.459c-.031 2.301-.403 4.66-1.027 6.877-1.666 5.92-5.866 9.148-11.794 10.05-4.327.658-8.664.462-12.86-1.023-2.303-.815-4.728-2.27-6.024-3.654l4.468-6.1 1.781 1.413c3.655 2.74 7.733 3.509 12.127 2.427 3.188-.785 5.271-3.417 5.603-6.875.143-1.491.197-2.99.306-4.703-.909.787-1.578 1.476-2.351 2.017-4.886 3.419-12.707 2.927-17.176-1.027-4.275-3.783-5.777-8.574-5.206-14.141.414-4.045 1.902-7.559 5.03-10.268 2.899-2.51 6.332-3.413 10.085-3.321 3.284.081 6.212 1.065 8.541 3.487.433.45.804.96 1.382 1.658zm-.084 10.424c.028-5.228-3.456-8.761-8.666-8.788-5.16-.027-8.868 3.631-8.898 8.778a8.61 8.61 0 0 0 8.528 8.625c5.466.031 9.007-3.345 9.036-8.614zM162.803 59.953l-.013-17.042c-.004-.891-.085-1.802-.286-2.668-.462-1.995-1.555-3.489-3.691-3.892-2.414-.455-4.605-.032-6.212 2.003-1.306 1.655-1.649 3.642-1.66 5.682l-.008 14.687v1.24h-7.548v-1.211l-.016-16.847c-.004-.813-.116-1.657-.352-2.434-.838-2.75-3.42-3.905-6.656-3.048-2.567.68-4.506 2.821-4.605 5.604-.179 5.031-.147 10.069-.199 15.104l-.001 2.841h-7.478V30.159h7.152v4.081c2.284-3.472 5.486-4.927 9.47-4.86 3.99.067 7.222 1.454 9.042 5.388 1.208-1.9 2.629-3.437 4.625-4.361 3.65-1.69 10.015-1.464 12.963 1.911 1.672 1.915 2.691 4.166 2.766 6.633.204 6.686.19 13.378.262 20.068v.934h-7.554m21.094-26.356c1.863-1.766 3.834-3.081 6.228-3.719 8.182-2.179 16.105 2.505 17.952 10.769 1.182 5.29.622 10.383-2.76 14.842-2.407 3.173-5.71 4.819-9.664 5.202-3.748.363-7.233-.233-10.172-2.775-.672-.581-1.221-1.304-1.928-2.072v4.126h-7.135V14.992h7.479zm17.112 11.547c.001-5.185-3.693-9.011-8.706-8.959-4.987.052-8.687 3.609-8.675 8.904.013 5.425 3.796 8.859 8.67 8.906 4.97.047 8.71-3.78 8.711-8.85zM67.038 29.366c7.827-.035 13.984 4.189 15.969 10.805 2.767 9.221-2.178 18.848-12.874 20.462-7.267 1.097-14.203-2.167-17.217-8.182-4.43-8.839-.411-20.811 11.42-22.793 1.023-.172 2.067-.225 2.702-.291zm.413 24.635c4.929.016 8.71-3.809 8.758-8.862s-3.794-8.976-8.771-8.961c-4.916.014-8.656 3.813-8.67 8.806-.014 5.164 3.681 9 8.683 9.017zm35.309 6.835c-4.487-.211-8.478-1.619-11.583-4.957-4.193-4.508-5.093-9.889-3.435-15.633 1.61-5.577 5.559-9.007 11.136-10.318 5.842-1.374 11.293-.405 15.885 3.737 2.87 2.589 4.34 5.904 4.705 9.743.42 4.42-.605 8.416-3.489 11.835-3.025 3.585-7.01 5.225-11.614 5.522-.534.035-1.07.049-1.605.072zm-8.164-15.701c.008 5.06 3.754 8.872 8.715 8.866 4.924-.005 8.72-3.876 8.726-8.9s-3.782-8.9-8.709-8.923c-5.009-.023-8.74 3.804-8.732 8.956zm147.778 2.585H219.72c-.396 1.881 1.254 4.645 3.451 5.915 3.71 2.144 7.677 1.227 12.341-2.898l5.31 4.03c-2.386 2.981-5.283 4.971-8.905 5.649-5.652 1.058-10.859.058-15.252-3.905-2.609-2.353-4.1-5.353-4.6-8.788-.64-4.392.126-8.536 2.866-12.129 2.968-3.893 7.021-5.804 11.854-6.15 3.387-.243 6.599.286 9.43 2.289 3.238 2.291 4.908 5.577 5.551 9.383.36 2.136.41 4.324.61 6.605zm-22.771-5.712h15.001c-.133-4.386-3.136-7.082-7.67-6.963-4.335.114-7.16 3.135-7.332 6.963zM38.769 14.989h7.468v44.975h-7.468V14.989M254.525 59.99h-7.482V30.158h7.439v4.058c1.265-1.155 2.444-2.515 3.885-3.482 2.148-1.44 4.623-1.658 7.135-1.055.261.063.641.415.646.64l.029 6.763-2.433-.431c-5.166-.851-9.212 2.563-9.217 7.782l-.001 15.557"/></svg>