<svg xmlns="http://www.w3.org/2000/svg" width="300" height="90" fill-rule="evenodd" xmlns:v="https://vecta.io/nano"><path d="M1.387 16.044l10.328.007 9.038.209c3.999.333 7.61 1.688 9.809 5.325 2.634 4.356 2.207 11.853-4.766 14.682-.317.129-.623.286-1.141.526l1.443.353c5.497 1.506 8.438 6.57 7.677 12.153-.781 5.725-4.676 8.739-10.11 9.97-1.941.439-3.972.628-5.967.664-5.064.091-10.13.03-15.195.03H1.387zm7.916 37.079c.292.026.466.055.641.054 2.618-.008 5.239.046 7.853-.059 1.309-.052 2.647-.261 3.901-.635 3.149-.939 4.367-2.93 4.204-6.558-.113-2.503-1.776-4.469-4.799-4.778-3.835-.391-7.718-.312-11.581-.429-.057-.002-.115.067-.22.133v12.271zm.006-19.262l7.185-.003c.645-.003 1.3.014 1.932-.088 1.76-.285 3.447-.791 4.622-2.251 1.809-2.247 1.656-7.054-3.11-8.179-3.497-.825-7.045-.349-10.63-.473V33.86zm282.128.735v-4.355h7.156v1.095l-.047 26.326c-.031 2.289-.403 4.637-1.026 6.843-1.664 5.89-5.859 9.102-11.78 9.999-4.322.655-8.654.46-12.845-1.018-2.3-.811-4.723-2.259-6.017-3.636l4.462-6.069 1.779 1.406c3.65 2.726 7.724 3.492 12.113 2.415 3.184-.781 5.265-3.4 5.596-6.841.143-1.483.197-2.975.306-4.679-.908.783-1.577 1.469-2.348 2.007-4.88 3.402-12.692 2.913-17.156-1.021-4.27-3.764-5.77-8.531-5.2-14.07.414-4.025 1.899-7.521 5.024-10.216 2.896-2.498 6.325-3.396 10.073-3.304 3.28.08 6.204 1.059 8.53 3.47.432.448.803.955 1.38 1.65zm-.084 10.372c.028-5.201-3.452-8.717-8.656-8.744-5.153-.027-8.857 3.613-8.887 8.733-.028 4.688 3.811 8.555 8.518 8.582 5.46.03 8.997-3.328 9.025-8.571zm-128.565 14.91l-.013-16.956c-.004-.886-.085-1.793-.286-2.654-.462-1.985-1.553-3.471-3.687-3.872-2.411-.453-4.6-.032-6.204 1.993-1.304 1.646-1.647 3.623-1.658 5.653l-.008 14.613v1.234h-7.539v-1.205l-.016-16.763c-.004-.809-.116-1.649-.352-2.421-.837-2.736-3.416-3.886-6.648-3.033-2.564.677-4.501 2.807-4.6 5.576-.179 5.006-.147 10.019-.199 15.028l-.001 2.827h-7.469V30.234h7.144v4.06c2.281-3.455 5.48-4.903 9.458-4.836 3.985.067 7.214 1.447 9.031 5.36 1.207-1.891 2.626-3.42 4.62-4.339 3.646-1.681 10.003-1.457 12.947 1.902 1.67 1.905 2.688 4.145 2.763 6.599.204 6.652.19 13.311.261 19.967v.929h-7.545m21.071-26.221c1.861-1.758 3.83-3.066 6.22-3.7 8.173-2.168 16.086 2.492 17.931 10.715 1.181 5.263.621 10.33-2.756 14.767-2.404 3.157-5.703 4.794-9.652 5.176-3.744.362-7.224-.232-10.16-2.761-.671-.578-1.219-1.297-1.926-2.062v4.105h-7.127V15.144h7.47zm17.092 11.489c.001-5.159-3.689-8.966-8.696-8.914-4.981.052-8.677 3.591-8.665 8.859.013 5.397 3.792 8.815 8.66 8.861 4.964.047 8.7-3.761 8.701-8.806zM67.137 29.445c7.818-.035 13.967 4.168 15.95 10.75 2.764 9.175-2.175 18.753-12.859 20.359-7.259 1.091-14.186-2.156-17.196-8.141-4.425-8.795-.411-20.707 11.407-22.678 1.022-.171 2.064-.224 2.698-.29zm.413 24.511c4.923.016 8.699-3.79 8.748-8.817s-3.79-8.931-8.76-8.916c-4.911.014-8.646 3.794-8.66 8.762-.014 5.138 3.676 8.955 8.673 8.972zm35.266 6.801c-4.482-.21-8.468-1.611-11.569-4.932-4.188-4.486-5.087-9.839-3.431-15.554 1.609-5.549 5.552-8.962 11.123-10.266 5.835-1.367 11.28-.403 15.866 3.718 2.866 2.576 4.335 5.875 4.699 9.694.42 4.397-.604 8.374-3.485 11.775-3.021 3.567-7.002 5.199-11.601 5.494-.534.035-1.069.048-1.603.072zm-8.155-15.622c.008 5.035 3.75 8.827 8.704 8.822 4.919-.005 8.71-3.857 8.716-8.855s-3.777-8.855-8.699-8.878c-5.003-.023-8.729 3.785-8.721 8.911zm147.604 2.571h-22.628c-.395 1.871 1.253 4.622 3.447 5.885 3.706 2.133 7.668 1.221 12.326-2.884l5.304 4.009c-2.383 2.966-5.276 4.946-8.895 5.621-5.645 1.052-10.846.058-15.234-3.885-2.606-2.341-4.095-5.326-4.595-8.744-.639-4.37.126-8.493 2.862-12.068 2.965-3.874 7.013-5.774 11.84-6.12 3.383-.242 6.591.285 9.418 2.278 3.235 2.279 4.903 5.549 5.544 9.336.36 2.125.409 4.302.609 6.572zm-22.744-5.683h14.984c-.133-4.363-3.133-7.046-7.661-6.928-4.33.113-7.151 3.119-7.323 6.928zM38.901 15.14h7.459v44.749h-7.459V15.14m215.5 44.775h-7.474V30.233h7.43v4.038c1.264-1.149 2.441-2.502 3.881-3.464 2.145-1.433 4.617-1.649 7.127-1.049.261.062.641.413.646.637l.029 6.729-2.431-.429c-5.159-.847-9.201 2.55-9.207 7.743l-.001 15.478"/></svg>