<?xml version="1.0" encoding="UTF-8" standalone="no"?>
<svg
   width="300"
   height="90"
   viewBox="0 0 300 90"
   version="1.1"
   id="svg1936"
   sodipodi:docname="bloomberg-color.svg"
   inkscape:version="1.1.1 (3bf5ae0d25, 2021-09-20)"
   xmlns:inkscape="http://www.inkscape.org/namespaces/inkscape"
   xmlns:sodipodi="http://sodipodi.sourceforge.net/DTD/sodipodi-0.dtd"
   xmlns="http://www.w3.org/2000/svg"
   xmlns:svg="http://www.w3.org/2000/svg"
   xmlns:rdf="http://www.w3.org/1999/02/22-rdf-syntax-ns#"
   xmlns:cc="http://creativecommons.org/ns#"
   xmlns:dc="http://purl.org/dc/elements/1.1/"
   xmlns:sketch="http://www.bohemiancoding.com/sketch/ns">
  <sodipodi:namedview
     id="namedview1938"
     pagecolor="#ffffff"
     bordercolor="#666666"
     borderopacity="1.0"
     inkscape:pageshadow="2"
     inkscape:pageopacity="0.0"
     inkscape:pagecheckerboard="0"
     showgrid="false"
     inkscape:zoom="1.5827495"
     inkscape:cx="78.976488"
     inkscape:cy="-19.270263"
     inkscape:window-width="1866"
     inkscape:window-height="1016"
     inkscape:window-x="54"
     inkscape:window-y="27"
     inkscape:window-maximized="1"
     inkscape:current-layer="svg1936" />
  <!-- Generator: Sketch 3.3.3 (12072) - http://www.bohemiancoding.com/sketch -->
  <title
     id="title1917">Imported Layers Copy 2</title>
  <desc
     id="desc1919">Created with Sketch.</desc>
  <defs
     id="defs1921" />
  <g
     id="Page-1"
     stroke="none"
     stroke-width="1"
     fill="none"
     fill-rule="evenodd"
     sketch:type="MSPage"
     transform="matrix(1.2029979,0,0,1.2029979,1.0712493,14.881353)">
    <g
       id="About---Desktop"
       sketch:type="MSArtboardGroup"
       transform="translate(-468,-1576)"
       fill="#000000">
      <g
         id="Imported-Layers-+-Imported-Layers-Copy-2-+-Imported-Layers-Copy-3"
         sketch:type="MSLayerGroup"
         transform="translate(225,1555)">
        <g
           id="Imported-Layers-Copy-2"
           transform="translate(243,21)"
           sketch:type="MSShapeGroup">
          <path
             d="m 0.26235081,0.9659375 c 2.91782999,0 5.75165759,-0.019375 8.58517179,0.005625 C 11.352863,0.99375 13.868547,0.938125 16.360723,1.145625 c 3.324364,0.2765625 6.325883,1.403125 8.153563,4.42625 2.189391,3.6209375 1.834575,9.852812 -3.961905,12.204687 -0.263605,0.107188 -0.517806,0.237501 -0.948788,0.436876 0.529716,0.129062 0.86698,0.202499 1.199228,0.293437 4.569042,1.251562 7.014515,5.461562 6.381362,10.101875 -0.649138,4.75875 -3.887305,7.264688 -8.404316,8.2875 -1.613598,0.365312 -3.301796,0.522188 -4.959903,0.551875 -4.2092105,0.07563 -8.420615,0.02531 -12.6310791,0.02531 H 0.26235081 Z M 6.8424352,31.787812 c 0.242604,0.02125 0.3877275,0.04531 0.5325377,0.04469 2.1762266,-0.0066 4.3549611,0.03844 6.5280531,-0.04875 1.08827,-0.04344 2.200362,-0.216563 3.242869,-0.5275 2.617866,-0.780625 3.62997,-2.435313 3.494563,-5.45125 -0.09372,-2.080938 -1.476311,-3.715 -3.988861,-3.971563 -3.187703,-0.325312 -6.415527,-0.259062 -9.6264252,-0.356875 -0.047016,-0.0016 -0.0956,0.05594 -0.1827366,0.110625 v 10.200625 z m 0.0047,-16.011562 c 2.0489693,0 4.0108018,0.0047 5.9729468,-0.0028 C 13.35607,15.77125 13.900518,15.785 14.42616,15.7 15.889307,15.462813 17.291646,15.0425 18.26833,13.82875 19.771911,11.960625 19.644967,7.9646875 15.683376,7.0303125 12.776516,6.3446875 9.8270283,6.74 6.8471368,6.6375 v 9.13875 z"
             id="Fill-1" />
          <path
             d="m 241.36808,16.3875 v -3.62 h 5.9485 v 0.910313 c 0,7.294687 0.0577,14.59 -0.0389,21.883437 -0.0254,1.902812 -0.33476,3.854375 -0.85288,5.688125 -1.38322,4.89625 -4.87057,7.56625 -9.79255,8.311875 -3.59267,0.544062 -7.1938,0.382188 -10.67708,-0.84625 -1.91199,-0.674063 -3.92586,-1.8775 -5.00159,-3.0225 1.21584,-1.65375 2.44297,-3.3225 3.70927,-5.045 0.51436,0.4075 0.9864,0.80125 1.47851,1.16875 3.03443,2.26625 6.42085,2.9025 10.069,2.0075 2.64702,-0.649063 4.37628,-2.82625 4.65179,-5.68625 0.1188,-1.233125 0.16393,-2.473125 0.2542,-3.889375 -0.75508,0.650937 -1.3105,1.220937 -1.95211,1.668125 -4.05688,2.828125 -10.55014,2.42125 -14.26098,-0.849062 -3.54973,-3.128751 -4.79629,-7.091563 -4.32268,-11.695938 0.34385,-3.345938 1.57881,-6.251562 4.17599,-8.492187 2.40692,-2.07625 5.25767,-2.823125 8.37328,-2.746875 2.72632,0.06688 5.15738,0.880625 7.091,2.884062 0.3592,0.3725 0.66732,0.794063 1.1472,1.37125 z m -0.0696,8.621562 c 0.0235,-4.32375 -2.86924,-7.245937 -7.19537,-7.268749 -4.28381,-0.02219 -7.36275,3.003124 -7.38751,7.259687 -0.0229,3.896875 3.16796,7.111562 7.08065,7.133437 4.53864,0.02531 7.47841,-2.766562 7.50223,-7.124375 z"
             id="Fill-2" />
          <path
             d="m 134.42831,37.403438 c 0,-4.752188 0.01,-9.423438 -0.0107,-14.095001 -0.003,-0.736875 -0.0708,-1.490312 -0.23759,-2.206562 -0.38365,-1.650312 -1.29107,-2.885625 -3.06452,-3.21875 -2.00415,-0.376563 -3.82368,-0.02656 -5.15737,1.656875 -1.0842,1.368438 -1.36943,3.011875 -1.37852,4.699375 -0.0216,4.049062 -0.007,8.098125 -0.007,12.1475 v 1.025937 h -6.26695 v -1.001249 c 0,-4.644688 0.0116,-9.289376 -0.0132,-13.934063 -0.003,-0.672813 -0.0962,-1.370625 -0.29244,-2.012813 -0.69553,-2.274375 -2.83978,-3.23 -5.52629,-2.521249 -2.13172,0.5625 -3.74156,2.333437 -3.82368,4.634999 -0.14857,4.160938 -0.12193,8.328125 -0.16518,12.4925 -0.008,0.76625 -0.001,1.532813 -0.001,2.349688 h -6.20865 v -24.65875 h 5.93815 v 3.375312 c 1.89601,-2.871874 4.55494,-4.075312 7.86238,-4.019999 3.31276,0.05531 5.99645,1.2025 7.50724,4.455937 1.00333,-1.571562 2.18281,-2.8425 3.84029,-3.606562 3.03067,-1.397501 8.31499,-1.21125 10.76265,1.580937 1.38855,1.58375 2.23453,3.445937 2.2969,5.485625 0.16926,5.529687 0.15767,11.064687 0.21722,16.597813 0.003,0.234062 3.1e-4,0.468437 3.1e-4,0.7725 h -6.27165"
             id="Fill-3" />
          <path
             d="m 151.94249,15.605313 c 1.54684,-1.460938 3.18363,-2.548438 5.17054,-3.075625 6.79354,-1.802501 13.37174,2.071562 14.90542,8.907187 0.98169,4.375 0.51655,8.587187 -2.29127,12.275312 -1.9985,2.624375 -4.7408,3.985313 -8.02348,4.3025 -3.11185,0.300625 -6.00523,-0.192812 -8.44569,-2.295312 -0.55761,-0.480625 -1.01367,-1.078438 -1.60106,-1.71375 v 3.4125 h -5.92436 V 0.2178125 h 6.2099 z m 14.20801,9.550312 c 6.3e-4,-4.288125 -3.0664,-7.453125 -7.22828,-7.41 -4.14025,0.04281 -7.21293,2.984687 -7.20258,7.364375 0.0106,4.486562 3.15197,7.3275 7.1985,7.365625 4.12646,0.03875 7.23173,-3.126563 7.23236,-7.32 z"
             id="Fill-4" />
          <path
             d="m 54.917203,12.105938 c 6.49859,-0.02875 11.610512,3.464999 13.25859,8.936249 2.297528,7.626875 -1.808246,15.588438 -10.688994,16.923438 -6.033755,0.907188 -11.791995,-1.7925 -14.294515,-6.7675 -3.677926,-7.310938 -0.341651,-17.2125 9.481929,-18.85125 0.849741,-0.141875 1.715781,-0.185938 2.24299,-0.240937 z m 0.343219,20.375312 c 4.09261,0.01344 7.231416,-3.150313 7.271537,-7.329375 0.03981,-4.177187 -3.15009,-7.42375 -7.282194,-7.411562 -4.081953,0.01187 -7.187221,3.154062 -7.198819,7.283124 -0.0116,4.270625 3.056058,7.443751 7.209476,7.457813 z"
             id="Fill-5" />
          <path
             d="m 84.576323,38.134062 c -3.72557,-0.174687 -7.038963,-1.339062 -9.616709,-4.1 -3.481712,-3.72875 -4.228957,-8.179062 -2.852007,-12.929687 1.337143,-4.6125 4.615431,-7.449375 9.245907,-8.53375 4.850512,-1.13625 9.376299,-0.335313 13.188692,3.090625 2.382785,2.14125 3.603641,4.883437 3.906426,8.057812 0.348861,3.655313 -0.502134,6.960625 -2.89683,9.788125 -2.511296,2.965313 -5.820614,4.321875 -9.643038,4.567188 -0.44352,0.02875 -0.888294,0.04031 -1.332441,0.05969 z M 77.79783,25.147812 c 0.0066,4.185 3.117179,7.337813 7.235491,7.333126 4.088536,-0.0044 7.23988,-3.205938 7.245208,-7.360626 0.0053,-4.150937 -3.14006,-7.360937 -7.231103,-7.379999 -4.158433,-0.01906 -7.256178,3.146249 -7.249596,7.407499 z"
             id="Fill-6" />
          <path
             d="m 200.49369,27.285937 h -18.80933 c -0.32848,1.555625 1.04126,3.841875 2.86549,4.891876 3.08051,1.773437 6.37384,1.014687 10.2461,-2.397188 1.44967,1.095937 2.91031,2.2 4.40887,3.332813 -1.98064,2.465624 -4.38599,4.11125 -7.39378,4.672187 -4.69285,0.874688 -9.01553,0.04781 -12.66367,-3.229688 -2.16651,-1.945937 -3.4043,-4.427187 -3.81929,-7.268125 -0.53097,-3.632187 0.10469,-7.059687 2.37933,-10.031562 2.4646,-3.22 5.82939,-4.8 9.84239,-5.086875 2.8122,-0.20125 5.47896,0.236875 7.82915,1.893438 2.6887,1.894687 4.07537,4.612499 4.60854,7.760312 0.29902,1.76625 0.34008,3.575937 0.5062,5.462812 z m -18.90618,-4.724062 h 12.45524 c -0.11065,-3.627188 -2.60408,-5.857188 -6.36789,-5.759062 -3.59956,0.09406 -5.94473,2.592499 -6.08735,5.759062 z"
             id="Fill-7" />
          <path
             d="m 31.446052,0.215 h 6.200193 V 37.413125 H 31.446052 V 0.215"
             id="Fill-8" />
          <path
             d="M 210.58182,37.434063 H 204.3694 V 12.760625 h 6.17606 v 3.356562 c 1.05035,-0.955312 2.02891,-2.079999 3.22594,-2.879687 1.78317,-1.19125 3.8381,-1.370937 5.92405,-0.872187 0.21691,0.05187 0.53254,0.343437 0.53662,0.529687 0.0404,1.838125 0.0245,3.677187 0.0245,5.593125 -0.74067,-0.13125 -1.37946,-0.251562 -2.02045,-0.356875 -4.28883,-0.70375 -7.64829,2.119687 -7.653,6.43625 -0.005,4.2525 -0.001,8.504687 -0.001,12.866563"
             id="Fill-9" />
        </g>
      </g>
    </g>
  </g>
  <metadata
     id="metadata2020">
    <rdf:RDF>
      <cc:Work
         rdf:about="">
        <dc:title>Imported Layers Copy 2</dc:title>
      </cc:Work>
    </rdf:RDF>
  </metadata>
</svg>
