<svg xmlns="http://www.w3.org/2000/svg" width="300" height="90" xmlns:v="https://vecta.io/nano"><path d="M40.25 29.726h-1.82c-.135-1.087-.62-2.043-1.031-3.018l-3.522-8.258c-.015-.035-.035-.068-.083-.16l-.153 1.69-.516 5.858c-.091 1.083-.224 2.167-.07 3.256.025.18.09.355.131.533.023.098.034.198.054.32h-2.609c.011-.1-.005-.205.036-.281.404-.756.568-1.586.685-2.413l.591-4.907.408-4.398.075-.981c.091-.516-.135-.909-.423-1.297-.133-.179-.231-.383-.374-.626h2.875l.581 1.463 4.482 10.172c.013.029.031.056.064.114l.45-.914 4.588-9.387a2.58 2.58 0 0 0 .259-1.448H47.7c-.006.073.012.157-.022.209-.331.514-.347 1.099-.341 1.67l.113 4.894.255 5.369c.048.738.208 1.47.33 2.202.03.181.115.353.186.561h-2.956c.005-.1 0-.194.017-.284.088-.46.26-.919.261-1.379l-.068-5.662-.118-3.551-.042-.837-.096.145-4.299 9.097c-.256.547-.42 1.138-.609 1.714-.053.162-.043.345-.063.532m25.866-14.696h3.28c.047 0 .095.007.15.011 0 .079.024.16-.004.217-.274.558-.189 1.142-.054 1.696l1.31 5.012 1.415 4.836.067.199.102-.258 2.853-7.976c.299-.846.552-1.709.564-2.617.004-.277-.048-.555-.074-.832l-.026-.274h2.464c0 .067.016.128-.002.176-.317.839-.127 1.672.098 2.475l1.778 6.029.939 3.075.05.139.33-.942 2.553-7.521c.219-.658.355-1.344.522-2.019.092-.374.059-.746-.044-1.115-.025-.09-.025-.186-.039-.296h2.904c-.018.085-.009.186-.056.239-.609.695-.988 1.521-1.308 2.366l-1.947 5.344-2.375 6.745a.29.29 0 0 1-.345.235h-1.017c-.186.009-.268-.05-.322-.228l-1.848-6.008-1.343-4.356-.087-.255-.353.949-3.492 9.66a.29.29 0 0 1-.343.239c-.338-.018-.679-.02-1.017.001-.205.013-.276-.065-.331-.247l-2.777-9.112-1.256-3.879c-.177-.524-.441-1.013-.818-1.433-.051-.057-.058-.153-.1-.273m23.323 14.842c.006-.098-.007-.175.018-.238.385-.986.371-2.028.387-3.054l.024-6.99-.167-3.474c-.02-.304-.141-.603-.231-.9-.064-.209-.037-.271.169-.275l3.994-.075c1.232-.002 2.448.138 3.594.638 1.635.713 2.516 2.11 2.407 3.877-.053.867-.46 1.606-.976 2.288-.056.073-.152.118-.232.171l-1.94 1.286c.016.042.024.081.044.112.95 1.469 1.91 2.932 3.104 4.224a12.78 12.78 0 0 0 2.771 2.235c.145.088.246.178.166.373-1.325.144-2.576-.038-3.7-.826-.991-.695-1.754-1.601-2.47-2.553l-2.037-2.776c-.088-.121-.171-.165-.318-.142l-2.068.309c.044 1.935-.117 3.878.444 5.791h-2.984zm2.566-13.504v6.224l2.222-.009c1.569-.113 2.629-.962 3.006-2.355a4.89 4.89 0 0 0 .14-1.807c-.117-1.103-.679-1.771-1.764-2.049-1.2-.308-2.401-.173-3.604-.004zM50.828 29.951c.036-.104.041-.207.096-.263.644-.662 1.085-1.458 1.451-2.285l3.796-8.716 1.498-3.511c.056-.133.127-.179.269-.176l1.502-.003c.208-.007.292.075.364.255l4.278 10.645c.389.954.845 1.883 1.309 2.805.174.345.462.631.689.951.056.079.08.181.13.299h-3.569c-.004-.062-.023-.114-.007-.155.266-.701.086-1.388-.131-2.044l-1.345-3.697c-.024-.065-.134-.139-.205-.139h-5.305c-.066 0-.167.067-.192.127-.626 1.498-1.305 2.979-1.658 4.572-.079.357-.029.741-.036 1.113-.001.069.007.138.012.224h-2.943zm7.553-12.731l-2.302 5.324h4.472l-2.17-5.324zm-81.613 4.365l1.478.49c1.139.502 1.958 1.315 2.178 2.571.246 1.413-.2 2.639-1.247 3.61-1.122 1.041-2.482 1.631-4.018 1.679l-5.155.009h-.58c0-.104-.026-.198.004-.27.325-.781.348-1.611.362-2.431l.05-7.036-.124-3.645c-.025-.431-.178-.855-.271-1.282l-.044-.273h.959l3.968.003a8.22 8.22 0 0 1 2.446.422c2.155.717 2.402 2.524 1.898 4.014a2.28 2.28 0 0 1-.706 1.039l-1.198 1.1zm-4.8 6.985h.804l2.993-.029a2.75 2.75 0 0 0 1.954-.984c.798-.942.679-2.495.181-3.381-.509-.906-1.368-1.259-2.345-1.276-.858-.016-1.72.091-2.578.16-.34.027-.677.099-1.008.15v5.361zm.004-12.115v5.131l2.869.009a1.03 1.03 0 0 0 .796-.312l.19-.185c.746-.811.944-1.787.805-2.835-.162-1.22-.709-1.747-1.944-1.929-.904-.133-1.8-.008-2.715.121zm42.713 2.25l-.014.29.005 6.439c.01 1.208.076 2.416.36 3.599.048.2.145.388.211.584.032.094.045.195.072.318h-2.813c.009-.097-.007-.207.032-.291.351-.766.442-1.588.501-2.408l.1-2.83.009-7.136c.001-.207-.049-.368-.195-.514l-1.35-1.373c-.074-.078-.087-.214-.135-.342l.19-.031 2.641.003a.32.32 0 0 1 .223.095l3.583 4.567 5.506 6.611c.029.035.063.067.125.134l.012-.241-.005-6.463c-.011-1.233-.091-2.464-.379-3.67-.055-.231-.16-.451-.235-.678-.034-.102-.05-.209-.08-.339h2.859c-.006.095.015.2-.022.276-.315.639-.416 1.332-.471 2.022l-.15 3.187.004 7.448.067 1.655.001.496h-1.465c-.129-.214-.229-.423-.369-.602l-3.407-4.308-5.413-6.499m-24.369 4.435c1.292 1.899 2.462 3.849 4.245 5.313.551.453 1.154.846 1.741 1.254.139.097.21.187.143.348-1.547.191-2.944-.135-4.155-1.15-.852-.715-1.543-1.568-2.2-2.452l-1.898-2.579a.32.32 0 0 0-.252-.108l-1.916.275c-.121.017-.189.052-.187.192.018 1.576-.031 3.155.221 4.719.033.203.113.399.167.599.026.096.04.194.064.312h-2.975c0-.088-.024-.175.004-.241.33-.788.354-1.627.363-2.455l.031-8.983c-.005-.836-.136-1.672-.222-2.506-.016-.155-.099-.302-.144-.455-.023-.079-.033-.163-.062-.319l1.56-.001 3.22-.028c1.061.024 2.1.207 3.081.644 1.657.738 2.547 2.269 2.326 4.056-.096.774-.466 1.441-.93 2.057-.06.08-.159.134-.245.191l-1.98 1.318zm-4.46-.545c1.063-.067 2.124.137 3.157-.2.836-.273 1.482-.77 1.86-1.571.388-.823.453-1.696.337-2.581-.137-1.046-.775-1.655-1.787-1.896-1.184-.283-2.368-.158-3.567.013zm17.33.313l1.089-1.928 2.165-4.019c.293-.557.504-1.148.32-1.798-.01-.036.005-.079.01-.135h3.066c-.038.1-.045.208-.103.26-.923.832-1.551 1.881-2.166 2.932l-3.553 6.194a.63.63 0 0 0-.094.313l.17 4.003c.017.305.141.604.211.906.021.091.029.186.046.301H1.38c0-.076-.026-.17.004-.241.319-.749.319-1.548.361-2.335l.056-2.568c.001-.099-.012-.214-.062-.296l-4.191-6.965c-.506-.827-1.065-1.625-1.828-2.255-.054-.045-.061-.146-.101-.251h3.713c-.008.1.002.197-.024.283-.111.364-.079.716.098 1.047l1.976 3.655 1.645 2.659.158.237m16.475 13.69c0-1.338.761-2.391 1.957-2.707 1.656-.438 3.067.532 3.239 2.228.143 1.408-.594 2.616-1.847 3.025-1.689.552-3.295-.566-3.348-2.33v-.216zm4.386-.024l.062-.015c-.103-.415-.164-.847-.318-1.242-.246-.634-.738-1.007-1.437-1.033-.689-.025-1.234.28-1.549.88-.507.968-.463 1.958.115 2.876.624.992 1.994 1.011 2.698.074.343-.456.443-.984.428-1.541zm20.608-.537v.832c-.858-.234-1.721-.122-2.592-.154v1.934c.914-.021 1.825.065 2.736-.187v.741h-3.61c.161-1.809.163-3.55.005-5.3 1.17-.073 2.391.095 3.611-.123v.799c-.901-.248-1.812-.143-2.736-.171v1.791c.855-.02 1.722.062 2.586-.162m11.177 3.168a28.08 28.08 0 0 0 .01-5.301c1.166-.069 2.379.088 3.602-.115v.789c-.897-.245-1.812-.144-2.738-.165v1.813l2.58-.112v.749c-.843-.225-1.704-.116-2.577-.148v1.935c.91-.021 1.82.067 2.736-.187v.742h-3.612m-3.615-5.108v.844l-.236-.133c-.712-.452-1.49-.501-2.282-.316-.449.105-.704.471-.853.885a3.03 3.03 0 0 0-.027 2.07c.347.994 1.23 1.466 2.261 1.228.565-.13.578-.131.558-.703l-.109-1.392h.934l-.065 2.085a.2.2 0 0 1-.198.236l-1.247.285c-1.224.345-2.592-.41-2.993-1.746-.557-1.855.792-3.634 2.751-3.638.522-.001 1.025.081 1.507.295m-35.369.845l-.182-.099c-.682-.472-1.441-.532-2.222-.362-.203.044-.412.197-.554.356-.765.857-.781 2.856.583 3.562.683.353 1.388.391 2.074-.029l.341-.187-.004.545c-.003.043-.046.103-.086.122-.811.372-1.639.573-2.526.26-1.458-.515-2.128-2.174-1.451-3.647.735-1.598 2.45-1.987 3.91-1.415.054.021.108.114.112.176.013.223.005.447.005.718m14.783 4.268H27.97c0-.105-.017-.159.003-.192.213-.355.209-.752.208-1.141l-.038-3.456c-.003-.172-.057-.343-.09-.527h1.007c-.211 1.573-.077 3.148-.129 4.752.914-.011 1.805.057 2.701-.19v.753m2.908-.003c.337-1.662.189-3.256.144-4.847-.004-.148-.055-.295-.087-.459h1.013c-.226 1.571-.054 3.151-.124 4.749.92-.015 1.805.055 2.691-.191v.747H34.54" transform="matrix(2.19926 0 0 2.19926 70.82657 -14.542816)" fill="#b1b1b1" fill-rule="evenodd"/></svg>