<svg xmlns="http://www.w3.org/2000/svg" width="300" height="90" fill="#b1b1b1" fill-rule="evenodd" xmlns:v="https://vecta.io/nano"><path d="M152.751 24.072l.01 15.919a29.61 29.61 0 0 0 .193 3.153c.267 2.414 1.456 3.61 3.853 3.896l3.601.306c.784.026 1.02.366.987 1.088-.037.816-.44.986-1.207.972l-14.852-.176c-1.638-.009-3.279.068-4.916.16-.703.039-1.194-.013-1.271-.886s.339-1.13 1.105-1.206l2.934-.415c1.63-.26 2.513-1.306 2.724-2.868.194-1.44.314-2.901.318-4.353l-.005-27.555-.292-5.659c-.183-1.611-1.034-2.281-2.659-2.469l-2.395-.276c-.573-.055-.92-.264-.898-.919.021-.634.374-.886.933-.931l4.903-.361c4.825-.008 9.66-.115 14.47.175 4.507.272 8.851 1.374 12.561 4.235 5.539 4.271 7.054 11.822 3.348 17.316-2.58 3.824-6.298 5.933-10.825 6.407-2.723.285-5.488.187-8.235.209-.297.002-.836-.324-.85-.526-.037-.543.318-.824.937-.886 1.992-.202 4.032-.27 5.952-.776 4.575-1.206 6.999-4.407 7.628-9.036.282-2.074.264-4.151-.225-6.196-1.121-4.686-4.218-7.372-8.818-8.184-2.19-.386-4.486-.292-6.728-.223-1.627.049-2.272.915-2.278 2.564l-.003 17.501M44.489 3.303l.549 6.694.231 3.154c.067.622-.128.967-.758.983-.584.014-1.184.069-1.357-.753l-.725-2.782c-1.514-4.33-4.716-6.612-9.109-7.349-11.666-1.958-20.414 5.226-22.423 16.126-1.374 7.455-.06 14.409 4.624 20.488 3.728 4.839 8.607 7.713 14.85 7.699 6.492-.014 11.362-2.761 14.093-8.862.358-.801 1.298-1.064 1.967-.519.178.145.275.549.223.795-.638 3.044-1.606 5.974-3.075 8.728-.305.571-.719.827-1.342.988-5.202 1.345-10.496 1.681-15.832 1.442-6.547-.292-12.452-2.298-17.204-7-3.892-3.85-5.911-8.664-6.599-14.033-.821-6.401.383-12.405 4.295-17.61C11.452 5.432 17.598 1.893 25.079.659c5.677-.936 11.137-.032 16.509 1.792.93.316 1.886.555 2.901.851M201.676 50.44c-4.448-.015-8.685-.909-12.441-3.382-5.902-3.886-8.581-9.543-8.442-16.512.214-10.686 7.71-18.613 18.389-19.659 4.198-.412 8.285.004 12.168 1.701 5.356 2.341 8.836 6.396 10.307 12.05 1.643 6.317.9 12.337-2.975 17.717-3.57 4.957-8.628 7.352-14.596 7.982-.645.068-1.297.072-1.946.103-.154.007-.309.001-.464.001zm13.866-18.537l-.234-.045c-.062-4.805-1.011-9.365-3.863-13.348-5.771-8.058-17.676-6.908-21.823 2.091-1.052 2.282-1.529 4.704-1.667 7.196-.267 4.8.454 9.414 2.926 13.605 2.923 4.954 7.342 7.209 13.023 6.514 5.463-.668 8.856-4.016 10.379-9.195.649-2.205.853-4.541 1.258-6.818zM82.096 49.428c-2.721 0-5.442-.02-8.162.014-.705.009-1.143-.157-1.198-.924-.051-.71.219-1.095.974-1.166.673-.063 1.342-.211 2.004-.362.804-.184 1.124-.708.942-1.52a6.57 6.57 0 0 0-.225-.804l-2.635-7.242c-.367-1.05-1.038-1.565-2.134-1.566l-9.374-.006c-.907.002-1.64.324-1.964 1.251l-2.662 7.72c-.45 1.409-.133 1.825 1.312 2.154l1.821.34c.75.106.984.588.912 1.249s-.461.904-1.154.876l-7.697-.197c-1.327-.011-2.657.101-3.984.186-.602.039-.96-.175-1.012-.794-.049-.584-.031-1.141.713-1.296l1.447-.317c2.077-.377 3.57-1.521 4.396-3.461l2.647-6.535 7.373-19.741c.673-1.827.544-2.008-1.245-2.76-.508-.214-1.051-.362-1.592-.478-.797-.17-.926-.738-.885-1.401.043-.71.422-1.012 1.159-.999l8.524.133c.36.014.868.576 1.015.988l1.759 5.478 8.168 22.318.839 2.263c.784 2.687 2.547 4.149 5.319 4.437.617.064 1.272.183 1.259 1.049-.011.719-.244 1.184-1.095 1.133l-5.56-.261-.002.241zM66.931 19.235c-.293.39-.463.539-.536.725L62.01 31.404c-.377 1.021.067 1.64 1.178 1.708l5.285.103 2.498-.111c.67-.053.904-.468.754-1.105l-.297-1.073-3.589-9.764c-.222-.595-.54-1.154-.908-1.927z"/><path d="M279.328 30.994l2.75-4.727 5.05-9.312c1.168-2.216.954-2.596-1.468-3.02-.274-.048-.552-.068-.829-.099-.656-.072-.923-.508-.877-1.094.047-.6.316-1.039 1.051-1.035l11.682.019c.598-.002.868.282.925.803.061.56.11 1.154-.661 1.315-.514.107-1.021.273-1.54.329-1.979.213-3.356 1.285-4.369 2.94l-8.653 14.1c-1.062 1.736-1.544 3.625-1.472 5.674l.167 7.254c.08 1.82.857 2.608 2.657 2.893l2.758.353c.889.054.975.591.932 1.274-.046.733-.472.859-1.139.857-5.722-.024-11.444-.027-17.166.009-.74.005-1.046-.299-1.09-.937-.044-.63.083-1.15.916-1.203.954-.061 1.904-.214 2.85-.364 1.697-.269 2.546-1.041 2.609-2.745.103-2.786.14-5.585-.014-8.366-.06-1.093-.587-2.218-1.11-3.219l-7.918-14.945c-1.251-2.437-3.182-3.621-5.798-3.849-.857-.075-1.142-.519-1.036-1.29.107-.779.594-.892 1.335-.884l13.45.004c.773-.008 1.3.096 1.413.913s-.367 1.106-1.123 1.264c-2.453.513-2.731 1.044-1.589 3.278l6.835 13.095c.11.21.262.399.473.716M5.919 64.993v-1.117h288.635v1.117H5.919"/><path d="M106.539 49.133l-13.825.294c-.663.016-1.153-.051-1.225-.87s.274-1.191 1.065-1.294l2.462-.438c1.342-.279 2.096-1.127 2.259-2.483l.182-2.222.004-23.175c-.001-.71-.078-1.424-.175-2.128-.213-1.54-.855-2.234-2.378-2.576l-2.281-.397s-1.186-.396-1.131-1.244.543-.956 1.257-.94l11.413.178 4.172-.176c.608-.036.948.185 1.001.803.053.624.022 1.184-.759 1.363l-2.598.674c-1.087.326-1.696 1.112-1.86 2.215-.114.764-.2 1.54-.202 2.311l-.003 21.965c.001.741.082 1.485.173 2.222.27 2.165 1.027 3.163 3.17 3.338 2.481.203 5.004.184 7.488-.006 2.491-.19 4.26-1.701 5.443-3.87a24.72 24.72 0 0 0 1.215-2.604c.325-.807.926-.816 1.599-.679.702.143.745.665.604 1.225l-2.032 7.989c-.178.701-.616.84-1.301.835l-13.736-.017-.001-.292m137.594-.006l-15.309.298c-.658.015-1.164-.036-1.239-.854-.074-.803.246-1.201 1.047-1.306a26.06 26.06 0 0 0 2.458-.456c.929-.215 1.535-.778 1.646-1.772l.115-1.386.001-25.501-.012-.744c-.086-2.247-.637-2.901-2.822-3.321l-1.83-.291c-.699-.098-.933-.55-.881-1.184s.329-.977 1.069-.958l10.948.187 4.357-.178c.653-.039 1 .198 1.044.86.043.64-.045 1.165-.824 1.319l-2.335.583c-1.233.343-1.942 1.16-2.09 2.439l-.175 2.034V41.14c.002.833.11 1.669.211 2.498.178 1.457.975 2.394 2.434 2.658 1.091.198 2.196.409 3.299.436l5.557-.114c2.553-.228 4.44-1.611 5.682-3.84.48-.862.893-1.769 1.26-2.686.32-.801.906-.845 1.586-.702.734.154.782.658.621 1.283l-2.007 7.901c-.171.677-.573.878-1.282.871l-12.529-.019-.001-.298M77.008 76.699h1.55v12.432c-1.438.432-1.907.29-2.756-.821l-6.605-8.634-.788-.987-.061 1.23-.003 8.094c-.001 1.395-.002 1.395-1.468 1.199V76.798c1.459-.395 1.836-.275 2.72.88l6.549 8.56.862 1.092V76.7m101.647 13c-3.51-.062-6.304-2.004-7.065-4.967-1.014-3.95 1.547-7.724 5.603-8.267 2.293-.307 4.455-.004 6.307 1.483 2.09 1.678 2.764 3.941 2.231 6.491-.57 2.728-2.435 4.295-5.067 4.972-.651.168-1.339.195-2.01.287zm.024-12.012c-3.232-.011-5.617 2.214-5.643 5.269-.027 3.02 2.399 5.378 5.554 5.4 3.179.023 5.601-2.267 5.614-5.31.014-3.103-2.3-5.348-5.525-5.359zm84.032 12.008c-3.176-.057-5.766-1.617-6.808-4.157-1.661-4.048.939-8.476 5.32-9.074 1.953-.267 3.828-.069 5.554.944 2.301 1.352 3.543 4.006 3.11 6.561-.475 2.8-2.45 4.867-5.255 5.46-.631.133-1.28.18-1.92.266zm-.027-12.009c-3.241-.001-5.57 2.22-5.567 5.309.002 3.067 2.378 5.359 5.557 5.36 3.154.002 5.593-2.328 5.603-5.351.01-3.048-2.376-5.317-5.594-5.318zm-68.456 11.537V76.558l6.054.35c1.82.246 2.705 1.441 2.651 3.028-.033.952-.478 1.647-1.256 2.148-.28.18-.582.327-.993.556l.907.334c1.218.493 1.992 1.332 2.065 2.703.075 1.405-.582 2.395-1.815 2.966-.608.282-1.29.527-1.947.554l-5.666.026zm1.464-1.136l4.274-.276c1.365-.21 2.072-1.083 2.038-2.145-.035-1.112-.844-1.992-2.176-2.151-1.162-.138-2.343-.139-3.515-.125-.209.003-.584.363-.593.57l-.028 4.126zm.006-5.955l3.928-.261c1.163-.184 1.699-.961 1.652-1.995-.043-.953-.673-1.638-1.807-1.77-1.036-.12-2.089-.129-3.134-.121-.214.002-.603.287-.611.456l-.028 3.692zm-149.88 7.092l.352-.817 5.32-11.047c.271-.572.594-.724 1.193-.733.585-.009.791.262 1.003.723l5.174 11.115.289.674c-1.502.391-1.787.361-2.232-1.026-.514-1.601-1.413-2.145-3.056-1.952-1.374.161-2.781.052-4.173.024-.531-.011-.88.13-1.063.663-.14.408-.354.791-.534 1.185-.624 1.355-.624 1.355-2.271 1.19zm9.562-4.411l-2.83-6.403-2.964 6.403zm59.371-8.118h1.444l.056 1.12.092 7.162c.103 2.144 1.377 3.306 3.437 3.376 2.123.072 3.53-.997 3.705-3.171.191-2.373.104-4.769.137-7.156v-1.325h1.446l.074.806.003 6.886c.004 1.906-.457 3.635-2.267 4.567-2.023 1.041-4.13 1.007-6.126-.127-1.28-.727-1.93-1.987-1.975-3.4l-.027-8.739m126.769 6.923v5.599h-1.6v-6.198-6.362c2.312.075 4.595-.296 6.814.43 1.391.456 2.114 1.503 2.166 2.928.051 1.385-.626 2.579-1.972 3.057-.912.324-1.916.427-2.889.528-.79.083-1.595.017-2.52.017zm.054-5.546v4.149l3.643-.021c1.244-.104 1.963-.944 1.967-2.055.004-1.128-.676-1.934-1.956-2.049-1.185-.107-2.386-.023-3.655-.023zm-19.571 9.865l1.265-.935c1.174 1.165 2.551 1.639 4.146 1.177a3.7 3.7 0 0 0 1.302-.668c1.071-.885.923-2.464-.316-3.089-.793-.4-1.675-.617-2.512-.932-.664-.249-1.353-.459-1.972-.795-1.869-1.014-2.209-3.452-.732-4.979 1.772-1.832 5.709-1.828 7.603.086l-1.178.97c-1.336-1.305-2.832-1.355-4.413-.721-.753.302-1.185.896-1.221 1.716-.036.834.373 1.457 1.128 1.757l3.568 1.284c1.142.434 2.083 1.091 2.35 2.405.271 1.337-.092 2.462-1.139 3.328-1.805 1.494-5.512 1.481-7.309-.008-.184-.152-.332-.347-.569-.597M39.515 77.829l-1.177.941c-1.153-1.186-2.539-1.314-4.013-.879-.89.263-1.53.806-1.603 1.82-.074 1.036.521 1.627 1.391 1.961l3.148 1.089c1.836.677 2.625 1.712 2.577 3.316-.047 1.561-1.046 2.805-2.814 3.271-2.253.595-4.403.466-6.326-1.357l1.299-.997c1.196 1.199 2.583 1.648 4.175 1.179.488-.143.987-.404 1.365-.742.967-.865.805-2.38-.343-2.974-.788-.407-1.67-.629-2.505-.948-.719-.275-1.472-.497-2.137-.873-1.707-.966-2.066-3.204-.813-4.725 1.657-2.011 5.9-2.102 7.776-.081m113.577.007l-1.163.931c-1.183-1.191-2.572-1.313-4.052-.867-.897.27-1.52.852-1.587 1.84-.066.975.514 1.575 1.348 1.901l3.23 1.127c1.802.664 2.566 1.658 2.541 3.239-.026 1.61-.964 2.783-2.735 3.321-1.647.5-3.297.49-4.878-.253-.511-.24-.953-.627-1.558-1.036l1.334-1.038c1.18 1.142 2.546 1.646 4.14 1.182a3.76 3.76 0 0 0 1.306-.658c1.108-.904.936-2.491-.361-3.134-.768-.381-1.618-.591-2.425-.896-.691-.261-1.41-.478-2.052-.834-1.706-.946-2.103-3.194-.882-4.715 1.654-2.063 5.988-2.153 7.794-.11m-52.274 10.19h6.396v1.221h-7.847V76.722h1.451v11.305m33.396-11.344h1.409v12.499c-1.387.291-1.46.242-1.461-1.018l.001-10.414.05-1.068m77.679-.024l.845.001.526.035V89.25h-1.371V76.658"/></svg>