<svg xmlns="http://www.w3.org/2000/svg" width="300" height="90" fill="#b1b1b1" fill-rule="evenodd" xmlns:v="https://vecta.io/nano"><path d="M89.049 1.534c-1.039.896-2.183 1.698-3.087 2.714-.909 1.022-1.747 2.178-2.317 3.413-1.17 2.538-.194 5.34 2.384 6.429 1.678.709 3.574 1.172 5.391 1.237 5.426.192 10.86.147 16.291.151.505 0 1.009-.32 1.517-.48.441-.139.884-.369 1.33-.377l20.328-.307 13.157.036c.643.005 1.289.15 1.926.27 1.132.214 1.694.915 1.791 2.06.324 3.809-.242 4.446-4.011 4.459l-27.376.088c-2.04.002-4.081-.095-6.118-.206-.378-.021-.975-.25-1.067-.519-.351-1.029-1.092-1.033-1.96-1.033-5.649.006-11.299-.041-16.949-.008-1.023.006-2.08.188-3.056.494-1.464.459-1.947 1.352-1.875 2.864.044.922.237 1.573 1.403 1.55.981-.019 1.493.64 1.515 1.594a129.75 129.75 0 0 1 .017 4.542c-.012 1.043-.601 1.616-1.63 1.626l-8.344.001c-.998-.009-1.665-.494-1.71-1.558-.058-1.382-.133-2.766-.097-4.147.038-1.473.547-1.917 1.988-1.954 1.605-.042 2.399-1.086 1.936-2.647-.423-1.427-1.318-2.374-2.864-2.696-.356-.074-.863-.593-.882-.93-.332-5.954 1.495-11.117 6.147-14.99 1.27-1.057 3.076-1.492 4.662-2.15.348-.144.807-.021 1.215-.021l.347.496zm21.984 13.956l.086.524c.287.034.575.103.86.096l8.335-.222c8.796-.014 17.631-1.007 26.337.697-.061-1.071-.586-1.533-2.325-1.543l-17.08-.028-13.946.166c-.758.013-1.512.202-2.268.31zM86.995 27.98c0-.839.08-1.579-.042-2.284-.045-.259-.549-.581-.871-.614-.363-.037-.757.219-1.138.347.193.33.345.693.587.983.418.503.891.961 1.464 1.568zm46.567 16.044l-2.287 8.018-1.198 3.692c-.359 1.037-1.057 1.621-2.224 1.658-1.189.038-2.042-.437-2.495-1.495l-1.417-3.751-3.413-10.059a8.01 8.01 0 0 1-.368-1.765c-.09-.955.404-1.605 1.323-1.799.939-.198 1.88-.134 2.246.988l1.81 5.806 2.245 6.552 1.009-3.407 2.314-7.955c.359-1.238 1.044-2.062 2.469-2.053 1.398.009 2.141.487 2.616 2.047l2.925 10.074.515 1.6.618-1.683 3.053-10.302c.24-.812.529-1.561 1.535-1.708 1.688-.248 2.75.925 2.254 2.637l-1.691 5.031-3.18 9.178c-.433 1.238-1.157 2.1-2.637 2.066-1.466-.034-2.175-.888-2.555-2.158l-2.934-9.796c-.107-.356-.261-.697-.533-1.413m10.716 21.699c1.563-.896 2.909-2.052 4.459-2.479 3.816-1.053 7.458.986 8.855 4.735 1.129 3.033 1.051 6.097-.121 9.121-2.097 5.41-9.071 6.377-12.333 2.415-.181-.22-.432-.383-.916-.802l-.004 4.256c-.021 1.339-.031 2.682-.135 4.017-.102 1.308-.8 1.983-1.939 2.02-1.298.043-1.882-.699-2.028-1.884a10.57 10.57 0 0 1-.085-1.29l.004-19.992a6.83 6.83 0 0 1 .185-1.53c.235-1.002.981-1.411 1.939-1.369 1.013.044 1.707.576 1.919 1.612.093.454.158.914.202 1.171zm9.842 6.673l-.207-.056c-.031-.518-.034-1.04-.096-1.554-.272-2.266-1.806-4.159-3.679-4.569-1.748-.382-3.773.42-4.691 2.086-1.482 2.691-1.548 5.514.039 8.154 1.832 3.049 6.024 2.824 7.578-.375.55-1.133.716-2.452 1.056-3.686zm7.925-17.678c-2.283 1.767-4.708 2.835-7.616 2.649-2.708-.173-4.975-2.02-5.269-4.498-.314-2.648 1.219-4.821 4.02-5.533l6.832-1.572c.673-.172 1.756-.605 1.801-1.011.124-1.141-.184-2.36-1.382-2.985-1.462-.763-4.936-.827-6.405 1.287l-.894 1.274c-.594.855-1.522.843-2.188.414-.495-.32-1.031-1.301-.873-1.754.364-1.046.939-2.227 1.798-2.842 1.115-.799 2.551-1.355 3.918-1.556 1.739-.255 3.568-.223 5.32-.007 3.378.416 4.95 2.274 5.114 5.777l.053 4.666.677 5.614c.162 1.017.205 1.905-.846 2.454s-1.928.252-2.653-.61l-1.407-1.767zm-.265-6.826l-6.275 1.539c-1.386.404-2.097 1.578-1.925 2.725.203 1.354 1.334 2.346 2.793 2.449 3.827.272 6.098-2.493 5.407-6.714z"/><path d="M117.056 79.329l-1.499.938c-2.127 1.392-4.445 1.891-6.959 1.5s-4.239-2.222-4.43-4.709c-.181-2.361 1.148-4.371 3.599-5.056l7.338-1.719c.628-.16 1.609-.576 1.672-.989.168-1.103-.125-2.257-1.221-2.938-1.731-1.075-5.177-.469-6.459 1.129a13.33 13.33 0 0 0-.888 1.281c-.497.797-1.205.93-2.033.658-.865-.283-1.217-.896-1.147-1.797.129-1.641 1.115-2.675 2.453-3.44 2.457-1.405 5.143-1.402 7.852-1.191.388.03.773.112 1.159.177 2.826.47 4.401 2.116 4.62 4.958l.169 4.795.732 6.512c.162.967-.019 1.622-.799 2.102-.816.502-1.673.518-2.386-.19-.609-.606-1.138-1.291-1.773-2.022zm-.377-6.868l-5.52 1.267c-.209.049-.415.122-.615.203-1.162.47-2.025 1.164-1.96 2.569.057 1.231.863 2.161 2.216 2.532 3.764 1.031 6.945-2.484 5.878-6.57zM237.89 77.36l.705-1.699 3.434-9.77c.245-.69.527-1.372.859-2.024.435-.854 1.198-1.121 2.09-.867.937.267 1.499.908 1.365 1.923a9.03 9.03 0 0 1-.503 1.999l-6.615 17.294c-1.597 4.12-3.68 5.44-9.015 4.515-1.018-.177-1.663-.822-1.469-1.927.201-1.138 1.072-1.367 2.073-1.252 2.706.311 4.459-1.052 4.735-3.767.04-.395-.155-.833-.31-1.224l-5.405-13.599c-.143-.36-.273-.727-.388-1.097-.401-1.29.023-2.264 1.184-2.745s2.144-.096 2.678 1.264c.851 2.168 1.574 4.386 2.346 6.584l2.236 6.394m-72.699-3.93c.019 2.245.652 3.986 2.485 5.038 1.768 1.016 3.601.883 5.304-.2.835-.531 1.594-1.197 2.322-1.871.736-.681 1.684-.971 2.305-.299.397.43.415 1.59.126 2.197-.972 2.039-2.906 3.006-4.999 3.328-1.727.266-3.583.291-5.293-.037-4.157-.797-6.644-3.963-6.787-8.336-.038-1.157.045-2.342.265-3.478.775-3.99 3.836-6.6 7.907-6.85 4.62-.283 7.934 1.666 9.203 5.414.056.164.127.324.169.491.85 3.374-.11 4.597-3.619 4.602h-9.388zm8.986-2.423c-.153-1.997-.614-3.674-2.371-4.61-1.569-.835-3.209-.8-4.663.283-1.407 1.048-1.849 2.57-1.947 4.327zm13.567-22.085c.138 2.463.856 4.295 2.959 5.246 2.085.943 3.986.388 5.704-.971.577-.457 1.04-1.12 1.682-1.415.621-.286 1.642-.531 2.052-.222.4.301.526 1.438.291 2.014-.82 2.021-2.663 3.09-4.639 3.388-2.095.317-4.353.34-6.417-.09-3.462-.721-5.776-3.695-6.019-7.291-.106-1.577-.047-3.219.277-4.76.797-3.786 3.949-6.232 7.853-6.371 2.253-.08 4.429.082 6.322 1.503 2.082 1.563 3.181 3.611 3.176 6.221-.003 1.847-.581 2.536-2.464 2.604-2.996.108-5.995.103-8.993.143l-1.784.001zm8.878-2.492c.13-3.022-1.783-5.201-4.444-5.132-2.578.066-4.527 2.44-4.196 5.242l7.909-.005c.248-.001.497-.07.732-.105z"/><path d="M185.705 66.362c1.52-1.889 3.068-3.017 5.167-3.365 3.93-.653 7.066 1.682 7.222 5.643.137 3.498.092 7.004.113 10.506.002.386-.055.78-.142 1.157-.235 1.016-.908 1.543-1.944 1.583-1.023.039-1.802-.377-2.087-1.39a7.45 7.45 0 0 1-.26-1.916l-.019-8.176c-.025-2.71-1.119-4.093-3.239-4.172-2.202-.082-4.293 1.765-4.414 4.1-.139 2.676-.096 5.36-.15 8.04-.013.646-.03 1.304-.157 1.934-.207 1.022-.92 1.533-1.947 1.578-1.022.045-1.797-.372-2.087-1.388a6.7 6.7 0 0 1-.249-1.784l-.006-12.848a6.88 6.88 0 0 1 .121-1.284c.211-1.085.894-1.69 2.004-1.637 1.152.055 1.813.725 1.943 1.879.042.375.064.752.129 1.54M61.617 57.384c-1.987.038-3.966-.17-5.576-1.388-.885-.669-1.589-1.667-2.148-2.646-.536-.94-.211-1.874.809-2.402 1.072-.555 1.893-.086 2.399.844 1.202 2.206 3.03 3.093 5.497 2.83 1.513-.161 2.675-.992 2.812-2.069.151-1.185-.565-2.121-2.187-2.655l-4.732-1.395c-.777-.25-1.55-.577-2.249-.995-2.911-1.743-3.132-5.355-.492-7.48 2.776-2.234 9.059-2.131 11.729.243.497.441 1.047 1.066 1.126 1.664.087.656-.142 1.591-.598 2.023-.658.624-1.641.511-2.378-.133-.486-.424-.877-.953-1.323-1.424-1.346-1.423-3.608-1.763-5.25-.795-1.402.826-1.52 2.316-.09 3.065 1.205.632 2.599.904 3.903 1.35 1.429.489 2.939.832 4.261 1.526 3.358 1.765 3.498 6.287.33 8.415-1.764 1.185-3.779 1.434-5.846 1.42"/><path d="M82.13 57.612c-4.217 0-7.913-2.451-9.474-6.281-1.597-3.921-.677-8.334 2.34-11.217 1.083-1.034 2.264-1.172 3.096-.361.846.825.71 1.957-.365 3.034-2.119 2.123-2.605 5.073-1.253 7.611 1.304 2.448 4.144 3.856 6.761 3.352 2.874-.554 5.054-2.87 5.307-5.8.182-2.109-.65-3.876-2.193-5.319-.806-.754-.942-1.645-.387-2.574.49-.819 1.321-.982 2.169-.724.429.131.819.477 1.158.798 2.991 2.831 3.924 7.235 2.37 11.09-1.585 3.932-5.25 6.39-9.529 6.39m5.438 15.24c.569 1.412.89 3.005 1.762 4.197 1.723 2.355 5.215 2.256 7.134-.005.585-.689.988-1.559 1.654-2.145.41-.36 1.27-.606 1.728-.418.522.213 1.044.916 1.173 1.493.287 1.278-.373 2.35-1.236 3.259-2.002 2.109-4.602 2.681-7.362 2.647-3.78-.046-6.852-1.476-8.217-5.189-1.483-4.035-1.15-7.997 1.877-11.267 3.284-3.546 10.278-3.376 13.53.2.579.636 1.065 1.54 1.159 2.37.068.602-.427 1.488-.949 1.88-.682.512-1.58.353-2.206-.392-.25-.298-.497-.601-.718-.92-1.244-1.795-2.888-2.741-5.117-2.264-1.988.426-3.412 2.162-3.759 4.486-.096.639-.102 1.291-.15 1.938l-.303.131m13.612-30.834v1.741l-.01 10.773c-.015 1.902-.73 2.81-2.126 2.847-1.04.028-1.778-.432-2.055-1.433-.17-.616-.25-1.275-.254-1.915l-.011-10.513v-1.353c-1.226-.648-3.434.404-3.383-1.858.047-2.089 2.07-1.09 3.271-1.62l.343-3.484c.266-2.084 1.259-3.29 3.325-3.59 1.527-.222 3.109-.113 4.663-.059.44.015 1.026.242 1.264.573.313.433.564 1.124.435 1.593-.104.376-.785.738-1.263.831-.62.12-1.293-.064-1.944-.063-1.435.002-1.993.468-2.136 1.868-.078.761-.014 1.536-.014 2.4l2.454.235c.856.1 1.341.555 1.313 1.458-.028.908-.539 1.301-1.409 1.353l-2.461.218m102.212 24.541c-.616-.078-1.195.013-1.518-.231-.493-.373-1.123-.986-1.11-1.482.012-.48.752-1.325 1.193-1.339 1.384-.042 1.528-.732 1.451-1.83-.07-.99-.05-1.992.015-2.984.088-1.382 1.021-2.295 2.205-2.254s2.045.98 2.095 2.354l.034 3.374c-.032.877.258 1.305 1.189 1.223.43-.038.958-.131 1.282.063.533.32 1.158.78 1.339 1.317.25.74-.278 1.295-1.091 1.458-.254.051-.502.146-.758.177-1.948.234-1.949.231-1.949 2.143l.003 7.14c.016 2.578.584 3.076 3.097 2.767.215-.026.47-.152.637-.077.548.247 1.404.477 1.508.877.135.52-.185 1.343-.592 1.763s-1.152.645-1.77.696c-1.29.107-2.603.142-3.891.025-1.748-.158-2.97-1.23-3.081-2.979-.214-3.361-.207-6.735-.285-10.104-.016-.681-.003-1.362-.003-2.095"/><path d="M109.604 42.086c-1.248-.336-2.725-.017-2.73-1.693-.005-1.686 1.483-1.349 2.738-1.703l.004-4.278c.016-1.181.407-2.14 1.72-2.388 1.286-.243 2.401.499 2.489 1.806.107 1.587.025 3.186.025 4.923l2.224.133c.884.073 1.642.311 1.686 1.4.044 1.075-.615 1.426-1.544 1.515l-2.255.233.003 3.871.11 6.349c.064 1.469.743 1.972 2.221 1.811.472-.051.979-.309 1.398-.199.558.146 1.378.476 1.481.88.133.524-.173 1.345-.576 1.766s-1.147.649-1.765.705c-1.289.117-2.61.203-3.888.05-1.942-.233-3.106-1.512-3.182-3.506l-.158-9.848-.001-1.828m20.028 23.738l.662-.916c1.66-2.265 4.477-2.651 6.726-.946.805.61 1.047 1.399.689 2.282-.356.877-1.13 1.135-2.046.966l-.381-.081c-3.655-.917-5.288.213-5.539 4.012l-.242 8.151c-.051 1.647-.687 2.472-1.949 2.589-1.335.124-2.373-.705-2.386-2.122V65.244c.013-1.43.8-2.242 1.963-2.315 1.241-.078 1.822.487 2.131 2.063.033.169.073.338.128.501.025.074.096.133.245.33m44.831-24.357l.877-1.152c1.592-2.08 4.401-2.508 6.55-.964.789.567 1.316 1.291.828 2.325s-1.275 1.332-2.355.934a7.22 7.22 0 0 0-1.254-.325c-2.134-.371-3.406.301-3.94 2.37-.372 1.444-.492 2.97-.568 4.468l-.04 5.572c-.057 1.747-.85 2.653-2.189 2.686-1.114.028-1.81-.535-2.088-1.57-.132-.493-.153-1.026-.155-1.541l-.001-12.573c.001-.473.047-.949.118-1.418.167-1.111.715-1.79 1.955-1.831 1.252-.042 1.812.63 2.057 1.719.074.332.108.672.205 1.3m45.391 24.49l.708-.907c1.721-2.357 4.117-2.805 6.588-1.255.945.593 1.298 1.41.909 2.433-.401 1.056-1.303 1.158-2.278.939-3.939-.888-5.054-.27-5.618 3.724-.354 2.51-.209 5.09-.298 7.638-.021.603-.016 1.22-.146 1.804-.242 1.083-1.021 1.564-2.101 1.552-1.037-.011-1.731-.514-1.965-1.543-.086-.377-.134-.77-.134-1.156V65.812c.001-.344.055-.689.103-1.031.162-1.14.8-1.802 1.978-1.848 1.139-.044 1.766.575 1.994 1.645l.259 1.378M82.176 50.049c-1.639-.643-2.302-1.712-2.199-3.572.184-3.315.048-6.647.054-9.973.002-.817.163-1.694-1.057-1.831-.109-.012-.175-.403-.311-.742h6.87c.289 1.19-.693.994-1.45 1.184l-.114 1.611-.005 9.976c0 2.093 0 2.093-1.788 3.347zm1.21-15.141c-.963.887-1.13 12.426-.207 13.597.223-4.438.227-8.88.207-13.597z"/></svg>