<svg xmlns="http://www.w3.org/2000/svg" width="300" height="90" xmlns:v="https://vecta.io/nano"><defs><filter id="A" height="1" width="1" y="0" x="0" color-interpolation-filters="sRGB"><feColorMatrix type="luminanceToAlpha" in="SourceGraphic"/><feComposite in="SourceGraphic" result="B" operator="out"/><feBlend result="B"/><feColorMatrix values="0 0 0 -1 0 0 0 0 -1 0 0 0 0 -1 0 0 0 0 1 0"/><feColorMatrix type="luminanceToAlpha" in="B"/><feComposite in="B" result="B" operator="out"/><feBlend/></filter></defs><g transform="matrix(.431886 0 0 .431886 -4.299589 10.598439)" filter="url(#A)"><path d="M64.535 151.295c-1.65-.831-6.487-4.935-10.75-9.12-7.136-7.007-9.064-10.227-6.917-11.554 1.224-.756.175-6.351-1.442-7.693-.765-.635-1.391-2.039-1.391-3.12 0-1.711-.486-1.888-3.75-1.367-2.062.329-4.257.256-4.876-.162-2.062-1.393-12.09-22.615-15.716-33.261-4.039-11.857-5.085-18.064-6.679-39.625-1.179-15.946-.469-33.733 1.407-35.267.613-.501 11.914-1.109 25.114-1.353 15.574-.287 25.116-.874 27.179-1.672 2.542-.983 3.644-.972 5.5.055 1.63.902 9.675 1.445 27.024 1.823 18.365.401 25.036.873 26 1.841.974.978 1.284 5.959 1.246 20-.082 29.921-4.904 51.156-17.19 75.698-5.844 11.674-6.475 12.461-10.009 12.485-1.892.013-2.25.56-2.25 3.439 0 2.193-.899 4.491-2.5 6.394-1.375 1.634-2.5 3.629-2.5 4.433 0 2.396-14.148 15.811-18.833 17.857-4.97 2.171-4.704 2.165-8.667.17zm5.5-13.778c0-.825-.45-1.5-1-1.5s-1 .675-1 1.5.45 1.5 1 1.5 1-.675 1-1.5zm-15.799-18.75c-.239-.963-.832-1.75-1.318-1.75-1.064 0-1.092.731-.194 5.125.657 3.217.719 3.258 1.318.875.345-1.375.433-3.287.194-4.25zm15.799-3.309c0-.793-.45-1.441-1-1.441s-1 .927-1 2.059.45 1.781 1 1.441 1-1.266 1-2.059zm2.778-9.283c2.388-1.516-3.361-3.305-6.307-1.963-2.917 1.329-1.6 2.774 2.528 2.774 1.375 0 3.075-.365 3.778-.811zM60.026 93.728c5.454-2.759 3.177-6.938-4.184-7.677l-5.307-.533-.278-14.279-.278-14.279-3.857-2.721c-6.591-4.65-11.189-13.477-7.714-14.811 2.474-.949 24.485 6.573 25.124 8.585.296.932.083 6.826-.472 13.099-1.554 17.561-2.176 15.905 5.973 15.905h7l-.026-3.75c-.014-2.062-.462-8.239-.996-13.726s-.73-10.731-.438-11.653c.354-1.114 4.331-2.884 11.854-5.274 12.994-4.128 13.177-4.154 14.02-1.958 1.029 2.681-3.123 9.621-7.902 13.207l-4.459 3.346-.277 14.154-.277 14.154-5.307.533c-5.016.504-7.141 1.864-7.178 4.594-.036 2.643 3.158 3.568 12.432 3.599 11.47.039 12.94-.724 17.357-9.012 4.064-7.624 4.097-9.215.195-9.215-3.671 0-4.005-2.302-.826-5.686l2.174-2.314h-4.206c-4.819 0-6.916-2.573-3.616-4.436 3.2-1.807 12.029-10.366 13.469-13.056 1.284-2.399 1.134-2.79-2.486-6.497-3.803-3.895-3.836-3.994-2.568-7.834 1.518-4.6.765-7.666-2.389-9.733-1.921-1.259-3.029-1.308-6.796-.3-4.116 1.101-4.737 1.018-7.264-.969-2.127-1.673-4.12-2.173-8.659-2.173-3.845 0-6.031.435-6.282 1.25l-2.497 8.5c-1.684 5.781-2.505 7.25-4.051 7.25-1.563 0-2.441-1.647-4.532-8.5l-2.593-8.5h-5.805c-4.39 0-6.458.514-8.484 2.108-1.704 1.341-3.483 1.904-4.885 1.548-7.55-1.918-7.532-1.92-10.25.798-2.703 2.703-2.76 3.335-.943 10.567.504 2.007-.095 3.272-2.939 6.2-1.965 2.023-3.573 4.174-3.573 4.779 0 1.02 10.441 11.798 14.374 14.839 2.759 2.133 1.355 3.621-3.924 4.161l-4.895.5 2.722 1.773c3.82 2.488 3.663 5.727-.278 5.727-3.747 0-3.802 1.251-.372 8.496 2.855 6.03 6.263 9.083 10.904 9.767 6.241.92 14.068.657 16.46-.553zm73.919 57.682c-3.795-4.572-15.227-4.392 278.09-4.392s281.885-.181 278.09 4.392c-1.22 1.471-25.029 1.608-278.09 1.608s-276.869-.138-278.09-1.608zm5.116-8.698c-4.94-1.697-5.994-4.57-6.011-16.376-.013-9.311.156-10.237 1.985-10.817 1.1-.349 2.9-.349 4 0 1.776.564 2 1.513 2 8.486 0 9.064.53 11.014 2.99 11.014 2.278 0 2.979-2.734 2.996-11.683.012-6.298.26-7.261 2.014-7.817 1.1-.349 2.9-.349 4 0 1.828.58 2 1.513 2 10.845 0 11.51-.974 13.911-6.599 16.261-3.948 1.65-4.807 1.658-9.375.088zm363.321-.623c-6.114-2.776-6.957-7.127-1.764-9.101l2.388-.908-2.485-2.485c-2.618-2.618-3.284-7.214-1.523-10.505 2.4-4.484 11.515-5.07 15.863-1.02 2.747 2.559 2.837 5.963.175 6.659-2.516.658-2.512.687.5 3.699 4.512 4.512 2.975 11.659-3.048 14.176-4.321 1.805-5.081 1.767-10.105-.514zm6.653-7.102c0-1.197-2.821-2.481-3.643-1.659-.876.876.61 2.69 2.202 2.69.793 0 1.441-.464 1.441-1.031zm-310.496 6.781c-.68-1.963-.827-5.51-.66-15.933.14-8.731.352-9.745 2.156-10.317 3.39-1.076 5.878.436 8.747 5.316l2.753 4.684.5-4.398c.574-5.046 2.912-7.278 5.75-5.487 1.519.958 1.75 2.805 1.75 13.995v12.891l-3.637.304c-3.443.287-3.801.021-6.728-5l-3.091-5.304-.022 3.668c-.012 2.018-.295 4.38-.629 5.25-.728 1.896-6.255 2.162-6.889.332zm65.163.583c-.367-.367-.667-6.162-.667-12.878 0-13.73.791-15.617 5.81-13.856 2.673.938 2.692 1.013 2.981 11.922.38 14.326.071 15.478-4.143 15.478-1.823 0-3.614-.3-3.981-.667zm54.879-.525c-.24-.719-1.796-6.455-3.458-12.745-3.218-12.181-3.029-14.063 1.413-14.063 2.78 0 4.296 1.731 5.119 5.845.829 4.143 1.999 4.005 2.813-.333.918-4.893 4.975-6.963 7.904-4.033 1.305 1.305 1.108 2.92-1.679 13.75l-3.158 12.271-4.259.308c-2.844.206-4.404-.127-4.696-1zm56.156.56c-1.26-1.26-.81-24.86.498-26.168.725-.725 4.239-1.2 8.878-1.2 8.344 0 10.335 1.061 9.749 5.195-.271 1.909-1.014 2.354-4.327 2.59-5.917.422-7.647 1.447-3.604 2.136 6.574 1.12 6.77 7.244.253 7.892-4.744.472-3.781 2.187 1.228 2.187 4.898 0 6.951 1.654 6.449 5.195-.31 2.188-.787 2.32-9.375 2.59-4.977.157-9.364-.031-9.75-.417zm60.905-.95c-.334-.87-.607-6.665-.607-12.878 0-13.723.227-14.037 9.585-13.286 8.313.667 11.415 3.138 11.415 9.091 0 2.228-.695 4.764-1.569 5.731-1.431 1.582-1.381 2.101.57 5.926 2.797 5.482 2.101 7.21-2.743 6.809-3.33-.275-4.014-.819-6.008-4.773-2.237-4.436-2.25-4.444-2.25-1.332 0 5.044-.894 6.294-4.5 6.294-2.074 0-3.51-.583-3.893-1.582zm10.543-16.918c0-.522-.484-1.111-1.075-1.308s-1.075.392-1.075 1.308.484 1.505 1.075 1.308 1.075-.786 1.075-1.308zm114.517 17.833c-.367-.367-.667-6.162-.667-12.878 0-13.73.791-15.617 5.81-13.856 2.673.938 2.692 1.013 2.981 11.922.38 14.326.071 15.478-4.143 15.478-1.823 0-3.614-.3-3.981-.667zm56 0c-.367-.367-.667-4.598-.667-9.402v-8.736l-3-1.046c-2.417-.843-3-1.618-3-3.991 0-1.763.635-3.189 1.582-3.552 3.057-1.173 15.991-.64 17.875.737 2.736 2.001 1.384 5.9-2.564 7.39l-3.187 1.203.612 6.558c.788 8.435-.313 11.504-4.126 11.504-1.572 0-3.158-.3-3.525-.667zm58.961-.862c-.345-.899-.627-3.34-.627-5.424s-1.426-7.018-3.169-10.964c-2.892-6.547-3.03-7.313-1.585-8.759 2.209-2.209 6.349-.971 8.148 2.438l1.445 2.737 1.023-2.664c1.129-2.942 4.061-4.312 7.137-3.336 2.66.844 2.51 2.909-.689 9.5-1.522 3.136-2.915 8.079-3.24 11.5l-.571 6-3.623.303c-2.625.219-3.796-.148-4.25-1.332zm-541.661-31.535c-2.817-5.264-20.898-4.96 278.299-4.688l278.068 1.918c.763 1.209.69 2.101-.263 3.25-1.194 1.438-26.783 1.584-278.157 1.584H135.105zm33.794-9.494c-13.728-3.327-25.217-13.028-29.737-25.109-9.499-25.387 1.332-53.098 24.592-62.92 6.373-2.691 7.814-2.906 19.385-2.893s12.986.228 19 2.881c3.575 1.577 8.415 3.077 10.756 3.334 4.742.521 4.379-.198 6.218 12.324 1.933 13.169-1.012 14.555-8.768 4.125-8.284-11.141-16.192-15.489-27.983-15.389-10.552.09-16.642 2.432-22.846 8.787-6.071 6.218-8.281 11.72-9.087 22.619-1.376 18.618 6.211 34.79 19.855 42.322 4.832 2.668 6.235 2.954 14.355 2.933 7.787-.021 9.778-.401 14.772-2.823 7.417-3.597 11.141-6.775 14.343-12.239 1.975-3.37 3.17-4.395 5.125-4.395 2.543 0 2.548.018 1.92 6.741-.791 8.471-2.437 10.713-11.022 15.011-11.885 5.951-28.033 7.803-40.878 4.69zm154.74.394c-4.95-.483-15.3-.757-23-.607-13.888.269-14.003.254-14.322-1.999-.253-1.78.423-2.582 3.129-3.713 1.898-.793 3.731-2.17 4.072-3.061s.621-17.007.621-35.815c0-37.956-.005-37.988-6.459-39.199-3.492-.655-4.888-2.372-3.94-4.843.828-2.159 3.369-2.425 13.527-1.418 5.155.511 18.215.635 29.023.275 22.749-.757 21.566-1.33 20.367 9.866-.863 8.061-1.277 9.372-3.183 10.104-2.272.872-4.335-1.219-4.335-4.392 0-1.497-.946-3.58-2.102-4.628-1.843-1.67-3.723-1.905-15.25-1.905h-13.148l-.277 15.38-.277 15.38 10.777-.5c5.927-.275 11.542-.823 12.478-1.218s2.208-2.253 2.828-4.129c.85-2.576 1.693-3.412 3.441-3.412 1.274 0 2.512.563 2.753 1.25.351 1.002.243 22.896-.128 26.066-.053.449-1.277.674-2.721.5-1.995-.24-2.896-1.151-3.75-3.79-1.625-5.02-4.483-6.077-15.625-5.78l-9.5.254-.288 13.5c-.158 7.425-.044 14.485.254 15.689.751 3.036 7.431 3.908 18.295 2.388 9.643-1.349 15.659-3.818 19.778-8.118 3.288-3.432 6.056-3.813 6.961-.96 1.383 4.357-3.801 12.95-9.921 16.447-5.271 3.011-9.075 3.464-20.079 2.389zm153-.178c-9.875-2.567-10.91-3.571-13.403-13.007-2.673-10.117-2.541-15.151.396-15.151 1.408 0 2.792 1.581 4.71 5.377 3.471 6.871 5.164 8.704 11.297 12.23 4.123 2.371 6.164 2.876 11.637 2.884 5.832.008 7.227-.385 11.5-3.241 6.226-4.161 8.391-9.376 6.505-15.671-1.569-5.237-5.329-7.773-19.142-12.911-21.696-8.071-27.267-13.749-27.187-27.706.044-7.677 2.448-12.817 8.359-17.877 7.347-6.289 21.151-8.489 31.41-5.006 2.558.869 5.651 1.328 6.873 1.022 3.967-.996 5.235 1.266 6.568 11.712 1.31 10.268.878 12.204-2.57 11.531-.968-.189-2.928-2.499-4.356-5.133-4.227-7.796-12.444-12.71-21.254-12.71-10.943 0-17.492 8.615-13.286 17.478 2.238 4.717 4.172 5.92 17.196 10.699 5.911 2.169 12.622 5.038 14.914 6.376 19.149 11.183 17.177 37.762-3.504 47.23-6.501 2.976-19.033 3.857-26.662 1.875zm81 .303c-19.574-4.013-32.954-18.38-35.45-38.065-2.383-18.799 5.074-37.014 18.727-45.742 7.847-5.016 18.798-8.156 28.399-8.142 27.69.039 46.824 18.411 46.824 44.96 0 23.331-13.052 40.9-34.542 46.497-6.237 1.624-17.324 1.852-23.958.492zm27.335-10.036c10.379-5.186 16.641-15.145 17.808-28.32 2.147-24.237-13.482-44.147-35.623-45.381-5.995-.334-8.679.018-13.237 1.738-21.657 8.172-25.082 45.224-5.993 64.822 7.163 7.354 13.647 10.194 23.301 10.206 6.486.008 8.486-.438 13.745-3.066zm-362.418 9.159c-1.339-1.338-.006-4.244 2.553-5.568 1.634-.845 3.434-2.402 4-3.46 1.389-2.596 1.401-68.493.013-71.087-.559-1.045-2.837-2.39-5.061-2.989-3.589-.966-4.009-1.392-3.733-3.784l.311-2.695 15.285-.038c8.407-.021 15.763.258 16.348.62 1.958 1.21.375 4.395-2.97 5.974-1.821.86-3.72 2.211-4.222 3.003s-.918 16.784-.927 35.568c-.013 29.386.197 34.303 1.511 35.394 1.114.925 4.149 1.111 11.25.688 12.89-.766 19.529-2.875 24.553-7.799 4.449-4.361 4.911-4.532 6.638-2.452 2.888 3.48-2.894 13.794-9.6 17.122-3.511 1.743-6.239 1.919-29.699 1.919-14.208 0-26.021-.187-26.25-.417zm133.25.25c-1.73-1.73-.45-4.397 2.753-5.735 1.881-.786 3.945-2.411 4.587-3.61 1.543-2.882 3.239-33.841 2.823-51.534-.383-16.298-1.133-18.192-8.611-21.742-4.779-2.269-6.555-5.249-4.068-6.826.742-.47 5.515-.861 10.608-.87 7.93-.013 9.498.263 10.917 1.92 1.367 1.597 25.83 53.037 29.634 62.315 1.924 4.691-.397 8.905 24.095-43.75l9.303-20h9.396c9.008 0 9.409.094 9.718 2.271.254 1.789-.429 2.585-3.214 3.748-5.947 2.485-5.977 2.693-5.147 36.436.413 16.8 1.041 32.568 1.395 35.041.597 4.169.934 4.591 4.644 5.799 5.267 1.716 7.227 3.625 5.659 5.514-.92 1.109-4.419 1.386-16.414 1.3-14.731-.105-15.255-.181-15.547-2.229-.219-1.535.679-2.699 3.25-4.216l3.553-2.096-.123-14.284c-.067-7.856-.416-19.009-.774-24.784l-.652-10.5-6.338 13-12.751 26.927c-3.527 7.66-6.926 14.545-7.553 15.301s-2.292 1.238-3.701 1.073c-2.898-.34-3.189-.872-17.763-32.499-7.49-16.253-8.953-18.807-9.538-16.646-.38 1.404-.83 10.733-1 20.731-.352 20.732.224 22.834 6.578 24.027 3.462.649 5.478 3.38 4.119 5.578-.692 1.119-28.74 1.441-29.839.342zm256.14-.453c-1.959-1.211-.25-4.234 3.619-6.399 2.159-1.208 4.315-3.25 4.791-4.537s.735-15.639.575-31.892c-.271-27.514-.433-29.827-2.344-33.551-1.451-2.829-3.428-4.69-6.75-6.356-3.633-1.822-4.698-2.899-4.698-4.75 0-2.327.225-2.394 8.045-2.394 7.068 0 8.313.277 10.25 2.283 2.491 2.58 51.363 57.858 54.564 61.717l2.074 2.5.028-24.5c.016-14.191-.416-26.097-1.026-28.294-1.061-3.819-1.5-4.146-10.253-7.61-2.108-.834-2.738-1.68-2.5-3.356.313-2.203.561-2.24 14.818-2.24 14.162 0 14.507.051 14.812 2.192.228 1.6-.516 2.62-2.75 3.776-1.684.871-3.062 2.279-3.062 3.129 0 1.377.165 1.381 1.506.04 4.18-4.18 9.522-2.053 9.462 3.768-.078 7.612-7.056 8.964-10.813 2.095-.809-1.478-1.102 7.695-1.124 35.168l-.637 38.75c-.726 1.891-4.415 2.079-6.509.332-.824-.687-4.207-4.4-7.517-8.25l-45.502-51.333c-1.221-.471-1.07 44.554.164 48.996.864 3.112 1.653 3.863 5.244 5 3.486 1.103 4.227 1.776 4.227 3.838v2.5h-13.845c-7.615 0-14.297-.279-14.848-.62z" fill="#e9e9e9"/><path d="M65.035 150.923c-1.925-1.148-6.763-5.297-10.75-9.221-6.779-6.671-8.539-9.77-6.324-11.139 1.057-.653-.31-6.329-1.909-7.928-.56-.56-1.017-2.044-1.017-3.298 0-2.116-.314-2.238-4.35-1.685-3.967.544-4.53.343-6.398-2.28-5.978-8.396-15.449-32.476-18.148-46.142-2.671-13.528-4.463-39.712-3.436-50.212l.831-8.5 22.5-.535c16.215-.385 23.966-.973 27.75-2.104 4.773-1.426 5.727-1.425 10.5.008 3.923 1.178 10.87 1.656 27.484 1.89 21.384.301 22.277.393 23.355 2.408.764 1.427.973 8.032.657 20.714-.712 28.559-4.564 46.457-14.738 68.479-6.184 13.386-8.508 16.64-11.885 16.64-2.681 0-2.851.25-2.851 4.184 0 3.281-.569 4.674-2.636 6.452-1.45 1.247-2.636 3.111-2.636 4.142 0 3.17-18.767 20.26-22.2 20.218-.165-.002-1.875-.943-3.8-2.091zm5.664-14.338c-.331-.862-1.08-1.567-1.664-1.567-1.719 0-2.415 3.125-.904 4.059 1.775 1.097 3.356-.438 2.568-2.492zm-13.664-7.367c0-.44-.496-1.296-1.103-1.903-.621-.621-.949-3.333-.75-6.201.332-4.798.214-5.098-2.022-5.097-2.157.001-2.31.299-1.673 3.251a130.85 130.85 0 0 1 1.257 7c.413 2.797 1.029 3.75 2.423 3.75 1.028 0 1.868-.36 1.868-.8zm26.5-.2c-.34-.55-1.068-1-1.618-1s-.722.45-.382 1 1.068 1 1.618 1 .722-.45.382-1zm-13.5-2c0-.55-.45-1-1-1s-1 .45-1 1 .45 1 1 1 1-.45 1-1zm0-7.066c0-1.136.466-2.936 1.035-4 .918-1.715.691-1.934-2-1.934-2.975 0-4.015 1.277-2.035 2.5.55.34 1 1.716 1 3.059s.45 2.441 1 2.441 1-.93 1-2.066zm14.5-2.934c.34-.55-.11-1-1-1s-1.34.45-1 1 .79 1 1 1 .66-.45 1-1zm-10.821-10.201c3.731-1.349 4.382-2.799 1.255-2.799-1.136 0-2.838-.413-3.783-.919-1.699-.909-9.152.729-9.152 2.011 0 .898 4.22 2.763 6.429 2.84 1.061.037 3.423-.473 5.25-1.133zM62.403 92.902c2.641-3.771.707-6.303-5.285-6.918-2.981-.306-5.593-1.159-6.125-2-.51-.807-.935-7.654-.943-15.217-.009-8.463-.399-13.75-1.012-13.75-1.807 0-8.745-6.962-10.03-10.066-2.253-5.44-.315-5.761 11.581-1.916 5.807 1.877 11.029 3.98 11.605 4.673.729.878.712 5.255-.056 14.428l-1.102 14.524c0 1.029 1.931 1.357 8 1.357s8-.327 8-1.357c0-.746-.496-7.282-1.102-14.524-.768-9.173-.785-13.55-.056-14.428.575-.693 5.798-2.796 11.605-4.673 11.896-3.845 13.834-3.524 11.581 1.916-1.286 3.104-8.223 10.066-10.03 10.066-.615 0-.997 5.336-.997 13.929 0 16.098-.43 17.071-7.536 17.071-5.526 0-7.564 2.671-5.012 6.567 1.508 2.302 2.119 2.433 11.321 2.429 12.583-.005 14.689-1.199 19.667-11.148 2.013-4.023 3.3-7.396 2.86-7.494l-3.55-.786c-3.425-.755-3.529-2.828-.25-4.976 3.53-2.313 3.102-3.564-.992-2.9-2.118.344-4.083.076-4.994-.681-1.287-1.068-.532-2.146 5.256-7.505 3.717-3.442 7.396-7.449 8.175-8.905 1.348-2.519 1.232-2.836-2.411-6.566l-3.827-3.919 1.272-4.542c1.11-3.966 1.059-4.867-.406-7.103-2.427-3.703-5.93-4.767-10.041-3.049-3.148 1.315-3.59 1.248-6.646-1.007-2.58-1.903-4.51-2.416-9.101-2.416-6.551 0-6.203-.386-9.479 10.5-1.163 3.864-2.34 6-3.306 6s-2.143-2.136-3.306-6c-3.276-10.886-2.927-10.5-9.479-10.5-4.591 0-6.522.512-9.101 2.416-2.96 2.184-3.578 2.294-6.444 1.151-4.06-1.62-7.469-.717-9.978 2.644-1.814 2.429-1.874 3.068-.694 7.284l1.294 4.622-3.827 3.919c-3.624 3.712-3.753 4.058-2.431 6.529.768 1.435 4.264 5.292 7.769 8.571 7.429 6.95 7.789 9.535 1.179 8.478-4.636-.741-5.112.398-1.321 3.159 3.23 2.353 2.608 5.227-1.131 5.227-3.236 0-3.182 1.122.42 8.734 4.177 8.829 6.855 10.257 19.242 10.262 8.738.003 9.839-.205 11.175-2.112zm72.235 58.525c-.336-.875-.357-2-.048-2.5.754-1.22 554.135-1.22 554.888 0 .309.5.288 1.625-.048 2.5-.556 1.448-25.306 1.59-277.396 1.59s-276.84-.142-277.396-1.59zm3.191-9.958c-3.227-1.752-4.781-6.501-4.789-14.636-.007-7.064 1.328-10.815 3.847-10.815 3.172 0 4.047 2.219 4.354 11.05.287 8.269.347 8.45 2.794 8.45s2.506-.182 2.794-8.45c.307-8.831 1.181-11.05 4.354-11.05 5.565 0 5.044 19.837-.651 24.75-3.049 2.631-8.585 2.936-12.702.701zm61.405.349c-1.849-1.849-1.638-23.192.245-24.754 2.828-2.347 5.856-.764 8.958 4.68 1.638 2.874 3.211 4.993 3.496 4.708s.762-2.637 1.06-5.226c.451-3.925.916-4.761 2.796-5.028 2.869-.407 3.079.296 3.614 12.075.495 10.906.134 13.339-2.107 14.199-2.883 1.106-5.296-.591-7.762-5.457-3.51-6.927-4.498-7.073-4.498-.663 0 4.049-.407 5.608-1.582 6.059-2.233.857-2.856.769-4.218-.593zm66.018.356c-.956-.607-1.21-3.969-1-13.235l.282-12.421h3 3l.283 11.858c.325 13.623-.932 16.738-5.565 13.798zm55.109.067c-1.462-.93-7.667-23.865-6.825-25.227 1.019-1.648 5.36-1.122 6.374.772.521.973 1.261 3.448 1.646 5.5.893 4.76 2.062 4.76 2.955 0 .385-2.052 1.126-4.527 1.646-5.5 1.091-2.038 5.701-2.389 6.43-.489.725 1.891-5.271 23.924-6.77 24.875-1.603 1.017-3.921 1.046-5.457.069zm55.891-.067c-.956-.607-1.21-3.969-1-13.235l.282-12.421h8.5c8.198 0 8.512.085 8.837 2.387.431 3.045-1.252 4.079-6.671 4.098-5.252.019-5.317 2.251-.087 3.015 2.849.416 3.421.918 3.421 3 0 2.095-.567 2.581-3.5 3-5.554.793-4.58 3.392 1.5 4 4.337.434 5.045.817 5.337 2.887.186 1.313-.264 2.768-1 3.235-1.708 1.083-13.925 1.109-15.62.034zm61 0c-.956-.607-1.21-3.969-1-13.235l.282-12.421 6.644-.293c5.753-.254 6.988.014 9.212 2 3.531 3.153 4.101 6.556 1.805 10.79-1.875 3.458-1.872 3.545.196 7.802 1.807 3.719 1.891 4.435.617 5.259-2.898 1.874-5.439.509-8.044-4.322-2.772-5.14-3.931-5.219-3.931-.269 0 4.575-2.617 6.697-5.782 4.689zm10.782-17.656c0-.933-.944-1.5-2.5-1.5s-2.5.567-2.5 1.5.944 1.5 2.5 1.5 2.5-.567 2.5-1.5zm54 16.876c-4.54-3.197-5.209-5.659-2.004-7.374 1.585-.848 2.595-.625 4.905 1.083 2.731 2.019 5.099 1.96 5.099-.127 0-.508-2.234-2.056-4.964-3.44s-5.469-3.458-6.085-4.61c-1.392-2.6-.524-6.335 2.075-8.934 3.147-3.147 11.732-2.286 14.209 1.425 2.539 3.803-1.526 6.911-5.447 4.164-2.568-1.798-3.788-1.986-3.788-.581 0 .541 2.161 2.078 4.801 3.416 5.219 2.645 7.272 5.764 6.49 9.86-.718 3.755-3.568 5.91-8.5 6.428-3.051.32-5.013-.059-6.791-1.31zm60.218.779c-.956-.607-1.21-3.969-1-13.235l.282-12.421h3 3l.283 11.858c.325 13.623-.932 16.738-5.565 13.798zm55.782-.136c-1.082-.685-1.516-2.84-1.557-7.735-.089-10.505-.226-11.114-2.591-11.466-3.048-.453-4.593-3.222-2.922-5.236 1.944-2.343 17.858-2.298 18.76.052.848 2.211-.916 4.793-3.543 5.184-2.009.299-2.148.885-2.148 9.05 0 10.308-1.566 12.957-6 10.15zm59.2-.22c-.66-.66-1.2-3.084-1.2-5.388 0-2.592-1.182-6.713-3.101-10.815-3.401-7.267-3.269-9.597.544-9.597 1.806 0 2.966.891 4.156 3.19 1.576 3.048 1.71 3.104 2.992 1.25 2.533-3.663 3.492-4.44 5.481-4.44 3.32 0 3.335 2.761.055 9.878-2.054 4.455-3.126 8.346-3.126 11.344 0 3.239-.459 4.739-1.582 5.17-2.233.857-2.856.769-4.218-.593zm-542.863-32.365c-.331-.863-.182-1.99.332-2.504.576-.576 107.15-.838 277.883-.683l276.948 2.252c0 1.995-.751 2.001-277.281 2.252-251.117.228-277.338.104-277.883-1.317zm33.163-9.762c-7.485-1.908-14.923-6.369-20.565-12.335-20.345-21.512-13.276-59.67 13.505-72.906 11.864-5.864 28.121-6.232 40.67-.92 3.514 1.487 8.19 2.993 10.39 3.346l4 .642 1.327 8.829c.73 4.856 1.081 9.468.781 10.25-1.079 2.813-3.605 1.316-7.528-4.461-7.458-10.982-16.715-16.118-29.053-16.118-17.812 0-29.379 10.228-32.218 28.49-3.047 19.596 5.977 39.846 21.049 47.235 4.738 2.323 6.931 2.767 13.693 2.77 7.292.004 8.767-.349 15.629-3.74 7.011-3.465 11.216-7.127 15.895-13.842 1.073-1.54 2.135-2.046 3.33-1.588 1.834.704 1.776 1.901-.53 10.939-1.126 4.415-5.677 7.733-15.875 11.574-7.871 2.965-26.235 3.941-34.5 1.834zm94.257.751c-.329-.329-9.484-.671-20.345-.761-21.183-.175-23.327-.746-16.939-4.514 1.957-1.154 4.001-3.264 4.542-4.689.574-1.511.985-16.426.985-35.802 0-36.431-.066-36.854-5.932-38.143-3.477-.764-5.252-2.599-4.185-4.326.571-.923 4.617-1.173 15.68-.966 13.139.245 14.95.481 15.239 1.987.224 1.165-.809 2.184-3.244 3.202-2.133.891-3.972 2.545-4.565 4.106-.585 1.539-.994 16.152-.994 35.548 0 40.052-.913 37.559 13.419 36.618 12.256-.805 20.855-3.568 25.638-8.239 2.069-2.021 4.253-3.371 4.853-3 3.689 2.28-2.358 13.18-9.046 16.309-4.426 2.07-14.012 3.765-15.107 2.671zm56.743-.483c-4.95-.408-14.288-.495-20.75-.192-11.496.539-11.75.505-11.75-1.58 0-1.444.813-2.335 2.523-2.764 5.38-1.35 5.477-2.027 5.477-38.478 0-21.75-.386-34.736-1.093-36.764-.851-2.442-1.948-3.366-4.958-4.176-4.52-1.217-5.726-2.647-3.817-4.526 1.088-1.071 4.138-1.2 14.868-.626 7.425.397 20.025.47 28 .162s15.35-.158 16.39.332c1.704.804 1.829 1.683 1.267 8.964-.342 4.44-1.05 8.5-1.573 9.023-1.581 1.581-4.084-.092-4.084-2.728 0-1.362-1.067-3.716-2.371-5.232-2.311-2.687-2.687-2.767-15.002-3.177-9.133-.304-13.046-.076-14.129.823-1.208 1.002-1.498 4.123-1.498 16.102v14.859l2.607.654c2.745.689 19.339-.275 21.945-1.275.837-.321 2.172-2.139 2.966-4.04 1.003-2.4 1.984-3.352 3.213-3.115 1.579.304 1.769 1.68 1.769 12.827 0 12.029-.079 12.498-2.158 12.794-1.684.24-2.3-.341-2.807-2.646-1.142-5.199-3.515-6.387-13.845-6.927-14.079-.736-13.69-1.194-13.69 16.11 0 10.304.37 14.78 1.331 16.094 1.193 1.631 2.571 1.774 13.25 1.374 13.333-.499 19.33-2.409 25.103-7.996 7.578-7.333 8.521 2.107 1.005 10.056-6.416 6.785-10.042 7.566-28.189 6.069zm37.509.226c-2.181-.72-.905-3.967 2.038-5.186 4.955-2.052 5.762-4.983 6.905-25.09 1.896-33.326 1.253-44.629-2.802-49.285-.908-1.042-3.59-2.763-5.96-3.823-2.965-1.326-4.209-2.451-3.988-3.605.269-1.405 1.868-1.723 9.874-1.961 8.136-.242 9.788-.019 11.136 1.5.871.981 8.158 15.94 16.193 33.241l15.421 32.269c.447.447 7.748-14.104 16.225-32.336 9.637-20.726 16.169-33.59 17.431-34.327 1.648-.963 8.698-1.276 15.268-.677 2.575.234 1.211 3.77-2 5.183-6.124 2.695-6.238 3.63-4.989 40.665.617 18.279 1.561 34.029 2.099 35s2.926 2.455 5.308 3.298c2.445.865 4.331 2.171 4.331 3 0 1.212-2.577 1.516-14.771 1.745-13.191.247-14.842.093-15.43-1.44-.401-1.046-.122-1.896.714-2.175.755-.252 2.465-1.55 3.8-2.885l2.427-2.427-.727-23.675c-.4-13.021-1.061-24.286-1.469-25.031-.791-1.446-6.558 9.782-19.699 38.356-7.59 16.505-9.392 19.08-12.272 17.539-.908-.486-7.033-12.607-13.612-26.936s-12.232-26.064-12.563-26.078c-.951-.04-1.886 15.161-1.892 30.77-.006 13.848.071 14.372 2.449 16.75 1.35 1.35 3.32 2.455 4.378 2.455 2.678 0 4.843 2.725 3.35 4.218-1.029 1.029-24.455 1.847-27.173.949zm118.034-.709c-7.22-2.014-8.696-3.545-10.964-11.367-3.109-10.726-3.336-12.632-1.667-14.017 2.092-1.736 3.254-.72 5.711 4.991 3.799 8.831 13.042 14.874 22.811 14.914 12.593.051 21.407-9.066 19.025-19.679-1.227-5.468-5.174-8.425-17.025-12.752-17.508-6.394-23.713-10.232-27.019-16.713-6.02-11.799-1.423-25.905 10.442-32.048 5.775-2.99 19.449-3.676 26.512-1.33 2.8.93 5.887 1.443 6.86 1.14 3.004-.935 4.006.637 5.159 8.095 1.657 10.721 1.496 13.308-.825 13.308-1.312 0-2.845-1.693-4.75-5.244-6.198-11.553-23.585-16.447-32.319-9.098-5.649 4.753-5.719 13.785-.15 19.328 1.461 1.454 6.256 3.909 10.656 5.456 18.534 6.517 25.641 11.085 29.432 18.918 2.349 4.853 2.722 12.725.892 18.833-1.601 5.343-8.004 12.349-14.201 15.537-6.444 3.315-19.96 4.132-28.581 1.727zm78.981-.001c-13.664-3.821-24.338-13.764-29.225-27.224-3.072-8.46-3.067-23.422.011-32.38 6.55-19.06 22.708-29.853 44.69-29.853 20.049 0 34.286 8.621 42.223 25.57 2.572 5.492 2.777 6.854 2.777 18.43 0 9.857-.402 13.557-1.899 17.5-4.567 12.024-14.485 22.35-25.601 26.653-7.325 2.835-25 3.534-32.976 1.304zm26.153-5.489c10.713-2.975 19.79-13.492 22.413-25.967 4.345-20.665-5.254-41.047-23.17-49.201-3.91-1.78-6.768-2.244-13.92-2.264-10.664-.029-16.153 2.125-22.049 8.651-6.029 6.673-7.802 11.811-8.261 23.942-.429 11.315.888 18.184 5.049 26.339 3.166 6.206 12.755 15.008 18.937 17.383 5.87 2.255 15.13 2.748 21.002 1.117zm32.489 5.366c-1.553-1.553-.421-3.418 3.19-5.26 6.148-3.137 6.32-4.206 5.962-37.196-.317-29.209-.333-29.403-2.824-33.877-1.565-2.811-3.817-5.137-6-6.197-8.281-4.021-7.514-5.803 2.497-5.803h7.374l8.817 9.77 46.775 52.98c1.496 1.787 3.13 3.25 3.631 3.25 1.101 0 1.098-43.153-.003-50.912-.875-6.16-2.951-8.436-9.243-10.13-2.894-.779-3.88-1.527-3.643-2.763.282-1.471 2.032-1.732 13.26-1.976 7.114-.155 13.514-.059 14.221.212 1.744.669.584 3.351-1.774 4.099-4.037 1.281-4.281 3.52-4.854 44.47l-.553 39.5h-2.461c-1.977 0-7.782-6.066-29.5-30.826l-27.039-30.826-.267 26.11c-.163 15.964.12 26.833.729 27.971.548 1.024 2.693 2.261 4.767 2.749 2.787.656 3.854 1.466 4.09 3.104.316 2.194.185 2.216-13.083 2.216-7.372 0-13.703-.3-14.07-.667zm81.85-71.959c-3.949-3.949 1.35-11.023 5.974-7.973 2.356 1.554 3.169 6.099 1.459 8.159-1.595 1.922-5.42 1.826-7.433-.186z" fill="#d7d7d7"/><path d="M65.958 151.261c-5.294-3.582-11.909-9.52-15.534-13.944-3.331-4.065-3.565-4.698-2.122-5.753 1.392-1.018 1.448-1.688.396-4.75-.674-1.96-1.782-4.235-2.461-5.054s-.93-2.288-.555-3.265c.607-1.582.184-1.719-3.889-1.26-2.514.283-5.05.219-5.635-.143-1.7-1.05-11.607-21.758-14.962-31.275-5.5-15.598-7.333-27.784-7.904-52.55l-.513-22.25h20.914c19.284 0 21.477-.184 28.129-2.363l7.215-2.363 7.215 2.363c6.625 2.17 8.876 2.363 27.531 2.363 18.409 0 20.384.164 21.035 1.75.395.963.693 9.175.662 18.25-.096 28.041-5.207 50.441-16.914 74.118-3.073 6.215-6.115 11.626-6.761 12.025s-2.448.471-4.004.16c-2.816-.563-2.827-.545-2.172 3.548.595 3.723.36 4.392-2.472 7.037-1.847 1.725-2.899 3.525-2.566 4.392.869 2.265-18.274 20.749-21.454 20.714-.33-.004-1.759-.791-3.177-1.75zm5.506-12.921c.364-.949-.024-2.345-.893-3.214-1.382-1.382-1.691-1.382-3.073 0-1.877 1.877-.93 4.892 1.537 4.892.982 0 2.076-.755 2.43-1.678zm-12.43-8.822c0-.275-.84-1.34-1.866-2.366-1.496-1.496-1.768-2.884-1.373-7 .436-4.534.274-5.132-1.384-5.119-3.907.032-4.403 1.202-2.909 6.864.769 2.917 1.156 5.938.859 6.712-.403 1.051.375 1.409 3.066 1.409 1.984 0 3.607-.225 3.607-.5zm25.304-1c-1.178-.825-2.853-1.227-3.723-.893-2.835 1.088-1.667 2.393 2.141 2.393 3.594 0 3.648-.052 1.581-1.5zm-13.304-1.3c0-.44-.446-1.246-.992-1.792-.951-.951.001-5.346 2.067-9.55.444-.903.534-1.916.199-2.25-.787-.787-4.659-.781-6.722.01-1.464.562-1.467.724-.034 1.772 1.068.781 1.643 3.001 1.779 6.88.166 4.71.513 5.727 1.952 5.728.962.001 1.75-.358 1.75-.798zm-8-3.2c0-.55-.45-1-1-1s-1 .45-1 1 .45 1 1 1 1-.45 1-1zm14 0c0-.55-.45-1-1-1s-1 .45-1 1 .45 1 1 1 1-.45 1-1zm8.073-6.588c1.1-1.326.182-2.412-2.039-2.412-1.285 0-1.554.798-1.265 3.75.555 5.659 1.573 7.304 2.014 3.254.209-1.923.79-3.989 1.29-4.592zm5.927 3.588c0-.55-.702-1-1.559-1s-1.281.45-.941 1 1.041 1 1.559 1 .941-.45.941-1zm-15-14.769l3.5-1.529-3.698-.685c-2.034-.377-4.377-1.249-5.207-1.938-1.222-1.015-1.94-.951-3.775.334-1.246.873-3.605 1.587-5.243 1.587-3.727 0-2.5 1.414 2.947 3.394 4.161 1.513 5.712 1.356 11.476-1.163zm-14-12.231c4.239-4.239 1.351-8.658-6.002-9.18l-4.498-.32-.277-14.254-.277-14.254-3.973-2.63c-6.165-4.08-10.424-12.362-6.357-12.362.888 0 6.04 1.403 11.449 3.118 6.483 2.055 9.939 3.66 10.141 4.708.168.875-.152 7.627-.713 15.004-1.164 15.319-1.549 14.568 7.508 14.632 9.046.063 8.71.72 7.53-14.684-.567-7.4-.89-14.176-.718-15.057.208-1.069 3.59-2.621 10.156-4.661 5.414-1.682 10.561-3.058 11.438-3.058 4.048 0-.231 8.295-6.378 12.362l-3.973 2.63-.277 14.254-.277 14.254-4.641.3c-5.642.365-8.414 2.855-7.45 6.695.919 3.66 4.696 4.752 14.835 4.289 8.035-.367 8.999-.638 11.876-3.342 2.985-2.806 8.877-13.55 8.879-16.192 0-.722-1.265-1.25-2.999-1.25-3.922 0-3.838-1.815.241-5.223l3.259-2.723-5.083-.027c-2.796-.015-5.353-.296-5.682-.626s2.746-3.901 6.833-7.936c4.467-4.409 7.432-8.159 7.432-9.398 0-1.134-1.604-3.837-3.565-6.008-2.979-3.298-3.39-4.274-2.5-5.937 4.188-7.825-3.224-15.681-11.317-11.994-2.075.946-2.914.784-5.182-1-2.159-1.698-4.083-2.128-9.518-2.128H75.14l-2.34 7.75c-1.453 4.814-2.865 7.75-3.726 7.75s-2.281-2.944-3.743-7.75l-2.357-7.75H56.14c-5.458 0-7.38.429-9.541 2.128-2.268 1.784-3.106 1.946-5.182 1-8.092-3.687-15.505 4.169-11.317 11.994.89 1.664.479 2.639-2.5 5.937-1.961 2.171-3.565 4.915-3.565 6.099 0 1.363 2.73 4.804 7.446 9.384 4.095 3.977 7.17 7.507 6.833 7.844s-2.563.613-4.946.613c-5.12 0-5.402.834-1.306 3.862 3.508 2.593 3.102 4.138-1.087 4.138-1.687 0-2.941.533-2.94 1.25.002 2.56 5.849 13.343 8.624 15.903 3.551 3.275 4.81 3.586 15.126 3.731 7.011.099 8.55-.184 10.25-1.884zm73 56.857c0-.904.712-1.916 1.582-2.25 2.068-.794 548.768-.794 550.836 0 .87.334 1.582 1.346 1.582 2.25 0 1.52-20.729 1.643-277 1.643s-277-.123-277-1.643zm5.295-8.975c-5.17-1.478-6.295-4.081-6.295-14.57 0-7.793.274-9.383 1.75-10.142 3.511-1.806 4.25-.355 4.25 8.342 0 6.253.394 8.739 1.571 9.917 1.815 1.815 2.375 1.89 4.429.593 1.097-.693 1.596-3.309 1.859-9.735.37-9.053 1.219-10.85 4.337-9.182 1.522.814 1.804 2.297 1.804 9.48 0 11.739-1.439 14.28-9 15.894-.825.176-2.942-.092-4.705-.596zm363.801-.213c-3.873-1.331-5.705-3.64-4.786-6.034.786-2.048 4.039-2.126 5.691-.136 1.788 2.155 5 1.912 5-.379 0-1.15-1.179-2.367-3.041-3.138-5.517-2.285-7.959-4.863-7.959-8.401 0-6.351 7.656-9.456 13.818-5.603 5.537 3.462 2.321 8.039-3.47 4.94-1.739-.931-2.688-.979-3.49-.177s.282 1.802 3.984 3.678c7.474 3.787 9.175 8.266 4.907 12.925-2.818 3.077-6.271 3.83-10.654 2.324zm-304.387-.294c-.39-.39-.709-5.986-.709-12.435 0-9.741.266-11.829 1.572-12.33 2.555-.98 5.129 1.07 8.025 6.392 1.496 2.749 3.098 4.997 3.561 4.997s.841-2.195.841-4.878c0-5.627 1.944-8.244 4.53-6.097 1.245 1.033 1.478 3.433 1.25 12.872l-.28 11.602-2.726.314c-2.14.247-3.107-.331-4.5-2.689l-3.758-6.314-1.984-3.311-.516 6c-.437 5.074-.832 6.045-2.558 6.292-1.123.161-2.36-.027-2.75-.417zm64.958-.042c-1.229-1.229-.751-22.849.533-24.133 1.581-1.581 2.343-1.515 4.229.371 1.216 1.216 1.571 3.8 1.571 11.418 0 5.416-.273 10.559-.607 11.429-.604 1.573-4.453 2.188-5.726.915zm54.998-.067c-.743-1.202-5.664-20.83-5.664-22.59 0-1.934 2.916-2.99 4.539-1.643.707.587 1.82 3.294 2.473 6.017s1.548 4.95 1.988 4.95 1.343-2.259 2.005-5.021c1.178-4.91 3.241-7.159 5.745-6.261 1.845.662 1.435 4.657-1.57 15.282-2.62 9.265-2.765 9.508-5.839 9.806-1.734.168-3.388-.075-3.676-.54zm56.002.067c-1.229-1.229-.751-22.849.533-24.133 1.799-1.799 14.246-1.572 15.789.287 2.181 2.628.441 4.378-4.677 4.706-3.622.232-4.875.735-5.127 2.057-.256 1.346.348 1.75 2.619 1.75 3.777 0 5.975 2.357 4.196 4.5-.685.825-2.54 1.5-4.122 1.5-2.211 0-2.878.463-2.878 2 0 1.695.667 2 4.378 2 4.661 0 7.271 1.869 6.266 4.487-.45 1.173-2.347 1.513-8.445 1.513-4.326 0-8.165-.3-8.531-.667zm61 0c-1.229-1.229-.751-22.849.533-24.133 2.625-2.625 14.992-.579 16.788 2.778 1.496 2.796 1.231 6.758-.644 9.619-1.541 2.352-1.541 2.768 0 5.999 2.433 5.103 2.174 6.597-1.081 6.22-2.034-.235-3.337-1.408-5.075-4.566-2.731-4.964-4.188-5.428-4.188-1.332 0 1.605-.273 3.63-.607 4.5-.604 1.573-4.453 2.188-5.726.915zm10.833-16.833c0-1.313-.773-2.11-2.25-2.32-1.846-.262-2.25.155-2.25 2.32s.404 2.582 2.25 2.32c1.477-.21 2.25-1.007 2.25-2.32zm114.167 16.833c-1.229-1.229-.751-22.849.533-24.133 1.581-1.581 2.343-1.515 4.229.371 1.216 1.216 1.571 3.8 1.571 11.418 0 5.416-.273 10.559-.607 11.429-.604 1.573-4.453 2.188-5.726.915zm55.847-.513c-.262-.726-.598-5.126-.746-9.778-.257-8.098-.375-8.483-2.763-9.044-2.789-.655-3.928-3.799-1.854-5.113 2.41-1.527 14.545-1.046 16.234.644 1.859 1.859 1.059 4.471-1.371 4.471-3.034 0-3.918 2.314-4.222 11.05-.275 7.903-.44 8.471-2.548 8.77-1.24.176-2.469-.274-2.731-1zm59.114-.348c-.345-.9-.628-3.414-.628-5.587 0-2.257-1.097-6.117-2.559-9.001-4.938-9.744-.256-13.653 5.16-4.309 1.024 1.767 1.214 1.682 2.713-1.217 1.935-3.741 4.519-4.954 6.446-3.027 1.208 1.208 1.019 2.164-1.339 6.787-1.634 3.205-2.982 7.808-3.333 11.381-.545 5.553-.784 6.023-3.211 6.304-1.709.198-2.841-.266-3.25-1.332zm-541.291-31.038c-.331-.863-.182-1.99.332-2.504.576-.576 106.769-.838 276.883-.683l275.948 2.252c0 1.995-.751 2.001-276.281 2.252-250.209.228-276.338.104-276.883-1.317zm34.052-9.856c-20.93-4.782-33.409-20.834-33.377-42.934.02-14.003 3.575-23.215 12.615-32.692 2.957-3.1 7.547-6.818 10.2-8.262 13.325-7.252 30.359-7.537 44.863-.749 3.409 1.595 7.085 2.668 8.169 2.385 2.844-.744 3.896 1.932 4.712 11.981.496 6.109.377 8.692-.401 8.692-.608 0-2.912-2.444-5.118-5.432-5.741-7.772-9.781-11.396-16.051-14.399-4.638-2.222-6.832-2.629-14-2.6-14.138.058-23.466 5.538-29.178 17.14-2.803 5.693-3.299 7.875-3.658 16.087-.706 16.14 3.251 27.836 12.471 36.863 6.526 6.389 13.75 9.339 22.867 9.339 11.347 0 23.968-6.143 29.199-14.213 3.123-4.817 4.306-5.901 5.579-5.113 1.192.737-.15 10.318-1.813 12.944-5.269 8.319-31.705 14.474-47.08 10.961zm308.611.395c-10.811-2.229-12.252-3.641-15.434-15.128-3.322-11.994-.753-14.729 4.529-4.82 8.668 16.263 30.358 19.641 40.292 6.274 2.725-3.667 3.216-10.23 1.098-14.693-2.106-4.439-6.798-7.32-18.684-11.475-21.346-7.462-27.553-14.066-26.632-28.339.458-7.095 3.222-12.154 8.949-16.379 7.307-5.391 19.737-6.889 29.293-3.531 2.947 1.036 6.515 1.662 7.929 1.392 2.885-.552 2.786-.795 4.723 11.568.879 5.607.873 7.617-.026 8.5s-1.641.589-3.106-1.205c-1.061-1.298-1.929-2.901-1.929-3.56 0-2.153-6.387-7.83-11.5-10.221-16.376-7.659-32.176 3.77-24.382 17.638 2.437 4.336 6.507 6.825 16.382 10.02 15.997 5.174 24.863 12.068 27.462 21.35 1.902 6.795.247 15.207-4.221 21.447-6.462 9.025-21.567 13.878-34.741 11.162zm81.5.391c-10.432-1.609-19.478-6.373-26.322-13.861-8.156-8.924-11.111-17.162-11.153-31.089-.056-18.374 9.486-33.899 25.052-40.763 29.927-13.196 61.883 2.594 66.223 32.723 3.248 22.545-8.898 43.778-28.996 50.693-5.63 1.937-19.07 3.182-24.803 2.298zm22.324-6.929c13.395-5.571 21.209-18.451 21.152-34.868-.048-13.835-3.996-23.394-13.385-32.401-7.68-7.368-14.55-10.167-24.95-10.167-9.886 0-15.971 2.235-21.712 7.976-10.567 10.567-12.962 31.67-5.497 48.427 4.965 11.145 15.556 20.459 25.658 22.565 5.53 1.153 13.929.466 18.734-1.533zm-359.592 5.126c-.32-.516.258-1.416 1.285-2s2.905-2.054 4.175-3.266l2.309-2.205V55.997c0-21.887-.383-35.827-1.017-37.011-.559-1.045-2.838-2.391-5.063-2.99-2.962-.798-3.958-1.543-3.719-2.784.292-1.513 1.861-1.667 14.67-1.437 7.889.141 14.766.519 15.284.839 1.22.754-.942 3.404-2.778 3.404-.758 0-2.278.9-3.378 2-1.925 1.925-2 3.333-2 37.378 0 30.299.216 35.557 1.507 36.628 2.063 1.712 21.292.74 28.199-1.425 2.919-.915 6.825-3.159 8.89-5.106 4.393-4.143 5.404-4.316 5.404-.925 0 5.078-4.659 11.109-10.5 13.593-3.626 1.542-52.335 1.925-53.269.42zm64.77-.793c-.001-1.018 1.04-1.992 2.525-2.365 4.651-1.167 4.951-3.026 5.313-32.904.417-34.421-.145-41.896-3.393-45.144-1.296-1.296-3.501-2.356-4.901-2.356-1.758 0-2.545-.542-2.545-1.75 0-1.628 2.096-1.75 30.012-1.75 25.82 0 30.072.21 30.44 1.5.554 1.94-.846 14.727-1.708 15.588-1.443 1.443-3.745-.648-3.745-3.402 0-1.652-.895-3.687-2.102-4.781-1.859-1.684-3.74-1.905-16.25-1.905h-14.148v16 16h11.647c12.65 0 14.976-.867 16.283-6.074.639-2.548 3.081-3.315 3.746-1.176.214.688.223 6.563.019 13.056-.318 10.162-.592 11.764-1.969 11.498-.88-.169-1.978-1.767-2.44-3.551-1.398-5.396-4.029-6.363-16.414-6.039l-10.872.285-.249 15.5c-.137 8.525.174 16.159.691 16.964.632.984 3.239 1.594 7.954 1.86 13.14.742 26.241-3.022 31.998-9.195 4.947-5.304 5.794 1.679.996 8.204-5.56 7.56-6.014 7.659-35.14 7.663-23.749.003-25.749-.131-25.75-1.728zm68.557 1.456c-1.219-1.219-.405-2.33 2.845-3.88 1.872-.892 3.952-2.798 4.623-4.234 1.535-3.287 2.949-23.367 3.246-46.111.268-20.51-.701-23.943-7.771-27.529-6.432-3.262-6.712-3.51-5.56-4.899.664-.8 4.089-1.295 9.514-1.374 10.108-.148 10.421.073 15.286 10.788 14.399 31.713 26.732 57.023 27.639 56.721.595-.198 7.98-15.166 16.411-33.261s15.864-33.241 16.519-33.658c1.592-1.012 15.44-1.003 16.066.01.763 1.235-.642 2.86-3.152 3.643-1.252.391-3.049 1.889-3.993 3.329-1.489 2.273-1.676 4.938-1.412 20.174l1.014 34.791c.781 18.935 1.035 19.682 7.45 21.853 1.77.599 3.218 1.717 3.218 2.485 0 1.125-2.68 1.405-13.809 1.442-15.072.05-18.506-1.01-12.809-3.956 4.489-2.322 4.972-5.623 4.039-27.64l-.872-23.67c-.027-2.337-.461-4.25-.964-4.25-.972 0-12.606 23.349-21.764 43.678-5.939 13.184-7.514 15.322-10.089 13.697-1.39-.877-8.089-14.616-22.638-46.429-3.136-6.858-4.003-8.066-4.611-6.427-.412 1.11-1.079 10.843-1.484 21.629-.894 23.839-.416 26.102 6.103 28.897 2.418 1.036 4.396 2.55 4.396 3.362 0 1.233-2.225 1.47-13.442 1.427-7.393-.028-13.693-.302-14-.609zm256.617-.846c-1.307-.949-.909-1.522 2.598-3.735 2.278-1.438 4.723-3.633 5.434-4.879.932-1.632 1.385-9.04 1.621-26.515.471-34.82-1.156-42.559-9.886-47.018-6.361-3.249-5.753-4.673 2.145-5.023 5.189-.23 7.026.088 8.654 1.5 1.137.986 14.53 15.967 29.764 33.292l28.596 31.833c.909.337 1.516-25.116 1.022-42.833-.41-14.697-1.826-17.328-10.44-19.395-1.93-.463-2.714-1.21-2.49-2.374.287-1.492 1.889-1.698 13.239-1.698 9.265 0 13.026.344 13.318 1.219.223.67-.704 1.725-2.062 2.344s-2.968 2.221-3.579 3.561c-.752 1.65-1.11 14.805-1.11 40.767 0 32.235-.23 38.522-1.448 39.532-.856.711-2.036.863-2.888.372-.792-.456-13.219-14.329-27.616-30.829s-26.823-30.145-27.612-30.323c-1.219-.274-1.434 3.504-1.421 25 .017 29.904-.117 29.381 8.387 32.764 2.218.883 2.626 1.431 1.73 2.327-1.561 1.561-23.83 1.656-25.957.111zm81.491-71.045c-1.545-1.545-.609-6.294 1.46-7.401 4.601-2.462 9.307 3.234 5.674 6.868-1.283 1.283-6.029 1.638-7.133.533z" fill="#c7c7c7"/><path d="M61.924 147.594c-13.799-11.514-16.866-16.577-10.045-16.577 3.865 0 9.156-1.091 9.156-1.888 0-.351-1.013-1.082-2.25-1.625-1.747-.766-2.32-1.954-2.561-5.311-.175-2.431.233-4.979.932-5.821 1.073-1.293.707-1.454-2.689-1.176-4.359.356-4.52.878-2.945 9.571.517 2.854.414 4.25-.311 4.25-1.342 0-5.288-8.716-4.934-10.899.212-1.306-.756-1.601-5.24-1.601h-5.5l-4.229-8.5C21.452 88.214 17.433 75.485 14.582 55.04c-1.885-13.515-2.108-41.061-.347-42.823.856-.856 7.113-1.2 21.81-1.2 19.289 0 20.996-.151 26.631-2.36l6.021-2.36 6.419 2.343c5.946 2.17 7.932 2.344 26.969 2.36 14.63.012 20.896.362 21.75 1.217.835.835 1.2 6.138 1.2 17.421 0 28.631-5.182 51.863-16.812 75.379l-5.688 11.5-4.25.308c-4.635.335-4.729.429-3.226 3.238 1.66 3.102.074 6.94-3.59 8.688-3.051 1.455-3.516 1.444-5.939-.144-2.027-1.328-2.375-2.029-1.519-3.06.61-.736.829-2.456.486-3.824-.348-1.387-.146-2.782.457-3.155 2.31-1.427 1.089-3.55-2.041-3.55-2.433 0-2.887.284-2.054 1.287.588.708.98 3.296.872 5.75-.157 3.565-.649 4.661-2.446 5.45-1.237.543-2.25 1.274-2.25 1.625 0 .797 5.291 1.888 9.156 1.888 5.789 0 4.766 2.828-4.05 11.194-4.537 4.305-9.504 8.477-11.039 9.271-2.712 1.402-2.971 1.292-9.179-3.888zm10.111-10.009c0-1.551-.722-2.662-1.991-3.065-2.703-.858-4.009.138-4.009 3.056 0 2.046.486 2.441 3 2.441s3-.396 3-2.433zm0-9.508c0-.518-.482-1.239-1.071-1.603-1.617-.999-.088-8.685 2.106-10.582 2.582-2.233 1.533-2.874-4.702-2.874-5.836 0-6.27.358-3.441 2.84 2.555 2.242 3.367 8.344 1.47 11.053-1.419 2.025-1.337 2.108 2.08 2.108 1.956 0 3.557-.423 3.557-.941zm-8-4.059c0-.55-.9-1-2-1s-2 .45-2 1 .9 1 2 1 2-.45 2-1zm14 0c0-.55-.9-1-2-1s-2 .45-2 1 .9 1 2 1 2-.45 2-1zm13.75-3.25c-.229-.687-1.017-1.25-1.75-1.25s-1.521.563-1.75 1.25c-.248.744.461 1.25 1.75 1.25s1.998-.506 1.75-1.25zm-15.828-13.907c5.411-2.249 5.336-3.798-.186-3.828-1.52-.008-3.657-.574-4.75-1.256-1.581-.987-2.392-.987-3.973 0-1.093.682-3.081 1.241-4.418 1.241s-3.245.312-4.238.693c-1.429.548-.767 1.163 3.168 2.939 6.293 2.84 8.011 2.866 14.397.212zM62.206 94.362c2.077-1.879 2.422-6.352.629-8.145-.66-.66-3.045-1.2-5.3-1.2s-4.64-.54-5.3-1.2c-.816-.816-1.2-5.557-1.2-14.808V55.402l-4.443-3.132c-4.898-3.453-8.363-8.848-6.73-10.481.663-.663 4.46.159 11.335 2.454l10.337 3.452-.023 5.411c-.012 2.976-.237 9.911-.5 15.411l-.477 10h8.5 8.5l-.477-10c-.263-5.5-.488-12.435-.5-15.411l-.023-5.411 10.338-3.452c11.044-3.688 13.408-3.493 11.13.916-1.776 3.439-5.077 6.844-8.218 8.478l-2.75 1.431v13.774c0 9.38-.383 14.157-1.2 14.974-.66.66-3.045 1.2-5.3 1.2-4.7 0-6.5 1.349-6.5 4.871 0 5.009 2.376 6.129 13.007 6.129 12.541 0 14.97-1.441 20.227-12 2.054-4.125 3.741-7.838 3.75-8.25s-1.307-.75-2.925-.75c-4.157 0-4.441-1.259-1.023-4.534 4.035-3.866 3.733-4.704-1.417-3.931-5.548.832-6.829-.813-2.952-3.792 3.82-2.935 9.873-9.513 11.429-12.421 1.156-2.16.931-2.709-2.583-6.309-3.757-3.847-3.822-4.037-2.681-7.844 1.584-5.288 1.539-5.575-1.42-9.092-1.977-2.349-3.411-3.077-6.066-3.077-1.912 0-4.284.432-5.271.96-1.351.723-2.618.353-5.129-1.5-2.621-1.934-4.55-2.46-9.018-2.46-6.763 0-7.41.603-9.825 9.17-.997 3.535-2.349 6.33-3.062 6.33-.702 0-2.17-2.925-3.261-6.5s-2.444-7.062-3.005-7.75c-.599-.734-3.368-1.25-6.704-1.25-4.467 0-6.397.526-9.018 2.46-2.511 1.853-3.778 2.223-5.129 1.5-.987-.528-3.359-.96-5.271-.96-2.655 0-4.089.727-6.066 3.077-2.959 3.517-3.004 3.805-1.42 9.092 1.138 3.799 1.07 4.002-2.601 7.761-2.633 2.696-3.587 4.419-3.165 5.715.695 2.134 7.755 9.882 11.931 13.094 3.876 2.982 2.596 4.627-2.952 3.795-5.151-.772-5.453.065-1.417 3.931 3.418 3.275 3.134 4.534-1.023 4.534-1.618 0-2.934.338-2.925.75s1.696 4.125 3.75 8.25c5.239 10.523 7.707 12 20.053 12 7.458 0 9.92-.359 11.352-1.655zm73.079 56.405c.613-1.839 552.887-1.839 553.5 0 .333.998-55.461 1.25-276.75 1.25s-277.083-.252-276.75-1.25zm2.081-11.142c-2.502-2.152-2.819-3.156-3.165-9.997-.503-9.959.22-12.838 3.12-12.426 2.052.292 2.251.968 2.715 9.211.395 7.026.868 9.127 2.25 9.995 1.272.799 2.228.799 3.5 0 1.382-.868 1.855-2.969 2.25-9.995.463-8.242.663-8.919 2.715-9.211 2.933-.417 3.685 2.683 3.051 12.571-.431 6.712-.806 7.882-3.183 9.927-3.681 3.166-9.522 3.134-13.252-.075zm62.131 1.152c-.293-.763-.404-6.309-.247-12.324l.286-10.936 2.644-.306c2.279-.264 3.082.459 5.811 5.229 4.151 7.254 5.044 7.647 5.044 2.218 0-5.701.762-7.641 3-7.641 2.553 0 3 1.929 3 12.959 0 7.718-.336 10.075-1.584 11.11-2.26 1.876-4.269.314-8.299-6.456-1.86-3.125-3.658-5.407-3.994-5.07s-.839 3.16-1.118 6.274c-.389 4.356-.91 5.739-2.259 5.996-.964.184-1.993-.291-2.286-1.054zm66.24.608c-.386-.386-.701-6.058-.701-12.604 0-11.772.025-11.899 2.25-11.583 2.19.311 2.25.637 2.25 12.306 0 10.027-.253 12.035-1.549 12.285-.852.164-1.864-.017-2.25-.403zm54.582-.618c-1.461-1.9-6.468-21.643-5.774-22.766.334-.541 1.48-.984 2.545-.984 1.515 0 2.3 1.306 3.605 6 .917 3.3 2.027 6 2.466 6s1.292-1.912 1.896-4.25c1.924-7.449 2.08-7.75 3.987-7.75 1.03 0 2.162.467 2.516 1.039.745 1.205-4.227 20.852-5.747 22.711-.562.688-1.812 1.25-2.777 1.25s-2.188-.562-2.716-1.25zm56.383.583c-.367-.367-.667-5.992-.667-12.5v-11.833h8.07c7.796 0 8.059.076 7.75 2.25-.269 1.895-1.029 2.299-4.82 2.563-2.475.172-4.908.716-5.408 1.208-1.482 1.46 1.386 3.979 4.53 3.979 2.211 0 2.878.463 2.878 2 0 1.953-.855 2.387-4.097 2.078-2.107-.201-4.279 2.499-3.546 4.409.409 1.067 2.032 1.513 5.505 1.513 5.069 0 7.11 1.629 4.86 3.878-1.194 1.194-13.931 1.579-15.055.455zm61.035.035c-.386-.386-.701-6.026-.701-12.535v-11.833h6.545c5.616 0 6.894.348 9 2.455 2.877 2.877 3.101 5.643.775 9.58-1.58 2.675-1.573 3.078.113 6.817 1.957 4.339 1.514 6.148-1.505 6.148-1.325 0-2.657-1.448-4.14-4.5-2.918-6.007-5.555-6.121-5.98-.259-.294 4.05-2.234 5.999-4.106 4.127zm10.799-16.868c0-1.342-.778-2.11-2.365-2.335-2.883-.408-4.62 1.127-3.773 3.334.944 2.459 6.138 1.613 6.138-1zm53.135 15.427c-1.449-1.14-2.635-2.667-2.635-3.393 0-2.122 3.13-2.727 5.062-.978 2.115 1.914 6.438 1.556 6.438-.532 0-.812-2.157-2.616-4.792-4.01-7.132-3.77-8.632-7.571-4.669-11.826 4.095-4.395 15.504-1.652 13.614 3.274-.664 1.73-3.212 2.06-4.153.537-.917-1.484-5.5-1.216-5.5.322 0 .727 2.202 2.317 4.892 3.533 5.678 2.566 7.816 6.152 6.201 10.401-1.908 5.018-9.655 6.45-14.458 2.672zm61.066 1.44c-.386-.386-.701-6.058-.701-12.604 0-11.772.025-11.899 2.25-11.583 2.19.311 2.25.637 2.25 12.306 0 10.027-.253 12.035-1.549 12.285-.852.164-1.864-.017-2.25-.403zm55.5-.625c-.613-.738-1.247-5.126-1.408-9.75-.281-8.041-.403-8.433-2.794-8.995-1.614-.379-2.5-1.28-2.5-2.542 0-1.787.732-1.955 8.5-1.955s8.5.168 8.5 1.955c0 1.262-.886 2.163-2.5 2.542-2.402.564-2.52.957-3 10.035-.402 7.587-.814 9.508-2.092 9.751-.876.167-2.093-.301-2.706-1.04zm59.5.625c-.386-.386-.702-2.539-.702-4.785 0-2.46-1.193-6.604-3-10.423-3.687-7.793-3.754-9.16-.448-9.16 1.97 0 2.884.797 4.013 3.5.804 1.925 1.637 3.5 1.85 3.5s1.317-1.575 2.453-3.5c1.284-2.176 2.835-3.5 4.099-3.5 2.668 0 2.567 1.738-.505 8.684-1.396 3.157-2.864 8.003-3.262 10.767-.685 4.762-2.581 6.834-4.498 4.917zm-542.701-32.868c0-1.33 31.444-1.5 277-1.5l277 1.5c0 1.33-31.444 1.5-277 1.5s-277-.17-277-1.5zm31.892-9.949c-21.262-5.863-33.547-26.131-30.115-49.682 2.215-15.196 11.322-27.691 24.812-34.041 11.785-5.548 29.125-5.49 41.151.138 3.566 1.669 7.729 3.034 9.25 3.034 2.678 0 2.802.241 3.888 7.541.617 4.147 1.122 8.422 1.122 9.5 0 3.424-2.558 2.121-5.87-2.989-4.423-6.825-11.274-12.584-17.983-15.115-7.407-2.794-19.157-2.355-26.861 1.005-6.805 2.968-13.361 10.041-16.319 17.609-3.259 8.336-3.286 24.05-.057 33.366 7.838 22.617 28.65 32.435 48.937 23.084 6.744-3.109 13.508-8.969 16.8-14.555.787-1.335 1.481-1.627 2.215-.931 1.028.976-.526 10.517-2.137 13.124-1.1 1.779-13.017 7.273-19.184 8.844-7.164 1.825-23.146 1.861-29.647.068zm56.396.107c-.544-.88 3.393-4.588 4.921-4.635 2.3-.072 2.894-9.365 2.601-40.669-.287-30.619-.452-33.302-2.164-35.193-1.02-1.126-3.157-2.333-4.75-2.683s-2.896-1.275-2.896-2.057c0-1.162 2.638-1.421 14.5-1.421 10.945 0 14.495.306 14.478 1.25-.012.688-1.472 1.925-3.245 2.75-5.692 2.648-5.769 3.219-5.488 40.701.198 26.517.549 34.493 1.56 35.5.904.9 4.292 1.273 11.028 1.214 12.128-.106 22.372-2.926 26.72-7.356 4.871-4.963 7.185-3.319 3.999 2.842-1.401 2.71-7.88 9.054-9.336 9.142-.393.024-2.74.44-5.215.924-2.555.5-10.335.514-18 .033-7.425-.466-16.793-.524-20.818-.129-4.29.421-7.556.333-7.894-.214zm64.415.071c-.883-.611-.707-1.151.665-2.03 6.651-4.265 6.102-.921 6.419-39.052.332-39.945.202-40.764-6.776-42.643-5.187-1.397-4.811-3.56.582-3.352 11.846.458 49.649.317 50.466-.187.527-.326 1.855-.308 2.95.039 1.697.539 1.976 1.47 1.891 6.315-.187 10.656-2.28 13.544-4.654 6.421-.781-2.344-2.336-4.751-3.454-5.35s-7.359-1.334-13.867-1.634c-17.386-.801-16.925-1.284-16.925 17.733 0 18.232-.537 17.611 14.352 16.585 11.377-.784 13.397-1.553 14.825-5.65.56-1.607 1.65-2.923 2.421-2.923 1.125 0 1.402 2.372 1.402 12 0 9.709-.272 12-1.422 12-.782 0-1.943-1.578-2.58-3.508-1.666-5.049-3.988-5.897-16.282-5.948-8.532-.035-10.983.269-11.735 1.456-.523.825-.957 7.812-.966 15.527-.021 19.344-.446 18.839 15.373 18.266 13.553-.491 20.064-2.525 25.181-7.866 3.411-3.561 5.43-3.749 5.43-.505 0 3.71-5.919 10.782-11.236 13.423-4.647 2.309-4.962 2.329-19.993 1.315-8.399-.567-18.78-.709-23.068-.315s-8.338.341-9-.117zm68.713.355c-1.021-1.021-.195-2.147 2.662-3.624 4.775-2.469 5.745-6.287 6.881-27.093 2.01-36.812 1.326-44.152-4.597-49.353-1.87-1.642-4.516-3.265-5.881-3.608s-2.482-1.249-2.482-2.014c0-1.917 18.239-2.013 19.824-.104.588.708 7.109 14.321 14.491 30.25 17.375 37.492 16.907 36.555 18.082 36.164.554-.185 7.91-15.156 16.345-33.269s15.984-33.424 16.773-34.025c1.98-1.506 14.703-1.255 15.221.3.221.664-1.175 1.866-3.104 2.672-5.873 2.454-6.13 4.716-4.809 42.286 1.254 35.674 1.362 36.237 7.26 37.929 1.793.514 3.445 1.491 3.672 2.17.314.941-2.94 1.235-13.672 1.235-7.746 0-14.083-.255-14.083-.567s1.632-2.107 3.628-3.989l3.628-3.421-.655-21.261c-.705-22.88-1.355-30.761-2.537-30.761-.855 0-11.589 21.548-21.508 43.177-3.702 8.072-7.324 14.904-8.049 15.183s-2-.251-2.832-1.177-6.924-13.374-13.537-27.664-12.451-26.123-12.973-26.297c-1.156-.385-2.529 26.482-2.023 39.616.338 8.785.525 9.48 3.165 11.75 1.543 1.327 3.654 2.413 4.691 2.413 1.979 0 3.623 1.714 2.613 2.724-.665.665-25.545 1.007-26.193.36zm117.083-.674c-2.75-.859-5.746-2.315-6.657-3.236-1.87-1.888-6.305-18.616-5.347-20.167 1.213-1.963 2.436-.948 4.511 3.743 4.073 9.21 12.164 15.092 21.986 15.983 13.781 1.25 24.404-8.544 21.814-20.111-1.322-5.903-5.011-9.181-14.243-12.655-15.755-5.929-20.423-8.155-24.603-11.733-12.665-10.841-9.933-29.208 5.464-36.741 6.622-3.24 17.371-3.718 25.192-1.12 2.761.917 6.115 1.546 7.452 1.397 2.197-.244 2.542.259 3.585 5.23 1.674 7.982 1.66 14-.032 14-.758 0-1.963-1.41-2.676-3.133-4.227-10.205-17.885-16.824-28.553-13.837-6.348 1.777-10.392 6.663-10.392 12.554 0 9.203 3.503 12.596 18.532 17.95 20.25 7.215 26.601 13.129 27.296 25.417.472 8.355-.781 12.465-5.469 17.943-5.823 6.803-12.092 9.428-23.358 9.78-6.55.205-11.052-.188-14.5-1.265zm79.524-.012c-25.281-6.794-37.392-34.384-27.061-61.644 2.54-6.703 10.187-15.585 16.706-19.405 16.129-9.452 39.589-8.639 53.767 1.865 6.541 4.846 12.867 13.698 15.056 21.069 2.25 7.575 1.988 22.359-.528 29.828-4.627 13.734-14.664 23.864-27.608 27.862-7.915 2.445-22.075 2.643-30.33.425zm31.476-5.647c26.771-13.8 24.787-59.374-3.205-73.591-9.185-4.665-22.571-5.13-30.964-1.074-5.258 2.541-11.877 9.664-14.624 15.739-2.957 6.537-3.616 23.508-1.235 31.804 3.975 13.85 14.031 25.128 25.852 28.992 6.571 2.148 18.114 1.255 24.176-1.87zm27.5 4.935c0-.723 1.6-2.078 3.555-3.01 6.294-3.001 6.621-4.993 6.262-38.053-.3-27.534-.434-29.34-2.46-33.122-2.54-4.739-4.841-6.973-8.69-8.437-4.858-1.847-2.665-3.448 4.394-3.208 7.687.261 3.781-3.421 40.3 37.995 17.347 19.673 26.192 28.997 26.867 28.322.645-.645.867-10.715.618-28.044-.442-30.772-.536-31.136-8.905-34.246-7.678-2.853-6.02-3.743 7.593-4.074 6.964-.169 12.9.079 13.191.553s-.764 1.893-2.346 3.154c-2.687 2.143-2.919 2.904-3.534 11.639-.362 5.141-.7 23.409-.752 40.596-.09 29.832-.179 31.25-1.965 31.25-1.204 0-11.548-11.051-29.017-31-14.93-17.05-27.588-31-28.129-31-.62 0-.983 9.907-.983 26.809 0 29.469.041 29.685 6.078 31.717 1.816.611 3.479 1.643 3.695 2.293.289.868-3.074 1.181-12.69 1.181-10.144 0-13.083-.295-13.083-1.315zm82.52-71.685c-.163-.275-.234-1.625-.158-3 .113-2.049.718-2.556 3.353-2.811 2.718-.263 3.313.077 3.844 2.193.346 1.377.346 2.96.002 3.518-.616.996-6.462 1.079-7.041.1z" fill="#b7b7b7"/><path d="M60.344 145.758c-3.955-3.433-8.38-7.7-9.833-9.484l-2.642-3.243 2.333-.846c1.283-.465 6.158-1.393 10.833-2.062 7.089-1.015 10.039-.966 17.773.294 5.1.831 9.724 1.79 10.276 2.131.586.362-.071 1.939-1.582 3.795-3.842 4.72-16.742 15.657-18.467 15.657-.825 0-4.736-2.808-8.691-6.241zm12.129-7.347c.472-1.881.155-2.985-1.142-3.968-.988-.749-2.021-1.362-2.296-1.362s-1.308.613-2.296 1.362c-2.841 2.154-1.297 6.575 2.296 6.575 2.165 0 2.928-.579 3.437-2.606zm63.201 12.106c.51-1.328 32.141-1.5 276.362-1.5l276.362 1.5c.511 1.331-30.606 1.5-276.362 1.5s-276.872-.169-276.362-1.5zm3.677-9.507c-3.439-1.386-4.315-4.201-4.315-13.868 0-9.119.848-11.325 3.506-9.12.978.811 1.508 3.869 1.706 9.836l.288 8.659 2.891.33c3.909.446 4.575-.999 4.593-9.958.015-7.616 1.432-10.969 3.972-9.4 1.122.694 1.472 17.247.423 19.982-1.373 3.577-8.306 5.454-13.063 3.538zm60.806-.271c-1.183-1.183-1.604-19.301-.515-22.14 1.32-3.439 4.433-1.633 8.575 4.972 2.26 3.605 4.468 6.192 4.906 5.75s.935-3.279 1.104-6.304c.228-4.086.693-5.5 1.807-5.5 1.229 0 1.551 2.061 1.784 11.416.156 6.279-.133 11.833-.643 12.343-1.701 1.701-4.74-1.027-8.041-7.22-1.78-3.34-3.656-5.813-4.169-5.496s-.932 3.201-.932 6.41c0 5.962-1.482 8.166-3.878 5.77zm66.06.391c-.911-.563-1.174-3.874-.966-12.193.265-10.658.418-11.42 2.284-11.42s2.019.76 2.281 11.102c.287 11.311-.593 14.369-3.599 12.511zm55.047.05c-1.428-.906-7.106-21.032-6.471-22.937.67-2.009 3.215-1.392 4.229 1.024.519 1.237 1.427 4.162 2.017 6.5s1.488 4.25 1.996 4.25 1.406-1.912 1.996-4.25c1.613-6.392 2.806-8.75 4.424-8.75 2.611 0 2.564 1.546-.374 12.5-3.107 11.582-4.551 13.735-7.816 11.663zm55.221-.433c-.287-.747-.393-6.279-.236-12.294l.286-10.936 7.264-.294c5.895-.239 7.379.005 7.874 1.293.862 2.246-.077 2.844-5.43 3.46-3.861.444-4.708.901-4.708 2.541 0 1.524.833 2.119 3.5 2.5 2.222.317 3.5 1.048 3.5 2s-1.278 1.683-3.5 2c-2.933.419-3.5.905-3.5 3 0 2.267.467 2.547 5 3 4.167.417 5 .833 5 2.5 0 1.789-.765 2.031-7.264 2.294-5.409.219-7.398-.053-7.786-1.064zm61.732.383c-.911-.563-1.174-3.874-.966-12.193l.284-11.42 5.064-.296c6.692-.391 9.948.959 11.238 4.659.845 2.424.683 3.722-.834 6.697-1.846 3.621-1.845 3.762.045 7.467 1.713 3.358 1.758 3.916.406 5.038-1.848 1.534-3.604.08-6.212-5.143-2.298-4.604-4.62-4.487-5.014.251-.335 4.024-2.059 6.146-4.012 4.939zm8.884-14.148c2.475-1.324 2.478-3.604.007-4.926-2.682-1.435-5.073-.264-5.073 2.485 0 1.931.797 2.893 2.816 3.397.174.043 1.186-.387 2.25-.956zm55.111 13.002c-1.828-1.114-3.141-2.575-2.917-3.246.644-1.934 3.718-2.05 5.743-.218 1.17 1.059 2.618 1.435 3.926 1.02 3.506-1.113 2.431-3.949-2.382-6.288-5.698-2.768-7.957-6.023-6.621-9.539 1.162-3.057 3.88-4.696 7.786-4.696 5.067 0 9.633 4.886 5.903 6.318-.762.292-2.358-.15-3.546-.982s-2.815-1.263-3.615-.956c-2.675 1.027-1.511 3.699 2.296 5.271 5.38 2.222 7.252 4.228 7.235 7.754-.018 3.655-.724 4.895-3.669 6.445-3.198 1.683-6.384 1.406-10.139-.884zm61.005 1.146c-.911-.563-1.174-3.874-.966-12.193.265-10.658.418-11.42 2.284-11.42s2.019.76 2.281 11.102c.287 11.311-.593 14.369-3.599 12.511zm55.485.221c-.367-.367-.674-4.304-.682-8.75-.017-8.792-.46-10.158-3.485-10.731-1.201-.228-2-1.173-2-2.366 0-1.816.685-1.986 7.986-1.986 6.828 0 8.035.255 8.325 1.76.246 1.28-.5 1.928-2.736 2.375l-3.075.615v8.675c0 9.189-1.632 13.109-4.333 10.408zm59.455-.611c-.617-.617-1.122-2.79-1.122-4.829s-1.35-6.716-3.001-10.395-2.749-7.095-2.441-7.593c1.172-1.897 3.587-.773 5.574 2.595 2.527 4.283 3.369 4.369 4.722.487 1.147-3.29 3.69-4.842 5.299-3.233.692.692.028 3.276-2.067 8.05-1.751 3.991-3.086 8.751-3.086 11.007 0 4.147-1.814 5.976-3.878 3.911zm-593.23-13.352c-1.218-1.467-1.03-1.559 1.878-.921 3.834.842 4.31-.637.73-2.267-2.97-1.353-3.423-5.566-.758-7.057.958-.536 1.52-1.192 1.25-1.458s-4.716-1.21-9.878-2.098c-7.479-1.287-10.629-1.398-15.5-.544-23.558 4.13-25.055 4.25-26.938 2.169-2.479-2.739-11.549-22.667-14.711-32.323-4.642-14.173-7.967-36.641-7.949-53.718.008-8.06.441-15.329.962-16.154.778-1.233 4.909-1.592 23.235-2.02 18.998-.443 22.99-.807 27.038-2.466 4.706-1.928 4.794-1.928 9.5 0 4.045 1.657 8.04 2.023 26.919 2.466 12.193.286 22.543.896 23 1.355s.813 8.784.791 18.5c-.064 28.181-4.328 48.031-15.386 71.62-6.539 13.95-7.214 14.706-12.385 13.879-3.684-.589-3.953-.483-3.203 1.261 1.983 4.614 1.764 8.116-.614 9.781-2.963 2.075-6.255 2.072-7.98-.007zm6.662-5.457c.941-1.522-1.102-3.3-2.97-2.584-.898.345-1.302 1.242-.96 2.133.682 1.779 2.949 2.038 3.93.451zm-14.706-15.038c5.744-2.387 5.865-3.874.315-3.874-2.045 0-4.719-.701-5.941-1.557-2.012-1.409-2.433-1.409-4.445 0-1.222.856-4.147 1.557-6.5 1.557s-4.277.394-4.277.875c0 1.324 9.074 4.952 12.617 5.044 1.714.044 5.418-.876 8.231-2.045zM63.478 93.795c.856-1.222 1.557-2.99 1.557-3.927 0-2.76-4.825-5.85-9.135-5.85h-3.865l-.015-13.75c-.008-7.562-.346-14.224-.75-14.803s-2.31-2.01-4.235-3.181c-3.336-2.029-7-6.828-7-9.171 0-.603.786-1.096 1.747-1.096 2.568 0 17.547 5.046 18.998 6.4.961.896 1.024 3.439.276 11.131-.533 5.483-.981 12.107-.995 14.719l-.026 4.75h9 9l-.026-4.75c-.014-2.612-.462-9.236-.995-14.719-.748-7.692-.685-10.235.276-11.131 1.451-1.354 16.43-6.4 18.998-6.4.961 0 1.747.493 1.747 1.096 0 2.342-3.664 7.142-7 9.171-1.925 1.17-3.831 2.602-4.235 3.181s-.742 7.24-.75 14.803l-.015 13.75H82.17c-4.31 0-9.135 3.09-9.135 5.85 0 .938.701 2.705 1.557 3.927 1.442 2.058 2.337 2.223 12.132 2.223 13.68 0 15.899-1.219 20.814-11.438 4.371-9.087 4.44-10.562.498-10.562-3.794 0-3.794-1.037 0-3.842 4.637-3.428 3.94-4.955-2-4.384-2.75.264-5 .258-5-.014s3.15-3.701 7-7.621c4.414-4.493 7-7.944 7-9.34 0-1.218-1.547-3.808-3.439-5.757-3.334-3.434-3.404-3.67-2.31-7.728 1.422-5.277.102-8.563-4.37-10.875-2.665-1.378-3.851-1.464-7.034-.511-3.378 1.012-4.159.902-6.651-.94-2.346-1.734-3.995-2.036-9.76-1.787l-6.937.3-2.312 7.25c-1.272 3.987-2.706 7.25-3.188 7.25s-1.916-3.263-3.188-7.25l-2.312-7.25-6.937-.3c-5.789-.25-7.41.05-9.795 1.813-2.511 1.856-3.284 1.972-6.372.953-8.258-2.725-15.377 5.596-11.302 13.211.932 1.741.561 2.592-2.5 5.726-5.171 5.296-4.762 7.137 3.405 15.304 3.85 3.85 7 7.236 7 7.524s-2.25.308-5 .043c-5.94-.571-6.637.956-2 4.384 1.65 1.22 3 2.583 3 3.03s-1.35.812-3 .812c-3.941 0-3.873 1.475.486 10.538 4.935 10.259 7.041 11.424 20.707 11.445 9.926.016 10.805-.143 12.25-2.206zM49.035 126.24c0-.978-.675-2.741-1.5-3.919-1.493-2.132-1.116-5.304.632-5.304 1.046 0 2.283 3.003 3.195 7.75.476 2.48.274 3.25-.851 3.25-.811 0-1.475-.8-1.475-1.777zm8.832.744c-1.221-.712-1.586-2.072-1.362-5.072.404-5.42 2.412-7.433 6.165-6.182 2.304.768 2.993 1.758 3.695 5.309.726 3.671.579 4.573-.925 5.672-2.095 1.532-5.223 1.645-7.573.273zm5.668-2.896c0-.772-.45-1.546-1-1.72-1.641-.52-3.812 1.336-3.035 2.594.964 1.561 4.035.895 4.035-.874zm-.5-5.57c0-.825-.675-1.5-1.5-1.5s-1.5.675-1.5 1.5.675 1.5 1.5 1.5 1.5-.675 1.5-1.5zm8.575 7.583c-1.369-1.513-1.504-2.347-.641-3.959.601-1.123 1.034-2.398.961-2.833-.537-3.217 3.583-5.175 7.018-3.337 2.385 1.276 3.291 8.699 1.305 10.685-1.97 1.97-6.629 1.67-8.643-.556zm6.425-1.615c0-1.597-2.658-3.144-3.667-2.135-.319.319-.314 1.275.012 2.124.767 1.999 3.655 2.008 3.655.012zm0-5.969c0-.825-.675-1.5-1.5-1.5s-1.5.675-1.5 1.5.675 1.5 1.5 1.5 1.5-.675 1.5-1.5zm57.497-9.505c-.343-.555-.032-1.233.69-1.508 2.675-1.016 552.313-.008 552.313 1.013 0 1.395-552.141 1.889-553.003.495zm34.612-10.076c-17.527-3.442-30.772-17.69-32.974-35.473-2.689-21.71 6.862-39.933 25.501-48.655 11.593-5.425 28.281-4.976 41.542 1.118 2.378 1.093 5.667 2.123 7.31 2.289 2.948.299 3.002.413 4.193 8.803.664 4.675.851 8.859.416 9.298s-2.913-2.093-5.508-5.627c-5.177-7.052-11.17-11.872-17.789-14.307-5.07-1.865-16.577-2.115-22.456-.488-9.28 2.569-18.568 11.653-21.416 20.946-.62 2.023-1.35 7.502-1.622 12.177-1.145 19.647 7.557 36.893 22.196 43.987 4.13 2.002 6.575 2.431 14.052 2.468 8.507.042 9.514-.183 16.732-3.751 4.775-2.36 8.817-5.197 10.686-7.5l5.085-6.204 2.079-2.5-.626 5.5c-.835 7.332-2.304 9.284-9.73 12.931-10.835 5.321-25.849 7.309-37.668 4.988zm151.892-.156c-5.225-.486-15.012-.659-21.75-.384-7.086.289-12.25.114-12.25-.414 0-.502 1.343-1.608 2.986-2.457s3.236-2.548 3.542-3.776.425-18.048.264-37.378c-.27-32.583-.427-35.296-2.145-37.193-1.02-1.126-3.157-2.333-4.75-2.683s-2.896-.938-2.896-1.307 13.156-.671 29.236-.671c33.043 0 30.278-.85 29.024 8.917-.761 5.923-3.26 9.159-3.26 4.222 0-1.39-1.086-3.79-2.413-5.333-2.391-2.781-2.535-2.809-16.028-3.155-9.703-.249-14.039.002-15.087.872-1.182.981-1.472 4.34-1.472 17.08v15.859l2.585.649c2.983.749 21.142-.052 23.501-1.037.872-.364 2.339-2.241 3.259-4.171s2.041-3.282 2.491-3.004c1.045.646.646 22.577-.412 22.69-.435.047-1.497-1.404-2.358-3.224s-2.691-3.877-4.066-4.572c-3.309-1.672-22.148-1.745-23.8-.092-1.744 1.744-1.663 30.784.092 33.185 2.793 3.82 22.699 2.921 32.652-1.475 2.506-1.107 5.967-3.378 7.693-5.048 5.418-5.242 5.277.451-.188 7.616-4.71 6.175-10.266 7.603-24.449 6.285zm154.633.128c-8.943-2.1-10.266-3.343-12.542-11.78-3.496-12.955-2.341-16.231 2.345-6.653 4.535 9.27 13.078 14.542 23.564 14.542 7.211 0 11.428-1.582 15.756-5.91 4.403-4.403 5.935-9.841 4.306-15.28-1.828-6.102-5.714-9.096-17.29-13.324-23.076-8.427-29.107-13.92-29.074-26.487.024-9.263 4.168-15.83 12.789-20.266 5.552-2.857 17.697-3.541 24.105-1.357 2.621.893 6.191 1.623 7.935 1.623h3.17l1.209 8.643c.712 5.086.841 9.011.314 9.538s-2.299-1.451-4.307-4.806c-4.542-7.588-11.201-11.468-20.737-12.082-5.283-.34-7.398-.03-10.143 1.49-7.418 4.108-9.709 11.122-6.082 18.616 2.676 5.528 5.624 7.41 18.725 11.954 10.877 3.773 16.205 6.702 20.522 11.285 9.483 10.068 6.9 27.74-5.228 35.765-7.495 4.96-19.506 6.798-29.337 4.489zm78.127-.381c-7.845-1.993-13.162-4.87-18.869-10.208-9.124-8.534-13.248-18.999-13.124-33.301.149-17.277 8.347-31.463 22.254-38.51s32.668-7.281 45.813-.575c10.042 5.123 18.639 16.571 21.198 28.227 1.63 7.424.792 19.85-1.832 27.158-4.112 11.454-13.888 21.557-24.855 25.689-7.584 2.857-22.422 3.595-30.584 1.522zm28.904-4.933c23.419-10.904 27.425-47.392 7.401-67.415-9.926-9.926-24.143-13.606-37.532-9.714-7.712 2.242-15.234 9.573-18.556 18.084-3.303 8.464-3.382 24.145-.167 33.469 4.178 12.118 13.854 22.909 23.689 26.416 2.2.785 7.6 1.458 12 1.496 6.448.056 9.002-.397 13.164-2.335zm-360.664 4.149c0-.426 1.079-1.185 2.399-1.687 5.543-2.107 5.602-2.532 5.586-40.011-.016-38.058-.116-38.739-5.967-40.644-6.883-2.242-4.181-3.046 9.955-2.964 14.194.082 17.158.961 11.037 3.272-1.706.644-3.424 2.27-4 3.784-.609 1.601-1.01 16.327-1.01 37.067v34.412l2.527 1.655c2.082 1.364 4.237 1.559 12.25 1.107 12.096-.683 20.021-2.995 25.066-7.313 2.142-1.833 4.16-3.067 4.486-2.741.793.793-1.976 7.291-4.114 9.654-4.452 4.92-6.133 5.184-32.964 5.184-13.887 0-25.25-.349-25.25-.775zm134 .3c0-.536 1.262-1.627 2.805-2.425s3.385-2.722 4.093-4.276c1.537-3.372 3.023-26.791 3.069-48.363.03-14.162-.166-15.933-2.217-20-1.695-3.362-3.42-5.042-6.995-6.816-2.61-1.295-4.496-2.757-4.191-3.25s4.283-.896 8.84-.896c6.624 0 8.603.351 9.864 1.75.868.963 7.942 15.475 15.721 32.25 15.114 32.594 16.738 35.69 18.024 34.357.455-.471 7.41-15.032 15.457-32.357l16.103-33.75c1.295-1.978 2.318-2.25 8.45-2.25 7.151 0 9.062 1.257 4.529 2.98-1.346.512-3.215 2.101-4.152 3.531-1.555 2.373-1.641 5.372-.981 34.295.398 17.432 1.084 33.628 1.526 35.992.859 4.596 2.895 6.714 7.304 7.6 6.423 1.29 1.829 2.274-10.75 2.302-10.415.024-13.5-.266-13.5-1.267 0-.714.9-1.584 2.001-1.933 4.057-1.288 4.325-3.574 3.575-30.411-.392-14.026-.939-25.867-1.214-26.312s-.982-.512-1.571-.147c-.993.614-9.699 18.178-23.149 46.7-4.373 9.273-5.961 11.756-7.349 11.488-1.234-.238-5.635-8.676-14.511-27.823-7.007-15.115-13.15-27.618-13.651-27.785-1.146-.382-2.107 12.733-2.402 32.79-.258 17.529.488 19.926 6.854 22.027 6.294 2.077 3.558 2.973-9.082 2.973-7.447 0-12.5-.394-12.5-.974zm256.002-.708c-.001-.65.879-1.462 1.954-1.803s3.124-2.009 4.552-3.706l2.596-3.085-.302-31.112c-.302-31.071-.305-31.117-2.802-35.565-1.735-3.091-3.801-5.08-6.75-6.499-2.337-1.125-4.25-2.383-4.25-2.796 0-.968 12.138-.955 13.634.014.623.404 14.027 15.36 29.786 33.235s29.311 32.645 30.116 32.823c1.257.278 1.463-3.406 1.458-26-.007-32.897-.374-34.47-8.7-37.333-7.335-2.522-5.081-3.49 8.122-3.49 11.751 0 15.564.919 10.492 2.529-4.542 1.442-4.909 4.829-4.909 45.38 0 21.726-.389 38.214-.91 38.535-.5.309-1.513.301-2.25-.019s-13.452-14.49-28.255-31.489c-21.856-25.099-27.177-30.69-28.309-29.75-1.143.949-1.339 5.92-1.085 27.574l.309 26.416 2.806 2.412c1.543 1.327 3.681 2.412 4.75 2.412s1.944.615 1.944 1.366c0 1.085-2.467 1.342-11.998 1.25-8.501-.082-11.999-.46-12-1.298zm87.393-73.25c.058-1.579.442-2.664.855-2.41 1.026.63.949 4.102-.105 4.753-.47.291-.808-.764-.75-2.343z" fill="#a7a7a7"/><path d="M61.979 146.644c-9.044-7.541-13.535-12.445-12.393-13.533.521-.497 5.092-1.479 10.157-2.184 7.389-1.027 11.045-1.036 18.5-.044 5.11.68 9.721 1.666 10.247 2.192.608.607-.848 2.794-4 6.006-4.606 4.693-14.549 12.937-15.604 12.937-.255 0-3.363-2.418-6.908-5.374zm10.648-8.139c1.082-4.309-3.379-7.301-6.393-4.287-1.294 1.294-1.62 5.047-.533 6.133.367.367 1.933.667 3.481.667 2.172 0 2.958-.574 3.445-2.513zm63.407 12.013c1.101-1.327 32.993-1.5 276-1.5l276 1.5c1.106 1.333-29.673 1.5-276 1.5s-277.106-.167-276-1.5zm4.091-9.579c-4.248-1.718-5.025-3.819-5.059-13.671-.03-8.594.11-9.25 1.968-9.25 1.829 0 2 .667 2 7.777 0 8.758 1.679 12.555 5.322 12.029 3.166-.457 4.647-4.444 4.664-12.557.013-6.578.2-7.25 2.015-7.25 1.851 0 2 .667 2 8.944 0 7.874-.269 9.241-2.25 11.426-2.594 2.861-7.18 3.959-10.659 2.551zm365.909.402c-3.846-1.203-6-2.816-6-4.492 0-2.191 1.781-2.311 4.441-.299 2.393 1.81 4.969 1.884 6.379.185 1.536-1.85.089-3.602-5.446-6.595-2.667-1.442-5.007-3.445-5.2-4.451-1.398-7.285 7.871-11.483 13.32-6.034 2.547 2.547.378 3.808-3.894 2.263-2.644-.956-3.894-1.006-4.712-.188-1.607 1.607-.381 3.004 5.058 5.76 4.763 2.414 6.054 4.012 6.054 7.498 0 3.917-5.868 7.645-10 6.352zm-306-11.691c0-6.333.409-11.767.91-12.077 1.853-1.145 3.811.678 7.498 6.98 2.08 3.556 4.189 6.214 4.687 5.906s.905-3.233.905-6.5c0-5.274.224-5.941 2-5.941 1.884 0 2 .667 2 11.5 0 11.314-.037 11.5-2.287 11.5-1.765 0-3.141-1.485-6.025-6.5-2.056-3.575-4.156-6.5-4.665-6.5s-1.061 2.808-1.225 6.24c-.239 5.006-.644 6.306-2.048 6.573-1.585.302-1.75-.755-1.75-11.181zm65.701 10.736c-.386-.386-.701-5.528-.701-11.428 0-8.368.314-10.847 1.427-11.274 2.836-1.088 3.651 1.934 3.359 12.468-.232 8.392-.578 10.398-1.835 10.639-.852.163-1.864-.019-2.25-.405zm54.288-1.896c-1.985-5.221-5.081-18.792-4.583-20.09 1.055-2.749 3.525-.046 4.682 5.123 2.187 9.773 3.635 9.773 5.822 0 1.191-5.322 3.633-7.857 4.754-4.935.575 1.498-3.112 17.19-4.86 20.679-1.314 2.624-4.695 2.172-5.816-.778zm56.677 1.861c-.367-.367-.667-5.494-.667-11.393 0-12.172-.155-11.95 8.332-11.925 9.167.027 10.576 3.552 1.668 4.172-4.046.282-4.531.584-4.81 2.999-.284 2.455.018 2.713 3.5 3 5.225.431 5.271 3.193.06 3.624-3.413.282-3.75.575-3.75 3.25 0 2.753.249 2.94 3.918 2.94 4.886 0 7.082.808 7.082 2.607 0 1.064-1.732 1.393-7.333 1.393-4.033 0-7.633-.3-8-.667zm61 0c-.367-.367-.667-5.533-.667-11.481 0-10.755.014-10.818 2.547-11.454 3.552-.891 10.552.381 12.677 2.304 2.252 2.038 2.292 7.07.076 9.519-1.475 1.629-1.53 2.304-.414 5.079 2.476 6.16 2.494 6.7.218 6.7-1.533 0-2.742-1.26-4.316-4.5-2.611-5.373-5.788-6.242-5.788-1.582 0 5.089-2.071 7.677-4.333 5.415zm10.719-13.862c.841-.841 1.273-2.195.961-3.009-.647-1.687-4.707-2.976-6.29-1.998-1.168.722-1.44 4.818-.39 5.868 1.167 1.167 4.138.719 5.719-.862zm114.281 13.862c-1.324-1.324-.741-21.027.657-22.187 2.604-2.161 3.676.895 3.676 10.472 0 5.07-.273 9.93-.607 10.8-.624 1.626-2.544 2.097-3.726.915zm55.333-8.133c0-9.078-.796-11.2-4.2-11.2-2.616 0-2.209-2.859.503-3.54 1.267-.318 4.75-.439 7.741-.269 4.235.241 5.511.696 5.77 2.059.221 1.162-.296 1.75-1.541 1.75-3.482 0-4.273 2.074-4.273 11.2 0 8.133-.152 8.8-2 8.8s-2-.667-2-8.8zm59.626 7.267c-.344-.897-.626-3.115-.626-4.928s-1.166-5.845-2.592-8.958c-2.609-5.698-2.654-8.996-.11-8.02.755.29 2.136 2.126 3.068 4.08 1.407 2.951 1.944 3.347 3.164 2.334.808-.671 1.47-1.77 1.47-2.442s.891-2.029 1.979-3.014c1.873-1.695 2.015-1.698 2.648-.049.388 1.011-.29 3.691-1.615 6.386-1.256 2.554-2.56 7.113-2.898 10.132-.442 3.946-1.07 5.575-2.238 5.799-.893.171-1.906-.423-2.25-1.32zM48.565 123.457c-1.669-4.369-1.474-6.842.384-4.873.945 1.002 2.563 9.433 1.81 9.433-.249 0-1.236-2.052-2.194-4.561zm42.47 2.342c0-1.465.481-2.96 1.068-3.323s.827-1.29.531-2.059-.109-1.399.413-1.399 1.242 1.166 1.6 2.591c.478 1.904.085 3.156-1.481 4.722l-2.131 2.131zm-33.333.552c-1.065-1.065-.77-9.333.333-9.333.55 0 1 .638 1 1.417s.511 1.587 1.136 1.795c.807.269.735 1.026-.25 2.614-1.195 1.927-1.18 2.366.114 3.189 1.314.836 1.303.956-.083.969-.871.008-1.883-.285-2.25-.651zm6.423-.942c1.131-1.362 1.063-1.807-.443-2.908-1.525-1.115-1.592-1.597-.472-3.392 1.861-2.98 2.541-2.613 3.077 1.658.465 3.704-.552 6.25-2.496 6.25-.55 0-.399-.724.335-1.608zm8.074.731c-1.61-1.02-.34-9.23 1.524-9.852.712-.237.96.362.647 1.559-.28 1.069-.06 2.221.488 2.56 1.492.922 4.177-.4 4.177-2.056 0-.799.423-1.191.939-.872 1.373.849.781 8.802-.692 9.291-.803.266-1.162-.409-1-1.878.172-1.555-.345-2.417-1.603-2.678-2.703-.56-4.268 1.345-2.679 3.26 1.381 1.664.366 2.039-1.801.665zm14.036-3.322c-.66-.66-1.2-1.769-1.2-2.465 0-1.398 3.126-3.371 5.184-3.272.724.035.255.488-1.041 1.007-1.886.755-2.232 1.441-1.731 3.437.704 2.806.509 3.014-1.212 1.293zM30.151 103.91c-7.662-16.16-11.336-27.958-14.519-46.629-2.932-17.199-3.653-40.485-1.348-43.535 1.082-1.431 4.14-1.692 22.75-1.941 20.001-.268 21.809-.445 25.938-2.538 2.441-1.238 5.111-2.25 5.934-2.25s3.551 1.012 6.062 2.25c4.198 2.069 6.338 2.29 26.566 2.75l22 .5.8 6.5c1.082 8.794.03 26.774-2.424 41.427-2.465 14.721-7.075 28.936-14.337 44.214l-5.479 11.526-6.78-.5c-3.729-.275-11.237-1.282-16.685-2.239-9.316-1.636-10.517-1.641-20.196-.074-5.66.916-13.017 1.951-16.349 2.299l-6.057.633zm47.896 3.007c2.743-1.18 4.988-2.54 4.988-3.023s-1.843-.877-4.096-.877-5.403-.772-7-1.716c-2.744-1.621-3.065-1.621-5.809 0-1.597.944-4.747 1.716-7 1.716s-4.096.402-4.096.894c0 1.576 12.328 6.114 15.262 5.618 1.519-.257 5.007-1.433 7.75-2.613zM62.4 94.945c3.037-2.389 3.55-6.923 1.021-9.022-.887-.736-3.7-1.579-6.25-1.872l-4.637-.533-.5-14.335-.5-14.335-3.954-2.682c-3.852-2.614-8.339-8.689-7.234-9.794.303-.303 5.082.856 10.62 2.576l10.068 3.128-.026 4.721c-.014 2.596-.466 9.221-1.003 14.721-1.178 12.057-.859 12.5 9.029 12.5 9.782 0 10.093-.432 8.987-12.5-.504-5.5-.932-12.118-.952-14.707l-.036-4.707 10.095-3.115c5.552-1.713 10.331-2.879 10.62-2.59 1.083 1.083-3.452 7.184-7.26 9.768l-3.954 2.682-.5 14.335-.5 14.335-4.637.533c-5.667.652-7.863 2.332-7.863 6.016 0 5.062 3.854 6.95 14.185 6.95 9.495 0 12.612-.986 16.593-5.248 2.526-2.705 8.353-15.731 7.59-16.966-.267-.432-1.584-.785-2.926-.785-3.205 0-3.079-1.014.559-4.5 1.65-1.581 3-3.282 3-3.781 0-.513-2.171-.608-5-.219-2.75.378-5 .384-5 .014s2.588-3.264 5.75-6.43 6.394-6.965 7.181-8.442c1.369-2.57 1.262-2.86-2.456-6.667-3.812-3.904-3.865-4.061-2.773-8.154 1.324-4.962.473-7.751-3.263-10.689-2.949-2.319-7.399-2.759-10.6-1.046-1.636.876-2.458.682-4.249-1-1.852-1.74-3.492-2.086-9.881-2.086h-7.66l-2.179 7.5c-1.199 4.125-2.49 7.5-2.871 7.5s-1.672-3.375-2.871-7.5l-2.179-7.5h-7.66c-6.389 0-8.029.346-9.881 2.086-1.79 1.682-2.613 1.876-4.249 1-3.201-1.713-7.651-1.274-10.6 1.046-3.73 2.934-4.618 5.801-3.348 10.806 1.038 4.088.968 4.294-2.755 8.106-3.65 3.738-3.756 4.031-2.388 6.598.787 1.478 4.019 5.277 7.181 8.442s5.75 6.059 5.75 6.43-2.25.364-5-.014c-2.829-.389-5-.294-5 .219 0 .499 1.35 2.2 3 3.781 3.638 3.486 3.764 4.5.559 4.5-1.343 0-2.659.353-2.926.785-.759 1.228 5.054 14.247 7.59 16.999 3.614 3.922 7.572 5.134 16.892 5.177 7.239.033 9.036-.292 11.25-2.033zm74.303 14.408c-.368-.368-.668-1.043-.668-1.502s124.238-.833 276.083-.833l275.667 1.25c-.332.995-56.485 1.301-275.415 1.502-151.249.138-275.299-.049-275.667-.417zm36.734-10.288c-18.616-2.891-31.238-14.284-35.403-31.956-1.704-7.229-.767-20.981 1.913-28.092 4.316-11.45 14.392-21.197 26.087-25.236 5.13-1.771 8.607-2.23 16.5-2.177 9.138.062 10.798.389 19.258 3.794 5.092 2.049 9.682 3.464 10.2 3.144s1.363.218 1.877 1.196c1.283 2.437 2.572 16.278 1.516 16.276-.468-.001-2.101-1.98-3.628-4.398-3.713-5.878-10.817-12.292-16.547-14.94-6.778-3.132-21.58-3.046-28.676.168-6.499 2.943-13.848 10.228-16.472 16.328-3.661 8.509-4.309 23.307-1.504 34.343 2.581 10.156 11.606 21.19 20.976 25.645 14.53 6.909 34.208 1.596 43.99-11.878 3.651-5.029 4.884-5.341 4.018-1.018-1.776 8.868-2.305 9.577-9.835 13.194-10.732 5.154-23.608 7.259-34.27 5.603zm305.626-.159c-3.01-.515-7.053-1.712-8.985-2.662-3.189-1.567-3.719-2.464-5.748-9.726-1.229-4.4-2.248-8.562-2.265-9.25-.065-2.686 2.067-1.048 3.59 2.758 3.249 8.121 15.479 15.992 24.846 15.992 10.639 0 20.523-8.569 20.531-17.8.008-8.901-3.885-12.758-18.367-18.198-18.775-7.052-24.96-11.304-27.495-18.902-2.593-7.772-.383-17.857 4.996-22.802 6.557-6.028 19.518-8.606 28.869-5.742 3.025.926 6.974 1.708 8.775 1.738 3.624.059 3.566-.063 5.038 10.493.482 3.458.514 6.511.071 6.785s-1.704-1.261-2.801-3.411c-9.024-17.688-38.147-17.95-39.837-.359-.916 9.534 3.306 13.851 18.889 19.313 20.128 7.055 27.241 13.933 27.241 26.34 0 17.639-16.643 28.973-37.347 25.433zm78.31-.368c-20.735-3.762-34.338-20.606-34.338-42.52 0-23.42 14.769-40.508 38.148-44.139 25.011-3.884 47.077 11.202 50.889 34.792 4.193 25.95-11.837 48.723-36.842 52.339-8.148 1.178-8.864 1.159-17.857-.472zm27.015-4.904c6.67-3.263 12.96-9.917 16.487-17.441 2.438-5.2 2.66-6.725 2.66-18.229 0-12.492-.018-12.59-3.753-20.145-4.717-9.542-13.029-17.617-21.463-20.85-6.805-2.609-18.583-3.094-24.785-1.021-13.288 4.441-21.5 17.796-21.5 34.964 0 21.236 11.445 39.041 28.624 44.528 7.103 2.269 16.926 1.521 23.729-1.808zm-360.351 4.35c-.001-.294 1.346-1.33 2.993-2.303s3.334-2.982 3.75-4.466.756-18.073.756-36.867v-34.17l-2.374-2.527c-1.306-1.39-3.331-2.663-4.5-2.83s-2.013-.691-1.874-1.164c.245-.838 25.273-.948 26.107-.114.23.23-.745.861-2.168 1.402s-3.397 2.221-4.389 3.734c-1.649 2.517-1.802 5.706-1.802 37.509 0 31.113.175 34.933 1.667 36.426 1.309 1.309 3.512 1.654 10.263 1.604 13.908-.103 24.419-3.049 29.694-8.325 4.185-4.185 3.495 1.046-.813 6.166-5.148 6.118-6.392 6.359-33.06 6.411-13.337.026-24.249-.193-24.25-.487zm64.46.158c-.21-.207 1.035-1.332 2.766-2.5 1.918-1.294 3.489-3.441 4.02-5.496.48-1.855.733-18.301.562-36.546-.28-29.91-.487-33.442-2.106-35.911-1.018-1.552-3.075-2.994-4.75-3.329-1.625-.325-2.955-.872-2.955-1.216 0-1.094 56.992-.72 57.085.375.592 6.927-1.258 17.412-2.381 13.5-2.652-9.234-3.189-9.552-17.735-10.502-13.414-.876-17.448.149-18.351 4.666-1.013 5.066-.699 26.815.418 28.902.93 1.737 2.177 1.933 12.25 1.92 11.994-.016 15.392-.954 17.296-4.773 2.151-4.314 2.419-3.471 2.419 7.621 0 10.752-1.125 14.428-2.5 8.168-1.124-5.12-3.576-6.001-16.688-6.001-10.915 0-11.822.148-12.869 2.105-.736 1.376-1.008 7.124-.785 16.59.331 14.049.417 14.545 2.842 16.517 2.274 1.849 3.495 1.987 13.5 1.524 12.677-.587 20.458-2.995 25.003-7.739 1.579-1.648 3.237-2.997 3.684-2.997 1.75 0 .669 3.899-2.167 7.814-5.614 7.751-5.335 7.686-33.306 7.686-13.679 0-25.042-.169-25.252-.377zm68.996 0c-.207-.207 1.067-1.349 2.833-2.537 1.813-1.22 3.707-3.668 4.352-5.623 1.459-4.426 3.808-49.388 2.989-57.22-.983-9.406-3.519-14.019-9.259-16.845l-4.872-2.398 8-.553c4.4-.304 8.713-.216 9.585.197s5.597 9.409 10.5 19.993c19.565 42.229 22.1 47.372 23.481 47.635.994.189 6.349-10.254 17.435-33.999l16-34.272 7.25-.294c7.09-.287 9.76.947 4.762 2.201-1.368.343-3.281 1.84-4.25 3.326-1.577 2.417-1.732 5.104-1.469 25.489.161 12.533.638 28.617 1.058 35.742.84 14.232 1.72 16.344 7.323 17.574 1.632.359 2.71.91 2.394 1.226-.422.422-16.954.586-25.531.254-.254-.01 1.096-1.323 3-2.918l3.462-2.9-.332-19.35c-.395-22.996-1.297-34.847-2.668-35.028-1.421-.189-4.411 5.466-17.243 32.611-6.222 13.162-11.825 24.548-12.449 25.3-.942 1.135-1.362 1.143-2.458.046-.727-.727-6.942-13.459-13.809-28.291s-12.932-27.117-13.476-27.299c-1.748-.583-2.127 3.846-2.347 27.468-.215 23.051-.206 23.167 2.129 25.665 1.29 1.38 3.427 2.781 4.75 3.113 5.401 1.356 1.749 2.206-9.178 2.138-6.37-.04-11.752-.242-11.96-.449zm300.497-30.295c-15.102-17.231-28.132-31.329-28.956-31.329-1.286 0-1.536 3.704-1.765 26.142-.161 15.79.132 27.189.739 28.786.639 1.68 2.559 3.335 5.266 4.538l4.261 1.893-12.5.012c-10.098.01-12.123-.217-10.539-1.179 4.728-2.871 7.38-6.453 8.041-10.856.37-2.469.509-16.38.308-30.913-.312-22.612-.621-27-2.141-30.423-2.205-4.966-6.119-9.145-9.32-9.948-1.337-.336-2.161-1.047-1.831-1.581.917-1.484 9.781-1.155 12.009.446 1.085.779 14.798 16.05 30.473 33.935s29.014 32.547 29.643 32.583 1.416-.646 1.75-1.516c.885-2.307.64-40.578-.319-49.718-.947-9.027-3.013-12.069-9.36-13.778-2.154-.58-3.683-1.288-3.398-1.573.456-.456 23.686-1.12 23.684-.677 0 .095-1.351 1.523-3.001 3.173l-3 3v38.386c0 29.828-.289 38.78-1.294 40.156-1.161 1.588-4.116-1.45-28.752-29.559zm42.777-44.748c-.435-1.663-.305-2.054.437-1.312.581.581.86 1.647.619 2.368-.25.749-.703.296-1.057-1.057z" fill="#989898"/><path d="M59.125 143.386c-5.043-4.747-9.007-9.117-8.809-9.71s4.153-1.661 8.79-2.372c6.641-1.019 10.446-1.047 17.93-.133 5.225.638 9.95 1.583 10.5 2.099.647.608-2.325 4.079-8.426 9.842-5.184 4.897-9.738 8.904-10.121 8.904s-4.821-3.884-9.864-8.631zm13.935-3.934c1.377-3.622 1.277-4.007-1.525-5.843-2.316-1.517-2.684-1.517-5 0-2.802 1.836-2.902 2.221-1.525 5.843.753 1.979 1.671 2.565 4.025 2.565s3.272-.586 4.025-2.565zm62.975 11.565c2.055-1.328 549.945-1.328 552 0 .97.627-96.48.969-276 .969s-276.97-.342-276-.969zm1.416-12.494c-2.333-2.333-2.475-3.058-2.205-11.239.244-7.398.559-8.797 2.039-9.08 1.556-.297 1.75.609 1.75 8.167 0 8.988 1.141 11.645 5 11.645s5-2.657 5-11.645c0-7.561.194-8.464 1.75-8.159 1.517.297 1.75 1.584 1.75 9.664 0 8.59-.185 9.47-2.361 11.23-3.488 2.822-9.599 2.541-12.724-.584zm63.251 1.827c-.367-.367-.667-5.573-.667-11.57 0-10.624.056-10.895 2.173-10.583 1.411.207 3.442 2.4 5.79 6.25 4.903 8.039 5.872 8.099 6.237.387.228-4.815.656-6.317 1.799-6.317 1.242 0 1.5 1.889 1.5 11 0 10.284-.128 11-1.973 11-1.374 0-3.12-1.973-5.752-6.5-2.078-3.575-4.228-6.65-4.777-6.833-.583-.195-.998 1.953-.998 5.168 0 7.367-1.166 10.166-3.333 7.998zm64.808-1.583c-.31-1.238-.431-6.295-.269-11.239.25-7.627.559-9.039 2.044-9.323 1.585-.303 1.75.756 1.75 11.239 0 9.555-.258 11.573-1.481 11.573-.815 0-1.734-1.012-2.044-2.25zm55.251 1.557c-1.046-1.824-5.825-21.541-5.339-22.027 1.501-1.501 3.577 1.201 4.668 6.075 1.324 5.914 2.483 8.441 3.436 7.487.33-.33 1.372-3.462 2.316-6.96 1.18-4.373 2.259-6.464 3.454-6.694 2.251-.433 2.179.393-1.068 12.312-2.293 8.415-3.064 10.049-4.865 10.307-1.177.169-2.349-.056-2.603-.5zm55.897-.848c-.801-2.086-.813-17.8-.016-19.878.864-2.252 14.393-2.329 14.393-.082 0 1.105-1.153 1.5-4.378 1.5-7.165 0-9.334 5.519-2.43 6.182 4.58.44 4.443 3.155-.193 3.818-2.585.369-3.578 1.046-3.798 2.588-.413 2.889 1.563 4.22 6.818 4.594 7.045.501 5.233 2.288-2.647 2.61-5.83.238-7.24-.004-7.75-1.332zm60.852-.71c-.31-1.238-.431-6.3-.269-11.25l.294-9 6.203-.297c5.162-.247 6.547.047 8.25 1.75 2.405 2.405 2.638 5.882.578 8.605-1.934 2.556-1.899 4.952.117 8.028 1.163 1.775 1.336 2.829.587 3.578-1.481 1.481-2.945.326-5.207-4.109-3.324-6.515-7.028-5.912-7.028 1.145 0 4.298-2.556 5.422-3.525 1.55zm11.595-12.334c1.865-2.248-.018-4.84-3.793-5.22-3.302-.332-4.784 1.631-3.732 4.945.742 2.337 5.665 2.517 7.525.275zm52.882 12.746c-3.121-2.527-1.721-4.896 1.606-2.716 3.089 2.024 7.063 1.987 7.853-.072.804-2.095-1.09-4.34-5.061-6-6.327-2.645-8.263-7.332-4.452-10.781 2.465-2.231 9.934-1.834 11.465.61 1.5 2.394.073 3.369-2.733 1.868-2.983-1.596-6.008-1.059-6.432 1.143-.226 1.172 1.213 2.469 4.703 4.237 2.765 1.401 5.505 3.439 6.088 4.529 1.367 2.555.292 6.801-2.038 8.048-2.925 1.565-8.544 1.124-10.999-.864zm60.655.256c-.334-.87-.607-5.333-.607-9.918 0-9.193.523-11.5 2.607-11.5 1.11 0 1.393 2.337 1.393 11.5s-.283 11.5-1.393 11.5c-.766 0-1.666-.712-2-1.582zm55.912.415c-.265-.733-.603-5.139-.751-9.791-.255-8.031-.391-8.486-2.694-9.028-1.334-.313-2.609-1.12-2.833-1.792-.299-.896 1.751-1.222 7.676-1.222 6.352 0 8.083.307 8.083 1.434 0 .821-1.176 1.569-2.75 1.75-2.742.316-2.751.344-3.25 9.737-.333 6.27-.918 9.558-1.749 9.833-.687.227-1.466-.187-1.731-.92zm59.481-3.003c0-2.566-1.213-6.803-3.154-11.013-1.735-3.763-2.879-7.117-2.543-7.453 1.238-1.238 3.822.696 4.842 3.623 1.384 3.972 3.105 3.809 5.153-.487.918-1.925 2.351-3.5 3.185-3.5 2.058 0 1.926 1.017-.984 7.596-1.375 3.109-2.5 7.135-2.5 8.947 0 4.286-.877 6.457-2.607 6.457-.968 0-1.393-1.272-1.393-4.17zM92.05 124.767c.008-.687.452-1.925.985-2.75.755-1.169.973-.893.985 1.25.008 1.513-.435 2.75-.985 2.75s-.993-.562-.985-1.25zm-34.015-3.309c0-.857.457-1.276 1.016-.931s.757 1.047.441 1.559c-.857 1.387-1.457 1.128-1.457-.628zm20.543.628c-.316-.512-.118-1.214.441-1.559s1.016.073 1.016.931c0 1.757-.6 2.015-1.457.628zm-31.097-1.156c-.37-.598-.171-1.588.441-2.2.817-.817 1.113-.528 1.113 1.087 0 2.415-.519 2.787-1.554 1.113zm16.633-.496c.048-1.165.285-1.402.604-.604.289.722.253 1.584-.079 1.917s-.569-.258-.525-1.312zm-28.445-6.573c-2.951-4.504-10.753-22.086-13.689-30.851-1.628-4.859-3.849-14.383-4.935-21.164s-2.433-14.248-2.992-16.593c-1.465-6.145-1.274-27.168.275-30.236l1.263-2.5 21.972-.5c20.463-.466 22.299-.661 26.722-2.839l4.75-2.339 4.75 2.339c4.478 2.205 6.022 2.357 26.994 2.642l22.244.303.621 2.472c.341 1.36.402 9.998.136 19.197-.821 28.327-5.399 47.76-16.541 70.225l-5.704 11.5-4-.215c-6.117-.329-25.897-3.485-26.795-4.276-.437-.385 2.263-1.82 6-3.189 8.542-3.129 9.021-5.195 1.307-5.631-3.207-.181-6.213-.966-7.231-1.888-1.496-1.354-1.98-1.381-3.415-.189-.92.763-4.191 1.613-7.269 1.888-7.772.694-7.362 2.685 1.199 5.82 3.737 1.369 6.437 2.809 6 3.2s-5.97 1.467-12.295 2.39l-14.665 2.229c-2.562.445-3.457.103-4.702-1.796zm28.659-20.03c1.749-2.346 1.846-3.066.761-5.685-1.273-3.073-5.162-5.129-9.702-5.129-2.341 0-2.351-.052-2.421-12.75-.039-7.013-.376-13.508-.75-14.436s-2.213-2.727-4.088-4c-3.992-2.711-7.769-7.471-6.742-8.498.394-.394 4.864.645 9.933 2.309l9.217 3.026-.484 9.424c-.266 5.183-.491 12.124-.5 15.424l-.016 6h9.5 9.5l-.016-6c-.009-3.3-.234-10.241-.5-15.424l-.484-9.424 9.217-3.026c5.069-1.664 9.539-2.703 9.933-2.309 1.027 1.027-2.75 5.787-6.742 8.498-1.874 1.273-3.714 3.073-4.088 4s-.711 7.372-.75 14.322l-.07 12.636-4.572.686c-7.772 1.166-10.43 5.726-6.355 10.907 2.01 2.555 2.398 2.635 12.852 2.635 13.7 0 15.907-1.243 21.345-12.026 4.186-8.299 4.426-11.305.942-11.799-2.272-.322-2.266-.35.772-3.81 1.683-1.917 2.806-3.897 2.495-4.4s-2.683-.625-5.272-.27l-4.706.645 6.75-7.292c3.846-4.155 6.75-8.189 6.75-9.378 0-1.147-1.547-3.68-3.439-5.628-3.358-3.459-3.412-3.643-2.278-7.851 1.416-5.253-.058-8.571-5.119-11.527-2.89-1.688-3.822-1.784-7.27-.751-3.524 1.056-4.239.962-6.56-.864-2.041-1.605-4.065-2.049-9.348-2.049-4.189 0-7.125.473-7.753 1.25-.556.688-1.818 3.837-2.805 7s-2.08 5.75-2.43 5.75-1.442-2.587-2.43-5.75-2.249-6.312-2.805-7c-.628-.777-3.564-1.25-7.753-1.25-5.282 0-7.307.444-9.348 2.049-2.321 1.826-3.036 1.92-6.56.864-3.448-1.033-4.38-.937-7.27.751-5.061 2.956-6.534 6.274-5.119 11.527 1.134 4.208 1.081 4.392-2.278 7.851-1.891 1.948-3.439 4.527-3.439 5.731 0 1.327 2.658 5.016 6.75 9.367l6.75 7.178-4.706-.634c-2.589-.349-4.961-.222-5.272.281s.812 2.483 2.495 4.4c3.038 3.46 3.044 3.488.772 3.81-3.451.489-3.207 3.446.972 11.799 5.49 10.973 7.667 12.164 21.578 11.807 10.573-.271 11.02-.374 12.954-2.967zm72.951 15.522c-.691-.279-1.002-.918-.691-1.421.748-1.211 550.134-1.23 550.882-.019.304.492-.156 1.167-1.023 1.5-1.893.726-547.366.667-549.169-.06zm31.149-11.679c-7.524-1.924-13.25-5.192-19.071-10.884-9.141-8.938-13.388-22.865-11.379-37.312 1.36-9.776 4.867-17.321 11.128-23.942 9.897-10.464 19.391-14.036 35.359-13.303 8.416.387 11.3.982 17.552 3.623 4.115 1.738 8.45 3.16 9.635 3.16 1.875 0 2.243.743 2.843 5.75.379 3.163.93 6.762 1.224 8 .873 3.677-.954 2.534-4.645-2.904-4.033-5.943-11.829-12.156-17.975-14.324-6.484-2.288-18.745-1.987-25.744.632-15.863 5.935-23.976 24.159-20.344 45.695 2.472 14.658 10.827 26.354 22.85 31.991 4.775 2.239 7.023 2.656 14.175 2.631 7.138-.024 9.455-.471 14.458-2.79 7.57-3.508 11.887-6.81 15.73-12.034l3.051-4.147-.713 5c-.392 2.75-1.203 5.595-1.803 6.323-1.444 1.753-7.817 4.96-14.675 7.385-7.113 2.515-24.392 3.306-31.655 1.448zm151.107.154c-5.5-.5-14.725-.662-20.5-.36l-10.5.549 3.196-1.952c2.2-1.344 3.384-2.979 3.801-5.25.333-1.814.47-18.664.304-37.444-.287-32.511-.397-34.253-2.301-36.368-1.1-1.222-2.761-2.506-3.692-2.854s10.657-.671 25.75-.718l27.442-.085-.074 2.586c-.041 1.422-.394 4.611-.786 7.086-.699 4.421-.723 4.445-1.377 1.371-1.392-6.548-6.103-8.357-21.791-8.365-15.448-.008-14.973-.595-14.973 18.48 0 18.803-.171 18.515 11.022 18.515 11.829 0 17.681-1.525 19.523-5.087.829-1.602 1.661-2.913 1.849-2.913s.289 4.457.224 9.903-.456 9.695-.868 9.441-.75-1.032-.75-1.729-1.161-2.358-2.579-3.691c-2.433-2.287-3.258-2.424-14.535-2.424-9.539 0-12.148.303-12.905 1.5-.522.825-.956 8.362-.965 16.75-.014 13.636.185 15.45 1.876 17.141 2.652 2.652 10.303 3.45 20.191 2.106 9.441-1.283 16.09-3.832 20.158-7.728 3.321-3.18 4.449-2.502 2.406 1.449-2.298 4.444-7.645 9.187-11.593 10.284-3.915 1.088-3.432 1.093-17.552-.191zm155.091-.28c-6.279-1.796-7.933-3.64-9.95-11.096-2.477-9.155-2.045-10.671 1.353-4.747 10.858 18.932 39.946 19.105 45.019.267 2.56-9.505-2.911-16.972-15.703-21.43-12.8-4.462-24.009-10.261-26.695-13.811-6.431-8.501-5.535-20.719 2.046-27.904 6.778-6.424 20.935-8.848 30.839-5.28 2.2.793 5.176 1.448 6.613 1.456 2.478.014 2.676.408 3.836 7.596.673 4.17 1.044 7.76.826 7.978s-1.945-1.95-3.836-4.819c-8.246-12.508-28.676-15.542-36.371-5.401-3.69 4.862-4.2 9.722-1.586 15.121 2.834 5.853 5.309 7.504 18.019 12.012 16.681 5.917 23.268 10.749 26.02 19.088 1.506 4.563.791 13.971-1.381 18.172-2.36 4.564-7.553 9.34-12.628 11.613-5.751 2.576-19.416 3.189-26.42 1.186zm79.514-.051c-21.468-6.019-33.647-25.695-30.162-48.729 2.722-17.99 13.262-29.948 30.989-35.155 6.602-1.939 19.745-2.058 26.568-.239 14.269 3.802 25.125 14.294 29.057 28.079 2.211 7.751 1.576 22.814-1.272 30.159-4.39 11.324-13.235 20.328-24.033 24.464-7.547 2.89-23.337 3.611-31.147 1.421zm31.699-3.966c20.06-10.93 25.27-40.345 10.925-61.687-8.253-12.28-20.985-18.625-35.213-17.549-16.493 1.247-26.781 11.654-29.622 29.966-2.813 18.128 6.049 39.365 19.784 47.414 7.727 4.529 11.204 5.394 20.322 5.059 7.126-.262 9.357-.78 13.804-3.202zm-357.304 1.32l3-2.667.287-35.061c.319-38.941.189-39.851-6.068-42.473-2.929-1.228-2.062-1.346 9.622-1.316 11.402.03 12.552.185 10.263 1.384-5.418 2.839-5.603 4.215-5.603 41.559 0 27.624.27 34.728 1.379 36.245 1.036 1.416 2.983 1.988 7.82 2.296 12.352.787 27.008-2.827 32.539-8.023 1.628-1.529 2.261-1.726 2.259-.701-.008 3.127-4.193 8.124-8.34 9.958-3.861 1.708-6.588 1.876-27.223 1.682l-22.933-.216zm132.718.912c1.495-1.235 3.222-3.595 3.838-5.245 1.363-3.653 2.87-28.932 2.862-48-.008-18.594-1.663-23.193-9.917-27.56l-3.501-1.852 8.227-.044c7.463-.04 8.364.166 9.707 2.215.814 1.242 8.044 16.427 16.068 33.745l15.55 32.448c.617.617 1.462.439 2.352-.495.764-.801 7.115-13.832 14.112-28.957l15.618-33.25 2.895-5.75h6.001 6.001l-3.266 2.916-3.266 2.916-.324 11.334c-.386 13.511 1.369 59.575 2.367 62.123.385.984 2.272 2.595 4.192 3.58l3.491 1.791-11.655.111-11.655.111 3.183-2.973 3.183-2.973-.73-26.117c-.401-14.364-.971-26.747-1.267-27.516-1.452-3.785-4.262.381-13.965 20.705l-13.932 29.244c-2.019 4.263-4.223 7.75-4.9 7.75s-5.45-9.111-10.609-20.247c-12.891-27.827-17.209-36.291-18.379-36.026-1.341.304-2.304 12.235-2.607 32.273-.281 18.638.6 22.004 6.422 24.536 2.969 1.291 2.44 1.388-7.815 1.42l-11 .034zm252.782 1.587c0-.093 1.566-1.136 3.481-2.32 5.356-3.31 5.701-5.801 5.337-38.512-.368-33.085-.813-35.311-8.117-40.602l-4.001-2.898h5.079c3.283 0 5.634.555 6.649 1.571.864.864 14.462 16.179 30.218 34.034s29.144 32.297 29.751 32.093c.77-.258 1.103-9.11 1.103-29.33 0-32.805-.021-32.9-7.819-36.368l-4.181-1.859 11-.048c10.626-.047 10.924.01 8.751 1.683-1.237.952-2.7 3.302-3.25 5.221-.588 2.049-1.001 18.907-1.001 40.83 0 29.42-.265 37.254-1.25 36.937-.687-.222-13.464-14.306-28.392-31.297l-28.244-31.261c-2.646-.882-3.266 5.628-2.886 30.295.212 13.75.765 25.84 1.23 26.867s2.681 2.689 4.924 3.693l4.078 1.826-11.23-.193c-6.177-.106-11.23-.269-11.23-.361z" fill="#888"/><path d="M137.035 151.017c2.055-1.328 547.945-1.328 550 0 .97.627-96.125.969-275 .969s-275.97-.342-275-.969zm-72-3.108c-4.251-3.471-14-13.116-14-13.85 0-.824 15.977-3.398 16.687-2.689.268.268-.708 1.27-2.168 2.227-2.138 1.401-2.529 2.243-2.006 4.324.978 3.897 2.398 5.096 6.033 5.096 2.905 0 3.443-.433 4.494-3.619 1.131-3.427 1.042-3.744-1.672-5.964-1.577-1.29-2.323-2.361-1.658-2.381 3.2-.095 16.291 2.301 16.291 2.982 0 1.503-16.189 15.982-17.833 15.949-.917-.018-2.792-.952-4.167-2.075zm74.5-8.087c-3.198-1.813-3.469-2.795-3.485-12.638-.012-7.026.294-9.231 1.235-8.92.834.276 1.348 3.196 1.544 8.783.325 9.254 1.139 10.969 5.206 10.969s4.882-1.715 5.206-10.969c.196-5.587.709-8.507 1.544-8.783.941-.312 1.25 1.934 1.25 9.097 0 9.084-.118 9.604-2.635 11.583-2.901 2.282-6.78 2.627-9.865.878zm74.815.379c-.599-.376-2.768-3.742-4.819-7.479s-4.239-6.626-4.862-6.42c-.654.216-1.26 3.226-1.431 7.112-.207 4.703-.66 6.617-1.5 6.337-.834-.278-1.203-3.588-1.203-10.804 0-13.392 1.372-14.129 7.403-3.976 2.302 3.875 4.568 7.046 5.034 7.046 1.384 0 2.062-2.822 2.062-8.582 0-2.98.45-5.418 1-5.418 1.197 0 1.393 21.639.202 22.375-.439.271-1.288.185-1.888-.191zm52.369.166c-.376-.376-.683-5.596-.683-11.6 0-8.288.301-10.817 1.25-10.502.867.287 1.338 3.583 1.537 10.747.265 9.539-.389 13.07-2.103 11.356zm54.566-.6c-1.429-1.795-5.765-20.568-4.941-21.392 1.145-1.145 1.793.173 3.596 7.317 2.248 8.906 3.943 8.906 6.19 0 1.871-7.412 2.27-8.185 3.756-7.267.61.377.015 4.309-1.566 10.35-2.462 9.404-3.687 12.242-5.285 12.242-.415 0-1.203-.562-1.75-1.25zm56.459.626c-.39-.39-.709-5.584-.709-11.542v-10.833h7.083c5.219 0 6.975.329 6.672 1.25-.226.688-2.626 1.475-5.333 1.75-4.255.432-4.968.824-5.26 2.887-.392 2.776 1.222 4.076 5.087 4.098 1.512.008 2.75.465 2.75 1.015s-1.238 1.007-2.75 1.015c-4.029.022-5.455 1.312-5.08 4.593.313 2.739.61 2.908 5.645 3.196 7.398.424 6.349 2.606-1.436 2.988-3.279.161-6.281-.027-6.671-.417zm60.974-.026c-.376-.376-.683-5.558-.683-11.517v-10.833h5.277c6.654 0 9.723 1.965 9.723 6.228 0 1.713-.754 3.947-1.675 4.965-1.566 1.731-1.566 2.078 0 5.363 2.014 4.224 2.098 5.444.374 5.444-.715 0-2.299-2.055-3.52-4.567-1.777-3.657-2.663-4.504-4.449-4.25-1.817.258-2.289 1.059-2.547 4.317-.327 4.133-1.31 6.04-2.5 4.85zm8.752-12.325c3.669-1.395 3.558-5.694-.185-7.127-3.304-1.265-5.612-.122-6.077 3.01-.324 2.185 1.323 5.093 2.884 5.093.447 0 1.967-.439 3.378-.975zm55.815 11.755c-1.238-.597-2.25-1.691-2.25-2.432 0-1.742.535-1.698 3.576.295 2.029 1.33 2.986 1.423 5.033.49 3.939-1.795 2.836-5.179-2.528-7.753-5.243-2.516-7.314-5.016-6.485-7.827 1.295-4.39 7.785-6.094 11.754-3.087 2.671 2.023 1.111 3.971-1.638 2.045-2.92-2.045-5.433-1.9-6.656.384-1.189 2.221.012 3.486 6.336 6.677 3.519 1.776 4.151 2.585 4.412 5.655.238 2.801-.192 3.93-1.973 5.178-2.593 1.816-6.293 1.961-9.582.375zm60.433.57c-.376-.376-.683-5.596-.683-11.6 0-8.288.301-10.817 1.25-10.502.867.287 1.338 3.583 1.537 10.747.265 9.539-.389 13.07-2.103 11.356zm115 0c-.376-.376-.688-2.521-.693-4.767s-1.13-6.491-2.5-9.433-2.49-5.98-2.49-6.75c0-2.618 2.097-1.414 3.536 2.031 2.094 5.012 3.099 5.108 5.964.568 3.697-5.856 4.92-3.961 1.802 2.79-1.451 3.14-2.831 7.735-3.067 10.21-.442 4.633-1.355 6.547-2.552 5.35zm-59.699-8.517c-.016-8.992-.455-10.406-3.402-10.968-1.054-.201-2.111-.949-2.349-1.661-.333-1 1.248-1.228 6.917-1 7.147.288 9.477 1.707 4.658 2.837-2.148.504-2.344 1.16-2.809 9.421-.329 5.838-.928 9.021-1.75 9.292-.932.308-1.254-1.706-1.265-7.921zM32.411 105.77C25.339 91.689 21.363 80.526 18.38 66.378c-2.408-11.422-2.719-15.098-2.778-32.861l-.067-20 20-.228c17.723-.202 20.772-.485 26.779-2.487l6.779-2.259 6.409 2.237c5.826 2.033 8.265 2.237 26.834 2.237h20.426l.684 9.315c.738 10.058.293 17.315-2.065 33.685-2.809 19.494-6.715 31.823-15.843 49.997-3.567 7.102-4.971 9.003-6.65 9.003-2.353 0-26.136-3.951-26.605-4.42-.162-.162 2.366-1.264 5.618-2.45 6.321-2.305 9.437-4.769 6.998-5.533-.749-.235-3.787-.676-6.75-.981s-6.225-1.312-7.25-2.239c-1.685-1.525-2.03-1.538-3.613-.138-.963.851-4.563 1.865-8.002 2.253s-6.484 1.081-6.767 1.539c-.747 1.208 3.194 3.702 8.788 5.56 2.673.888 4.695 1.779 4.493 1.981-.462.462-24.648 4.429-27.003 4.429-1.193 0-3.2-2.906-6.384-9.247zM63.4 95.945c1.877-1.476 2.635-3.004 2.635-5.309 0-4.897-2.037-6.917-7.626-7.559l-4.874-.56-.277-14.229c-.264-13.559-.382-14.283-2.5-15.37-3.154-1.618-8.723-7.062-8.723-8.526 0-.845 2.832-.283 9 1.786 10.393 3.486 9.597 1.457 7.895 20.104-1.341 14.694-1.313 14.735 10.105 14.735 11.235 0 11.232.004 10.028-14.5-1.577-18.992-2.414-16.857 7.972-20.34 6.168-2.069 9-2.63 9-1.786 0 1.464-5.569 6.908-8.723 8.526-2.118 1.087-2.236 1.811-2.5 15.37l-.277 14.229-4.874.56c-5.588.642-7.626 2.661-7.626 7.559 0 2.336.762 3.835 2.739 5.391 2.484 1.954 3.719 2.124 13.25 1.823 13.46-.425 15.596-1.758 21.116-13.172 4.42-9.14 4.745-11.255 1.87-12.168-1.974-.627-1.961-.719.5-3.644 4.019-4.776 2.93-6.606-2.961-4.979-1.932.534-3.513.729-3.513.434s2.472-3.206 5.493-6.469c7.378-7.969 7.781-9.944 3.025-14.815-3.571-3.657-3.686-3.983-2.583-7.322 1.53-4.635.521-8.135-3.261-11.317-2.777-2.337-3.693-2.554-8.616-2.046-3.833.396-5.973.167-7.034-.752-.839-.726-4.45-1.598-8.025-1.937-8.772-.833-10.93.365-12.8 7.106-.801 2.887-1.807 5.25-2.236 5.25s-1.361-2.27-2.072-5.044-1.899-5.547-2.641-6.163c-2.115-1.756-15.992-1.339-18.071.543-1.318 1.192-3.042 1.43-7.239.997-4.924-.508-5.839-.291-8.616 2.046-3.782 3.182-4.79 6.683-3.261 11.317 1.102 3.34.987 3.666-2.583 7.322-4.777 4.892-4.36 6.838 3.215 15.02l5.683 6.139-4.338-.339c-5.317-.415-5.987.884-2.557 4.96 2.497 2.967 2.512 3.068.541 3.693-2.876.913-2.551 3.028 1.87 12.168 3.587 7.418 6.711 10.967 11.105 12.618.825.31 5.827.599 11.115.643 8.286.068 9.979-.208 12.25-1.994zm210.885 12.323h275.5c75.763.141 13.775.257-137.75.257s-213.512-.116-137.75-.257zM166.811 96.538c-6.928-1.907-12.855-5.733-18.572-11.988-6.022-6.589-9.007-13.834-9.836-23.875-1.435-17.38 5.927-33.105 19.578-41.819 5.834-3.725 7.486-3.658 2.307.094-11.212 8.122-16.483 22.828-14.32 39.949 1.159 9.17 3.104 14.944 7.166 21.274 5.736 8.939 13.208 14.309 22.901 16.458l5.5 1.22-5-.006c-2.75-.003-7.126-.591-9.724-1.306zm24.766.084c7.778-1.89 14.499-5.561 19.709-10.765 4.656-4.651 5.71-4.495 3.787.561-1.575 4.143-19.234 11.816-26.498 11.513-1.122-.047.229-.636 3.002-1.31zm68.253.856c-.297-.297-7.54-.582-16.097-.635l-15.558-.096 2.18-2.948c2.143-2.899 2.18-3.543 2.18-38.281 0-35.21-.008-35.343-2.28-38.417l-2.28-3.084h8.06 8.06l-2.28 3.082c-2.249 3.04-2.284 3.533-2.597 36.25-.35 36.583.045 40.132 4.604 41.408 7.896 2.211 27.789-.523 35.073-4.82 4.736-2.794 5.132-1.592.815 2.479-2.458 2.318-5.271 3.777-8.703 4.513-5.476 1.174-10.315 1.412-11.178.548zm65.027.027c-.282-.282-7.573-.566-16.202-.632-15.548-.119-15.674-.138-13.905-2.091 1.627-1.796 1.812-4.981 2.085-35.828.303-34.317-.153-40.147-3.397-43.391-1.393-1.393-.532-1.538 8.776-1.469 9.526.07 10.052.173 6.821 1.334-1.925.692-4.056 2.345-4.735 3.674-1.741 3.405-1.728 29.901.016 32.285 1.088 1.487 3.038 1.762 12.947 1.821 10.126.061 12.136-.207 15.219-2.026l3.553-2.096v6.055 6.055l-3.077-2.589c-1.831-1.541-4.361-2.613-6.25-2.647-17.683-.325-20.353-.119-22.187 1.715-1.434 1.434-1.611 3.8-1.321 17.59.328 15.602.387 15.976 2.835 17.964 2.289 1.859 3.513 1.989 14.5 1.54 12.721-.52 18.186-1.974 24.25-6.452 3.822-2.822 4.093-2.169 1 2.405-2.974 4.398-9.093 7.297-15.399 7.297-2.76 0-5.248-.23-5.53-.512zm149.397-.959c-5.727-1.788-7.011-3.014-8.271-7.896l-1.623-6.134c-.306-1.1.806-.147 2.471 2.119 5.301 7.214 12.473 11.222 22.09 12.346l6.615.773-8.5.065c-4.675.035-10.427-.537-12.782-1.272zm78.356-.18c-25.031-7.683-35.902-37.035-23.085-62.329 3.093-6.103 7.261-10.912 11.662-13.453l3.348-1.933-3.865 4.313c-6.4 7.142-8.987 14.017-9.452 25.12-.469 11.187.794 18.284 4.715 26.498 5.271 11.041 14.582 19.25 25.031 22.068l4.571 1.232-4-.002c-2.2-.001-6.216-.682-8.925-1.514zm-188.546-2.174c2.508-3.392 3.504-12.448 4.53-41.175.863-24.164-.009-29.685-5.562-35.238l-3.762-3.762h5.76c3.417 0 6.159.508 6.742 1.25.54.688 7.625 15.65 15.743 33.25s15.359 32.636 16.09 33.414c1.047 1.114 1.638 1.158 2.78.21.798-.662 8.292-15.924 16.653-33.914s15.767-33.305 16.457-34.032c.854-.899 2.411-1.105 4.864-.645 3.141.589 3.422.864 2.169 2.117-3.433 3.433-3.761 8.855-2.56 42.244 1.177 32.72 1.769 37.017 5.296 38.436.699.281-2.511.547-7.134.59l-8.405.079 1.905-2.119c1.732-1.927 1.889-3.671 1.733-19.25-.094-9.422-.478-22.218-.852-28.437-.651-10.819-.773-11.293-2.828-11-2.367.337-8.127 11.2-22.313 42.078-4.238 9.224-8.185 16.616-8.77 16.426s-1.715-1.662-2.511-3.272c-1.568-3.171-16.183-34.416-21.6-46.176-3.21-6.97-5.574-8.984-6.798-5.793-.308.801-.872 11.731-1.254 24.288-.747 24.528-.214 28.871 3.899 31.752 1.994 1.397 1.632 1.503-5.106 1.503h-7.252l2.089-2.825zm136.471.448c8.167-3.852 11.501-8.763 11.498-16.938s-4.626-13.563-14.807-17.274c-21.222-7.735-27.343-11.33-30.272-17.779-3.329-7.33-1.586-18.361 3.576-22.632 1.741-1.44 1.747-1.372.158 1.7-3.272 6.33-1.347 16.037 4.018 20.257 1.331 1.047 5.661 3.091 9.623 4.544 20.146 7.386 25.734 10.827 29.101 17.923 1.782 3.756 2.152 14.002.647 17.958-2.149 5.652-12.768 14.642-17.255 14.608-.709-.005.96-1.071 3.71-2.368zm119.365-.641c4.092-4.092 4.357-6.72 3.882-38.482-.444-29.67-.9-32.399-6.388-38.218-2.37-2.513-2.845-3.542-1.817-3.936 2.587-.993 6.193 1.131 10.585 6.236 16.604 19.295 55.176 62.419 55.83 62.419 2.975 0 3.282-3.304 2.853-30.749-.466-29.803-.847-32.062-6.027-35.69-2.113-1.48-1.88-1.561 4.517-1.561h6.746l-1.675 2.556c-1.471 2.245-1.734 7.314-2.166 41.716l-.492 39.16-4.514-4.966c-2.482-2.731-14.866-16.8-27.519-31.264-17.99-20.565-23.46-26.233-25.093-26-2.049.293-2.093.791-2.369 26.798-.155 14.575-.031 27.524.275 28.775s1.445 3.164 2.531 4.25c1.966 1.966 1.944 1.975-5.102 1.975h-7.077zm-26.586-5.22c3.368-3.29 6.788-7.858 8.199-10.953 8.386-18.391 3.142-42.973-11.773-55.195-4.994-4.092-14.112-8.56-17.705-8.675-1.375-.044-3.4-.476-4.5-.959-1.288-.566.135-.688 4-.343 13.175 1.178 22.794 5.517 30.062 13.562 16.568 18.338 11.301 53.96-9.724 65.769l-4.338 2.436zM13.42 30.017c0-6.875.16-9.687.355-6.25s.195 9.062 0 12.5-.355.625-.355-6.25zm197.78-1.419c-4.121-5.739-9.915-10.269-16.987-13.281-5.433-2.314-5.505-2.392-1.678-1.799 2.2.341 6.863 1.943 10.362 3.56s7.191 2.94 8.205 2.94c1.353 0 2.005.995 2.455 3.75l1.125 6.5c.282 1.512.328 2.75.102 2.75s-1.838-1.989-3.584-4.419zm298.485-3.596c-2.406-4.073-9.125-8.472-16.209-10.612-7.977-2.41-3.756-3.115 4.778-.799 3.454.938 7.684 1.909 9.4 2.16 2.983.435 3.145.702 3.7 6.078.319 3.092.467 5.736.328 5.875s-1.038-1.077-1.998-2.701zM340.631 20.73c-1.45-3.092-5.788-4.492-16.608-5.363l-10.487-.844 14-.562c7.7-.309 14.141-.47 14.313-.357s.157 2.165-.033 4.56c-.258 3.254-.558 3.902-1.184 2.567z" fill="#757575"/><path d="M273.785 151.267h276.5c76.038.141 13.825.257-138.25.257s-214.287-.116-138.25-.257zm-135.677-13.885c-1.667-2.12-2.073-4.064-2.073-9.941 0-4.018.45-7.584 1-7.924.636-.393 1 2.438 1 7.786 0 9.306 1.289 11.714 6.272 11.714 4.215 0 5.728-3.282 5.728-12.423 0-5.861.295-7.682 1.114-6.864.699.699.969 3.981.725 8.809-.333 6.596-.722 7.965-2.724 9.586-3.471 2.811-8.513 2.471-11.042-.743zm75.138-.103c-2.691-3.827-5.902-10.507-3.759-7.821.852 1.068 1.548 2.305 1.548 2.75s.9.809 2 .809c1.795 0 2-.667 2-6.5 0-3.667.436-6.5 1-6.5 1.274 0 1.347 18.667.077 19.453-.508.314-1.797-.672-2.866-2.191zm54.163-7.762c.002-6.05.167-8.396.366-5.213s.197 8.133-.004 11-.364.263-.362-5.787zm54.155 9.333c-1.731-4.889-4.597-17.118-4.247-18.12.233-.667 1.016 1.392 1.739 4.576s1.914 6.558 2.647 7.5c1.258 1.616 1.407 1.616 2.665 0 .733-.941 1.888-4.196 2.568-7.233s1.673-5.791 2.208-6.122c1.074-.664.737 1-2.53 12.489-2.008 7.062-4.02 9.816-5.049 6.911zm56.471-9.333v-10.5l6.25.175c5.331.149 5.591.233 1.77.569-2.464.217-5.052.868-5.75 1.448-2.105 1.747-1.537 5.774.943 6.692l2.213.819-2.213 1.184c-1.487.796-2.213 2.117-2.213 4.027 0 3.691 1.538 4.862 7.02 5.344 3.822.336 3.562.42-1.77.569l-6.25.175zm61.175.25c-.167-10.263-.081-10.75 1.897-10.75 1.883 0 1.929.143.5 1.571-1.977 1.977-2.027 5.831-.099 7.758 1.269 1.269 1.276 1.635.054 2.649-.78.647-1.589 3.055-1.797 5.349s-.458-.665-.554-6.578zm9.886 5.892c-1.094-2.553-2.456-4.642-3.025-4.642s-1.036-.45-1.036-1 .81-1 1.8-1c4.363 0 5.726-5.818 1.977-8.443-1.222-.856-1.672-1.557-1-1.557 1.651 0 5.223 3.669 5.223 5.365 0 .751-.955 2.58-2.123 4.064-2.08 2.645-2.087 2.778-.344 6.645.979 2.17 1.495 4.23 1.148 4.577s-1.527-1.457-2.621-4.01zm62.333 2.476c2.674-2.955 1.605-5.334-3.681-8.192-6.322-3.418-7.085-4.306-6.32-7.352.893-3.559 2.36-3.245 1.826.391-.405 2.76-.058 3.131 5.025 5.379 3.218 1.423 5.665 3.198 5.959 4.323.689 2.636-.682 5.919-2.813 6.737-1.701.653-1.7.597.004-1.286zm52.98-8.617c.002-6.05.167-8.396.366-5.213s.197 8.133-.004 11-.364.263-.362-5.787zm114.743 6.843c-.064-2.286-1.448-7.124-3.075-10.75s-2.576-6.593-2.109-6.593 1.57 1.8 2.45 4c1.971 4.927 4.244 5.137 6.153.568 1.715-4.103 3.969-6.027 2.483-2.119-.536 1.41-1.66 3.89-2.498 5.51s-1.92 5.33-2.405 8.243l-.882 5.297zm-477.975-7.093c-.161-11.647.92-13.044 4.78-6.175 2.208 3.929 2.216 4.028.23 2.788-2.84-1.774-3.388-.87-4.18 6.891-.669 6.561-.692 6.465-.83-3.504zm417.646.543c-.277-8.863-.381-9.233-2.788-9.9-1.597-.443-.153-.693 4-.693s5.597.25 4 .693c-2.407.667-2.511 1.037-2.788 9.9-.158 5.064-.704 9.207-1.212 9.207s-1.054-4.143-1.212-9.207zm-108.229-9.325c-1.068-.808-1.46-1.468-.872-1.468s1.629.675 2.314 1.5c1.557 1.876 1.067 1.866-1.441-.032z" fill="#545454"/></g></svg>