<svg xmlns="http://www.w3.org/2000/svg" width="300" height="90" fill="#b2b2b2" xmlns:v="https://vecta.io/nano"><path d="M27.837 28.741a17.47 17.47 0 0 0-3.327.322c-1.073.215-2.039.537-3.005.966s-1.932.859-2.79 1.502l-2.361 1.932c-.644.644-1.395 1.502-1.932 2.361s-1.073 1.824-1.502 2.79-.751 2.039-.966 3.005-.322 2.146-.322 3.327a16.63 16.63 0 0 0 .322 3.327c.215 1.073.537 2.039.966 3.005s.859 1.932 1.502 2.79c.537.859 1.288 1.717 1.932 2.361s1.502 1.395 2.361 1.932 1.824 1.073 2.79 1.502 2.039.751 3.005.966a16.63 16.63 0 0 0 3.327.322 16.63 16.63 0 0 0 3.327-.322c1.073-.215 2.039-.537 3.005-.966s1.932-.859 2.79-1.502c.859-.537 1.717-1.288 2.361-1.932s1.395-1.502 1.932-2.361 1.073-1.824 1.502-2.79.751-2.039.966-3.005a16.63 16.63 0 0 0 .322-3.327 16.63 16.63 0 0 0-.322-3.327c-.215-1.073-.537-2.039-.966-3.005s-.859-1.932-1.502-2.79c-.537-.859-1.288-1.717-1.932-2.361s-1.502-1.395-2.361-1.932-1.824-1.073-2.79-1.502-2.039-.751-3.005-.966a18.34 18.34 0 0 0-3.327-.322zm-2.683-10.517A26.8 26.8 0 0 0 1.007 44.947c0 3.756.859 7.512 2.361 11.054l4.615-2.683a24.5 24.5 0 0 1-1.288-3.971c-.322-1.395-.429-2.79-.429-4.293s.107-2.898.429-4.293a25.74 25.74 0 0 1 1.288-4.078c.537-1.288 1.181-2.468 1.932-3.649a18.84 18.84 0 0 1 2.576-3.22 18.84 18.84 0 0 1 3.22-2.576c1.181-.751 2.361-1.395 3.649-1.932a25.74 25.74 0 0 1 4.078-1.288c.537-.107 1.073-.215 1.61-.215v-5.581zm5.366.107v5.366c.537.107 1.073.107 1.61.215a25.74 25.74 0 0 1 4.078 1.288c1.288.537 2.468 1.181 3.649 1.932a18.84 18.84 0 0 1 5.795 5.795c.751 1.181 1.395 2.361 1.932 3.649a25.74 25.74 0 0 1 1.288 4.078c.322 1.395.429 2.79.429 4.293s-.107 2.898-.429 4.293a24.5 24.5 0 0 1-1.288 3.971l4.615 2.683c1.61-3.434 2.361-7.19 2.361-11.054.107-13.63-10.41-25.22-24.04-26.508zM10.773 57.932l-4.722 2.683c5.044 6.976 13.093 11.161 21.786 11.161 8.586 0 16.742-4.185 21.786-11.161L44.9 57.932c-.644.751-1.181 1.502-1.932 2.254a18.84 18.84 0 0 1-3.22 2.576c-1.181.751-2.361 1.395-3.649 1.932a25.74 25.74 0 0 1-4.078 1.288c-1.395.322-2.79.429-4.293.429s-2.898-.107-4.293-.429a25.74 25.74 0 0 1-4.078-1.288c-1.288-.537-2.468-1.181-3.649-1.932a18.84 18.84 0 0 1-3.22-2.576c-.537-.751-1.181-1.502-1.717-2.254zm80.98 6.611c2.467.615 5.345.82 8.018.205 2.673-.41 5.14-1.435 7.401-2.87l-5.962-4.305c-1.85 1.025-5.345 1.025-7.813.41-1.645-.41-3.29-1.025-4.729-2.255-1.439-1.025-2.467-2.255-3.495-3.69s-1.645-3.075-2.056-4.92-.206-3.485.206-5.33c.411-1.64 1.028-3.28 2.056-4.715s2.262-2.46 3.701-3.485 3.084-1.64 4.934-1.845c3.495-.615 6.785 0 10.074 2.255l3.906-5.535c-2.262-1.435-4.523-2.46-6.99-3.075s-5.14-.615-8.018-.205c-2.673.41-5.14 1.435-7.401 2.87s-4.112 3.28-5.551 5.33-2.467 4.51-3.084 6.97c-.617 2.665-.822 5.33-.206 7.996.411 2.665 1.439 5.125 2.878 7.381s3.29 4.1 5.345 5.535c2.056 1.64 4.318 2.665 6.785 3.28zm38.652-39.568c-5.551 0-10.28 2.05-14.186 5.945s-5.962 8.611-5.962 14.146 2.056 10.251 5.962 14.146 8.635 5.945 14.186 5.945 10.28-2.05 14.186-5.945 5.962-8.611 5.962-14.146-2.056-10.251-5.962-14.146-8.429-5.945-14.186-5.945zm0 6.765c3.701 0 6.785 1.23 9.457 3.895s3.906 5.74 3.906 9.431-1.234 6.765-3.906 9.431-5.757 3.895-9.457 3.895-6.785-1.23-9.457-3.895-3.906-5.74-3.906-9.431 1.234-6.765 3.906-9.431 5.962-3.895 9.457-3.895zm40.297 32.803c2.467.615 5.345.82 8.018.205 2.673-.41 5.14-1.435 7.401-2.87l-6.168-4.305c-1.85 1.025-5.345 1.025-7.813.41-1.645-.41-3.29-1.025-4.729-2.255-1.439-1.025-2.467-2.255-3.495-3.69s-1.645-3.075-2.056-4.92-.206-3.485.206-5.33c.411-1.64 1.028-3.28 2.056-4.715s2.262-2.46 3.701-3.485 3.084-1.64 4.934-1.845c3.495-.615 6.785 0 10.074 2.255l3.906-5.535c-2.262-1.435-4.523-2.46-6.99-3.075s-5.14-.615-8.018-.205c-2.673.41-5.14 1.435-7.401 2.87s-4.112 3.28-5.551 5.33-2.467 4.51-3.084 6.97c-.617 2.665-.822 5.33-.206 7.996.411 2.665 1.439 5.125 2.878 7.381s3.29 4.1 5.345 5.535c2.056 1.64 4.318 2.665 6.99 3.28zm32.69-12.711l5.962-11.686 5.962 11.686h7.607L209.56 24.975l-20.148 40.183h7.401l3.495-6.765zm22.821 6.56h-7.401l3.29 6.765h7.401zm17.27.001l-6.785 6.765h26.727v-6.765zm-6.785-33.417v1.025 29.932l6.785-6.765V26.001v-1.025zm46.054 39.567c2.467.615 5.345.82 8.018.205 2.673-.41 5.14-1.435 7.401-2.87l-5.962-4.305c-1.85 1.025-5.345 1.025-7.813.41-1.645-.41-3.29-1.025-4.729-2.255-1.439-1.025-2.467-2.255-3.495-3.69s-1.645-3.075-2.056-4.92-.206-3.485.206-5.33c.411-1.64 1.028-3.28 2.056-4.715s2.262-2.46 3.701-3.485 3.084-1.64 4.934-1.845c3.495-.615 6.785 0 10.074 2.255l3.906-5.535c-2.262-1.435-4.523-2.46-6.99-3.075s-5.14-.615-8.018-.205c-2.673.41-5.14 1.435-7.401 2.87s-4.112 3.28-5.551 5.33-2.467 4.51-3.084 6.97c-.617 2.665-.822 5.33-.206 7.996.411 2.665 1.439 5.125 2.878 7.381s3.29 4.1 5.345 5.535c1.85 1.64 4.112 2.665 6.785 3.28z"/></svg>