<?xml version="1.0" encoding="UTF-8" standalone="no"?>
<!-- Generator: Adobe Illustrator 19.2.1, SVG Export Plug-In . SVG Version: 6.00 Build 0)  -->

<svg
   version="1.1"
   id="svg4226"
   inkscape:export-filename="/home/hsy/d/cocalc/artwork/cocalc-wide-logo-jupyter.org.svg.png"
   inkscape:export-xdpi="300"
   inkscape:export-ydpi="300"
   inkscape:version="1.1.1 (3bf5ae0d25, 2021-09-20)"
   sodipodi:docname="cocalc.svg"
   x="0px"
   y="0px"
   viewBox="0 0 299.99999 89.999999"
   xml:space="preserve"
   width="300"
   height="90"
   xmlns:inkscape="http://www.inkscape.org/namespaces/inkscape"
   xmlns:sodipodi="http://sodipodi.sourceforge.net/DTD/sodipodi-0.dtd"
   xmlns="http://www.w3.org/2000/svg"
   xmlns:svg="http://www.w3.org/2000/svg"><defs
   id="defs3317" />
<style
   type="text/css"
   id="style3302">
	.st0{fill:#B2B2B2;}
</style>
<sodipodi:namedview
   bordercolor="#00cc07"
   borderlayer="true"
   borderopacity="1"
   fit-margin-bottom="2"
   fit-margin-left="2"
   fit-margin-right="2"
   fit-margin-top="2"
   id="base"
   inkscape:bbox-nodes="true"
   inkscape:bbox-paths="true"
   inkscape:current-layer="layer1"
   inkscape:cx="147.31724"
   inkscape:cy="-49.02973"
   inkscape:document-units="px"
   inkscape:guide-bbox="true"
   inkscape:pageopacity="0"
   inkscape:pageshadow="2"
   inkscape:showpageshadow="false"
   inkscape:snap-bbox="true"
   inkscape:snap-others="true"
   inkscape:snap-page="true"
   inkscape:window-height="1016"
   inkscape:window-maximized="1"
   inkscape:window-width="1866"
   inkscape:window-x="54"
   inkscape:window-y="27"
   inkscape:zoom="2.1925472"
   pagecolor="#ffffff"
   showgrid="false"
   showguides="true"
   units="px"
   inkscape:pagecheckerboard="0"
   height="30.1px">
	</sodipodi:namedview>
<g
   id="layer1"
   transform="translate(7.0714263,-1000.4032)"
   inkscape:groupmode="layer"
   inkscape:label="Layer 1">
	
	<g
   id="g3409"
   transform="translate(-1.0065725,16.240706)"><g
     id="g4181"
     transform="matrix(1.0731993,0,0,1.0731993,-293.42693,484.03091)">
		<path
   id="path4183"
   inkscape:connector-curvature="0"
   class="st0"
   d="m 293.7,492.8 c -1,0 -2.1,0.1 -3.1,0.3 -1,0.2 -1.9,0.5 -2.8,0.9 -0.9,0.4 -1.8,0.8 -2.6,1.4 -0.8,0.6 -1.6,1.2 -2.2,1.8 -0.6,0.6 -1.3,1.4 -1.8,2.2 -0.5,0.8 -1,1.7 -1.4,2.6 -0.4,0.9 -0.7,1.9 -0.9,2.8 -0.2,0.9 -0.3,2 -0.3,3.1 0,1.1 0.1,2.1 0.3,3.1 0.2,1 0.5,1.9 0.9,2.8 0.4,0.9 0.8,1.8 1.4,2.6 0.5,0.8 1.2,1.6 1.8,2.2 0.6,0.6 1.4,1.3 2.2,1.8 0.8,0.5 1.7,1 2.6,1.4 0.9,0.4 1.9,0.7 2.8,0.9 1,0.2 2,0.3 3.1,0.3 1.1,0 2.1,-0.1 3.1,-0.3 1,-0.2 1.9,-0.5 2.8,-0.9 0.9,-0.4 1.8,-0.8 2.6,-1.4 0.8,-0.5 1.6,-1.2 2.2,-1.8 0.6,-0.6 1.3,-1.4 1.8,-2.2 0.5,-0.8 1,-1.7 1.4,-2.6 0.4,-0.9 0.7,-1.9 0.9,-2.8 0.2,-1 0.3,-2 0.3,-3.1 0,-1.1 -0.1,-2.1 -0.3,-3.1 -0.2,-1 -0.5,-1.9 -0.9,-2.8 -0.4,-0.9 -0.8,-1.8 -1.4,-2.6 -0.5,-0.8 -1.2,-1.6 -1.8,-2.2 -0.6,-0.6 -1.4,-1.3 -2.2,-1.8 -0.8,-0.5 -1.7,-1 -2.6,-1.4 -0.9,-0.4 -1.9,-0.7 -2.8,-0.9 -1.1,-0.2 -2.1,-0.3 -3.1,-0.3 z" />
		<path
   id="path4185"
   inkscape:connector-curvature="0"
   class="st0"
   d="m 291.2,483 c -12.8,1.3 -22.5,12 -22.5,24.9 0,3.5 0.8,7 2.2,10.3 l 4.3,-2.5 c -0.5,-1.2 -0.9,-2.4 -1.2,-3.7 -0.3,-1.3 -0.4,-2.6 -0.4,-4 0,-1.4 0.1,-2.7 0.4,-4 0.3,-1.3 0.7,-2.6 1.2,-3.8 0.5,-1.2 1.1,-2.3 1.8,-3.4 0.7,-1.1 1.5,-2.1 2.4,-3 0.9,-0.9 1.9,-1.7 3,-2.4 1.1,-0.7 2.2,-1.3 3.4,-1.8 1.2,-0.5 2.5,-0.9 3.8,-1.2 0.5,-0.1 1,-0.2 1.5,-0.2 V 483 Z m 5,0.1 v 5 c 0.5,0.1 1,0.1 1.5,0.2 1.3,0.3 2.6,0.7 3.8,1.2 1.2,0.5 2.3,1.1 3.4,1.8 1.1,0.7 2.1,1.5 3,2.4 0.9,0.9 1.7,1.9 2.4,3 0.7,1.1 1.3,2.2 1.8,3.4 0.5,1.2 0.9,2.5 1.2,3.8 0.3,1.3 0.4,2.6 0.4,4 0,1.4 -0.1,2.7 -0.4,4 -0.3,1.3 -0.7,2.5 -1.2,3.7 l 4.3,2.5 c 1.5,-3.2 2.2,-6.7 2.2,-10.3 0.1,-12.7 -9.7,-23.5 -22.4,-24.7 z m -18.4,36.9 -4.4,2.5 c 4.7,6.5 12.2,10.4 20.3,10.4 8,0 15.6,-3.9 20.3,-10.4 l -4.4,-2.5 c -0.6,0.7 -1.1,1.4 -1.8,2.1 -0.9,0.9 -1.9,1.7 -3,2.4 -1.1,0.7 -2.2,1.3 -3.4,1.8 -1.2,0.5 -2.5,0.9 -3.8,1.2 -1.3,0.3 -2.6,0.4 -4,0.4 -1.4,0 -2.7,-0.1 -4,-0.4 -1.3,-0.3 -2.6,-0.7 -3.8,-1.2 -1.2,-0.5 -2.3,-1.1 -3.4,-1.8 -1.1,-0.7 -2.1,-1.5 -3,-2.4 -0.5,-0.7 -1.1,-1.4 -1.6,-2.1 z" />
	</g><g
     id="text4155"
     transform="matrix(2.0559549,0,0,2.0501387,23.804074,-1055.5575)">
		<path
   id="path4171"
   inkscape:connector-curvature="0"
   class="st0"
   d="m 30.1,1026.4 c 1.2,0.3 2.6,0.4 3.9,0.1 1.3,-0.2 2.5,-0.7 3.6,-1.4 l -2.9,-2.1 c -0.9,0.5 -2.6,0.5 -3.8,0.2 -0.8,-0.2 -1.6,-0.5 -2.3,-1.1 -0.7,-0.5 -1.2,-1.1 -1.7,-1.8 -0.5,-0.7 -0.8,-1.5 -1,-2.4 -0.2,-0.9 -0.1,-1.7 0.1,-2.6 0.2,-0.8 0.5,-1.6 1,-2.3 0.5,-0.7 1.1,-1.2 1.8,-1.7 0.7,-0.5 1.5,-0.8 2.4,-0.9 1.7,-0.3 3.3,0 4.9,1.1 l 1.9,-2.7 c -1.1,-0.7 -2.2,-1.2 -3.4,-1.5 -1.2,-0.3 -2.5,-0.3 -3.9,-0.1 -1.3,0.2 -2.5,0.7 -3.6,1.4 -1.1,0.7 -2,1.6 -2.7,2.6 -0.7,1 -1.2,2.2 -1.5,3.4 -0.3,1.3 -0.4,2.6 -0.1,3.9 0.2,1.3 0.7,2.5 1.4,3.6 0.7,1.1 1.6,2 2.6,2.7 1,0.8 2.1,1.3 3.3,1.6 z" />
		<path
   id="path4173"
   inkscape:connector-curvature="0"
   class="st0"
   d="m 48.9,1007.1 c -2.7,0 -5,1 -6.9,2.9 -1.9,1.9 -2.9,4.2 -2.9,6.9 0,2.7 1,5 2.9,6.9 1.9,1.9 4.2,2.9 6.9,2.9 2.7,0 5,-1 6.9,-2.9 1.9,-1.9 2.9,-4.2 2.9,-6.9 0,-2.7 -1,-5 -2.9,-6.9 -1.9,-1.9 -4.1,-2.9 -6.9,-2.9 z m 0,3.3 c 1.8,0 3.3,0.6 4.6,1.9 1.3,1.3 1.9,2.8 1.9,4.6 0,1.8 -0.6,3.3 -1.9,4.6 -1.3,1.3 -2.8,1.9 -4.6,1.9 -1.8,0 -3.3,-0.6 -4.6,-1.9 -1.3,-1.3 -1.9,-2.8 -1.9,-4.6 0,-1.8 0.6,-3.3 1.9,-4.6 1.3,-1.3 2.9,-1.9 4.6,-1.9 z" />
		<path
   id="path4175"
   inkscape:connector-curvature="0"
   class="st0"
   d="m 68.5,1026.4 c 1.2,0.3 2.6,0.4 3.9,0.1 1.3,-0.2 2.5,-0.7 3.6,-1.4 l -3,-2.1 c -0.9,0.5 -2.6,0.5 -3.8,0.2 -0.8,-0.2 -1.6,-0.5 -2.3,-1.1 -0.7,-0.5 -1.2,-1.1 -1.7,-1.8 -0.5,-0.7 -0.8,-1.5 -1,-2.4 -0.2,-0.9 -0.1,-1.7 0.1,-2.6 0.2,-0.8 0.5,-1.6 1,-2.3 0.5,-0.7 1.1,-1.2 1.8,-1.7 0.7,-0.5 1.5,-0.8 2.4,-0.9 1.7,-0.3 3.3,0 4.9,1.1 l 1.9,-2.7 c -1.1,-0.7 -2.2,-1.2 -3.4,-1.5 -1.2,-0.3 -2.5,-0.3 -3.9,-0.1 -1.3,0.2 -2.5,0.7 -3.6,1.4 -1.1,0.7 -2,1.6 -2.7,2.6 -0.7,1 -1.2,2.2 -1.5,3.4 -0.3,1.3 -0.4,2.6 -0.1,3.9 0.2,1.3 0.7,2.5 1.4,3.6 0.7,1.1 1.6,2 2.6,2.7 1,0.8 2.1,1.3 3.4,1.6 z" />
		<path
   id="path4177"
   inkscape:connector-curvature="0"
   class="st0"
   d="m 84.4,1020.2 2.9,-5.7 2.9,5.7 h 3.7 l -6.5,-13.1 -9.8,19.6 h 3.6 l 1.7,-3.3 z m 11.1,3.2 h -3.6 l 1.6,3.3 h 3.6 z" />
		<path
   id="path4179"
   inkscape:connector-curvature="0"
   class="st0"
   d="m 103.9,1023.4 -3.3,3.3 h 13 v -3.3 z m -3.3,-16.3 v 0.5 14.6 l 3.3,-3.3 v -11.3 -0.5 z" />
		<path
   id="path4181"
   inkscape:connector-curvature="0"
   class="st0"
   d="m 123,1026.4 c 1.2,0.3 2.6,0.4 3.9,0.1 1.3,-0.2 2.5,-0.7 3.6,-1.4 l -2.9,-2.1 c -0.9,0.5 -2.6,0.5 -3.8,0.2 -0.8,-0.2 -1.6,-0.5 -2.3,-1.1 -0.7,-0.5 -1.2,-1.1 -1.7,-1.8 -0.5,-0.7 -0.8,-1.5 -1,-2.4 -0.2,-0.9 -0.1,-1.7 0.1,-2.6 0.2,-0.8 0.5,-1.6 1,-2.3 0.5,-0.7 1.1,-1.2 1.8,-1.7 0.7,-0.5 1.5,-0.8 2.4,-0.9 1.7,-0.3 3.3,0 4.9,1.1 l 1.9,-2.7 c -1.1,-0.7 -2.2,-1.2 -3.4,-1.5 -1.2,-0.3 -2.5,-0.3 -3.9,-0.1 -1.3,0.2 -2.5,0.7 -3.6,1.4 -1.1,0.7 -2,1.6 -2.7,2.6 -0.7,1 -1.2,2.2 -1.5,3.4 -0.3,1.3 -0.4,2.6 -0.1,3.9 0.2,1.3 0.7,2.5 1.4,3.6 0.7,1.1 1.6,2 2.6,2.7 0.9,0.8 2,1.3 3.3,1.6 z" />
	</g></g>
</g>
</svg>
