<svg xmlns="http://www.w3.org/2000/svg" width="300" height="90" fill="#b1b1b1" fill-rule="evenodd" xmlns:v="https://vecta.io/nano"><path d="M233.747 74.373c-.82-.001-.847-.839-.885-1.999l-.023-.507c-.014-.2 0-.484.019-.797.019-.326.059-.969-.019-1.233-.031.022-.105.046-.209.097-1.31.616-1.46.729-2.331 1.711-.251.284-.902.938-1.563.938h-.465l-.328-.508c-.212-.495.04-1.076.82-1.884 1.248-1.298 2.393-1.878 3.078-2.224l.443-.244c.648-.65.751-.784 1.059-1.184l.274-.348c.324-.415.222-1.355.031-1.77l-.136-.007c-.415 0-1.071.123-1.83.265l-2.061.345c-1.47.185-1.75.427-2.215.825l-.685.538c-.477.328-1.051 1.089-1.513 1.699-.578.764-.923 1.204-1.308 1.407l-.154.079-.3.039a.84.84 0 0 1-.77-.509c-.332-.734.235-2.12.757-2.715l1.167-1.401-1.278.113-.496.051-.158.008c-.435 0-2.14-.314-2.14-1.198v-.702l.814-.015.165.029c.069.011.204.014.383.014 1.094 0 3.598-.181 4.883-.329 1.707-.197 3.784-.513 6.252-1.363 1.971-.68 4.454-4.334 5.244-5.685l.267-.463.515.138c4.065 1.087 4.179 2.018 4.216 2.323.025.2.015.702-.61 1.049l-1.008.505c-1.3.622-2.772 1.33-4.015 3.04-1.214 1.669-1.5 2.967-1.773 4.22l-.291 1.183c-.176.601-.186.98-.201 1.509-.017.696-.042 1.561-.459 3.179-.256.996-.462 1.783-1.163 1.783h0zm42.447-42.148l-.297.543c-.403.631-1.82.21-2.765-.158.105.193.245.368.385.543.385.508.77 1.034.508 1.595-.21.438-.56.526-.753.544-.612.07-1.05-.403-2.152-2.015-1.243-1.788-1.961-2.279-2.923-2.611l-.49-.176c-1.138-.438-2.556-.981-4.639.333l-.526.351c-2.188 1.367-2.38 1.49-3.395 3.312-.613 1.104-.98 1.525-1.208 1.805-.193.228-.227.28-.332.666-.158.631-.648.701-.788.701h-.087c-.419 0-.962-.21-2.135-3.663l.647-.228-.367-.753c.035-.017 3.395-1.718 3.447-4.293.071-3.137-.612-6.38-1.593-7.939-.245-.386-.508-.841-.245-1.262l.227-.386.456.035c.788.07 2.765 2.734 2.923 3.137a14.77 14.77 0 0 1 .455 1.42c.56-.21 1.366-1.49 1.978-1.209l.367.158.14.526c.052.631-.526.982-1.366 1.543-.262.175-.788 1.472-.962 1.629v.245c0 .123.193 1.052.193 1.245a14.99 14.99 0 0 0 2.468-1.893c1.243-1.209 3.834-4.206 4.656-5.223.613-.771 1.977-1.752 2.905-1.577a.97.97 0 0 1 .788.648c.262.771-.472 1.437-1.26 2.068 1.05.035 1.907.736 2.135 1.297l.158.403-.263.368c-.297.351-.718.263-.98.193-.578-.123-1.785-.386-3.133.719l-1.102.894c-.718.578-1.523 1.227-1.557 1.437.139.158 1.015.298 1.575.403.718.14 1.47.263 2.1.543.928.385 2.398 1.28 3.571 1.998l1.522.893c.736.351.946.455 1.295.789zm-4.218 31.059c-.813 0-1.64-1.141-2.195-2.099l-1.468-2.396-.83-1.324c-.975-1.61-1.461-2.065-1.624-2.184l-1.183-.942c-1.133-.935-2.109-1.742-4.106-2.266-2.584-.674-4.219-.818-5.131-.818l-.469.014c-.413 0-.725-.162-.921-.443-.61-.871.057-3.1.508-4.35l.388-1.071.781.828c.015.017 1.923 1.955 6.377 2.696a6.03 6.03 0 0 0 .987.084c1.312 0 2.361-.442 3.378-.866l.374-.158c.914-.373 2.619-1.071 2.877-1.398.533-.668 1.071-.993 1.657-.993.369 0 .738.134 1.101.403.431.318.416.717.389.874-.057.347-.301.57-.617.734 1.157.038 1.833.383 2.011 1.027.141.51-.13 1-.468 1.22l-.174.111-.305.019c-.238 0-.535-.069-1.083-.198-.63-.151-1.491-.356-2.141-.356a1.75 1.75 0 0 0-.467.051c-1.121.324-2.201.716-3.087 1.939a.72.72 0 0 0-.136.587c.116.699.967 1.573 1.76 2.131.278.176 1.623.197 2.424.21 1.949.029 3.169.093 3.743.719.392.429.882.963.625 1.551-.086.192-.316.513-.913.513-.25 0-.585-.051-1.083-.169-.73-.173-1.771-.356-2.514-.356l-.313.014c.383.974 1.536 3.151 2.124 4.262l.339.641c.287.553.326 1.009.115 1.355l-.203.337-.527.067zm-11.955 8.495c-.544 0-.757-.523-.836-.719-.303-.746-1.002-1.4-1.886-2.227l-.846-.802c-.757-.742-1.313-1.007-1.582-1.007-.038.017.112.373.211.608.315.737.742 1.746.4 2.801-.105.334-.358 1.115-1.048 1.115-.748 0-1.081-.758-1.184-2.699-.075-1.431-1.531-4.066-3.145-6.867-1.642-2.85-3.053-3.481-3.066-3.487l-1.1-.474.94-.731c2.129-1.632 3.504-2.461 4.092-2.461h.335l.312.296c.09.11.232.354.154.714-.162.758-.25 2.833.515 4.428.8 1.673 2.114 2.746 3.625 3.873 1.217.909 2.281 1.353 3.258 1.353.187 0 .373-.015.554-.048.341-.06.721-.086 1.104-.086 1.241 0 2.753.166 2.909.957.027.134.103.503-.167.837-.301.367-.801.415-1.249.415-.242 0-.552-.017-.948-.061a2.67 2.67 0 0 0-.308-.015c-.907 0-1.552.407-1.627.58 1.172.675 1.486 2.581 1.312 3.149l-.152.497-.575.061zm-17.663-37.831c-.406 0-.714-.121-.92-.36-.177-.208-.251-.481-.204-.77.15-.975-.063-2.023-.913-4.48-.582-1.673-1.761-2.542-2.9-3.381l-1.087-.844c-.957-.833-3.108-1.348-4.55-1.348-.274 0-.523.017-.728.057a4.57 4.57 0 0 1-.876.078c-.113 0-2.76-.014-2.844-1.163-.01-.124-.01-.75.876-.88l.845-.121 2.723-.453c.437-.113.605-.267.632-.312-.006-.001-.037-.102-.203-.283-.764-.834-1.404-3.063-1.154-3.629l.184-.42.471-.013c.536 0 .715.493.809.758.296.821.915 1.407 2.145 2.574l1.046 1.003c1.04 1.008 1.544 1.159 1.754 1.159.075 0 .142-.018.229-.051l-.239-.644c-.227-.57-.479-1.215-.582-1.853-.156-.961.206-1.908.609-2.381.291-.343.585-.414.783-.414h.303l.291.261c.27.29.275.688.256.963-.086 1.175.85 3.718 3.028 8.241 2.294 4.77 4.854 5.87 4.879 5.88l.031 1.288c-.341.157-3.388 1.539-4.696 1.539h0zM49.03 57.348a18.91 18.91 0 0 1-7.31 1.447c-4.104 0-7.255-1.227-9.455-3.682s-3.3-6.085-3.3-10.891c0-2.328.303-4.435.911-6.319s1.474-3.482 2.6-4.795a11.44 11.44 0 0 1 4.089-3.037c1.6-.712 3.392-1.068 5.377-1.068 1.348 0 2.6.115 3.755.345s2.267.582 3.333 1.057v3.893c-1.052-.578-2.141-1.02-3.266-1.324s-2.355-.456-3.688-.456c-1.363 0-2.596.256-3.7.768a7.65 7.65 0 0 0-2.811 2.225c-.77.972-1.363 2.158-1.777 3.56s-.622 3-.622 4.795c0 3.768.763 6.608 2.289 8.521s3.762 2.87 6.711 2.87c1.245 0 2.437-.144 3.577-.434a16.65 16.65 0 0 0 3.288-1.213v3.739zM75.738 43.71c0 2.61-.308 4.865-.922 6.763s-1.444 3.467-2.489 4.705-2.266 2.159-3.666 2.759a11.11 11.11 0 0 1-4.433.901c-1.866 0-3.493-.338-4.878-1.012s-2.533-1.65-3.444-2.926-1.588-2.829-2.033-4.661-.666-3.897-.666-6.197c0-2.581.303-4.82.911-6.719s1.433-3.467 2.478-4.705 2.263-2.159 3.655-2.759a11.04 11.04 0 0 1 4.422-.901c1.866 0 3.492.341 4.878 1.024a9.27 9.27 0 0 1 3.455 2.926c.918 1.268 1.603 2.815 2.055 4.639s.676 3.88.676 6.164zm-4.111.289c0-1.705-.13-3.267-.389-4.684s-.678-2.636-1.255-3.66-1.322-1.817-2.233-2.38-2.011-.845-3.299-.845c-1.245 0-2.315.301-3.211.901s-1.633 1.416-2.211 2.447-1.008 2.24-1.289 3.627-.422 2.859-.422 4.416c0 1.72.134 3.289.4 4.706s.685 2.633 1.255 3.649 1.307 1.806 2.211 2.369 1.992.846 3.266.846c1.245 0 2.318-.301 3.222-.901s1.647-1.417 2.233-2.448 1.018-2.236 1.3-3.615.422-2.855.422-4.428zm28.731-.423a24.19 24.19 0 0 1-.322 4.005c-.214 1.276-.559 2.462-1.033 3.56a12.01 12.01 0 0 1-1.845 2.993c-.756.898-1.681 1.666-2.777 2.303s-2.37 1.131-3.821 1.48-3.104.523-4.955.523h-6.222V29.36h7.488c4.533 0 7.914 1.168 10.143 3.505s3.344 5.907 3.344 10.713zm-4.155.289c0-2.062-.193-3.805-.578-5.229s-.97-2.573-1.756-3.449-1.77-1.509-2.955-1.902-2.577-.59-4.177-.59h-3.4v22.316h2.955c6.607 0 9.91-3.716 9.91-11.147z"/><path d="M122.957 58.439h-16.51v-29.08h16.51v3.338h-12.555v9.011h12.065v3.338h-12.065v10.012h12.555zm-103.352.33l-2.422 3.481L2.252 44.496l14.932-17.753 2.422 3.513L7.495 44.433zm260.812-28.514l2.4-3.513 14.932 17.753-14.932 17.754-2.4-3.481 12.11-14.209zM147.099 58.439l-4.311-17.354-.866-3.738-2.422 12.059-1.777 9.034h-4.955l5.822-29.08h6.422l4.422 17.466.711 3.404 2.556-12.838 1.644-8.032h5l-5.822 29.08h-6.422zm12.554 0l5.821-29.08h17.465l-.955 4.628h-11.91l-1.466 7.231h11.377l-.866 4.517h-11.377l-1.622 8.077h11.91l-.911 4.628zm46.062-10.258c-.37 1.854-.911 3.46-1.622 4.817s-1.593 2.477-2.644 3.359-2.274 1.536-3.666 1.958-2.941.634-4.645.634c-1.57 0-2.93-.178-4.077-.533s-2.089-.867-2.822-1.535a5.69 5.69 0 0 1-1.578-2.403c-.319-.934-.477-1.981-.477-3.137 0-.979.126-2.032.378-3.16l3.755-18.823h5.466l-3.777 18.956c-.178.92-.266 1.728-.266 2.425 0 .608.074 1.143.223 1.602s.377.846.688 1.157.734.545 1.267.701 1.17.233 1.911.233c.888 0 1.684-.114 2.389-.345s1.318-.601 1.844-1.113.967-1.164 1.322-1.958.645-1.761.867-2.904l3.777-18.756h5.488zm17.533 10.258l-1.778-7.253c-.222-.964-.47-1.758-.744-2.38s-.586-1.113-.933-1.468a2.78 2.78 0 0 0-1.167-.734c-.43-.134-.918-.2-1.466-.2h-.845l-2.377 12.037h-5.466l5.821-29.08h8.333c1.377 0 2.629.115 3.755.345s2.089.597 2.889 1.101 1.414 1.157 1.845 1.958.645 1.78.645 2.937c0 1.172-.178 2.269-.534 3.293a8.61 8.61 0 0 1-1.555 2.748c-.681.808-1.507 1.483-2.478 2.025s-2.071.923-3.299 1.146c.37.208.71.471 1.022.789s.604.727.878 1.224.541 1.098.8 1.802l.811 2.503 2.001 7.209h-6.156zm-4.134-16.309c1.052 0 2.003-.115 2.855-.345s1.575-.567 2.167-1.012a4.52 4.52 0 0 0 1.367-1.646c.318-.653.477-1.402.477-2.247 0-1.024-.36-1.773-1.077-2.247s-1.863-.712-3.434-.712h-2.644l-1.644 8.21h1.932zm24.11 16.82c-3.037 0-5.366-.837-6.988-2.514s-2.433-4.109-2.433-7.298a28.95 28.95 0 0 1 .378-4.583 27.46 27.46 0 0 1 1.156-4.616 22.87 22.87 0 0 1 1.977-4.272c.799-1.342 1.756-2.514 2.866-3.515a13.21 13.21 0 0 1 3.811-2.392c1.429-.593 3.025-.89 4.788-.89 3.037 0 5.367.834 6.988 2.503s2.434 4.097 2.434 7.287a29.18 29.18 0 0 1-.378 4.595 27.57 27.57 0 0 1-1.156 4.628 22.58 22.58 0 0 1-1.977 4.261 15.36 15.36 0 0 1-2.867 3.515c-1.111 1.007-2.381 1.81-3.81 2.403s-3.026.889-4.789.889zm.778-4.917c.933 0 1.789-.207 2.567-.623s1.481-.979 2.111-1.69 1.181-1.547 1.655-2.503a18.53 18.53 0 0 0 1.188-3.093c.318-1.105.556-2.255.71-3.449a27.37 27.37 0 0 0 .233-3.549c0-1.839-.352-3.189-1.055-4.05s-1.841-1.29-3.411-1.29c-.933 0-1.789.204-2.567.612a7.41 7.41 0 0 0-2.111 1.68c-.63.712-1.182 1.551-1.655 2.514a18.96 18.96 0 0 0-1.188 3.093 22.87 22.87 0 0 0-.711 3.449c-.155 1.201-.232 2.388-.232 3.56 0 1.839.347 3.189 1.044 4.05s1.837 1.29 3.422 1.29z"/></svg>