<svg xmlns="http://www.w3.org/2000/svg" width="300" height="90" fill="none" xmlns:v="https://vecta.io/nano"><path d="M138.945 54.199V42.992c0-.292-.194-.487-.484-.487h-3.681V38.12h3.681c.29 0 .484-.195.484-.487v-7.016h5.231v7.016c0 .292.194.487.484.487h5.134v4.385h-5.134c-.291 0-.484.195-.484.487v9.94c0 4.678 1.647 5.067 3.778 5.067a21.96 21.96 0 0 0 2.615-.195v4.58c-.872.097-2.325.292-3.971.292-2.034-.097-7.652-.097-7.652-8.478zm142.196 2.729l4.262-2.241c.968 2.241 2.809 3.703 4.94 3.703 1.647 0 3.487-.682 3.487-2.729 0-1.364-.872-2.144-2.906-2.826l-2.906-.974c-4.068-1.267-6.102-3.606-6.102-6.919 0-4.19 3.487-7.309 8.233-7.309 3.778 0 6.974 2.046 8.524 5.262l-4.262 2.339c-.969-2.046-2.518-3.216-4.359-3.216s-3.1.974-3.1 2.436c0 1.267.969 2.241 2.906 2.826l2.906.975c4.262 1.364 6.296 3.703 6.296 6.919 0 5.068-4.359 7.699-8.718 7.699-4.359-.097-7.846-2.339-9.202-5.945zm-16.079-4.385c-.097.097-.194.195-.194.292v9.355h-5.328V27.595h5.328V46.5c0 .195.097.39.29.39.194.097.387 0 .484-.097l8.621-8.77h6.49l-10.074 10.232c-.194.195-.194.39 0 .584l10.945 13.351h-6.49l-8.427-10.525c-.097-.097-.194-.195-.291-.195s-.194 0-.291.097zm-8.137-11.207l-3.39 3.216c-1.937-1.462-3.875-2.144-6.006-2.144-4.456 0-7.749 3.313-7.749 7.796s3.293 7.796 7.749 7.796c1.937 0 3.971-.682 6.102-2.144l3.003 3.216c-4.359 3.216-6.684 3.801-9.686 3.801-3.584 0-6.78-1.267-9.105-3.606-2.228-2.241-3.487-5.555-3.487-9.063 0-7.309 5.328-12.669 12.689-12.669 2.422 0 6.006.39 9.88 3.801zm-24.991-10.427c0 1.754-1.453 3.216-3.197 3.216s-3.197-1.462-3.197-3.216 1.453-3.216 3.197-3.216 3.197 1.462 3.197 3.216zm-.484 31.281h-5.328V38.12h5.328zm-16.951-10.525v10.622h-5.328v-24.07h5.231v2.923c0 .195.097.39.291.487s.387 0 .484-.195a7.76 7.76 0 0 1 6.587-3.703c.387 0 .678 0 .872.097v5.457c-.291-.097-.775-.097-1.259-.097-4.262-.097-6.877 3.216-6.877 8.478zm-28.575-1.462c0-4.385 3.294-7.796 7.555-7.796s7.555 3.411 7.555 7.796-3.293 7.796-7.555 7.796-7.555-3.411-7.555-7.796zm.484 9.16h.194c.097 0 .291.097.387.195 1.84 2.144 4.553 3.313 7.652 3.313 6.587 0 11.624-5.555 11.624-12.669 0-3.508-1.162-6.627-3.39-9.063-2.131-2.339-5.134-3.606-8.33-3.606-3.003 0-5.812 1.267-7.652 3.508-.097.097-.291.195-.484.097s-.291-.195-.291-.39V27.693h-5.328v34.595h5.328v-2.436c0-.292.097-.39.291-.487zm-22.085-1.364c-4.165 0-7.555-3.411-7.555-7.796s3.294-7.796 7.555-7.796 7.555 3.411 7.555 7.796-3.39 7.796-7.555 7.796zm12.495 4.19V38.12h-5.231v2.436c0 .195-.097.39-.291.39-.194.097-.387 0-.484-.097-1.743-2.144-4.456-3.313-7.652-3.313-6.587 0-11.624 5.555-11.624 12.669s5.134 12.669 11.624 12.669c3.003 0 5.812-1.267 7.652-3.508.097-.195.291-.195.484-.097s.291.195.291.39v2.631h5.231zm-57.343-4.19c-4.165 0-7.555-3.411-7.555-7.796s3.293-7.796 7.555-7.796c4.165 0 7.555 3.411 7.555 7.796s-3.39 7.796-7.555 7.796zm12.495 4.19V38.12h-5.231v2.436c0 .195-.097.39-.291.39-.194.097-.387 0-.484-.097-1.744-2.144-4.456-3.313-7.652-3.313-6.587 0-11.624 5.555-11.624 12.669s5.134 12.669 11.624 12.669c3.003 0 5.812-1.267 7.652-3.508.097-.195.291-.195.484-.097s.291.195.291.39v2.631h5.231zm-40.78-4.19c-4.262 0-7.555-3.411-7.555-7.796s3.293-7.796 7.555-7.796c4.165 0 7.555 3.411 7.555 7.796s-3.39 7.796-7.555 7.796zm12.495 4.19V27.693h-5.327v12.961c0 .195-.097.39-.291.39-.194.097-.387 0-.484-.097-1.84-2.144-4.553-3.313-7.652-3.313-6.587 0-11.624 5.555-11.624 12.669 0 3.508 1.162 6.627 3.39 9.063 2.131 2.339 5.134 3.606 8.33 3.606 3.003 0 5.812-1.267 7.652-3.508.097-.097.291-.195.484-.097s.291.195.291.39v2.534h5.231z" fill="#000"/><path d="M61.964 38.812L33.099 55.184 2.393 37.74.94 38.52v12.669l32.159 18.321 28.865-16.372v6.724L33.099 76.233 2.393 58.789l-1.453.78v2.144l32.159 18.32 32.256-18.32V49.044l-1.453-.78-30.803 17.444L4.33 49.337V42.71l28.768 16.274 32.256-18.321V28.19l-1.647-.877-30.609 17.346L5.88 29.165l27.219-15.397 22.472 12.668 2.034-1.072v-1.559L33.099 9.967.94 28.19v1.949L33.099 48.46l28.865-16.372z" fill="#ff3621"/></svg>