<svg xmlns="http://www.w3.org/2000/svg" xmlns:xlink="http://www.w3.org/1999/xlink" width="300" height="90" xmlns:v="https://vecta.io/nano"><g transform="matrix(1.126841 0 0 1.126841 -9.749801 2.747483)"><g transform="matrix(.643287 0 0 .643287 6.016322 3.20578)"><defs><path id="A" d="M0 .002h609.449v113.386H0z"/></defs><clipPath id="B"><use xlink:href="#A"/></clipPath><path clip-path="url(#B)" d="M16.866 41.015l53.497-7.026c2.253-.369 4.252-.803 6.118-1.325 4.206-1.158 8.082-2.932 11.511-5.267 3.286-2.223 6.346-5.456 9.376-9.001 1.929-2.257 3.954-5.199 5.842-8.039v-1.37c-2.24 3.341-4.447 6.22-6.717 8.764-3.008 3.374-6.164 6.133-9.382 8.205-3.318 2.155-7.056 3.763-11.104 4.781-1.816.459-3.761.833-5.945 1.141-1.44.203-2.925.359-4.36.512l-48.836 5.22zm69.771-8.792c-3.256 1.889-7.018 3.268-11.177 4.106-1.779.361-3.715.655-5.925.898-1.297.141-2.604.256-3.913.369l-2.115.188-46.641 4.425v3.401l46.862-5.558 2.127-.241 3.926-.465c2.267-.305 4.252-.654 6.065-1.068 4.322-.973 8.227-2.511 11.601-4.57 3.354-2.029 6.319-4.869 9.505-8.34 1.984-2.163 4.191-5.213 6.258-8.08v-1.247c-2.433 3.327-4.743 6.121-7.028 8.504-3.111 3.247-6.321 5.829-9.545 7.678m9.106-.833c-3.176 2.935-6.489 5.243-9.853 6.861-3.289 1.597-6.969 2.719-11.251 3.428-1.768.296-3.689.538-5.872.738L16.866 46.71v3.394l46.135-4.934 5.97-.632c2.247-.261 4.209-.557 5.995-.898 4.435-.843 8.24-2.105 11.631-3.853 3.467-1.766 6.928-4.706 10.149-7.816 2.16-2.087 4.239-4.781 6.464-7.605v-1.132c-2.568 3.217-5.019 5.898-7.467 8.156m-12.55 17.624c-3.023 1.704-5.283 2.684-9.597 3.138-2.606.281-5.288.417-7.882.547l-3.765.206-23.396 1.467-21.687 1.473v3.394l21.903-2.026 23.333-2.037 5.837-.454a114.34 114.34 0 0 0 5.88-.592c4.44-.577 8.233-1.483 11.591-2.762 3.62-1.365 7.031-3.481 10.45-5.97 3.08-2.242 7.345-6.667 7.35-6.725v-1.199c-2.787 2.739-4.392 4.279-7.445 6.304-3.647 2.422-9.863 3.708-12.572 5.236m1.101 6.446c-3.273.968-6.958 1.623-11.265 2.002-1.746.153-3.627.27-5.755.355l-5.806.257-44.602 2.274v3.383l44.735-3.386 5.787-.398a122.98 122.98 0 0 0 5.829-.507c4.417-.497 8.193-1.264 11.544-2.345 3.715-1.187 7.337-2.906 10.763-5.11 2.529-1.623 5.06-3.56 7.686-5.867v-.06c-2.894 2.488-5.651 3.04-8.398 4.712-3.367 2.056-6.903 3.634-10.518 4.69m-.534 5.624c-3.298.776-6.871 1.275-11.247 1.569-1.688.116-3.502.201-5.712.271l-5.752.206-44.183 1.841v3.384l44.296-2.953 5.737-.346 5.766-.416c4.458-.414 8.105-1.019 11.479-1.898 3.783-.981 7.462-2.422 10.932-4.28 2.684-1.432 5.36-3.155 8.134-5.232v-1.445c-2.997 2.18-5.872 3.958-8.752 5.408a47.9 47.9 0 0 1-10.698 3.891m-.491 5.511c-3.308.611-6.873 1.001-11.215 1.227-1.635.085-3.384.146-5.671.198l-49.516 1.352v3.38l43.909-2.309 5.689-.291 5.715-.344c4.401-.341 8.026-.827 11.398-1.537 3.83-.803 7.548-1.972 11.046-3.475 2.82-1.206 5.645-2.675 8.587-4.463v-1.356c-3.143 1.841-6.13 3.319-9.098 4.503-3.451 1.382-7.1 2.43-10.844 3.115m-.389 5.536c-6.075.816-12.329.913-18.379 1.003l-4.159.07-43.476.787v3.377l43.551-1.892 4.149-.176c6.09-.245 12.392-.496 18.55-1.482 3.898-.62 7.648-1.534 11.15-2.722 2.897-.978 5.902-2.244 8.945-3.739V66.06c-3.199 1.502-6.342 2.749-9.362 3.683-3.459 1.078-7.149 1.882-10.969 2.388m-.344 5.572c-5.694.474-11.521.474-17.155.474l-5.258.016-43.257.307v3.379l43.305-1.412 5.245-.147c5.664-.144 11.524-.294 17.273-.921 4.018-.434 7.676-1.07 11.178-1.944 3.055-.754 6.193-1.767 9.343-2.978v-1.241c-3.253 1.177-6.494 2.137-9.65 2.837-3.469.769-7.076 1.303-11.024 1.63m-.221 5.49l-7.854.141c-1.101 0-2.202-.006-3.298-.015l-11.208-.139-22.408-.077-20.681.021V86.5l20.729-.548 22.383-.499 11.195-.147c3.073-.05 7.126-.14 11.23-.411 4.023-.264 7.685-.667 11.195-1.232 3.158-.509 6.384-1.193 9.612-2.021v-1.198c-3.316.77-6.612 1.386-9.81 1.815-3.489.47-7.114.776-11.085.934M71.033 88.5l-11.168-.12-42.999-.737v3.377l43.01-.364 11.172-.166 11.18-.261c7.678-.248 14.556-.79 20.983-1.647v-1.174c-6.452.7-13.34 1.068-21.021 1.118-3.717.033-7.438.005-11.157-.026" fill="#bcbec0"/></g><path fill="#bcbec0" d="M16.866 64.73H72.41v-.752l-55.544-1.418z"/><g transform="matrix(.643287 0 0 .643287 6.016322 3.20578)"><defs><path id="C" d="M0 .002h609.449v113.386H0z"/></defs><clipPath id="D"><use xlink:href="#C"/></clipPath><g fill="#bcbec0"><path clip-path="url(#D)" d="M95.435 37.766c-3.279 2.656-5.812 4.543-9.828 6.15-3.494 1.4-7.249 1.972-11.539 2.562-2.762.391-5.646.966-8.403 1.151l-3.399.241-45.399 3.336v3.386l45.582-4.452 5.913-.56c2.192-.207 4.136-.451 5.947-.747 4.418-.713 8.225-1.806 11.637-3.336 3.539-1.573 7.121-4.149 10.449-6.971 2.265-1.916 4.445-4.329 6.816-6.961v-1.214c-2.868 2.985-5.246 5.373-7.776 7.415m44.521-28.779l18.381 29.288c2.84 4.538 6.088 8.125 17.584 10.566l16.503 3.589v.88l-16.706-3.657c-9.399-2.099-13.241-2.807-17.529-8.769l-18.233-26.05zm0 28.265l18.233 19.079c4.34 4.513 9.899 6.184 17.602 7.561l16.631 2.827v.835l-16.631-2.781c-7.764-1.33-13.199-2.072-17.646-6.171l-18.189-16.989zm0 6.677l18.233 16.761c4.403 3.926 7.97 5.147 17.65 6.863l16.583 2.785v.88l-16.631-2.691c-7.874-1.252-12.891-1.746-17.602-5.563l-18.233-14.95zm0 7.122l18.239 14.323c2.872 2.134 6.669 4.623 17.694 6.216l16.535 2.365v.928l-16.535-2.271c-6.625-.836-11.702-1.192-17.649-5.15-5.787-3.853-18.284-12.653-18.284-12.653zm0 6.842l18.332 11.888c2.917 1.623 6.346 4.267 17.601 5.704l16.535 2.087v.881l-16.583-1.807c-7.272-.791-12.226-1.856-17.646-4.825s-18.239-10.458-18.239-10.458zm0 6.846l18.233 9.726c5.143 2.583 9.59 3.817 17.65 4.778l16.583 1.855v.833l-16.583-1.668c-8.494-.805-11.516-1.177-17.65-3.896l-18.233-8.38zm0 6.938l18.332 7.609c7.442 2.953 13.124 3.201 17.646 3.714l16.49 1.716v.833l-16.535-1.391c-7.874-.694-11.27-.99-17.649-3.107l-18.284-6.27zm0 7.072s10.869 3.369 18.281 5.317 14.22 2.736 17.647 2.968l16.54 1.297v.79l-16.585-1.159c-7.382-.526-13.31-1.081-17.65-2.042l-18.233-4.251z"/><path clip-path="url(#D)" d="M139.956 85.707l18.281 3.091c7.041 1.166 16.583 1.901 17.602 1.948s16.583 1.114 16.583 1.114v.833l-16.583-.882-17.65-1.206-18.233-2.113zm0 7.201l18.281.62c4.262.092 34.185 1.299 34.185 1.299v.813h-52.466zm35.883-40.242c-12.693-2.737-15.565-7.375-17.694-10.252s-18.189-26.343-18.189-26.343v5.295l18.233 23.785c4.35 5.594 11.166 6.865 17.65 8.258l16.585 3.331v-.743l-16.585-3.331m0 3.71c-10.422-2.042-14.637-5.333-17.694-9.324L139.956 23.12v5.014l18.189 21.424c4.332 4.962 10.374 6.261 17.694 7.606l16.583 3.108v-.743l-16.583-3.153m0 3.85c-10.839-2.103-13.062-3.835-17.65-8.859-2.881-3.159-17.611-20.552-18.233-21.284v4.633l18.189 19.016c5.807 5.688 11.255 6.123 17.694 7.282l16.583 3.015v-.787l-16.583-3.016"/></g></g><path fill="#034ea2" d="M39.952 32.176h48.663v32.553H39.952z"/><path d="M63.486 37.867l-1.375-1.063H63.8l.511-1.644.5 1.644h1.692l-1.363 1.063.529 1.686-1.359-1.039-1.36 1.039zm.064 21.672l-1.379-1.025h1.69l.511-1.583.499 1.583h1.696l-1.365 1.025.531 1.621-1.36-1-1.359 1zm5.369-1.441l-1.378-1.022h1.69l.511-1.583.499 1.583h1.696l-1.365 1.022.531 1.625-1.36-1.003-1.359 1.003zm0-18.821l-1.378-1.023h1.69l.511-1.582.499 1.582h1.696l-1.365 1.023.531 1.621-1.36-.998-1.359.998zm3.986 3.983l-1.378-1.022h1.688l.511-1.582.502 1.582h1.692l-1.365 1.022.532 1.626-1.361-1-1.357 1zm0 10.908l-1.378-1.025h1.688l.511-1.582.502 1.582h1.692l-1.365 1.025.532 1.624-1.361-1.003-1.357 1.003zm1.495-5.535l-1.378-1.025h1.688l.515-1.581.497 1.581h1.696l-1.365 1.025.531 1.622-1.359-1.001-1.36 1.001zm-16.388-9.342l-1.375-1.025h1.687l.512-1.582.5 1.582h1.692l-1.365 1.025.531 1.624-1.359-1.002-1.361 1.002zm-3.875 3.984l-1.377-1.023h1.69l.511-1.581.499 1.581h1.696l-1.365 1.023.528 1.623-1.357-1-1.359 1zm-1.439 5.369l-1.375-1.023h1.688l.512-1.581.499 1.581h1.694l-1.363 1.023.529 1.624-1.358-.999-1.361.999zm1.439 5.539l-1.377-1.026h1.69l.511-1.58.499 1.58h1.696l-1.365 1.026.528 1.622-1.357-1.001-1.359 1.001zm3.931 3.929l-1.374-1.023h1.687l.512-1.582.5 1.582h1.692l-1.365 1.023.528 1.624-1.355-1-1.361 1z" fill="#fff200"/><g fill="#636466"><path d="M266.67 65.156v-3.358c0-1.169-.139-2.2-1.702-2.2-.706 0-1.516.394-1.945.695-.012 0-.023-.012-.035-.012v-.347c0-.15-.059-.231-.221-.231h-.821c-.162 0-.221.081-.221.231v5.222c0 .151.059.22.221.22h.821c.162 0 .221-.081.221-.22v-3.867c.312-.151 1.123-.521 1.586-.521.672 0 .834.451.834 1.135l-.012 3.254c0 .151.069.22.221.22h.834c.173.001.219-.08.219-.219m-7.329-2.628c0 1.239-.208 1.83-1.263 1.83-.973 0-1.193-.602-1.193-1.83 0-1.204.22-1.83 1.204-1.83 1.054.001 1.251.602 1.251 1.83m1.296-.081c0-1.366-.313-2.86-2.56-2.86-2.235 0-2.478 1.772-2.478 2.86 0 1.32.151 3.022 2.478 3.022 2.398.001 2.56-1.702 2.56-3.022m-6.356-2.524c0-.127-.046-.22-.208-.22h-.822c-.162 0-.231.058-.231.22v5.234c0 .151.069.22.231.22h.822c.162 0 .208-.093.208-.22zm.069-1.725c0-.394-.116-.66-.683-.66-.556 0-.683.289-.683.66 0 .335.081.672.683.672.579 0 .683-.313.683-.672m-2.223 6.159c-.023-.139-.081-.174-.208-.162l-.776.046c-.614 0-.776-.023-.776-.637v-2.883h1.239c.185 0 .22-.069.22-.22v-.579c0-.139-.035-.22-.22-.22h-1.239v-1.517c0-.15-.093-.174-.232-.139l-.776.208c-.127.035-.22.093-.22.255v1.193h-.591c-.174 0-.22.081-.22.231v.568c0 .15.046.22.22.22h.578v2.906c0 .996.069 1.841 1.425 1.841.359 0 1.1-.069 1.505-.243.116-.058.174-.139.15-.289zm-6.101.371c.116.545.452.707.996.707.174 0 .359-.023.544-.059.197-.035.279-.116.279-.243v-.486c0-.127-.046-.162-.221-.174-.359-.046-.416-.058-.416-.533v-2.235c0-1.298-.243-2.12-2.246-2.12-.544 0-1.459.081-1.957.255-.255.104-.289.197-.266.347l.104.428c.035.162.093.174.324.139l1.575-.104c.949 0 1.204.243 1.204.938v.301h-1.483c-1.459 0-2.188.579-2.177 1.934 0 .973.36 1.644 1.586 1.644.776 0 1.552-.313 2.131-.753zm-.093-.834c-.44.255-1.146.544-1.644.544-.544 0-.718-.162-.718-.672 0-.764.371-.973.95-.973h1.412zm-7.017.058l-.428-1.331-.926-2.71c-.058-.174-.116-.208-.278-.208h-.915c-.15 0-.174.104-.127.231l1.968 5.211c.058.162.116.231.324.231h.776c.185 0 .266-.069.324-.243l1.969-5.211c.058-.139.035-.22-.139-.22h-.88c-.174 0-.221.058-.266.185l-.926 2.686-.44 1.378zm-4.469-1.424c0 1.239-.208 1.83-1.262 1.83-.973 0-1.193-.602-1.193-1.83 0-1.204.22-1.83 1.204-1.83 1.053.001 1.251.602 1.251 1.83m1.296-.081c0-1.366-.313-2.86-2.559-2.86-2.235 0-2.479 1.772-2.479 2.86 0 1.32.151 3.022 2.479 3.022 2.397.001 2.559-1.702 2.559-3.022m-6.137 2.71v-3.358c0-1.169-.139-2.2-1.702-2.2-.707 0-1.517.394-1.945.695-.012 0-.023-.012-.035-.012v-.347c0-.15-.058-.231-.22-.231h-.822c-.162 0-.22.081-.22.231v5.222c0 .151.058.22.22.22h.822c.162 0 .22-.081.22-.22v-3.867c.312-.151 1.123-.521 1.586-.521.672 0 .834.451.834 1.135l-.012 3.254c0 .151.069.22.22.22h.834c.174.001.22-.08.22-.219m-6.114 0v-3.358c0-1.169-.139-2.2-1.702-2.2-.707 0-1.517.394-1.945.695-.012 0-.023-.012-.035-.012v-.347c0-.15-.058-.231-.22-.231h-.822c-.162 0-.22.081-.22.231v5.222c0 .151.058.22.22.22h.822c.162 0 .22-.081.22-.22v-3.867c.312-.151 1.123-.521 1.586-.521.672 0 .834.451.834 1.135l-.012 3.254c0 .151.069.22.22.22h.834c.174.001.22-.08.22-.219m-7.793 0c0 .151.058.22.221.22h.879c.162 0 .221-.093.221-.22v-7.237c0-.139-.059-.231-.221-.231h-.879c-.163 0-.221.081-.221.231zm-8.302-5.952c0 .463-.394.764-.926 1.054-.266-.371-.405-.695-.405-.973 0-.312.197-.729.66-.729.382 0 .672.278.672.648m-1.146 5.315c-.776 0-1.413-.359-1.413-1.25 0-.66.475-1.204 1.204-1.633.417.648 1.227 1.667 1.934 2.351-.579.37-1.182.544-1.725.532m4.921.88c.093-.139.093-.197-.046-.278-.498-.289-1.019-.672-1.471-1.065.614-.637 1.354-1.957 1.424-3.184.012-.22-.035-.301-.243-.312h-.522c-.208 0-.22.023-.255.231a4.58 4.58 0 0 1-1.204 2.525c-.706-.683-1.285-1.402-1.818-2.201.926-.486 1.505-1.112 1.505-1.945 0-.903-.706-1.598-1.783-1.598-1.169 0-1.818.788-1.818 1.772 0 .336.185.903.533 1.425-1.123.648-1.795 1.528-1.795 2.559 0 1.528 1.158 2.177 2.559 2.177.869 0 1.783-.255 2.536-.753.521.452 1.297.996 1.772 1.216.185.082.266.023.347-.081zm-11.799-.243v-3.358c0-1.169-.162-2.2-1.759-2.2-.718 0-1.506.382-1.922.637v-2.802c0-.139-.058-.22-.232-.22h-.822c-.15 0-.208.069-.208.22v7.723c0 .151.058.22.208.22h.822c.174 0 .22-.081.22-.22v-3.902c.313-.14 1.123-.522 1.587-.522.694 0 .834.441.834 1.077l-.012 3.346c0 .151.069.22.232.22h.822c.173 0 .231-.081.231-.22m-5.871-.729c-.035-.197-.116-.197-.301-.174-.475.058-1.146.104-1.494.104-.926 0-1.25-.428-1.25-1.876 0-1.285.324-1.772 1.262-1.772.393 0 .938.059 1.412.104.221.012.313.012.36-.162l.081-.463a.27.27 0 0 0-.174-.324c-.497-.208-1.25-.279-1.783-.279-2.142 0-2.479 1.483-2.479 2.918 0 1.575.313 2.964 2.479 2.964.567 0 1.32-.081 1.759-.266.208-.093.243-.185.197-.359zm-6.971-2.999c.405-.174 1.227-.405 1.876-.533.243-.046.232-.116.22-.278l-.081-.776c-.023-.197-.127-.232-.278-.197-.544.104-1.366.497-1.714.821l-.023-.023v-.509c0-.139-.058-.231-.232-.231h-.821c-.162 0-.22.081-.22.231v5.222c0 .151.058.22.22.22h.834c.162 0 .22-.081.22-.22v-3.728zm-4.133 3.3c.116.545.452.707.996.707a2.94 2.94 0 0 0 .544-.059c.197-.035.279-.116.279-.243v-.486c0-.127-.046-.162-.22-.174-.36-.046-.417-.058-.417-.533v-2.235c0-1.298-.243-2.12-2.246-2.12-.544 0-1.459.081-1.957.255-.255.104-.289.197-.266.347l.104.428c.035.162.093.174.324.139l1.575-.104c.949 0 1.204.243 1.204.938v.301h-1.482c-1.46 0-2.188.579-2.178 1.934 0 .973.36 1.644 1.587 1.644.775 0 1.551-.313 2.131-.753zm-.093-.834c-.44.255-1.146.544-1.644.544-.544 0-.718-.162-.718-.672 0-.764.371-.973.95-.973h1.412zm-7.039-3.265c.961 0 1.146.683 1.146 1.389h-2.293c.057-.868.289-1.389 1.146-1.389m1.91 2.259c.463 0 .579-.289.567-.707-.035-1.25-.405-2.594-2.478-2.594-2.258 0-2.466 1.853-2.466 2.976 0 1.506.324 2.918 2.535 2.918.568 0 1.413-.116 1.864-.289.208-.093.232-.185.197-.36l-.069-.382c-.035-.22-.104-.22-.313-.197l-1.505.127c-.95 0-1.366-.324-1.401-1.493h3.068zm-5.338.787c0-1.378-.996-1.598-2.096-1.76-.707-.116-.984-.174-.984-.625 0-.44.174-.648.915-.648.428 0 1.077.069 1.575.127.208.023.278 0 .313-.163l.093-.416c.035-.174-.046-.266-.243-.347-.486-.185-1.285-.255-1.76-.255-1.297 0-2.177.603-2.177 1.749 0 1.262.996 1.505 2.131 1.667.729.104.926.22.926.753 0 .463-.301.66-1.042.66-.393 0-1.135-.059-1.644-.14-.185-.023-.266-.012-.301.174l-.081.382c-.035.185.012.289.243.382.44.174 1.216.255 1.795.255 1.193-.001 2.34-.441 2.34-1.795m-7.77-3.046c.961 0 1.146.683 1.146 1.389h-2.293c.058-.868.289-1.389 1.146-1.389m1.911 2.259c.464 0 .579-.289.568-.707-.035-1.25-.406-2.594-2.479-2.594-2.258 0-2.466 1.853-2.466 2.976 0 1.506.324 2.918 2.536 2.918.567 0 1.412-.116 1.864-.289.208-.093.232-.185.197-.36l-.069-.382c-.035-.22-.104-.22-.313-.197l-1.505.127c-.949 0-1.366-.324-1.401-1.493h3.068zm-6.773-2.941c0 1.054-.73 1.227-1.298 1.227h-1.204v-2.34h1.227c.672 0 1.274.243 1.274 1.112m-.023 2.119c1.007-.382 1.378-1.297 1.378-2.119 0-1.598-1.169-2.258-2.362-2.258h-2.571c-.174 0-.231.081-.231.22v7.249c0 .151.058.22.231.22h.857c.162 0 .22-.093.22-.231v-2.872h1.181l1.355 2.906c.069.162.162.197.335.197h.996c.127 0 .185-.104.127-.243zm-9.912-.637c.405-.174 1.227-.405 1.876-.533.243-.046.232-.116.22-.278l-.081-.776c-.023-.197-.127-.232-.278-.197-.545.104-1.366.497-1.714.821l-.023-.023v-.509c0-.139-.058-.231-.232-.231h-.821c-.162 0-.221.081-.221.231v5.222c0 .151.059.22.221.22h.834c.162 0 .22-.081.22-.22v-3.728zm-3.914 1.1c0 1.239-.208 1.83-1.262 1.83-.973 0-1.193-.602-1.193-1.83 0-1.204.221-1.83 1.204-1.83 1.054.001 1.251.602 1.251 1.83m1.297-.081c0-1.366-.312-2.86-2.559-2.86-2.235 0-2.479 1.772-2.479 2.86 0 1.32.151 3.022 2.479 3.022 2.397.001 2.559-1.702 2.559-3.022m-7.225-1.725h1.378c.174 0 .208-.069.208-.232v-.567c0-.139-.035-.22-.208-.22h-1.378v-.486c0-.672.289-.961.984-.961a9.97 9.97 0 0 1 .996.081c.197.023.289.012.335-.139l.081-.464c.023-.127.023-.255-.15-.324-.487-.197-1.135-.266-1.46-.266-1.471 0-2.038.764-2.038 1.945v.614h-.544c-.162 0-.22.081-.22.231v.556c0 .162.058.232.22.232h.533v4.435c0 .151.069.22.231.22h.822c.162 0 .208-.093.208-.22v-4.434z"/><path d="M252.52 49.593c0-1.528.556-1.737 1.274-1.737.37 0 .798.046 1.158.104v3.3a5.05 5.05 0 0 1-1.308.197c-.81-.001-1.123-.452-1.123-1.864m1.216-2.872c-1.979 0-2.535 1.159-2.535 2.976 0 1.714.452 2.872 2.327 2.872.37 0 .834-.069 1.424-.279v.382c0 .718-.243 1.02-1.227 1.02a11.29 11.29 0 0 1-1.598-.116c-.22-.035-.301-.023-.335.162l-.093.428c-.023.127-.012.243.232.336.475.197 1.262.266 1.864.266 2.212 0 2.443-.996 2.443-2.327v-4.898c0-.208-.035-.428-.313-.521-.568-.185-1.459-.301-2.189-.301m-3.659 5.57v-3.358c0-1.169-.139-2.2-1.702-2.2-.706 0-1.516.394-1.945.695-.012 0-.023-.012-.035-.012v-.347c0-.15-.058-.231-.22-.231h-.821c-.162 0-.221.081-.221.231v5.222c0 .151.059.22.221.22h.821c.162 0 .22-.081.22-.22v-3.867c.313-.151 1.123-.521 1.587-.521.672 0 .834.451.834 1.135l-.012 3.254c0 .151.069.22.221.22h.834c.173.001.219-.08.219-.219m-6.333-5.233c0-.127-.046-.22-.208-.22h-.822c-.162 0-.232.058-.232.22v5.234c0 .151.069.22.232.22h.822c.162 0 .208-.093.208-.22zm.069-1.725c0-.394-.116-.66-.683-.66-.556 0-.683.289-.683.66 0 .335.081.672.683.672.579 0 .683-.313.683-.672m-4.006 5.604c-.336.174-1.088.521-1.564.521-.602 0-.892-.243-.892-1.725 0-1.46.279-1.899 1.123-1.899a4.74 4.74 0 0 1 1.332.197v2.906zm1.262 1.354v-7.711c0-.14-.023-.232-.208-.232h-.822c-.185 0-.22.081-.22.232v2.397c-.012 0-.012.012-.023.012-.497-.185-.973-.266-1.435-.266-1.876 0-2.304 1.123-2.304 3.022 0 1.748.393 2.86 1.899 2.86.683 0 1.424-.394 1.83-.683.012 0 .023.012.035.012v.371c0 .15.058.208.208.208h.834c.161-.001.208-.082.208-.221m-6.091 0v-3.358c0-1.169-.14-2.2-1.702-2.2-.706 0-1.517.394-1.945.695-.012 0-.023-.012-.035-.012v-.347c0-.15-.058-.231-.22-.231h-.822c-.162 0-.22.081-.22.231v5.222c0 .151.058.22.22.22h.822c.162 0 .22-.081.22-.22v-3.867c.313-.151 1.123-.521 1.586-.521.672 0 .834.451.834 1.135l-.012 3.254c0 .151.069.22.22.22h.834c.174.001.22-.08.22-.219m-6.136 0v-5.222c0-.15-.059-.231-.221-.231h-.821c-.174 0-.22.093-.22.231v3.868c-.302.15-1.065.521-1.564.521-.706 0-.845-.44-.845-1.135v-3.254c0-.15-.058-.231-.208-.231h-.845c-.162 0-.22.093-.22.231v3.404c0 1.216.151 2.142 1.714 2.142.706 0 1.494-.382 1.945-.695l.023.012v.359c0 .139.046.22.22.22h.821c.162-.001.221-.069.221-.221m-7.678-4.434h1.379c.174 0 .208-.069.208-.232v-.567c0-.139-.035-.22-.208-.22h-1.379v-.486c0-.672.289-.961.984-.961a9.96 9.96 0 0 1 .996.081c.197.023.289.012.336-.139l.081-.464c.023-.127.023-.255-.151-.324a4.44 4.44 0 0 0-1.459-.266c-1.471 0-2.038.764-2.038 1.945v.614h-.545c-.162 0-.22.081-.22.231v.556c0 .162.058.232.22.232h.533v4.435c0 .151.069.22.232.22h.821c.162 0 .208-.093.208-.22v-4.434zm-6.229 4.434v-3.358c0-1.169-.139-2.2-1.702-2.2-.706 0-1.516.394-1.945.695-.012 0-.023-.012-.035-.012v-.347c0-.15-.058-.231-.22-.231h-.821c-.162 0-.221.081-.221.231v5.222c0 .151.059.22.221.22h.821c.162 0 .22-.081.22-.22v-3.867c.313-.151 1.123-.521 1.587-.521.672 0 .834.451.834 1.135l-.012 3.254c0 .151.069.22.22.22h.834c.172.001.219-.08.219-.219m-7.33-2.628c0 1.239-.208 1.83-1.262 1.83-.973 0-1.193-.602-1.193-1.83 0-1.204.22-1.83 1.204-1.83 1.054.001 1.251.602 1.251 1.83m1.298-.081c0-1.366-.313-2.86-2.56-2.86-2.235 0-2.478 1.772-2.478 2.86 0 1.32.15 3.022 2.478 3.022 2.398.001 2.56-1.702 2.56-3.022m-6.357-2.524c0-.127-.046-.22-.208-.22h-.822c-.162 0-.232.058-.232.22v5.234c0 .151.069.22.232.22h.822c.162 0 .208-.093.208-.22zm.069-1.725c0-.394-.116-.66-.683-.66-.556 0-.683.289-.683.66 0 .335.081.672.683.672.579 0 .683-.313.683-.672m-2.71 6.958v-3.358c0-1.169-.139-2.2-1.702-2.2-.707 0-1.517.394-1.945.695-.012 0-.023-.012-.035-.012v-.347c0-.15-.058-.231-.22-.231h-.822c-.162 0-.22.081-.22.231v5.222c0 .151.058.22.22.22h.822c.162 0 .22-.081.22-.22V48.43c.312-.151 1.123-.521 1.586-.521.672 0 .834.451.834 1.135l-.012 3.254c0 .151.069.22.22.22h.834c.174.001.22-.08.22-.219m-9.159-.845c-1.019 0-1.54-.614-1.54-1.749v-4.643c0-.139-.058-.231-.22-.231h-.869c-.162 0-.22.081-.22.231v4.643c0 .603.104 1.159.347 1.622.44.845 1.274 1.285 2.501 1.285 1.159 0 2.2-.441 2.652-1.541.174-.451.208-.903.208-1.366l.012-4.643c0-.139-.046-.231-.208-.231h-.869a.2.2 0 0 0-.231.231v4.643c.001 1.193-.556 1.749-1.563 1.749m-7.48.845v-3.358c0-1.169-.139-2.2-1.702-2.2-.707 0-1.517.394-1.945.695-.012 0-.023-.012-.035-.012v-.347c0-.15-.058-.231-.22-.231h-.822c-.162 0-.22.081-.22.231v5.222c0 .151.058.22.22.22h.822c.162 0 .22-.081.22-.22v-3.867c.313-.151 1.123-.521 1.586-.521.672 0 .834.451.834 1.135l-.012 3.254c0 .151.069.22.22.22h.834c.174.001.22-.08.22-.219m-7.548-.428c.116.545.451.707.996.707a2.89 2.89 0 0 0 .544-.059c.197-.035.278-.116.278-.243v-.486c0-.127-.046-.162-.22-.174-.359-.046-.416-.058-.416-.533V48.85c0-1.298-.243-2.12-2.246-2.12-.544 0-1.46.081-1.957.255-.255.104-.289.197-.266.347l.104.428c.035.162.093.174.324.139l1.575-.104c.949 0 1.204.243 1.204.938v.301h-1.483c-1.459 0-2.188.579-2.177 1.934 0 .973.36 1.644 1.586 1.644.776 0 1.552-.313 2.131-.753zm-.093-.834c-.44.255-1.146.544-1.644.544-.544 0-.718-.162-.718-.672 0-.764.371-.973.95-.973h1.412zm-7.039-3.265c.96 0 1.146.683 1.146 1.389h-2.292c.057-.868.289-1.389 1.146-1.389m1.911 2.259c.463 0 .578-.289.567-.707-.035-1.25-.405-2.594-2.478-2.594-2.259 0-2.466 1.853-2.466 2.976 0 1.506.324 2.918 2.535 2.918.567 0 1.413-.116 1.864-.289.208-.093.231-.185.197-.36l-.069-.382c-.035-.22-.104-.22-.312-.197l-1.505.127c-.95 0-1.366-.324-1.402-1.493h3.069zm-6.6-.394c0 1.459-.289 1.887-1.123 1.887-.394 0-.811-.046-1.332-.197v-2.895c.347-.185 1.077-.521 1.552-.521.614 0 .903.254.903 1.725m1.308.011c0-1.748-.393-2.895-1.911-2.895-.672 0-1.413.405-1.83.695l-.035-.023v-.347c0-.139-.046-.231-.208-.231h-.822c-.162 0-.22.081-.22.231v7.341c0 .151.035.232.22.232h.822c.185 0 .22-.104.22-.232v-2.038l.012-.012c.533.185 1.065.255 1.447.255 1.83 0 2.304-1.088 2.304-2.976m-7.434.023c0 1.239-.208 1.83-1.262 1.83-.973 0-1.193-.602-1.193-1.83 0-1.204.221-1.83 1.204-1.83 1.054.001 1.251.602 1.251 1.83m1.297-.081c0-1.366-.312-2.86-2.559-2.86-2.235 0-2.479 1.772-2.479 2.86 0 1.32.151 3.022 2.479 3.022 2.397.001 2.559-1.702 2.559-3.022m-7.653-1.019c.405-.174 1.227-.405 1.876-.533.243-.046.232-.116.22-.278l-.081-.776c-.023-.197-.127-.232-.278-.197-.545.104-1.366.497-1.714.821l-.023-.023v-.509a.2.2 0 0 0-.232-.231h-.821c-.162 0-.221.081-.221.231v5.222c0 .151.059.22.221.22h.834c.162 0 .22-.081.22-.22v-3.728zm-2.722 3.728v-5.222c0-.15-.058-.231-.22-.231h-.822c-.174 0-.22.093-.22.231v3.868c-.301.15-1.065.521-1.563.521-.706 0-.845-.44-.845-1.135v-3.254c0-.15-.058-.231-.208-.231h-.845c-.162 0-.22.093-.22.231v3.404c0 1.216.15 2.142 1.714 2.142.706 0 1.494-.382 1.945-.695l.023.012v.359c0 .139.046.22.22.22h.822c.162-.001.22-.069.22-.221m-10.827.012c0 .139.069.208.232.208h4.319c.162 0 .22-.058.22-.208v-.707c0-.15-.069-.22-.208-.22h-3.242v-2.281h2.802c.174 0 .232-.069.232-.208v-.718c0-.139-.081-.208-.232-.208h-2.802v-1.992h3.161c.174 0 .231-.069.231-.208v-.718a.2.2 0 0 0-.22-.22h-4.261a.2.2 0 0 0-.232.231zm63.355-19.313c1.424 0 1.633 1.054 1.633 2.814 0 1.621-.266 2.791-1.633 2.791-1.343 0-1.54-1.193-1.54-2.791.001-1.552.209-2.814 1.54-2.814m0 6.751c2.779 0 2.953-2.594 2.953-4.053 0-1.725-.278-3.833-2.953-3.833-2.71 0-2.872 2.721-2.872 3.833 0 1.632.127 4.053 2.872 4.053m-7.608-1.263l2.293-2.2c.764-.776 1.088-1.274 1.088-2.304 0-1.32-.683-2.107-2.721-2.107-.44 0-1.528.069-2.142.313-.255.104-.255.22-.231.359l.081.463c.035.162.093.208.301.185.509-.069 1.273-.151 1.968-.151 1.204 0 1.413.324 1.413 1.077 0 .556-.313.984-.764 1.424l-1.169 1.146-1.783 1.714c-.116.116-.15.243-.15.382v.66a.16.16 0 0 0 .197.197h4.956c.139 0 .185-.069.185-.197v-.729c0-.139-.058-.197-.197-.197h-3.3zm-5.685-5.489c1.425 0 1.633 1.054 1.633 2.814 0 1.621-.266 2.791-1.633 2.791-1.343 0-1.54-1.193-1.54-2.791 0-1.552.209-2.814 1.54-2.814m0 6.751c2.779 0 2.953-2.594 2.953-4.053 0-1.725-.279-3.833-2.953-3.833-2.71 0-2.872 2.721-2.872 3.833 0 1.632.127 4.053 2.872 4.053m-7.607-1.263l2.292-2.2c.764-.776 1.088-1.274 1.088-2.304 0-1.32-.683-2.107-2.721-2.107-.44 0-1.528.069-2.142.313-.255.104-.255.22-.231.359l.081.463c.035.162.093.208.301.185.509-.069 1.273-.151 1.968-.151 1.204 0 1.413.324 1.413 1.077 0 .556-.313.984-.764 1.424l-1.169 1.146-1.783 1.714c-.116.116-.15.243-.15.382v.66a.16.16 0 0 0 .197.197h4.956c.139 0 .185-.069.185-.197v-.729c0-.139-.058-.197-.197-.197h-3.301zm-6.206.938v-3.358c0-1.169-.139-2.2-1.702-2.2-.707 0-1.517.394-1.945.695-.012 0-.023-.012-.035-.012v-.347c0-.151-.059-.232-.221-.232h-.821c-.162 0-.22.081-.22.232v5.222c0 .151.058.22.22.22h.821c.162 0 .221-.081.221-.22v-3.867c.312-.151 1.123-.521 1.586-.521.672 0 .834.452.834 1.135l-.012 3.254c0 .151.069.22.221.22h.834c.174.001.22-.08.22-.22m-7.329-2.628c0 1.239-.208 1.83-1.262 1.83-.973 0-1.193-.602-1.193-1.83 0-1.204.22-1.83 1.204-1.83 1.053.001 1.251.603 1.251 1.83m1.296-.081c0-1.366-.313-2.86-2.559-2.86-2.235 0-2.479 1.772-2.479 2.86 0 1.32.151 3.022 2.479 3.022 2.397.001 2.559-1.701 2.559-3.022m-8.846 1.853l2.71-3.451a.56.56 0 0 0 .139-.382v-.568c0-.162-.069-.197-.22-.197h-3.798c-.162 0-.22.058-.22.208v.625c0 .162.058.22.22.22h2.524l-2.778 3.532c-.116.139-.127.255-.127.382v.509a.16.16 0 0 0 .197.197h4.041c.151 0 .22-.069.22-.22v-.648c0-.151-.069-.208-.231-.208h-2.676zm-2.721-4.377c0-.127-.046-.22-.208-.22h-.822c-.162 0-.232.058-.232.22v5.234c0 .151.069.22.232.22h.822c.162 0 .208-.093.208-.22zm.069-1.726c0-.394-.116-.66-.683-.66-.555 0-.683.289-.683.66 0 .336.081.672.683.672.579 0 .683-.313.683-.672m-4.226 3.231c.405-.174 1.227-.405 1.876-.533.243-.046.232-.116.22-.278l-.081-.776c-.023-.197-.127-.232-.278-.197-.544.104-1.366.498-1.714.822l-.023-.023v-.509a.2.2 0 0 0-.231-.232h-.822c-.162 0-.22.081-.22.232v5.222c0 .151.058.22.22.22h.834c.162 0 .22-.081.22-.22v-3.728zm-3.914 1.1c0 1.239-.208 1.83-1.262 1.83-.973 0-1.193-.602-1.193-1.83 0-1.204.22-1.83 1.204-1.83 1.054.001 1.251.603 1.251 1.83m1.298-.081c0-1.366-.313-2.86-2.56-2.86-2.235 0-2.478 1.772-2.478 2.86 0 1.32.15 3.022 2.478 3.022 2.398.001 2.56-1.701 2.56-3.022m-7.665-1.679h-2.918v-2.848c0-.139-.046-.232-.208-.232h-.868a.2.2 0 0 0-.232.232v7.237c0 .151.069.22.232.22h.868c.162 0 .208-.093.208-.22v-3.242h2.918v3.242c0 .151.069.22.231.22h.869c.162 0 .208-.093.208-.22v-7.237c0-.139-.046-.232-.208-.232h-.869a.2.2 0 0 0-.231.232z"/></g></g></svg>