<svg xmlns="http://www.w3.org/2000/svg" width="300" height="90" fill="#e72d2b" fill-rule="evenodd" xmlns:v="https://vecta.io/nano"><path d="M100.193 23.628l-.009-2.809c-.018-.498.14-.677.658-.674l10.764.002c.461-.002.657.141.611.607-.022.224-.004.452-.004.679l-.004 34.92c-.002.828.157 1.114 1.045 1.077 1.832-.076 1.834-.019 1.834 1.857l.015 9.215c.008.681-.102.94-.875.931l-11.055-.005c-.602.005-.931-.192-1.214-.698-.503-.9-.883-2.167-1.663-2.53-.786-.366-1.756.718-2.668 1.12-14.591 6.424-31.386-2.369-34.292-17.974-2.426-13.029 5.81-25.523 18.861-28.568.592-.138.825-.306.791-.924a24.78 24.78 0 0 1-.001-2.617c.029-.6-.185-.845-.773-.753-.566.089-.684-.173-.692-.703-.037-2.386-.054-2.385 2.326-2.385l8.825-.02c.832-.015 1.102.251.996 1.039-.043.317-.035.649-.002.968.079.751-.027 1.295-.994 1.106-.388-.076-.495.152-.49.509l.002 3.104c-.002.319.049.536.441.611 2.642.507 5.103 1.509 7.567 2.917zM75.066 46.185c.648 5.831 5.158 10.373 10.999 11.169.6.082.859-.07.758-.691-.103-.627.276-.657.752-.656.467 0 .857 0 .746.642-.101.585.104.795.731.728 5.558-.597 10.319-5.18 11.087-10.711.092-.659.198-1.344-.877-1.139-.506.096-.51-.291-.457-.615s-.261-.94.4-.862c1.217.145 1.036-.586.912-1.297-.986-5.668-5.406-9.861-11.108-10.562-.455-.056-.773-.051-.693.55.065.486.037.838-.666.835-.709-.003-.922-.249-.83-.899.063-.439-.139-.532-.564-.494-5.696.499-10.564 5.343-11.196 11.118-.062.567.03.782.602.694.558-.085.817.077.793.718-.02.563-.136.869-.759.78s-.856.153-.63.692zm152.881-14.588l8.673 21.332 8.678-21.331c-1.781 0-3.449-.025-5.116.013-.586.013-.773-.134-.764-.747v-7.468c-.01-.631.212-.737.779-.735l23.177-.005c.672-.002.808.228.802.83l.004 7.372c.008.61-.185.77-.774.754-1.454-.04-2.911.025-4.363-.031-.635-.024-.889.223-1.112.773L243.09 68.849c-2.318 5.652-5.267 10.918-9.804 15.15-4.348 4.054-9.482 5.714-15.37 5.125-1.7-.17-3.401-.32-5.088-.626-.705-.128-.805-.425-.741-1.025l.668-6.65c.094-.931.231-1.859.284-2.793.03-.519.148-.62.691-.531 3.053.504 6.097.66 9.053-.545 3.3-1.346 5.839-3.499 7.29-6.824.219-.503.218-.95.008-1.466l-14.727-36.229c-.253-.624-.551-.888-1.259-.856-1.451.065-2.908.003-4.363.029-.492.009-.683-.126-.679-.649l.002-7.566c-.004-.522.124-.734.702-.733h23.372c.557-.001.706.171.701.712l.007 7.469c.013.695-.263.779-.843.767-1.642-.031-3.284-.011-5.047-.011"/><path d="M153.53 31.585c-1.228 0-2.46-.055-3.684.02-.782.048-.964-.259-.865-.936.058-.398-.035-.657-.518-.727-3.751-.548-7.521-.912-11.279-.279-2.68.451-3.962 2.551-3.515 5.204.201 1.19.986 1.851 1.971 2.337 1.869.92 3.909 1.277 5.915 1.74 2.887.666 5.769 1.35 8.496 2.545 4.12 1.804 7.094 4.637 7.773 9.269.697 4.756.263 9.37-2.685 13.401-2.122 2.902-5.209 4.232-8.637 4.853-3.789.687-7.591.453-11.392.07-4.404-.443-8.715-1.378-13.016-2.383-.797-.186-1.056-.506-1.033-1.336.064-2.359.042-4.72.01-7.08-.009-.63.094-.908.823-.894 2.488.047 4.978.034 7.467.006.594-.006.949.098.83.781-.122.697.164.916.874 1.009 3.758.494 7.523.79 11.298.329 2.125-.26 3.905-1.145 4.602-3.402.592-1.915-.004-3.394-1.783-4.287-2.07-1.039-4.338-1.394-6.582-1.83-3.774-.732-7.479-1.676-10.831-3.666-4.323-2.566-6.528-6.362-6.684-11.383-.095-3.056.279-6.001 1.962-8.637 1.945-3.046 4.92-4.546 8.303-5.395 3.905-.98 7.882-.907 11.85-.702 4.715.243 9.343 1.095 13.924 2.23.743.184 1.037.44 1.012 1.268-.071 2.358-.046 4.72-.011 7.08.01.636-.169.837-.812.811-1.259-.05-2.521-.015-3.781-.015M53.97 45.968l-.015 13.485c-.004.665.144.893.843.866l4.364-.029c.599-.015.848.105.837.782l-.006 7.566c.005.547-.071.79-.719.788l-22.695-.003c-.602.002-.765-.169-.758-.762l.002-7.664c-.005-.553.17-.719.718-.707l4.655.024c.561.012.779-.094.777-.729v-27.26c.002-.65-.249-.734-.796-.723-1.519.03-3.039-.01-4.558.021-.554.011-.812-.087-.8-.732l.007-6.499c-.004-.497.099-.731.668-.805l4.68-.745c.563-.084.811-.266.803-.913l-.012-8.925c.013-2.141.249-4.259 1.002-6.278 1.23-3.298 3.9-4.764 7.137-5.389 4.761-.919 9.516-.554 14.255.241.366.061.738.079.623.7l-1.412 8.295c-.12.848-.485.907-1.121.79-1.7-.313-3.416-.219-5.125-.16-2.239.078-3.254 1.047-3.321 3.296-.075 2.52-.011 5.044-.043 7.566-.008.564.246.614.698.611l7.371-.023c.722-.012 1.002.117.98.936-.064 2.423-.044 4.85-.003 7.275.01.613-.164.767-.756.759-2.425-.031-4.85.021-7.274-.032-.785-.017-1.034.155-1.026.989l.021 13.387m109.974-16.492l-.02-27.637c-.003-.841.182-1.089 1.056-1.074 3.36.057 6.721.044 10.082.007.725-.008.923.192.92.922l-.035 19.976c-.004.784.154 1.045.989 1.025 2.487-.061 4.976.002 7.464-.038.688-.011.949.114.931.881-.056 2.391-.047 4.784-.004 7.175.013.704-.142.935-.892.92-2.552-.052-5.106-.002-7.658-.032-.611-.007-.83.131-.827.794l.029 22.012c.009 2.579.806 3.344 3.375 3.38 1.744.024 3.495.075 5.216-.253.511-.098.625.096.691.492l1.563 9.439c.05.306.216.67-.373.797-4.727 1.018-9.454 1.686-14.28.631-4.626-1.011-7.004-4.016-7.8-8.513-.362-2.045-.429-4.107-.428-6.175l.001-24.728m27.229 5.636l-.02-33.271c-.002-.852.203-1.09 1.067-1.077l9.988.002c.822-.012 1.005.239 1.004 1.027l-.041 57.326c-.002.972.212 1.276 1.202 1.206 1.351-.095 2.714-.001 4.071-.035.547-.014.721.151.716.707l-.002 7.76c.005.502-.132.665-.649.663-5.56-.016-11.12-.023-16.68.006-.726.004-.659-.383-.659-.85l.003-33.464"/><path d="M264.095 64.927c-.014 2.55-2.001 4.491-4.589 4.483-2.541-.007-4.557-2.031-4.54-4.557.017-2.48 2.133-4.555 4.617-4.525 2.535.03 4.526 2.06 4.512 4.599zm-4.54-3.738c-2.1-.004-3.771 1.623-3.789 3.69-.018 2.054 1.661 3.757 3.722 3.775 2.127.018 3.815-1.645 3.817-3.76.003-2.089-1.629-3.701-3.75-3.705zM87.81 42.442c.454.163.791-.124 1.141-.432l3.571-3.125c.419-.388.617-.213.931.084.337.319.418.55.06.933L90.33 43.42c-.311.343-.504.671-.483 1.189.059 1.439-.921 2.479-2.238 2.488-1.267.009-2.336-1.077-2.319-2.354.018-1.326 1.072-2.31 2.52-2.301m173.76 24.57c-.918.307-1.441-.033-1.802-.76-.128-.259-.312-.525-.665-.46-.44.081-.244.454-.262.702-.025.334.024.621-.481.629-.524.008-.563-.256-.557-.66l-.001-3.196c-.008-.426.08-.673.582-.636.578.042 1.172-.043 1.739.052 1.28.213 1.878 1.727.95 2.543-.524.46-.319.662-.057 1.017l.554.772zm-2.274-2.154c.584-.06 1.071-.008 1.085-.605.015-.628-.446-.643-.92-.678-.499-.036-.652.132-.647.635s.162.71.481.648z"/></svg>