<svg xmlns="http://www.w3.org/2000/svg" width="300" height="90" fill="#b1b1b1" fill-rule="evenodd" xmlns:v="https://vecta.io/nano"><path d="M67.695 32.13c3.822-.002 7.664.231 11.463-.071 3.377-.268 4.332 1.104 4.388 4.246.215 11.913-3.648 21.886-14.144 28.123-11.266 6.694-23.027 6.387-34.374.133-17.079-9.413-22.45-30.952-12.111-47.316C33.185.994 55.426-3.729 70.779 7.265c1.303.933 5.027 1.325 2.962 4.496-3.224 4.951-4.815 5.399-8.247 3.045-10.01-6.867-23.809-4.998-31.923 4.327-7.83 8.998-7.69 23.41.314 32.464 7.995 9.042 21.895 10.896 31.636 4.259 4.078-2.779 6.541-6.582 7.896-11.32.783-2.739-.071-3.302-2.623-3.235-5.29.139-10.6-.201-15.874.115-3.722.222-3.262-2.053-3.082-4.21.177-2.125-1.441-5.353 3.066-5.12 4.252.219 8.525.047 12.79.045m145.477 33.02c-7.673 5.324-15.344 5.186-22.886-.082-8.041-5.617-11.143-16.657-7.376-26.017 3.541-8.802 12.776-14.753 21.138-13.539 2.78.404 5.296 1.474 7.719 3.011 2.524 1.601 3.389-2.647 6.518-2.026 3.383.672 5.021.734 4.894 4.922-.358 11.794.016 23.608-.188 35.409-.198 11.438-5.309 18.571-14.605 21.109-9.356 2.554-19.541-1.529-24.062-9.506-1.123-1.981-1.096-2.835 1.269-3.834 3.396-1.435 5.785-2.73 8.571 1.595 2.822 4.383 9.295 4.923 14 2.447 4.422-2.327 6.323-7.264 5.007-13.489zm1.251-17.701c.03-7.852-4.765-13.369-11.565-13.306-6.791.065-11.991 5.736-12.066 13.16-.07 7.014 5.675 13.289 12.134 13.252 6.519-.037 11.468-5.681 11.497-13.107z"/><path d="M108.057 69.025c-12.305-.096-21.853-9.742-21.725-21.948.128-12.181 9.965-21.851 22.084-21.707 12.264.145 21.862 9.909 21.685 22.06-.18 12.362-9.704 21.691-22.044 21.596zm.117-34.86c-6.846.007-12.191 5.657-12.242 12.938-.051 7.386 5.571 13.506 12.366 13.461s12.355-6.211 12.251-13.581c-.102-7.248-5.487-12.825-12.375-12.817zm135.01 12.588c.089-10.821 6.503-18.92 16.586-20.943 9.339-1.873 17.818 3.232 22.021 12.92 1.121 2.582.533 3.5-1.895 4.461-7.633 3.017-15.097 6.484-22.794 9.316-3.777 1.389-2.743 2.734-.828 4.687 4.384 4.472 11.754 4.337 16.74-.182.85-.77 1.227-2.86 2.924-1.933 2.175 1.187 4.315 2.576 6.11 4.265.736.692-.75 1.691-1.37 2.413-5.777 6.73-15.766 9.163-24.153 5.933-8.345-3.214-13.422-11.182-13.341-20.937zm9.276-.235l18.044-7.508c.377-.158.663-.533.991-.807-2.964-3.864-6.829-5.155-11.116-3.741-4.718 1.556-7.573 5.698-7.919 12.056zm-75.081.758c.064 12.276-9.424 21.764-21.747 21.748-12.345-.017-21.749-9.435-21.768-21.801-.019-12.279 9.516-21.82 21.802-21.816 12.245.004 21.648 9.475 21.712 21.87zm-21.771-13.158c-7.149.04-12.071 5.449-12.088 13.286-.015 7.261 5.288 13.125 11.951 13.213 6.854.091 12.758-6.37 12.55-13.734-.207-7.285-5.573-12.804-12.413-12.766zm73.653 1.363l-.063-28.286c-.045-2.615.465-3.564 3.307-3.526 6.479.086 6.483-.089 6.483 6.557l.128 53.489c.088 4.875-2.531 4.037-5.436 4.211-3.155.188-4.666-.345-4.538-4.161.315-9.419.103-18.855.103-28.284h.015"/></svg>