<svg xmlns="http://www.w3.org/2000/svg" width="300" height="90" fill-rule="evenodd" xmlns:v="https://vecta.io/nano"><path d="M66.03 31.87c3.9-.002 7.819.236 11.695-.072 3.445-.274 4.419 1.126 4.477 4.332.219 12.155-3.722 22.329-14.431 28.692-11.494 6.83-23.493 6.516-35.069.136C15.277 55.355 9.797 33.38 20.346 16.684 30.822.104 53.513-4.715 69.176 6.501c1.329.952 5.129 1.352 3.022 4.587-3.29 5.051-4.912 5.508-8.414 3.106-10.213-7.006-24.29-5.099-32.569 4.414-7.988 9.18-7.846 23.883.321 33.121 8.157 9.225 22.338 11.117 32.276 4.345 4.161-2.835 6.673-6.715 8.056-11.549.799-2.794-.072-3.369-2.676-3.301-5.397.142-10.814-.205-16.195.118-3.798.227-3.328-2.095-3.145-4.295.18-2.168-1.47-5.461 3.128-5.223 4.338.223 8.698.048 13.049.046m148.42 33.689c-7.828 5.431-15.654 5.291-23.349-.084-8.204-5.731-11.368-16.994-7.525-26.544 3.613-8.981 13.035-15.051 21.566-13.813 2.836.412 5.403 1.504 7.875 3.072 2.575 1.634 3.457-2.7 6.65-2.067 3.452.685 5.122.749 4.993 5.022-.365 12.032.016 24.086-.192 36.125-.202 11.669-5.416 18.946-14.9 21.536-9.545 2.605-19.937-1.56-24.549-9.698-1.146-2.021-1.118-2.892 1.295-3.912 3.464-1.465 5.903-2.785 8.744 1.627 2.879 4.471 9.483 5.023 14.283 2.497 4.511-2.374 6.451-7.411 5.109-13.762zm1.277-18.059c.031-8.011-4.862-13.64-11.799-13.575-6.929.066-12.234 5.852-12.31 13.426-.071 7.156 5.79 13.558 12.379 13.521 6.65-.038 11.7-5.796 11.729-13.372z" fill="#4286f7"/><path d="M107.209 69.511c-12.554-.098-22.295-9.939-22.164-22.393.131-12.428 10.167-22.293 22.531-22.147 12.512.148 22.305 10.11 22.124 22.506-.184 12.612-9.9 22.13-22.49 22.033zm.119-35.565c-6.985.007-12.438 5.771-12.49 13.2-.052 7.535 5.684 13.779 12.616 13.733s12.605-6.336 12.499-13.856c-.105-7.395-5.598-13.085-12.625-13.077zm137.741 12.843c.091-11.04 6.635-19.303 16.922-21.366 9.528-1.911 18.179 3.298 22.467 13.181 1.143 2.634.544 3.571-1.934 4.551-7.787 3.078-15.402 6.616-23.255 9.505-3.854 1.418-2.799 2.79-.845 4.782 4.473 4.563 11.992 4.425 17.079-.185.867-.786 1.252-2.918 2.983-1.973 2.219 1.211 4.402 2.628 6.233 4.351.751.706-.765 1.725-1.397 2.462-5.894 6.866-16.085 9.348-24.642 6.053-8.514-3.279-13.694-11.409-13.611-21.361zm9.463-.24l18.41-7.66c.385-.161.677-.544 1.011-.824-3.024-3.942-6.968-5.26-11.341-3.817-4.813 1.587-7.726 5.814-8.079 12.3z" fill="#ee4537"/><path d="M177.933 47.322c.065 12.524-9.615 22.205-22.187 22.188-12.594-.017-22.189-9.626-22.208-22.242-.019-12.527 9.708-22.261 22.243-22.258 12.493.004 22.086 9.667 22.151 22.312zm-22.212-13.425c-7.294.041-12.315 5.56-12.332 13.555-.015 7.408 5.395 13.39 12.193 13.481 6.993.093 13.016-6.499 12.803-14.011-.211-7.433-5.685-13.063-12.664-13.024z" fill="#febd07"/><path d="M230.865 35.288l-.064-28.858c-.046-2.668.475-3.636 3.374-3.597 6.61.088 6.614-.09 6.614 6.69l.131 54.571c.09 4.974-2.582 4.119-5.546 4.296-3.218.192-4.76-.352-4.629-4.245.322-9.61.105-19.237.105-28.856h.015" fill="#30a952"/><g fill="#fdfbfb"><path d="M107.328 33.946c7.027-.008 12.521 5.682 12.625 13.077.106 7.52-5.568 13.811-12.499 13.856s-12.668-6.198-12.616-13.733c.052-7.428 5.505-13.192 12.49-13.2m147.205 12.603c.353-6.486 3.266-10.713 8.079-12.3 4.374-1.443 8.317-.126 11.341 3.817-.334.279-.626.663-1.011.824l-18.41 7.66"/><path d="M155.721 33.898c6.978-.039 12.453 5.591 12.664 13.024.213 7.512-5.811 14.105-12.803 14.011-6.797-.09-12.208-6.073-12.193-13.481.017-7.995 5.038-13.514 12.332-13.555"/></g></svg>