<?xml version="1.0" encoding="UTF-8" standalone="no"?>
<svg
   width="300"
   height="90"
   viewBox="0 0 300 90"
   version="1.1"
   id="svg4370"
   sodipodi:docname="google.svg"
   inkscape:version="1.1.1 (3bf5ae0d25, 2021-09-20)"
   xmlns:inkscape="http://www.inkscape.org/namespaces/inkscape"
   xmlns:sodipodi="http://sodipodi.sourceforge.net/DTD/sodipodi-0.dtd"
   xmlns="http://www.w3.org/2000/svg"
   xmlns:svg="http://www.w3.org/2000/svg"
   xmlns:rdf="http://www.w3.org/1999/02/22-rdf-syntax-ns#"
   xmlns:cc="http://creativecommons.org/ns#"
   xmlns:dc="http://purl.org/dc/elements/1.1/"
   xmlns:sketch="http://www.bohemiancoding.com/sketch/ns">
  <sodipodi:namedview
     id="namedview4372"
     pagecolor="#ffffff"
     bordercolor="#666666"
     borderopacity="1.0"
     inkscape:pageshadow="2"
     inkscape:pageopacity="0.0"
     inkscape:pagecheckerboard="0"
     showgrid="false"
     inkscape:zoom="1.4096865"
     inkscape:cx="126.97859"
     inkscape:cy="-89.026888"
     inkscape:window-width="1866"
     inkscape:window-height="1016"
     inkscape:window-x="54"
     inkscape:window-y="27"
     inkscape:window-maximized="1"
     inkscape:current-layer="svg4370" />
  <!-- Generator: Sketch 3.3.3 (12072) - http://www.bohemiancoding.com/sketch -->
  <title
     id="title4356">Imported Layers</title>
  <desc
     id="desc4358">Created with Sketch.</desc>
  <defs
     id="defs4360" />
  <g
     id="Page-1"
     stroke="none"
     stroke-width="1"
     fill="none"
     fill-rule="evenodd"
     sketch:type="MSPage"
     transform="matrix(1.4768169,0,0,1.4768169,17.321101,0.51370291)">
    <g
       id="Imported-Layers"
       sketch:type="MSLayerGroup"
       fill="#b1b1b1">
      <path
         d="m 34.109701,21.4086 c 2.588173,-0.0012 5.189502,0.1566 7.762126,-0.048 2.286778,-0.1818 2.933223,0.7476 2.971495,2.8752 0.145316,8.067 -2.470365,14.82 -9.577674,19.0428 -7.628771,4.533 -15.592425,4.3248 -23.275615,0.09 C 0.42518272,36.9948 -3.2118937,22.41 3.7895681,11.3292 10.741993,0.3252 25.802193,-2.8728 36.19794,4.5714 c 0.88206,0.6318 3.403854,0.897 2.005714,3.0444 -2.183322,3.3522 -3.260332,3.6558 -5.584186,2.0616 -6.778405,-4.65 -16.121661,-3.384 -21.616146,2.9298 -5.3019266,6.093 -5.2074416,15.8514 0.212891,21.9822 5.413754,6.1224 14.82578,7.3782 21.421794,2.8836 2.761594,-1.8816 4.428837,-4.4568 5.346777,-7.665 0.530432,-1.8546 -0.04784,-2.2362 -1.77608,-2.1906 -3.58206,0.0942 -7.177275,-0.1362 -10.748571,0.078 -2.520598,0.1506 -2.209037,-1.3902 -2.087043,-2.8506 0.119601,-1.4388 -0.975947,-3.6246 2.076279,-3.4668 2.879402,0.1482 5.772558,0.0318 8.660332,0.0306"
         id="Fill-1"
         sketch:type="MSShapeGroup" />
      <path
         d="m 132.61635,43.7682 c -5.19549,3.6048 -10.38977,3.5118 -15.49675,-0.0558 -5.44485,-3.8034 -7.54505,-11.2788 -4.99455,-17.6172 2.39801,-5.9604 8.65136,-9.9894 14.31329,-9.1674 1.88252,0.2736 3.58624,0.9984 5.22658,2.0388 1.7091,1.0842 2.29455,-1.7922 4.41388,-1.3722 2.29097,0.4548 3.39967,0.4968 3.31416,3.333 -0.2422,7.986 0.0108,15.9858 -0.12738,23.9766 -0.13395,7.7448 -3.59462,12.5748 -9.88923,14.2938 -6.33529,1.7292 -13.2321,-1.0356 -16.29329,-6.4368 -0.76067,-1.3416 -0.74213,-1.9194 0.85933,-2.5962 2.29934,-0.972 3.91754,-1.8486 5.80366,1.08 1.91063,2.9676 6.29402,3.3336 9.4796,1.6572 2.99422,-1.5756 4.28172,-4.9188 3.3907,-9.1338 z m 0.84737,-11.9856 c 0.0203,-5.3166 -3.22684,-9.0528 -7.8309,-9.0096 -4.59867,0.0438 -8.11973,3.8838 -8.16996,8.9112 -0.0472,4.7496 3.84279,8.9982 8.21601,8.9736 4.41389,-0.0252 7.76512,-3.8466 7.78485,-8.8752 z"
         id="Fill-2"
         sketch:type="MSShapeGroup" />
      <path
         d="M 61.440399,46.3914 C 53.108372,46.3266 46.643322,39.795 46.730033,31.5294 c 0.08671,-8.2482 6.747907,-14.796 14.953754,-14.6988 8.304519,0.0984 14.803655,6.7098 14.683456,14.9376 -0.121994,8.3706 -6.570898,14.688 -14.926844,14.6232 z m 0.07894,-23.6046 c -4.635747,0.0048 -8.254883,3.8304 -8.289568,8.7606 -0.03468,5.001 3.772226,9.1452 8.373289,9.1146 4.599868,-0.03 8.366113,-4.2054 8.295549,-9.1962 -0.06937,-4.908 -3.715416,-8.6844 -8.37927,-8.679 z"
         id="Fill-3"
         sketch:type="MSShapeGroup" />
      <path
         d="m 152.939,31.3104 c 0.0604,-7.3272 4.40372,-12.8112 11.23117,-14.181 6.32392,-1.2684 12.06538,2.1888 14.91129,8.7486 0.75887,1.7484 0.3612,2.37 -1.28332,3.0204 -5.16857,2.043 -10.22233,4.3908 -15.43455,6.3084 -2.55768,0.9408 -1.85741,1.8516 -0.56093,3.174 2.9685,3.0282 7.95887,2.937 11.33521,-0.123 0.57529,-0.5214 0.83063,-1.9368 1.98,-1.3092 1.47289,0.804 2.92186,1.7442 4.13701,2.8878 0.49814,0.4686 -0.5077,1.1448 -0.92751,1.6338 -3.91156,4.557 -10.67561,6.2046 -16.35488,4.0176 -5.65056,-2.1762 -9.0885,-7.572 -9.03349,-14.1774 z m 6.28087,-0.159 c 4.20339,-1.7448 8.21481,-3.4044 12.21847,-5.0838 0.25535,-0.1068 0.4491,-0.3612 0.67096,-0.5466 -2.00691,-2.6166 -4.62438,-3.4908 -7.52711,-2.5332 -3.19455,1.0536 -5.1279,3.8586 -5.36232,8.1636 z"
         id="Fill-4"
         sketch:type="MSShapeGroup" />
      <path
         d="m 108.38033,31.6644 c 0.0431,8.3124 -6.38133,14.7372 -14.725313,14.7264 -8.358937,-0.0114 -14.72711,-6.3888 -14.739668,-14.7624 -0.01256,-8.3142 6.443521,-14.775 14.76299,-14.7726 8.291361,0.0024 14.658341,6.4158 14.701991,14.8086 z m -14.742058,-8.91 c -4.840863,0.027 -8.173554,3.69 -8.184917,8.9964 -0.01017,4.9164 3.580864,8.8872 8.092226,8.9472 4.64113,0.0618 8.638809,-4.3134 8.497679,-9.2994 -0.13994,-4.9332 -3.773426,-8.67 -8.404988,-8.6442 z"
         id="Fill-5"
         sketch:type="MSShapeGroup" />
      <path
         d="m 143.51143,23.6772 c 0,-6.3846 0.0664,-12.7704 -0.0425,-19.1532 -0.0305,-1.7706 0.31515,-2.4132 2.23953,-2.3874 4.38698,0.0582 4.38997,-0.06 4.38997,4.44 6e-4,12.0738 -0.13156,24.1494 0.0867,36.219 0.0598,3.3012 -1.71388,2.7336 -3.68073,2.8512 -2.13608,0.1272 -3.15927,-0.2334 -3.07256,-2.8176 0.21349,-6.378 0.07,-12.7674 0.07,-19.152 h 0.01"
         id="Fill-6"
         sketch:type="MSShapeGroup" />
    </g>
  </g>
  <metadata
     id="metadata4454">
    <rdf:RDF>
      <cc:Work
         rdf:about="">
        <dc:title>Imported Layers</dc:title>
      </cc:Work>
    </rdf:RDF>
  </metadata>
</svg>
