<svg xmlns="http://www.w3.org/2000/svg" width="300" height="90" fill-rule="evenodd" xmlns:v="https://vecta.io/nano"><g fill="#223664"><path d="M40.172 80.565l86.878.007h131.668l1.117-.006.012 8.171c.004.456-.093.655-.568.563-.09-.018-.186-.002-.279-.002-72.665 0-145.329-.001-217.994.018-.707 0-.865-.168-.853-.857.046-2.63.019-5.261.019-7.892M259.835 20c-1.725.225-2.974 1.236-3.89 2.594l-6.969 10.615c-.246.377-.306.795-.305 1.239l.011 8.54c.019 2.416.705 3.286 3.041 3.992.343.103.704.145.65.7-.058.587-.451.41-.743.411a1021.07 1021.07 0 0 1-8.751-.001c-.286-.001-.686.19-.745-.403-.054-.549.288-.628.64-.702 1.704-.355 2.568-1.406 2.586-3.122l.039-9.001c-.001-.63-.293-1.182-.629-1.715l-5.956-9.5c-1.074-1.748-2.373-3.174-4.488-3.589-.442-.087-.418-.336-.429-.656-.013-.404.219-.442.534-.442l9.402.003c.278 0 .577-.041.585.388.006.356.013.604-.474.71-2.701.586-2.569 1.618-1.365 3.581l5.413 8.649 5.608-9.213c.854-1.464.445-2.243-1.2-2.758-.383-.12-.772-.248-1.167-.29-.453-.048-.329-.352-.351-.606-.025-.292.063-.47.405-.461l8.548.109V20M140.967.679c.177.222.244.463.242.756l-.014 5.658c-.002.265.165.648-.373.661-.614.015-.402-.429-.405-.709l-.008-4.865-2.544 3.693-2.364-3.423-.181.014.012 4.641c.012.546-.174.733-.693.63l-.028-6.883.009-.006.754.024 2.525 3.734 2.51-3.927h.559m-28.32.002c.176.214.396.357.39.722l-.024 5.753c-.002.203.173.525-.231.591-.313.051-.507-.095-.696-.338l-3.444-4.376c-.185-.234-.38-.461-.775-.654v2.98l-.003 1.763c-.006.28.126.652-.406.633s-.363-.409-.365-.673L107.06.679h.559c.23.23.485.442.687.695l3.172 3.999c.214.267.35.63.782.787V1.73c0-.363-.059-.738.203-1.051h.187"/><path d="M99.979.679c1.156.609 2.169 1.313 2.475 2.725.402 1.856-.57 3.743-2.3 4.306-1.784.581-3.691-.242-4.416-1.904-.783-1.796-.062-3.866 1.644-4.763.19-.1.482-.069.546-.364zm1.735 3.613c-.001-1.644-1.176-2.873-2.742-2.868s-2.733 1.248-2.715 2.894c.018 1.563 1.212 2.817 2.708 2.845 1.538.029 2.749-1.237 2.748-2.871zM171.895.679c.393.198.37.555.368.918l-.015 5.383c-.003.253.243.648-.245.762-.369.086-.555-.16-.752-.411l-3.62-4.592c-.125-.157-.194-.395-.545-.411l-.009 4.694c-.003.276.228.747-.391.726-.606-.02-.358-.485-.361-.757L166.307.68h.373c.404.201.713.493.99.856l3.207 4.074c.152.19.225.526.612.469l.001-4.452c0-.332-.056-.679.221-.948h.186m35.584 0l3.105 6.985c-.625.265-.938-.008-1.087-.578-.243-.933-.796-1.376-1.798-1.189-.299.056-.624.049-.927.001-1.113-.175-1.883.114-2.19 1.322-.141.551-.238.526-.989.44l3.141-6.981h.745zm-.399 1.014l-1.338 2.972c-.209.432-.087.539.342.533l2.567-.003-1.571-3.502zM121.218.679l3.103 6.985c-.626.267-.938-.012-1.085-.579-.243-.934-.797-1.374-1.798-1.187a2.8 2.8 0 0 1-.927.001c-1.113-.175-1.911.104-2.176 1.325-.116.534-.493.65-1.006.437l3.143-6.982zm-.39 1.02l-.473 1c-1.228 2.725-1.228 2.725 1.825 2.462.028-.002.055-.022.157-.066l-1.51-3.395z"/><path d="M158.854.679l3.164 6.963c-.642.302-.974.008-1.1-.545-.236-1.04-.875-1.376-1.88-1.197a2.5 2.5 0 0 1-.741.002c-1.145-.146-2.063.041-2.313 1.392-.101.546-.512.508-.957.391L158.108.68h.745zm-1.921 4.516l2.584.004c.474.008.501-.159.316-.549l-1.325-2.959-1.575 3.504zM56.381.679c.179.211.412.341.405.713l-.016 5.754c0 .298.085.639-.43.608-.477-.029-.295-.367-.335-.606-.01-.06.003-.124-.002-.185-.069-.76.35-1.795-.174-2.206-.486-.381-1.479-.135-2.249-.14-1.625-.01-1.625-.003-1.625 1.586 0 .186.048.388-.01.553-.118.336.385.993-.411.974-.696-.016-.345-.616-.35-.926L51.165.679h.559c.406.48.215 1.052.223 1.583.023 1.617.008 1.617 1.575 1.617.524 0 1.055-.057 1.569.013.814.111.958-.236.937-.968-.021-.744-.218-1.524.168-2.245h.186m142.529 0c.175.214.396.355.39.72l-.017 5.745c0 .293.095.636-.424.611-.465-.023-.331-.343-.354-.592-.011-.123-.002-.247-.002-.371-.004-2.178-.004-2.178-2.234-2.178-1.82 0-1.82 0-1.821 1.836l-.005 1.019c-.001.257-.173.281-.374.28s-.387-.01-.379-.273c.063-2.21-.164-4.425.116-6.63.007-.058.048-.112.073-.167h.186c.253.211.436.42.398.811-.057.583.014 1.177-.023 1.762-.031.481.121.655.62.636l2.792.001c.56.025.676-.205.66-.706l.024-2.505h.373"/></g><g fill="#fdfdfe"><path d="M171.709.679c-.277.269-.22.616-.221.948l-.001 4.452c-.386.057-.459-.279-.612-.469l-3.207-4.074c-.278-.363-.587-.655-.99-.856h5.031m26.829-.001l-.024 2.505c.016.501-.1.731-.66.706l-2.792-.001c-.499.019-.651-.155-.62-.636.037-.586-.034-1.18.023-1.762.038-.391-.145-.6-.398-.811h4.471M56.195.679c-.385.721-.189 1.501-.168 2.245.021.732-.124 1.079-.937.968-.514-.07-1.045-.013-1.569-.013-1.567 0-1.552 0-1.575-1.617-.008-.53.184-1.103-.223-1.583h4.471m56.267 0c-.263.313-.203.688-.203 1.051v4.431c-.432-.157-.568-.521-.782-.787l-3.172-3.999c-.202-.253-.457-.464-.687-.695h4.844"/><path d="M140.409.679l-2.51 3.927-2.525-3.734.004-.193h5.031"/></g><path d="M240.458.679c.205.234.087.43-.06.637l-1.228 1.737c-.988 1.181-1.589 2.462-1.333 4.048.04.249.174.647-.37.653-.538.005-.427-.382-.386-.641.249-1.554-.349-2.799-1.305-3.966-.559-.683-1.01-1.455-1.528-2.213.582-.23.92-.104 1.219.374l1.983 2.95c.764-1.237 1.753-2.247 2.262-3.578h.745" fill="#223664"/><g fill="#a0b1c5"><path d="M250.893 7.74c-.283-.095-.217-.34-.216-.539l.029-6.521h3.54a1.44 1.44 0 0 0 .013.155l-2.87.022c-.378-.003-.566.095-.56.514l.065 6.369M46.879.679c.175.78-.168 1.038-.921.963-.481-.048-.97-.012-1.455-.014.502-.355 1.069-.08 1.599-.167.244-.04.634.124.619-.329-.012-.379-.358-.265-.575-.264L41.32.903l-.028-.224h5.589"/><path d="M86.203.881l-.012-.202h5.031l-.017.205-5.002-.003M66.629.679l.002.187-4.997.046-.036-.233h5.031"/></g><path d="M259.835 7.739c-.303-.109-.799.294-.916-.27-.17-.818.31-.852.916-.659v.929" fill="#223664"/><path d="M228.534.679a1 1 0 0 0 .012.156l-3.533.054-.019-.209h3.54m-13.587.201l-.013-.202h3.54c-.007.054-.004.107.011.159l-3.537.043m-37.821.002l-.015-.204h2.981c-.003.053.001.105.011.157l-2.977.047M135.378.679l-.004.193-.754-.024c-.007-.057-.003-.113.012-.168h.745M77.091.903l-.029-.224h.745a.47.47 0 0 1 .009.175l-.726.05" fill="#a0b1c5"/><g fill="#223664"><path d="M150.785 25.674l-2.35 4.786-7.735 15.789c-.2.407-.259.921-.974.929-.767.009-.805-.554-1.01-.985l-8.819-18.548-.375-.764c-.266.171-.211.401-.219.588l-.606 16.049c-.072 2.17.558 3.132 2.49 3.492.422.078.531.302.507.711-.031.531-.407.371-.675.372l-6.612.001c-.245-.001-.591.134-.625-.324-.027-.364-.014-.675.449-.753 2.108-.356 2.646-1.505 2.756-3.868l.697-15.301c.067-1.455.066-2.902-.278-4.334-.385-1.604-1.206-2.836-2.831-3.391-.41-.14-.486-.384-.465-.762.027-.499.384-.394.675-.395l3.724-.016c.598-.024.864.212 1.103.724l10.612 22.611.253.508c.309-.211.38-.551.524-.84l10.991-22.128c.31-.627.643-.938 1.396-.882 1.08.081 2.171.021 3.258.021.286 0 .584-.023.563.405-.015.293.051.53-.385.691-2.483.92-2.888 1.449-2.804 4.084l.743 19.76c.062 1.55.772 2.423 2.264 2.933.204.07.412.143.624.176.439.068.507.334.488.724-.023.458-.337.359-.593.36h-8.754c-.257 0-.569.096-.593-.361-.02-.393.058-.633.49-.722 2.398-.495 2.989-1.886 2.914-4.035l-.625-17.238-.195-.065m-95.346 8.077h-7.453c-.333 0-.682-.083-.676.474l.099 9.47c.072 1.914.878 2.714 2.75 3.24.149.042.295.108.446.124.479.048.361.4.375.691.019.392-.261.345-.504.345a7345.33 7345.33 0 0 1-9.129-.001c-.241 0-.528.047-.533-.336-.004-.304-.074-.619.379-.708.362-.071.719-.192 1.059-.336.92-.391 1.483-1.07 1.658-2.073a11.26 11.26 0 0 0 .16-1.939l-.004-18.299a19.54 19.54 0 0 0-.058-1.391c-.114-1.587-.961-2.563-2.506-2.927-.418-.099-.785-.177-.693-.745.1-.611.571-.366.883-.368l8.104-.001c.286.002.714-.212.797.353.081.55-.244.633-.675.757-1.799.518-2.382 1.193-2.517 3.086-.204 2.843-.037 5.694-.088 8.542-.012.682.467.521.836.521l11.272.004 3.353.01c.499.014.707-.087.701-.649l-.028-8.174c-.024-1.911-.672-2.713-2.518-3.278-.387-.119-.75-.187-.684-.761.074-.645.531-.408.839-.41l8.104.002c.276.002.713-.243.802.334.076.497-.131.67-.596.807-2.004.592-2.581 1.287-2.591 3.392l-.004 19.97c.011 2.243.498 2.812 2.669 3.517.375.122.551.258.533.694-.021.526-.361.405-.644.405h-8.663c-.282-.001-.631.124-.663-.394-.027-.429.143-.577.525-.703 2.384-.787 2.895-1.49 2.901-3.957l.019-8.546c.008-.62-.178-.764-.774-.756l-7.266.014"/><path d="M84.849 18.963l8.847-.014c.651-.007.855.177.836.833l-.019 4.736c-.001.283.116.651-.392.673-.376.015-.671-.021-.733-.482-.028-.21-.124-.412-.197-.616-.919-2.577-2.261-3.524-5.014-3.532-1.583-.004-3.166-.016-4.749.005-1.142.015-1.676.507-1.687 1.642l-.025 9.658c-.002.438.119.587.573.582l6.425-.031c1.483-.029 1.955-.488 2.344-2.002.088-.343.008-.849.654-.798.342.027.496.096.495.473l-.002 7.336c.001.307-.091.462-.422.438-.27-.019-.537.059-.621-.358a11.38 11.38 0 0 0-.504-1.776c-.337-.894-1.018-1.406-1.982-1.421l-6.425-.038c-.397-.004-.535.112-.533.523l.022 10.029c.008.939.588 1.58 1.64 1.716 3.476.448 6.866.092 10.085-1.355 1-.449 1.815-1.181 2.389-2.14.127-.213.218-.469.553-.307.301.145.233.396.192.641-.434 2.599-2.66 4.643-5.376 5.069-1.592.249-3.164.06-4.735-.052a122.54 122.54 0 0 0-10.513-.307c-.267.004-.701.257-.784-.338-.075-.544.234-.663.65-.785 1.92-.563 2.518-1.213 2.546-3.227l.055-14.857-.069-5.755c-.066-1.731-.707-2.442-2.393-2.98-.259-.083-.682.032-.763-.374-.106-.53-.005-.835.692-.825l8.94.017m136.236-.001l8.846-.014c.637-.006.86.15.84.818l-.022 4.735c-.002.271.153.656-.368.686-.417.024-.686-.041-.789-.54-.104-.506-.332-.992-.544-1.47-.777-1.746-2.198-2.549-4.05-2.601l-5.4-.01c-1.015.012-1.583.437-1.602 1.423l-.058 10.026c-.002.417.244.424.545.423l6.61-.033c1.331-.034 1.802-.513 2.16-1.87.077-.29.118-.63.301-.837.11-.125.473-.084.703-.032.286.063.196.348.197.548l.005 7.056c.001.334.001.614-.47.598-.341-.012-.511-.05-.624-.46-.849-3.059-.965-3.131-4.139-3.13-1.552 0-3.104.015-4.656-.009-.474-.007-.643.122-.639.622l.02 9.749c.007 1.076.56 1.758 1.662 1.9 3.474.448 6.863.09 10.082-1.357.971-.437 1.766-1.139 2.346-2.056.132-.208.17-.591.583-.403.363.164.225.473.179.728-.485 2.644-2.659 4.583-5.425 5.002-1.563.237-3.102.05-4.641-.059a123.9 123.9 0 0 0-10.511-.307c-.279.004-.706.228-.806-.33-.098-.542.222-.701.648-.787 1.664-.337 2.498-1.366 2.565-3.042.011-.278.059-.555.059-.833V24.062c-.001-.739-.055-1.484-.317-2.192-.356-.967-1.141-1.401-2.063-1.696-.388-.124-1.003-.033-.892-.775.12-.799.736-.411 1.1-.416l8.566-.021m-48.464-.347c2.547.036 4.627.293 6.539 1.307.316.168.542.112.847-.055.818-.45.936-.359 1.038.596l.592 5.254c.047.378.073.656-.388.77-.489.122-.563-.185-.671-.534-.915-2.974-2.765-4.991-5.903-5.656-2.182-.462-4.32-.349-6.355.627-1.761.845-2.65 2.289-2.687 4.218-.036 1.883 1.089 3.003 2.666 3.779 1.898.934 3.963 1.384 5.962 2.025 1.416.455 2.807.958 4.103 1.698 5.405 3.091 5.658 10.801.275 13.946-4.701 2.746-9.659 2.763-14.548.205-.365-.191-.527-.44-.599-.853l-1.045-5.552c-.062-.325-.211-.66.364-.729.438-.052.623-.045.754.473.826 3.277 2.815 5.571 6.105 6.492 3.029.849 5.987.577 8.564-1.413 1.686-1.302 2.272-3.137 2.011-5.203-.163-1.291-1.048-2.128-2.141-2.758-1.707-.983-3.61-1.434-5.467-2.008-1.625-.502-3.25-.998-4.761-1.798-3.338-1.767-4.874-4.684-4.342-8.259.477-3.207 2.921-5.589 6.458-6.31 1.009-.205 2.028-.255 2.63-.266m20.948.352l4.657.001c.307.001.63-.052.65.434.017.42-.107.622-.55.658-.304.024-.602.139-.898.227-1.85.555-2.602 1.504-2.607 3.447l-.005 20.895c.001 1.099.497 1.765 1.627 1.91 3.505.45 6.925.107 10.165-1.393.942-.436 1.697-1.128 2.268-2.007.137-.21.186-.592.591-.403s.224.504.151.798c-.811 3.266-3.243 5.078-6.967 5.035-2.169-.025-4.338-.209-6.504-.363-2.357-.167-4.716-.102-7.074-.115-.273-.002-.702.25-.792-.332-.083-.537.221-.669.641-.793 1.919-.568 2.534-1.261 2.544-3.229l.002-20.337c-.009-1.983-.627-2.69-2.514-3.263-.382-.116-.742-.167-.682-.747.068-.659.526-.406.828-.411l4.47-.011"/><path d="M105.966 18.963l4.563.002c.322.001.702-.113.721.447.015.427-.119.609-.553.652-.333.034-.658.165-.981.268-1.752.556-2.462 1.435-2.467 3.242l-.014 21.08c.001 1.06.482 1.732 1.549 1.871 3.601.471 7.112.124 10.417-1.482.901-.438 1.619-1.142 2.137-2.016.133-.224.225-.447.558-.288.316.151.221.368.171.622-.648 3.258-3.256 5.243-7.023 5.205-1.983-.02-3.965-.198-5.946-.337-2.542-.179-5.087-.148-7.632-.142-.274.001-.705.237-.769-.362-.051-.486.189-.626.586-.75 2.037-.636 2.603-1.361 2.608-3.476l.003-19.779c-.005-2.259-.522-2.966-2.672-3.619-.493-.15-.541-.381-.515-.779.033-.521.431-.307.697-.358.03-.006.062-.001.093-.001h4.47m39.752 45.104c.973.417 1.5 1.005 1.343 1.984-.14.871-.865 1.458-1.948 1.528l-3.061.07c-.425.016-.605-.098-.6-.562v-5.832c-.004-.432.108-.602.568-.583l2.413.012c.908.014 1.743.213 2.13 1.156.374.912-.049 1.596-.846 2.226zm-2.015 2.888c.579.002 1.069.013 1.557-.113.608-.157 1.002-.497 1.008-1.141.005-.659-.413-.987-1.021-1.117-.856-.183-1.723-.106-2.587-.119-.201-.003-.392.042-.387.283.015.703-.223 1.483.111 2.08.208.372.922.059 1.319.127zm.03-5.556c-1.477.012-1.477.012-1.47 1.517l.003.554c.004.217.102.347.335.337.828-.037 1.668.122 2.48-.15.578-.194.826-.612.787-1.203-.038-.58-.415-.888-.936-.99-.389-.076-.798-.047-1.199-.064zM250.893 7.74l-.065-6.369c-.006-.42.182-.518.56-.514l2.87-.022c.77.125 1.443.406 1.672 1.234.24.865-.085 1.549-.831 2.071.481.352 1.017.559 1.212 1.148.411 1.237-.469 2.369-1.989 2.441l-3.43.011zm2.216-.685c.464-.022.937-.001 1.391-.079.586-.101 1.039-.391 1.08-1.077.04-.679-.322-1.005-.933-1.183-.735-.214-1.485-.042-2.218-.136-.739-.095-.867.215-.85.879.04 1.579.006 1.58 1.531 1.596zm-.169-3.136c.423-.032.897-.014 1.346-.114.559-.125.914-.482.912-1.116s-.334-.963-.916-1.094c-.766-.173-1.544-.07-2.317-.089-.165-.004-.339.05-.342.232-.007.675-.122 1.392.072 2.01.112.357.788.075 1.246.171zM225.013.889l3.533-.054c1.295.285 1.923.836 1.998 1.85.092 1.254-.662 1.909-1.859 2.26l2.025 2.718c-.623.216-1 .039-1.316-.446-.387-.593-.858-1.132-1.262-1.715-.214-.309-.458-.436-.841-.451-1.503-.058-1.502-.073-1.503 1.438l.001.741c.011.302.001.532-.423.529-.475-.003-.367-.316-.367-.569l.014-6.301zm2.195 3.48c.495-.003.988.017 1.474-.14.714-.231 1.096-.693 1.04-1.444-.054-.728-.519-1.097-1.212-1.181-.43-.052-.866-.067-1.3-.071-1.425-.01-1.426-.005-1.426 1.42 0 1.417 0 1.417 1.423 1.416zM212.702 64.87l1.988 2.664c-.567.214-.939.127-1.262-.373-.368-.569-.807-1.093-1.218-1.634-.219-.289-.39-.567-.858-.586-1.571-.066-1.539-.092-1.594 1.527-.013.388.407 1.153-.413 1.136-.748-.015-.33-.74-.342-1.108l-.035-5.191c-.006-.472.104-.663.613-.635.742.042 1.487.007 2.231.011 1.574.008 2.477.587 2.7 1.726.206 1.052-.311 1.765-1.81 2.461zm-1.507-.628c.463-.03.942.008 1.384-.104.727-.183 1.199-.659 1.139-1.466-.059-.778-.597-1.121-1.299-1.219-.396-.055-.805-.023-1.208-.024-1.432-.002-1.432-.001-1.433 1.385-.001 1.403-.001 1.403 1.417 1.428zM93.164 67.544c-.648.215-.999.039-1.295-.415-.388-.594-.839-1.146-1.259-1.719-.207-.282-.426-.455-.829-.466-1.53-.044-1.493-.064-1.554 1.471-.016.398.433 1.168-.349 1.182s-.364-.763-.377-1.155l-.034-5.097c-.009-.514.123-.703.662-.675l2.509.018c1.235.031 2.112.664 2.294 1.622.221 1.165-.189 1.832-1.481 2.417-.08.036-.154.086-.274.153l1.987 2.663zm-3.388-6.107c-1.525-.009-1.525-.009-1.525 1.552l-.002.836c-.011.266.087.399.37.393.775-.018 1.564.059 2.323-.06s1.292-.587 1.227-1.475c-.062-.853-.643-1.141-1.37-1.238-.335-.045-.682-.008-1.023-.008zM214.947.881l3.537-.043c1.288.309 1.819.803 1.935 1.8s-.238 1.608-1.392 2.122c-.527.234-.276.418-.095.661l1.68 2.238c-.613.2-.988.075-1.308-.428-.396-.623-.901-1.177-1.324-1.785-.202-.291-.437-.376-.775-.393-1.515-.074-1.483-.083-1.536 1.499-.014.393.389 1.159-.368 1.151s-.344-.772-.353-1.166V.881zm.745 2.053l-.001 1.016c-.005.249.061.431.354.415.828-.043 1.664.11 2.487-.129.758-.221 1.148-.679 1.079-1.483s-.604-1.09-1.311-1.165a11.93 11.93 0 0 0-1.202-.056c-1.408-.009-1.408-.005-1.406 1.402zM177.127.883l2.977-.047c2.052.372 3.288 1.822 3.14 3.686-.152 1.912-1.648 3.225-3.726 3.218-.789-.003-1.843.357-2.293-.174-.385-.454-.115-1.471-.116-2.239l.018-4.443zm.748 3.315v.836c0 2.152.192 2.313 2.324 1.943 1.25-.217 2.122-1.219 2.193-2.519.074-1.344-.697-2.524-1.949-2.794-.687-.148-1.418-.092-2.129-.132-.394-.022-.447.213-.441.531l.003 2.135z"/><path d="M61.634.912l4.997-.046c.136.461.025.69-.518.674-1.022-.03-2.046.006-3.069-.016-.429-.009-.579.123-.604.573-.099 1.759-.117 1.758 1.624 1.758l1.767-.003c.32-.008.436.116.431.432-.005.332-.217.315-.438.315-.93 0-1.861.021-2.79-.008-.45-.014-.569.148-.592.584-.098 1.841-.114 1.84 1.727 1.839l2.139-.002c.294-.003.47.08.465.416-.004.326-.222.321-.442.321-1.426.002-2.852-.007-4.278.004-.588.004-.42-.419-.422-.719l.003-6.121m-4.863 63.213l.011-2.693c.009-.274-.246-.736.367-.752.677-.017.403.493.424.796a14.33 14.33 0 0 1 .004 1.671c-.023.471.139.671.635.657l2.887.002c.433.014.519-.16.507-.538l-.009-2.136c-.004-.286.04-.462.399-.459.369.003.383.207.383.476l.001 6.037c.001.292-.069.463-.413.458-.374-.005-.377-.233-.367-.496v-.278c-.062-.763.347-1.806-.166-2.214-.48-.382-1.482-.121-2.254-.124-1.595-.006-1.595-.001-1.595 1.61l.001.929c.002.285.034.568-.396.576-.417.007-.422-.245-.419-.548l.003-2.972m75.609 3.331c.034.111-.092.155-.264.181-.422.065-.65-.149-.731-.527-.248-1.158-.992-1.5-2.09-1.309a2.01 2.01 0 0 1-.648.001c-1.138-.181-1.984.086-2.248 1.356-.08.385-.384.62-.753.457-.428-.188-.042-.479.047-.68l2.585-5.713c.121-.265.163-.564.593-.591.482-.031.561.295.696.591l2.594 5.709.22.524zm-3.473-5.901l-1.58 3.561 2.47.006c.504.015.69-.078.427-.617l-1.316-2.95zM86.203.881l5.002.003c.094.454-.021.678-.556.657-.99-.038-1.984.018-2.974-.022-.552-.022-.746.119-.744.711.005 1.623-.027 1.623 1.57 1.623l1.487.009c.292.019.76-.211.79.35.032.601-.463.365-.741.375l-2.509.003c-.438-.014-.571.126-.592.572-.087 1.851-.105 1.85 1.711 1.85l1.952.004c.281.005.659-.128.648.396-.01.477-.361.33-.6.332-1.301.012-2.603-.012-3.904.015-.45.01-.577-.135-.571-.575l.031-6.302M75.136 65.81c-.491 0-.746.036-.987-.006-.891-.157-1.397.217-1.603 1.073-.042.176-.145.339-.228.505-.16.32-.467.34-.713.215-.301-.154-.02-.378.053-.541l2.653-5.9c.128-.283.243-.529.655-.517.376.011.468.25.578.493l2.655 5.9c.082.185.398.441-.017.59-.223.08-.5.073-.651-.203-.03-.054-.074-.106-.085-.164-.267-1.513-1.311-1.654-2.312-1.443zm1.35-.726l-1.564-3.514-1.568 3.514zm164.817 2.667c-.794-.009-1.535-.22-2.177-.683-.198-.143-.68-.183-.405-.658.288-.501.541-.166.797.021.687.5 1.459.669 2.288.562.603-.078 1.06-.379 1.146-1.028.083-.627-.284-.989-.836-1.169l-1.952-.578c-.992-.35-1.442-.996-1.362-1.856.077-.824.707-1.493 1.615-1.687.879-.188 1.732-.099 2.514.358.245.143.75.186.422.706-.284.449-.509.087-.755-.035-.679-.339-1.368-.565-2.141-.307-.496.166-.803.483-.836.995-.033.525.261.885.745 1.049.496.168 1.01.286 1.516.424 1.382.379 2.038 1.117 1.894 2.129-.159 1.111-1.084 1.767-2.473 1.756m-196.256.005c-1.544.005-2.86-.917-3.336-2.338-.526-1.571.014-3.323 1.299-4.218 1.256-.874 3.072-.859 4.267.053.187.143.557.238.317.62-.269.427-.506.23-.821.018-1.18-.793-2.296-.81-3.282-.097-.92.665-1.347 1.937-1.06 3.159.443 1.886 2.634 2.673 4.288 1.54.178-.122.334-.295.529-.365.207-.074.31.154.424.286.193.226-.057.32-.169.419-.699.616-1.51.952-2.456.922m124.984-3.652l-.008-2.781c-.013-.442.052-.668.588-.652l3.904.016c.256.001.572-.1.572.369s-.311.371-.57.373c-.992.006-1.985.03-2.975-.009-.544-.021-.75.099-.747.702.007 1.665-.025 1.665 1.657 1.665l1.673.003c.238.003.526-.045.533.335s-.272.354-.518.355c-.899.005-1.798.022-2.696-.004-.477-.014-.629.147-.645.635-.06 1.815-.08 1.814 1.779 1.815l2.045.001c.26 0 .504.004.495.372-.009.382-.282.339-.525.34-1.333.002-2.665-.016-3.998.011-.453.009-.587-.135-.574-.58l.009-2.966m59.452-.869l-.006 1.946c-.087 1.431-1.064 2.433-2.451 2.564-1.661.157-2.842-.559-3.178-2.03-.355-1.552-.081-3.14-.152-4.71-.015-.32.202-.313.431-.323.386-.016.356.247.356.496l.002 3.06c.002.308.002.62.052.923.217 1.326.98 1.925 2.319 1.844 1.135-.069 1.836-.847 1.86-2.116l.012-3.616c.002-.245-.127-.571.344-.595.517-.026.427.314.428.611l.001 1.947h-.019m25.179 1.23l.013-2.22c.045-.622-.11-.919-.792-.825-.364.05-.741.004-1.113.009-.242.004-.415-.038-.413-.344.002-.253.051-.407.35-.405h4.733c.282-.001.37.113.369.387-.001.292-.138.377-.396.361a1.63 1.63 0 0 0-.186.001c-1.752.085-1.753.085-1.754 1.883l-.008 3.517c-.006.314.221.823-.424.806-.575-.014-.362-.474-.371-.764l-.008-2.406m-57.882.123l.011-2.501c.028-.535-.152-.714-.676-.665-.43.04-.866 0-1.3.01-.27.006-.382-.092-.384-.375s.109-.377.38-.376l4.738.004c.221 0 .339.082.339.321s-.023.435-.334.422c-.124-.005-.248 0-.371.002-1.591.033-1.591.033-1.591 1.67l-.003 3.891c-.001.287.113.651-.399.654s-.406-.357-.408-.648l-.002-2.409m-81.337-.092l-.008 2.413c-.009.285.204.749-.4.722-.591-.026-.355-.489-.359-.766l.003-4.733c.016-.59-.174-.769-.735-.711-.399.041-.806.001-1.209.009-.282.006-.474-.034-.464-.396.009-.302.156-.354.404-.354l4.654.001c.231 0 .421.017.43.331.009.332-.148.403-.447.423-.607.04-1.479-.299-1.755.144-.308.496-.101 1.311-.113 1.987l-.001.928M41.318.903l4.826-.035c.218 0 .563-.115.575.264.015.452-.374.288-.619.329-.529.087-1.097-.188-1.599.167L44.445 6.9c-.007.283.317.814-.348.843-.68.03-.391-.511-.397-.8l.004-4.349c.036-.816-.154-1.22-1.044-1.07-.271.045-.558-.013-.834.011-.503.044-.568-.237-.508-.631M77.091.903l.726-.05.004.003.021 5.277c.004.277-.178.619.171.836l3.156.044c.291.005.667-.103.653.403-.013.465-.373.324-.617.326-1.177.013-2.355-.02-3.532.017-.52.016-.609-.19-.604-.648L77.09.902m79.156 63.201l.001-2.869c.001-.266-.074-.559.384-.561.442-.002.405.265.405.547l-.02 4.812c-.031.77.242.954.947.905.77-.054 1.546-.023 2.319-.005.27.006.679-.15.67.37-.007.452-.367.33-.616.333-1.176.011-2.352-.014-3.527.014-.453.01-.586-.139-.573-.582l.008-2.961m-53.869.017l.003-2.874c.002-.257-.094-.564.369-.576.451-.012.401.265.401.544l-.003 5.841c-.001.253.103.575-.363.581-.526.007-.399-.362-.402-.642l-.004-2.874"/></g><path d="M134.612.853l.028 6.883c-.232-.073-.215-.271-.216-.449l.001-6.052c0-.156.023-.304.187-.383m-56.6 6.118c-.349-.217-.167-.559-.171-.836L77.82.857c.325.224.182.562.184.848l.008 5.264" fill="#a0b1c5"/><path d="M145.051 7.227c.09.471-.151.522-.516.532-.432.011-.401-.241-.41-.529-.01-.318.047-.517.44-.506.383.01.605.105.486.503" fill="#223664"/></svg>