<?xml version="1.0" encoding="UTF-8" standalone="no"?>
<svg
   width="300"
   height="90"
   viewBox="0 0 300 90"
   version="1.1"
   id="svg4985"
   sodipodi:docname="helmsley.svg"
   inkscape:version="1.1.1 (3bf5ae0d25, 2021-09-20)"
   xmlns:inkscape="http://www.inkscape.org/namespaces/inkscape"
   xmlns:sodipodi="http://sodipodi.sourceforge.net/DTD/sodipodi-0.dtd"
   xmlns="http://www.w3.org/2000/svg"
   xmlns:svg="http://www.w3.org/2000/svg"
   xmlns:rdf="http://www.w3.org/1999/02/22-rdf-syntax-ns#"
   xmlns:cc="http://creativecommons.org/ns#"
   xmlns:dc="http://purl.org/dc/elements/1.1/"
   xmlns:sketch="http://www.bohemiancoding.com/sketch/ns">
  <sodipodi:namedview
     id="namedview4987"
     pagecolor="#ffffff"
     bordercolor="#666666"
     borderopacity="1.0"
     inkscape:pageshadow="2"
     inkscape:pageopacity="0.0"
     inkscape:pagecheckerboard="0"
     showgrid="false"
     inkscape:zoom="1.9121242"
     inkscape:cx="119.76209"
     inkscape:cy="11.767018"
     inkscape:window-width="1866"
     inkscape:window-height="1016"
     inkscape:window-x="54"
     inkscape:window-y="27"
     inkscape:window-maximized="1"
     inkscape:current-layer="svg4985" />
  <!-- Generator: Sketch 3.3.3 (12072) - http://www.bohemiancoding.com/sketch -->
  <title
     id="title4915">Imported Layers</title>
  <desc
     id="desc4917">Created with Sketch.</desc>
  <defs
     id="defs4919" />
  <g
     id="Page-1"
     stroke="none"
     stroke-width="1"
     fill="none"
     fill-rule="evenodd"
     sketch:type="MSPage"
     transform="matrix(1.0552648,0,0,1.0552648,40.126758,-0.29250204)">
    <g
       id="About---Desktop"
       sketch:type="MSArtboardGroup"
       transform="translate(-225,-785)">
      <g
         id="Imported-Layers-+-Imported-Layers-+-Imported-Layers"
         sketch:type="MSLayerGroup"
         transform="translate(225,771)">
        <g
           id="Imported-Layers"
           transform="translate(0,14.647959)"
           sketch:type="MSShapeGroup">
          <path
             d="m 0.04302846,75.97492 c 27.44279354,0.0023 54.88529454,0.0058 82.32808854,0.0067 41.590673,8.76e-4 83.181343,0 124.772013,-5.84e-4 0.35301,0 0.70602,-0.0041 1.05873,-0.0061 0,2.581056 -0.0114,5.162111 0.0114,7.743167 0.004,0.432268 -0.0878,0.620819 -0.538,0.533549 -0.0849,-0.01664 -0.17592,-0.0023 -0.26432,-0.0023 -68.85901,0 -137.718019,-0.0012 -206.57702737,0.01693 -0.66972196,2.92e-4 -0.81988252,-0.15878 -0.8084668,-0.812581 C 0.068787,80.961322 0.04302846,78.467829 0.04302846,75.97492"
             id="Fill-1"
             fill="#223664" />
          <path
             d="m 208.20186,18.581966 c -1.63479,0.212778 -2.81822,1.171589 -3.6861,2.458177 -2.24304,3.325338 -4.40852,6.70263 -6.60414,10.059491 -0.23358,0.356964 -0.29037,0.753623 -0.2892,1.173924 0.007,2.697514 -0.0111,5.39532 0.0105,8.092834 0.0184,2.289764 0.66826,3.113437 2.88144,3.782707 0.32462,0.09807 0.66709,0.137766 0.61587,0.663142 -0.0545,0.556606 -0.42765,0.388486 -0.70368,0.389654 -2.76436,0.01109 -5.52843,0.01138 -8.29249,-8.76e-4 -0.27135,-0.0012 -0.65011,0.180087 -0.70573,-0.382357 -0.0512,-0.519831 0.27281,-0.595426 0.6065,-0.665185 1.61488,-0.336532 2.4333,-1.332412 2.45057,-2.958742 0.0299,-2.84316 0.0401,-5.686612 0.0372,-8.529772 -5.9e-4,-0.597469 -0.27749,-1.12051 -0.59596,-1.624871 -1.89062,-2.994936 -3.79031,-5.984617 -5.64434,-9.002027 -1.01776,-1.656686 -2.2489,-3.00807 -4.2528,-3.400642 -0.41916,-0.08231 -0.39633,-0.318728 -0.40657,-0.621987 -0.0126,-0.382649 0.20724,-0.418841 0.5058,-0.41855 2.96985,0.0041 5.93998,0.002 8.90982,0.0026 0.26373,0 0.54708,-0.03853 0.5541,0.368055 0.006,0.337117 0.0123,0.572077 -0.4496,0.672482 -2.55946,0.554855 -2.43447,1.53293 -1.29349,3.393345 1.6664,2.717654 3.37993,5.40612 5.12946,8.196158 1.80749,-2.955824 3.61235,-5.813578 5.31446,-8.730874 0.80934,-1.386993 0.42209,-2.125146 -1.13689,-2.613746 -0.36267,-0.113539 -0.73178,-0.235251 -1.10615,-0.275238 -0.42941,-0.04582 -0.31203,-0.333614 -0.33252,-0.574411 -0.0234,-0.276699 0.0597,-0.445111 0.38345,-0.43723 2.69996,0.06334 5.40285,-0.124923 8.10047,0.103616 v 0.880296"
             id="Fill-2"
             fill="#223664" />
          <path
             d="m 95.559488,0.27261179 c 0.167431,0.21015041 0.230949,0.43839711 0.2289,0.71655453 -0.01376,1.78715418 -0.002,3.57460018 -0.01317,5.36204618 -0.0015,0.2507211 0.156015,0.6143981 -0.353009,0.6266568 -0.581616,0.01401 -0.380817,-0.4065826 -0.383744,-0.6718975 -0.0161,-1.4514973 -0.0076,-2.9029945 -0.0076,-4.6098828 C 94.150977,2.9733365 93.414517,4.0421848 92.6201,5.1953852 91.853491,4.0856743 91.116738,3.0188691 90.379693,1.951772 c -0.05708,0.00438 -0.114158,0.00876 -0.171529,0.013134 0,1.466091 -0.02049,2.9324739 0.01112,4.3979811 0.01112,0.5172035 -0.164796,0.6949558 -0.656257,0.5971774 -0.0088,-2.1741811 -0.01756,-4.3483623 -0.02634,-6.52254341 l 0.0082,-0.005254 c 0.238266,0.007589 0.47624,0.0154694 0.714214,0.0230582 0.780366,1.15436791 1.560733,2.30844391 2.392324,3.53869941 0.821053,-1.2845443 1.599664,-2.5031249 2.378567,-3.72141351 h 0.529513"
             id="Fill-3"
             fill="#223664" />
          <path
             d="m 68.723191,0.27261179 c 0.166845,0.20256164 0.374962,0.33799191 0.369108,0.68386446 -0.03103,1.81663355 -0.0088,3.63414275 -0.02283,5.45136005 -0.0015,0.1926379 0.16421,0.4976479 -0.219241,0.5604011 C 68.554004,7.0166888 68.369596,6.8780479 68.19075,6.6480499 67.111233,5.259306 66.017666,3.8813614 64.927026,2.5013737 64.7514,2.2792564 64.5667,2.0644359 64.192908,1.8817218 v 2.8236043 c 0,0.5568986 0.0082,1.1140891 -0.0032,1.6706958 -0.0056,0.2653149 0.119426,0.6181925 -0.385207,0.5995124 C 63.295457,6.9565624 63.460546,6.5882154 63.458204,6.3380781 63.438885,4.316256 63.43508,2.2944339 63.426299,0.27261179 h 0.529806 c 0.218362,0.21832293 0.459556,0.41884144 0.651281,0.65847129 1.007218,1.25885932 1.997458,2.53172872 3.005553,3.79000432 0.202556,0.2527642 0.331934,0.5974693 0.740851,0.746034 0,-1.4500379 -2.93e-4,-2.8241881 0,-4.1986302 0,-0.34412126 -0.0562,-0.69962571 0.192604,-0.99587941 h 0.176797"
             id="Fill-4"
             fill="#223664" />
          <path
             d="m 56.717371,0.27261179 c 1.09503,0.57703801 2.055707,1.24426561 2.345783,2.58222321 0.381109,1.7588422 -0.539758,3.5465801 -2.179523,4.0804205 -1.690112,0.5501855 -3.4976,-0.2294142 -4.184299,-1.8046667 -0.742314,-1.7016346 -0.05883,-3.663914 1.558099,-4.51327196 0.180017,-0.0945677 0.457214,-0.065672 0.517805,-0.34470505 z m 1.644448,3.42340861 c -5.85e-4,-1.5580318 -1.114056,-2.72290724 -2.598392,-2.71823723 -1.485214,0.00467 -2.590196,1.18267983 -2.572341,2.74217103 0.01727,1.4815604 1.148304,2.6697859 2.566194,2.6963465 1.457114,0.027145 2.605125,-1.1718804 2.604539,-2.7202803 z"
             id="Fill-5"
             fill="#223664" />
          <path
             d="m 124.86773,0.27261179 c 0.37232,0.18796786 0.35037,0.52595978 0.3492,0.86949731 -0.006,1.7004671 0.008,3.4009342 -0.0146,5.1008175 -0.003,0.2396299 0.23065,0.6138144 -0.23212,0.7221002 -0.34979,0.081725 -0.526,-0.1511915 -0.71276,-0.3896539 -1.13864,-1.454416 -2.28255,-2.9047457 -3.43086,-4.3515729 -0.11854,-0.1491484 -0.18411,-0.3741845 -0.51663,-0.3896539 0,1.4882736 0.0102,2.9683746 -0.009,4.4481837 -0.003,0.2612287 0.21573,0.7077983 -0.37028,0.6879508 -0.574,-0.019264 -0.33896,-0.4597041 -0.34188,-0.7174302 -0.0214,-1.9932183 -0.0149,-3.9870203 -0.0173,-5.98023861 h 0.35301 c 0.38257,0.19030287 0.67528,0.46758466 0.93843,0.81112221 0.9958,1.3003057 2.01502,2.5825151 3.0395,3.8609301 0.14431,0.1800872 0.21339,0.4988153 0.57957,0.4445265 0,-1.4141372 -8.8e-4,-2.8163074 5.9e-4,-4.2184777 2.9e-4,-0.31464184 -0.0533,-0.64358561 0.20899,-0.89810111 h 0.17651"
             id="Fill-6"
             fill="#223664" />
          <path
             d="m 158.58975,0.27261179 c 0.98087,2.20628751 1.96145,4.41286681 2.94233,6.61944611 -0.59186,0.251013 -0.88926,-0.00788 -1.03005,-0.5475585 -0.23007,-0.8840912 -0.75432,-1.3041001 -1.70358,-1.1269316 -0.28363,0.053121 -0.59157,0.046116 -0.87813,0.00117 -1.05464,-0.1654935 -1.78407,0.1079939 -2.07561,1.2527299 -0.13318,0.5221654 -0.22539,0.4988154 -0.93755,0.4167983 0.99404,-2.2092062 1.98516,-4.4125749 2.97657,-6.61565171 h 0.70602 z m -0.37848,0.96056251 c -0.46804,1.0481252 -0.84564,1.9430157 -1.26773,2.8165993 -0.19787,0.4095014 -0.082,0.5110741 0.32433,0.5052366 0.77363,-0.010799 1.54785,-0.00292 2.43242,-0.00292 -0.51195,-1.1415253 -0.96711,-2.1560848 -1.48902,-3.3189171 z"
             id="Fill-7"
             fill="#223664" />
          <path
             d="M 76.84474,0.27261179 C 77.825028,2.4788993 78.805316,4.6851867 79.785604,6.891766 79.191987,7.1448222 78.896935,6.8806748 78.757019,6.3433318 78.526656,5.4583651 78.001826,5.040983 77.053443,5.2181515 76.769807,5.270981 76.461875,5.263976 76.175311,5.2190271 75.120675,5.0532418 74.364018,5.3173892 74.112872,6.4746758 74.003398,6.9804962 73.645706,7.0902414 73.159806,6.8888473 74.15473,4.6787654 75.146726,2.4756886 76.13843,0.27261179 Z M 76.474754,1.2390118 c -0.200507,0.4232196 -0.328714,0.6832807 -0.447847,0.9474281 -1.16411,2.5819314 -1.163525,2.5822232 1.729334,2.3329615 0.02664,-0.00233 0.05181,-0.021307 0.14899,-0.062753 C 77.452115,3.4371268 76.999292,2.418481 76.474754,1.2390118 Z"
             id="Fill-8"
             fill="#223664" />
          <path
             d="m 112.5089,0.27261179 c 0.99814,2.19694741 1.99628,4.39360301 2.99794,6.59813921 -0.60825,0.2860381 -0.92321,0.0073 -1.04205,-0.516036 -0.22334,-0.9853719 -0.82896,-1.3035163 -1.78144,-1.1345204 -0.22743,0.040279 -0.47126,0.031231 -0.70221,0.00175 -1.08478,-0.1386409 -1.95472,0.038819 -2.19152,1.3186938 -0.096,0.5177873 -0.48532,0.4815947 -0.90682,0.3703901 0.9797,-2.2278862 1.94974,-4.4330062 2.91979,-6.63841801 h 0.70631 z m -1.82066,4.27977151 c 0.89101,0 1.66991,-0.00934 2.44852,0.0035 0.44873,0.00759 0.47507,-0.1506078 0.29915,-0.520706 -0.41506,-0.8721242 -0.79207,-1.7623447 -1.25514,-2.8037568 -0.52717,1.173048 -0.98409,2.1896506 -1.49253,3.3209603 z"
             id="Fill-9"
             fill="#223664" />
          <path
             d="m 15.403312,0.27261179 c 0.16948,0.19993476 0.390476,0.32281438 0.384037,0.67598383 -0.03161,1.81721728 -0.01376,3.63531028 -0.01522,5.45311138 -2.93e-4,0.2822436 0.08049,0.6053499 -0.407746,0.5758705 -0.451653,-0.027436 -0.279832,-0.3479157 -0.317299,-0.5744112 -0.0094,-0.056916 0.0032,-0.1173339 -0.002,-0.1754172 -0.06498,-0.7197652 0.331348,-1.7010508 -0.165089,-2.0904128 -0.46102,-0.361342 -1.401499,-0.1281334 -2.131226,-0.1325116 -1.540244,-0.00934 -1.540244,-0.00292 -1.540244,1.5028674 0,0.1760009 0.04566,0.3677632 -0.0094,0.5245004 -0.111522,0.3184362 0.364718,0.940715 -0.389305,0.9232024 C 10.150327,6.9402174 10.483139,6.3719356 10.478163,6.0774332 10.444209,4.1428819 10.460015,2.207455 10.459722,0.27261179 h 0.529807 c 0.385207,0.45445026 0.203726,0.99733881 0.211044,1.49994861 0.02195,1.5320549 0.0076,1.5320549 1.492239,1.5320549 0.496144,0 0.999607,-0.053997 1.486677,0.012551 0.771,0.1050752 0.907989,-0.2238686 0.888377,-0.9170731 -0.0202,-0.7048795 -0.206361,-1.44390842 0.158942,-2.12748101 h 0.176504"
             id="Fill-10"
             fill="#223664" />
          <path
             d="m 150.4682,0.27261179 c 0.16626,0.20256164 0.37555,0.33682441 0.3694,0.68269696 -0.031,1.81429855 -0.0132,3.62947275 -0.0158,5.44435505 -2.9e-4,0.2775737 0.0902,0.603015 -0.40159,0.5787893 -0.44112,-0.021599 -0.31408,-0.3248575 -0.33574,-0.5612767 -0.0105,-0.1161665 -0.002,-0.2340843 -0.002,-0.3511263 -0.004,-2.0638522 -0.004,-2.0638522 -2.11659,-2.0641441 -1.72495,0 -1.72465,0 -1.72524,1.7395784 -2.9e-4,0.3219388 -0.003,0.6438775 -0.005,0.9658163 -10e-4,0.244008 -0.16363,0.2658986 -0.35448,0.265023 -0.18704,-8.756e-4 -0.36647,-0.00992 -0.35944,-0.2583099 0.0594,-2.0939153 -0.15514,-4.1927926 0.11005,-6.28291358 0.007,-0.0548726 0.0454,-0.10595083 0.0694,-0.15848843 h 0.1765 c 0.23973,0.19993476 0.41302,0.3978264 0.37701,0.76880021 -0.0539,0.5522286 0.0132,1.1149647 -0.022,1.6701121 -0.029,0.4556178 0.11503,0.6205275 0.58747,0.602723 0.88106,-0.033274 1.76563,-0.037652 2.6461,0.00117 0.53069,0.02335 0.64045,-0.194681 0.62553,-0.6689788 -0.0246,-0.790399 0.0123,-1.5825493 0.0231,-2.37382401 h 0.35301"
             id="Fill-11"
             fill="#223664" />
          <path
             d="m 124.69122,0.27261179 c -0.26227,0.2545155 -0.2087,0.58345927 -0.20899,0.89810111 -0.001,1.4021703 -5.9e-4,2.8043405 -5.9e-4,4.2184777 -0.36618,0.054289 -0.43526,-0.2644393 -0.57957,-0.4445265 -1.02448,-1.278415 -2.0437,-2.5606244 -3.0395,-3.8609301 -0.26315,-0.34353755 -0.55586,-0.62081934 -0.93843,-0.81112221 h 4.76708"
             id="Fill-12"
             fill="#fdfdfe" />
          <path
             d="m 150.11519,0.27261179 c -0.0108,0.79127471 -0.0477,1.58342501 -0.0231,2.37382401 0.0149,0.4742978 -0.0948,0.6923289 -0.62553,0.6689788 -0.88047,-0.038819 -1.76504,-0.034441 -2.6461,-0.00117 -0.47244,0.017805 -0.61645,-0.1471052 -0.58747,-0.602723 0.0351,-0.5551474 -0.0319,-1.1178835 0.022,-1.6701121 0.036,-0.37097381 -0.13728,-0.56886545 -0.37701,-0.76880021 h 4.23728"
             id="Fill-13"
             fill="#fdfdfe" />
          <path
             d="m 15.226808,0.27261179 c -0.365303,0.68357259 -0.179139,1.42260151 -0.158942,2.12748101 0.01961,0.6932045 -0.117377,1.0221483 -0.888377,0.9170731 -0.48707,-0.066548 -0.990533,-0.012551 -1.486677,-0.012551 -1.484629,0 -1.470286,0 -1.492239,-1.5320549 -0.0073,-0.5026098 0.174163,-1.04549835 -0.211044,-1.49994861 h 4.237279"
             id="Fill-14"
             fill="#fdfdfe" />
          <path
             d="M 68.546394,0.27261179 C 68.29759,0.56886549 68.35379,0.92436994 68.35379,1.2684912 c -2.93e-4,1.3744421 0,2.7485923 0,4.1986302 C 67.944873,5.3185567 67.815495,4.9738516 67.612939,4.7210874 66.604844,3.4628118 65.614604,2.1899424 64.607386,0.93108308 64.415661,0.69145323 64.174467,0.49093472 63.956105,0.27261179 h 4.590289"
             id="Fill-15"
             fill="#fdfdfe" />
          <path
             d="M 95.029975,0.27261179 C 94.251072,1.4909004 93.472461,2.709481 92.651408,3.9940253 91.819817,2.7637698 91.03945,1.6096938 90.259084,0.45532589 c 0.0012,-0.061002 0.0026,-0.12200399 0.0038,-0.1827141 h 4.767086"
             id="Fill-16"
             fill="#fdfdfe" />
          <path
             d="m 189.84012,0.27261179 c 0.19466,0.22153356 0.0828,0.4074583 -0.0571,0.60389056 -0.39018,0.54726665 -0.73411,1.13189345 -1.16411,1.64588635 -0.93638,1.1193428 -1.50541,2.3326696 -1.26304,3.8361207 0.038,0.2358354 0.16479,0.6135224 -0.35038,0.6187762 -0.50961,0.00496 -0.40482,-0.3622176 -0.36559,-0.6073931 0.23622,-1.4725122 -0.33077,-2.6528571 -1.2367,-3.7584817 -0.5301,-0.6473801 -0.95717,-1.3788203 -1.44775,-2.09741792 0.55147,-0.21773917 0.87228,-0.0986539 1.15562,0.35404508 0.57313,0.91502994 1.20216,1.79561854 1.8795,2.79558424 0.72358,-1.1718804 1.66142,-2.1289404 2.14352,-3.39101041 h 0.70601"
             id="Fill-17"
             fill="#223664" />
          <path
             d="m 199.72847,6.9635674 c -0.26841,-0.089606 -0.20519,-0.3222306 -0.20489,-0.5110741 0.005,-2.0600578 0.017,-4.1198237 0.0272,-6.17988151 h 3.35446 c 0.001,0.0490351 0.006,0.0980702 0.0123,0.14681341 -0.90653,0.008756 -1.81335,0.0291876 -2.72016,0.021015 -0.35799,-0.003211 -0.53654,0.0896058 -0.53069,0.48743221 0.0304,2.01160649 0.043,4.02379669 0.0618,6.03569499"
             id="Fill-18"
             fill="#a0b1c5" />
          <path
             d="M 6.3989474,0.27261179 C 6.5643289,1.0116407 6.2400055,1.2559406 5.5257916,1.1850148 5.0703338,1.1397741 4.6066801,1.1733398 4.1468317,1.1718804 4.6221938,0.83534789 5.160196,1.0962847 5.661902,1.013392 5.8934361,0.97515629 6.2622516,1.1304341 6.2482014,0.70196075 6.236493,0.34237005 5.9092425,0.45123964 5.7028815,0.45153151 4.1784445,0.45445027 2.6537147,0.47225468 1.1292777,0.4850972 1.1202036,0.41417144 1.1114223,0.34353755 1.1023483,0.27261179 h 5.2965991"
             id="Fill-19"
             fill="#a0b1c5" />
          <path
             id="Fill-20"
             fill="#a0b1c5"
             d="m 43.663354,0.46408216 c -0.0038,-0.0639208 -0.0073,-0.1278415 -0.01112,-0.19147037 h 4.767086 c -0.0056,0.0647964 -0.01083,0.12959275 -0.01639,0.19409725 -1.579759,-8.7562e-4 -3.159519,-0.001751 -4.739571,-0.002627" />
          <path
             id="Fill-21"
             fill="#a0b1c5"
             d="m 25.113988,0.27261179 c 5.85e-4,0.0589589 0.0015,0.1182096 0.0023,0.17716847 -1.578589,0.0145938 -3.156885,0.0288957 -4.73518,0.0431976 -0.01142,-0.0735526 -0.02283,-0.14710528 -0.03425,-0.22036605 h 4.767086" />
          <path
             d="m 208.20186,6.9623999 c -0.28715,-0.103032 -0.75695,0.2784493 -0.86759,-0.255683 -0.1607,-0.7755134 0.29388,-0.8073278 0.86759,-0.6246137 v 0.8802967"
             id="Fill-22"
             fill="#223664" />
          <path
             id="Fill-23"
             fill="#a0b1c5"
             d="m 178.54061,0.27261179 c -2.9e-4,0.049327 0.004,0.0983621 0.0114,0.14739716 -1.11611,0.0169288 -2.23221,0.0338576 -3.34832,0.0510782 -0.006,-0.0662558 -0.0117,-0.13251151 -0.0176,-0.19847539 h 3.35446" />
          <path
             id="Fill-24"
             fill="#a0b1c5"
             d="m 165.66427,0.46408216 c -0.004,-0.0639208 -0.008,-0.12754962 -0.0123,-0.19147037 h 3.35476 c -0.007,0.0507863 -0.004,0.10128082 0.01,0.15089967 -1.11728,0.0134263 -2.23485,0.0271444 -3.35213,0.0405707" />
          <path
             id="Fill-25"
             fill="#a0b1c5"
             d="m 129.82566,0.46612529 c -0.005,-0.0645045 -0.01,-0.129009 -0.0143,-0.1935135 h 2.82495 c -0.003,0.0499107 8.8e-4,0.0995296 0.0108,0.14856466 -0.94048,0.0148857 -1.88096,0.0297713 -2.82144,0.0449488" />
          <path
             id="Fill-26"
             fill="#a0b1c5"
             d="m 90.262889,0.27261179 c -0.0012,0.0607101 -0.0026,0.12171211 -0.0038,0.1827141 -0.237974,-0.007589 -0.475948,-0.0154694 -0.714214,-0.0230582 -0.0067,-0.053997 -0.0029,-0.10741022 0.01171,-0.15965594 h 0.706311" />
          <path
             id="Fill-27"
             fill="#a0b1c5"
             d="m 35.028098,0.4850972 c -0.0091,-0.0706339 -0.01815,-0.14155965 -0.02722,-0.21248541 h 0.706311 c 0.01346,0.0545807 0.0161,0.10974521 0.0088,0.16549345 -0.229193,0.0157613 -0.458678,0.0315226 -0.68787,0.046992" />
          <path
             d="m 104.86271,23.958898 c -0.74231,1.511624 -1.48638,3.022664 -2.22694,4.535163 -2.44179,4.988154 -4.878903,9.97835 -7.329477,14.961834 -0.189383,0.385276 -0.245584,0.872416 -0.922916,0.880005 -0.726801,0.0085 -0.762511,-0.525376 -0.957164,-0.93371 -2.79246,-5.855608 -5.573211,-11.71647 -8.357474,-17.576164 -0.110352,-0.232041 -0.226266,-0.461163 -0.355351,-0.723559 -0.252024,0.161991 -0.200214,0.380022 -0.207239,0.55719 -0.197872,5.069003 -0.407161,10.138006 -0.574298,15.208177 -0.06791,2.055972 0.528342,2.968375 2.35954,3.308702 0.39955,0.07414 0.503462,0.286329 0.480631,0.673648 -0.02956,0.502902 -0.385793,0.351711 -0.639573,0.352878 -2.08849,0.01022 -4.176981,0.0093 -6.265471,8.76e-4 -0.23212,-0.0012 -0.560248,0.126965 -0.592154,-0.306762 -0.02576,-0.345288 -0.01288,-0.639791 0.425894,-0.713927 1.997165,-0.337408 2.50736,-1.425812 2.611565,-3.665666 0.225387,-4.833167 0.438773,-9.666919 0.660648,-14.500086 0.06323,-1.379112 0.06293,-2.750052 -0.26344,-4.107273 -0.365303,-1.519796 -1.143035,-2.687591 -2.682693,-3.212967 -0.388134,-0.132511 -0.460141,-0.36426 -0.440822,-0.722392 0.02576,-0.47313 0.363839,-0.373017 0.63928,-0.374184 1.176696,-0.0053 2.354564,0.03211 3.529212,-0.01518 0.566395,-0.02277 0.818419,0.200811 1.044977,0.685908 3.340999,7.147449 6.700732,14.286434 10.056367,21.426878 0.07435,0.158196 0.155722,0.31289 0.240023,0.481594 0.29271,-0.199934 0.360326,-0.521873 0.49673,-0.795653 3.477987,-6.986625 6.958615,-13.972375 10.415815,-20.969216 0.29359,-0.594259 0.60913,-0.88847 1.32305,-0.835348 1.0239,0.07647 2.05776,0.02014 3.08722,0.01956 0.27105,0 0.55381,-0.02218 0.53361,0.383525 -0.0138,0.277865 0.0483,0.502026 -0.36442,0.654969 -2.35252,0.872124 -2.73685,1.372982 -2.65723,3.869978 0.19846,6.242635 0.4537,12.48381 0.70426,18.724986 0.0591,1.469009 0.73149,2.295893 2.14528,2.778947 0.19377,0.06626 0.39018,0.135138 0.59098,0.166661 0.41594,0.0648 0.48034,0.316393 0.46219,0.686199 -0.0214,0.434019 -0.31934,0.340619 -0.5623,0.341203 -2.76494,0.0041 -5.53018,0.0041 -8.29512,-2.92e-4 -0.24354,-2.92e-4 -0.53947,0.09107 -0.56171,-0.34237 -0.019,-0.372433 0.055,-0.599804 0.46394,-0.684156 2.27202,-0.469336 2.83286,-1.786863 2.76173,-3.82357 -0.18968,-5.445231 -0.39399,-10.89017 -0.59245,-16.335109 -0.0615,-0.02043 -0.12323,-0.04086 -0.1847,-0.06129"
             id="Fill-28"
             fill="#223664" />
          <path
             d="m 14.508789,31.614795 c -2.353979,0 -4.7079584,-2.92e-4 -7.0622302,2.91e-4 -0.3158348,2.92e-4 -0.6465978,-0.07822 -0.6401582,0.448905 0.035418,2.991433 -0.019026,5.986076 0.093667,8.974298 0.068202,1.813715 0.8324691,2.572008 2.6062956,3.07024 0.1407939,0.0394 0.279246,0.10274 0.4226742,0.117334 0.4539946,0.04553 0.3418866,0.378854 0.3553516,0.654676 0.01815,0.371266 -0.247341,0.326901 -0.4779973,0.326901 -2.8837853,0.0012 -5.7672779,0.0018 -8.6510632,-5.84e-4 C 0.92730733,45.206564 0.65479371,45.251805 0.65011034,44.888712 0.64630511,44.600923 0.58044521,44.30175 1.0092663,44.21769 1.3520305,44.150559 1.6909894,44.035852 2.0129711,43.898962 2.8852488,43.52828 3.4185676,42.885278 3.5845346,41.934347 3.6910812,41.323744 3.7361587,40.714307 3.735866,40.096699 3.7329389,34.316395 3.7352806,28.536383 3.731768,22.756079 3.7314753,22.316806 3.7083512,21.876658 3.6767384,21.438261 3.5690209,19.934518 2.7661156,19.009564 1.3019769,18.664567 0.90623216,18.571167 0.55790649,18.496739 0.64542697,17.95852 0.73997251,17.379147 1.1863562,17.61148 1.4822867,17.609437 c 2.5597546,-0.0181 5.1198019,-0.01693 7.6798492,-0.0012 0.2707574,0.0018 0.6764543,-0.200811 0.7554862,0.334781 0.07669,0.521581 -0.2315341,0.600096 -0.6392801,0.717722 -1.7047467,0.491226 -2.256799,1.130142 -2.385299,2.924301 -0.193189,2.694304 -0.034833,5.396196 -0.083422,8.094294 -0.011709,0.646212 0.4422857,0.493853 0.7926604,0.494145 3.5602386,0.0061 7.1207716,0.0038 10.6813036,0.0035 1.05932,0 2.119225,-0.02072 3.177667,0.0096 0.472727,0.01343 0.670308,-0.08289 0.66416,-0.614981 -0.02927,-2.58164 0.0056,-5.164155 -0.02634,-7.746086 -0.02254,-1.810796 -0.637231,-2.57084 -2.385884,-3.106724 -0.366474,-0.112372 -0.710409,-0.176876 -0.648062,-0.721516 0.06996,-0.61148 0.503463,-0.387027 0.795003,-0.388779 2.560047,-0.01693 5.120094,-0.01722 7.679849,0.0018 0.261976,0.002 0.675869,-0.23029 0.759877,0.316393 0.0723,0.470503 -0.123817,0.634829 -0.564347,0.765006 -1.899399,0.560693 -2.445597,1.219748 -2.455549,3.214134 -0.03191,6.308306 -0.03425,12.616613 -0.0038,18.924628 0.01024,2.125146 0.471849,2.664532 2.529312,3.333219 0.355351,0.115291 0.522196,0.2443 0.505512,0.657596 -0.01961,0.498815 -0.341886,0.383816 -0.610009,0.384108 -2.736552,0.0053 -5.473104,0.0055 -8.209656,0 -0.266952,-5.84e-4 -0.5983,0.117626 -0.628742,-0.373601 -0.02517,-0.406291 0.135525,-0.546391 0.4979,-0.66606 2.259141,-0.74545 2.742993,-1.412094 2.749139,-3.749433 0.0073,-2.699558 -0.01551,-5.399115 0.01815,-8.098088 0.0073,-0.587546 -0.168601,-0.724435 -0.733826,-0.716555 -2.294851,0.03123 -4.589995,0.01284 -6.885138,0.01314"
             id="Fill-29"
             fill="#223664" />
          <path
             d="m 42.380111,17.599221 c 2.794801,-2.91e-4 5.589602,0.01664 8.383818,-0.01343 0.616741,-0.0067 0.80993,0.168121 0.792368,0.78894 -0.04303,1.494987 -0.0097,2.991725 -0.01756,4.487879 -0.0012,0.268233 0.110059,0.617316 -0.37145,0.637456 -0.356521,0.01459 -0.635767,-0.01985 -0.694602,-0.456785 -0.02693,-0.19906 -0.11767,-0.390822 -0.186457,-0.58346 -0.870521,-2.441831 -2.142349,-3.33964 -4.751572,-3.347229 -1.500142,-0.0041 -3.000576,-0.01518 -4.500718,0.0044 -1.081859,0.0143 -1.588541,0.480718 -1.5982,1.555696 -0.02781,3.050392 -0.0067,6.101075 -0.02371,9.151759 -0.0023,0.414755 0.112986,0.556315 0.542685,0.551353 2.029656,-0.02335 4.059897,0.01051 6.088967,-0.02948 1.405304,-0.02744 1.852566,-0.462914 2.220796,-1.897191 0.08313,-0.324566 0.0073,-0.804409 0.619668,-0.756249 0.324324,0.02568 0.470386,0.09136 0.46863,0.448612 -0.012,2.3172 -0.0091,4.634401 -0.002,6.951893 8.78e-4,0.291292 -0.08635,0.437813 -0.400135,0.415339 -0.255537,-0.0181 -0.509024,0.05546 -0.588641,-0.338868 -0.114743,-0.570325 -0.272221,-1.138606 -0.477412,-1.682663 -0.31964,-0.847023 -0.965066,-1.332703 -1.877738,-1.346422 -2.029363,-0.03036 -4.059311,-0.01459 -6.088967,-0.03561 -0.376426,-0.0038 -0.507268,0.106534 -0.505511,0.495604 0.01463,3.168018 -0.0047,6.336327 0.02108,9.504053 0.0073,0.889928 0.557028,1.497613 1.553708,1.62633 3.29358,0.424971 6.506079,0.08698 9.556417,-1.283668 0.94809,-0.425847 1.719675,-1.118759 2.263531,-2.027952 0.120597,-0.201978 0.206361,-0.444526 0.523952,-0.291292 0.285393,0.137766 0.220997,0.375352 0.182359,0.607102 -0.411258,2.463138 -2.520238,4.400316 -5.094629,4.803104 -1.508923,0.236127 -2.998527,0.05721 -4.486668,-0.04933 -3.318168,-0.237587 -6.636629,-0.338576 -9.962114,-0.291 -0.252902,0.0038 -0.664746,0.243132 -0.743193,-0.320771 -0.07142,-0.515744 0.221875,-0.628116 0.616156,-0.743699 1.81949,-0.533841 2.38647,-1.149698 2.412521,-3.057981 0.0641,-4.692191 0.04918,-9.385842 0.0524,-14.07891 0.0012,-1.817801 0.0044,-3.637353 -0.06498,-5.453695 -0.06293,-1.640632 -0.670308,-2.313989 -2.267337,-2.823604 -0.245291,-0.07822 -0.646305,0.03006 -0.723288,-0.354629 -0.100692,-0.502026 -0.0047,-0.790983 0.655965,-0.781935 2.823486,0.03882 5.647851,0.01664 8.471924,0.01635"
             id="Fill-30"
             fill="#223664" />
          <path
             d="m 171.48102,17.59893 c 2.79392,0 5.58843,0.01635 8.38235,-0.01313 0.60387,-0.0061 0.8152,0.142435 0.79559,0.775514 -0.0465,1.494403 -0.009,2.99114 -0.0211,4.486711 -0.002,0.256558 0.14459,0.621695 -0.34862,0.650007 -0.39545,0.02247 -0.65011,-0.03853 -0.74788,-0.511658 -0.0989,-0.479552 -0.31437,-0.940423 -0.51575,-1.393122 -0.73588,-1.654643 -2.08293,-2.415562 -3.83773,-2.464889 -1.70446,-0.04758 -3.41155,-0.02977 -5.11717,-0.0099 -0.96156,0.01109 -1.49985,0.414171 -1.51829,1.348465 -0.0623,3.165974 -0.0363,6.3337 -0.0545,9.500842 -0.002,0.395199 0.23125,0.402204 0.51605,0.401037 2.0882,-0.0085 4.17728,0.02306 6.2643,-0.03094 1.26129,-0.03269 1.70797,-0.486265 2.04664,-1.772269 0.0726,-0.275238 0.11181,-0.597469 0.28539,-0.793609 0.1045,-0.11821 0.44814,-0.07939 0.6665,-0.03065 0.27105,0.06013 0.18617,0.329527 0.18675,0.519538 0.005,2.228762 5.9e-4,4.457816 0.005,6.68687 5.8e-4,0.316685 0.001,0.582 -0.4458,0.56653 -0.32315,-0.01138 -0.48385,-0.04728 -0.59157,-0.436062 -0.80408,-2.898908 -0.91443,-2.966623 -3.92232,-2.966331 -1.47058,0 -2.94145,0.01401 -4.41174,-0.0085 -0.44931,-0.0067 -0.60913,0.115875 -0.60591,0.589297 0.0202,3.079287 -0.002,6.159158 0.0187,9.238446 0.007,1.019521 0.53039,1.666026 1.57536,1.80058 3.29212,0.424095 6.50403,0.08552 9.55379,-1.286004 0.91999,-0.413879 1.67313,-1.079355 2.22343,-1.947977 0.12528,-0.197308 0.1607,-0.559817 0.55205,-0.382357 0.34364,0.155861 0.21339,0.448613 0.16919,0.689702 -0.45927,2.50546 -2.51936,4.342525 -5.14059,4.739767 -1.48141,0.224453 -2.93969,0.04728 -4.39798,-0.05604 -3.31787,-0.23496 -6.63575,-0.337992 -9.96065,-0.291 -0.26402,0.0035 -0.66884,0.21628 -0.76426,-0.312307 -0.0931,-0.513409 0.21075,-0.664017 0.61381,-0.745742 1.57683,-0.319604 2.36715,-1.29476 2.43096,-2.883147 0.0105,-0.263271 0.0562,-0.525959 0.0562,-0.788939 0.005,-6.012053 0.0102,-12.024398 -2.9e-4,-18.036743 -0.001,-0.699918 -0.0524,-1.405965 -0.30003,-2.076987 -0.33779,-0.915905 -1.08156,-1.328034 -1.95472,-1.607651 -0.36735,-0.117917 -0.95072,-0.03152 -0.84564,-0.734067 0.11357,-0.756833 0.69782,-0.389362 1.04263,-0.39374 2.70553,-0.03503 5.41164,-0.01926 8.11775,-0.01956"
             id="Fill-31"
             fill="#223664" />
          <path
             d="m 125.55677,17.269402 c 2.41398,0.03415 4.38422,0.277866 6.19668,1.23872 0.29944,0.15878 0.514,0.106535 0.80261,-0.05225 0.77539,-0.426138 0.88692,-0.340035 0.9841,0.564488 0.17855,1.660772 0.3571,3.321544 0.56112,4.979105 0.0442,0.358423 0.0694,0.621403 -0.36764,0.729689 -0.46365,0.115291 -0.53361,-0.175125 -0.63548,-0.50582 -0.867,-2.818351 -2.61976,-4.729552 -5.5934,-5.35942 -2.06771,-0.438105 -4.09356,-0.330987 -6.02252,0.594551 -1.66846,0.800323 -2.51146,2.168927 -2.54659,3.996652 -0.0345,1.784527 1.03151,2.845787 2.52639,3.581021 1.799,0.884967 3.75577,1.311106 5.64961,1.919374 1.34149,0.430809 2.66044,0.907441 3.88778,1.60911 5.12156,2.929264 5.36158,10.235785 0.26022,13.215543 -4.45447,2.60207 -9.15277,2.618415 -13.78579,0.194389 -0.34599,-0.181255 -0.49937,-0.417382 -0.56786,-0.807912 -0.30764,-1.757383 -0.65831,-3.507469 -0.98995,-5.260765 -0.0583,-0.307929 -0.20021,-0.625782 0.34481,-0.691162 0.41477,-0.04962 0.5904,-0.04261 0.71422,0.448613 0.783,3.105556 2.66747,5.279154 5.78484,6.152153 2.87003,0.804118 5.67302,0.546684 8.1154,-1.338833 1.59791,-1.233466 2.15347,-2.972461 1.90555,-4.930362 -0.15485,-1.223834 -0.99317,-2.01686 -2.02878,-2.613162 -1.61752,-0.931667 -3.4212,-1.359264 -5.18098,-1.903029 -1.53966,-0.475757 -3.07961,-0.945385 -4.51184,-1.703677 -3.16333,-1.674782 -4.61839,-4.43826 -4.11463,-7.82606 0.45165,-3.038717 2.76845,-5.296374 6.11999,-5.979363 0.95599,-0.194681 1.92165,-0.241381 2.49214,-0.251597"
             id="Fill-32"
             fill="#223664" />
          <path
             d="m 145.40782,17.599221 c 1.47087,-2.91e-4 2.94203,-0.0015 4.4129,5.84e-4 0.29125,5.84e-4 0.59684,-0.04933 0.61557,0.410961 0.0164,0.397826 -0.10186,0.589881 -0.52131,0.623154 -0.28774,0.02277 -0.5702,0.131344 -0.85062,0.215405 -1.75334,0.526251 -2.46609,1.424936 -2.47048,3.266379 -0.0161,6.600474 -0.0105,13.200948 -0.005,19.801131 8.8e-4,1.041412 0.47126,1.672739 1.54141,1.80992 3.32168,0.426139 6.56228,0.101573 9.63311,-1.320153 0.89306,-0.413588 1.60815,-1.068848 2.14967,-1.901569 0.12967,-0.199351 0.17592,-0.561277 0.55995,-0.382357 0.3855,0.179795 0.21222,0.4778 0.14314,0.756541 -0.76837,3.094757 -3.07346,4.812445 -6.60238,4.77129 -2.05571,-0.02393 -4.11083,-0.198475 -6.16361,-0.344413 -2.23397,-0.158488 -4.46882,-0.09632 -6.70395,-0.10887 -0.25876,-0.0015 -0.66533,0.237295 -0.75051,-0.31435 -0.0785,-0.509031 0.20928,-0.633953 0.60708,-0.751579 1.8189,-0.537927 2.4011,-1.195231 2.41076,-3.059732 0.0334,-6.423889 0.034,-12.848071 0.002,-19.27196 -0.009,-1.879095 -0.5942,-2.549533 -2.38208,-3.091838 -0.36237,-0.109745 -0.70309,-0.158488 -0.64659,-0.70809 0.0644,-0.62403 0.49848,-0.384692 0.78446,-0.389654 1.41174,-0.02364 2.82407,-0.0108 4.23611,-0.0108"
             id="Fill-33"
             fill="#223664" />
          <path
             d="m 62.391567,17.598638 c 1.4416,0 2.882907,-0.0026 4.324214,0.002 0.305297,8.75e-4 0.665331,-0.10741 0.683187,0.423511 0.01376,0.40454 -0.112694,0.577038 -0.524245,0.618193 -0.315542,0.03181 -0.623474,0.156153 -0.929942,0.25364 -1.659962,0.527127 -2.332611,1.359848 -2.33788,3.072574 -0.02049,6.658557 -0.01756,13.317115 -0.01346,19.975672 5.85e-4,1.004052 0.456336,1.640925 1.467651,1.773144 3.412421,0.445986 6.739663,0.117918 9.871667,-1.404797 0.853836,-0.415047 1.533803,-1.082566 2.025557,-1.910034 0.126158,-0.212193 0.213094,-0.423511 0.528928,-0.272903 0.299151,0.142727 0.209874,0.348791 0.161869,0.589005 -0.614107,3.087459 -3.085755,4.968598 -6.655654,4.932405 -1.879203,-0.01897 -3.757527,-0.187968 -5.634388,-0.319604 -2.409301,-0.169288 -4.820651,-0.139808 -7.232587,-0.134263 -0.259342,5.84e-4 -0.668258,0.224161 -0.728557,-0.342953 -0.04859,-0.460288 0.179432,-0.593092 0.55498,-0.710426 1.930426,-0.602431 2.466672,-1.289798 2.471356,-3.293815 0.01522,-6.247889 0.01581,-12.495777 0.0026,-18.743374 -0.0047,-2.140616 -0.494388,-2.81047 -2.531654,-3.429538 -0.467167,-0.142143 -0.512537,-0.360758 -0.488242,-0.737862 0.03161,-0.493561 0.408039,-0.290708 0.660355,-0.339451 0.02839,-0.0055 0.05884,-8.75e-4 0.08811,-8.75e-4 1.412037,0 2.824073,0 4.236109,-2.92e-4"
             id="Fill-34"
             fill="#223664" />
          <path
             d="m 100.06255,60.340605 c 0.92175,0.395199 1.4214,0.95239 1.27241,1.880554 -0.1326,0.825424 -0.81959,1.381447 -1.845831,1.447995 -0.964189,0.06217 -1.93394,0.03065 -2.90047,0.06655 -0.403063,0.01489 -0.57342,-0.09311 -0.568444,-0.532964 0.0202,-1.842027 0.01873,-3.684346 5.85e-4,-5.526372 -0.0041,-0.409794 0.102742,-0.570617 0.538295,-0.552229 0.761048,0.0324 1.52473,-5.84e-4 2.286948,0.01167 0.860277,0.01372 1.651767,0.20227 2.018537,1.095701 0.35447,0.864244 -0.046,1.512499 -0.80203,2.109093 z m -1.909645,2.737209 c 0.548247,0.0018 1.013071,0.01197 1.475847,-0.10741 0.576348,-0.148565 0.949848,-0.471379 0.954818,-1.081691 0.005,-0.624614 -0.39164,-0.935461 -0.967698,-1.058341 -0.810808,-0.173374 -1.633032,-0.100697 -2.451159,-0.112664 -0.190262,-0.0029 -0.371742,0.0394 -0.366766,0.268526 0.01405,0.665768 -0.211044,1.405381 0.105083,1.971327 0.197287,0.352586 0.874034,0.05546 1.249875,0.120253 z m 0.02868,-5.264852 c -1.400035,0.01109 -1.400035,0.01109 -1.39301,1.437779 8.78e-4,0.174834 2.93e-4,0.349959 0.0032,0.524793 0.0038,0.20548 0.0963,0.328944 0.317006,0.31902 0.784171,-0.03532 1.580344,0.115874 2.350173,-0.142436 0.547956,-0.183881 0.782716,-0.579956 0.745536,-1.140357 -0.036,-0.549894 -0.393112,-0.84177 -0.886915,-0.937797 -0.368522,-0.0718 -0.756657,-0.04436 -1.13601,-0.061 z"
             id="Fill-35"
             fill="#223664" />
          <path
             d="m 199.72847,6.9635674 c -0.0187,-2.0118983 -0.0313,-4.0240885 -0.0618,-6.03569495 -0.006,-0.39782641 0.1727,-0.49064284 0.53069,-0.48743221 0.90681,0.008173 1.81363,-0.0122588 2.72016,-0.021015 0.73002,0.11879336 1.36696,0.38498388 1.58473,1.16983726 0.22744,0.8192947 -0.0805,1.4681341 -0.78768,1.9628632 0.45546,0.3336138 0.9636,0.5297542 1.14889,1.0881122 0.3893,1.1721723 -0.44404,2.2451069 -1.88477,2.3131139 -1.08127,0.05137 -2.16664,0.010216 -3.25026,0.010216 z m 2.1002,-0.6488394 c 0.43995,-0.021307 0.8875,-5.837e-4 1.31837,-0.075304 0.55498,-0.096027 0.98468,-0.3706819 1.02303,-1.020397 0.038,-0.6430019 -0.3053,-0.95239 -0.88428,-1.121094 -0.69636,-0.2025617 -1.40736,-0.039695 -2.10167,-0.1287172 -0.70045,-0.089898 -0.82193,0.2034373 -0.80583,0.8330129 0.038,1.496738 0.006,1.4976136 1.45038,1.5124993 z m -0.15982,-2.9715852 c 0.40072,-0.030063 0.85033,-0.012842 1.27505,-0.1079939 0.52981,-0.1187934 0.86584,-0.4570772 0.86379,-1.0571734 -0.002,-0.5977611 -0.31642,-0.9121111 -0.86847,-1.0370339 -0.72622,-0.16403406 -1.46326,-0.066256 -2.19563,-0.084644 -0.15601,-0.00379 -0.32168,0.047576 -0.32373,0.2194904 -0.007,0.6397913 -0.11562,1.3195695 0.0685,1.9050719 0.10626,0.3379919 0.747,0.070634 1.1805,0.1622828 z"
             id="Fill-36"
             fill="#223664" />
          <path
             d="m 175.20371,0.47108718 c 1.11611,-0.0172207 2.23221,-0.0341494 3.34832,-0.0510782 1.22675,0.27027678 1.82242,0.79185842 1.89296,1.75329652 0.0869,1.1885174 -0.62699,1.8093367 -1.76183,2.1420749 0.66709,0.8954742 1.28676,1.7270277 1.91872,2.5752181 -0.59039,0.2043129 -0.9475,0.036484 -1.24753,-0.4229277 -0.36706,-0.5621523 -0.81286,-1.0726427 -1.19572,-1.625455 -0.20314,-0.2930431 -0.4338,-0.4132958 -0.79705,-0.4273059 -1.42404,-0.055164 -1.42346,-0.068883 -1.42404,1.3624752 -2.9e-4,0.2343761 -0.007,0.4687522 10e-4,0.7025445 0.0103,0.2857462 5.9e-4,0.504361 -0.4013,0.5017341 -0.4499,-0.00321 -0.34774,-0.2997562 -0.34774,-0.539386 5.8e-4,-1.9902996 0.008,-3.980891 0.0137,-5.97119049 z m 2.0803,3.29761022 c 0.46951,-0.00263 0.93638,0.016345 1.39711,-0.1328034 0.67645,-0.2191985 1.03824,-0.6564281 0.98526,-1.3683127 -0.0509,-0.6899938 -0.49175,-1.039077 -1.1483,-1.1190509 -0.40746,-0.049619 -0.82106,-0.063921 -1.23202,-0.06684 -1.35057,-0.00963 -1.35086,-0.00467 -1.35086,1.3455464 0,1.3432114 0,1.3432114 1.34881,1.3414606 z"
             id="Fill-37"
             fill="#223664" />
          <path
             d="m 163.53773,61.101816 c 0.61528,0.824549 1.22587,1.64326 1.88389,2.524724 -0.53771,0.202562 -0.88955,0.120253 -1.19602,-0.353169 -0.34891,-0.539386 -0.76485,-1.035575 -1.15416,-1.5484 -0.20753,-0.27378 -0.36911,-0.537051 -0.81286,-0.555731 -1.48901,-0.06217 -1.45828,-0.08756 -1.51068,1.447411 -0.0123,0.367471 0.38609,1.09249 -0.39164,1.076437 -0.70895,-0.01459 -0.31291,-0.701085 -0.32403,-1.049585 -0.0518,-1.638297 -0.008,-3.279514 -0.0328,-4.918979 -0.006,-0.447445 0.0987,-0.6287 0.58045,-0.601556 0.7028,0.0394 1.40911,0.007 2.11396,0.0108 1.49194,0.0079 2.34753,0.556607 2.55887,1.635963 0.19495,0.996463 -0.29505,1.672447 -1.71499,2.332085 z m -1.42784,-0.594842 c 0.43848,-0.02802 0.89306,0.0073 1.31193,-0.09836 0.68933,-0.173666 1.13659,-0.624322 1.07893,-1.38962 -0.0556,-0.737277 -0.56552,-1.061843 -1.23144,-1.155243 -0.37525,-0.05254 -0.76251,-0.02218 -1.14449,-0.02277 -1.35672,-0.002 -1.35672,-8.76e-4 -1.3576,1.312856 -8.7e-4,1.329785 -8.7e-4,1.329785 1.34267,1.353135 z"
             id="Fill-38"
             fill="#223664" />
          <path
             d="m 50.259589,63.635588 c -0.613814,0.204021 -0.946334,0.03678 -1.227629,-0.393156 -0.367644,-0.562444 -0.795002,-1.085777 -1.193088,-1.628666 -0.196117,-0.267066 -0.403648,-0.430808 -0.785343,-0.4419 -1.449503,-0.04145 -1.414378,-0.06042 -1.472334,1.393998 -0.01522,0.376812 0.410087,1.107084 -0.331056,1.119927 -0.742315,0.01284 -0.345106,-0.722976 -0.356815,-1.094825 -0.05093,-1.608527 -0.0038,-3.219972 -0.03249,-4.829666 -0.0085,-0.487432 0.116498,-0.666643 0.627278,-0.639499 0.790319,0.04232 1.585029,-0.0029 2.377396,0.01722 1.17055,0.02948 2.001263,0.629283 2.173962,1.537308 0.209581,1.103582 -0.178846,1.736368 -1.40384,2.29064 -0.07581,0.03444 -0.146063,0.08114 -0.259342,0.14477 0.618205,0.828635 1.22558,1.642092 1.883301,2.523849 z m -3.210158,-5.787017 c -1.445112,-0.0088 -1.445112,-0.0088 -1.44482,1.470761 0,0.263856 0.0091,0.528295 -0.0015,0.791859 -0.01,0.252472 0.08254,0.37827 0.350667,0.372433 0.734704,-0.01664 1.481994,0.05575 2.200892,-0.05662 0.721824,-0.112664 1.224115,-0.556315 1.162939,-1.398084 -0.05884,-0.808203 -0.609131,-1.080815 -1.298465,-1.173048 -0.317883,-0.04261 -0.646305,-0.0073 -0.96975,-0.0073 z"
             id="Fill-39"
             fill="#223664" />
          <path
             d="m 165.66427,0.46408216 c 1.11728,-0.0134263 2.23485,-0.0271444 3.35213,-0.0405707 1.2206,0.29304307 1.72377,0.76091964 1.83324,1.70572084 0.10918,0.940715 -0.22568,1.5238824 -1.31924,2.0107308 -0.49966,0.2221173 -0.2614,0.3960752 -0.0902,0.6260731 0.52044,0.6984583 1.04556,1.3937059 1.59205,2.120768 -0.58044,0.1897191 -0.93638,0.071218 -1.23963,-0.4057071 -0.37554,-0.5907562 -0.85383,-1.1155484 -1.25455,-1.6917108 -0.19173,-0.2755306 -0.41448,-0.356672 -0.73471,-0.3721414 -1.43545,-0.070342 -1.4053,-0.078806 -1.45594,1.4202666 -0.0129,0.3727251 0.36823,1.0980359 -0.34891,1.0910309 -0.7148,-0.00701 -0.32608,-0.7314402 -0.33457,-1.1047491 -0.041,-1.7856947 -0.007,-3.5728489 2.9e-4,-5.35971114 z M 166.37,2.4094329 c 0,0.3210631 0.005,0.6424181 -0.001,0.9631894 -0.005,0.2364192 0.0577,0.408042 0.33574,0.3934482 0.78505,-0.040863 1.57654,0.1039077 2.35632,-0.1225877 0.71861,-0.2089829 1.08742,-0.6430019 1.02274,-1.405089 -0.0644,-0.7582928 -0.57255,-1.0326558 -1.24198,-1.1044572 -0.37701,-0.040571 -0.7587,-0.050494 -1.13864,-0.052829 -1.33418,-0.00817 -1.33418,-0.00467 -1.33271,1.3283258 z"
             id="Fill-40"
             fill="#223664" />
          <path
             d="m 129.82566,0.46612529 c 0.94048,-0.0151775 1.88096,-0.0300632 2.82144,-0.0449488 1.94477,0.3525857 3.1159,1.72702771 2.97569,3.49258311 -0.14372,1.8116716 -1.56131,3.056521 -3.53096,3.049516 -0.74788,-0.00292 -1.7469,0.3379919 -2.17338,-0.1649097 -0.36501,-0.4305165 -0.10889,-1.3939978 -0.10948,-2.1219355 -10e-4,-1.4033377 0.0103,-2.8069674 0.0167,-4.21030507 z m 0.70836,3.14174871 c 0,0.2638555 2.9e-4,0.527711 0,0.7918584 0,2.0396265 0.18207,2.1919856 2.20206,1.8408592 1.18431,-0.2057722 2.01092,-1.1549516 2.07825,-2.3866665 0.0697,-1.2734531 -0.66065,-2.3922122 -1.84671,-2.6473115 -0.65129,-0.1401003 -1.34413,-0.087563 -2.01795,-0.1255065 -0.37321,-0.021015 -0.42326,0.2019779 -0.41829,0.5034854 0.0105,0.6742326 0.003,1.348757 0.003,2.0232815 z"
             id="Fill-41"
             fill="#223664" />
          <path
             d="m 20.38115,0.49297784 c 1.578295,-0.0143019 3.156591,-0.0286038 4.73518,-0.0431976 0.129085,0.43693773 0.024,0.65350946 -0.491169,0.63833186 -0.968579,-0.028604 -1.939208,0.00525 -2.908373,-0.015469 -0.406282,-0.00846 -0.54854,0.1167503 -0.572542,0.5425967 -0.09337,1.6666096 -0.110644,1.6657339 1.53878,1.6657339 0.558492,0 1.116984,0.011091 1.674598,-0.00321 0.303541,-0.00788 0.413307,0.1094533 0.408624,0.4092096 -0.005,0.3149337 -0.206069,0.2982968 -0.415357,0.2982968 -0.881644,2.919e-4 -1.763581,0.019848 -2.644055,-0.0073 -0.426772,-0.013134 -0.53888,0.1398084 -0.560833,0.5531042 -0.09279,1.7442484 -0.107718,1.7433728 1.636545,1.7427891 0.675869,0 1.351737,0.00496 2.027314,-0.00146 0.278367,-0.00292 0.44492,0.076179 0.440822,0.3946158 -0.0041,0.3093881 -0.210459,0.3038424 -0.418869,0.3041343 -1.351445,0.00146 -2.70289,-0.00642 -4.054335,0.0035 -0.556736,0.00409 -0.398379,-0.3972427 -0.39955,-0.6812376 -0.0067,-1.9333838 5.85e-4,-3.8670595 0.0032,-5.80044328"
             id="Fill-42"
             fill="#223664" />
          <path
             d="m 15.772128,60.396645 c 0,-0.850817 -0.01815,-1.701927 0.01083,-2.551868 0.0088,-0.259478 -0.232998,-0.697875 0.347448,-0.712177 0.641914,-0.01576 0.381987,0.467001 0.401599,0.754207 0.036,0.525668 0.02956,1.056298 0.0038,1.583133 -0.02195,0.44657 0.131427,0.635997 0.60152,0.622862 0.911208,-0.02539 1.824466,-0.02831 2.735674,0.0018 0.410087,0.01343 0.491461,-0.152067 0.480631,-0.510199 -0.0202,-0.674232 5.85e-4,-1.349632 -0.0082,-2.024157 -0.0038,-0.270569 0.03747,-0.438105 0.377889,-0.434603 0.349497,0.0032 0.363254,0.196433 0.362961,0.45124 -0.0029,1.906823 -0.0035,3.813646 0.0012,5.720469 8.78e-4,0.276698 -0.06557,0.438397 -0.391647,0.433727 -0.354179,-0.0047 -0.356814,-0.221241 -0.348033,-0.469919 0.0032,-0.08785 0.0064,-0.176293 -5.85e-4,-0.263856 -0.05854,-0.722975 0.328421,-1.711558 -0.157771,-2.098293 -0.454872,-0.361634 -1.404426,-0.114707 -2.136202,-0.117626 -1.511851,-0.0055 -1.511851,-5.84e-4 -1.511851,1.525634 0,0.293335 -0.002,0.586669 5.86e-4,0.880005 0.0023,0.269692 0.03249,0.53851 -0.375255,0.545515 -0.395452,0.0067 -0.39955,-0.232625 -0.397209,-0.519539 0.0073,-0.938671 0.0026,-1.877635 0.0026,-2.816307"
             id="Fill-43"
             fill="#223664" />
          <path
             d="m 87.425059,63.555031 c 0.0322,0.104783 -0.08694,0.146813 -0.25056,0.171914 -0.400135,0.06129 -0.615863,-0.140976 -0.692553,-0.499107 -0.23534,-1.09716 -0.94048,-1.421142 -1.980773,-1.240179 -0.199043,0.03473 -0.413893,0.0324 -0.6144,5.83e-4 -1.078346,-0.17133 -1.879788,0.08173 -2.130348,1.285129 -0.07581,0.364552 -0.364132,0.587545 -0.713921,0.433435 -0.405404,-0.178336 -0.0401,-0.454158 0.04449,-0.644461 0.803198,-1.810505 1.627764,-3.611669 2.449695,-5.414 0.11445,-0.251305 0.154844,-0.534133 0.562005,-0.560401 0.456628,-0.02948 0.531562,0.279908 0.659477,0.560401 0.823395,1.801747 1.640057,3.606122 2.458184,5.410205 0.06001,0.132512 0.112986,0.268526 0.208702,0.496481 z m -3.291531,-5.591753 c -0.537709,1.211868 -1.002534,2.259701 -1.497215,3.374958 0.870814,0 1.606104,-0.01576 2.340222,0.0058 0.477704,0.01401 0.654208,-0.07414 0.404526,-0.584919 -0.42326,-0.865411 -0.788855,-1.75855 -1.247533,-2.795876 z"
             id="Fill-44"
             fill="#223664" />
          <path
             d="m 43.663354,0.46408216 c 1.580052,8.7563e-4 3.159812,0.001751 4.739571,0.002627 0.08898,0.43051647 -0.0199,0.64212624 -0.527172,0.62257054 -0.93843,-0.036193 -1.88008,0.016637 -2.818218,-0.020723 -0.523074,-0.020723 -0.706603,0.112664 -0.704847,0.6739407 0.005,1.5381843 -0.02517,1.5381843 1.488141,1.5384761 0.4698,0 0.941065,-0.022182 1.408816,0.00846 0.276904,0.018388 0.720361,-0.1999347 0.748169,0.3312788 0.02986,0.5691574 -0.438481,0.3458726 -0.702506,0.3552126 -0.791782,0.02802 -1.585906,0.028604 -2.377981,0.00263 -0.415064,-0.013718 -0.540637,0.1190852 -0.560541,0.5423048 -0.08284,1.7535884 -0.09952,1.7530047 1.621617,1.7530047 0.616741,0 1.233482,-0.0073 1.849931,0.0035 0.266659,0.00467 0.624352,-0.1211284 0.6144,0.3750601 -0.0091,0.4521152 -0.342179,0.3123068 -0.568152,0.3146418 -1.23319,0.011675 -2.466965,-0.011383 -3.69957,0.014302 -0.426772,0.00905 -0.546783,-0.1278416 -0.541221,-0.5452236 0.02605,-1.9905914 0.02254,-3.9814747 0.02956,-5.97206612"
             id="Fill-45"
             fill="#223664" />
          <path
             d="m 33.175532,61.992913 c -0.465703,0 -0.706896,0.03415 -0.934918,-0.0061 -0.84447,-0.149148 -1.32393,0.205772 -1.518583,1.016603 -0.0401,0.166953 -0.137867,0.321355 -0.216313,0.478092 -0.151624,0.303551 -0.442286,0.322522 -0.675869,0.203437 -0.285685,-0.145646 -0.01873,-0.358131 0.05005,-0.512825 0.83042,-1.86742 1.673426,-3.729003 2.514384,-5.591461 0.12089,-0.267941 0.230656,-0.501442 0.621132,-0.489767 0.355936,0.01022 0.443457,0.236711 0.547954,0.467293 0.844471,1.860999 1.684843,3.723749 2.515849,5.590585 0.07815,0.175125 0.377596,0.417674 -0.0161,0.558941 -0.211629,0.07589 -0.473605,0.06947 -0.616448,-0.192054 -0.0281,-0.05137 -0.07054,-0.100405 -0.0802,-0.155277 -0.252609,-1.433985 -1.241971,-1.567664 -2.190939,-1.367437 z m 1.279438,-0.687951 c -0.498779,-1.121386 -0.968287,-2.176516 -1.481701,-3.3303 -0.516049,1.156702 -0.987021,2.211541 -1.486092,3.3303 z"
             id="Fill-46"
             fill="#223664" />
          <path
             d="m 190.6401,63.831729 c -0.75285,-0.0088 -1.45448,-0.208108 -2.06332,-0.646797 -0.18733,-0.135138 -0.64396,-0.173082 -0.38403,-0.623738 0.27339,-0.474298 0.51253,-0.157029 0.7549,0.01956 0.65069,0.474006 1.38276,0.633954 2.16811,0.532381 0.57166,-0.07414 1.00458,-0.359299 1.08595,-0.974573 0.0785,-0.59455 -0.26958,-0.937212 -0.79178,-1.107667 -0.61118,-0.199351 -1.24461,-0.333614 -1.85022,-0.547267 -0.9396,-0.331279 -1.36667,-0.944218 -1.29056,-1.75855 0.0732,-0.780768 0.66972,-1.414721 1.53058,-1.598895 0.83276,-0.178044 1.64094,-0.0934 2.38237,0.339452 0.23212,0.13543 0.7107,0.176584 0.39955,0.66927 -0.26871,0.425555 -0.48268,0.0826 -0.71538,-0.03357 -0.64367,-0.321063 -1.29613,-0.535883 -2.02878,-0.290708 -0.47009,0.157613 -0.76076,0.457369 -0.79178,0.942758 -0.0316,0.497648 0.24763,0.838851 0.70631,0.994421 0.47009,0.159655 0.95687,0.270568 1.43662,0.402204 1.3093,0.358715 1.9316,1.058049 1.79461,2.017444 -0.15045,1.052503 -1.02712,1.674198 -2.34315,1.664275"
             id="Fill-47"
             fill="#223664" />
          <path
             d="m 4.6625879,63.835815 c -1.4632605,0.0047 -2.7099152,-0.869206 -3.1609823,-2.215336 -0.4984862,-1.489149 0.012879,-3.149337 1.231141,-3.996944 1.1898688,-0.827759 2.9107146,-0.814041 4.0437976,0.04991 0.1770899,0.135138 0.52805,0.225912 0.3000284,0.587837 -0.2546583,0.404248 -0.4794601,0.218031 -0.7780249,0.01722 -1.1184474,-0.751872 -2.1757183,-0.767341 -3.1097579,-0.09223 -0.8722777,0.63016 -1.2768039,1.835606 -1.0048757,2.993184 0.4194544,1.786863 2.4962364,2.533188 4.0634092,1.45967 0.1683086,-0.115583 0.3167129,-0.279617 0.5014133,-0.345581 0.1958235,-0.07034 0.2941742,0.145646 0.401599,0.271445 0.1829442,0.214236 -0.053859,0.303258 -0.1601127,0.396658 -0.6624042,0.584043 -1.4310623,0.90248 -2.327635,0.874168"
             id="Fill-48"
             fill="#223664" />
          <path
             d="m 123.10063,60.373587 c 0,-0.878546 0.0176,-1.757383 -0.008,-2.635345 -0.012,-0.418841 0.0489,-0.63337 0.55674,-0.6179 1.23231,0.03736 2.46638,0.009 3.69986,0.01488 0.24266,0.0012 0.5421,-0.09457 0.54181,0.349667 0,0.441024 -0.29447,0.35171 -0.54035,0.35317 -0.93989,0.0055 -1.88066,0.02831 -2.81909,-0.0082 -0.51517,-0.02014 -0.71041,0.09428 -0.70748,0.665476 0.007,1.577588 -0.0237,1.577588 1.5701,1.577588 0.52863,0 1.05727,-0.005 1.58561,0.0026 0.22539,0.0032 0.49878,-0.04232 0.50493,0.317852 0.006,0.356088 -0.25759,0.335657 -0.49059,0.336825 -0.85149,0.005 -1.70387,0.02043 -2.55478,-0.0041 -0.45223,-0.01284 -0.59596,0.139517 -0.61118,0.60214 -0.0571,1.720023 -0.0758,1.719439 1.68573,1.720314 0.64601,2.92e-4 1.29202,0.0015 1.93832,5.84e-4 0.24647,-2.92e-4 0.47742,0.0035 0.46863,0.352586 -0.009,0.361634 -0.26753,0.321647 -0.4979,0.32223 -1.26275,0.0023 -2.5258,-0.01518 -3.78826,0.01022 -0.42911,0.0088 -0.55644,-0.128133 -0.54356,-0.549602 0.0287,-0.936045 0.009,-1.873841 0.009,-2.811053"
             id="Fill-49"
             fill="#223664" />
          <path
             d="m 179.43806,59.55079 c 0,0.614981 0.0307,1.231715 -0.006,1.844361 -0.0823,1.355762 -1.00781,2.305525 -2.32266,2.429573 -1.5742,0.148564 -2.69294,-0.530047 -3.01141,-1.924044 -0.33603,-1.470469 -0.0767,-2.97538 -0.14401,-4.463361 -0.0138,-0.302967 0.19114,-0.296838 0.40803,-0.305886 0.36589,-0.01489 0.33779,0.233792 0.33779,0.469628 3e-4,0.966692 -0.003,1.933092 0.002,2.899784 0.002,0.291875 0.002,0.587837 0.0495,0.874459 0.20548,1.256816 0.92848,1.824514 2.19767,1.747167 1.07542,-0.06538 1.74017,-0.802366 1.76241,-2.004893 0.0211,-1.14211 8.8e-4,-2.284511 0.0111,-3.426912 0.002,-0.232041 -0.12001,-0.541429 0.32637,-0.564195 0.4897,-0.02481 0.40453,0.298005 0.40599,0.579081 0.004,0.614982 0.001,1.230256 0.001,1.845238 h -0.0179"
             id="Fill-50"
             fill="#223664" />
          <path
             d="m 203.29779,60.717416 c 0,-0.701669 -0.0386,-1.405964 0.012,-2.103839 0.0424,-0.589589 -0.10421,-0.870665 -0.75022,-0.781643 -0.3454,0.04758 -0.7025,0.0038 -1.05434,0.009 -0.22978,0.0035 -0.39341,-0.03648 -0.39136,-0.325734 0.002,-0.239921 0.048,-0.385275 0.33164,-0.384108 1.49488,0.0061 2.99004,0.0058 4.48521,-2.92e-4 0.26724,-0.0012 0.35067,0.10741 0.3495,0.36718 -0.001,0.276698 -0.13085,0.357255 -0.37526,0.342078 -0.0582,-0.0038 -0.11738,-0.0023 -0.17592,5.84e-4 -1.66025,0.08056 -1.66084,0.08056 -1.66172,1.784235 -5.8e-4,1.110878 0.0132,2.221757 -0.008,3.332343 -0.006,0.29713 0.20987,0.7796 -0.40218,0.764131 -0.54532,-0.01372 -0.34306,-0.449489 -0.35155,-0.724144 -0.0228,-0.759168 -0.008,-1.519796 -0.008,-2.27984"
             id="Fill-51"
             fill="#223664" />
          <path
             d="m 148.44733,60.833291 c -5.9e-4,-0.790399 -0.0307,-1.581966 0.0102,-2.37003 0.0266,-0.506696 -0.14401,-0.676567 -0.64104,-0.630451 -0.40716,0.03765 -0.82105,0 -1.23172,0.0093 -0.25612,0.0058 -0.36179,-0.08727 -0.36355,-0.355504 -0.002,-0.26911 0.10362,-0.356964 0.36003,-0.356089 1.49663,0.0061 2.99356,0.0047 4.49019,0.0038 0.20899,-2.92e-4 0.32139,0.07764 0.32081,0.304426 -8.8e-4,0.224452 -0.0217,0.411836 -0.31613,0.399578 -0.11708,-0.0047 -0.23475,-2.92e-4 -0.35184,0.002 -1.50746,0.03152 -1.50746,0.03152 -1.50746,1.582841 0,1.229088 0.003,2.458176 -0.003,3.687264 -0.001,0.272028 0.10742,0.617317 -0.37789,0.619652 -0.4818,0.0023 -0.38462,-0.337992 -0.38667,-0.614398 -0.006,-0.76092 -0.002,-1.521839 -0.002,-2.282467"
             id="Fill-52"
             fill="#223664" />
          <path
             d="m 71.370173,60.746604 c 0,0.762087 0.01493,1.524758 -0.0079,2.286553 -0.0082,0.269693 0.193189,0.70955 -0.378768,0.684448 -0.559662,-0.02481 -0.336617,-0.463206 -0.340422,-0.726186 -0.02137,-1.494987 -0.03717,-2.991141 0.0032,-4.48496 0.01522,-0.55865 -0.164796,-0.728522 -0.696652,-0.673357 -0.378182,0.03911 -0.763682,5.84e-4 -1.145669,0.009 -0.267245,0.0058 -0.449018,-0.0324 -0.439359,-0.37506 0.0082,-0.286622 0.147526,-0.335365 0.383158,-0.335073 1.469993,0.0035 2.939986,0.002 4.409979,0.0012 0.218655,-2.92e-4 0.398965,0.01576 0.407161,0.313475 0.0085,0.314933 -0.139916,0.381773 -0.42326,0.400453 -0.575176,0.03765 -1.401791,-0.283703 -1.663182,0.136889 -0.291832,0.469628 -0.09542,1.242223 -0.107425,1.883182 -0.0053,0.293043 -8.78e-4,0.586086 -8.78e-4,0.879421"
             id="Fill-53"
             fill="#223664" />
          <path
             d="M 1.1292777,0.4850972 C 2.6537147,0.47225468 4.1784445,0.45445027 5.7028815,0.45153151 5.9092425,0.45123964 6.236493,0.34237005 6.2482014,0.70196075 6.2622516,1.1304341 5.8934361,0.97515629 5.661902,1.013392 5.160196,1.0962847 4.6221938,0.83534789 4.1468317,1.1718804 4.1342452,2.8370306 4.1371723,4.5027645 4.0923875,6.1673309 4.0853625,6.4352726 4.3927087,6.938758 3.7627954,6.9659024 3.1188319,6.9939225 3.3922237,6.481389 3.3866622,6.2081934 3.3582692,4.8343351 3.3298763,3.4581418 3.3901747,2.0866185 3.4244218,1.3131482 3.2438194,0.93049933 2.4008127,1.0723509 2.1441055,1.1152566 1.87247,1.0598002 1.610494,1.0828584 1.1333756,1.1245966 1.0721991,0.85811419 1.1292777,0.4850972"
             id="Fill-54"
             fill="#223664" />
          <path
             d="m 35.028098,0.4850972 c 0.229192,-0.0154694 0.458677,-0.0312307 0.68787,-0.046992 l 0.0035,0.002919 c 0.0035,1.6666095 -0.0018,3.3338028 0.0202,5.0004123 0.0035,0.2621043 -0.168601,0.5869618 0.161869,0.7921503 0.996973,0.013426 1.993945,0.023934 2.990625,0.04203 0.275733,0.00496 0.632255,-0.097195 0.619083,0.3820651 -0.01229,0.441024 -0.353595,0.3070531 -0.584251,0.3093881 -1.11552,0.011967 -2.231918,-0.01868 -3.346561,0.016053 -0.492924,0.015469 -0.577225,-0.1800872 -0.571956,-0.6141062 0.02283,-1.961112 0.01581,-3.9225158 0.01961,-5.88391969"
             id="Fill-55"
             fill="#223664" />
          <path
             d="m 110.03813,60.375338 c 0,-0.906274 -0.002,-1.812547 0.001,-2.718821 8.8e-4,-0.252472 -0.0697,-0.529462 0.36384,-0.531797 0.41857,-0.0023 0.38374,0.250721 0.38345,0.518079 -5.9e-4,1.520088 0.0424,3.042219 -0.0187,4.55968 -0.0296,0.729981 0.22978,0.903939 0.89716,0.857239 0.72944,-0.05108 1.46531,-0.02189 2.19797,-0.005 0.25612,0.0058 0.64308,-0.141852 0.63489,0.350542 -0.007,0.428182 -0.34774,0.313183 -0.58337,0.315226 -1.11406,0.01022 -2.2287,-0.01284 -3.34217,0.01284 -0.42883,0.0099 -0.55528,-0.131928 -0.54269,-0.551645 0.0281,-0.934586 0.009,-1.870631 0.008,-2.806384"
             id="Fill-56"
             fill="#223664" />
          <path
             d="m 58.988513,60.39431 c 0,-0.907733 -0.0038,-1.815758 0.0026,-2.723491 0.0018,-0.243716 -0.08869,-0.534132 0.349789,-0.545516 0.427651,-0.01109 0.379939,0.250722 0.379646,0.515161 -5.85e-4,1.844945 0.0023,3.689891 -0.0032,5.534836 -8.78e-4,0.240214 0.09747,0.545224 -0.344227,0.55077 -0.498779,0.0064 -0.378183,-0.343246 -0.38111,-0.608269 -0.0097,-0.907733 -0.0035,-1.815758 -0.0035,-2.723491"
             id="Fill-57"
             fill="#223664" />
          <path
             id="Fill-58"
             fill="#a0b1c5"
             d="m 89.536674,0.43752149 c 0.0088,2.17418111 0.01756,4.34836231 0.02634,6.52254341 -0.219826,-0.068883 -0.204019,-0.2565586 -0.204312,-0.4252627 -0.002,-1.9114931 -5.86e-4,-3.8232781 5.85e-4,-5.73477125 2.93e-4,-0.14768904 0.02195,-0.28837307 0.177383,-0.36250946" />
          <path
             id="Fill-59"
             fill="#a0b1c5"
             d="m 35.901546,6.2335866 c -0.33047,-0.2051885 -0.158356,-0.530046 -0.161869,-0.7921503 -0.02195,-1.6666095 -0.01668,-3.3338028 -0.0202,-5.00041231 0.307639,0.21248542 0.172407,0.5329648 0.174748,0.80382531 0.01347,1.6628152 0.007,3.3259222 0.0073,4.9887373" />
          <path
             d="m 99.429708,6.4778865 c 0.08576,0.4465696 -0.143428,0.495021 -0.489119,0.5040691 -0.409502,0.010799 -0.380231,-0.2285386 -0.388134,-0.5008585 -0.0091,-0.3015075 0.04449,-0.4894753 0.416527,-0.4795515 0.363254,0.00963 0.573127,0.09953 0.460726,0.4763409"
             id="Fill-60"
             fill="#223664" />
        </g>
      </g>
    </g>
  </g>
  <metadata
     id="metadata4989">
    <rdf:RDF>
      <cc:Work
         rdf:about="">
        <dc:title>Imported Layers</dc:title>
      </cc:Work>
    </rdf:RDF>
  </metadata>
</svg>
