<svg xmlns="http://www.w3.org/2000/svg" width="300" height="90" fill="#b1b1b1" fill-rule="evenodd" xmlns:v="https://vecta.io/nano"><path d="M135.498.66l2.075.243c3.052.372 5.846 1.476 8.447 3.072 1.051.644 2.031 1.404 3.038 2.118.172.122.32.28.6.528h-.75-59.494c-.814 0-.811-.001-.816-.811L88.56.66h46.938M82.36.66l-.045 5.091c-.006.87-.001.87-.865.87l-41.27.001-.884.024V.66H82.36M39.297 12.521l.827.037 41.39.002c.801 0 .801.001.801.818l.013 4.377c.015.557-.136.719-.706.717l-21.746-.013c-6.622 0-13.243-.001-19.865.002-.238 0-.476.029-.713.045V12.52m.331 76.821l.054-3.427-.002-2.05c-.008-.356.127-.518.487-.485.11.01.221.001.332.001h41.337c.811 0 .807.001.812.813l.044 5.148H39.629M196.828.66l2.158 5.961h-.683-35.53c-.759 0-.76-.001-.76-.76l-.003-4.6c0-.2-.034-.401-.053-.601h34.872m63.542 0l-.054 3.427.002 2.05c.008.355-.128.518-.487.485-.11-.01-.221-.001-.332-.001h-35.083-.733L225.832.66h34.539m.333 76.82l-.827-.037-29.327-.002c-.801 0-.801-.001-.801-.819l-.013-4.377c-.014-.556.135-.719.705-.718l29.494.011c.256 0 .513-.029.769-.044v5.986m-30.997 11.861l.041-5.202c.005-.757.002-.759.756-.759l29.372-.001.829-.024v5.986h-30.997m-67.309 0l-.008-5.261c-.007-.51.118-.711.674-.71l29.204.001c.507-.001.662.144.657.657l.027 5.313h-30.554m30.515-50.436l.012 2.462c.032.56-.139.719-.707.717l-17.103-.001c-.543.002-.741-.114-.726-.698l.005-4.655c-.007-.444.138-.569.571-.568h34.04c.376 0 .555.127.679.482l1.376 3.795.332.858.302-.601 1.461-4.058c.123-.352.307-.477.684-.476l33.875.001c.395 0 .558.102.552.529l-.001 4.877c.004.39-.132.509-.514.508a5722.94 5722.94 0 0 0-17.491 0c-.38.001-.529-.114-.516-.506l.005-2.161a.86.86 0 0 0-.168-.547l-.241.508-.854 2.279c-.108.314-.273.462-.604.422-.091-.011-.184-.002-.277-.002-10.886 0-21.771-.005-32.657.014-.545.001-.781-.175-.933-.673-.262-.856-.587-1.693-.886-2.538l-.213.031M156.944 71.54c-.401 1.9-.791 3.674-1.677 5.297-.234.428-.53.617-1.054.616H89.299c-.559 0-.729-.144-.714-.711l.013-4.488c.001-.712.001-.713.74-.713h67.606m0-53.081h-.694c-22.32 0-44.639-.002-66.959.012-.572 0-.717-.166-.704-.719.036-1.551.024-3.103.005-4.654-.005-.408.123-.59.537-.538.109.014.221.002.332.002l64.579-.016c.648-.001 1.023.197 1.308.757.812 1.593 1.212 3.305 1.595 5.156m-7.357 65.141l-3.933 2.638c-2.619 1.573-5.456 2.573-8.499 2.924-.749.086-1.511.074-2.266.074l-45.482.003c-.806 0-.807-.002-.807-.833l-.007-4.488c-.005-.41.13-.585.54-.541.146.015.295.002.442.002h59.204.708l.1.221m4.047-47.394c-.542 1.205-1.285 2.148-2.11 3.015l-2.601 2.482c-.234.208-.617.351-.932.351l-46.374.024c-.476 0-.645-.119-.636-.618l.002-4.71c-.008-.468.157-.592.606-.591l51.466.009c.16 0 .32.02.58.037m-.035 17.627h-.675-51.189c-.743 0-.744-.001-.744-.769l-.011-4.488c-.01-.508.14-.658.655-.656l19.59.011 26.673-.008a1.53 1.53 0 0 1 1.096.404c1.527 1.347 2.989 2.749 4.105 4.472.15.232.279.478.411.721.033.061.04.135.089.313M61.221 71.54l20.746-.01c.518-.001.707.119.693.671a102.09 102.09 0 0 0-.001 4.597c.011.517-.15.654-.656.653l-19.917-.01H40.455c-.77 0-.771-.001-.771-.744l-.01-4.542c-.009-.493.154-.624.634-.623l20.912.01M202.982 18.46h-.567-39.668c-.733 0-.735-.001-.735-.724V13.36c0-.796.001-.797.774-.797h36.735c.406 0 .814-.027 1.216.015.164.017.404.154.452.291l1.807 5.396c.01.032-.004.072-.013.196m16.443-.044l.995-2.95.783-2.362c.134-.498.42-.549.85-.549l29.058.006 8.579-.01c.481-.003.643.131.635.624l-.004 4.711c.004.419-.108.581-.562.581l-39.796-.011c-.144 0-.287-.021-.539-.041m-4.212 11.762l1.007-2.77.936-2.602c.127-.382.333-.498.728-.496l8.966.009 20.7-.012c.551-.001.735.127.72.704l-.004 4.655c.008.447-.144.568-.573.567l-31.935-.009c-.144 0-.287-.024-.545-.047m-7.905.049h-.708-31.434c-.762 0-.762-.001-.762-.749l-.009-4.599c-.007-.443.136-.567.571-.566l29.718.02c.194 0 .509.132.565.279l2.06 5.615M177.72 71.54l14.501-.013c.571-.003.72.162.706.718a90.76 90.76 0 0 0 0 4.489c.014.555-.134.721-.705.72l-26.456-.013c-.941 0-1.882-.016-2.823.007-.413.01-.551-.143-.547-.547l-.004-4.711c-.008-.503.144-.663.661-.661l14.667.011m18.882-23.577h29.708l-.949 2.697-.927 2.661c-.14.454-.41.519-.824.518l-22.63-.007c-.627 0-1.256.022-1.88-.016-.176-.01-.439-.158-.496-.307l-1.987-5.335c-.017-.047-.008-.104-.014-.212M147.6 65.681c-3.061 0-6.122-.01-9.182.01-.488.003-.682-.1-.67-.639l.004-4.708c-.006-.432.119-.578.562-.577h17.48c.407-.001.617.137.696.526l.984 4.805c.094.466-.125.595-.58.592l-9.293-.009m.009-41.362l9.293-.01c.47-.003.66.15.568.603l-.985 4.805c-.081.397-.305.516-.704.515a4523.49 4523.49 0 0 0-17.424 0c-.443.001-.616-.111-.608-.588v-4.708c-.009-.485.132-.632.623-.629l9.238.01m74.454 35.511l-1.13 3.122-.864 2.332a.75.75 0 0 1-.545.383l-16.211.002c-.182-.001-.47-.171-.53-.33l-1.923-5.299c-.017-.049-.007-.108-.012-.21h21.217m16.942 5.853c-2.878 0-5.755-.01-8.633.01-.47.003-.649-.107-.639-.613l.004-4.765c-.005-.41.128-.545.539-.544l17.432-.002c.457-.001.558.168.552.588l.001 4.765c.006.438-.128.573-.568.57l-8.688-.009m-55.355 0c-2.878 0-5.756-.01-8.633.01-.485.003-.637-.134-.628-.625l.003-4.71c-.005-.416.09-.591.55-.59l17.433.002c.408-.001.547.128.542.541l.002 4.821c.007.453-.156.561-.58.558l-8.689-.008m-73.455.001c-2.84 0-5.68-.011-8.52.01-.513.004-.713-.11-.701-.667l.006-4.708c-.004-.405.123-.548.537-.548l17.426-.001c.45-.001.565.166.561.585l.003 4.708c.008.483-.137.634-.627.631l-8.685-.01m-49.204 0c-2.878 0-5.755-.01-8.633.01-.483.004-.639-.13-.629-.623l.003-4.71c-.005-.413.085-.593.548-.592l17.432.002c.406-.001.549.124.544.539l.002 4.821c.007.45-.15.563-.578.56l-8.688-.008m178.009-17.749l8.632-.01c.481-.003.639.127.63.622l-.004 4.71c.006.414-.086.591-.549.59l-17.43-.002c-.405.001-.55-.12-.545-.537l-.002-4.82c-.007-.452.152-.562.578-.56l8.688.008m-55.348 5.901c-2.877 0-5.755-.01-8.633.01-.481.003-.639-.13-.63-.624l.003-4.71c-.005-.414.086-.589.549-.588l17.431.002c.407-.001.549.12.545.536l.002 4.821c.007.453-.158.562-.58.56l-8.688-.008m-122.715.001c-2.859 0-5.718-.01-8.577.01-.482.003-.638-.131-.629-.624l.003-4.71c-.005-.414.086-.589.55-.588l17.43.002c.408-.001.548.121.543.537l.002 4.82c.007.454-.159.562-.58.56l-8.743-.008"/><path d="M60.993 42.07c-2.877 0-5.755-.01-8.632.01-.485.003-.636-.134-.627-.625l.003-4.71c-.005-.418.093-.588.552-.587l17.431.002c.408-.001.546.127.541.54l.002 4.821c.007.456-.16.558-.582.556l-8.688-.008m49.249-17.75l8.63-.01c.475-.003.649.119.64.618l-.002 4.708c.007.463-.15.599-.605.598h-17.316c-.448.001-.614-.124-.607-.592l.001-4.764c-.006-.439.136-.57.573-.567l8.686.009"/><path d="M61.051 30.226c-2.878 0-5.756-.012-8.633.011-.53.004-.698-.144-.686-.683l.005-4.655c-.005-.412.082-.591.548-.59l17.433.002c.408-.001.548.122.543.537l.002 4.821c.007.452-.154.565-.578.563l-8.633-.007m156.791 41.367l-.439 1.297-1.405 4.072c-.118.354-.29.49-.672.488l-7.683-.023c-.198-.002-.509-.175-.574-.344l-1.927-5.175c-.03-.081-.04-.17-.072-.314h12.772m-8.449 11.83h4.337l-1.103 3.057-.893 2.434c-.039.104-.144.203-.244.252-.035.017-.187-.111-.217-.197l-1.911-5.462c-.005-.014.012-.034.03-.084"/></svg>