<?xml version="1.0" encoding="UTF-8" standalone="no"?>
<svg
   width="300"
   height="90"
   viewBox="0 0 300 90"
   version="1.1"
   id="svg4697"
   sodipodi:docname="IBM.svg"
   inkscape:version="1.1.1 (3bf5ae0d25, 2021-09-20)"
   xmlns:inkscape="http://www.inkscape.org/namespaces/inkscape"
   xmlns:sodipodi="http://sodipodi.sourceforge.net/DTD/sodipodi-0.dtd"
   xmlns="http://www.w3.org/2000/svg"
   xmlns:svg="http://www.w3.org/2000/svg"
   xmlns:rdf="http://www.w3.org/1999/02/22-rdf-syntax-ns#"
   xmlns:cc="http://creativecommons.org/ns#"
   xmlns:dc="http://purl.org/dc/elements/1.1/"
   xmlns:sketch="http://www.bohemiancoding.com/sketch/ns">
  <sodipodi:namedview
     id="namedview4699"
     pagecolor="#ffffff"
     bordercolor="#666666"
     borderopacity="1.0"
     inkscape:pageshadow="2"
     inkscape:pageopacity="0.0"
     inkscape:pagecheckerboard="0"
     showgrid="false"
     inkscape:zoom="2.1375814"
     inkscape:cx="132.86043"
     inkscape:cy="-40.934113"
     inkscape:window-width="1866"
     inkscape:window-height="1016"
     inkscape:window-x="54"
     inkscape:window-y="27"
     inkscape:window-maximized="1"
     inkscape:current-layer="svg4697" />
  <!-- Generator: Sketch 3.3.3 (12072) - http://www.bohemiancoding.com/sketch -->
  <title
     id="title4645">Imported Layers</title>
  <desc
     id="desc4647">Created with Sketch.</desc>
  <defs
     id="defs4649" />
  <g
     id="Page-1"
     stroke="none"
     stroke-width="1"
     fill="none"
     fill-rule="evenodd"
     sketch:type="MSPage"
     transform="matrix(1.9798867,0,0,1.9798867,39.041111,0.42867923)">
    <g
       id="Home---Desktop-Copy-2"
       sketch:type="MSArtboardGroup"
       transform="translate(-556,-1907)"
       fill="#b1b1b1">
      <g
         id="Group-+-Currently-in-use-at"
         sketch:type="MSLayerGroup"
         transform="translate(131,1814)">
        <g
           id="Group"
           sketch:type="MSShapeGroup">
          <g
             transform="translate(25)"
             id="Row-3-+-Row-1-+-Row-2">
            <g
               transform="translate(0,81)"
               id="g4690">
              <g
                 id="Row-1"
                 transform="translate(15)">
                <g
                   id="Imported-Layers"
                   transform="translate(385,12)">
                  <path
                     d="m 48.71832,0.11663551 c 0.3493,0.0407944 0.69874,0.0801869 1.0479,0.12280374 1.5414,0.18799066 2.95246,0.74537383 4.26664,1.55158875 0.5306,0.3255141 1.02578,0.7090655 1.53454,1.0696262 0.08708,0.061822 0.16156,0.1413084 0.30282,0.2667757 H 55.49124 25.4422 c -0.41132,0 -0.4095,-5.607e-4 -0.41202,-0.4096262 -0.0053,-0.867056 -0.01288,-1.73411211 -0.01932,-2.60116819 h 23.70746"
                     id="Fill-1" />
                  <path
                     d="m 21.87962,0.11663551 c -0.0077,0.85710281 -0.01666,1.71420559 -0.02268,2.57130839 -0.0029,0.4392056 -5.6e-4,0.439486 -0.43694,0.439486 -6.9482,0 -13.8964,-1.402e-4 -20.84446,5.608e-4 -0.14882,0 -0.29764,0.00785 -0.44646,0.012056 V 0.11663551 h 21.75054"
                     id="Fill-2" />
                  <path
                     d="m 0.12908,6.1073832 c 0.13916,0.00659 0.27832,0.018925 0.41748,0.018925 6.96836,9.813e-4 13.93686,8.411e-4 20.90536,8.411e-4 0.40446,0 0.40446,2.804e-4 0.4046,0.4132711 0,0.7369626 -0.01288,1.4743458 0.0064,2.2107476 0.0074,0.2813552 -0.0686,0.3630841 -0.35644,0.362243 -3.66114,-0.00981 -7.32242,-0.00645 -10.9837,-0.00645 -3.34446,0 -6.68892,-2.804e-4 -10.03338,9.813e-4 -0.12012,0 -0.24024,0.01486 -0.36036,0.02285 V 6.1073832"
                     id="Fill-3" />
                  <path
                     d="m 0.2968,44.907477 c 0.00938,-0.57687 0.02058,-1.153879 0.02716,-1.730748 0.00406,-0.34514 0.0063,-0.690421 -0.00112,-1.035421 -0.00392,-0.179579 0.06426,-0.261869 0.24598,-0.245046 0.05544,0.005 0.11172,4.2e-4 0.16758,4.2e-4 6.95954,0 13.91908,0 20.87848,1.4e-4 0.40964,0 0.40754,4.21e-4 0.41034,0.410468 0.006,0.866775 0.01456,1.733551 0.02212,2.600187 H 0.2968"
                     id="Fill-4" />
                  <path
                     d="m 79.69472,0.11663551 c 0.357,0.98635509 0.714,1.97271029 1.08976,3.01079439 h -0.3451 c -5.98192,0 -11.9637,0 -17.94562,-1.402e-4 -0.38332,0 -0.38388,-7.009e-4 -0.38402,-0.3839719 -2.8e-4,-0.7743926 9.8e-4,-1.5487851 -0.0013,-2.32317761 -2.4e-4,-0.10121496 -0.01732,-0.20228972 -0.0267,-0.30350468 h 17.61298"
                     id="Fill-5" />
                  <path
                     d="m 111.7893,0.11663551 c -0.009,0.57686916 -0.0206,1.15387849 -0.0272,1.73074769 -0.004,0.3451402 -0.006,0.6905607 10e-4,1.0355607 0.004,0.1794393 -0.0645,0.261729 -0.24612,0.2449066 -0.0554,-0.00505 -0.11172,-4.206e-4 -0.16772,-4.206e-4 H 93.62934 93.25932 c 0.371,-1.0296729 0.72786,-2.0202336 1.08486,-3.01079439 h 17.44512"
                     id="Fill-6" />
                  <path
                     d="m 111.95702,38.916729 c -0.13916,-0.0066 -0.27832,-0.01892 -0.41748,-0.01892 -4.93752,-9.82e-4 -9.87518,-8.41e-4 -14.8127,-8.41e-4 -0.4046,0 -0.40474,-2.81e-4 -0.40474,-0.413552 -1.4e-4,-0.736962 0.0126,-1.474205 -0.0064,-2.210607 -0.0073,-0.280935 0.06818,-0.363084 0.3563,-0.362524 4.96552,0.009 9.93104,0.0066 14.89656,0.0055 0.1295,0 0.259,-0.01458 0.3885,-0.02243 v 3.023411"
                     id="Fill-7" />
                  <path
                     d="m 96.3011,44.907477 c 0.007,-0.875888 0.0147,-1.751636 0.02058,-2.627524 0.0027,-0.382289 8.4e-4,-0.383131 0.38178,-0.383131 4.94494,-1.4e-4 9.89002,0 14.8351,-7.01e-4 0.13958,0 0.27902,-0.0078 0.41846,-0.01206 v 3.023412 H 96.3011"
                     id="Fill-8" />
                  <path
                     d="m 62.30546,44.907477 c 2.8e-4,-0.885841 0.0081,-1.771683 -0.0039,-2.657384 -0.0035,-0.257383 0.05978,-0.359158 0.3402,-0.358738 4.9168,0.0076 9.8336,0.0072 14.75026,5.61e-4 0.25592,-2.81e-4 0.33446,0.0729 0.3318,0.331962 -0.0088,0.894393 0.0073,1.789066 0.01386,2.683599 h -15.4322"
                     id="Fill-9" />
                  <path
                     d="m 77.71792,19.433131 c 0,0.414673 -0.01722,0.830327 0.006,1.243598 0.01596,0.283037 -0.07042,0.362944 -0.35728,0.361963 -2.87938,-0.0108 -5.7589,-0.01023 -8.63842,-7.01e-4 -0.27412,8.41e-4 -0.3745,-0.05748 -0.36666,-0.35243 0.02086,-0.783225 0.01456,-1.56757 0.0025,-2.351215 -0.0035,-0.224159 0.06972,-0.287243 0.28826,-0.287103 5.73104,0.0048 11.46208,0.0046 17.19312,2.8e-4 0.18998,-1.4e-4 0.28042,0.06393 0.34272,0.243505 0.2226,0.642196 0.4613,1.278645 0.69496,1.916776 0.0441,0.120841 0.09254,0.24014 0.16744,0.433458 0.07098,-0.139907 0.12124,-0.218412 0.15246,-0.303785 0.24906,-0.68215 0.49924,-1.363879 0.73794,-2.049673 0.06188,-0.177757 0.15484,-0.240841 0.34524,-0.240561 5.70318,0.0048 11.40622,0.0046 17.1094,7.01e-4 0.1995,-1.4e-4 0.28168,0.05131 0.27888,0.267196 -0.0105,0.821075 -0.009,1.64229 -7e-4,2.463365 0.002,0.197102 -0.0669,0.256962 -0.25984,0.256682 -2.94476,-0.0045 -5.88952,-0.0045 -8.83428,0 -0.19208,2.8e-4 -0.26712,-0.05748 -0.26082,-0.255561 0.01162,-0.363645 0.0043,-0.72785 0.0024,-1.091635 -5.6e-4,-0.08706 -0.01092,-0.173972 -0.08484,-0.276309 -0.04102,0.08537 -0.08792,0.168505 -0.1218,0.256682 -0.14714,0.382571 -0.29778,0.763879 -0.43148,1.151215 -0.05474,0.158832 -0.13804,0.233272 -0.30492,0.213365 -0.04592,-0.0056 -0.0931,-8.41e-4 -0.13972,-8.41e-4 -5.49808,0 -10.99616,-0.0024 -16.49424,0.0071 -0.2751,4.21e-4 -0.39424,-0.08832 -0.47124,-0.339813 -0.13258,-0.432476 -0.29666,-0.85514 -0.44758,-1.282009 -0.03584,0.0053 -0.07168,0.01051 -0.10752,0.0157"
                     id="Fill-10" />
                  <path
                     d="m 59.5504,35.916729 c -0.2023,0.95972 -0.3997,1.855654 -0.847,2.675187 -0.11816,0.216168 -0.26768,0.311635 -0.53228,0.311355 -10.92896,-0.0074 -21.85778,-0.0074 -32.78674,-2.8e-4 -0.28252,1.4e-4 -0.36806,-0.07276 -0.3605,-0.359019 0.01974,-0.755187 0.0064,-1.511215 0.0067,-2.266963 2.8e-4,-0.35986 7e-4,-0.36028 0.37352,-0.36028 h 21.41062 12.35444 0.38122"
                     id="Fill-11" />
                  <path
                     d="m 59.54998,9.1069626 h -0.35056 c -11.27322,0 -22.5463,-0.00112 -33.81952,0.00631 -0.2891,1.402e-4 -0.36218,-0.083692 -0.35574,-0.3632243 0.0182,-0.7832243 0.0119,-1.5671495 0.0027,-2.3506542 -0.0024,-0.2059346 0.06188,-0.2980374 0.27146,-0.2719626 0.05502,0.00687 0.11172,9.813e-4 0.16758,9.813e-4 10.87254,0 21.74522,0.00168 32.61776,-0.00799 0.32704,-2.804e-4 0.5166,0.099673 0.6608,0.3824299 0.41034,0.8045327 0.61208,1.6693458 0.80556,2.6041121"
                     id="Fill-12" />
                  <path
                     d="m 55.83396,42.008131 c -0.66094,0.446355 -1.30396,0.92271 -1.9866,1.332617 -1.32272,0.794439 -2.75548,1.299813 -4.29254,1.477009 -0.37814,0.0436 -0.763,0.03729 -1.14464,0.03743 -7.65744,0.002 -15.31474,0.0015 -22.97204,0.0014 -0.40726,0 -0.40754,-9.82e-4 -0.40754,-0.420981 -1.4e-4,-0.755608 0.0057,-1.511215 -0.0036,-2.266683 -0.0027,-0.206916 0.06552,-0.295374 0.27286,-0.273224 0.07364,0.0078 0.14896,9.81e-4 0.22344,9.81e-4 h 29.9027 0.35742 c 0.0168,0.03715 0.03374,0.0743 0.05054,0.111449"
                     id="Fill-13" />
                  <path
                     d="m 57.8781,18.070654 c -0.27398,0.608832 -0.64904,1.084907 -1.06554,1.522851 -0.41692,0.438364 -0.86128,0.852056 -1.31376,1.253831 -0.11844,0.105141 -0.31164,0.177197 -0.47068,0.177337 -7.80752,0.0084 -15.61504,0.0064 -23.4227,0.01206 -0.24052,1.4e-4 -0.32592,-0.06014 -0.3213,-0.312056 0.01456,-0.792617 0.01302,-1.585935 8.4e-4,-2.378832 -0.0038,-0.236495 0.0791,-0.298878 0.30618,-0.298738 8.66474,0.0046 17.32948,0.0039 25.99422,0.0046 0.08078,0 0.1617,0.01009 0.29274,0.01892"
                     id="Fill-14" />
                  <path
                     d="M 57.86088,26.973224 H 57.5197 c -8.61812,0 -17.23624,0 -25.85436,-1.4e-4 -0.3752,0 -0.37562,-7.01e-4 -0.37576,-0.388318 -2.8e-4,-0.755747 0.0095,-1.511635 -0.0055,-2.266962 -0.005,-0.256823 0.07084,-0.332103 0.33096,-0.331402 3.29812,0.0086 6.59624,0.0056 9.8945,0.0056 4.49064,0 8.98142,0.0014 13.4722,-0.0041 0.22008,-2.8e-4 0.38934,0.0593 0.55342,0.203972 0.77112,0.680187 1.5099,1.388691 2.07326,2.258832 0.07588,0.117056 0.14084,0.241401 0.20734,0.364205 0.01666,0.0307 0.0203,0.06841 0.04508,0.158271"
                     id="Fill-15" />
                  <path
                     d="m 11.20238,35.916729 c 3.49286,0 6.98572,0.0027 10.47858,-0.0053 0.26166,-5.61e-4 0.35686,0.06028 0.35014,0.338972 -0.01834,0.773691 -0.01694,1.548224 -4.2e-4,2.322056 0.0056,0.261308 -0.0756,0.33028 -0.33138,0.329719 -3.35314,-0.0079 -6.70628,-0.0052 -10.05942,-0.0052 H 0.71428 c -0.38878,0 -0.38934,-4.21e-4 -0.38948,-0.375982 -2.8e-4,-0.76486 0.00882,-1.529719 -0.00518,-2.294299 -0.00462,-0.248972 0.07756,-0.31528 0.32032,-0.314719 3.52086,0.007 7.04158,0.0048 10.56244,0.0048"
                     id="Fill-16" />
                  <path
                     d="m 82.803,9.1069626 h -0.28658 c -6.67842,0 -13.35698,0 -20.0354,-1.402e-4 -0.37044,0 -0.371,-2.803e-4 -0.37128,-0.3656074 -4.2e-4,-0.7368225 -1.4e-4,-1.4736449 0,-2.2104673 0,-0.4020561 2.8e-4,-0.4023365 0.39074,-0.4023365 h 18.55434 c 0.20496,0 0.41132,-0.013879 0.61404,0.00743 0.0826,0.00869 0.20412,0.077664 0.22806,0.1469159 0.3129,0.9054673 0.61138,1.8159813 0.91266,2.7253738 0.0052,0.015981 -0.002,0.036168 -0.0066,0.098832"
                     id="Fill-17" />
                  <path
                     d="m 91.1085,9.0853738 c 0.1771,-0.5252803 0.33978,-1.0076635 0.50246,-1.4899065 0.13398,-0.3970094 0.28714,-0.788972 0.3955,-1.1929907 0.06762,-0.2517757 0.21224,-0.2774299 0.42952,-0.2772897 4.89216,0.00421 9.78446,0.00322 14.67676,0.00322 1.44438,0 2.88876,0.00505 4.33314,-0.00505 0.2429,-0.00168 0.32494,0.066028 0.3206,0.3152804 -0.0139,0.7928972 -0.0102,1.5862149 -0.002,2.3792523 0.002,0.2116822 -0.0546,0.2936916 -0.28392,0.2935514 -6.69998,-0.00561 -13.4001,-0.00449 -20.10022,-0.00533 -0.07252,0 -0.14504,-0.010654 -0.27216,-0.020748"
                     id="Fill-18" />
                  <path
                     d="m 88.98064,15.025374 c 0.1799,-0.49472 0.3444,-0.946823 0.50876,-1.398925 0.1589,-0.437524 0.32592,-0.872384 0.47292,-1.313972 0.06412,-0.192757 0.16828,-0.251496 0.36792,-0.250374 1.50948,0.008 3.0191,0.0043 4.52858,0.0043 3.48502,0 6.9699,0.0032 10.45492,-0.006 0.27832,-7.01e-4 0.37114,0.06434 0.36358,0.355373 -0.0203,0.783225 -0.0146,1.56743 -0.002,2.351075 0.004,0.225561 -0.0728,0.286682 -0.28938,0.286402 -5.37656,-0.0045 -10.75312,-0.0035 -16.12968,-0.0043 -0.07252,0 -0.14504,-0.01206 -0.27538,-0.02355"
                     id="Fill-19" />
                  <path
                     d="m 84.98826,15.049766 c -0.1568,0 -0.25732,1.41e-4 -0.35784,1.41e-4 -5.29228,0 -10.58442,0 -15.8767,-1.41e-4 -0.38472,0 -0.38486,-5.6e-4 -0.385,-0.378224 -1.4e-4,-0.774393 0.0074,-1.548925 -0.0046,-2.323037 -0.0034,-0.223739 0.06888,-0.286402 0.28854,-0.286122 5.00332,0.0053 10.00678,0.0032 15.0101,0.01009 0.09814,1.4e-4 0.2569,0.06673 0.28518,0.141168 0.35042,0.920748 0.6818,1.848645 1.04034,2.836121"
                     id="Fill-20" />
                  <path
                     d="m 70.04368,35.916729 c 2.44132,0 4.88278,0.005 7.3241,-0.0066 0.28826,-0.0014 0.36358,0.08201 0.35658,0.362664 -0.01876,0.755327 -0.01862,1.511775 0,2.267102 0.0069,0.280094 -0.06776,0.364066 -0.3563,0.363505 -4.45424,-0.0093 -8.90834,-0.0064 -13.36244,-0.0064 -0.4753,0 -0.9506,-0.008 -1.42562,0.0035 -0.20846,0.005 -0.27818,-0.0722 -0.27636,-0.276308 0.0071,-0.793037 0.01078,-1.586355 -0.002,-2.379253 -0.0041,-0.254158 0.07252,-0.334766 0.3339,-0.333785 2.46932,0.0095 4.93864,0.0056 7.4081,0.0056"
                     id="Fill-21" />
                  <path
                     d="m 79.5809,24.008551 h 15.00506 c -0.16632,0.472711 -0.3227,0.917524 -0.47936,1.362337 -0.15764,0.447477 -0.32802,0.891168 -0.46844,1.344112 -0.07084,0.229065 -0.20692,0.262009 -0.41594,0.261729 -3.8101,-0.0049 -7.62006,-0.0035 -11.43002,-0.0035 -0.31682,0 -0.6342,0.01093 -0.94976,-0.008 -0.08876,-0.0052 -0.22162,-0.07977 -0.2506,-0.154907 -0.34398,-0.894533 -0.67242,-1.795093 -1.00366,-2.694533 -0.0088,-0.02383 -0.0041,-0.05271 -0.0073,-0.107243"
                     id="Fill-22" />
                  <path
                     d="m 54.83072,32.957383 c -1.54588,0 -3.0919,-0.0048 -4.63778,0.0049 -0.24668,0.0015 -0.34468,-0.05061 -0.33852,-0.32257 0.0182,-0.792197 0.0133,-1.585234 0.0021,-2.377711 -0.0031,-0.218271 0.06034,-0.292149 0.28406,-0.291588 2.9428,0.006 5.8856,0.0059 8.82854,-1.41e-4 0.20538,-2.8e-4 0.3115,0.06897 0.3514,0.265514 0.16436,0.809299 0.33334,1.617477 0.49686,2.426916 0.04746,0.235514 -0.063,0.300421 -0.29302,0.299159 -1.5645,-0.0086 -3.129,-0.0045 -4.69364,-0.0045"
                     id="Fill-23" />
                  <path
                     d="m 54.83604,12.066449 c 1.5645,0 3.12914,0.0045 4.69364,-0.0048 0.23744,-0.0014 0.33334,0.07584 0.287,0.304626 -0.1638,0.80944 -0.33334,1.617757 -0.49742,2.427056 -0.04074,0.200748 -0.15414,0.260608 -0.3556,0.260187 -2.93356,-0.0056 -5.86712,-0.0057 -8.80068,0 -0.22386,5.61e-4 -0.31136,-0.05607 -0.30716,-0.297056 0.01358,-0.792336 0.01386,-1.585233 -1.4e-4,-2.37771 -0.0043,-0.244906 0.06692,-0.319206 0.31458,-0.317523 1.55512,0.01037 3.11052,0.0052 4.66578,0.0052"
                     id="Fill-24" />
                  <path
                     d="m 92.44158,30.000981 c -0.19936,0.551075 -0.385,1.064019 -0.57064,1.576823 -0.14266,0.393785 -0.27412,0.792196 -0.43652,1.17771 -0.03794,0.09 -0.1806,0.193037 -0.27538,0.193458 -2.7293,0.01037 -5.4586,0.01 -8.18804,0.0011 -0.09212,-2.8e-4 -0.23744,-0.08636 -0.26768,-0.166542 -0.33446,-0.888084 -0.65114,-1.782897 -0.97146,-2.676308 -0.0088,-0.02481 -0.0036,-0.05467 -0.0063,-0.106262 h 10.71602"
                     id="Fill-25" />
                  <path
                     d="m 100.99978,32.957383 c -1.45348,0 -2.90696,-0.0049 -4.36044,0.0048 -0.23758,0.0017 -0.32774,-0.05425 -0.32284,-0.309533 0.01526,-0.80201 0.0112,-1.60472 0.0018,-2.406869 -0.0024,-0.207056 0.06468,-0.275047 0.2723,-0.274767 2.93482,0.005 5.86978,0.0057 8.8046,-9.81e-4 0.23072,-4.21e-4 0.28168,0.08509 0.27902,0.296776 -0.01,0.802149 -0.0108,1.604719 5.6e-4,2.406869 0.003,0.221355 -0.0645,0.289486 -0.28672,0.288084 -1.46272,-0.0086 -2.92558,-0.0043 -4.3883,-0.0043"
                     id="Fill-26" />
                  <path
                     d="m 73.04094,32.957383 c -1.45348,0 -2.9071,-0.0053 -4.36058,0.0052 -0.24472,0.0017 -0.32158,-0.06771 -0.31696,-0.315561 0.01442,-0.792757 0.01106,-1.586074 0.0014,-2.378972 -0.0025,-0.21 0.0455,-0.298598 0.2779,-0.298037 2.93496,0.0067 5.87006,0.006 8.80502,0.0011 0.20594,-4.2e-4 0.27636,0.06477 0.27384,0.273225 -0.0092,0.811682 -0.01106,1.623504 9.8e-4,2.435046 0.0034,0.228645 -0.07854,0.283178 -0.29302,0.282057 -1.46286,-0.0079 -2.92572,-0.0041 -4.38858,-0.0041"
                     id="Fill-27" />
                  <path
                     d="m 35.9401,32.957383 c -1.43444,0 -2.86874,-0.0057 -4.30304,0.0053 -0.25886,0.002 -0.36022,-0.05565 -0.35392,-0.337009 0.0182,-0.792337 0.01162,-1.585374 0.0029,-2.377991 -0.0022,-0.204392 0.06188,-0.277009 0.27132,-0.276729 2.93384,0.0052 5.86782,0.0056 8.80166,-7.01e-4 0.22736,-4.2e-4 0.2856,0.08369 0.28322,0.295514 -0.0088,0.792617 -0.01176,1.585514 0.0014,2.378131 0.0041,0.243925 -0.06916,0.320468 -0.31682,0.318645 -1.46216,-0.01051 -2.92446,-0.0052 -4.38676,-0.0052"
                     id="Fill-28" />
                  <path
                     d="m 11.08856,32.957383 c -1.45348,0 -2.90696,-0.0052 -4.3603,0.005 C 6.48452,32.964252 6.4057,32.896822 6.41032,32.64785 6.42502,31.855093 6.42138,31.061916 6.412,30.269019 6.40962,30.060561 6.45484,29.969439 6.68864,29.97 c 2.93482,0.0069 5.86978,0.006 8.8046,0.0011 0.20496,-4.2e-4 0.27706,0.06266 0.27454,0.272384 -0.0095,0.811542 -0.0112,1.623364 8.4e-4,2.434906 0.0034,0.227383 -0.07574,0.284299 -0.29176,0.283038 -1.46272,-0.0079 -2.92558,-0.0041 -4.3883,-0.0041"
                     id="Fill-29" />
                  <path
                     d="m 100.99754,23.992009 c 1.45334,0 2.90668,0.0052 4.35988,-0.005 0.24304,-0.0017 0.32298,0.06434 0.31836,0.314018 -0.0147,0.792617 -0.0111,1.585795 -0.002,2.378692 0.003,0.208878 -0.0434,0.298458 -0.27706,0.297897 -2.93454,-0.0069 -5.86922,-0.0062 -8.80376,-0.0011 -0.20454,4.2e-4 -0.27762,-0.0607 -0.2751,-0.271262 0.0098,-0.811402 0.01134,-1.623224 -8.4e-4,-2.434626 -0.0034,-0.228084 0.077,-0.283739 0.29218,-0.282617 1.46272,0.0079 2.9253,0.0041 4.38802,0.0041"
                     id="Fill-30" />
                  <path
                     d="m 73.04164,26.973084 c -1.45334,0 -2.90682,-0.005 -4.36016,0.005 -0.24304,0.0017 -0.32284,-0.06547 -0.31822,-0.31514 0.0147,-0.792617 0.01106,-1.585795 0.0017,-2.378692 -0.0025,-0.209159 0.0434,-0.297617 0.27748,-0.297056 2.93468,0.0073 5.8695,0.0066 8.80418,0.0011 0.20566,-2.8e-4 0.27748,0.0607 0.2751,0.270701 -0.0095,0.811543 -0.01134,1.623365 9.8e-4,2.434767 0.0035,0.228925 -0.0798,0.284018 -0.29288,0.283037 -1.46272,-0.0071 -2.92544,-0.0038 -4.38816,-0.0038"
                     id="Fill-31" />
                  <path
                     d="m 11.06014,26.973084 c -1.44396,0 -2.88806,-0.005 -4.33202,0.005 -0.2436,0.0017 -0.32242,-0.06631 -0.3178,-0.315421 0.0147,-0.792617 0.01106,-1.585794 0.00168,-2.378691 -0.00252,-0.209299 0.04368,-0.297337 0.27762,-0.296776 2.93454,0.0073 5.86922,0.0066 8.80376,0.0011 0.20594,-2.8e-4 0.27692,0.06126 0.2744,0.270982 -0.0095,0.811542 -0.01148,1.623364 9.8e-4,2.434626 0.0036,0.229486 -0.08008,0.283878 -0.29274,0.282897 -1.47196,-0.0071 -2.94392,-0.0038 -4.41588,-0.0038"
                     id="Fill-32" />
                  <path
                     d="m 11.08716,21.032103 c -1.45334,0 -2.90668,-0.0053 -4.36002,0.0052 -0.24486,0.0017 -0.3213,-0.06785 -0.31682,-0.315561 0.01456,-0.792757 0.01134,-1.585935 0.00154,-2.378692 -0.00266,-0.210981 0.04704,-0.297056 0.2786,-0.296495 2.93468,0.0069 5.86922,0.0062 8.8039,0.0011 0.20622,-4.21e-4 0.27594,0.06406 0.27342,0.272663 -0.0095,0.811542 -0.01148,1.623365 9.8e-4,2.434766 0.0035,0.230187 -0.08064,0.282057 -0.29372,0.280935 -1.46258,-0.0076 -2.9253,-0.0039 -4.38788,-0.0039"
                     id="Fill-33" />
                  <path
                     d="m 35.9618,12.066449 c 1.45292,0 2.90598,0.0049 4.35904,-0.0049 0.23968,-0.0015 0.3276,0.06014 0.32312,0.312337 -0.01414,0.792476 -0.01232,1.585514 -8.4e-4,2.37813 0.0034,0.233692 -0.07588,0.302384 -0.30562,0.301963 -2.91536,-0.0063 -5.83072,-0.0062 -8.74608,-2.8e-4 -0.22652,5.6e-4 -0.3101,-0.06238 -0.30646,-0.299159 0.01218,-0.801869 0.01106,-1.604159 4.2e-4,-2.406168 -0.0029,-0.221636 0.06888,-0.287664 0.28938,-0.286262 1.4623,0.0086 2.9246,0.0043 4.38704,0.0043"
                     id="Fill-34" />
                  <path
                     d="m 11.11642,15.049766 c -1.45348,0 -2.9071,-0.0062 -4.36044,0.0057 -0.26782,0.0021 -0.35238,-0.07248 -0.34636,-0.34514 0.01736,-0.783224 0.01162,-1.56729 0.00238,-2.350935 -0.00238,-0.208037 0.04144,-0.298317 0.27664,-0.297757 2.93496,0.0073 5.86992,0.0064 8.80488,0.0011 0.20622,-4.21e-4 0.27678,0.06168 0.27426,0.271261 -0.0095,0.811543 -0.01134,1.623365 9.8e-4,2.434907 0.0035,0.228084 -0.07798,0.285421 -0.2919,0.284439 -1.45348,-0.007 -2.90696,-0.0036 -4.36044,-0.0036"
                     id="Fill-35" />
                  <path
                     d="m 90.30896,35.942944 c -0.08106,0.239439 -0.15008,0.447757 -0.2219,0.654953 -0.23716,0.685374 -0.48062,1.368505 -0.70952,2.056682 -0.0595,0.178739 -0.14672,0.24743 -0.33922,0.246309 -1.2936,-0.0077 -2.5872,-1.4e-4 -3.88066,-0.01178 -0.1001,-8.41e-4 -0.2569,-0.0886 -0.28994,-0.173832 -0.33628,-0.866775 -0.65254,-1.741261 -0.97328,-2.613925 -0.01512,-0.04093 -0.02016,-0.08565 -0.0364,-0.158411 h 6.45092"
                     id="Fill-36" />
                  <path
                     d="m 86.04162,41.918411 h 2.19072 c -0.19362,0.536916 -0.37478,1.040608 -0.55692,1.544019 -0.14868,0.410467 -0.29624,0.821355 -0.4508,1.229439 -0.01988,0.05243 -0.07294,0.102477 -0.12348,0.12715 -0.0175,0.0086 -0.0945,-0.05607 -0.10976,-0.09939 -0.32494,-0.918505 -0.64498,-1.838691 -0.96516,-2.758738 -0.0024,-0.0069 0.0059,-0.01724 0.0154,-0.04248"
                     id="Fill-37" />
                </g>
              </g>
            </g>
          </g>
        </g>
      </g>
    </g>
  </g>
  <metadata
     id="metadata4781">
    <rdf:RDF>
      <cc:Work
         rdf:about="">
        <dc:title>Imported Layers</dc:title>
      </cc:Work>
    </rdf:RDF>
  </metadata>
</svg>
