<svg xmlns="http://www.w3.org/2000/svg" width="300" height="90" fill="#b1b1b1" fill-rule="evenodd" xmlns:v="https://vecta.io/nano"><path d="M219.497 24.904l-.507-.017c-.015-.002-.032-.012-.045-.012l-1.872-.06-7.383-.697v-6.623h-2.549c-.197-.135-15.043-9.858-34.816-14.632-2.529-.632-5.121-1.176-7.749-1.591-.05-.008-.103 0-.151.017-2.864-.446-5.792-.762-8.768-.915-.18-.008-.336.131-.348.314a.33.33 0 0 0 .313.348c5.699.289 11.236 1.191 16.433 2.439 16.275 4.039 30.024 11.839 33.674 14.019H189.1v-6.716h-20.672V4.2H136.75c-.344 0-.589.161-.589.456 0 .447.469.519.602.534.09.008 9.035.976 20.951 5.911 15.155 6.274 32.185 12.567 58.954 14.596.005 0 .08.002.201.007l.331.027c.02 0 2.262.073 2.262.073a.45.45 0 0 0 .467-.434.45.45 0 0 0-.434-.464zm-10.627-.883c-10.94-1.282-20.156-3.306-28.316-5.703h28.316zm-20.59-6.525h-10.437c-5.871-1.834-11.209-3.851-16.282-5.899h26.721l-.002 5.899zM167.608 5.021v5.756h-8.065l-1.464-.604c-6.721-2.783-12.515-4.326-16.376-5.153zm-35.21 67.576h6.277c2.504 0 4.054 1.362 4.054 3.49 0 1.606-.709 2.931-2.316 3.38v.037c1.55.299 1.87 1.438 2 2.747.111 1.305.037 2.762.787 3.678h-1.98c-.507-.542-.226-1.98-.486-3.286-.188-1.31-.506-2.409-2.224-2.409h-4.335v5.695H132.4V72.597zm5.475 6.144c1.664 0 3.084-.431 3.084-2.373 0-1.307-.712-2.281-2.376-2.281h-4.41v4.654zm15.295 4.125c-.429 2.128-1.963 3.289-4.127 3.289-3.088 0-4.542-2.128-4.638-5.08 0-2.895 1.908-5.025 4.542-5.025 3.419 0 4.467 3.194 4.372 5.527h-7.23c-.057 1.683.897 3.176 3.009 3.176 1.308 0 2.224-.635 2.504-1.887zm-1.532-2.689c-.073-1.511-1.213-2.725-2.785-2.725-1.664 0-2.653 1.25-2.763 2.725zm4.45 2.709c.057 1.42 1.288 1.867 2.599 1.867.99 0 2.334-.226 2.334-1.438 0-1.232-1.569-1.435-3.157-1.792-1.569-.356-3.157-.876-3.157-2.725 0-1.944 1.925-2.747 3.605-2.747 2.133 0 3.833.673 3.964 3.026h-1.587c-.115-1.232-1.199-1.624-2.246-1.624-.95 0-2.053.261-2.053 1.23 0 1.139 1.68 1.327 3.156 1.679 1.587.357 3.159.88 3.159 2.747 0 2.298-2.149 3.044-4.111 3.044-2.171 0-3.999-.878-4.094-3.269h1.589m16.657-.018c-.431 2.128-1.963 3.289-4.131 3.289-3.084 0-4.54-2.128-4.636-5.08 0-2.895 1.908-5.025 4.542-5.025 3.42 0 4.467 3.194 4.372 5.527h-7.228c-.057 1.683.895 3.176 3.006 3.176 1.308 0 2.224-.635 2.505-1.887zm-1.534-2.689c-.077-1.511-1.213-2.725-2.785-2.725-1.664 0-2.652 1.25-2.763 2.725zm11.991 5.715c-.279.17-.635.261-1.141.261-.82 0-1.346-.451-1.346-1.495-.877 1.028-2.055 1.495-3.399 1.495-1.758 0-3.196-.785-3.196-2.709 0-2.185 1.624-2.652 3.269-2.97 1.757-.334 3.251-.223 3.251-1.418 0-1.385-1.14-1.606-2.148-1.606-1.347 0-2.334.411-2.409 1.831h-1.589c.093-2.391 1.941-3.232 4.089-3.232 1.738 0 3.628.391 3.628 2.654v4.967c0 .748 0 1.082.506 1.082.13 0 .279-.018.484-.095v1.235zm-2.58-4.948c-.616.449-1.81.466-2.876.655-1.045.185-1.943.56-1.943 1.738 0 1.046.898 1.418 1.868 1.418 2.094 0 2.951-1.307 2.951-2.183zm4.107-4.671h1.494v2.037h.038c.767-1.55 1.828-2.316 3.548-2.26v1.683c-2.557 0-3.494 1.457-3.494 3.904v4.295h-1.589v-9.659m12.821 3.103c-.243-1.212-1.081-1.922-2.391-1.922-2.299 0-3.009 1.809-3.009 3.773 0 1.772.802 3.528 2.82 3.528 1.532 0 2.449-.898 2.653-2.351h1.629c-.356 2.351-1.833 3.753-4.262 3.753-2.948 0-4.52-2.053-4.52-4.93 0-2.895 1.494-5.174 4.56-5.174 2.184 0 3.941 1.028 4.164 3.325h-1.644m3.514-6.781h1.589v5.095h.035c.526-1.156 1.892-1.643 3.048-1.643 2.54 0 3.324 1.457 3.324 3.53v6.35h-1.585v-6.538c0-1.176-.747-1.94-1.963-1.94-1.925 0-2.86 1.287-2.86 3.023v5.454h-1.589v-13.33m25.217 4.014c-.373-1.891-1.888-2.843-3.736-2.843-3.176 0-4.523 2.617-4.523 5.397 0 3.046 1.348 5.585 4.543 5.585 2.337 0 3.682-1.643 3.848-3.844h1.775c-.336 3.324-2.412 5.339-5.774 5.339-4.149 0-6.165-3.061-6.165-6.945 0-3.866 2.203-7.023 6.315-7.023 2.783 0 5.082 1.49 5.493 4.333h-1.775m12.295 9.281c-.279.17-.634.261-1.138.261-.823 0-1.351-.451-1.351-1.495-.875 1.028-2.053 1.495-3.397 1.495-1.76 0-3.199-.785-3.199-2.709 0-2.185 1.629-2.652 3.274-2.97 1.757-.334 3.247-.223 3.247-1.418 0-1.385-1.138-1.606-2.146-1.606-1.348 0-2.336.411-2.411 1.831h-1.587c.093-2.391 1.943-3.232 4.091-3.232 1.738 0 3.627.391 3.627 2.654v4.967c0 .748 0 1.082.504 1.082a1.32 1.32 0 0 0 .486-.095v1.235zm-2.577-4.948c-.619.449-1.815.466-2.878.655-1.046.185-1.941.56-1.941 1.738 0 1.046.895 1.418 1.867 1.418 2.093 0 2.953-1.307 2.953-2.183zm4.139-4.671h1.492v1.42h.038c.707-1.079 1.793-1.643 3.119-1.643 1.176 0 2.261.467 2.653 1.643.657-1.026 1.795-1.643 3.028-1.643 1.921 0 3.212.803 3.212 2.802v7.08h-1.589V79.6c0-1.196-.314-2.147-1.867-2.147-1.532 0-2.525.971-2.525 2.464v6.012h-1.585v-6.332c0-1.25-.393-2.147-1.815-2.147-1.888 0-2.577 1.736-2.577 2.464v6.012h-1.587V76.27m15.988.003h1.587v1.309h.037c.522-1.066 1.757-1.533 3.084-1.533 2.968 0 4.445 2.354 4.445 5.081s-1.459 5.023-4.409 5.023c-.991 0-2.411-.376-3.121-1.513h-.037v4.985h-1.587zm4.482 1.179c-2.128 0-2.95 1.831-2.95 3.64 0 1.906.862 3.66 3.048 3.66 2.166 0 2.891-1.849 2.891-3.736-.002-1.807-.932-3.563-2.989-3.563zm14.56 8.478h-1.492v-1.533h-.037c-.674 1.196-1.76 1.758-3.141 1.758-2.54 0-3.324-1.457-3.324-3.528v-6.352h1.587v6.538c0 1.179.745 1.942 1.961 1.942 1.925 0 2.86-1.287 2.86-3.025v-5.454h1.587v9.654m3.434-3.044c.055 1.42 1.286 1.867 2.597 1.867.992 0 2.334-.226 2.334-1.438 0-1.232-1.569-1.435-3.157-1.792-1.567-.356-3.156-.876-3.156-2.725 0-1.944 1.923-2.747 3.608-2.747 2.128 0 3.828.673 3.961 3.026h-1.589c-.111-1.232-1.196-1.624-2.241-1.624-.953 0-2.056.261-2.056 1.23 0 1.139 1.68 1.327 3.156 1.679 1.587.357 3.156.88 3.156 2.747 0 2.298-2.149 3.044-4.107 3.044-2.171 0-4.001-.878-4.094-3.269h1.589m-133.5-49.591a4.73 4.73 0 0 0 .193-1.319 4.63 4.63 0 0 0-9.264 0 4.54 4.54 0 0 0 .195 1.319h8.877m110.198 0a4.52 4.52 0 0 0 .195-1.319 4.63 4.63 0 0 0-9.26 0 4.59 4.59 0 0 0 .19 1.319h8.875M145.09 36.149v20.034c0 5.495-.549 9.637-8.752 9.637-1.228 0-2.454-.042-4.018-.126v-6.255c3.467 0 3.976-.213 3.976-3.256V36.149h8.794m19.456 22.15l-.424-2.368c-2.499 2.325-5.034 3.001-8.333 3.001-4.186 0-7.907-2.073-7.907-6.679 0-10.058 15.772-5.494 15.772-9.637 0-1.606-1.946-1.817-2.876-1.817-1.226 0-2.876.253-3.088 2.155h-8.456c0-4.691 3.34-7.439 12.096-7.439 10.489 0 11.121 3.887 11.121 9.173v10.357c0 1.267.042 1.901 1.184 2.83v.424h-9.09zm-.89-9.809c-2.876 1.397-6.681.718-6.681 3.595 0 1.099 1.058 1.856 2.792 1.856 3.086.002 4.101-2.406 3.889-5.45zm12.986-12.341h8.033v3.465c1.99-2.662 4.142-4.099 7.486-4.099 5.834 0 8.582 3.424 8.582 9.511v13.272h-8.795V46.591c0-2.198-.591-4.144-3.086-4.144-2.705 0-3.427 1.734-3.427 4.566v11.285h-8.794V36.149m35.861 13.06c0 2.622 2.03 4.355 4.355 4.355 1.396 0 2.667-.634 3.299-1.945h8.413c-1.519 5.495-7.104 7.313-12.261 7.313-7.105 0-12.602-4.057-12.602-11.496 0-7.273 5.453-11.92 12.56-11.92 8.205 0 13.152 5.665 13.024 13.693h-16.789zm7.992-4.478c0-2.03-1.818-3.846-3.889-3.846-2.622 0-4.102 1.48-4.102 3.846zm12.309-16.865h8.797v30.432h-8.797zm13.659 8.283h8.795v22.149h-8.795zm28.759 22.15l-.424-2.368c-2.494 2.325-5.032 3.001-8.331 3.001-4.186 0-7.907-2.073-7.907-6.679 0-10.058 15.772-5.494 15.772-9.637 0-1.606-1.946-1.817-2.875-1.817-1.228 0-2.876.253-3.089 2.155h-8.454c0-4.691 3.339-7.439 12.091-7.439 10.491 0 11.124 3.887 11.124 9.173v10.357c0 1.267.043 1.901 1.183 2.83v.424zm-.89-9.809c-2.875 1.397-6.683.718-6.683 3.595 0 1.099 1.06 1.856 2.793 1.856 3.086.002 4.102-2.406 3.889-5.45zM14.791 27.643h8.549v10.831h.085c1.467-1.728 3.369-2.978 6.997-2.978 4.014 0 7.682 2.459 7.682 7.595v15.362h-8.549V46.714c0-2.589-.301-4.401-2.801-4.401-1.471 0-3.414.733-3.414 4.316v11.824h-8.549v-30.81m27.053 0h8.553v10.831h.085c1.467-1.728 3.367-2.978 6.994-2.978 4.014 0 7.686 2.459 7.686 7.595v15.362h-8.549V46.714c0-2.589-.304-4.401-2.806-4.401-1.467 0-3.409.733-3.409 4.316v11.824h-8.553v-30.81m27.034 8.413h8.245v2.978h.087c1.727-2.591 4.232-3.538 7.34-3.538 2.421 0 5.009 1.25 6.045 3.497.346-.259 2.071-3.497 7.641-3.497 5.741 0 7.687 3.969 7.687 7.595v15.362h-8.549V46.325c0-2.113-.216-4.012-2.806-4.012-2.161 0-2.896 1.683-2.896 4.012v12.128h-8.546V46.325c0-2.113-.216-4.012-2.808-4.012-2.156 0-2.895 1.683-2.895 4.012v12.128h-8.546V36.056m40.684 0h8.549v22.397h-8.549z"/><path d="M118.334 33.311a4.71 4.71 0 0 0 .196-1.334 4.69 4.69 0 0 0-4.691-4.692c-2.597 0-4.696 2.1-4.696 4.692 0 .462.07.911.198 1.334h8.993m.453-8.58h.699v61.003h-.699z"/></svg>