<svg xmlns="http://www.w3.org/2000/svg" xmlns:xlink="http://www.w3.org/1999/xlink" width="300" height="90" xmlns:v="https://vecta.io/nano"><g fill="#b1b1b1"><path d="M57.692 52.042c-2.948 1.279-7.191 3.634-9.265 5.475-1.061-1.014-2.464-1.965-4.305-1.965-1.731 0-2.496.624-2.496 1.217 0 .359.718.312.718.827 0 .234-.203.53-.53.53-.406 0-.795-.593-.795-1.326 0-1.357.608-2.558 2.761-4.804l3.775-3.931c-1.56-.795-3.837-1.794-5.101-2.34v-.187c.374-.109.64-.468.64-.905v-3.244c0-.359-.187-.905-.64-1.061v-.156c3.182-1.139 7.222-3.4 9.53-5.023.515.577 1.872 1.778 3.322 1.778 1.232 0 1.513-.593 1.513-1.014 0-.25-.452-.374-.452-.749 0-.328.172-.452.421-.452.359 0 .686.328.686 1.014 0 2.043-1.965 4.648-5.023 4.648-2.012 0-3.244-.905-4.196-2.23l-.078.031v5.069l2.792 1.357 1.248-1.326c1.31.827 4.04 2.293 5.475 2.917v.109c-.281.125-.64.452-.64 1.061v3.588c0 .515.374.827.64.951zm-5.709 2.386v-6.083l-2.652-1.279-5.865 6.052.031.031c.889-.484 1.965-.983 3.775-.983 1.856 0 3.728 1.341 4.617 2.308zm-11.651-2.386c-2.527 1.029-7.409 3.634-9.53 5.475a102.09 102.09 0 0 0-7.565-4.96v-.109c.53-.187.686-.608.686-1.248v-9.515c0-.873-.234-1.217-.686-1.357v-.156c3.478-1.279 6.769-3.104 9.562-5.023 1.934 1.435 5.288 3.556 7.518 4.882v.156c-.406.156-.686.562-.686 1.217v9.452c0 .686.265.951.686 1.061zm-5.74 2.496V41.997c-1.747-.951-4.305-2.839-5.522-3.899l-.078.031v12.697c1.669.905 4.165 2.574 5.522 3.743zm-11.683-3.322l-3.478 6.426c-1.95-1.357-5.069-2.184-7.721-2.184-5.225 0-8.813.951-10.669 2.121l-.234-.265c1.653-1.451 4.43-3.775 4.43-9.078 0-2.23-.905-4.757-1.544-6.426-.749-1.934-1.326-2.901-1.326-5.6 0-4.679 2.511-7.347 6.473-9.343l.296.374c-1.373 1.139-1.997 2.605-2.199 4.087l6.333-5.288c1.622 2.277 3.151 3.135 5.147 3.135 1.638 0 2.121-.702 2.121-1.279 0-.421-.562-.499-.562-.905 0-.39.265-.499.499-.499.499 0 .64.655.64 1.139 0 3.198-2.527 5.412-5.366 5.412-.499 0-.936.016-1.248-.031v17.922c2.277 0 5.069.749 7.066 1.622l.873-1.544zm-8.813-.296V32.951c-2.402-.312-3.931-1.965-4.757-2.948l-2.386 1.934c.016 2.683.78 5.038 1.7 7.191.842 1.965 1.778 4.523 1.778 6.27 0 2.901-1.591 4.726-5.412 8.314l.109.109c2.277-1.7 5.927-2.854 8.969-2.901zM189.9 52.042c-2.948 1.279-7.191 3.634-9.265 5.475-1.061-1.014-2.464-1.965-4.305-1.965-1.731 0-2.496.624-2.496 1.217 0 .359.718.312.718.827 0 .234-.203.53-.53.53-.406 0-.795-.593-.795-1.326 0-1.357.608-2.558 2.761-4.804l3.775-3.931c-1.56-.795-3.837-1.794-5.101-2.34v-.187c.374-.109.64-.468.64-.905v-3.244c0-.359-.187-.905-.64-1.061v-.156c3.182-1.139 7.222-3.4 9.53-5.023.515.577 1.872 1.778 3.322 1.778 1.232 0 1.513-.593 1.513-1.014 0-.25-.452-.374-.452-.749 0-.328.172-.452.421-.452.359 0 .686.328.686 1.014 0 2.043-1.965 4.648-5.023 4.648-2.012 0-3.244-.905-4.196-2.23l-.078.031v5.069l2.792 1.357 1.248-1.326c1.31.827 4.04 2.293 5.49 2.917v.109c-.281.125-.64.452-.64 1.061v3.588c0 .515.374.827.64.951zm-5.709 2.386v-6.083l-2.652-1.279-5.865 6.052.031.031c.889-.484 1.965-.983 3.775-.983 1.856 0 3.728 1.341 4.617 2.308z"/><use xlink:href="#B"/><use xlink:href="#B" x="-25.597"/><path d="M131.704 55.833c-.125 4.804-4.258 8.127-8.75 8.127-3.51 0-4.321-1.809-7.518-1.809-1.856 0-4.633.608-5.147 1.248l-.234-.156c.187-3.478 4.383-5.412 7.534-5.412 3.463 0 6.005 2.23 9.686 2.23 2.34 0 3.556-1.248 3.775-2.496l-.031-.078c-.499.296-1.139.686-2.075.686-1.887 0-3.931-1.326-4.274-3.634a65.09 65.09 0 0 0-3.821 2.979c-2.215-1.435-5.787-3.229-7.518-4.009v-.156c.359-.125.608-.577.608-1.014V41.53c0-.64-.234-1.123-.686-1.217v-.156c3.213-1.17 7.331-3.322 9.562-5.069 1.934 1.529 5.459 3.697 7.518 4.882v.187c-.452.187-.686.499-.686 1.513v11.683c0 1.497.125 2.527 1.217 2.527.172 0 .374-.265.562-.343zm-7.097-1.7V41.997c-1.482-.827-3.899-2.496-5.522-3.899l-.078.031v13.274c1.482.686 4.087 2.23 5.179 3.057zm-32.6-1.03l-4.804 4.43-4.492-2.979v-.187c.406-.156.64-.577.64-1.061a2.73 2.73 0 0 0-.109-.686l-1.482-4.617H71.59l-1.357 3.853c2.106 0 3.51.406 4.539.827l.795-1.482.484.265-3.291 6.083c-1.373-.78-2.932-1.404-4.695-1.404-2.075 0-3.619.562-4.383 1.279-.156.14-.421.078-.296-.234 1.029-2.839 3.104-5.132 6.317-5.334l7.035-19.466c-.827-2.418-1.778-2.948-3.556-2.948-1.669 0-3.291.749-3.291 2.792 0 .951.905.858.905 1.544 0 .234-.203.53-.53.53-.608 0-1.014-.827-1.014-2.418 0-3.588 2.761-5.522 5.74-5.522 2.73 0 3.853.873 4.695 1.997.296-.951 1.232-1.575 2.043-1.7l.109.156c-.499.624-.795 1.17-.795 1.965 0 .406.296 1.326.421 1.669l7.643 22.118 1.482.983 1.061-.951zm-11.184-8.017l-3.899-11.948-4.274 11.948zm218.356 6.956c-2.948 1.279-7.191 3.634-9.265 5.475-1.061-1.014-2.464-1.965-4.305-1.965-1.731 0-2.496.624-2.496 1.217 0 .359.718.312.718.827 0 .234-.203.53-.53.53-.406 0-.795-.593-.795-1.326 0-1.357.608-2.558 2.761-4.804l3.775-3.915c-1.56-.795-3.837-1.794-5.101-2.34v-.187c.374-.109.64-.468.64-.905v-3.244c0-.359-.187-.905-.64-1.061v-.156c3.182-1.139 7.222-3.4 9.53-5.023.515.577 1.872 1.778 3.322 1.778 1.232 0 1.513-.593 1.513-1.014 0-.25-.452-.374-.452-.749 0-.328.172-.452.421-.452.359 0 .686.328.686 1.014 0 2.043-1.965 4.648-5.023 4.648-2.012 0-3.244-.905-4.196-2.23l-.078.031v5.054l2.792 1.357 1.248-1.326c1.31.827 4.04 2.293 5.49 2.917v.109c-.281.125-.64.452-.64 1.061v3.588c0 .515.374.827.64.951zm-5.724 2.386v-6.083l-2.652-1.279-5.865 6.052.031.031c.889-.484 1.965-.983 3.775-.983 1.856 0 3.728 1.341 4.617 2.308zm-10.888-12.353l-8.969 5.6v3.821c1.139.499 3.821 1.809 5.023 2.605l1.934-1.997c.53-.546.374-1.482 1.139-1.482.265 0 .452.156.452.452 0 .328-.218.484-.374.64l-5.865 5.818c-1.997-1.279-6.052-3.182-8.049-4.009v-.156c.328-.125.686-.343.686-1.17V41.576c0-.873-.312-1.185-.686-1.248v-.156c3.026-.983 7.643-3.447 9.827-4.991 1.529 2.277 3.447 5.069 4.882 6.894zm-4.57 2.293l-4.274-6.052-.109.031v8.735zm-52.518-15.457c0 3.042-2.324 4.679-4.835 5.069v19.014c3.057-1.7 4.04-3.572 4.04-4.461 0-.187-.374-.452-.374-.795 0-.265.218-.499.452-.499.343 0 .499.296.499.873 0 4.43-4.227 10.404-13.227 10.404-6.754 0-12.478-5.334-12.478-12.182 0-9.749 8.173-13.118 13.835-13.461-2.075-.452-5.397-1.17-8.173-1.17-3.213 0-5.865 1.887-5.865 3.588 0 .64.53.749.53 1.217 0 .25-.109.562-.452.562-.53 0-.608-.499-.608-.905 0-3.712 2.277-9.187 7.861-9.187 5.662 0 9.967 2.043 14.366 2.043 2.917 0 3.775-.873 3.666-2.574l.499.187c.109.281.265 1.139.265 2.277zm-5.21 24.348V34.058a16.34 16.34 0 0 1-.873.031c-1.295 0-3.556-.499-5.023-.905-4.383.795-9.484 4.492-9.484 11.449 0 5.974 4.243 9.795 10.279 9.795 2.028 0 3.837-.421 5.101-1.17zm47.262.109l-4.648 4.165c-1.061-.951-3.244-2.683-4.617-3.666v-.156c.39-.14.686-.515.686-1.404V41.795l-4.43-2.917-.827.718v13.227l1.856 1.357-3.712 3.322c-1.014-.983-2.527-2.121-3.899-3.135v-.156c.39-.14.686-.515.686-1.404V41.763l-4.43-2.917-1.014.873v13.087l1.856 1.357-3.712 3.291c-1.139-1.014-2.386-1.95-3.899-3.104v-.109c.421-.172.686-.686.686-1.279V40.328l-1.622-1.435-1.014.873-.374-.421 4.648-4.165 3.447 3.104v.873l4.695-3.977 5.818 3.821 4.492-3.821c1.435 1.139 4.726 3.182 6.536 4.243v.156c-.608.156-.686.951-.686 1.357v11.386l2.075 1.544.983-.905zm-32.304-22.305c-1.217 1.7-2.199 2.496-4.165 2.496-1.326 0-2.23-.718-3.4-1.997l-.951.873-.374-.452 4.617-4.118c1.326 2.683 3.026 3.104 4.196 3.057zm1.139 22.305l-4.648 4.165c-1.139-1.014-3.057-2.511-4.57-3.666v-.109c.421-.172.686-.686.686-1.279V40.328l-1.622-1.435-1.014.873-.374-.421 4.648-4.165 4.118 3.666v.156c-.499.156-.686.452-.686 1.591v11.714l2.075 1.513.983-.873zm-78.676 0l-4.648 4.165c-1.139-1.014-3.057-2.511-4.57-3.666v-.109c.421-.172.686-.686.686-1.279V32.841l-1.622-1.435-1.014.873-.374-.421c1.139-.951 2.761-2.605 4.383-4.165l4.383 3.666v.156c-.499.156-.686.452-.686 1.591v19.201l2.075 1.513.983-.873zm-45.296 0l-4.648 4.165c-1.061-.951-3.213-2.683-4.57-3.666v-.156c.39-.14.686-.515.686-1.404V41.795l-4.43-2.917-1.014.873v13.087l1.856 1.357-3.712 3.291c-1.139-1.014-2.386-1.95-3.899-3.104v-.109c.421-.172.686-.686.686-1.279V40.328l-1.622-1.435-1.014.873-.374-.421 4.648-4.165 3.447 3.104v.873l4.695-3.977c1.435 1.139 4.695 3.182 6.504 4.243v.156c-.608.156-.686.951-.686 1.357v11.386l2.075 1.544.983-.905zm106.128-17.657c0 .265-.218.374-.421.374-.328 0-.608-.64-1.513-.64-1.341 0-2.464 1.232-2.464 2.574 0 3.51 3.478 4.945 3.478 8.969 0 3.369-3.291 5.303-6.691 5.74l-.64-.452c1.856-.25 2.761-.873 2.761-3.135 0-3.057-3.182-5.553-3.182-9.156 0-2.917 2.73-5.179 6.473-5.179a4.47 4.47 0 0 1 1.856.421c.234.109.343.265.343.484z"/></g><defs ><path id="B" d="M173.304 42.075l-8.969 5.6v3.821c1.139.499 3.821 1.809 5.023 2.605l1.934-1.997c.53-.546.374-1.482 1.139-1.482.265 0 .452.156.452.452 0 .328-.218.484-.374.64l-5.865 5.818c-1.997-1.279-6.052-3.182-8.049-4.009v-.156c.328-.125.686-.343.686-1.17V41.576c0-.873-.312-1.185-.686-1.248v-.156c3.026-.983 7.643-3.447 9.827-4.991 1.513 2.277 3.447 5.069 4.882 6.894zm-4.57 2.293l-4.274-6.052-.109.031v8.735z"/></defs></svg>