<?xml version="1.0" encoding="UTF-8" standalone="no"?>
<svg
   viewBox="0 0 300 89.999999"
   version="1.1"
   id="svg287"
   sodipodi:docname="latimes.svg"
   inkscape:version="1.1.1 (3bf5ae0d25, 2021-09-20)"
   width="300"
   height="90"
   xmlns:inkscape="http://www.inkscape.org/namespaces/inkscape"
   xmlns:sodipodi="http://sodipodi.sourceforge.net/DTD/sodipodi-0.dtd"
   xmlns="http://www.w3.org/2000/svg"
   xmlns:svg="http://www.w3.org/2000/svg"
   xmlns:rdf="http://www.w3.org/1999/02/22-rdf-syntax-ns#"
   xmlns:cc="http://creativecommons.org/ns#"
   xmlns:dc="http://purl.org/dc/elements/1.1/">
  <defs
     id="defs291" />
  <sodipodi:namedview
     id="namedview289"
     pagecolor="#ffffff"
     bordercolor="#666666"
     borderopacity="1.0"
     inkscape:pageshadow="2"
     inkscape:pageopacity="0.0"
     inkscape:pagecheckerboard="0"
     showgrid="false"
     inkscape:zoom="1.7783814"
     inkscape:cx="161.3827"
     inkscape:cy="18.275045"
     inkscape:window-width="1866"
     inkscape:window-height="1016"
     inkscape:window-x="54"
     inkscape:window-y="27"
     inkscape:window-maximized="1"
     inkscape:current-layer="svg287"
     height="247.3px" />
  <title
     id="title249">Los Angeles Times</title>
  <g
     fill="#000"
     id="g285"
     style="fill:#b1b1b1;fill-opacity:1"
     transform="matrix(0.15597862,0,0,0.15597862,0.79085211,25.463678)">
    <path
       d="m 364.8,170.4 c -18.9,8.2 -46.1,23.3 -59.4,35.1 -6.8,-6.5 -15.8,-12.6 -27.6,-12.6 -11.1,0 -16,4 -16,7.8 0,2.3 4.6,2 4.6,5.3 0,1.5 -1.3,3.4 -3.4,3.4 -2.6,0 -5.1,-3.8 -5.1,-8.5 0,-8.7 3.9,-16.4 17.7,-30.8 l 24.2,-25.2 c -10,-5.1 -24.6,-11.5 -32.7,-15 v -1.2 c 2.4,-0.7 4.1,-3 4.1,-5.8 v -20.8 c 0,-2.3 -1.2,-5.8 -4.1,-6.8 v -1 c 20.4,-7.3 46.3,-21.8 61.1,-32.2 3.3,3.7 12,11.4 21.3,11.4 7.9,0 9.7,-3.8 9.7,-6.5 0,-1.6 -2.9,-2.4 -2.9,-4.8 0,-2.1 1.1,-2.9 2.7,-2.9 2.3,0 4.4,2.1 4.4,6.5 0,13.1 -12.6,29.8 -32.2,29.8 -12.9,0 -20.8,-5.8 -26.9,-14.3 l -0.5,0.2 V 114 l 17.9,8.7 8,-8.5 c 8.4,5.3 25.9,14.7 35.1,18.7 v 0.7 c -1.8,0.8 -4.1,2.9 -4.1,6.8 v 23 c 0,3.3 2.4,5.3 4.1,6.1 z m -36.6,15.3 v -39 c -4.6,-2.2 -12.4,-5.9 -17,-8.2 l -37.6,38.8 0.2,0.2 c 5.7,-3.1 12.6,-6.3 24.2,-6.3 11.9,0 23.9,8.6 29.6,14.8 z"
       id="path251"
       style="fill:#b1b1b1;fill-opacity:1" />
    <path
       d="M 253.5,170.4 C 237.3,177 206,193.7 192.4,205.5 178.1,195.1 157.2,181.4 143.9,173.7 V 173 c 3.4,-1.2 4.4,-3.9 4.4,-8 v -61 c 0,-5.6 -1.5,-7.8 -4.4,-8.7 v -1 c 22.3,-8.2 43.4,-19.9 61.3,-32.2 12.4,9.2 33.9,22.8 48.2,31.3 v 1 c -2.6,1 -4.4,3.6 -4.4,7.8 v 60.6 c 0,4.4 1.7,6.1 4.4,6.8 z m -36.8,16 V 106 C 205.5,99.9 189.1,87.8 181.3,81 l -0.5,0.2 v 81.4 c 10.7,5.8 26.7,16.5 35.4,24 z"
       id="path253"
       style="fill:#b1b1b1;fill-opacity:1" />
    <path
       d="m 141.8,165.1 -22.3,41.2 C 107,197.6 87,192.3 70,192.3 c -33.5,0 -56.5,6.1 -68.4,13.6 L 0.1,204.2 C 10.7,194.9 28.5,180 28.5,146 28.5,131.7 22.7,115.5 18.6,104.8 13.8,92.4 10.1,86.2 10.1,68.9 10.1,38.9 26.2,21.8 51.6,9 l 1.9,2.4 C 44.7,18.7 40.7,28.1 39.4,37.6 L 80,3.7 c 10.4,14.6 20.2,20.1 33,20.1 10.5,0 13.6,-4.5 13.6,-8.2 0,-2.7 -3.6,-3.2 -3.6,-5.8 0,-2.5 1.7,-3.2 3.2,-3.2 3.2,0 4.1,4.2 4.1,7.3 0,20.5 -16.2,34.7 -34.4,34.7 -3.2,0 -6,0.1 -8,-0.2 v 114.9 c 14.6,0 32.5,4.8 45.3,10.4 l 5.6,-9.9 z M 85.3,163.2 V 48 C 69.9,46 60.1,35.4 54.8,29.1 L 39.5,41.5 c 0.1,17.2 5,32.3 10.9,46.1 5.4,12.6 11.4,29 11.4,40.2 0,18.6 -10.2,30.3 -34.7,53.3 l 0.7,0.7 c 14.6,-10.9 38,-18.3 57.5,-18.6 z"
       id="path255"
       style="fill:#b1b1b1;fill-opacity:1" />
    <path
       d="m 1212.4,170.4 c -18.9,8.2 -46.1,23.3 -59.4,35.1 -6.8,-6.5 -15.8,-12.6 -27.6,-12.6 -11.1,0 -16,4 -16,7.8 0,2.3 4.6,2 4.6,5.3 0,1.5 -1.3,3.4 -3.4,3.4 -2.6,0 -5.1,-3.8 -5.1,-8.5 0,-8.7 3.9,-16.4 17.7,-30.8 l 24.2,-25.2 c -10,-5.1 -24.6,-11.5 -32.7,-15 v -1.2 c 2.4,-0.7 4.1,-3 4.1,-5.8 v -20.8 c 0,-2.3 -1.2,-5.8 -4.1,-6.8 v -1 c 20.4,-7.3 46.3,-21.8 61.1,-32.2 3.3,3.7 12,11.4 21.3,11.4 7.9,0 9.7,-3.8 9.7,-6.5 0,-1.6 -2.9,-2.4 -2.9,-4.8 0,-2.1 1.1,-2.9 2.7,-2.9 2.3,0 4.4,2.1 4.4,6.5 0,13.1 -12.6,29.8 -32.2,29.8 -12.9,0 -20.8,-5.8 -26.9,-14.3 l -0.5,0.2 V 114 l 17.9,8.7 8,-8.5 c 8.4,5.3 25.9,14.7 35.2,18.7 v 0.7 c -1.8,0.8 -4.1,2.9 -4.1,6.8 v 23 c 0,3.3 2.4,5.3 4.1,6.1 z m -36.6,15.3 v -39 c -4.6,-2.2 -12.4,-5.9 -17,-8.2 l -37.6,38.8 0.2,0.2 c 5.7,-3.1 12.6,-6.3 24.2,-6.3 11.9,0 23.9,8.6 29.6,14.8 z"
       id="path257"
       style="fill:#b1b1b1;fill-opacity:1" />
    <path
       d="m 1106,106.5 -57.5,35.9 v 24.5 c 7.3,3.2 24.5,11.6 32.2,16.7 l 12.4,-12.8 c 3.4,-3.5 2.4,-9.5 7.3,-9.5 1.7,0 2.9,1 2.9,2.9 0,2.1 -1.4,3.1 -2.4,4.1 l -37.6,37.3 c -12.8,-8.2 -38.8,-20.4 -51.6,-25.7 v -1 c 2.1,-0.8 4.4,-2.2 4.4,-7.5 v -68.1 c 0,-5.6 -2,-7.6 -4.4,-8 v -1 c 19.4,-6.3 49,-22.1 63,-32 9.7,14.6 22.1,32.5 31.3,44.2 z m -29.3,14.7 c -6.8,-9.5 -19.9,-27.6 -27.4,-38.8 l -0.7,0.2 v 56 z"
       id="path259"
       style="fill:#b1b1b1;fill-opacity:1" />
    <path
       d="m 941.9,106.5 -57.5,35.9 v 24.5 c 7.3,3.2 24.5,11.6 32.2,16.7 L 929,170.8 c 3.4,-3.5 2.4,-9.5 7.3,-9.5 1.7,0 2.9,1 2.9,2.9 0,2.1 -1.4,3.1 -2.4,4.1 l -37.6,37.3 c -12.8,-8.2 -38.8,-20.4 -51.6,-25.7 v -1 c 2.1,-0.8 4.4,-2.2 4.4,-7.5 v -68.1 c 0,-5.6 -2,-7.6 -4.4,-8 v -1 c 19.4,-6.3 49,-22.1 63,-32 9.7,14.6 22.1,32.5 31.3,44.2 z m -29.3,14.7 c -6.8,-9.5 -19.9,-27.6 -27.4,-38.8 l -0.7,0.2 v 56 z"
       id="path261"
       style="fill:#b1b1b1;fill-opacity:1" />
    <path
       d="m 839.3,194.7 c -0.8,30.8 -27.3,52.1 -56.1,52.1 -22.5,0 -27.7,-11.6 -48.2,-11.6 -11.9,0 -29.7,3.9 -33,8 l -1.5,-1 c 1.2,-22.3 28.1,-34.7 48.3,-34.7 22.2,0 38.5,14.3 62.1,14.3 15,0 22.8,-8 24.2,-16 l -0.2,-0.5 c -3.2,1.9 -7.3,4.4 -13.3,4.4 -12.1,0 -25.2,-8.5 -27.4,-23.3 -5.8,4 -18.8,14.2 -24.5,19.1 -14.2,-9.2 -37.1,-20.7 -48.2,-25.7 v -1 c 2.3,-0.8 3.9,-3.7 3.9,-6.5 V 103 c 0,-4.1 -1.5,-7.2 -4.4,-7.8 v -1 c 20.6,-7.5 47,-21.3 61.3,-32.5 12.4,9.8 35,23.7 48.2,31.3 v 1.2 c -2.9,1.2 -4.4,3.2 -4.4,9.7 v 74.9 c 0,9.6 0.8,16.2 7.8,16.2 1.1,0 2.4,-1.7 3.6,-2.2 z M 793.8,183.8 V 106 c -9.5,-5.3 -25,-16 -35.4,-25 l -0.5,0.2 v 85.1 c 9.5,4.4 26.2,14.3 33.2,19.6 z"
       id="path263"
       style="fill:#b1b1b1;fill-opacity:1" />
    <path
       d="M 584.8,177.2 554,205.6 c -9.2,-6.5 -17.2,-11.9 -28.8,-19.1 v -1.2 c 2.6,-1 4.1,-3.7 4.1,-6.8 0,-1.4 -0.3,-2.9 -0.7,-4.4 l -9.5,-29.6 h -65.2 l -8.7,24.7 c 13.5,0 22.5,2.6 29.1,5.3 l 5.1,-9.5 3.1,1.7 -21.1,39 c -8.8,-5 -18.8,-9 -30.1,-9 -13.3,0 -23.2,3.6 -28.1,8.2 -1,0.9 -2.7,0.5 -1.9,-1.5 6.6,-18.2 19.9,-32.9 40.5,-34.2 L 486.9,44.4 c -5.3,-15.5 -11.4,-18.9 -22.8,-18.9 -10.7,0 -21.1,4.8 -21.1,17.9 0,6.1 5.8,5.5 5.8,9.9 0,1.5 -1.3,3.4 -3.4,3.4 -3.9,0 -6.5,-5.3 -6.5,-15.5 0,-23 17.7,-35.4 36.8,-35.4 17.5,0 24.7,5.6 30.1,12.8 1.9,-6.1 7.9,-10.1 13.1,-10.9 l 0.7,1 c -3.2,4 -5.1,7.5 -5.1,12.6 0,2.6 1.9,8.5 2.7,10.7 l 49,141.8 9.5,6.3 6.8,-6.1 z m -71.7,-51.4 -25,-76.6 -27.4,76.6 z"
       id="path265"
       style="fill:#b1b1b1;fill-opacity:1" />
    <path
       d="m 1913,170.4 c -18.9,8.2 -46.1,23.3 -59.4,35.1 -6.8,-6.5 -15.8,-12.6 -27.6,-12.6 -11.1,0 -16,4 -16,7.8 0,2.3 4.6,2 4.6,5.3 0,1.5 -1.3,3.4 -3.4,3.4 -2.6,0 -5.1,-3.8 -5.1,-8.5 0,-8.7 3.9,-16.4 17.7,-30.8 L 1848,145 c -10,-5.1 -24.6,-11.5 -32.7,-15 v -1.2 c 2.4,-0.7 4.1,-3 4.1,-5.8 v -20.8 c 0,-2.3 -1.2,-5.8 -4.1,-6.8 v -1 c 20.4,-7.3 46.3,-21.8 61.1,-32.2 3.3,3.7 12,11.4 21.3,11.4 7.9,0 9.7,-3.8 9.7,-6.5 0,-1.6 -2.9,-2.4 -2.9,-4.8 0,-2.1 1.1,-2.9 2.7,-2.9 2.3,0 4.4,2.1 4.4,6.5 0,13.1 -12.6,29.8 -32.2,29.8 -12.9,0 -20.8,-5.8 -26.9,-14.3 l -0.5,0.2 V 114 l 17.9,8.7 8,-8.5 c 8.4,5.3 25.9,14.7 35.2,18.7 v 0.7 c -1.8,0.8 -4.1,2.9 -4.1,6.8 v 23 c 0,3.3 2.4,5.3 4.1,6.1 z m -36.7,15.3 v -39 c -4.6,-2.2 -12.4,-5.9 -17,-8.2 l -37.6,38.8 0.2,0.2 c 5.7,-3.1 12.6,-6.3 24.2,-6.3 11.9,0 23.9,8.6 29.6,14.8 z"
       id="path267"
       style="fill:#b1b1b1;fill-opacity:1" />
    <path
       d="m 1806.5,106.5 -57.5,35.9 v 24.5 c 7.3,3.2 24.5,11.6 32.2,16.7 l 12.4,-12.8 c 3.4,-3.5 2.4,-9.5 7.3,-9.5 1.7,0 2.9,1 2.9,2.9 0,2.1 -1.4,3.1 -2.4,4.1 l -37.6,37.3 c -12.8,-8.2 -38.8,-20.4 -51.6,-25.7 v -1 c 2.1,-0.8 4.4,-2.2 4.4,-7.5 v -68.1 c 0,-5.6 -2,-7.6 -4.4,-8 v -1 c 19.4,-6.3 49,-22.1 63,-32 9.8,14.6 22.1,32.5 31.3,44.2 z m -29.3,14.7 c -6.8,-9.5 -19.9,-27.6 -27.4,-38.8 l -0.7,0.2 v 56 z"
       id="path269"
       style="fill:#b1b1b1;fill-opacity:1" />
    <path
       d="m 1440.5,22.1 c 0,19.5 -14.9,30 -31,32.5 v 121.9 c 19.6,-10.9 25.9,-22.9 25.9,-28.6 0,-1.2 -2.4,-2.9 -2.4,-5.1 0,-1.7 1.4,-3.2 2.9,-3.2 2.2,0 3.2,1.9 3.2,5.6 0,28.4 -27.1,66.7 -84.8,66.7 -43.3,0 -80,-34.2 -80,-78.1 0,-62.5 52.4,-84.1 88.7,-86.3 -13.3,-2.9 -34.6,-7.5 -52.4,-7.5 -20.6,0 -37.6,12.1 -37.6,23 0,4.1 3.4,4.8 3.4,7.8 0,1.6 -0.7,3.6 -2.9,3.6 -3.4,0 -3.9,-3.2 -3.9,-5.8 0,-23.8 14.6,-58.9 50.4,-58.9 36.3,0 63.9,13.1 92.1,13.1 18.7,0 24.2,-5.6 23.5,-16.5 l 3.2,1.2 c 0.7,1.8 1.7,7.3 1.7,14.6 z m -33.4,156.1 V 55.1 c -1.5,0.1 -4.1,0.2 -5.6,0.2 -8.3,0 -22.8,-3.2 -32.2,-5.8 -28.1,5.1 -60.8,28.8 -60.8,73.4 0,38.3 27.2,62.8 65.9,62.8 13,0 24.6,-2.7 32.7,-7.5 z"
       id="path271"
       style="fill:#b1b1b1;fill-opacity:1" />
    <path
       d="m 1710.1,178.9 c -7.8,6.5 -22.5,19.6 -29.8,26.7 -6.8,-6.1 -20.8,-17.2 -29.6,-23.5 v -1 c 2.5,-0.9 4.4,-3.3 4.4,-9 v -67.4 c -7,-5.1 -20.8,-13.8 -28.4,-18.7 l -5.3,4.6 v 84.8 l 11.9,8.7 c 0,0 -16.5,14.3 -23.8,21.3 -6.5,-6.3 -16.2,-13.6 -25,-20.1 v -1 c 2.5,-0.9 4.4,-3.3 4.4,-9 v -70.8 c -7,-5.1 -20.8,-13.8 -28.4,-18.7 l -6.5,5.6 v 83.9 l 11.9,8.7 c 0,0 -16,13.4 -23.8,21.1 -7.3,-6.5 -15.3,-12.5 -25,-19.9 v -0.7 c 2.7,-1.1 4.4,-4.4 4.4,-8.2 v -81 l -10.4,-9.2 -6.5,5.6 -2.4,-2.7 c 7.3,-6.1 19.4,-16.7 29.8,-26.7 l 22.1,19.9 v 5.6 l 30.1,-25.5 c 9.5,6.8 37.3,24.5 37.3,24.5 l 28.8,-24.5 c 9.2,7.3 30.3,20.4 41.9,27.2 v 1 c -3.9,1 -4.4,6.1 -4.4,8.7 v 73 l 13.3,9.9 6.3,-5.8 z"
       id="path273"
       style="fill:#b1b1b1;fill-opacity:1" />
    <path
       d="m 1503,35.9 c -7.8,10.9 -14.1,16 -26.7,16 -8.5,0 -14.3,-4.6 -21.8,-12.8 l -6.1,5.6 -2.4,-2.9 29.6,-26.4 c 8.5,17.2 19.4,19.9 26.9,19.6 z"
       id="path275"
       style="fill:#b1b1b1;fill-opacity:1" />
    <path
       d="m 1510.3,178.9 c -8.5,7.3 -22.1,19 -29.8,26.7 -7.3,-6.5 -19.6,-16.1 -29.3,-23.5 v -0.7 c 2.7,-1.1 4.4,-4.4 4.4,-8.2 V 95.3 l -10.4,-9.2 -6.5,5.6 -2.4,-2.7 c 7.3,-6.1 19.4,-16.7 29.8,-26.7 l 26.4,23.5 v 1 c -3.2,1 -4.4,2.9 -4.4,10.2 v 75.1 l 13.3,9.7 6.3,-5.6 z"
       id="path277"
       style="fill:#b1b1b1;fill-opacity:1" />
    <path
       d="m 1005.9,178.9 c -8.5,7.3 -22.1,19 -29.8,26.7 -7.3,-6.5 -19.6,-16.1 -29.3,-23.5 v -0.7 c 2.7,-1.1 4.4,-4.4 4.4,-8.2 V 47.3 l -10.4,-9.2 -6.5,5.6 -2.4,-2.7 c 7.3,-6.1 17.7,-16.7 28.1,-26.7 l 28.1,23.5 v 1 c -3.2,1 -4.4,2.9 -4.4,10.2 v 123.1 l 13.3,9.7 6.3,-5.6 z"
       id="path279"
       style="fill:#b1b1b1;fill-opacity:1" />
    <path
       d="m 715.5,178.9 c -7.8,6.5 -22.5,19.6 -29.8,26.7 -6.8,-6.1 -20.6,-17.2 -29.3,-23.5 v -1 c 2.5,-0.9 4.4,-3.3 4.4,-9 V 104.7 C 653.8,99.6 640,90.9 632.4,86 l -6.5,5.6 v 83.9 l 11.9,8.7 c 0,0 -16,13.4 -23.8,21.1 -7.3,-6.5 -15.3,-12.5 -25,-19.9 v -0.7 c 2.7,-1.1 4.4,-4.4 4.4,-8.2 V 95.3 L 583,86.1 576.5,91.7 574.1,89 c 7.3,-6.1 19.4,-16.7 29.8,-26.7 L 626,82.2 v 5.6 l 30.1,-25.5 c 9.2,7.3 30.1,20.4 41.7,27.2 v 1 c -3.9,1 -4.4,6.1 -4.4,8.7 v 73 l 13.3,9.9 6.3,-5.8 z"
       id="path281"
       style="fill:#b1b1b1;fill-opacity:1" />
    <path
       d="m 1395.9,65.7 c 0,1.7 -1.4,2.4 -2.7,2.4 -2.1,0 -3.9,-4.1 -9.7,-4.1 -8.6,0 -15.8,7.9 -15.8,16.5 0,22.5 22.3,31.7 22.3,57.5 0,21.6 -21.1,34 -42.9,36.8 l -4.1,-2.9 c 11.9,-1.6 17.7,-5.6 17.7,-20.1 0,-19.6 -20.4,-35.6 -20.4,-58.7 0,-18.7 17.5,-33.2 41.5,-33.2 4.7,0 9.3,1.4 11.9,2.7 1.5,0.7 2.2,1.7 2.2,3.1 z"
       id="path283"
       style="fill:#b1b1b1;fill-opacity:1" />
  </g>
  <metadata
     id="metadata293">
    <rdf:RDF>
      <cc:Work
         rdf:about="">
        <dc:title>Los Angeles Times</dc:title>
      </cc:Work>
    </rdf:RDF>
  </metadata>
</svg>
