<svg xmlns="http://www.w3.org/2000/svg" width="300" height="90" xmlns:v="https://vecta.io/nano"><path d="M83.39 19.011v1.044c0 4.874 3.084 6.417 6.018 6.417 3.631 0 6.416-1.543 6.416-5.821 0-7.958-16.114-7.062-16.114-17.855 0-6.366 4.526-9.746 10.544-9.746 6.565 0 10.245 3.183 9.947 10.494h-4.775c.05-3.929-1.194-6.515-5.521-6.515-2.735 0-5.521 1.393-5.521 5.272 0 7.908 16.114 6.764 16.114 18.153 0 7.56-5.222 9.997-11.141 9.997-10.594.099-10.594-8.007-10.494-11.439h4.526zm37.624-15.318c.05-2.039-.099-4.078-1.044-5.222s-3.084-1.542-4.029-1.542c-3.78 0-5.272 2.288-5.421 2.785-.149.398-1.044 1.293-1.044 7.46v9.599c0 8.803 2.885 9.848 6.416 9.848 1.393 0 5.62-.499 5.668-7.51h4.725c.199 11.34-7.808 11.34-10.146 11.34-4.476 0-11.34-.3-11.34-14.224V6.08c0-10.146 4.476-13.029 11.537-13.029 7.112 0 9.848 3.68 9.4 10.642zm9.745 26.01V-6.204h4.576V9.313h12.583V-6.204h4.576v35.907h-4.576V13.292h-12.583v16.411zm27.064-13.131V4.787c0-7.162 3.68-11.737 11.29-11.737s11.29 4.576 11.29 11.737v11.786c0 9.947-3.68 13.876-11.29 13.876s-11.29-3.929-11.29-13.876zm17.905.201V4.639c0-7.51-5.172-7.759-6.615-7.759s-6.615.249-6.615 7.759v12.134c0 7.856 2.288 9.848 6.615 9.848s6.615-1.991 6.615-9.848zm9.608-.201V4.787c0-7.162 3.68-11.737 11.29-11.737s11.29 4.576 11.29 11.737v11.786c0 9.947-3.68 13.876-11.29 13.876s-11.29-3.929-11.29-13.876zm17.903.201V4.639c0-7.51-5.172-7.759-6.615-7.759s-6.615.249-6.615 7.759v12.134c0 7.856 2.288 9.848 6.615 9.848s6.615-1.991 6.615-9.848zm9.882 12.93V-6.204h4.576v31.928h13.18v3.979zm28-13.131V4.787c0-7.162 3.68-11.737 11.29-11.737S263.7-2.375 263.7 4.787v11.786c0 9.947-3.68 13.876-11.29 13.876s-11.29-3.929-11.29-13.876zm17.905.201V4.639c0-7.51-5.172-7.759-6.615-7.759s-6.615.249-6.615 7.759v12.134c0 7.856 2.288 9.848 6.615 9.848s6.615-1.991 6.615-9.848zm9.712 12.93V-6.204h17.805v3.979h-13.228V9.313h12.533v3.979h-12.533v16.411zM83.545 81.721h-4.698V44.855h4.698zm31.193-36.866v36.866h-6.434L93.752 49.757h-.104v31.964h-4.186V44.855h6.635l14.349 31.556h.104V44.855zm5.541 36.866V44.855h18.281v4.085h-13.581v11.847h12.868v4.085h-12.868v16.849zm21.293-13.481v-12.1c0-7.353 3.78-12.051 11.593-12.051s11.592 4.698 11.592 12.051v12.1c0 10.213-3.779 14.247-11.592 14.247s-11.593-4.034-11.593-14.247zm18.383.206V55.988c0-7.711-5.312-7.966-6.792-7.966s-6.792.255-6.792 7.966v12.458c0 8.066 2.349 10.111 6.792 10.111s6.792-2.044 6.792-10.111zm14.799-3.677v16.952h-4.698V44.855h12.713c6.536 0 8.834 4.596 8.834 9.192 0 4.34-2.398 7.66-6.74 8.426v.102c4.238.664 5.772 2.094 6.026 9.498.051 1.583.562 7.353 1.277 9.651h-4.902c-1.326-2.553-1.021-7.353-1.43-12.255-.357-4.494-3.983-4.698-5.566-4.698zm0-4.085h7.047c3.369 0 5.004-2.911 5.004-6.128 0-2.655-1.328-5.617-4.953-5.617h-7.098zm26.097 21.037h-4.39V44.855h7.609l9.294 30.943h.102l9.396-30.943h7.763v36.866h-4.698V48.94h-.104l-10.315 32.781h-4.443L200.956 48.94h-.104v32.781zm45.096-36.866h5.974l11.998 36.866h-5.258l-2.655-8.783H241.76l-2.757 8.783h-4.747zm2.86 4.34h-.104l-5.769 19.66h11.796zm36.112-4.34v4.085h-9.704v32.781h-4.698V48.94h-9.7v-4.085zm8.521 36.866h-4.698V44.855h4.698zm5.583-13.481v-12.1c0-7.353 3.78-12.051 11.593-12.051s11.59 4.698 11.59 12.051v12.1c0 10.213-3.777 14.247-11.59 14.247s-11.593-4.034-11.593-14.247zm18.383.206V55.988c0-7.711-5.312-7.966-6.792-7.966s-6.792.255-6.792 7.966v12.458c0 8.066 2.351 10.111 6.792 10.111s6.792-2.044 6.792-10.111zm35.549-23.591v36.866h-6.432l-14.555-31.964h-.1v31.964h-4.189V44.855h6.638l14.349 31.556h.104V44.855z" transform="matrix(.70819 0 0 .70819 48.624033 19.520456)" fill="#002e5e"/><path fill="#f5c400" d="M47.479 66.443L28.611 40.662v18.753h7.501v18.522H1.416V59.415h7.031V30.582H1.416V12.064h27.256l18.807 25.969 18.805-25.969h27.248v18.518h-7.033v28.832h7.033v18.522H58.838V59.413h7.497V40.66z"/></svg>