<svg xmlns="http://www.w3.org/2000/svg" width="300" height="90" xmlns:v="https://vecta.io/nano"><path fill="#b1b1b1" d="M152.089 13.563l-10.131 24.69c-.36.721-.686 1.14-1.692 1.859h4.972c-.969-.455-1.159-.993-.836-1.901.072-.417.928-2.647 2.005-5.222h8.815l2.047 5.264c.251.795.077 1.328-.856 1.859h7.687c-1.186-.644-1.437-1.063-1.797-1.859-.647-1.44-10.215-24.69-10.215-24.69zm95.291 0l-10.152 24.69c-.36.721-.665 1.14-1.671 1.859h4.95c-.971-.455-1.16-.993-.836-1.901.072-.417.948-2.647 2.026-5.222h8.794l2.047 5.264c.25.795.077 1.328-.856 1.859h7.687c-1.186-.644-1.436-1.063-1.797-1.859-.646-1.44-10.192-24.69-10.192-24.69zm-187.261.376c-9.127 0-13.786 6.741-13.786 13.368 0 8.067 6.29 13.181 13.368 13.181 2.946 0 6.144-.643 9.128-2.423l.313-5.452c-2.371 5.189-6.437 5.786-8.125 5.786-7.403 0-9.88-6.383-9.88-11.572 0-6.097 3.485-10.841 9.629-10.841 1.725 0 5.933.522 8.125 5.786.072.152-.334-5.869-.334-5.869-2.803-1.364-5.492-1.964-8.439-1.964zm67.51 0c-9.197 0-13.911 6.741-13.911 13.368 0 8.067 6.323 13.181 13.473 13.181 2.874 0 7.99-.977 11.008-2.757-.18-.114-.585-.81-.585-1.567v-5.598c0-.872.401-1.394.94-1.734h-6.434c.575.34.94.862.94 1.734v6.601c-1.688 1.174-3.821 1.233-4.575 1.233-7.437 0-9.88-6.383-9.88-11.572 0-6.097 3.522-10.841 9.629-10.841 1.688 0 6.252.803 8.084 5.953l-.251-6.036c-2.838-1.288-5.492-1.964-8.439-1.964zm81.756 0c-3.268 0-7.812 2.056-7.812 7.206 0 2.878 1.436 4.92 4.742 6.851 3.271 1.856 6.391 2.338 6.391 5.974 0 1.855-1.081 4.553-4.637 4.553-3.737 0-5.897-3.557-6.58-6.246l.188 6.391c1.259.644 3.625 1.817 6.893 1.817 4.422 0 8.376-3.225 8.376-7.958 0-5.264-3.49-6.501-6.831-8.167-3.379-1.628-4.93-2.514-4.93-4.825 0-1.628 1.092-3.635 3.823-3.635 3.448 0 5.494 3.049 5.995 5.055l-.188-5.619c-1.829-1.136-4.208-1.398-5.43-1.398zm-206.896.418c.576.303 1.149.994 1.149 1.712v22.329c0 .833-.379 1.372-.919 1.712h3.99a1.83 1.83 0 0 1-1.003-1.712V19.955v-1.023l.251 1.023 8.689 20.68 8.627-21.285.313-.856s-.063.402-.063.856v19.05c0 .833-.364 1.372-.94 1.712h6.434c-.575-.341-.94-.88-.94-1.712V16.07c0-.871.365-1.41.94-1.712h-6.079l-6.935 17.379-7.185-17.379zm32.335 0c.575.303.94.842.94 1.712v22.329c0 .833-.365 1.372-.94 1.712h6.517c-.611-.341-.94-.88-.94-1.712V16.07c0-.871.33-1.41.94-1.712zm39.312 0c.575.303.94.842.94 1.712v22.329c0 .833-.365 1.372-.94 1.712h6.496c-.611-.341-.919-.88-.919-1.712V26.828h11.175v11.572c0 .833-.364 1.372-.94 1.712h6.496c-.61-.341-1.003-.88-1.003-1.712V16.07c0-.871.392-1.41 1.003-1.712h-6.496c.576.303.94.842.94 1.712v8.898H79.712V16.07c0-.871.308-1.41.919-1.712zm28.094 0c.576.303.94.842.94 1.712v22.329c0 .833-.364 1.372-.94 1.712h6.496c-.611-.341-.919-.88-.919-1.712V16.07c0-.871.308-1.41.919-1.712zm62.768 0c.755.455 1.249.987 1.608 1.441.683.872.648.904.648 2.381v20.22c0 .833-.4 1.372-.94 1.712h3.99a1.83 1.83 0 0 1-1.003-1.712V19.433c0 .303 17.253 21.744 17.253 21.744V16.07c0-.871.381-1.41.919-1.712h-3.969c.574.303.919.842.919 1.712v14.956L171.18 14.357h-6.183zm54.163 0v3.676c.322-.643.934-1.525 1.797-1.525 0 0 3.106-.251 5.765-.251V38.4c0 .833-.366 1.372-.94 1.712h6.434c-.54-.341-.94-.88-.94-1.712V16.258c2.623 0 5.89.251 5.89.251.862.075 1.368.882 1.692 1.525v-3.676zm37.473 0v3.676c.323-.643.934-1.525 1.797-1.525 0 0 3.106-.251 5.765-.251V38.4c0 .833-.365 1.372-.94 1.712h6.434c-.539-.341-.94-.88-.94-1.712V16.258c2.622 0 5.89.251 5.89.251.862.075 1.37.882 1.692 1.525v-3.676zm23.582 0c.574.303 1.065.842 1.065 1.712v22.329c0 .908-.455 1.334-1.065 1.712h15.436l.752-4.365c-1.329 2.386-2.764 2.326-5.89 2.402-1.761.076-3.94-.074-4.658-.188V26.828h5.431c.502 0 1.094.555 1.274 1.086v-4.011c-.18.454-.772 1.065-1.274 1.065h-5.431v-8.71l6.099.063c1.368.077 2.118.394 2.799 1.378l-.104-3.342zM150.73 21.752l3.656 9.274h-7.248c1.15-2.841 3.593-9.274 3.593-9.274zm95.271 0l3.676 9.274h-7.269c1.15-2.841 3.593-9.274 3.593-9.274zM2.426 46.797v1.985h294.605v-1.985zm198.582 10.026c-2.353 0-5.64 1.473-5.64 5.18 0 2.075 1.045 3.541 3.426 4.93 2.356 1.337 4.595 1.705 4.595 4.324 0 1.336-.781 3.259-3.342 3.259-2.689 0-4.231-2.553-4.72-4.491l.126 4.595c.906.463 2.615 1.316 4.972 1.316 3.181 0 6.016-2.315 6.016-5.723 0-3.789-2.504-4.691-4.909-5.89-2.434-1.174-3.551-1.805-3.551-3.468 0-1.173.793-2.611 2.757-2.611 2.485 0 3.942 2.188 4.303 3.635l-.126-4.052c-1.319-.819-3.027-1.004-3.907-1.004zm-198.165.292c.414.219.836.605.836 1.233V69.69c0 4.827 3.846 6.246 6.872 6.246 3.518 0 6.141-1.799 6.141-6.434l.063-11.155c0-.627.301-1.013.689-1.233h-3.008c.388.219.689.605.689 1.233l.063 11.217c0 2.698-1.122 4.825-4.198 4.825-3.363 0-3.969-2.709-3.969-4.616V58.347c0-.627.379-1.013.794-1.233zm33.881 0c.543.328.91.718 1.17 1.044.491.628.46.649.46 1.712V74.43c0 .6-.281.988-.668 1.233h2.882c-.44-.245-.731-.632-.731-1.233V60.77c0 .219 12.407 15.666 12.407 15.666V58.348c0-.627.301-1.013.689-1.233H50.05c.414.219.668.605.668 1.233v10.778l-9.546-12.011h-4.449zm36.784 0c.414.219.668.606.668 1.233v16.083c0 .6-.255.988-.668 1.233h4.679c-.44-.245-.668-.632-.668-1.233V58.347c0-.627.228-1.013.668-1.233zm22.538 0c.777.328 1.09.769 1.4 1.316.492 1.008 7.248 17.817 7.248 17.817l6.663-17.817c.259-.654.309-.85.982-1.316h-3.154c.672.274.776.67.543 1.378-.026.191-4.136 11.593-4.136 11.593l-4.365-11.467c-.181-.655-.13-1.23.543-1.504zm34.611 0c.414.219.773.605.773 1.233v16.083c0 .656-.334.96-.773 1.233h11.112l.543-3.134c-.958 1.718-1.991 1.658-4.24 1.712-1.267.056-2.845-.044-3.363-.126v-8.021h3.906c.362 0 .81.412.94.794v-2.904c-.13.326-.578.773-.94.773h-3.906v-6.266l4.408.041c.983.054 1.514.271 2.005.982l-.063-2.402h-10.402zm31.04 0c.414.219.668.605.668 1.233v16.083c0 .6-.255.988-.668 1.233h4.679c-.44-.245-.731-.632-.731-1.233v-7.436s.839-.063 1.149-.063c1.113 0 1.709 1.184 2.381 2.277.932 1.526 2.075 3.504 3.238 5.222.466.655 1.316 1.295 2.298 1.295l3.363-.063s-1.16-.432-1.65-1.086c-.906-1.092-4.011-6.266-4.011-6.266-.388-.602-1.164-1.856-2.924-2.047 1.835-.137 4.365-1.61 4.365-4.553 0-1.827-1.226-4.595-6.58-4.595zm64.941 0c.412.219.689.606.689 1.233v16.083a1.34 1.34 0 0 1-.689 1.233h4.7c-.439-.245-.689-.632-.689-1.233V58.347c0-.627.25-1.013.689-1.233zm24.063 0v2.653c.233-.461.674-1.086 1.295-1.086 0 0 2.222-.188 4.136-.188v15.938c0 .6-.254.988-.668 1.233h4.637c-.388-.245-.689-.632-.689-1.233V58.494c1.888 0 4.261.188 4.261.188.62.054.978.626 1.211 1.086v-2.653zm31.228 0c.698.384.973.662 1.337 1.316l5.076 8.752v7.248c0 .655-.489.988-.877 1.233h5.16c-.415-.245-.898-.632-.898-1.233v-7.353l4.136-8.292c.31-.627.909-1.397 1.712-1.671h-3.697c.723.193.905.778.543 1.378l-3.426 7.018-3.635-6.705c-.672-1.282-.229-1.418.418-1.692h-5.849zm-114.78 1.316c2.56 0 3.279 2.192 3.279 3.446 0 2.755-1.854 3.781-3.613 3.781-.44 0-1.17-.063-1.17-.063v-7.102c0 .001.727-.062 1.504-.062z"/></svg>