<svg xmlns="http://www.w3.org/2000/svg" width="300" height="90" fill-rule="evenodd" xmlns:v="https://vecta.io/nano"><path d="M31.232 13.079l-.027 9.548.015 19.917c.003.718-.187.908-.904.906l-28.327-.015-1.088.027L.886 13.76c-.001-.568.128-.697.695-.696l29.651.014" fill="#f15023"/><path d="M64.65 13.079l-.027 5.997.012 23.448c.002.679-.124.929-.88.927-9.527-.029-19.054-.029-28.581 0-.76.002-.869-.258-.868-.926l.013-29.447H64.65" fill="#7fb901"/><path d="M.901 46.554l29.214-.019c.831-.003 1.117.136 1.113 1.059l-.001 28.264c.004.91-.267 1.073-1.113 1.07l-28.126-.019-1.087.027V46.554" fill="#01a4ee"/><path d="M49.522 76.908c-4.782 0-9.565-.012-14.348.014-.652.004-.874-.127-.872-.837l.003-28.744c-.002-.637.161-.804.799-.802l28.696-.002c.706-.002.838.217.836.872l.001 28.653c.002.681-.176.866-.859.862l-14.257-.016" fill="#feb801"/><g fill="#737373"><path d="M104.299 54.167l6.337-15.587 4.848-11.939c.237-.594.518-.828 1.179-.817l7.536.005c.591-.007.764.16.763.762l.001 36.744c.001.639-.179.826-.812.81-1.633-.042-3.27-.051-4.902.003-.755.025-.968-.204-.966-.963l.016-27.285v-.991l-.171-.051-.452 1.099-10.734 27.181c-.302.77-.675 1.091-1.514 1.013-.9-.084-1.818-.067-2.721-.004-.706.05-.979-.251-1.229-.877L90.382 35.644c-.108-.27-.233-.532-.513-.778v.935l.018 27.285c.003.828-.202 1.106-1.048 1.063-1.358-.07-2.726-.074-4.084 0-.894.049-1.173-.176-1.17-1.133l.024-34.47-.005-2.092c-.016-.477.183-.623.646-.62l8.353-.005c.542-.005.631.327.777.697l10.918 27.641m179.235-25.066l-1.357-.432c-3.267-.953-5.545.645-5.715 4.041l-.018 3.365c-.011.466.134.639.618.635l8.354.003c.547.005.65-.21.643-.695l-.021-4.729c-.012-.568.126-.858.721-1.023l5.199-1.585c.524-.171.616-.027.612.463l-.03 6.548c-.028.873.267 1.057 1.068 1.027l4.721-.029c.573-.012.809.124.786.749v3.728c.022.627-.153.842-.804.825-1.694-.044-3.39.002-5.085-.024-.511-.008-.675.149-.672.668l.042 13.006c.001.329.063.662.128.987.384 1.912 1.316 2.688 3.258 2.73.897.019 1.748-.182 2.521-.625.51-.292.61-.132.604.378l.003 4.093c.008.434-.141.673-.545.806-2.622.863-5.272 1.11-7.921.194-2.7-.933-3.941-3.051-4.401-5.736-.154-.898-.198-1.804-.196-2.716l.018-12.916c.004-.648-.118-.89-.833-.877a226.86 226.86 0 0 1-7.899.001c-.734-.013-.899.216-.896.919l.037 20.192c.006.906-.26 1.117-1.115 1.078l-4.63-.005c-.675.021-.864-.165-.861-.856l.036-20.284c.004-.819-.187-1.113-1.033-1.045-.962.078-1.936-.002-2.904.027-.466.013-.641-.126-.631-.613v-4.093c-.012-.519.221-.595.653-.585l2.905.022c.773.053 1.043-.137 1.018-.978-.051-1.752-.16-3.52.226-5.255 1.035-4.65 4.816-7.496 9.837-7.422 1.03.016 2.051.076 3.055.348.348.095.513.236.511.612l-.005 5.079m-46.861 21.537c-.052-2.546.368-5.007 1.471-7.316 1.559-3.264 4.095-5.446 7.528-6.517 3.12-.974 6.309-1.088 9.495-.343 5.295 1.237 8.853 5.392 9.445 10.896.342 3.175.238 6.302-1.016 9.283-1.955 4.644-5.514 7.226-10.456 7.93-2.574.366-5.134.289-7.625-.527-5.054-1.656-7.795-5.266-8.672-10.418-.081-.477-.137-.961-.164-1.443-.028-.514-.006-1.03-.006-1.545h0zm6.674.288c-.044.704.119 1.842.398 2.96.845 3.396 3.351 5.402 6.857 5.511 3.436.106 5.86-1.494 6.842-4.652.875-2.811.903-5.673.05-8.496-.77-2.551-2.457-4.243-5.125-4.693s-5.148-.011-7.004 2.192c-1.632 1.937-1.989 4.285-2.018 7.178zm-44.957 13.82c-3.928.003-7.471-1.008-10.278-3.937-2.096-2.186-3.139-4.845-3.464-7.819-.355-3.245-.111-6.424 1.265-9.422 2.054-4.475 5.701-6.742 10.467-7.383 2.299-.309 4.584-.241 6.842.324 4.384 1.098 7.281 3.836 8.636 8.118 1.153 3.642 1.134 7.349-.011 10.999-1.73 5.516-6.585 9.008-12.549 9.119-.303.006-.605.001-.908.001h0zm-7.15-14.094c-.062 1.029.107 2.197.409 3.341.899 3.408 3.496 5.395 7.03 5.405 3.575.01 5.907-1.722 6.799-5.193.706-2.746.724-5.518-.208-8.229s-3.095-4.358-5.759-4.533c-3.176-.209-5.718.791-7.218 3.761-.836 1.655-1.082 3.448-1.052 5.449h0z"/><path d="M215.653 56.877c2.198 1.546 4.437 2.456 6.934 2.694 1.01.096 1.992-.017 2.953-.3.976-.289 1.624-.918 1.773-1.967.147-1.035-.134-1.917-.984-2.574-.918-.711-1.974-1.167-3.025-1.628l-3.448-1.606c-2.839-1.515-4.234-3.887-4.198-7.084.037-3.217 1.628-5.513 4.401-6.999 2.782-1.491 5.77-1.658 8.82-1.147.95.159 1.879.442 2.819.662.543.127.78.41.761 1.017l-.005 4.453c.015.68-.104.783-.72.413-2.08-1.25-4.345-1.81-6.77-1.53-1.929.223-2.946 1.515-2.677 3.274.14.919.701 1.52 1.457 1.971.936.559 1.936.987 2.945 1.393a25.68 25.68 0 0 1 3.022 1.449c2.799 1.581 4.327 3.928 4.169 7.192-.164 3.392-1.953 5.763-5.009 7.067-4.239 1.81-8.506 1.331-12.728-.19-.313-.113-.497-.294-.495-.663l.005-5.899m-52.227-13.133c-1.554-1.059-3.029-1.832-4.717-2.172-5.057-1.02-9.517 2.305-9.963 7.478-.149 1.731-.112 3.453.45 5.119 1.291 3.83 5.145 5.93 9.211 5.047 1.586-.344 3.055-.954 4.388-1.876.511-.354.647-.236.639.356l-.002 4.636c.003.368-.084.613-.438.798-4.985 2.597-14.69 2.853-19.086-4.502-3.427-5.735-2.387-15.611 3.562-19.821 3.244-2.296 6.867-3.02 10.748-2.713a15.77 15.77 0 0 1 4.491 1.018c.511.199.747.475.732 1.07-.042 1.785-.015 3.571-.015 5.563"/><path d="M184.158 43.142c-.998-.563-1.933-.877-2.932-.98-2.446-.252-4.227.686-5.397 2.844-.876 1.615-1.147 3.362-1.145 5.174l.019 13.007c.006.765-.213.985-.965.96l-4.812-.008c-.538.008-.736-.15-.735-.72V37.404c-.001-.567.183-.722.727-.713l5.085-.002c.59-.013.707.22.694.747l-.01 3.796c.621-1.079 1.035-1.973 1.7-2.708 1.973-2.179 4.416-2.692 7.189-2.095.404.087.6.277.593.742l-.011 5.969m-53.061 7.143l-.015-12.73c-.005-.666.152-.891.848-.868l4.901.007c.542-.01.734.142.733.711v25.915c.001.583-.159.798-.765.785a104.04 104.04 0 0 0-4.901.002c-.638.016-.817-.185-.813-.818l.013-13.003m3.338-17.766c-2.201.02-3.915-1.553-3.965-3.64-.052-2.131 1.643-3.807 3.862-3.82 2.296-.013 4.03 1.604 4.028 3.759-.001 2.043-1.739 3.681-3.925 3.701"/></g></svg>