<svg xmlns="http://www.w3.org/2000/svg" width="300" height="90" fill="#b1b1b1" fill-rule="evenodd" xmlns:v="https://vecta.io/nano"><path d="M31.308 12.889l.031 12.984.009 16.461c.001.694-.07 1.153-.956 1.151l-29.208-.026c-.06 0-.12-.012-.181-.018L.99 13.574c-.001-.571.128-.701.694-.7l29.625.015m33.39 0l.025 22.124.013 7.405c.012.795-.267 1.061-1.053 1.06l-28.295-.007c-.614.001-1.043-.072-1.041-.87l.034-29.621c0-.03.007-.06.012-.091h30.305M1.004 46.55l14.333-.025 14.878-.014c.803-.004 1.124.223 1.121 1.084l-.004 28.444c.002.764-.211 1.09-1.026 1.088l-29.303-.026V46.55m88.946-11.498v6.214l-.001 21.767c0 1.252-.021 1.269-1.273 1.273a633.07 633.07 0 0 1-3.901-.001c-1.177-.004-1.212-.038-1.213-1.246l-.001-28.718.002-7.499c.002-1.126.05-1.171 1.189-1.173l7.439-.017c.765-.014 1.125.279 1.396.976l10.318 26.368.332.783c.321-.141.351-.434.443-.664l10.547-26.176c.393-.989.88-1.334 1.926-1.295l6.803.012c.799-.014 1.041.281 1.04 1.068l.002 36.492c.002.847-.285 1.129-1.102 1.104l-4.445-.013c-1.193-.004-1.23-.037-1.231-1.227l-.001-26.889v-.972l-.167-.037-1.041 2.585-9.984 25.419c-.328.842-.75 1.217-1.658 1.137-.84-.073-1.695-.057-2.539-.003-.752.048-1.132-.246-1.411-.956l-6.424-16.121-4.886-12.205-.162.015"/><path d="M64.716 61.826l-.001 13.99c-.001 1.284-.016 1.302-1.241 1.302H35.63c-1.252 0-1.265-.013-1.265-1.274v-28.07c.001-1.247.007-1.252 1.282-1.252h27.844c1.199 0 1.223.024 1.224 1.224l.002 14.081m204.997-8.725l.015-10.061c.009-.799-.239-1.1-1.038-1.05-.874.055-1.754-.004-2.63.015-.591.013-.9-.186-.887-.839v-3.841c-.01-.591.248-.831.811-.826l2.45-.003c1.274-.004 1.263-.006 1.282-1.253.021-1.371-.125-2.751.096-4.11.851-5.264 4.875-8.518 10.176-8.258.874.043 1.75.048 2.614.241.624.14.948.442.936 1.119-.023 1.311-.017 2.622-.003 3.933.007.723-.278.942-.948.657-.736-.313-1.511-.407-2.307-.399-2.204.022-3.645 1.346-3.782 3.584-.074 1.215-.02 2.438-.039 3.657-.009.576.242.83.816.828l7.803.001c.589.003.798-.265.79-.837l-.015-4.39c-.015-.645.183-1.011.827-1.197a151.69 151.69 0 0 0 4.857-1.498c.696-.226.937-.005.931.706l-.017 6.219c-.013.763.27 1.023 1.009 1.006 1.511-.036 3.025.012 4.536-.019.733-.015 1.039.249 1.01 1.013a43.3 43.3 0 0 0 .001 3.475c.035.822-.312 1.057-1.075 1.037-1.511-.039-3.025.015-4.536-.022-.714-.017-.948.253-.943.961l.019 12.257c.001.363.077.725.106 1.089.209 2.588 2.118 3.435 4.518 2.898.351-.078.714-.187 1.02-.369.658-.392.907-.26.887.526-.032 1.28-.018 2.561-.007 3.842.004.479-.14.821-.625.982-2.688.893-5.414 1.124-8.092.107-3.23-1.226-4.294-3.992-4.375-7.154-.119-4.632-.037-9.268-.042-13.902-.001-1.221-.004-1.225-1.198-1.226-2.359-.003-4.718.03-7.076-.017-.869-.018-1.151.272-1.147 1.15l.015 19.391c0 1.777-.001 1.777-1.805 1.777-1.3 0-2.602-.033-3.901.011-.787.026-1.06-.264-1.052-1.062l.013-10.153m-19.074 11.77c-3.27.139-6.114-.562-8.643-2.302-3.502-2.409-5.124-5.922-5.445-10.068-.196-2.525-.079-5.049.746-7.497 1.636-4.856 4.985-7.725 9.92-8.744 2.698-.557 5.405-.539 8.088.14 4.16 1.052 7.046 3.627 8.437 7.682 1.503 4.382 1.475 8.831-.423 13.11-2.158 4.867-6.129 7.183-11.267 7.673-.539.051-1.088.007-1.412.007zm.074-5.523c3.662.003 5.87-1.671 6.737-5.251.588-2.426.599-4.89-.001-7.325-.782-3.174-3.117-5.173-6.132-5.307-3.697-.166-6.207 1.421-7.332 4.712-.826 2.419-.874 4.897-.346 7.39.785 3.707 3.322 5.777 7.074 5.781zm-52.202 5.524c-3.223.136-6.035-.57-8.549-2.267-2.979-2.01-4.671-4.908-5.267-8.419-.536-3.157-.456-6.311.598-9.383 1.45-4.225 4.303-6.982 8.557-8.223a17.69 17.69 0 0 1 9.404-.168c4.126 1.036 6.991 3.6 8.386 7.615 1.522 4.378 1.501 8.827-.379 13.112-2.155 4.911-6.145 7.246-11.323 7.727-.539.05-1.087.007-1.428.007zm.146-5.524c3.647.001 5.873-1.701 6.721-5.274.575-2.428.599-4.889-.013-7.326-.796-3.168-3.131-5.159-6.15-5.285-3.699-.154-6.202 1.439-7.316 4.736-.839 2.483-.894 5.023-.283 7.566.878 3.655 3.329 5.582 7.042 5.583z"/><path d="M215.486 60.175l-.003-2.378c-.013-.745.25-.87.851-.449 1.54 1.079 3.256 1.747 5.093 2.066 1.287.223 2.589.241 3.868-.113.872-.241 1.564-.74 1.75-1.666.199-.986.119-1.933-.732-2.675-1.053-.918-2.334-1.391-3.569-1.955l-3.349-1.621c-5.14-2.728-5.252-10.639-.107-13.725 3.088-1.853 6.397-2.066 9.819-1.477 3.296.567 3.291.597 3.291 3.909l-.001 2.012c-.004 1.16-.009 1.159-.984.612-1.953-1.095-4.044-1.6-6.277-1.435-1.868.138-3.056 1.402-2.891 3.035.093.915.547 1.591 1.32 2.07 1.164.724 2.436 1.216 3.69 1.745a19.38 19.38 0 0 1 3.495 1.923c4.333 2.989 4.005 9.756-.151 12.713-1.707 1.214-3.615 1.861-5.652 2.057-2.891.278-5.731-.051-8.482-1.057-.686-.251-1.056-.61-.994-1.397.057-.727.012-1.463.013-2.194m-52.042-19.66l.004 2.468c.015.657-.195.752-.728.385-1.763-1.213-3.686-1.928-5.853-1.917-3.837.018-6.864 2.384-7.793 6.134a12.3 12.3 0 0 0-.048 5.795c1.069 4.622 5.026 6.542 9.261 5.827 1.536-.259 2.949-.882 4.261-1.734.217-.141.416-.447.707-.309.298.143.182.486.184.744l.013 4.297c.012.602-.23.947-.753 1.211-1.48.747-3.046 1.197-4.679 1.364-4.255.436-8.273-.11-11.674-3.039-2.024-1.743-3.277-3.979-3.964-6.527-.958-3.552-.713-7.091.58-10.503 1.885-4.973 5.623-7.72 10.752-8.588a17.01 17.01 0 0 1 8.497.683c.903.31 1.368.777 1.246 1.79-.076.631-.015 1.279-.015 1.919"/><path d="M174.692 40.675c1.249-2.319 2.889-4.011 5.503-4.481 1.074-.193 2.165-.187 3.239.088.472.121.711.391.708.907v5.305c.003.502-.126.686-.631.404-.75-.419-1.583-.616-2.427-.697-2.611-.252-4.633 1.063-5.642 3.647-.538 1.379-.749 2.821-.75 4.296l-.003 12.987c-.001 1.13-.045 1.171-1.187 1.175-1.482.006-2.964-.019-4.445.009-.698.014-.962-.252-.96-.965l-.001-25.883c-.001-.71.255-.985.954-.973h4.717c.718-.012.956.302.933.994l-.009 3.189m-43.748 9.725l.001-12.607c.001-1.229.065-1.291 1.279-1.295l4.349-.009c.746-.014 1.097.225 1.095 1.044l-.001 25.763c.001.745-.257 1.036-1.005 1.018l-4.53-.012c-1.091-.005-1.185-.095-1.187-1.203l-.002-12.699m3.428-17.913c-2.212-.004-3.969-1.654-3.988-3.745-.02-2.155 1.78-3.916 4.033-3.945a3.95 3.95 0 0 1 3.979 3.887c.015 2.12-1.77 3.807-4.025 3.803"/></svg>