<svg xmlns="http://www.w3.org/2000/svg" width="300" height="90" fill="#001e2b" xmlns:v="https://vecta.io/nano"><path d="M24.302 15.403l-5.893-7.642c-.054-.054-.134-.054-.188 0l-5.893 7.642c-24.83 31.668 3.911 53.039 3.911 53.039l.241.161c.214 3.298.75 8.044.75 8.044h1.071 1.071s.536-4.719.75-8.044l.241-.188c.027.027 28.768-21.344 3.937-53.012zm-6 52.556s-1.286-1.099-1.634-1.662v-.054l1.554-34.483c0-.107.161-.107.161 0l1.554 34.483v.054c-.348.563-1.634 1.662-1.634 1.662zm53.787-7.036L60.112 31.671l-.027-.081h-9.318v1.966h1.504c.456 0 .886.189 1.208.512a1.69 1.69 0 0 1 .483 1.212l-.268 29.44c0 .916-.752 1.67-1.665 1.697l-1.531.027v1.939h9.077v-1.939l-.94-.027c-.913-.027-1.665-.781-1.665-1.697V36.977l13.051 31.406a1.19 1.19 0 0 0 1.101.754 1.19 1.19 0 0 0 1.101-.754l12.755-30.706.188 27.043c0 .943-.752 1.697-1.692 1.724h-.967v1.939h10.634v-1.939h-1.45c-.913 0-1.665-.781-1.692-1.697l-.08-29.44c0-.943.752-1.697 1.665-1.724l1.557-.027V31.59h-9.077zm83.508 5.009c-.296-.297-.458-.701-.458-1.187V50.282c0-2.752-.808-4.911-2.423-6.449-1.588-1.538-3.796-2.32-6.542-2.32-3.85 0-6.892 1.565-9.019 4.641-.027.054-.108.081-.188.081s-.135-.054-.135-.135l-.996-3.859h-1.669l-4.281 2.455v1.349h1.104c.511 0 .942.135 1.239.405s.458.675.458 1.241v17.025c0 .486-.161.89-.458 1.187s-.7.459-1.185.459h-1.077v1.97h9.854v-1.97h-1.077c-.485 0-.889-.162-1.185-.459s-.458-.702-.458-1.187V53.439c0-1.43.323-2.86.916-4.263.619-1.376 1.534-2.536 2.746-3.426s2.665-1.322 4.335-1.322c1.885 0 3.312.594 4.2 1.781s1.346 2.725 1.346 4.56v13.923c0 .485-.162.89-.458 1.187s-.7.459-1.185.459h-1.077v1.97h9.854v-1.97h-1.077c-.404.054-.781-.108-1.104-.405zm90.028-32.139c-2.724-1.45-5.768-2.202-9.053-2.202h-12.818v1.961h1.255c.481 0 .908.188 1.335.618.401.403.614.86.614 1.343v28.9c0 .483-.213.94-.614 1.343s-.854.618-1.335.618h-1.255v1.961h12.818c3.285 0 6.329-.752 9.053-2.202s4.94-3.599 6.542-6.339 2.43-6.043 2.43-9.804-.828-7.037-2.43-9.803c-1.629-2.793-3.819-4.915-6.542-6.393zm3.819 16.142c0 3.438-.614 6.339-1.816 8.675s-2.804 4.082-4.78 5.211-4.166 1.692-6.516 1.692h-2.59c-.481 0-.908-.188-1.335-.618-.401-.403-.614-.859-.614-1.343V36.291c0-.484.187-.913.614-1.343.4-.403.854-.618 1.335-.618h2.59c2.35 0 4.54.564 6.516 1.692s3.579 2.874 4.78 5.211c1.202 2.364 1.816 5.291 1.816 8.702zm35.451 1.961c-1.185-1.37-3.473-2.525-6.163-3.143 3.715-1.853 5.624-4.459 5.624-7.816 0-1.826-.483-3.465-1.454-4.862s-2.341-2.525-4.09-3.304-3.798-1.182-6.112-1.182h-14.509v1.961h1.158c.484 0 .915.188 1.346.618.404.403.619.86.619 1.343v28.9c0 .483-.215.94-.619 1.343s-.861.618-1.346.618h-1.265v1.961h15.749c2.395 0 4.629-.403 6.649-1.209s3.634-1.987 4.793-3.545c1.183-1.558 1.775-3.465 1.775-5.667-.027-2.364-.727-4.378-2.154-6.016zm-18.063 13.026c-.404-.403-.619-.859-.619-1.343V50.606h7.485c2.636 0 4.656.672 6.056 2.014s2.1 3.089 2.1 5.238a8.14 8.14 0 0 1-.915 3.706c-.62 1.182-1.537 2.122-2.773 2.847-1.212.725-2.72 1.101-4.468 1.101h-5.52c-.484 0-.915-.188-1.346-.591zm-.592-17.082V36.317c0-.484.188-.913.619-1.343.404-.403.861-.618 1.346-.618h3.554c2.556 0 4.441.645 5.627 1.88 1.183 1.262 1.775 2.874 1.775 4.862 0 2.041-.566 3.68-1.668 4.915-1.105 1.209-2.773 1.826-4.98 1.826zm-148.156-4.613c-2.057-1.124-4.354-1.713-6.839-1.713s-4.809.562-6.839 1.713c-2.057 1.124-3.687 2.757-4.889 4.818s-1.816 4.47-1.816 7.147.614 5.086 1.816 7.147 2.832 3.694 4.889 4.818 4.354 1.713 6.839 1.713 4.809-.562 6.839-1.713c2.057-1.124 3.687-2.757 4.889-4.818s1.816-4.47 1.816-7.147-.614-5.086-1.816-7.147-2.832-3.694-4.889-4.818zm1.977 11.965c0 3.292-.801 5.969-2.404 7.896-1.576 1.927-3.74 2.918-6.411 2.918s-4.835-.99-6.411-2.918c-1.603-1.927-2.404-4.604-2.404-7.896s.801-5.969 2.404-7.896c1.576-1.927 3.74-2.918 6.411-2.918s4.835.99 6.411 2.918c1.603 1.927 2.404 4.604 2.404 7.896zm92.697-11.965c-2.057-1.124-4.354-1.713-6.839-1.713s-4.809.562-6.839 1.713c-2.057 1.124-3.687 2.757-4.889 4.818s-1.816 4.47-1.816 7.147.614 5.086 1.816 7.147 2.832 3.694 4.889 4.818 4.354 1.713 6.839 1.713 4.809-.562 6.839-1.713c2.057-1.124 3.687-2.757 4.889-4.818s1.816-4.47 1.816-7.147-.614-5.086-1.816-7.147-2.858-3.694-4.889-4.818zm1.977 11.965c0 3.292-.802 5.969-2.404 7.896-1.576 1.927-3.74 2.918-6.411 2.918s-4.835-.99-6.411-2.918c-1.603-1.927-2.404-4.604-2.404-7.896 0-3.319.801-5.969 2.404-7.896 1.576-1.927 3.74-2.918 6.411-2.918s4.835.99 6.411 2.918 2.404 4.604 2.404 7.896zm-40.157-13.679c-2.153 0-4.116.457-5.892 1.371s-3.175 2.151-4.17 3.738a9.48 9.48 0 0 0-1.506 5.163c0 1.667.377 3.2 1.157 4.571.753 1.318 1.776 2.42 3.067 3.334l-3.847 5.217a2.11 2.11 0 0 0-.188 2.205c.377.726 1.076 1.156 1.883 1.156h1.103c-1.076.726-1.937 1.586-2.529 2.608-.699 1.156-1.049 2.366-1.049 3.603 0 2.313 1.022 4.222 3.04 5.647 1.991 1.425 4.789 2.151 8.313 2.151 2.448 0 4.789-.403 6.914-1.183 2.152-.78 3.901-1.936 5.192-3.442 1.318-1.506 1.991-3.334 1.991-5.432 0-2.205-.807-3.765-2.691-5.27-1.614-1.264-4.143-1.936-7.291-1.936h-10.761c-.027 0-.054-.027-.054-.027s-.027-.054 0-.08l2.798-3.765c.753.349 1.453.565 2.072.699.646.135 1.372.188 2.179.188 2.26 0 4.305-.457 6.08-1.371s3.202-2.151 4.224-3.738c1.022-1.56 1.533-3.307 1.533-5.163 0-1.99-.968-5.62-3.605-7.476 0-.027.027-.027.027-.027l5.784.645v-2.662h-9.255c-1.453-.457-2.959-.726-4.52-.726zm3.228 16.833c-1.022.538-2.125.834-3.228.834-1.803 0-3.39-.645-4.735-1.909s-2.018-3.119-2.018-5.486.673-4.222 2.018-5.486 2.933-1.909 4.735-1.909a6.56 6.56 0 0 1 3.228.834c1.022.538 1.856 1.372 2.529 2.474.646 1.103.995 2.474.995 4.087 0 1.64-.323 3.012-.995 4.087-.646 1.103-1.507 1.936-2.529 2.474zm-7.291 9.896h7.291c2.018 0 3.309.403 4.17 1.264s1.291 2.017 1.291 3.361c0 1.963-.78 3.576-2.341 4.787s-3.659 1.829-6.242 1.829c-2.26 0-4.143-.511-5.515-1.479s-2.072-2.447-2.072-4.329c0-1.183.323-2.286.969-3.254a6.16 6.16 0 0 1 2.448-2.178zm121.991-.358c-.531-.29-.931-.713-1.25-1.214-.292-.528-.453-1.082-.453-1.689a3.35 3.35 0 0 1 .453-1.689c.292-.528.719-.924 1.25-1.214s1.118-.449 1.784-.449 1.25.159 1.784.449.931.713 1.25 1.214c.292.528.453 1.082.453 1.689a3.35 3.35 0 0 1-.453 1.689c-.292.528-.719.924-1.25 1.214s-1.118.449-1.784.449c-.638 0-1.25-.132-1.784-.449zm3.275-.37c.451-.238.772-.607 1.038-1.03a3.16 3.16 0 0 0 .373-1.505 3.16 3.16 0 0 0-.373-1.505 2.45 2.45 0 0 0-1.038-1.03 3.12 3.12 0 0 0-1.491-.37 3.12 3.12 0 0 0-1.491.37c-.451.238-.772.607-1.038 1.03a3.16 3.16 0 0 0-.373 1.505 3.16 3.16 0 0 0 .373 1.505 2.45 2.45 0 0 0 1.038 1.03 3.12 3.12 0 0 0 1.491.37 3.04 3.04 0 0 0 1.491-.37zm-2.929-.924v-.238l.054-.026h.161c.051 0 .105-.027.131-.053.054-.053.054-.079.054-.132v-2.455a.2.2 0 0 0-.054-.132c-.054-.053-.08-.053-.131-.053h-.161l-.054-.026v-.238l.054-.026h1.384c.4 0 .692.079.931.264s.346.422.346.739c0 .238-.078.475-.266.633a1.05 1.05 0 0 1-.665.317l.319.106.611.977c.054.079.107.106.188.106h.158l.027.027v.237l-.027.027h-.823l-.054-.027-.853-1.425h-.212v.95a.2.2 0 0 0 .054.132c.054.053.08.053.131.053h.161l.054.026v.238l-.054.026h-1.411zm1.357-1.742c.215 0 .4-.053.507-.185.105-.106.185-.29.185-.502s-.054-.37-.158-.502-.268-.185-.453-.185h-.107c-.054 0-.105.026-.131.053-.054.053-.054.079-.054.132v1.188z"/></svg>