<?xml version="1.0" encoding="UTF-8" standalone="no"?>
<svg
   width="300"
   height="90"
   viewBox="0 0 300 90"
   fill="none"
   version="1.1"
   id="svg4293"
   sodipodi:docname="mongodb.svg"
   inkscape:version="1.1.1 (3bf5ae0d25, 2021-09-20)"
   xmlns:inkscape="http://www.inkscape.org/namespaces/inkscape"
   xmlns:sodipodi="http://sodipodi.sourceforge.net/DTD/sodipodi-0.dtd"
   xmlns="http://www.w3.org/2000/svg"
   xmlns:svg="http://www.w3.org/2000/svg">
  <defs
     id="defs4297" />
  <sodipodi:namedview
     id="namedview4295"
     pagecolor="#ffffff"
     bordercolor="#666666"
     borderopacity="1.0"
     inkscape:pageshadow="2"
     inkscape:pageopacity="0.0"
     inkscape:pagecheckerboard="0"
     showgrid="false"
     inkscape:zoom="1.7962381"
     inkscape:cx="167.01572"
     inkscape:cy="30.897909"
     inkscape:window-width="1866"
     inkscape:window-height="1016"
     inkscape:window-x="54"
     inkscape:window-y="27"
     inkscape:window-maximized="1"
     inkscape:current-layer="svg4293" />
  <g
     id="g4365"
     transform="matrix(0.26819696,0,0,0.26819696,2.2234767,7.7206226)">
    <path
       d="M 82.3229,28.6444 C 71.5367,15.8469 62.2485,2.84945 60.351,0.149971 c -0.1998,-0.1999613 -0.4995,-0.1999613 -0.6992,0 C 57.7542,2.84945 48.4661,15.8469 37.6798,28.6444 -54.9019,146.721 52.2613,226.406 52.2613,226.406 l 0.8988,0.6 C 53.959,239.303 55.9565,257 55.9565,257 h 3.9949 3.9949 c 0,0 1.9975,-17.597 2.7965,-29.994 l 0.8988,-0.7 c 0.0998,0.1 107.2634,-79.585 14.6813,-197.6616 z M 59.9514,224.606 c 0,0 -4.7938,-4.099 -6.0922,-6.198 v -0.201 L 59.6518,89.6326 c 0,-0.4 0.5993,-0.4 0.5993,0 l 5.7925,128.5744 v 0.201 c -1.2983,2.099 -6.0922,6.198 -6.0922,6.198 z"
       fill="#001e2b"
       id="path4275" />
    <path
       d="M 260.501,198.369 215.845,89.3012 215.745,89 h -34.744 v 7.3314 h 5.607 c 1.702,0 3.304,0.703 4.506,1.9082 1.201,1.2051 1.802,2.8124 1.802,4.5194 l -1.001,109.771 c 0,3.414 -2.803,6.226 -6.208,6.327 l -5.707,0.1 v 7.231 h 33.843 v -7.231 l -3.505,-0.1 c -3.404,-0.101 -6.208,-2.913 -6.208,-6.327 V 109.086 l 48.662,117.102 c 0.7,1.707 2.302,2.812 4.105,2.812 1.802,0 3.404,-1.105 4.105,-2.812 l 47.56,-114.491 0.701,100.833 c 0,3.515 -2.804,6.327 -6.308,6.427 h -3.605 v 7.231 H 339 v -7.231 h -5.407 c -3.404,0 -6.208,-2.912 -6.308,-6.327 l -0.3,-109.771 c 0,-3.5147 2.803,-6.3268 6.208,-6.4272 L 339,96.3314 V 89 h -33.843 z"
       fill="#001e2b"
       id="path4277" />
    <path
       d="m 571.869,217.046 c -1.105,-1.106 -1.707,-2.615 -1.707,-4.426 v -53.924 c 0,-10.261 -3.011,-18.31 -9.035,-24.044 -5.922,-5.735 -14.154,-8.652 -24.393,-8.652 -14.356,0 -25.699,5.835 -33.63,17.304 -0.1,0.201 -0.401,0.302 -0.702,0.302 -0.302,0 -0.502,-0.202 -0.502,-0.503 l -3.715,-14.387 h -6.224 L 476,137.871 v 5.03 h 4.116 c 1.907,0 3.513,0.503 4.618,1.51 1.104,1.006 1.706,2.515 1.706,4.627 v 63.481 c 0,1.811 -0.602,3.32 -1.706,4.427 -1.105,1.106 -2.61,1.71 -4.417,1.71 h -4.016 V 226 h 36.741 v -7.344 h -4.015 c -1.807,0 -3.313,-0.604 -4.417,-1.71 -1.104,-1.107 -1.707,-2.616 -1.707,-4.427 v -42.052 c 0,-5.332 1.205,-10.664 3.414,-15.896 2.308,-5.13 5.721,-9.456 10.239,-12.776 4.517,-3.32 9.938,-4.93 16.162,-4.93 7.027,0 12.348,2.213 15.66,6.64 3.313,4.427 5.02,10.161 5.02,17.002 v 51.912 c 0,1.81 -0.603,3.319 -1.707,4.426 -1.104,1.107 -2.61,1.71 -4.417,1.71 h -4.015 v 7.344 H 580 v -7.344 h -4.015 c -1.506,0.202 -2.912,-0.402 -4.116,-1.509 z"
       fill="#001e2b"
       id="path4279" />
    <path
       d="M 907.546,97.2119 C 897.39,91.804 886.039,89 873.792,89 H 826 v 7.3106 h 4.68 c 1.792,0 3.385,0.7011 4.978,2.3034 1.494,1.502 2.29,3.205 2.29,5.007 v 107.758 c 0,1.802 -0.796,3.505 -2.29,5.007 -1.493,1.502 -3.186,2.303 -4.978,2.303 H 826 V 226 h 47.792 c 12.247,0 23.598,-2.804 33.754,-8.212 10.155,-5.408 18.42,-13.42 24.394,-23.634 5.974,-10.215 9.06,-22.533 9.06,-36.554 0,-14.02 -3.086,-26.238 -9.06,-36.553 -6.074,-10.415 -14.239,-18.327 -24.394,-23.8351 z M 921.784,157.4 c 0,12.819 -2.29,23.634 -6.771,32.347 -4.48,8.713 -10.455,15.222 -17.823,19.429 -7.367,4.206 -15.532,6.309 -24.294,6.309 h -9.658 c -1.792,0 -3.385,-0.701 -4.978,-2.304 -1.494,-1.502 -2.29,-3.204 -2.29,-5.007 V 106.526 c 0,-1.803 0.697,-3.405 2.29,-5.008 1.493,-1.502 3.186,-2.3031 4.978,-2.3031 h 9.658 c 8.762,0 16.927,2.1031 24.294,6.3091 7.368,4.206 13.343,10.716 17.823,19.428 4.481,8.813 6.771,19.729 6.771,32.448 z"
       fill="#001e2b"
       id="path4281" />
    <path
       d="m 1053.97,164.711 c -4.42,-5.108 -12.95,-9.414 -22.98,-11.718 13.85,-6.91 20.97,-16.624 20.97,-29.142 0,-6.81 -1.8,-12.919 -5.42,-18.127 -3.61,-5.207 -8.73,-9.4134 -15.25,-12.3177 C 1024.76,90.5021 1017.13,89 1008.5,89 h -54.098 v 7.3106 h 4.316 c 1.806,0 3.412,0.7011 5.018,2.3034 1.506,1.502 2.309,3.205 2.309,5.007 v 107.758 c 0,1.802 -0.803,3.505 -2.309,5.007 -1.505,1.502 -3.212,2.303 -5.018,2.303 H 954 V 226 h 58.72 c 8.93,0 17.26,-1.502 24.79,-4.507 7.53,-3.004 13.55,-7.41 17.87,-13.219 4.41,-5.808 6.62,-12.919 6.62,-21.131 -0.1,-8.813 -2.71,-16.324 -8.03,-22.432 z m -67.349,48.57 c -1.506,-1.502 -2.309,-3.204 -2.309,-5.007 v -48.371 h 27.908 c 9.83,0 17.36,2.504 22.58,7.511 5.22,5.008 7.83,11.517 7.83,19.529 0,4.807 -1.21,9.514 -3.41,13.82 -2.31,4.407 -5.73,7.912 -10.34,10.616 -4.52,2.704 -10.14,4.106 -16.66,4.106 h -20.581 c -1.806,0 -3.412,-0.701 -5.018,-2.204 z m -2.208,-63.693 v -42.962 c 0,-1.803 0.702,-3.405 2.308,-5.008 1.506,-1.502 3.212,-2.303 5.019,-2.303 h 13.25 c 9.53,0 16.56,2.404 20.98,7.01 4.41,4.707 6.62,10.716 6.62,18.127 0,7.611 -2.11,13.72 -6.22,18.326 -4.12,4.507 -10.34,6.81 -18.57,6.81 z"
       fill="#001e2b"
       id="path4283" />
    <path
       d="M 431.999,132.388 C 424.329,128.196 415.763,126 406.5,126 c -9.263,0 -17.929,2.096 -25.499,6.388 -7.67,4.191 -13.746,10.279 -18.228,17.964 C 358.291,158.037 356,167.02 356,177 c 0,9.98 2.291,18.963 6.773,26.648 4.482,7.685 10.558,13.773 18.228,17.965 7.67,4.191 16.236,6.387 25.499,6.387 9.263,0 17.929,-2.096 25.499,-6.387 7.67,-4.192 13.746,-10.28 18.228,-17.965 C 454.709,195.963 457,186.98 457,177 c 0,-9.98 -2.291,-18.963 -6.773,-26.648 -4.482,-7.685 -10.558,-13.773 -18.228,-17.964 z M 439.37,177 c 0,12.276 -2.988,22.256 -8.965,29.442 -5.876,7.186 -13.944,10.879 -23.905,10.879 -9.96,0 -18.029,-3.693 -23.905,-10.879 -5.977,-7.186 -8.965,-17.166 -8.965,-29.442 0,-12.276 2.988,-22.256 8.965,-29.442 5.876,-7.186 13.945,-10.879 23.905,-10.879 9.961,0 18.029,3.693 23.905,10.879 5.977,7.186 8.965,17.166 8.965,29.442 z"
       fill="#001e2b"
       id="path4285" />
    <path
       d="M 784.999,132.388 C 777.329,128.196 768.763,126 759.5,126 c -9.263,0 -17.929,2.096 -25.499,6.388 -7.67,4.191 -13.746,10.279 -18.228,17.964 C 711.291,158.037 709,167.02 709,177 c 0,9.98 2.291,18.963 6.773,26.648 4.482,7.685 10.558,13.773 18.228,17.965 7.67,4.191 16.236,6.387 25.499,6.387 9.263,0 17.929,-2.096 25.499,-6.387 7.67,-4.192 13.746,-10.28 18.228,-17.965 C 807.709,195.963 810,186.98 810,177 c 0,-9.98 -2.291,-18.963 -6.773,-26.648 -4.482,-7.685 -10.658,-13.773 -18.228,-17.964 z M 792.37,177 c 0,12.276 -2.989,22.256 -8.965,29.442 -5.877,7.186 -13.945,10.879 -23.905,10.879 -9.961,0 -18.029,-3.693 -23.905,-10.879 -5.977,-7.186 -8.965,-17.166 -8.965,-29.442 0,-12.376 2.988,-22.256 8.965,-29.442 5.876,-7.186 13.944,-10.879 23.905,-10.879 9.96,0 18.028,3.693 23.905,10.879 5.877,7.186 8.965,17.166 8.965,29.442 z"
       fill="#001e2b"
       id="path4287" />
    <path
       d="m 642.64,126 c -8.026,0 -15.348,1.704 -21.969,5.113 -6.621,3.409 -11.837,8.022 -15.549,13.937 -3.711,5.815 -5.617,12.333 -5.617,19.251 0,6.216 1.404,11.931 4.313,17.045 2.809,4.913 6.621,9.023 11.436,12.432 l -14.345,19.452 c -1.806,2.406 -2.006,5.614 -0.702,8.221 1.404,2.707 4.012,4.312 7.022,4.312 h 4.113 c -4.013,2.707 -7.223,5.915 -9.43,9.725 -2.608,4.311 -3.912,8.823 -3.912,13.435 0,8.623 3.812,15.742 11.335,21.056 7.424,5.314 17.856,8.021 30.997,8.021 9.129,0 17.856,-1.504 25.781,-4.412 8.025,-2.907 14.545,-7.219 19.36,-12.833 4.916,-5.615 7.424,-12.433 7.424,-20.254 0,-8.221 -3.01,-14.037 -10.032,-19.651 -6.018,-4.713 -15.448,-7.219 -27.185,-7.219 h -40.125 c -0.1,0 -0.201,-0.101 -0.201,-0.101 0,0 -0.1,-0.2 0,-0.3 l 10.433,-14.037 c 2.809,1.303 5.417,2.105 7.724,2.606 2.407,0.502 5.116,0.702 8.125,0.702 8.427,0 16.051,-1.704 22.671,-5.113 6.621,-3.409 11.938,-8.021 15.75,-13.937 3.811,-5.815 5.717,-12.332 5.717,-19.25 0,-7.42 -3.611,-20.956 -13.442,-27.874 0,-0.1 0.101,-0.1 0.101,-0.1 L 694,138.633 v -9.926 H 659.492 C 654.075,127.003 648.458,126 642.64,126 Z m 12.037,62.765 c -3.812,2.005 -7.925,3.108 -12.037,3.108 -6.721,0 -12.64,-2.406 -17.656,-7.118 -5.015,-4.713 -7.523,-11.631 -7.523,-20.454 0,-8.823 2.508,-15.742 7.523,-20.454 5.016,-4.712 10.935,-7.119 17.656,-7.119 4.213,0 8.225,1.003 12.037,3.108 3.812,2.006 6.922,5.114 9.43,9.225 2.407,4.111 3.711,9.224 3.711,15.24 0,6.116 -1.204,11.229 -3.711,15.24 -2.408,4.111 -5.618,7.219 -9.43,9.224 z m -27.185,36.897 h 27.185 c 7.524,0 12.339,1.504 15.549,4.713 3.21,3.208 4.815,7.519 4.815,12.533 0,7.319 -2.909,13.335 -8.727,17.847 -5.819,4.512 -13.643,6.818 -23.273,6.818 -8.427,0 -15.449,-1.905 -20.565,-5.515 -5.116,-3.609 -7.724,-9.124 -7.724,-16.142 0,-4.412 1.204,-8.523 3.612,-12.132 2.407,-3.61 5.316,-6.217 9.128,-8.122 z"
       fill="#001e2b"
       id="path4289" />
    <path
       d="m 1082.35,224.327 c -1.98,-1.083 -3.47,-2.658 -4.66,-4.528 -1.09,-1.968 -1.69,-4.035 -1.69,-6.299 0,-2.264 0.6,-4.429 1.69,-6.299 1.09,-1.969 2.68,-3.445 4.66,-4.528 1.99,-1.082 4.17,-1.673 6.65,-1.673 2.48,0 4.66,0.591 6.65,1.673 1.98,1.083 3.47,2.658 4.66,4.528 1.09,1.968 1.69,4.035 1.69,6.299 0,2.264 -0.6,4.429 -1.69,6.299 -1.09,1.969 -2.68,3.445 -4.66,4.528 -1.99,1.082 -4.17,1.673 -6.65,1.673 -2.38,0 -4.66,-0.492 -6.65,-1.673 z m 12.21,-1.378 c 1.68,-0.886 2.88,-2.264 3.87,-3.839 0.89,-1.673 1.39,-3.543 1.39,-5.61 0,-2.067 -0.5,-3.937 -1.39,-5.61 -0.9,-1.673 -2.19,-2.953 -3.87,-3.839 -1.69,-0.886 -3.48,-1.378 -5.56,-1.378 -2.08,0 -3.87,0.492 -5.56,1.378 -1.68,0.886 -2.88,2.264 -3.87,3.839 -0.89,1.673 -1.39,3.543 -1.39,5.61 0,2.067 0.5,3.937 1.39,5.61 0.9,1.673 2.19,2.953 3.87,3.839 1.69,0.886 3.48,1.378 5.56,1.378 2.08,0 3.97,-0.492 5.56,-1.378 z m -10.92,-3.445 v -0.886 l 0.2,-0.098 h 0.6 c 0.19,0 0.39,-0.099 0.49,-0.197 0.2,-0.197 0.2,-0.295 0.2,-0.492 v -9.154 c 0,-0.197 -0.1,-0.393 -0.2,-0.492 -0.2,-0.197 -0.3,-0.197 -0.49,-0.197 h -0.6 l -0.2,-0.098 v -0.886 l 0.2,-0.098 h 5.16 c 1.49,0 2.58,0.295 3.47,0.984 0.9,0.689 1.29,1.575 1.29,2.756 0,0.886 -0.29,1.771 -0.99,2.362 -0.69,0.689 -1.49,1.083 -2.48,1.181 l 1.19,0.394 2.28,3.641 c 0.2,0.296 0.4,0.394 0.7,0.394 h 0.59 l 0.1,0.099 v 0.885 l -0.1,0.099 h -3.07 l -0.2,-0.099 -3.18,-5.315 h -0.79 v 3.544 c 0,0.197 0.1,0.393 0.2,0.492 0.2,0.197 0.3,0.197 0.49,0.197 h 0.6 l 0.2,0.098 v 0.886 l -0.2,0.098 h -5.26 z m 5.06,-6.496 c 0.8,0 1.49,-0.197 1.89,-0.689 0.39,-0.394 0.69,-1.083 0.69,-1.87 0,-0.788 -0.2,-1.378 -0.59,-1.87 -0.4,-0.492 -1,-0.689 -1.69,-0.689 h -0.4 c -0.2,0 -0.39,0.098 -0.49,0.197 -0.2,0.196 -0.2,0.295 -0.2,0.492 v 4.429 z"
       fill="#001e2b"
       id="path4291" />
  </g>
</svg>
