<svg xmlns="http://www.w3.org/2000/svg" width="300" height="90" fill-rule="evenodd" xmlns:v="https://vecta.io/nano"><path d="M34.921 69.69c1.008-1.041 1.554-2.332 1.971-3.682.797-2.58 1.159-5.242 1.404-7.92.814-8.899.467-17.822.537-26.736l.005-7.547c.005-1.531-.336-2.888-1.819-3.723.077-.063.116-.123.154-.123l9.962.015c1.104.004 1.751.537 2.114 1.614l9.446 27.821 2.38 7.087c.086.256.182.512.307.75.315.598.831.636 1.217.069.216-.316.378-.674.526-1.029l12.109-29.057 2.207-5.235c.598-1.404 1.575-2.133 3.203-2.07 2.308.09 4.622.03 6.933.016.44-.003.555.075.325.502-.815 1.513-1.083 3.173-1.224 4.855-.098 1.175-.121 2.355-.12 3.535l-.002 19.274c.039 5.436.409 10.854 1.277 16.229.285 1.762.769 3.471 1.59 5.068.174.339.159.458-.271.457l-10.604-.003c-.332.001-.45-.06-.335-.431.999-3.212 1.194-6.529 1.237-9.859l.053-29.606c.001-.424-.03-.851-.083-1.272-.031-.244-.104-.51-.413-.567-.286-.052-.495.104-.641.318-.14.206-.246.437-.344.667L60.605 70.083c-.067.158-.139.315-.255.578l-.87-2.228-14.246-36.69-1.085-2.749c-.043-.107-.098-.212-.164-.307-.186-.265-.341-.621-.739-.555s-.446.448-.514.764c-.181.84-.111 1.697-.114 2.546l-.037 17.474-.034 8.821c.005 2.706.009 5.415.409 8.102.186 1.248.472 2.466 1.07 3.592.099.185.28.419-.138.416-2.989-.019-5.979.062-8.968-.041v-.116" fill="#37939b"/><path d="M91.207.486c.616.253 1.279.091 1.915.216.783.154 1.557.315 2.274.671 1.719.857 2.554 2.293 2.711 4.163.177 2.094-.239 3.993-1.801 5.529-1.085 1.066-2.463 1.42-3.902 1.602-2.086.264-4.185.105-6.277.152-.321.007-.385-.122-.384-.41L85.742 1.1c-.001-.313.108-.383.402-.389l3.37-.113c.14-.006.317.078.411-.112h1.282zM88.43 6.665l-.001 4.179c0 .24-.031.458.339.446 1.124-.035 2.25.049 3.371-.119 1.622-.243 2.682-1.201 3.011-2.8.216-1.05.236-2.114.046-3.172-.317-1.76-1.262-2.673-3.021-2.976-1.082-.186-2.169-.076-3.254-.11-.426-.013-.506.162-.5.546l.008 4.005zM180.355.486c.598.25 1.247.053 1.858.217l1.361.298c2.6.793 3.912 2.838 3.717 5.768-.145 2.175-.968 3.981-2.938 5.094-1.227.693-2.613.857-3.992.906l-5.067.051c-.331.005-.423-.096-.422-.423V1.135c-.001-.324.081-.422.417-.426l3.432-.11c.123-.005.28.06.353-.113zm-2.777 6.211l-.004 4.177c-.002.275.037.427.373.417l2.618-.038c2.163-.15 3.327-1.055 3.72-2.859a8.14 8.14 0 0 0 .067-3.111c-.313-1.848-1.274-2.773-3.122-3.07-1.063-.17-2.13-.064-3.194-.096-.414-.012-.467.172-.463.519l.007 4.061zM61.141.486l1.602.429c2.722.832 4.193 3.252 4.042 6.129-.198 3.774-3.062 5.653-6.215 5.962-1.933.189-3.793-.054-5.426-1.25-2.884-2.112-3.61-7.631.753-10.213A6.99 6.99 0 0 1 58.62.595c.109-.014.239.019.308-.11zM63.99 7.05c-.002-.979-.157-1.929-.643-2.792-.866-1.535-2.19-2.335-3.964-2.239-1.71.093-2.846 1.034-3.413 2.623a5.72 5.72 0 0 0 .073 4.138c.916 2.306 3.409 3.376 5.574 2.386 1.755-.803 2.323-2.319 2.373-4.116zM109.969.486l1.658.456c2.382.796 3.857 2.9 3.947 5.396.151 4.165-2.857 6.377-6.325 6.679-1.688.147-3.324-.051-4.833-.927-3.266-1.896-4.218-7.548-.087-10.321a7.38 7.38 0 0 1 2.949-1.163c.124-.02.281.037.36-.121h2.331zm2.804 6.712c-.006-1.438-.278-2.59-1.055-3.572-.963-1.216-2.245-1.764-3.785-1.592-1.55.174-2.599 1.059-3.138 2.5a5.75 5.75 0 0 0 .056 4.3c.971 2.379 3.642 3.39 5.812 2.204 1.598-.873 2.075-2.353 2.11-3.841zM45.759.486l1.692.354c.487.086.773.308.729.842-.014.172-.001.348.014.522.023.278.024.522-.256.712-.298.202-.502.038-.738-.094-1.203-.676-2.497-.979-3.864-.784-2.853.407-3.837 2.57-3.716 5.017a6.77 6.77 0 0 0 .233 1.427c.496 1.833 1.844 2.895 3.805 3.026a7.84 7.84 0 0 0 2.027-.135c.316-.062.439-.184.432-.532L46.095 7.3c-.013-.451.132-.561.556-.535a17.55 17.55 0 0 0 1.747.003c.309-.012.397.095.395.396l-.004 4.876c0 .208-.016.355-.28.414-2.326.52-4.663.855-7.033.346-2.404-.516-3.992-1.935-4.514-4.363-.53-2.463.094-4.602 2.069-6.26.922-.774 2.008-1.225 3.182-1.484.212-.047.467-.004.631-.208h2.914" fill="#465661"/><path d="M165.77 71.095c-2.96.099-6.007-.375-8.965-1.401-2.484-.861-4.725-2.135-6.718-3.863-3.11-2.696-5.071-6.103-6.305-9.964-.586-1.833-.937-3.715-1.194-5.627-.3-2.229-.291-4.464-.187-6.684a29.79 29.79 0 0 1 1.393-7.701c.865-2.704 2.032-5.255 3.695-7.571 2.033-2.832 4.544-5.112 7.643-6.757 2.662-1.413 5.485-2.23 8.469-2.596 1.811-.222 3.623-.303 5.435-.2 3.678.207 7.234.935 10.528 2.672 3.41 1.798 6.045 4.395 7.973 7.711 1.576 2.711 2.524 5.65 3.029 8.724.223 1.359.39 2.731.424 4.123.024.98.104 1.963.066 2.944-.231 5.903-1.574 11.473-4.993 16.416-1.997 2.886-4.548 5.156-7.626 6.845-2.538 1.393-5.262 2.218-8.112 2.673-1.453.232-2.914.277-4.554.255zm17.082-25.433c.025-1.986-.153-4.239-.519-6.476-.583-3.573-1.571-7.015-3.49-10.128-2.583-4.188-6.264-6.625-11.266-6.868-3.517-.171-6.787.588-9.642 2.742-2.865 2.162-4.621 5.093-5.771 8.419-1.257 3.639-1.653 7.402-1.579 11.235.064 3.355.454 6.665 1.356 9.899 1.084 3.887 2.762 7.444 5.932 10.126 1.036.876 2.195 1.545 3.447 2.058 2.049.84 4.195 1.062 6.384.942 3.39-.186 6.387-1.345 8.901-3.657 1.83-1.683 3.129-3.732 4.084-6.002 1.615-3.84 2.197-7.871 2.164-12.291zm-92.05.95c-.013-5.821.916-10.778 3.337-15.378 3.615-6.87 9.299-10.946 16.985-12.171 4.746-.756 9.451-.493 14.008 1.108 6.253 2.197 10.332 6.582 12.565 12.73 1.597 4.397 1.99 8.954 1.682 13.59-.289 4.351-1.308 8.512-3.402 12.364-3.642 6.701-9.26 10.685-16.808 11.885-4.885.776-9.722.498-14.391-1.231-6.285-2.327-10.262-6.879-12.393-13.119a30.09 30.09 0 0 1-1.583-9.777zm8.191-2.752c-.023 1.55.078 3.092.245 4.631.393 3.634 1.19 7.163 2.793 10.474 1.215 2.509 2.833 4.703 5.154 6.319 2.728 1.9 5.789 2.518 9.058 2.321 3.286-.199 6.2-1.312 8.649-3.538 2.698-2.452 4.253-5.574 5.225-9.015 1.094-3.874 1.345-7.83 1.077-11.833-.24-3.584-.84-7.095-2.128-10.464-1.15-3.006-2.732-5.754-5.337-7.738-4.365-3.323-9.218-3.629-14.223-1.821-3.884 1.403-6.365 4.366-8.056 8.025-1.853 4.01-2.461 8.268-2.457 12.639zm133.171 25.993h-1.438c-1.553 0-3.108-.039-4.66.009-2.368.075-4.243-.858-5.611-2.731l-6.192-8.707-6.575-9.361c-1.429-2.085-3.309-3.322-5.865-3.484-.296-.019-.504-.077-.501.364l.069 16.888c.058 2.304.318 4.594 1.476 6.669.184.33.014.352-.245.352a7035.88 7035.88 0 0 0-10.02.001c-.301 0-.455-.04-.253-.383 1.495-2.534 1.89-5.323 1.89-8.201l-.002-32.62c-.001-2.012-.094-4.018-.59-5.984-.199-.791-.465-1.558-.873-2.263-.23-.397-.131-.456.283-.464a183.57 183.57 0 0 0 6.918-.261c3.911-.219 7.818-.548 11.741-.516 2.014.017 3.979.295 5.858 1.054 3.784 1.529 6.059 4.902 6.139 8.974.088 4.455-1.842 7.93-5.128 10.77-1.788 1.545-3.805 2.73-5.984 3.641-.34.142-.503.217-.208.62l13.999 19.19c1.546 2.122 3.359 4.003 5.272 5.794l.546.508-.048.139zm-30.786-36.745h-.046l-.001 8.821c0 .289-.058.552.399.598 2.151.215 4.296.292 6.431-.126 3.575-.699 6.256-2.541 7.593-6.025.9-2.343 1.009-4.781.735-7.254-.378-3.407-2.195-5.464-5.538-6.233-3.019-.694-6.092-.561-9.155-.576-.261-.001-.328.121-.336.355-.018.54-.078 1.08-.08 1.621l-.004 8.819zm63.294 29.216l-.52 2.639-.782 4.04c-.062.353-.181.477-.539.505l-6.333.341-22.722.004c-.719 0-.723-.003-.384-.655 1.014-1.949 1.317-4.068 1.49-6.214.119-1.485.115-2.975.114-4.464l-.012-30.129c-.004-2.126-.122-4.251-.764-6.307a8.81 8.81 0 0 0-.744-1.758c-.151-.264-.125-.393.207-.378h.349l25.926-.011c.52-.001.755.083.773.667l.256 5.262c-.209.059-.292-.105-.408-.191-1.931-1.43-4.165-2.021-6.499-2.309-3.85-.474-7.719-.166-11.579-.261-.433-.011-.402.226-.402.509l.002 7.315-.009 10.333c-.002.401.106.527.518.524 4.367-.033 8.734-.036 13.097-.244 1.375-.066 2.747-.187 4.121-.279.187-.012.377-.002.667-.002-.54.888-1.238 1.504-2.04 2.01-1.739 1.096-3.689 1.585-5.688 1.92-3.309.556-6.651.49-9.988.5-.496.001-.695.077-.693.648l.006 19.737c-.001.458.078.63.59.625 3.282-.03 6.567.064 9.845-.052 4.339-.154 8.381-1.288 11.802-4.119.07-.058.157-.095.344-.206" fill="#37939b"/><path d="M135.723 82.556l.002-6.153c.001-.229-.102-.509.329-.512 2.442-.019 4.884-.301 7.327-.042 1.587.168 3.084.577 4.297 1.704.987.917 1.475 2.077 1.623 3.377.272 2.39-.155 4.588-1.944 6.359-1.227 1.216-2.805 1.595-4.444 1.787-2.264.266-4.539.091-6.808.149-.382.01-.387-.175-.386-.457l.004-6.211zm2.933-.057l-.002 4.584c-.001.27-.013.484.378.477l3.546-.115c1.92-.236 3.115-1.288 3.494-3.123a9.27 9.27 0 0 0 .037-3.57c-.337-1.835-1.379-2.839-3.228-3.17-1.216-.218-2.439-.086-3.658-.128-.447-.015-.589.112-.579.577l.012 4.468zm-66.885-.001c-.013 3.513-2.246 6.117-5.876 6.796-2.065.386-4.109.325-6.014-.667-4.282-2.228-4.726-8.317-.842-11.294 2.548-1.953 6.802-2.265 9.579-.654 2.224 1.291 3.141 3.32 3.154 5.818zm-12.272-.141c-.014 1.063.185 2.083.717 3.007.988 1.717 2.497 2.596 4.48 2.411 1.841-.172 3.13-1.193 3.695-2.977.547-1.729.431-3.439-.434-5.052-1.385-2.582-4.872-3.255-6.941-1.328-1.131 1.053-1.493 2.442-1.516 3.939zm171.373-6.695c1.336.004 2.626.241 3.829.831 2.487 1.219 3.616 3.649 3.503 6.307-.181 4.253-3.434 6.242-6.687 6.623-1.442.169-2.875.099-4.253-.385-2.479-.87-3.922-2.656-4.337-5.207-.42-2.585.369-4.767 2.459-6.432 1.607-1.28 3.465-1.757 5.485-1.737zm4.259 7.237c-.002-1.102-.17-2.032-.603-2.889-.821-1.625-2.127-2.58-3.983-2.668-1.773-.084-3.161.63-3.949 2.226-1.022 2.067-.947 4.156.264 6.134.939 1.535 2.84 2.374 4.493 2.064 1.928-.361 3.134-1.5 3.6-3.402.129-.526.203-1.062.178-1.464zm25.157 2.197l-.002-6.191-.056-2.609c-.01-.298.094-.393.399-.408 1.75-.088 1.753-.096 1.749 1.61l-.025 11.084c0 .37-.123.49-.473.637-.953.4-1.538.102-2.202-.651-2.472-2.802-5.027-5.53-7.552-8.286l-.412-.437.003 4.452.081 4.581c.008.303-.124.359-.381.342-.558-.037-1.268.226-1.632-.099-.345-.308-.088-1.021-.088-1.555l.008-11.085c-.001-.437.1-.557.565-.605 1.137-.117 1.916.26 2.682 1.146 2.254 2.605 4.625 5.11 6.95 7.653l.388.422m-148.702-5.195l.003 4.502.082 4.232c.014.432-.073.654-.564.587-.511-.07-1.199.224-1.496-.128-.253-.299-.094-.958-.091-1.457l.065-11.138c.001-.47.117-.574.598-.628 1.135-.128 1.877.296 2.623 1.153 2.3 2.642 4.705 5.194 7.066 7.783.087.096.146.217.31.247l-.003-4.374-.081-4.406c-.009-.318.115-.398.406-.385.426.018.856.029 1.28-.003.384-.028.444.139.443.475l-.016 12.303c.001.353-.138.456-.44.532-1.336.335-1.324.334-2.236-.667l-7.642-8.359c-.098-.107-.168-.262-.31-.271m95.619-74.064c1.268.319 2.116.997 2.505 2.153.568 1.692-.257 3.52-1.9 4.25-.918.407-1.889.567-2.887.572-1.456.007-2.913-.01-4.368.01-.378.006-.495-.095-.494-.482l.011-11.143c0-.207-.103-.487.297-.481 1.977.026 3.954-.244 5.93.003.445.056.875.165 1.284.349 1.791.805 2.05 3.015.49 4.204-.245.186-.517.338-.868.565zm-4.492 3.338l-.002 1.798c-.002.219.027.37.307.366.776-.012 1.555.044 2.324-.074 1.061-.162 1.68-.857 1.718-1.874.047-1.267-.427-1.963-1.559-2.232-.818-.195-1.656-.148-2.49-.154-.29-.002-.301.161-.3.373l.002 1.798zm0-5.364l-.003 1.445c-.006.236.054.351.32.342.675-.024 1.353.041 2.021-.118.88-.21 1.279-.815 1.228-1.88-.043-.884-.5-1.368-1.384-1.495-.619-.089-1.236.017-1.853-.015-.254-.013-.34.084-.332.333l.003 1.387zM71.144 6.774l.004-5.572c.001-.198-.128-.489.284-.487 2.113.013 4.225-.237 6.338.009 2.165.252 3.463 1.913 3.06 3.959-.235 1.193-1.044 1.931-2.144 2.32-.579.205-.572.42-.308.888.591 1.045 1.168 2.095 1.987 2.988.417.454.906.771 1.531.879.189.032.579-.147.534.222-.041.337.045.83-.49.939-1.445.293-2.778.123-3.894-.945-.985-.943-1.584-2.139-2.194-3.326-.472-.917-.775-1.067-1.792-.899-.31.051-.231.262-.231.434l.006 4.121c.007.404-.104.545-.517.519a12.69 12.69 0 0 0-1.63.001c-.424.028-.563-.085-.556-.534l.012-5.514zm2.682-2.607l.002 1.793c.001.163-.048.38.224.376.925-.014 1.865.12 2.764-.193s1.348-1.145 1.252-2.234c-.087-.984-.581-1.495-1.592-1.693-.769-.151-1.543-.078-2.314-.111-.31-.014-.344.134-.339.383l.004 1.678zm10.44 76.548l-.008-4.294c-.005-.39.084-.556.511-.534a21.77 21.77 0 0 0 1.979.002c.385-.015.488.118.486.497l-.033 7.774c-.118 2.723 1.376 3.321 3.518 3.287a4.45 4.45 0 0 0 1.746-.397c1.086-.484 1.64-1.328 1.653-2.503l.035-7.946c-.006-.613.18-.795.748-.709.171.026.349.001.523.004 1.017.022.906-.167.884.89l-.214 7.357c-.058 1.568-.386 3.036-1.756 4.051-.877.65-1.864 1.016-2.937 1.166-1.276.177-2.557.197-3.814-.093-2.263-.52-3.296-1.92-3.321-4.434l-.002-4.119m83.473-71.75l-.003-6.118-.064-1.794c-.013-.251.073-.364.328-.336.038.004.078.001.116 0 1.52-.041 1.522-.041 1.519 1.457l-.009 9.92c.002.437-.116.595-.555.746-.767.265-1.231.105-1.776-.511l-6.965-7.635c-.089-.097-.161-.211-.243-.321-.27.211-.173.44-.171.631l.123 7.362c.009.368-.08.45-.433.455-1.509.023-1.514.034-1.508-1.481l.04-10.092c0-.437.127-.509.548-.551 1.01-.103 1.7.235 2.378 1.016l6.249 6.874c.124.136.218.313.423.378m-38.198.016l-.003-3.726-.091-4.056c-.013-.372.088-.49.479-.491 1.473-.003 1.473-.019 1.473 1.466l.011 9.978c.002.406-.135.532-.504.669-.79.293-1.296.136-1.879-.527-2.276-2.585-4.634-5.099-6.965-7.635-.099-.108-.164-.264-.367-.305l.002 2.226.124 5.679c.016.479-.153.571-.591.564-1.349-.02-1.351-.003-1.349-1.351l.007-10.093c-.002-.523.147-.638.676-.688.969-.092 1.594.27 2.221.982 2.098 2.381 4.267 4.7 6.408 7.043.089.097.155.219.349.264m43.268 80.238c-1.041 0-1.991-.015-2.941.008-.327.008-.373-.201-.453-.414l-1.142-3.095c-.118-.343-.263-.482-.644-.475a117.05 117.05 0 0 1-4.191-.001c-.378-.007-.542.127-.67.462l-1.242 3.12c-.115.302-.264.416-.591.403l-2.18-.008 1.549-3.229 4.624-9.663c.161-.34.348-.436.702-.437 1.683-.003 1.687-.014 2.329 1.538l4.664 11.289.186.501zm-7.178-10.515l-1.998 4.94 3.502.001c.217.001.328-.034.23-.295l-1.734-4.646zM35.916 82.535l-.01-6.092c-.005-.444.135-.547.561-.545l8.851-.001c.441-.003.557.124.55.556-.018 1.249.002 1.25-1.225 1.25-1.766 0-3.533.01-5.299-.008-.373-.004-.5.088-.489.477v2.9c-.012.398.131.474.495.47l4.891-.015c.358-.004.5.064.499.466-.002 1.336.016 1.336-1.32 1.336-1.358 0-2.718.012-4.076-.008-.381-.006-.493.106-.488.489l.017 4.932c.005.385-.111.501-.493.483-.639-.03-1.282-.034-1.92.001-.43.024-.56-.099-.555-.541l.011-6.15m152.513-6.639l6.116-.007c.422-.004.618.059.605.559-.032 1.255-.003 1.256-1.281 1.256-1.126 0-2.253.025-3.378-.012-.476-.016-.615.099-.611.594l.024 10.332c.003.476-.11.645-.603.611-.618-.043-1.244-.039-1.863-.001-.44.027-.552-.111-.55-.547l.01-10.1c0-.878 0-.878-.884-.878-1.301 0-2.602-.01-3.903.007-.328.004-.424-.092-.432-.421-.034-1.392-.045-1.392 1.331-1.392h5.417m-46.762-63.084l1.923-4.025 3.653-7.629c.155-.328.322-.452.69-.45 1.53.007 1.529-.005 2.094 1.364l4.205 10.169c.18.431.191.615-.364.581-.657-.041-1.32-.025-1.979-.002-.304.011-.444-.096-.543-.377l-1.037-2.827c-.104-.297-.24-.418-.576-.412a125.1 125.1 0 0 1-3.844.002c-.302-.004-.448.096-.555.375l-1.11 2.799c-.118.31-.264.461-.625.442l-1.933-.009zm6.25-9.551l-1.823 4.5h3.495l-1.672-4.5zm66.415 3.484l-.009-5.515c-.004-.393.087-.527.507-.524h7.807c.403-.003.527.094.519.508-.021 1.011.001 1.012-.993 1.012-1.554 0-3.108.015-4.661-.01-.421-.007-.523.128-.509.524v2.437c-.014.403.109.529.521.522l4.427-.018c.434-.007.613.076.595.561-.036.976-.006.977-.977.977-1.359 0-2.719.015-4.078-.009-.386-.007-.497.106-.488.485v3.018c-.01.391.124.484.498.48l5.36-.018c.408-.005.523.105.518.514-.016 1.123.003 1.123-1.115 1.123-2.408 0-4.816-.017-7.224.013-.54.007-.729-.096-.714-.682l.016-5.398M245.301.717l5.587-.007c.343-.003.466.067.466.44.002 1.193.021 1.193-1.159 1.193-1.028 0-2.057.02-3.084-.01-.418-.012-.511.126-.509.521l.021 9.337c.004.517-.131.678-.644.632a9.25 9.25 0 0 0-1.57-.001c-.46.038-.537-.145-.535-.559l.023-9.279c.004-.539-.148-.671-.669-.653l-3.55.019c-.348.005-.509-.047-.506-.459.008-1.173-.014-1.173 1.18-1.173h4.947M265.08.717l-4.375 6.258c-.248.351-.355.699-.349 1.126l.016 4.236c.006.386-.115.503-.496.483a15.37 15.37 0 0 0-1.688 0c-.4.022-.535-.095-.527-.51l.018-4.178a1.83 1.83 0 0 0-.321-1.08L253.281.721h3.07c.257 0 .286.237.376.388l2.486 4.19c.096.163.154.354.344.47l2.626-4.578c.209-.375.443-.509.865-.484.63.039 1.265.01 2.032.01m-33.368 0l5.59-.01c.405-.005.523.094.516.507-.02 1.129.001 1.129-1.104 1.129-1.029 0-2.059.03-3.086-.013-.509-.021-.594.157-.591.619l.025 9.226c.006.555-.169.687-.679.647a10.84 10.84 0 0 0-1.571-.001c-.401.027-.474-.13-.472-.492l.02-9.4c.003-.485-.117-.613-.602-.599-1.241.038-2.485-.001-3.727.021-.367.007-.451-.11-.452-.46-.002-1.174-.018-1.174 1.182-1.174h4.95M207.41 82.579l-.011-6.144c-.006-.442.125-.569.555-.548l1.978.003c.317-.009.445.079.444.42l-.001 12.521c.001.309-.108.399-.406.391-.698-.017-1.397-.03-2.094.004-.408.02-.474-.146-.472-.502l.007-6.144" fill="#465661"/></svg>