<svg xmlns="http://www.w3.org/2000/svg" width="300" height="90" xmlns:v="https://vecta.io/nano"><style><![CDATA[.B{fill:#b1b1b1}.C{fill:#fefefe}.D{fill:#0066b1}]]></style><g fill-rule="evenodd" transform="matrix(.315804 0 0 .315804 94.254959 -2.328056)"><path d="M252.782 186.484c-.59.089-1.028.412-1.011 1.127.016.698.417 1.087 1.111 1.081.701-.006 1.091-.423 1.087-1.109-.003-.695-.421-1.053-1.187-1.099m-28.366 33.081c.597.012 1.174-.511 1.144-1.104-.035-.672-.393-1.113-1.102-1.124s-1.087.405-1.143 1.081c-.05.596.497 1.134 1.101 1.147m-99.656 18.536c.054.706.431 1.106 1.11 1.159.597.048 1.133-.5 1.12-1.114-.015-.698-.4-1.114-1.09-1.128-.701-.014-1.051.428-1.14 1.083m104.9 9.522c-.656.097-1.09.431-1.089 1.141s.435 1.113 1.102 1.114 1.109-.418 1.105-1.117c-.005-.692-.43-1.053-1.118-1.138m-45.669-21.071c.66-.11 1.094-.449 1.081-1.159s-.444-1.105-1.118-1.098c-.68.008-1.096.436-1.088 1.131s.454 1.039 1.125 1.126m71.417-10.448c-.724.007-1.228.516-1.224 1.128.005.603.539 1.161 1.135 1.111.666-.056 1.103-.419 1.093-1.133-.009-.708-.437-1.044-1.004-1.106m10.237 8.695c.669-.103 1.065-.468 1.066-1.169.001-.614-.55-1.154-1.145-1.089-.666.072-1.097.453-1.069 1.161.027.698.459 1.04 1.148 1.097m1.096-19.494c-.012.64.513 1.188 1.108 1.202s1.141-.506 1.13-1.115c-.014-.697-.397-1.112-1.088-1.131-.704-.02-1.048.429-1.15 1.044m-156.689 30.983c.697.023 1.246-.488 1.266-1.085a1.18 1.18 0 0 0-1.094-1.171 1.13 1.13 0 0 0-1.147 1.098c-.001.707.406 1.06.975 1.158M224.4 203.883c.599.022 1.146-.489 1.167-1.091a1.19 1.19 0 0 0-1.095-1.172 1.19 1.19 0 0 0-1.167 1.1c-.022.597.491 1.142 1.095 1.163m-67.595 32.23c.703.015 1.247-.501 1.26-1.097a1.19 1.19 0 0 0-1.109-1.16c-.599-.015-1.142.501-1.137 1.111.006.708.42 1.054.986 1.146m-31.377-11.284c.014-.768-.614-1.424-1.367-1.43-.723-.005-1.341.592-1.374 1.327-.036.784.547 1.432 1.315 1.464a1.39 1.39 0 0 0 1.426-1.361m111.305-29.664c-.009-.768-.654-1.387-1.427-1.369s-1.4.681-1.367 1.433c.032.713.676 1.336 1.387 1.343a1.44 1.44 0 0 0 1.407-1.407m38.171 8.896a1.43 1.43 0 0 0 1.423-1.384c.005-.743-.666-1.413-1.408-1.405-.723.008-1.334.614-1.358 1.347-.027.78.574 1.424 1.343 1.442m-18.136-9.562c.01-.784-.601-1.407-1.376-1.404-.763.003-1.396.649-1.383 1.412.013.719.628 1.346 1.347 1.372.754.027 1.402-.606 1.412-1.38m-21.57 9.048a1.43 1.43 0 0 0-1.437 1.376c-.009.736.672 1.42 1.41 1.414a1.45 1.45 0 0 0 1.386-1.342c.034-.758-.594-1.426-1.359-1.448m39.858-10.334l.002-.081-2.463-.226c-.224-.023-.449.018-.649-.188-.899-.926-1.661-1.899-1.539-3.303.028-.322-.046-.652-.073-.979-.01 3.095-1.223 4.999-4.713 4.772.849.209 1.628.295 2.405.397.191.026.4-.039.565.159.818.987 1.775 1.892 1.574 3.37-.052.379.064.781.103 1.172.175-.904.271-1.81.384-2.715.028-.228.035-.544.18-.658.896-.707 1.61-1.767 3.012-1.544.385.061.807-.111 1.212-.176m-17.008 35.348l.083.019.32-2.711c.025-.2.025-.485.15-.578.886-.659 1.518-1.776 2.896-1.578.45.065.924-.064 1.348-.271l-2.554-.239c-.194-.019-.392.025-.562-.166-.802-.901-1.663-1.753-1.512-3.128.044-.401-.068-.819-.101-1.153-.696 1.026.039 2.4-1.109 3.601-1.16 1.214-2.55.683-3.692 1.292l2.362.251c.227.026.509-.054.66.165.659.958 1.848 1.631 1.573 3.096-.083.442.085.932.138 1.4m-148.814 22.836c1.08.652 2.436.031 3.627 1.214 1.232 1.225.617 2.54 1.14 3.711.317-.788.175-1.693.371-2.539.05-.218-.055-.463.163-.653.903-.784 1.721-1.709 3.104-1.565.348.037.711-.067 1.168-.117-.809-.267-1.556-.346-2.276-.287-.968.08-1.055-.93-1.699-1.194-.4-.164-.472-.453-.526-.821-.123-.837-.088-1.698-.375-2.573-.178 3.923-1.121 4.672-4.697 4.824M292.156 95.184c2.662 5.984 4.794 12.157 6.523 18.469 3.665 13.378 5.272 27.011 4.772 40.867-.888 24.626-7.816 47.456-20.906 68.327-15.651 24.955-37.076 43.289-64.107 55.01-10.258 4.448-20.944 7.487-31.987 9.282-10.148 1.65-20.352 2.174-30.603 1.521-23.243-1.479-44.759-8.408-64.55-20.678a136.25 136.25 0 0 1-20.159-15.232c.205-.207.393-.435.616-.62l11.477-9.448c16.488-13.295 33.461-25.947 50.797-38.113l15.087-10.364c1.994 2.814 4.038 5.591 6.297 8.199 2.204 2.545 4.493 5.007 7.403 6.78 1.169.713 2.404 1.252 3.832 1.112 2.505-.244 3.817-2.82 2.509-4.944-.626-1.017-1.484-1.83-2.374-2.605-2.002-1.744-4.188-3.252-6.305-4.85-2.611-1.97-5.239-3.918-7.563-6.236.208-.16.408-.334.627-.478l15.949-10.486 9.747-6.233v4.548c1.951-1.518 3.827-2.833 5.672-4.192.507-.374.912-.416 1.514-.203 6.422 2.271 12.993 3.188 19.738 1.82 5.632-1.142 10.569-3.686 14.497-7.929 3.804-4.11 4.278-9.077 1.509-13.939-1.091-1.915-2.548-3.535-4.136-5.045l1.423-1.019c4.487 7.606 8.355 15.514 11.634 23.713.176.44.115.68-.254.954-1.003.746-1.981 1.525-3.166 2.444 1.438 0 2.64.042 3.838-.016.68-.033.961.224 1.181.847 2.767 7.857 4.985 15.84 5.709 24.18.417 4.812.351 9.593-.949 14.282-1.726 6.228-5.366 10.734-11.724 12.667-4.232 1.286-8.554 1.157-12.864.504-5.568-.844-10.896-2.553-16.107-4.656-.266-.108-.542-.375-.891-.185.266.54.261.552.683.725 7.443 3.048 15 5.672 23.144 6.004 3.992.162 7.881-.314 11.451-2.271 4.647-2.548 7.123-6.698 8.432-11.665 1.567-5.943 1.368-11.968.66-17.988-.665-5.664-1.919-11.219-3.501-16.698l-1.724-5.643c3.128-.067 6.183.071 9.385-.151-1.344-1.09-2.074-2.407-2.44-3.922-.63-2.606-.09-5.085.865-7.516.133-.337.355-.397.683-.397l15.932-.002c.423-.001.623.128.751.544.361 1.182.749 2.356 1.173 3.517.821 2.246.356 4.141-1.397 5.777-.72.671-1.32 1.471-1.956 2.191l30.231.079c-2.335-1.206-3.471-3.288-4.381-5.583-2.344-5.91-4.555-11.87-6.739-17.841l-9.898-27.216c-.281-.734-.642-.936-1.407-.931-3.51.022-7.02-.03-10.53-.056.179-.149.35-.31.539-.446 8.94-6.453 17.753-13.072 26.261-20.088l10.077-8.478M145.041 55.579c.683-.021 1.219-.552 1.156-1.151-.07-.668-.45-1.089-1.16-1.061-.7.027-1.086.439-1.07 1.133.016.708.466 1.03 1.074 1.079m16.671-5.299c-.05-.684-.421-1.106-1.109-1.111s-1.106.419-1.115 1.107c-.008.695.422 1.119 1.1 1.123s1.07-.411 1.124-1.119m-22.149-.381c-.072-.677-.459-1.06-1.143-1.088-.593-.024-1.122.551-1.11 1.144s.565 1.156 1.152 1.104c.675-.059 1.062-.446 1.101-1.16m3.327 2.321c.011-.606-.496-1.139-1.112-1.132-.706.009-1.087.415-1.148 1.09-.052.586.507 1.138 1.105 1.153.588.015 1.143-.519 1.155-1.111m31.031 4.563c-.039-.72-.406-1.146-1.089-1.163s-1.123.387-1.133 1.079c-.01.676.37 1.114 1.077 1.13s1.062-.391 1.145-1.046m-7.647-33.341c-.098-.692-.476-1.088-1.162-1.114-.604-.022-1.157.54-1.106 1.136.058.674.435 1.095 1.143 1.084s1.038-.453 1.125-1.106m-25.129 35.4c-.064-.707-.453-1.095-1.126-1.149-.581-.046-1.137.533-1.142 1.121s.528 1.144 1.13 1.123c.699-.024 1.053-.434 1.138-1.095m31.559-16.831c.758.008 1.387-.632 1.384-1.408-.004-.751-.569-1.342-1.314-1.373a1.39 1.39 0 0 0-1.439 1.346c-.016.761.618 1.426 1.369 1.435m-14.638-3.335c-.012-.748-.695-1.402-1.438-1.376a1.4 1.4 0 0 0-1.338 1.457c.032.727.653 1.33 1.375 1.334a1.45 1.45 0 0 0 1.401-1.415m36.449 29.991c.003-.752-.66-1.41-1.409-1.397a1.39 1.39 0 0 0-1.352 1.348 1.36 1.36 0 0 0 1.348 1.426c.768.012 1.411-.614 1.413-1.377m-1.595-26.228c.296-1.408-.213-3.074 1.375-4.064.023-.014.041-.046.048-.073.105-.423.424-.469.799-.531.835-.138 1.7-.117 2.438-.392-1.097-.486-2.372.134-3.573-1-1.188-1.122-.665-2.479-1.203-3.596-.49 1.14.005 2.373-1.095 3.534-1.118 1.18-2.463.6-3.593 1.23 1.373.226 2.903-.151 3.746 1.36.025.045.091.082.145.095.434.103.457.433.523.802.159.882.042 1.812.39 2.635M28.536 180.095c-1.116-4.738-1.904-9.534-2.465-14.366-.706-6.072-1.013-12.168-.896-18.281.313-16.456 3.434-32.363 9.443-47.688 5.775-14.731 13.815-28.116 24.162-40.085 17.526-20.271 39.035-34.542 64.609-42.628 8.935-2.825 18.081-4.657 27.403-5.569 10.551-1.032 21.1-.912 31.606.522 27.073 3.694 51.014 14.459 71.862 32.095 11.051 9.349 20.393 20.195 28.094 32.453.109.174.201.359.301.538-4.902 3.057-9.93 5.898-15.053 8.562-18.566 9.654-37.628 18.225-57.057 25.987-3.69 1.474-7.368 2.979-11.119 4.293-4.445-5.518-9.118-10.835-14.019-15.951-9.025-9.419-18.707-18.081-29.473-25.484-7.67-5.273-15.72-9.855-24.492-13.06-5.462-1.996-11.055-3.367-16.935-3.064-3.558.183-6.925 1.066-9.943 3.029-4.665 3.032-7.166 7.547-8.569 12.762-1.729 6.431-1.631 12.962-.831 19.5.964 7.871 3.04 15.474 5.716 22.927 3.568 9.935 8.339 19.287 13.694 28.358-.073.047-.14.112-.22.138l-17.525 5.783c-.017-.352-.051-.704-.05-1.056l.031-18.405c-.056-2.563.54-4.607 2.539-6.234.544-.443 1.04-.983 1.407-1.694-5.206-.16-10.321-.145-15.595-.148l.478.586c1.08 1.288 2.161 2.573 3.1 3.972.59.879.922 1.791.894 2.888-.06 2.329-.017 4.66-.006 6.991l.082 15.57-1.067.377-4.172-7.179-13.26-22.44c-.413-.671-.856-1.021-1.687-.947-.907.081-1.827.014-2.741.011l-17.431-.056c-.254 0-.587-.11-.736.15-.171.297.178.461.327.647l2.908 3.564c.768.902 1.043 1.902 1.036 3.088l-.076 25.571.107 11.674c-3.464 1.536-6.881 3.173-10.281 4.844-4.773 2.347-9.436 4.9-14.1 7.455m48.129 38.623c-.615.065-1.059.379-1.066 1.093-.007.698.38 1.1 1.075 1.118s1.111-.384 1.126-1.071-.39-1.066-1.135-1.14m23.724-1.047c-.666.075-1.077.427-1.069 1.131s.431 1.095 1.112 1.089c.686-.007 1.098-.421 1.087-1.117s-.425-1.052-1.13-1.103m15.449-38.719c-.024-.731-.404-1.122-1.077-1.19-.597-.06-1.173.478-1.153 1.081.022.67.367 1.125 1.076 1.147.702.021 1.063-.39 1.154-1.038m-52.701 35.556c.691.021 1.242-.493 1.262-1.088a1.18 1.18 0 0 0-1.099-1.168c-.601-.02-1.144.487-1.144 1.1 0 .708.408 1.06.981 1.156m15.389-3.832c-.75.001-1.388.661-1.377 1.423a1.38 1.38 0 0 0 1.336 1.358 1.36 1.36 0 0 0 1.413-1.361c.009-.775-.615-1.42-1.372-1.42m38.007-5.438c-.021-.774-.671-1.378-1.442-1.341a1.42 1.42 0 0 0-1.325 1.387c0 .748.672 1.414 1.415 1.4a1.41 1.41 0 0 0 1.352-1.446M83.58 224.315c.022-.748-.629-1.427-1.375-1.435s-1.418.662-1.415 1.405a1.44 1.44 0 0 0 1.339 1.381c.758.033 1.428-.591 1.451-1.351m-14.893 26.173c-13.815-13.146-24.559-28.446-32.178-45.931-2.944-6.754-5.319-13.706-7.121-20.852-.035-.141-.102-.275-.154-.412.282-.153.553-.332.848-.456l7.234-3.011c4.713-1.887 9.476-3.64 14.297-5.231H64.42l.024-.261-2.649-3.022c4.373-1.438 8.804-2.681 13.232-3.937l4.264 7.119c.311.534.643.709 1.245.707l20.161-.019c.245 0 .52.106.794-.144-.183-.264-.35-.531-.543-.779l-3.158-4.037c-.55-.715-.899-1.53-.907-2.443l-.008-6.275 9.322-2.315 14.806-3.627c-.064.286-.115.576-.195.857-.905 3.168-1.999 6.296-2.669 9.513-.623 2.989-2.253 5.101-4.603 6.829-.688.506-1.369 1.024-2.037 1.556-.186.148-.494.199-.523.558 5.444.077 10.868.232 16.418.011-3.418-3.141-3.102-7.972-1.358-11.705l.537.718 4.276 6.069c4.777 6.66 9.884 13.064 15.075 19.402-.233.176-.459.364-.701.525-8.81 5.872-17.539 11.86-26.09 18.104-16.221 11.844-31.74 24.533-46.231 38.458l-4.215 4.031" class="B"/><path d="M199.426 115.928c3.751-1.314 7.43-2.819 11.119-4.293 19.429-7.763 38.492-16.333 57.058-25.987 5.123-2.664 10.151-5.505 15.053-8.562 4.435-2.575 8.734-5.368 12.993-8.221 10.498-7.033 20.576-14.612 29.888-23.175 6.683-6.145 12.898-12.71 18.001-20.255.312-.463.736-.142 1.096-.537-.172 1.016-.534 1.819-.841 2.634-4.434 11.752-10.773 22.432-18.302 32.438-8.904 11.831-19.179 22.383-30.135 32.301l-3.2 2.913-10.077 8.478c-8.508 7.016-17.321 13.635-26.261 20.088-.188.136-.359.297-.538.446l-10.537 7.409c-.249.156-.504.303-.745.469l-22.66 15.203c-1-1.499-1.945-3.032-2.802-4.617 5.418-3.442 10.7-7.084 15.942-10.785 2.669-1.884 5.356-3.744 7.926-5.764.894-.551 1.728-1.182 2.517-1.875.245-.161.498-.311.733-.486a535.08 535.08 0 0 0 14.221-10.974c5.857-4.673 11.664-9.407 17.342-14.297l.263-.278.157-.127c-.108-.121-.171-.023-.24.049l-.312.212c-.204.113-.417.212-.611.34-18.158 11.931-37.692 21.085-57.976 28.722v-4.292c-.688.559-1.286.987-1.815 1.487-1.034.978-2.25 1.21-3.597.981l-6.521-1.112c-.514-.081-.841-.311-1.144-.704l-5.258-6.76c-.263-.34-.666-.593-.737-1.069M68.687 250.488l4.215-4.031c14.491-13.925 30.01-26.614 46.231-38.458 8.551-6.244 17.28-12.232 26.089-18.104.243-.161.469-.349.702-.525l3.041-2.014 7.093-4.658 11.143-7.501 2.234-1.485 9.768-6.368 3.707-2.357 12.458-7.748 7.359-4.521c3.531-2.22 7.118-4.349 10.569-6.695 1.167-.643 2.281-1.371 3.357-2.157 1.048 1.477 1.964 3.035 2.802 4.639l-1.423 1.019-16.101 10.386-12.833 8.237c-3.326 2.044-6.621 4.136-9.859 6.316l-9.748 6.234-15.949 10.486c-.219.144-.419.318-.627.478-1.323.764-2.567 1.644-3.799 2.544-5.1 3.351-10.093 6.859-15.087 10.364-17.336 12.165-34.309 24.817-50.797 38.112l-11.477 9.448c-.223.185-.411.413-.616.621-4.145 3.453-8.224 6.982-12.237 10.589-4.006 3.6-7.907 7.31-11.852 11.351l.27-4.522c.025-.405.378-.581.627-.816 6.589-6.21 13.32-12.263 20.114-18.248.22-.193.418-.41.626-.616m-17.074-75.893a244.98 244.98 0 0 0-14.297 5.231l-7.235 3.011c-.294.124-.565.303-.847.456-4.364 1.84-8.56 4.018-12.689 6.328-1.438.804-2.846 1.662-4.27 2.491-.219.127-.409.327-.723.207L8.3 191.12c6.617-4.113 13.389-7.638 20.236-11.026 4.664-2.554 9.327-5.108 14.1-7.454 3.4-1.672 6.817-3.309 10.281-4.844-.013.204-.004.412-.044.611-.525 2.635-2.316 4.276-4.44 5.661-.222.145-.576.161-.624.527z" fill="#ddd"/><path d="M344.736 24.8c-.035.018-.068.042-.105.05-.012.003-.033-.034-.051-.052.035-.019.068-.043.105-.052.012-.002.034.035.051.054" fill="#ec1c25"/><g class="C"><path d="M258.025 157.133l-7.512-19.182-5.981 19.182zm-44.729-11.11c-3.45 2.345-7.038 4.475-10.568 6.695l-7.359 4.521-5.845-2.217c-6.645-2.55-10.367-7.343-11.063-14.449l.019-.706c.04-5.493 2.393-9.755 6.943-12.77 3.754-2.488 8.007-3.299 12.432-3.409 1.551-.039 3.1.024 4.844.22l-1.566-2.008c-1.387-1.673-2.642-3.458-4.19-4.996-.181-.232-.353-.471-.542-.695-3.123-3.695-6.329-7.317-9.653-10.833-9.52-10.067-19.576-19.544-30.816-27.695-7.974-5.782-16.39-10.78-25.789-13.923-5.386-1.8-10.89-2.887-16.603-2.044-5.683.839-10.083 3.645-12.885 8.734-2.595 4.716-3.207 9.868-3.149 15.141.074 6.742 1.361 13.296 3.206 19.746 3.89 13.6 9.648 26.409 16.532 38.734a13.92 13.92 0 0 1-2.669.875c-5.355-9.071-10.126-18.422-13.694-28.358-2.677-7.452-4.752-15.055-5.716-22.927-.801-6.538-.899-13.069.831-19.499 1.402-5.216 3.903-9.73 8.568-12.763 3.018-1.962 6.385-2.845 9.944-3.028 5.88-.304 11.473 1.068 16.934 3.064 8.772 3.205 16.822 7.786 24.493 13.06 10.766 7.402 20.447 16.065 29.472 25.484 4.902 5.116 9.575 10.433 14.019 15.951.071.476.474.728.737 1.069l5.258 6.759c.304.394.63.624 1.145.705l6.52 1.111c1.348.23 2.563-.002 3.598-.98.529-.5 1.126-.928 1.814-1.487v4.292 8.906c-2.129-1.51-4.139-2.943-6.47-3.821-.059-.022-.162-.072-.167-.063-.057.096.024.107.091.123l6.584 10.118c.858 1.585 1.802 3.118 2.802 4.616l.512.922c3.392 5.808 6.544 11.742 9.315 17.874l2.1 4.794c.468-.527.848-.999 1.024-1.613l8.037-28.072c.899-3.167 1.795-6.338 2.417-9.576l10.537-7.409 10.53.055c.764-.005 1.126.197 1.407.931 3.455 9.016 6.581 18.151 9.897 27.217l6.739 17.841c.91 2.295 2.047 4.376 4.382 5.583l-30.231-.08c.636-.72 1.236-1.519 1.955-2.191 1.754-1.635 2.219-3.531 1.398-5.777a68.97 68.97 0 0 1-1.173-3.516c-.128-.417-.329-.546-.751-.545l-15.933.003c-.327-.001-.549.059-.682.397-.956 2.43-1.495 4.91-.866 7.516.367 1.515 1.097 2.832 2.44 3.922-3.201.222-6.256.083-9.384.151l1.724 5.643c1.581 5.478 2.835 11.033 3.501 16.698.708 6.02.907 12.045-.66 17.987-1.309 4.967-3.785 9.118-8.433 11.665-3.569 1.957-7.459 2.434-11.45 2.271-8.144-.331-15.701-2.955-23.144-6.003-.422-.173-.417-.186-.684-.725.35-.191.625.077.892.184 5.21 2.104 10.539 3.812 16.107 4.656 4.309.653 8.632.783 12.864-.504 6.357-1.933 9.998-6.439 11.724-12.667 1.3-4.689 1.366-9.469.949-14.282-.724-8.34-2.943-16.322-5.709-24.18-.22-.623-.501-.879-1.181-.847-1.198.058-2.4.017-3.838.017l3.166-2.445c.368-.273.43-.513.254-.953-3.279-8.199-7.148-16.108-11.634-23.713-.839-1.604-1.755-3.162-2.803-4.639-2.651-4.372-5.524-8.593-8.572-12.697-.075-.258-.318-.241-.503-.286-2.66-.649-5.337-.887-8.046-.317-1.489.314-2.901.812-4.034 1.862-.953.884-1.562 1.924-1.059 3.297.305 1.3 1.254 2.095 2.265 2.816 1.7 1.212 3.658 1.866 5.62 2.499 3.848 1.241 7.555 2.793 10.972 4.983zm-11.364 13.887l16.1-10.387c1.589 1.51 3.045 3.13 4.137 5.046 2.769 4.861 2.295 9.829-1.509 13.938-3.928 4.243-8.865 6.787-14.497 7.929-6.746 1.368-13.317.451-19.738-1.82-.603-.213-1.007-.171-1.515.203l-5.671 4.193v-4.549c3.239-2.18 6.534-4.273 9.86-6.316 1.921.808 3.948 1.175 6.008 1.317 3.381.231 6.647-.231 9.686-1.834.654-.346 1.248-.743 1.513-1.521.63-1.851.288-3.178-1.243-4.394-.951-.756-2.021-1.319-3.131-1.805m-52.816 34.295l3.799-2.544c2.324 2.318 4.953 4.266 7.563 6.237l6.305 4.849c.89.775 1.748 1.588 2.375 2.605 1.308 2.124-.004 4.7-2.51 4.944-1.428.14-2.662-.399-3.832-1.112-2.909-1.773-5.198-4.234-7.403-6.779-2.259-2.609-4.303-5.386-6.297-8.2m-39.881 57.192c3.575-.152 4.519-.901 4.696-4.824.287.875.252 1.736.375 2.573.054.368.127.657.526.821.645.264.732 1.274 1.7 1.194a5.67 5.67 0 0 1 2.276.287c-.458.05-.82.153-1.168.117-1.383-.144-2.202.78-3.104 1.565-.219.189-.113.435-.164.653-.196.846-.053 1.751-.37 2.539-.523-1.171.092-2.486-1.141-3.711-1.19-1.183-2.547-.562-3.626-1.214m148.813-22.837c-.053-.468-.22-.957-.137-1.4.274-1.465-.915-2.138-1.574-3.096-.151-.219-.433-.139-.66-.164l-2.362-.251c1.142-.609 2.532-.078 3.693-1.292 1.147-1.201.412-2.576 1.108-3.601.033.334.145.752.101 1.152-.15 1.375.71 2.228 1.512 3.128.17.191.368.147.562.166l2.554.24c-.424.206-.898.335-1.348.27-1.378-.198-2.009.919-2.895 1.578-.126.093-.126.378-.151.579l-.32 2.71-.083-.019m17.009-35.348c-.405.065-.827.238-1.212.177-1.402-.223-2.116.837-3.013 1.544-.144.113-.151.43-.179.658l-.385 2.715c-.039-.392-.154-.794-.103-1.173.202-1.477-.756-2.383-1.574-3.369-.165-.199-.373-.134-.565-.159l-2.404-.397c3.49.227 4.702-1.677 4.713-4.772.027.326.1.657.072.978-.121 1.405.641 2.378 1.539 3.303.201.207.426.166.65.188l2.462.226-.001.081m-39.858 10.335c.765.021 1.392.69 1.358 1.447a1.45 1.45 0 0 1-1.385 1.343c-.738.005-1.419-.678-1.41-1.415a1.43 1.43 0 0 1 1.437-1.375m21.569-9.048c-.01.774-.658 1.407-1.412 1.38-.718-.026-1.334-.653-1.347-1.372-.013-.763.62-1.409 1.384-1.412.775-.003 1.385.621 1.375 1.404m18.137 9.561c-.769-.018-1.37-.662-1.344-1.441.025-.734.636-1.34 1.358-1.347.743-.008 1.414.662 1.408 1.405a1.43 1.43 0 0 1-1.422 1.383m-38.172-8.896a1.44 1.44 0 0 1-1.407 1.407c-.711-.006-1.355-.63-1.386-1.342-.034-.753.599-1.417 1.366-1.434.773-.017 1.418.602 1.427 1.369m-111.305 29.664a1.39 1.39 0 0 1-1.425 1.362c-.769-.033-1.351-.681-1.316-1.465.033-.735.652-1.331 1.374-1.326.754.005 1.382.662 1.367 1.429m31.377 11.285c-.566-.092-.98-.438-.986-1.146-.005-.61.538-1.126 1.137-1.111a1.19 1.19 0 0 1 1.11 1.16c-.013.597-.557 1.112-1.261 1.097m67.596-32.23c-.604-.022-1.117-.567-1.095-1.164a1.19 1.19 0 0 1 1.167-1.1c.588.021 1.116.587 1.095 1.173-.021.601-.568 1.113-1.167 1.091m-114.35 32.405c-.568-.098-.976-.451-.974-1.158a1.13 1.13 0 0 1 1.146-1.098c.593.021 1.114.579 1.094 1.171-.02.597-.569 1.108-1.266 1.085m156.69-30.984c.102-.615.446-1.064 1.15-1.044.691.019 1.074.434 1.087 1.131a1.13 1.13 0 0 1-1.129 1.115c-.596-.014-1.12-.561-1.108-1.202m-1.097 19.495c-.689-.057-1.12-.399-1.148-1.097-.028-.708.403-1.089 1.07-1.161.594-.065 1.145.475 1.144 1.089-.001.701-.396 1.066-1.066 1.169m-10.236-8.695c.567.062.995.398 1.004 1.106.01.714-.428 1.077-1.093 1.132-.596.051-1.13-.507-1.135-1.11-.004-.612.499-1.122 1.224-1.128m-71.417 10.447c-.672-.087-1.117-.426-1.125-1.125s.408-1.124 1.088-1.131c.674-.008 1.105.391 1.118 1.097s-.421 1.049-1.081 1.159m45.669 21.072c.688.085 1.113.446 1.118 1.138.004.699-.433 1.118-1.105 1.117s-1.102-.404-1.103-1.114.434-1.044 1.09-1.141m-104.9-9.522c.088-.655.438-1.098 1.139-1.083.69.014 1.075.43 1.09 1.128.014.614-.522 1.161-1.119 1.114-.679-.053-1.056-.453-1.11-1.159"/><path d="M224.415 219.564c-.604-.013-1.151-.551-1.101-1.147.057-.676.438-1.092 1.143-1.081s1.068.452 1.102 1.124c.03.593-.547 1.117-1.144 1.104m28.367-33.08c.766.046 1.184.404 1.187 1.099.004.686-.386 1.103-1.087 1.109-.694.006-1.095-.383-1.111-1.081-.017-.715.421-1.038 1.011-1.127M51.613 174.595h-3.804c.048-.366.402-.382.624-.527 2.124-1.385 3.915-3.026 4.44-5.661.04-.199.031-.407.044-.611l-.107-11.674.076-25.571c.007-1.186-.268-2.186-1.036-3.088l-2.908-3.564c-.149-.187-.498-.35-.327-.648.149-.259.482-.15.736-.149l17.431.055 2.741-.01c.831-.074 1.274.276 1.687.947 4.557 7.399 8.89 14.93 13.26 22.44l4.172 7.179 1.067 1.998v-2.375l-.082-15.57.006-6.991c.028-1.097-.304-2.009-.894-2.888-.939-1.399-2.02-2.685-3.1-3.972-.126-.15-.248-.304-.478-.587l15.595.149c-.367.711-.862 1.251-1.407 1.694-1.999 1.627-2.595 3.67-2.539 6.234.133 6.131-.006 12.269-.031 18.405-.001.352.033.704.05 1.056-.08 3.546-.03 7.092.045 10.638l.009 6.275c.008.913.357 1.728.907 2.443l3.158 4.037c.193.248.36.515.543.779-.274.25-.55.144-.794.144-6.721.007-13.441-.002-20.161.019-.602.002-.934-.173-1.245-.707l-4.265-7.119-4.201-7.064c-.06-.133-.108-.273-.181-.397l-10.699-18.181c-.051-.087-.086-.229-.335-.152l-.003 3.581c-.106 6.54-.113 13.079.129 19.617-.091 2.422.246 4.71 2.058 6.533l2.65 3.022-.024.261z"/></g><path d="M96.875 161.503c-.076-3.546-.125-7.091-.045-10.637l17.525-5.783c.08-.027.147-.092.22-.139a13.92 13.92 0 0 0 2.669-.875l7.788-2.478-1.077 3.997c-.974 3.327-1.848 6.685-2.952 9.974l-14.806 3.626-9.322 2.315" fill="#ddd"/><path d="M192.921 42.439c-.349-.823-.231-1.753-.39-2.636-.067-.368-.089-.698-.523-.801a.24.24 0 0 1-.145-.096c-.843-1.51-2.374-1.133-3.746-1.36 1.13-.629 2.475-.049 3.592-1.229 1.101-1.162.605-2.394 1.096-3.534.538 1.117.015 2.474 1.203 3.596 1.201 1.134 2.476.514 3.573 1-.738.275-1.603.254-2.438.392-.375.062-.694.108-.8.531-.006.027-.025.059-.047.073-1.588.989-1.079 2.656-1.375 4.064m1.595 26.228c-.002.763-.645 1.389-1.414 1.377a1.36 1.36 0 0 1-1.347-1.426 1.39 1.39 0 0 1 1.352-1.348 1.43 1.43 0 0 1 1.409 1.397m-36.45-29.992a1.45 1.45 0 0 1-1.4 1.415 1.41 1.41 0 0 1-1.375-1.334 1.4 1.4 0 0 1 1.337-1.457c.743-.025 1.426.628 1.438 1.376m14.639 3.335c-.751-.009-1.385-.673-1.369-1.434a1.39 1.39 0 0 1 1.439-1.347c.745.032 1.31.623 1.313 1.374.004.776-.625 1.416-1.383 1.407m-31.56 16.831c-.085.662-.439 1.072-1.137 1.095-.602.021-1.136-.531-1.131-1.123s.561-1.167 1.142-1.12c.673.053 1.063.442 1.126 1.148m25.129-35.399c-.087.653-.416 1.094-1.124 1.106s-1.086-.41-1.144-1.084c-.051-.596.502-1.158 1.106-1.136.686.026 1.064.422 1.162 1.114m7.647 33.34c-.082.655-.443 1.063-1.145 1.046s-1.087-.454-1.077-1.13c.01-.692.451-1.096 1.133-1.079s1.051.443 1.089 1.163M142.89 52.22c-.011.591-.567 1.126-1.155 1.111-.598-.015-1.157-.567-1.104-1.154.06-.674.442-1.081 1.147-1.089.616-.008 1.124.526 1.112 1.132m-3.326-2.322c-.04.714-.426 1.101-1.101 1.161-.588.051-1.14-.509-1.152-1.104s.516-1.169 1.11-1.145c.683.028 1.071.411 1.143 1.088m22.148.381c-.054.709-.448 1.124-1.124 1.12s-1.108-.429-1.1-1.124c.009-.688.425-1.112 1.115-1.107s1.059.428 1.109 1.111m-16.671 5.3c-.608-.049-1.058-.371-1.074-1.079-.016-.694.37-1.106 1.07-1.133.71-.028 1.09.393 1.16 1.061.063.599-.473 1.13-1.156 1.151" class="C"/><path d="M89.71 153.336v2.375l-1.068-1.998 1.068-.377" fill="#ec1c25"/><path d="M128.52 153.636l-.792 2.329c-.142.404.006.513.403.513l12.364.001c.459.001.576-.131.401-.563l-1.931-4.826-.843-2.227-4.071-10.249c-.053-.431-.25-.806-.458-1.217-.256.498-.397.991-.479 1.504l-1.464 4.528-3.13 10.207m-7.517 1.927c1.104-3.29 1.978-6.647 2.952-9.975.388-1.324.72-2.664 1.078-3.997 1.195-3.882 2.191-7.817 3.048-11.787.112-.516-.1-.925-.329-1.333-.847-1.505-1.996-2.77-3.192-3.998-.256-.264-.611-.462-.686-.869.151-.18.34-.105.502-.104l24.873.066c.567 0 .757.251.928.707l3.078 8.086 4.958 13.821c2.94 8.296 5.936 16.571 9.287 24.713.441 1.073 1.064 2.035 1.936 2.82l-2.234 1.484c-.176-.015-.352-.042-.528-.042l-23.804-.1-2.186-.001c1.186-1.138 2.279-2.034 3.157-3.144.855-1.083 1.189-2.258.872-3.635-.378-1.641-1.012-3.197-1.488-4.804-.135-.459-.451-.452-.818-.45l-4.867.003h-7.773c6.211 8.404 12.887 16.225 19.198 24.332l-3.04 2.014c-5.191-6.338-10.299-12.742-15.075-19.402l-4.277-6.068c-.165-.235-.343-.461-.536-.719-1.744 3.733-2.061 8.564 1.357 11.705-5.549.221-10.973.066-16.417-.011.029-.359.337-.41.523-.558.668-.532 1.348-1.05 2.036-1.556 2.351-1.727 3.981-3.839 4.604-6.829.67-3.217 1.764-6.345 2.669-9.512.08-.282.13-.572.194-.857" class="C"/><path d="M70.825 160.311l4.202 7.064c-4.428 1.256-8.859 2.498-13.232 3.936-1.813-1.822-2.15-4.11-2.059-6.533l11.089-4.467" fill="#ddd"/><path d="M83.58 224.315c-.023.761-.692 1.384-1.45 1.351-.718-.032-1.336-.669-1.339-1.381-.004-.743.671-1.412 1.414-1.404s1.398.686 1.375 1.434m32.954-19.077c.022.771-.597 1.432-1.353 1.446-.742.014-1.415-.652-1.414-1.4.001-.723.601-1.351 1.324-1.386a1.38 1.38 0 0 1 1.443 1.34m-38.008 5.438c.757-.001 1.381.644 1.373 1.419s-.636 1.384-1.413 1.361a1.38 1.38 0 0 1-1.337-1.358c-.011-.762.627-1.421 1.377-1.422m-15.389 3.832c-.573-.097-.982-.448-.981-1.156 0-.613.543-1.12 1.144-1.1.594.02 1.119.578 1.099 1.168s-.571 1.109-1.262 1.088m52.701-35.556c-.091.648-.452 1.059-1.154 1.038-.709-.022-1.054-.477-1.076-1.147-.02-.603.556-1.141 1.153-1.081.673.068 1.053.459 1.077 1.19m-15.448 38.719c.705.051 1.119.411 1.13 1.103s-.401 1.11-1.087 1.117c-.681.006-1.104-.383-1.112-1.089s.403-1.055 1.069-1.131m-23.725 1.047c.745.074 1.15.452 1.135 1.14s-.426 1.088-1.126 1.071c-.695-.018-1.082-.42-1.075-1.118.007-.714.451-1.028 1.066-1.093" class="C"/><path d="M212.029 132.482c2.33.879 4.34 2.311 6.469 3.821v-8.906c20.285-7.637 39.818-16.79 57.976-28.722.194-.127.407-.227.611-.34l.133.144c-5.679 4.89-11.486 9.625-17.343 14.297-4.681 3.734-9.416 7.4-14.22 10.974-.235.175-.489.325-.734.487h-4.175c.467.802 1.159 1.256 1.659 1.874-2.571 2.02-5.258 3.88-7.926 5.764-5.242 3.701-10.525 7.343-15.943 10.785l-6.584-10.118a1.45 1.45 0 0 1 .077-.06m32.714-.877c-.622 3.238-1.518 6.409-2.417 9.576l-8.037 28.072c-.176.614-.556 1.086-1.023 1.612l-2.1-4.793c-2.772-6.132-5.924-12.066-9.316-17.874-.177-.304-.341-.614-.511-.922 7.63-4.952 15.168-10.043 22.659-15.202.242-.166.496-.313.745-.469" class="B"/><path d="M242.404 126.111c-.499-.618-1.192-1.072-1.658-1.874h4.175c-.789.692-1.623 1.323-2.517 1.874" class="C"/><g class="D"><path d="M277.085 98.335l.312-.212.083.078-.263.278-.132-.144"/><path d="M277.397 98.123c.068-.072.131-.17.239-.049l-.156.126-.083-.077"/></g><path d="M169.435 173.712c-.872-.784-1.494-1.747-1.936-2.819-3.351-8.142-6.347-16.418-9.287-24.714.111-.042.218-.094.332-.124l19.917-5.482c.696 7.106 4.417 11.899 11.062 14.449l5.845 2.217-12.458 7.748c-1.331-.839-2.485-1.916-3.707-2.886v5.243l-9.768 6.368m-20.47 13.644c-6.311-8.107-12.988-15.928-19.199-24.332h7.774l4.867-.003c.367-.002.683-.009.818.45.476 1.607 1.11 3.163 1.488 4.804.317 1.377-.017 2.552-.873 3.635-.877 1.11-1.97 2.006-3.157 3.144l2.187.001 23.804.1c.176 0 .351.027.527.042l-11.143 7.501-7.093 4.658m59.115-56.187c3.048 4.104 5.922 8.325 8.573 12.697-1.076.786-2.19 1.514-3.357 2.157-3.417-2.19-7.124-3.742-10.972-4.983-1.963-.633-3.92-1.286-5.62-2.499-1.011-.721-1.96-1.516-2.266-2.816l13.642-4.556m-6.148 28.741c1.11.486 2.18 1.049 3.131 1.805 1.531 1.216 1.873 2.543 1.243 4.394-.265.778-.859 1.175-1.513 1.521-3.039 1.603-6.305 2.065-9.686 1.834-2.06-.142-4.087-.509-6.008-1.317l12.833-8.237" class="B"/><path d="M179.204 167.344v-5.243l3.707 2.886-3.707 2.357" class="C"/><path d="M113.641 76.175c-.634.073-1.071.408-1.066 1.11.004.688.396 1.099 1.095 1.101s1.095-.393 1.102-1.09c.007-.703-.41-1.051-1.131-1.121m6.053 7.035a1.18 1.18 0 0 0-1.141-1.124c-.592.003-1.133.548-1.129 1.137s.555 1.133 1.142 1.129 1.132-.555 1.128-1.142m8.242 1.592l.15-.792c.235-1.27-.066-2.718 1.354-3.583.267-.162.435-.443.823-.497.796-.112 1.625-.081 2.44-.423l-2.528-.244c-.192-.02-.409.052-.563-.156-.683-.923-1.742-1.64-1.499-3.044.067-.387-.087-.812-.139-1.22.115 3.329-1.501 4.936-4.9 4.781.82.161 1.552.237 2.282.323.286.034.656-.081.836.178.645.929 1.846 1.551 1.587 2.995-.085.473.084.992.157 1.682m25.318 47.557l-3.077-8.086c-.172-.456-.361-.707-.929-.707l-24.872-.066c-.162-.001-.351-.076-.503.104.076.407.43.605.686.869 1.196 1.228 2.346 2.493 3.192 3.998.23.408.441.817.33 1.333-.858 3.971-1.854 7.905-3.049 11.787l-7.788 2.479c-6.884-12.325-12.643-25.134-16.533-38.734-1.845-6.45-3.131-13.005-3.205-19.746-.058-5.274.553-10.425 3.149-15.141 2.801-5.09 7.201-7.896 12.885-8.734 5.713-.843 11.217.243 16.603 2.044 9.398 3.143 17.814 8.141 25.789 13.923 11.239 8.15 21.295 17.628 30.815 27.695 3.325 3.515 6.53 7.138 9.653 10.833.19.224.362.462.542.694-11.39 4.335-22.896 8.346-34.432 12.273l-9.256 3.182" class="B"/><path d="M153.254 132.359l9.255-3.183 34.433-12.272c1.549 1.538 2.804 3.323 4.191 4.996l1.566 2.008c-1.744-.196-3.293-.259-4.844-.22-4.425.111-8.678.921-12.433 3.409-4.55 3.015-6.903 7.277-6.943 12.77-.002.236-.012.471-.018.706l-19.918 5.483c-.113.029-.22.082-.331.124l-4.958-13.821" fill="#ddd"/><path d="M258.025 157.133h-13.493l5.981-19.182 7.512 19.182m-49.945-25.964c-4.513 1.62-9.075 3.095-13.642 4.556-.503-1.373.107-2.413 1.059-3.296 1.134-1.051 2.546-1.549 4.034-1.863 2.709-.57 5.386-.332 8.046.317.186.045.429.028.503.286" class="B"/><path d="M211.952 132.542c-.067-.016-.148-.026-.091-.123.005-.008.108.042.167.064-.026.018-.051.038-.076.059" class="D"/><path d="M70.825 160.311l-11.089 4.467c-.242-6.537-.234-13.076-.129-19.616.02-1.203.003-2.406.003-3.582.249-.076.284.065.335.153l10.699 18.18c.074.125.121.265.181.398" class="B"/><path d="M134.051 138.613l4.071 10.25.843 2.227-.519.106-9.926 2.439 3.13-10.207 1.464-4.528.937-.287" fill="#ddd"/><path d="M128.52 153.636l9.926-2.439.519-.107 1.931 4.826c.175.432.058.564-.401.563l-12.364-.001c-.397 0-.545-.109-.403-.513l.792-2.329" class="B"/><path d="M134.051 138.613l-.937.287a4.97 4.97 0 0 1 .479-1.504c.209.411.405.786.458 1.217" class="D"/><path d="M127.936 84.802c-.073-.69-.242-1.209-.157-1.682.259-1.444-.943-2.067-1.587-2.996-.18-.258-.55-.143-.836-.177l-2.282-.323c3.399.155 5.015-1.452 4.9-4.781.052.407.205.833.138 1.22-.243 1.403.817 2.121 1.499 3.043.155.209.372.136.564.157l2.528.244c-.815.342-1.645.31-2.441.422-.387.055-.556.336-.822.498-1.42.865-1.119 2.313-1.354 3.582l-.15.793m-8.242-1.592c.004.587-.54 1.138-1.128 1.142s-1.139-.542-1.143-1.129.538-1.134 1.13-1.137a1.18 1.18 0 0 1 1.141 1.124m-6.053-7.035c.721.07 1.138.418 1.131 1.121-.007.697-.406 1.092-1.102 1.09s-1.091-.413-1.095-1.101c-.005-.702.432-1.037 1.066-1.11" class="C"/></g></svg>