<?xml version="1.0" encoding="UTF-8" standalone="no"?>
<svg
   width="300"
   height="90"
   viewBox="0 0 300 90"
   version="1.1"
   id="svg6293"
   sodipodi:docname="NASA.svg"
   inkscape:version="1.1.1 (3bf5ae0d25, 2021-09-20)"
   xmlns:inkscape="http://www.inkscape.org/namespaces/inkscape"
   xmlns:sodipodi="http://sodipodi.sourceforge.net/DTD/sodipodi-0.dtd"
   xmlns:xlink="http://www.w3.org/1999/xlink"
   xmlns="http://www.w3.org/2000/svg"
   xmlns:svg="http://www.w3.org/2000/svg"
   xmlns:rdf="http://www.w3.org/1999/02/22-rdf-syntax-ns#"
   xmlns:cc="http://creativecommons.org/ns#"
   xmlns:dc="http://purl.org/dc/elements/1.1/"
   xmlns:sketch="http://www.bohemiancoding.com/sketch/ns">
  <sodipodi:namedview
     id="namedview6295"
     pagecolor="#ffffff"
     bordercolor="#666666"
     borderopacity="1.0"
     inkscape:pageshadow="2"
     inkscape:pageopacity="0.0"
     inkscape:pagecheckerboard="0"
     showgrid="false"
     inkscape:zoom="3.73221"
     inkscape:cx="84.936271"
     inkscape:cy="25.588056"
     inkscape:window-width="1866"
     inkscape:window-height="1016"
     inkscape:window-x="54"
     inkscape:window-y="27"
     inkscape:window-maximized="1"
     inkscape:current-layer="svg6293" />
  <!-- Generator: Sketch 3.4 (15575) - http://www.bohemiancoding.com/sketch -->
  <title
     id="title6205">Page 1</title>
  <desc
     id="desc6207">Created with Sketch.</desc>
  <defs
     id="defs6210">
    <path
       id="path-1"
       d="M 0,0.79 H 354.328 V 302 H 0" />
  </defs>
  <g
     id="Page-1"
     stroke="none"
     stroke-width="1"
     fill="none"
     fill-rule="evenodd"
     sketch:type="MSPage"
     transform="matrix(0.31580381,0,0,0.31580381,94.254959,-2.3280561)">
    <g
       sketch:type="MSLayerGroup"
       id="g6290">
      <g
         id="Group-3">
        <mask
           id="mask-2"
           sketch:name="Clip 2"
           fill="#ffffff">
          <use
             xlink:href="#path-1"
             id="use6212"
             x="0"
             y="0"
             width="100%"
             height="100%" />
        </mask>
      </g>
      <path
         d="m 252.7815,186.4836 c -0.59,0.089 -1.028,0.412 -1.011,1.127 0.016,0.698 0.417,1.087 1.111,1.081 0.701,-0.006 1.091,-0.423 1.087,-1.109 -0.003,-0.695 -0.421,-1.053 -1.187,-1.099 m -28.366,33.081 c 0.597,0.012 1.174,-0.511 1.144,-1.104 -0.035,-0.672 -0.393,-1.113 -1.102,-1.124 -0.705,-0.012 -1.087,0.405 -1.143,1.081 -0.05,0.596 0.497,1.134 1.101,1.147 m -99.656,18.536 c 0.054,0.706 0.431,1.106 1.11,1.159 0.597,0.048 1.133,-0.5 1.12,-1.114 -0.015,-0.698 -0.4,-1.114 -1.09,-1.128 -0.701,-0.014 -1.051,0.428 -1.14,1.083 m 104.9,9.522 c -0.656,0.097 -1.09,0.431 -1.089,1.141 0,0.71 0.435,1.113 1.102,1.114 0.672,0.001 1.109,-0.418 1.105,-1.117 -0.005,-0.692 -0.43,-1.053 -1.118,-1.138 m -45.669,-21.071 c 0.66,-0.11 1.094,-0.449 1.081,-1.159 -0.012,-0.706 -0.444,-1.105 -1.118,-1.098 -0.68,0.008 -1.096,0.436 -1.088,1.131 0.009,0.7 0.454,1.039 1.125,1.126 m 71.417,-10.448 c -0.724,0.007 -1.228,0.516 -1.224,1.128 0.005,0.603 0.539,1.161 1.135,1.111 0.666,-0.056 1.103,-0.419 1.093,-1.133 -0.009,-0.708 -0.437,-1.044 -1.004,-1.106 m 10.237,8.695 c 0.669,-0.103 1.065,-0.468 1.066,-1.169 10e-4,-0.614 -0.55,-1.154 -1.145,-1.089 -0.666,0.072 -1.097,0.453 -1.069,1.161 0.027,0.698 0.459,1.04 1.148,1.097 m 1.096,-19.494 c -0.012,0.64 0.513,1.188 1.108,1.202 0.596,0.014 1.141,-0.506 1.13,-1.115 -0.014,-0.697 -0.397,-1.112 -1.088,-1.131 -0.704,-0.02 -1.048,0.429 -1.15,1.044 m -156.689,30.983 c 0.697,0.023 1.246,-0.488 1.266,-1.085 0.02,-0.592 -0.501,-1.15 -1.094,-1.171 -0.599,-0.022 -1.145,0.487 -1.147,1.098 -10e-4,0.707 0.406,1.06 0.975,1.158 m 114.349,-32.405 c 0.599,0.022 1.146,-0.489 1.167,-1.091 0.021,-0.586 -0.507,-1.151 -1.095,-1.172 -0.584,-0.021 -1.146,0.509 -1.167,1.1 -0.022,0.597 0.491,1.142 1.095,1.163 m -67.595,32.23 c 0.703,0.015 1.247,-0.501 1.26,-1.097 0.013,-0.59 -0.519,-1.146 -1.109,-1.16 -0.599,-0.015 -1.142,0.501 -1.137,1.111 0.006,0.708 0.42,1.054 0.986,1.146 m -31.377,-11.284 c 0.014,-0.768 -0.614,-1.424 -1.367,-1.43 -0.723,-0.005 -1.341,0.592 -1.374,1.327 -0.036,0.784 0.547,1.432 1.315,1.464 0.759,0.032 1.411,-0.59 1.426,-1.361 m 111.305,-29.664 c -0.009,-0.768 -0.654,-1.387 -1.427,-1.369 -0.768,0.017 -1.4,0.681 -1.367,1.433 0.032,0.713 0.676,1.336 1.387,1.343 0.747,0.007 1.415,-0.662 1.407,-1.407 m 38.171,8.896 c 0.75,0.017 1.417,-0.632 1.423,-1.384 0.005,-0.743 -0.666,-1.413 -1.408,-1.405 -0.723,0.008 -1.334,0.614 -1.358,1.347 -0.027,0.78 0.574,1.424 1.343,1.442 m -18.136,-9.562 c 0.01,-0.784 -0.601,-1.407 -1.376,-1.404 -0.763,0.003 -1.396,0.649 -1.383,1.412 0.013,0.719 0.628,1.346 1.347,1.372 0.754,0.027 1.402,-0.606 1.412,-1.38 m -21.57,9.048 c -0.756,-0.02 -1.428,0.623 -1.437,1.376 -0.009,0.736 0.672,1.42 1.41,1.414 0.712,-0.005 1.353,-0.627 1.386,-1.342 0.034,-0.758 -0.594,-1.426 -1.359,-1.448 m 39.858,-10.334 c 10e-4,-0.027 10e-4,-0.054 0.002,-0.081 -0.821,-0.075 -1.643,-0.145 -2.463,-0.226 -0.224,-0.023 -0.449,0.018 -0.649,-0.188 -0.899,-0.926 -1.661,-1.899 -1.539,-3.303 0.028,-0.322 -0.046,-0.652 -0.073,-0.979 -0.01,3.095 -1.223,4.999 -4.713,4.772 0.849,0.209 1.628,0.295 2.405,0.397 0.191,0.026 0.4,-0.039 0.565,0.159 0.818,0.987 1.775,1.892 1.574,3.37 -0.052,0.379 0.064,0.781 0.103,1.172 0.175,-0.904 0.271,-1.81 0.384,-2.715 0.028,-0.228 0.035,-0.544 0.18,-0.658 0.896,-0.707 1.61,-1.767 3.012,-1.544 0.385,0.061 0.807,-0.111 1.212,-0.176 m -17.008,35.348 c 0.027,0.006 0.055,0.012 0.083,0.019 0.105,-0.904 0.207,-1.808 0.32,-2.711 0.025,-0.2 0.025,-0.485 0.15,-0.578 0.886,-0.659 1.518,-1.776 2.896,-1.578 0.45,0.065 0.924,-0.064 1.348,-0.271 -0.856,-0.079 -1.705,-0.155 -2.554,-0.239 -0.194,-0.019 -0.392,0.025 -0.562,-0.166 -0.802,-0.901 -1.663,-1.753 -1.512,-3.128 0.044,-0.401 -0.068,-0.819 -0.101,-1.153 -0.696,1.026 0.039,2.4 -1.109,3.601 -1.16,1.214 -2.55,0.683 -3.692,1.292 0.792,0.084 1.578,0.164 2.362,0.251 0.227,0.026 0.509,-0.054 0.66,0.165 0.659,0.958 1.848,1.631 1.573,3.096 -0.083,0.442 0.085,0.932 0.138,1.4 m -148.814,22.836 c 1.08,0.652 2.436,0.031 3.627,1.214 1.232,1.225 0.617,2.54 1.14,3.711 0.317,-0.788 0.175,-1.693 0.371,-2.539 0.05,-0.218 -0.055,-0.463 0.163,-0.653 0.903,-0.784 1.721,-1.709 3.104,-1.565 0.348,0.037 0.711,-0.067 1.168,-0.117 -0.809,-0.267 -1.556,-0.346 -2.276,-0.287 -0.968,0.08 -1.055,-0.93 -1.699,-1.194 -0.4,-0.164 -0.472,-0.453 -0.526,-0.821 -0.123,-0.837 -0.088,-1.698 -0.375,-2.573 -0.178,3.923 -1.121,4.672 -4.697,4.824 m 182.922,-156.213 c 2.662,5.984 4.794,12.157 6.523,18.469 3.665,13.378 5.272,27.011 4.772,40.867 -0.888,24.626 -7.816,47.456 -20.906,68.327 -15.651,24.955 -37.076,43.289 -64.107,55.01 -10.258,4.448 -20.944,7.487 -31.987,9.282 -10.148,1.65 -20.352,2.174 -30.603,1.521 -23.243,-1.479 -44.759,-8.408 -64.55,-20.678 -7.187,-4.456 -13.914,-9.526 -20.159,-15.232 0.205,-0.207 0.393,-0.435 0.616,-0.62 3.822,-3.155 7.619,-6.338 11.477,-9.448 16.488,-13.295 33.461,-25.947 50.797,-38.113 4.994,-3.505 9.987,-7.013 15.087,-10.364 1.994,2.814 4.038,5.591 6.297,8.199 2.204,2.545 4.493,5.007 7.403,6.78 1.169,0.713 2.404,1.252 3.832,1.112 2.505,-0.244 3.817,-2.82 2.509,-4.944 -0.626,-1.017 -1.484,-1.83 -2.374,-2.605 -2.002,-1.744 -4.188,-3.252 -6.305,-4.85 -2.611,-1.97 -5.239,-3.918 -7.563,-6.236 0.208,-0.16 0.408,-0.334 0.627,-0.478 5.314,-3.499 10.62,-7.01 15.949,-10.486 3.231,-2.106 6.497,-4.157 9.747,-6.233 v 4.548 c 1.951,-1.518 3.827,-2.833 5.672,-4.192 0.507,-0.374 0.912,-0.416 1.514,-0.203 6.422,2.271 12.993,3.188 19.738,1.82 5.632,-1.142 10.569,-3.686 14.497,-7.929 3.804,-4.11 4.278,-9.077 1.509,-13.939 -1.091,-1.915 -2.548,-3.535 -4.136,-5.045 0.474,-0.34 0.949,-0.679 1.423,-1.019 4.487,7.606 8.355,15.514 11.634,23.713 0.176,0.44 0.115,0.68 -0.254,0.954 -1.003,0.746 -1.981,1.525 -3.166,2.444 1.438,0 2.64,0.042 3.838,-0.016 0.68,-0.033 0.961,0.224 1.181,0.847 2.767,7.857 4.985,15.84 5.709,24.18 0.417,4.812 0.351,9.593 -0.949,14.282 -1.726,6.228 -5.366,10.734 -11.724,12.667 -4.232,1.286 -8.554,1.157 -12.864,0.504 -5.568,-0.844 -10.896,-2.553 -16.107,-4.656 -0.266,-0.108 -0.542,-0.375 -0.891,-0.185 0.266,0.54 0.261,0.552 0.683,0.725 7.443,3.048 15,5.672 23.144,6.004 3.992,0.162 7.881,-0.314 11.451,-2.271 4.647,-2.548 7.123,-6.698 8.432,-11.665 1.567,-5.943 1.368,-11.968 0.66,-17.988 -0.665,-5.664 -1.919,-11.219 -3.501,-16.698 -0.54,-1.872 -1.137,-3.727 -1.724,-5.643 3.128,-0.067 6.183,0.071 9.385,-0.151 -1.344,-1.09 -2.074,-2.407 -2.44,-3.922 -0.63,-2.606 -0.09,-5.085 0.865,-7.516 0.133,-0.337 0.355,-0.397 0.683,-0.397 5.31,0.008 10.621,0.01 15.932,-0.002 0.423,-10e-4 0.623,0.128 0.751,0.544 0.361,1.182 0.749,2.356 1.173,3.517 0.821,2.246 0.356,4.141 -1.397,5.777 -0.72,0.671 -1.32,1.471 -1.956,2.191 9.979,0.049 20.092,-0.02 30.231,0.079 -2.335,-1.206 -3.471,-3.288 -4.381,-5.583 -2.344,-5.91 -4.555,-11.87 -6.739,-17.841 -3.317,-9.065 -6.443,-18.201 -9.898,-27.216 -0.281,-0.734 -0.642,-0.936 -1.407,-0.931 -3.51,0.022 -7.02,-0.03 -10.53,-0.056 0.179,-0.149 0.35,-0.31 0.539,-0.446 8.94,-6.453 17.753,-13.072 26.261,-20.088 3.386,-2.793 6.719,-5.65 10.077,-8.478"
         id="Fill-4"
         fill="#b1b1b1"
         sketch:type="MSShapeGroup" />
      <path
         d="m 145.0414,55.5788 c 0.683,-0.021 1.219,-0.552 1.156,-1.151 -0.07,-0.668 -0.45,-1.089 -1.16,-1.061 -0.7,0.027 -1.086,0.439 -1.07,1.133 0.016,0.708 0.466,1.03 1.074,1.079 m 16.671,-5.299 c -0.05,-0.684 -0.421,-1.106 -1.109,-1.111 -0.69,-0.005 -1.106,0.419 -1.115,1.107 -0.008,0.695 0.422,1.119 1.1,1.123 0.676,0.004 1.07,-0.411 1.124,-1.119 m -22.149,-0.381 c -0.072,-0.677 -0.459,-1.06 -1.143,-1.088 -0.593,-0.024 -1.122,0.551 -1.11,1.144 0.012,0.595 0.565,1.156 1.152,1.104 0.675,-0.059 1.062,-0.446 1.101,-1.16 m 3.327,2.321 c 0.011,-0.606 -0.496,-1.139 -1.112,-1.132 -0.706,0.009 -1.087,0.415 -1.148,1.09 -0.052,0.586 0.507,1.138 1.105,1.153 0.588,0.015 1.143,-0.519 1.155,-1.111 m 31.031,4.563 c -0.039,-0.72 -0.406,-1.146 -1.089,-1.163 -0.682,-0.017 -1.123,0.387 -1.133,1.079 -0.01,0.676 0.37,1.114 1.077,1.13 0.702,0.016 1.062,-0.391 1.145,-1.046 m -7.647,-33.341 c -0.098,-0.692 -0.476,-1.088 -1.162,-1.114 -0.604,-0.022 -1.157,0.54 -1.106,1.136 0.058,0.674 0.435,1.095 1.143,1.084 0.708,-0.012 1.038,-0.453 1.125,-1.106 m -25.129,35.4 c -0.064,-0.707 -0.453,-1.095 -1.126,-1.149 -0.581,-0.046 -1.137,0.533 -1.142,1.121 -0.005,0.592 0.528,1.144 1.13,1.123 0.699,-0.024 1.053,-0.434 1.138,-1.095 m 31.559,-16.831 c 0.758,0.008 1.387,-0.632 1.384,-1.408 -0.004,-0.751 -0.569,-1.342 -1.314,-1.373 -0.767,-0.033 -1.422,0.581 -1.439,1.346 -0.016,0.761 0.618,1.426 1.369,1.435 m -14.638,-3.335 c -0.012,-0.748 -0.695,-1.402 -1.438,-1.376 -0.765,0.027 -1.371,0.687 -1.338,1.457 0.032,0.727 0.653,1.33 1.375,1.334 0.742,0.003 1.412,-0.674 1.401,-1.415 m 36.449,29.991 c 0.003,-0.752 -0.66,-1.41 -1.409,-1.397 -0.73,0.012 -1.33,0.611 -1.352,1.348 -0.023,0.786 0.57,1.414 1.348,1.426 0.768,0.012 1.411,-0.614 1.413,-1.377 m -1.595,-26.228 c 0.296,-1.408 -0.213,-3.074 1.375,-4.064 0.023,-0.014 0.041,-0.046 0.048,-0.073 0.105,-0.423 0.424,-0.469 0.799,-0.531 0.835,-0.138 1.7,-0.117 2.438,-0.392 -1.097,-0.486 -2.372,0.134 -3.573,-1 -1.188,-1.122 -0.665,-2.479 -1.203,-3.596 -0.49,1.14 0.005,2.373 -1.095,3.534 -1.118,1.18 -2.463,0.6 -3.593,1.23 1.373,0.226 2.903,-0.151 3.746,1.36 0.025,0.045 0.091,0.082 0.145,0.095 0.434,0.103 0.457,0.433 0.523,0.802 0.159,0.882 0.042,1.812 0.39,2.635 m -164.384,137.656 c -1.116,-4.738 -1.904,-9.534 -2.465,-14.366 -0.706,-6.072 -1.013,-12.168 -0.896,-18.281 0.313,-16.456 3.434,-32.363 9.443,-47.688 5.775,-14.731 13.815,-28.116 24.162,-40.085 17.526,-20.271 39.035,-34.542 64.609,-42.628 8.935,-2.825 18.081,-4.657 27.403,-5.569 10.551,-1.032 21.1,-0.912 31.606,0.522 27.073,3.694 51.014,14.459 71.862,32.095 11.051,9.349 20.393,20.195 28.094,32.453 0.109,0.174 0.201,0.359 0.301,0.538 -4.902,3.057 -9.93,5.898 -15.053,8.562 -18.566,9.654 -37.628,18.225 -57.057,25.987 -3.69,1.474 -7.368,2.979 -11.119,4.293 -4.445,-5.518 -9.118,-10.835 -14.019,-15.951 -9.025,-9.419 -18.707,-18.081 -29.473,-25.484 -7.67,-5.273 -15.72,-9.855 -24.492,-13.06 -5.462,-1.996 -11.055,-3.367 -16.935,-3.064 -3.558,0.183 -6.925,1.066 -9.943,3.029 -4.665,3.032 -7.166,7.547 -8.569,12.762 -1.729,6.431 -1.631,12.962 -0.831,19.5 0.964,7.871 3.04,15.474 5.716,22.927 3.568,9.935 8.339,19.287 13.694,28.358 -0.073,0.047 -0.14,0.112 -0.22,0.138 -5.841,1.93 -11.683,3.857 -17.525,5.783 -0.017,-0.352 -0.051,-0.704 -0.05,-1.056 0.025,-6.136 0.164,-12.273 0.031,-18.405 -0.056,-2.563 0.54,-4.607 2.539,-6.234 0.544,-0.443 1.04,-0.983 1.407,-1.694 -5.206,-0.16 -10.321,-0.145 -15.595,-0.148 0.23,0.283 0.352,0.436 0.478,0.586 1.08,1.288 2.161,2.573 3.1,3.972 0.59,0.879 0.922,1.791 0.894,2.888 -0.06,2.329 -0.017,4.66 -0.006,6.991 0.024,5.19 0.054,10.38 0.082,15.57 -0.356,0.126 -0.711,0.251 -1.067,0.377 -1.391,-2.393 -2.78,-4.787 -4.172,-7.179 -4.37,-7.51 -8.703,-15.04 -13.26,-22.44 -0.413,-0.671 -0.856,-1.021 -1.687,-0.947 -0.907,0.081 -1.827,0.014 -2.741,0.011 -5.811,-0.02 -11.621,-0.041 -17.431,-0.056 -0.254,0 -0.587,-0.11 -0.736,0.15 -0.171,0.297 0.178,0.461 0.327,0.647 0.956,1.199 1.914,2.398 2.908,3.564 0.768,0.902 1.043,1.902 1.036,3.088 -0.055,8.524 -0.076,17.047 -0.076,25.571 -0.001,3.891 0.069,7.783 0.107,11.674 -3.464,1.536 -6.881,3.173 -10.281,4.844 -4.773,2.347 -9.436,4.9 -14.1,7.455"
         id="Fill-6"
         fill="#b1b1b1"
         sketch:type="MSShapeGroup" />
      <path
         d="m 76.6652,218.7179 c -0.615,0.065 -1.059,0.379 -1.066,1.093 -0.007,0.698 0.38,1.1 1.075,1.118 0.7,0.017 1.111,-0.384 1.126,-1.071 0.015,-0.688 -0.39,-1.066 -1.135,-1.14 m 23.724,-1.047 c -0.666,0.075 -1.077,0.427 -1.069,1.131 0.009,0.705 0.431,1.095 1.112,1.089 0.686,-0.007 1.098,-0.421 1.087,-1.117 -0.01,-0.692 -0.425,-1.052 -1.13,-1.103 m 15.449,-38.719 c -0.024,-0.731 -0.404,-1.122 -1.077,-1.19 -0.597,-0.06 -1.173,0.478 -1.153,1.081 0.022,0.67 0.367,1.125 1.076,1.147 0.702,0.021 1.063,-0.39 1.154,-1.038 m -52.701,35.556 c 0.691,0.021 1.242,-0.493 1.262,-1.088 0.02,-0.59 -0.505,-1.147 -1.099,-1.168 -0.601,-0.02 -1.144,0.487 -1.144,1.1 0,0.708 0.408,1.06 0.981,1.156 m 15.389,-3.832 c -0.75,10e-4 -1.388,0.661 -1.377,1.423 0.011,0.737 0.601,1.336 1.336,1.358 0.778,0.023 1.405,-0.581 1.413,-1.361 0.009,-0.775 -0.615,-1.42 -1.372,-1.42 m 38.007,-5.438 c -0.021,-0.774 -0.671,-1.378 -1.442,-1.341 -0.724,0.035 -1.324,0.664 -1.325,1.387 0,0.748 0.672,1.414 1.415,1.4 0.756,-0.015 1.374,-0.676 1.352,-1.446 m -32.953,19.077 c 0.022,-0.748 -0.629,-1.427 -1.375,-1.435 -0.743,-0.007 -1.418,0.662 -1.415,1.405 0.003,0.712 0.622,1.349 1.339,1.381 0.758,0.033 1.428,-0.591 1.451,-1.351 m -14.893,26.173 c -13.815,-13.146 -24.559,-28.446 -32.178,-45.931 -2.944,-6.754 -5.319,-13.706 -7.121,-20.852 -0.035,-0.141 -0.102,-0.275 -0.154,-0.412 0.282,-0.153 0.553,-0.332 0.848,-0.456 2.408,-1.011 4.81,-2.04 7.234,-3.011 4.713,-1.887 9.476,-3.64 14.297,-5.231 h 12.807 c 0.008,-0.087 0.016,-0.174 0.024,-0.261 -0.883,-1.007 -1.766,-2.015 -2.649,-3.022 4.373,-1.438 8.804,-2.681 13.232,-3.937 1.427,2.37 2.874,4.728 4.264,7.119 0.311,0.534 0.643,0.709 1.245,0.707 6.72,-0.021 13.441,-0.012 20.161,-0.019 0.245,0 0.52,0.106 0.794,-0.144 -0.183,-0.264 -0.35,-0.531 -0.543,-0.779 -1.05,-1.348 -2.115,-2.683 -3.158,-4.037 -0.55,-0.715 -0.899,-1.53 -0.907,-2.443 -0.019,-2.092 -0.008,-4.184 -0.008,-6.275 3.107,-0.772 6.213,-1.55 9.322,-2.315 4.934,-1.214 9.87,-2.418 14.806,-3.627 -0.064,0.286 -0.115,0.576 -0.195,0.857 -0.905,3.168 -1.999,6.296 -2.669,9.513 -0.623,2.989 -2.253,5.101 -4.603,6.829 -0.688,0.506 -1.369,1.024 -2.037,1.556 -0.186,0.148 -0.494,0.199 -0.523,0.558 5.444,0.077 10.868,0.232 16.418,0.011 -3.418,-3.141 -3.102,-7.972 -1.358,-11.705 0.193,0.258 0.371,0.484 0.537,0.718 1.426,2.023 2.834,4.058 4.276,6.069 4.777,6.66 9.884,13.064 15.075,19.402 -0.233,0.176 -0.459,0.364 -0.701,0.525 -8.81,5.872 -17.539,11.86 -26.09,18.104 -16.221,11.844 -31.74,24.533 -46.231,38.458 -1.402,1.347 -2.81,2.687 -4.215,4.031"
         id="Fill-8"
         fill="#b1b1b1"
         sketch:type="MSShapeGroup" />
      <path
         d="m 199.4261,115.9279 c 3.751,-1.314 7.43,-2.819 11.119,-4.293 19.429,-7.763 38.492,-16.333 57.058,-25.987 5.123,-2.664 10.151,-5.505 15.053,-8.562 4.435,-2.575 8.734,-5.368 12.993,-8.221 10.498,-7.033 20.576,-14.612 29.888,-23.175 6.683,-6.145 12.898,-12.71 18.001,-20.255 0.312,-0.463 0.736,-0.142 1.096,-0.537 -0.172,1.016 -0.534,1.819 -0.841,2.634 -4.434,11.752 -10.773,22.432 -18.302,32.438 -8.904,11.831 -19.179,22.383 -30.135,32.301 -1.069,0.968 -2.133,1.942 -3.2,2.913 -3.357,2.828 -6.69,5.685 -10.077,8.478 -8.508,7.016 -17.321,13.635 -26.261,20.088 -0.188,0.136 -0.359,0.297 -0.538,0.446 -3.513,2.47 -7.025,4.94 -10.537,7.409 -0.249,0.156 -0.504,0.303 -0.745,0.469 -7.492,5.16 -15.029,10.251 -22.66,15.203 -1,-1.499 -1.945,-3.032 -2.802,-4.617 5.418,-3.442 10.7,-7.084 15.942,-10.785 2.669,-1.884 5.356,-3.744 7.926,-5.764 0.894,-0.551 1.728,-1.182 2.517,-1.875 0.245,-0.161 0.498,-0.311 0.733,-0.486 4.805,-3.575 9.539,-7.24 14.221,-10.974 5.857,-4.673 11.664,-9.407 17.342,-14.297 0.088,-0.093 0.175,-0.186 0.263,-0.278 0.052,-0.043 0.104,-0.085 0.157,-0.127 -0.108,-0.121 -0.171,-0.023 -0.24,0.049 -0.104,0.071 -0.208,0.141 -0.312,0.212 -0.204,0.113 -0.417,0.212 -0.611,0.34 -18.158,11.931 -37.692,21.085 -57.976,28.722 v -4.292 c -0.688,0.559 -1.286,0.987 -1.815,1.487 -1.034,0.978 -2.25,1.21 -3.597,0.981 -2.174,-0.371 -4.343,-0.769 -6.521,-1.112 -0.514,-0.081 -0.841,-0.311 -1.144,-0.704 -1.745,-2.26 -3.512,-4.501 -5.258,-6.76 -0.263,-0.34 -0.666,-0.593 -0.737,-1.069"
         id="Fill-10"
         fill="#dddddd"
         sketch:type="MSShapeGroup" />
      <path
         d="m 68.6874,250.4879 c 1.405,-1.344 2.813,-2.684 4.215,-4.031 14.491,-13.925 30.01,-26.614 46.231,-38.458 8.551,-6.244 17.28,-12.232 26.089,-18.104 0.243,-0.161 0.469,-0.349 0.702,-0.525 1.014,-0.672 2.027,-1.343 3.041,-2.014 2.365,-1.552 4.741,-3.087 7.093,-4.658 3.723,-2.488 7.429,-5 11.143,-7.501 0.745,-0.495 1.489,-0.99 2.234,-1.485 3.256,-2.122 6.512,-4.245 9.768,-6.368 1.236,-0.785 2.471,-1.571 3.707,-2.357 4.153,-2.582 8.306,-5.165 12.458,-7.748 2.455,-1.505 4.922,-2.989 7.359,-4.521 3.531,-2.22 7.118,-4.349 10.569,-6.695 1.167,-0.643 2.281,-1.371 3.357,-2.157 1.048,1.477 1.964,3.035 2.802,4.639 -0.474,0.339 -0.949,0.679 -1.423,1.019 -5.367,3.462 -10.734,6.924 -16.101,10.386 l -12.833,8.237 c -3.326,2.044 -6.621,4.136 -9.859,6.316 -3.251,2.076 -6.517,4.127 -9.748,6.234 -5.329,3.476 -10.635,6.987 -15.949,10.486 -0.219,0.144 -0.419,0.318 -0.627,0.478 -1.323,0.764 -2.567,1.644 -3.799,2.544 -5.1,3.351 -10.093,6.859 -15.087,10.364 -17.336,12.165 -34.309,24.817 -50.797,38.112 -3.857,3.11 -7.655,6.294 -11.477,9.448 -0.223,0.185 -0.411,0.413 -0.616,0.621 -4.145,3.453 -8.224,6.982 -12.237,10.589 -4.006,3.6 -7.907,7.31 -11.852,11.351 0.1,-1.675 0.181,-3.099 0.27,-4.522 0.025,-0.405 0.378,-0.581 0.627,-0.816 6.589,-6.21 13.32,-12.263 20.114,-18.248 0.22,-0.193 0.418,-0.41 0.626,-0.616"
         id="Fill-12"
         fill="#dddddd"
         sketch:type="MSShapeGroup" />
      <path
         d="m 51.6134,174.5949 c -4.822,1.591 -9.584,3.344 -14.297,5.231 -2.424,0.971 -4.826,2 -7.235,3.011 -0.294,0.124 -0.565,0.303 -0.847,0.456 -4.364,1.84 -8.56,4.018 -12.689,6.328 -1.438,0.804 -2.846,1.662 -4.27,2.491 -0.219,0.127 -0.409,0.327 -0.723,0.207 -1.038,-0.397 -2.084,-0.771 -3.252,-1.199 6.617,-4.113 13.389,-7.638 20.236,-11.026 4.664,-2.554 9.327,-5.108 14.1,-7.454 3.4,-1.672 6.817,-3.309 10.281,-4.844 -0.013,0.204 -0.004,0.412 -0.044,0.611 -0.525,2.635 -2.316,4.276 -4.44,5.661 -0.222,0.145 -0.576,0.161 -0.624,0.527 z"
         id="Fill-14"
         fill="#dddddd"
         sketch:type="MSShapeGroup" />
      <path
         d="m 344.7355,24.7996 c -0.035,0.018 -0.068,0.042 -0.105,0.05 -0.012,0.003 -0.033,-0.034 -0.051,-0.052 0.035,-0.019 0.068,-0.043 0.105,-0.052 0.012,-0.002 0.034,0.035 0.051,0.054"
         id="Fill-16"
         fill="#ec1c25"
         sketch:type="MSShapeGroup" />
      <path
         d="m 258.0248,157.1331 c -2.496,-6.373 -4.966,-12.68 -7.512,-19.182 -2.036,6.53 -4.002,12.834 -5.981,19.182 z m -44.729,-11.11 c -3.45,2.345 -7.038,4.475 -10.568,6.695 -2.437,1.532 -4.905,3.016 -7.359,4.521 -1.949,-0.739 -3.9,-1.47 -5.845,-2.217 -6.645,-2.55 -10.367,-7.343 -11.063,-14.449 0.007,-0.235 0.017,-0.471 0.019,-0.706 0.04,-5.493 2.393,-9.755 6.943,-12.77 3.754,-2.488 8.007,-3.299 12.432,-3.409 1.551,-0.039 3.1,0.024 4.844,0.22 -0.602,-0.775 -1.067,-1.406 -1.566,-2.008 -1.387,-1.673 -2.642,-3.458 -4.19,-4.996 -0.181,-0.232 -0.353,-0.471 -0.542,-0.695 -3.123,-3.695 -6.329,-7.317 -9.653,-10.833 -9.52,-10.067 -19.576,-19.544 -30.816,-27.695 -7.974,-5.782 -16.39,-10.78 -25.789,-13.923 -5.386,-1.8 -10.89,-2.887 -16.603,-2.044 -5.683,0.839 -10.083,3.645 -12.885,8.734 -2.595,4.716 -3.207,9.868 -3.149,15.141 0.074,6.742 1.361,13.296 3.206,19.746 3.89,13.6 9.648,26.409 16.532,38.734 -0.86,0.382 -1.75,0.673 -2.669,0.875 -5.355,-9.071 -10.126,-18.422 -13.694,-28.358 -2.677,-7.452 -4.752,-15.055 -5.716,-22.927 -0.801,-6.538 -0.899,-13.069 0.831,-19.499 1.402,-5.216 3.903,-9.73 8.568,-12.763 3.018,-1.962 6.385,-2.845 9.944,-3.028 5.88,-0.304 11.473,1.068 16.934,3.064 8.772,3.205 16.822,7.786 24.493,13.06 10.766,7.402 20.447,16.065 29.472,25.484 4.902,5.116 9.575,10.433 14.019,15.951 0.071,0.476 0.474,0.728 0.737,1.069 1.746,2.259 3.514,4.5 5.258,6.759 0.304,0.394 0.63,0.624 1.145,0.705 2.178,0.343 4.346,0.741 6.52,1.111 1.348,0.23 2.563,-0.002 3.598,-0.98 0.529,-0.5 1.126,-0.928 1.814,-1.487 v 4.292 8.906 c -2.129,-1.51 -4.139,-2.943 -6.47,-3.821 -0.059,-0.022 -0.162,-0.072 -0.167,-0.063 -0.057,0.096 0.024,0.107 0.091,0.123 2.195,3.372 4.39,6.745 6.584,10.118 0.858,1.585 1.802,3.118 2.802,4.616 0.171,0.308 0.335,0.618 0.512,0.922 3.392,5.808 6.544,11.742 9.315,17.874 0.708,1.566 1.381,3.149 2.1,4.794 0.468,-0.527 0.848,-0.999 1.024,-1.613 2.681,-9.357 5.381,-18.708 8.037,-28.072 0.899,-3.167 1.795,-6.338 2.417,-9.576 3.512,-2.47 7.025,-4.939 10.537,-7.409 3.51,0.025 7.02,0.078 10.53,0.055 0.764,-0.005 1.126,0.197 1.407,0.931 3.455,9.016 6.581,18.151 9.897,27.217 2.184,5.97 4.396,11.93 6.739,17.841 0.91,2.295 2.047,4.376 4.382,5.583 -10.14,-0.1 -20.252,-0.031 -30.231,-0.08 0.636,-0.72 1.236,-1.519 1.955,-2.191 1.754,-1.635 2.219,-3.531 1.398,-5.777 -0.424,-1.16 -0.812,-2.335 -1.173,-3.516 -0.128,-0.417 -0.329,-0.546 -0.751,-0.545 -5.311,0.012 -10.622,0.011 -15.933,0.003 -0.327,-10e-4 -0.549,0.059 -0.682,0.397 -0.956,2.43 -1.495,4.91 -0.866,7.516 0.367,1.515 1.097,2.832 2.44,3.922 -3.201,0.222 -6.256,0.083 -9.384,0.151 0.587,1.915 1.184,3.771 1.724,5.643 1.581,5.478 2.835,11.033 3.501,16.698 0.708,6.02 0.907,12.045 -0.66,17.987 -1.309,4.967 -3.785,9.118 -8.433,11.665 -3.569,1.957 -7.459,2.434 -11.45,2.271 -8.144,-0.331 -15.701,-2.955 -23.144,-6.003 -0.422,-0.173 -0.417,-0.186 -0.684,-0.725 0.35,-0.191 0.625,0.077 0.892,0.184 5.21,2.104 10.539,3.812 16.107,4.656 4.309,0.653 8.632,0.783 12.864,-0.504 6.357,-1.933 9.998,-6.439 11.724,-12.667 1.3,-4.689 1.366,-9.469 0.949,-14.282 -0.724,-8.34 -2.943,-16.322 -5.709,-24.18 -0.22,-0.623 -0.501,-0.879 -1.181,-0.847 -1.198,0.058 -2.4,0.017 -3.838,0.017 1.185,-0.919 2.163,-1.699 3.166,-2.445 0.368,-0.273 0.43,-0.513 0.254,-0.953 -3.279,-8.199 -7.148,-16.108 -11.634,-23.713 -0.839,-1.604 -1.755,-3.162 -2.803,-4.639 -2.651,-4.372 -5.524,-8.593 -8.572,-12.697 -0.075,-0.258 -0.318,-0.241 -0.503,-0.286 -2.66,-0.649 -5.337,-0.887 -8.046,-0.317 -1.489,0.314 -2.901,0.812 -4.034,1.862 -0.953,0.884 -1.562,1.924 -1.059,3.297 0.305,1.3 1.254,2.095 2.265,2.816 1.7,1.212 3.658,1.866 5.62,2.499 3.848,1.241 7.555,2.793 10.972,4.983 z"
         id="Fill-18"
         fill="#fefefe"
         sketch:type="MSShapeGroup" />
      <path
         d="m 201.9318,159.9102 c 5.367,-3.462 10.734,-6.924 16.1,-10.387 1.589,1.51 3.045,3.13 4.137,5.046 2.769,4.861 2.295,9.829 -1.509,13.938 -3.928,4.243 -8.865,6.787 -14.497,7.929 -6.746,1.368 -13.317,0.451 -19.738,-1.82 -0.603,-0.213 -1.007,-0.171 -1.515,0.203 -1.844,1.359 -3.72,2.675 -5.671,4.193 v -4.549 c 3.239,-2.18 6.534,-4.273 9.86,-6.316 1.921,0.808 3.948,1.175 6.008,1.317 3.381,0.231 6.647,-0.231 9.686,-1.834 0.654,-0.346 1.248,-0.743 1.513,-1.521 0.63,-1.851 0.288,-3.178 -1.243,-4.394 -0.951,-0.756 -2.021,-1.319 -3.131,-1.805"
         id="Fill-20"
         fill="#fefefe"
         sketch:type="MSShapeGroup" />
      <path
         d="m 149.1163,194.2045 c 1.232,-0.899 2.476,-1.78 3.799,-2.544 2.324,2.318 4.953,4.266 7.563,6.237 2.117,1.597 4.303,3.105 6.305,4.849 0.89,0.775 1.748,1.588 2.375,2.605 1.308,2.124 -0.004,4.7 -2.51,4.944 -1.428,0.14 -2.662,-0.399 -3.832,-1.112 -2.909,-1.773 -5.198,-4.234 -7.403,-6.779 -2.259,-2.609 -4.303,-5.386 -6.297,-8.2"
         id="Fill-22"
         fill="#fefefe"
         sketch:type="MSShapeGroup" />
      <path
         d="m 109.235,251.3968 c 3.575,-0.152 4.519,-0.901 4.696,-4.824 0.287,0.875 0.252,1.736 0.375,2.573 0.054,0.368 0.127,0.657 0.526,0.821 0.645,0.264 0.732,1.274 1.7,1.194 0.719,-0.059 1.466,0.02 2.276,0.287 -0.458,0.05 -0.82,0.153 -1.168,0.117 -1.383,-0.144 -2.202,0.78 -3.104,1.565 -0.219,0.189 -0.113,0.435 -0.164,0.653 -0.196,0.846 -0.053,1.751 -0.37,2.539 -0.523,-1.171 0.092,-2.486 -1.141,-3.711 -1.19,-1.183 -2.547,-0.562 -3.626,-1.214"
         id="Fill-24"
         fill="#fefefe"
         sketch:type="MSShapeGroup" />
      <path
         d="m 258.0483,228.5601 c -0.053,-0.468 -0.22,-0.957 -0.137,-1.4 0.274,-1.465 -0.915,-2.138 -1.574,-3.096 -0.151,-0.219 -0.433,-0.139 -0.66,-0.164 -0.784,-0.088 -1.569,-0.168 -2.362,-0.251 1.142,-0.609 2.532,-0.078 3.693,-1.292 1.147,-1.201 0.412,-2.576 1.108,-3.601 0.033,0.334 0.145,0.752 0.101,1.152 -0.15,1.375 0.71,2.228 1.512,3.128 0.17,0.191 0.368,0.147 0.562,0.166 0.849,0.084 1.698,0.16 2.554,0.24 -0.424,0.206 -0.898,0.335 -1.348,0.27 -1.378,-0.198 -2.009,0.919 -2.895,1.578 -0.126,0.093 -0.126,0.378 -0.151,0.579 -0.113,0.902 -0.215,1.807 -0.32,2.71 -0.028,-0.006 -0.055,-0.013 -0.083,-0.019"
         id="Fill-26"
         fill="#fefefe"
         sketch:type="MSShapeGroup" />
      <path
         d="m 275.0569,193.2121 c -0.405,0.065 -0.827,0.238 -1.212,0.177 -1.402,-0.223 -2.116,0.837 -3.013,1.544 -0.144,0.113 -0.151,0.43 -0.179,0.658 -0.113,0.904 -0.209,1.811 -0.385,2.715 -0.039,-0.392 -0.154,-0.794 -0.103,-1.173 0.202,-1.477 -0.756,-2.383 -1.574,-3.369 -0.165,-0.199 -0.373,-0.134 -0.565,-0.159 -0.776,-0.102 -1.555,-0.189 -2.404,-0.397 3.49,0.227 4.702,-1.677 4.713,-4.772 0.027,0.326 0.1,0.657 0.072,0.978 -0.121,1.405 0.641,2.378 1.539,3.303 0.201,0.207 0.426,0.166 0.65,0.188 0.82,0.081 1.641,0.152 2.462,0.226 0,0.027 -0.001,0.054 -0.001,0.081"
         id="Fill-28"
         fill="#fefefe"
         sketch:type="MSShapeGroup" />
      <path
         d="m 235.1988,203.547 c 0.765,0.021 1.392,0.69 1.358,1.447 -0.032,0.716 -0.674,1.337 -1.385,1.343 -0.738,0.005 -1.419,-0.678 -1.41,-1.415 0.009,-0.753 0.681,-1.396 1.437,-1.375"
         id="Fill-30"
         fill="#fefefe"
         sketch:type="MSShapeGroup" />
      <path
         d="m 256.7684,194.4985 c -0.01,0.774 -0.658,1.407 -1.412,1.38 -0.718,-0.026 -1.334,-0.653 -1.347,-1.372 -0.013,-0.763 0.62,-1.409 1.384,-1.412 0.775,-0.003 1.385,0.621 1.375,1.404"
         id="Fill-32"
         fill="#fefefe"
         sketch:type="MSShapeGroup" />
      <path
         d="m 274.9047,204.0602 c -0.769,-0.018 -1.37,-0.662 -1.344,-1.441 0.025,-0.734 0.636,-1.34 1.358,-1.347 0.743,-0.008 1.414,0.662 1.408,1.405 -0.005,0.752 -0.673,1.4 -1.422,1.383"
         id="Fill-34"
         fill="#fefefe"
         sketch:type="MSShapeGroup" />
      <path
         d="m 236.7331,195.1642 c 0.009,0.745 -0.66,1.414 -1.407,1.407 -0.711,-0.006 -1.355,-0.63 -1.386,-1.342 -0.034,-0.753 0.599,-1.417 1.366,-1.434 0.773,-0.017 1.418,0.602 1.427,1.369"
         id="Fill-36"
         fill="#fefefe"
         sketch:type="MSShapeGroup" />
      <path
         d="m 125.428,224.8282 c -0.015,0.771 -0.666,1.394 -1.425,1.362 -0.769,-0.033 -1.351,-0.681 -1.316,-1.465 0.033,-0.735 0.652,-1.331 1.374,-1.326 0.754,0.005 1.382,0.662 1.367,1.429"
         id="Fill-38"
         fill="#fefefe"
         sketch:type="MSShapeGroup" />
      <path
         d="m 156.8051,236.1125 c -0.566,-0.092 -0.98,-0.438 -0.986,-1.146 -0.005,-0.61 0.538,-1.126 1.137,-1.111 0.591,0.014 1.122,0.57 1.11,1.16 -0.013,0.597 -0.557,1.112 -1.261,1.097"
         id="Fill-40"
         fill="#fefefe"
         sketch:type="MSShapeGroup" />
      <path
         d="m 224.4005,203.8831 c -0.604,-0.022 -1.117,-0.567 -1.095,-1.164 0.021,-0.591 0.583,-1.121 1.167,-1.1 0.588,0.021 1.116,0.587 1.095,1.173 -0.021,0.601 -0.568,1.113 -1.167,1.091"
         id="Fill-42"
         fill="#fefefe"
         sketch:type="MSShapeGroup" />
      <path
         d="m 110.0511,236.2876 c -0.568,-0.098 -0.976,-0.451 -0.974,-1.158 0.001,-0.611 0.547,-1.12 1.146,-1.098 0.593,0.021 1.114,0.579 1.094,1.171 -0.02,0.597 -0.569,1.108 -1.266,1.085"
         id="Fill-44"
         fill="#fefefe"
         sketch:type="MSShapeGroup" />
      <path
         d="m 266.7408,205.3043 c 0.102,-0.615 0.446,-1.064 1.15,-1.044 0.691,0.019 1.074,0.434 1.087,1.131 0.012,0.61 -0.533,1.129 -1.129,1.115 -0.596,-0.014 -1.12,-0.561 -1.108,-1.202"
         id="Fill-46"
         fill="#fefefe"
         sketch:type="MSShapeGroup" />
      <path
         d="m 265.6442,224.7986 c -0.689,-0.057 -1.12,-0.399 -1.148,-1.097 -0.028,-0.708 0.403,-1.089 1.07,-1.161 0.594,-0.065 1.145,0.475 1.144,1.089 -10e-4,0.701 -0.396,1.066 -1.066,1.169"
         id="Fill-48"
         fill="#fefefe"
         sketch:type="MSShapeGroup" />
      <path
         d="m 255.4077,216.1037 c 0.567,0.062 0.995,0.398 1.004,1.106 0.01,0.714 -0.428,1.077 -1.093,1.132 -0.596,0.051 -1.13,-0.507 -1.135,-1.11 -0.004,-0.612 0.499,-1.122 1.224,-1.128"
         id="Fill-50"
         fill="#fefefe"
         sketch:type="MSShapeGroup" />
      <path
         d="m 183.9908,226.5513 c -0.672,-0.087 -1.117,-0.426 -1.125,-1.125 -0.008,-0.695 0.408,-1.124 1.088,-1.131 0.674,-0.008 1.105,0.391 1.118,1.097 0.013,0.71 -0.421,1.049 -1.081,1.159"
         id="Fill-52"
         fill="#fefefe"
         sketch:type="MSShapeGroup" />
      <path
         d="m 229.6597,247.6227 c 0.688,0.085 1.113,0.446 1.118,1.138 0.004,0.699 -0.433,1.118 -1.105,1.117 -0.667,-0.001 -1.102,-0.404 -1.103,-1.114 0,-0.71 0.434,-1.044 1.09,-1.141"
         id="Fill-54"
         fill="#fefefe"
         sketch:type="MSShapeGroup" />
      <path
         d="m 124.7599,238.1009 c 0.088,-0.655 0.438,-1.098 1.139,-1.083 0.69,0.014 1.075,0.43 1.09,1.128 0.014,0.614 -0.522,1.161 -1.119,1.114 -0.679,-0.053 -1.056,-0.453 -1.11,-1.159"
         id="Fill-56"
         fill="#fefefe"
         sketch:type="MSShapeGroup" />
      <path
         d="m 224.4154,219.5643 c -0.604,-0.013 -1.151,-0.551 -1.101,-1.147 0.057,-0.676 0.438,-1.092 1.143,-1.081 0.709,0.012 1.068,0.452 1.102,1.124 0.03,0.593 -0.547,1.117 -1.144,1.104"
         id="Fill-58"
         fill="#fefefe"
         sketch:type="MSShapeGroup" />
      <path
         d="m 252.7815,186.4836 c 0.766,0.046 1.184,0.404 1.187,1.099 0.004,0.686 -0.386,1.103 -1.087,1.109 -0.694,0.006 -1.095,-0.383 -1.111,-1.081 -0.017,-0.715 0.421,-1.038 1.011,-1.127"
         id="Fill-60"
         fill="#fefefe"
         sketch:type="MSShapeGroup" />
      <path
         d="m 51.6134,174.5949 h -3.804 c 0.048,-0.366 0.402,-0.382 0.624,-0.527 2.124,-1.385 3.915,-3.026 4.44,-5.661 0.04,-0.199 0.031,-0.407 0.044,-0.611 -0.038,-3.891 -0.108,-7.783 -0.107,-11.674 0,-8.524 0.021,-17.048 0.076,-25.571 0.007,-1.186 -0.268,-2.186 -1.036,-3.088 -0.994,-1.167 -1.952,-2.365 -2.908,-3.564 -0.149,-0.187 -0.498,-0.35 -0.327,-0.648 0.149,-0.259 0.482,-0.15 0.736,-0.149 5.81,0.015 11.62,0.036 17.431,0.055 0.914,0.004 1.834,0.071 2.741,-0.01 0.831,-0.074 1.274,0.276 1.687,0.947 4.557,7.399 8.89,14.93 13.26,22.44 1.392,2.392 2.781,4.786 4.172,7.179 0.324,0.608 0.649,1.216 1.067,1.998 v -2.375 c -0.028,-5.19 -0.058,-10.38 -0.082,-15.57 -0.011,-2.331 -0.054,-4.662 0.006,-6.991 0.028,-1.097 -0.304,-2.009 -0.894,-2.888 -0.939,-1.399 -2.02,-2.685 -3.1,-3.972 -0.126,-0.15 -0.248,-0.304 -0.478,-0.587 5.274,0.004 10.389,-0.011 15.595,0.149 -0.367,0.711 -0.862,1.251 -1.407,1.694 -1.999,1.627 -2.595,3.67 -2.539,6.234 0.133,6.131 -0.006,12.269 -0.031,18.405 -10e-4,0.352 0.033,0.704 0.05,1.056 -0.08,3.546 -0.03,7.092 0.045,10.638 0.001,2.091 -0.01,4.183 0.009,6.275 0.008,0.913 0.357,1.728 0.907,2.443 1.042,1.354 2.107,2.689 3.158,4.037 0.193,0.248 0.36,0.515 0.543,0.779 -0.274,0.25 -0.55,0.144 -0.794,0.144 -6.721,0.007 -13.441,-0.002 -20.161,0.019 -0.602,0.002 -0.934,-0.173 -1.245,-0.707 -1.39,-2.391 -2.838,-4.749 -4.265,-7.119 -1.4,-2.354 -2.801,-4.709 -4.201,-7.064 -0.06,-0.133 -0.108,-0.273 -0.181,-0.397 -3.564,-6.062 -7.13,-12.122 -10.699,-18.181 -0.051,-0.087 -0.086,-0.229 -0.335,-0.152 0,1.175 0.016,2.378 -0.003,3.581 -0.106,6.54 -0.113,13.079 0.129,19.617 -0.091,2.422 0.246,4.71 2.058,6.533 0.884,1.007 1.767,2.015 2.65,3.022 -0.008,0.087 -0.016,0.174 -0.024,0.261 z"
         id="Fill-62"
         fill="#fefefe"
         sketch:type="MSShapeGroup" />
      <path
         d="m 96.8749,161.5034 c -0.076,-3.546 -0.125,-7.091 -0.045,-10.637 5.842,-1.927 11.684,-3.854 17.525,-5.783 0.08,-0.027 0.147,-0.092 0.22,-0.139 0.919,-0.202 1.809,-0.493 2.669,-0.875 2.596,-0.826 5.192,-1.652 7.788,-2.478 -0.357,1.332 -0.689,2.672 -1.077,3.997 -0.974,3.327 -1.848,6.685 -2.952,9.974 -4.935,1.208 -9.872,2.413 -14.806,3.626 -3.109,0.765 -6.215,1.543 -9.322,2.315"
         id="Fill-64"
         fill="#dddddd"
         sketch:type="MSShapeGroup" />
      <path
         d="m 192.9207,42.439 c -0.349,-0.823 -0.231,-1.753 -0.39,-2.636 -0.067,-0.368 -0.089,-0.698 -0.523,-0.801 -0.054,-0.013 -0.12,-0.05 -0.145,-0.096 -0.843,-1.51 -2.374,-1.133 -3.746,-1.36 1.13,-0.629 2.475,-0.049 3.592,-1.229 1.101,-1.162 0.605,-2.394 1.096,-3.534 0.538,1.117 0.015,2.474 1.203,3.596 1.201,1.134 2.476,0.514 3.573,1 -0.738,0.275 -1.603,0.254 -2.438,0.392 -0.375,0.062 -0.694,0.108 -0.8,0.531 -0.006,0.027 -0.025,0.059 -0.047,0.073 -1.588,0.989 -1.079,2.656 -1.375,4.064"
         id="Fill-66"
         fill="#fefefe"
         sketch:type="MSShapeGroup" />
      <path
         d="m 194.5158,68.6669 c -0.002,0.763 -0.645,1.389 -1.414,1.377 -0.777,-0.012 -1.37,-0.64 -1.347,-1.426 0.022,-0.737 0.622,-1.336 1.352,-1.348 0.748,-0.013 1.411,0.645 1.409,1.397"
         id="Fill-68"
         fill="#fefefe"
         sketch:type="MSShapeGroup" />
      <path
         d="m 158.066,38.6754 c 0.012,0.741 -0.659,1.418 -1.4,1.415 -0.723,-0.003 -1.344,-0.606 -1.375,-1.334 -0.034,-0.77 0.572,-1.43 1.337,-1.457 0.743,-0.025 1.426,0.628 1.438,1.376"
         id="Fill-70"
         fill="#fefefe"
         sketch:type="MSShapeGroup" />
      <path
         d="m 172.7048,42.0103 c -0.751,-0.009 -1.385,-0.673 -1.369,-1.434 0.016,-0.766 0.672,-1.379 1.439,-1.347 0.745,0.032 1.31,0.623 1.313,1.374 0.004,0.776 -0.625,1.416 -1.383,1.407"
         id="Fill-72"
         fill="#fefefe"
         sketch:type="MSShapeGroup" />
      <path
         d="m 141.1451,58.8414 c -0.085,0.662 -0.439,1.072 -1.137,1.095 -0.602,0.021 -1.136,-0.531 -1.131,-1.123 0.005,-0.588 0.561,-1.167 1.142,-1.12 0.673,0.053 1.063,0.442 1.126,1.148"
         id="Fill-74"
         fill="#fefefe"
         sketch:type="MSShapeGroup" />
      <path
         d="m 166.2741,23.4416 c -0.087,0.653 -0.416,1.094 -1.124,1.106 -0.709,0.011 -1.086,-0.41 -1.144,-1.084 -0.051,-0.596 0.502,-1.158 1.106,-1.136 0.686,0.026 1.064,0.422 1.162,1.114"
         id="Fill-76"
         fill="#fefefe"
         sketch:type="MSShapeGroup" />
      <path
         d="m 173.921,56.7824 c -0.082,0.655 -0.443,1.063 -1.145,1.046 -0.706,-0.016 -1.087,-0.454 -1.077,-1.13 0.01,-0.692 0.451,-1.096 1.133,-1.079 0.683,0.017 1.051,0.443 1.089,1.163"
         id="Fill-78"
         fill="#fefefe"
         sketch:type="MSShapeGroup" />
      <path
         d="m 142.8901,52.2202 c -0.011,0.591 -0.567,1.126 -1.155,1.111 -0.598,-0.015 -1.157,-0.567 -1.104,-1.154 0.06,-0.674 0.442,-1.081 1.147,-1.089 0.616,-0.008 1.124,0.526 1.112,1.132"
         id="Fill-80"
         fill="#fefefe"
         sketch:type="MSShapeGroup" />
      <path
         d="m 139.5638,49.8984 c -0.04,0.714 -0.426,1.101 -1.101,1.161 -0.588,0.051 -1.14,-0.509 -1.152,-1.104 -0.012,-0.594 0.516,-1.169 1.11,-1.145 0.683,0.028 1.071,0.411 1.143,1.088"
         id="Fill-82"
         fill="#fefefe"
         sketch:type="MSShapeGroup" />
      <path
         d="m 161.7123,50.2794 c -0.054,0.709 -0.448,1.124 -1.124,1.12 -0.678,-0.004 -1.108,-0.429 -1.1,-1.124 0.009,-0.688 0.425,-1.112 1.115,-1.107 0.688,0.005 1.059,0.428 1.109,1.111"
         id="Fill-84"
         fill="#fefefe"
         sketch:type="MSShapeGroup" />
      <path
         d="m 145.0414,55.5788 c -0.608,-0.049 -1.058,-0.371 -1.074,-1.079 -0.016,-0.694 0.37,-1.106 1.07,-1.133 0.71,-0.028 1.09,0.393 1.16,1.061 0.063,0.599 -0.473,1.13 -1.156,1.151"
         id="Fill-86"
         fill="#fefefe"
         sketch:type="MSShapeGroup" />
      <path
         d="m 89.7096,153.3358 v 2.375 c -0.418,-0.782 -0.743,-1.39 -1.068,-1.998 0.356,-0.126 0.712,-0.251 1.068,-0.377"
         id="Fill-88"
         fill="#ec1c25"
         sketch:type="MSShapeGroup" />
      <path
         d="m 128.5197,153.6355 c -0.263,0.777 -0.519,1.555 -0.792,2.329 -0.142,0.404 0.006,0.513 0.403,0.513 4.121,-0.009 8.243,-0.01 12.364,0.001 0.459,0.001 0.576,-0.131 0.401,-0.563 -0.652,-1.606 -1.289,-3.217 -1.931,-4.826 -0.281,-0.742 -0.551,-1.489 -0.843,-2.227 -1.354,-3.418 -2.714,-6.833 -4.071,-10.249 -0.053,-0.431 -0.25,-0.806 -0.458,-1.217 -0.256,0.498 -0.397,0.991 -0.479,1.504 -0.489,1.509 -0.995,3.013 -1.464,4.528 -1.053,3.399 -2.088,6.804 -3.13,10.207 m -7.517,1.927 c 1.104,-3.29 1.978,-6.647 2.952,-9.975 0.388,-1.324 0.72,-2.664 1.078,-3.997 1.195,-3.882 2.191,-7.817 3.048,-11.787 0.112,-0.516 -0.1,-0.925 -0.329,-1.333 -0.847,-1.505 -1.996,-2.77 -3.192,-3.998 -0.256,-0.264 -0.611,-0.462 -0.686,-0.869 0.151,-0.18 0.34,-0.105 0.502,-0.104 8.291,0.023 16.582,0.059 24.873,0.066 0.567,0 0.757,0.251 0.928,0.707 1.015,2.7 2.05,5.392 3.078,8.086 1.652,4.607 3.305,9.214 4.958,13.821 2.94,8.296 5.936,16.571 9.287,24.713 0.441,1.073 1.064,2.035 1.936,2.82 -0.745,0.495 -1.49,0.989 -2.234,1.484 -0.176,-0.015 -0.352,-0.042 -0.528,-0.042 -7.935,-0.035 -15.869,-0.068 -23.804,-0.1 -0.66,-0.003 -1.321,-10e-4 -2.186,-10e-4 1.186,-1.138 2.279,-2.034 3.157,-3.144 0.855,-1.083 1.189,-2.258 0.872,-3.635 -0.378,-1.641 -1.012,-3.197 -1.488,-4.804 -0.135,-0.459 -0.451,-0.452 -0.818,-0.45 -1.622,0.008 -3.245,0.003 -4.867,0.003 h -7.773 c 6.211,8.404 12.887,16.225 19.198,24.332 -1.013,0.671 -2.027,1.343 -3.04,2.014 -5.191,-6.338 -10.299,-12.742 -15.075,-19.402 -1.442,-2.011 -2.851,-4.046 -4.277,-6.068 -0.165,-0.235 -0.343,-0.461 -0.536,-0.719 -1.744,3.733 -2.061,8.564 1.357,11.705 -5.549,0.221 -10.973,0.066 -16.417,-0.011 0.029,-0.359 0.337,-0.41 0.523,-0.558 0.668,-0.532 1.348,-1.05 2.036,-1.556 2.351,-1.727 3.981,-3.839 4.604,-6.829 0.67,-3.217 1.764,-6.345 2.669,-9.512 0.08,-0.282 0.13,-0.572 0.194,-0.857"
         id="Fill-90"
         fill="#fefefe"
         sketch:type="MSShapeGroup" />
      <path
         d="m 70.825,160.3112 c 1.401,2.355 2.801,4.709 4.202,7.064 -4.428,1.256 -8.859,2.498 -13.232,3.936 -1.813,-1.822 -2.15,-4.11 -2.059,-6.533 3.696,-1.489 7.393,-2.978 11.089,-4.467"
         id="Fill-92"
         fill="#dddddd"
         sketch:type="MSShapeGroup" />
      <path
         d="m 83.5798,224.3148 c -0.023,0.761 -0.692,1.384 -1.45,1.351 -0.718,-0.032 -1.336,-0.669 -1.339,-1.381 -0.004,-0.743 0.671,-1.412 1.414,-1.404 0.747,0.007 1.398,0.686 1.375,1.434"
         id="Fill-94"
         fill="#fefefe"
         sketch:type="MSShapeGroup" />
      <path
         d="m 116.5336,205.2375 c 0.022,0.771 -0.597,1.432 -1.353,1.446 -0.742,0.014 -1.415,-0.652 -1.414,-1.4 0.001,-0.723 0.601,-1.351 1.324,-1.386 0.771,-0.037 1.421,0.566 1.443,1.34"
         id="Fill-96"
         fill="#fefefe"
         sketch:type="MSShapeGroup" />
      <path
         d="m 78.5258,210.6764 c 0.757,-0.001 1.381,0.644 1.373,1.419 -0.009,0.78 -0.636,1.384 -1.413,1.361 -0.736,-0.022 -1.326,-0.621 -1.337,-1.358 -0.011,-0.762 0.627,-1.421 1.377,-1.422"
         id="Fill-98"
         fill="#fefefe"
         sketch:type="MSShapeGroup" />
      <path
         d="m 63.1374,214.5082 c -0.573,-0.097 -0.982,-0.448 -0.981,-1.156 0,-0.613 0.543,-1.12 1.144,-1.1 0.594,0.02 1.119,0.578 1.099,1.168 -0.02,0.594 -0.571,1.109 -1.262,1.088"
         id="Fill-100"
         fill="#fefefe"
         sketch:type="MSShapeGroup" />
      <path
         d="m 115.8383,178.952 c -0.091,0.648 -0.452,1.059 -1.154,1.038 -0.709,-0.022 -1.054,-0.477 -1.076,-1.147 -0.02,-0.603 0.556,-1.141 1.153,-1.081 0.673,0.068 1.053,0.459 1.077,1.19"
         id="Fill-102"
         fill="#fefefe"
         sketch:type="MSShapeGroup" />
      <path
         d="m 100.3896,217.6708 c 0.705,0.051 1.119,0.411 1.13,1.103 0.011,0.697 -0.401,1.11 -1.087,1.117 -0.681,0.006 -1.104,-0.383 -1.112,-1.089 -0.009,-0.704 0.403,-1.055 1.069,-1.131"
         id="Fill-104"
         fill="#fefefe"
         sketch:type="MSShapeGroup" />
      <path
         d="m 76.6652,218.7179 c 0.745,0.074 1.15,0.452 1.135,1.14 -0.015,0.687 -0.426,1.088 -1.126,1.071 -0.695,-0.018 -1.082,-0.42 -1.075,-1.118 0.007,-0.714 0.451,-1.028 1.066,-1.093"
         id="Fill-106"
         fill="#fefefe"
         sketch:type="MSShapeGroup" />
      <path
         d="m 212.0287,132.4818 c 2.33,0.879 4.34,2.311 6.469,3.821 v -8.906 c 20.285,-7.637 39.818,-16.79 57.976,-28.722 0.194,-0.127 0.407,-0.227 0.611,-0.34 0.044,0.048 0.089,0.096 0.133,0.144 -5.679,4.89 -11.486,9.625 -17.343,14.297 -4.681,3.734 -9.416,7.4 -14.22,10.974 -0.235,0.175 -0.489,0.325 -0.734,0.487 h -4.175 c 0.467,0.802 1.159,1.256 1.659,1.874 -2.571,2.02 -5.258,3.88 -7.926,5.764 -5.242,3.701 -10.525,7.343 -15.943,10.785 -2.194,-3.373 -4.389,-6.745 -6.584,-10.118 0.025,-0.021 0.051,-0.041 0.077,-0.06"
         id="Fill-108"
         fill="#b1b1b1"
         sketch:type="MSShapeGroup" />
      <path
         d="m 244.7427,131.6053 c -0.622,3.238 -1.518,6.409 -2.417,9.576 -2.656,9.364 -5.356,18.715 -8.037,28.072 -0.176,0.614 -0.556,1.086 -1.023,1.612 -0.72,-1.644 -1.392,-3.227 -2.1,-4.793 -2.772,-6.132 -5.924,-12.066 -9.316,-17.874 -0.177,-0.304 -0.341,-0.614 -0.511,-0.922 7.63,-4.952 15.168,-10.043 22.659,-15.202 0.242,-0.166 0.496,-0.313 0.745,-0.469"
         id="Fill-110"
         fill="#b1b1b1"
         sketch:type="MSShapeGroup" />
      <path
         d="m 242.4044,126.1108 c -0.499,-0.618 -1.192,-1.072 -1.658,-1.874 h 4.175 c -0.789,0.692 -1.623,1.323 -2.517,1.874"
         id="Fill-112"
         fill="#fefefe"
         sketch:type="MSShapeGroup" />
      <path
         d="m 277.085,98.3349 c 0.104,-0.071 0.208,-0.141 0.312,-0.212 0.028,0.026 0.056,0.052 0.083,0.078 -0.088,0.092 -0.175,0.185 -0.263,0.278 -0.044,-0.048 -0.088,-0.096 -0.132,-0.144"
         id="Fill-114"
         fill="#0066b1"
         sketch:type="MSShapeGroup" />
      <path
         d="m 277.3973,98.1231 c 0.068,-0.072 0.131,-0.17 0.239,-0.049 -0.052,0.042 -0.104,0.084 -0.156,0.126 -0.028,-0.026 -0.055,-0.051 -0.083,-0.077"
         id="Fill-116"
         fill="#0066b1"
         sketch:type="MSShapeGroup" />
      <path
         d="m 169.4353,173.7122 c -0.872,-0.784 -1.494,-1.747 -1.936,-2.819 -3.351,-8.142 -6.347,-16.418 -9.287,-24.714 0.111,-0.042 0.218,-0.094 0.332,-0.124 6.662,-1.741 13.296,-3.587 19.917,-5.482 0.696,7.106 4.417,11.899 11.062,14.449 1.945,0.747 3.897,1.478 5.845,2.217 -4.152,2.582 -8.305,5.165 -12.458,7.748 -1.331,-0.839 -2.485,-1.916 -3.707,-2.886 v 5.243 c -3.256,2.123 -6.512,4.245 -9.768,6.368"
         id="Fill-118"
         fill="#b1b1b1"
         sketch:type="MSShapeGroup" />
      <path
         d="m 148.965,187.3556 c -6.311,-8.107 -12.988,-15.928 -19.199,-24.332 h 7.774 c 1.622,0 3.245,0.005 4.867,-0.003 0.367,-0.002 0.683,-0.009 0.818,0.45 0.476,1.607 1.11,3.163 1.488,4.804 0.317,1.377 -0.017,2.552 -0.873,3.635 -0.877,1.11 -1.97,2.006 -3.157,3.144 0.866,0 1.526,-0.002 2.187,0.001 7.934,0.032 15.869,0.065 23.804,0.1 0.176,0 0.351,0.027 0.527,0.042 -3.713,2.502 -7.42,5.014 -11.143,7.501 -2.352,1.572 -4.728,3.107 -7.093,4.658"
         id="Fill-120"
         fill="#b1b1b1"
         sketch:type="MSShapeGroup" />
      <path
         d="m 208.0803,131.169 c 3.048,4.104 5.922,8.325 8.573,12.697 -1.076,0.786 -2.19,1.514 -3.357,2.157 -3.417,-2.19 -7.124,-3.742 -10.972,-4.983 -1.963,-0.633 -3.92,-1.286 -5.62,-2.499 -1.011,-0.721 -1.96,-1.516 -2.266,-2.816 4.567,-1.461 9.129,-2.936 13.642,-4.556"
         id="Fill-122"
         fill="#b1b1b1"
         sketch:type="MSShapeGroup" />
      <path
         d="m 201.9318,159.9102 c 1.11,0.486 2.18,1.049 3.131,1.805 1.531,1.216 1.873,2.543 1.243,4.394 -0.265,0.778 -0.859,1.175 -1.513,1.521 -3.039,1.603 -6.305,2.065 -9.686,1.834 -2.06,-0.142 -4.087,-0.509 -6.008,-1.317 4.277,-2.746 8.555,-5.491 12.833,-8.237"
         id="Fill-124"
         fill="#b1b1b1"
         sketch:type="MSShapeGroup" />
      <path
         d="m 179.2036,167.3444 v -5.243 c 1.222,0.97 2.376,2.046 3.707,2.886 -1.236,0.786 -2.471,1.571 -3.707,2.357"
         id="Fill-126"
         fill="#fefefe"
         sketch:type="MSShapeGroup" />
      <path
         d="m 113.6413,76.1745 c -0.634,0.073 -1.071,0.408 -1.066,1.11 0.004,0.688 0.396,1.099 1.095,1.101 0.696,0.002 1.095,-0.393 1.102,-1.09 0.007,-0.703 -0.41,-1.051 -1.131,-1.121 m 6.053,7.035 c -0.004,-0.594 -0.546,-1.127 -1.141,-1.124 -0.592,0.003 -1.133,0.548 -1.129,1.137 0.003,0.587 0.555,1.133 1.142,1.129 0.588,-0.004 1.132,-0.555 1.128,-1.142 m 8.242,1.592 c 0.074,-0.392 0.113,-0.592 0.15,-0.792 0.235,-1.27 -0.066,-2.718 1.354,-3.583 0.267,-0.162 0.435,-0.443 0.823,-0.497 0.796,-0.112 1.625,-0.081 2.44,-0.423 -0.889,-0.084 -1.709,-0.157 -2.528,-0.244 -0.192,-0.02 -0.409,0.052 -0.563,-0.156 -0.683,-0.923 -1.742,-1.64 -1.499,-3.044 0.067,-0.387 -0.087,-0.812 -0.139,-1.22 0.115,3.329 -1.501,4.936 -4.9,4.781 0.82,0.161 1.552,0.237 2.282,0.323 0.286,0.034 0.656,-0.081 0.836,0.178 0.645,0.929 1.846,1.551 1.587,2.995 -0.085,0.473 0.084,0.992 0.157,1.682 m 25.318,47.557 c -1.028,-2.694 -2.063,-5.386 -3.077,-8.086 -0.172,-0.456 -0.361,-0.707 -0.929,-0.707 -8.291,-0.007 -16.582,-0.043 -24.872,-0.066 -0.162,-10e-4 -0.351,-0.076 -0.503,0.104 0.076,0.407 0.43,0.605 0.686,0.869 1.196,1.228 2.346,2.493 3.192,3.998 0.23,0.408 0.441,0.817 0.33,1.333 -0.858,3.971 -1.854,7.905 -3.049,11.787 -2.596,0.827 -5.192,1.653 -7.788,2.479 -6.884,-12.325 -12.643,-25.134 -16.533,-38.734 -1.845,-6.45 -3.131,-13.005 -3.205,-19.746 -0.058,-5.274 0.553,-10.425 3.149,-15.141 2.801,-5.09 7.201,-7.896 12.885,-8.734 5.713,-0.843 11.217,0.243 16.603,2.044 9.398,3.143 17.814,8.141 25.789,13.923 11.239,8.15 21.295,17.628 30.815,27.695 3.325,3.515 6.53,7.138 9.653,10.833 0.19,0.224 0.362,0.462 0.542,0.694 -11.39,4.335 -22.896,8.346 -34.432,12.273 -3.089,1.051 -6.171,2.121 -9.256,3.182"
         id="Fill-128"
         fill="#b1b1b1"
         sketch:type="MSShapeGroup" />
      <path
         d="m 153.2543,132.3588 c 3.085,-1.061 6.167,-2.131 9.255,-3.183 11.537,-3.926 23.043,-7.937 34.433,-12.272 1.549,1.538 2.804,3.323 4.191,4.996 0.499,0.602 0.963,1.233 1.566,2.008 -1.744,-0.196 -3.293,-0.259 -4.844,-0.22 -4.425,0.111 -8.678,0.921 -12.433,3.409 -4.55,3.015 -6.903,7.277 -6.943,12.77 -0.002,0.236 -0.012,0.471 -0.018,0.706 -6.621,1.895 -13.255,3.742 -19.918,5.483 -0.113,0.029 -0.22,0.082 -0.331,0.124 -1.653,-4.607 -3.305,-9.214 -4.958,-13.821"
         id="Fill-130"
         fill="#dddddd"
         sketch:type="MSShapeGroup" />
      <path
         d="m 258.0248,157.1331 h -13.493 c 1.979,-6.348 3.945,-12.652 5.981,-19.182 2.546,6.502 5.016,12.809 7.512,19.182"
         id="Fill-132"
         fill="#b1b1b1"
         sketch:type="MSShapeGroup" />
      <path
         d="m 208.0803,131.169 c -4.513,1.62 -9.075,3.095 -13.642,4.556 -0.503,-1.373 0.107,-2.413 1.059,-3.296 1.134,-1.051 2.546,-1.549 4.034,-1.863 2.709,-0.57 5.386,-0.332 8.046,0.317 0.186,0.045 0.429,0.028 0.503,0.286"
         id="Fill-134"
         fill="#b1b1b1"
         sketch:type="MSShapeGroup" />
      <path
         d="m 211.952,132.5416 c -0.067,-0.016 -0.148,-0.026 -0.091,-0.123 0.005,-0.008 0.108,0.042 0.167,0.064 -0.026,0.018 -0.051,0.038 -0.076,0.059"
         id="Fill-136"
         fill="#0066b1"
         sketch:type="MSShapeGroup" />
      <path
         d="m 70.825,160.3112 c -3.696,1.489 -7.393,2.978 -11.089,4.467 -0.242,-6.537 -0.234,-13.076 -0.129,-19.616 0.02,-1.203 0.003,-2.406 0.003,-3.582 0.249,-0.076 0.284,0.065 0.335,0.153 3.569,6.058 7.135,12.119 10.699,18.18 0.074,0.125 0.121,0.265 0.181,0.398"
         id="Fill-138"
         fill="#b1b1b1"
         sketch:type="MSShapeGroup" />
      <path
         d="m 134.0505,138.6132 c 1.358,3.416 2.717,6.832 4.071,10.25 0.292,0.738 0.563,1.484 0.843,2.227 -0.173,0.035 -0.347,0.064 -0.519,0.106 -3.309,0.812 -6.617,1.626 -9.926,2.439 1.042,-3.402 2.077,-6.807 3.13,-10.207 0.469,-1.515 0.975,-3.019 1.464,-4.528 0.312,-0.096 0.625,-0.191 0.937,-0.287"
         id="Fill-140"
         fill="#dddddd"
         sketch:type="MSShapeGroup" />
      <path
         d="m 128.5197,153.6355 c 3.309,-0.813 6.617,-1.627 9.926,-2.439 0.171,-0.042 0.346,-0.071 0.519,-0.107 0.642,1.609 1.279,3.22 1.931,4.826 0.175,0.432 0.058,0.564 -0.401,0.563 -4.121,-0.011 -8.243,-0.01 -12.364,-0.001 -0.397,0 -0.545,-0.109 -0.403,-0.513 0.273,-0.774 0.529,-1.552 0.792,-2.329"
         id="Fill-142"
         fill="#b1b1b1"
         sketch:type="MSShapeGroup" />
      <path
         d="m 134.0505,138.6132 c -0.312,0.096 -0.625,0.191 -0.937,0.287 0.083,-0.512 0.224,-1.006 0.479,-1.504 0.209,0.411 0.405,0.786 0.458,1.217"
         id="Fill-144"
         fill="#0066b1"
         sketch:type="MSShapeGroup" />
      <path
         d="m 127.9364,84.8019 c -0.073,-0.69 -0.242,-1.209 -0.157,-1.682 0.259,-1.444 -0.943,-2.067 -1.587,-2.996 -0.18,-0.258 -0.55,-0.143 -0.836,-0.177 -0.73,-0.086 -1.462,-0.162 -2.282,-0.323 3.399,0.155 5.015,-1.452 4.9,-4.781 0.052,0.407 0.205,0.833 0.138,1.22 -0.243,1.403 0.817,2.121 1.499,3.043 0.155,0.209 0.372,0.136 0.564,0.157 0.819,0.086 1.639,0.159 2.528,0.244 -0.815,0.342 -1.645,0.31 -2.441,0.422 -0.387,0.055 -0.556,0.336 -0.822,0.498 -1.42,0.865 -1.119,2.313 -1.354,3.582 -0.038,0.2 -0.076,0.4 -0.15,0.793"
         id="Fill-146"
         fill="#fefefe"
         sketch:type="MSShapeGroup" />
      <path
         d="m 119.6944,83.2095 c 0.004,0.587 -0.54,1.138 -1.128,1.142 -0.587,0.004 -1.139,-0.542 -1.143,-1.129 -0.003,-0.589 0.538,-1.134 1.13,-1.137 0.595,-0.003 1.137,0.53 1.141,1.124"
         id="Fill-148"
         fill="#fefefe"
         sketch:type="MSShapeGroup" />
      <path
         d="m 113.6413,76.1745 c 0.721,0.07 1.138,0.418 1.131,1.121 -0.007,0.697 -0.406,1.092 -1.102,1.09 -0.699,-0.002 -1.091,-0.413 -1.095,-1.101 -0.005,-0.702 0.432,-1.037 1.066,-1.11"
         id="Fill-150"
         fill="#fefefe"
         sketch:type="MSShapeGroup" />
    </g>
  </g>
  <metadata
     id="metadata6377">
    <rdf:RDF>
      <cc:Work
         rdf:about="">
        <dc:title>Page 1</dc:title>
      </cc:Work>
    </rdf:RDF>
  </metadata>
</svg>
