<svg xmlns="http://www.w3.org/2000/svg" width="300" height="90" fill="#b1b1b1" fill-rule="evenodd" xmlns:v="https://vecta.io/nano"><path d="M53.421 19.381l.043 17.984.002 22.282v1.541H33.83V36.263H22.784v25.01H3.101V19.381H53.42m55.163 0l.043 17.977.002 22.274v1.632c-2.574 0-5.068.045-7.557-.047-.392-.014-.823-.608-1.132-1.013L81.772 36.416l-1.075-1.327v26.116h-9.203v-1.573l-.002-38.644-.043-1.607h8.611l19.374 25.658V19.381h9.149m85.839 0l17.366 41.888c-3.172 0-6.151.029-9.129-.043-.313-.008-.732-.562-.897-.949l-2.999-7.315c-.303-.784-.709-1.071-1.567-1.063a706.07 706.07 0 0 1-14.121-.004c-.93-.01-1.33.316-1.648 1.147a175.35 175.35 0 0 1-2.998 7.315c-.168.387-.698.866-1.072.875l-8.715.04 17.439-41.892h8.342zm-4.313 11.109l-5.421 13.237h10.851l-5.43-13.237zm70.258 40.118h-9.097V29.452h8.995v4.252l.587-.528c5.02-6.308 14.152-5.205 18.912-.641 3.951 3.787 5.18 8.571 4.978 13.809-.176 4.566-1.596 8.657-5.032 11.911-4.728 4.478-13.709 5.271-18.696-.231-.141-.157-.317-.282-.647-.572zm15.309-25.467c-.075-.566-.13-1.417-.307-2.243-.7-3.261-3.203-5.75-6.256-6.275-3.012-.517-6.075.869-7.62 3.656-1.848 3.334-1.874 6.791-.007 10.117 2.03 3.618 6.477 4.836 10.002 2.81 2.98-1.712 4.045-4.509 4.189-8.066zm-52.62 12.214v13.264h-8.933v-41.18h8.918v4.169c.366-.267.522-.337.618-.456 5.156-6.448 14.872-5.219 19.676.149 3.344 3.735 4.383 8.203 4.201 13.046-.169 4.483-1.522 8.518-4.819 11.728-4.928 4.799-13.972 5.399-18.886-.045-.139-.153-.312-.275-.775-.676zm-.093-11.611c.069.504.122 1.357.311 2.179.836 3.646 3.788 6.154 7.279 6.231 3.518.078 6.498-2.261 7.497-5.939.614-2.262.542-4.521-.324-6.714-1.879-4.759-7.436-6.482-11.393-3.515-2.459 1.843-3.309 4.456-3.369 7.758zm-85.449 5.66l5.209 4.599c-2.089 2.707-4.748 4.441-7.981 5.343-7.324 2.043-14.995-.431-18.931-6.16-5.747-8.364-2.94-22.613 8.714-25.837 9.64-2.667 18.382 3.308 19.564 13.34.172 1.461.14 2.944.244 4.414.077 1.086-.333 1.449-1.46 1.44l-19.234-.025h-1.576c.615 2.681 1.904 4.658 4.373 5.543 4.175 1.495 7.833.397 11.078-2.658zm-2.15-8.671c-.516-4.218-3.406-6.941-6.944-6.646-3.476.29-6.365 3.321-6.283 6.646z"/><path d="M149.887 37.147h-3.767v-1.595-6.157h3.725v-8.054h9.144v7.999h7.414v7.794h-7.271l-.089 1.34v11.95c.011 2.682.945 3.578 3.633 3.313 1.225-.12 2.421-.535 3.756-.846l-.036 6.6c-.01.322-.436.76-.776.921-3.558 1.69-7.262 1.97-10.968.668-3.325-1.169-4.516-3.97-4.619-7.2-.16-5.007-.109-10.021-.147-15.031v-1.703m141.64 2.151c-2.987-.033-5.274-2.363-5.208-5.306s2.426-5.207 5.385-5.165 5.225 2.365 5.195 5.338c-.03 2.954-2.346 5.167-5.372 5.133zm4.341-5.187c.019-2.471-1.853-4.455-4.222-4.474-2.323-.018-4.315 2.009-4.337 4.413-.022 2.416 1.904 4.416 4.274 4.438 2.399.021 4.266-1.886 4.285-4.377z"/><path d="M289.551 30.974l2.311.004c.97.029 1.926.131 2.192 1.314.261 1.162-.266 1.886-1.426 2.23l1.577 2.549c-2.09.359-1.602-2.694-3.678-2.419l-.021 1.817c-.024.231-.278.44-.427.659-.176-.2-.501-.398-.505-.602l-.023-5.552zm1.089.576v2.34l2.309-.741c.103-.043.107-.755 0-.802-.685-.301-1.414-.503-2.309-.796z"/></svg>