<?xml version="1.0" encoding="UTF-8" standalone="no"?>
<svg
   width="300"
   height="90"
   viewBox="0 0 300 90"
   version="1.1"
   id="svg6622"
   sodipodi:docname="netapp.svg"
   inkscape:version="1.1.1 (3bf5ae0d25, 2021-09-20)"
   xmlns:inkscape="http://www.inkscape.org/namespaces/inkscape"
   xmlns:sodipodi="http://sodipodi.sourceforge.net/DTD/sodipodi-0.dtd"
   xmlns="http://www.w3.org/2000/svg"
   xmlns:svg="http://www.w3.org/2000/svg"
   xmlns:rdf="http://www.w3.org/1999/02/22-rdf-syntax-ns#"
   xmlns:cc="http://creativecommons.org/ns#"
   xmlns:dc="http://purl.org/dc/elements/1.1/"
   xmlns:sketch="http://www.bohemiancoding.com/sketch/ns">
  <sodipodi:namedview
     id="namedview6624"
     pagecolor="#ffffff"
     bordercolor="#666666"
     borderopacity="1.0"
     inkscape:pageshadow="2"
     inkscape:pageopacity="0.0"
     inkscape:pagecheckerboard="0"
     showgrid="false"
     inkscape:zoom="1.5826383"
     inkscape:cx="137.11282"
     inkscape:cy="-6.6344913"
     inkscape:window-width="1866"
     inkscape:window-height="1016"
     inkscape:window-x="54"
     inkscape:window-y="27"
     inkscape:window-maximized="1"
     inkscape:current-layer="svg6622" />
  <!-- Generator: Sketch 3.3.3 (12072) - http://www.bohemiancoding.com/sketch -->
  <title
     id="title6605">Imported Layers</title>
  <desc
     id="desc6607">Created with Sketch.</desc>
  <defs
     id="defs6609" />
  <g
     id="Page-1"
     stroke="none"
     stroke-width="1"
     fill="none"
     fill-rule="evenodd"
     sketch:type="MSPage"
     transform="matrix(0.85485988,0,0,0.85485988,3.0499817,19.335481)">
    <g
       id="Imported-Layers"
       sketch:type="MSLayerGroup"
       fill="#b1b1b1">
      <path
         d="m 58.922809,0.05321739 c 0.01725,7.01269561 0.04339,14.02486961 0.05071,21.03704361 0.0084,8.688522 0.0021,17.376522 0.0021,26.065043 v 1.802609 H 36.005508 V 19.802087 H 23.084596 V 49.058609 H 0.06012158 V 0.05321739 H 58.922809"
         id="Fill-1"
         sketch:type="MSShapeGroup" />
      <path
         d="m 123.45104,0.05321739 c 0.0178,7.01008691 0.0434,14.02017361 0.0507,21.02973961 0.009,8.685391 0.002,17.370782 0.002,26.055652 v 1.908521 c -3.0113,0 -5.92903,0.05322 -8.84048,-0.0553 -0.45902,-0.0167 -0.96247,-0.711652 -1.32477,-1.185391 C 106.24477,38.539304 99.16924,29.258087 92.087963,19.981043 91.774809,19.570956 91.43865,19.178087 90.830638,18.428348 V 48.978261 H 80.065216 v -1.839652 c 0,-15.068348 5.23e-4,-30.136696 -0.0021,-45.2050438 -5.23e-4,-0.6266087 -0.03294,-1.25321737 -0.05071,-1.88034781 H 90.085131 C 97.556413,9.9474783 105.0277,19.842261 112.74887,30.067304 V 0.05321739 h 10.70217"
         id="Fill-2"
         sketch:type="MSShapeGroup" />
      <path
         d="m 223.86349,0.05321739 c 6.73728,16.25165261 13.47507,32.50330461 20.3143,49.00017361 -3.71029,0 -7.19577,0.03391 -10.67864,-0.05061 -0.36648,-0.0089 -0.85582,-0.65687 -1.04978,-1.10974 -1.21393,-2.833565 -2.39493,-5.68226 -3.50796,-8.556521 -0.35498,-0.916696 -0.82968,-1.252696 -1.83292,-1.243826 -5.50557,0.04957 -11.01271,0.05635 -16.51828,-0.0042 -1.08794,-0.012 -1.55636,0.369391 -1.92807,1.341913 -1.10153,2.878435 -2.2773,5.730782 -3.50744,8.556521 -0.1971,0.45287 -0.81661,1.012696 -1.25419,1.023653 -3.29728,0.08609 -6.59821,0.04696 -10.19505,0.04696 6.84863,-16.451478 13.62459,-32.727652 20.40003,-49.00434761 h 9.758 z M 218.8185,13.048174 c -2.23547,5.458956 -4.27961,10.449391 -6.34151,15.484174 h 12.69297 C 223.07668,23.429739 221.043,18.47113 218.8185,13.048174 Z"
         id="Fill-3"
         sketch:type="MSShapeGroup" />
      <path
         d="M 301.00523,59.977565 H 290.36318 V 11.834609 h 10.5218 v 4.974261 c 0.42086,-0.375131 0.57665,-0.478435 0.68696,-0.617218 5.87205,-7.3789563 16.55435,-6.088174 22.12317,-0.750261 4.62152,4.430087 6.05973,10.025739 5.82343,16.154087 -0.20598,5.341566 -1.86691,10.126435 -5.88616,13.933044 -5.53067,5.238261 -16.03626,6.165913 -21.87014,-0.269739 -0.16521,-0.183131 -0.37067,-0.32974 -0.75701,-0.66887 z m 17.90786,-29.790261 c -0.0878,-0.661565 -0.15213,-1.657565 -0.35968,-2.623304 -0.8187,-3.814957 -3.74688,-6.726783 -7.3181,-7.340348 -3.52365,-0.605217 -7.10585,1.016348 -8.91316,4.276696 -2.16176,3.9 -2.19208,7.944 -0.008,11.83513 2.37506,4.232348 7.57636,5.656696 11.69966,3.286957 3.48548,-2.002957 4.7313,-5.274261 4.89964,-9.435131 z"
         id="Fill-4"
         sketch:type="MSShapeGroup" />
      <path
         d="M 257.35905,44.474087 V 59.990609 H 246.90992 V 11.819478 h 10.43188 v 4.877218 c 0.42869,-0.312522 0.61115,-0.394435 0.7225,-0.53374 6.0315,-7.5422603 17.39657,-6.104869 23.01716,0.174261 3.91208,4.369566 5.12759,9.595305 4.91376,15.26087 -0.19814,5.244522 -1.78064,9.964174 -5.63731,13.719652 -5.76488,5.613913 -16.34471,6.316174 -22.09233,-0.05322 -0.16207,-0.179479 -0.36543,-0.321913 -0.90653,-0.790435 z m -0.10822,-13.582435 c 0.081,0.589044 0.14325,1.587131 0.36335,2.548696 0.97815,4.265217 4.43122,7.198435 8.51426,7.288696 4.11493,0.0913 7.60146,-2.644696 8.76991,-6.947479 0.71832,-2.646261 0.63363,-5.288869 -0.37903,-7.853739 -2.19836,-5.566956 -8.69829,-7.582435 -13.32765,-4.111304 -2.87642,2.156348 -3.87078,5.212695 -3.94084,9.07513 z"
         id="Fill-5"
         sketch:type="MSShapeGroup" />
      <path
         d="m 157.29374,37.513565 c 2.07184,1.829218 4.0318,3.559826 6.09371,5.380174 -2.44355,3.166957 -5.55419,5.195478 -9.33609,6.250435 -8.56759,2.390087 -17.54035,-0.504 -22.14461,-7.205739 -6.72264,-9.783652 -3.43948,-26.452174 10.19296,-30.223305 11.27672,-3.1199996 21.50313,3.86974 22.88541,15.605218 0.20127,1.708695 0.16416,3.444 0.28597,5.163652 0.0899,1.270435 -0.38896,1.694609 -1.70798,1.684174 -7.49951,-0.06052 -15.00007,-0.02922 -22.50011,-0.02922 h -1.8439 c 0.71937,3.136696 2.22711,5.448522 5.11556,6.483653 4.88344,1.749391 9.16253,0.464869 12.95908,-3.109044 z m -2.51465,-10.142609 c -0.60383,-4.933565 -3.98371,-8.119826 -8.12269,-7.774956 -4.06631,0.339652 -7.44619,3.884348 -7.34999,7.774956 z"
         id="Fill-6"
         sketch:type="MSShapeGroup" />
      <path
         d="m 171.76683,20.83513 h -4.40665 v -1.865739 -7.202608 h 4.35699 V 2.3457391 H 182.4141 V 11.70313 h 8.67267 v 9.117392 h -8.50537 c -0.045,0.652695 -0.10299,1.110261 -0.10404,1.567826 -0.006,4.659652 -0.0178,9.318782 0.001,13.978435 0.0125,3.137217 1.10519,4.185391 4.25033,3.876 1.43299,-0.14087 2.83199,-0.626087 4.3941,-0.98974 0,2.538261 0.0382,5.131305 -0.0418,7.720174 -0.0115,0.376174 -0.51025,0.889044 -0.9081,1.077913 -4.1625,1.977392 -8.49491,2.304 -12.82994,0.781044 -3.88908,-1.366957 -5.28286,-4.644522 -5.40362,-8.421913 -0.18664,-5.857044 -0.12809,-11.721913 -0.172,-17.583131 -0.005,-0.609913 -5.3e-4,-1.219826 -5.3e-4,-1.992"
         id="Fill-7"
         sketch:type="MSShapeGroup" />
      <path
         d="m 337.45459,23.350956 c -3.49385,-0.03913 -6.169,-2.764695 -6.09215,-6.20713 0.0769,-3.442956 2.83774,-6.091304 6.29918,-6.042261 3.4677,0.04852 6.11253,2.766261 6.07698,6.244696 -0.035,3.454956 -2.74468,6.044348 -6.28401,6.004695 z m 5.07792,-6.067826 c 0.022,-2.890434 -2.16804,-5.21113 -4.93886,-5.233043 -2.71749,-0.02087 -5.04812,2.349913 -5.07373,5.162087 -0.0256,2.826261 2.22763,5.166261 4.9995,5.191304 2.80584,0.02504 4.99061,-2.206435 5.01309,-5.120348 z"
         id="Fill-8"
         sketch:type="MSShapeGroup" />
      <path
         d="m 335.14383,13.614261 c 1.04141,0 1.87318,-0.0193 2.7039,0.0047 1.13447,0.03339 2.25325,0.15287 2.5638,1.537044 0.30531,1.35913 -0.31107,2.206435 -1.66825,2.608174 0.61429,0.99287 1.18623,1.917391 1.84495,2.981217 -2.44512,0.42 -1.8737,-3.151304 -4.30209,-2.829391 0,0.722087 0.0481,1.430087 -0.024,2.125565 -0.0277,0.270783 -0.32518,0.514435 -0.49979,0.770609 -0.20598,-0.234261 -0.58606,-0.465391 -0.59129,-0.703826 -0.0471,-2.126609 -0.0272,-4.254261 -0.0272,-6.494087 z m 1.27405,0.673565 v 2.737044 c 1.04612,-0.318261 1.89723,-0.535305 2.70077,-0.867131 0.12024,-0.05009 0.12547,-0.883304 0,-0.938609 -0.80145,-0.352173 -1.65413,-0.588 -2.70077,-0.931304 z"
         id="Fill-9"
         sketch:type="MSShapeGroup" />
    </g>
  </g>
  <metadata
     id="metadata6706">
    <rdf:RDF>
      <cc:Work
         rdf:about="">
        <dc:title>Imported Layers</dc:title>
      </cc:Work>
    </rdf:RDF>
  </metadata>
</svg>
