<svg xmlns="http://www.w3.org/2000/svg" width="300" height="90" xmlns:v="https://vecta.io/nano"><path d="M41.47 80.241c-4.504.791-9.087 1.028-13.828 1.66l-14.46-42.353v44.17c-4.504.474-8.613 1.106-12.88 1.738V4.543h12.011l16.435 45.909V4.543H41.47zm24.89-46.066l16.91-.237V46.58l-16.91.237v18.806l22.362-1.344v12.168l-35.005 2.766V4.543h35.005v12.643H66.361zm69.376-16.988h-13.117v58.156l-12.642.158V17.186H96.862V4.543h38.876zm20.544 16.119h17.305v12.642h-17.305v28.683h-12.406V4.543h35.322v12.643h-22.915zm43.459 30.263c7.191.158 14.46.712 21.493 1.106V77.16l-34.135-1.66V4.543h12.642zm32.16 14.46c4.03.237 8.297.475 12.406.948V4.543H231.9zm67.797-73.486l-16.041 38.481 16.041 42.432c-4.741-.632-9.482-1.501-14.224-2.292l-9.086-23.388-9.244 21.493c-4.584-.791-9.009-1.028-13.591-1.66l16.277-37.059-14.698-38.007h13.59l8.297 21.256 8.85-21.256z" fill="#d81f26"/></svg>