<svg xmlns="http://www.w3.org/2000/svg" width="300" height="90" xmlns:v="https://vecta.io/nano"><defs><clipPath id="A"><path d="M0 1815.97V0h5760v1815.97z"/></clipPath></defs><g clip-path="url(#A)" fill="#b1b1b1" transform="matrix(.04839 0 0 -.04839 10.638002 88.937079)"><path d="M23.012 1766.66v-26.23l65.734-73.77v-506.51L0 1135.38v-29.72h240.25v29.92l-75.703 20.02-19.317 23.71v422.67l421.102-501.33h37.051v602.43l89.172 27v31.46H448.746v-35.45l77.481-19.44 18.875-23.73v-400.4l-.164.48h-4.954l-408.632 483.66H23.012m1044.338-439.13c0 110.97-60.43 205.09-155.537 205.09-85.215 0-127.809-74.32-127.809-185.28s53.496-208.05 153.562-208.05c85.214 0 129.784 77.28 129.784 188.24zM924.691 1094.7c-118.894 0-232.82 76.29-232.82 238.78 0 161.49 120.867 242.72 232.82 242.72 116.909 0 234.809-73.31 234.809-234.8 0-155.55-124.84-246.7-234.809-246.7m1430.639 280.39c0 110.96-62.43 132.75-134.74 132.75-61.42 0-101.05-45.57-101.05-45.57l.02-73.32v-212.07l18.96-23.83 64.06-22.35.12-25.09h-230.68v25.75l65.38 24.77-.1 477.54c0 86.41-21.8 109.97-69.36 109.97v22.79l146.64 49.54h9.91s-4.95-102.04-4.95-178.33v-137.73s95.11 76.29 160.49 76.29c81.25 0 156.55-33.68 156.55-153.56l-.09-245.76 18.96-23.83 64.07-22.35.11-25.09h-230.68v25.75l63.42 24.1 2.96 219.63m1081.53 22.78c47.54 1.99 64.39 10.9 64.39 59.45 0 41.61-29.72 73.31-93.13 73.31-66.38 0-116.9-58.45-116.9-137.7zm-145.64-37.64c0-137.73 78.27-195.19 167.43-195.19 55.49 0 121.86 22.8 121.86 22.8l9.91-18.83c-23.77-23.78-90.16-74.31-173.38-74.31-112.95 0-214.01 84.22-214.01 238.78 0 140.68 97.1 242.72 217.97 242.72 94.12 0 167.44-56.46 167.44-163.47 0-27.74-4.95-52.5-4.95-52.5h-292.27m406.05-247.69c-6.93 2.97-24.77 12.87-25.76 33.68l-5.94 94.12h43.6c11.87-64.4 55.46-106 111.95-106 57.46 0 80.24 29.71 80.24 69.34 0 37.65-30.71 57.47-68.36 77.28l-50.52 25.76c-72.32 36.66-108 66.39-108 137.72 0 89.17 64.39 131.76 164.46 131.76 70.35 0 124.84-26.74 124.84-26.74l-12.88-115.92h-40.62c0 72.32-29.72 99.08-90.16 99.08-40.62 0-78.26-15.85-78.26-55.49 0-31.7 12.87-45.57 91.14-86.19l44.58-22.79c81.25-41.61 104.04-76.29 104.04-143.67 0-81.23-81.24-129.78-160.5-129.78-50.54 0-95.12 5.95-123.85 17.84m924.65 285.33c47.56 1.99 64.4 10.9 64.4 59.45 0 41.61-29.71 73.31-93.12 73.31-66.38 0-116.92-58.45-116.92-137.7zm-145.64-37.64c0-137.73 78.28-195.19 167.44-195.19 55.48 0 121.86 22.8 121.86 22.8l9.91-18.83c-23.79-23.78-90.15-74.31-173.38-74.31-112.94 0-214 84.22-214 238.78 0 140.68 97.09 242.72 217.96 242.72 94.12 0 167.45-56.46 167.45-163.47 0-27.74-4.96-52.5-4.96-52.5h-292.28"/><path d="M5695.92 1153.05l-18.94 23.84.94 250.71c0 115.92-75.29 148.6-152.56 148.6-65.4 0-157.54-76.29-157.54-76.29 0 41.62 1.98 79.27 1.98 79.27h-7.92l-144.66-52.51v-23.78c55.49 0 70.34-49.53 70.34-138.7v-208.06l-65.38-24.77v-25.75h227.8l1.82 25.09-64.08 22.35-18.95 23.84.05 284.39s34.67 46.56 97.08 46.56c64.41 0 130.79-22.78 130.79-132.75l-3.04-219.87-63.26-23.86v-25.75h227.8l1.81 25.09-64.08 22.35M2946 1100.65l-106.14 294.3-121.62-294.3h-41.57l-119.5 363.6c-16.83 45.57-26.47 72.32-58.18 72.32v27.75h195.57v-28l-59.54-19.55 89.16-301.2 78.28 188.25 18.22 47.74-26.89 76.63-33.93 8.38v27.75h189.11v-29.67l-59.6-17.88 100.48-301.2 104.39 299.21-67.37 23.78v25.76h177.34v-27.75c-40.62-4.95-60.43-15.84-92.14-97.09l-119.39-338.83H2946m-1028.86 73.31s-27.74-17.83-69.35-17.83c-44.58 0-85.21 24.77-84.21 86.2l3.96 259.57h146.63l.01.05h1.34l1.99 16.1h.06l9.9 81.35-18.85 3.4-14.18-31.05-8.08-6.8-116.58-4.52v-.03l-1.25-.05v117.9l-57.46-9.9-24.77-111.96-81.25-7.93v-38.64c44.58 0 81.25-3.96 81.25-46.55 0-42.6-3.96-176.37-3.96-229.86 0-101.06 38.64-138.71 103.04-138.71 55.47 0 101.05 22.79 142.66 56.48l-10.9 22.78m2425.54 0s-27.73-17.83-69.35-17.83c-44.58 0-85.2 24.77-84.22 86.2l3.97 259.57h146.63v.05h.29l1.98 16.1h.07l9.91 81.35-18.86 3.4-14.19-31.05-8.06-6.8-116.6-4.52v-.07l-.18-.01v117.9l-57.46-9.9-24.77-111.96-81.25-7.93v-38.64c44.59 0 81.25-3.96 81.25-46.55 0-42.6-3.96-176.37-3.96-229.86 0-101.06 38.65-138.71 103.04-138.71 55.47 0 101.06 22.79 142.66 56.48l-10.9 22.78"/><path d="M1548.31 1570.26v.01l-.05.01c-.49.17-17.28 5.92-49.5 5.92-69.34 0-141.68-108.98-141.68-108.98 0 60.44 1.99 111.96 1.99 111.96h-7.93l-141.67-52.51v-23.78c53.5 0 70.35-48.55 70.35-130.77v-215.99l-65.4-24.77v-25.75h227.79l-.11 25.09-64.07 22.35-18.96 23.83v212.07c0 65.39 51.53 102.05 107 102.05 11.36 0 23.01-2.8 32.96-6.17l15.52-22.87 19.09-1.56 14.67 109.86m3623.69 0v.01l-.06.01c-.47.17-17.27 5.92-49.48 5.92-69.36 0-141.69-108.98-141.69-108.98 0 60.44 1.99 111.96 1.99 111.96h-7.93l-141.67-52.51v-23.78c53.51 0 70.34-48.55 70.34-130.77v-215.99l-65.39-24.77v-25.75h227.78l-.1 25.09-64.08 22.35-18.95 23.83v212.07c0 65.39 51.52 102.05 106.99 102.05 11.37 0 23.01-2.8 32.97-6.17l15.51-22.87 19.09-1.56 14.68 109.86M2979.29 524.559c47.56 1.992 64.41 10.902 64.41 59.453 0 41.609-29.73 73.308-93.14 73.308-66.38 0-116.91-58.449-116.91-137.711zm-145.64-37.637c0-137.731 78.28-195.184 167.44-195.184 55.49 0 121.86 22.793 121.86 22.793l9.92-18.832c-23.77-23.769-90.17-74.301-173.39-74.301-112.94 0-213.99 84.211-213.99 238.762 0 140.692 97.08 242.731 217.96 242.731 94.11 0 167.44-56.461 167.44-163.469 0-27.742-4.96-52.5-4.96-52.5h-292.28m-671.91-183.344l18.96-23.828 64.08-22.352-1.83-25.109h-224.94v25.762l65.38 24.769-.08 225.032c0 91.187-17.83 121.918-71.35 121.918v23.781l144.69 52.539h7.95s-2.98-68.391-2.98-139.762l.12-262.75"/><path d="M2470.75 691.211v-25.762l-66.41-21.808 110.01-300.332 114 298.363-69.4 23.777v25.762h176.02v-27.75c-25.77 0-57.49-12.883-92.18-97.133l-125.61-338.976h-47.27l-138.09 363.757c-21.81 52.532-46.58 72.352-78.29 72.352v27.75h217.22M3633.11 239.25c-6.93 2.969-24.78 12.879-25.78 33.699l-5.94 94.153H3645c11.91-64.422 55.5-106.043 112.01-106.043 57.49 0 80.28 29.73 80.28 69.371 0 37.672-30.73 57.492-68.39 77.32l-50.54 25.762c-72.36 36.668-108.05 66.41-108.05 137.777 0 89.199 64.43 131.82 164.53 131.82 70.39 0 124.9-26.757 124.9-26.757l-12.89-115.973h-40.64c0 72.359-29.74 99.121-90.2 99.121-40.62 0-78.3-15.859-78.3-55.5 0-31.719 12.89-45.602 91.19-86.238l44.59-22.801c81.29-41.633 104.08-76.313 104.08-143.711 0-81.281-81.27-129.84-160.56-129.84-50.55 0-95.16 5.942-123.9 17.84m1030.67 351.859c-22.81 52.532-46.6 72.352-78.31 72.352v27.75h213.82v-25.762l-66.4-21.808 113.98-300.332 104.06 298.363-69.36 23.777v25.762h184.34v-27.75c-25.76 0-62.44-12.883-94.15-97.133l-115.53-315.18C4791.78 82.641 4714.06-6.559 4595.11.379l-11.89 97.133s26.66-6.543 76.32-2.973c57.33 4.121 113.42 61.801 136.8 137.77l-132.56 358.8M1904.01 279.75l-18.95 23.828.96 250.703c0 115.918-75.3 148.61-152.58 148.61-65.4 0-157.53-76.282-157.53-76.282 0 41.621 1.98 79.262 1.98 79.262h-7.92l-144.66-52.512v-23.781c55.49 0 70.35-49.539 70.35-138.699V282.82l-65.38-24.769v-25.762h227.78l1.83 25.109-64.07 22.352-18.96 23.828.04 284.383s34.68 46.578 97.09 46.578c64.4 0 130.79-22.789 130.79-132.769l-3.05-219.86-63.25-23.859v-25.762h227.8l1.81 25.109-64.08 22.352m2644.74 20.898s-27.74-17.828-69.36-17.828c-44.58 0-85.2 24.77-84.22 86.2l3.97 259.582h125.48l.02.039h.28l1.99 16.097h.06l9.91 81.352-18.86 3.398-14.18-31.047-8.08-6.8-95.45-4.52v-.07l-.19-.012v117.902l-57.45-9.902-24.77-111.949-81.25-7.93v-38.64c44.6 0 81.25-3.961 81.25-46.571 0-42.59-3.96-176.347-3.96-229.847 0-101.063 38.64-138.704 103.05-138.704 55.47 0 101.04 22.782 142.65 56.461l-10.89 22.789M3545.43 696.961h0l-.05.008c-.48.172-17.28 5.922-49.49 5.922-69.35 0-141.69-108.969-141.69-108.969 0 60.43 2 111.949 2 111.949h-7.94l-141.67-52.512v-23.781c53.5 0 70.34-48.539 70.34-130.769V282.82l-65.39-24.769v-25.762h227.78l-.11 25.109-64.07 22.352-18.94 23.828v212.063c0 65.398 51.51 102.05 106.99 102.05 11.36 0 23.01-2.793 32.96-6.16l15.5-22.883 19.11-1.57 14.67 109.883m-1424.64 85.008c-11.33 0-62.03 55.941-62.03 66.597 0 10.422 49.87 67.454 62.03 67.454 13.09 0 62.01-57.032 62.01-67.454 0-10.039-50.7-66.597-62.01-66.597m2022.99-478.391l18.97-23.828 64.07-22.352-1.82-25.109h-224.95v25.762l65.39 24.769-.08 225.032c0 91.187-17.83 121.918-71.36 121.918v23.781l144.71 52.539h7.93s-2.97-68.391-2.97-139.762l.11-262.75M1326.43 452.621c0-171.473-121.91-227.973-238.88-227.973-175.433 0-247.784 82.262-247.784 234.903V747.98c0 84.254-22.797 103.083-89.207 106.055v32.719h270.591v-29.75l-92.181-28.738V503.16c0-196.25 79.311-224.988 169.491-224.988 94.16 0 165.53 43.609 165.53 203.187v347.215l-89.17 27v31.461h238V851.59l-67.56-11.078-18.88-23.731.05-364.16m2776.4 329.348c-11.33 0-62.01 55.941-62.01 66.597 0 10.422 49.86 67.454 62.01 67.454 13.1 0 62.02-57.032 62.02-67.454 0-10.039-50.7-66.597-62.02-66.597"/></g></svg>