<?xml version="1.0" encoding="UTF-8" standalone="no"?>
<svg
   width="300"
   height="90"
   viewBox="0 0 300 90"
   version="1.1"
   id="svg6890"
   sodipodi:docname="nsite.svg"
   inkscape:version="1.1.1 (3bf5ae0d25, 2021-09-20)"
   xmlns:inkscape="http://www.inkscape.org/namespaces/inkscape"
   xmlns:sodipodi="http://sodipodi.sourceforge.net/DTD/sodipodi-0.dtd"
   xmlns="http://www.w3.org/2000/svg"
   xmlns:svg="http://www.w3.org/2000/svg"
   xmlns:rdf="http://www.w3.org/1999/02/22-rdf-syntax-ns#"
   xmlns:cc="http://creativecommons.org/ns#"
   xmlns:dc="http://purl.org/dc/elements/1.1/"
   xmlns:sketch="http://www.bohemiancoding.com/sketch/ns">
  <sodipodi:namedview
     id="namedview6892"
     pagecolor="#ffffff"
     bordercolor="#666666"
     borderopacity="1.0"
     inkscape:pageshadow="2"
     inkscape:pageopacity="0.0"
     inkscape:pagecheckerboard="0"
     showgrid="false"
     inkscape:zoom="2.7398787"
     inkscape:cx="124.45806"
     inkscape:cy="2.7373474"
     inkscape:window-width="1866"
     inkscape:window-height="1016"
     inkscape:window-x="54"
     inkscape:window-y="27"
     inkscape:window-maximized="1"
     inkscape:current-layer="svg6890" />
  <!-- Generator: Sketch 3.3.3 (12072) - http://www.bohemiancoding.com/sketch -->
  <title
     id="title6869">Imported Layers</title>
  <desc
     id="desc6871">Created with Sketch.</desc>
  <defs
     id="defs6873" />
  <g
     id="Page-1"
     stroke="none"
     stroke-width="1"
     fill="none"
     fill-rule="evenodd"
     sketch:type="MSPage"
     transform="matrix(1.9565454,0,0,1.9565454,58.218273,1.0996796)">
    <g
       id="Imported-Layers"
       sketch:type="MSLayerGroup"
       fill="#b1b1b1">
      <path
         d="m 84.054553,27.886401 c 1.503752,0 3.007258,0.0047 4.510763,-0.0045 0.244152,-0.0015 0.395295,0.07022 0.520463,0.287555 1.525026,2.646841 3.057226,5.289479 4.591405,7.93088 0.09994,0.172087 0.103648,0.311538 7.42e-4,0.488818 -1.524284,2.624588 -3.044116,5.251649 -4.557515,7.882418 -0.137537,0.239093 -0.297832,0.345412 -0.583295,0.344423 -3.007258,-0.0089 -6.014516,-0.0077 -9.021774,-0.002 -0.259984,4.94e-4 -0.43611,-0.06527 -0.575131,-0.307582 -1.180195,-2.061841 -2.447958,-4.072253 -3.612569,-6.14349 -0.332216,-0.590686 -0.673337,-1.176428 -1.017674,-1.760192 -0.106121,-0.18 -0.106368,-0.330824 0.0022,-0.5175 1.053294,-1.807417 2.069731,-3.637088 3.15741,-5.423489 0.515516,-0.846841 1.015448,-1.702088 1.517358,-2.556346 0.117253,-0.19978 0.272847,-0.220797 0.468269,-0.220549 1.533189,0.0027 3.066378,0.0015 4.599321,0.0015"
         id="Fill-1"
         sketch:type="MSShapeGroup" />
      <path
         d="m 83.859626,9.3787912 c 1.503753,-2.472e-4 3.007506,0.00544 4.511506,-0.00544 0.268394,-0.00198 0.427205,0.081841 0.563505,0.3192033 1.497321,2.6065385 3.003795,5.2076375 4.513237,7.8072525 0.121458,0.209423 0.179094,0.382252 0.04007,0.620604 -1.509194,2.587995 -3.012947,5.179451 -4.5026,7.779066 -0.174889,0.305357 -0.370063,0.41217 -0.720089,0.41044 -2.958526,-0.01409 -5.917053,-0.01261 -8.875579,-0.0015 -0.316879,9.9e-4 -0.496221,-0.107555 -0.656268,-0.376318 -1.5275,-2.564752 -3.035458,-5.140632 -4.530058,-7.72467 -0.151637,-0.262088 -0.162769,-0.457665 -0.0062,-0.724203 1.064922,-1.812363 2.09249,-3.646978 3.174727,-5.448709 0.479894,-0.798874 0.970673,-1.591813 1.434489,-2.4003302 0.121705,-0.2123901 0.28769,-0.2593681 0.5123,-0.2586264 1.5134,0.00593 3.027295,0.00321 4.540942,0.00321"
         id="Fill-2"
         sketch:type="MSShapeGroup" />
      <path
         d="m 67.747284,16.937802 c -1.483716,0 -2.967431,-0.01409 -4.4509,0.01014 -0.358931,0.0059 -0.522937,-0.144149 -0.681747,-0.425522 C 61.978405,15.393214 61.354295,14.255604 60.668095,13.156813 59.767921,11.715824 58.944432,10.231566 58.07691,8.7722802 57.958174,8.5727473 57.965595,8.4285989 58.078147,8.2364835 58.768058,7.0588187 59.411463,5.8524725 60.139221,4.6987912 61.040632,3.2696703 61.845568,1.7859066 62.70839,0.33527473 62.822426,0.1439011 62.9518,0.05884615 63.1774,0.05934066 c 3.065637,0.0051923 6.131274,0.0046978 9.196663,7.4176e-4 0.199132,-2.4726e-4 0.323805,0.06428571 0.425969,0.24131868 1.536652,2.6619231 3.078005,5.3211264 4.623068,7.9781044 0.106121,0.1822253 0.06902,0.3298352 -0.02597,0.4932692 -0.804689,1.3836263 -1.6074,2.7682423 -2.409616,4.1533513 -0.703763,1.215 -1.412473,2.427281 -2.10461,3.648956 -0.147432,0.260358 -0.314405,0.373599 -0.625595,0.370138 -1.503258,-0.01632 -3.006763,-0.0074 -4.510021,-0.0074"
         id="Fill-3"
         sketch:type="MSShapeGroup" />
      <path
         d="m 1.5408579,22.995 c -0.083858,0.147363 -0.053432,0.267033 -0.053432,0.380522 -0.00223,2.672308 -0.00173,5.344368 -0.00148,8.016676 0,0.227472 0.029437,0.471263 -0.2698789,0.546181 -0.36585794,0.09173 -0.73814741,0.179506 -1.06220004,-0.106319 -0.11255263,-0.09915 -0.08410527,-0.255412 -0.08410527,-0.391648 -7.421e-4,-2.465852 -4.9473e-4,-4.931951 -7.421e-4,-7.397802 0,-1.041429 -9.8947e-4,-2.08261 9.8947e-4,-3.124039 7.4211e-4,-0.404011 0.17117895,-0.588461 0.5734,-0.634945 0.45985794,-0.05291 0.80122634,0.09593 1.07951574,0.494259 1.9586632,2.801868 3.9336527,5.592609 5.9034474,8.386813 0.027705,0.03931 0.058874,0.07591 0.1024105,0.13228 0.094,-0.114973 0.056647,-0.234643 0.056647,-0.340714 0.00247,-2.691841 0.00173,-5.383682 0.00223,-8.075522 0,-0.460879 0.058132,-0.533819 0.5135369,-0.631236 0.095237,-0.02028 0.1944316,-0.02695 0.2921421,-0.02942 0.5313474,-0.01261 0.6268316,0.07937 0.6275737,0.598847 0.00124,0.923489 -0.00124,1.846978 0.00346,2.770467 0.012368,2.524203 0.028447,5.048406 0.041558,7.572609 0.00272,0.528874 -0.0893,0.699231 -0.4635684,0.802583 C 8.4154737,32.071401 7.9420105,32.040742 7.6721316,31.65478 5.7139632,28.852418 3.7327895,26.066126 1.7582947,23.275385 1.6967,23.188352 1.6276842,23.106511 1.5408579,22.995"
         id="Fill-4"
         sketch:type="MSShapeGroup" />
      <path
         d="m 21.224211,20.044286 c 0.895473,-0.02596 1.713026,0.145137 2.502626,0.484862 0.275073,0.118434 0.353737,0.285577 0.266168,0.553599 -0.03364,0.102363 -0.06926,0.204973 -0.114531,0.302638 -0.2068,0.446785 -0.272848,0.471263 -0.730479,0.277912 -0.68249,-0.28805 -1.398374,-0.397088 -2.132811,-0.366676 -0.703516,0.02918 -1.211363,0.379038 -1.489405,1.025851 -0.236237,0.550385 -0.328258,1.129451 -0.236484,1.727803 0.12591,0.820632 0.601105,1.25728 1.421873,1.364093 0.488058,0.0633 0.981311,0.01953 1.46739,0.114973 1.331831,0.261346 2.210731,1.067637 2.395763,2.346428 0.3666,2.53533 -1.409258,4.292802 -3.523268,4.277967 -0.942721,-0.0067 -1.8659,-0.08011 -2.721053,-0.523681 -0.08707,-0.04525 -0.179095,-0.08679 -0.254295,-0.14761 -0.182558,-0.147857 -0.481131,-0.240824 -0.403458,-0.549396 0.09202,-0.366428 0.330979,-0.643846 0.678532,-0.806291 0.130116,-0.06082 0.247368,0.02571 0.3525,0.100138 0.8225,0.582527 1.745926,0.72717 2.721795,0.608983 1.023363,-0.123874 1.790452,-0.936593 1.879258,-1.968626 0.01262,-0.146621 0.02795,-0.294231 0.02226,-0.440852 -0.03735,-0.952665 -0.548416,-1.493407 -1.516369,-1.648434 -0.536294,-0.08604 -1.081989,-0.0099 -1.614573,-0.119176 -0.211748,-0.04352 -0.426216,-0.0806 -0.631285,-0.146126 -0.763873,-0.244039 -1.353352,-0.708132 -1.600473,-1.485 -0.402716,-1.266429 -0.318858,-2.506896 0.392326,-3.655879 0.539016,-0.870825 1.377842,-1.251841 2.373995,-1.325522 0.175879,-0.0131 0.353489,-0.002 0.493995,-0.002"
         id="Fill-5"
         sketch:type="MSShapeGroup" />
      <path
         d="m 64.174047,26.078242 c 0.07842,-2.180275 0.839321,-4.033929 2.705221,-5.282061 1.445127,-0.966511 2.981285,-0.998159 4.528327,-0.196071 0.08683,0.045 0.170684,0.09742 0.251573,0.152802 0.597148,0.411429 0.666164,0.855 0.232279,1.441978 -0.123931,0.167885 -0.233515,0.162445 -0.386142,0.02745 -1.301652,-1.151209 -3.167552,-1.093599 -4.414289,0.130302 -1.960642,1.924369 -2.051426,5.241511 -0.199132,7.267748 1.251684,1.369038 3.142321,1.522582 4.579532,0.371868 0.247863,-0.198544 0.374516,-0.197061 0.555589,0.06181 0.435121,0.622582 0.362642,1.05206 -0.238958,1.411813 -1.415689,0.846346 -3.44881,1.012006 -5.084163,-0.201016 -1.448094,-1.074314 -2.198363,-2.550412 -2.463789,-4.302445 -0.04428,-0.291511 -0.07693,-0.584259 -0.06605,-0.884176"
         id="Fill-6"
         sketch:type="MSShapeGroup" />
      <path
         d="m 38.641174,28.184341 c -0.499932,0.0225 -1.088669,-0.01113 -1.676663,-0.05316 -0.242669,-0.01731 -0.341864,0.06849 -0.323558,0.317473 0.121458,1.664258 1.168321,2.536813 2.812579,2.410714 0.443531,-0.03412 0.874942,-0.12783 1.291757,-0.281868 0.248111,-0.09148 0.420279,-0.01706 0.532832,0.215357 0.02993,0.06181 0.06234,0.122637 0.08881,0.185934 0.219416,0.526154 0.121706,0.785028 -0.429926,0.926951 -1.057747,0.272225 -2.13479,0.353571 -3.210595,0.118928 -0.933816,-0.203489 -1.625458,-0.764752 -2.01061,-1.628901 -0.673832,-1.512445 -0.7708,-3.082005 -0.232774,-4.654286 0.423495,-1.2375 1.357063,-1.866511 2.6414,-1.971593 0.659237,-0.05415 1.317237,-0.0035 1.952232,0.206209 0.776984,0.256648 1.243026,0.790467 1.412473,1.591319 0.133827,0.631978 0.138279,1.268159 0.07248,1.905329 -0.04205,0.406484 -0.120221,0.481649 -0.539758,0.571401 -0.462579,0.09865 -0.935547,0.113984 -1.406042,0.137473 -0.294121,0.01484 -0.589479,0.0027 -0.974631,0.0027 z m 0.107358,-1.183352 c 0.413352,0.07986 0.823489,0.02547 1.23511,0.0042 0.169695,-0.0087 0.248605,-0.07937 0.248853,-0.252692 4.95e-4,-0.344176 -2.48e-4,-0.687115 -0.08608,-1.023874 -0.07396,-0.290522 -0.213727,-0.543956 -0.502406,-0.650274 -0.664431,-0.244781 -1.3442,-0.306347 -2.008384,-0.01063 -0.598384,0.266538 -1.050326,1.107692 -0.987247,1.75228 0.01633,0.168132 0.121705,0.180494 0.245884,0.180742 0.618174,7.41e-4 1.2361,2.47e-4 1.854274,2.47e-4 z"
         id="Fill-7"
         sketch:type="MSShapeGroup" />
      <path
         d="m 56.327521,26.095302 c 0,-1.768352 0.0069,-3.536703 -0.0064,-5.305055 -0.0025,-0.319945 0.116758,-0.476209 0.418795,-0.52022 0.05813,-0.0084 0.114532,-0.02794 0.172911,-0.03684 0.651073,-0.09791 0.789105,0.01953 0.789105,0.66956 2.47e-4,3.153709 0,6.307171 2.47e-4,9.460632 0,0.405495 0.0012,0.409203 0.408158,0.409203 1.395653,4.95e-4 2.791305,7.42e-4 4.186958,-0.0059 0.333453,-0.0017 0.666905,-0.02942 1.000111,-0.04945 0.214221,-0.0131 0.32801,0.09321 0.378968,0.291016 0.05269,0.203489 0.04972,0.409204 0.02177,0.614176 -0.03067,0.224011 -0.195915,0.268022 -0.387626,0.278654 -0.637221,0.03511 -1.273947,0.100137 -1.911416,0.10533 -1.522058,0.01261 -3.046094,0.06799 -4.564689,-0.09865 -0.473711,-0.05192 -0.498695,-0.07962 -0.498695,-0.566456 -4.95e-4,-1.748572 -2.47e-4,-3.497143 -2.47e-4,-5.245962 h -0.0079"
         id="Fill-8"
         sketch:type="MSShapeGroup" />
      <path
         d="m 47.421516,26.090604 c 0,-1.758708 -2.48e-4,-3.51717 2.47e-4,-5.275632 2.47e-4,-0.415879 0.03463,-0.456675 0.445758,-0.551868 0.03809,-0.0089 0.07619,-0.01928 0.115026,-0.02596 0.663937,-0.111511 0.813595,0.01187 0.813595,0.670549 0,3.143572 0,6.28739 2.47e-4,9.430962 0,0.430961 4.95e-4,0.434176 0.442295,0.434423 1.356321,2.47e-4 2.712642,7.42e-4 4.068963,-0.0062 0.333453,-0.0017 0.6674,-0.0267 1.000111,-0.05044 0.243163,-0.01731 0.369568,0.100632 0.410879,0.325137 0.01954,0.10533 0.02919,0.214121 0.02993,0.321429 0.0037,0.446291 -0.05986,0.50761 -0.495973,0.543461 -1.627685,0.13327 -3.258832,0.122885 -4.889485,0.103599 -0.490036,-0.0057 -0.979826,-0.06255 -1.468626,-0.107554 -0.426216,-0.03882 -0.464558,-0.08654 -0.464558,-0.507116 -7.42e-4,-1.768352 -2.47e-4,-3.536456 -2.47e-4,-5.304808 h -0.0082"
         id="Fill-9"
         sketch:type="MSShapeGroup" />
      <path
         d="m 30.553216,27.616154 c 0,-0.638407 -0.0067,-1.277061 0.0032,-1.915467 0.004,-0.261346 -0.09128,-0.343434 -0.353243,-0.315495 -0.734436,0.07887 -0.830415,-0.01558 -0.821015,-0.738544 9.89e-4,-0.06874 7.42e-4,-0.137719 0.0069,-0.205961 0.03562,-0.396594 0.09326,-0.446539 0.489789,-0.448517 0.763132,-0.0037 0.666906,0.09742 0.674079,-0.672774 0.0025,-0.255413 4.95e-4,-0.511072 7.42e-4,-0.766484 0,-0.05885 -0.0025,-0.118187 0.0032,-0.176538 0.02721,-0.288544 0.300553,-0.406731 0.896216,-0.389176 0.368579,0.01088 0.469258,0.09321 0.473216,0.408956 0.0052,0.422308 0.01163,0.84511 -0.0022,1.266923 -0.0077,0.238104 0.06827,0.342198 0.317126,0.32761 0.431163,-0.02497 0.863316,-0.04006 1.295221,-0.04475 0.522442,-0.0057 0.624605,0.101126 0.628316,0.614423 0.0059,0.789973 -0.0084,0.803819 -0.792816,0.800604 -0.393069,-0.0017 -0.786384,0.0022 -1.179453,-0.003 -0.185279,-0.0025 -0.272105,0.07245 -0.262705,0.26283 0.06704,1.354451 0.01657,2.710879 0.06728,4.064835 0.03117,0.834973 0.421021,1.167033 1.289037,1.204368 0.554353,0.02374 0.707968,0.266539 0.509579,0.795165 -0.0663,0.17728 -0.179589,0.269011 -0.373526,0.27272 -0.433142,0.0082 -0.863069,-0.0091 -1.2925,-0.07615 -0.654785,-0.102362 -1.044142,-0.50934 -1.279885,-1.090879 -0.193442,-0.477692 -0.293378,-0.97739 -0.293131,-1.49489 v -1.679835 h -0.0035"
         id="Fill-10"
         sketch:type="MSShapeGroup" />
      <path
         d="m 26.373926,27.836456 c 0,-1.197445 0.01014,-2.39489 -0.0064,-3.592088 -0.0047,-0.321923 0.126652,-0.472005 0.420031,-0.523187 0.135311,-0.02374 0.270127,-0.05885 0.406427,-0.06676 0.424484,-0.02448 0.595168,0.136731 0.59591,0.562006 0.0032,2.414175 4.95e-4,4.828598 0.01138,7.242774 0.0015,0.319451 -0.142732,0.46805 -0.429679,0.529863 -0.155595,0.03363 -0.312426,0.03635 -0.468763,0.01978 -0.420279,-0.04401 -0.525658,-0.16022 -0.526153,-0.580549 -0.0012,-1.197198 -2.47e-4,-2.394643 -2.47e-4,-3.591841 h -0.0025"
         id="Fill-11"
         sketch:type="MSShapeGroup" />
      <path
         d="m 13.39599,27.006676 c -0.6486,0 -1.297448,-0.0084 -1.9458,0.004 -0.291401,0.0057 -0.442295,-0.129561 -0.493253,-0.395605 -0.02573,-0.133763 -0.03908,-0.272719 -0.03562,-0.408956 0.01212,-0.501675 0.132837,-0.614917 0.637963,-0.616153 1.247974,-0.003 2.496195,0.003 3.744168,-0.0136 0.293132,-0.0037 0.440811,0.110769 0.4982,0.379285 0.02449,0.11522 0.05294,0.23044 0.06679,0.347143 0.05863,0.494258 -0.119232,0.697747 -0.614958,0.699973 -0.619163,0.003 -1.238326,7.41e-4 -1.857489,7.41e-4 v 0.0032"
         id="Fill-12"
         sketch:type="MSShapeGroup" />
      <path
         d="m 27.857395,21.901648 c 4.94e-4,0.547418 -0.1833,0.74077 -0.706732,0.742748 -0.541984,0.002 -0.774016,-0.214121 -0.776489,-0.723215 -0.0025,-0.545192 0.213231,-0.757582 0.768573,-0.756099 0.525658,9.89e-4 0.7144,0.195577 0.714648,0.736566"
         id="Fill-13"
         sketch:type="MSShapeGroup" />
    </g>
  </g>
  <metadata
     id="metadata6974">
    <rdf:RDF>
      <cc:Work
         rdf:about="">
        <dc:title>Imported Layers</dc:title>
      </cc:Work>
    </rdf:RDF>
  </metadata>
</svg>
