<svg xmlns="http://www.w3.org/2000/svg" width="300" height="90" fill="#b1b1b1" fill-rule="evenodd" xmlns:v="https://vecta.io/nano"><path d="M222.675 55.661l8.826-.009c.478-.003.773.137 1.018.563l8.983 15.517a.84.84 0 0 1 .001.956l-8.917 15.422c-.269.468-.583.676-1.141.674l-17.652-.004c-.509.001-.853-.128-1.125-.602l-7.068-12.02-1.991-3.444a.89.89 0 0 1 .004-1.013l6.178-10.611 2.969-5.002c.229-.391.534-.432.916-.432l8.999.003m-.382-36.209l8.827-.011c.525-.004.836.16 1.103.625l8.83 15.275c.238.41.35.748.078 1.214l-8.81 15.22c-.342.597-.724.806-1.409.803l-17.365-.003c-.62.002-.971-.21-1.284-.736L203.4 36.723c-.297-.513-.318-.895-.012-1.417l6.211-10.661 2.807-4.696c.238-.416.563-.507 1.002-.506l8.885.006m-31.524 14.79c-2.903 0-5.806-.028-8.708.02-.702.012-1.023-.282-1.334-.833l-3.808-6.585-5.07-8.579a.89.89 0 0 1 .002-1.048l4.033-6.922 5.027-8.537c.223-.374.476-.541.918-.54l17.994.001c.39 0 .634.126.833.472l9.045 15.61c.208.357.135.645-.051.965l-4.715 8.126-4.118 7.139c-.288.509-.615.731-1.224.724l-8.824-.014M61.233 46.09c-.164.288-.105.522-.105.745l-.003 15.685c0 .445.058.922-.528 1.069-.716.179-1.444.351-2.078-.208-.22-.194-.165-.5-.165-.766l-.001-14.474.002-6.112c.001-.79.335-1.151 1.122-1.242.9-.104 1.568.188 2.112.967l11.55 16.409.2.259c.184-.225.111-.459.111-.667l.004-15.8c0-.902.114-1.044 1.005-1.235.186-.04.38-.053.572-.058 1.04-.025 1.226.155 1.228 1.172l.007 5.421.081 14.816c.005 1.035-.175 1.368-.907 1.57-.757.209-1.683.149-2.211-.606L61.658 46.639l-.425-.549"/><path d="M99.744 40.317a11.31 11.31 0 0 1 4.897.949c.538.232.692.559.521 1.083l-.224.592c-.405.874-.534.922-1.429.544-1.335-.564-2.736-.777-4.173-.717-1.376.057-2.37.742-2.914 2.007-.462 1.077-.642 2.21-.463 3.381.246 1.606 1.176 2.46 2.782 2.669.955.124 1.92.038 2.871.225 2.606.511 4.325 2.089 4.687 4.591.717 4.96-2.757 8.399-6.893 8.37-1.844-.013-3.651-.157-5.324-1.025-.17-.089-.35-.17-.498-.289-.357-.289-.941-.471-.789-1.075.18-.717.648-1.26 1.328-1.578.255-.119.484.05.69.196 1.609 1.14 3.416 1.423 5.325 1.192 2.002-.242 3.503-1.832 3.677-3.852.025-.287.055-.576.044-.863-.073-1.864-1.073-2.922-2.967-3.225-1.049-.168-2.117-.019-3.159-.233-.414-.085-.834-.158-1.235-.286-1.495-.477-2.648-1.385-3.131-2.905-.788-2.478-.624-4.905.768-7.153 1.055-1.704 2.696-2.449 4.645-2.593.344-.026.692-.004.967-.004m84.031 11.805c.153-4.266 1.642-7.893 5.293-10.335 2.827-1.891 5.833-1.953 8.86-.384a4.73 4.73 0 0 1 .492.299c1.168.805 1.303 1.673.454 2.821-.242.328-.457.318-.756.054-2.547-2.252-6.197-2.14-8.637.255-3.836 3.765-4.014 10.255-.39 14.22 2.449 2.679 6.148 2.979 8.96.728.485-.388.733-.386 1.087.121.851 1.218.71 2.058-.468 2.762-2.77 1.656-6.748 1.98-9.947-.393-2.833-2.102-4.301-4.99-4.821-8.418-.087-.57-.151-1.143-.129-1.73m-49.955 4.121c-.978.044-2.13-.022-3.28-.104-.475-.034-.669.134-.633.621.238 3.256 2.286 4.963 5.503 4.717a9.34 9.34 0 0 0 2.527-.551c.485-.179.822-.033 1.043.421l.174.364c.429 1.029.238 1.536-.841 1.814-2.07.533-4.177.692-6.282.233-1.827-.398-3.18-1.496-3.934-3.187-1.318-2.959-1.508-6.03-.455-9.106.829-2.421 2.655-3.652 5.168-3.858 1.29-.106 2.577-.007 3.82.403 1.52.502 2.432 1.547 2.764 3.113.262 1.236.271 2.481.142 3.728-.082.795-.235.942-1.056 1.118-.905.193-1.83.223-2.751.269l-1.907.005zm.21-2.315c.809.156 1.611.05 2.417.008.332-.017.486-.155.487-.494.001-.673 0-1.344-.168-2.003-.145-.568-.418-1.064-.983-1.272-1.3-.479-2.63-.599-3.929-.021-1.171.521-2.055 2.167-1.932 3.428.032.329.238.353.481.354h3.628zm34.395-1.773l-.013-10.38c-.005-.626.228-.932.819-1.018.114-.016.224-.055.338-.072 1.274-.192 1.544.038 1.544 1.31v18.51c0 .793.002.801.799.801l8.192-.012 1.957-.097c.419-.026.642.182.741.569.103.398.097.801.043 1.202-.06.438-.383.524-.758.545l-3.74.206c-2.978.025-5.96.133-8.931-.193-.927-.102-.976-.156-.976-1.108V52.156h-.015"/><path d="M151.001 52.147V41.825c0-.814.068-.894.872-1.08l.225-.051c1.299-.218 1.592.023 1.592 1.312v18.452c0 .843.001.849.865.85l7.961-.012 1.957-.099c.476-.034.723.197.804.636a3.68 3.68 0 0 1 .059.629c.007.873-.117.993-.97 1.063-3.185.261-6.376.24-9.566.203-.959-.011-1.917-.122-2.873-.21-.834-.076-.909-.169-.909-.992V52.147h-.016m-33.005 2.985l.006-3.748c.008-.511-.179-.672-.691-.617-1.437.154-1.625-.03-1.606-1.445l.014-.403c.07-.776.182-.874.958-.878 1.493-.007 1.305.191 1.319-1.316l.001-1.5.006-.345c.053-.565.588-.796 1.753-.761.721.021.918.182.926.8l-.004 2.479c-.015.466.134.67.62.641l2.534-.088c1.022-.011 1.222.198 1.229 1.202.012 1.546-.016 1.573-1.551 1.566-.769-.003-1.539.004-2.308-.006-.363-.005-.532.142-.514.514l.132 7.953c.061 1.634.824 2.283 2.522 2.356 1.085.046 1.385.521.997 1.556-.13.347-.351.526-.731.534-.847.016-1.689-.018-2.529-.149-1.281-.2-2.043-.997-2.504-2.134-.378-.935-.574-1.912-.574-2.925v-3.287h-.007m-8.175.432l-.013-7.028c-.009-.63.248-.923.822-1.024.265-.046.529-.115.795-.131.831-.048 1.164.268 1.166 1.1l.022 14.171c.003.625-.279.916-.841 1.037a2.88 2.88 0 0 1-.917.039c-.822-.086-1.028-.313-1.029-1.136v-7.028h-.005m-25.392-1.624c-1.269 0-2.539-.016-3.807.008-.57.011-.865-.253-.965-.774a3.84 3.84 0 0 1-.07-.8c.024-.982.26-1.203 1.248-1.206l7.326-.027c.574-.007.862.217.975.742l.131.679c.115.967-.233 1.365-1.203 1.37l-3.634.001v.006"/><path d="M112.723 43.951c.001 1.071-.359 1.449-1.383 1.453-1.06.004-1.514-.419-1.519-1.415-.005-1.067.417-1.482 1.504-1.479 1.028.002 1.398.383 1.398 1.441"/></svg>