<svg xmlns="http://www.w3.org/2000/svg" width="300" height="90" fill="#b1b1b1" fill-rule="evenodd" xmlns:v="https://vecta.io/nano"><path d="M17.72.299h90.018V89.7H17.72zm42.158 46.434l-.126-.444-.499-1.22c-.828-2.25-1.144-4.56-.771-6.941.49-3.125 1.938-5.808 4.048-8.11 1.378-1.504 2.953-2.831 4.456-4.22.267-.246.39-.491.389-.852-.005-1.597-.31-3.15-.695-4.688-.465-1.859-1.016-3.692-1.866-5.421-.095-.192-.234-.363-.428-.659-.629 2.119-1.693 3.83-2.928 5.422l-4.691 5.741c-1.639 2.008-3.11 4.121-4.074 6.544-1.278 3.213-1.202 6.311.8 9.245 1.586 2.325 3.783 3.984 6.092 5.52.057.038.137.04.295.084zm21.259-19.791l-.125-.007-.194.359-1.743 2.683c-1.827 2.291-4.242 3.787-6.887 5.021-4.996 2.331-7.908 6.285-8.872 11.674-.067.373.044.503.394.482 1.34-.08 2.693-.066 4.016-.262 5.045-.749 8.762-3.372 11.032-7.941 1.817-3.658 2.332-7.592 2.442-11.607.004-.133-.041-.267-.063-.401zm-7.585-7.046l-.178.031c-.057.088-.121.173-.171.265-.41.743-.787 1.506-1.233 2.228-1.207 1.951-2.598 3.746-4.436 5.174-1.485 1.153-2.857 2.43-4.039 3.9-3.429 4.266-4.313 8.938-2.293 14.077.079.201.194.388.305.607.089-.092.123-.11.13-.136l.23-.911c1.208-4.83 3.876-8.58 8.304-11.007 1.231-.675 2.493-1.294 3.75-1.923.964-.482 1.634-1.165 1.722-2.292.03-.39.119-.778.129-1.168.059-2.327-.49-4.545-1.284-6.71-.267-.728-.622-1.423-.936-2.133zM57.497 47.182c-.07-.162-.074-.201-.096-.216a6.55 6.55 0 0 0-.35-.24c-1.627-1.021-3.129-2.189-4.347-3.687-2.163-2.661-2.949-5.675-2.352-9.045.364-2.056 1.178-3.934 2.303-5.681.285-.443.403-.862.264-1.371-.5-1.827-1.227-3.56-2.138-5.219-.071-.13-.212-.221-.313-.323-.267.866-.469 1.687-.77 2.471-1.02 2.65-2.43 5.107-3.874 7.545-1.382 2.334-1.898 4.848-1.426 7.516.565 3.195 2.499 5.349 5.401 6.705 1.944.908 4.019 1.29 6.142 1.46.493.039.987.056 1.553.086zm-.594 7.33c0 .209-.016.381.002.55l1.393 12.542 1.248 11.516c.038.351.216.578.538.707.699.281 1.267-.076 1.366-.867l.422-3.457 1.297-10.081 1.119-8.826.244-2.084h-7.63zm10.303-5.524c-.105-.023-.151-.042-.196-.042-4.162-.002-8.324 0-12.486-.009-.314 0-.366.138-.364.399l.006 3.065c0 .104.036.209.054.308h12.985v-3.72zm64.01-29.792h.534l9.353-.012c.332-.002.516.133.701.375l11.089 14.479 12.267 16.016.374.454V19.223h11.05v50.781h-.537c-2.817 0-5.634-.007-8.451.011-.392.002-.632-.123-.864-.428l-11.81-15.414-12.364-16.122c-.064-.083-.137-.157-.29-.33v32.256h-11.052v-50.78m106.532.019h11.151l.03.592.006 28.105c.002 2.387.304 4.731 1.323 6.929 1.424 3.071 3.849 4.866 7.181 5.46 2.114.377 4.219.323 6.296-.259 3.233-.905 5.336-3 6.46-6.103.627-1.73.866-3.532.867-5.363l.004-28.765v-.585h11.178l.026.51-.049 29.755c-.041 4.356-1.029 8.534-3.36 12.307-2.259 3.654-5.499 6.102-9.537 7.528-3.458 1.221-7.042 1.58-10.692 1.454-2.782-.095-5.504-.501-8.132-1.435-5.554-1.975-9.277-5.761-11.247-11.265-1.038-2.899-1.503-5.906-1.512-8.969l-.014-29.519c0-.109.012-.218.021-.377m-24.556 50.76h-11.246v-.618l-.012-18.817c-.001-.351-.114-.748-.302-1.044L186.731 26.13l-4.095-6.403-.298-.485c.138-.019.236-.045.334-.045l12.345-.011c.323-.001.478.13.629.383L207.3 39.053l.35.571 2.13-3.487 10.03-16.497c.204-.336.425-.456.825-.454l11.633.009c.153 0 .305.016.537.029l-.347.556L219.8 39.483l-6.295 9.762a1.91 1.91 0 0 0-.322 1.097l.009 19.634"/></svg>