<svg width="100" height="13" viewBox="0 0 100 13" fill="none" xmlns="http://www.w3.org/2000/svg">
<g clip-path="url(#clip0_926_146111)">
<path fill-rule="evenodd" clip-rule="evenodd" d="M91.0697 10.7366C89.1615 10.7366 87.5541 9.45613 87.0566 7.70337H97.6408L99.0989 5.43286H87.0566C87.5521 3.67708 89.1615 2.39966 91.0697 2.39966H98.336L99.7891 0.124023H90.9042C87.3503 0.124023 84.4674 3.0071 84.4674 6.56812C84.4674 10.1261 87.3503 13.0029 90.9042 13.0029H98.5469L100 10.7366H91.0697ZM60.7834 13.0029H68.4272L69.8732 10.7366H60.953C58.6412 10.7366 56.7794 8.86678 56.7794 6.56812C56.7794 4.26037 58.6412 2.39966 60.953 2.39966H68.2142L69.6784 0.124023H60.7834C57.2245 0.124023 54.3335 3.0071 54.3335 6.56812C54.3335 10.1261 57.2245 13.0029 60.7834 13.0029ZM13.7567 10.7366H6.60638C4.3057 10.7366 2.44196 8.86678 2.44196 6.56812C2.44196 4.26037 4.3057 2.39966 6.60638 2.39966H13.7567C16.0664 2.39966 17.9282 4.26037 17.9282 6.56812C17.9282 8.86678 16.0664 10.7366 13.7567 10.7366ZM6.44193 13.0029H13.9282C17.4902 13.0029 20.357 10.1261 20.357 6.56812C20.357 3.0071 17.4902 0.124023 13.9282 0.124023H6.44193C2.88495 0.124023 0 3.0071 0 6.56812C0 10.1261 2.88495 13.0029 6.44193 13.0029ZM32.5133 8.83252C34.925 8.83252 36.8634 6.88191 36.8634 4.47729C36.8634 2.07267 34.925 0.124023 32.5133 0.124023H21.6779V13.0029H24.1541V2.39966H32.3488C33.4992 2.39966 34.4315 3.32796 34.4315 4.47729C34.4315 5.6246 33.4992 6.56812 32.3488 6.56812L25.365 6.56201L32.7615 13.0029H36.3548L31.3872 8.83252H32.5133ZM73.4816 10.7285V0.124023H71.0003V11.7717C71.0003 12.0886 71.1345 12.4005 71.3676 12.6245C71.6037 12.8687 71.9286 13.0029 72.2697 13.0029H83.5531L85.0233 10.7285H73.4816ZM43.1701 8.46216H49.7765L46.2861 2.82935L39.8795 13.0029H36.9522L44.7533 0.794189C45.0863 0.298739 45.6575 0 46.2821 0C46.8936 0 47.4546 0.289633 47.7886 0.771973L55.6119 13.0029H52.6937L51.3184 10.7285H44.6292L43.1701 8.46216Z" fill="#B1B1B1"/>
</g>
<defs>
<clipPath id="clip0_926_146111">
<rect width="100" height="13" fill="white"/>
</clipPath>
</defs>
</svg>
