<svg xmlns="http://www.w3.org/2000/svg" width="300" height="90" fill-rule="evenodd" xmlns:v="https://vecta.io/nano"><path fill="#b1b1b1" d="M299.569 86.405V3.595H.431v82.811z"/><g fill="#fff"><path d="M151.348 30.701v-7.084h-29.547V66.12h29.547v-7.087h-22.465V48.41h21.383v-7.084h-21.383V30.701h22.465m21.926 35.419v-42.5h7.084v35.413h20.434v7.087h-27.518"/><path d="M206.566 66.12v-42.5h7.085v35.413h20.436v7.087h-27.521m-40.701.002V23.62h-7.081v42.502zM21.861 45.064c.003-12.228 9.91-22.134 22.138-22.137 12.227.003 22.132 9.908 22.134 22.137a22.14 22.14 0 0 1-22.134 22.137c-12.228-.003-22.135-9.91-22.138-22.137m11.493-10.648c-2.728 2.739-4.406 6.48-4.409 10.648a14.99 14.99 0 0 0 4.409 10.641c2.734 2.731 6.477 4.411 10.645 4.412a14.97 14.97 0 0 0 10.642-4.412c2.73-2.733 4.406-6.473 4.406-10.641a14.99 14.99 0 0 0-4.406-10.648c-2.736-2.725-6.476-4.4-10.642-4.403a15.01 15.01 0 0 0-10.645 4.403m72.5 13.47c5.111-1.535 8.84-6.259 8.841-11.87a12.4 12.4 0 0 0-12.397-12.396H80.947v42.5h7.082V48.411h9.869l10.685 17.709h8.263zm-17.826-6.56V30.701h14.27a5.32 5.32 0 0 1 5.313 5.315c-.003 2.929-2.381 5.304-5.313 5.31z"/><path d="M75.925 28.142c0 2.879-2.334 5.215-5.212 5.215a5.22 5.22 0 0 1-5.217-5.215c0-2.88 2.335-5.214 5.217-5.214a5.21 5.21 0 0 1 5.212 5.214m189.741-4.522h-8.608l-10.903 15.778-10.902-15.778h-8.61l15.962 23.108V66.12h7.087V46.744l15.974-23.124m8.552-.864c-2.883 0-5.223 2.337-5.223 5.221a5.22 5.22 0 1 0 5.223-5.222m0 9.601c-2.423 0-4.385-1.962-4.385-4.38 0-2.424 1.962-4.388 4.385-4.388a4.39 4.39 0 0 1 4.383 4.388c0 2.418-1.965 4.38-4.383 4.38m2.342-5.527a1.55 1.55 0 0 0-1.551-1.552h-2.938v5.32h.881v-2.215h1.492l1.065 2.215h.986l-1.09-2.268c.666-.173 1.154-.778 1.154-1.5m-3.608-.666h2.057c.368 0 .663.298.665.666s-.296.665-.665.665h-2.057v-1.331"/></g></svg>