<?xml version="1.0" encoding="UTF-8" standalone="no"?>
<svg
   width="300"
   height="90"
   viewBox="0 0 300 90"
   version="1.1"
   id="svg8234"
   sodipodi:docname="oreilly.svg"
   inkscape:version="1.1.1 (3bf5ae0d25, 2021-09-20)"
   xmlns:inkscape="http://www.inkscape.org/namespaces/inkscape"
   xmlns:sodipodi="http://sodipodi.sourceforge.net/DTD/sodipodi-0.dtd"
   xmlns="http://www.w3.org/2000/svg"
   xmlns:svg="http://www.w3.org/2000/svg"
   xmlns:rdf="http://www.w3.org/1999/02/22-rdf-syntax-ns#"
   xmlns:cc="http://creativecommons.org/ns#"
   xmlns:dc="http://purl.org/dc/elements/1.1/">
  <sodipodi:namedview
     id="namedview8236"
     pagecolor="#ffffff"
     bordercolor="#666666"
     borderopacity="1.0"
     inkscape:pageshadow="2"
     inkscape:pageopacity="0.0"
     inkscape:pagecheckerboard="0"
     showgrid="false"
     inkscape:zoom="2.2465244"
     inkscape:cx="188.29086"
     inkscape:cy="-9.125207"
     inkscape:window-width="1866"
     inkscape:window-height="1016"
     inkscape:window-x="54"
     inkscape:window-y="27"
     inkscape:window-maximized="1"
     inkscape:current-layer="svg8234" />
  <!-- Generator: Sketch 42 (36781) - http://www.bohemiancoding.com/sketch -->
  <title
     id="title8215">ORM_logo_box75(lg)_cmyk</title>
  <desc
     id="desc8217">Created with Sketch.</desc>
  <defs
     id="defs8219" />
  <g
     id="Page-1"
     stroke="none"
     stroke-width="1"
     fill="none"
     fill-rule="evenodd"
     transform="matrix(1.535238,0,0,1.535238,0.33885881,3.5946311)">
    <g
       id="ORM_logo_box75(lg)_cmyk">
      <polygon
         id="Fill-1"
         fill="#b1b1b1"
         points="194.908,53.94 194.908,0 0.06,0 0.06,53.94 " />
      <polyline
         id="Fill-3"
         fill="#ffffff"
         points="98.362 17.656 98.362 13.042 79.116 13.042 79.116 40.727 98.362 40.727 98.362 36.111 83.729 36.111 83.729 29.191 97.657 29.191 97.657 24.577 83.729 24.577 83.729 17.656 98.362 17.656" />
      <polyline
         id="Fill-4"
         fill="#ffffff"
         points="112.644 40.727 112.644 13.044 117.258 13.044 117.258 36.111 130.568 36.111 130.568 40.727 112.644 40.727" />
      <polyline
         id="Fill-5"
         fill="#ffffff"
         points="134.329 40.727 134.329 13.044 138.944 13.044 138.944 36.111 152.255 36.111 152.255 40.727 134.329 40.727" />
      <polygon
         id="Fill-6"
         fill="#ffffff"
         points="107.818,40.728 107.818,13.044 103.206,13.044 103.206,40.728 " />
      <path
         d="m 14.019,27.012 c 0.002,-7.965 6.455,-14.417 14.42,-14.419 7.964,0.002 14.416,6.454 14.417,14.419 -0.001,7.964 -6.453,14.417 -14.417,14.419 -7.965,-0.002 -14.418,-6.455 -14.42,-14.419 m 7.486,-6.936 c -1.777,1.784 -2.87,4.221 -2.872,6.936 0.002,2.715 1.095,5.151 2.872,6.931 1.781,1.779 4.219,2.873 6.934,2.874 2.714,-10e-4 5.15,-1.095 6.932,-2.874 1.778,-1.78 2.87,-4.216 2.87,-6.931 0,-2.715 -1.092,-5.152 -2.87,-6.936 -1.782,-1.775 -4.218,-2.866 -6.932,-2.868 -2.715,0.002 -5.153,1.093 -6.934,2.868"
         id="Fill-7"
         fill="#ffffff" />
      <path
         d="m 68.729,28.85 c 3.329,-1 5.758,-4.077 5.759,-7.732 -0.001,-4.461 -3.614,-8.073 -8.075,-8.074 H 52.505 v 27.683 h 4.613 V 29.192 h 6.428 l 6.96,11.535 h 5.382 z M 57.118,24.577 v -6.921 h 9.295 c 1.91,0.002 3.459,1.549 3.461,3.462 -0.002,1.908 -1.551,3.455 -3.461,3.459 z"
         id="Fill-8"
         fill="#ffffff" />
      <path
         d="m 49.234,15.989 c 0,1.875 -1.52,3.397 -3.395,3.397 -1.877,0 -3.398,-1.522 -3.398,-3.397 0,-1.876 1.521,-3.396 3.398,-3.396 1.875,0 3.395,1.52 3.395,3.396"
         id="Fill-9"
         fill="#ffffff" />
      <polyline
         id="Fill-10"
         fill="#ffffff"
         points="172.825 13.044 167.218 13.044 160.116 23.321 153.015 13.044 147.407 13.044 157.804 28.096 157.804 40.727 162.42 40.727 162.42 28.106 172.825 13.044" />
      <path
         d="m 178.395,12.481 c -1.878,0 -3.402,1.522 -3.402,3.401 0,1.876 1.524,3.399 3.402,3.399 1.876,0 3.399,-1.523 3.399,-3.399 0,-1.879 -1.523,-3.401 -3.399,-3.401 m 0,6.254 c -1.578,0 -2.856,-1.278 -2.856,-2.853 0,-1.579 1.278,-2.858 2.856,-2.858 1.575,0 2.855,1.279 2.855,2.858 0,1.575 -1.28,2.853 -2.855,2.853"
         id="Fill-11"
         fill="#ffffff" />
      <path
         d="m 179.921,15.134 c 0,-0.56 -0.451,-1.011 -1.01,-1.011 h -1.914 v 3.465 h 0.574 v -1.443 h 0.972 l 0.694,1.443 h 0.642 l -0.71,-1.477 c 0.434,-0.113 0.752,-0.507 0.752,-0.977 m -2.35,-0.434 h 1.34 c 0.24,0 0.432,0.194 0.433,0.434 -0.001,0.24 -0.193,0.433 -0.433,0.433 h -1.34 V 14.7"
         id="Fill-12"
         fill="#ffffff" />
    </g>
  </g>
  <metadata
     id="metadata8318">
    <rdf:RDF>
      <cc:Work
         rdf:about="">
        <dc:title>ORM_logo_box75(lg)_cmyk</dc:title>
      </cc:Work>
    </rdf:RDF>
  </metadata>
</svg>
