<?xml version="1.0" encoding="UTF-8" standalone="no"?>
<svg
   width="300"
   height="90"
   viewBox="0 0 300 90"
   version="1.1"
   id="svg2490"
   sodipodi:docname="poly-color.svg"
   inkscape:version="1.1.1 (3bf5ae0d25, 2021-09-20)"
   xmlns:inkscape="http://www.inkscape.org/namespaces/inkscape"
   xmlns:sodipodi="http://sodipodi.sourceforge.net/DTD/sodipodi-0.dtd"
   xmlns="http://www.w3.org/2000/svg"
   xmlns:svg="http://www.w3.org/2000/svg"
   xmlns:rdf="http://www.w3.org/1999/02/22-rdf-syntax-ns#"
   xmlns:cc="http://creativecommons.org/ns#"
   xmlns:dc="http://purl.org/dc/elements/1.1/"
   xmlns:sketch="http://www.bohemiancoding.com/sketch/ns">
  <sodipodi:namedview
     id="namedview2492"
     pagecolor="#ffffff"
     bordercolor="#666666"
     borderopacity="1.0"
     inkscape:pageshadow="2"
     inkscape:pageopacity="0.0"
     inkscape:pagecheckerboard="0"
     showgrid="false"
     inkscape:zoom="1.6688643"
     inkscape:cx="32.956544"
     inkscape:cy="-35.652989"
     inkscape:window-width="1866"
     inkscape:window-height="1016"
     inkscape:window-x="54"
     inkscape:window-y="27"
     inkscape:window-maximized="1"
     inkscape:current-layer="svg2490" />
  <!-- Generator: Sketch 3.3.3 (12072) - http://www.bohemiancoding.com/sketch -->
  <title
     id="title2459">Imported Layers Copy 4</title>
  <desc
     id="desc2461">Created with Sketch.</desc>
  <defs
     id="defs2463" />
  <g
     id="Page-1"
     stroke="none"
     stroke-width="1"
     fill="none"
     fill-rule="evenodd"
     sketch:type="MSPage"
     transform="matrix(1.3819862,0,0,1.3819862,6.3713933,1.5505637)">
    <g
       id="About---Desktop"
       sketch:type="MSArtboardGroup"
       transform="translate(-362,-1705)"
       fill="#015629">
      <g
         id="Imported-Layers-Copy-4-+-Imported-Layers-Copy-5"
         sketch:type="MSLayerGroup"
         transform="translate(362,1705)">
        <g
           id="Imported-Layers-Copy-4"
           sketch:type="MSShapeGroup">
          <path
             d="m 105.86541,16.766625 c 7.9e-4,3.720358 -0.007,7.440716 0.007,11.161075 0.003,0.737226 0.0538,1.477611 0.13551,2.210888 0.18822,1.692197 1.02444,2.531055 2.71217,2.731685 0.84175,0.100052 1.68799,0.187203 2.53423,0.214586 0.55203,0.0179 0.71758,0.256449 0.69465,0.762765 -0.0261,0.571877 -0.31003,0.691413 -0.8494,0.681671 -3.48407,-0.06345 -6.96866,-0.102948 -10.45326,-0.123222 -1.15309,-0.0066 -2.308031,0.04792 -3.459808,0.1119 -0.494823,0.02738 -0.840699,-0.009 -0.894742,-0.620849 -0.05378,-0.608738 0.238317,-0.792255 0.777956,-0.84544 0.691225,-0.06819 1.378495,-0.181937 2.065238,-0.291205 1.147036,-0.182463 1.768926,-0.915476 1.917346,-2.011047 0.13682,-1.009473 0.22092,-2.033954 0.22382,-3.052115 0.0179,-6.439933 0.0174,-12.879601 -0.004,-19.3192704 -0.004,-1.3235839 -0.0559,-2.6540135 -0.20562,-3.9675922 C 100.938,3.2809189 100.33904,2.8114639 99.195437,2.6795531 98.633389,2.6147826 98.072395,2.5394802 97.509556,2.4860313 97.10621,2.4475902 96.86183,2.3006716 96.877384,1.8417485 c 0.01503,-0.4441787 0.263098,-0.6211129 0.656426,-0.6529716 1.150195,-0.093996 2.300654,-0.25118344 3.45111,-0.2530265 3.39575,-0.005792 6.79915,-0.0808316 10.18462,0.1224322 3.17246,0.1903622 6.22919,0.9631331 8.84066,2.9689143 3.89848,2.9941906 4.96458,8.2885261 2.35628,12.1405321 -1.81559,2.681396 -4.43232,4.159798 -7.61902,4.491812 -1.91682,0.199578 -3.86263,0.131121 -5.79579,0.146656 -0.20932,0.0016 -0.58868,-0.226961 -0.59843,-0.368613 -0.0261,-0.380988 0.22381,-0.577406 0.65959,-0.621376 1.40195,-0.14139 2.83792,-0.189046 4.18926,-0.543968 3.21991,-0.84544 4.92609,-3.089503 5.36898,-6.335141 0.19825,-1.454178 0.18586,-2.910199 -0.1587,-4.3438404 -0.78929,-3.2851316 -2.96868,-5.1687439 -6.20626,-5.7377244 -1.54167,-0.2709306 -3.15743,-0.2045802 -4.73549,-0.1566605 -1.14545,0.034492 -1.59941,0.6416499 -1.6031,1.7975149 -0.007,2.0450122 -0.003,4.0900244 -0.003,6.1352994 -2.6e-4,2.045013 0,4.090025 7.9e-4,6.135037"
             id="Fill-1" />
          <path
             d="m 29.668076,2.2050955 c 0.127067,1.5381694 0.260198,3.1155697 0.38621,4.6934966 0.05879,0.7369626 0.08304,1.4770849 0.162921,2.2114146 0.04719,0.4357532 -0.0899,0.6779846 -0.533314,0.689043 -0.411254,0.010005 -0.833318,0.048183 -0.955112,-0.5276432 C 28.58985,8.6142222 28.440902,7.9530885 28.218667,7.3206539 27.152831,4.2845994 24.899366,2.684819 21.807838,2.167971 13.596715,0.79541417 7.4397566,5.8322473 6.0259366,13.473858 c -0.9672395,5.226669 -0.041916,10.102365 3.2541851,14.364321 2.6235943,3.39282 6.0578353,5.407816 10.4516703,5.398074 4.569409,-0.01 7.996532,-1.935481 9.918885,-6.212972 0.252289,-0.561871 0.91346,-0.745651 1.384294,-0.363873 0.125222,0.101895 0.193237,0.384937 0.156857,0.557395 -0.44869,2.134533 -1.13016,4.188234 -2.164097,6.119502 -0.214327,0.400209 -0.506159,0.580039 -0.944567,0.692993 -3.661222,0.942859 -7.387296,1.178245 -11.142895,1.011316 C 12.332107,34.836034 8.1760608,33.429248 4.8317161,30.133059 2.0921267,27.433495 0.6717161,24.058316 0.18691001,20.294515 -0.39121927,15.806915 0.4563346,11.597091 3.2096325,7.9475593 6.4158378,3.6977149 10.741921,1.2164229 16.006773,0.35149881 20.002535,-0.3048956 23.84513,0.32938203 27.626038,1.6082058 c 0.654317,0.2214311 1.327087,0.3894133 2.042038,0.5968897"
             id="Fill-2" />
          <path
             d="m 140.29956,35.253883 c -3.13028,-0.0108 -6.11241,-0.637174 -8.75604,-2.371235 -4.15393,-2.72484 -6.03964,-6.690852 -5.94157,-11.576817 0.15053,-7.492059 5.42671,-13.04969 12.94239,-13.7832298 2.95471,-0.2885713 5.83086,0.00263 8.56386,1.1927263 3.76983,1.6413815 6.21917,4.4841775 7.25443,8.4483465 1.15652,4.428622 0.63375,8.649504 -2.09371,12.421468 -2.51287,3.475494 -6.07234,5.154789 -10.2732,5.596071 -0.45396,0.04766 -0.91293,0.05055 -1.36953,0.07188 -0.10861,0.005 -0.21775,7.9e-4 -0.32663,7.9e-4 z m 9.75913,-12.996241 c -0.0548,-0.01053 -0.10967,-0.0208 -0.16451,-0.03133 -0.0438,-3.369123 -0.71126,-6.56605 -2.71902,-9.358557 -4.06193,-5.6492575 -12.44072,-4.8433116 -15.35958,1.465763 -0.74025,1.600044 -1.07585,3.298296 -1.17313,5.045522 -0.1877,3.365436 0.31952,6.600542 2.0597,9.538388 2.0576,3.473387 5.16731,5.05421 9.16598,4.567115 3.8447,-0.468139 6.23288,-2.815414 7.30504,-6.446778 0.4566,-1.545805 0.60001,-3.184027 0.88552,-4.780121 z"
             id="Fill-3" />
          <path
             d="m 56.136537,34.543776 c -1.91497,0 -3.829941,-0.01395 -5.744649,0.0097 -0.495878,0.0061 -0.804583,-0.109794 -0.843335,-0.647705 -0.03585,-0.497891 0.154484,-0.768032 0.685424,-0.817532 0.473998,-0.04397 0.944568,-0.147971 1.410393,-0.254079 0.566003,-0.129015 0.791402,-0.496574 0.662753,-1.065818 -0.04297,-0.190363 -0.09148,-0.380988 -0.158175,-0.563715 -0.6182,-1.69246 -1.256963,-3.377811 -1.854864,-5.07738 -0.258616,-0.73591 -0.730768,-1.097414 -1.501607,-1.097677 -2.199159,-7.9e-4 -4.398317,-0.0074 -6.597476,-0.0045 -0.638499,0.0011 -1.154149,0.22696 -1.382185,0.877035 -0.631908,1.801728 -1.290971,3.59503 -1.873845,5.412819 -0.316614,0.987619 -0.09332,1.279613 0.923214,1.510523 0.423382,0.09637 0.851508,0.177987 1.28148,0.238545 0.527777,0.07451 0.692543,0.412057 0.641927,0.875983 -0.05062,0.465505 -0.324259,0.633488 -0.812492,0.614267 -1.805039,-0.07162 -3.611397,-0.124012 -5.41749,-0.13823 -0.934287,-0.0074 -1.870155,0.07083 -2.803914,0.130068 -0.423909,0.02712 -0.675407,-0.122432 -0.712315,-0.556606 -0.03453,-0.409687 -0.02214,-0.79989 0.501679,-0.908631 0.340339,-0.0703 0.676988,-0.160346 1.018646,-0.222221 1.461536,-0.264611 2.512872,-1.066344 3.093901,-2.42679 0.647463,-1.516052 1.278844,-3.040794 1.863301,-4.582122 1.746778,-4.607136 3.480902,-9.219011 5.189191,-13.840628 0.47347,-1.28093 0.382783,-1.408102 -0.876026,-1.934955 C 42.472335,9.9243781 42.090342,9.8203766 41.709932,9.7392817 41.148938,9.6197458 41.058251,9.2221704 41.086722,8.7571914 c 0.03058,-0.4976275 0.297106,-0.70958 0.815919,-0.7001014 1.999858,0.036335 4.001034,0.018694 5.999047,0.09347 0.253344,0.00948 0.611083,0.4036313 0.71416,0.6927292 0.451326,1.2664488 0.778748,2.5771308 1.237982,3.8404208 1.89889,5.221929 3.828887,10.4328 5.748603,15.647358 0.195083,0.529486 0.432082,1.046334 0.590256,1.586352 0.551504,1.883612 1.792386,2.909146 3.743473,3.110567 0.43419,0.04476 0.89527,0.127961 0.886043,0.735646 -0.0076,0.503947 -0.171619,0.830433 -0.770839,0.794625 -1.303625,-0.07741 -2.609095,-0.124012 -3.913511,-0.183254 -5.27e-4,0.05635 -0.0011,0.112427 -0.0013,0.168772 z M 45.463422,13.375649 c -0.206155,0.273563 -0.326104,0.377565 -0.376984,0.508422 -1.038418,2.670865 -2.090545,5.33699 -3.086783,8.023389 -0.26547,0.715899 0.04719,1.149809 0.828837,1.197465 1.236927,0.0753 2.479655,0.0674 3.72001,0.07241 0.586038,0.0024 1.173394,-0.03159 1.758114,-0.07794 0.471361,-0.03712 0.636127,-0.328065 0.530677,-0.774877 -0.05958,-0.253026 -0.119686,-0.508686 -0.209055,-0.752234 -0.836745,-2.283821 -1.673754,-4.567378 -2.525789,-6.845406 -0.156066,-0.417059 -0.380147,-0.808843 -0.639027,-1.351229 z"
             id="Fill-4" />
          <path
             d="m 194.95321,21.619942 c 0.67435,-1.151126 1.32867,-2.219314 1.93527,-3.314094 1.20081,-2.167445 2.39529,-4.338839 3.55419,-6.528663 0.82224,-1.553967 0.67171,-1.8204216 -1.03315,-2.1176817 -0.19271,-0.033702 -0.38885,-0.04792 -0.5834,-0.069247 -0.46187,-0.050553 -0.64984,-0.3565015 -0.61741,-0.7672416 0.0332,-0.4207454 0.2225,-0.7285373 0.73999,-0.7253777 2.74065,0.015798 5.48129,0.022117 8.22194,0.013165 0.42074,-0.00132 0.61108,0.1974712 0.65089,0.563188 0.043,0.3925728 0.0775,0.8091055 -0.46557,0.9220591 -0.36195,0.075302 -0.71864,0.1911521 -1.08402,0.2303831 -1.39273,0.1495515 -2.36208,0.9007328 -3.07519,2.0615998 -2.02569,3.298033 -4.06483,6.587641 -6.08999,9.885674 -0.74738,1.217476 -1.08666,2.541323 -1.03578,3.977861 0.0604,1.694566 0.0427,3.392029 0.11731,5.085806 0.0562,1.275927 0.60291,1.828583 1.87015,2.028424 0.6443,0.101369 1.29124,0.20853 1.94081,0.247498 0.62558,0.03765 0.68621,0.414689 0.65616,0.893096 -0.0324,0.514215 -0.3319,0.602419 -0.80195,0.600576 -4.02713,-0.01685 -8.05453,-0.01922 -12.08192,0.0061 -0.52092,0.0032 -0.73604,-0.209846 -0.76715,-0.656921 -0.0306,-0.441546 0.0583,-0.806209 0.64456,-0.843597 0.67146,-0.04265 1.34001,-0.150342 2.00592,-0.255133 1.19449,-0.188519 1.79213,-0.729854 1.83615,-1.924687 0.0722,-1.953648 0.0989,-3.915459 -0.009,-5.865422 -0.0424,-0.766452 -0.41336,-1.554757 -0.78112,-2.256701 -1.83641,-3.503667 -3.7614,-6.96152 -5.57276,-10.477825 -0.88051,-1.708784 -2.23949,-2.5386901 -4.08065,-2.6985102 -0.60291,-0.052396 -0.80406,-0.3638737 -0.72945,-0.9044183 0.0751,-0.5460738 0.41837,-0.6255889 0.93956,-0.6200597 3.15506,0.033438 6.31091,0.036861 9.46624,0.00263 0.54412,-0.00579 0.9153,0.067403 0.99439,0.6400701 0.0794,0.5758261 -0.25835,0.7754037 -0.79008,0.8862509 -1.72674,0.3599243 -1.92209,0.7322232 -1.11803,2.2980392 1.57832,3.073179 3.20251,6.123188 4.81062,9.181359 0.0775,0.147445 0.18428,0.27962 0.3327,0.501841"
             id="Fill-5" />
          <path
             d="M 2.5220989,45.45709 V 44.674051 H 205.66956 V 45.45709 H 2.5220989"
             id="Fill-6" />
          <path
             d="m 73.340167,34.337353 c -3.243376,0.06688 -6.486753,0.128225 -9.730129,0.20616 -0.46688,0.01106 -0.811174,-0.03581 -0.862317,-0.610055 -0.05141,-0.575562 0.19271,-0.834908 0.749222,-0.907051 0.581293,-0.07504 1.158631,-0.187992 1.73307,-0.307002 0.944568,-0.195891 1.475244,-0.789885 1.590185,-1.740906 0.06248,-0.517375 0.127331,-1.038436 0.128385,-1.557917 0.01002,-5.415978 0.01055,-10.832219 0.0029,-16.248197 -7.91e-4,-0.497627 -0.05483,-0.998415 -0.123376,-1.492093 C 66.678368,10.600783 66.226515,10.113687 65.154089,9.8740888 64.624466,9.755606 64.087199,9.6581869 63.54835,9.5960493 63.006601,9.533385 62.71345,9.3185363 62.752466,8.7237529 c 0.03902,-0.5982062 0.38252,-0.6700857 0.884725,-0.6592906 2.677111,0.057398 5.354748,0.1061079 8.032649,0.1250651 0.978312,0.00711 1.957942,-0.065297 2.93599,-0.123222 0.428127,-0.02554 0.667235,0.1295411 0.704406,0.5626613 0.03744,0.4375963 0.01555,0.8304325 -0.534104,0.9557609 -0.613719,0.1400729 -1.225856,0.2922574 -1.828766,0.4723514 -0.765303,0.228803 -1.193693,0.779353 -1.308897,1.552914 -0.08014,0.535542 -0.140776,1.080036 -0.142094,1.62058 -0.01081,5.133199 -0.01054,10.266662 -0.0021,15.399861 0.0011,0.519481 0.05747,1.041068 0.122059,1.557653 0.190337,1.518159 0.723122,2.217471 2.231056,2.340166 1.746515,0.142179 3.521765,0.129015 5.270388,-0.0039 1.753369,-0.133491 2.998469,-1.192727 3.830733,-2.713255 0.322149,-0.588991 0.604228,-1.203522 0.855463,-1.825951 0.228562,-0.565558 0.651417,-0.57214 1.125678,-0.476037 0.494296,0.100315 0.524086,0.466558 0.425227,0.858605 -0.471889,1.868341 -0.956168,3.733523 -1.430165,5.601337 -0.124959,0.491572 -0.433663,0.588728 -0.915833,0.585305 -3.222286,-0.02317 -6.4451,-0.01211 -9.66765,-0.01211 -2.64e-4,-0.06819 -5.27e-4,-0.136387 -0.0011,-0.204844"
             id="Fill-7" />
          <path
             d="m 170.18196,34.33393 c -3.59162,0.06767 -7.18351,0.130331 -10.77487,0.208793 -0.46319,0.01027 -0.81909,-0.02501 -0.87234,-0.598469 -0.0522,-0.562925 0.17294,-0.842018 0.73683,-0.916004 0.58077,-0.07635 1.1589,-0.188256 1.73017,-0.319903 0.65379,-0.150605 1.08007,-0.545284 1.15863,-1.242226 0.0367,-0.323063 0.0809,-0.647706 0.0812,-0.971822 0.004,-5.959682 0.002,-11.919364 7.9e-4,-17.879046 0,-0.173775 -0.001,-0.348076 -0.008,-0.521851 -0.0604,-1.575557 -0.44816,-2.033954 -1.98615,-2.3285807 -0.4268,-0.081885 -0.85783,-0.1434957 -1.28833,-0.2037903 -0.49192,-0.068983 -0.65669,-0.3854639 -0.61978,-0.8301691 0.0369,-0.446285 0.23172,-0.6848303 0.75238,-0.6714022 2.56797,0.06556 5.13673,0.1126902 7.70549,0.1311209 1.02181,0.00737 2.0452,-0.063454 3.06649,-0.1245385 0.45976,-0.027646 0.70414,0.1384931 0.73498,0.6029455 0.0301,0.4489179 -0.0319,0.816741 -0.57971,0.924692 -0.55335,0.1092674 -1.09984,0.2577658 -1.6437,0.4086334 -0.86759,0.240652 -1.36689,0.813582 -1.47103,1.710101 -0.0548,0.473931 -0.12205,0.950759 -0.12311,1.426269 -0.009,5.198233 -0.0105,10.39673 5.3e-4,15.594963 0.001,0.584251 0.0775,1.170346 0.14868,1.751701 0.12523,1.021321 0.68648,1.678769 1.71277,1.863602 0.76821,0.138493 1.54564,0.286728 2.32175,0.305422 1.30283,0.0316 2.61463,0.03554 3.91087,-0.08004 1.79661,-0.160084 3.12501,-1.129273 3.99919,-2.692455 0.33797,-0.604262 0.62848,-1.240119 0.88657,-1.883086 0.2254,-0.561608 0.63797,-0.59215 1.11645,-0.492361 0.51644,0.107687 0.55045,0.461029 0.43709,0.899415 -0.47689,1.844908 -0.94404,3.692186 -1.41276,5.5392 -0.12048,0.474458 -0.40335,0.615321 -0.90213,0.610845 -2.93915,-0.02659 -5.87857,-0.01317 -8.81798,-0.01317 -2.7e-4,-0.06951 -7.9e-4,-0.13902 -0.001,-0.208793"
             id="Fill-8" />
          <path
             d="m 52.555721,53.664259 h 1.091143 v 8.716117 c -1.012055,0.303052 -1.34185,0.203264 -1.939751,-0.575826 -1.54906,-2.018156 -3.098647,-4.036313 -4.649024,-6.053415 -0.142094,-0.185097 -0.291306,-0.364137 -0.554403,-0.691676 -0.02109,0.406527 -0.04244,0.634277 -0.04297,0.862027 -0.0026,1.891775 -7.91e-4,3.783286 -0.0018,5.674797 -5.27e-4,0.978141 -0.0016,0.978141 -1.033409,0.840965 v -8.704006 c 1.026555,-0.27725 1.292025,-0.192995 1.91418,0.6169 1.536669,2.000515 3.072548,4.001557 4.60948,6.001546 0.156066,0.203264 0.317932,0.401788 0.606601,0.765398 v -7.452827"
             id="Fill-9" />
          <path
             d="m 124.09718,62.779268 c -2.47043,-0.04344 -4.43655,-1.404942 -4.97223,-3.48234 -0.7139,-2.769337 1.08903,-5.415451 3.94356,-5.795912 1.61365,-0.215376 3.13556,-0.0029 4.43918,1.039751 1.47076,1.176402 1.94502,2.763281 1.57041,4.550791 -0.40097,1.912575 -1.71382,3.011042 -3.56631,3.486289 -0.45845,0.117693 -0.94246,0.136913 -1.41461,0.201421 z m 0.0169,-8.422017 c -2.27508,-0.0079 -3.95306,1.552387 -3.97177,3.694029 -0.0187,2.117155 1.68851,3.770647 3.90903,3.786182 2.23764,0.0158 3.94198,-1.589776 3.95147,-3.722728 0.01,-2.175607 -1.61866,-3.749321 -3.88873,-3.757483 z"
             id="Fill-10" />
          <path
             d="m 183.25775,62.776635 c -2.23554,-0.03976 -4.0585,-1.133748 -4.79191,-2.914412 -1.16917,-2.838057 0.66091,-5.942305 3.74453,-6.361734 1.37454,-0.186939 2.69451,-0.04871 3.90877,0.66166 1.61945,0.947862 2.49363,2.808831 2.18861,4.600027 -0.33428,1.963128 -1.72463,3.412303 -3.69839,3.828046 -0.44395,0.09347 -0.90081,0.125855 -1.35161,0.186413 z m -0.0192,-8.419384 c -2.28115,-7.9e-4 -3.92063,1.5566 -3.91826,3.722464 0.002,2.150594 1.67402,3.756957 3.9114,3.75801 2.21999,0.0011 3.93671,-1.631902 3.94383,-3.75169 0.007,-2.136903 -1.67243,-3.727994 -3.93697,-3.728784 z"
             id="Fill-11" />
          <path
             d="m 135.05738,62.445673 v -8.88015 c 1.45573,0.07504 2.87193,0.05924 4.26097,0.245654 1.28069,0.172195 1.90416,1.010263 1.86593,2.122948 -0.0229,0.667452 -0.33665,1.155075 -0.88419,1.50631 -0.1972,0.126382 -0.40941,0.229593 -0.69887,0.389677 0.26388,0.09637 0.45343,0.15982 0.6385,0.234332 0.85704,0.345707 1.40169,0.933908 1.45336,1.895461 0.0527,0.98525 -0.40967,1.679295 -1.27726,2.079767 -0.42787,0.197471 -0.90766,0.369666 -1.37032,0.388097 -1.30152,0.05187 -2.6062,0.0179 -3.98812,0.0179 z m 1.03051,-0.796731 c 1.07242,-0.06161 2.05258,-0.0466 3.00796,-0.193521 0.96038,-0.147446 1.45837,-0.759343 1.43438,-1.503678 -0.0248,-0.779617 -0.59395,-1.396517 -1.5314,-1.507891 -0.8175,-0.09689 -1.64923,-0.09716 -2.47412,-0.08794 -0.1471,0.0018 -0.41099,0.254606 -0.41705,0.399945 -0.0388,0.907841 -0.0198,1.818052 -0.0198,2.893085 z m 0.004,-4.175332 c 1.00309,-0.05924 1.89573,-0.04581 2.76464,-0.182726 0.81855,-0.129015 1.19606,-0.673772 1.16285,-1.398623 -0.0306,-0.668243 -0.47374,-1.148756 -1.27173,-1.241173 -0.72919,-0.08425 -1.46997,-0.09057 -2.20549,-0.08504 -0.15079,0.0011 -0.4247,0.201157 -0.43023,0.319377 -0.038,0.815424 -0.02,1.633218 -0.02,2.588189 z"
             id="Fill-12" />
          <path
             d="m 30.603944,62.446463 c 0.09649,-0.224327 0.165029,-0.402051 0.247544,-0.572667 1.250636,-2.580291 2.513663,-5.155052 3.744264,-7.745085 0.1906,-0.400735 0.418372,-0.507896 0.839645,-0.514215 0.411518,-0.0061 0.556512,0.18378 0.706251,0.506843 1.20582,2.601354 2.426666,5.195863 3.641713,7.793005 0.07197,0.153764 0.134185,0.311741 0.203255,0.472614 -1.057136,0.274354 -1.258018,0.25329 -1.571204,-0.719058 -0.361693,-1.122427 -0.994393,-1.503941 -2.151179,-1.368608 -0.966712,0.113217 -1.957414,0.0366 -2.937044,0.01711 -0.373557,-0.0074 -0.619519,0.09136 -0.748431,0.464979 -0.0986,0.285939 -0.248862,0.5545 -0.376193,0.830696 -0.438935,0.950232 -0.438935,0.950232 -1.598621,0.834382 z M 37.334023,59.3538 c -0.665917,-1.500782 -1.291762,-2.911516 -1.991686,-4.48918 -0.734722,1.58135 -1.393784,2.999457 -2.086327,4.48918 z"
             id="Fill-13" />
          <path
             d="m 79.120406,53.662152 h 1.016273 c 0.0145,0.279093 0.03638,0.532119 0.03928,0.785409 0.01898,1.67403 -0.01582,3.350429 0.06485,5.021036 0.07276,1.503151 0.969085,2.318049 2.419285,2.367285 1.49449,0.05055 2.484665,-0.699048 2.607514,-2.223263 0.134185,-1.664024 0.07355,-3.343846 0.09649,-5.016823 0.0042,-0.298313 5.28e-4,-0.59689 5.28e-4,-0.928905 h 1.017855 c 0.01845,0.190889 0.05193,0.378092 0.0522,0.565032 0.004,1.609258 -0.0013,3.218781 0.0024,4.82804 0.0029,1.336222 -0.321358,2.548695 -1.595457,3.202193 -1.423838,0.730117 -2.906991,0.705894 -4.311848,-0.08873 -0.900806,-0.509739 -1.358195,-1.393357 -1.390094,-2.384136 -0.06485,-2.017893 -0.01924,-4.038945 -0.01924,-6.127138"
             id="Fill-14" />
          <path
             d="m 168.34212,58.515205 v 3.925729 h -1.12594 V 58.09525 53.635033 c 1.62709,0.05292 3.23415,-0.207477 4.79587,0.301736 0.97936,0.319377 1.48789,1.053443 1.5248,2.052648 0.0361,0.971295 -0.44025,1.80831 -1.38798,2.143484 -0.64219,0.227224 -1.34844,0.299103 -2.03334,0.370456 -0.55599,0.05792 -1.12278,0.01185 -1.77341,0.01185 z m 0.0382,-3.888603 v 2.908619 c 0.88235,0 1.72859,0.0545 2.56428,-0.01501 0.87576,-0.07267 1.38192,-0.662187 1.38429,-1.44075 0.002,-0.790675 -0.47584,-1.355707 -1.37638,-1.436801 -0.83385,-0.0753 -1.67956,-0.01606 -2.57219,-0.01606 z"
             id="Fill-15" />
          <path
             d="m 154.60595,61.543624 c 0.33454,-0.246444 0.59553,-0.438649 0.89,-0.655604 0.82646,0.817004 1.79555,1.149019 2.91833,0.825166 0.32531,-0.09373 0.65695,-0.254606 0.91662,-0.468401 0.75397,-0.620587 0.64983,-1.727216 -0.2225,-2.165602 -0.55783,-0.280146 -1.17919,-0.432857 -1.76813,-0.653235 -0.46715,-0.174828 -0.95221,-0.321483 -1.38772,-0.557132 -1.31523,-0.71116 -1.5546,-2.419944 -0.51539,-3.490501 1.24695,-1.284617 4.01817,-1.281984 5.35106,0.06029 -0.27892,0.228803 -0.55388,0.453921 -0.8291,0.679828 -0.94035,-0.914687 -1.99301,-0.949969 -3.10629,-0.505263 -0.52989,0.211425 -0.83438,0.628222 -0.85916,1.202995 -0.0253,0.584778 0.26284,1.021584 0.79404,1.231957 0.8262,0.327275 1.67955,0.585831 2.51103,0.900469 0.80405,0.304369 1.46601,0.764872 1.65372,1.686404 0.19086,0.937593 -0.0651,1.726162 -0.80169,2.33332 -1.27067,1.047124 -3.8795,1.038172 -5.14437,-0.0058 -0.12918,-0.106635 -0.23384,-0.243022 -0.40045,-0.418903"
             id="Fill-16" />
          <path
             d="m 26.167138,54.456513 c -0.288405,0.229593 -0.541485,0.431014 -0.828573,0.659817 -0.811701,-0.831485 -1.787113,-0.921532 -2.824476,-0.616373 -0.626109,0.18457 -1.077171,0.564768 -1.128051,1.275927 -0.0522,0.726168 0.366702,1.140594 0.979103,1.37519 0.728922,0.279356 1.482362,0.494205 2.215503,0.763292 1.292289,0.474721 1.847483,1.200099 1.813475,2.324632 -0.03295,1.09478 -0.73604,1.966287 -1.98035,2.293299 -1.585967,0.417059 -3.098646,0.326486 -4.452096,-0.951285 0.326368,-0.249603 0.606864,-0.464189 0.914251,-0.699311 0.842018,0.840964 1.81822,1.155338 2.938362,0.826746 0.343504,-0.100579 0.694388,-0.283569 0.960386,-0.520271 0.680943,-0.606632 0.566529,-1.668763 -0.241217,-2.085033 -0.554667,-0.285412 -1.175503,-0.440756 -1.762859,-0.66482 -0.50616,-0.192995 -1.03631,-0.348602 -1.50398,-0.612161 -1.201602,-0.677458 -1.453891,-2.246432 -0.572066,-3.312777 1.166013,-1.409681 4.152619,-1.473926 5.472588,-0.05687"
             id="Fill-17" />
          <path
             d="m 106.10504,54.461779 c -0.26652,0.212742 -0.53146,0.423905 -0.81829,0.652972 -0.83252,-0.835172 -1.81057,-0.920216 -2.85215,-0.607685 -0.63165,0.189309 -1.07006,0.597679 -1.11725,1.290145 -0.0464,0.683251 0.36143,1.104523 0.94879,1.333063 0.74711,0.290677 1.52059,0.513425 2.2735,0.789885 1.26804,0.465769 1.80609,1.162184 1.78843,2.270656 -0.0182,1.129009 -0.67883,1.951279 -1.92499,2.328317 -1.15942,0.350709 -2.32069,0.343337 -3.43345,-0.177461 -0.35958,-0.168245 -0.67092,-0.439702 -1.096677,-0.726167 0.370397,-0.286992 0.636127,-0.493152 0.938767,-0.728011 0.83068,0.80068 1.79212,1.154285 2.91385,0.82859 0.32531,-0.09426 0.65853,-0.249604 0.91952,-0.461557 0.78007,-0.633751 0.6588,-1.746435 -0.25387,-2.197196 -0.54043,-0.266981 -1.13912,-0.414426 -1.70697,-0.627959 -0.48639,-0.182726 -0.99255,-0.335438 -1.44414,-0.584778 -1.20055,-0.66324 -1.479988,-2.23906 -0.62083,-3.305932 1.16443,-1.446279 4.2143,-1.509733 5.48576,-0.07688"
             id="Fill-18" />
          <path
             d="m 69.313562,61.606552 h 4.501921 v 0.855972 H 68.292542 V 53.68032 h 1.02102 v 7.926232"
             id="Fill-19" />
          <path
             d="m 92.81888,53.652673 h 0.99202 v 8.763511 c -0.976466,0.204054 -1.027873,0.169562 -1.028401,-0.713529 -0.0016,-2.433636 -0.0016,-4.867272 0.0011,-7.30117 0,-0.232753 0.02135,-0.465769 0.03533,-0.748812"
             id="Fill-20" />
          <path
             d="m 147.49019,53.635559 c 0.24807,0 0.42154,-0.0026 0.59474,7.9e-4 0.1065,0.0024 0.21301,0.01369 0.36986,0.02449 v 8.803268 h -0.9646 v -8.828545"
             id="Fill-21" />
        </g>
      </g>
    </g>
  </g>
  <metadata
     id="metadata2574">
    <rdf:RDF>
      <cc:Work
         rdf:about="">
        <dc:title>Imported Layers Copy 4</dc:title>
      </cc:Work>
    </rdf:RDF>
  </metadata>
</svg>
