<svg xmlns="http://www.w3.org/2000/svg" width="300" height="90" fill="#015629" fill-rule="evenodd" xmlns:v="https://vecta.io/nano"><path d="M152.676 24.721l.01 15.424c.004 1.019.074 2.042.187 3.055.26 2.339 1.416 3.498 3.748 3.775l3.502.297c.763.025.992.354.96 1.054-.036.79-.428.956-1.174.942l-14.446-.17c-1.594-.009-3.19.066-4.781.155-.684.038-1.162-.012-1.237-.858s.329-1.095 1.075-1.168l2.854-.402c1.585-.252 2.445-1.265 2.65-2.779.189-1.395.305-2.811.309-4.218l-.006-26.699-.284-5.483c-.178-1.561-1.005-2.21-2.586-2.392l-2.33-.267c-.557-.053-.895-.256-.874-.89.021-.614.364-.858.907-.902l4.769-.35c4.693-.008 9.396-.112 14.075.169 4.384.263 8.609 1.331 12.218 4.103 5.388 4.138 6.861 11.455 3.256 16.778-2.509 3.706-6.125 5.749-10.529 6.208-2.649.276-5.338.181-8.01.203-.289.002-.814-.314-.827-.509-.036-.527.309-.798.912-.859 1.937-.195 3.922-.261 5.789-.752 4.45-1.168 6.808-4.27 7.42-8.755.274-2.01.257-4.022-.219-6.003-1.091-4.54-4.103-7.143-8.577-7.929-2.131-.374-4.364-.283-6.544-.217-1.583.048-2.21.887-2.215 2.484l-.003 16.957M47.372 4.598l.534 6.486.225 3.056c.065.602-.124.937-.737.952-.568.014-1.152.067-1.32-.729l-.705-2.696c-1.473-4.196-4.587-6.407-8.86-7.121-11.348-1.897-19.856 5.064-21.81 15.625-1.337 7.223-.058 13.961 4.497 19.851 3.626 4.689 8.372 7.474 14.444 7.46 6.315-.014 11.051-2.675 13.708-8.586.349-.776 1.262-1.03 1.913-.503.173.141.267.532.217.77-.62 2.95-1.562 5.788-2.991 8.457-.296.553-.7.802-1.305.958-5.06 1.303-10.209 1.628-15.399 1.398-6.368-.283-12.112-2.227-16.734-6.782C9.263 39.463 7.3 34.798 6.63 29.597c-.799-6.202.372-12.02 4.177-17.063 4.431-5.873 10.41-9.302 17.685-10.498 5.522-.907 10.832-.031 16.058 1.737.904.306 1.834.538 2.822.825m152.891 45.673c-4.326-.015-8.447-.881-12.101-3.277-5.741-3.766-8.347-9.247-8.211-15.999.208-10.354 7.5-18.034 17.886-19.048 4.083-.399 8.058.004 11.835 1.648 5.21 2.268 8.595 6.197 10.026 11.675 1.598 6.12.876 11.953-2.893 17.166-3.473 4.803-8.392 7.124-14.197 7.734-.627.066-1.262.07-1.893.099-.15.007-.301.001-.451.001zM213.75 32.31l-.227-.043c-.061-4.656-.983-9.074-3.758-12.933a12.24 12.24 0 0 0-21.227 2.026c-1.023 2.211-1.487 4.558-1.621 6.973-.259 4.651.442 9.122 2.846 13.182 2.844 4.8 7.141 6.985 12.667 6.312 5.313-.647 8.614-3.891 10.095-8.909.631-2.136.829-4.4 1.224-6.606zM83.951 49.289c-2.646 0-5.293-.019-7.939.013-.685.008-1.112-.152-1.165-.895-.05-.688.213-1.061.947-1.13.655-.061 1.305-.204 1.949-.351.782-.178 1.094-.686.916-1.473a6.12 6.12 0 0 0-.219-.779l-2.563-7.017c-.357-1.017-1.01-1.517-2.075-1.517l-9.118-.006c-.882.002-1.595.314-1.91 1.212l-2.59 7.48c-.438 1.365-.129 1.768 1.276 2.088l1.771.33c.729.103.957.569.887 1.211s-.448.875-1.123.849l-7.487-.191c-1.291-.01-2.585.098-3.875.18-.586.037-.933-.169-.984-.769-.048-.566-.031-1.105.693-1.256l1.408-.307c2.02-.366 3.473-1.474 4.276-3.354l2.575-6.332 7.171-19.128c.654-1.77.529-1.946-1.211-2.674-.494-.207-1.022-.351-1.548-.463-.775-.165-.901-.715-.861-1.357.042-.688.411-.981 1.128-.968l8.291.129c.35.013.845.558.987.957l1.711 5.307 7.944 21.624.816 2.192c.762 2.603 2.477 4.02 5.173 4.299.6.062 1.237.177 1.224 1.017-.011.696-.237 1.148-1.065 1.098l-5.408-.253-.002.233zm-14.75-29.254c-.285.378-.451.522-.521.703l-4.266 11.088c-.367.989.065 1.589 1.145 1.655l5.141.1 2.43-.108c.651-.051.879-.453.733-1.071l-.289-1.04-3.491-9.46c-.216-.576-.525-1.118-.883-1.867z"/><path d="M275.794 31.429l2.675-4.58 4.912-9.023c1.136-2.148.928-2.516-1.428-2.927-.266-.047-.537-.066-.806-.096-.638-.07-.898-.493-.853-1.06.046-.581.307-1.007 1.023-1.002l11.363.018c.581-.002.845.273.9.778.059.543.107 1.118-.643 1.274l-1.498.318c-1.925.207-3.264 1.245-4.25 2.849l-8.416 13.662a9.61 9.61 0 0 0-1.431 5.497l.162 7.029c.078 1.763.833 2.527 2.585 2.803l2.682.342c.865.052.948.573.907 1.234-.045.711-.459.833-1.108.83-5.565-.023-11.131-.027-16.697.008-.72.004-1.017-.29-1.06-.908-.042-.61.081-1.114.891-1.166.928-.059 1.852-.208 2.772-.353 1.651-.261 2.477-1.009 2.538-2.66.1-2.7.137-5.411-.012-8.106-.059-1.059-.571-2.149-1.079-3.119l-7.701-14.48c-1.217-2.362-3.095-3.508-5.639-3.729-.833-.072-1.111-.503-1.008-1.25.104-.755.578-.865 1.298-.857l13.082.004c.752-.008 1.265.093 1.374.885s-.357 1.072-1.092 1.225c-2.386.497-2.656 1.012-1.545 3.176l6.648 12.689c.107.204.255.386.46.694M9.857 64.371v-1.082h280.747v1.082H9.857"/><path d="M107.726 49.004l-13.447.285c-.645.015-1.121-.049-1.192-.843s.266-1.154 1.035-1.254l2.395-.424c1.305-.271 2.039-1.092 2.198-2.406l.177-2.153.004-22.455c-.001-.688-.076-1.38-.171-2.062-.207-1.492-.831-2.165-2.313-2.496l-2.219-.384s-1.154-.384-1.1-1.206.529-.926 1.223-.911l11.101.173 4.057-.17c.592-.035.922.179.973.778.052.605.021 1.148-.738 1.321l-2.527.653c-1.058.316-1.65 1.077-1.809 2.146-.111.74-.195 1.493-.196 2.24l-.003 21.282c.002.718.079 1.439.169 2.153.263 2.098.999 3.065 3.083 3.234 2.414.196 4.867.178 7.284-.005 2.423-.184 4.144-1.648 5.294-3.75a23.91 23.91 0 0 0 1.182-2.523c.316-.782.9-.791 1.556-.658.683.139.724.645.588 1.187l-1.976 7.741c-.173.679-.599.814-1.266.809l-13.361-.017-.002-.283m133.835-.007l-14.891.289c-.64.014-1.132-.035-1.206-.827-.072-.778.239-1.164 1.018-1.266.803-.106 1.602-.26 2.391-.442.904-.208 1.493-.754 1.601-1.717l.112-1.343.001-24.709a17.93 17.93 0 0 0-.011-.721c-.083-2.177-.619-2.811-2.745-3.218l-1.78-.282c-.68-.095-.908-.533-.857-1.147s.32-.946 1.04-.928l10.649.181 4.238-.172c.635-.038.973.191 1.016.833.042.62-.044 1.129-.801 1.278l-2.272.565c-1.199.333-1.889 1.124-2.033 2.363l-.17 1.971V41.26c.001.807.107 1.617.205 2.421.173 1.411.949 2.32 2.367 2.575 1.062.191 2.136.396 3.209.422l5.405-.111c2.483-.221 4.319-1.561 5.527-3.721.467-.835.869-1.714 1.225-2.602.311-.776.882-.818 1.543-.68.714.149.761.637.604 1.243l-1.952 7.655c-.167.656-.557.85-1.247.844l-12.186-.018-.001-.289M79.003 75.713h1.508v12.046c-1.399.419-1.854.281-2.681-.796l-6.425-8.366-.766-.956-.059 1.191-.002 7.842c-.001 1.352-.002 1.352-1.428 1.162V75.809c1.419-.383 1.786-.267 2.645.853l6.37 8.294.838 1.058v-10.3m98.869 12.596c-3.414-.06-6.131-1.942-6.872-4.813-.987-3.827 1.505-7.484 5.45-8.01 2.23-.298 4.333-.004 6.135 1.437 2.033 1.626 2.688 3.819 2.17 6.289-.554 2.643-2.368 4.161-4.929 4.818-.634.163-1.302.189-1.955.278zm.023-11.639c-3.144-.011-5.463 2.145-5.489 5.105-.026 2.926 2.333 5.211 5.402 5.232 3.092.022 5.448-2.197 5.461-5.145.014-3.007-2.237-5.182-5.374-5.193zm81.736 11.636c-3.089-.055-5.609-1.567-6.622-4.028-1.616-3.922.913-8.212 5.175-8.792 1.9-.258 3.724-.067 5.402.914 2.238 1.31 3.446 3.882 3.025 6.357-.462 2.713-2.383 4.716-5.111 5.29-.614.129-1.245.174-1.868.258zm-.027-11.635c-3.153-.001-5.418 2.151-5.415 5.144.003 2.972 2.313 5.192 5.406 5.194 3.068.002 5.44-2.255 5.45-5.185.01-2.953-2.311-5.152-5.441-5.153zm-66.585 11.177V75.577l5.889.339c1.77.238 2.632 1.396 2.579 2.934-.032.922-.465 1.596-1.222 2.082-.273.175-.566.317-.966.539l.882.324c1.184.478 1.937 1.291 2.009 2.62.073 1.362-.566 2.321-1.765 2.874-.591.273-1.254.511-1.894.536l-5.512.025zm1.424-1.101l4.157-.267c1.327-.204 2.015-1.049 1.982-2.078-.034-1.077-.821-1.93-2.116-2.084-1.13-.134-2.279-.134-3.419-.122-.203.002-.568.352-.576.553l-.027 3.998zm.006-5.77l3.821-.253c1.131-.178 1.653-.931 1.607-1.933-.042-.924-.655-1.588-1.758-1.715-1.008-.116-2.031-.125-3.048-.118-.208.002-.587.278-.595.441l-.028 3.577zM48.666 87.85l.342-.791 5.175-10.704c.263-.554.578-.702 1.16-.711.569-.008.769.254.976.7l5.033 10.77.281.653c-1.461.379-1.739.35-2.171-.994-.5-1.551-1.374-2.078-2.973-1.891-1.336.156-2.705.051-4.059.024-.516-.01-.856.126-1.034.643-.136.395-.344.766-.52 1.148-.607 1.313-.607 1.313-2.209 1.153zm9.301-4.274l-2.752-6.204-2.883 6.204zm57.748-7.865h1.404l.054 1.085.09 6.939c.101 2.077 1.339 3.204 3.343 3.272 2.065.07 3.434-.966 3.604-3.073.185-2.3.102-4.621.133-6.933l.001-1.284h1.407l.072.781.003 6.672c.004 1.847-.444 3.522-2.205 4.425-1.968 1.009-4.017.976-5.959-.123-1.245-.704-1.877-1.926-1.921-3.295l-.027-8.468m123.304 6.708v5.425h-1.556v-6.006-6.164c2.249.073 4.47-.287 6.628.417 1.353.441 2.056 1.456 2.107 2.837.05 1.342-.608 2.499-1.918 2.962-.887.314-1.864.413-2.81.512-.768.08-1.552.016-2.451.016zm.053-5.374v4.02l3.544-.021c1.21-.1 1.91-.915 1.913-1.991.003-1.093-.658-1.874-1.902-1.986-1.152-.104-2.321-.022-3.555-.022zm-19.036 9.56l1.23-.906c1.142 1.129 2.481 1.588 4.033 1.14.45-.13.908-.352 1.267-.647 1.042-.858.898-2.387-.307-2.993-.771-.387-1.63-.598-2.444-.903-.646-.242-1.316-.444-1.918-.77-1.818-.983-2.148-3.344-.712-4.824 1.723-1.775 5.553-1.772 7.395.083l-1.146.94c-1.3-1.264-2.754-1.313-4.293-.698-.732.292-1.153.868-1.187 1.663-.035.808.363 1.412 1.097 1.703l3.47 1.244c1.111.421 2.026 1.057 2.285 2.331.264 1.296-.09 2.386-1.108 3.225-1.756 1.447-5.361 1.435-7.109-.008-.179-.147-.323-.336-.553-.579M42.534 76.808l-1.145.912c-1.122-1.149-2.47-1.274-3.903-.852-.865.255-1.489.781-1.559 1.763-.072 1.004.507 1.576 1.353 1.9l3.062 1.055c1.786.656 2.553 1.659 2.506 3.213-.046 1.513-1.017 2.717-2.737 3.169-2.192.576-4.282.451-6.153-1.315l1.263-.966c1.164 1.162 2.513 1.597 4.061 1.143a3.55 3.55 0 0 0 1.327-.719c.941-.838.783-2.306-.333-2.881-.767-.394-1.625-.609-2.436-.919-.7-.267-1.432-.482-2.078-.846-1.661-.936-2.009-3.105-.791-4.578 1.611-1.948 5.739-2.037 7.563-.079m110.473.008l-1.131.902c-1.151-1.154-2.502-1.272-3.942-.84-.873.262-1.479.826-1.544 1.783-.064.944.499 1.526 1.311 1.842l3.142 1.092c1.752.644 2.496 1.606 2.472 3.138-.025 1.56-.938 2.697-2.66 3.218-1.602.485-3.207.474-4.745-.245-.497-.233-.927-.608-1.516-1.004l1.297-1.006c1.148 1.107 2.477 1.595 4.027 1.145.45-.13.91-.345 1.271-.638 1.078-.876.91-2.414-.351-3.036-.747-.369-1.574-.573-2.359-.868-.672-.253-1.372-.464-1.996-.808-1.659-.917-2.045-3.094-.858-4.569 1.609-1.999 5.824-2.086 7.581-.106m-50.844 9.874h6.222v1.183h-7.633V75.736h1.411V86.69m32.484-10.993h1.371v12.111c-1.349.282-1.421.234-1.421-.986l.002-10.09.049-1.035m75.554-.023l.822.001.511.034v12.166h-1.333V75.674"/></svg>