<?xml version="1.0" encoding="UTF-8"?><svg id="Layer_1" xmlns="http://www.w3.org/2000/svg" viewBox="0 0 1076.17 519.64"><defs><style>.cls-1{fill:#452392;}.cls-2{fill:#a43a8f;}.cls-3{fill:#99c941;}</style></defs><path class="cls-1" d="M511.67,297.57c.21-.26,.43-.53,.63-.8,6.76-8.71,10.87-19.86,10.93-31.96-.04-2.75-.29-5.32-.72-7.74-.96-6.79-3.21-13.14-6.45-18.78,.12,.14,.24,.29,.36,.43-8.1-14.41-22.71-24.19-39.39-24.56-.08,0-.16,0-.24,0-.25,0-.5-.01-.75-.01-.04,0-.09,0-.13,0-.04,0-.09,0-.13,0-.25,0-.5,0-.75,.01-.08,0-.16,0-.24,0-16.67,.37-31.28,10.16-39.39,24.56,.12-.15,.24-.29,.36-.43-3.46,5.99-5.77,12.8-6.62,20.08-.31,2.09-.5,4.3-.53,6.63,.14,27.62,21.33,50.28,47.17,50.28,14.27,0,27.13-6.86,35.8-17.6,.03-.03,.05-.07,.08-.1Zm-40.94-76.81c.22-.03,.44-.07,.66-.1,.23-.03,.47-.06,.7-.09,.39-.05,.79-.08,1.19-.12,.2-.02,.4-.03,.6-.05,.25-.02,.5-.03,.76-.04,.27-.01,.53-.02,.8-.02,.16,0,.33,0,.49,0,.16,0,.33,0,.49,0,.27,0,.53,.01,.8,.02,.25,.01,.51,.02,.76,.04,.2,.01,.4,.03,.6,.05,.4,.03,.8,.07,1.19,.12,.23,.03,.47,.06,.7,.09,.22,.03,.44,.06,.66,.1,.25,.04,.5,.09,.75,.13,20.01,3.7,27.8,25.76,27.8,43.8,0,10.71-2.74,22.75-9.13,31.57,0,0-.01,.02-.02,.03-.19,.26-.38,.51-.58,.77-5.39,6.93-13.18,11.63-23.86,11.64-1.59,0-3.18-.12-4.75-.34-1.09-.1-2.17-.23-3.24-.39-3.5-.86-6.6-2.31-9.33-4.2,.08,.03,.16,.06,.24,.08-11.93-8.2-16.8-24.88-16.8-39.16,0-18.05,7.79-40.1,27.8-43.8,.25-.05,.5-.09,.75-.13Z"/><path class="cls-1" d="M598.78,311.51c0,.78-.78,1.17-2.34,1.17h-14.77c-1.07,0-1.85-.54-2.34-1.61l-2.34-5.12c-.49-.97-.98-1.02-1.46-.15-4.19,5.56-10.29,8.34-18.28,8.34-6.24,0-11.24-2.02-14.99-6.07-3.75-4.04-5.63-9.77-5.63-17.19v-29.4c0-3.51-1.61-5.7-4.83-6.58l-3.07-.88c-1.56-.49-2.34-1.02-2.34-1.61,0-.78,.78-1.17,2.34-1.17h20.18c1.27,0,1.9,.34,1.9,1.02,0,.1-.61,.76-1.83,1.97-1.22,1.22-1.83,4.12-1.83,8.7v30.27c0,8.78,4.53,13.16,13.6,13.16,3.41,0,6.82-1.02,10.24-3.07,3.8-2.34,5.7-5.12,5.7-8.34v-33.49c0-3.51-1.61-5.7-4.83-6.58l-3.07-.88c-1.56-.49-2.34-1.02-2.34-1.61,0-.78,.78-1.17,2.34-1.17h17.11c1.36,0,2,.59,1.9,1.76l-.59,9.65v39.93c0,3.61,1.66,5.75,4.97,6.44l4.09,.88c1.66,.39,2.49,.93,2.49,1.61Z"/><path class="cls-1" d="M659.47,311.51c0,.78-.78,1.17-2.34,1.17h-14.48c-1.07,0-1.9-.54-2.49-1.61l-1.17-2.05c-.39-.68-.88-1.02-1.46-1.02s-1.22,.24-1.9,.73c-5.17,3.61-11.26,5.41-18.28,5.41-5.27,0-9.51-1.32-12.72-3.95-3.51-2.92-5.27-6.87-5.27-11.85,0-7.02,3.36-11.99,10.09-14.92,2.05-.88,5.27-1.8,9.65-2.78,5.46-1.27,9.02-2.14,10.68-2.63,5.17-1.56,7.75-4.04,7.75-7.46v-5.7c0-3.22-1.56-5.7-4.68-7.46-2.54-1.36-5.41-2.05-8.63-2.05-5.36,0-9.34,1.17-11.92,3.51-2.59,2.34-4.46,6.29-5.63,11.85-.2,.49-.54,.73-1.02,.73-.58,0-.88-.29-.88-.88l-.15-17.55c0-.88,.49-1.36,1.46-1.46,1.56-.1,4.63-.44,9.21-1.02,3.8-.49,6.87-.73,9.21-.73,7.8,0,13.55,1.51,17.26,4.53,4.19,3.51,6.29,9.26,6.29,17.26v30.86c0,3.8,1.56,6,4.68,6.58l4.39,.88c1.56,.29,2.34,.83,2.34,1.61Zm-21.94-14.04v-14.48c0-1.27-.54-1.66-1.61-1.17l-19.16,5.56c-4.78,1.37-7.17,4.19-7.17,8.48,0,8.48,3.8,12.72,11.41,12.72,4.58,0,8.48-1.05,11.7-3.14,3.22-2.1,4.83-4.75,4.83-7.97Z"/><path class="cls-1" d="M782.69,295.57c0,12.38-7.56,18.57-22.67,18.57-6.63,0-13.51-.98-20.62-2.93-1.27-.39-2.05-1.8-2.34-4.24,0-1.76-.05-3.58-.15-5.48-.1-1.9-.34-4.46-.73-7.68-.2-1.17,.15-1.76,1.02-1.76s1.41,.54,1.61,1.61c2.05,5.85,4.92,9.85,8.63,11.99,3.22,1.95,7.99,2.93,14.33,2.93,3.02,0,5.75-.78,8.19-2.34,2.83-1.85,4.24-4.24,4.24-7.17,0-4.19-3.17-7.65-9.51-10.38-5.75-2.44-11.55-4.92-17.4-7.46-6.34-3.51-9.51-8.24-9.51-14.19,0-11.5,6.78-17.26,20.33-17.26,4.78,0,11.41,.59,19.89,1.76,.97,.1,1.46,.59,1.46,1.46l.29,14.48c0,1.17-.29,1.75-.88,1.75-.49,0-.88-.44-1.17-1.32-1.76-5.27-4.19-8.78-7.31-10.53-2.73-1.56-7.12-2.34-13.16-2.34-7.61,0-11.41,2.93-11.41,8.78,0,3.32,3.17,6.34,9.51,9.07,11.21,4.78,17.16,7.36,17.84,7.75,6.34,3.8,9.51,8.77,9.51,14.92Z"/><path class="cls-1" d="M818.08,309.62l-4.97-.88c-3.22-.59-4.83-2.73-4.83-6.44v-16.02h0s0-23.63,0-23.63l.58-9.65c.1-1.17-.58-1.76-2.05-1.76h-18.87c-1.56,0-2.34,.39-2.34,1.17s.78,1.32,2.34,1.61l4.97,.88c3.22,.59,4.83,2.73,4.83,6.44v14.6h0s0,25.05,0,25.05l-.58,9.65c-.1,1.17,.58,1.76,2.05,1.76h18.87c1.56,0,2.34-.39,2.34-1.17s-.78-1.32-2.34-1.61Z"/><path class="cls-1" d="M731.65,309.9l-3.07-.88c-3.22-.88-4.83-3.07-4.83-6.58v-29.4c0-7.41-1.88-13.14-5.63-17.18-3.76-4.04-8.75-6.07-14.99-6.07-8,0-14.09,2.78-18.28,8.34-.49,.88-.98,.83-1.46-.15l-2.34-5.12c-.49-1.07-1.27-1.61-2.34-1.61h-16.53c-1.56,0-2.34,.39-2.34,1.17,0,.88,.78,1.42,2.34,1.61l6,.88c3.31,.49,4.97,2.63,4.97,6.44v29.16s.01,.04,.02,.05v10.72l-.58,9.65c-.1,1.17,.58,1.76,2.05,1.76h16.95c1.56,0,2.34-.39,2.34-1.17,0-.59-.78-1.12-2.34-1.61l-3.07-.88c-3.22-.88-4.83-3.07-4.83-6.58v-33.49c0-3.12,1.95-5.9,5.85-8.34,3.51-2.05,6.87-3.07,10.09-3.07,9.07,0,13.6,4.39,13.6,13.16v30.28c0,4.58-.61,7.48-1.83,8.7-1.22,1.22-1.83,1.88-1.83,1.97,0,.68,.63,1.02,1.9,1.02h20.18c1.56,0,2.34-.39,2.34-1.17,0-.59-.78-1.12-2.34-1.61Z"/><path class="cls-1" d="M808.87,227.12c0,2.05-.85,3.88-2.53,5.48-1.69,1.61-3.59,2.41-5.72,2.41-1.64,0-3.06-.56-4.27-1.68-1.21-1.12-1.81-2.51-1.81-4.17,0-2.14,.82-4,2.46-5.56,1.64-1.56,3.52-2.34,5.65-2.34,4.15,0,6.23,1.95,6.23,5.85Z"/><path class="cls-1" d="M887.12,256.08c0,.98-.54,1.46-1.61,1.46l-15.94,.44c3.31,3.62,4.97,8.17,4.97,13.66,0,6.46-2.49,11.72-7.46,15.79-4.97,4.06-11.17,6.1-18.57,6.1h-4.24c-5.85,0-8.78,1.88-8.78,5.63,0,3.27,2.05,4.9,6.14,4.9,.58,0,2.97-.1,7.17-.29,4.19-.19,7.55-.29,10.09-.29,7.12,0,12.38,1.12,15.8,3.36,4,2.73,6,7.36,6,13.89,0,7.99-4,14.04-11.99,18.14-6.24,3.22-13.8,4.83-22.67,4.83-6.53,0-11.94-1.32-16.23-3.95-5.17-3.22-7.75-7.9-7.75-14.04,0-6.83,3.22-11.99,9.65-15.5-2.34-1.85-3.51-4.19-3.51-7.02,0-5.17,2.24-8.68,6.73-10.53,.68-.29,1.02-.63,1.02-1.02s-.3-.73-.89-1.02c-8.67-3.8-13-10.14-13-19.01,0-6.44,2.52-11.68,7.57-15.72,5.04-4.04,11.29-6.07,18.73-6.07,4.6,0,8.86,.83,12.78,2.49l24.39-1.02c1.08,0,1.62,.39,1.62,1.17v3.66Zm-14.63,66.99c0-3.8-1.27-6.49-3.8-8.04-2.54-1.56-6.87-2.34-13.02-2.34-2.83,0-6.9,.07-12.21,.22-5.32,.15-8.26,.22-8.85,.22-3.02,.97-4.53,3.95-4.53,8.92,0,4.58,2.58,8.09,7.75,10.53,4,1.85,8.68,2.78,14.04,2.78,13.75,0,20.62-4.1,20.62-12.28Zm-8.48-49.87c0-11.8-5.53-17.7-16.6-17.7-9.6,0-14.4,4.83-14.4,14.48,0,5.56,1.42,10,4.26,13.31,2.84,3.32,7,4.97,12.49,4.97,4.6,0,8.13-1.36,10.58-4.1,2.45-2.73,3.67-6.38,3.67-10.97Z"/><path class="cls-1" d="M951.33,309.9l-3.22-.88c-3.22-.88-4.83-3.07-4.83-6.58v-29.4c0-7.41-1.88-13.14-5.63-17.18-3.75-4.04-8.75-6.07-14.99-6.07-8,0-14.09,2.78-18.28,8.34-.2,.2-.44,.24-.73,.15-.29-.1-.44-.34-.44-.73v-28.52l.59-9.65c.1-1.17-.59-1.75-2.05-1.75h-19.89c-1.56,0-2.34,.39-2.34,1.17,0,.88,.78,1.41,2.34,1.61l6,.88c3.22,.49,4.83,2.63,4.83,6.44v67.74h0v5.82l-.58,9.65c-.1,1.17,.58,1.76,2.05,1.76h16.96c1.56,0,2.34-.39,2.34-1.17,0-.59-.78-1.12-2.34-1.61l-3.07-.88c-3.22-.88-4.83-3.07-4.83-6.58v-33.49c0-3.22,1.9-6,5.7-8.34,3.31-2.05,6.73-3.07,10.24-3.07,9.07,0,13.6,4.39,13.6,13.16v31.45c0,3.8-.61,6.31-1.83,7.53-1.22,1.22-1.83,1.88-1.83,1.97,0,.68,.63,1.02,1.9,1.02h20.18c1.56,0,2.34-.39,2.34-1.17,0-.49-.73-1.02-2.19-1.61Z"/><path class="cls-1" d="M992.57,308.98c.19,.48,.1,.86-.29,1.15-3.02,2.19-7.02,3.29-11.99,3.29-11.99,0-17.99-4.4-17.99-13.2v-41.64h-11.55c-.98,0-1.46-.46-1.46-1.37v-4.42c0-1.02,.49-1.52,1.46-1.52h8.48c1.66,0,2.97-1.12,3.95-3.36l6.87-16.38c.39-.88,.88-1.32,1.46-1.32,.88,0,1.32,.59,1.32,1.76v19.31h16.67c.97,0,1.46,.39,1.46,1.17v4.97c0,.78-.44,1.17-1.32,1.17h-16.82v38.86c0,7.73,3.02,11.6,9.07,11.6,3.31,0,6.14-.68,8.48-2.05,.59-.59,1.07-.54,1.46,.14l.73,1.86Z"/><path class="cls-1" d="M476.04,314.87c-4.03,.87-12.77,4.56-21.37,9.46h5.9c8.58-4.69,17.15-8.58,24.05-10.18,.96-.22,1.95-.5,2.78-.8l-11.36,1.51Z"/><path class="cls-1" d="M441.15,335.96s16.77-11.32,32.67-11.47c20.7-.22,39.84,31.26,64.38,31.26,22.91,0,32.95-15.75,37.73-28.74l-.99-.45c-8.9,13.18-18.04,17.67-32.68,17.67-25.61,0-34.2-25.54-68.39-25.16-18.13,.18-32.89,14.25-32.72,16.88"/><g><g><polygon class="cls-1" points="185.77 200.68 192.03 188.12 209.25 197.71 203.78 208.67 185.77 200.68"/><polygon class="cls-1" points="199.4 176.19 207.81 164.96 223.03 177.48 215.68 187.28 199.4 176.19"/><polygon class="cls-1" points="217.19 154.54 227.48 145.01 240.21 160.05 231.23 168.38 217.19 154.54"/><polygon class="cls-1" points="238.58 136.43 250.42 128.89 260.24 145.98 249.91 152.56 238.58 136.43"/><polygon class="cls-1" points="275.51 147.66 286.23 143.32 291.64 158.63 282.3 162.42 275.51 147.66"/><polygon class="cls-1" points="255.48 159.18 265.23 152.96 273.33 167.05 264.82 172.47 255.48 159.18"/><polygon class="cls-1" points="207 302.56 204.01 291.39 219.88 287.91 222.48 297.66 207 302.56"/><polygon class="cls-1" points="202.05 279.99 201.11 268.48 217.35 267.89 218.17 277.96 202.05 279.99"/><polygon class="cls-1" points="201.21 256.92 202.35 245.41 218.43 247.74 217.43 257.78 201.21 256.92"/><polygon class="cls-1" points="204.53 234.04 207.74 222.92 223.13 228.12 220.33 237.83 204.53 234.04"/><polygon class="cls-1" points="211.94 212.14 217.11 201.79 231.3 209.69 226.8 218.72 211.94 212.14"/><polygon class="cls-1" points="286.32 170.97 294.88 167.5 299.2 179.73 291.74 182.75 286.32 170.97"/><polygon class="cls-1" points="237.85 174.11 246.33 166.25 256.83 178.64 249.42 185.51 237.85 174.11"/><polygon class="cls-1" points="271.11 140.37 262.88 122.46 275.89 117.19 282.45 135.77 271.11 140.37"/><polygon class="cls-1" points="270.32 180.16 278.11 175.2 284.58 186.45 277.78 190.78 270.32 180.16"/><polygon class="cls-1" points="256.25 192.08 263.02 185.81 271.4 195.7 265.49 201.19 256.25 192.08"/><polygon class="cls-1" points="223.18 191.95 230.11 182.7 242.66 193.01 236.61 201.1 223.18 191.95"/><polygon class="cls-1" points="244.54 206.33 250.07 198.94 260.09 207.18 255.26 213.63 244.54 206.33"/><polygon class="cls-1" points="235.57 222.44 239.69 214.18 251.02 220.49 247.42 227.7 235.57 222.44"/><polygon class="cls-1" points="229.65 239.93 232.21 231.05 244.5 235.21 242.26 242.95 229.65 239.93"/><polygon class="cls-1" points="227 258.2 227.91 249 240.74 250.87 239.95 258.89 227 258.2"/><polygon class="cls-1" points="227.67 276.62 226.92 267.43 239.88 266.95 240.54 275 227.67 276.62"/><polygon class="cls-1" points="229.23 285.72 241.9 282.94 243.98 290.72 231.62 294.64 229.23 285.72"/><polygon class="cls-1" points="179.76 310.38 176.14 296.82 195.39 292.6 198.55 304.43 179.76 310.38"/><polygon class="cls-1" points="173.76 283 172.63 269.03 192.33 268.31 193.32 280.53 173.76 283"/><polygon class="cls-1" points="172.75 255 174.13 241.04 193.63 243.87 192.43 256.05 172.75 255"/><polygon class="cls-1" points="176.77 227.25 180.67 213.75 199.33 220.07 195.94 231.84 176.77 227.25"/></g><g><polygon class="cls-3" points="364.25 282.78 372.4 294.21 355.85 304.91 348.74 294.94 364.25 282.78"/><polygon class="cls-3" points="379.48 306.32 385.44 319.02 367.23 326.58 362.03 315.49 379.48 306.32"/><polygon class="cls-3" points="390.23 332.2 393.82 345.75 374.56 349.94 371.42 338.09 390.23 332.2"/><polygon class="cls-3" points="396.17 359.58 397.27 373.57 377.57 374.22 376.62 362.01 396.17 359.58"/><polygon class="cls-3" points="368.92 386.92 367.72 398.42 351.65 396.01 352.7 385.97 368.92 386.92"/><polygon class="cls-3" points="368.16 363.82 369.06 375.35 352.82 375.89 352.03 365.82 368.16 363.82"/><polygon class="cls-3" points="264.33 253.68 275.6 256.29 271.22 271.94 261.39 269.66 264.33 253.68"/><polygon class="cls-3" points="286.58 259.91 297.19 264.5 290.08 279.11 280.81 275.1 286.58 259.91"/><polygon class="cls-3" points="307.35 270.01 316.98 276.42 307.37 289.52 298.96 283.93 307.35 270.01"/><polygon class="cls-3" points="325.99 283.68 334.3 291.74 322.48 302.88 315.22 295.85 325.99 283.68"/><polygon class="cls-3" points="341.84 300.51 348.56 309.93 334.91 318.75 329.05 310.53 341.84 300.51"/><polygon class="cls-3" points="343.26 385.51 342.31 394.7 329.48 392.77 330.32 384.76 343.26 385.51"/><polygon class="cls-3" points="363.25 341.24 366.21 352.42 350.34 355.87 347.75 346.11 363.25 341.24"/><polygon class="cls-3" points="377.42 386.46 397.1 387.6 395.64 401.56 376.15 398.63 377.42 386.46"/><polygon class="cls-3" points="342.66 367.07 343.38 376.28 330.42 376.71 329.79 368.67 342.66 367.07"/><polygon class="cls-3" points="338.74 349.05 341.11 357.97 328.43 360.72 326.37 352.93 338.74 349.05"/><polygon class="cls-3" points="354.39 319.92 359.3 330.38 344.3 336.62 340.01 327.47 354.39 319.92"/><polygon class="cls-3" points="331.67 332.02 335.59 340.38 323.61 345.35 320.19 338.05 331.67 332.02"/><polygon class="cls-3" points="321.65 316.53 327.01 324.05 316.12 331.09 311.44 324.53 321.65 316.53"/><polygon class="cls-3" points="308.99 303.09 315.63 309.53 306.19 318.42 300.4 312.81 308.99 303.09"/><polygon class="cls-3" points="294.11 292.18 301.8 297.3 294.13 307.76 287.42 303.29 294.11 292.18"/><polygon class="cls-3" points="277.53 284.12 286 287.77 280.33 299.44 272.92 296.24 277.53 284.12"/><polygon class="cls-3" points="268.76 281.23 265.26 293.72 257.42 291.9 259.77 279.14 268.76 281.23"/><polygon class="cls-3" points="270.22 225.97 283.89 229.14 278.57 248.11 266.65 245.35 270.22 225.97"/><polygon class="cls-3" points="297.21 233.53 310.08 239.09 301.46 256.81 290.21 251.95 297.21 233.53"/><polygon class="cls-3" points="322.4 245.78 334.09 253.56 322.43 269.45 312.23 262.66 322.4 245.78"/><polygon class="cls-3" points="345.02 262.37 355.1 272.14 340.76 285.66 331.96 277.13 345.02 262.37"/></g><g><polygon class="cls-2" points="204.21 398.47 190.22 399.6 189.52 379.91 201.73 378.92 204.21 398.47"/><polygon class="cls-2" points="176.19 399.47 162.24 398.07 165.08 378.56 177.27 379.79 176.19 399.47"/><polygon class="cls-2" points="148.47 395.42 134.98 391.55 141.27 372.87 153.05 376.25 148.47 395.42"/><polygon class="cls-2" points="121.9 386.48 109.33 380.24 118.88 363 129.85 368.44 121.9 386.48"/><polygon class="cls-2" points="112.43 349.06 103.16 342.13 113.48 329.58 121.56 335.62 112.43 349.06"/><polygon class="cls-2" points="132.64 360.25 122.28 355.11 130.15 340.9 139.19 345.38 132.64 360.25"/><polygon class="cls-2" points="280.44 327.63 272.42 335.96 261.24 324.17 268.24 316.9 280.44 327.63"/><polygon class="cls-2" points="263.68 343.53 254.31 350.28 245.41 336.69 253.61 330.78 263.68 343.53"/><polygon class="cls-2" points="244.36 356.18 233.92 361.15 227.6 346.18 236.72 341.84 244.36 356.18"/><polygon class="cls-2" points="223.06 365.16 211.88 368.17 208.38 352.3 218.14 349.68 223.06 365.16"/><polygon class="cls-2" points="200.48 370.14 188.95 371.07 188.38 354.84 198.44 354.02 200.48 370.14"/><polygon class="cls-2" points="126.79 327.76 119.4 322.23 127.63 312.2 134.08 317.03 126.79 327.76"/><polygon class="cls-2" points="154.53 367.63 143.42 364.43 148.61 349.04 158.31 351.82 154.53 367.63"/><polygon class="cls-2" points="108.46 356.59 97.38 372.89 86.15 364.49 98.66 349.26 108.46 356.59"/><polygon class="cls-2" points="142.93 336.7 134.66 332.59 140.94 321.25 148.16 324.83 142.93 336.7"/><polygon class="cls-2" points="160.41 342.58 151.54 340.03 155.68 327.74 163.43 329.97 160.41 342.58"/><polygon class="cls-2" points="177.39 370.96 165.89 369.81 168.23 353.73 178.28 354.74 177.39 370.96"/><polygon class="cls-2" points="178.66 345.24 169.47 344.32 171.34 331.49 179.37 332.29 178.66 345.24"/><polygon class="cls-2" points="197.09 344.59 187.89 345.33 187.43 332.37 195.46 331.72 197.09 344.59"/><polygon class="cls-2" points="215.12 340.62 206.19 343.01 203.4 330.35 211.19 328.26 215.12 340.62"/><polygon class="cls-2" points="232.12 333.44 223.79 337.42 218.74 325.46 226.02 322 232.12 333.44"/><polygon class="cls-2" points="247.55 323.35 240.06 328.74 232.96 317.88 239.51 313.17 247.55 323.35"/><polygon class="cls-2" points="254.53 317.3 245.6 307.89 251.19 302.09 260.93 310.65 254.53 317.3"/><polygon class="cls-2" points="301.21 346.9 291.48 357.01 277.92 342.71 286.41 333.89 301.21 346.9"/><polygon class="cls-2" points="280.88 366.19 269.51 374.38 258.71 357.89 268.66 350.73 280.88 366.19"/><polygon class="cls-2" points="257.44 381.53 244.77 387.57 237.11 369.41 248.16 364.14 257.44 381.53"/><polygon class="cls-2" points="231.6 392.43 218.03 396.08 213.79 376.83 225.62 373.65 231.6 392.43"/></g></g></svg>
