<?xml version="1.0" encoding="UTF-8" standalone="no"?>
<!-- Generator: Adobe Illustrator 19.2.1, SVG Export Plug-In . SVG Version: 6.00 Build 0)  -->

<svg
   width="300"
   height="90"
   version="1.1"
   viewBox="0 0 300 90"
   xml:space="preserve"
   id="svg3547"
   sodipodi:docname="quantstack-color.svg"
   inkscape:version="1.1.1 (3bf5ae0d25, 2021-09-20)"
   xmlns:inkscape="http://www.inkscape.org/namespaces/inkscape"
   xmlns:sodipodi="http://sodipodi.sourceforge.net/DTD/sodipodi-0.dtd"
   xmlns="http://www.w3.org/2000/svg"
   xmlns:svg="http://www.w3.org/2000/svg"
   xmlns:rdf="http://www.w3.org/1999/02/22-rdf-syntax-ns#"
   xmlns:cc="http://creativecommons.org/ns#"
   xmlns:dc="http://purl.org/dc/elements/1.1/"><defs
     id="defs3551" /><sodipodi:namedview
     id="namedview3549"
     pagecolor="#ffffff"
     bordercolor="#666666"
     borderopacity="1.0"
     inkscape:pageshadow="2"
     inkscape:pageopacity="0.0"
     inkscape:pagecheckerboard="0"
     showgrid="false"
     inkscape:zoom="1.8319093"
     inkscape:cx="240.73244"
     inkscape:cy="73.420665"
     inkscape:window-width="1866"
     inkscape:window-height="1016"
     inkscape:window-x="54"
     inkscape:window-y="27"
     inkscape:window-maximized="1"
     inkscape:current-layer="svg3547" /><metadata
     id="metadata3543"><rdf:RDF><cc:Work
         rdf:about=""><dc:format>image/svg+xml</dc:format><dc:type
           rdf:resource="http://purl.org/dc/dcmitype/StillImage" /></cc:Work></rdf:RDF></metadata><path
     d="m 148.8048,42.35609 c -1.52115,-1.086538 -2.68013,-2.028205 -3.18718,-2.680128 -1.15897,-1.376282 -1.8109,-2.897436 -1.88333,-2.969872 -0.72436,-1.666026 -1.0141,-3.404487 -0.86923,-5.28782 v -9.778846 h -7.53334 l -1.15897,-2.245513 h 8.69231 v -7.895513 h 2.39038 v 7.823076 h 8.76474 l -1.15897,2.245514 h -7.53333 v 10.503205 c 0,1.303846 0.2173,2.535256 0.72436,3.621795 0,0 0.57948,1.231409 1.44871,2.317949 0.43462,0.434615 1.30385,1.231409 2.46282,2.100639 z M 74.413141,41.776603 c 0,-7.388461 7.026281,-9.126923 21.368589,-9.70641 -0.434616,-6.736538 -2.680128,-11.010256 -10.575641,-11.010256 -2.173077,0 -4.201282,0.362179 -6.229487,1.303846 l -1.086538,-2.100641 c 2.390384,-1.23141 4.853205,-1.521154 7.316025,-1.521154 9.416666,0 13.110897,5.070513 13.110897,16.008333 0,10.865385 -3.694231,16.008333 -13.110897,16.008333 H 84.699038 C 76.731089,50.686218 74.413141,47.064422 74.413141,41.776603 Z m 2.535256,0.07244 c 0,2.028205 0.362179,3.549359 1.376282,4.635897 0.289743,0.36218 0.724359,0.651922 1.23141,0.869231 1.883333,0.796795 3.766667,1.086537 5.722436,1.086537 8.837179,0 10.648077,-5.360256 10.648077,-13.690384 v -0.507051 c -12.096795,0.579487 -18.978205,1.59359 -18.978205,7.60577 z M 119.75801,18.669552 h -1.37629 c -9.05448,0 -10.28589,7.605769 -10.28589,14.269872 v 16.080768 c 0.72436,0.651923 1.5936,1.158974 2.46282,1.59359 V 33.736219 c 0,-7.533333 1.08654,-12.821154 8.25769,-12.821154 h 0.65192 c 7.09872,0 8.25769,5.287821 8.25769,12.821154 v 16.949999 c 0.86924,-0.434615 1.73847,-0.941666 2.46283,-1.593589 V 33.011859 C 130.0439,26.275321 128.74007,18.669552 119.75801,18.669552 Z m 66.27884,14.342307 c -1.8109,-2.100641 -5.36026,-3.18718 -11.58974,-5.432692 -1.37628,-0.507052 -2.60769,-0.941666 -3.83911,-1.521153 -3.69423,-1.521154 -6.30192,-3.476923 -6.30192,-7.823077 0,-6.664103 4.6359,-8.7647438 10.50321,-8.7647438 2.75256,0 5.43269,0.2897435 8.11282,1.2314098 l 1.08654,-2.1006406 c -2.89744,-1.0865384 -6.01218,-1.4487179 -9.2718,-1.4487179 -6.80897,0 -12.82115,2.9698715 -12.82115,11.1551275 0,4.853206 2.46282,7.533334 6.22948,9.344231 0.57949,0.217308 1.01411,0.434615 1.52116,0.651923 1.37629,0.579488 2.39038,1.014103 3.69423,1.448718 6.08461,2.173077 8.90962,2.535257 10.93782,4.78077 0.14487,0.144871 2.96987,3.476923 2.24551,7.533333 -0.36218,2.100641 -1.59359,3.983974 -3.54936,5.649999 -4.49102,3.69423 -11.5173,2.897436 -18.25384,0.651924 l -1.15898,2.245512 c 3.69423,1.303846 7.53334,2.173076 11.15513,2.173076 3.69423,0 7.02628,-0.86923 9.77885,-3.114742 3.0423,-2.535257 4.12884,-5.215385 4.41859,-7.098718 0.79679,-5.070513 -2.53526,-9.126923 -2.89744,-9.561539 z M 43.410577,66.694551 c -0.651923,0.651923 -1.303846,1.23141 -2.100641,1.666026 -6.736538,-3.476923 -11.589743,-9.489104 -14.052563,-17.31218 -2.317949,1.158974 -5.142949,1.738461 -8.547436,1.738461 -12.0243588,0 -16.732692,-7.026282 -16.732692,-22.237819 0,-15.139102 4.7083332,-22.2378202 16.732692,-22.2378202 12.024359,0 16.732692,7.0262822 16.732692,22.2378202 0,9.416667 -1.810898,15.646153 -6.084615,19.123076 2.317948,7.895512 7.243589,13.76282 14.052563,17.022436 z M 32.907372,30.549039 c 0,-11.879487 -2.390384,-19.919871 -14.269871,-19.919871 -11.8794869,0 -14.2698714,7.967947 -14.2698714,19.919871 0,11.879486 2.3903845,19.919871 14.2698714,19.919871 11.879487,0 14.269871,-7.967948 14.269871,-19.919871 z M 263.18108,48.440705 c -8.83718,0 -10.64808,-5.360256 -10.64808,-13.690385 0,-8.330128 1.8109,-13.690384 10.64808,-13.690384 2.24552,0 4.34616,0.362179 6.37437,1.376282 l 1.08654,-2.100641 c -2.46283,-1.23141 -4.99808,-1.521154 -7.38846,-1.521154 -9.41667,0 -13.11091,5.070514 -13.11091,16.008333 0,10.865385 3.69424,16.008333 13.11091,16.008333 2.46282,0 4.99806,-0.289744 7.46089,-1.521154 l -1.08654,-2.100641 c -2.17307,0.869231 -4.27371,1.23141 -6.4468,1.231411 z m -57.44167,-2.824999 c -0.94166,-1.086539 -1.44871,-2.317949 -1.44871,-2.317949 -0.50706,-1.158974 -0.72436,-2.390385 -0.72436,-3.621795 V 21.784296 h 8.6923 l -1.15897,-2.245513 h -7.53333 V 11.64327 h -2.39039 v 7.823076 h -7.60577 l -1.15897,2.245514 h 8.76474 v 17.167307 c -0.0724,1.883334 0.21731,3.694231 0.86923,5.287821 0,0.07244 0.72436,1.593589 1.88334,2.969871 0.57948,0.651923 1.73846,1.666026 3.33205,2.752564 l 1.08654,-2.245512 c -1.30385,-0.796796 -2.17308,-1.521154 -2.6077,-2.028205 z m 92.28335,-22.6 c -0.50707,-0.651923 -1.08655,-1.23141 -1.73848,-1.738461 L 283.02851,34.460577 V 18.524681 h -0.28974 c -0.79679,0.144871 -1.44872,0.362178 -2.17308,0.579487 v 30.85769 c 0.7968,0.289744 1.59359,0.434616 2.46282,0.651923 V 35.184937 l 12.89359,12.893589 c 0.65193,-0.507051 1.23141,-1.014103 1.8109,-1.666026 L 286.14326,34.822756 Z M 66.227884,20.335578 c -0.724359,-0.651923 -1.593589,-1.158974 -2.46282,-1.593591 v 16.950001 c 0,7.533333 -1.086539,12.821153 -8.257692,12.821153 h -0.651923 c -7.098718,0 -8.257692,-5.28782 -8.257692,-12.821153 V 18.669552 c -0.869231,0.434616 -1.738462,0.941667 -2.462821,1.59359 V 36.34391 c 0,6.664102 1.303846,14.269872 10.285897,14.269872 h 1.521154 c 9.054487,0 10.285897,-7.60577 10.285897,-14.269872 z M 218.05352,41.776603 c 0,-7.388461 7.02628,-9.126923 21.36859,-9.70641 -0.43462,-6.736538 -2.68013,-11.010256 -10.57565,-11.010256 -2.17307,0 -4.20128,0.362179 -6.22948,1.303846 l -1.08654,-2.100641 c 2.39038,-1.23141 4.8532,-1.521154 7.31602,-1.521154 9.41667,0 13.1109,5.070513 13.1109,16.008333 0,10.865385 -3.69423,16.008333 -13.1109,16.008333 h -0.50705 c -7.96794,-0.07244 -10.28589,-3.694231 -10.28589,-8.982051 z m 2.53525,0.07244 c 0,2.028205 0.36218,3.549359 1.37628,4.635897 0.28975,0.36218 0.72436,0.651922 1.23141,0.869231 1.88334,0.796795 3.76667,1.086537 5.72244,1.086537 8.83718,0 10.64808,-5.360256 10.64808,-13.690384 v -0.507051 c -12.0968,0.579487 -18.97821,1.59359 -18.97821,7.60577 z M 56.883654,72.706729 c -1.59359,-0.50705 -2.897436,-0.869229 -2.897436,-2.390383 0,-1.666027 1.158974,-2.173077 2.752564,-2.173077 1.086538,0 2.173077,0.217308 3.114744,0.724358 l 0.507051,-1.231409 c -1.086539,-0.579487 -2.390385,-0.724359 -3.694231,-0.724359 -2.245513,0 -4.05641,1.014102 -4.05641,3.549359 0,2.390384 1.955769,3.114743 3.766667,3.621793 1.666025,0.507053 3.259615,0.796795 3.259615,2.390386 0,1.883332 -1.23141,2.462819 -2.825,2.462819 -1.448718,0 -2.897436,-0.434615 -4.05641,-1.086538 l -0.507051,1.23141 c 1.158974,0.724359 2.824999,1.158975 4.563461,1.158975 2.535256,0 4.273718,-1.158975 4.273718,-3.694231 0,-2.680128 -2.317949,-3.332051 -4.201282,-3.839103 z m 11.734615,-1.303845 c 0.651923,0 1.376282,0.144872 2.028205,0.434616 l 0.507051,-1.086539 c -0.724359,-0.434615 -1.593589,-0.579487 -2.535256,-0.579487 -2.752564,0 -3.983974,1.521154 -3.983974,4.925641 0,3.404487 1.23141,4.925641 3.983974,4.925641 0.941667,0 1.810897,-0.144873 2.535256,-0.579487 l -0.507051,-1.08654 c -0.651923,0.36218 -1.303846,0.434617 -2.028205,0.434617 -1.883333,0 -2.607692,-0.869231 -2.607692,-3.766667 0,-2.897436 0.651923,-3.621795 2.607692,-3.621795 z m 7.026282,-2.680128 c 0.579487,0 0.869231,-0.217308 0.869231,-0.796795 0,-0.579487 -0.36218,-0.796794 -0.869231,-0.796794 -0.579487,0 -0.869231,0.217307 -0.869231,0.796794 0,0.579487 0.289744,0.796795 0.869231,0.796795 z m 0.651923,1.666026 -1.376282,0.217307 v 6.01218 c 0,1.23141 0.07244,2.317948 0.362179,3.259615 h 1.303846 c -0.289743,-1.014102 -0.289743,-2.100642 -0.289743,-3.187179 z m 11.807051,4.998077 v 0.144871 l -6.301923,0.507051 c 0.07244,2.245513 1.014102,2.897435 2.752564,2.897435 0.941667,0 1.810897,-0.217307 2.680128,-0.724357 l 0.507051,1.014102 c -0.941666,0.651922 -2.028205,0.86923 -3.187179,0.86923 -2.462821,0 -4.128846,-1.014103 -4.128846,-4.92564 0,-4.128846 1.883333,-4.925642 3.911538,-4.925642 2.390385,-0.07244 3.766667,1.086539 3.766667,5.14295 z m -1.303846,-0.869231 c -0.07244,-2.390385 -0.941667,-3.18718 -2.390385,-3.18718 -1.59359,0 -2.607692,0.869231 -2.607692,3.404488 v 0.217307 z m 9.561538,-4.346154 c -1.59359,0 -2.535256,0.507051 -3.114744,1.521154 -0.07244,-0.507052 -0.217307,-0.941667 -0.362179,-1.376282 l -1.158974,0.289742 c 0.289743,1.014104 0.362179,2.173078 0.362179,3.259616 v 6.012179 h 1.376282 v -6.664101 c 0.579487,-1.231411 1.303846,-1.883335 2.680128,-1.883335 1.955769,0 2.100641,1.303848 2.100641,3.404489 v 5.142947 h 1.376282 v -5.432692 c -0.07244,-2.173077 -0.507051,-4.273718 -3.259615,-4.273717 z m 9.489093,-2.825 -1.37628,0.217308 v 2.897436 h -1.59359 v 1.158974 h 1.59359 v 3.766667 c 0,2.100641 0.14487,3.621794 1.66603,4.780769 l 0.94166,-0.796795 c -1.15897,-1.086539 -1.15897,-2.028205 -1.15897,-3.621795 v -4.128846 h 1.95577 l 0.14487,-1.158974 h -2.10064 v -3.114744 z m 6.22949,1.376282 c 0.57949,0 0.86923,-0.217308 0.86923,-0.796795 0,-0.579487 -0.36218,-0.796794 -0.86923,-0.796794 -0.57949,0 -0.86923,0.217307 -0.86923,0.796794 0,0.579487 0.36218,0.796795 0.86923,0.796795 z m 0.72436,1.666026 -1.37628,0.217307 v 6.01218 c 0,1.23141 0.0724,2.317948 0.36218,3.259615 h 1.30384 c -0.28974,-1.014102 -0.28974,-2.100641 -0.28974,-3.187179 z m 7.82308,-2.680128 c 0.2173,0 0.50705,0.07244 0.79679,0.144871 l 0.21731,-1.158974 c -0.36218,-0.07244 -0.72436,-0.144872 -1.08654,-0.144872 -2.0282,0 -2.68013,1.158975 -2.68013,2.752564 0,0.434616 0.0724,0.869231 0.14487,1.303845 h -1.59359 v 1.158975 h 1.59359 v 8.11282 h 1.37629 v -8.11282 h 2.0282 l 0.14487,-1.158975 h -2.17307 c -0.14488,-0.362179 -0.14488,-0.869229 -0.14488,-1.231409 -0.14487,-1.158974 0.14488,-1.666026 1.37629,-1.666025 z m 5.21538,1.014102 c 0.57949,0 0.86923,-0.217308 0.86923,-0.796795 0,-0.579487 -0.36218,-0.796794 -0.86923,-0.796794 -0.57949,0 -0.86923,0.217307 -0.86923,0.796794 0,0.579487 0.28974,0.796795 0.86923,0.796795 z m 0.65192,1.666026 -1.37628,0.217307 v 6.01218 c 0,1.23141 0.0724,2.317948 0.36218,3.259615 h 1.30385 c -0.28975,-1.014102 -0.28975,-2.100641 -0.28975,-3.187179 z m 8.18526,1.014102 c 0.65192,0 1.37628,0.144872 2.02821,0.434616 l 0.50705,-1.086539 c -0.72436,-0.434615 -1.59359,-0.579487 -2.53526,-0.579487 -2.75256,0 -3.98397,1.521154 -3.98397,4.925641 0,3.404487 1.23141,4.925641 3.98397,4.925641 0.94167,0 1.8109,-0.144873 2.53526,-0.579487 l -0.50705,-1.08654 c -0.65193,0.36218 -1.30385,0.434617 -2.02821,0.434617 -1.88333,0 -2.60769,-0.869231 -2.60769,-3.766667 0,-2.897436 0.65192,-3.621795 2.60769,-3.621795 z m 16.58782,-3.259615 c 1.0141,0 2.02821,0.217308 2.96987,0.724359 l 0.57949,-1.158974 c -1.0141,-0.651923 -2.31795,-0.796795 -3.6218,-0.796795 -2.96987,0 -4.99807,1.521154 -4.99807,6.664102 0,5.142949 2.10064,6.664103 4.99807,6.664103 1.30385,0 2.6077,-0.144873 3.6218,-0.796795 l -0.57949,-1.158975 c -0.94166,0.579488 -1.95577,0.724359 -2.96987,0.724359 -2.24551,0 -3.69423,-0.86923 -3.69423,-5.360256 0,-4.491025 1.52115,-5.505128 3.69423,-5.505128 z m 14.84936,7.026282 c 0,3.404487 -1.15898,4.92564 -4.12885,4.92564 -2.96987,0 -4.12884,-1.59359 -4.12884,-4.92564 0,-3.404488 1.15897,-4.925642 4.12884,-4.925642 2.96987,-0.07244 4.12885,1.521154 4.12885,4.925642 z m -1.37628,0 c 0,-2.390385 -0.43462,-3.766667 -2.75257,-3.766667 -2.31795,0 -2.75256,1.448718 -2.75256,3.766667 0,2.317949 0.43461,3.766665 2.75256,3.766665 2.31795,0 2.75257,-1.448716 2.75257,-3.766665 z m 15.50128,-4.998077 c -1.59359,0 -2.53526,0.507051 -3.25962,1.666026 -0.43461,-1.014104 -1.23141,-1.666026 -2.68012,-1.666026 -1.52116,0 -2.46282,0.507051 -3.04231,1.521154 -0.0724,-0.507052 -0.21731,-0.941667 -0.36218,-1.376282 l -1.15898,0.289742 c 0.28975,1.014104 0.36218,2.173078 0.36218,3.259616 v 6.012179 h 1.37629 v -6.664101 c 0.57948,-1.231411 1.23141,-1.883335 2.53525,-1.883335 1.66603,0 2.02821,1.014103 2.02821,2.390385 v 6.157051 h 1.37628 v -6.664102 c 0.57949,-1.23141 1.23141,-1.883334 2.53526,-1.883334 1.88333,0 2.0282,1.303847 2.0282,3.404488 v 5.142948 h 1.37628 v -5.432692 c 0,-2.173077 -0.43461,-4.273718 -3.11474,-4.273717 z m 14.99423,4.998077 c 0,4.128845 -1.95577,4.92564 -3.8391,4.92564 -0.94167,0 -1.73846,-0.144871 -2.46282,-0.579487 0.0724,0.651924 0.0724,1.231411 0.0724,1.810898 v 1.376282 h -1.37625 v -8.83718 c 0,-1.158975 -0.0724,-2.245512 -0.36218,-3.259616 l 1.15898,-0.289742 c 0.14487,0.434614 0.28974,0.941667 0.36217,1.376282 0.57949,-1.014103 1.52116,-1.521154 3.04231,-1.521154 2.39039,0 3.40449,1.666026 3.40449,4.998077 z m -1.37628,0 c 0,-2.317949 -0.43462,-3.839103 -2.24552,-3.839103 -1.37628,0 -2.0282,0.724359 -2.68012,1.883334 v 5.142948 c 0.72436,0.434616 1.52115,0.579487 2.31795,0.579487 1.66602,0 2.60769,-0.651923 2.60769,-3.766666 z m 12.74871,-4.78077 -1.37628,0.217307 v 6.446796 c -0.57948,1.231409 -1.30384,1.883332 -2.68013,1.883332 -1.95576,0 -2.10064,-1.303846 -2.10064,-3.404487 v -5.142948 l -1.37628,0.217307 v 5.215385 c 0,2.245513 0.43462,4.273718 3.18718,4.273718 1.59359,0 2.53526,-0.507051 3.11474,-1.521153 0.0724,0.50705 0.21731,0.941666 0.36218,1.376282 l 1.15898,-0.289745 c -0.28975,-1.014101 -0.36218,-2.173075 -0.36218,-3.259615 v -6.012179 z m 6.4468,-3.042307 -1.37628,0.217308 v 2.897436 h -1.59359 v 1.158974 h 1.59359 v 3.766667 c 0,2.100641 0.14487,3.621794 1.66602,4.780769 l 0.94167,-0.796795 c -1.15897,-1.086539 -1.15897,-2.028205 -1.15897,-3.621795 v -4.128846 h 1.95576 l 0.14488,-1.158974 h -2.10064 v -3.114744 z m 6.22949,1.376282 c 0.57948,0 0.86923,-0.217308 0.86923,-0.796795 0,-0.579487 -0.36218,-0.796795 -0.86923,-0.796795 -0.57949,0 -0.86923,0.217308 -0.86923,0.796795 0,0.579487 0.28974,0.796795 0.86923,0.796795 z m 0.65192,1.666025 -1.37628,0.217307 v 6.01218 c 0,1.231411 0.0724,2.317948 0.36218,3.259615 h 1.30384 c -0.28974,-1.014101 -0.28974,-2.100641 -0.28974,-3.187178 z m 8.76474,-0.217308 c -1.59359,0 -2.53525,0.507052 -3.11474,1.521154 -0.0724,-0.507051 -0.21731,-0.941667 -0.36218,-1.376282 l -1.15897,0.289743 c 0.28974,1.014104 0.36218,2.173078 0.36218,3.259616 v 6.012179 h 1.37628 v -6.664102 c 0.57948,-1.23141 1.30384,-1.883334 2.68013,-1.883334 1.95576,0 2.10064,1.303847 2.10064,3.404488 v 5.142948 h 1.37628 v -5.432692 c -0.0724,-2.173077 -0.50705,-4.273718 -3.25962,-4.273718 z m 11.01026,0 c 1.30385,0 2.53526,0.144873 3.69423,0.579487 v 8.402565 c 0,2.607691 -1.37628,3.694231 -3.62179,3.694231 -0.86924,0 -1.8109,-0.144873 -2.6077,-0.507052 l 0.36218,-1.086539 c 0.65193,0.36218 1.44872,0.507051 2.31795,0.507051 1.37628,0 2.24551,-0.651922 2.24551,-2.607691 v -0.651924 c -0.50705,0.941667 -1.44871,1.303846 -2.89743,1.303846 -2.39039,0 -3.40449,-1.593588 -3.40449,-4.853205 0,-3.839102 1.73846,-4.780769 3.91154,-4.780769 z m 2.39038,1.521154 c -0.72436,-0.289743 -1.59359,-0.36218 -2.39038,-0.36218 -1.59359,0 -2.53526,0.72436 -2.53526,3.694231 0,2.245514 0.43462,3.694231 2.24552,3.694231 1.37628,0 2.0282,-0.651922 2.68012,-1.810897 z"
     id="path3545"
     style="stroke-width:0.724359" /></svg>
