<svg xmlns="http://www.w3.org/2000/svg" width="300" height="90" xmlns:v="https://vecta.io/nano"><path d="M148.804 42.354c-1.522-1.087-2.682-2.03-3.19-2.682-1.16-1.377-1.812-2.9-1.885-2.972-.725-1.667-1.015-3.407-.87-5.292v-9.786h-7.539l-1.16-2.247h8.699v-7.902h2.392v7.829h8.772l-1.16 2.247h-7.539V32.06c0 1.305.217 2.537.725 3.625 0 0 .58 1.232 1.45 2.32.435.435 1.305 1.232 2.465 2.102zm-74.449-.58c0-7.394 7.032-9.134 21.385-9.714-.435-6.742-2.682-11.019-10.584-11.019-2.175 0-4.205.362-6.234 1.305l-1.087-2.102c2.392-1.232 4.857-1.522 7.322-1.522 9.424 0 13.121 5.074 13.121 16.021 0 10.874-3.697 16.021-13.121 16.021h-.507c-7.974-.072-10.294-3.697-10.294-8.989zm2.537.072c0 2.03.362 3.552 1.377 4.639.29.362.725.652 1.232.87 1.885.797 3.77 1.087 5.727 1.087 8.844 0 10.656-5.364 10.656-13.701v-.507c-12.106.58-18.993 1.595-18.993 7.612zm42.843-23.197h-1.377c-9.061 0-10.294 7.612-10.294 14.281v16.093c.725.652 1.595 1.16 2.465 1.595V33.728c0-7.539 1.087-12.831 8.264-12.831h.652c7.104 0 8.264 5.292 8.264 12.831v16.963c.87-.435 1.74-.942 2.465-1.595V33.003c-.145-6.742-1.45-14.353-10.439-14.353zm66.33 14.353c-1.812-2.102-5.364-3.19-11.599-5.437-1.377-.507-2.61-.942-3.842-1.522-3.697-1.522-6.307-3.48-6.307-7.829 0-6.669 4.639-8.772 10.511-8.772 2.755 0 5.437.29 8.119 1.232l1.087-2.102c-2.9-1.087-6.017-1.45-9.279-1.45-6.814 0-12.831 2.972-12.831 11.164 0 4.857 2.465 7.539 6.234 9.351.58.217 1.015.435 1.522.652 1.377.58 2.392 1.015 3.697 1.45 6.089 2.175 8.917 2.537 10.946 4.784.145.145 2.972 3.48 2.247 7.539-.362 2.102-1.595 3.987-3.552 5.654-4.494 3.697-11.526 2.9-18.268.652l-1.16 2.247c3.697 1.305 7.539 2.175 11.164 2.175 3.697 0 7.032-.87 9.786-3.117 3.045-2.537 4.132-5.219 4.422-7.104.797-5.074-2.537-9.134-2.9-9.569zM43.328 66.711c-.652.652-1.305 1.232-2.102 1.667-6.742-3.48-11.599-9.496-14.063-17.326-2.32 1.16-5.147 1.74-8.554 1.74-12.034 0-16.746-7.032-16.746-22.255 0-15.151 4.712-22.255 16.746-22.255s16.746 7.032 16.746 22.255c0 9.424-1.812 15.658-6.089 19.138 2.32 7.902 7.249 13.773 14.063 17.036zM32.817 30.538c0-11.889-2.392-19.935-14.281-19.935S4.255 18.577 4.255 30.538c0 11.889 2.392 19.935 14.281 19.935s14.281-7.974 14.281-19.935zm230.452 17.905c-8.844 0-10.656-5.364-10.656-13.701s1.812-13.701 10.656-13.701c2.247 0 4.35.362 6.379 1.377l1.087-2.102c-2.465-1.232-5.002-1.522-7.394-1.522-9.424 0-13.121 5.074-13.121 16.021 0 10.874 3.697 16.021 13.121 16.021 2.465 0 5.002-.29 7.467-1.522l-1.087-2.102c-2.175.87-4.277 1.232-6.452 1.232zm-57.486-2.827c-.942-1.087-1.45-2.32-1.45-2.32-.507-1.16-.725-2.392-.725-3.625V21.766h8.699l-1.16-2.247h-7.539v-7.902h-2.392v7.829h-7.612l-1.16 2.247h8.772v17.181c-.072 1.885.217 3.697.87 5.292 0 .072.725 1.595 1.885 2.972.58.652 1.74 1.667 3.335 2.755l1.087-2.247c-1.305-.797-2.175-1.522-2.61-2.03zm92.355-22.617a9.88 9.88 0 0 0-1.74-1.74l-13.266 13.194V18.504h-.29c-.797.145-1.45.362-2.175.58v30.882c.797.29 1.595.435 2.465.652V35.177l12.904 12.904c.652-.507 1.232-1.015 1.812-1.667l-11.599-11.599zM66.163 20.317c-.725-.652-1.595-1.16-2.465-1.595v16.963c0 7.539-1.087 12.831-8.264 12.831h-.652c-7.104 0-8.264-5.292-8.264-12.831V18.649c-.87.435-1.74.942-2.465 1.595v16.093c0 6.669 1.305 14.281 10.294 14.281h1.522c9.061 0 10.294-7.612 10.294-14.281zm151.943 21.458c0-7.394 7.032-9.134 21.385-9.714-.435-6.742-2.682-11.019-10.584-11.019-2.175 0-4.205.362-6.234 1.305l-1.087-2.102c2.392-1.232 4.857-1.522 7.322-1.522 9.424 0 13.121 5.074 13.121 16.021 0 10.874-3.697 16.021-13.121 16.021h-.507c-7.974-.072-10.294-3.697-10.294-8.989zm2.537.072c0 2.03.362 3.552 1.377 4.639.29.362.725.652 1.232.87 1.885.797 3.77 1.087 5.727 1.087 8.844 0 10.656-5.364 10.656-13.701v-.507c-12.106.58-18.993 1.595-18.993 7.612zM56.812 72.728c-1.595-.507-2.9-.87-2.9-2.392 0-1.667 1.16-2.175 2.755-2.175 1.087 0 2.175.217 3.117.725l.507-1.232c-1.087-.58-2.392-.725-3.697-.725-2.247 0-4.06 1.015-4.06 3.552 0 2.392 1.957 3.117 3.77 3.625 1.667.507 3.262.797 3.262 2.392 0 1.885-1.232 2.465-2.827 2.465-1.45 0-2.9-.435-4.06-1.087l-.507 1.232c1.16.725 2.827 1.16 4.567 1.16 2.537 0 4.277-1.16 4.277-3.697 0-2.682-2.32-3.335-4.205-3.842zm11.744-1.305c.652 0 1.377.145 2.03.435l.507-1.087c-.725-.435-1.595-.58-2.537-.58-2.755 0-3.987 1.522-3.987 4.929s1.232 4.929 3.987 4.929c.942 0 1.812-.145 2.537-.58l-.507-1.087c-.652.362-1.305.435-2.03.435-1.885 0-2.61-.87-2.61-3.77s.652-3.625 2.61-3.625zm7.032-2.682c.58 0 .87-.217.87-.797s-.362-.797-.87-.797c-.58 0-.87.217-.87.797s.29.797.87.797zm.652 1.667l-1.377.217v6.017c0 1.232.072 2.32.362 3.262h1.305c-.29-1.015-.29-2.102-.29-3.19zm11.816 5.002v.145l-6.307.507c.072 2.247 1.015 2.9 2.755 2.9a5.15 5.15 0 0 0 2.682-.725l.507 1.015c-.942.652-2.03.87-3.19.87-2.465 0-4.132-1.015-4.132-4.929 0-4.132 1.885-4.929 3.915-4.929 2.392-.072 3.77 1.087 3.77 5.147zm-1.305-.87c-.072-2.392-.942-3.19-2.392-3.19-1.595 0-2.61.87-2.61 3.407v.217zm9.569-4.35c-1.595 0-2.537.507-3.117 1.522-.072-.507-.217-.942-.362-1.377l-1.16.29c.29 1.015.362 2.175.362 3.262v6.017h1.377v-6.669c.58-1.232 1.305-1.885 2.682-1.885 1.957 0 2.102 1.305 2.102 3.407v5.147h1.377v-5.437c-.072-2.175-.507-4.277-3.262-4.277zm9.496-2.827l-1.377.217v2.9h-1.595v1.16h1.595v3.77c0 2.102.145 3.625 1.667 4.784l.942-.797c-1.16-1.087-1.16-2.03-1.16-3.625v-4.132h1.957l.145-1.16h-2.102v-3.117zm6.234 1.377c.58 0 .87-.217.87-.797s-.362-.797-.87-.797c-.58 0-.87.217-.87.797s.362.797.87.797zm.725 1.667l-1.377.217v6.017c0 1.232.073 2.32.362 3.262h1.305c-.29-1.015-.29-2.102-.29-3.19zm7.829-2.682c.217 0 .507.072.797.145l.217-1.16c-.362-.072-.725-.145-1.087-.145-2.03 0-2.682 1.16-2.682 2.755 0 .435.073.87.145 1.305H116.4v1.16h1.595v8.119h1.377v-8.119h2.03l.145-1.16h-2.175c-.145-.362-.145-.87-.145-1.232-.145-1.16.145-1.667 1.377-1.667zm5.219 1.015c.58 0 .87-.217.87-.797s-.362-.797-.87-.797c-.58 0-.87.217-.87.797s.29.797.87.797zm.652 1.667l-1.377.217v6.017c0 1.232.073 2.32.362 3.262h1.305c-.29-1.015-.29-2.102-.29-3.19zm8.192 1.015c.652 0 1.377.145 2.03.435l.507-1.087c-.725-.435-1.595-.58-2.537-.58-2.755 0-3.987 1.522-3.987 4.929s1.232 4.929 3.987 4.929c.942 0 1.812-.145 2.537-.58l-.507-1.087c-.652.362-1.305.435-2.03.435-1.885 0-2.61-.87-2.61-3.77s.652-3.625 2.61-3.625zm16.601-3.262c1.015 0 2.03.217 2.972.725l.58-1.16c-1.015-.652-2.32-.797-3.625-.797-2.972 0-5.002 1.522-5.002 6.669s2.102 6.669 5.002 6.669c1.305 0 2.61-.145 3.625-.797l-.58-1.16c-.942.58-1.957.725-2.972.725-2.247 0-3.697-.87-3.697-5.364s1.522-5.509 3.697-5.509zm14.861 7.032c0 3.407-1.16 4.929-4.132 4.929s-4.132-1.595-4.132-4.929c0-3.407 1.16-4.929 4.132-4.929 2.972-.072 4.132 1.522 4.132 4.929zm-1.377 0c0-2.392-.435-3.77-2.755-3.77s-2.755 1.45-2.755 3.77.435 3.77 2.755 3.77 2.755-1.45 2.755-3.77zm15.513-5.002c-1.595 0-2.537.507-3.262 1.667-.435-1.015-1.232-1.667-2.682-1.667-1.522 0-2.465.507-3.045 1.522-.072-.507-.217-.942-.362-1.377l-1.16.29c.29 1.015.362 2.175.362 3.262v6.017h1.377v-6.669c.58-1.232 1.232-1.885 2.537-1.885 1.667 0 2.03 1.015 2.03 2.392v6.162h1.377v-6.669c.58-1.232 1.232-1.885 2.537-1.885 1.885 0 2.03 1.305 2.03 3.407v5.147h1.377v-5.437c0-2.175-.435-4.277-3.117-4.277zm15.006 5.002c0 4.132-1.957 4.929-3.842 4.929-.942 0-1.74-.145-2.465-.58.072.652.072 1.232.072 1.812v1.377h-1.377v-8.844c0-1.16-.072-2.247-.362-3.262l1.16-.29c.145.435.29.942.362 1.377.58-1.015 1.522-1.522 3.045-1.522 2.392 0 3.407 1.667 3.407 5.002zm-1.377 0c0-2.32-.435-3.842-2.247-3.842-1.377 0-2.03.725-2.682 1.885v5.147c.725.435 1.522.58 2.32.58 1.667 0 2.61-.652 2.61-3.77zm12.759-4.784l-1.377.217v6.452c-.58 1.232-1.305 1.885-2.682 1.885-1.957 0-2.102-1.305-2.102-3.407v-5.147l-1.377.217v5.219c0 2.247.435 4.277 3.19 4.277 1.595 0 2.537-.507 3.117-1.522.072.507.217.942.362 1.377l1.16-.29c-.29-1.015-.362-2.175-.362-3.262v-6.017zm6.452-3.045l-1.377.217v2.9h-1.595v1.16h1.595v3.77c0 2.102.145 3.625 1.667 4.784l.942-.797c-1.16-1.087-1.16-2.03-1.16-3.625v-4.132h1.957l.145-1.16h-2.102v-3.117zm6.234 1.377c.58 0 .87-.217.87-.797s-.362-.797-.87-.797c-.58 0-.87.217-.87.797s.29.797.87.797zm.652 1.667l-1.377.217v6.017c0 1.232.072 2.32.362 3.262h1.305c-.29-1.015-.29-2.102-.29-3.19zm8.772-.217c-1.595 0-2.537.507-3.117 1.522-.072-.507-.217-.942-.362-1.377l-1.16.29c.29 1.015.362 2.175.362 3.262v6.017h1.377v-6.669c.58-1.232 1.305-1.885 2.682-1.885 1.957 0 2.102 1.305 2.102 3.407v5.147h1.377v-5.437c-.072-2.175-.507-4.277-3.262-4.277zm11.019 0c1.305 0 2.537.145 3.697.58v8.409c0 2.61-1.377 3.697-3.625 3.697-.87 0-1.812-.145-2.61-.507l.362-1.087c.652.362 1.45.507 2.32.507 1.377 0 2.247-.652 2.247-2.61v-.652c-.507.942-1.45 1.305-2.9 1.305-2.392 0-3.407-1.595-3.407-4.857 0-3.842 1.74-4.784 3.915-4.784zm2.392 1.522c-.725-.29-1.595-.362-2.392-.362-1.595 0-2.537.725-2.537 3.697 0 2.247.435 3.697 2.247 3.697 1.377 0 2.03-.652 2.682-1.812z" fill="#b1b1b1"/></svg>