<?xml version="1.0" encoding="UTF-8" standalone="no"?>
<!-- Generator: Adobe Illustrator 19.2.1, SVG Export Plug-In . SVG Version: 6.00 Build 0)  -->

<svg
   width="300"
   height="90"
   version="1.1"
   viewBox="0 0 300 90"
   xml:space="preserve"
   id="svg7982"
   sodipodi:docname="quantstack.svg"
   inkscape:version="1.1.1 (3bf5ae0d25, 2021-09-20)"
   xmlns:inkscape="http://www.inkscape.org/namespaces/inkscape"
   xmlns:sodipodi="http://sodipodi.sourceforge.net/DTD/sodipodi-0.dtd"
   xmlns="http://www.w3.org/2000/svg"
   xmlns:svg="http://www.w3.org/2000/svg"
   xmlns:rdf="http://www.w3.org/1999/02/22-rdf-syntax-ns#"
   xmlns:cc="http://creativecommons.org/ns#"
   xmlns:dc="http://purl.org/dc/elements/1.1/"><defs
     id="defs7986" /><sodipodi:namedview
     id="namedview7984"
     pagecolor="#ffffff"
     bordercolor="#666666"
     borderopacity="1.0"
     inkscape:pageshadow="2"
     inkscape:pageopacity="0.0"
     inkscape:pagecheckerboard="0"
     showgrid="false"
     inkscape:zoom="2.4694377"
     inkscape:cx="204.5"
     inkscape:cy="54.870792"
     inkscape:window-width="1866"
     inkscape:window-height="1016"
     inkscape:window-x="54"
     inkscape:window-y="27"
     inkscape:window-maximized="1"
     inkscape:current-layer="svg7982" /><metadata
     id="metadata7978"><rdf:RDF><cc:Work
         rdf:about=""><dc:format>image/svg+xml</dc:format><dc:type
           rdf:resource="http://purl.org/dc/dcmitype/StillImage" /></cc:Work></rdf:RDF></metadata><path
     d="m 148.80388,42.354047 c -1.52232,-1.087377 -2.68219,-2.029771 -3.18964,-2.682198 -1.15987,-1.377345 -1.81229,-2.899673 -1.88478,-2.972165 -0.72492,-1.667313 -1.01489,-3.407117 -0.86991,-5.291905 v -9.786398 h -7.53915 l -1.15987,-2.247248 h 8.69902 v -7.90161 h 2.39223 v 7.829119 h 8.77152 l -1.15987,2.247247 h -7.53915 v 10.511317 c 0,1.304853 0.21747,2.537214 0.72491,3.624592 0,0 0.57994,1.232361 1.44984,2.319739 0.43495,0.434951 1.30485,1.232361 2.46472,2.102263 z M 74.354763,41.774113 c 0,-7.394168 7.031708,-9.133972 21.385093,-9.713907 -0.434951,-6.741742 -2.682198,-11.01876 -10.583809,-11.01876 -2.174755,0 -4.204527,0.362459 -6.234298,1.304853 l -1.087378,-2.102263 c 2.392231,-1.232362 4.856953,-1.522329 7.321676,-1.522329 9.42394,0 13.121024,5.074429 13.121024,16.020697 0,10.873776 -3.697084,16.020697 -13.121024,16.020697 H 84.648604 C 76.674502,50.690609 74.354763,47.066017 74.354763,41.774113 Z m 2.537214,0.07249 c 0,2.029771 0.362459,3.5521 1.377345,4.639478 0.289967,0.362459 0.724918,0.652426 1.232361,0.869902 1.884788,0.79741 3.769576,1.087377 5.726856,1.087377 8.844005,0 10.656301,-5.364396 10.656301,-13.700958 v -0.507441 c -12.106138,0.579935 -18.992863,1.594821 -18.992863,7.611644 z m 42.842683,-23.19739 h -1.37735 c -9.06148,0 -10.29384,7.611643 -10.29384,14.280893 v 16.093189 c 0.72492,0.652427 1.59482,1.159869 2.46472,1.594821 v -16.8906 c 0,-7.539151 1.08738,-12.831056 8.26407,-12.831056 h 0.65243 c 7.1042,0 8.26407,5.291905 8.26407,12.831056 v 16.963091 c 0.8699,-0.434951 1.7398,-0.942394 2.46472,-1.59482 V 33.0026 C 130.0285,26.260858 128.72364,18.649215 119.73466,18.649215 Z m 66.33003,14.353385 C 184.2524,30.900334 180.7003,29.812957 174.466,27.56571 c -1.37735,-0.507443 -2.60971,-0.942394 -3.84207,-1.522329 -3.69708,-1.522329 -6.30679,-3.479609 -6.30679,-7.829119 0,-6.669249 4.63948,-8.7715125 10.51132,-8.7715125 2.75469,0 5.43688,0.2899673 8.11908,1.2323615 l 1.08738,-2.1022616 c -2.89967,-1.0873777 -6.01682,-1.4498369 -9.27896,-1.4498369 -6.81423,0 -12.83105,2.9721655 -12.83105,11.1637435 0,4.856953 2.46472,7.539151 6.2343,9.351447 0.57993,0.217476 1.01488,0.434952 1.52233,0.652427 1.37734,0.579935 2.39223,1.014886 3.69708,1.449837 6.08931,2.174755 8.9165,2.537214 10.94627,4.784461 0.14498,0.144984 2.97216,3.479609 2.24724,7.539152 -0.36245,2.102264 -1.59482,3.987051 -3.5521,5.654364 -4.49449,3.697084 -11.5262,2.899674 -18.26794,0.652426 l -1.15987,2.247248 c 3.69708,1.304853 7.53915,2.174755 11.16374,2.174755 3.69709,0 7.03171,-0.869902 9.7864,-3.117149 3.04466,-2.537215 4.13204,-5.219413 4.42201,-7.104201 0.79741,-5.074429 -2.53722,-9.133972 -2.89968,-9.568923 z M 43.328254,66.711308 c -0.652427,0.652425 -1.304853,1.23236 -2.102263,1.667311 -6.741742,-3.479608 -11.598695,-9.496431 -14.063418,-17.32555 -2.319739,1.159869 -5.146921,1.739804 -8.554037,1.739804 -12.0336462,0 -16.745616,-7.031709 -16.745616,-22.254996 0,-15.150795 4.7119698,-22.254995 16.745616,-22.254995 12.033645,0 16.745615,7.031708 16.745615,22.254995 0,9.42394 -1.812296,15.658238 -6.089315,19.137847 2.319739,7.90161 7.249185,13.77345 14.063418,17.035584 z M 32.816937,30.537877 c 0,-11.888662 -2.392231,-19.935256 -14.280893,-19.935256 -11.8886624,0 -14.2808932,7.974102 -14.2808932,19.935256 0,11.888662 2.3922308,19.935257 14.2808932,19.935257 11.888662,0 14.280893,-7.974103 14.280893,-19.935257 z M 263.2685,48.443362 c -8.844,0 -10.6563,-5.364396 -10.6563,-13.700958 0,-8.336562 1.8123,-13.700958 10.6563,-13.700958 2.24725,0 4.34951,0.362459 6.37929,1.377345 l 1.08737,-2.102264 c -2.46472,-1.232361 -5.00193,-1.522328 -7.39416,-1.522328 -9.42394,0 -13.12103,5.074429 -13.12103,16.020697 0,10.873776 3.69709,16.020697 13.12103,16.020697 2.46472,0 5.00193,-0.289967 7.46666,-1.522329 l -1.08738,-2.102263 c -2.17476,0.869902 -4.27702,1.232361 -6.45178,1.232361 z M 205.78247,45.61618 c -0.94239,-1.087377 -1.44983,-2.319739 -1.44983,-2.319739 -0.50745,-1.159869 -0.72492,-2.39223 -0.72492,-3.624592 V 21.766364 h 8.69902 l -1.15987,-2.247247 h -7.53915 v -7.90161 h -2.39223 v 7.829118 h -7.61165 l -1.15987,2.247247 h 8.77152 v 17.180567 c -0.0725,1.884788 0.21747,3.697084 0.8699,5.291905 0,0.07249 0.72492,1.59482 1.88479,2.972165 0.57993,0.652427 1.7398,1.667312 3.33462,2.75469 l 1.08738,-2.247247 c -1.30485,-0.79741 -2.17476,-1.522329 -2.60971,-2.029772 z m 92.35461,-22.617454 c -0.50744,-0.652427 -1.08738,-1.232362 -1.7398,-1.739805 L 283.13127,34.452437 V 18.504231 h -0.28997 c -0.79741,0.144984 -1.44984,0.362459 -2.17475,0.579935 v 30.881525 c 0.79741,0.289967 1.59482,0.434951 2.46472,0.652428 V 35.177355 l 12.90355,12.903548 c 0.65242,-0.507443 1.23236,-1.014886 1.81229,-1.667312 L 286.24842,34.814896 Z M 66.163184,20.316527 c -0.724918,-0.652426 -1.59482,-1.159869 -2.464722,-1.59482 v 16.963091 c 0,7.539152 -1.087378,12.831056 -8.26407,12.831056 h -0.652427 c -7.104201,0 -8.26407,-5.291904 -8.26407,-12.831056 V 18.649215 c -0.869902,0.434951 -1.739804,0.942394 -2.464723,1.594821 v 16.093189 c 0,6.669249 1.304854,14.280893 10.293842,14.280893 h 1.522329 c 9.06148,0 10.293841,-7.611644 10.293841,-14.280893 z M 218.10609,41.774113 c 0,-7.394168 7.03171,-9.133972 21.38509,-9.713907 -0.43495,-6.741742 -2.6822,-11.01876 -10.58381,-11.01876 -2.17475,0 -4.20453,0.362459 -6.2343,1.304853 l -1.08738,-2.102263 c 2.39224,-1.232362 4.85696,-1.522329 7.32168,-1.522329 9.42394,0 13.12102,5.074429 13.12102,16.020697 0,10.873776 -3.69708,16.020697 -13.12102,16.020697 h -0.50744 c -7.9741,-0.07249 -10.29384,-3.697084 -10.29384,-8.988988 z m 2.53721,0.07249 c 0,2.029771 0.36246,3.5521 1.37735,4.639478 0.28996,0.362459 0.72491,0.652426 1.23236,0.869902 1.88479,0.79741 3.76957,1.087377 5.72685,1.087377 8.84401,0 10.6563,-5.364396 10.6563,-13.700958 V 34.234959 C 227.53003,34.814894 220.6433,35.82978 220.6433,41.846603 Z M 56.811737,72.72813 c -1.594821,-0.507443 -2.899674,-0.869903 -2.899674,-2.39223 0,-1.667313 1.159869,-2.174756 2.75469,-2.174756 1.087378,0 2.174755,0.217476 3.117149,0.724919 l 0.507443,-1.232361 c -1.087378,-0.579935 -2.392231,-0.724919 -3.697084,-0.724919 -2.247247,0 -4.059543,1.014885 -4.059543,3.5521 0,2.39223 1.95728,3.117149 3.769576,3.624593 1.667312,0.507442 3.262133,0.797409 3.262133,2.392229 0,1.884789 -1.232362,2.464724 -2.827182,2.464724 -1.449837,0 -2.899674,-0.434951 -4.059543,-1.087378 l -0.507443,1.232361 c 1.159869,0.724918 2.827182,1.159869 4.566986,1.159869 2.537214,0 4.277019,-1.159869 4.277019,-3.697084 0,-2.682198 -2.319739,-3.334625 -4.204527,-3.842067 z m 11.743678,-1.304854 c 0.652427,0 1.377345,0.144984 2.029772,0.434951 L 71.09263,70.77085 c -0.724919,-0.434951 -1.594821,-0.579935 -2.537215,-0.579935 -2.75469,0 -3.987051,1.522329 -3.987051,4.929445 0,3.407117 1.232361,4.929446 3.987051,4.929446 0.942394,0 1.812296,-0.144984 2.537215,-0.579935 l -0.507443,-1.087378 c -0.652427,0.362459 -1.304853,0.434951 -2.029772,0.434951 -1.884788,0 -2.609706,-0.869902 -2.609706,-3.769576 0,-2.899673 0.652426,-3.624592 2.609706,-3.624592 z m 7.031709,-2.682198 c 0.579935,0 0.869902,-0.217474 0.869902,-0.79741 0,-0.579935 -0.362459,-0.79741 -0.869902,-0.79741 -0.579935,0 -0.869902,0.217475 -0.869902,0.79741 0,0.579936 0.289967,0.79741 0.869902,0.79741 z m 0.652426,1.667313 -1.377345,0.217475 v 6.016823 c 0,1.232361 0.07249,2.319739 0.36246,3.262133 h 1.304853 C 76.23955,78.889937 76.23955,77.802559 76.23955,76.715181 Z m 11.816171,5.001937 v 0.144983 l -6.30679,0.507443 c 0.07249,2.247247 1.014885,2.899674 2.75469,2.899674 0.942393,0 1.812296,-0.217476 2.682198,-0.724918 l 0.507443,1.014886 c -0.942394,0.652426 -2.029772,0.869902 -3.189641,0.869902 -2.464723,0 -4.132036,-1.014886 -4.132036,-4.929446 0,-4.132035 1.884788,-4.929445 3.91456,-4.929445 2.392231,-0.07249 3.769576,1.087378 3.769576,5.146921 z m -1.304853,-0.869902 c -0.07249,-2.39223 -0.942394,-3.189641 -2.392231,-3.189641 -1.594821,0 -2.609706,0.869902 -2.609706,3.407117 v 0.217476 z m 9.568923,-4.349511 c -1.594821,0 -2.537215,0.507443 -3.117149,1.52233 -0.07249,-0.507443 -0.217476,-0.942395 -0.36246,-1.377346 l -1.159869,0.289967 c 0.289967,1.014886 0.362459,2.174756 0.362459,3.262134 v 6.016822 h 1.377345 v -6.66925 c 0.579935,-1.232361 1.304853,-1.884787 2.682198,-1.884787 1.95728,0 2.102264,1.304853 2.102264,3.407117 v 5.14692 h 1.377345 v -5.436887 c -0.07249,-2.174756 -0.507443,-4.277019 -3.262133,-4.27702 z m 9.496429,-2.827182 -1.37734,0.217476 v 2.899673 h -1.59482 v 1.15987 h 1.59482 v 3.769576 c 0,2.102263 0.14498,3.624592 1.66731,4.784461 l 0.94239,-0.79741 c -1.15987,-1.087378 -1.15987,-2.029772 -1.15987,-3.624592 v -4.132035 h 1.95728 l 0.14499,-1.159869 h -2.10227 v -3.11715 z m 6.2343,1.377345 c 0.57994,0 0.8699,-0.217474 0.8699,-0.79741 0,-0.579935 -0.36246,-0.79741 -0.8699,-0.79741 -0.57993,0 -0.8699,0.217475 -0.8699,0.79741 0,0.579936 0.36246,0.79741 0.8699,0.79741 z m 0.72492,1.667313 -1.37735,0.217475 v 6.016823 c 0,1.232361 0.0725,2.319739 0.36246,3.262133 h 1.30486 c -0.28997,-1.014885 -0.28997,-2.102263 -0.28997,-3.189641 z m 7.82912,-2.682199 c 0.21747,0 0.50744,0.07249 0.79741,0.144984 l 0.21747,-1.159868 c -0.36246,-0.07249 -0.72491,-0.144985 -1.08737,-0.144985 -2.02978,0 -2.6822,1.159869 -2.6822,2.75469 0,0.434952 0.0725,0.869902 0.14498,1.304853 h -1.59482 v 1.15987 h 1.59482 v 8.119086 h 1.37735 v -8.119086 h 2.02977 l 0.14498,-1.15987 h -2.17475 c -0.14499,-0.362459 -0.14499,-0.869901 -0.14499,-1.23236 -0.14498,-1.159871 0.14499,-1.667314 1.37735,-1.667314 z m 5.21941,1.014887 c 0.57994,0 0.8699,-0.217475 0.8699,-0.797411 0,-0.579934 -0.36246,-0.797409 -0.8699,-0.797409 -0.57993,0 -0.8699,0.217475 -0.8699,0.797409 0,0.579936 0.28997,0.797411 0.8699,0.797411 z m 0.65243,1.667312 -1.37735,0.217475 v 6.016823 c 0,1.232361 0.0725,2.319739 0.36246,3.262133 h 1.30485 c -0.28996,-1.014885 -0.28996,-2.102263 -0.28996,-3.189641 z m 8.19158,1.014886 c 0.65242,0 1.37734,0.144984 2.02977,0.43495 l 0.50744,-1.087377 c -0.72492,-0.43495 -1.59482,-0.579935 -2.53721,-0.579935 -2.75469,0 -3.98706,1.52233 -3.98706,4.929446 0,3.407117 1.23237,4.929445 3.98706,4.929445 0.94239,0 1.81229,-0.144984 2.53721,-0.579935 l -0.50744,-1.087378 c -0.65243,0.362459 -1.30486,0.434951 -2.02977,0.434951 -1.88479,0 -2.60971,-0.869902 -2.60971,-3.769576 0,-2.899673 0.65243,-3.624592 2.60971,-3.624591 z m 16.60063,-3.262133 c 1.01488,0 2.02977,0.217476 2.97216,0.724919 l 0.57994,-1.159871 c -1.01489,-0.652425 -2.31974,-0.797409 -3.62459,-0.797409 -2.97217,0 -5.00194,1.522328 -5.00194,6.66925 0,5.14692 2.10226,6.669248 5.00194,6.669248 1.30485,0 2.6097,-0.144983 3.62459,-0.797409 l -0.57994,-1.159871 c -0.94239,0.579936 -1.95728,0.724919 -2.97216,0.724919 -2.24725,0 -3.69709,-0.869901 -3.69709,-5.364396 0,-4.494495 1.52233,-5.50938 3.69709,-5.50938 z m 14.86083,7.031709 c 0,3.407117 -1.15987,4.929445 -4.13204,4.929445 -2.97217,0 -4.13203,-1.59482 -4.13203,-4.929445 0,-3.407116 1.15986,-4.929446 4.13203,-4.929446 2.97217,-0.07249 4.13204,1.52233 4.13204,4.929446 z m -1.37735,0 c 0,-2.392231 -0.43495,-3.769576 -2.75469,-3.769576 -2.31974,0 -2.75469,1.449837 -2.75469,3.769576 0,2.319739 0.43495,3.769576 2.75469,3.769576 2.31974,0 2.75469,-1.449837 2.75469,-3.769576 z m 15.51325,-5.001937 c -1.59482,0 -2.53721,0.507443 -3.26213,1.667311 -0.43495,-1.014884 -1.23236,-1.667311 -2.6822,-1.667311 -1.52233,0 -2.46472,0.507443 -3.04465,1.522329 -0.0725,-0.507443 -0.21748,-0.942394 -0.36246,-1.377345 l -1.15987,0.289966 c 0.28996,1.014887 0.36246,2.174756 0.36246,3.262134 v 6.016823 h 1.37734 v -6.66925 c 0.57994,-1.232361 1.23236,-1.884788 2.53722,-1.884788 1.66731,0 2.02977,1.014886 2.02977,2.392231 v 6.161806 h 1.37734 v -6.66925 c 0.57994,-1.232361 1.23236,-1.884787 2.53722,-1.884787 1.88479,0 2.02977,1.304853 2.02977,3.407117 v 5.14692 h 1.37734 v -5.436887 c 0,-2.174756 -0.43495,-4.277019 -3.11715,-4.277019 z m 15.00582,5.001937 c 0,4.132035 -1.95728,4.929445 -3.84207,4.929445 -0.9424,0 -1.73981,-0.144983 -2.46472,-0.579934 0.0725,0.652426 0.0725,1.232361 0.0725,1.812296 v 1.377345 h -1.37735 V 73.888 c 0,-1.159869 -0.0725,-2.247247 -0.36246,-3.262133 l 1.15987,-0.289967 c 0.14499,0.434951 0.28997,0.942394 0.36246,1.377345 0.57994,-1.014886 1.52233,-1.522329 3.04466,-1.522329 2.39223,0 3.40712,1.667312 3.40712,5.001937 z m -1.37735,0 c 0,-2.319739 -0.43495,-3.842068 -2.24725,-3.842068 -1.37734,0 -2.02977,0.724919 -2.68219,1.884788 v 5.146921 c 0.72491,0.434951 1.52232,0.579935 2.31973,0.579935 1.66732,0 2.60971,-0.652427 2.60971,-3.769576 z m 12.75857,-4.784462 -1.37735,0.217475 v 6.451774 c -0.57993,1.232361 -1.30485,1.884788 -2.6822,1.884788 -1.95728,0 -2.10226,-1.304852 -2.10226,-3.407117 v -5.14692 l -1.37735,0.217475 v 5.219414 c 0,2.247246 0.43495,4.277018 3.18964,4.277018 1.59483,0 2.53722,-0.507442 3.11715,-1.522329 0.0725,0.507443 0.21748,0.942394 0.36246,1.377346 l 1.15987,-0.289969 c -0.28996,-1.014885 -0.36246,-2.174755 -0.36246,-3.262133 v -6.016822 z m 6.45177,-3.044658 -1.37735,0.217476 v 2.899674 h -1.59482 v 1.159869 h 1.59482 v 3.769576 c 0,2.102263 0.14499,3.624592 1.66732,4.784461 l 0.94239,-0.79741 c -1.15987,-1.087378 -1.15987,-2.029772 -1.15987,-3.624592 v -4.132035 h 1.95728 l 0.14498,-1.159869 h -2.10226 v -3.11715 z m 6.2343,1.377346 c 0.57993,0 0.8699,-0.217475 0.8699,-0.797411 0,-0.579934 -0.36246,-0.797409 -0.8699,-0.797409 -0.57994,0 -0.8699,0.217475 -0.8699,0.797409 0,0.579936 0.28996,0.797411 0.8699,0.797411 z m 0.65242,1.667312 -1.37734,0.217475 v 6.016823 c 0,1.232361 0.0725,2.319739 0.36246,3.262133 h 1.30485 c -0.28997,-1.014885 -0.28997,-2.102263 -0.28997,-3.189641 z m 8.77152,-0.217476 c -1.59482,0 -2.53722,0.507443 -3.11715,1.52233 -0.0725,-0.507443 -0.21748,-0.942395 -0.36246,-1.377346 l -1.15987,0.289967 c 0.28997,1.014886 0.36246,2.174756 0.36246,3.262134 v 6.016822 h 1.37734 v -6.66925 c 0.57994,-1.232361 1.30486,-1.884787 2.6822,-1.884787 1.95728,0 2.10227,1.304853 2.10227,3.407117 v 5.14692 h 1.37734 v -5.436887 c -0.0725,-2.174756 -0.50744,-4.277019 -3.26213,-4.27702 z m 11.01876,0 c 1.30485,0 2.53721,0.144984 3.69708,0.579935 v 8.409054 c 0,2.609707 -1.37734,3.697084 -3.62459,3.697084 -0.8699,0 -1.8123,-0.144983 -2.60971,-0.507442 l 0.36246,-1.087378 c 0.65243,0.362459 1.44984,0.507443 2.31974,0.507443 1.37735,0 2.24725,-0.652428 2.24725,-2.609707 v -0.652426 c -0.50744,0.942393 -1.44984,1.304852 -2.89968,1.304852 -2.39223,0 -3.40711,-1.59482 -3.40711,-4.856953 0,-3.842068 1.7398,-4.784462 3.91456,-4.784462 z m 2.39223,1.52233 c -0.72492,-0.289969 -1.59482,-0.36246 -2.39223,-0.36246 -1.59482,0 -2.53722,0.724919 -2.53722,3.697083 0,2.247249 0.43495,3.697085 2.24725,3.697085 1.37734,0 2.02977,-0.652427 2.6822,-1.812296 z"
     fill="#b1b1b1"
     id="path7980"
     style="stroke-width:0.724918" /></svg>
