<svg xmlns="http://www.w3.org/2000/svg" width="300" height="90" xmlns:v="https://vecta.io/nano"><g transform="matrix(.389264 0 0 .389264 -18.590052 -21.23451)"><g fill="#652e8e"><path d="M140.5 224.35l-18.52-23.01 12.11-9.94 20.29 17.8zM113 204.27c-19-2.58-27.24-17.34-27.24-39.27 0-28.47 17-33.79 30.13-33.79 18.75 0 31.5 13.9 31.5 39.51a45 45 0 0 1-3 17.51l9.38 8c6.82-8.2 9.59-17.93 9.59-29.79 0-26.19-17.73-42.77-46.2-42.77C82.9 123.67 70 148.94 70 168.5c0 20.24 13.26 44.82 46.08 44.82a17.31 17.31 0 0 0 2.32-.18zm70.81-36.79l-.12-20.36c-.22-3.4-1.13-4.3-4.3-5.21a18.3 18.3 0 0 0-3.84-.34c-1.13 0-1.7-.33-1.7-1s.68-.91 2.15-.91c5.32 0 12 .23 14.93.23 2.49 0 9.17-.23 12.79-.23 1.47 0 2.15.23 2.15.91s-.57 1-1.59 1a14.28 14.28 0 0 0-2.94.34c-2.6.46-3.39 1.81-3.62 5.21-.23 3-.23 5.77-.23 20.36V181c0 14 2.72 19.45 7.59 23.3 4.41 3.51 9.16 3.85 12.55 3.85A19 19 0 0 0 231 203c5.55-5.21 5.77-13.58 5.77-23.42v-12.1l-.22-20.36c-.23-3.28-1-4.3-4.19-5.21a17.54 17.54 0 0 0-3.62-.34c-1.13 0-1.7-.33-1.7-1s.68-.91 2-.91c5.09 0 11.76.23 11.88.23 1.13 0 7.8-.23 11.65-.23 1.36 0 2 .23 2 .91s-.57 1-1.7 1a14.2 14.2 0 0 0-2.94.34c-2.72.46-3.4 1.81-3.62 5.21-.12 3-.23 5.77-.23 20.36v10.3c0 10.74-1.13 22.06-9.5 29-7 5.88-14.6 6.9-21 6.9-5.21 0-15.5-.23-22.74-6.56-5.09-4.41-9.05-11.54-9.05-25.46zm93.1 20.71c-.57 0-.68.11-.91.67l-5.31 12.9a17.47 17.47 0 0 0-1.48 5.88c0 1.7.91 2.72 4 2.72h1.48c1.24 0 1.47.45 1.47 1 0 .79-.57 1-1.59 1-3.28 0-7.92-.34-11.08-.34-1 0-6.34.34-11.54.34-1.25 0-1.81-.23-1.81-1a1 1 0 0 1 1.13-1c.9 0 2-.11 2.94-.11 4.52-.68 6.22-3.62 8.26-8.49l26-60.52c1.13-2.72 1.92-3.85 2.94-3.85 1.47 0 1.92.9 2.94 3.05 2.38 5.32 19 44.69 25.34 59.29 3.85 8.71 6.68 10 8.49 10.29a23.51 23.51 0 0 0 3.73.34c.91 0 1.36.34 1.36 1s-.57 1-4.3 1c-3.51 0-10.75 0-19.12-.23-1.81-.11-2.94-.11-2.94-.79s.22-.91 1.24-1a1.51 1.51 0 0 0 .91-2.15l-7.7-19.35a.93.93 0 0 0-1-.67zm21.27-5.32c.45 0 .56-.23.45-.57l-9.39-24.43c-.11-.34-.23-.91-.45-.91s-.46.57-.57.91l-9.62 24.32c-.22.45 0 .68.34.68z"/><path d="M350.32 199.27c.23 7.47 1.47 9.73 3.4 10.41a16.73 16.73 0 0 0 5.2.68c1.13 0 1.7.45 1.7 1 0 .79-.91 1-2.26 1-6.45 0-11.09-.34-12.9-.34-.91 0-5.66.34-10.75.34-1.36 0-2.26-.12-2.26-1 0-.57.68-1 1.58-1a20.48 20.48 0 0 0 4.53-.45c2.6-.68 2.94-3.28 3.05-11.66l.91-57c0-1.93.68-3.29 1.69-3.29 1.25 0 2.61 1.48 4.3 3.17l30.66 30.66 21.5 21.61h.45l-1-42.76c-.11-5.89-1-7.58-3.39-8.49a16.6 16.6 0 0 0-5.21-.57c-1.24 0-1.58-.45-1.58-1 0-.79 1-.91 2.49-.91 5.2 0 10.52.23 12.67.23 1.13 0 4.86-.23 9.73-.23 1.36 0 2.26.12 2.26.91 0 .56-.56 1-1.7 1a10.06 10.06 0 0 0-3.05.34c-2.72.8-3.51 2.49-3.62 7.92l-1.13 60.64c0 2.15-.79 3.06-1.59 3.06a5.92 5.92 0 0 1-4.07-2l-29.07-27.72C362 173.37 351.45 161.71 349.53 160h-.34zM435.76 211c-1.86-.8-2.26-1.34-2.26-3.88 0-6.14.53-13.22.66-15.09s.54-2.94 1.47-2.94 1.2 1.07 1.2 1.88a21.07 21.07 0 0 0 1.07 5.87c2.54 8.42 11.35 11.22 18.7 11.22 10.15 0 16.3-6.41 16.3-14.42 0-4.95-1.21-9.89-11.63-16l-6.81-4c-13.89-8.19-18.46-15.81-18.46-25.83 0-13.88 13.36-22.83 29.65-22.83a69.76 69.76 0 0 1 16.7 1.87c1.07.26 1.6.66 1.6 1.47 0 1.46-.4 4.67-.4 13.62 0 2.4-.54 3.61-1.47 3.61s-1.2-.67-1.2-2a12.88 12.88 0 0 0-3.07-7.48c-1.74-2.13-5.48-5.34-13.09-5.34-8.42 0-16 4.41-16 12.15 0 5.08 1.87 9.09 12.42 15l4.86 2.62c15.49 8.55 20.3 17.23 20.3 27.52 0 8.41-3.21 15.22-11.75 21.23-5.61 4-13.36 4.68-19.64 4.68-6.86 0-14.07-.67-19.15-2.93zm75.59-43.52l-.11-20.36c-.23-3.28-1.25-4.41-3.4-5.09a12.66 12.66 0 0 0-3.62-.46c-1 0-1.58-.22-1.58-1.13 0-.56.79-.79 2.38-.79 3.73 0 10.52.23 13.34.23 2.49 0 8.94-.23 12.79-.23 1.24 0 2 .23 2 .79 0 .91-.57 1.13-1.59 1.13a14.2 14.2 0 0 0-2.94.34c-2.72.46-3.51 1.81-3.73 5.21-.23 3-.23 5.77-.23 20.36v17c0 9.28 0 17 .45 21 .34 2.61 1 4.08 4 4.53a36.67 36.67 0 0 0 5.09.34c1.13 0 1.59.57 1.59 1 0 .68-.79 1-1.93 1-6.56 0-13.35-.34-16.06-.34-2.26 0-9 .34-13 .34-1.25 0-1.92-.34-1.92-1 0-.45.34-1 1.58-1A14.52 14.52 0 0 0 508 210c2-.45 2.6-1.81 2.94-4.64.45-4 .45-11.65.45-20.93zM617 206c0 2.6 0 2.71-1.24 3.39-6.68 3.28-16.52 4.3-24.33 4.3-24.43 0-46-11.09-46-37.67 0-15.39 8.26-26.14 17.42-31.45 9.51-5.55 18.44-6.23 26.81-6.23a113.41 113.41 0 0 1 17.65 1.59c2 .34 5.55.9 7.92 1 1.13.11 1.36.45 1.36 1.13a130.16 130.16 0 0 0-.68 15.84c0 1.47-.56 2.15-1.36 2.15s-.9-.46-1-1.25a12.85 12.85 0 0 0-3.4-7.92c-2.94-3-10.41-7.35-21.61-7.35-5.43 0-12.33.11-19.23 5.66-5.54 4.52-9.16 11.65-9.16 23.41 0 20.71 13.35 35.75 34.62 35.75 2.6 0 4.64 0 7-1 1.47-.67 1.92-1.69 1.92-3.39v-8.82l-.11-11.32c-.11-3.28-1.13-4.3-4.3-5.2a17.68 17.68 0 0 0-3.85-.34c-.9 0-1.58-.45-1.58-1 0-.79.79-.9 2.15-.9l15.27.22c3.17 0 8.38-.22 11.66-.22 1.35 0 2 .11 2 .9a1.14 1.14 0 0 1-1.24 1 13.36 13.36 0 0 0-2.72.34c-2.71.45-3.73 1.81-3.84 5.2-.12 2.95-.12 6.79-.12 11.54zm79.42-35c.23 0 .57-.11.57-.68v-2l-.23-21.15c-.22-3.28-1.13-4.3-4.3-5.21a18.3 18.3 0 0 0-3.84-.34c-1.13 0-1.7-.33-1.7-1s.68-.91 2.15-.91c5.32 0 12.33.23 14.93.23 2.38 0 8.94-.23 12.79-.23 1.47 0 2.15.23 2.15.91s-.68 1-1.81 1a17.38 17.38 0 0 0-3 .34c-2.6.46-3.39 1.81-3.62 5.21-.22 3-.22 5.77-.22 20.36v17c0 8.83 0 16.41.45 20.59.34 2.72.91 4.53 4 5a35.54 35.54 0 0 0 5.09.34c1 0 1.59.57 1.59 1 0 .68-.8 1-2 1-6.45 0-13-.34-15.73-.34-2.26 0-9.27.34-13.12.34-1.36 0-2.15-.34-2.15-1 0-.45.45-1 1.58-1a14.79 14.79 0 0 0 3.62-.34c2-.45 2.61-2.26 2.95-5.09.45-4.07.45-11.43.45-20.25v-7.35a.6.6 0 0 0-.57-.57h-37.59c-.34 0-.68.11-.68.57v7.35c0 8.82.12 16.18.57 20.36.34 2.72.9 4.53 3.85 5a36.56 36.56 0 0 0 5.09.34c1.13 0 1.58.57 1.58 1 0 .68-.79 1-2 1-6.44 0-13.34-.34-16.17-.34-2.27 0-8.83.34-12.79.34-1.24 0-1.92-.34-1.92-1 0-.45.34-1 1.58-1a14.46 14.46 0 0 0 3.51-.34c2-.45 2.6-2.26 2.94-5.09.45-4.07.45-11.65.45-20.48v-17l-.11-20.36c-.22-3.28-1.13-4.3-4.3-5.21a18.75 18.75 0 0 0-4-.34c-1 0-1.69-.33-1.69-1s.79-.91 2.14-.91c5.32 0 11.88.23 14.6.23 2.38 0 9.28-.23 13.24-.23 1.35 0 2 .23 2 .91s-.56 1-1.81 1a15.12 15.12 0 0 0-2.83.34c-2.71.46-3.5 1.81-3.73 5.21-.23 3-.23 6.56-.23 21.15v2a.6.6 0 0 0 .68.68zm59.73-25.47l-14.82.34c-5.77.12-8.15.8-9.62 2.94a11.36 11.36 0 0 0-1.7 3.29c-.22.79-.45 1.24-1.13 1.24s-.9-.57-.9-1.58c0-1.59 1.92-10.86 2.15-11.66.22-1.24.56-1.81 1.13-1.81.79 0 1.81.8 4.3 1.14a93.16 93.16 0 0 0 10 .45h40.34a45 45 0 0 0 6.79-.45c1.58-.23 2.37-.46 2.71-.46.68 0 .8.57.8 2 0 2-.23 9.16-.23 11.65-.11 1-.34 1.59-.91 1.59-.79 0-1-.46-1.13-1.93l-.11-1c-.23-2.49-2.83-5.43-11.77-5.54l-12.55-.23v38.92c0 8.83.11 16.41.56 20.59.34 2.72.91 4.53 3.85 5a36.67 36.67 0 0 0 5.09.34c1.13 0 1.58.57 1.58 1 0 .68-.79 1-1.92 1-6.56 0-13.24-.34-16.06-.34-2.27 0-9.06.34-13 .34-1.24 0-1.92-.34-1.92-1 0-.45.34-1 1.59-1a13.77 13.77 0 0 0 3.5-.34c2-.45 2.61-2.26 2.94-5.09.46-4.07.46-11.65.46-20.48z"/></g><path d="M166.61 242.91L159 238.5l-7.4-4.75q6.44-7.86 12.7-15.84l5.15 3.27 5.28 3.07-8.12 18.66zM192.38 255l-8-3.34-7.92-3.67q5.25-8.7 10.36-17.46l5.59 2.56 5.69 2.35q-2.96 9.71-5.72 19.56zm26.88 8.78l-8.34-2.37-8.26-2.68q4.16-9.27 8.18-18.59l5.89 1.89 6 1.68q-1.82 10.02-3.47 20.07zm27.55 5.89c-5.69-.88-11.34-2.05-17-3.26q3.13-9.63 6.15-19.34c4.07.79 8.11 1.71 12.21 2.31q-.74 10.14-1.36 20.29zm27.93 3.2l-4.3-.29-4.3-.41-8.58-.95q2.19-9.9 4.23-19.82l6.2.62 6.2.53q.21 10.16.55 20.32zm28.07.62c-5.75.08-11.49.15-17.24-.09q1.26-10.06 2.38-20.15c4.15.18 8.31 0 12.47 0q1.13 10.17 2.39 20.24zm28.01-1.97l-8.57.89-8.6.62q.32-10.15.53-20.3l6.22-.46 6.19-.66q2.06 9.96 4.23 19.91zm27.74-4.52l-8.47 1.68-8.51 1.45-1.34-20.23 6.13-1.1 3.06-.55 3-.65q3.02 9.66 6.13 19.4zm27.23-7.3c-2.73 1-5.52 1.7-8.29 2.52l-4.16 1.2-4.19 1.06q-1.57-10-3.29-20l6-1.67 6-1.77q3.84 9.35 7.93 18.66zm26.41-10.09l-8 3.4-2 .84-2 .77-4.06 1.52q-2.62-9.81-5.37-19.57c3.89-1.39 7.64-3.07 11.44-4.67l9.99 17.71zm25.15-13.21l-7.55 4.41-7.72 4.06q-3.74-9.45-7.61-18.82l5.44-2.88 5.29-3.12q5.99 8.22 12.15 16.35z" fill="#05773d"/><path d="M779.48 96.15l7.63 4.34 7.45 4.68q-6.36 7.92-12.55 16l-5.17-3.22-5.32-3 7.96-18.8zm-25.89-11.8l8.08 3.27 8 3.59q-5.18 8.75-10.19 17.56l-5.62-2.51-5.75-2.26q2.82-9.81 5.48-19.65zm-26.96-8.55l8.37 2.29 8.29 2.6q-4.08 9.3-8 18.66l-5.9-1.83-6-1.62q1.7-10.04 3.24-20.1zM699 70.18c5.7.82 11.36 1.94 17 3.1q-3 9.66-6 19.39c-4.08-.75-8.12-1.62-12.23-2.19q.73-10.14 1.23-20.3zm-27.94-2.92l4.31.24 4.3.38 8.58.85q-2.09 9.93-4 19.87l-6.2-.57-6.22-.46q-.33-10.16-.77-20.31zM643 66.91c5.74-.13 11.49-.26 17.23-.08Q659.08 76.91 658 87c-4.15-.14-8.31 0-12.46.08Q644.35 77 643 66.91zm-28 2.25l8.57-1 8.59-.71q-.23 10.16-.33 20.31l-6.21.52-6.19.72q-2.15-9.92-4.43-19.84zM587.3 74l8.45-1.77 8.5-1.53 1.53 20.22-6.11 1.15-3.06.58-3 .69Q590.5 83.65 587.3 74zm-27.15 7.51l8.26-2.6 4.14-1.24 4.19-1.1q1.66 10 3.48 20l-6 1.73-5.93 1.83q-3.98-9.34-8.14-18.62zm-26.31 10.35l8-3.48 2-.86 2-.79 4-1.56q2.71 9.78 5.56 19.51c-3.87 1.43-7.61 3.15-11.39 4.79l-10.17-17.61zm-25.02 13.45l7.5-4.48 7.68-4.14q3.82 9.42 7.79 18.75l-5.41 2.94-5.26 3.16q-6.06-8.16-12.3-16.23z" fill="#e86825"/></g></svg>