<svg xmlns="http://www.w3.org/2000/svg" width="300" height="90" fill="#b1b1b1" fill-rule="evenodd" xmlns:v="https://vecta.io/nano"><path d="M37.639 6.363l3.27-3.569c.226-.249.478-.323.808-.338 11.57-.526 21.578 6.218 23.822 18.178 1.253 6.681.029 13.066-3.063 19.041-5.133 9.918-12.992 16.566-23.774 19.49-4.525 1.227-9.106 1.317-13.695.209-.973-.235-1.448-.555-1.435-1.717.06-5.461.815-10.743 3.538-15.574.784-1.392 1.761-2.641 3.049-3.609 2.554-1.921 5.393-1.843 7.807.263 2.645 2.309 3.868 5.439 4.778 8.719.559 2.014.835 4.086 1.003 6.342l3.182-1.979c.557-.34.222-.72.077-1.094-1.687-4.343-2.648-8.808-2.403-13.508.284-5.444 1.98-10.47 4.311-15.32 1.797-3.74 3.954-7.266 6.334-10.651.447-.636.345-.906-.245-1.312-3.171-2.182-6.719-3.19-10.494-3.5-2.255-.185-4.511-.11-6.869-.069m125.502 48.994c-.417.491.406.774.088 1.365-2.632 0-5.38.005-8.128-.004-.573-.002-.584-.546-.746-.905l-5.738-12.787-.403-.849-1.922 10.17-.677 3.654c-.08.514-.246.74-.794.733-2.232-.024-4.465-.04-6.697.005-.91.018-.652-.538-.569-.985l2.554-13.591 4.07-21.574c.14-.757.362-1.041 1.154-1.018l6.003-.001c.884-.029 1.134.183.957 1.094l-3.344 17.576-.622 3.343 7.126-8.265c1.16-1.344 2.086-3.201 3.55-3.883s3.469-.194 5.237-.21l3.633-.002-7.852 8.94c-.357.406-.662.882-1.083 1.202-2.089 1.589-2.16 3.281-.89 5.579 1.712 3.099 3.003 6.433 4.502 9.654.134.288.071.804.619.787l-.027-.028"/><path d="M163.17 55.387l1.137-6.414c1.861.947 3.678 1.714 5.633 2.074 1.174.216 2.346.418 3.538.136 1-.237 1.796-.74 2.059-1.8.241-.971-.2-1.731-.884-2.377-.654-.617-1.447-1.015-2.222-1.443l-2.1-1.204c-6.26-3.96-3.889-10.975.056-13.508 2.857-1.835 5.993-2.282 9.274-2.147 1.618.067 3.198.372 4.75.861.849.267 1.136.694.931 1.593-.378 1.658-.665 3.338-1.007 5.104-1.775-.831-3.597-1.385-5.528-1.501-.969-.058-1.933-.018-2.823.402-1.453.685-1.698 2.153-.586 3.315.764.798 1.739 1.265 2.7 1.751 1.484.752 2.908 1.601 4.057 2.829 3.043 3.251 2.363 8.76-1.449 11.663-2.845 2.166-6.159 2.66-9.602 2.602-2.797-.047-5.441-.757-7.96-1.963l.027.028m97.857-6.37l-1.235 6.518c-.07.383-.333.482-.63.585-4.034 1.388-8.121 1.831-12.195.308-4.233-1.582-6.694-5.724-6.509-10.63.32-8.494 5.438-14.771 13.638-16.632 2.852-.647 5.723-.572 8.583.103.913.216 1.256.572 1.01 1.565-.382 1.539-.663 3.106-.909 4.674-.109.691-.255.842-.932.528-1.692-.784-3.502-.933-5.31-.585-5.018.966-8.492 6.384-7.378 11.425.492 2.223 2.281 3.719 4.616 3.856 2.241.131 4.344-.403 6.365-1.336.233-.108.472-.203.886-.379m-124.529-.004l-1.23 6.449c-.066.356-.252.522-.577.633-4.309 1.467-8.657 1.972-12.929.028-3.619-1.647-5.457-4.717-5.727-8.634-.765-11.071 7.416-19.199 18.744-18.721 1.313.055 2.589.303 3.852.666.574.165.694.393.566.987-.375 1.74-.693 3.495-.981 5.252-.107.654-.322.584-.832.386-7.951-3.086-13.653 3.761-12.833 10.271.324 2.572 2.137 4.257 4.715 4.402 1.237.069 2.455-.065 3.659-.365 1.159-.288 2.242-.78 3.572-1.355m-54.284-15.42c.95-.908 1.678-1.945 2.646-2.771 1.774-1.514 3.791-2.313 6.137-2.214.725.03 1.091.155.863 1.089l-1.245 6.268c-.099.559-.22.794-.856.741-3.466-.288-5.748 1.458-7.31 4.414-1.325 2.509-1.726 5.277-2.239 8.014l-1.298 7.083c-.115.725-.407.844-1.041.834-2.078-.034-4.157-.051-6.234.006-.842.023-1.028-.204-.866-1.037l3.488-18.37 1.451-7.648c.093-.508.199-.811.838-.794l5.772.007c.59-.01.724.166.599.737l-.704 3.641M63.558 84.462l1.867-9.825c.241-1.174 1.261-.398 1.905-.572.62-.168.7.252.451.937.887-.575 1.556-1.104 2.417-1.156 1.051-.063 2.081.16 2.66 1.068.56.878.859.604 1.389.035.781-.839 1.835-1.136 2.938-1.119 1.977.03 3.439 1.589 3.204 3.609-.254 2.19-.636 4.378-1.171 6.514-.268 1.067-1.391.438-2.095.46-.722.022-.28-.618-.222-.955l.868-4.684c.264-1.43-.105-2.303-1.086-2.598-1.012-.305-2.2.308-2.673 1.502-.559 1.412-.624 2.949-.962 4.42l-.285 1.601c-.081.514-.266.778-.884.783-1.749.015-1.743.056-1.416-1.712l.791-4.465c.134-.859-.024-1.661-.929-2.039-.934-.39-1.733-.077-2.391.636-.545.591-.741 1.345-.883 2.114l-.778 4.346c-.118.824-.399 1.261-1.302 1.11-.409-.069-.838-.012-1.415-.012m170.57-9.136c2.613-1.92 4.352-1.706 5.898.794.795-1.138 1.834-1.86 3.205-2.046 2.302-.313 4.142 1.384 3.856 3.711l-1.021 6.069c-.154.934-.866.619-1.355.579-.71-.059-.247-.61-.202-.895l.928-5.374c.147-1.02-.141-1.975-1.174-2.424-1.016-.442-1.955-.159-2.763.573s-1.197 1.683-1.386 2.74l-.796 4.456c-.11.912-.564 1.084-1.293.945-.861-.164-.346-.748-.279-1.149l.861-4.8c.201-1.121-.012-2.104-1.06-2.71-.897-.518-2.043-.244-2.947.596s-1.191 1.955-1.399 3.11l-.728 4.115c-.109.767-.509.898-1.173.86-.526-.03-.621-.16-.513-.7l1.591-8.56c.133-.808.451-.968 1.189-.955.958.016.312.75.56 1.063m-137.942-.131c1.152-.97 2.048-1.402 3.087-1.361 2.096.083 3.469 1.665 3.198 3.836l-1.074 6.171c-.283 1.243-1.414.536-2.131.571-.658.032-.306-.637-.249-.982l.888-4.909c.158-.926.107-1.799-.925-2.244-.912-.393-1.999-.071-2.67.788-.545.698-.679 1.544-.833 2.379l-.763 4.227c-.265 1.451-1.402.716-2.12.749-.918.041-.362-.783-.306-1.114l1.541-8.447c.219-1.31 1.148-.666 1.788-.792.584-.114 1.037.024.569 1.129m91.825 8.269c-.794.514-1.3.917-1.956 1.072-2.402.57-4.379-1.01-4.23-3.486.13-2.167.665-4.28 1.115-6.395.271-1.271 1.418-.496 2.13-.547.656-.047.28.662.227.987l-.896 4.906c-.158.965-.068 1.879 1.065 2.267.947.324 1.977-.043 2.616-.955.673-.96.685-2.119.926-3.206l.632-3.306c.285-1.45 1.412-.643 2.122-.698.882-.069.308.709.257 1.008l-1.595 8.675c-.241 1.29-1.234.487-1.866.663-.681.189-.772-.262-.546-.985m-33.591-3.456c.01-2.866 1.427-4.947 3.609-5.778 2.15-.819 4.372-.346 5.805 1.269.253.285.931.696.156 1.039-.554.245-.846 1.558-1.814.521-1.285-1.375-3.005-1.374-4.237-.065-1.303 1.385-1.397 3.71-.196 4.843.946.892 2.363.964 3.585 0 1.137-.896 1.226.376 1.681.753.698.579-.096.838-.414 1.069-1.75 1.277-3.634 1.36-5.541.418-1.852-.914-2.573-2.549-2.635-4.07M15.792 75.307c.856-.381 1.421-.978 2.234-1.159 2.569-.572 4.702 1.279 4.328 3.897l-1.038 5.827c-.144.927-.784.549-1.233.571-.695.034-.409-.506-.352-.829l.931-5.02c.212-1.113.053-2.098-.979-2.741-.925-.576-2.273-.355-3.201.468-.817.725-1.233 1.657-1.428 2.714l-.852 4.679c-.13 1.027-.811.793-1.344.719-.695-.097-.292-.652-.229-.994l2.318-12.428c.162-.957.659-.913 1.26-.83.889.123.359.753.299 1.145l-.716 3.98m269.734 7.188l2.095-3.709 1.786-3.241c.488-1.103 1.187-1.531 2.373-1.191.192.212-.06.389-.157.559l-5.798 10.015c-.969 1.65-2.223 2.898-4.352 2.596-.374-.053-.756-.145-1.1-.297-.271-.12-.794-.229-.455-.706.236-.331.267-1.067 1.049-.661 1.006.523 1.918.317 2.718-.509.547-.565.775-1.125.544-1.955l-2.095-8.079c-.083-.333-.549-.864.139-1 .575-.114 1.261-.282 1.475.722l1.778 7.455m-11.485-7.15c.666-.451 1.181-.911 1.856-1.117 2.615-.8 4.954 1.078 4.588 3.792l-1.04 5.83c-.156 1.002-.864.606-1.324.579-.644-.038-.291-.583-.237-.897l.91-4.912c.216-1.116.057-2.103-.963-2.753-.888-.566-2.216-.388-3.121.363-.874.725-1.319 1.688-1.522 2.789l-.882 4.797c-.141.986-.821.634-1.303.624-.692-.015-.332-.55-.276-.86l1.547-8.457c.131-.77.525-.835 1.171-.86.856-.034.459.575.594 1.083"/><path d="M165.492 84.524c-.787.213-.839-.353-.664-1.254l2.323-12.193c.063-.324-.054-.875.509-.895.646-.022 1.304-.009 1.94.095.223.037.079.418.04.631l-2.391 12.885c-.177.976-.885.584-1.757.73m45.852-4.747c-.025 1.355.488 2.435 1.7 3.063 1.248.647 2.512.499 3.551-.409.66-.576 1.021-.419 1.436.168.514.728-.268.864-.575 1.096-2.081 1.575-5.157 1.196-6.75-.782-1.648-2.046-1.299-5.488.748-7.394 2.239-2.084 5.763-1.924 7.482.348.211.279.638.599.032.899-.378.187-.685.816-1.221.111-1.008-1.325-2.346-1.689-3.894-1.073-1.507.6-2.502 2.211-2.51 3.972M10.42 82.908c-.127 1.544-.304 1.704-1.779 1.709-1.558.005-2.55-.728-2.641-2.002-.101-1.414.395-2.751.589-4.128.081-.574.231-1.138.341-1.707.119-.617.305-1.282-.748-1.104-.198.033-.398-.039-.365-.303.047-.374.09-1.031.36-1.008 1.864.16 1.418-1.369 1.602-2.277.166-.817.55-.852 1.178-.847.488.004.591.191.523.631-.12.781-.722 1.763-.247 2.274.368.396 1.451.118 2.216.138.307.008.675-.047.589.452-.067.385.067.929-.585.943-.615.013-1.235.051-1.845-.007-.683-.066-.946.202-1.044.873l-.735 3.994c-.548 2.083-.129 3.005 2.592 2.369m44.684 1.529c-.93.165-.787-.334-.683-.883l2.004-10.594c.16-.81.006-.992-.746-.661a3.5 3.5 0 0 1-.99.287c-.25.029-.66.404-.751-.103-.072-.4-.378-1.045.169-1.229 1.228-.413 2.413-1.001 3.739-1.092.564-.039.753.143.641.729l-2.42 12.878c-.124.68-.465.807-.962.668m239.081-30.903c0 2.138-1.656 3.861-3.741 3.893-1.866.028-3.305-1.399-3.307-3.282-.001-2.048 1.778-3.865 3.818-3.9 1.879-.031 3.229 1.343 3.229 3.289zm-.463.022c.012-1.529-1.162-2.722-2.685-2.731-1.764-.01-3.334 1.542-3.345 3.306-.009 1.529 1.163 2.729 2.683 2.747 1.727.02 3.334-1.575 3.347-3.322zM50.958 9.687c-4.773-1.697-9.635-1.82-14.555-.806C21.758 11.898 9.668 25.148 7.99 39.403c-.715 6.069.296 11.745 3.944 16.771 2.203 3.034 5.035 5.261 8.651 6.741l-.001-1.263c-.141-4.706.181-9.38.914-14.028 1.942-12.305 6.419-23.536 13.752-33.616 1.267-1.741 2.714-2.566 4.827-2.57l-.757.911c-2.414 2.986-4.351 6.202-4.794 10.136-.345 3.064 1.563 4.674 4.468 3.776 1.651-.51 3.042-1.472 4.33-2.592 4.017-3.493 6.395-8.071 8.379-12.912.345-.842-.26-.896-.745-1.068zM39.861 23.091c-1.505.456-2.47-.314-2.442-1.947.041-2.409 2.531-5.753 4.819-6.475 1.505-.475 2.516.286 2.504 1.883-.02 2.469-2.525 5.825-4.881 6.539zm172.723 11.947c-.953-3.252-2.998-5.507-6.383-6.183-2.989-.596-5.721.153-8.104 2.093-.388.315-.749.667-1.096 1.029-.199.208-.416.436-.678.276-.256-.155-.006-.405.037-.619l.477-2.601c-2.26 0-4.413.022-6.564-.014-.61-.01-.671.342-.754.781l-6.586 34.942c-.167.871.14.86.774.852l6.121.012c.861.028 1.179-.227 1.325-1.099l1.704-9.194c1.158 1.134 2.402 1.744 3.851 1.953 3.442.497 6.46-.586 9.194-2.573 5.618-4.08 8.642-12.969 6.683-19.656h0zm-8.039 6.638c-.392 2.736-1.289 5.255-3.11 7.371-.766.89-1.681 1.584-2.828 1.914-2.149.619-3.444-.161-3.873-2.359-.103-.529-.13-1.072-.176-1.474.266-3.102.819-5.98 2.36-8.563.868-1.455 1.965-2.687 3.712-3.099 1.699-.4 3.064.319 3.67 1.966.509 1.385.451 2.809.246 4.244zm-96.298-12.822c-2.105-.353-4.222-.234-6.298.288-10.653 2.68-14.524 15.523-12.233 22.717 1.045 3.28 3.249 5.365 6.788 5.529 2.811.131 5.285-.813 7.229-2.964.202-.224.305-.609.807-.607l-.531 2.949 7.218.01c.537.005.591-.273.669-.701l2.046-10.847c.484-2.587 1.155-5.151 1.114-7.81-.076-4.831-2.441-7.831-6.809-8.564h0zm-3.984 19.476c-.664.936-1.524 1.651-2.577 2.079-1.955.796-3.523.012-4.108-2.034-.214-.746-.34-1.513-.292-2.309.215-3.619 1.342-6.872 3.847-9.562.587-.63 1.284-1.109 2.096-1.393 2.047-.717 3.989.372 3.914 2.519-.132 3.754-.606 7.496-2.879 10.7z"/><path d="M239.443 35.735c-.484-3.546-2.593-5.96-6.052-6.743-1.944-.44-3.899-.419-5.84-.065-5.027.916-8.707 3.797-11.143 8.224-2.497 4.539-3.649 9.385-2.189 14.539 1.177 4.156 4.377 6.16 8.598 5.595 2.484-.333 4.465-1.539 6.176-3.743.057 1.05-.18 1.787-.362 2.523-.147.593.037.722.605.714l6.35.002c.593.009.762-.202.866-.772l2.249-11.87c.512-2.774 1.133-5.53.741-8.404h0zm-7.731 2.285c-.177 3.087-.617 6.176-2.068 8.981-.797 1.541-1.885 2.846-3.574 3.457-1.914.693-3.335-.05-3.934-2.01-.251-.822-.323-1.669-.323-2.53.212-3.335 1.277-6.342 3.401-8.939.593-.725 1.302-1.315 2.156-1.706 2.333-1.069 4.489.191 4.342 2.747zm39.266 8.198c1.07.071 2.153 0 3.227-.061 3.122-.176 6.211-.538 9.052-2 3.093-1.593 4.715-4.446 4.407-7.771-.331-3.575-2.207-5.967-5.579-7.094-2.91-.973-5.843-.797-8.726.147-7.243 2.37-12.115 10.666-10.953 18.437.703 4.704 3.104 7.906 7.767 8.984 4.633 1.07 9.161.409 13.528-1.445.296-.126.552-.23.621-.599l1.241-6.538c-1.496.727-2.776 1.425-4.174 1.832-2.615.762-5.252 1.229-7.944.428-1.662-.495-2.83-1.513-3.232-3.291-.151-.667-.152-1.09.766-1.029zm5.465-11.493a4.09 4.09 0 0 1 2.038.179c.814.278 1.381.843 1.53 1.727.148.878-.184 1.593-.86 2.144-.901.733-2.002.967-3.097 1.131-1.666.249-3.349.351-5.116.287.72-3.025 2.757-5.003 5.505-5.468zM125.649 74.048c-1.082-.343-2.071.149-2.355 1.209-.022.083-.128.142-.195.214-1.908-1.985-4.371-2.191-6.44-.569-2.082 1.633-2.8 4.756-1.557 6.769 1.296 2.099 3.656 2.431 6.698.941-.094 1.707-.921 2.655-2.537 2.87-1.434.19-2.726-.242-3.958-.945-1.081-.616-.975.622-1.403.986-.57.484.026.682.372.88a8.77 8.77 0 0 0 3.494 1.102c3.754.378 5.696-.795 6.432-4.048l1.692-8.777c.048-.254.163-.503-.243-.632zm-6.227 7.532c-1.457-.039-2.369-.982-2.36-2.44.01-1.779 1.428-3.188 3.164-3.145 1.446.036 2.523 1.114 2.496 2.496-.033 1.643-1.625 3.134-3.3 3.089zm85.139-11.405c-1.315-.279-1.961.01-2.13.894l-.875 4.521c-.782-.713-1.418-1.372-2.363-1.597-3.112-.741-6.086 1.547-6.429 4.979-.432 4.308 2.674 6.65 6.598 4.957.393-.17.4-.012.638.256.535.602 1.347.224 2.037.254.597.025.422-.559.485-.884l2.28-12.205c.07-.386.652-.984-.24-1.173zm-6.785 12.321c-1.496-.048-2.526-1.25-2.491-2.906.043-2.007 1.483-3.628 3.193-3.592 1.586.033 2.64 1.201 2.621 2.902-.023 1.978-1.57 3.652-3.323 3.596zM149.65 70.262c-.639-.095-1.297-.103-1.946-.078-.566.022-.439.534-.509.887l-.904 4.598c-.741-.886-1.438-1.457-2.38-1.681-3.362-.802-6.418 1.922-6.398 5.725.01 1.86.601 3.447 2.299 4.382 1.644.906 3.243.721 4.749-.483.183 1.418 1.228.68 1.901.841.749.179.743-.409.836-.902l2.397-12.658c.042-.22.15-.602-.046-.632h0zm-7.014 12.24c-1.517.009-2.565-1.13-2.581-2.808-.019-2.003 1.36-3.661 3.075-3.698 1.573-.033 2.725 1.143 2.739 2.796.017 1.97-1.49 3.699-3.233 3.71zm-91.047-8.601c-1.729-.12-1.729-.116-1.424-1.893.027-.153.01-.322.068-.459.485-1.135-.247-1.051-.979-1.042-.444.005-.466.27-.521.59l-.411 2.169c-.055.336-.125.627-.527.62-.918-.015-1.99.228-2.701-.172-.481-.271.12-1.389.208-2.132.004-.039 0-.08.013-.115.307-.839-.039-.998-.834-.977s-.697.547-.78 1.015c-.389 2.185-.387 2.185-2.429 2.392-.076.008-.159-.011-.23.011-.64.204-.457.807-.555 1.25-.095.427.284.345.537.371 1.847.185 1.847.185 1.514 2.11-.04.229-.131.456-.128.684.009.899-.414 1.238-1.28 1.091-1.166-.198-1.84.187-1.659 1.595h2.427l-.427 2.378c-.029.343-.57.967.302 1.068.635.073 1.12.073 1.274-.848.449-2.674.504-2.665 3.233-2.6.151.004.302.03.535.054l-.397 2.416c-.041.333-.538.875.233.968.568.069 1.279.239 1.318-.752.015-.383.186-.762.189-1.144.012-1.27.58-1.778 1.845-1.564.348.059.84.238 1.041-.396.298-.943.14-1.254-.914-1.155-1.126.106-1.567-.19-1.119-1.338.014-.035.011-.077.019-.115.146-.721.125-1.546.484-2.136.426-.7 1.316-.234 1.997-.306.863-.092.539-.817.68-1.25.167-.518-.336-.37-.598-.388h0zm-3.992 3.228c-.448 2.478-.596 2.566-3.195 2.299-.508-.052-.556-.245-.475-.65l.286-1.602c.314-1.648.316-1.647 2.006-1.648 1.667-.001 1.667-.001 1.377 1.602zm127.883-3.31c-3.004.01-5.557 2.596-5.578 5.647-.02 2.981 2.312 5.284 5.294 5.228 3.055-.057 5.511-2.605 5.49-5.695-.02-2.976-2.246-5.191-5.206-5.181zm-.426 8.684c-1.566-.022-2.651-1.198-2.667-2.891-.018-1.904 1.381-3.543 3.062-3.586 1.625-.042 2.762 1.14 2.772 2.884.013 1.982-1.429 3.618-3.167 3.593zm-86.363-8.304c-1.473-.414-2.957-.27-4.444.036-.912.187-1.201.537-.848 1.49.239.645.33 1.012 1.141.658s1.722-.363 2.61-.26c.6.07 1.111.312 1.428.856.247.424.316.943.082 1.328-.216.356-.619-.013-.936-.069-1.648-.289-3.282-.451-4.826.423-1.196.678-1.742 1.878-1.543 3.353.171 1.263 1.068 2.217 2.376 2.515 1.402.318 2.65-.026 3.918-1.07.003.543-.209 1.151.509.987.635-.145 1.658.559 1.863-.498.418-2.159 1.049-4.294 1.076-6.516.021-1.704-.77-2.773-2.406-3.233h0zm-1.119 7.664c-.636.677-1.424 1.051-2.354.949-.731-.08-1.32-.428-1.424-1.256-.1-.796.286-1.344.982-1.645.452-.195.94-.324 1.452-.28.226.03.466.023.675.1.476.174 1.24-.13 1.395.51.147.605-.299 1.168-.726 1.623h0zm23.513-7.573c-1.766-.583-3.568-.462-5.316.153-1.018.358-.176 1.013-.161 1.528.018.595.306.674.842.46.907-.363 1.875-.43 2.838-.297.768.106 1.399.448 1.556 1.315.125.693.112 1.104-.856.855-1.615-.416-3.274-.536-4.841.266-1.32.675-1.913 1.947-1.683 3.502.194 1.307 1.132 2.218 2.534 2.492 1.371.268 2.56-.146 3.799-1.123-.183.82.032 1.195.751 1.02.599-.146 1.48.468 1.661-.774l.991-5.486c.295-1.92-.471-3.368-2.115-3.911zm-1.258 7.389c-.657.78-1.481 1.236-2.514 1.129-.739-.077-1.332-.435-1.439-1.254-.104-.795.304-1.335 1.002-1.64a3.19 3.19 0 0 1 1.459-.282c.265.038.541.041.793.12.449.141 1.156-.101 1.295.475.12.501-.241 1.03-.596 1.452h0zm23.985-7.617c-2.279-.743-4.885.243-6.224 2.356-1.335 2.106-1.248 4.962.201 6.629 1.488 1.712 4.351 2.153 6.585 1.015 1.33-.678 1.328-.805.417-1.928-.407-.501-.658-.381-1.12-.105-1.794 1.072-3.796.607-4.439-.976-.25-.615-.274-1.018.611-.956.956.067 1.921.015 2.882.015l2.998.003c.365.004.646-.024.808-.454.781-2.077-.578-4.901-2.72-5.599zm.441 4.158c-.186.471-.746.197-1.131.207l-3.948.013c.449-1.415 1.263-2.249 2.585-2.502.84-.161 1.607.037 2.16.757.346.451.533 1.02.334 1.524zm124.058-2.168c-1.394-2.241-3.295-2.424-7.272-.549 1.116-1.61-.077-1.177-.746-1.215-.698-.04-.527.583-.593.921l-2.141 11.406c-.047.26-.561.922.315.905.51-.01 1.155.287 1.278-.682.173-1.372.498-2.724.791-4.26 2.481 2.476 4.822 2.76 7.038.961 2.111-1.714 2.735-5.226 1.33-7.486zm-4.662 7.163c-1.826.01-3.233-1.433-3.252-3.336-.023-2.264 1.844-4.332 3.928-4.351 1.756-.016 3.05 1.395 3.076 3.354.032 2.35-1.676 4.322-3.752 4.334zM30.481 74.233c-3.023-.797-5.966 1.222-6.608 4.533-.419 2.164.434 4.263 2.132 5.245 1.766 1.022 4.491.806 5.988-.446.36-.301.465-.501.128-.928-.391-.494-.632-.527-1.184-.16-2.199 1.465-4.744.721-5.393-1.492-.204-.693-.174-1.102.728-1.044.996.064 2 .015 3 .014l3.233-.001c.342-.001.646.028.799-.449.677-2.112-.694-4.712-2.823-5.273h0zm.64 4.449l-5.558-.009c.447-1.611 1.271-2.633 2.724-3.068 1.801-.54 3.225.402 3.525 2.256.105.643-.073.83-.692.822h0zm236.399-4.03c-1.747-.797-3.516-.579-5.286-.07-.556.159-.426.527-.3.911.123.372.175.692.754.469.978-.375 2.028-.468 3.067-.3.92.148 1.678.555 1.899 1.589.242 1.132.02 1.363-1.084 1.146-1.673-.329-3.351-.535-4.955.272-1.292.65-1.865 1.805-1.683 3.258.171 1.364 1.02 2.264 2.422 2.593 1.621.381 3.006-.121 4.208-1.147.409.289-.434 1.056.449 1.067.388.005 1.015.337 1.14-.385.395-2.283 1.111-4.521 1.089-6.862-.012-1.175-.646-2.051-1.719-2.54h0zm-.207 5.799c-.328 1.603-1.931 2.889-3.601 2.882-1.235-.005-2.037-.614-2.161-1.642s.492-1.886 1.644-2.188c1.262-.331 2.519-.074 3.77.148.516.092.422.444.348.8zm-42.194-6.4c-3.009.03-5.384 2.517-5.38 5.635.003 2.905 2.062 5.006 4.907 5.008 2.991.002 5.518-2.627 5.493-5.715-.023-2.846-2.173-4.957-5.02-4.928zm-.564 9.153c-1.922-.029-3.208-1.434-3.197-3.491.013-2.321 1.789-4.229 3.893-4.183 1.926.042 3.27 1.477 3.256 3.477-.016 2.24-1.889 4.229-3.953 4.197zm67.876-30.155c-.057.138-.092.484-.276.611-.72.499-.842 1.069-.39 1.805.105.17.139.388-.117.462-.187.054-.383.015-.473-.211-.043-.107-.081-.218-.138-.318-.205-.36-.037-1.06-.726-.979-.56.067-.427.635-.51 1.018-.051.236-.092.513-.379.469-.457-.07-.195-.415-.157-.639.156-.913.43-1.817.481-2.734.066-1.186.871-.862 1.485-.832.712.035 1.26.359 1.2 1.347h0zm-2.189.062c-.051.339-.18.672.335.664.612-.01 1.178-.137 1.271-.85.066-.505-.364-.565-.761-.625-.691-.106-.867.27-.846.811z"/></svg>