<svg xmlns="http://www.w3.org/2000/svg" width="300" height="90" fill-rule="evenodd" xmlns:v="https://vecta.io/nano"><g fill="#020202"><path d="M34.553 5.302l3.36-3.667c.232-.256.491-.332.83-.347 11.887-.54 22.17 6.389 24.476 18.678 1.288 6.864.029 13.425-3.147 19.563-5.274 10.19-13.348 17.021-24.427 20.025-4.649 1.261-9.356 1.353-14.071.214-1-.242-1.488-.57-1.475-1.764.061-5.611.837-11.038 3.635-16.002.806-1.43 1.81-2.714 3.132-3.708 2.624-1.974 5.541-1.894 8.021.271 2.718 2.373 3.974 5.589 4.909 8.958.574 2.07.858 4.198 1.031 6.516l3.27-2.034c.572-.349.229-.74.079-1.124-1.733-4.462-2.721-9.05-2.469-13.879.292-5.594 2.034-10.758 4.429-15.741 1.847-3.843 4.062-7.466 6.508-10.944.459-.653.354-.931-.252-1.348-3.258-2.242-6.903-3.278-10.782-3.596-2.317-.19-4.634-.113-7.058-.07m128.951 50.341c-.429.504.417.796.091 1.403-2.704 0-5.528.005-8.351-.004-.589-.002-.601-.561-.767-.93l-5.896-13.138-.414-.872-1.975 10.449-.695 3.754c-.082.528-.253.76-.816.754-2.293-.025-4.588-.041-6.881.005-.934.019-.67-.552-.584-1.012l2.624-13.964 4.182-22.167c.144-.778.372-1.07 1.186-1.046a101.1 101.1 0 0 0 6.168-.001c.908-.03 1.165.188.983 1.124l-3.435 18.059-.639 3.434L155.605 33c1.192-1.381 2.143-3.289 3.647-3.99s3.564-.2 5.38-.216l3.733-.002-8.068 9.185c-.367.417-.68.906-1.113 1.235-2.147 1.632-2.219 3.371-.915 5.732 1.759 3.184 3.086 6.61 4.625 9.919.137.296.073.827.636.808l-.028-.028"/><path d="M163.531 55.672l1.168-6.59c1.912.973 3.779 1.761 5.788 2.13 1.206.222 2.41.43 3.635.14 1.028-.243 1.845-.76 2.115-1.85.248-.998-.205-1.778-.908-2.442-.672-.634-1.486-1.043-2.283-1.483l-2.158-1.237c-6.432-4.069-3.995-11.276.057-13.879 2.935-1.885 6.158-2.345 9.528-2.206 1.663.068 3.285.383 4.88.885.872.274 1.167.713.956 1.637-.389 1.704-.683 3.43-1.035 5.245-1.824-.854-3.695-1.423-5.68-1.543-.996-.06-1.986-.019-2.901.413-1.493.704-1.744 2.213-.602 3.406.785.82 1.787 1.299 2.774 1.799 1.525.772 2.988 1.645 4.168 2.906 3.126 3.34 2.428 9.001-1.488 11.984-2.923 2.226-6.328 2.733-9.866 2.673-2.873-.048-5.59-.778-8.179-2.017l.028.028m100.549-6.543l-1.268 6.697c-.072.393-.342.496-.647.601-4.145 1.426-8.344 1.881-12.53.316-4.35-1.625-6.877-5.881-6.688-10.922.329-8.727 5.587-15.177 14.013-17.089 2.93-.665 5.88-.588 8.819.106.938.222 1.29.588 1.037 1.608-.392 1.581-.682 3.192-.934 4.802-.112.71-.262.865-.958.543-1.738-.805-3.598-.958-5.456-.601-5.156.992-8.725 6.56-7.58 11.739.505 2.284 2.344 3.822 4.743 3.962 2.302.135 4.463-.414 6.54-1.373.24-.111.485-.208.91-.39m-127.95-.003l-1.263 6.626c-.068.366-.259.536-.593.65-4.427 1.507-8.895 2.026-13.284.029-3.718-1.692-5.607-4.846-5.885-8.871-.786-11.375 7.619-19.726 19.258-19.235 1.349.057 2.66.311 3.958.684.59.17.713.403.582 1.014-.386 1.788-.712 3.591-1.008 5.396-.11.672-.331.6-.855.397-8.169-3.171-14.028 3.864-13.186 10.553.333 2.643 2.195 4.374 4.845 4.523a12.55 12.55 0 0 0 3.76-.375c1.191-.296 2.303-.802 3.67-1.392M80.353 33.28c.976-.933 1.724-1.998 2.719-2.847 1.822-1.556 3.895-2.376 6.305-2.275.745.031 1.121.159.887 1.119l-1.279 6.441c-.101.574-.226.815-.879.761-3.561-.296-5.906 1.499-7.511 4.535-1.362 2.578-1.773 5.422-2.301 8.234l-1.334 7.278c-.119.744-.418.867-1.07.857-2.135-.035-4.271-.053-6.405.006-.865.023-1.056-.21-.89-1.066l3.583-18.874 1.49-7.858c.096-.522.204-.833.861-.816l5.93.007c.606-.01.744.17.615.757l-.724 3.741M61.185 85.546l1.919-10.095c.248-1.206 1.296-.409 1.958-.588.637-.172.72.258.464.963.911-.591 1.598-1.135 2.484-1.188 1.08-.065 2.138.165 2.733 1.098.575.902.883.621 1.427.036.802-.862 1.885-1.167 3.019-1.149 2.031.031 3.533 1.632 3.292 3.708-.261 2.25-.653 4.498-1.203 6.693-.275 1.097-1.429.45-2.153.472-.741.023-.288-.635-.228-.981l.892-4.813c.271-1.469-.108-2.366-1.116-2.67-1.04-.313-2.261.316-2.747 1.544-.574 1.451-.641 3.03-.989 4.541l-.293 1.645c-.083.529-.273.799-.908.804-1.797.016-1.791.058-1.455-1.759l.813-4.588c.138-.882-.024-1.707-.955-2.095-.96-.401-1.781-.079-2.456.654-.56.607-.761 1.382-.907 2.172l-.8 4.466c-.122.846-.41 1.296-1.337 1.141-.42-.07-.861-.012-1.454-.012m175.251-9.388c2.684-1.972 4.472-1.753 6.06.816.817-1.17 1.885-1.911 3.293-2.102 2.365-.322 4.256 1.422 3.962 3.813l-1.049 6.236c-.158.959-.89.637-1.392.595-.73-.06-.254-.627-.208-.919l.953-5.521c.151-1.048-.145-2.029-1.206-2.491-1.044-.454-2.009-.163-2.839.589s-1.23 1.729-1.424 2.815l-.818 4.578c-.113.937-.579 1.114-1.329.971-.884-.168-.355-.769-.286-1.18l.885-4.932c.206-1.152-.011-2.161-1.089-2.784-.922-.533-2.099-.251-3.028.612s-1.223 2.009-1.437 3.196l-.748 4.228c-.112.788-.523.922-1.205.883-.541-.031-.638-.164-.527-.719l1.635-8.795c.136-.83.463-.995 1.222-.981.984.017.321.77.576 1.092M94.705 76.02c1.184-.997 2.104-1.44 3.171-1.398 2.153.085 3.564 1.711 3.286 3.941l-1.104 6.341c-.291 1.277-1.452.55-2.189.586-.676.033-.315-.654-.255-1.009l.912-5.044c.163-.952.11-1.849-.951-2.306-.937-.404-2.054-.073-2.744.809-.56.717-.697 1.586-.856 2.444l-.784 4.343c-.273 1.491-1.44.736-2.178.769-.943.042-.372-.804-.315-1.145l1.584-8.679c.225-1.346 1.18-.684 1.837-.813.601-.118 1.065.025.585 1.16m94.348 8.499c-.815.528-1.336.942-2.009 1.102-2.468.586-4.499-1.038-4.346-3.582.134-2.227.684-4.398 1.146-6.57.278-1.306 1.457-.51 2.188-.562.674-.048.287.68.233 1.014l-.921 5.041c-.162.991-.07 1.931 1.094 2.329.973.333 2.031-.045 2.688-.982.691-.986.704-2.178.951-3.294l.649-3.397c.293-1.489 1.451-.661 2.18-.717.906-.07.317.728.264 1.036l-1.639 8.913c-.248 1.325-1.268.501-1.918.682-.7.195-.793-.269-.561-1.012m-34.511-3.553c.011-2.945 1.466-5.082 3.709-5.937 2.209-.841 4.492-.356 5.964 1.304.26.293.957.715.16 1.068-.569.252-.869 1.601-1.864.536-1.321-1.413-3.088-1.412-4.353-.067-1.339 1.423-1.436 3.812-.201 4.976.972.917 2.428.99 3.683 0 1.168-.921 1.26.386 1.727.774.717.595-.099.861-.425 1.098-1.798 1.312-3.734 1.397-5.693.43-1.903-.94-2.643-2.619-2.707-4.182M12.107 76.14c.88-.392 1.46-1.005 2.295-1.191 2.639-.588 4.832 1.314 4.447 4.004l-1.067 5.987c-.148.952-.806.564-1.267.587-.714.035-.42-.52-.362-.852l.957-5.158c.218-1.144.054-2.156-1.006-2.816-.951-.592-2.336-.365-3.289.481-.839.744-1.266 1.703-1.467 2.789l-.875 4.808c-.133 1.055-.833.815-1.381.739-.714-.1-.3-.67-.235-1.022l2.382-12.769c.167-.983.677-.938 1.295-.852.913.126.369.773.307 1.177l-.736 4.09m277.14 7.382l2.152-3.811 1.835-3.33c.501-1.133 1.219-1.573 2.438-1.224.198.218-.061.4-.162.575l-5.957 10.29c-.996 1.695-2.284 2.978-4.472 2.667-.384-.055-.777-.149-1.13-.306-.278-.124-.816-.235-.467-.725.242-.34.274-1.097 1.077-.679 1.034.537 1.971.326 2.793-.523.563-.581.796-1.156.559-2.009l-2.152-8.3c-.086-.342-.564-.887.143-1.028.591-.117 1.295-.289 1.516.742l1.827 7.66m-11.8-7.347c.684-.463 1.213-.936 1.907-1.148 2.686-.822 5.09 1.108 4.714 3.896l-1.068 5.99c-.16 1.03-.888.622-1.36.594-.662-.039-.299-.599-.243-.921l.935-5.047c.222-1.147.059-2.16-.989-2.828-.913-.582-2.277-.399-3.207.373-.898.745-1.356 1.734-1.564 2.866l-.906 4.929c-.145 1.013-.844.652-1.339.641-.711-.015-.341-.565-.283-.884l1.59-8.689c.135-.791.539-.857 1.204-.884.88-.035.472.591.61 1.113"/><path d="M165.917 85.61c-.808.219-.862-.363-.682-1.289l2.387-12.528c.065-.333-.056-.9.523-.919.664-.023 1.34-.01 1.993.098.229.038.081.429.041.649l-2.457 13.239c-.182 1.002-.909.6-1.806.75m47.112-4.879c-.025 1.392.501 2.502 1.747 3.148 1.282.665 2.581.512 3.649-.42.678-.592 1.049-.431 1.476.173.529.748-.276.887-.591 1.126-2.138 1.618-5.298 1.229-6.935-.803-1.693-2.102-1.335-5.639.769-7.597 2.301-2.142 5.921-1.977 7.688.358.217.286.656.615.033.924-.388.192-.703.838-1.254.114-1.035-1.361-2.41-1.735-4.001-1.103-1.549.616-2.571 2.271-2.579 4.081M6.587 83.949c-.131 1.586-.312 1.751-1.828 1.756-1.601.005-2.62-.748-2.713-2.057-.104-1.453.405-2.827.605-4.241.083-.589.237-1.169.35-1.754.123-.634.314-1.317-.768-1.134-.204.034-.409-.04-.375-.311.048-.384.092-1.06.37-1.036 1.916.164 1.456-1.406 1.646-2.339.17-.84.565-.875 1.211-.87.501.004.608.196.538.649-.124.802-.741 1.811-.254 2.336.379.407 1.491.121 2.277.142.315.008.694-.048.605.464-.069.396.069.955-.601.969-.632.013-1.269.052-1.896-.008-.702-.068-.972.208-1.073.897l-.755 4.104c-.563 2.14-.133 3.088 2.663 2.434M52.5 85.52c-.956.169-.809-.343-.701-.907l2.059-10.885c.164-.832.006-1.02-.767-.679-.322.142-.671.255-1.018.295-.257.03-.678.415-.772-.106-.074-.411-.389-1.074.174-1.263 1.262-.424 2.479-1.028 3.842-1.122.579-.04.774.147.659.749l-2.487 13.232c-.127.699-.477.829-.989.686m245.646-31.752c0 2.196-1.702 3.967-3.844 4-1.918.029-3.395-1.438-3.397-3.372-.001-2.104 1.827-3.972 3.923-4.007 1.931-.032 3.318 1.38 3.318 3.379zm-.476.022a2.74 2.74 0 0 0-2.758-2.806c-1.813-.01-3.426 1.584-3.437 3.397a2.76 2.76 0 0 0 2.757 2.822c1.774.021 3.425-1.618 3.439-3.413z"/></g><path d="M48.239 8.718c-4.904-1.744-9.9-1.87-14.954-.828-15.048 3.1-27.47 16.713-29.194 31.359-.734 6.235.304 12.067 4.052 17.231 2.263 3.118 5.173 5.406 8.889 6.926l-.001-1.298c-.145-4.835.186-9.638.939-14.413 1.995-12.643 6.595-24.183 14.13-34.539 1.302-1.789 2.788-2.636 4.96-2.641l-.778.936c-2.48 3.068-4.471 6.373-4.925 10.414-.354 3.148 1.606 4.802 4.591 3.879 1.696-.524 3.125-1.513 4.448-2.663 4.128-3.589 6.571-8.292 8.609-13.267.355-.865-.267-.92-.765-1.098zM36.837 22.489c-1.546.469-2.538-.322-2.509-2 .043-2.475 2.6-5.911 4.951-6.653 1.547-.488 2.585.293 2.572 1.935-.021 2.536-2.594 5.985-5.015 6.718z" fill="#cc1331"/><path d="M214.302 34.764c-.979-3.342-3.08-5.659-6.559-6.353-3.071-.612-5.878.158-8.326 2.15-.398.324-.77.685-1.126 1.057-.204.213-.427.448-.697.284-.263-.16-.007-.416.038-.637l.49-2.673c-2.322 0-4.534.023-6.745-.014-.627-.01-.69.352-.775.803l-6.767 35.901c-.171.895.143.884.795.876l6.289.012c.885.029 1.211-.233 1.361-1.129l1.75-9.446c1.19 1.165 2.468 1.792 3.957 2.007 3.537.511 6.638-.602 9.447-2.643 5.772-4.193 8.879-13.325 6.867-20.195zm-8.26 6.82c-.403 2.811-1.324 5.399-3.195 7.573-.787.915-1.727 1.627-2.906 1.967-2.208.637-3.538-.165-3.98-2.424-.106-.543-.133-1.102-.181-1.514.273-3.187.841-6.144 2.424-8.799.891-1.495 2.019-2.76 3.814-3.184 1.745-.411 3.149.328 3.771 2.02.523 1.423.464 2.886.253 4.361zm-98.941-13.173c-2.163-.363-4.338-.241-6.471.296-10.945 2.754-14.923 15.949-12.569 23.341 1.073 3.371 3.338 5.512 6.974 5.681 2.888.134 5.43-.836 7.428-3.045.208-.23.314-.625.829-.624l-.546 3.03 7.416.011c.552.005.607-.281.688-.72l2.102-11.145c.497-2.658 1.187-5.292 1.144-8.025-.078-4.963-2.508-8.046-6.996-8.799zm-4.093 20.011c-.682.962-1.566 1.696-2.648 2.136-2.009.817-3.619.012-4.221-2.09-.219-.766-.349-1.555-.3-2.373.221-3.719 1.378-7.061 3.952-9.824.603-.647 1.319-1.139 2.153-1.431 2.103-.737 4.098.383 4.021 2.589-.136 3.857-.623 7.702-2.958 10.994zM241.899 35.48c-.497-3.644-2.665-6.124-6.219-6.928-1.997-.452-4.006-.43-6.001-.066-5.165.941-8.946 3.902-11.449 8.45-2.566 4.663-3.749 9.643-2.249 14.938 1.21 4.27 4.497 6.33 8.834 5.748 2.552-.342 4.587-1.581 6.346-3.845.058 1.079-.185 1.837-.372 2.593-.151.609.038.742.622.733l6.525.002c.609.01.783-.208.89-.793l2.311-12.196c.526-2.85 1.164-5.682.761-8.635zm-7.943 2.348c-.182 3.172-.634 6.345-2.125 9.228-.819 1.584-1.937 2.924-3.672 3.551-1.967.712-3.427-.052-4.042-2.065-.258-.844-.331-1.715-.332-2.599.218-3.426 1.312-6.516 3.495-9.184.61-.745 1.337-1.351 2.215-1.753 2.397-1.098 4.612.196 4.462 2.822zm40.344 8.423c1.099.073 2.212 0 3.316-.063 3.208-.181 6.382-.552 9.3-2.055 3.178-1.636 4.844-4.568 4.528-7.984-.34-3.674-2.268-6.13-5.732-7.288-2.99-1-6.003-.819-8.966.151-7.442 2.435-12.448 10.959-11.254 18.943.722 4.833 3.189 8.123 7.98 9.23 4.76 1.1 9.413.421 13.899-1.485.304-.13.567-.236.638-.616l1.275-6.718c-1.537.747-2.852 1.464-4.289 1.882-2.687.783-5.396 1.263-8.162.44-1.708-.508-2.908-1.554-3.32-3.381-.155-.686-.157-1.12.787-1.057zm5.616-11.808a4.21 4.21 0 0 1 2.094.184c.836.286 1.419.866 1.572 1.774.152.902-.189 1.637-.884 2.203-.926.753-2.057.994-3.182 1.162a28.34 28.34 0 0 1-5.257.295c.74-3.108 2.832-5.141 5.656-5.618zM124.98 74.845c-1.112-.353-2.128.153-2.419 1.242-.023.085-.131.146-.201.22-1.961-2.04-4.491-2.251-6.617-.584-2.139 1.677-2.877 4.887-1.6 6.955 1.332 2.157 3.756 2.498 6.882.967-.097 1.754-.946 2.728-2.606 2.949-1.473.195-2.801-.249-4.066-.971-1.111-.633-1.002.639-1.442 1.013-.586.497.026.701.382.904a9.01 9.01 0 0 0 3.59 1.133c3.857.388 5.853-.817 6.609-4.159l1.739-9.018c.049-.261.167-.516-.25-.649zm-6.398 7.739c-1.497-.04-2.434-1.009-2.425-2.507.01-1.828 1.468-3.276 3.251-3.231 1.486.037 2.593 1.144 2.565 2.564-.033 1.689-1.669 3.22-3.39 3.174zm87.477-11.718c-1.352-.287-2.014.01-2.189.918l-.899 4.645c-.803-.732-1.457-1.41-2.428-1.641-3.197-.761-6.253 1.59-6.606 5.115-.443 4.426 2.747 6.832 6.779 5.093.404-.174.411-.013.656.263.55.618 1.384.231 2.093.261.614.026.434-.574.498-.909l2.342-12.54c.072-.396.67-1.011-.247-1.205zm-6.972 12.659c-1.537-.05-2.596-1.285-2.559-2.985.044-2.062 1.524-3.727 3.28-3.691 1.629.034 2.713 1.234 2.693 2.981-.023 2.032-1.613 3.753-3.414 3.695zm-49.446-12.569c-.657-.098-1.333-.106-1.999-.08-.581.022-.451.549-.523.912l-.929 4.724c-.761-.911-1.478-1.497-2.446-1.727-3.454-.824-6.594 1.975-6.573 5.882.01 1.911.617 3.541 2.362 4.503 1.689.93 3.332.74 4.88-.496.188 1.457 1.262.699 1.953.864.77.184.764-.42.859-.927l2.462-13.005c.043-.226.155-.619-.047-.649zm-7.207 12.576c-1.559.01-2.635-1.161-2.652-2.885-.02-2.058 1.397-3.762 3.159-3.799 1.616-.034 2.8 1.175 2.815 2.872.018 2.024-1.53 3.8-3.322 3.812zm-93.547-8.838c-1.777-.124-1.777-.119-1.464-1.945.027-.157.01-.331.07-.471.498-1.166-.253-1.08-1.006-1.071-.457.005-.479.278-.536.606l-.422 2.228c-.057.345-.129.644-.542.637-.944-.016-2.044.234-2.775-.177-.494-.278.123-1.427.213-2.19.005-.04 0-.082.014-.118.315-.862-.04-1.026-.857-1.004s-.716.562-.802 1.043c-.4 2.245-.398 2.245-2.496 2.457-.079.008-.164-.011-.236.012-.658.21-.47.829-.57 1.284-.098.439.292.355.551.381 1.897.19 1.898.19 1.555 2.168-.041.235-.134.469-.132.702.01.924-.426 1.272-1.315 1.121-1.198-.203-1.891.193-1.704 1.639h2.493l-.439 2.443c-.03.352-.586.994.31 1.098.652.075 1.151.075 1.309-.871.461-2.748.518-2.739 3.321-2.672.155.004.31.03.55.055l-.408 2.482c-.042.342-.553.899.239.995.584.071 1.314.246 1.354-.773.016-.394.191-.783.194-1.176.012-1.305.596-1.827 1.896-1.606.358.06.863.245 1.069-.407.306-.969.144-1.288-.939-1.186-1.157.109-1.61-.195-1.149-1.374.014-.036.011-.079.019-.118.15-.741.129-1.588.497-2.194.438-.719 1.352-.24 2.052-.314.887-.094.554-.839.698-1.285.172-.533-.346-.38-.615-.399zm-4.102 3.316c-.46 2.546-.613 2.636-3.282 2.362-.522-.053-.571-.251-.489-.668l.294-1.646c.322-1.693.324-1.692 2.062-1.693 1.713-.001 1.713-.001 1.415 1.646zm131.395-3.4c-3.087.011-5.71 2.667-5.731 5.802a5.26 5.26 0 0 0 5.439 5.372c3.139-.059 5.662-2.676 5.641-5.851-.02-3.058-2.307-5.334-5.349-5.323zm-.438 8.922c-1.609-.023-2.724-1.231-2.741-2.971-.019-1.957 1.418-3.64 3.146-3.684 1.67-.043 2.837 1.172 2.848 2.963.013 2.036-1.468 3.717-3.254 3.692zM87.007 75c-1.514-.426-3.039-.278-4.566.037-.937.193-1.234.551-.871 1.531.246.663.339 1.04 1.172.676s1.769-.373 2.682-.267c.616.072 1.142.321 1.468.88.254.436.324.969.084 1.364-.222.366-.636-.013-.961-.07-1.693-.297-3.373-.463-4.958.435-1.229.696-1.79 1.929-1.585 3.446.175 1.298 1.097 2.278 2.441 2.584 1.44.327 2.723-.026 4.026-1.1.003.558-.215 1.183.523 1.015.652-.149 1.703.574 1.914-.512.43-2.218 1.077-4.412 1.105-6.695.021-1.751-.791-2.849-2.472-3.322zm-1.149 7.874c-.653.696-1.463 1.08-2.419.975-.751-.082-1.356-.439-1.463-1.291-.103-.818.294-1.381 1.009-1.69.465-.2.966-.333 1.492-.288.232.031.479.024.694.103.489.178 1.274-.133 1.434.524.151.622-.307 1.2-.746 1.667zm24.158-7.78c-1.815-.599-3.666-.475-5.462.158-1.046.368-.181 1.04-.165 1.57.018.611.315.692.865.472.932-.373 1.926-.441 2.915-.305.789.109 1.437.461 1.598 1.351.129.712.115 1.135-.88.878-1.659-.428-3.364-.55-4.974.273-1.356.694-1.966 2.001-1.729 3.599.199 1.343 1.163 2.279 2.603 2.56 1.409.276 2.631-.15 3.903-1.153-.188.843.033 1.228.771 1.048.615-.15 1.521.481 1.707-.795l1.018-5.636c.303-1.973-.484-3.461-2.173-4.019zm-1.293 7.591c-.675.802-1.521 1.27-2.583 1.16-.759-.079-1.368-.446-1.479-1.289-.107-.817.312-1.371 1.03-1.685.47-.206.974-.318 1.499-.289.272.039.556.042.815.123.462.145 1.188-.104 1.33.489.124.514-.248 1.059-.613 1.491zm24.645-7.825c-2.341-.764-5.019.25-6.395 2.421-1.371 2.164-1.282 5.098.207 6.811 1.529 1.759 4.47 2.213 6.766 1.043 1.366-.696 1.365-.827.428-1.981-.418-.515-.677-.391-1.151-.108-1.843 1.102-3.9.623-4.561-1.003-.257-.632-.282-1.046.628-.982.982.069 1.974.015 2.961.015l3.081.003c.375.004.664-.025.83-.466.803-2.134-.594-5.035-2.795-5.753zm.453 4.272c-.191.484-.767.202-1.162.213l-4.056.014c.461-1.454 1.298-2.311 2.655-2.571.863-.165 1.652.038 2.219.778.355.464.547 1.048.343 1.566zm127.464-2.227c-1.433-2.303-3.385-2.491-7.471-.564 1.146-1.654-.079-1.209-.766-1.249-.717-.041-.541.599-.609.946l-2.2 11.719c-.048.267-.576.947.323.93.524-.01 1.187.295 1.313-.701.178-1.409.511-2.799.813-4.377 2.549 2.544 4.954 2.836 7.232.987 2.169-1.762 2.81-5.37 1.366-7.691zm-4.79 7.36c-1.876.01-3.322-1.473-3.341-3.428-.023-2.326 1.895-4.451 4.035-4.471 1.804-.017 3.134 1.433 3.161 3.446.033 2.414-1.722 4.441-3.855 4.453zM27.199 75.036c-3.106-.819-6.13 1.256-6.789 4.658-.431 2.223.446 4.38 2.191 5.389 1.815 1.05 4.614.828 6.152-.458.37-.309.477-.515.131-.953-.402-.508-.649-.542-1.216-.165-2.259 1.505-4.874.741-5.542-1.533-.209-.712-.179-1.132.748-1.073 1.024.065 2.055.015 3.083.015l3.322-.001c.351-.001.664.028.821-.461.696-2.17-.713-4.841-2.901-5.418zm.657 4.571l-5.711-.009c.459-1.655 1.306-2.705 2.799-3.153 1.85-.555 3.313.414 3.622 2.318.107.661-.075.853-.711.844zm242.891-4.141c-1.795-.819-3.613-.594-5.432-.072-.571.164-.438.541-.308.936.126.383.179.711.775.482 1.005-.386 2.083-.481 3.151-.308.945.153 1.724.57 1.951 1.632.248 1.163.021 1.4-1.114 1.177-1.719-.338-3.443-.549-5.091.28-1.328.668-1.916 1.855-1.729 3.348.176 1.402 1.048 2.326 2.488 2.664 1.666.391 3.089-.125 4.323-1.179.42.297-.446 1.085.461 1.096.399.005 1.043.346 1.172-.396.406-2.346 1.141-4.645 1.118-7.051-.011-1.208-.664-2.107-1.766-2.61zm-.212 5.959c-.337 1.647-1.984 2.968-3.7 2.962-1.269-.005-2.093-.631-2.22-1.687s.505-1.938 1.689-2.248c1.297-.34 2.589-.076 3.873.152.53.094.433.456.358.822zm-43.354-6.576c-3.092.031-5.532 2.586-5.528 5.79.004 2.985 2.118 5.143 5.041 5.145 3.073.003 5.67-2.699 5.644-5.872-.024-2.924-2.233-5.093-5.158-5.064zm-.579 9.404c-1.975-.03-3.297-1.473-3.285-3.587.014-2.385 1.838-4.346 4-4.298 1.979.043 3.36 1.518 3.346 3.573-.016 2.302-1.94 4.345-4.062 4.313zm69.74-30.983c-.059.141-.095.497-.283.628-.739.512-.865 1.099-.401 1.855.108.175.143.399-.12.475-.192.055-.393.016-.486-.216-.044-.11-.083-.224-.141-.327-.21-.37-.038-1.089-.746-1.005-.575.068-.439.652-.524 1.046-.053.243-.095.527-.39.482-.47-.072-.201-.426-.162-.656.16-.938.442-1.867.494-2.809.067-1.218.895-.885 1.526-.855.732.036 1.295.369 1.232 1.383zm-2.249.064c-.053.348-.185.691.345.682.629-.01 1.21-.141 1.306-.874.068-.519-.374-.58-.782-.642-.71-.109-.891.277-.869.834z" fill="#020202"/></svg>