<svg xmlns="http://www.w3.org/2000/svg" xmlns:xlink="http://www.w3.org/1999/xlink" width="189" height="51" xmlns:v="https://vecta.io/nano"><g transform="translate(-1638 -2093)"><g fill="#4e4e4e"><use xlink:href="#A" x="1688.87" y="2106.23"/><use xlink:href="#B" x="1705.38" y="2106.19"/><use xlink:href="#C" x="1730.18" y="2105.67"/><use xlink:href="#D" x="1752.94" y="2106.21"/><use xlink:href="#E" x="1775.8" y="2100.04"/><use xlink:href="#F" x="1791.75" y="2105.71"/><use xlink:href="#G" x="1815.77" y="2105.72"/></g><use xlink:href="#H" fill="#767677" x="1669.3" y="2093.31"/><g fill="#f37726"><use xlink:href="#I" x="1639.74" y="2123.98"/><use xlink:href="#J" x="1639.73" y="2097.48"/></g><use xlink:href="#K" fill="#989798" x="1639.8" y="2135.81"/><use xlink:href="#L" fill="#6f7070" x="1638.36" y="2098.06"/></g><defs><path id="A" d="M5.626 17.928c0 5.146-.393 6.826-1.439 8.067C3.044 27.05 1.55 27.634 0 27.63l.393 3.061c2.402.033 4.731-.835 6.533-2.437 1.875-1.953 2.529-4.653 2.529-8.797V0H5.617v17.954l.009-.026z"/><path id="B" d="M17.741 15.623l.174 5.85h-3.358l-.218-3.519h-.087a7.96 7.96 0 0 1-2.953 2.948c-1.226.7-2.616 1.058-4.025 1.037C3.96 21.939 0 20.074 0 12.544V0h3.838v11.902c0 4.082 1.221 6.826 4.701 6.826 1.092-.02 2.153-.365 3.052-.991s1.594-1.505 1.999-2.528c.233-.639.351-1.316.349-1.997V.018h3.838v15.605h-.035z"/><path id="C" d="M.174 7.536L0 .499h3.445l.174 3.677h.087a8.31 8.31 0 0 1 3.171-3.137A8.22 8.22 0 0 1 11.2.006c5.094 0 8.932 4.398 8.932 10.908 0 7.715-4.614 11.524-9.595 11.524a7.33 7.33 0 0 1-3.687-.819 7.4 7.4 0 0 1-2.803-2.55H3.96v11.656H.166V7.501l.009.035zm3.794 5.718a8.87 8.87 0 0 0 .174 1.592 5.98 5.98 0 0 0 2.091 3.285 5.89 5.89 0 0 0 3.657 1.281c4.056 0 6.402-3.369 6.402-8.286 0-4.302-2.224-7.979-6.271-7.979-1.361.038-2.67.535-3.72 1.41S4.524 6.635 4.23 7.976c-.154.517-.242 1.052-.262 1.592v3.677.009z"/><path id="D" d="M4.161 0l4.614 12.676 1.352 4.398h.087l1.352-4.478L15.753.009h4.056L14.06 15.306C11.313 22.66 9.446 26.434 6.83 28.739c-1.322 1.24-2.943 2.111-4.701 2.525l-.959-3.281c1.23-.413 2.37-1.061 3.358-1.909 1.396-1.176 2.501-2.664 3.227-4.346a2.83 2.83 0 0 0 .305-.932c-.034-.352-.123-.696-.262-1.021L0 .009h4.187L4.161 0z"/><path id="E" d="M7.022 0v6.158h5.486v2.973H7.022V20.69c0 2.639.741 4.17 2.878 4.17.75.012 1.498-.077 2.224-.264l.174 2.929c-1.091.388-2.245.567-3.402.528-.767.047-1.535-.074-2.251-.357s-1.361-.719-1.893-1.279c-1.09-1.152-1.483-3.061-1.483-5.586v-11.7H0V6.158h3.271V1.012L7.022 0z"/><path id="F" d="M3.629 11.928c.087 5.278 3.402 7.451 7.231 7.451 2.002.063 3.993-.315 5.835-1.108l.654 2.789c-2.207.935-4.585 1.387-6.978 1.328C3.881 22.388 0 18.042 0 11.568S3.751 0 9.891 0c6.882 0 8.722 6.158 8.722 10.107-.006.609-.05 1.217-.131 1.821H3.655h-.026zM14.872 9.14c.044-2.481-1.003-6.342-5.312-6.342-3.881 0-5.574 3.633-5.879 6.342H14.88h-.009z"/><path id="G" d="M.174 7.179L0 .484h3.358l.131 4.214h.174C4.623 1.813 6.934 0 9.499 0c.368-.005.734.039 1.09.132v3.677c-.43-.094-.869-.139-1.308-.132-2.704 0-4.614 2.085-5.137 5.005a11.14 11.14 0 0 0-.174 1.821v11.436H.174V7.179z"/><path id="H" d="M5.894 2.844c.025.588-.123 1.17-.425 1.672s-.746.904-1.275 1.152-1.119.333-1.695.243a2.94 2.94 0 0 1-1.543-.748 2.98 2.98 0 0 1-.871-1.486c-.138-.571-.105-1.171.095-1.724A2.97 2.97 0 0 1 1.208.574 2.93 2.93 0 0 1 2.823.003c.781-.033 1.542.247 2.118.78s.918 1.274.952 2.061z"/><path id="I" d="M18.265 7.134C10.415 7.134 3.559 4.258 0 0c1.325 3.82 3.796 7.131 7.069 9.473s7.187 3.6 11.2 3.6 7.927-1.258 11.2-3.6S35.213 3.82 36.538 0c-3.567 4.258-10.423 7.134-18.273 7.134z"/><path id="J" d="M18.273 5.939c7.85 0 14.706 2.877 18.265 7.134-1.325-3.82-3.796-7.131-7.069-9.473S22.282 0 18.269 0s-7.927 1.258-11.2 3.6S1.325 9.253 0 13.073c3.567-4.249 10.423-7.134 18.273-7.134z"/><path id="K" d="M7.428 3.583a3.77 3.77 0 0 1-.536 2.109c-.382.634-.941 1.139-1.608 1.452s-1.41.42-2.137.306-1.404-.442-1.945-.944S.279 5.353.105 4.632a3.78 3.78 0 0 1 .122-2.173C.48 1.762.932 1.157 1.526.72S2.829.033 3.564.003c.983-.041 1.941.314 2.666.985a3.76 3.76 0 0 1 1.198 2.596h0z"/><path id="L" d="M2.275 4.396c-.431.019-.858-.092-1.227-.318s-.663-.557-.845-.952-.244-.835-.178-1.265.257-.831.549-1.151.672-.546 1.091-.649.859-.078 1.265.072.757.417 1.011.769a2.21 2.21 0 0 1-.156 2.784c-.391.429-.934.684-1.511.709h0z"/></defs></svg>