<?xml version="1.0" encoding="UTF-8" standalone="no"?>
<svg
   class="logo"
   width="300"
   height="90"
   viewBox="0 0 300 90"
   fill="none"
   version="1.1"
   id="svg7414"
   sodipodi:docname="schmidt.svg"
   inkscape:version="1.1.1 (3bf5ae0d25, 2021-09-20)"
   xmlns:inkscape="http://www.inkscape.org/namespaces/inkscape"
   xmlns:sodipodi="http://sodipodi.sourceforge.net/DTD/sodipodi-0.dtd"
   xmlns="http://www.w3.org/2000/svg"
   xmlns:svg="http://www.w3.org/2000/svg">
  <defs
     id="defs7418" />
  <sodipodi:namedview
     id="namedview7416"
     pagecolor="#ffffff"
     bordercolor="#666666"
     borderopacity="1.0"
     inkscape:pageshadow="2"
     inkscape:pageopacity="0.0"
     inkscape:pagecheckerboard="0"
     showgrid="false"
     inkscape:zoom="2.2786465"
     inkscape:cx="80.310833"
     inkscape:cy="-19.529137"
     inkscape:window-width="1866"
     inkscape:window-height="1016"
     inkscape:window-x="54"
     inkscape:window-y="27"
     inkscape:window-maximized="1"
     inkscape:current-layer="svg7414" />
  <path
     d="m 9.3903153,55.747092 c -1.5698001,0 -3.0792232,-0.25157 -4.5282694,-0.754711 C 3.4331253,54.48924 2.326215,53.825093 1.541315,52.999943 l 0.8754654,-1.720742 c 0.7647744,0.764773 1.7811193,1.388668 3.0490347,1.871683 1.2679155,0.46289 2.5760822,0.694335 3.9245002,0.694335 1.8918107,0 3.3106677,-0.342136 4.2565727,-1.026408 0.945906,-0.704397 1.418858,-1.610051 1.418858,-2.716961 0,-0.845277 -0.261633,-1.519486 -0.7849,-2.022627 C 13.777705,47.576082 13.15381,47.193694 12.409162,46.932062 11.664513,46.650302 10.628042,46.348417 9.2997499,46.026408 7.7098242,45.623894 6.4419088,45.241507 5.4960036,44.879246 4.5500984,44.496859 3.7350099,43.923278 3.0507381,43.158503 2.386592,42.393729 2.0545189,41.357258 2.0545189,40.049092 c 0,-1.066659 0.2817589,-2.03269 0.8452769,-2.898093 0.563518,-0.885527 1.4289206,-1.589925 2.5962078,-2.113192 1.1672872,-0.523266 2.6163334,-0.7849 4.3471386,-0.7849 1.2075388,0 2.3848888,0.171068 3.5320498,0.513204 1.167288,0.32201 2.17357,0.774837 3.018847,1.358481 l -0.754712,1.781119 C 14.753799,37.322068 13.807894,36.889367 12.801612,36.607607 11.795329,36.305723 10.809173,36.15478 9.8431422,36.15478 c -1.851559,0 -3.2502911,0.362261 -4.1961963,1.086785 -0.9257795,0.704397 -1.3886693,1.620114 -1.3886693,2.74715 0,0.845277 0.2515706,1.529549 0.7547116,2.052815 0.5232667,0.503141 1.1672872,0.895592 1.9320616,1.17735 0.7849,0.261634 1.8314334,0.553455 3.1396002,0.875466 1.549674,0.382388 2.797464,0.764775 3.743369,1.147161 0.966031,0.362262 1.78112,0.92578 2.445266,1.690555 0.664146,0.744648 0.996219,1.760993 0.996219,3.049034 0,1.066659 -0.291822,2.042752 -0.875465,2.928281 -0.563518,0.865402 -1.438984,1.559737 -2.626397,2.083004 -1.187413,0.503141 -2.646522,0.754711 -4.3773267,0.754711 z m 21.9238677,0 c -2.093067,0 -3.984877,-0.46289 -5.675431,-1.388669 -1.670428,-0.92578 -2.988658,-2.203758 -3.954688,-3.833934 C 20.738158,48.874185 20.265206,47.03269 20.265206,45 c 0,-2.03269 0.472952,-3.864123 1.418858,-5.4943 0.96603,-1.650302 2.294323,-2.938343 3.984877,-3.864123 1.690553,-0.92578 3.582364,-1.38867 5.675431,-1.38867 1.5698,0 3.018846,0.261634 4.347138,0.7849 1.328293,0.523267 2.455328,1.288042 3.381108,2.294324 l -1.418858,1.418858 c -1.650302,-1.67043 -3.733306,-2.505644 -6.249012,-2.505644 -1.670428,0 -3.189914,0.382387 -4.558457,1.147162 -1.368544,0.764775 -2.445266,1.811309 -3.230166,3.139601 -0.764774,1.328291 -1.147161,2.81759 -1.147161,4.467892 0,1.650303 0.382387,3.1396 1.147161,4.467893 0.7849,1.328292 1.861622,2.374826 3.230166,3.1396 1.368543,0.764774 2.888029,1.147161 4.558457,1.147161 2.535831,0 4.618835,-0.845276 6.249012,-2.53583 l 1.418858,1.418857 c -0.92578,1.006283 -2.062878,1.78112 -3.411296,2.324511 -1.328293,0.523268 -2.777339,0.784901 -4.347139,0.7849 z M 61.495099,34.434038 V 55.565961 H 59.291341 V 45.815089 H 46.068794 v 9.750872 H 43.834848 V 34.434038 h 2.233946 v 9.418801 h 13.222547 v -9.418801 z m 28.844447,0 V 55.565961 H 88.196165 V 38.660422 l -8.301827,14.218766 h -1.056597 l -8.301827,-14.1282 V 55.565961 H 68.392533 V 34.434038 h 1.841497 l 9.177292,15.667812 9.086727,-15.667812 z m 6.885233,0 h 2.233946 v 21.131923 h -2.233946 z m 9.109611,0 h 8.60372 c 2.23394,0 4.20626,0.452827 5.91693,1.358481 1.71068,0.885529 3.03898,2.133318 3.98488,3.743369 0.94591,1.589925 1.41873,3.411296 1.41873,5.464112 0,2.052815 -0.47282,3.884248 -1.41873,5.494301 -0.9459,1.589925 -2.2742,2.837714 -3.98488,3.743369 -1.71067,0.885528 -3.68299,1.328291 -5.91693,1.328291 h -8.60372 z m 8.48296,19.199863 c 1.85156,0 3.47168,-0.362262 4.86034,-1.086785 1.38867,-0.744649 2.4654,-1.760994 3.23017,-3.049036 0.76477,-1.308166 1.14716,-2.807526 1.14716,-4.49808 0,-1.690553 -0.38239,-3.179851 -1.14716,-4.467892 -0.76477,-1.308167 -1.8415,-2.324512 -3.23017,-3.049035 -1.38866,-0.744648 -3.00878,-1.116973 -4.86034,-1.116973 h -6.24901 v 17.2678 z m 20.26891,-17.267802 h -7.42636 v -1.932061 h 17.08667 V 36.3661 h -7.42635 v 19.199861 h -2.23395 z m 25.0841,1.992439 v 5.584866 h 9.78106 v 3.924499 h -9.78106 v 7.698058 h -4.89053 V 34.434038 h 15.9697 v 3.924501 z m 23.7797,17.569686 c -3.01884,0 -5.37354,-0.835215 -7.0641,-2.505643 -1.67042,-1.670429 -2.50564,-4.055316 -2.50564,-7.154666 V 34.434038 h 4.89053 v 11.652746 c 0,3.783622 1.5698,5.675431 4.7094,5.675431 1.52955,0 2.69684,-0.452827 3.50186,-1.358481 0.80503,-0.925779 1.20628,-2.364762 1.20628,-4.31695 V 34.434038 h 4.83142 v 11.833877 c 0,3.09935 -0.84528,5.484237 -2.53583,7.154666 -1.67043,1.670428 -4.01507,2.505643 -7.03392,2.505643 z m 18.42503,-17.509309 h -6.76222 v -3.984877 h 18.41497 v 3.984877 h -6.76222 v 17.147046 h -4.89053 z m 23.31933,17.509309 c -3.01885,0 -5.37355,-0.835215 -7.0641,-2.505643 -1.67043,-1.670429 -2.50564,-4.055316 -2.50564,-7.154666 V 34.434038 h 4.89053 v 11.652746 c 0,3.783622 1.5698,5.675431 4.7094,5.675431 1.52955,0 2.69683,-0.452827 3.50186,-1.358481 0.80502,-0.925779 1.20754,-2.364762 1.20754,-4.31695 V 34.434038 h 4.83015 v 11.833877 c 0,3.09935 -0.84528,5.484237 -2.53583,7.154666 -1.67043,1.670428 -4.01507,2.505643 -7.03391,2.505643 z m 27.86646,-0.362263 -4.07544,-5.88675 h -0.24151 -4.25657 v 5.88675 h -4.89053 V 34.434038 h 9.1471 c 1.87169,0 3.4918,0.311948 4.86035,0.935842 1.38867,0.623895 2.45533,1.509423 3.19997,2.656585 0.74465,1.147161 1.11699,2.505643 1.11699,4.075442 0,1.5698 -0.38239,2.928282 -1.14716,4.075442 -0.74465,1.127036 -1.81131,1.992439 -3.19999,2.596208 l 4.73959,6.792404 z m -0.0906,-13.464054 c 0,-1.187413 -0.38239,-2.093067 -1.14716,-2.716962 -0.76478,-0.64402 -1.88175,-0.96603 -3.35092,-0.96603 h -3.98488 v 7.365984 h 3.98488 c 1.46917,0 2.58614,-0.32201 3.35092,-0.96603 0.76477,-0.644021 1.14716,-1.549675 1.14716,-2.716962 z m 25.1885,9.539554 v 3.9245 H 262.29667 V 34.434038 h 15.9697 v 3.924501 h -11.10936 v 4.588645 h 9.81125 v 3.803746 h -9.81125 v 4.890531 z m 10.83388,4.286763 c -1.67043,0 -3.29053,-0.221383 -4.86033,-0.664147 -1.54967,-0.46289 -2.79746,-1.056596 -3.74338,-1.78112 l 1.66037,-3.682992 c 0.90565,0.664147 1.98238,1.197476 3.23017,1.599989 1.24779,0.402513 2.49558,0.603769 3.74337,0.603769 1.38866,0 2.41508,-0.201256 3.07922,-0.603769 0.66415,-0.422638 0.99621,-0.976093 0.99621,-1.660366 0,-0.503141 -0.20124,-0.915717 -0.60376,-1.237726 -0.38238,-0.342137 -0.88552,-0.613832 -1.50942,-0.815089 -0.60377,-0.201256 -1.42892,-0.422639 -2.47545,-0.664147 -1.61005,-0.382387 -2.92828,-0.764774 -3.95469,-1.14716 -1.02642,-0.382388 -1.91195,-0.99622 -2.6566,-1.841497 -0.72452,-0.845276 -1.08678,-1.972313 -1.08678,-3.381108 0,-1.227663 0.33208,-2.334575 0.99622,-3.32073 0.66414,-1.006283 1.66037,-1.801245 2.98866,-2.384889 1.34845,-0.583644 2.98869,-0.875466 4.92076,-0.875466 1.34842,0 2.66664,0.161006 3.95469,0.483016 1.28804,0.32201 2.41507,0.7849 3.3811,1.388669 l -1.50942,3.713182 c -1.95219,-1.106912 -3.90438,-1.660367 -5.85656,-1.660367 -1.36855,0 -2.38489,0.221382 -3.04903,0.664147 -0.64403,0.442763 -0.96604,1.026407 -0.96604,1.750931 0,0.724523 0.37233,1.267916 1.11697,1.630176 0.76478,0.342137 1.92201,0.684272 3.47168,1.026408 1.61005,0.382388 2.92828,0.764774 3.9547,1.147161 1.02639,0.382388 1.90186,0.986157 2.62639,1.811309 0.74465,0.825151 1.11698,1.942125 1.11698,3.350919 0,1.207538 -0.34214,2.314448 -1.02642,3.320731 -0.66414,0.986156 -1.67043,1.771057 -3.01884,2.354699 -1.34842,0.583645 -2.98866,0.875467 -4.92073,0.875467 z"
     fill="white"
     id="path7412"
     style="fill:#000000;fill-opacity:1;stroke-width:1.25785" />
</svg>
