<svg xmlns="http://www.w3.org/2000/svg" width="300" height="90" fill="none" xmlns:v="https://vecta.io/nano"><path d="M9.39 55.747c-1.57 0-3.079-.252-4.528-.755-1.429-.503-2.536-1.167-3.321-1.992l.875-1.721c.765.765 1.781 1.389 3.049 1.872 1.268.463 2.576.694 3.925.694 1.892 0 3.311-.342 4.257-1.026.946-.704 1.419-1.61 1.419-2.717 0-.845-.262-1.519-.785-2.023-.503-.503-1.127-.886-1.872-1.147-.745-.282-1.781-.584-3.109-.906l-3.804-1.147a6.52 6.52 0 0 1-2.445-1.721c-.664-.765-.996-1.801-.996-3.109 0-1.067.282-2.033.845-2.898.564-.886 1.429-1.59 2.596-2.113s2.616-.785 4.347-.785c1.208 0 2.385.171 3.532.513 1.167.322 2.174.775 3.019 1.358l-.755 1.781c-.886-.584-1.831-1.016-2.838-1.298-1.006-.302-1.992-.453-2.958-.453-1.852 0-3.25.362-4.196 1.087-.926.704-1.389 1.62-1.389 2.747 0 .845.252 1.53.755 2.053.523.503 1.167.896 1.932 1.177l3.14.875c1.55.382 2.797.765 3.743 1.147.966.362 1.781.926 2.445 1.691.664.745.996 1.761.996 3.049a5.21 5.21 0 0 1-.875 2.928c-.564.865-1.439 1.56-2.626 2.083-1.187.503-2.647.755-4.377.755zm21.924 0c-2.093 0-3.985-.463-5.675-1.389a10.34 10.34 0 0 1-3.955-3.834c-.946-1.65-1.419-3.492-1.419-5.524s.473-3.864 1.419-5.494c.966-1.65 2.294-2.938 3.985-3.864s3.582-1.389 5.675-1.389c1.57 0 3.019.262 4.347.785a9.01 9.01 0 0 1 3.381 2.294l-1.419 1.419c-1.65-1.67-3.733-2.506-6.249-2.506-1.67 0-3.19.382-4.558 1.147s-2.445 1.811-3.23 3.14c-.765 1.328-1.147 2.818-1.147 4.468s.382 3.14 1.147 4.468c.785 1.328 1.862 2.375 3.23 3.14s2.888 1.147 4.558 1.147c2.536 0 4.619-.845 6.249-2.536l1.419 1.419c-.926 1.006-2.063 1.781-3.411 2.325-1.328.523-2.777.785-4.347.785zm30.181-21.313v21.132h-2.204v-9.751H46.069v9.751h-2.234V34.434h2.234v9.419h13.223v-9.419zm28.844 0v21.132h-2.143V38.66l-8.302 14.219h-1.057l-8.302-14.128v16.815h-2.143V34.434h1.841l9.177 15.668 9.087-15.668zm6.885 0h2.234v21.132h-2.234zm9.11 0h8.604c2.234 0 4.206.453 5.917 1.358 1.711.886 3.039 2.133 3.985 3.743.946 1.59 1.419 3.411 1.419 5.464s-.473 3.884-1.419 5.494c-.946 1.59-2.274 2.838-3.985 3.743-1.711.886-3.683 1.328-5.917 1.328h-8.604zm8.483 19.2c1.852 0 3.472-.362 4.86-1.087 1.389-.745 2.465-1.761 3.23-3.049.765-1.308 1.147-2.808 1.147-4.498s-.382-3.18-1.147-4.468c-.765-1.308-1.841-2.325-3.23-3.049-1.389-.745-3.009-1.117-4.86-1.117h-6.249v17.268zm20.269-17.268h-7.426v-1.932h17.087v1.932h-7.426v19.2h-2.234zm25.084 1.992v5.585h9.781v3.924h-9.781v7.698h-4.891V34.434h15.97v3.925zm23.78 17.57c-3.019 0-5.374-.835-7.064-2.506-1.67-1.67-2.506-4.055-2.506-7.155V34.434h4.891v11.653c0 3.784 1.57 5.675 4.709 5.675 1.53 0 2.697-.453 3.502-1.358.805-.926 1.206-2.365 1.206-4.317V34.434h4.831v11.834c0 3.099-.845 5.484-2.536 7.155-1.67 1.67-4.015 2.506-7.034 2.506zm18.425-17.509h-6.762v-3.985h18.415v3.985h-6.762v17.147h-4.891zm23.319 17.509c-3.019 0-5.374-.835-7.064-2.506-1.67-1.67-2.506-4.055-2.506-7.155V34.434h4.891v11.653c0 3.784 1.57 5.675 4.709 5.675 1.53 0 2.697-.453 3.502-1.358.805-.926 1.208-2.365 1.208-4.317V34.434h4.83v11.834c0 3.099-.845 5.484-2.536 7.155-1.67 1.67-4.015 2.506-7.034 2.506zm27.866-.362l-4.075-5.887h-.242-4.257v5.887h-4.891V34.434h9.147c1.872 0 3.492.312 4.86.936 1.389.624 2.455 1.509 3.2 2.657s1.117 2.506 1.117 4.075-.382 2.928-1.147 4.075c-.745 1.127-1.811 1.992-3.2 2.596l4.74 6.792zm-.091-13.464c0-1.187-.382-2.093-1.147-2.717-.765-.644-1.882-.966-3.351-.966h-3.985v7.366h3.985c1.469 0 2.586-.322 3.351-.966s1.147-1.55 1.147-2.717zm25.188 9.54v3.925h-16.362V34.434h15.97v3.925h-11.109v4.589h9.811v3.804h-9.811v4.891zm10.834 4.287c-1.67 0-3.291-.221-4.86-.664-1.55-.463-2.797-1.057-3.743-1.781l1.66-3.683c.906.664 1.982 1.197 3.23 1.6s2.496.604 3.743.604c1.389 0 2.415-.201 3.079-.604.664-.423.996-.976.996-1.66 0-.503-.201-.916-.604-1.238-.382-.342-.886-.614-1.509-.815-.604-.201-1.429-.423-2.475-.664l-3.955-1.147a6.54 6.54 0 0 1-2.657-1.841c-.725-.845-1.087-1.972-1.087-3.381a5.81 5.81 0 0 1 .996-3.321c.664-1.006 1.66-1.801 2.989-2.385 1.348-.584 2.989-.875 4.921-.875 1.348 0 2.667.161 3.955.483s2.415.785 3.381 1.389l-1.509 3.713c-1.952-1.107-3.904-1.66-5.857-1.66-1.369 0-2.385.221-3.049.664-.644.443-.966 1.026-.966 1.751s.372 1.268 1.117 1.63c.765.342 1.922.684 3.472 1.026l3.955 1.147a6.43 6.43 0 0 1 2.626 1.811c.745.825 1.117 1.942 1.117 3.351a5.78 5.78 0 0 1-1.026 3.321c-.664.986-1.67 1.771-3.019 2.355s-2.989.875-4.921.875z" fill="#000"/></svg>