<svg xmlns="http://www.w3.org/2000/svg" width="300" height="90" fill="#b1b1b1" fill-rule="evenodd" xmlns:v="https://vecta.io/nano"><path d="M99.242.663l3.472.347c8.017.579 15.936 1.796 23.773 3.579.975.222 1.287.567 1.282 1.599l-.05 28.548c-.118 10.743-2.864 20.669-9.667 29.215-1.032 1.296-2.166 2.511-3.274 3.788 2.82.412 10.948-2.791 14.174-5.581-.81-.981-1.592-1.989-2.443-2.936-.582-.648-.641-1.317-.362-2.087.807-2.236 3.954-4.079 6.278-3.646.987.183 1.632.737 1.871 1.767.505 2.172 1.426 4.13 2.938 5.813.997 1.11.996 2.343.109 3.817-1.272 2.115-3.015 3.791-5.009 5.21-4.219 3.002-8.994 4.625-14.019 5.617l-2.791.526c-.024.004-.04.047-.134.165.318.784.597 1.655 1.014 2.454.631 1.211.359 2.217-.535 3.124-1.704 1.73-3.75 2.966-5.933 3.966-4.798 2.197-9.837 3.258-15.124 3.374-5.767.126-11.371-.525-16.738-2.744-2.497-1.033-4.851-2.307-6.873-4.126-1.525-1.372-1.658-2.085-.844-3.971.296-.686.557-1.387.887-2.214l-2.945-.555c-6.026-1.225-11.681-3.3-16.214-7.636-1.324-1.266-2.283-2.913-3.41-4.385v-1.576c.187-.304.332-.647.569-.904 1.62-1.761 2.559-3.856 3.115-6.157.261-1.083 1.091-1.509 2.113-1.598 2.173-.19 4.785 1.284 5.787 3.236.579 1.128.511 1.697-.314 2.687l-2.293 2.766c2.955 2.718 10.925 5.819 14.181 5.552-.057-.088-.096-.178-.16-.243-8.558-8.707-12.433-19.372-12.696-31.383-.218-9.971-.048-19.949-.097-29.925-.005-.959.259-1.334 1.206-1.549 7.839-1.777 15.755-3.006 23.772-3.584 1.195-.086 2.385-.233 3.578-.351zM60.289 21.597v6.498c-.004 4.883-.075 9.761.748 14.61 1.435 8.447 4.853 15.917 10.673 22.234 5.91 6.415 13.248 10.697 21.175 14.076.277.118.71.056 1.001-.076 2.052-.933 4.122-1.837 6.118-2.88 6.629-3.466 12.544-7.844 17.185-13.795 6.379-8.178 8.993-17.639 9.15-27.836l.041-27.37c.001-.654-.116-.989-.851-1.119-5.014-.884-9.994-1.992-15.033-2.686-4.886-.673-9.82-1.096-14.747-1.341-6.062-.302-12.115.193-18.108 1.124-5.515.856-10.994 1.941-16.495 2.89-.714.123-.876.421-.872 1.101l.015 14.571zm33.634 59.712c4.404-.078 8.386-.977 12.206-2.641l-1.31-2.993-10.896 5.633zm-13.323-2.604c3.913 1.69 7.935 2.563 12.179 2.62l-10.949-5.627-1.23 3.008zm-11.556-7.24l.21.118-1.042 2.238 1.927.341c-.735-.83-.022-3.339.951-4.063-.985-.564-1.678-.206-2.222.729-.253.435-.617.805-.93 1.205l-.196-.065v-2.677l-1.651-.371c.852.896.13 1.562-.074 2.229s-.161 1.546-1.124 1.842l1.598.407c-.844-1.072-.01-1.701.282-2.431l.184 2.563.27.105 1.815-2.172zm-8.774-.688l.343-1.876c1.069-.346 1.393-1.203.595-1.84-.737-.588-1.627-.982-2.673-1.591.587 1.155-.518 3.524-1.591 3.903l1.868 1.017c-.649-.894.002-1.402.554-1.964.163.416.143.829.168 1.239.026.419.008.88.185 1.234.088.176.694.31.848.188.295-.233.435-.663.639-1.011l-.238-.141-.698.842zm49.651 12.466c-.376-.718-.865-1.364-.361-2.259.337-.597-.392-1.162-1.134-.885-.844.315-1.649.732-2.598 1.161 1.135.364.818 1.224.905 1.874.088.662.019 1.345.019 2.066l2.029-.848c-.904-.127-1.092-.367-1.054-1.14.01-.21.198-.412.304-.617.229.285.558.536.665.861.205.622.577.653 1.058.437.654-.294.734-.917.167-1.738v1.088zm22.342-24.061c.782-1.116 1.403-2.135 1.439-3.402.032-1.121-.508-1.702-1.629-1.769-2.102-.126-3.756.736-4.999 2.382-.466.617-.956 1.334-.449 2.151.312.502 1.5.423 2.35-.183.62-.442 1.148-1.012 1.773-1.575l1.515 2.396zM55.76 56.918c.929.613 1.74 1.26 2.654 1.696.375.179 1.161.068 1.409-.217.243-.279.18-1.004.008-1.436-.708-1.774-3.296-3.207-5.228-2.984-1.373.158-2.061 1.065-1.661 2.4.286.954.783 1.844 1.271 2.955l1.548-2.414zm47.812 26.956l-.515-.211c.164-.459.194-1.097.519-1.341.755-.566 1.176.073 1.599.678l-.148-1.508-3.582 1.025c1.024.431 1.202 3.261.263 4.26l3.873-1.101-.208-1.588c-.173 1.166-.743 1.779-2.098 1.733l.216-1.579.912.586-.122-2.313-.71 1.36zm-16.831-1.148c.842.725.888 1.199.451 2.523-1.029-.777-.647-2.922-2.784-2.854.877.737.353 1.498.257 2.188-.091.652-.364 1.28-.573 1.968l1.57.343c-1.286-1.019-.394-1.911-.451-2.939.937 1.055 1.051 2.434 2.088 3.244.708-1.393-.043-3.054 1.267-4.163l-1.825-.311zm-36.03-19.539l1.219 1.524.371-1.8.447.044c0 .444.026.891-.009 1.333-.025.318-.264.678-.171.931.139.377.487.677.746 1.009l.667-.959-.252-.168-.603.724c.224-.808.234-1.712.554-1.84 1.226-.493.809-1.321.473-1.976-.4-.778-1.053-1.425-1.597-2.128.155 1.041-.93 3.149-1.844 3.307zm39.98 24.367c1.215.008 2.053-.91 2.057-2.253.004-1.264-.773-2.162-1.899-2.196-1.118-.034-2.036.993-2.058 2.3-.021 1.258.761 2.142 1.9 2.15zM55.989 67.576l1.051-2.034-1.031.25.367-1.336c1.276.426 1.037 1.316 1.094 2.13l.69-1.295-2.797-2.321c.428 1.194-.78 3.524-1.806 3.737l2.796 2.306.68-1.442c-1.098.797-1.223.78-2.066-.341l.629-1.158.29.024.102 1.479zm25.991 16.066c.043.529.126.972.083 1.403-.011.114-.551.321-.604.264-.307-.34-.742-.738-.755-1.13-.022-.62.186-1.279.437-1.862.104-.242.595-.489.86-.444.274.046.551.411.709.701.15.274.146.631.21.951l.176-.005.365-1.438c-.288-.108-.544-.15-.733-.285-.748-.532-1.503-.646-2.254-.055-.706.556-.966 1.794-.578 2.707.367.861.992 1.349 1.981 1.295.28-.015.566.081.828.123l.782-1.781-1.508-.444zm30.293-3.815l-.29-.078c-.273-.663-.409-1.343.424-1.699.275-.117.695.104 1.089.178l-.353-1.213-2.932 2.208c1.285.079.837 1.08 1.005 1.681.188.668.122 1.407.166 2.104.58-.426 1.346-.963 2.082-1.538.905-.706.924-.983.125-2.062.209 1.161-.115 1.936-1.383 2.384l.112-1.648.808.311-.373-1.724c-.018-.08-.109-.143-.177-.227l-.304 1.322zm-33.067 2.154c-.005-1.377-.987-2.539-2.113-2.499-.87.031-1.506.856-1.517 1.967-.015 1.398.907 2.515 2.086 2.527.944.009 1.549-.772 1.545-1.994zm42.078-8.917l-.368-1.11 1.03-.277.23 1.091 1.556-.507-2.947-3.775c-.639 1.691.204 3.383-.671 4.954l1.17-.376zm-24.9 10.322c-.472-.088-.829-.187-1.191-.215-.727-.057-1.304.198-1.495.961-.171.68.035 1.231.713 1.533.208.093.46.114.636.245.289.213.552.472.769.755.027.034-.337.514-.461.49-.377-.075-.78-.233-1.068-.481-.224-.194-.291-.57-.428-.866l-.122.055v1.44l1.02.241c.861.204 1.56-.157 1.779-.936.242-.861-.137-1.38-.94-1.651-.186-.063-.401-.081-.553-.19-.245-.175-.503-.378-.639-.632-.044-.083.292-.529.426-.516a2.04 2.04 0 0 1 1 .381c.189.143.233.479.414.895.08-.307.131-.422.136-.539.012-.325.004-.65.004-.97zm30.97-12.889c.252-.189.395-.377.571-.416 1.201-.267 1.748-.883 1.608-1.891-.16-1.149-.961-1.009-1.783-.909-.233.028-.648-.118-.704-.28-.072-.209.058-.627.239-.747.216-.143.612-.156.867-.059.225.087.363.403.539.618l.152-.069-.369-1.411c-.33.131-.537.24-.758.296-.899.229-1.434.932-1.308 1.781.152 1.016.83 1.091 1.676.969.261-.038.728.112.795.291.082.219-.079.705-.276.81-.25.133-.672.075-.962-.043-.232-.094-.378-.4-.562-.612l-.152.071.427 1.601zm2.751-6.863v5.278l1.042-.854-.27.139c-.114-.226-.361-.485-.315-.671.095-.384.347-.728.534-1.089l.381.098v1.267l1.63-1.384c-1.463-.457-1.761-1.991-3.002-2.784zm-4.99 6.169c-.364-.744-1.659-1.084-.922-2.367l-1.968.871c.405.316.737.495.958.764.562.682 1.064 1.413 1.615 2.105.154.192.396.314.597.469l.315-.121v-4.741l-1.094.476c1.126.719.322 1.719.5 2.545zm-62.651 2.304l.297.175 2.93-3.554-1.159-.4c.332.781-.152 1.675-1.129 2.321.011-2.109.011-2.109.689-2.51l-1.736-.648.103 2.275c.017.78.004 1.559.004 2.339zm38.737 13.377l-.364-.167c-.052.11-.129.214-.152.329-.132.653-.528 1.206-1.166 1.042-.388-.1-.651-.746-.928-1.174-.097-.149-.114-.387-.088-.573.096-.693.015-1.543.899-1.775.86-.226.928.611 1.231 1.107.009.015.057.007.151.014v-1.54c-.464 0-.865-.012-1.266.003-.962.034-1.621.661-1.902 1.794-.247.993.043 2.101.83 2.385.55.198 1.326.197 1.834-.053.431-.211.624-.908.922-1.391zm17.735-16.143c-.27.079-.469.192-.664.185-1.315-.041-2.002.516-2.103 1.737-.108 1.309.719 2.491 1.836 2.624 1.244.148 1.996-.734 1.54-2.008-.064.256-.062.425-.142.537-.242.34-.481.876-.786.924-.324.051-.899-.285-1.05-.602-.283-.596-.407-1.295-.457-1.961-.02-.265.298-.748.527-.793.307-.059.715.156 1.009.358.223.152.334.467.495.709l.198-.105-.404-1.606zm14.489-8.932c-.174.207-.279.421-.45.52-.799.465-.951 1.207-.897 2.027.068 1.048.525 1.278 1.466.778.159-.085.341-.126.834-.302-.162.662-.139 1.279-.403 1.45s-.815-.107-1.275-.195l.564 1.36c.271-.227.482-.422.712-.593.702-.523 1.03-1.94.574-2.686-.581-.95-1.107-.072-1.654.08-.057.016-.124-.008-.476-.039l.481-1.693.912.751.126-.105-.514-1.352zM74.996 80.896c-.938.914-1.616.728-1.793-.431-.104-.682.057-1.418.189-2.113.044-.233.365-.413.559-.617.226.218.557.398.654.664.167.461.188.975.271 1.466l.13.016.357-1.354c-.357-.379-.625-.698-.928-.978-.707-.654-1.51-.476-1.892.401-.478 1.098-.089 2.831.815 3.629.743.657 1.26.494 1.638-.684z"/><path d="M72.137 50.028l3.678-2.348c.188-.124.373-.391.394-.608l.3-3.952-6.324 4.002.308.908c-.98 1.112-2.215 1.718-3.675 1.833-1.511.119-1.929-.51-1.287-1.864.634-1.336 1.797-2.025 3.129-2.561l.758.658 6.798-4.324c.803-.522.737-2.42-.065-2.931l-7.213-4.578c-.241-.152-.541-.352-.79-.323-2.125.245-3.794-.743-5.408-1.915l-1.235-.824 1.046-.826c-.239-.304-.643-.592-.671-.913-.027-.309.334-.652.542-1.009l.673.375.576.278.446-1.322 3.497 2.258c.383.27.77.707.892 1.142.395 1.407 1.484 2.058 2.612 2.741l4.98 3.148c.238.15.495.27.824.446l.244-3.393c.006-.275-.245-.657-.491-.821l-5.127-3.276c-.26-.162-.617-.285-.911-.254-2.58.267-4.3-1.395-6.327-2.684l1.159-.869c-.793-.483-1.269-1.002-.287-1.705l1.152.612.385-1.355c1.786 1.255 3.999 1.856 4.846 4.185.161.444.562.87.963 1.142l4.059 2.579c.21.131.435.237.733.398l.245-3.512c.007-.288-.219-.689-.463-.858l-2.985-1.89c-.214-.129-.498-.256-.727-.224-1.669.232-3.073-.356-4.386-1.309l-1.962-1.296 1.136-.891-1.04-.779.56-.875 1.236.653.38-1.348c1.914 1.258 4.204 1.959 4.963 4.46.091.3.421.572.704.762l2.721 1.718.143-1.16h1.066l.142-.779h1.034c-.096-.324-.096-.714-.255-.795-1.641-.844-2.894-2.397-5.049-2.312-2.127.083-3.547-1.561-5.305-2.626l1.157-.815c-.594-.497-1.443-.963-.217-1.714l1.073.579.458-1.317c1.878 1.271 4.158 1.931 4.902 4.401.092.306.395.604.676.787l4.966 3.169c1.044.68 2.105.183 3.145.082 1.753-.17 3.526-.769 5.232-.599 1.886.188 3.7.031 5.556-.031 1.541-.051 3.11.31 4.645.603 1.586.302 3.022.209 4.338-.853.657-.531 1.415-.945 2.148-1.376 1.189-.7 2.324-1.403 2.757-2.869.135-.458.577-.897.989-1.187l3.362-2.151.441 1.309c.696-.303 1.479-.943 1.811.409l-.96.726 1.156.842c-1.703 1.061-3.085 2.614-5.161 2.62-1.343.004-2.391.456-3.425 1.17l-1.803 1.185c-.305.246-.468.669-.671.976l1.413.667-.087.267h1.099l.203.957 3.267-2.08a1.03 1.03 0 0 0 .391-.532c.466-1.604 1.625-2.56 3.01-3.328l1.926-1.16.399 1.271c.646-.154 1.456-1.046 1.822.406l-.923.767 1.132.853c-1.971 1.213-3.563 2.885-6.053 2.647-.411-.039-.896.142-1.267.357l-3.055 1.958a1.7 1.7 0 0 0-.606 1.16c-.03 1.009.1 2.023.177 3.183l1.466-.872 2.573-1.627c1.136-.634 2.056-1.366 2.554-2.673.253-.664.981-1.204 1.597-1.659.854-.63 1.805-1.128 2.789-1.728l.423 1.332 1.165-.611.717.881-1 .829 1.117.834c-1.923 1.291-3.613 2.89-6.142 2.718-.387-.027-.843.118-1.181.325l-5.379 3.424c-.29.195-.51.704-.517 1.072-.021 1.036.086 2.073.153 3.284l6.795-4.285c.887-.543 1.551-1.17 1.987-2.169.306-.701.963-1.311 1.592-1.793.898-.688 1.914-1.222 2.913-1.844l.419 1.254c1.297-.496 1.297-.496 1.854.386l-.489.414-.501.405 1.232.849c-1.865 1.024-3.246 2.64-5.44 2.613a4.44 4.44 0 0 0-2.646.783l-6.869 4.378c-.99.63-.989 2.072.003 2.704l7.171 4.54c.513-.889 1.098-.567 1.742-.213 1.075.592 1.901 1.374 2.279 2.572.232.738.038 1.239-.78 1.338-1.652.201-3.012-.461-4.153-1.573-.182-.177-.025-.702-.025-1.195l-6.706-4.245.278 4.016c.017.183.206.403.375.513l4.369 2.787c.535-.843 1.149-.561 1.819-.185.978.548 1.749 1.271 2.162 2.323.378.963.107 1.469-.907 1.535-1.559.102-2.878-.536-3.948-1.627-.168-.171.021-.691.055-1.208l-3.734-2.356.002 1.924c.018 1.298-.064 1.369-1.324 1.078l-.462-.122-.138.209 1.862 1.199 1.959 1.227.778-.621c1.358.524 2.575 1.235 3.198 2.671.513 1.184.173 1.748-1.122 1.751-1.407.003-2.619-.566-3.609-1.527-.212-.205-.118-.725-.198-1.355-2.195-1.378-4.512-3.153-7.099-4.338-1.583-.725-3.579-.561-5.393-.764-.53-.059-1.071-.009-1.607-.009l-.061.309 12.519 7.94c.527-.901 1.125-.554 1.77-.2 1.173.644 2.036 1.518 2.361 2.856.151.62-.021 1.158-.684 1.117-1.044-.065-2.105-.226-3.101-.534-.589-.182-1.068-.725-1.615-1.12l.378-.955-6.182-3.924-6.228-3.928c-.338-.206-.824-.206-1.246-.232a90.37 90.37 0 0 0-3.302-.137c-.308-.008-.68-.034-.919.116l-12.621 7.979.375.867c-1.15 1.202-2.488 1.916-4.177 1.821-1.067-.06-1.317-.455-.965-1.478.502-1.457 1.639-2.259 2.987-2.776.256-.098.665.203 1.224.396l12.546-7.951c-.414-.094-.609-.185-.797-.172l-5.768.442c-.344.031-.706.181-1.003.366L75.4 55.173c.568.914-.055 1.371-.693 1.791-1.095.722-2.275 1.195-3.6.808a1.08 1.08 0 0 1-.612-.787c-.035-1.305 1.975-3.423 3.238-3.43.266-.001.532.31.926.558l3.504-2.227-.094-.235-2.024.469v-3.036l-3.272 2.053c.6.849.068 1.259-.568 1.71-1.034.732-2.147 1.084-3.408.983-.796-.064-1.104-.44-.883-1.243.447-1.62 1.663-2.463 3.108-3.017.245-.094.661.259 1.11.454zm8.454-25.43l-1.555 23.479c.203.059.368.162.515.141l3.67-.562c3.344-.693 6.657-1.038 9.912.43.268.121.678-.044 1.015-.111 1.403-.277 2.812-.831 4.204-.789 2.004.059 3.993.563 5.992.848.787.112 1.585.146 2.668.24l-1.533-23.625c-2.243.547-4.289-.065-6.383-.451-1.35-.249-2.78-.153-4.168-.077-.852.046-1.212.596-1.215 1.55l-.176 20.666-.068 1.168c-.193-.27-.259-.32-.259-.37l-.059-21.75c0-.717-.26-1.209-.917-1.279-1.088-.115-2.214-.241-3.283-.083-2.734.405-5.408 1.394-8.36.576zm-.552.629l-.444-.077c-.071.25-.187.496-.206.749l-1.704 22.853c-.051.664.203.826.77.756l3.981-.515c3.576-.689 7.129-1.055 10.664.219a1.42 1.42 0 0 0 .943-.043c2.204-.927 4.482-.827 6.77-.515l6.503.952c.724.105.949-.16.899-.934l-.942-16.004-.406-6.954-.217-.141c-.163.184-.412.346-.467.558-.08.307-.036.652-.017.979l1.086 17.867c.071 1.23.011 2.468.011 3.924-1.214-.158-2.319-.223-3.387-.456-3.367-.735-6.72-1.13-10.08.021-.17.058-.395.038-.572-.017-3.516-1.087-7.05-.815-10.598-.187-1.301.23-2.616.378-4.029.578l1.439-23.614zm38.792 7.742l-.028-.38c2.4 1.336 3.638-.638 5.388-1.537l-1.149-.904 1.178-.92-.157-.222-1.352.707-.408-1.357-2.707 1.702c-.475.3-.851.626-.778 1.302.035.323-.182.674-.332 1.172l-.171-.41c-.528.482-1.006 1.047-1.599 1.437l-6.702 4.282c-.267.171-.499.396-.748.595l.168.22c.265-.151.536-.293.794-.456l5.967-3.793c1.038-.677 2.044-1.379 3.383-1.153l-.748-.286zm-51.864.284c1.254-.172 2.259.344 3.274 1.03 1.871 1.265 3.808 2.434 5.719 3.638.25.157.516.286.776.429l.157-.243c-.261-.2-.508-.42-.784-.595l-5.476-3.472c-.974-.625-2.139-1.077-2.427-2.429l.107.755c-.66-.721-.246-1.931-1.417-2.421-.904-.379-1.695-1.028-2.566-1.576l-.425 1.336-1.364-.697-.15.256 1.225.88-1.17.913c1.744.954 3.043 2.81 5.412 1.553l-.046.361-.844.282zm41.992-.356l.207.284 4.604-2.901c.828-.493 1.734-.857 2.539-1.247a25.22 25.22 0 0 0-.171-.126c2.379.986 3.66-.956 5.413-1.865l-1.17-.894 1.199-.925-.159-.239-1.341.723-.444-1.337c-.877.542-1.661 1.158-2.545 1.541-1.16.502-.799 1.65-1.222 2.522l-.266-.224c-.487.449-.881.917-1.37 1.243-1.496.997-3.03 1.936-4.545 2.904-.255.163-.487.36-.73.542zm-38.057-4.524c-.097-2.528-2.346-2.845-3.902-4.009l-.46 1.321-1.366-.688-.136.218 1.209.947-1.155.858 2.174 1.426c.743.494 1.471.967 2.414.422.205-.119.525-.039.97-.059l-.3.221c.75.365 1.594.709 2.37 1.168 1.325.783 2.607 1.64 3.912 2.459.16.101.35.153.527.228l.127-.203c-.238-.187-.462-.394-.716-.557-1.351-.867-2.742-1.677-4.049-2.606-.548-.39-.921-1.026-1.374-1.551-.05-.058-.098-.119-.187-.227l-.06.633zm-.649-9.405c1.763.898 3.022 2.878 5.52 1.572l-.28.597c2.467.305 3.976 2.545 6.322 3.068-1.457-1.032-2.97-1.968-4.453-2.951-.33-.219-.675-.554-.807-.911-.776-2.101-2.573-3.009-4.388-3.979l-.43 1.25-1.34-.641-.123.229 1.19.907-1.213.859zm34.864 5.192c.307-.115.64-.187.916-.353.927-.555 1.809-1.19 2.754-1.708 1.178-.645 2.263-1.723 3.821-1.011.136.062.391-.052.553-.148l3.219-1.956-1.195-.886 1.176-.938-.145-.202-1.343.666-.441-1.339c-1.544 1.202-3.836 1.49-3.868 4.046l-.152-.362c-1.244 2.027-3.709 2.516-5.296 4.19zm8.468.808l-.069-.388c2.423 1.217 3.699-.651 5.429-1.595l-1.16-.889 1.193-.911-.151-.223-1.365.664-.416-1.304-2.056 1.256c-.797.493-1.659.931-1.52 2.119.026.22-.132.461-.231.772l-.297-.442c-.929 1.791-3.088 2.068-4.209 3.557.362-.074.65-.252.945-.416 1.559-.864 2.847-2.394 4.913-2.009l-1.007-.191zM77.51 27.441l.189-.279c-.805-.517-1.589-1.069-2.419-1.541-.769-.438-1.38-.97-1.613-1.856-.009-.035-.085-.053-.16-.096v.638c-.086-2.551-2.398-2.813-3.914-4.022l-.444 1.356-1.355-.683-.156.248 1.216.887-1.15.908c.916.589 1.799 1.048 2.551 1.667.92.756 1.878-.085 2.798.288l-1.004.225c2.33-.471 3.641 1.537 5.461 2.26zm13.173 23.056l-.227-.32-13.167 8.332c-.43-.213-.771-.534-1.084-.508-1.003.083-2.583 1.685-2.721 2.716-.031.236.157.664.348.738 1.187.464 3.344-.448 4.104-1.745l-3.095 1.145-.126-.321 4.117-2.373c1.342-.812 2.65-1.682 3.975-2.523l4.058-2.573c1.276-.847 2.687-1.524 3.817-2.567zm18.103 9.244c.957 1.327 2.236 1.886 3.803 1.77.667-.049.824-.495.518-.941-.524-.764-1.123-1.502-1.803-2.128-.58-.533-1.312-.794-1.86.193l-13.149-8.317-.231.37 15.75 9.904-.084.246-2.944-1.097zm.786-18.105c-.025.251-.074.403-.039.427l10.117 6.539-.05.188-2.987-1.115c.955 1.332 2.23 1.898 3.784 1.786.643-.046.912-.463.537-1.003-.512-.735-1.078-1.457-1.739-2.055-.598-.541-1.352-.872-1.909.107l-7.715-4.874zm-42.597 7.103l-.08-.297 3.396-1.935c1.122-.67 2.24-1.351 3.316-2.091 1.021-.702 2.254-1.148 3.056-2.131l-.201-.274-6.97 4.399c-.519-.199-.944-.533-1.215-.436-1.249.445-2.185 1.295-2.648 2.574-.169.468-.024.807.538.919 1.253.249 3.103-.541 3.952-1.881-.676.297-1.153.536-1.652.717-.486.176-.994.293-1.492.436zm5.246 8.129l-.117-.281 8.945-5.474-.224-.387-3.13 1.85-3.036 1.911c-.489-.225-.846-.547-1.132-.494-1.336.249-2.6 1.784-2.761 3.218 1.436.737 4.09-.161 4.379-1.485l-2.923 1.141zm39.973-2.283c-2.266-1.194-4.122-2.897-6.452-3.75l-.166.278 8.991 5.499-.114.256-3.146-1.192c.965 1.573 3.223 2.26 4.597 1.491-.191-1.329-.999-2.194-2.117-2.858-.625-.371-1.183-.619-1.593.275zm2.575-4.022l-4.711-2.952-.224.346c2.268 1.748 4.818 3.082 7.313 4.497l-.157.331-3.075-1.119c.914 1.337 2.913 2.155 4.127 1.731.189-.066.392-.559.332-.787-.283-1.069-1.031-1.782-1.964-2.341-.621-.372-1.182-.635-1.642.296zm-42.885-.014c-.518-.944-1.172-.651-1.784-.199-.469.346-.977.707-1.285 1.181-.314.484-.404 1.113-.593 1.678.563.075 1.144.277 1.686.199 1.107-.16 2.078-.65 2.937-1.809l-3.231 1.184-.133-.334 2.342-1.316a61.14 61.14 0 0 0 2.354-1.412c.718-.461 1.408-.967 2.11-1.453l-.241-.334-4.161 2.614zm20.384-38.883c-2.575.737-3.311.716-3.4-.135-.851.157-1.86.324-2.181-.675-.221-.689-.172-1.67.172-2.289.552-.995 1.572-.608 2.588-.158l-.394-.845.965-.282c-.372-.98-.423-1.872.721-2.461l.352.547c.263-.667.378-1.597.901-2.117.646-.643 1.656-.53 2.497-.102.994.506.866 1.432.744 2.556l.599-.848c1.106.636 1.225 1.042.698 2.455l1.1.198-.621.899c1.052-.465 1.992-.853 2.765.024.624.707.596 1.588.196 2.403-.459.933-1.348.75-2.157.706-.23.996-.993.616-1.562.566-.631-.055-1.25-.252-1.91-.395.793 1.922 3.078 2.238 5.562.78.729 1.231 1.842 1.897 3.272 1.92.954.015 1.843-.256 2.762-1.152-1.413.27-2.552.292-3.61-.541l.728-.589c-.806-.261-1.67-.396-1.643-1.446.024-.928.547-1.555 1.364-1.86.916-.343 1.742-.167 2.341.783l.099-1.338 2.005 1.129c.635-1.841 2.036-2.664 4.231-2.332l-.716 1.229c1.347-.393 2.587-.702 3.28.781.357.764.081 1.475-.813 2.239-.882-1.144-2.052-1.264-3.325-.808-.651.233-1.105.603-1.019 1.458.033.332-.342.751-.615 1.054-.298.33-.801.505-1.024.866-.599.971-1.351 1.867-1.16 3.2.088.613-.486 1.296-.5 1.952-.039 1.711-.114 1.924-1.867 2.293-3.675.773-7.414.93-11.14.763-3.42-.153-6.828-.604-10.237-.959-.439-.046-.876-.266-1.275-.478-.41-.217-.67-.538-.296-1.032.108-.143.203-.372.17-.534-.408-2.001-.496-4.116-1.949-5.759-.116-.13-.313-.225-.487-.26-.726-.146-.953-.559-.848-1.282.036-.249-.121-.617-.314-.794-1.176-1.076-2.557-1.035-3.963.068-.732-.607-1.042-1.572-.601-2.228.782-1.162 1.877-.918 3.149-.382l-.67-1.337c1.986-.414 2.758.059 4.252 2.587.457-.722.965-1.355 1.972-1.193l.094 1.221c.634-.915 1.303-1.394 2.234-.883.777.426 1.376 1.035 1.371 2.002-.007 1.166-1.055 1.019-1.828 1.334l.887.679c-.703.192-1.215.389-1.743.459-.535.071-1.085.016-1.637.016 1.266 1.773 4.123 1.384 5.72-.819 1.192.833 2.516 1.278 3.928.711.712-.286 1.318-.84 1.972-1.272l-.184-.293zm-10.903 8.122l.053.56c.695.204 1.379.469 2.086.604 5.696 1.082 11.435 1.023 17.178.54 1.286-.108 2.554-.485 3.817-.792.235-.057.407-.372.609-.568-.198-.19-.366-.435-.599-.557a4.51 4.51 0 0 0-1.1-.396c-6.298-1.411-12.626-1.41-18.962-.311-1.049.182-2.056.607-3.082.92zm13.32-4.426c-1.245-1.609-2.024-1.618-2.91-.036 1.283 1.418 1.554 1.421 2.91.036zm18.758-5.006c.403-.805.197-1.602-.63-1.931-.998-.396-2.011.026-2.274.787l2.904 1.144zM75.99 9.301c-.355-.843-1.363-1.258-2.281-.812-.778.378-.963 1.162-.54 1.879l2.821-1.067zm10.587 7.536l.194-.184c.384-.051.801-.029 1.14-.18.22-.098.466-.462.446-.684-.019-.205-.359-.502-.591-.538-.367-.056-.767.051-1.145.129-.397.082-1.077-.063-.886.66.084.317.549.534.841.796zm12.692-.225c.326.014.445.057.516.016.281-.162.546-.35.818-.529-.225-.227-.412-.556-.684-.659-.413-.155-.894-.235-1.328-.184-.246.029-.568.347-.641.597-.045.156.27.523.499.626.311.139.694.116.82.132zm4.103-.16l-.071.318 2.176 1.471.173-1.994c-.457-.014-.917-.063-1.372-.032-.306.021-.605.154-.907.237zm-19.988.104c-.913-.154-1.499-.282-2.093-.336-.164-.015-.499.192-.498.293.008.47.088.943.195 1.402.014.061.389.134.5.059.566-.384 1.101-.815 1.895-1.419zM93.431 5.091l-.129.004v3.313l.129-.002V5.091zm1.473 50.573c3.985.573 5.474 1.585 6.578 4.462l3.13.64-1.052 1.176-.816 1.069c1.529 2.057.485 6.964-2.308 8.681l.231 3.071-2.755-1.078c-2.291 1.915-7.091 1.705-9.289-.46-.307.124-.651.184-.884.378-.256.213-.41.55-.498.675l-1.593.392.463-3.097c-2.64-1.832-3.58-5.014-2.485-8.655l-2.115-2.232c.785-.141 1.558-.048 1.843-.378.613-.711 1.062.164 1.562-.051 1.108-3.292 3.777-4.416 6.787-4.908l1.47-2.764 1.731 3.082zm2.4 14.728c1.834 1.72 2.966 1.612 4.282-.489.967-1.543 1.37-3.257 1.284-5.058-.084-1.749-1.212-2.548-2.935-2.201-.156.031-.323.004-.633.004l.555-.327c1.578-.955 1.747-1.772.62-3.263-1.079-1.427-2.487-2.396-4.221-2.864-1.71-.461-2.317-.187-3.005 1.32-.494-1.816-1.141-2.245-2.893-1.467-1.379.612-2.665 1.492-3.867 2.416-.548.421-1.012 1.205-1.112 1.883-.09.612.369 1.304.558 1.875-1.449-.25-2.217.405-2.248 2.135l.023 1.573c.181 1.639.485 3.249 1.649 4.524 1.044 1.143 2.197 1.177 3.34.144l.501-.434c-.934 2.204-.51 3.385 1.692 3.821 1.718.34 3.574.301 5.323.074 1.574-.204 2.082-1.622 1.402-3.096-.091-.197-.209-.381-.315-.572zm-38.02-2.418l.602-1.231c.683.151 1.046.49.792 1.107-.282.687-.794.477-1.395.124m48.362 14.297c-.086-.638-.516-1.262.333-1.589.171-.066.63.132.664.277.17.732-.255 1.095-.997 1.312m24.538-24.008l-1.464-2.286.309.451-2.101 1.469c-.378.238-.812.442-1.247.522-.644.118-1.001-.084-.753-.873.601-1.919 3.56-3.653 5.46-3.057.383.12.902.742.867 1.082-.096.93-.454 1.832-.708 2.745l-.364-.053m-77.974.282l-.915-2.388c-.248-.946.234-1.579 1.2-1.759 1.769-.329 4.407 1.169 5.041 2.864.309.827-.033 1.316-.839 1.017-.73-.272-1.366-.824-2.006-1.304-.271-.203-.446-.536-.799-.978l-1.681 2.547m-.97 2.81c.608.551.787 1.055.356 1.62-.062.081-.446.043-.564-.066-.673-.622.071-.978.208-1.554"/><path d="M89.757 85.412c.07-.311.09-.795.293-1.183.158-.301.548-.666.828-.661.261.004.693.436.734.724.094.658.091 1.368-.066 2.009-.083.336-.576.572-.884.853l-.847-1.022c-.094-.139-.037-.381-.058-.72m-13.425-3.347c.163-.535.279-1.082.505-1.579.102-.223.448-.504.641-.476.263.039.694.355.689.543-.025.883-.036 1.811-.323 2.628-.221.63-.833.375-1.153-.08-.194-.275-.235-.659-.359-1.036m18.133-42.892v-6.512c.448-.108 1.145-.378 1.847-.394.278-.006.688.504.833.863.783 1.935.757 3.871-.503 5.585-.33.45-1.16.531-1.761.782l-.416-.323zm1.288-6.279c-.136.27-.313.462-.321.662l-.097 4.622c.003.258.344.512.545.789 1.332-1.406 1.258-4.868-.127-6.073zM80.827 39.55c-.296-2.339.233-4.531-.188-6.925l1.067.097c.086.007.205.018.259-.029.94-.815 1.221.048 1.446.645.762 2.017.429 3.952-.825 5.651-.283.384-1.105.369-1.759.561zm1.295-6.501c-.167.222-.368.365-.377.52l-.228 4.894c-.004.152.255.406.425.44.16.032.421-.122.541-.271.842-1.041.664-4.368-.362-5.583z"/><path d="M92.663 38.674c-.465.122-.986.431-1.371.309-.371-.117-.761-.641-.86-1.055a3.08 3.08 0 0 1 .562-2.687c.281-.364.587-.677 1.026-.234.378.383.909.769.317 1.384-.157.164-.346.298-.505.461-.311.32-1.038.522-.605 1.107.25.338.832.43 1.436.714m5.302-1.722l.059-.405c.154-.951.848-1.824 1.421-1.79.615.037 1.217 1.072 1.151 2.059-.024.351-.074.769-.278 1.025-.363.457-.851.813-1.287 1.211l-.997-1.535c-.09-.154-.05-.384-.068-.565zm1.508 1.51c.778-.908.491-2.46-.523-3.101-.611.92-.425 2.133.523 3.101zm4.742-1.181c.104 1.006.394 1.238 1.43 1.151-.739.916-1.563.823-2.053-.233-.447-.961-.168-2.214.637-3.084.368-.398.71-.49 1.04-.031.32.447.915.926.22 1.494-.371.304-.851.475-1.279.703.137-.176.254-.368.409-.52.525-.512.434-.926-.405-1.481v2.001m-17.839-2.1c-.396.729.114 1.027.623 1.358.821.535.942 1.732.14 2.252-.333.215-.94.034-1.413-.034-.052-.007-.039-.462-.056-.709l.25-.045c.124.171.214.423.38.492.221.091.501.038.756.046-.008-.285.068-.613-.049-.842-.101-.198-.431-.271-.642-.423-.723-.522-.877-1.222-.449-1.97.503-.879.874-.882 1.597.185l-1.137-.311"/><path d="M103.006 35.909l-1.145-.299c-.721.945-.205 2.623 1.028 2.931-.591.723-1.137.683-1.607-.119-.666-1.135-.278-2.667 1.002-3.692l.826.878-.105.3m-13.741-1.096l.869.752-.076.294-1.087-.177c-.739 1.234-.296 2.675.959 2.84-.635.76-1.263.705-1.692-.149-.581-1.157-.223-2.396 1.027-3.56m-4.551 4.295l-.396-4.056 1.035-.387-.395 4.454-.243-.011m19.046-18.908l-.385.232c-.407-.299-.655-.635-.936-.664l-8.183-.751c-3.335-.149-6.67.013-9.945.761-.311.071-.572.359-1.017.651.03.016-.177-.092-.476-.247.171-.154.25-.284.353-.31 1.233-.298 2.455-.716 3.706-.844 5.06-.516 10.12-.533 15.15.359.591.105 1.159.336 1.738.51l-.006.304m-6.328 46.321l1.622 2.071-.124.104-2.238-2.468c-.636 1.474-1.734 2.072-3.173 2.288l.767 1.714-.086.061-.664-.952v3.009h-.227v-2.647l-.207-.048-1.329 2.038-.134-.07 1.622-3.053c-1.458-.4-2.761-.777-3.322-2.294l-1.202.755.116-.546-2.789.49-.018-.126 3.669-1.03c.089-.615.091-1.32.312-1.947.211-.596.652-1.111 1.02-1.707l-.788-.534.809-.731.298.804h3.799l.363-2.69.181.013-.198 2.597 1.738-2.455.179.128-1.55 2.306 2.444-.833.05.132-2.794 1.25c1.038 1.069 1.526 2.204 1.245 3.643l.958.107-.154.254 1.074.451c.469.166.95.3 1.374.625l-2.644-.713zm-4.151-.822c.267-.377.52-.583.536-.808.01-.147-.314-.435-.501-.445-.175-.01-.517.264-.515.409.003.224.237.445.48.844zm.314 7.325c.497-.087 1.077-.268 1.66-.277 1.395-.022 1.532-.121 1.69-1.468.019.386.168.835.019 1.138-.136.278-.572.467-.913.569-.296.088-.659-.066-.968 0-.55.119-1.082.323-1.734.526-.322-.669-1.11-.706-1.949-.576-1.204.187-2.097-.608-1.382-1.918.069.4-.008 1.061.276 1.31.313.275.962.146 1.455.243l1.846.452"/><path d="M101.415 67.241l.232.219c-.423.555-.864.989-1.125 1.512-.277.554-.167 1.493-1.021 1.442-.656-.039-1.286-.51-1.927-.789l.141-.325c.065.021.146.025.193.066 1.449 1.257 1.73 1.146 2.408-.675.206-.552.741-.982 1.125-1.468l-.025.018m-16.149.186h-.626c.714-.805.459-1.506.083-2.26-.594-1.192-.141-1.819 1.452-1.794l-.726.27c-.565.122-.828.495-.587.995.44.911.696 1.813.384 2.811l.02-.022m6.985-9.625c-.583-1.228-.991-1.319-1.89-.372-.47.495-.932.902-1.688.691-.105-.03-.27.158-.419.251v-.591c.991.481 1.542-.197 2.197-.722.314-.252.855-.487 1.181-.382.351.113.571.633.849.976l-.23.149m6.012.232c-.126.797.416 1.205 1.115 1.538.5.238 1.143.412.956 1.403-.298-1.468-2.344-1.124-2.295-2.623l-1.515-.49.04-.146 1.699.319"/><path d="M85.247 67.449c.28.379.674.719.818 1.144.5 1.474.819 1.661 2.289 1.32-.461.127-.965.428-1.37.329-.368-.091-.702-.577-.919-.963-.327-.583-.538-1.232-.799-1.852l-.02.022m16.194-.226c-.028-.505-.176-1.039-.062-1.51.393-1.628.168-1.979-1.382-2.153.461.05 1.049-.054 1.348.192s.42.845.406 1.283c-.023.738-.215 1.471-.335 2.206l.025-.018m51.414 10.553c1.317.459 1.053 1.361 1.288 2.007.72 1.983 1.557 3.865 4.005 4.143 1.484.169 2.798-.186 3.232-1.817.415-1.559-.329-2.691-1.741-3.294-1.061-.453-2.206-.71-3.311-1.062-3.148-1-4.464-3.262-3.408-5.847 1.011-2.474 4.092-3.476 6.79-2.187.717.342 1.333 1.266 2.008-.199.289-.628.81-.057.82.492l.004 4.922c-.003.353-.104.705-.535.723-.46.019-.466-.381-.564-.703-.279-.91-.469-1.87-.9-2.705-.813-1.577-2.199-2.188-3.945-1.852-1.188.229-1.966.951-2.131 2.181-.153 1.142.327 2.078 1.36 2.519 1.248.532 2.568.904 3.874 1.288 1.792.526 3.379 1.309 3.704 3.364.288 1.819-.302 3.414-1.843 4.488-1.732 1.208-3.574 1.137-5.431.217-.825-.409-1.65-1.7-2.517.059-.221.448-.744.138-.75-.396l-.008-6.34M164.8 55.648c-.022 2.582-.808 4.862-2.932 6.439-2.093 1.554-4.461 1.771-6.721.487-2.751-1.563-3.674-4.23-3.748-7.259-.003-.135.031-.27.044-.406.444-4.615 3.343-7.688 7.058-7.476 3.64.207 6.339 3.73 6.299 8.215zm-2.48.221c-.001-2.02-.205-3.773-1.127-5.35-1.487-2.54-4.688-2.633-6.079-.043-1.672 3.112-1.63 6.409-.213 9.632.601 1.368 1.826 1.98 3.301 2.006 1.538.027 2.537-.818 3.21-2.125a8.42 8.42 0 0 0 .908-4.12zm72.063 13.046c.761 1.119.29 2.368.322 3.548l.004 8.588c-.039 1.59.015 2.989 2.553 3.043-1.467.949-2.763.993-3.579.433-.928-.637-1.399-.539-2.215 0-1.036.684-2.228.553-3.346.114-2.452-.963-3.635-4.219-2.63-7.153.978-2.853 3.259-4.154 6.021-3.251.927.303 1.074.092 1.051-.714-.013-.477-.047-.959.003-1.431.178-1.671-.323-2.655-2.229-2.421-.4.049-1.105.206-1.014-.56.064-.535.654-.352 1.022-.353l3.263.075c.226.329.483.357.772.081zm-1.66 10.575c-.026-2.646-1.074-4.522-2.551-4.566-1.545-.045-2.782 2.041-2.74 4.622.041 2.533 1.072 4.246 2.584 4.29 1.634.048 2.734-1.717 2.708-4.346zm-69.036-10.143c1.794-.872 3.073-.602 4.286-.507.732.058.479.861.488 1.359l.011 4.846c.772.132 1.049-.476 1.522-.693 2.625-1.208 5.071.252 5.142 3.116l.005 3.276c0 2.581-.001 2.581 2.054 4.02-1.9 0-3.8.033-5.698-.03-.346-.012-.454-.482-.112-.767.136-.113.389-.079.586-.124 1.264-.292 1.049-1.355.949-2.155-.262-2.095.951-4.517-.863-6.206-.658-.613-2.106-.508-2.837.931-1.064 2.094-.654 4.266-.729 6.42-.042 1.217 1.24.787 2.058 1.651h-6.22c2.456-.395 1.965-2.256 1.978-3.81l.009-7.78c-.005-1.577.412-3.397-2.631-3.545m.714-58.793c-1.234-.51-.801-1.415-.987-2.069-.262-.918-.353-1.913-1.168-2.549s-1.836-.666-2.73-.381c-.851.271-.426 1.188-.435 1.806l-.048 8.806c-.071 1.78.339 2.801 2.345 2.51.33-.048.647.077.933.674h-8.599c.132-.299.192-.515.232-.512 2.982.261 2.926-1.646 2.828-3.773l-.06-7.576c-.022-.69.585-1.828-.699-2.009-1.156-.163-2.364-.087-3.02 1.178-.45.867-.548 1.82-.631 2.776-.035.4-.018.923-.551.943-.585.022-.487-.518-.523-.905-.006-.067.004-.137 0-.204-.302-4.904-.302-4.904 4.634-4.904l7.162.005c.582.002 1.355-.209 1.419.707.125 1.79.165 3.585-.102 5.476"/><path d="M178.797 19.007c-2.063.702-4.843.7-6.868.028 2.532-.216 2.225-1.817 2.204-3.283l-.01-3.691c-.008-.774-.118-1.561-.92-1.908-.918-.397-1.737-.038-2.444.582-1.241 1.088-1.987 5.938-1.264 7.398.378.763 1.322.278 1.657.96-1.301.591-3.964.657-6.582-.013 3.187-.254 2.601-2.206 2.611-3.854l.01-6.768c.02-1.612.354-3.358-2.724-3.529 1.819-.81 3.026-.515 4.184-.524.819-.007.678.702.685 1.22l.006 4.284c.875.073 1.248-.638 1.862-.876 2.76-1.071 5.024.364 5.075 3.282l.007 3.076c.018 1.603-.587 3.542 2.511 3.616m-24.728 7.103c1.02-.05 2.15-.312 1.047 1.397-.387.598-.214 1.586-.221 2.396l.023 7.173c.081 1.851 1.114 3.084 3.015 3.3 1.813.206 3.39-.452 3.867-2.288.869-3.344.425-6.795.287-10.189-.059-1.464-1.858-.612-2.666-1.154-.015-.891.593-.696 1.009-.705 1.228-.027 2.46-.06 3.684.012.612.037 1.642-.451 1.758.393.126.917-.918.384-1.418.537-.969.296-.956 1.03-.956 1.795l-.007 7.174c-.046 3.692-2.007 5.694-5.498 5.662-3.549-.032-5.483-2.016-5.488-5.636-.004-2.391-.069-4.786.024-7.173.052-1.329-.473-1.897-1.734-1.92l-.708-.464c.992-.786 2.109-.279 3.175-.308.271.373.539.369.807-.003m11.034 14.495c2.329-.034 2.363-1.458 2.233-3.048-.078-.95.003-1.912-.008-2.869-.017-1.554.502-3.407-2.097-3.746 1.529-.047 3.053-1.372 4.24.482.416.65.607.115.901-.055 3.457-1.997 5.851-.622 5.851 3.357l-.012 3.074c-.127 1.506.032 2.746 2.143 2.751-1.286.879-3.871 1.004-6.527.337 2.24-.524 2.361-1.935 2.211-3.533-.147-1.558.306-3.178-.218-4.681-.465-1.333-1.584-1.13-2.539-.564-1.075.637-1.764 1.822-1.564 2.926.337 1.859-1.722 4.457 1.531 5.539.287.095.156.688-.296.697l-5.586.014-.263-.68m35.51 43.949h-6.149c1.922-.646 1.916-2.067 1.825-3.604-.076-1.294-.014-2.597-.014-3.895 0-.342-.092-.711.005-1.021.425-1.353-2.712-.613-1.322-1.68.994-.763 1.093-1.387 1.258-2.277.645-3.48 4.806-5.157 7.685-3.1.652.465 1.108 1.027 1.068 1.861-.049 1.025-.493 1.772-1.633 1.612-.987-.138-1.506-.916-1.075-1.789.767-1.552-.389-1.469-1.188-1.485-1.947-.038-3.513 2.581-2.743 4.384.316.739.894.445 1.383.505.417.05.892.046.89.593-.001.373-.35.613-.726.549-1.681-.285-1.474.856-1.465 1.88l-.013 3.691c-.068 1.706-.189 3.404 2.52 3.265l-.305.51"/><path d="M171.354 48.389c-1.941.913-1.481 2.275-1.387 3.62.099 1.413 1.019 1.162 1.877 1.175.426.007.909.075.908.586s-.485.637-.907.566c-1.409-.235-1.548.547-1.49 1.667.071 1.36.046 2.728.002 4.091-.036 1.13.043 2.088 1.549 2.011.354-.018.701.111.612.582-.064.341-.381.298-.642.344-.833.146-4.886-.106-6.52-.606 3.358-.19 2.902-2.228 2.651-3.824-.246-1.569 1.566-4.113-1.8-4.542-.308-.039-.044-.835.425-.81 1.401.075 1.229-.671 1.124-1.664-.189-1.791.517-3.206 2.251-3.945.783-.334 1.594-.361 2.366.07.871.485 1.317 1.215 1.01 2.207-.225.728-.83 1.172-1.576.959-1.315-.376-.626-1.374-.454-2.487m22.21 36.16h-5.962c2.036-.607 1.809-2.15 1.777-3.616l-.014-3.685c-.03-.912.461-2.128-1.29-2.116-.514.003-.678-.921-.06-.942 1.605-.056.991-1.044.974-1.827-.063-2.961 2.77-5.021 5.237-3.798 1.031.511 1.633 1.286 1.116 2.476-.259.594-.779.997-1.48.784s-.922-.738-.72-1.453c.093-.328.739-.606.177-.997-.459-.318-.96-.054-1.329.212-1.122.812-.993 1.946-.795 3.149.159.963.476 1.503 1.553 1.354.367-.051.905-.115.978.446.096.73-.512.721-.962.682-1.073-.095-1.22.481-1.19 1.366l.006 4.299c-.018 1.55-.392 3.299 1.985 3.668m23.222-3.705c.594 1.604-.046 3.039-1.711 3.843-2.538 1.225-5.783-.055-6.799-2.682-1.083-2.8.277-6.745 2.723-7.829 1.405-.622 2.795-.581 4.077.327 1.467 1.039 1.905 2.612 2.048 4.282.069.814-.521.997-1.222.99-1.5-.016-3.003.04-4.5-.024-1.041-.045-1.369.377-1.121 1.33.377 1.447.922 2.763 2.689 2.922 1.69.152 2.691-.687 3.199-2.251.111-.341.015-.879.617-.907zm-4.391-2.108c.753-.611 2.456.835 2.374-1.236-.05-1.263-.43-2.618-2.021-2.558-1.689.064-2.262 1.581-2.344 2.902-.098 1.587 1.377.32 1.991.892zm-11.15-42.471c-.137.002-.287-.036-.407.008-.911.332-2.466-.831-2.72.715-.217 1.325.423 2.774 1.893 3.327 1.399.526 2.702.265 3.583-1.112.073-.114.088-.283.183-.362.476-.397.022-1.82.967-1.378.779.365.222 1.478-.164 2.171-1.012 1.818-2.725 2.186-4.587 1.945-2.097-.271-3.497-1.505-4.047-3.556-.46-1.715-.206-3.397.612-4.973 1.017-1.959 2.797-2.988 4.625-2.706 2.139.33 3.085 1.807 3.588 3.725.387 1.474.199 2.452-1.683 2.206-.604-.079-1.228-.012-1.843-.011zm-.915-.993c.701-.624 2.286.805 2.314-1.027.02-1.277-.333-2.666-2.014-2.811-1.118-.096-2.648 1.772-2.439 3.056.23 1.415 1.457.268 2.138.783z"/><path d="M223.335 34.899c-1.36-.755-1.224-1.931-1.94-2.583-.768-.7-1.556-1.121-2.582-.76-.55.193-.928.627-.958 1.222-.057 1.112.81 1.489 1.621 1.859l2.085.842c2.082.943 2.784 2.261 2.155 3.987-.61 1.673-2.698 2.544-4.633 1.991-.806-.23-1.578-1.439-2.523-.109-.169.238-.616-.098-.618-.522l-.003-4.148c1.169.271 1.078 1.088 1.349 1.633.576 1.158 1.337 2.081 2.744 2.16.809.046 1.532-.18 1.795-1.037.241-.786-.236-1.34-.867-1.665-.905-.467-1.88-.799-2.8-1.24-2.098-1.005-2.73-2.433-1.933-4.269.73-1.681 2.556-2.378 4.486-1.709.647.224 1.18.835 1.997.138.465-.396.611.253.618.65l.006 3.56m-37.382 47.867c-.803 2.414-3.556 3.177-6.039 1.677-1.747-1.056-2.617-3.326-2.195-5.727.488-2.777 1.844-4.414 4.013-4.843 2.682-.531 5.549 2.325 5.076 5.016-.15.85-.721.876-1.354.877-1.431.003-2.864.053-4.291-.022-1.125-.059-1.436.334-1.221 1.428.607 3.09 2.592 3.812 5.135 1.812.275-.216.506-.453.876-.217zm-3.983-4.031c.799-.584 2.432.821 2.479-1.118.031-1.307-.366-2.748-2.057-2.682-1.661.064-2.221 1.571-2.336 2.881-.141 1.593 1.332.361 1.915.919z"/><path d="M224.122 84.317c-2.198.643-4.272.412-6.563.186 3.026-.666 2.116-2.883 2.148-4.647l.021-8.394c.009-.975-.046-1.81-1.34-1.772-.357.011-.71-.102-.625-.565s.508-.369.825-.38c.612-.02 1.234.058 1.838-.014 1.286-.153 1.63.412 1.608 1.637l-.055 10.849c-.044 1.602.117 2.831 2.143 3.098m-38.097-65.144c-3.006 1.375-5.912.419-6.99-2.301-1.165-2.939.311-6.881 2.946-7.869 2.874-1.078 6.111 1.534 5.837 4.672-.075.856-.545.975-1.234.967-1.434-.016-2.873.069-4.3-.024-1.322-.086-1.487.499-1.242 1.597.463 2.075 1.613 2.719 4.393 2.377.3.089.523.255.589.582zm-2.678-5.474c.74-.469 2.205.595 2.202-1.024-.002-1.278-.346-2.697-2.054-2.826-1.097-.083-2.544 1.654-2.393 2.918.191 1.604 1.557.388 2.245.931z"/><path d="M233.308 33.873c-.233-.857.379-2.119-1.272-2.293-.476-.05-.273-.745.124-.915 1.67-.714 1.872-2.203 2.088-3.715.055-.389.101-.914.647-.881.572.035.475.549.478.949l-.001 1.434c-.124 1.41.082 2.453 1.916 2.137.465-.08 1.238-.225 1.157.668-.064.698-.735.558-1.143.487-1.763-.307-2.059.579-1.932 2.078.116 1.357.036 2.731.031 4.098-.003.934.07 1.994 1.224 1.993 1.245-.001 1.376-1.092 1.364-2.112l.024-1.844c.02-.31.012-.742.503-.714.46.027.477.439.479.76.009 1.092.111 2.206-.067 3.271-.271 1.62-1.495 2.195-3.01 2.173-1.599-.024-2.601-.837-2.666-2.477-.062-1.567.028-3.139.051-4.709.041-.037.122-.084.116-.111-.021-.095-.072-.183-.111-.275m-43.034-3.306c-3.316 2.881.249 4.901.526 7.324l1.36-3.412c.537-1.345 1.403-2.762-1.459-3.53 2.142-.548 3.601-.423 5.495-.216-3.448 2.414-3.509 6.24-5.161 9.236-.281.509-.25 1.344-1.061 1.303-.769-.039-.795-.836-1.003-1.38l-2.214-5.939c-.427-1.135-.684-2.439-2.317-2.455-.302-.003-.508-.229-.432-.546.105-.441.502-.379.826-.381l5.44-.004"/><path d="M244.325 40.834l-2.543-7.115c-.343-.957-.57-2.011-1.847-2.192-.349-.049-.662-.191-.53-.656.103-.362.424-.297.672-.3l4.293-.001c.321.003.736-.089.836.358s-.241.565-.601.603c-1.126.117-1.072.767-.769 1.597l1.764 5.057 1.683-4.221c.355-.994 1.339-2.258-.782-2.534-.117-.015-.277-.285-.284-.443-.018-.364.295-.413.567-.415l4.541-.004c-3.807 2.839-3.819 7.085-5.847 10.267h-1.153m-36.884 43.603c-2.123.326-4.079.486-6.233-.013 2.739-.585 2.072-2.601 2.104-4.297l.006-3.274c.004-.955-.107-1.809-1.363-1.834-.337-.007-.733-.055-.675-.537.056-.461.469-.393.792-.418.203-.016.409-.007.613-.005 3.552.03 2.82-.238 2.889 2.744l.004 4.298c.003 1.378-.359 2.959 1.862 3.336"/><path d="M231.225 41.135h-6.047c2.185-.649 1.823-2.353 1.781-3.925l-.101-4.904c-.08-1.083-1.461-.469-1.984-1.32 1.178-.824 2.469-.349 3.661-.35.794-.001.556.803.563 1.296l.015 5.321c.021 1.579-.623 3.595 2.758 3.128l-.646.754M178.402 31.05c1.296-.696 2.505-.448 3.674-.455.955-.006.71.821.716 1.382l.011 6.528c.004.652-.176 1.393.659 1.76.365.16 1.159-.04.883.737-.193.546-.826.288-1.265.297l-3.667.001c-.337-.003-.717-.041-.705-.505.008-.321.279-.43.568-.434 1.421-.021 1.357-1.052 1.365-2.02l.012-3.875c.074-1.632.144-3.204-2.251-3.414m29.551 8.178l.01-5.009c.568-.993-.364-2.544.291-2.986 1.235-.833 1.323 1.56 2.568 1.462-1.041 2.123-.62 4.398-.685 6.623-.033 1.131.754 1.042 1.518 1.057.212.004.563.213.6.382.098.453-.29.535-.635.538l-4.895.004c-.171-.914.578-.979 1.033-1.288.393-.179.487-.432.194-.782"/><path d="M210.824 32.697c-1.245.098-1.332-2.295-2.568-1.462-.655.442.277 1.993-.291 2.986-.307-1.082.435-2.824-1.734-2.747-.127.004-.355-.23-.376-.377-.044-.304.187-.539.476-.504 1.212.144 2.595-.6 3.61.503.795.864 1.024-.167 1.436-.357 1.333-.616 2.56-.794 3.229.783.417.983.328 2.163-.905 2.537-1.312.398-1.583-.604-1.632-1.654.163-.206.348-.439.081-.657-.068-.055-.322.118-.49.187l-.837.761m33.502 8.138h1.153c-.516 1.762-1.157 3.476-2.352 4.901-.716.853-1.687 1.142-2.756.754-.781-.284-1.166-.944-1.152-1.755.017-.948.305-1.915 1.453-1.778.944.112 1.331.834.794 1.81-.067.122.073.359.161.719 1.801-1.133 2.103-2.981 2.7-4.651m-61.528-13.689c-.025.989-.393 1.643-1.256 1.702-.878.059-1.376-.584-1.413-1.398s.4-1.505 1.262-1.566c.885-.063 1.263.604 1.406 1.262m45.087-1.262c.804.151 1.267.659 1.247 1.514-.02.874-.46 1.353-1.398 1.309-.864-.04-1.174-.559-1.185-1.315-.012-.856.41-1.388 1.335-1.508"/><path d="M240.954 83.316c-.327.734-.553 1.516-1.646 1.467-.858-.039-1.237-.399-1.258-1.22-.023-.884.26-1.344 1.29-1.35.896-.005 1.33.37 1.615 1.102m-54.93-64.144c-.066-.327-.289-.493-.589-.582.709-.647 1.349-1.336 1.481-2.35.047-.358.223-.737.598-.687.527.07.533.554.432.961-.284 1.137-.661 2.222-1.922 2.658m-30.578 7.337c.787-.538 1.568-.716 2.549-.039-.997.764-1.775.461-2.549.039m-1.378-.398c-.268.372-.537.376-.807.003l.807-.003"/><path d="M234.383 68.915c-.289.276-.546.248-.772-.081l.772.081m-84.296-42.494l.708.464c-.373.055-.816.217-.708-.464"/><path d="M207.953 39.23c.293.35.199.603-.194.782l.194-.782m25.355-5.357c.039.091.09.179.111.275.006.027-.075.073-.116.111-.09-.13-.088-.258.004-.385"/></svg>