<svg xmlns="http://www.w3.org/2000/svg" xmlns:xlink="http://www.w3.org/1999/xlink" width="300" height="90" xmlns:v="https://vecta.io/nano"><g transform="matrix(.923391 0 0 .923391 2.257374 4.463116)"><path d="M246.9 2.8h14v83.3h-14z"/><defs><path id="A" d="M0 0h320v87.8H0z"/></defs><clipPath id="B"><use xlink:href="#A"/></clipPath><path clip-path="url(#B)" d="M58 9.9c0 5.2 4.3 9.6 9.4 9.6 5.3 0 9.4-4.4 9.4-9.6 0-5.5-4.1-9.9-9.4-9.9C62.3 0 58 4.4 58 9.9"/><path d="M60.5 27.8h14v58.3h-14z"/><defs><path id="C" d="M0 0h320v87.8H0z"/></defs><clipPath id="D"><use xlink:href="#C"/></clipPath><path clip-path="url(#D)" d="M185.1 60.9c0 12.9 1.5 16.9 5.1 21.1 3.4 3.8 8.4 5.6 14.3 5.6 8.3 0 14.6-4 17.4-8.9v7.5h14V27.8h-14V59c0 9.4-3.8 16.2-12.5 16.2-4.9 0-7.6-2.1-8.9-5.1-1.4-3.1-1.5-7.1-1.5-11.3v-31h-14v33.1zM132.2 32c-3.4-3.8-8.4-5.6-14.4-5.6-9.2 0-15.4 4-18.2 8.9v-7.5h-14v58.3h14V54.9c0-9.4 4-16.2 12.6-16.2 10.5 0 11.3 7.3 11.3 17.9v29.5h14V54.9c0-9.4 3.9-16.2 12.6-16.2 10.5 0 11.3 7.3 11.3 17.9v29.5h14V53c0-12.9-1.5-16.9-5.1-21.1-3.1-3.4-8-5.6-15.4-5.6-10.5 0-16.4 4.8-20 9.1-1-1.2-1.8-2.3-2.7-3.4m-81.8 3.7c-3.8-4.2-12.7-9.3-24.4-9.3-11.1 0-23.5 5.4-23.5 18.1 0 10.7 8 14.9 18.1 17.1l8.7 1.8c5.6 1.2 8.9 2 8.9 6 0 4.2-4 6.6-11 6.6-8.9 0-14.6-4.3-17.9-8.7L0 75.7c3.6 5 13 11.9 26.9 11.9 13.3 0 25.5-6.4 25.5-19.7 0-10.7-8-14-16.8-16l-7-1.6c-8.2-1.7-12.2-2.6-12.2-6.7 0-3.8 4-5.8 9.6-5.8 6.7 0 12.4 2.7 16.4 6.6zm256.3 29.8c0 8-5.3 11.8-12.9 11.8-6.9 0-10-3.2-10-8 0-4.7 2.9-6.4 9.6-7.7l5.4-1.1c4.2-.9 5.9-1.3 8-2.1v7.1zm13.3 7.3V43.9c0-12.9-9.8-17.1-23.1-17.1-14 0-25.7 5.8-25.5 20.1l13.1.9c-.1-6.9 3.9-10.2 11.8-10.2 7.2 0 10.4 2.4 10.4 7.3v1c0 2.2-.6 2.4-3.7 3.1l-12.9 2.2c-7.6 1.3-13.7 3.7-17.3 8-2.1 2.6-3.3 5.9-3.3 10.3 0 12.7 9.3 18.4 20.6 18.4 10 0 14-5 16.5-7.5V86H320V72.8c0 .1 0 .1 0 0"/></g></svg>