<?xml version="1.0" encoding="UTF-8" standalone="no"?>
<!-- Generator: Adobe Illustrator 17.1.0, SVG Export Plug-In . SVG Version: 6.00 Build 0)  -->

<svg
   version="1.1"
   id="Ebene_1"
   x="0px"
   y="0px"
   viewBox="0 0 300 89.999997"
   enable-background="new 0 0 320 87.8"
   xml:space="preserve"
   sodipodi:docname="simula.svg"
   width="300"
   height="90"
   inkscape:version="1.1.1 (3bf5ae0d25, 2021-09-20)"
   xmlns:inkscape="http://www.inkscape.org/namespaces/inkscape"
   xmlns:sodipodi="http://sodipodi.sourceforge.net/DTD/sodipodi-0.dtd"
   xmlns:xlink="http://www.w3.org/1999/xlink"
   xmlns="http://www.w3.org/2000/svg"
   xmlns:svg="http://www.w3.org/2000/svg"><defs
   id="defs954" /><sodipodi:namedview
   id="namedview952"
   pagecolor="#ffffff"
   bordercolor="#666666"
   borderopacity="1.0"
   inkscape:pageshadow="2"
   inkscape:pageopacity="0.0"
   inkscape:pagecheckerboard="0"
   showgrid="false"
   inkscape:zoom="2.5003124"
   inkscape:cx="146.38171"
   inkscape:cy="29.396326"
   inkscape:window-width="1866"
   inkscape:window-height="1016"
   inkscape:window-x="54"
   inkscape:window-y="27"
   inkscape:window-maximized="1"
   inkscape:current-layer="Ebene_1" />



<g
   id="g1291"
   transform="matrix(0.92339141,0,0,0.92339141,2.2573744,4.4631157)"><rect
     x="246.89999"
     y="2.8"
     fill="#000000"
     width="14"
     height="83.300003"
     id="rect921" /><g
     id="g931">
	<defs
   id="defs924">
		<rect
   id="SVGID_1_"
   y="0"
   width="320"
   height="87.800003"
   x="0" />
	</defs>
	<clipPath
   id="SVGID_2_">
		<use
   xlink:href="#SVGID_1_"
   overflow="visible"
   id="use926"
   x="0"
   y="0"
   width="100%"
   height="100%" />
	</clipPath>
	<path
   clip-path="url(#SVGID_2_)"
   fill="#000000"
   d="m 58,9.9 c 0,5.2 4.3,9.6 9.4,9.6 5.3,0 9.4,-4.4 9.4,-9.6 C 76.8,4.4 72.7,0 67.4,0 62.3,0 58,4.4 58,9.9"
   id="path929" />
</g><rect
     x="60.5"
     y="27.799999"
     fill="#000000"
     width="14"
     height="58.299999"
     id="rect933" /><g
     id="g949">
	<defs
   id="defs936">
		<rect
   id="SVGID_3_"
   y="0"
   width="320"
   height="87.800003"
   x="0" />
	</defs>
	<clipPath
   id="SVGID_4_">
		<use
   xlink:href="#SVGID_3_"
   overflow="visible"
   id="use938"
   x="0"
   y="0"
   width="100%"
   height="100%" />
	</clipPath>
	<path
   clip-path="url(#SVGID_4_)"
   fill="#000000"
   d="m 185.1,60.9 c 0,12.9 1.5,16.9 5.1,21.1 3.4,3.8 8.4,5.6 14.3,5.6 8.3,0 14.6,-4 17.4,-8.9 v 7.5 h 14 V 27.8 h -14 V 59 c 0,9.4 -3.8,16.2 -12.5,16.2 -4.9,0 -7.6,-2.1 -8.9,-5.1 C 199.1,67 199,63 199,58.8 v -31 h -14 v 33.1 z"
   id="path941" />
	<path
   clip-path="url(#SVGID_4_)"
   fill="#000000"
   d="m 132.2,32 c -3.4,-3.8 -8.4,-5.6 -14.4,-5.6 -9.2,0 -15.4,4 -18.2,8.9 v -7.5 h -14 v 58.3 h 14 V 54.9 c 0,-9.4 4,-16.2 12.6,-16.2 10.5,0 11.3,7.3 11.3,17.9 v 29.5 h 14 V 54.9 c 0,-9.4 3.9,-16.2 12.6,-16.2 10.5,0 11.3,7.3 11.3,17.9 v 29.5 h 14 V 53 c 0,-12.9 -1.5,-16.9 -5.1,-21.1 -3.1,-3.4 -8,-5.6 -15.4,-5.6 -10.5,0 -16.4,4.8 -20,9.1 -1,-1.2 -1.8,-2.3 -2.7,-3.4"
   id="path943" />
	<path
   clip-path="url(#SVGID_4_)"
   fill="#000000"
   d="M 50.4,35.7 C 46.6,31.5 37.7,26.4 26,26.4 14.9,26.4 2.5,31.8 2.5,44.5 c 0,10.7 8,14.9 18.1,17.1 l 8.7,1.8 c 5.6,1.2 8.9,2 8.9,6 0,4.2 -4,6.6 -11,6.6 C 18.3,76 12.6,71.7 9.3,67.3 L 0,75.7 c 3.6,5 13,11.9 26.9,11.9 13.3,0 25.5,-6.4 25.5,-19.7 0,-10.7 -8,-14 -16.8,-16 l -7,-1.6 c -8.2,-1.7 -12.2,-2.6 -12.2,-6.7 0,-3.8 4,-5.8 9.6,-5.8 6.7,0 12.4,2.7 16.4,6.6 z"
   id="path945" />
	<path
   clip-path="url(#SVGID_4_)"
   fill="#000000"
   d="m 306.7,65.5 c 0,8 -5.3,11.8 -12.9,11.8 -6.9,0 -10,-3.2 -10,-8 0,-4.7 2.9,-6.4 9.6,-7.7 l 5.4,-1.1 c 4.2,-0.9 5.9,-1.3 8,-2.1 v 7.1 z M 320,72.8 V 43.9 c 0,-12.9 -9.8,-17.1 -23.1,-17.1 -14,0 -25.7,5.8 -25.5,20.1 l 13.1,0.9 c -0.1,-6.9 3.9,-10.2 11.8,-10.2 7.2,0 10.4,2.4 10.4,7.3 v 1 c 0,2.2 -0.6,2.4 -3.7,3.1 l -12.9,2.2 c -7.6,1.3 -13.7,3.7 -17.3,8 -2.1,2.6 -3.3,5.9 -3.3,10.3 0,12.7 9.3,18.4 20.6,18.4 10,0 14,-5 16.5,-7.5 V 86 H 320 V 72.8 c 0,0.1 0,0.1 0,0"
   id="path947" />
</g></g>
</svg>
