<?xml version="1.0" encoding="UTF-8" standalone="no"?>
<!-- Generator: Adobe Illustrator 19.2.1, SVG Export Plug-In . SVG Version: 6.00 Build 0)  -->

<svg
   version="1.1"
   id="Layer_1"
   x="0px"
   y="0px"
   viewBox="0 0 300 90"
   xml:space="preserve"
   sodipodi:docname="soundcloud.svg"
   width="300"
   height="90"
   inkscape:version="1.1.1 (3bf5ae0d25, 2021-09-20)"
   xmlns:inkscape="http://www.inkscape.org/namespaces/inkscape"
   xmlns:sodipodi="http://sodipodi.sourceforge.net/DTD/sodipodi-0.dtd"
   xmlns="http://www.w3.org/2000/svg"
   xmlns:svg="http://www.w3.org/2000/svg"><defs
   id="defs9550" /><sodipodi:namedview
   id="namedview9548"
   pagecolor="#ffffff"
   bordercolor="#666666"
   borderopacity="1.0"
   inkscape:pageshadow="2"
   inkscape:pageopacity="0.0"
   inkscape:pagecheckerboard="0"
   showgrid="false"
   inkscape:zoom="2.2379653"
   inkscape:cx="79.536531"
   inkscape:cy="-41.779021"
   inkscape:window-width="1866"
   inkscape:window-height="1016"
   inkscape:window-x="54"
   inkscape:window-y="27"
   inkscape:window-maximized="1"
   inkscape:current-layer="Layer_1" />
<style
   type="text/css"
   id="style9543">
	.st0{fill:#B2B2B2;}
</style>
<path
   class="st0"
   d="m 75.11346,41.114628 c -0.319346,0 -0.532243,0.212897 -0.638691,0.638691 l -1.170934,8.515883 1.170934,8.409433 c 0,0.319347 0.319345,0.638691 0.638691,0.638691 0.319345,0 0.532243,-0.212896 0.638691,-0.638691 v 0 0 c 0,0 0,0 0,0 l 1.277382,-8.409433 -1.277382,-8.515883 c 0,-0.425794 -0.319346,-0.638691 -0.638691,-0.638691 z m 6.386912,-4.683735 c 0,-0.319346 -0.319346,-0.638691 -0.638692,-0.638691 -0.319345,0 -0.638691,0.212897 -0.638691,0.638691 0,0 -1.490279,13.73186 -1.490279,13.73186 l 1.490279,13.412514 c 0,0.319346 0.319346,0.638692 0.638691,0.638692 0.319346,0 0.532243,-0.212897 0.638692,-0.638692 L 83.203548,50.162753 Z M 105.23839,23.763518 c -0.63869,0 -1.17093,0.532243 -1.17093,1.170934 l -1.17093,25.33475 1.17093,16.393073 c 0,0.638691 0.53224,1.170935 1.17093,1.170935 0.63869,0 1.17094,-0.532243 1.17094,-1.170935 v 0 l 1.38383,-16.393073 -1.38383,-25.33475 c -0.10645,-0.74514 -0.63869,-1.170934 -1.17094,-1.170934 z m -12.348026,8.72878 c -0.425794,0 -0.851588,0.425794 -0.851588,0.851588 l -1.383831,16.818867 1.383831,16.286625 c 0,0.532242 0.425794,0.851589 0.851588,0.851589 0.425794,0 0.851588,-0.425794 0.851588,-0.851589 l 1.49028,-16.286625 -1.49028,-16.818866 c 0,-0.425795 -0.319345,-0.851588 -0.851588,-0.851589 z M 117.69287,67.72676 c 0.74514,0 1.38383,-0.638691 1.38383,-1.383831 L 120.24764,50.162753 119.0767,16.41857 c 0,-0.74514 -0.63869,-1.383831 -1.38383,-1.383831 -0.74514,0 -1.38383,0.638691 -1.38383,1.383831 0,0 -1.06449,33.744183 -1.06449,33.744183 l 1.06449,16.073728 c 0,0.851588 0.63869,1.490279 1.38383,1.490279 z m 25.54765,0.106449 c 1.06448,0 1.91607,-0.851589 1.91607,-1.916074 v 0 0 l 0.85159,-15.647933 -0.85159,-38.960161 c 0,-1.064485 -0.85159,-1.9160734 -1.91607,-1.9160734 -1.06449,0 -1.91608,0.8515884 -1.91608,1.9160734 l -0.74514,38.960161 c 0,0 0.74514,15.647933 0.74514,15.647933 0,0.958037 0.85159,1.916074 1.91608,1.916074 z M 130.36025,67.72676 c 0.95803,0 1.70317,-0.74514 1.70317,-1.703176 v 0 l 0.95804,-15.860831 -0.95804,-33.95708 c 0,-0.958037 -0.74514,-1.703177 -1.70317,-1.703177 -0.95804,0 -1.70318,0.74514 -1.70318,1.703177 l -0.85159,33.95708 0.85159,15.860831 c 0,0.958036 0.74514,1.703176 1.70318,1.703176 z M 99.064379,67.620312 c 0.532242,0 0.958031,-0.425795 1.064481,-1.064486 l 1.49028,-16.393073 -1.59673,-15.541485 c 0,-0.532243 -0.532237,-0.958037 -1.06448,-0.958037 -0.532243,0 -0.958037,0.425794 -1.064485,1.064486 l -1.277383,15.541485 1.277383,16.393073 c 0.106448,0.425794 0.532242,0.958038 1.170934,0.958037 z M 86.822798,66.662275 c 0.425794,0 0.74514,-0.319346 0.74514,-0.74514 L 89.164666,50.162753 87.567938,33.876128 c 0,-0.425794 -0.319346,-0.745139 -0.74514,-0.745139 -0.425794,0 -0.74514,0.319345 -0.74514,0.745139 0,0 -1.383831,16.286625 -1.383831,16.286625 l 1.383831,15.754382 c 0,0.425794 0.319346,0.74514 0.74514,0.74514 z M 136.74716,15.67343 c -0.95804,0 -1.80963,0.74514 -1.80963,1.809625 l -0.85159,32.679698 0.85159,15.754382 c 0,0.958038 0.85159,1.809626 1.80963,1.809626 0.95803,0 1.80962,-0.745141 1.80962,-1.809626 v 0 l 0.95804,-15.754381 -0.95804,-32.679698 c 0,-0.958037 -0.74514,-1.809625 -1.80962,-1.809626 z m -25.33475,52.053331 c 0.63869,0 1.27738,-0.532243 1.27738,-1.277383 l 1.27738,-16.286625 -1.27738,-31.082969 c 0,-0.74514 -0.63869,-1.277382 -1.27738,-1.277382 -0.74514,0 -1.27738,0.532242 -1.27738,1.277382 0,0 -1.17094,31.082969 -1.17094,31.082969 l 1.17094,16.286625 c 0,0.745139 0.63869,1.277383 1.27738,1.277383 z m 14.15765,-1.49028 v 0 l 1.06449,-15.967278 -1.06449,-34.808669 c 0,-0.851588 -0.74514,-1.596728 -1.59673,-1.596728 -0.85158,0 -1.49027,0.638691 -1.59672,1.596728 l -0.95804,34.808669 0.95804,15.967278 c 0,0.851589 0.74514,1.49028 1.59672,1.49028 0.85159,0 1.59673,-0.638691 1.59673,-1.49028 z m 82.28472,-36.08605 c -2.55478,0 -5.00309,0.532243 -7.34496,1.490279 -1.49028,-17.031765 -15.75438,-30.3378305 -33.10549,-30.3378305 -4.25794,0 -8.40943,0.8515882 -12.02868,2.2354191 -1.38383,0.5322426 -1.80963,1.0644852 -1.80963,2.235419 V 65.59779 c 0,1.170933 0.95804,2.12897 2.02253,2.23542 0,0 51.94687,0 52.26623,0 10.43194,0 18.84138,-8.409434 18.84138,-18.841391 0,-10.431955 -8.40944,-18.841389 -18.84138,-18.841388 z M 149.73388,5.6672691 c -1.17094,0 -2.02252,0.9580368 -2.12897,2.022522 l -0.85159,42.5794109 0.85159,15.435037 c 0,1.170933 0.95803,2.022521 2.12897,2.022521 1.17093,0 2.02252,-0.958037 2.02252,-2.022521 v 0 L 152.71444,50.269202 151.7564,7.7962397 c 0,-1.1709338 -0.95804,-2.1289706 -2.02252,-2.1289706 z M 88.632423,79.861892 c -2.235419,-0.532242 -2.87411,-0.851588 -2.87411,-1.703176 0,-0.63869 0.532242,-1.277383 2.022522,-1.277383 1.277382,0 2.341867,0.532243 3.193456,1.49028 l 2.022522,-1.916074 c -1.277383,-1.383831 -2.980559,-2.235418 -5.10953,-2.235418 -2.767661,0 -5.003081,1.596727 -5.003081,4.151492 0,2.767661 1.809625,3.61925 4.36439,4.151493 2.661213,0.638691 3.087007,0.958037 3.087007,1.916073 0,1.064486 -0.745139,1.49028 -2.448316,1.49028 -1.383831,0 -2.661213,-0.425794 -3.61925,-1.596729 l -2.022522,1.809626 c 1.064486,1.596727 3.087008,2.554765 5.428875,2.554765 3.832147,0 5.535324,-1.809626 5.535324,-4.470839 0.106448,-3.087008 -2.341868,-3.938595 -4.577287,-4.36439 z m 12.986717,-5.74822 c -3.832144,0 -6.067563,2.980558 -6.067563,7.2385 0,4.257941 2.235419,7.238499 6.067563,7.238499 3.83215,0 6.06757,-2.980558 6.06757,-7.238499 0,-4.257942 -2.23542,-7.2385 -6.06757,-7.2385 z m 0,11.709338 c -2.235416,0 -3.193453,-1.916074 -3.193453,-4.470838 0,-2.554765 0.958037,-4.470839 3.193453,-4.470839 2.23542,0 3.19346,1.916074 3.19346,4.470839 0,2.554764 -0.95804,4.470838 -3.19346,4.470838 z m 17.45756,-3.61925 c 0,2.235419 -1.06448,3.61925 -2.87411,3.61925 -1.80962,0 -2.87411,-1.383831 -2.87411,-3.725699 V 74.22012 h -2.76766 v 7.98364 c 0,4.045044 2.34187,6.386911 5.64177,6.386911 3.61925,0 5.74822,-2.341867 5.74822,-6.386911 v -7.87719 h -2.76766 c -0.10645,0 -0.10645,7.87719 -0.10645,7.87719 z m 14.9028,-1.916073 c 0,0.745139 0,2.554765 0,3.087008 -0.2129,-0.319346 -0.6387,-1.064487 -0.95804,-1.596729 l -5.00308,-7.451396 h -2.66121 v 14.051204 h 2.76766 V 82.20376 c 0,-0.74514 0,-2.554765 0,-3.087008 0.21289,0.319346 0.63869,1.064487 0.95803,1.596729 l 5.21598,7.664293 h 2.55477 V 74.32657 h -2.76767 c -0.10644,0 -0.10644,5.961117 -0.10644,5.961117 z m 10.85774,-5.961117 h -4.36438 v 14.051204 h 4.15149 c 3.61925,0 7.2385,-2.128969 7.2385,-7.025602 -0.10645,-5.10953 -3.08701,-7.025603 -7.02561,-7.025602 z m -0.21289,11.389991 h -1.38383 V 77.09423 h 1.49028 c 2.98056,0 4.15149,1.383831 4.15149,4.257942 0,2.554764 -1.38383,4.364389 -4.25794,4.364389 z m 15.86083,-8.835228 c 1.27738,0 2.02252,0.532243 2.55476,1.49028 l 2.66122,-1.170934 c -0.85159,-1.809625 -2.44832,-3.087007 -5.10953,-3.087007 -3.7257,0 -6.28047,2.980558 -6.28047,7.2385 0,4.470838 2.44832,7.238499 6.17402,7.238499 2.55476,0 4.25794,-1.170933 5.21598,-3.193455 l -2.34187,-1.383831 c -0.74514,1.277382 -1.49028,1.809625 -2.76766,1.809625 -2.12897,0 -3.29991,-1.916074 -3.29991,-4.470838 -0.10645,-2.554765 1.06449,-4.470839 3.19346,-4.470839 z m 10.43195,-2.554764 h -2.76766 v 14.051205 h 8.40943 v -2.767661 h -5.64177 z m 13.09318,-0.212897 c -3.83216,0 -6.06758,2.980558 -6.06758,7.2385 0,4.257941 2.23542,7.238499 6.06758,7.238499 3.83214,0 6.06755,-2.980558 6.06755,-7.238499 0,-4.257942 -2.23541,-7.2385 -6.06755,-7.2385 z m 0,11.709338 c -2.23543,0 -3.19347,-1.916074 -3.19347,-4.470838 0,-2.554765 0.95804,-4.470839 3.19347,-4.470839 2.23541,0 3.19344,1.916074 3.19344,4.470839 0,2.554764 -0.95803,4.470838 -3.19344,4.470838 z m 17.45756,-3.61925 c 0,2.235419 -1.0645,3.61925 -2.87412,3.61925 -1.80962,0 -2.8741,-1.383831 -2.8741,-3.725699 V 74.22012 h -2.76768 v 7.98364 c 0,4.045044 2.34187,6.386911 5.64178,6.386911 3.61925,0 5.74822,-2.341867 5.74822,-6.386911 v -7.87719 h -2.76765 v 7.87719 z m 10.7513,-7.87719 h -4.36439 v 14.051204 h 4.15148 c 3.61925,0 7.2385,-2.128969 7.2385,-7.025602 -0.10645,-5.10953 -3.08701,-7.025603 -7.02559,-7.025602 z m -0.2129,11.389991 h -1.38383 V 77.09423 h 1.49028 c 2.98056,0 4.15149,1.383831 4.15149,4.257942 0,2.554764 -1.27738,4.364389 -4.25794,4.364389 z"
   id="path9545"
   style="stroke-width:1.06449" />
</svg>
