<svg xmlns="http://www.w3.org/2000/svg" width="300" height="90" xmlns:v="https://vecta.io/nano"><path d="M75.113 41.115c-.319 0-.532.213-.639.639l-1.171 8.516 1.171 8.409a.69.69 0 0 0 .639.639c.319 0 .532-.213.639-.639h0 0l1.277-8.409-1.277-8.516c0-.426-.319-.639-.639-.639zm6.387-4.684a.69.69 0 0 0-.639-.639c-.319 0-.639.213-.639.639l-1.49 13.732 1.49 13.413a.69.69 0 0 0 .639.639c.319 0 .532-.213.639-.639l1.703-13.413zm23.738-12.667a1.18 1.18 0 0 0-1.171 1.171l-1.171 25.335 1.171 16.393a1.18 1.18 0 0 0 1.171 1.171 1.18 1.18 0 0 0 1.171-1.171h0l1.384-16.393-1.384-25.335c-.106-.745-.639-1.171-1.171-1.171zM92.89 32.492a.92.92 0 0 0-.852.852l-1.384 16.819 1.384 16.287c0 .532.426.852.852.852a.92.92 0 0 0 .852-.852l1.49-16.287-1.49-16.819c0-.426-.319-.852-.852-.852zm24.803 35.234a1.41 1.41 0 0 0 1.384-1.384l1.171-16.18-1.171-33.744a1.41 1.41 0 0 0-1.384-1.384 1.41 1.41 0 0 0-1.384 1.384l-1.064 33.744 1.064 16.074c0 .852.639 1.49 1.384 1.49zm25.548.106a1.91 1.91 0 0 0 1.916-1.916h0 0l.852-15.648-.852-38.96a1.91 1.91 0 1 0-3.832 0l-.745 38.96.745 15.648c0 .958.852 1.916 1.916 1.916zm-12.88-.106a1.68 1.68 0 0 0 1.703-1.703h0l.958-15.861-.958-33.957a1.68 1.68 0 1 0-3.406 0l-.852 33.957.852 15.861a1.68 1.68 0 0 0 1.703 1.703zm-31.296-.106c.532 0 .958-.426 1.064-1.064l1.49-16.393-1.597-15.541c0-.532-.532-.958-1.064-.958s-.958.426-1.064 1.064l-1.277 15.541 1.277 16.393c.106.426.532.958 1.171.958zm-12.242-.958c.426 0 .745-.319.745-.745l1.597-15.754-1.597-16.287c0-.426-.319-.745-.745-.745s-.745.319-.745.745l-1.384 16.287 1.384 15.754c0 .426.319.745.745.745zm49.924-50.989c-.958 0-1.81.745-1.81 1.81l-.852 32.68.852 15.754a1.87 1.87 0 0 0 1.81 1.81c.958 0 1.81-.745 1.81-1.81h0l.958-15.754-.958-32.68c0-.958-.745-1.81-1.81-1.81zm-25.335 52.053c.639 0 1.277-.532 1.277-1.277l1.277-16.287-1.277-31.083c0-.745-.639-1.277-1.277-1.277-.745 0-1.277.532-1.277 1.277l-1.171 31.083 1.171 16.287c0 .745.639 1.277 1.277 1.277zm14.158-1.49h0l1.064-15.967-1.064-34.809a1.64 1.64 0 0 0-1.597-1.597c-.852 0-1.49.639-1.597 1.597l-.958 34.809.958 15.967c0 .852.745 1.49 1.597 1.49s1.597-.639 1.597-1.49zm82.285-36.086c-2.555 0-5.003.532-7.345 1.49-1.49-17.032-15.754-30.338-33.105-30.338-4.258 0-8.409.852-12.029 2.235-1.384.532-1.81 1.064-1.81 2.235v59.824a2.3 2.3 0 0 0 2.023 2.235h52.266a18.81 18.81 0 0 0 18.841-18.841 18.81 18.81 0 0 0-18.841-18.841zM149.734 5.667c-1.171 0-2.023.958-2.129 2.023l-.852 42.579.852 15.435c0 1.171.958 2.023 2.129 2.023s2.023-.958 2.023-2.023h0l.958-15.435-.958-42.473c0-1.171-.958-2.129-2.023-2.129zM88.632 79.862c-2.235-.532-2.874-.852-2.874-1.703 0-.639.532-1.277 2.023-1.277 1.277 0 2.342.532 3.193 1.49l2.023-1.916c-1.277-1.384-2.981-2.235-5.11-2.235-2.768 0-5.003 1.597-5.003 4.151 0 2.768 1.81 3.619 4.364 4.151 2.661.639 3.087.958 3.087 1.916 0 1.064-.745 1.49-2.448 1.49-1.384 0-2.661-.426-3.619-1.597l-2.023 1.81c1.064 1.597 3.087 2.555 5.429 2.555 3.832 0 5.535-1.81 5.535-4.471.106-3.087-2.342-3.939-4.577-4.364zm12.987-5.748c-3.832 0-6.068 2.981-6.068 7.239s2.235 7.238 6.068 7.238 6.068-2.981 6.068-7.238-2.235-7.239-6.068-7.239zm0 11.709c-2.235 0-3.193-1.916-3.193-4.471s.958-4.471 3.193-4.471 3.193 1.916 3.193 4.471-.958 4.471-3.193 4.471zm17.458-3.619c0 2.235-1.064 3.619-2.874 3.619s-2.874-1.384-2.874-3.726V74.22h-2.768v7.984c0 4.045 2.342 6.387 5.642 6.387 3.619 0 5.748-2.342 5.748-6.387v-7.877h-2.768c-.106 0-.106 7.877-.106 7.877zm14.903-1.916v3.087c-.213-.319-.639-1.064-.958-1.597l-5.003-7.451h-2.661v14.051h2.768v-6.174-3.087c.213.319.639 1.064.958 1.597l5.216 7.664h2.555V74.327h-2.768c-.106 0-.106 5.961-.106 5.961zm10.858-5.961h-4.364v14.051h4.151c3.619 0 7.238-2.129 7.238-7.026-.106-5.11-3.087-7.026-7.026-7.026zm-.213 11.39h-1.384v-8.622h1.49c2.981 0 4.151 1.384 4.151 4.258 0 2.555-1.384 4.364-4.258 4.364zm15.861-8.835c1.277 0 2.023.532 2.555 1.49l2.661-1.171c-.852-1.81-2.448-3.087-5.11-3.087-3.726 0-6.28 2.981-6.28 7.239 0 4.471 2.448 7.238 6.174 7.238 2.555 0 4.258-1.171 5.216-3.193l-2.342-1.384c-.745 1.277-1.49 1.81-2.768 1.81-2.129 0-3.3-1.916-3.3-4.471-.106-2.555 1.064-4.471 3.193-4.471zm10.432-2.555h-2.768v14.051h8.409V85.61h-5.642zm13.093-.213c-3.832 0-6.068 2.981-6.068 7.239s2.235 7.238 6.068 7.238 6.068-2.981 6.068-7.238-2.235-7.239-6.068-7.239zm0 11.709c-2.235 0-3.193-1.916-3.193-4.471s.958-4.471 3.193-4.471 3.193 1.916 3.193 4.471-.958 4.471-3.193 4.471zm17.458-3.619c0 2.235-1.065 3.619-2.874 3.619s-2.874-1.384-2.874-3.726V74.22h-2.768v7.984c0 4.045 2.342 6.387 5.642 6.387 3.619 0 5.748-2.342 5.748-6.387v-7.877h-2.768v7.877zm10.751-7.877h-4.364v14.051h4.151c3.619 0 7.238-2.129 7.238-7.026-.106-5.11-3.087-7.026-7.026-7.026zm-.213 11.39h-1.384v-8.622h1.49c2.981 0 4.151 1.384 4.151 4.258 0 2.555-1.277 4.364-4.258 4.364z" fill="#b2b2b2"/></svg>