<svg xmlns="http://www.w3.org/2000/svg" width="300" height="90" fill="#b1b1b1" xmlns:v="https://vecta.io/nano"><path d="M180.288 87.527c-1.682-.365-3.157-1.466-3.949-2.949-1.069-2.007-1.258-5.538-.422-8 .336-.996 1.159-2.238 1.864-2.816 1.647-1.35 4.373-1.787 6.987-1.118 1.444.369 1.407.323 1.044 1.32l-.376.923c-.037.044-.543-.048-1.119-.204-1.403-.377-2.918-.389-3.872-.032-1.754.657-2.717 2.574-2.717 5.412 0 2.673.84 4.501 2.425 5.28.62.305.75.324 2.119.314 1.225-.009 1.625-.061 2.482-.321l1.082-.31c.031 0 .055.443.055.984v.984l-.618.232c-1.343.502-3.467.632-4.986.303zm12.466.001c-1.792-.434-2.825-1.456-3.294-3.258-.152-.58-.18-1.606-.18-6.216v-5.521h2.218v4.932l.121 5.677c.275 1.696 1.106 2.476 2.825 2.652 1.552.159 3.087-.337 3.87-1.251.967-1.131 1.123-2.206 1.123-7.758v-4.253h2.218v14.944h-1.842l-.068-.379-.145-.993c-.042-.337-.101-.613-.132-.613s-.281.254-.561.564c-.58.646-1.574 1.217-2.57 1.476-.846.22-2.667.219-3.584-.003zm19 .026c-1.007-.262-1.675-.629-2.39-1.309-.38-.362-.737-.63-.794-.594s-.169.369-.248.74c-.251 1.169-.169 1.086-1.071 1.086h-.809V66.344h2.218v8.205l.495-.525c1.064-1.127 2.317-1.634 4.059-1.644 1.946-.011 3.232.479 4.36 1.661 1.227 1.286 1.807 2.936 1.908 5.437.167 4.04-1.242 6.873-3.92 7.891-.824.313-2.92.414-3.808.184zm2.788-1.964c.701-.226 1.579-1.091 1.961-1.933.49-1.083.721-2.615.64-4.236-.11-2.167-.561-3.438-1.524-4.286-.671-.589-1.482-.852-2.632-.852-1.53 0-2.706.494-3.335 1.401-1.269 1.832-1.238 6.947.053 8.73.422.584 1.242 1.081 2.104 1.277.73.165 2.056.116 2.733-.101zm10.841 1.94c-.82-.221-1.24-.449-1.836-.997-1.374-1.268-1.625-3.939-.519-5.546 1.069-1.554 3.023-2.22 6.939-2.367l1.985-.074-.007-1.167c-.004-1.065-.035-1.223-.35-1.805-.279-.516-.464-.699-.97-.963-.554-.287-.754-.326-1.702-.326-1.172 0-2.41.267-3.527.761l-.688.289c-.02 0-.18-.374-.361-.83-.378-.967-.378-.969.763-1.396 2.183-.817 4.531-.967 6.383-.407 1.108.334 1.937 1.125 2.423 2.305.246.604.253.769.288 6.545l.035 5.925h-.827c-.561 0-.842-.047-.873-.146-.024-.08-.132-.555-.24-1.056l-.193-.91-.807.761c-.926.873-1.438 1.165-2.469 1.408-.917.216-2.638.214-3.45-.004zm3.491-1.846c1.328-.312 2.328-1.163 2.783-2.366.187-.486.279-1.047.323-1.926l.062-1.24-1.154.048c-3.843.16-5.288.618-5.892 1.868-.534 1.104-.244 2.727.583 3.27.752.493 2.08.632 3.296.346zm13.029 1.907c-1.469-.37-2.462-1.482-2.759-3.088-.079-.423-.128-2.498-.128-5.395V74.4h-2.102v-1.161l.613-.263 1.071-.5c.492-.254.409-.059 1.189-2.723l.182-.618 1.321.07.033 1.663.033 1.664h4.197V74.4h-4.204v9.664l.323.618c.24.462.453.689.846.9.477.257.616.276 1.574.217l1.313-.141c.257-.074.264-.054.264.808v.884l-.438.133c-.583.176-2.777.248-3.331.108zm10.964-.065a6.32 6.32 0 0 1-4.248-3.551c-.539-1.2-.739-2.263-.741-3.932-.007-3.908 1.495-6.403 4.435-7.371.741-.244 1.121-.294 2.289-.3 2.218-.011 3.575.52 4.894 1.919 1.372 1.453 1.944 3.121 1.948 5.677.002 2.693-.598 4.47-1.996 5.886-.875.888-1.856 1.419-3.093 1.681-1.016.214-2.583.21-3.487-.009zm3.573-2.03c1.757-.663 2.654-2.517 2.654-5.491 0-2.815-.783-4.532-2.429-5.336-.605-.295-.776-.323-2.003-.325-1.629-.002-2.26.226-3.098 1.124-.954 1.019-1.335 2.316-1.335 4.537 0 3.954 1.612 5.954 4.665 5.791.506-.027 1.159-.154 1.546-.3zM151.8 77.553v-9.925h2.335v19.849H151.8zm7.384 2.485l.03-7.448.84-.034c.962-.039 1.002-.004 1.138.968.167 1.19.127 1.171.864.421 1.311-1.333 3.286-1.883 5.481-1.527 2.172.352 3.374 1.433 3.892 3.499.125.5.16 1.847.16 6.071v5.429l-1.132.033-1.133.034-.035-5.521c-.039-6.033-.022-5.878-.745-6.738-.535-.636-1.132-.865-2.406-.92-1.625-.071-2.579.228-3.427 1.076a3.06 3.06 0 0 0-.886 1.422c-.26.777-.272.983-.331 5.71l-.062 4.904-1.139.033-1.14.034zm106.246 0l.031-7.448.897-.034.897-.034.064.501.154 1.428.09.927.563-.769c1.273-1.736 2.832-2.452 4.914-2.257l.912.086-.079.718-.143 1.019-.059.301-1.361-.009c-1.35-.009-1.368-.005-2.122.409-.89.491-1.73 1.452-2.13 2.437-.253.624-.264.817-.321 5.376l-.057 4.729-1.139.033-1.139.034zM64.95 87.537c-1.187-.269-2.114-.768-3.036-1.639-1.475-1.391-2.116-3.16-2.116-5.836 0-1.752.236-2.887.879-4.219 1.307-2.71 3.998-4.005 7-3.369 1.183.251 2.001.693 2.823 1.526 1.267 1.285 1.787 2.764 1.789 5.098l.002 1.372H62.133l.002.379c.004.649.317 1.901.631 2.521.582 1.147 1.363 1.791 2.629 2.165 1.235.366 3.648.162 5.353-.453l.886-.293c.04 0 .073.441.073.979v.979l-.613.244c-1.222.488-1.981.625-3.707.669-1.193.03-1.913-.007-2.437-.125zm4.921-9.546c-.152-1.845-.932-3.067-2.258-3.535-.627-.221-2.004-.222-2.745-.001-1.323.395-2.38 1.871-2.655 3.71l-.066.438h7.774zm35.694 9.553c-2.026-.562-3.047-1.94-3.053-4.118-.004-1.293.236-1.972.981-2.787 1.24-1.357 3.545-2.026 6.996-2.032l1.547-.073c.221-.085.241-.681.062-1.784-.31-1.912-1.182-2.534-3.42-2.443-.982.041-1.386.12-2.354.463l-1.342.491c-.134.058-.253-.124-.5-.761-.179-.461-.284-.875-.233-.919.213-.188 1.91-.804 2.718-.988.526-.119 1.389-.2 2.16-.203 3.263-.013 4.8 1.13 5.195 3.86.062.429.114 3.13.115 6.004l.003 5.225h-1.732l-.124-.582-.2-1.05c-.041-.258-.108-.469-.148-.468s-.371.305-.736.677c-1.179 1.201-2.385 1.663-4.294 1.646-.613-.006-1.351-.076-1.639-.157zm3.97-1.983c.909-.324 1.646-.978 2.095-1.858.377-.739.405-.875.452-2.161l.049-1.373-1.152.038c-4.61.153-6.111.949-6.113 3.248-.001.683.367 1.501.824 1.834.598.435 1.167.563 2.27.51.578-.028 1.287-.134 1.576-.237zm12.154 1.909c-1.056-.346-1.851-1.153-2.206-2.242-.249-.766-.258-.949-.258-5.804V74.41l-2.16-.067-.07-1.071 2.172-.956.941-3.11.668-.035.667-.035v3.392l2.131.032 2.13.031.034.905.034.905h-4.33l.001 4.641.118 5.063c.184.664.597 1.189 1.167 1.485.471.245.63.265 1.575.208l1.314-.14c.256-.074.263-.054.263.808v.884l-.438.13c-.241.072-1.016.153-1.722.182-1.081.044-1.402.013-2.031-.193zm9.095.075c-1.248-.348-2.187-1.088-2.683-2.115-.379-.787-.475-2.66-.181-3.547.394-1.186 1.681-2.247 3.331-2.746.977-.296 2.935-.528 4.495-.532.77-.002 1.475-.051 1.565-.108.239-.151.083-1.959-.232-2.692-.481-1.118-1.248-1.52-2.897-1.52-1.081 0-2.185.248-3.424.77-.385.162-.712.278-.727.258-.091-.122-.651-1.648-.618-1.682.023-.023.395-.202.827-.398 1.223-.555 2.616-.842 4.104-.846 3.265-.008 4.8 1.133 5.195 3.862.062.429.114 3.13.115 6.004l.002 5.225h-1.722l-.21-1.022-.243-1.065c-.018-.024-.343.265-.719.642-1.222 1.221-2.43 1.685-4.34 1.668-.613-.006-1.35-.076-1.639-.157zm3.97-1.983c.909-.324 1.646-.978 2.095-1.858.377-.739.405-.875.452-2.161l.049-1.373-1.152.038c-4.611.153-6.111.949-6.114 3.248-.001.683.368 1.501.823 1.834.598.435 1.168.563 2.27.51.578-.028 1.287-.134 1.576-.237zM32.361 78.603V69.73h-6.305v-2.102h14.828v2.102h-6.188v17.747h-2.335zm11.208-1.692V66.344h2.218v8.314l.539-.599c1.062-1.182 2.328-1.67 4.307-1.663 2.225.008 3.603.595 4.492 1.915.782 1.162.82 1.527.82 7.73v5.436H53.74l-.071-10.917-.307-.655c-.53-1.131-1.48-1.623-3.127-1.62-1.473.002-2.435.343-3.179 1.127-1.082 1.139-1.174 1.687-1.236 7.365l-.052 4.699H43.57zm40.163.631v-9.934l4.058.048c3.91.047 4.097.06 5.175.349 3.239.87 5.29 2.926 6.2 6.219.223.808.259 1.235.264 3.153.005 1.953-.027 2.344-.265 3.269-.855 3.312-3.055 5.542-6.281 6.367-1.455.372-2.629.464-5.966.464h-3.185zm7.668 7.655c2.167-.435 3.87-1.656 4.714-3.377.733-1.497.867-2.169.867-4.384 0-2.166-.129-2.847-.815-4.297-.759-1.607-2.36-2.809-4.319-3.242-.515-.113-1.736-.205-3.298-.248l-2.481-.067V85.53l2.209-.074 3.124-.258zm32.772-25.979c-.289-.139-.793-.519-1.121-.844-.765-.761-1.034-1.506-.953-2.634.087-1.225.67-2.064 1.885-2.714l.481-.257 25.273-.03c28.512-.034 25.963-.119 26.971.893.794.797.997 1.289.993 2.406-.003.741-.058 1.037-.268 1.436-.401.76-.99 1.347-1.7 1.695l-.641.314-25.197-.006-25.197-.006zm2.235-13.511c-1.18-.317-2.389-.921-3.478-1.735-1.667-1.246-2.656-2.387-3.357-3.871-.71-1.504-.829-2.138-.829-4.437 0-1.935.018-2.097.336-3.066.423-1.289 1.157-2.403 3.226-4.896l4.476-5.403c8.119-9.813 8.552-10.319 9.482-11.073.902-.731 2.272-1.39 3.73-1.796 1.065-.296 1.341-.325 3.153-.326 3.539-.002 4.236.313 9.787 4.413 1.016.751 1.936 1.365 2.043 1.365s.563-.458 1.013-1.016a154.48 154.48 0 0 1 2.163-2.598l2.99-3.566c3.049-3.678 4.343-4.622 7.207-5.255 1.154-.255 4.274-.192 5.386.109 1.742.472 3.4 1.525 4.865 3.087 1.091 1.164 1.846 2.449 2.304 3.923.306.982.362 1.348.362 2.362 0 .66-.058 1.451-.13 1.756-.565 2.405-1.214 3.815-2.53 5.5-.471.601-2.602 3.177-4.738 5.723l-5.502 6.614c-4.311 5.286-5.382 6.243-7.882 7.044-2.867.919-6.124.762-8.442-.406-.768-.387-2.014-1.225-4.81-3.233-1.22-.877-2.324-1.594-2.454-1.595-.168-.001-1.355 1.34-4.131 4.671-4.702 5.639-5.216 6.146-7.164 7.065-1.391.656-2.032.782-4.231.83-1.704.037-2.107.011-2.844-.188zm3.617-6.72c1.15-.404 1.203-.463 9.464-10.503 4.261-5.178 3.998-4.89 4.306-4.725.134.072 1.723 1.218 3.533 2.548l8.019 5.75c.434.228.699.277 1.518.277.853-.001 1.078-.045 1.597-.317.336-.177.835-.59 1.126-.932l12.678-15.268c1.631-1.981 1.924-2.537 1.86-3.531-.144-2.232-2.268-3.74-4.323-3.069-.341.111-.808.341-1.039.512-.467.343-2.679 2.926-6.217 7.256l-3.514 4.262-1.913 2.306c-.405.498-.788.905-.852.905s-1.261-.828-2.66-1.839c-9.108-6.585-9.034-6.533-9.564-6.681-.236-.065-.774-.119-1.195-.12-1.508-.001-1.814.272-6.012 5.37l-4.378 5.254c-4.188 4.978-6.331 7.633-6.55 8.114-.288.635-.28 1.719.018 2.377.792 1.746 2.518 2.612 4.099 2.055z"/></svg>