<svg xmlns="http://www.w3.org/2000/svg" xmlns:xlink="http://www.w3.org/1999/xlink" width="300" height="90" xmlns:v="https://vecta.io/nano"><defs><path id="A" d="M19.436 21.668V1.025H0v20.643h19.435z"/></defs><g transform="matrix(1.041014 0 0 1.041014 6.641639 5.380394)" fill="none" fill-rule="evenodd"><path fill="#2d2d2d" d="M63.815 27.943h-9.05v-4h22.584v4h-9.046v22.172h-4.489zm17.764-4h4.749l6.019 19.857h.076l5.684-19.857h4.186l5.648 19.857h.075l6.057-19.857h4.712l-8.263 26.172h-4.825l-5.497-19.181h-.075l-5.497 19.181h-4.823zm52.258-.45c7.59 0 13.348 5.272 13.348 13.385 0 8.305-5.758 13.687-13.348 13.687s-13.387-5.383-13.387-13.687c0-8.113 5.798-13.385 13.387-13.385m0 23.185c4.935 0 8.787-3.664 8.787-9.8 0-5.906-3.813-9.533-8.787-9.533s-8.787 3.626-8.787 9.533c0 6.136 3.852 9.801 8.787 9.801m51.792-22.736h4.487v26.172h-4.489V35.482zm23.767-.45c3.591 0 6.621 1.122 9.273 2.954 0 0-2.569 3.01-2.698 2.93-1.978-1.268-4.07-1.996-6.462-1.996-5.385 0-8.937 3.89-8.937 9.425 0 6.018 3.327 9.871 8.937 9.871 1.945 0 3.889-.488 5.237-1.272v-6.209h-6.581V35.87h10.73v11.852c-2.545 1.795-5.871 2.84-9.497 2.84-8.191 0-13.424-5.532-13.424-13.758 0-7.703 5.309-13.312 13.423-13.312m15.857.45h4.527l8.637 12.301 8.636-12.301h4.49v26.172h-4.338V30.598l-8.828 12.337-8.823-12.337v19.517h-4.301z"/><g transform="matrix(1.267978 0 0 1.267978 255.73344 22.641004)"><mask id="B" fill="#fff"><use xlink:href="#A"/></mask><path d="M7.639 1.025h4.158l7.64 20.643H15.63l-1.561-4.454H5.368l-1.533 4.454H0zM6.34 14.354h6.725L9.734 4.74h-.06z" fill="#2d2d2d" mask="url(#B)"/></g><path d="M162.42 44.471c2.36 1.277 4.588 2.13 7.465 2.13 3.443 0 5.159-1.496 5.159-3.588 0-5.909-14.729-2.021-14.729-12.003 0-4.188 3.474-7.517 9.345-7.517 3.441 0 6.902.828 9.61 2.412l-2.934 2.994c-2.13-.913-3.943-1.442-6.525-1.442-3.029 0-4.826 1.534-4.826 3.479 0 5.871 14.734 1.868 14.734 12.038 0 4.302-3.255 7.589-9.834 7.589-3.848 0-8.026-1.364-10.49-3.067z" fill="#2d2d2d"/><path fill="#009aa6" d="M20.152 10.871L-6 37.029l26.152 26.156L46.31 37.029z"/><path d="M6.36 44.541c-.203-8.375 9.876-7.286 9.876-11.577 0-1.395-1.094-2.588-3.53-2.588-1.776 0-3.478.889-4.722 2.031l-1.851-1.855c1.596-1.496 4.087-2.713 6.7-2.713 4.189 0 6.322 2.336 6.322 5.076 0 6.322-9.799 5.204-9.799 10.486h9.646v2.511H6.386zm20.208-.634c-1.929 0-3.072-1.243-3.072-3.629 0-3.048 2.031-5.79 4.47-5.79 1.902 0 3.046 1.244 3.046 3.656 0 3.044-2.006 5.763-4.443 5.763zm12.316-11.729H28.177v.004c-4.358.006-7.65 3.481-7.65 8.119 0 3.683 2.385 5.916 5.762 5.916 4.392 0 7.693-3.478 7.693-8.097 0-1.499-.397-2.755-1.085-3.722h3.737l2.251-2.219z" fill="#fff"/></g></svg>