<?xml version="1.0" encoding="UTF-8" standalone="no"?>
<svg
   width="300"
   height="90"
   viewbox="0 0 230 42"
   version="1.1"
   id="svg12160"
   sodipodi:docname="two-sigma.svg"
   inkscape:version="1.1.1 (3bf5ae0d25, 2021-09-20)"
   xmlns:inkscape="http://www.inkscape.org/namespaces/inkscape"
   xmlns:sodipodi="http://sodipodi.sourceforge.net/DTD/sodipodi-0.dtd"
   xmlns:xlink="http://www.w3.org/1999/xlink"
   xmlns="http://www.w3.org/2000/svg"
   xmlns:svg="http://www.w3.org/2000/svg"
   xmlns:rdf="http://www.w3.org/1999/02/22-rdf-syntax-ns#"
   xmlns:cc="http://creativecommons.org/ns#"
   xmlns:dc="http://purl.org/dc/elements/1.1/">
  <sodipodi:namedview
     id="namedview12162"
     pagecolor="#ffffff"
     bordercolor="#666666"
     borderopacity="1.0"
     inkscape:pageshadow="2"
     inkscape:pageopacity="0.0"
     inkscape:pagecheckerboard="0"
     showgrid="false"
     inkscape:zoom="2.239776"
     inkscape:cx="121.88719"
     inkscape:cy="-58.711228"
     inkscape:window-width="1866"
     inkscape:window-height="1016"
     inkscape:window-x="54"
     inkscape:window-y="27"
     inkscape:window-maximized="1"
     inkscape:current-layer="g12158"
     fit-margin-top="0"
     fit-margin-left="0"
     fit-margin-right="0"
     fit-margin-bottom="0" />
  <title
     id="title12138">
  Logo
</title>
  <defs
     id="defs12141">
    <path
       id="a"
       d="M 19.436,21.668 V 1.025 H 0 v 20.643 h 19.435 z" />
  </defs>
  <g
     fill="none"
     fill-rule="evenodd"
     id="g12158">
    <g
       id="g1240"
       transform="matrix(1.0410142,0,0,1.0410142,6.6416391,5.3803937)">
      <path
         fill="#2d2d2d"
         d="m 63.814857,27.943053 h -9.049558 v -4.00047 h 22.583952 v 4.00047 h -9.045753 v 22.171859 h -4.488641 z m 17.764368,-4.00047 h 4.748577 l 6.019091,19.856532 h 0.07608 l 5.684345,-19.856532 h 4.185592 l 5.64757,19.856532 h 0.0748 l 6.05713,-19.856532 h 4.71181 l -8.26341,26.172329 h -4.82466 l -5.49668,-19.1807 h -0.0748 l -5.496683,19.1807 h -4.823388 z m 52.258435,-0.450132 c 7.59012,0 13.348,5.272251 13.348,13.384773 0,8.305255 -5.75788,13.686552 -13.348,13.686552 -7.58885,0 -13.38731,-5.382565 -13.38731,-13.686552 0,-8.112522 5.79846,-13.384773 13.38731,-13.384773 m 0,23.184974 c 4.93497,0 8.78709,-3.664456 8.78709,-9.800201 0,-5.90624 -3.81281,-9.532657 -8.78709,-9.532657 -4.97301,0 -8.78708,3.626417 -8.78708,9.532657 0,6.135745 3.85211,9.801469 8.78708,9.801469 m 51.79182,-22.73611 h 4.48738 v 26.172329 h -4.48865 V 35.482449 Z m 23.76698,-0.450132 c 3.59091,0 6.62138,1.12216 9.27272,2.954388 0,0 -2.56892,3.010179 -2.69826,2.930297 -1.97804,-1.267978 -4.07021,-1.995797 -6.46161,-1.995797 -5.3851,0 -8.93671,3.890156 -8.93671,9.424879 0,6.017822 3.32717,9.871207 8.93671,9.871207 1.94508,0 3.88889,-0.488172 5.23675,-1.271782 v -6.209287 h -6.58081 V 35.87045 h 10.72963 v 11.851788 c -2.54483,1.795457 -5.87074,2.84027 -9.49715,2.84027 -8.19114,0 -13.42409,-5.532187 -13.42409,-13.757558 0,-7.702965 5.30903,-13.312499 13.42282,-13.312499 m 15.85733,0.450132 h 4.52668 l 8.63746,12.300652 8.6362,-12.300652 h 4.48991 v 26.172329 h -4.33775 V 30.598198 l -8.82766,12.337424 -8.82259,-12.337424 v 19.516714 h -4.30098 z"
         id="path12143"
         style="stroke-width:1.26798" />
      <g
         transform="matrix(1.2679778,0,0,1.2679778,255.73344,22.641004)"
         id="g12150">
        <mask
           id="b"
           fill="#ffffff">
          <use
             xlink:href="#a"
             id="use12145"
             x="0"
             y="0"
             width="100%"
             height="100%" />
        </mask>
        <path
           d="m 7.639,1.025 h 4.158 l 7.64,20.643 H 15.63 L 14.069,17.214 H 5.368 L 3.835,21.668 H 0 Z M 6.34,14.354 h 6.725 L 9.734,4.74 h -0.06 z"
           fill="#2d2d2d"
           mask="url(#b)"
           id="path12148" />
      </g>
      <path
         d="m 162.42042,44.470509 c 2.3597,1.276854 4.58754,2.130203 7.46458,2.130203 3.44256,0 5.1594,-1.496214 5.1594,-3.588377 0,-5.908777 -14.72883,-2.021157 -14.72883,-12.002678 0,-4.188131 3.47426,-7.516572 9.345,-7.516572 3.44129,0 6.9016,0.827989 9.61,2.411694 l -2.9341,2.993695 c -2.1302,-0.912944 -3.94341,-1.441691 -6.52501,-1.441691 -3.0292,0 -4.82592,1.534253 -4.82592,3.479331 0,5.870738 14.7339,1.867732 14.7339,12.038181 0,4.302249 -3.2549,7.588847 -9.83444,7.588847 -3.84831,0 -8.0263,-1.364344 -10.48998,-3.067238 z"
         fill="#2d2d2d"
         id="path12152"
         style="stroke-width:1.26798" />
      <path
         fill="#009aa6"
         d="M 20.152042,10.871 -6,37.029382 20.152042,63.185227 46.310423,37.029382 Z"
         id="path12154"
         style="stroke-width:1.26798" />
      <path
         d="m 6.3602474,44.540882 c -0.2028764,-8.374993 9.8762786,-7.2858 9.8762786,-11.576637 0,-1.394776 -1.094264,-2.587943 -3.53005,-2.587943 -1.776437,0 -3.4780629,0.888853 -4.7219491,2.031301 L 6.1332794,30.552551 c 1.596384,-1.496214 4.0866926,-2.713472 6.6999946,-2.713472 4.189399,0 6.322137,2.335615 6.322137,5.075715 0,6.322137 -9.7989321,5.203781 -9.7989321,10.486176 h 9.6455071 v 2.510596 H 6.385607 Z M 26.568009,43.906893 c -1.928594,0 -3.07231,-1.242618 -3.07231,-3.628952 0,-3.048219 2.031301,-5.789587 4.469622,-5.789587 1.901966,0 3.045682,1.243886 3.045682,3.65558 0,3.044415 -2.00594,5.762959 -4.442994,5.762959 z M 38.883877,32.178099 H 28.177073 v 0.0038 c -4.35804,0.0063 -7.64971,3.480599 -7.64971,8.118861 0,3.683476 2.385066,5.916385 5.761691,5.916385 4.392275,0 7.692821,-3.478063 7.692821,-8.097307 0,-1.498749 -0.396877,-2.755315 -1.085389,-3.721514 h 3.736731 l 2.25066,-2.218961 z"
         fill="#ffffff"
         id="path12156"
         style="stroke-width:1.26798" />
    </g>
  </g>
  <metadata
     id="metadata12238">
    <rdf:RDF>
      <cc:Work
         rdf:about="">
        <dc:title>
  Logo
</dc:title>
      </cc:Work>
    </rdf:RDF>
  </metadata>
</svg>
