<svg xmlns="http://www.w3.org/2000/svg" width="300" height="90" xmlns:v="https://vecta.io/nano"><path d="M99.257 87.91l-2.302-5.658-2.294 5.658h-.312l-2.711-8.907h.961l2.017 6.733 2.198-5.442h.319l2.2 5.391 2-6.682h.94l-2.698 8.907zm10.455-.066l-1.034-2.448h-4.001l-1.038 2.448h-1.003l3.902-8.9h.319l3.908 8.9zm-4.691-3.259h3.315l-1.659-3.888zm7.071 1.958h.012c.735.367 1.519.557 2.341.557 1.119 0 1.776-.582 1.776-1.529 0-1.06-.689-1.338-2.039-1.917-1.09-.47-2.217-.971-2.217-2.416 0-1.427 1.038-2.385 2.733-2.385.65 0 1.255.102 1.872.311v.937h-.006c-.611-.212-1.246-.352-1.866-.352-1.075 0-1.721.501-1.721 1.389s.721 1.224 1.74 1.653c1.174.504 2.517 1.024 2.517 2.681 0 1.473-1.09 2.522-2.789 2.522-.847 0-1.695-.174-2.353-.466v-.986zm13.62 1.301v-4.053h-4.734v4.053h-.974v-8.841h.974v3.919h4.734v-3.919h.975v8.841zm4.38-8.841h.971v8.841h-.971zm10.834 8.869l-5.543-6.771v6.743h-.911v-8.867h.388l5.545 6.772v-6.745h.911v8.869zm10.343-3.564h-2.341v-.909h3.302v3.562c-.886.674-1.923 1.034-3.239 1.034-2.457 0-4.734-1.804-4.734-4.568 0-2.895 2.415-4.574 4.759-4.574.946 0 1.95.176 2.78.581v.959h-.01c-.838-.431-1.885-.644-2.758-.644-2.357 0-3.728 1.604-3.728 3.677 0 2.082 1.637 3.685 3.702 3.685.873 0 1.555-.174 2.265-.594v-2.21zm5.495 3.535v-7.966h-2.962v-.875h6.884v.875h-2.959v7.966zm4.96-4.417c0-2.654 2.074-4.574 4.469-4.574s4.367 1.92 4.367 4.574c0 2.648-2.068 4.56-4.457 4.56-2.395 0-4.38-1.912-4.38-4.56zm7.784 0c0-2.089-1.39-3.701-3.353-3.701-1.974 0-3.38 1.612-3.38 3.701 0 2.082 1.406 3.7 3.38 3.7 1.963 0 3.353-1.618 3.353-3.7zm10.442 4.445l-5.545-6.771v6.743h-.904v-8.867h.385l5.546 6.772v-6.745h.911v8.869zm3.646 1.56h-.584l.306-2.81h1.103v.34zm7.514-10.429h2.333c3.3 0 5.047 2.043 5.047 4.424 0 2.36-1.758 4.417-5.047 4.417h-2.333zm2.333.864h-1.37v7.122h1.37c2.694 0 4.001-1.494 4.001-3.561s-1.319-3.56-4.001-3.56zm14.681 6.755v.923c-.695.288-1.457.451-2.404.451-2.772 0-4.759-1.92-4.759-4.568 0-2.602 2.038-4.574 4.759-4.574.947 0 1.71.161 2.404.452v.924h-.014c-.732-.324-1.554-.478-2.403-.478-2.339 0-3.698 1.588-3.698 3.677 0 2.082 1.444 3.673 3.71 3.673.836 0 1.658-.154 2.39-.478zM91.498 69.247h117.004v1.882H91.498zm6.425-46.974h-2.061V12.141h-3.953v-1.87h9.966v1.87h-3.952zm16.58 0h-2.061V17.11h-5.807v5.164h-2.045V10.272h2.045v5.004h5.807v-5.004h2.061zm12.111 0h-8.024V10.272h8.024v1.87h-5.959v3.134h5.615v1.803h-5.615v3.323h5.959zm15.644-4.649h-2.852v-1.8h4.829v5.625c-1.203.687-2.663 1.113-4.383 1.113-3.625 0-6.578-2.519-6.578-6.275 0-3.976 3.128-6.308 6.855-6.308 1.218 0 2.249.137 3.246.465v1.97c-1.047-.397-2.214-.552-3.246-.552-3.047 0-4.657 1.887-4.657 4.408 0 2.623 1.838 4.478 4.485 4.478.912 0 1.631-.125 2.301-.398zm13.538 4.649h-8.022V10.272h8.022v1.87h-5.964v3.134h5.619v1.803h-5.619v3.323h5.964zm2.814-6.003c0-3.601 2.696-6.291 6.187-6.291 3.504 0 6.078 2.69 6.078 6.291s-2.694 6.292-6.186 6.292c-3.504 0-6.079-2.692-6.079-6.292zm10.067 0c0-2.536-1.612-4.475-3.95-4.475-2.304 0-3.915 1.939-3.915 4.475s1.61 4.478 3.946 4.478c2.306 0 3.918-1.94 3.918-4.478zm7.714 6.003h-2.063V10.272h3.796c3.168 0 4.81 1.661 4.81 3.904 0 1.58-.822 2.883-2.401 3.515l3.039 4.582h-2.409l-2.606-4.129h-2.166zm1.859-5.947c1.697 0 2.521-.792 2.521-2.093s-.824-2.112-2.521-2.112h-1.859v4.205zm16.299 1.298h-2.852v-1.8h4.828v5.625c-1.207.687-2.663 1.113-4.382 1.113-3.625 0-6.578-2.519-6.578-6.275 0-3.976 3.125-6.308 6.856-6.308 1.217 0 2.25.137 3.242.465v1.97c-1.049-.397-2.217-.552-3.242-.552-3.047 0-4.661 1.887-4.661 4.408 0 2.623 1.84 4.478 4.484 4.478.912 0 1.636-.125 2.304-.398zm13.535 4.649h-8.022V10.272h8.022v1.87h-5.957v3.134h5.616v1.803h-5.616v3.323h5.957zM102.08 56.544c0 3.122-2.143 4.972-5.099 4.972-2.991 0-5.052-1.799-5.052-4.972v-7.229h2.061v7.127c0 2.111 1.118 3.243 3.027 3.243 1.868 0 3.003-1.151 3.003-3.243v-7.127h2.061zm15.068 4.853h-.704l-7.509-7.955v7.87h-1.96V49.226h.702l7.511 7.989v-7.9h1.96zm5.061-12.082h2.065v11.997h-2.065zm10.874 12.082l-5.637-12.082h2.256l3.672 8.138 3.696-8.138h2.182l-5.638 12.082zm17.573-.085h-8.232V49.315h8.232v1.864h-6.167v3.14h5.823v1.8h-5.823v3.323h6.167zm6.66 0h-2.061V49.315h3.934c3.215 0 4.895 1.66 4.895 3.903 0 1.577-.844 2.901-2.476 3.516l3.127 4.577h-2.403l-2.698-4.132h-2.318zm1.992-5.95c1.752 0 2.616-.787 2.616-2.092 0-1.299-.864-2.107-2.616-2.107h-1.992v4.199zm8.45 3.652c1.117.499 2.319.772 3.488.772 1.513 0 2.044-.838 2.044-1.716 0-1.062-.789-1.351-2.612-2.073-1.528-.598-3.159-1.354-3.159-3.395 0-2.076 1.619-3.582 4.243-3.582.962 0 1.888.186 2.749.48v1.99h-.035c-.791-.343-1.885-.654-2.834-.654-1.393 0-2.026.654-2.026 1.526 0 .944.72 1.22 2.526 1.904 1.56.602 3.245 1.354 3.245 3.563 0 1.939-1.407 3.774-4.263 3.774-1.267 0-2.421-.22-3.4-.598v-1.99h.033zm11.923-9.699h2.057v11.997h-2.057zm11.763 11.997h-2.058V51.179h-4.003v-1.864h10.065v1.864h-4.004zm10.339 0v-4.916l-4.503-7.08h2.375l3.195 5.293 3.158-5.293h2.325l-4.504 7.093v4.904zm-99.941-19.435l-3.058-6.598-2.936 6.598h-.535l-3.724-12.085h2.112l2.233 7.629 2.765-6.068h.348l2.797 6.049 2.249-7.61h1.981l-3.696 12.085h-.534zm12.895-.084l-1.013-2.382h-4.848l-.994 2.382h-2.128l5.327-12.087h.528l5.326 12.087zm-5.135-4.099h3.402l-1.708-4.011zm8.953 1.8c.982.499 2.031.772 3.062.772 1.325 0 1.822-.839 1.822-1.714 0-1.096-.809-1.404-2.353-2.072-1.409-.601-2.922-1.374-2.922-3.415 0-2.056 1.478-3.565 3.914-3.565a7.47 7.47 0 0 1 2.579.482v1.987h-.018c-.703-.347-1.715-.652-2.561-.652-1.25 0-1.822.652-1.822 1.526 0 .975.846 1.303 2.204 1.888 1.44.617 3.076 1.37 3.076 3.599 0 1.92-1.325 3.751-3.919 3.751-1.169 0-2.183-.222-3.079-.597v-1.99h.016zm19.271 2.299h-2.059v-5.16h-5.432v5.16h-2.046V29.791h2.046v5.006h5.432v-5.006h2.059v12.001zm3.738-12.001h2.058v12.001h-2.058zm15.5 12.085h-.7l-7.043-7.816v7.731h-1.963V29.705h.704l7.046 7.851v-7.766h1.955zm11.882-4.73h-2.748v-1.799h4.722v5.624c-1.184.684-2.604 1.108-4.293 1.108-3.555 0-6.459-2.517-6.459-6.272 0-3.976 3.056-6.308 6.714-6.308 1.184 0 2.203.139 3.182.463v1.955h-.015c-1.019-.379-2.151-.531-3.144-.531-2.957 0-4.539 1.885-4.539 4.402 0 2.627 1.785 4.477 4.346 4.477.876 0 1.584-.121 2.233-.393v-2.725zm9.387 4.645h-2.06V31.659h-3.829v-1.868h9.724v1.868h-3.834zm4.923-6.004c0-3.595 2.647-6.289 6.083-6.289 3.455 0 5.978 2.694 5.978 6.289 0 3.603-2.643 6.291-6.078 6.291-3.453 0-5.983-2.689-5.983-6.291zm9.862 0c0-2.532-1.58-4.472-3.848-4.472-2.234 0-3.813 1.94-3.813 4.472 0 2.54 1.579 4.477 3.845 4.477 2.236 0 3.816-1.936 3.816-4.477zm15.007 6.088h-.701l-7.045-7.816v7.731h-1.96V29.705h.704l7.043 7.851v-7.766h1.958zM91.498.568h117.004v1.878H91.498z" fill="#b1b1b1" fill-rule="evenodd"/></svg>